<?xml version="1.0" encoding="UTF-8"?>
<!DOCTYPE svg PUBLIC "-//W3C//DTD SVG 1.1//EN" "http://www.w3.org/Graphics/SVG/1.1/DTD/svg11.dtd">
<!-- Creator: CorelDRAW 2020 (64 Bit) -->
<svg xmlns="http://www.w3.org/2000/svg" xml:space="preserve" width="39.015mm" height="48.7688mm" version="1.1" style="shape-rendering:geometricPrecision; text-rendering:geometricPrecision; image-rendering:optimizeQuality; fill-rule:evenodd; clip-rule:evenodd"
viewBox="0 0 3901.5 4876.88"
 xmlns:xlink="http://www.w3.org/1999/xlink"
 xmlns:xodm="http://www.corel.com/coreldraw/odm/2003">
 <defs>
  <style type="text/css">
   <![CDATA[
    .fil3 {fill:#999999;fill-rule:nonzero}
    .fil0 {fill:#B3B3B3;fill-rule:nonzero}
    .fil4 {fill:#CCCCCC;fill-rule:nonzero}
    .fil1 {fill:#D0E2ED;fill-rule:nonzero}
    .fil2 {fill:#E6E6E6;fill-rule:nonzero}
   ]]>
  </style>
 </defs>
 <g id="Camada_x0020_1">
  <metadata id="CorelCorpID_0Corel-Layer"/>
  <g id="_2237336342944">
   <path class="fil0" d="M3738.92 162.54c89.79,0 162.58,72.78 162.58,162.56l0 4389.21c0,89.78 -72.79,162.56 -162.58,162.56l-3576.34 0.01c-89.79,0 -162.58,-72.79 -162.58,-162.57l0 -4389.2c0,-89.79 72.78,-162.57 162.58,-162.57l3576.34 0z"/>
   <path class="fil1" d="M3495.09 487.69c44.9,0 81.28,36.4 81.28,81.28l0 3901.51c0,44.9 -36.4,81.28 -81.28,81.28l-3088.69 0c-44.9,0 -81.28,-36.4 -81.28,-81.28l0 -3901.51c0,-44.89 36.39,-81.28 81.28,-81.28l3088.69 0z"/>
   <path class="fil2" d="M3495.09 487.69c44.9,0 81.28,36.4 81.28,81.28l0 3901.51c0,44.9 -36.4,81.28 -81.28,81.28l-3088.69 0c-44.9,0 -81.28,-36.4 -81.28,-81.28l0 -3901.51c0,-44.89 36.39,-81.28 81.28,-81.28l3088.69 0z"/>
   <path class="fil3" d="M2926.12 1861.79c-18.84,0 -37.67,-7.18 -52.05,-21.55l-110.52 -110.52 -110.51 110.52c-14.38,14.37 -33.22,21.55 -52.04,21.55 -18.83,0 -37.67,-7.18 -52.04,-21.55 -28.75,-28.75 -28.75,-75.35 0,-104.08l110.52 -110.52 -110.53 -110.53c-28.74,-28.74 -28.74,-75.34 0,-104.07 28.76,-28.74 75.35,-28.74 104.08,0l110.52 110.52 110.53 -110.52c28.75,-28.74 75.34,-28.74 104.08,0 28.74,28.74 28.74,75.34 0,104.07l-110.53 110.53 110.52 110.52c28.75,28.74 28.75,75.34 0,104.08 -14.36,14.37 -33.2,21.55 -52.03,21.55zm-1625.62 2438.45l-487.69 0c-40.66,0 -73.6,-32.96 -73.6,-73.6 0,-40.64 32.94,-73.6 73.6,-73.6l487.69 0c40.65,0 73.59,32.96 73.59,73.6 0,40.64 -32.94,73.6 -73.59,73.6zm1625.62 -772.18c-40.66,0 -73.6,-32.95 -73.6,-73.6l0 -81.28c0,-40.64 32.94,-73.59 73.6,-73.59 40.65,0 73.59,32.95 73.59,73.59l0 81.28c0,40.65 -32.94,73.6 -73.59,73.6zm-1544.34 -40.63c-40.65,0 -73.59,-32.96 -73.59,-73.6 0,-40.65 32.94,-73.6 73.59,-73.6 542.06,0 983.06,-441 983.06,-983.06 0,-348.41 -181.81,-664.77 -473.48,-841.08l35.1 168.74c8.28,39.79 -17.27,78.75 -57.06,87.03 -5.06,1.05 -10.1,1.56 -15.07,1.56l0 -0.01c-34.14,0 -64.75,-23.88 -71.98,-58.62l-65.9 -316.78c-3.34,-14.47 -2.35,-30.09 3.8,-44.85 6.11,-14.65 16.41,-26.28 28.93,-34.08l0.16 -0.1 1.35 -0.82 0.19 -0.11 1.35 -0.77 1.45 -0.79 0.13 -0.07c0.96,-0.5 1.93,-0.99 2.91,-1.45l0.3 -0.14c0.96,-0.45 1.93,-0.88 2.91,-1.28l0.39 -0.17 0.88 -0.35 1.05 -0.4 0.41 -0.16 1.36 -0.49 0.29 -0.1 1.61 -0.53 0 0c2.83,-0.9 5.71,-1.63 8.64,-2.18l316.95 -65.95c39.74,-8.27 78.76,17.27 87.04,57.06 8.28,39.8 -17.27,78.77 -57.06,87.05l-119.04 24.77c314.94,206.34 509.59,558.54 509.59,945.07 -0.02,623.22 -507.04,1130.25 -1130.26,1130.25l0 0.01zm1544.34 650.24c-130.23,0 -236.15,-105.94 -236.15,-236.16 0,-130.22 105.94,-236.15 236.15,-236.15 130.21,0 236.15,105.94 236.15,236.15 0.01,130.22 -105.93,236.16 -236.15,236.16zm0 -325.12c-49.06,0 -88.96,39.9 -88.96,88.96 0,49.05 39.9,88.97 88.96,88.97 49.05,0 88.96,-39.91 88.96,-88.97 0.01,-49.06 -39.91,-88.96 -88.96,-88.96zm0 -650.26c-130.23,0 -236.15,-105.94 -236.15,-236.16 0,-130.21 105.94,-236.15 236.15,-236.15 130.21,0 236.15,105.94 236.15,236.15 0.01,130.23 -105.93,236.16 -236.15,236.16zm0 -325.12c-49.06,0 -88.96,39.91 -88.96,88.96 0,49.06 39.9,88.97 88.96,88.97 49.05,0 88.96,-39.9 88.96,-88.97 0.01,-49.05 -39.91,-88.96 -88.96,-88.96zm-1950.74 812.81c-130.22,0 -236.15,-105.94 -236.15,-236.15 0,-130.23 105.93,-236.16 236.15,-236.16 130.22,0 236.16,105.94 236.16,236.16 0,130.21 -105.95,236.15 -236.16,236.15zm0 -325.12c-49.06,0 -88.97,39.9 -88.97,88.97 0,49.05 39.91,88.96 88.97,88.96 49.06,0 88.97,-39.91 88.97,-88.96 0,-49.06 -39.91,-88.97 -88.97,-88.97zm325.12 -1788.19c-130.23,0 -236.15,-105.94 -236.15,-236.15 0,-130.21 105.94,-236.16 236.15,-236.16 130.21,0 236.15,105.94 236.15,236.16 0.01,130.21 -105.93,236.15 -236.15,236.15zm0 -325.13c-49.06,0 -88.96,39.91 -88.96,88.97 0,49.06 39.9,88.96 88.96,88.96 49.05,0 88.96,-39.9 88.96,-88.96 0.01,-49.05 -39.91,-88.97 -88.96,-88.97zm325.12 1300.51c-18.84,0 -37.67,-7.19 -52.05,-21.56l-110.52 -110.52 -110.52 110.52c-14.36,14.36 -33.21,21.56 -52.03,21.56 -18.84,0 -37.67,-7.19 -52.05,-21.56 -28.74,-28.74 -28.74,-75.34 0,-104.07l110.52 -110.53 -110.52 -110.52c-28.74,-28.74 -28.74,-75.34 0,-104.08 28.76,-28.75 75.35,-28.74 104.08,0l110.52 110.52 110.52 -110.52c28.75,-28.74 75.34,-28.74 104.08,0 28.74,28.75 28.75,75.35 0,104.08l-110.52 110.52 110.52 110.53c28.75,28.74 28.75,75.34 0,104.07 -14.36,14.36 -33.2,21.56 -52.03,21.56z"/>
   <path class="fil4" d="M2525.28 650.28l-1149.04 0c-86.72,0 -157,-70.29 -157,-157.01l0 -414.77c0,-43.35 35.14,-78.5 78.5,-78.5l1306.04 0c43.35,0 78.5,35.15 78.5,78.5l0 414.77c0,86.71 -70.29,157.01 -157,157.01z"/>
   <path class="fil0" d="M1552.02 650.28l0 -162.57c0,-40.64 32.94,-73.59 73.6,-73.59 40.65,0 73.59,32.95 73.59,73.59l0 162.57 -147.19 0z"/>
   <path class="fil0" d="M2202.28 650.28l0 -162.57c0,-40.64 32.94,-73.59 73.59,-73.59 40.66,0 73.6,32.95 73.6,73.59l0 162.57 -147.19 0z"/>
  </g>
 </g>
</svg>
