<?xml version="1.0" encoding="UTF-8"?>
<!DOCTYPE svg PUBLIC "-//W3C//DTD SVG 1.1//EN" "http://www.w3.org/Graphics/SVG/1.1/DTD/svg11.dtd">
<!-- Creator: CorelDRAW 2020 (64 Bit) -->
<svg xmlns="http://www.w3.org/2000/svg" xml:space="preserve" width="164.022mm" height="106.362mm" version="1.1" style="shape-rendering:geometricPrecision; text-rendering:geometricPrecision; image-rendering:optimizeQuality; fill-rule:evenodd; clip-rule:evenodd"
viewBox="0 0 17841.18 11569.36"
 xmlns:xlink="http://www.w3.org/1999/xlink"
 xmlns:xodm="http://www.corel.com/coreldraw/odm/2003">
 <defs>
  <style type="text/css">
   <![CDATA[
    .fil0 {fill:#009933}
    .fil3 {fill:white;fill-rule:nonzero}
    .fil2 {fill:url(#id0)}
    .fil1 {fill:url(#id1)}
   ]]>
  </style>
  <radialGradient id="id0" gradientUnits="userSpaceOnUse" gradientTransform="matrix(2.16327E-14 -0.684763 0.999999 2.20436E-14 3609 12217)" cx="9393.45" cy="5784.68" r="8447.73" fx="9393.45" fy="5784.68">
   <stop offset="0" style="stop-opacity:1; stop-color:#56BA1C"/>
   <stop offset="1" style="stop-opacity:1; stop-color:#0D941B"/>
  </radialGradient>
  <radialGradient id="id1" gradientUnits="userSpaceOnUse" gradientTransform="matrix(2.17848E-14 -0.684763 1 2.20437E-14 2663 11569)" cx="8447.72" cy="5784.68" r="8447.72" fx="8447.72" fy="5784.68">
   <stop offset="0" style="stop-opacity:1; stop-color:#04B117"/>
   <stop offset="1" style="stop-opacity:1; stop-color:#028D10"/>
  </radialGradient>
 </defs>
 <g id="Camada_x0020_1">
  <metadata id="CorelCorpID_0Corel-Layer"/>
  <g id="_1747714333456">
   <rect class="fil0" x="0" y="-0" width="17841.18" height="11569.37"/>
   <path class="fil1" d="M945.74 0l0 11569.36 -945.74 0 0 -11569.36 945.74 0zm15949.69 0l0 11569.36 -945.73 0 0 -11569.36 945.73 0zm-1763.66 0l0 11569.36 -945.74 0 0 -11569.36 945.74 0zm-1789.24 0l0 11569.36 -945.73 0 0 -11569.36 945.73 0zm-1763.66 0l0 11569.36 -945.74 0 0 -11569.36 945.74 0zm-1763.68 0l0 11569.36 -945.74 0 0 -11569.36 945.74 0zm-1789.22 0l0 11569.36 -945.74 0 0 -11569.36 945.74 0zm-1763.68 0l0 11569.36 -945.74 0 0 -11569.36 945.74 0zm-1763.67 0l0 11569.36 -945.74 0 0 -11569.36 945.74 0zm-1789.23 0l0 11569.36 -945.74 0 0 -11569.36 945.74 0z"/>
   <path class="fil2" d="M945.74 11569.36l0 -11569.36 817.93 0 0 11569.36 -817.93 0zm15949.69 0l0 -11569.36 945.75 0 0 11569.36 -945.75 0zm-1763.66 0l0 -11569.36 817.93 0 0 11569.36 -817.93 0zm-1789.24 0l0 -11569.36 843.5 0 0 11569.36 -843.5 0zm-1763.66 0l0 -11569.36 817.93 0 0 11569.36 -817.93 0zm-1763.68 0l0 -11569.36 817.94 0 0 11569.36 -817.94 0zm-1789.22 0l0 -11569.36 843.48 0 0 11569.36 -843.48 0zm-1763.68 0l0 -11569.36 817.94 0 0 11569.36 -817.94 0zm-1763.67 0l0 -11569.36 843.49 0 0 11569.36 -843.49 0zm-1789.23 0l0 -11569.36 843.49 0 0 11569.36 -843.49 0z"/>
   <path class="fil3" d="M17485.97 383.51l-53.27 0 0 544.07c-132.5,-11.04 -251.24,-69.26 -340.06,-158 -87.11,-87.18 -144.82,-203.22 -157.35,-332.8l550.67 0 0 -53.27 -53.27 0 53.27 0 0 -53.27 -17184.04 0 0 2961.58 0 4985.7 0 2961.58 17237.3 0 0 -2961.58 0 -4985.7 0 -2961.58 -53.27 0 0 53.27zm-15894.99 4090.82l-53.28 0 0 2567.42 -1129.24 0 0 -2514.16 1182.52 0 0 -53.27 -53.28 0 53.28 0 0 -53.27 -1182.52 0 0 -1022.71 2269.14 0 0 -53.27 -53.27 0 53.27 0 0 -53.27 -2269.14 0 0 -2257.98c317.9,-25.71 571.37,-279.18 597.09,-597.08l7915.04 0 0 3831.52c-844.59,22.61 -1522.28,714.27 -1522.3,1564.32 0.02,850.05 677.71,1541.72 1522.3,1564.32l0 3735.65 -7915.28 0c-26.92,-316.66 -279.84,-568.77 -596.85,-594.42l0 -2260.63 2322.4 0 0 -1451.05c341.7,-220.47 568.02,-604.82 568.02,-1041.8 0,-436.96 -226.33,-821.35 -568.02,-1041.82l0 -1451.03 -53.27 0 0 53.27 -53.27 0 0 4825.9 -2215.87 0 0 -1022.71 1235.77 0 0 -2727.22 -53.26 0 0 53.27zm1139.89 2222.75l0 -1824.84c279.94,206.31 461.51,538.05 461.49,912.43 0.02,374.4 -181.53,706.1 -461.49,912.41zm13519.33 -2222.75l-53.27 0 0 2673.96 1235.77 0 0 1022.71 -2215.87 0 0 -4825.9 -53.27 0 0 53.27 0 -53.27 -53.27 0 0 1393.1c-345.74,219.69 -575.26,606.42 -575.27,1046.48 0.01,440.05 229.52,826.77 575.27,1046.47l0 1446.38 2322.4 0 0 2260.1c-320.4,22.35 -576.98,275.89 -604.09,594.96l-7801.48 0 0 -3736.46c834.64,-33.57 1500.97,-720.63 1500.98,-1563.5 -0.01,-842.87 -666.34,-1529.94 -1500.98,-1563.5l0 -3832.33 7801.24 0c25.92,320.3 283.04,575.2 604.33,597.62l0 2257.43 -2322.4 0 0 53.27 53.27 0 0 53.27 2269.14 0 0 1022.71 -1235.77 0 0 53.27 53.27 0 0 53.27 1182.5 0 0 2514.16 -1129.25 0 0 -2567.42 -53.26 0 0 53.27 0 -53.27zm-1139.9 392.59l0 1835.5c-284.07,-205.91 -468.76,-540.12 -468.74,-917.75 -0.02,-377.62 184.67,-711.87 468.74,-917.75zm-6083.17 2422.66l0 -2913.94c377.4,16.28 717.27,175.77 967.31,425.75 264,264.07 427.13,628.34 427.15,1031.22 -0.02,402.88 -163.15,767.17 -427.15,1031.23 -250.04,249.97 -589.91,409.45 -967.31,425.74zm-106.53 -2914.71l0 2915.49c-385.93,-11.07 -733.89,-171.85 -988.62,-426.51 -264.01,-264.07 -427.14,-628.35 -427.15,-1031.23 0.01,-402.88 163.14,-767.15 427.15,-1031.22 254.72,-254.67 602.69,-415.44 988.62,-426.52zm8512.11 6269.57l0 488.14 -497.15 0c13.05,-128.5 70.58,-243.56 157.09,-330.15 88.81,-88.74 207.56,-146.96 340.06,-157.99zm-16534.34 488.14l-489.9 0 0 -487.5c129.58,12.53 245.63,70.23 332.81,157.35 86.53,86.58 144.04,201.64 157.09,330.15zm-489.9 -10205.65l0 -490.15 490.16 0c-12.53,129.58 -70.23,245.62 -157.35,332.8 -87.18,87.12 -203.23,144.83 -332.81,157.35z"/>
  </g>
 </g>
</svg>
