<?xml version="1.0" encoding="UTF-8"?>
<!DOCTYPE svg PUBLIC "-//W3C//DTD SVG 1.1//EN" "http://www.w3.org/Graphics/SVG/1.1/DTD/svg11.dtd">
<!-- Creator: CorelDRAW 2020 (64 Bit) -->
<svg xmlns="http://www.w3.org/2000/svg" xml:space="preserve" width="42.5397mm" height="42.5397mm" version="1.1" style="shape-rendering:geometricPrecision; text-rendering:geometricPrecision; image-rendering:optimizeQuality; fill-rule:evenodd; clip-rule:evenodd"
viewBox="0 0 1004.66 1004.66"
 xmlns:xlink="http://www.w3.org/1999/xlink"
 xmlns:xodm="http://www.corel.com/coreldraw/odm/2003">
 <defs>
  <style type="text/css">
   <![CDATA[
    .fil1 {fill:#E6E6E6}
    .fil0 {fill:#999999;fill-rule:nonzero}
   ]]>
  </style>
 </defs>
 <g id="Camada_x0020_1">
  <metadata id="CorelCorpID_0Corel-Layer"/>
  <g id="_2237334799168">
   <path class="fil0" d="M502.33 0c-277.43,0 -502.33,224.91 -502.33,502.33 0,277.43 224.91,502.33 502.33,502.33 277.42,0 502.33,-224.91 502.33,-502.33 -0.31,-277.29 -225.04,-502.02 -502.33,-502.33zm17.93 144.82l174.63 -69.8c19.82,8.97 38.99,19.3 57.38,30.93l0.46 0.29c18.07,11.45 35.34,24.11 51.69,37.9l1.41 1.23c7.33,6.25 14.46,12.71 21.4,19.38 0.87,0.86 1.79,1.68 2.66,2.55 7.27,7.1 14.31,14.41 21.12,21.94 0.56,0.64 1.1,1.31 1.67,1.95 5.98,6.7 11.73,13.63 17.3,20.68 1.34,1.68 2.68,3.35 3.98,5.03 6.05,7.83 11.9,15.8 17.43,24.03l-34.81 147.99 -171.28 57.1 -164.99 -132.02 -0.04 -169.17zm-389.57 72.17c1.3,-1.68 2.62,-3.35 3.97,-5.02 5.51,-6.99 11.21,-13.81 17.1,-20.46 0.64,-0.7 1.23,-1.42 1.85,-2.13 6.77,-7.55 13.78,-14.86 21.04,-21.94 0.83,-0.82 1.67,-1.68 2.54,-2.43 6.87,-6.63 13.95,-13.06 21.22,-19.27l1.68 -1.41c16.2,-13.69 33.31,-26.28 51.2,-37.67l0.65 -0.42c18.28,-11.6 37.33,-21.92 57.04,-30.9l175.43 69.47 0 169.12 -165 131.99 -171.28 -57 -34.81 -147.98c5.58,-8.21 11.36,-16.16 17.38,-23.96zm-20.18 542.29c-4.92,-7.51 -9.63,-15.15 -14.12,-22.94l-1.09 -1.88c-4.47,-7.75 -8.69,-15.63 -12.67,-23.64l-0.14 -0.25c-8.39,-16.84 -15.75,-34.18 -22.05,-51.91l0 -0.17c-2.98,-8.37 -5.69,-16.95 -8.2,-25.57l-0.91 -3.18c-2.3,-8.1 -4.38,-16.3 -6.24,-24.58 -0.17,-0.81 -0.37,-1.58 -0.53,-2.38 -4.11,-18.71 -7.06,-37.64 -8.84,-56.72l102.22 -122.66 170.09 56.69 49.37 197.45 -81.12 107.92 -165.77 -26.19zm503.32 198.38c-8.37,2.08 -16.96,3.87 -25.56,5.48 -1.2,0.24 -2.43,0.43 -3.63,0.65 -7.32,1.31 -14.72,2.43 -22.13,3.34 -1.98,0.26 -3.94,0.52 -5.91,0.76 -6.88,0.8 -13.83,1.41 -20.8,1.91 -2.19,0.15 -4.36,0.37 -6.55,0.51 -8.9,0.55 -17.88,0.87 -26.92,0.87 -8.28,0 -16.52,-0.22 -24.7,-0.65 -0.99,0 -1.94,-0.17 -2.93,-0.24 -7.28,-0.42 -14.54,-0.96 -21.77,-1.67l-0.84 -0.16c-15.85,-1.72 -31.62,-4.23 -47.22,-7.53l-99.05 -155.07 79.84 -106.46 233.31 0 81.15 107.16 -86.3 151.1zm346.39 -354.86c-0.17,0.8 -0.37,1.58 -0.54,2.38 -1.87,8.28 -3.96,16.47 -6.25,24.58l-0.9 3.18c-2.52,8.63 -5.22,17.17 -8.21,25.57l0 0.17c-6.29,17.73 -13.65,35.07 -22.05,51.91l-0.14 0.25c-4.01,8.01 -8.23,15.89 -12.67,23.64l-1.09 1.88c-4.46,7.81 -9.17,15.44 -14.09,22.91l-165.2 26.05 -81.68 -107.83 49.34 -197.4 170.09 -56.69 102.22 122.66c-1.78,19.08 -4.73,38.04 -8.84,56.75l0 0zm0 0z"/>
   <path class="fil1" d="M357.4 677.54l-49.37 -197.45 -170.09 -56.69 -102.23 122.66c1.78,19.07 4.74,38.01 8.85,56.72 0.17,0.8 0.37,1.57 0.53,2.38 1.86,8.28 3.95,16.48 6.25,24.58l0.91 3.18c2.51,8.62 5.22,17.2 8.2,25.57l0 0.16c6.3,17.73 13.66,35.07 22.05,51.91l0.14 0.25c3.98,8.01 8.21,15.88 12.67,23.64l1.09 1.88c4.49,7.79 9.2,15.44 14.12,22.94l165.77 26.19 81.11 -107.93z"/>
   <path class="fil1" d="M618.99 699.4l-233.31 0 -79.84 106.46 99.04 155.07c15.6,3.29 31.36,5.81 47.22,7.53l0.84 0.16c7.23,0.7 14.49,1.25 21.77,1.67 0.99,0.07 1.94,0.24 2.92,0.24 8.19,0.43 16.42,0.65 24.7,0.65 9.04,0 18.02,-0.32 26.92,-0.87 2.19,-0.14 4.36,-0.36 6.55,-0.51 6.97,-0.5 13.92,-1.11 20.8,-1.91 1.97,-0.24 3.93,-0.51 5.91,-0.76 7.42,-0.92 14.81,-2.04 22.13,-3.34 1.2,-0.22 2.43,-0.42 3.63,-0.65 8.59,-1.61 17.19,-3.4 25.56,-5.48l86.3 -151.1 -81.15 -107.16z"/>
   <path class="fil1" d="M647.41 677.48l81.68 107.83 165.2 -26.05c4.93,-7.47 9.63,-15.09 14.09,-22.91l1.09 -1.88c4.45,-7.74 8.67,-15.62 12.67,-23.64l0.14 -0.25c8.4,-16.84 15.75,-34.17 22.05,-51.91l0 -0.17c2.99,-8.41 5.69,-16.95 8.21,-25.57l0.9 -3.18c2.29,-8.11 4.37,-16.3 6.24,-24.58 0.17,-0.8 0.37,-1.58 0.54,-2.38 4.11,-18.72 7.06,-37.67 8.84,-56.75l-102.23 -122.66 -170.09 56.69 -49.34 197.4z"/>
   <path class="fil1" d="M685.29 446.01l171.28 -57.1 34.81 -147.98c-5.53,-8.23 -11.38,-16.2 -17.43,-24.03 -1.3,-1.68 -2.64,-3.35 -3.98,-5.03 -5.58,-7.05 -11.32,-13.98 -17.3,-20.68 -0.56,-0.64 -1.1,-1.31 -1.67,-1.95 -6.81,-7.53 -13.85,-14.85 -21.12,-21.94 -0.87,-0.87 -1.79,-1.69 -2.67,-2.55 -6.93,-6.67 -14.06,-13.14 -21.39,-19.38l-1.41 -1.23c-16.35,-13.79 -33.62,-26.46 -51.69,-37.9l-0.46 -0.29c-18.39,-11.63 -37.56,-21.96 -57.38,-30.93l-174.63 69.81 0.04 169.17 164.99 132.02z"/>
   <path class="fil1" d="M319.4 445.93l165 -131.99 0 -169.12 -175.43 -69.47c-19.71,8.98 -38.76,19.3 -57.04,30.9l-0.65 0.42c-17.89,11.4 -34.99,23.98 -51.2,37.67l-1.68 1.41c-7.27,6.21 -14.34,12.64 -21.22,19.27 -0.87,0.75 -1.71,1.61 -2.54,2.43 -7.26,7.08 -14.27,14.39 -21.04,21.94 -0.63,0.7 -1.22,1.42 -1.86,2.13 -5.89,6.66 -11.59,13.48 -17.1,20.46 -1.34,1.67 -2.66,3.34 -3.96,5.02 -6.02,7.8 -11.81,15.75 -17.38,23.96l34.81 147.98 171.28 57z"/>
  </g>
 </g>
</svg>
