<?xml version="1.0" encoding="UTF-8"?>
<!DOCTYPE svg PUBLIC "-//W3C//DTD SVG 1.1//EN" "http://www.w3.org/Graphics/SVG/1.1/DTD/svg11.dtd">
<!-- Creator: CorelDRAW 2020 (64 Bit) -->
<svg xmlns="http://www.w3.org/2000/svg" xml:space="preserve" width="44.4328mm" height="44.4329mm" version="1.1" style="shape-rendering:geometricPrecision; text-rendering:geometricPrecision; image-rendering:optimizeQuality; fill-rule:evenodd; clip-rule:evenodd"
viewBox="0 0 2119.46 2119.46"
 xmlns:xlink="http://www.w3.org/1999/xlink"
 xmlns:xodm="http://www.corel.com/coreldraw/odm/2003">
 <defs>
  <style type="text/css">
   <![CDATA[
    .fil4 {fill:gray;fill-rule:nonzero}
    .fil5 {fill:#999999;fill-rule:nonzero}
    .fil0 {fill:#999999;fill-rule:nonzero}
    .fil2 {fill:#B3B3B3;fill-rule:nonzero}
    .fil1 {fill:#B3B3B3;fill-rule:nonzero}
    .fil3 {fill:#CCCCCC;fill-rule:nonzero}
   ]]>
  </style>
 </defs>
 <g id="Camada_x0020_1">
  <metadata id="CorelCorpID_0Corel-Layer"/>
  <path class="fil0" d="M1489.42 1777.12l-429.69 -124.19 -429.69 124.19c-3.73,7.45 -4.97,14.9 -4.97,23.6l0 256.65 869.31 0 0 -256.65c0,-8.7 -1.24,-16.15 -4.96,-23.6l0 0z"/>
  <path class="fil1" d="M1494.38 2057.37l0 -256.65c0,-8.7 -1.24,-16.15 -4.96,-23.6l-429.69 -124.19 0 404.44 434.65 0z"/>
  <path class="fil2" d="M2057.37 124.19l-317.28 0c0.55,-20.97 2.67,-40.73 2.67,-62.09 0,-34.78 -27.32,-62.1 -62.09,-62.1l-1241.87 0c-34.78,0 -62.1,27.32 -62.1,62.1 0,21.36 2.12,41.12 2.66,62.09l-317.27 0c-34.32,0 -62.09,27.77 -62.09,62.1l0 157.29c0,346.7 277.73,628.35 619.99,646.48 71.3,98.17 155.93,171.03 252.21,212.08 -14.9,301.77 -187.52,511.65 -228.5,555.12 -6.21,4.97 -11.18,12.42 -13.67,19.87l859.38 0c-2.49,-7.45 -7.46,-14.9 -13.67,-19.87 -42.22,-43.47 -213.6,-252.1 -228.5,-555.12 96.3,-41.06 181.44,-113.93 252.8,-212.14 341.97,-18.43 619.41,-299.91 619.41,-646.42l0 -157.29c0,-34.33 -27.77,-62.1 -62.09,-62.1l0 0zm-1933.18 219.39l0 -95.2 260.5 0c16.12,205.23 60.62,422.59 154.16,607.31 -234.46,-52.8 -414.66,-261.89 -414.66,-512.11zm1871.08 0c0,250.09 -180.03,459.08 -414.32,512 92.8,-184.71 137.55,-399.97 153.82,-607.2l260.5 0 0 95.2z"/>
  <path class="fil3" d="M2057.37 124.19l-317.28 0c0.55,-20.97 2.67,-40.73 2.67,-62.09 0,-34.78 -27.32,-62.1 -62.09,-62.1l-620.94 0 0 1777.12 429.69 0c-2.49,-7.45 -7.46,-14.9 -13.67,-19.87 -42.22,-43.47 -213.6,-252.1 -228.5,-555.12 96.3,-41.06 181.44,-113.93 252.8,-212.14 341.97,-18.43 619.41,-299.91 619.41,-646.42l0 -157.29c0,-34.33 -27.77,-62.1 -62.09,-62.1l0 0zm-62.1 219.39c0,250.09 -180.03,459.08 -414.32,512 92.81,-184.71 137.56,-399.97 153.82,-607.2l260.5 0 0 95.2z"/>
  <path class="fil4" d="M1556.48 2119.46l-993.5 0c-34.33,0 -62.1,-27.77 -62.1,-62.09 0,-34.32 27.77,-62.1 62.1,-62.1l993.5 0c34.32,0 62.09,27.77 62.09,62.09 0,34.32 -27.77,62.1 -62.09,62.1l0 -0z"/>
  <path class="fil0" d="M1556.48 1995.27l-496.75 0 0 124.18 496.75 0c34.32,0 62.09,-27.77 62.09,-62.09 0,-34.32 -27.77,-62.1 -62.09,-62.1l0 0z"/>
  <path class="fil5" d="M1064.14 449.66l92.56 67.26 -31.38 96.88 114.08 -27.77c-1.33,5.38 -2.91,10.67 -4.76,15.87l89.74 -21.87c-19.3,128.09 -131.09,227.17 -265.08,227.17 -121.56,0 -224.88,-81.98 -256.97,-193.32l75.2 -37.99c-1.06,-5.29 -1.86,-10.67 -2.47,-16.13 -0.71,-6.52 -1.06,-13.13 -1.06,-19.83 0,-102.52 83.22,-186.09 185.3,-186.09 102.08,0 186.01,83.57 186.01,186.09 0,15.43 -1.94,30.42 -5.55,44.7l86.57 -21.07c0.71,-7.58 1.06,-15.25 1.06,-23.01 0,-147.84 -120.6,-268.79 -267.64,-268.79 -147.39,0 -267.64,120.95 -267.64,268.79 0,19.83 2.2,39.23 6.43,57.92l76.69 -38.7 92.48 -46.64 92.12 -66.91 4.58 3.26 -0.27 0.18zm169.87 153.65l-114.34 27.77 -120.07 0 -32.62 -100.23 -89.48 45.13c16.84,84.89 92.03,149.24 181.78,149.24 79.87,0 148.63,-50.95 174.72,-121.92z"/>
 </g>
</svg>
