<?xml version="1.0" encoding="UTF-8"?>
<!DOCTYPE svg PUBLIC "-//W3C//DTD SVG 1.1//EN" "http://www.w3.org/Graphics/SVG/1.1/DTD/svg11.dtd">
<!-- Creator: CorelDRAW 2020 (64 Bit) -->
<svg xmlns="http://www.w3.org/2000/svg" xml:space="preserve" width="53.1179mm" height="62.0001mm" version="1.1" style="shape-rendering:geometricPrecision; text-rendering:geometricPrecision; image-rendering:optimizeQuality; fill-rule:evenodd; clip-rule:evenodd"
viewBox="0 0 51.99 60.68"
 xmlns:xlink="http://www.w3.org/1999/xlink"
 xmlns:xodm="http://www.corel.com/coreldraw/odm/2003">
 <defs>
  <style type="text/css">
   <![CDATA[
    .fil1 {fill:#FEFEFE}
    .fil0 {fill:#373435}
    .fil2 {fill:#FFF212}
   ]]>
  </style>
 </defs>
 <g id="Camada_x0020_1">
  <metadata id="CorelCorpID_0Corel-Layer"/>
  <g id="_2346835433296">
   <path class="fil0" d="M-0 60.68l0 0zm9.45 -9.25c-0.93,-0.5 -1.83,-1.03 -2.71,-1.64 -0.44,-0.31 -0.86,-0.62 -1.27,-0.96 -0.55,-0.44 -1.08,-0.92 -1.55,-1.43 -0.43,-0.47 -0.83,-0.96 -1.2,-1.48 -0.43,-0.58 -0.8,-1.17 -1.14,-1.8 -0.25,-0.49 -0.47,-0.99 -0.67,-1.51 -0.16,-0.46 -0.31,-0.92 -0.41,-1.39 -0.18,-0.8 -0.25,-1.6 -0.3,-2.39l0 -1.08 0.07 -1.06c0.06,-0.53 0.13,-1.05 0.22,-1.58 0.1,-0.52 0.21,-1.05 0.33,-1.56 0.22,-0.87 0.47,-1.73 0.74,-2.57 0.62,-2 1.35,-3.95 2,-5.93 0.34,-1.12 0.68,-2.25 0.89,-3.4 0.1,-0.61 0.16,-1.2 0.16,-1.82 -0.01,-0.24 -0.03,-0.46 -0.04,-0.69 -0.09,-0.58 -0.22,-1.14 -0.4,-1.69 -0.07,-0.22 -0.16,-0.44 -0.24,-0.65 -0.46,-1.11 -1.03,-2.11 -1.67,-3.13 -0.72,-1.15 -1.48,-2.29 -2.23,-3.43l8.66 -10.16c0.8,0.44 1.58,0.92 2.39,1.33 0.16,0.09 0.33,0.16 0.47,0.24 0.77,0.37 1.55,0.64 2.37,0.86 0.68,0.18 1.35,0.3 2.05,0.37 0.21,0.01 0.41,0.03 0.62,0.04 1.26,0.04 2.5,-0.1 3.73,-0.4 0.38,-0.1 0.75,-0.21 1.12,-0.34 1.21,-0.41 2.35,-0.96 3.49,-1.55 0.37,-0.19 0.75,-0.4 1.12,-0.61 1.06,0.56 2.11,1.11 3.2,1.6 0.64,0.27 1.29,0.52 1.95,0.72 0.25,0.07 0.5,0.13 0.75,0.21 0.84,0.19 1.71,0.35 2.59,0.37 0.55,0 1.09,-0.03 1.63,-0.07 0.67,-0.06 1.3,-0.18 1.95,-0.34 0.5,-0.12 0.99,-0.28 1.48,-0.46 0.58,-0.22 1.12,-0.47 1.69,-0.75l2.17 -1.24 8.52 10.2 -1.79 2.74c-0.09,0.13 -0.18,0.28 -0.25,0.41 -0.56,0.92 -1.08,1.85 -1.52,2.81 -0.24,0.53 -0.43,1.05 -0.59,1.61l-0.1 0.41c-0.13,0.62 -0.21,1.24 -0.18,1.89 0,0.21 0.01,0.41 0.04,0.62 0.15,1.46 0.53,2.85 0.98,4.24 0.55,1.7 1.15,3.37 1.71,5.07 0.34,1.02 0.65,2.05 0.92,3.09 0.15,0.6 0.28,1.2 0.4,1.81 0.12,0.61 0.19,1.21 0.27,1.83 0.03,0.46 0.06,0.92 0.07,1.39l-0.01 0.93c-0.03,0.46 -0.07,0.92 -0.13,1.39l-0.09 0.47c-0.09,0.41 -0.21,0.83 -0.33,1.24 -0.15,0.4 -0.28,0.78 -0.44,1.17 -0.18,0.37 -0.35,0.74 -0.56,1.11l-0.64 1.03 -0.74 0.99c-0.25,0.31 -0.53,0.61 -0.8,0.92 -0.3,0.28 -0.58,0.56 -0.89,0.84 -0.5,0.46 -1.03,0.89 -1.58,1.3 -0.34,0.24 -0.68,0.47 -1.02,0.69 -0.49,0.31 -0.99,0.61 -1.49,0.89 -0.59,0.31 -1.18,0.61 -1.77,0.9 -2.51,1.18 -5.1,2.19 -7.61,3.36 -0.74,0.34 -1.45,0.69 -2.16,1.08l-0.83 0.47c-0.41,0.25 -0.81,0.5 -1.21,0.77 -1.24,0.92 -2.41,1.92 -3.56,2.94 -1.12,-0.99 -2.25,-1.97 -3.46,-2.84 -0.25,-0.18 -0.49,-0.34 -0.74,-0.52 -1.29,-0.86 -2.69,-1.52 -4.11,-2.17 -2.44,-1.09 -4.94,-2.07 -7.35,-3.21 -0.33,-0.16 -0.65,-0.33 -0.98,-0.5z"/>
   <path class="fil1" d="M6.71 48.32c-0.74,-0.58 -1.45,-1.18 -2.08,-1.88 -0.44,-0.5 -0.84,-1.02 -1.23,-1.57 -0.33,-0.49 -0.62,-0.98 -0.87,-1.49 -0.24,-0.46 -0.43,-0.9 -0.59,-1.39 -0.12,-0.34 -0.22,-0.69 -0.31,-1.05 -0.09,-0.4 -0.13,-0.78 -0.19,-1.18l-0.06 -0.99 0 -0.99c0.03,-0.5 0.07,-0.99 0.12,-1.49 0.07,-0.5 0.16,-0.99 0.25,-1.49 0.1,-0.5 0.22,-1.01 0.35,-1.49 0.31,-1.18 0.68,-2.35 1.06,-3.5 0.74,-2.19 1.55,-4.36 2.13,-6.59 0.21,-0.8 0.35,-1.58 0.44,-2.4 0.03,-0.47 0.04,-0.95 0.01,-1.43l-0.03 -0.4c-0.1,-0.75 -0.3,-1.45 -0.53,-2.16 -0.21,-0.56 -0.44,-1.09 -0.69,-1.63 -0.46,-0.89 -0.98,-1.74 -1.51,-2.59 -0.5,-0.77 -1.01,-1.54 -1.51,-2.31l7.48 -8.77c0.67,0.38 1.32,0.75 2.01,1.09 0.86,0.41 1.74,0.72 2.66,0.98 0.52,0.13 1.03,0.24 1.55,0.33 0.68,0.09 1.36,0.13 2.06,0.13 0.53,0 1.06,-0.04 1.6,-0.12 0.52,-0.06 1.02,-0.15 1.52,-0.25 0.5,-0.13 0.99,-0.27 1.46,-0.43 0.96,-0.33 1.86,-0.72 2.78,-1.17 0.5,-0.25 0.98,-0.52 1.48,-0.78 1.04,0.56 2.12,1.09 3.23,1.55 0.52,0.21 1.03,0.4 1.57,0.56l0.55 0.15c1.02,0.27 2.07,0.46 3.13,0.47 0.58,0.01 1.15,-0.01 1.74,-0.06 0.64,-0.07 1.26,-0.18 1.89,-0.31 0.62,-0.16 1.23,-0.34 1.82,-0.56 0.64,-0.24 1.23,-0.52 1.83,-0.81l1.36 -0.78 7.33 8.8 -1.26 1.94c-0.13,0.16 -0.24,0.35 -0.34,0.53 -0.53,0.89 -1.05,1.79 -1.48,2.72 -0.27,0.58 -0.5,1.15 -0.68,1.76 -0.12,0.38 -0.21,0.77 -0.28,1.15 -0.04,0.33 -0.09,0.65 -0.12,0.98 -0.06,1.64 0.3,3.27 0.74,4.83 0.7,2.37 1.58,4.69 2.34,7.04 0.31,1.01 0.59,2 0.83,3.02 0.12,0.58 0.24,1.14 0.33,1.73 0.04,0.43 0.09,0.86 0.13,1.3 0.01,0.43 0.03,0.86 0.03,1.29l-0.04 0.86 -0.16 1.26 -0.3 1.12c-0.13,0.37 -0.27,0.71 -0.41,1.05 -0.15,0.35 -0.31,0.68 -0.49,1.02 -0.19,0.33 -0.38,0.64 -0.59,0.95 -0.22,0.31 -0.44,0.61 -0.68,0.9 -0.33,0.38 -0.65,0.75 -1.01,1.12 -0.37,0.35 -0.74,0.69 -1.14,1.02 -0.4,0.33 -0.8,0.64 -1.23,0.93 -0.43,0.3 -0.87,0.59 -1.32,0.86 -0.8,0.47 -1.63,0.89 -2.47,1.3 -2.22,1.03 -4.48,1.94 -6.71,2.94 -0.75,0.34 -1.49,0.69 -2.23,1.06 -1.2,0.62 -2.4,1.27 -3.46,2.08 -0.86,0.65 -1.66,1.33 -2.48,2.04 -1.46,-1.29 -2.99,-2.54 -4.69,-3.49 -0.8,-0.44 -1.61,-0.84 -2.42,-1.23 -2.54,-1.18 -5.16,-2.19 -7.69,-3.37 -1.48,-0.71 -2.88,-1.51 -4.21,-2.47l-0.34 -0.25z"/>
   <path class="fil0" d="M3.69 43.07l44.95 -32.06c-1.98,3.02 -3.49,5.74 -3.49,8.93 0,6.56 6.73,15.81 3.59,22.55 -4.11,8.71 -15.14,8.2 -22.69,15.05 -7.36,-6.68 -18.05,-6.36 -22.37,-14.47z"/>
   <path class="fil0" d="M4.12 30.79l38.83 -27.59 0.03 0.01 -0.06 -0.09c-5.29,3.05 -10.91,2.93 -16.86,-0.4 -5.94,3.33 -11.56,3.44 -16.84,0.4l-6.22 7.3c2.14,3.25 3.99,6.11 3.99,9.51 0,3.19 -1.58,7.01 -2.87,10.85z"/>
   <polygon class="fil0" points="41.28,14.56 40.44,13.38 41.64,12.52 42.48,13.72 "/>
   <path class="fil0" d="M38.96 13.2c0.43,0.69 0.55,1.4 0.35,2.13 -0.19,0.72 -0.67,1.36 -1.42,1.89 -0.86,0.61 -1.73,0.81 -2.59,0.62 -0.86,-0.19 -1.64,-0.78 -2.34,-1.76 -0.71,-0.99 -1.01,-1.92 -0.89,-2.81 0.12,-0.87 0.64,-1.64 1.55,-2.29 0.74,-0.53 1.46,-0.77 2.16,-0.71 0.68,0.06 1.29,0.4 1.8,1.03l-1.18 0.84c-0.3,-0.3 -0.61,-0.44 -0.95,-0.47 -0.34,-0.01 -0.71,0.12 -1.08,0.38 -0.53,0.37 -0.81,0.83 -0.84,1.36 -0.03,0.53 0.19,1.14 0.65,1.79 0.46,0.64 0.93,1.03 1.46,1.18 0.52,0.15 1.03,0.04 1.54,-0.31 0.35,-0.27 0.59,-0.56 0.7,-0.92 0.1,-0.35 0.06,-0.72 -0.12,-1.12l1.18 -0.84z"/>
   <polygon class="fil0" points="32.93,20.51 32.09,19.31 33.28,18.46 34.13,19.66 "/>
   <polygon class="fil0" points="29.37,23.05 25.22,17.19 29.29,14.3 30.02,15.32 27.12,17.37 28.07,18.7 30.59,16.9 31.32,17.92 28.77,19.72 30.55,22.21 "/>
   <path class="fil0" d="M24.69 23.36c0.43,0.69 0.53,1.4 0.37,2.13 -0.19,0.72 -0.67,1.35 -1.42,1.88 -0.86,0.62 -1.73,0.83 -2.59,0.64 -0.87,-0.21 -1.64,-0.78 -2.34,-1.76 -0.71,-1.01 -1.01,-1.94 -0.89,-2.81 0.1,-0.87 0.62,-1.64 1.54,-2.29 0.75,-0.53 1.48,-0.77 2.16,-0.71 0.69,0.04 1.3,0.4 1.8,1.03l-1.18 0.84c-0.28,-0.3 -0.59,-0.46 -0.93,-0.47 -0.35,-0.01 -0.71,0.1 -1.08,0.37 -0.53,0.38 -0.81,0.84 -0.84,1.37 -0.03,0.53 0.18,1.12 0.65,1.79 0.44,0.64 0.93,1.02 1.45,1.18 0.53,0.15 1.03,0.04 1.55,-0.31 0.35,-0.27 0.59,-0.58 0.69,-0.92 0.1,-0.35 0.06,-0.72 -0.12,-1.12l1.17 -0.84z"/>
   <path class="fil0" d="M15.24 33.1l-4.15 -5.85 2.75 -1.95c0.61,-0.43 1.15,-0.62 1.64,-0.59 0.49,0.03 0.92,0.28 1.26,0.77 0.21,0.3 0.33,0.58 0.35,0.86 0.01,0.28 -0.04,0.56 -0.21,0.84 0.4,-0.1 0.74,-0.07 1.05,0.04 0.31,0.12 0.59,0.35 0.84,0.69 0.4,0.56 0.52,1.14 0.37,1.72 -0.15,0.56 -0.56,1.09 -1.24,1.58l-2.66 1.89z"/>
   <polygon class="fil0" points="6.99,30.16 8.38,29.18 14.63,33.53 13.38,34.41 12.12,33.5 9.86,35.1 10.33,36.58 9.06,37.48 "/>
   <path class="fil2" d="M35.27 40l-1.12 3.95 3.61 -2.34 3.61 2.34 -1.32 -3.95 3.25 -2.47 -4.01 0 -1.54 -3.97 -1.52 3.97 -4.08 0 3.12 2.47 0 0zm-27.64 -29.23l-0.55 1.92 1.76 -1.14 1.74 1.14 -0.64 -1.92 1.57 -1.2 -1.92 0 -0.75 -1.94 -0.74 1.94 -1.98 0 1.51 1.2 0 0zm5.84 0l-0.55 1.92 1.74 -1.14 1.76 1.14 -0.64 -1.92 1.57 -1.2 -1.94 0 -0.75 -1.94 -0.74 1.94 -1.97 0 1.51 1.2 0 0zm5.82 0l-0.53 1.92 1.74 -1.14 1.74 1.14 -0.62 -1.92 1.57 -1.2 -1.94 0 -0.75 -1.94 -0.74 1.94 -1.98 0 1.51 1.2 0 0zm5.85 0l-0.55 1.92 1.73 -1.14 1.75 1.14 -0.65 -1.92 1.58 -1.2 -1.94 0 -0.75 -1.94 -0.74 1.94 -1.95 0 1.51 1.2z"/>
   <path class="fil1" d="M13.85 28.7l1.36 -0.98c0.31,-0.21 0.49,-0.41 0.55,-0.62 0.07,-0.19 0.01,-0.4 -0.13,-0.62 -0.15,-0.22 -0.33,-0.33 -0.53,-0.33 -0.21,0 -0.46,0.1 -0.77,0.33l-1.36 0.98 0.89 1.24z"/>
   <path class="fil1" d="M15.64 31.22l1.42 -1.01c0.34,-0.25 0.55,-0.49 0.61,-0.71 0.07,-0.24 0.01,-0.47 -0.18,-0.74 -0.19,-0.28 -0.4,-0.41 -0.64,-0.43 -0.24,-0.01 -0.53,0.1 -0.87,0.35l-1.42 1.01 1.08 1.52z"/>
   <polygon class="fil1" points="8.51,30.84 9.47,33.89 11.1,32.75 "/>
  </g>
 </g>
</svg>
