<?xml version="1.0" encoding="UTF-8"?>
<!DOCTYPE svg PUBLIC "-//W3C//DTD SVG 1.1//EN" "http://www.w3.org/Graphics/SVG/1.1/DTD/svg11.dtd">
<!-- Creator: CorelDRAW 2020 (64 Bit) -->
<svg xmlns="http://www.w3.org/2000/svg" xml:space="preserve" width="177.212mm" height="180.575mm" version="1.1" style="shape-rendering:geometricPrecision; text-rendering:geometricPrecision; image-rendering:optimizeQuality; fill-rule:evenodd; clip-rule:evenodd"
viewBox="0 0 612.82 624.45"
 xmlns:xlink="http://www.w3.org/1999/xlink"
 xmlns:xodm="http://www.corel.com/coreldraw/odm/2003">
 <defs>
  <style type="text/css">
   <![CDATA[
    .str1 {stroke:#12524B;stroke-width:0.37;stroke-miterlimit:22.9256}
    .str2 {stroke:#007E20;stroke-width:0.37;stroke-miterlimit:22.9256}
    .str0 {stroke:#007E20;stroke-width:0.61;stroke-miterlimit:22.9256}
    .fil1 {fill:#FEFEFE}
    .fil13 {fill:#A9ABAE}
    .fil11 {fill:#FFF212}
    .fil5 {fill:#FAED20}
    .fil14 {fill:#00A859}
    .fil9 {fill:#007E20}
    .fil8 {fill:#0085D2}
    .fil0 {fill:#09005A}
    .fil3 {fill:#E66900}
    .fil2 {fill:red}
    .fil15 {fill:#FEFEFE;fill-rule:nonzero}
    .fil4 {fill:#373435;fill-rule:nonzero}
    .fil6 {fill:#E36B37;fill-rule:nonzero}
    .fil12 {fill:#12524B;fill-rule:nonzero}
    .fil16 {fill:black;fill-rule:nonzero}
    .fil10 {fill:#007E20;fill-rule:nonzero}
    .fil7 {fill:#E66900;fill-rule:nonzero}
   ]]>
  </style>
 </defs>
 <g id="Camada_x0020_1">
  <metadata id="CorelCorpID_0Corel-Layer"/>
  <g id="afogados-da-ingazeira-fc-pe-seeklogo.com.cdr">
   <path class="fil0" d="M307.01 0c-99.08,0 -186.07,27.47 -263.67,75.8 -6.59,104.8 5.86,200.57 41.12,285.54 44.15,107.38 121.45,179.91 222.54,227.42 102.82,-44.07 168.61,-120.87 219.65,-228.25 35.27,-83.24 59.46,-176.47 48.56,-284.71 -77.6,-48.33 -169.13,-75.8 -268.21,-75.8z"/>
   <path class="fil1" d="M53.37 81.8c-5.31,93.58 4.68,188.39 40.68,275.58 42.09,101.95 114.91,172.8 213.14,219.98 101.27,-44.8 162.94,-122.18 210,-221.1 37.56,-88.72 56.93,-177.95 48.19,-274.33 -78.14,-47.54 -166.88,-71.55 -258.37,-71.55 -91.63,0 -175.88,24.07 -253.63,71.43z"/>
   <path class="fil0" d="M64.89 88.41c74.58,-41.24 156.27,-69.89 242.12,-69.89 88.2,0 169.5,25.95 247.03,69.4 0.52,50.07 -2.98,81.22 -6.53,119.08 -79.42,-44.24 -168.11,-69.01 -240.51,-69.01 -77.56,0 -159.62,25.99 -236.82,70.23 -5.51,-37.86 -7.78,-77.52 -5.3,-119.81z"/>
   <g>
    <path class="fil2" d="M310.11 138.01l0 63.84 8.27 -22.82 6.95 31.01 9.96 -11.94 0.96 16.52 1.53 0.06 0 -75.3c-9.13,-0.84 -18.34,-1.35 -27.66,-1.38z"/>
    <path class="fil2" d="M364.01 142.56l0 86.61 4.85 0.05 -4.85 5.47 0 3.66c9.22,4.37 18.44,8.75 27.66,13.12l0 -103.81c-9.22,-2.03 -18.44,-3.74 -27.66,-5.1z"/>
    <path class="fil2" d="M417.35 153.89l0 91.84 4.04 0.89 1.23 -3.68 14.76 14.76 -5.35 2.11c-1.38,7.71 -7.9,11.58 -13.72,10.37 -1.38,3.22 -0.96,8.06 0.08,13.63 1.38,-5.55 7.07,-7.4 10.71,-11.51l0.35 2.37 1.51 -1.65 1.36 2.66 2.08 0.19 2.34 3.14 5.13 0.99 0 1.44 4 0.16 0 -119.17c-9.6,-3.22 -19.1,-6.02 -28.52,-8.54z"/>
    <path class="fil2" d="M310.11 402.89l0 11.26 15.96 2.01 11.7 -3.72 0 -15.08c-7.43,2.3 -14.3,5.44 -20.65,10.15 -2.05,-1.83 -4.43,-3.33 -7.01,-4.62z"/>
    <polygon class="fil2" points="310.11,427.33 325.77,423.2 331.3,425.62 337.78,433.66 337.78,549.78 310.11,562.95 "/>
    <path class="fil2" d="M376.61 388.79c0.03,0.4 0.06,0.8 0.09,1.2 0.21,0.49 0.43,0.98 0.64,1.47l-0.18 5.34 1.2 -0.09 0.09 -0.64 0.92 -0.18c0.06,-0.52 0.12,-1.04 0.18,-1.57 1.04,-0.03 1.81,-0.15 2.85,-0.18 3,-2.12 6.27,-4.33 9.27,-6.44 0,-3.81 0,-7.43 0,-11.23 -0.97,-1.1 -1.94,-2.21 -2.91,-3.31 -2.19,3.16 -4.47,6.05 -6.91,8.47 -0.44,2.3 -1.31,4.6 -2.49,6.91 -0.25,-0.55 -0.49,-1.1 -0.74,-1.66 -0.68,0.64 -1.35,1.29 -2.03,1.93z"/>
    <polygon class="fil2" points="337.78,419.63 336.26,419.99 337.78,422.52 "/>
    <path class="fil2" d="M364.01 411.45l3.15 -0.12 2.77 -3.01c3.94,-1.69 8.38,-3.6 11.54,-6.01l1.56 0 0 1.2 1.2 -0.84 0.72 8.18 1.8 -0.72 1.08 0 0.96 3.13 1.68 -1.2 1.19 0.96 0 102.44 -27.66 20.08 0 -124.08z"/>
    <path class="fil2" d="M523.8 194.5c7.96,4.06 15.89,8.07 23.67,12.5 -4.89,33.69 -11.42,66.68 -21.37,98.2l-2.3 0.03 0 -110.72z"/>
    <path class="fil2" d="M471.25 171.44c9.37,3.55 18.85,7.46 28.51,11.75l0 193.11c-9.19,18.37 -18.71,34.71 -28.51,49.4l0 -254.25z"/>
    <path class="fil2" d="M417.35 405.48l1.32 0.8 4.14 -7.39 0.37 -1.98 1.38 -0.15 -0.46 -0.96 4.47 -7.88 -4.07 0.31 -0.38 -4.08 6.38 4.33 -2.39 -6.46 4.69 0.54 -1.7 -2.77 8.45 -3.91 -3.7 -2.08 0.72 -1.24 -4.39 -2.9 -0.21 -1.72 -0.39 -0 -0.48 -2.41 -1.08 -0.22 -0.68 -0.91 -0.06 -1.37 -0.73 -1.27 1.42 -1.72 1.84 1.55 1.54 -1.85 7.69 2.56 -3.62 -5.77 4.99 0.53 -2.23 -2.99 5.71 -4.14 0 112.02c-9.51,11.96 -19.01,22.28 -28.52,31.44l0 -87.9z"/>
    <polygon class="fil2" points="421.96,356.99 426.35,361.31 418.17,364.11 418.17,362.97 418.72,362.29 418.63,361 419.46,360.47 419.61,358.05 421.2,358.35 "/>
    <path class="fil2" d="M425.37 333.6l-2.42 1.44 -0.38 6.97 10.52 -6.06 0.38 0.23 -0.53 0.61 0 1.74 1.59 -1.21 0.76 -0.08 -0.15 1.67 0.98 1.44 1.44 -0.08 1.14 2.65 1.29 1.59 1.21 0.23 3.03 1.29 -0.68 0.91 2.33 1.21 0 -18.4 -3.54 -0.15c-4.44,6.32 -11.31,6.78 -16.96,4.01z"/>
    <polygon class="fil2" points="420.67,296.65 420.97,301.35 422.19,300.36 422.19,299.68 424.76,297.26 422.79,295.29 422.41,296.65 "/>
    <polygon class="fil2" points="422.87,315.05 422.94,317.62 425.74,315.73 426.27,314.37 425.29,314.29 424.99,315.12 "/>
    <polygon class="fil2" points="445.87,303.39 442.25,306.95 444.9,309.3 441.19,310.05 441.19,311.19 445.05,315.65 442.55,314.97 442.48,316.03 443.38,317.24 443.54,318.46 444.29,318.68 443.99,320.2 445.87,323.3 "/>
    <polygon class="fil2" points="445.87,282.2 439.52,288.47 441.95,291.05 437.93,291.43 437.86,292.34 442.17,296.8 438.84,296.12 438.92,297.33 441.11,297.79 442.63,298.17 444.44,298.39 444.75,299.91 445.87,300.13 "/>
    <path class="fil2" d="M391.68 265.87c-0.85,-0.92 -1.69,-1.84 -2.54,-2.75 -8.4,6.83 -9.91,16.17 -7.94,26.9 3.71,10.26 6.77,20.36 10.48,30.62 0,-6.91 0,-13.83 0,-20.74 -1.12,-0.11 -2.23,-0.22 -3.35,-0.32 1.12,-1.24 2.23,-2.48 3.35,-3.73 0,-1.78 0,-3.56 0,-5.35 -0.52,0.11 -0.47,-0.17 -0.99,-0.06 0.52,-0.7 0.47,-1.12 0.99,-1.82 -0.63,-0.22 -1.26,-0.34 -1.89,-0.55 0.11,-0.54 0.22,-1.08 0.32,-1.62 0.52,-0.32 0.56,-0.74 1.09,-1.07 -0.85,-0.49 -1.21,-0.88 -2.06,-1.36 0.22,-1.51 0.43,-3.02 0.65,-4.54 -0.81,-1.19 -1.62,-2.38 -2.43,-3.56 0.38,-0.22 0.56,-0.72 0.94,-0.94 -0.86,-1.3 -1.54,-2.3 -2.4,-3.6 1.93,0.05 3.85,-0.18 5.78,-0.13 0,-1.89 0,-3.49 0,-5.38z"/>
   </g>
   <path class="fil1" d="M150.85 65.95l-7.69 86.95 26.68 -8.72 0.26 -14.11 30.27 -10 8.46 12.06 27.45 -8.98 -56.17 -66.43 -29.24 9.23zm20.52 15.39l-0.77 30.78 18.72 -6.67 -17.95 -24.11z"/>
   <polygon class="fil1" points="244.22,42.35 250.37,122.89 278.08,120.32 272.18,40.04 "/>
   <polygon class="fil1" points="310.39,38.5 303.47,119.56 331.43,121.35 334.09,88.52 368.62,91.6 370.16,75.44 335.44,71.94 336.56,58.25 376.57,61.84 378.36,43.89 "/>
   <path class="fil1" d="M463.01 95.44l24.88 3.59c0.08,-20.02 -11.01,-30.09 -26.68,-36.42 -29.23,-11.64 -47.37,-3.58 -56.69,15.13 -12.36,24.39 -6.39,47.74 19.24,59.51 20.1,9.23 40.39,9.98 54.89,-9.23 -6.84,-4.7 -13.68,-9.66 -20.52,-14.36 -6.63,8.3 -13.12,12.65 -25.39,7.69 -11.04,-5.55 -10,-16.34 -4.36,-30.27 4.18,-9.46 10.69,-15.43 23.08,-12.57 6.69,2.48 12.29,7.09 11.54,16.93z"/>
   <path class="fil3" d="M272.61 236.4l14.64 -2.58 -12.34 -25.92 22.84 15.31 -0.85 -15.57 11.88 10.03 9.27 -27.55 5.67 27.4 9.03 -11.2 1.22 14.51 27.59 -20.85 -14.78 31.93 15.04 0.1c-22.56,25.57 -61.71,23.24 -89.19,4.38z"/>
   <path class="fil4" d="M272.55 236.06l14.19 -2.5 -12.69 -26.65 23.31 15.62 -0.86 -15.68 12.1 10.22 9.51 -28.27 5.78 27.94 9.12 -11.31 1.24 14.75 28.19 -21.3 -15.13 32.7 15.26 0.1 -0.5 0.57c-10.81,12.25 -25.41,18.14 -40.72,18.89 -16.81,0.83 -34.48,-4.54 -48.93,-14.45l-0.7 -0.48 0.83 -0.15zm14.75 -1.9l-13.8 2.43c14.2,9.52 31.42,14.66 47.8,13.85 14.89,-0.73 29.1,-6.38 39.73,-18.09l-14.81 -0.1 14.42 -31.16 -26.99 20.39 -1.2 -14.28 -8.95 11.1 -5.56 -26.87 -9.02 26.82 -11.65 -9.84 0.85 15.46 -22.37 -14.99 12 25.2 -0.45 0.08z"/>
   <path class="fil5" d="M291.35 243.96l52.25 -2.11c-4.47,-11.31 -12.72,-17.95 -26.29,-18.01 -15.46,1.17 -23.48,8.56 -25.96,20.12z"/>
   <polygon class="fil6" points="309.03,223.54 317.95,243.01 317.33,243.3 308.4,223.82 "/>
   <polygon class="fil6" points="291.06,239.89 316.54,242.48 316.47,243.17 291,240.57 "/>
   <polygon class="fil6" points="343.67,238.46 319.65,243.17 319.52,242.49 343.53,237.78 "/>
   <polygon class="fil6" points="323.49,223.45 318.13,242.43 317.47,242.25 322.82,223.26 "/>
   <polygon class="fil6" points="302.64,226.85 317.73,242.92 317.23,243.39 302.14,227.33 "/>
   <polygon class="fil6" points="297.71,229.88 317.51,243.03 317.12,243.6 297.33,230.46 "/>
   <polygon class="fil6" points="293.57,235.2 316.45,242.5 316.24,243.16 293.36,235.85 "/>
   <polygon class="fil6" points="317.34,222.71 317.34,242.18 316.65,242.18 316.65,222.71 "/>
   <polygon class="fil6" points="340.01,233.08 318.27,243.14 317.98,242.51 339.72,232.45 "/>
   <polygon class="fil6" points="335.38,228.65 318.18,242.93 317.74,242.4 334.94,228.12 "/>
   <polygon class="fil6" points="329.29,224.35 318.26,242.04 317.67,241.67 328.7,223.99 "/>
   <path class="fil5" d="M317.7 250.67c-13.71,0 -27,-2.81 -39.06,-12.53l-35.63 18.59c12.4,7.32 18.59,17.67 14.87,32.85 -4.75,23.5 -14.31,40.33 -14.87,61.66 -1.3,18.16 8.99,26.47 26.8,32.38 15.96,5.58 32.7,8.21 47.89,18.59 15.19,-10.38 28.6,-11.58 47.64,-16.85 13.73,-3.8 25.98,-14.47 27.67,-34.12 2.29,-25.68 -9.5,-39.41 -14.62,-61.79 -3.72,-18.53 2.73,-26.02 16.12,-33.84l-37.63 -18.34c-12.93,9.47 -25.47,13.4 -39.18,13.4z"/>
   <path class="fil7" d="M317.7 251.28c-6.9,0 -13.71,-0.71 -20.32,-2.65 -6.51,-1.91 -12.81,-5 -18.81,-9.77l-34.32 17.91c5.83,3.61 10.23,7.94 12.79,13.17 2.69,5.52 3.33,12.04 1.44,19.78 -1.91,9.42 -4.57,17.75 -7.13,25.73 -3.82,11.94 -7.39,23.09 -7.73,35.81l0 0.03c-0.63,8.89 1.56,15.37 6.08,20.33 4.56,5 11.5,8.51 20.31,11.43l0.01 0c4.43,1.55 8.94,2.87 13.45,4.2 11.62,3.42 23.3,6.85 34.23,14.23 11.56,-7.81 22.11,-10.38 34.88,-13.49 3.95,-0.96 8.11,-1.97 12.6,-3.22 7.24,-2 14.06,-5.94 19.08,-12.14 4.36,-5.37 7.37,-12.45 8.14,-21.45 1.48,-16.6 -2.98,-28.19 -7.67,-40.4 -2.54,-6.59 -5.14,-13.37 -6.94,-21.2l-0 -0.02c-1.89,-9.42 -1.18,-16.05 1.71,-21.35 2.75,-5.03 7.43,-8.8 13.72,-12.56l-36.28 -17.69c-6.41,4.66 -12.74,7.97 -19.17,10.12 -6.53,2.19 -13.16,3.18 -20.08,3.18zm-19.98 -3.81c6.48,1.9 13.17,2.59 19.98,2.59 6.79,0 13.3,-0.97 19.69,-3.12 6.41,-2.15 12.72,-5.47 19.13,-10.17l0.3 -0.22 38.98 19 -0.98 0.57c-6.61,3.86 -11.49,7.62 -14.25,12.67 -2.75,5.03 -3.41,11.41 -1.58,20.51 1.78,7.77 4.37,14.49 6.89,21.04 4.75,12.35 9.26,24.07 7.75,40.94 -0.79,9.26 -3.91,16.56 -8.41,22.11 -5.2,6.41 -12.24,10.48 -19.7,12.54 -4.48,1.24 -8.67,2.26 -12.64,3.22 -12.78,3.11 -23.3,5.67 -34.82,13.54l-0.34 0.23 -0.34 -0.23c-10.88,-7.43 -22.59,-10.88 -34.23,-14.3 -4.52,-1.33 -9.04,-2.66 -13.51,-4.22 -9,-2.99 -16.11,-6.59 -20.82,-11.76 -4.75,-5.21 -7.05,-11.97 -6.39,-21.23 0.35,-12.88 3.94,-24.11 7.79,-36.12 2.55,-7.96 5.21,-16.27 7.1,-25.62l0 -0.02c1.82,-7.44 1.22,-13.68 -1.35,-18.96 -2.58,-5.28 -7.15,-9.62 -13.24,-13.22l-0.94 -0.56c12.32,-6.43 24.64,-12.86 36.96,-19.28l0.31 0.25c5.96,4.81 12.23,7.91 18.7,9.8z"/>
   <path class="fil8" d="M256.25 299.24c31.88,13.46 61.58,27.37 89.73,42.43 14.05,7.76 24.51,20.37 33.12,36.08 8.99,-6.83 14.32,-18.4 13.71,-34.8 -46.15,-23.38 -86.88,-29.5 -134.43,-52.88 -0.71,3.11 -1.4,6.11 -2.13,9.17z"/>
   <polygon class="fil9" points="263.24,408.12 235.18,411.6 232.14,415.3 256.07,451.41 241.49,417.48 278.91,412.91 "/>
   <polygon class="fil9" points="207.12,371.8 204.73,373.97 201.68,415.95 209.3,380.28 244.54,398.12 232.57,385.94 "/>
   <polygon class="fil9" points="246.28,377.89 245.84,383.76 253.46,402.9 264.77,407.47 254.98,387.02 267.38,388.76 "/>
   <polygon class="fil9" points="182.98,373.97 188.85,337.43 192.98,335.25 217.13,348.08 220.17,357.22 194.29,343.95 "/>
   <polygon class="fil9" points="228.22,343.95 223.87,364.83 228.22,371.8 230.61,353.74 244.54,373.97 232.14,342.65 "/>
   <path class="fil1" d="M223.37 252.1c-0.83,-1.98 -0.89,-4.99 -0.91,-8.05 -2.19,2.65 -4.15,5.47 -5.54,8.66 0,2.85 0,5.7 0,8.56 -9.64,0.35 -8.2,7.09 -8.56,12.78 2.08,-2.91 4.16,-6.08 6.24,-7.05 0.67,-0.03 1.34,-0.07 2.01,-0.1 -1.04,2.01 -2.08,4.03 -3.12,6.04 -0.07,1.78 -0.13,3.56 -0.2,5.34 1.67,-2.19 3.09,-4.54 5.64,-6.14 0.2,-2.38 0.4,-4.76 0.6,-7.15 3.52,0.3 7.05,0.6 10.57,0.91 0.23,-2.28 0.47,-4.56 0.7,-6.85 0.2,-0.34 0.4,-0.67 0.6,-1.01 -0.03,-0.97 -0.07,-1.95 -0.1,-2.92 -0.2,-0.27 -0.4,-0.54 -0.6,-0.81 0.07,-1.51 0.13,-3.02 0.2,-4.53 0.4,-0.87 0.81,-1.74 1.21,-2.62 -2.02,2.11 -3.89,3.6 -5.64,4.63 0.34,-0.07 -0.68,0.71 -3.12,0.3z"/>
   <path class="fil10" d="M223.2 252.17c-0.42,-1.01 -0.65,-2.28 -0.77,-3.68 -0.11,-1.23 -0.13,-2.57 -0.14,-3.94 -0.98,1.2 -1.9,2.44 -2.74,3.72 -0.92,1.41 -1.75,2.89 -2.44,4.47l0 8.7 -0.18 0.01c-8.12,0.3 -8.21,5.24 -8.3,10.17 -0.01,0.61 -0.02,1.22 -0.05,1.81l0.3 -0.42c1.87,-2.64 3.75,-5.29 5.65,-6.17l0.03 -0.01c0.79,-0.05 1.58,-0.08 2.37,-0.12l-3.25 6.29 -0.18 4.71 0.54 -0.73c1.32,-1.81 2.65,-3.61 4.72,-4.94l0.61 -7.24 10.57 0.91 0.69 -6.71 0.6 -1 -0.1 -2.81 -0.61 -0.81c0.07,-1.54 0.13,-3.09 0.21,-4.63l0.78 -1.7c-0.75,0.74 -1.49,1.4 -2.2,1.99 -0.88,0.72 -1.74,1.33 -2.57,1.83 -0.02,0.05 -0.06,0.1 -0.13,0.15 -0.05,0.04 -0.14,0.09 -0.25,0.13 -0.45,0.18 -1.46,0.4 -3.03,0.14l-0.1 -0.02 -0.04 -0.09zm-0.41 -3.71c0.12,1.32 0.32,2.52 0.71,3.47 1.19,0.19 2.01,0.08 2.49,-0.05l0.41 -0.24c0.87,-0.51 1.77,-1.14 2.7,-1.9 0.93,-0.76 1.9,-1.66 2.9,-2.7l0.75 -0.78 -1.65 3.57 -0.2 4.43 0.6 0.8c0.03,1.01 0.07,2.02 0.1,3.03l-0.61 1.02 -0.72 6.98 -10.57 -0.91 -0.6 7.06 -0.08 0.05c-2.05,1.29 -3.37,3.09 -4.69,4.89 -0.29,0.4 -0.58,0.79 -0.89,1.2l-0.35 0.46c0.07,-1.98 0.14,-3.97 0.22,-5.95l2.99 -5.79 -1.66 0.08c-1.81,0.86 -3.64,3.45 -5.47,6.04l-1.03 1.46 0.04 -0.64c0.05,-0.8 0.07,-1.61 0.08,-2.42 0.09,-5.08 0.19,-10.15 8.48,-10.52l0 -8.42 0.02 -0.04c0.7,-1.6 1.54,-3.11 2.48,-4.56 0.94,-1.44 1.98,-2.81 3.08,-4.14l0.32 -0.39 0 0.5c0.01,1.52 0.03,3.03 0.15,4.42z"/>
   <path class="fil10" d="M223.09 252.22c-0.21,-0.51 -0.38,-1.09 -0.5,-1.71 -0.13,-0.63 -0.21,-1.3 -0.28,-2 -0.05,-0.61 -0.09,-1.26 -0.11,-1.93 -0.02,-0.55 -0.03,-1.12 -0.03,-1.69 -0.41,0.52 -0.82,1.04 -1.21,1.56 -0.46,0.62 -0.9,1.24 -1.31,1.89 -0.46,0.71 -0.9,1.43 -1.3,2.17 -0.4,0.73 -0.77,1.49 -1.11,2.26l0 8.79 -0.29 0.01c-8,0.29 -8.1,5.17 -8.18,10.05l0 0c-0.01,0.47 -0.02,0.94 -0.03,1.41l0.07 -0.1c1.88,-2.66 3.76,-5.31 5.7,-6.21l0.05 -0.02 0.02 -0c0.55,-0.03 1.11,-0.06 1.67,-0.08l0.91 -0.04 -3.33 6.45 -0.16 4.29 0.31 -0.42c0.66,-0.9 1.33,-1.81 2.09,-2.66 0.75,-0.84 1.59,-1.62 2.61,-2.28l0.62 -7.3 10.58 0.91 0.68 -6.61 0.59 -0.99 -0.09 -2.73 -0.61 -0.82c0.06,-1.56 0.12,-3.14 0.21,-4.7l0.52 -1.13c-0.22,0.21 -0.44,0.41 -0.65,0.6 -0.37,0.33 -0.73,0.64 -1.09,0.94 -0.44,0.36 -0.88,0.7 -1.31,1 -0.42,0.3 -0.84,0.57 -1.24,0.82l-0.05 0.07c-0.03,0.03 -0.06,0.06 -0.1,0.09 -0.03,0.02 -0.08,0.05 -0.13,0.08l-0.15 0.07c-0.27,0.11 -0.73,0.23 -1.39,0.26 -0.47,0.02 -1.04,-0 -1.7,-0.12l-0.17 -0.03 -0.07 -0.16zm-0.27 -1.76c0.12,0.61 0.28,1.17 0.49,1.67l0.01 0.03 0.03 0.01c0.65,0.11 1.2,0.13 1.65,0.11 0.62,-0.03 1.06,-0.14 1.31,-0.25l0.13 -0.06 0.1 -0.06 0.06 -0.06 0.03 -0.04 0.02 -0.04 0.03 -0.02c0.42,-0.25 0.84,-0.53 1.26,-0.83 0.42,-0.3 0.86,-0.63 1.3,-0.99 0.35,-0.29 0.72,-0.6 1.08,-0.93 0.37,-0.33 0.74,-0.68 1.11,-1.05l0.48 -0.47 -1.05 2.29 -0.2 4.56 0.61 0.81c0.03,0.96 0.06,1.92 0.1,2.88l-0.6 1 -0.7 6.8 -10.57 -0.91 -0.61 7.18 -0.05 0.03c-1.02,0.66 -1.86,1.43 -2.61,2.27 -0.75,0.84 -1.41,1.74 -2.07,2.64l-0.78 1.05c0.06,-1.71 0.11,-3.43 0.19,-5.13l3.16 -6.12 -0.49 0.02c-0.54,0.03 -1.09,0.05 -1.64,0.08l-0.01 0.01c-1.87,0.87 -3.73,3.5 -5.6,6.13 -0.18,0.26 -0.36,0.51 -0.54,0.76l0.02 -0.41c0.03,-0.6 0.04,-1.2 0.05,-1.81l0 -0c0.09,-4.99 0.18,-9.99 8.42,-10.29l0.06 -0 0 -8.6 0.01 -0.02c0.34,-0.79 0.72,-1.56 1.13,-2.3 0.41,-0.75 0.85,-1.48 1.31,-2.18 0.42,-0.64 0.86,-1.27 1.32,-1.9 0.46,-0.62 0.94,-1.23 1.42,-1.83l0.21 -0.26 0 0.34c0.01,0.68 0.01,1.36 0.04,2.02 0.02,0.65 0.05,1.3 0.11,1.91 0.06,0.7 0.15,1.36 0.27,1.97zm0.09 -2c0.06,0.66 0.14,1.28 0.25,1.86 0.11,0.55 0.25,1.06 0.42,1.51 0.48,0.07 0.91,0.09 1.26,0.09 0.47,-0.01 0.83,-0.07 1.09,-0.14l0.4 -0.23c0.43,-0.25 0.87,-0.54 1.32,-0.85 0.45,-0.31 0.9,-0.66 1.36,-1.04 0.46,-0.38 0.94,-0.79 1.42,-1.24 0.48,-0.45 0.97,-0.93 1.47,-1.45l1.25 -1.31 -1.94 4.21 -0.19 4.36 0.6 0.8c0.03,1.03 0.07,2.07 0.11,3.1l-0.62 1.02 -0.73 7.08 -10.56 -0.91 -0.59 6.99 -0.13 0.08c-1.01,0.64 -1.85,1.41 -2.6,2.24 -0.75,0.83 -1.41,1.73 -2.07,2.63l-0.01 0.02c-0.29,0.39 -0.57,0.78 -0.88,1.19l-0.58 0.76 0.08 -2.16c0.05,-1.39 0.1,-2.78 0.16,-4.17l0 -0.03 2.91 -5.63 -1.42 0.07c-0.88,0.42 -1.77,1.27 -2.66,2.33 -0.92,1.08 -1.83,2.37 -2.74,3.66l-1.28 1.81 0.07 -1.07c0.02,-0.4 0.04,-0.8 0.05,-1.2l0.03 -1.21c0.05,-2.55 0.09,-5.11 1.18,-7.08 1.08,-1.97 3.18,-3.35 7.3,-3.56l0 -8.33 0.03 -0.06c0.35,-0.8 0.74,-1.59 1.15,-2.35 0.42,-0.77 0.87,-1.51 1.34,-2.23 0.47,-0.73 0.97,-1.43 1.49,-2.12 0.51,-0.69 1.05,-1.37 1.6,-2.03l0.53 -0.64 0 0.84c0,0.76 0.01,1.52 0.03,2.26 0.02,0.73 0.06,1.46 0.12,2.15zm0.01 1.91c-0.11,-0.59 -0.2,-1.22 -0.25,-1.89 -0.06,-0.69 -0.1,-1.42 -0.12,-2.16 -0.02,-0.74 -0.03,-1.5 -0.03,-2.26l-0 -0.17 -0.11 0.13c-0.55,0.66 -1.08,1.34 -1.6,2.03 -0.52,0.69 -1.01,1.39 -1.48,2.11 -0.47,0.72 -0.92,1.46 -1.33,2.21 -0.41,0.75 -0.8,1.53 -1.14,2.33l-0 0.01 0 8.51 -0.12 0.01c-4.09,0.18 -6.16,1.52 -7.21,3.44 -1.06,1.92 -1.1,4.45 -1.15,6.97l-0.03 1.22c-0.01,0.41 -0.03,0.81 -0.05,1.21l-0.01 0.21 0.79 -1.11c0.92,-1.3 1.84,-2.6 2.75,-3.68 0.92,-1.09 1.85,-1.96 2.77,-2.4l0.02 -0.01c0.63,-0.04 1.26,-0.06 1.9,-0.09l-3.08 5.96c-0.06,1.38 -0.11,2.76 -0.16,4.14l-0.05 1.4 0.12 -0.15c0.31,-0.4 0.59,-0.79 0.88,-1.19l0.01 -0.02c0.66,-0.9 1.32,-1.81 2.08,-2.65 0.76,-0.84 1.61,-1.63 2.65,-2.28l0.03 -0.02 0.6 -7.12 10.57 0.91 0.71 -6.89 0.61 -1.01 -0.1 -2.96 -0.6 -0.8c0.06,-1.49 0.11,-3.01 0.2,-4.5l1.36 -2.94 -0.25 0.26c-0.5,0.53 -1,1.01 -1.48,1.46 -0.49,0.45 -0.96,0.87 -1.43,1.25 -0.47,0.38 -0.93,0.73 -1.38,1.05 -0.45,0.32 -0.9,0.6 -1.33,0.86 -0.09,0.05 -0.36,0.23 -0.44,0.25 -0.27,0.08 -0.66,0.15 -1.16,0.16 -0.39,0.01 -0.85,-0.02 -1.38,-0.1l-0.07 -0.01 -0.03 -0.07c-0.19,-0.49 -0.34,-1.03 -0.46,-1.62z"/>
   <polygon class="fil9" points="189.4,277.88 216.07,264.86 220.15,275.21 221.48,269.49 218.19,258.5 215.6,257.17 "/>
   <g>
    <polygon class="fil11" points="224.66,245.16 229.61,245.38 229.5,246.37 229.5,247.8 228.51,248.68 228.73,260.13 226.09,268.28 217.5,265.74 219.6,257.38 224.55,250.66 224.55,248.9 225.1,248.13 224.33,246.81 "/>
    <path class="fil10" d="M224.67 244.82l5.32 0.24 -0.15 1.33 0 1.57 -0.99 0.88 0.22 11.35c-0.94,2.83 -1.84,5.68 -2.76,8.52l-9.23 -2.72c0.73,-2.92 1.45,-5.84 2.19,-8.75l4.93 -6.68 0 -1.76 0.49 -0.68 -0.72 -1.24 0.41 -2.07 0.3 0.01zm4.56 0.89l-4.29 -0.19 -0.25 1.23 0.82 1.4 -0.62 0.86 0 1.76 -4.98 6.75 -1.99 7.98 7.95 2.34 2.52 -7.77 -0.22 -11.55 0.99 -0.88c0,-0.8 -0.01,-1.2 0.07,-1.94z"/>
    <polygon class="fil9" points="223.64,264.82 223.44,266.33 224.26,266.53 224.74,267.35 225.01,265.51 "/>
    <polygon class="fil9" points="222.21,261.41 222,262.91 222.82,263.12 223.3,263.94 223.57,262.09 "/>
    <polygon class="fil9" points="224.53,262.3 224.33,263.66 225.06,263.96 226.17,264.51 226.21,262.71 "/>
    <polygon class="fil9" points="219.25,263.65 219.09,264.97 219.87,265.17 220.48,265.36 220.71,263.92 "/>
    <polygon class="fil9" points="223,258.97 224.18,259.15 224.18,261.09 223.18,260.91 222.41,260.14 "/>
    <polygon class="fil9" points="225.08,259.87 224.95,261.5 226.22,261.82 227.08,261.23 226.99,260.46 226.17,259.92 "/>
    <polygon class="fil9" points="223.95,256.12 224.22,256.7 225.04,256.7 224.77,258.7 224.32,258.15 223.68,258.06 223.23,257.25 "/>
    <polygon class="fil9" points="220.33,258.33 221.1,258.06 222.28,258.29 222.14,259.74 220.92,259.78 220.65,259.65 219.93,259.65 "/>
    <polygon class="fil9" points="219.52,260.73 219.38,261.91 220.74,262.59 221.1,262.18 221.51,261.14 220.38,260.42 "/>
    <polygon class="fil9" points="226.44,257.43 225.81,257.88 225.76,258.74 226.31,258.74 226.62,259.6 227.8,259.47 227.57,257.47 "/>
    <polygon class="fil9" points="224.59,253.9 224.09,254.76 223.59,254.8 224.04,255.84 225.58,256.16 225.72,254.62 "/>
    <polygon class="fil9" points="226.53,255.17 227.57,255.48 227.48,257.11 226.53,256.93 225.81,256.43 225.9,255.75 "/>
    <ellipse class="fil1" cx="220.44" cy="261.45" rx="0.23" ry="0.3"/>
    <ellipse class="fil1" cx="225.37" cy="263.39" rx="0.24" ry="0.29"/>
    <ellipse class="fil1" cx="223.27" cy="259.92" rx="0.22" ry="0.23"/>
    <ellipse class="fil1" cx="221.22" cy="259.08" rx="0.17" ry="0.23"/>
    <ellipse class="fil1" cx="226.73" cy="258.41" rx="0.17" ry="0.22"/>
    <circle class="fil1" cx="225.96" cy="260.76" r="0.26"/>
    <ellipse class="fil1" cx="224.7" cy="255.19" rx="0.2" ry="0.22"/>
   </g>
   <path class="fil1" d="M189.15 318.35c4.4,6.88 9.15,12.03 15.1,11.17 0.59,1.18 0.13,2.1 -0.83,2.9 -0.07,1.31 0.01,2.76 -0.06,4.07 2.35,3.67 5.21,4.89 8.34,5.85 -1.89,-2.07 -3.64,-4.14 -4.76,-6.2 0,-1.52 0,-3.03 0,-4.55 3.11,3.71 6.66,6.99 10.55,9.93 -2.21,-4.55 -4.41,-9.1 -6.62,-13.65 1.59,3.1 3.17,6.2 4.76,9.31 4.53,1.48 8.66,3.56 12.41,6.2 -1.01,-3.33 -2.85,-6.33 -5.79,-8.89 -2.96,-2.41 -5.93,-4.83 -8.89,-7.24 2.28,-0.69 4.55,-1.38 6.83,-2.07 1.17,0.48 1.91,0.68 3.08,1.16 0.76,-0.48 1.95,-0.68 2.71,-1.16 -4.7,-3.86 -9.8,-2.91 -14.89,-2.07 -7.2,-1.25 -14.33,-2.31 -21.92,-4.76z"/>
   <path class="fil10" d="M189.87 318.89c2.04,3.12 4.17,5.83 6.45,7.71 2.42,1.99 5.01,3.03 7.89,2.62l0.22 -0.03 0.1 0.2c0.34,0.67 0.37,1.27 0.18,1.83 -0.17,0.5 -0.52,0.94 -0.98,1.35 -0.03,0.61 -0.03,1.25 -0.02,1.89 0,0.66 0,1.33 -0.03,1.96 1.13,1.75 2.39,2.92 3.73,3.77 1.05,0.66 2.16,1.13 3.31,1.53 -0.68,-0.76 -1.33,-1.52 -1.92,-2.28 -0.82,-1.05 -1.55,-2.1 -2.12,-3.15l-0.04 -0.07 0 -5.46 0.54 0.64c1.55,1.85 3.21,3.59 4.96,5.23 1.44,1.35 2.95,2.64 4.52,3.87l-6.06 -12.49 0.54 -0.27c1.54,3.07 3.13,6.13 4.7,9.2 2.23,0.74 4.37,1.62 6.42,2.65 1.81,0.91 3.55,1.92 5.21,3.05 -0.47,-1.33 -1.08,-2.6 -1.86,-3.81 -0.94,-1.46 -2.12,-2.83 -3.56,-4.09l-9.33 -7.59c2.49,-0.75 4.98,-1.51 7.48,-2.27l0.1 0.04c0.57,0.24 1.05,0.4 1.53,0.57 0.44,0.16 0.88,0.31 1.41,0.53 0.38,-0.22 0.83,-0.37 1.28,-0.53 0.31,-0.11 0.62,-0.22 0.9,-0.34 -4.39,-3.36 -9.17,-2.57 -13.95,-1.78l-0.39 0.07 -2.57 -0.44c-6.1,-1.04 -12.2,-2.08 -18.63,-4.08zm6.06 8.18c-2.51,-2.06 -4.82,-5.1 -7.03,-8.56l-0.46 -0.71 0.81 0.26c6.68,2.15 13.02,3.23 19.36,4.31l2.48 0.42 0.29 -0.05c5.05,-0.84 10.09,-1.68 14.8,2.19l0.32 0.27 -0.35 0.22c-0.41,0.26 -0.91,0.44 -1.42,0.61 -0.47,0.16 -0.94,0.33 -1.29,0.55l-0.13 0.08 -0.15 -0.06c-0.57,-0.24 -1.05,-0.4 -1.53,-0.57 -0.45,-0.16 -0.9,-0.32 -1.45,-0.54l-6.18 1.87 8.46 6.88c1.49,1.3 2.71,2.71 3.68,4.22 0.97,1.51 1.7,3.12 2.21,4.81l0.25 0.84 -0.72 -0.51c-1.87,-1.31 -3.83,-2.49 -5.88,-3.52 -1.93,-0.97 -3.95,-1.81 -6.06,-2.52l2.39 4.93 -1.01 -0.76c-1.95,-1.47 -3.81,-3.03 -5.59,-4.7 -1.57,-1.47 -3.07,-3.02 -4.47,-4.65l0 3.65c0.54,0.99 1.24,1.99 2.02,2.99 0.81,1.04 1.72,2.06 2.65,3.09l0.75 0.82 -1.07 -0.33c-1.58,-0.49 -3.1,-1.04 -4.53,-1.94 -1.43,-0.91 -2.77,-2.16 -3.97,-4.04l-0.05 -0.08 0 -0.1c0.03,-0.65 0.03,-1.34 0.03,-2.02 -0,-0.7 -0,-1.4 0.03,-2.05l0.01 -0.13 0.1 -0.08c0.44,-0.36 0.76,-0.75 0.9,-1.17 0.12,-0.35 0.11,-0.73 -0.06,-1.16 -2.98,0.36 -5.66,-0.74 -8.14,-2.78z"/>
   <polygon class="fil9" points="229.09,311.32 226.05,313.93 214.95,328.72 217.78,331.77 227.57,318.28 237.14,334.82 "/>
   <polygon class="fil9" points="172.52,324.54 197.64,308.3 213.55,316.86 213.55,321.3 196.34,316.42 "/>
   <g>
    <polygon class="fil11" points="191.48,316.48 193.82,312.11 194.66,312.63 195.95,313.25 196.32,314.52 206.75,319.26 212.96,325.15 206.97,331.81 200.33,326.32 196.4,318.95 194.81,318.19 194.35,317.37 192.83,317.49 "/>
    <path class="fil10" d="M191.18 316.32l2.51 -4.7 1.14 0.71 1.42 0.68 0.37 1.27 10.33 4.69c2.15,2.07 4.33,4.11 6.5,6.17l-6.43 7.15c-2.32,-1.91 -4.64,-3.83 -6.95,-5.75l-3.9 -7.32 -1.59 -0.76 -0.4 -0.73 -1.43 0.12 -1.69 -1.27 0.14 -0.26zm2.77 -3.73l-2.02 3.79 1.01 0.75 1.61 -0.13 0.51 0.93 1.59 0.76 3.95 7.4 6.34 5.24 5.54 -6.16 -5.93 -5.62 -10.52 -4.78 -0.37 -1.28c-0.72,-0.34 -1.08,-0.51 -1.72,-0.9z"/>
    <polygon class="fil9" points="208.79,325.87 210.06,326.71 210.6,326.06 211.54,325.98 209.99,324.94 "/>
    <polygon class="fil9" points="205.09,325.7 206.36,326.53 206.9,325.88 207.84,325.8 206.29,324.76 "/>
    <polygon class="fil9" points="206.89,323.98 208.04,324.76 208.62,324.23 209.59,323.46 207.99,322.64 "/>
    <polygon class="fil9" points="205.84,329.33 206.96,330.04 207.48,329.43 207.91,328.96 206.71,328.13 "/>
    <polygon class="fil9" points="203.23,323.93 203.9,322.94 205.65,323.78 205.06,324.6 204.04,324.97 "/>
    <polygon class="fil9" points="204.94,322.44 206.35,323.26 207.19,322.26 207.03,321.23 206.29,320.98 205.45,321.48 "/>
    <polygon class="fil9" points="201.06,321.84 201.71,321.85 202.06,321.12 203.74,322.22 203.06,322.39 202.7,322.93 201.77,322.98 "/>
    <polygon class="fil9" points="201.51,326.06 201.59,325.25 202.3,324.29 203.55,325.04 203.07,326.16 202.83,326.34 202.51,327 "/>
    <polygon class="fil9" points="203.32,327.83 204.32,328.46 205.52,327.53 205.31,327.03 204.54,326.21 203.4,326.92 "/>
    <polygon class="fil9" points="203.32,320.16 203.46,320.93 204.21,321.34 204.45,320.85 205.36,320.93 205.75,319.81 203.85,319.16 "/>
    <polygon class="fil9" points="199.34,320.31 199.9,321.13 199.72,321.6 200.86,321.64 201.81,320.39 200.48,319.61 "/>
    <polygon class="fil9" points="201.32,319.1 202.05,318.3 203.48,319.09 202.91,319.87 202.15,320.3 201.58,319.93 "/>
    <ellipse class="fil1" transform="matrix(0.430961 -0.90237 0.90237 0.430961 204.368 327.312)" rx="0.23" ry="0.3"/>
    <ellipse class="fil1" transform="matrix(0.430961 -0.90237 0.90237 0.430961 208.242 323.702)" rx="0.24" ry="0.29"/>
    <ellipse class="fil1" transform="matrix(0.430961 -0.90237 0.90237 0.430961 204.2 324.096)" rx="0.22" ry="0.23"/>
    <ellipse class="fil1" transform="matrix(0.430961 -0.90237 0.90237 0.430961 202.563 325.591)" rx="0.17" ry="0.23"/>
    <ellipse class="fil1" transform="matrix(0.430961 -0.90237 0.90237 0.430961 204.332 320.321)" rx="0.17" ry="0.22"/>
    <circle class="fil1" transform="matrix(0.430961 -0.90237 0.90237 0.430961 206.124 322.029)" r="0.26"/>
    <ellipse class="fil1" transform="matrix(0.574615 -1.20316 1.20316 0.574615 200.548 320.77)" rx="0.15" ry="0.17"/>
   </g>
   <path class="fil1 str0" d="M219.47 271.8c-1.62,2.03 -3.24,4.05 -4.86,6.08 0.15,3.65 0.29,7.29 0.44,10.94 -0.85,-0.15 -1.69,-0.29 -2.54,-0.44 -1.62,1.29 -3.24,2.58 -4.86,3.87 1.03,0.88 2.06,1.77 3.09,2.65 1.03,-0.85 2.06,-1.69 3.09,-2.54 1.62,-0.11 3.24,-0.22 4.86,-0.33 -2.03,1.33 -4.05,2.65 -6.08,3.98 -0.81,2.17 -1.62,4.35 -2.43,6.52 1.1,-0.11 2.21,-0.22 3.31,-0.33 -2.3,2.94 -3.94,6.87 -5.63,10.72 3.1,-1.8 6.33,-4.38 9.72,-7.95 1.07,-3.36 3.86,-6.25 8.18,-8.73 2.47,-0.73 5.37,-3.28 8.73,-7.84 0.26,-1.4 0.52,-2.8 0.77,-4.2 0.99,-1.69 1.55,-3.39 2.54,-5.08 -1.62,0.7 -2.8,1.4 -4.42,2.1 -4.16,2.69 -8.32,5.38 -12.48,8.06 -0.48,-5.82 -0.96,-11.64 -1.44,-17.46z"/>
   <polygon class="fil10" points="214.61,298.03 224.12,294.61 224.32,295.18 214.82,298.6 "/>
   <polygon class="fil10" points="212.65,288.29 219.5,288.96 219.44,289.56 212.59,288.9 "/>
   <polygon class="fil9" points="185.15,305.01 196.9,284.78 200.16,282.39 216.91,297.62 214.95,303.93 200.16,289.35 "/>
   <polygon class="fil9" points="225.83,296.53 215.17,306.97 214.3,316.11 226.92,302.4 242.14,313.28 "/>
   <polygon class="fil9" points="236.92,252.59 220.61,276.3 218,292.4 237.81,261.55 258.68,288.7 240.19,251.5 "/>
   <g>
    <polygon class="fil11" points="231.63,274.5 236.32,276.12 235.93,277.04 235.52,278.41 234.32,278.98 231.28,290.01 226.43,297.07 218.91,292.2 223.3,284.78 229.96,279.75 230.46,278.06 231.21,277.48 230.84,275.99 "/>
    <path class="fil10" d="M231.74 274.18l5.04 1.74 -0.52 1.23 -0.45 1.51 -1.2 0.56 -3.02 10.94c-1.7,2.45 -3.38,4.92 -5.07,7.38l-8.07 -5.23c1.53,-2.59 3.05,-5.18 4.59,-7.77l6.62 -5 0.5 -1.69 0.66 -0.51 -0.34 -1.4 0.99 -1.87 0.28 0.1zm4.11 2.15l-4.06 -1.4 -0.59 1.11 0.38 1.57 -0.84 0.65 -0.5 1.69 -6.7 5.06 -4.18 7.08 6.95 4.51 4.63 -6.73 3.07 -11.13 1.2 -0.56c0.23,-0.76 0.33,-1.15 0.62,-1.84z"/>
    <polygon class="fil9" points="225.06,293.07 224.44,294.45 225.16,294.88 225.39,295.8 226.18,294.11 "/>
    <polygon class="fil9" points="224.66,289.38 224.03,290.77 224.76,291.2 224.99,292.12 225.77,290.43 "/>
    <polygon class="fil9" points="226.63,290.89 226.05,292.15 226.66,292.64 227.57,293.48 228.13,291.77 "/>
    <polygon class="fil9" points="221.19,290.69 220.66,291.91 221.34,292.33 221.88,292.68 222.5,291.37 "/>
    <polygon class="fil9" points="226.11,287.27 227.19,287.78 226.64,289.64 225.73,289.19 225.21,288.23 "/>
    <polygon class="fil9" points="227.85,288.73 227.26,290.25 228.38,290.92 229.37,290.6 229.51,289.83 228.88,289.08 "/>
    <polygon class="fil9" points="227.84,284.81 227.93,285.45 228.71,285.68 227.88,287.51 227.6,286.86 227.02,286.59 226.82,285.68 "/>
    <polygon class="fil9" points="223.73,285.9 224.55,285.86 225.61,286.41 225.07,287.76 223.88,287.46 223.66,287.25 222.97,287.04 "/>
    <polygon class="fil9" points="222.27,287.97 221.8,289.06 222.91,290.1 223.38,289.81 224.06,288.93 223.18,287.91 "/>
    <polygon class="fil9" points="229.85,286.77 229.11,287.03 228.82,287.84 229.34,287.99 229.4,288.91 230.57,289.11 230.92,287.14 "/>
    <polygon class="fil9" points="229.07,282.86 228.35,283.54 227.86,283.44 228,284.57 229.38,285.31 229.95,283.88 "/>
    <polygon class="fil9" points="230.58,284.63 231.49,285.23 230.94,286.76 230.08,286.32 229.52,285.64 229.8,285.01 "/>
    <ellipse class="fil1" transform="matrix(0.958679 0.284488 -0.284488 0.958679 222.948 288.924)" rx="0.23" ry="0.3"/>
    <ellipse class="fil1" transform="matrix(0.958679 0.284488 -0.284488 0.958679 227.121 292.185)" rx="0.24" ry="0.29"/>
    <ellipse class="fil1" transform="matrix(0.958679 0.284488 -0.284488 0.958679 226.099 288.255)" rx="0.22" ry="0.23"/>
    <ellipse class="fil1" transform="matrix(0.958679 0.284488 -0.284488 0.958679 224.366 286.872)" rx="0.17" ry="0.23"/>
    <ellipse class="fil1" transform="matrix(0.958679 0.284488 -0.284488 0.958679 229.848 287.794)" rx="0.17" ry="0.22"/>
    <circle class="fil1" transform="matrix(0.958679 0.284488 -0.284488 0.958679 228.442 289.832)" r="0.26"/>
    <ellipse class="fil1" transform="matrix(1.27824 0.379318 -0.379318 1.27824 228.813 284.128)" rx="0.15" ry="0.17"/>
   </g>
   <path class="fil10" d="M343.51 434.35l-10.02 -11.78 -7.1 -3.43c-20.67,-2.41 -37.38,-4.92 -50.31,-7.94 -13.03,-3.05 -22.26,-6.63 -27.91,-11.18 -8.56,-6.29 -16.15,-15.41 -22.13,-28.14 -5.41,-11.51 -9.51,-25.99 -11.83,-44l-0.01 -0.04c-0.68,-9.44 -0.49,-18.89 0.38,-28.35 0.87,-9.45 2.41,-18.89 4.44,-28.32l1.43 0.3c-2.02,9.39 -3.56,18.78 -4.42,28.15 -0.86,9.37 -1.05,18.74 -0.38,28.11 2.3,17.83 6.35,32.15 11.69,43.52 5.87,12.5 13.31,21.44 21.68,27.59l0.03 0.02c5.46,4.4 14.51,7.9 27.34,10.9 12.9,3.02 29.6,5.52 50.27,7.93l0.12 0.01c2.53,1.22 5.06,2.45 7.59,3.66l10.23 12.02 -1.11 0.94z"/>
   <g>
    <polygon class="fil9" points="402.44,272.79 402.92,275.16 402.35,276.68 399.6,273.26 399.12,274.88 398.08,274.69 397.89,273.74 396.56,273.74 396.66,275.44 395.24,273.74 392.77,273.83 394.76,276.2 393.72,277.15 394.38,278.38 394.19,279.43 396.28,279.62 398.27,280.66 393.81,280.95 393.72,282.27 395.99,282.46 395.9,284.45 401.12,284.36 398.65,286.07 404.15,285.97 406.24,284.17 405.19,283.13 405.1,282.18 406.9,282.37 408.61,280.76 408.89,276.77 407.94,275.92 408.04,274.78 406.14,275.63 404.72,272.88 404.15,272.98 403.87,273.83 403.3,272.79 "/>
    <path class="fil12" d="M402.7 273l0.43 2.17 -0.72 1.93 -2.73 -3.39 -0.41 1.41 -1.37 -0.25 -0.18 -0.92 -0.93 0 0.12 2.12 -1.77 -2.12 -1.93 0.07 1.84 2.2 -1.07 0.97 0.62 1.15 -0.16 0.89 1.9 0.17c0.9,0.47 1.8,0.94 2.7,1.42l-5.03 0.32 -0.07 0.93 2.27 0.19 -0.09 1.97 5.69 -0.1 -2.47 1.71 4.72 -0.08 1.85 -1.6 -0.93 -0.93 -0.13 -1.28 1.96 0.21 1.58 -1.49 0.27 -3.8 -0.95 -0.85 0.07 -0.88 -1.75 0.79 -1.44 -2.79 -0.29 0.05 -0.4 1.2 -0.74 -1.36 -0.47 0zm-0.01 2.14l-0.51 -2.57 1.24 0 0.4 0.73 0.17 -0.51 0.85 -0.14 1.4 2.71 2.04 -0.92 -0.12 1.39 0.95 0.85 -0.3 4.17 -1.84 1.74 -1.64 -0.17 0.06 0.61 1.15 1.15c-0.77,0.67 -1.55,1.33 -2.32,2 -2.09,0.03 -4.19,0.07 -6.28,0.11l2.46 -1.71 -4.74 0.09 0.1 -2.01 -2.28 -0.19 0.12 -1.72 3.89 -0.25 -1.28 -0.67 -2.28 -0.21 0.22 -1.2 -0.71 -1.31 1.01 -0.92 -2.14 -2.55 3 -0.12 1.08 1.29 -0.07 -1.29 1.73 0 0.2 0.98 0.71 0.13 0.54 -1.82 2.77 3.44 0.42 -1.11z"/>
    <path class="fil9" d="M412.59 281.42c0.22,0.66 0.44,0.95 0.66,1.61 -2.69,1.29 -5.37,1.12 -8.06,0.38 -0.03,-0.38 -0.06,-0.76 -0.1,-1.14 2.9,0.62 4.95,1.06 7.49,-0.85z"/>
    <path class="fil12" d="M412.79 281.35c0.1,0.31 0.21,0.55 0.32,0.78 0.11,0.24 0.23,0.48 0.34,0.83l0.06 0.18 -0.17 0.08c-2.74,1.31 -5.48,1.14 -8.21,0.39l-0.14 -0.04 -0.13 -1.57 0.28 0.06c1.43,0.31 2.66,0.57 3.82,0.52 1.15,-0.05 2.26,-0.41 3.5,-1.33l0.24 -0.18 0.09 0.28zm-0.06 0.96c-0.08,-0.17 -0.16,-0.34 -0.24,-0.56 -1.22,0.86 -2.34,1.2 -3.5,1.25 -1.14,0.05 -2.31,-0.18 -3.65,-0.47l0.06 0.7c2.54,0.68 5.07,0.82 7.6,-0.32 -0.09,-0.23 -0.17,-0.42 -0.26,-0.6z"/>
   </g>
   <g>
    <polygon class="fil9" points="405.58,253.76 404.68,256.01 403.37,256.96 402.94,252.6 401.66,253.69 400.89,252.95 401.25,252.06 400.14,251.33 399.29,252.81 399.03,250.6 396.92,249.33 397.29,252.4 395.89,252.62 395.77,254.02 395.04,254.78 396.68,256.09 397.77,258.05 393.89,255.84 393.08,256.9 394.88,258.31 393.71,259.92 398.12,262.71 395.12,262.78 399.77,265.72 402.51,265.36 402.21,263.91 402.65,263.07 404.05,264.22 406.36,263.81 408.79,260.63 408.46,259.4 409.17,258.5 407.11,258.17 407.43,255.09 406.9,254.86 406.2,255.42 406.29,254.23 "/>
    <path class="fil12" d="M405.68 254.08l-0.83 2.06 -1.66 1.21 -0.42 -4.33 -1.12 0.95 -1.01 -0.96 0.35 -0.87 -0.78 -0.51 -1.07 1.84 -0.31 -2.74 -1.65 -1 0.34 2.85 -1.43 0.23 -0.11 1.3 -0.62 0.65 1.49 1.19c0.5,0.89 0.99,1.78 1.48,2.67l-4.38 -2.49 -0.57 0.74 1.8 1.4 -1.16 1.6 4.82 3.04 -3 0.07 3.99 2.52 2.43 -0.32 -0.27 -1.29 0.6 -1.14 1.53 1.25 2.13 -0.38 2.31 -3.03 -0.33 -1.24 0.55 -0.7 -1.9 -0.3 0.33 -3.13 -0.27 -0.12 -0.99 0.78 0.13 -1.54 -0.39 -0.26zm-1.18 1.79l0.98 -2.43 1.04 0.68 -0.07 0.82 0.42 -0.33 0.79 0.35 -0.32 3.03 2.21 0.35 -0.86 1.1 0.32 1.23 -2.54 3.32 -2.49 0.44 -1.28 -1.04 -0.28 0.54 0.33 1.6c-1.01,0.13 -2.03,0.26 -3.04,0.4 -1.76,-1.13 -3.54,-2.24 -5.31,-3.36l3 -0.07 -4.01 -2.53 1.18 -1.63 -1.8 -1.41 1.05 -1.37 3.38 1.93 -0.7 -1.26 -1.79 -1.42 0.84 -0.88 0.13 -1.49 1.35 -0.21 -0.39 -3.3 2.57 1.55 0.19 1.67 0.65 -1.12 1.44 0.95 -0.37 0.93 0.52 0.5 1.45 -1.23 0.43 4.4 0.96 -0.7z"/>
    <path class="fil9" d="M409.33 266.55c-0.18,0.68 -0.15,1.04 -0.33,1.71 -2.95,-0.4 -5.11,-2.01 -6.95,-4.11 0.18,-0.33 0.36,-0.67 0.54,-1 2.08,2.11 3.55,3.6 6.73,3.4z"/>
    <path class="fil12" d="M409.53 266.6c-0.08,0.32 -0.12,0.58 -0.16,0.83 -0.04,0.26 -0.08,0.53 -0.17,0.88l-0.05 0.18 -0.19 -0.03c-3.01,-0.41 -5.21,-2.05 -7.08,-4.18l-0.1 -0.11 0.75 -1.39 0.2 0.2c1.03,1.04 1.91,1.94 2.91,2.53 0.99,0.59 2.11,0.9 3.66,0.8l0.29 -0.02 -0.08 0.29zm-0.58 0.77c0.03,-0.19 0.05,-0.38 0.1,-0.6 -1.49,0.05 -2.62,-0.28 -3.61,-0.88 -0.98,-0.59 -1.83,-1.42 -2.8,-2.39l-0.34 0.62c1.75,1.96 3.79,3.47 6.53,3.9 0.05,-0.24 0.08,-0.44 0.11,-0.65z"/>
   </g>
   <g>
    <polygon class="fil9" points="410.76,311.71 410.48,314.11 409.47,315.38 407.91,311.28 406.96,312.67 406.03,312.17 406.14,311.21 404.88,310.8 404.44,312.45 403.61,310.39 401.24,309.71 402.4,312.58 401.12,313.16 401.37,314.54 400.86,315.47 402.79,316.3 404.36,317.91 400.03,316.8 399.53,318.03 401.64,318.92 400.93,320.78 405.92,322.31 403.05,323.17 408.31,324.78 410.85,323.71 410.18,322.39 410.39,321.46 412.04,322.2 414.16,321.19 415.67,317.49 415.03,316.39 415.47,315.34 413.4,315.56 412.9,312.51 412.33,312.42 411.79,313.14 411.57,311.98 "/>
    <path class="fil12" d="M410.94 311.99l-0.26 2.2 -1.28 1.61 -1.55 -4.07 -0.83 1.21 -1.23 -0.66 0.11 -0.93 -0.88 -0.29 -0.54 2.06 -1.02 -2.56 -1.86 -0.53 1.08 2.66 -1.32 0.59 0.23 1.29 -0.43 0.79 1.75 0.75c0.71,0.72 1.42,1.45 2.13,2.18l-4.88 -1.25 -0.35 0.87 2.1 0.88 -0.7 1.84 5.45 1.66 -2.87 0.86 4.52 1.38 2.26 -0.95 -0.6 -1.18 0.27 -1.26 1.8 0.8 1.96 -0.93 1.43 -3.53 -0.64 -1.11 0.34 -0.82 -1.91 0.21 -0.51 -3.1 -0.29 -0.04 -0.75 1.01 -0.29 -1.52 -0.44 -0.14zm-0.67 2.03l0.31 -2.6 1.18 0.38 0.15 0.81 0.32 -0.43 0.85 0.13 0.49 3.01 2.23 -0.24 -0.54 1.29 0.64 1.1 -1.57 3.87 -2.29 1.08 -1.51 -0.67 -0.13 0.6 0.74 1.45c-0.94,0.4 -1.88,0.79 -2.82,1.19 -2,-0.62 -4,-1.23 -6.01,-1.84l2.87 -0.86 -4.54 -1.38 0.71 -1.88 -2.11 -0.89 0.65 -1.6 3.77 0.97 -1.01 -1.03 -2.1 -0.9 0.58 -1.07 -0.27 -1.47 1.25 -0.56 -1.25 -3.08 2.89 0.82 0.63 1.56 0.33 -1.25 1.64 0.53 -0.12 0.99 0.64 0.34 1.07 -1.56 1.57 4.13 0.74 -0.93z"/>
    <path class="fil9" d="M417.75 323.06c0.01,0.7 0.13,1.04 0.13,1.74 -2.95,0.39 -5.46,-0.6 -7.78,-2.13 0.09,-0.37 0.17,-0.74 0.26,-1.11 2.56,1.49 4.38,2.54 7.39,1.5z"/>
    <path class="fil12" d="M417.96 323.06c0,0.33 0.03,0.59 0.07,0.84 0.03,0.26 0.07,0.53 0.07,0.89l0 0.19 -0.19 0.02c-3.01,0.4 -5.56,-0.61 -7.93,-2.16l-0.13 -0.08 0.36 -1.54 0.25 0.14c1.27,0.74 2.35,1.36 3.48,1.68 1.11,0.31 2.28,0.31 3.74,-0.19l0.28 -0.1 0 0.29zm-0.36 0.9c-0.02,-0.19 -0.05,-0.38 -0.06,-0.61 -1.43,0.44 -2.6,0.42 -3.72,0.11 -1.1,-0.31 -2.14,-0.89 -3.33,-1.57l-0.16 0.69c2.2,1.43 4.57,2.35 7.33,2.04 -0.01,-0.25 -0.04,-0.45 -0.06,-0.66z"/>
   </g>
   <g>
    <polygon class="fil9" points="436.17,309.08 434.12,307.79 433.41,306.33 437.78,306.69 436.94,305.23 437.79,304.61 438.61,305.12 439.53,304.16 438.22,303.05 440.44,303.2 442.07,301.34 438.98,301.16 439.01,299.75 437.65,299.38 437.03,298.52 435.45,299.91 433.33,300.63 436.19,297.2 435.29,296.22 433.59,297.74 432.21,296.3 428.68,300.15 429.14,297.19 425.43,301.25 425.3,304 426.77,303.96 427.53,304.55 426.15,305.72 426.14,308.07 428.84,311.02 430.11,310.92 430.87,311.77 431.56,309.81 434.53,310.67 434.86,310.19 434.43,309.39 435.58,309.7 "/>
    <path class="fil12" d="M435.83 309.12l-1.88 -1.18 -0.9 -1.85 4.34 0.35 -0.74 -1.27 1.13 -0.83 0.79 0.5 0.64 -0.67 -1.62 -1.38 2.75 0.18 1.27 -1.45 -2.86 -0.17 0.03 -1.45 -1.26 -0.34 -0.53 -0.73 -1.43 1.26c-0.96,0.33 -1.92,0.66 -2.89,0.99l3.23 -3.87 -0.63 -0.69 -1.7 1.52 -1.36 -1.42 -3.84 4.2 0.46 -2.97 -3.19 3.48 -0.11 2.45 1.32 -0.04 1.02 0.79 -1.5 1.28 -0 2.17 2.57 2.81 1.27 -0.1 0.59 0.66 0.63 -1.81 3.02 0.87 0.16 -0.24 -0.59 -1.11 1.5 0.4 0.32 -0.34zm-1.55 -1.48l2.22 1.39 -0.85 0.9 -0.8 -0.21 0.25 0.48 -0.48 0.71 -2.93 -0.85 -0.74 2.12 -0.93 -1.04 -1.27 0.1 -2.82 -3.08 0.01 -2.53 1.25 -1.07 -0.49 -0.38 -1.63 0.04c0.05,-1.02 0.1,-2.04 0.14,-3.06 1.42,-1.54 2.83,-3.09 4.24,-4.63l-0.46 2.96 3.2 -3.5 1.39 1.45 1.71 -1.52 1.17 1.28 -2.49 2.99 1.37 -0.47 1.72 -1.51 0.72 0.98 1.44 0.39 -0.03 1.37 3.32 0.2 -1.98 2.26 -1.68 -0.11 0.99 0.84 -1.19 1.25 -0.84 -0.53 -0.58 0.43 0.95 1.64 -4.4 -0.36 0.52 1.07z"/>
    <path class="fil9" d="M422.92 310.5c-0.63,-0.3 -0.99,-0.33 -1.63,-0.63 0.92,-2.84 2.89,-4.67 5.27,-6.11 0.3,0.24 0.59,0.48 0.89,0.71 -2.44,1.68 -4.17,2.86 -4.54,6.02z"/>
    <path class="fil12" d="M422.83 310.7c-0.3,-0.14 -0.55,-0.22 -0.79,-0.3 -0.25,-0.08 -0.51,-0.17 -0.84,-0.32l-0.17 -0.08 0.06 -0.18c0.93,-2.89 2.94,-4.76 5.36,-6.23l0.13 -0.08 1.23 0.99 -0.24 0.16c-1.21,0.83 -2.24,1.54 -3.01,2.42 -0.76,0.87 -1.26,1.92 -1.44,3.46l-0.03 0.29 -0.27 -0.12zm-0.66 -0.71c0.18,0.06 0.36,0.12 0.57,0.21 0.22,-1.48 0.74,-2.53 1.5,-3.4 0.75,-0.86 1.72,-1.55 2.85,-2.33l-0.55 -0.44c-2.24,1.37 -4.09,3.11 -4.99,5.74 0.23,0.1 0.42,0.16 0.62,0.23z"/>
   </g>
   <g>
    <polygon class="fil9" points="433.01,290.65 430.97,289.37 430.26,287.91 434.63,288.26 433.78,286.81 434.64,286.18 435.46,286.7 436.37,285.73 435.07,284.63 437.29,284.77 438.91,282.92 435.82,282.73 435.85,281.32 434.5,280.95 433.87,280.1 432.3,281.48 430.17,282.21 433.03,278.78 432.14,277.8 430.43,279.32 429.05,277.88 425.53,281.73 425.99,278.76 422.27,282.82 422.14,285.58 423.62,285.54 424.37,286.12 423,287.3 422.99,289.65 425.69,292.59 426.96,292.49 427.72,293.34 428.4,291.38 431.38,292.24 431.7,291.76 431.28,290.97 432.43,291.27 "/>
    <path class="fil12" d="M432.68 290.7l-1.88 -1.18 -0.9 -1.85 4.34 0.35 -0.74 -1.27 1.13 -0.83 0.79 0.5 0.64 -0.67 -1.62 -1.38 2.75 0.18 1.27 -1.45 -2.86 -0.17 0.03 -1.45 -1.26 -0.34 -0.53 -0.73 -1.43 1.26c-0.96,0.33 -1.92,0.66 -2.89,0.99l3.23 -3.87 -0.63 -0.69 -1.7 1.52 -1.36 -1.42 -3.84 4.2 0.46 -2.97 -3.19 3.48 -0.11 2.45 1.32 -0.04 1.02 0.79 -1.5 1.28 -0 2.17 2.57 2.81 1.27 -0.1 0.59 0.66 0.63 -1.81 3.02 0.87 0.16 -0.24 -0.59 -1.11 1.5 0.4 0.32 -0.34zm-1.55 -1.48l2.22 1.39 -0.85 0.9 -0.8 -0.21 0.25 0.48 -0.48 0.71 -2.93 -0.85 -0.74 2.12 -0.93 -1.04 -1.27 0.1 -2.82 -3.08 0.01 -2.53 1.25 -1.07 -0.49 -0.38 -1.63 0.04c0.05,-1.02 0.1,-2.04 0.14,-3.06 1.42,-1.54 2.83,-3.09 4.24,-4.63l-0.46 2.96 3.2 -3.5 1.39 1.45 1.71 -1.52 1.17 1.28 -2.49 2.99 1.37 -0.47 1.72 -1.51 0.72 0.98 1.44 0.39 -0.03 1.37 3.32 0.2 -1.98 2.26 -1.68 -0.11 0.99 0.84 -1.19 1.25 -0.84 -0.53 -0.58 0.43 0.95 1.64 -4.4 -0.36 0.52 1.07z"/>
    <path class="fil9" d="M419.77 292.08c-0.63,-0.3 -0.99,-0.33 -1.63,-0.63 0.92,-2.84 2.89,-4.67 5.27,-6.11 0.3,0.24 0.59,0.48 0.89,0.71 -2.44,1.68 -4.17,2.86 -4.54,6.02z"/>
    <path class="fil12" d="M419.68 292.27c-0.3,-0.14 -0.55,-0.22 -0.79,-0.3 -0.25,-0.08 -0.51,-0.17 -0.84,-0.32l-0.17 -0.08 0.06 -0.18c0.93,-2.89 2.94,-4.76 5.36,-6.23l0.13 -0.08 1.23 0.99 -0.24 0.16c-1.21,0.83 -2.24,1.54 -3.01,2.42 -0.76,0.87 -1.26,1.92 -1.44,3.46l-0.03 0.29 -0.27 -0.12zm-0.66 -0.71c0.18,0.06 0.36,0.12 0.57,0.21 0.22,-1.48 0.74,-2.53 1.5,-3.4 0.75,-0.86 1.72,-1.55 2.85,-2.33l-0.55 -0.44c-2.24,1.37 -4.09,3.11 -4.99,5.74 0.23,0.1 0.42,0.16 0.62,0.23z"/>
   </g>
   <g>
    <polygon class="fil9" points="433.19,354.95 431.4,353.32 430.96,351.76 435.2,352.88 434.63,351.3 435.58,350.84 436.3,351.49 437.37,350.7 436.28,349.38 438.44,349.92 440.37,348.38 437.36,347.65 437.64,346.27 436.37,345.67 435.91,344.71 434.11,345.8 431.89,346.14 435.31,343.27 434.6,342.14 432.66,343.34 431.55,341.67 427.41,344.84 428.38,342 424.01,345.34 423.39,348.03 424.85,348.25 425.49,348.96 423.92,349.87 423.5,352.18 425.63,355.56 426.9,355.69 427.5,356.66 428.52,354.85 431.3,356.22 431.7,355.81 431.42,354.95 432.5,355.46 "/>
    <path class="fil12" d="M432.85 354.93l-1.64 -1.49 -0.56 -1.98 4.21 1.11 -0.5 -1.38 1.26 -0.61 0.69 0.63 0.75 -0.55 -1.35 -1.64 2.68 0.66 1.51 -1.2 -2.79 -0.68 0.29 -1.42 -1.18 -0.56 -0.4 -0.81 -1.63 0.98c-1,0.16 -2.01,0.31 -3.02,0.46l3.86 -3.24 -0.5 -0.79 -1.94 1.19 -1.09 -1.64 -4.53 3.45 0.98 -2.84 -3.76 2.86 -0.55 2.39 1.31 0.2 0.86 0.96 -1.71 1 -0.39 2.13 2.03 3.22 1.27 0.13 0.46 0.75 0.94 -1.67 2.82 1.39 0.21 -0.21 -0.39 -1.2 1.4 0.66 0.38 -0.28zm-1.26 -1.73l1.93 1.77 -1 0.73 -0.75 -0.35 0.17 0.51 -0.6 0.62 -2.73 -1.35 -1.1 1.95 -0.73 -1.19 -1.27 -0.13 -2.23 -3.54 0.45 -2.49 1.42 -0.83 -0.41 -0.46 -1.61 -0.25c0.23,-1 0.46,-1.99 0.68,-2.99 1.67,-1.26 3.33,-2.54 5,-3.81l-0.98 2.83 3.77 -2.88 1.12 1.68 1.95 -1.2 0.92 1.46 -2.98 2.5 1.43 -0.22 1.96 -1.18 0.53 1.09 1.35 0.64 -0.27 1.34 3.23 0.79 -2.35 1.87 -1.63 -0.4 0.82 1 -1.39 1.02 -0.74 -0.67 -0.65 0.32 0.65 1.78 -4.27 -1.13 0.32 1.14z"/>
    <path class="fil9" d="M419.9 354.01c-0.57,-0.4 -0.92,-0.5 -1.49,-0.91 1.4,-2.63 3.67,-4.08 6.27,-5.08 0.25,0.29 0.5,0.57 0.75,0.86 -2.7,1.22 -4.61,2.07 -5.53,5.13z"/>
    <path class="fil12" d="M419.78 354.18c-0.27,-0.19 -0.5,-0.32 -0.72,-0.44 -0.23,-0.13 -0.47,-0.26 -0.77,-0.47l-0.15 -0.11 0.09 -0.17c1.43,-2.68 3.74,-4.17 6.38,-5.18l0.14 -0.05 1.04 1.19 -0.26 0.12c-1.34,0.6 -2.48,1.12 -3.39,1.85 -0.9,0.72 -1.58,1.67 -2.03,3.15l-0.09 0.28 -0.24 -0.17zm-0.52 -0.81c0.17,0.09 0.33,0.18 0.53,0.31 0.47,-1.42 1.18,-2.35 2.08,-3.08 0.89,-0.72 1.97,-1.22 3.22,-1.79l-0.46 -0.53c-2.45,0.96 -4.57,2.34 -5.93,4.76 0.21,0.14 0.39,0.23 0.57,0.33z"/>
   </g>
   <g>
    <polygon class="fil9" points="424.16,378.89 422.8,376.89 422.74,375.27 426.6,377.36 426.41,375.69 427.45,375.46 427.99,376.26 429.21,375.74 428.46,374.21 430.44,375.23 432.67,374.19 429.92,372.77 430.51,371.49 429.42,370.61 429.2,369.58 427.2,370.21 424.96,370.02 428.96,368.03 428.53,366.77 426.36,367.48 425.67,365.61 420.9,367.71 422.51,365.18 417.48,367.4 416.25,369.87 417.62,370.43 418.07,371.27 416.34,371.79 415.39,373.94 416.67,377.72 417.87,378.14 418.23,379.23 419.65,377.7 422.02,379.69 422.51,379.38 422.44,378.48 423.37,379.23 "/>
    <path class="fil12" d="M423.84 378.8l-1.24 -1.84 -0.08 -2.05 3.83 2.07 -0.16 -1.46 1.36 -0.3 0.52 0.78 0.86 -0.36 -0.93 -1.91 2.45 1.27 1.75 -0.81 -2.55 -1.31 0.61 -1.31 -1.02 -0.82 -0.2 -0.88 -1.82 0.58c-1.01,-0.08 -2.03,-0.17 -3.04,-0.26l4.51 -2.24 -0.3 -0.89 -2.17 0.71 -0.68 -1.85 -5.21 2.3 1.61 -2.53 -4.32 1.9 -1.09 2.2 1.22 0.5 0.62 1.13 -1.89 0.57 -0.88 1.98 1.22 3.61 1.21 0.42 0.27 0.84 1.31 -1.4 2.41 2.02 0.25 -0.16 -0.1 -1.26 1.21 0.97 0.43 -0.18zm-0.82 -1.98l1.47 2.17 -1.14 0.48 -0.65 -0.52 0.04 0.54 -0.73 0.46 -2.34 -1.96 -1.53 1.64 -0.43 -1.33 -1.2 -0.42 -1.34 -3.96 1.02 -2.31 1.58 -0.48 -0.29 -0.54 -1.51 -0.62c0.45,-0.91 0.91,-1.83 1.36,-2.74 1.92,-0.84 3.83,-1.69 5.75,-2.53l-1.61 2.53 4.34 -1.92 0.69 1.89 2.18 -0.71 0.55 1.64 -3.49 1.73 1.44 0.12 2.18 -0.69 0.26 1.19 1.16 0.94 -0.58 1.24 2.96 1.52 -2.73 1.27 -1.49 -0.78 0.57 1.16 -1.59 0.67 -0.56 -0.83 -0.71 0.16 0.21 1.88 -3.89 -2.1 0.05 1.18z"/>
    <path class="fil9" d="M411.46 374.87c-0.46,-0.53 -0.78,-0.7 -1.24,-1.23 1.98,-2.23 4.52,-3.11 7.29,-3.47 0.18,0.34 0.35,0.68 0.53,1.01 -2.91,0.55 -4.97,0.94 -6.58,3.69z"/>
    <path class="fil12" d="M411.3 375.01c-0.22,-0.25 -0.41,-0.42 -0.6,-0.6 -0.2,-0.18 -0.4,-0.36 -0.63,-0.63l-0.12 -0.14 0.12 -0.14c2.02,-2.27 4.61,-3.18 7.42,-3.54l0.15 -0.02 0.73 1.4 -0.28 0.05c-1.44,0.27 -2.67,0.5 -3.73,1 -1.04,0.49 -1.93,1.25 -2.71,2.58l-0.15 0.25 -0.19 -0.22zm-0.32 -0.91c0.14,0.13 0.28,0.26 0.44,0.42 0.79,-1.27 1.69,-2.01 2.74,-2.51 1.03,-0.49 2.2,-0.73 3.55,-0.98l-0.33 -0.63c-2.6,0.36 -5,1.2 -6.88,3.24 0.17,0.18 0.32,0.32 0.47,0.46z"/>
   </g>
   <g>
    <polygon class="fil9" points="393.9,407.81 393.86,405.39 394.7,404 396.78,407.86 397.54,406.36 398.53,406.74 398.54,407.71 399.85,407.95 400.07,406.26 401.15,408.2 403.6,408.56 402.07,405.86 403.27,405.12 402.85,403.79 403.23,402.8 401.21,402.23 399.44,400.83 403.88,401.37 404.21,400.09 402.01,399.48 402.47,397.54 397.33,396.68 400.06,395.45 394.64,394.53 392.26,395.92 393.09,397.14 393.01,398.09 391.27,397.57 389.3,398.84 388.29,402.71 389.06,403.72 388.76,404.82 390.78,404.33 391.67,407.29 392.25,407.31 392.69,406.52 393.06,407.65 "/>
    <path class="fil12" d="M393.68 407.55l-0.03 -2.22 1.06 -1.76 2.06 3.83 0.66 -1.31 1.31 0.5 0.01 0.94 0.91 0.17 0.27 -2.11 1.35 2.41 1.91 0.28 -1.41 -2.5 1.23 -0.76 -0.4 -1.25 0.32 -0.84 -1.83 -0.52c-0.8,-0.63 -1.6,-1.26 -2.4,-1.89l5 0.61 0.24 -0.9 -2.2 -0.6 0.45 -1.92 -5.61 -0.94 2.74 -1.23 -4.66 -0.79 -2.12 1.23 0.75 1.09 -0.11 1.29 -1.89 -0.56 -1.82 1.17 -0.96 3.68 0.78 1.01 -0.23 0.85 1.87 -0.45 0.91 3.01 0.29 0.01 0.61 -1.1 0.48 1.47 0.46 0.09zm0.4 -2.1l0.03 2.62 -1.22 -0.23 -0.26 -0.79 -0.26 0.47 -0.86 -0.02 -0.88 -2.92 -2.18 0.53 0.37 -1.35 -0.77 -1.01 1.06 -4.04 2.13 -1.37 1.58 0.47 0.05 -0.61 -0.92 -1.34c0.88,-0.51 1.77,-1.03 2.65,-1.54 2.06,0.36 4.13,0.7 6.19,1.05l-2.74 1.22 4.68 0.79 -0.46 1.96 2.21 0.61 -0.44 1.67 -3.86 -0.47 1.14 0.89 2.2 0.62 -0.43 1.14 0.45 1.42 -1.17 0.72 1.63 2.9 -2.97 -0.44 -0.82 -1.47 -0.17 1.28 -1.7 -0.32 -0.01 -1 -0.68 -0.26 -0.86 1.69 -2.09 -3.89 -0.61 1.01z"/>
    <path class="fil9" d="M385.5 397.46c-0.1,-0.69 -0.26,-1.01 -0.36,-1.71 2.88,-0.77 5.49,-0.11 7.99,1.11 -0.04,0.38 -0.08,0.76 -0.12,1.14 -2.73,-1.14 -4.67,-1.95 -7.52,-0.54z"/>
    <path class="fil12" d="M385.29 397.49c-0.04,-0.33 -0.11,-0.58 -0.17,-0.83 -0.07,-0.26 -0.13,-0.52 -0.18,-0.88l-0.03 -0.19 0.18 -0.05c2.94,-0.79 5.6,-0.12 8.14,1.12l0.13 0.07 -0.16 1.57 -0.26 -0.11c-1.35,-0.57 -2.51,-1.05 -3.66,-1.21 -1.14,-0.16 -2.3,-0.01 -3.68,0.67l-0.26 0.13 -0.04 -0.29zm0.24 -0.93c0.05,0.18 0.09,0.37 0.14,0.59 1.36,-0.62 2.52,-0.75 3.67,-0.59 1.13,0.16 2.24,0.6 3.5,1.13l0.07 -0.7c-2.37,-1.13 -4.83,-1.74 -7.53,-1.08 0.04,0.24 0.09,0.44 0.15,0.64z"/>
   </g>
   <g>
    <polygon class="fil9" points="406.63,366.16 405.47,368.28 404.06,369.08 404.15,364.7 402.75,365.63 402.07,364.81 402.53,363.96 401.52,363.11 400.49,364.48 400.5,362.25 398.55,360.74 398.55,363.84 397.14,363.89 396.86,365.27 396.04,365.94 397.52,367.43 398.37,369.51 394.78,366.86 393.85,367.82 395.47,369.43 394.12,370.89 398.18,374.17 395.19,373.89 399.46,377.36 402.22,377.32 402.09,375.85 402.63,375.06 403.89,376.37 406.23,376.23 409.01,373.36 408.83,372.1 409.64,371.29 407.64,370.72 408.31,367.7 407.82,367.41 407.05,367.88 407.29,366.71 "/>
    <path class="fil12" d="M406.69 366.49l-1.06 1.95 -1.79 1.01 0.09 -4.35 -1.22 0.81 -0.89 -1.08 0.45 -0.82 -0.71 -0.6 -1.28 1.7 0.01 -2.76 -1.52 -1.18 0 2.87 -1.45 0.06 -0.27 1.28 -0.7 0.58 1.34 1.35c0.39,0.94 0.77,1.88 1.16,2.82l-4.06 -2.99 -0.65 0.67 1.62 1.61 -1.34 1.45 4.43 3.58 -2.99 -0.28 3.67 2.97 2.45 -0.03 -0.12 -1.32 0.73 -1.07 1.37 1.42 2.16 -0.13 2.65 -2.73 -0.18 -1.27 0.62 -0.63 -1.85 -0.52 0.69 -3.07 -0.25 -0.15 -1.07 0.66 0.31 -1.52 -0.36 -0.3zm-1.38 1.64l1.26 -2.3 0.95 0.8 -0.16 0.81 0.46 -0.28 0.74 0.44 -0.67 2.98 2.16 0.61 -0.99 0.99 0.18 1.26 -2.91 3 -2.53 0.15 -1.15 -1.19 -0.35 0.51 0.14 1.62c-1.02,0.01 -2.04,0.03 -3.06,0.04 -1.62,-1.32 -3.25,-2.64 -4.88,-3.95l2.99 0.28 -3.69 -2.98 1.37 -1.48 -1.63 -1.61 1.2 -1.24 3.14 2.31 -0.55 -1.34 -1.61 -1.62 0.94 -0.78 0.3 -1.46 1.37 -0.05 -0 -3.33 2.38 1.84 -0.01 1.68 0.77 -1.03 1.32 1.11 -0.48 0.88 0.46 0.56 1.58 -1.05 -0.09 4.42 1.03 -0.58z"/>
    <path class="fil9" d="M408.86 379.3c-0.26,0.65 -0.27,1.01 -0.53,1.66 -2.89,-0.74 -4.84,-2.6 -6.42,-4.89 0.22,-0.31 0.44,-0.62 0.66,-0.93 1.82,2.34 3.11,3.99 6.29,4.16z"/>
    <path class="fil12" d="M409.05 379.38c-0.12,0.31 -0.19,0.56 -0.26,0.81 -0.07,0.26 -0.14,0.52 -0.27,0.85l-0.07 0.17 -0.18 -0.05c-2.95,-0.76 -4.93,-2.65 -6.54,-4.98l-0.09 -0.12 0.91 -1.29 0.18 0.23c0.9,1.16 1.67,2.15 2.6,2.86 0.91,0.7 1.99,1.14 3.54,1.23l0.29 0.02 -0.11 0.27zm-0.67 0.7c0.05,-0.18 0.1,-0.37 0.17,-0.58 -1.49,-0.13 -2.57,-0.59 -3.49,-1.29 -0.91,-0.7 -1.65,-1.62 -2.5,-2.71l-0.41 0.58c1.51,2.15 3.35,3.89 6.03,4.64 0.08,-0.23 0.14,-0.43 0.19,-0.63z"/>
   </g>
   <g>
    <path class="fil9" d="M424.39 250.66c-0.31,0.35 -0.61,0.7 -0.92,1.05 -6.99,-0.21 -10.72,6.03 -7.09,11.15 3.8,3.2 11.51,0.97 10.76,-6.3 0.61,-0.17 1.22,-0.35 1.84,-0.52 0.63,7.8 -6.47,12.12 -13.02,8.83 -0.13,0.87 0.03,1.97 -0.1,2.85 -0.57,0.74 -1.14,1.49 -1.71,2.23 -0.57,-0.17 -1.14,-0.35 -1.71,-0.52 0.74,-1.49 1.49,-2.97 2.23,-4.46 -0.09,-0.52 0.09,-1.05 0,-1.57 -4.84,-9.71 4.23,-14.92 9.71,-12.73z"/>
    <path class="fil12" d="M424.53 250.78l-0.98 1.11 -0.09 -0c-2.21,-0.07 -4.09,0.52 -5.5,1.52 -0.87,0.61 -1.55,1.38 -2.03,2.25 -0.48,0.86 -0.75,1.82 -0.78,2.82 -0.04,1.4 0.39,2.87 1.37,4.26 1.28,1.07 3.01,1.5 4.7,1.33 0.82,-0.08 1.63,-0.31 2.37,-0.68 0.74,-0.37 1.41,-0.88 1.96,-1.54 1.05,-1.24 1.65,-3 1.42,-5.27l-0.02 -0.15 2.2 -0.63 0.02 0.22c0.17,2.08 -0.21,3.91 -0.97,5.43 -0.68,1.37 -1.68,2.47 -2.88,3.27 -1.2,0.8 -2.61,1.28 -4.1,1.41 -1.63,0.13 -3.38,-0.17 -5.1,-0.99 -0.03,0.36 -0.03,0.75 -0.02,1.14 0.01,0.5 0.02,1 -0.05,1.45l-0.01 0.05c-0.61,0.79 -1.21,1.58 -1.81,2.37l-2.03 -0.63 2.3 -4.6c-0.04,-0.26 -0.01,-0.52 0.01,-0.77 0.02,-0.24 0.04,-0.49 0.01,-0.72 -1.18,-2.38 -1.54,-4.49 -1.32,-6.3 0.22,-1.86 1.04,-3.39 2.19,-4.56 1.15,-1.16 2.63,-1.96 4.18,-2.34 1.67,-0.41 3.41,-0.35 4.9,0.24l0.24 0.1 -0.17 0.19zm-1.14 0.75l0.69 -0.79c-1.36,-0.48 -2.93,-0.51 -4.44,-0.14 -1.48,0.37 -2.91,1.13 -4.01,2.25 -1.1,1.11 -1.88,2.57 -2.09,4.34 -0.21,1.75 0.15,3.8 1.3,6.12l0.01 0.02 0 0.03c0.05,0.29 0.02,0.56 0,0.83 -0.02,0.25 -0.04,0.5 -0,0.74l0.01 0.06 -2.16 4.32 1.38 0.42 1.6 -2.09c0.06,-0.41 0.05,-0.88 0.04,-1.35 -0.01,-0.5 -0.02,-1 0.05,-1.45l0.04 -0.25 0.23 0.11c1.73,0.87 3.49,1.19 5.14,1.06 1.44,-0.12 2.78,-0.58 3.93,-1.34 1.15,-0.76 2.1,-1.83 2.76,-3.13 0.71,-1.41 1.06,-3.1 0.95,-5.02l-1.47 0.42c0.2,2.3 -0.43,4.1 -1.52,5.38 -0.58,0.69 -1.3,1.24 -2.08,1.63 -0.78,0.39 -1.63,0.63 -2.49,0.72 -1.79,0.18 -3.63,-0.29 -4.99,-1.43l-0.03 -0.03c-1.04,-1.46 -1.49,-3.02 -1.45,-4.5 0.03,-1.06 0.32,-2.07 0.82,-2.99 0.5,-0.91 1.23,-1.72 2.14,-2.37 1.45,-1.03 3.38,-1.64 5.64,-1.59z"/>
    <path class="fil9 str1" d="M425.18 254.47l0.13 5.38 1.84 -3.02c0.22,-2.93 -1.66,-4.02 -3.67,-5.12l-0.21 1.2 -1.37 0.8 -1.57 1.15 0.79 0.92 1.71 0.26 0.26 -1.18 1.05 -0.13 1.05 -0.26z"/>
    <path class="fil9 str1" d="M426.72 252.07c1.1,0.84 1.68,2.42 2.4,3.71l2.45 -0.05 -0.17 -0.67 -3.2 -2.95 -1.48 -0.03z"/>
    <path class="fil9 str1" d="M426.58 252.15c-0.76,-0.42 -1.38,-1.28 -2.29,-1.25l-1.48 -1.48 1.55 -0.07 0.07 -0.89 1.84 1.4 0.29 2.29z"/>
    <ellipse class="fil13 str1" cx="416.37" cy="263.73" rx="0.55" ry="0.89"/>
   </g>
   <g>
    <path class="fil9" d="M438.86 317.82c-0.42,0.2 -0.84,0.39 -1.26,0.59 -6.31,-3.02 -12.24,1.18 -10.99,7.34 2.18,4.46 10.14,5.54 12.39,-1.41 0.63,0.09 1.26,0.17 1.89,0.26 -2.58,7.38 -10.82,8.47 -15.48,2.82 -0.47,0.75 -0.77,1.82 -1.24,2.56 -0.82,0.45 -1.64,0.9 -2.46,1.35 -0.45,-0.39 -0.9,-0.78 -1.35,-1.17 1.28,-1.06 2.56,-2.12 3.84,-3.18 0.13,-0.52 0.5,-0.93 0.64,-1.44 -0.5,-10.84 9.89,-11.94 14.03,-7.72z"/>
    <path class="fil12" d="M438.94 317.98l-1.34 0.63 -0.08 -0.04c-2,-0.96 -3.96,-1.18 -5.65,-0.83 -1.04,0.21 -1.98,0.64 -2.77,1.23 -0.79,0.6 -1.42,1.36 -1.85,2.26 -0.6,1.26 -0.81,2.78 -0.47,4.45 0.74,1.49 2.14,2.59 3.76,3.11 0.78,0.25 1.62,0.37 2.44,0.33 0.83,-0.04 1.65,-0.24 2.42,-0.61 1.46,-0.71 2.72,-2.08 3.42,-4.24l0.05 -0.15 2.27 0.31 -0.07 0.21c-0.69,1.97 -1.77,3.5 -3.08,4.58 -1.18,0.97 -2.54,1.58 -3.96,1.83 -1.42,0.24 -2.9,0.12 -4.32,-0.37 -1.55,-0.54 -3.02,-1.53 -4.27,-2.96 -0.17,0.32 -0.33,0.68 -0.48,1.04 -0.2,0.46 -0.39,0.92 -0.63,1.31l-0.03 0.04c-0.87,0.48 -1.74,0.96 -2.62,1.44l-1.61 -1.39 3.96 -3.28c0.07,-0.26 0.2,-0.48 0.32,-0.7 0.12,-0.21 0.23,-0.43 0.29,-0.65 -0.12,-2.65 0.41,-4.73 1.34,-6.3 0.95,-1.61 2.32,-2.68 3.85,-3.28 1.52,-0.6 3.2,-0.73 4.77,-0.45 1.69,0.29 3.26,1.06 4.39,2.2l0.18 0.18 -0.23 0.11zm-1.34 0.22l0.95 -0.44c-1.05,-0.99 -2.48,-1.65 -4,-1.92 -1.51,-0.26 -3.12,-0.14 -4.57,0.43 -1.45,0.57 -2.76,1.59 -3.67,3.13 -0.9,1.52 -1.4,3.54 -1.28,6.12l0 0.03 -0.01 0.03c-0.07,0.28 -0.2,0.52 -0.33,0.76 -0.12,0.22 -0.24,0.44 -0.3,0.68l-0.01 0.06 -3.72 3.08 1.09 0.95 2.31 -1.27c0.22,-0.36 0.4,-0.79 0.58,-1.22 0.2,-0.46 0.39,-0.93 0.63,-1.31l0.13 -0.21 0.16 0.19c1.23,1.49 2.71,2.5 4.27,3.05 1.36,0.47 2.78,0.59 4.14,0.36 1.36,-0.23 2.66,-0.82 3.79,-1.75 1.21,-1 2.23,-2.41 2.89,-4.21l-1.52 -0.21c-0.74,2.18 -2.05,3.57 -3.56,4.31 -0.81,0.4 -1.68,0.61 -2.56,0.65 -0.87,0.04 -1.75,-0.08 -2.57,-0.35 -1.71,-0.55 -3.2,-1.73 -3.98,-3.32l-0.02 -0.04c-0.36,-1.76 -0.14,-3.37 0.49,-4.7 0.46,-0.95 1.13,-1.77 1.96,-2.4 0.83,-0.63 1.82,-1.08 2.91,-1.3 1.74,-0.36 3.75,-0.14 5.8,0.82z"/>
    <path class="fil9 str1" d="M438.05 321.61l-2.05 4.97 2.9 -2.02c1.38,-2.59 0.11,-4.35 -1.29,-6.17l-0.67 1.01 -1.58 0.18 -1.9 0.41 0.35 1.16 1.45 0.93 0.72 -0.97 1.01 0.3 1.07 0.18z"/>
    <path class="fil14 str1" d="M440.42 320.04c0.66,1.21 0.55,2.89 0.7,4.36l2.26 0.95 0.12 -0.68 -1.73 -3.99 -1.35 -0.63z"/>
    <path class="fil14 str1" d="M440.27 320.06c-0.53,-0.69 -0.74,-1.73 -1.59,-2.07l-0.75 -1.95 1.45 0.56 0.43 -0.78 1.12 2.03 -0.65 2.21z"/>
    <ellipse class="fil13 str1" transform="matrix(0.914711 0.404106 -0.404106 0.914711 426.238 326.524)" rx="0.55" ry="0.89"/>
   </g>
   <g>
    <path class="fil9" d="M397.68 296.02c0.38,0.27 0.76,0.53 1.14,0.8 0.54,6.98 7.15,10.01 11.85,5.85 2.77,-4.12 -0.27,-11.55 -7.42,-10.02 -0.24,-0.59 -0.48,-1.18 -0.72,-1.77 7.68,-1.46 12.74,5.13 10.18,12 0.88,0.04 1.96,-0.24 2.84,-0.21 0.8,0.49 1.6,0.97 2.4,1.46 -0.11,0.58 -0.23,1.17 -0.34,1.75 -1.56,-0.58 -3.12,-1.16 -4.68,-1.74 -0.51,0.14 -1.05,0.03 -1.57,0.17 -9.13,5.85 -15.29,-2.6 -13.7,-8.29z"/>
    <path class="fil12" d="M397.78 295.87l1.21 0.85 0.01 0.09c0.17,2.21 0.96,4.01 2.11,5.31 0.7,0.79 1.54,1.4 2.45,1.78 0.91,0.38 1.89,0.55 2.89,0.47 1.39,-0.11 2.81,-0.69 4.09,-1.82 0.92,-1.38 1.17,-3.15 0.82,-4.81 -0.17,-0.81 -0.49,-1.58 -0.94,-2.28 -0.45,-0.7 -1.03,-1.31 -1.74,-1.79 -1.35,-0.91 -3.16,-1.32 -5.39,-0.84l-0.15 0.03 -0.86 -2.12 0.22 -0.04c2.05,-0.39 3.91,-0.22 5.5,0.38 1.43,0.53 2.64,1.41 3.56,2.52 0.92,1.11 1.56,2.45 1.84,3.93 0.31,1.61 0.19,3.38 -0.43,5.18 0.36,-0.01 0.75,-0.06 1.14,-0.1 0.5,-0.06 1,-0.12 1.45,-0.11l0.05 0c0.85,0.52 1.7,1.03 2.55,1.55l-0.4 2.09 -4.82 -1.79c-0.26,0.06 -0.51,0.07 -0.77,0.08 -0.24,0.01 -0.49,0.01 -0.71,0.07 -2.24,1.43 -4.3,2.01 -6.12,1.99 -1.87,-0.02 -3.48,-0.67 -4.77,-1.69 -1.28,-1.02 -2.23,-2.41 -2.78,-3.9 -0.59,-1.61 -0.72,-3.35 -0.29,-4.9l0.07 -0.25 0.21 0.15zm0.86 1.05l-0.86 -0.6c-0.33,1.41 -0.19,2.97 0.34,4.43 0.53,1.44 1.44,2.77 2.66,3.74 1.22,0.97 2.76,1.59 4.54,1.61 1.76,0.02 3.76,-0.55 5.94,-1.95l0.02 -0.01 0.03 -0.01c0.28,-0.08 0.55,-0.08 0.83,-0.09 0.25,-0.01 0.51,-0.01 0.74,-0.08l0.06 -0.02 4.53 1.68 0.27 -1.42 -2.25 -1.37c-0.42,-0.01 -0.88,0.05 -1.34,0.1 -0.5,0.06 -1,0.12 -1.45,0.11l-0.25 -0.01 0.09 -0.24c0.68,-1.81 0.81,-3.6 0.5,-5.23 -0.27,-1.41 -0.88,-2.7 -1.76,-3.76 -0.88,-1.06 -2.04,-1.9 -3.41,-2.41 -1.47,-0.55 -3.2,-0.72 -5.09,-0.4l0.58 1.42c2.26,-0.45 4.12,-0.01 5.52,0.93 0.75,0.5 1.37,1.16 1.84,1.89 0.47,0.73 0.81,1.56 0.99,2.4 0.38,1.76 0.11,3.64 -0.88,5.11l-0.03 0.03c-1.34,1.19 -2.84,1.81 -4.32,1.92 -1.05,0.08 -2.09,-0.09 -3.06,-0.5 -0.96,-0.4 -1.84,-1.04 -2.58,-1.87 -1.18,-1.33 -2,-3.18 -2.19,-5.43z"/>
    <path class="fil9 str1" d="M401.38 294.83l5.33 -0.71 -3.2 -1.5c-2.94,0.1 -3.82,2.09 -4.69,4.2l1.21 0.08 0.95 1.28 1.31 1.44 0.83 -0.88 0.08 -1.72 -1.2 -0.13 -0.24 -1.03 -0.37 -1.02z"/>
    <path class="fil9 str1" d="M398.83 293.56c0.72,-1.18 2.23,-1.93 3.43,-2.79l-0.31 -2.43 -0.65 0.24 -2.59 3.5 0.13 1.48z"/>
    <path class="fil14 str2" d="M398.92 293.68c-0.33,0.8 -1.12,1.51 -1,2.41l-1.31 1.63 -0.24 -1.53 -0.89 0.02 1.2 -1.98 2.24 -0.54z"/>
    <ellipse class="fil13 str1" transform="matrix(-0.107538 -0.9942 0.9942 -0.107538 411.534 302.598)" rx="0.55" ry="0.89"/>
   </g>
   <g>
    <path class="fil9" d="M400.64 341.37c0.24,0.4 0.47,0.8 0.71,1.2 -2.38,6.58 2.39,12.07 8.39,10.21 4.22,-2.61 4.51,-10.64 -2.64,-12.19 0.02,-0.64 0.05,-1.27 0.07,-1.91 7.6,1.83 9.5,9.92 4.34,15.13 0.79,0.4 1.88,0.58 2.67,0.98 0.53,0.77 1.06,1.54 1.59,2.32 -0.34,0.49 -0.69,0.97 -1.03,1.46 -1.18,-1.17 -2.36,-2.34 -3.55,-3.51 -0.53,-0.08 -0.97,-0.41 -1.5,-0.49 -10.73,1.57 -12.86,-8.66 -9.07,-13.19z"/>
    <path class="fil12" d="M400.8 341.28l0.76 1.27 -0.03 0.08c-0.75,2.08 -0.78,4.05 -0.27,5.7 0.31,1.01 0.83,1.91 1.5,2.63 0.67,0.72 1.5,1.28 2.44,1.62 1.31,0.47 2.85,0.53 4.47,0.03 1.41,-0.88 2.36,-2.39 2.72,-4.05 0.17,-0.81 0.21,-1.65 0.09,-2.46 -0.12,-0.82 -0.4,-1.62 -0.85,-2.34 -0.86,-1.38 -2.34,-2.5 -4.56,-2.99l-0.15 -0.03 0.09 -2.29 0.22 0.05c2.02,0.49 3.65,1.41 4.86,2.61 1.08,1.08 1.83,2.37 2.21,3.76 0.38,1.39 0.41,2.88 0.06,4.34 -0.38,1.59 -1.22,3.16 -2.52,4.54 0.33,0.14 0.71,0.26 1.08,0.37 0.48,0.15 0.96,0.3 1.36,0.5l0.04 0.02c0.56,0.82 1.12,1.64 1.69,2.46l-1.23 1.74 -3.66 -3.62c-0.26,-0.05 -0.5,-0.15 -0.73,-0.25 -0.22,-0.09 -0.45,-0.19 -0.68,-0.23 -2.63,0.38 -4.75,0.06 -6.4,-0.7 -1.7,-0.79 -2.9,-2.04 -3.65,-3.5 -0.75,-1.46 -1.04,-3.11 -0.92,-4.7 0.13,-1.71 0.73,-3.35 1.76,-4.58l0.17 -0.2 0.13 0.22zm0.35 1.31l-0.53 -0.9c-0.88,1.15 -1.4,2.63 -1.51,4.17 -0.11,1.53 0.17,3.12 0.89,4.51 0.71,1.39 1.86,2.59 3.48,3.34 1.6,0.74 3.66,1.05 6.22,0.67l0.03 -0 0.03 0c0.29,0.04 0.54,0.15 0.79,0.26 0.23,0.1 0.47,0.2 0.71,0.23l0.06 0.01 3.44 3.4 0.83 -1.18 -1.49 -2.17c-0.38,-0.18 -0.82,-0.32 -1.27,-0.46 -0.48,-0.15 -0.96,-0.3 -1.36,-0.5l-0.22 -0.11 0.18 -0.18c1.36,-1.37 2.22,-2.95 2.61,-4.56 0.34,-1.4 0.31,-2.82 -0.05,-4.15 -0.37,-1.33 -1.08,-2.57 -2.12,-3.6 -1.12,-1.11 -2.62,-1.98 -4.47,-2.46l-0.06 1.53c2.25,0.52 3.76,1.69 4.64,3.12 0.48,0.77 0.77,1.62 0.9,2.48 0.13,0.86 0.09,1.75 -0.09,2.6 -0.38,1.76 -1.4,3.36 -2.91,4.29l-0.04 0.02c-1.72,0.53 -3.33,0.48 -4.73,-0.03 -0.99,-0.36 -1.87,-0.95 -2.58,-1.71 -0.71,-0.76 -1.25,-1.71 -1.58,-2.77 -0.53,-1.7 -0.51,-3.72 0.24,-5.85z"/>
    <path class="fil9 str1" d="M404.51 341.81l5.15 1.55 -2.3 -2.69c-2.72,-1.12 -4.34,0.33 -6.01,1.9l1.07 0.57 0.34 1.55 0.6 1.85 1.12 -0.46 0.78 -1.54 -1.04 -0.62 0.2 -1.04 0.08 -1.08z"/>
    <path class="fil9 str1" d="M402.71 339.61c1.14,-0.78 2.82,-0.84 4.27,-1.13l0.72 -2.34 -0.69 -0.05 -3.8 2.12 -0.49 1.4z"/>
    <path class="fil9 str1" d="M402.74 339.75c-0.63,0.59 -1.64,0.91 -1.9,1.78l-1.86 0.94 0.41 -1.5 -0.82 -0.35 1.91 -1.32 2.27 0.43z"/>
    <ellipse class="fil13 str1" transform="matrix(0.311361 -0.950291 0.950291 0.311361 410.562 353.072)" rx="0.55" ry="0.89"/>
   </g>
   <g>
    <path class="fil9" d="M420.47 390.88c-0.43,-0.19 -0.85,-0.38 -1.28,-0.56 -1.89,-6.74 -8.96,-8.43 -12.76,-3.43 -1.92,4.58 2.51,11.28 9.23,8.39 0.35,0.53 0.7,1.06 1.05,1.6 -7.25,2.93 -13.5,-2.56 -12.32,-9.79 -0.87,0.14 -1.87,0.62 -2.75,0.76 -0.88,-0.32 -1.76,-0.64 -2.64,-0.96 -0,-0.59 -0.01,-1.19 -0.01,-1.78 1.64,0.27 3.28,0.53 4.92,0.8 0.47,-0.24 1.03,-0.23 1.5,-0.47 7.82,-7.52 15.5,-0.42 15.05,5.47z"/>
    <path class="fil12" d="M420.4 391.05l-1.36 -0.6 -0.02 -0.08c-0.6,-2.13 -1.72,-3.75 -3.1,-4.8 -0.84,-0.64 -1.78,-1.07 -2.75,-1.27 -0.97,-0.2 -1.96,-0.17 -2.92,0.1 -1.34,0.38 -2.62,1.22 -3.66,2.58 -0.64,1.54 -0.54,3.32 0.13,4.88 0.33,0.76 0.79,1.46 1.36,2.06 0.57,0.6 1.27,1.08 2.05,1.41 1.5,0.63 3.36,0.68 5.45,-0.22l0.14 -0.06 1.26 1.91 -0.21 0.08c-1.93,0.78 -3.79,0.97 -5.47,0.7 -1.51,-0.25 -2.86,-0.87 -3.98,-1.77 -1.12,-0.91 -2,-2.1 -2.57,-3.5 -0.61,-1.52 -0.85,-3.28 -0.58,-5.16 -0.35,0.08 -0.73,0.2 -1.1,0.32 -0.48,0.16 -0.95,0.32 -1.4,0.39l-0.05 0.01c-0.93,-0.34 -1.87,-0.68 -2.8,-1.02l-0.01 -2.13 5.08 0.82c0.24,-0.11 0.49,-0.17 0.74,-0.22 0.24,-0.05 0.48,-0.11 0.69,-0.21 1.92,-1.83 3.83,-2.81 5.62,-3.14 1.84,-0.35 3.55,-0.02 5,0.73 1.45,0.75 2.66,1.93 3.48,3.29 0.89,1.47 1.35,3.15 1.23,4.75l-0.02 0.26 -0.24 -0.1zm-1.05 -0.86l0.96 0.42c0.05,-1.44 -0.39,-2.95 -1.19,-4.28 -0.8,-1.31 -1.95,-2.44 -3.34,-3.16 -1.39,-0.72 -3.02,-1.03 -4.77,-0.7 -1.73,0.33 -3.58,1.27 -5.45,3.07l-0.02 0.02 -0.03 0.01c-0.26,0.13 -0.53,0.19 -0.79,0.25 -0.25,0.06 -0.49,0.11 -0.71,0.22l-0.05 0.03 -4.77 -0.77 0.01 1.44 2.47 0.9c0.41,-0.07 0.86,-0.22 1.3,-0.36 0.48,-0.16 0.95,-0.32 1.4,-0.39l0.25 -0.04 -0.04 0.25c-0.31,1.91 -0.1,3.69 0.52,5.22 0.54,1.34 1.39,2.48 2.46,3.35 1.07,0.87 2.37,1.46 3.81,1.7 1.55,0.25 3.28,0.09 5.07,-0.6l-0.84 -1.28c-2.13,0.88 -4.04,0.81 -5.59,0.16 -0.83,-0.35 -1.57,-0.87 -2.17,-1.5 -0.61,-0.63 -1.09,-1.37 -1.43,-2.17 -0.71,-1.65 -0.81,-3.55 -0.13,-5.19l0.02 -0.04c1.09,-1.43 2.44,-2.32 3.86,-2.72 1.02,-0.28 2.07,-0.32 3.1,-0.11 1.02,0.21 2.01,0.66 2.9,1.33 1.42,1.08 2.58,2.73 3.2,4.9z"/>
    <path class="fil9 str1" d="M417.07 392.77l-5.1 1.73 3.43 0.85c2.86,-0.67 3.34,-2.79 3.79,-5.04l-1.2 0.16 -1.18 -1.07 -1.57 -1.16 -0.64 1.03 0.26 1.71 1.21 -0.1 0.44 0.96 0.56 0.92z"/>
    <path class="fil9 str1" d="M419.82 393.52c-0.48,1.3 -1.81,2.32 -2.82,3.4l0.78 2.32 0.59 -0.36 1.86 -3.93 -0.41 -1.43z"/>
    <path class="fil9 str1" d="M419.71 393.41c0.17,-0.85 0.81,-1.7 0.51,-2.56l0.97 -1.85 0.53 1.46 0.87 -0.19 -0.79 2.18 -2.09 0.96z"/>
    <ellipse class="fil13 str1" transform="matrix(0.298688 0.95435 -0.95435 0.298688 405.599 387.12)" rx="0.55" ry="0.89"/>
   </g>
   <g>
    <path class="fil9" d="M365.52 384.69c-0.09,0.46 -0.18,0.91 -0.26,1.37 -6.14,3.35 -6.21,10.62 -0.48,13.21 4.89,0.84 10.43,-4.97 6.11,-10.87 0.44,-0.46 0.88,-0.92 1.32,-1.38 4.48,6.41 0.53,13.73 -6.78,14.2 0.33,0.82 1.02,1.68 1.35,2.51 -0.12,0.93 -0.23,1.86 -0.35,2.79 -0.58,0.14 -1.16,0.27 -1.74,0.41 -0.11,-1.66 -0.22,-3.32 -0.33,-4.98 -0.34,-0.41 -0.45,-0.95 -0.8,-1.36 -9.08,-5.94 -3.89,-15.01 1.96,-15.89z"/>
    <path class="fil12" d="M365.7 384.73l-0.28 1.45 -0.08 0.04c-1.94,1.06 -3.27,2.52 -3.98,4.09 -0.44,0.97 -0.64,1.98 -0.62,2.97 0.02,0.99 0.27,1.95 0.75,2.83 0.67,1.23 1.78,2.28 3.33,2.99 1.64,0.27 3.35,-0.22 4.72,-1.22 0.66,-0.49 1.25,-1.09 1.7,-1.79 0.45,-0.69 0.77,-1.48 0.92,-2.32 0.28,-1.6 -0.09,-3.43 -1.44,-5.26l-0.09 -0.12 1.58 -1.65 0.13 0.18c1.19,1.71 1.8,3.48 1.91,5.18 0.1,1.52 -0.2,2.99 -0.84,4.28 -0.63,1.29 -1.6,2.42 -2.83,3.28 -1.34,0.94 -3.01,1.56 -4.9,1.72 0.15,0.33 0.36,0.66 0.56,1 0.26,0.43 0.52,0.86 0.69,1.28l0.02 0.04c-0.13,0.99 -0.25,1.97 -0.37,2.96l-2.07 0.49 -0.34 -5.13c-0.16,-0.21 -0.27,-0.44 -0.38,-0.67 -0.11,-0.22 -0.21,-0.44 -0.36,-0.62 -2.22,-1.46 -3.59,-3.1 -4.32,-4.77 -0.75,-1.71 -0.81,-3.45 -0.41,-5.04 0.41,-1.58 1.28,-3.02 2.43,-4.13 1.23,-1.2 2.77,-2.03 4.35,-2.27l0.26 -0.04 -0.05 0.25zm-0.61 1.22l0.2 -1.03c-1.42,0.27 -2.79,1.04 -3.9,2.12 -1.09,1.07 -1.94,2.45 -2.33,3.96 -0.39,1.51 -0.32,3.17 0.39,4.8 0.7,1.61 2.04,3.21 4.21,4.62l0.02 0.01 0.02 0.02c0.19,0.22 0.3,0.47 0.42,0.72 0.11,0.23 0.22,0.46 0.37,0.64l0.04 0.05 0.32 4.82 1.4 -0.33 0.32 -2.61c-0.16,-0.39 -0.4,-0.79 -0.65,-1.18 -0.26,-0.43 -0.52,-0.86 -0.69,-1.28l-0.09 -0.23 0.25 -0.02c1.93,-0.12 3.62,-0.73 4.97,-1.68 1.18,-0.82 2.11,-1.91 2.71,-3.15 0.61,-1.24 0.89,-2.64 0.8,-4.1 -0.1,-1.57 -0.65,-3.21 -1.72,-4.81l-1.06 1.11c1.33,1.88 1.7,3.75 1.41,5.41 -0.15,0.89 -0.49,1.72 -0.97,2.45 -0.48,0.73 -1.09,1.37 -1.79,1.88 -1.45,1.06 -3.28,1.59 -5.03,1.28l-0.04 -0.01c-1.64,-0.74 -2.81,-1.85 -3.52,-3.15 -0.51,-0.93 -0.77,-1.95 -0.8,-2.99 -0.02,-1.04 0.19,-2.11 0.65,-3.12 0.73,-1.62 2.08,-3.12 4.06,-4.22z"/>
    <path class="fil9 str1" d="M368.12 387.58l2.83 4.58 0.06 -3.53c-1.29,-2.64 -3.47,-2.63 -5.76,-2.56l0.43 1.14 -0.78 1.38 -0.78 1.79 1.14 0.4 1.61 -0.64 -0.37 -1.15 0.84 -0.64 0.77 -0.76z"/>
    <path class="fil9 str1" d="M368.23 384.74c1.37,0.17 2.67,1.24 3.95,1.99l2.09 -1.28 -0.49 -0.49 -4.25 -0.93 -1.3 0.72z"/>
    <path class="fil9 str1" d="M368.16 384.87c-0.87,0.02 -1.83,-0.41 -2.61,0.07l-2.02 -0.53 1.3 -0.85 -0.38 -0.8 2.3 0.28 1.41 1.83z"/>
    <ellipse class="fil13 str1" transform="matrix(0.863161 -0.504928 0.504928 0.863161 365.185 400.026)" rx="0.55" ry="0.89"/>
   </g>
   <path class="fil10" d="M301.74 429.45l6.4 -7.36 0.31 -0.06c12.11,-2.4 24,-5.78 35.78,-9.87 11.79,-4.09 23.49,-8.92 35.21,-14.21 14.17,-6.72 25.03,-16.98 31.84,-31.02 6.53,-13.45 9.36,-30.39 7.87,-51.04 -1.2,-9.01 -2.65,-17.67 -4.32,-26.05 -1.67,-8.39 -3.54,-16.45 -5.56,-24.25l1.77 -0.46c2.04,7.88 3.92,15.98 5.59,24.35 1.67,8.38 3.13,17.09 4.34,26.22l0.01 0.05c1.51,20.98 -1.38,38.23 -8.05,51.96 -7.01,14.44 -18.16,24.99 -32.72,31.89l-0.01 0.01c-11.73,5.3 -23.48,10.14 -35.37,14.27 -11.78,4.09 -23.66,7.47 -35.73,9.88l-5.98 6.88 -1.38 -1.19z"/>
   <path class="fil9" d="M330.69 264.54l0.15 1.19 1.69 0.7 1.86 -0.37 0 1.24 -0.8 0.4 -2.3 0.97 -1.37 1.86 1.49 -0.12 1.24 -0.99 1.99 0.5 1.61 -0.99 1.37 0.87 0.99 0 0.37 2.11 2.61 -0.37 0.62 1.12 1.12 -0.25 1.3 1.17 -0.05 2.18 -1.12 0.5 -1.53 -1.13 -0.21 -1.23 -0.99 -1.24 -0.25 1.74 -4.72 -0.25 -1.61 -0.74 -0.5 1.74 -2.23 -0.37 -0.87 0.87 -6.21 -0.12 0.25 1.37 3.85 0 0.25 1.12 2.61 1.49 0.5 1.24 -2.36 0 -1.49 0.74 0.25 1.49 2.86 0.12 -0.25 1.12 1.12 0.74 -1.37 0.74 -2.51 1.59 0.03 0.89 -1.49 0.87 5.46 -0.12 0.87 -1.12 3.85 -0.12 3.31 3.34 2.28 1.38 -1.74 9.31 -2.61 2.48 8.32 0 -1.86 -1.37 0.12 -5.46 0.62 -0.87 0.25 -3.97 1.24 -1.24 -0.25 -3.85 5.46 -7.08 3.43 -0.19 0.79 1.06 2.36 -0.12 0.5 -0.87 1.61 0 0.37 -0.74 3.35 0.25 0.87 -0.99 -0.99 -1.05 -5.72 0.15 -0.61 -0.84 -1.99 0 -1.86 -0.74 0.37 -0.74 6.21 0 1.12 -1.12 -1.86 -1.12 -1.86 -0.37 -2.14 -1.93 2.02 -0.43 4.22 0 0.5 -0.87 -2.86 -2.23 -2.36 0.25 -0.44 -0.76 1.18 -0.61 1.99 0.25 -1.74 -1.49 -2.19 -0.87 -1.78 0 -0.37 -0.87 0.87 -1.12 1.37 -1.24 -5.09 0.37 -0.99 -0.62 -1.74 0 0.37 -1.86 -1.86 -0.37 -3.97 -0.5 -1.24 1.24 -0.75 -0.37 -0.25 0.87 -1.74 0 -0.62 1.74 -3.64 2.43 -1.57 0.55 -2.46 0.1zm10.65 18.4l-0.22 1.2 -1.04 1.43 -1.34 -0.77 0.18 1.16 -1.11 0.6 2.88 3.06 2.4 1.39 0.5 -2.36 0.03 -3.65 -2.26 -2.06zm5.49 -5l1.03 -0.07 1.23 1.3 -0.82 1.1 -1.3 0.14 -0.14 -2.47zm3.08 2.06l-2.67 2.06 -0.62 1.44 -1.1 0.69 0.21 1.37 0.89 0.07 3.91 -4.73 -0.62 -0.89zm-6.1 0.34l0 3.36 -1.99 -1.58 -0.21 -0.82 0.62 -0.55 1.03 0.14 0.55 -0.55zm3.36 -8.02l-0.07 3.08 0.62 -0.96 1.71 0.07 0 0.89 1.3 -0.14 0 -2.26 -1.3 -0.34 -0.14 -0.55 -0.82 -0.21 -1.3 0.41zm-4.8 -8.36l-1.03 0 -0.32 0.3 0.08 0.96 1.07 0.31 0.78 -0.9 -0.58 -0.67zm-1.68 0.26l-0.64 -0.35 -0.76 0.62 -0.06 0.62 -0.7 0.29 0.32 0.38 1 -0.41 0.94 -0.06 -0.09 -1.08z"/>
   <path class="fil12" d="M331.04 264.83l0.09 0.69 1.44 0.59 2.14 -0.43 0 1.8c-1.08,0.54 -2.08,0.95 -3.21,1.43l-0.92 1.25 0.73 -0.06 1.29 -1.03 2.01 0.5 1.67 -1.03 1.45 0.92 1.16 0 0.37 2.07 2.52 -0.36 0.61 1.1 1.05 -0.23 1.52 1.37 -0.06 2.51 -1.45 0.65 -1.77 -1.31 -0.22 -1.28 -0.5 -0.63 -0.19 1.32 -5.05 -0.27 -1.34 -0.62 -0.47 1.66 -2.35 -0.39 -0.85 0.85 -5.97 -0.12 0.14 0.75 3.84 0 0.27 1.22 2.58 1.48 0.7 1.76 -2.74 0 -1.22 0.61 0.17 1.03 2.97 0.13 -0.28 1.27 1.36 0.91 -1.79 0.98 -2.36 1.49 0.03 0.9 -0.63 0.37 4.14 -0.09 0.87 -1.12 4.13 -0.13 3.37 3.4 2.43 1.47c-0.6,3.2 -1.21,6.41 -1.8,9.62l-2.13 2.03 6.63 0 -1.24 -0.91c0.04,-1.9 0.08,-3.81 0.13,-5.72l0.62 -0.87 0.25 -4 1.22 -1.23 -0.25 -3.82c1.87,-2.43 3.74,-4.85 5.62,-7.28l3.74 -0.21 0.79 1.06 2.03 -0.11 0.5 -0.88 1.6 0 0.38 -0.76 3.4 0.25 0.59 -0.67 -0.71 -0.75 -5.75 0.15 -0.61 -0.84 -1.89 0 -2.23 -0.89 0.6 -1.21 6.27 0 0.75 -0.75 -1.48 -0.89 -1.89 -0.38 -2.65 -2.39c3.35,-0.71 2.86,-0.56 6.71,-0.56l0.28 -0.49 -2.55 -2 -2.43 0.26 -0.7 -1.21 1.55 -0.79 1.07 0.13 -0.93 -0.8 -2.09 -0.83 -1.93 0 -0.52 -1.22c0.8,-1.03 0.85,-1.14 1.73,-1.95l-4.31 0.32 -1 -0.63 -2.02 0 0.39 -1.93 -1.55 -0.31 -3.82 -0.48 -1.29 1.29 -0.61 -0.31 -0.21 0.74 -1.75 0 -0.58 1.63c-1.25,0.83 -2.51,1.67 -3.76,2.51l-1.65 0.57 -2.17 0.09zm-0.5 0.94l-0.19 -1.52 2.74 -0.11 1.49 -0.52 3.53 -2.35 0.66 -1.85 1.72 0 0.29 -1 0.88 0.44 1.19 -1.19c2.26,0.28 4.1,0.51 6.3,0.95l-0.36 1.8 1.45 0 0.98 0.62 5.87 -0.43 -2 1.82 -0.75 0.96 0.22 0.52 1.64 0 2.3 0.91 2.54 2.18 -2.9 -0.36 -0.81 0.42 0.18 0.31 2.28 -0.24 3.16 2.47 -0.72 1.25 -4.37 0 -1.4 0.3 1.63 1.47 1.83 0.37 2.24 1.35 -1.48 1.48 -6.15 0 -0.14 0.28 1.5 0.6 2.09 0 0.61 0.84 5.7 -0.15 1.28 1.35 -1.15 1.32 -3.3 -0.24 -0.37 0.73 -1.62 0 -0.49 0.86 -2.69 0.14 -0.79 -1.06 -3.13 0.18 -5.31 6.88 0.25 3.87 -1.26 1.26 -0.25 3.94 -0.62 0.86 -0.12 5.21 2.49 1.82 -10.01 0 3.09 -2.94 1.68 -9.01 -2.13 -1.29 -3.24 -3.27 -3.57 0.12 -0.87 1.12c-2.26,0.05 -4.52,0.1 -6.79,0.15l2.35 -1.37 -0.03 -0.89c1.22,-0.77 2.34,-1.51 3.6,-2.19l-0.87 -0.58 0.21 -0.97 -2.74 -0.12 -0.33 -1.95 1.76 -0.88 1.98 0 -0.29 -0.72 -2.63 -1.5 -0.22 -1.01 -3.86 0 -0.36 -1.98 6.45 0.13 0.89 -0.89 2.12 0.35 0.52 -1.82 1.88 0.87 4.38 0.23 0.3 -2.08 -1.77 0.25 -0.38 -2.15 -0.82 0 -1.28 -0.82 -1.56 0.96 -1.97 -0.49 -1.2 0.96 -2.24 0.19 1.81 -2.47 2.37 -1 0.62 -0.31 0 -0.68 -1.59 0.32 -1.94 -0.8 -0.02 -0.18zm10.89 6.08l-0.85 0.12 1.43 1.78 0.2 1.19 1.29 0.95 0.78 -0.35 0.05 -1.85 -1.08 -0.97 -1.18 0.26 -0.63 -1.13zm0.11 11.68l-0.14 0.73c-0.42,0.57 -0.83,1.14 -1.24,1.71l-1.03 -0.59 0.12 0.74 -0.95 0.52 2.58 2.74 2 1.16 0.4 -1.92 0.02 -3.48 -1.76 -1.6zm-0.71 0.48l0.31 -1.66 2.76 2.52c-0.03,3.79 0.1,3.21 -0.62,6.62l-2.8 -1.62c-1.06,-1.12 -2.12,-2.25 -3.18,-3.37l1.27 -0.69 -0.24 -1.57 1.65 0.94 0.84 -1.16zm5.97 -6.37l1.17 -0.08 1.51 1.59 -1.06 1.41 -1.75 0.18 -0.17 -3.09 0.3 -0.02zm0.93 0.55l-0.59 0.04 0.1 1.85 0.85 -0.09 0.59 -0.78 -0.96 -1.01zm2.11 2.25l-2.36 1.81 -0.62 1.45 -1.01 0.63 0.14 0.93 0.49 0.04 3.66 -4.43 -0.3 -0.44zm-2.79 1.38l2.93 -2.25 0.93 1.34 -4.15 5.03 -1.29 -0.1 -0.27 -1.81 1.19 -0.74 0.61 -1.42 0.06 -0.05zm-2.94 -1.47l0 3.99 -2.56 -2.03 -0.28 -1.1 0.86 -0.76 1.02 0.14 0.96 -0.96 0 0.74zm-0.61 2.73l0 -1.99 -0.13 0.13 -1.04 -0.14 -0.38 0.33 0.14 0.54 1.41 1.12zm3.96 -10.53l-0.04 1.79 0.13 -0.2 2.18 0.09 0 0.85 0.69 -0.07 0 -1.75 -1.25 -0.33 -0.14 -0.55 -0.56 -0.14 -1.01 0.32zm-0.67 2.85l0.07 -3.3 1.59 -0.5 1.08 0.27 0.14 0.55 1.36 0.36 0 2.77 -1.91 0.2 0 -0.94 -1.25 -0.05 -1.11 1.72 0.02 -1.08zm-4.57 -11.14l-0.77 0 -0.13 0.12 0.05 0.61 0.68 0.2 0.48 -0.56 -0.32 -0.37zm-0.89 -0.61l1.17 0 0.84 0.98 -1.08 1.25 -1.16 -0.34 0 0.05 -1.2 0.07 -1.15 0.48 -0.73 -0.87 0.92 -0.38 0.05 -0.56 1.02 -0.82 0.86 0.47 0.35 -0.32 0.12 0zm-0.94 0.76l-0.32 -0.18 -0.5 0.41 -0.05 0.52 0.25 -0.1 0.68 -0.04 -0.05 -0.61z"/>
   <g>
    <g>
     <path class="fil15" d="M279.88 304.38c2.01,-0.09 2.96,-0.18 4.18,-0.29 0.71,-0.07 1.5,-0.14 2.52,-0.22 0.98,-0.08 1.39,-0.23 1.54,-0.28 0.24,-0.09 0.35,-0.13 0.5,0.13l0 0.01c0.08,0.15 0.05,0.23 -0.01,0.37 -0.1,0.21 -0.51,1.08 0.6,3.91 0.18,0.46 0.64,0.85 1.21,1.16 0.73,0.39 1.64,0.63 2.43,0.72l-0.07 0.69c-0.87,-0.09 -1.87,-0.37 -2.68,-0.8 -0.71,-0.38 -1.28,-0.88 -1.53,-1.51 -0.81,-2.05 -0.85,-3.23 -0.76,-3.86 -0.27,0.06 -0.65,0.12 -1.18,0.16 -1.12,0.09 -1.85,0.16 -2.51,0.22 -1.23,0.12 -2.2,0.21 -4.22,0.3l-0.03 -0.69z"/>
     <path class="fil15" d="M296.07 310.58c2.67,0 3,0.94 3.44,2.16 0.32,0.91 0.72,2.02 2.64,2.93 0.16,0.08 0.2,0.16 0.24,0.24 0,0.01 -0.01,0.02 -0.02,0.01l-0.19 0.09 0 0.44c-0.24,0 -0.32,-0.08 -0.37,-0.19 -2.14,-1.03 -2.58,-2.27 -2.94,-3.3 -0.34,-0.96 -0.6,-1.7 -2.79,-1.7l0 -0.69zm6.29 5.34c-0.05,-0.01 -0.14,-0.06 -0.19,-0.1l0 0.19 0.19 -0.09z"/>
     <path class="fil15" d="M292.49 312.72c0.62,-0.03 0.94,0.35 1.34,0.82 0.55,0.64 1.27,1.49 3.4,1.05 1.09,-0.23 1.38,0.26 1.68,0.76 0.12,0.19 0.23,0.39 0.42,0.45l-0.21 0.66c-0.43,-0.14 -0.62,-0.45 -0.8,-0.75 -0.17,-0.28 -0.34,-0.56 -0.95,-0.44 -2.53,0.53 -3.4,-0.5 -4.06,-1.28 -0.27,-0.32 -0.5,-0.59 -0.78,-0.58l-0.04 -0.69z"/>
     <path class="fil15" d="M284.36 309.02c1.32,2.17 2.07,2.03 2.95,1.87 0.38,-0.07 0.78,-0.14 1.26,-0.1l-0.06 0.69c-0.39,-0.03 -0.74,0.03 -1.07,0.09 -1.14,0.21 -2.1,0.38 -3.67,-2.19l0.59 -0.36z"/>
    </g>
    <g>
     <path class="fil15" d="M313.04 316.07c2.01,-0.09 2.96,-0.18 4.18,-0.29 0.71,-0.07 1.5,-0.14 2.52,-0.22 0.98,-0.08 1.39,-0.23 1.54,-0.28 0.24,-0.09 0.35,-0.13 0.5,0.13l0 0.01c0.08,0.15 0.05,0.23 -0.01,0.37 -0.1,0.21 -0.51,1.08 0.6,3.91 0.18,0.46 0.64,0.85 1.21,1.16 0.73,0.39 1.64,0.63 2.43,0.72l-0.07 0.69c-0.87,-0.09 -1.87,-0.37 -2.68,-0.8 -0.71,-0.38 -1.28,-0.88 -1.53,-1.51 -0.81,-2.05 -0.85,-3.23 -0.76,-3.86 -0.27,0.06 -0.65,0.12 -1.18,0.16 -1.12,0.09 -1.85,0.16 -2.51,0.22 -1.23,0.12 -2.2,0.21 -4.22,0.3l-0.03 -0.69z"/>
     <path class="fil15" d="M329.22 322.28c2.67,0 3,0.94 3.44,2.16 0.32,0.91 0.72,2.02 2.64,2.93 0.16,0.08 0.2,0.16 0.24,0.24 0,0.01 -0.01,0.02 -0.02,0.01l-0.19 0.09 0 0.44c-0.24,0 -0.32,-0.08 -0.37,-0.19 -2.14,-1.03 -2.58,-2.27 -2.94,-3.3 -0.34,-0.96 -0.6,-1.7 -2.79,-1.7l0 -0.69zm6.29 5.34c-0.05,-0.01 -0.14,-0.06 -0.19,-0.1l0 0.19 0.19 -0.09z"/>
     <path class="fil15" d="M325.65 324.41c0.62,-0.03 0.94,0.35 1.34,0.82 0.55,0.64 1.27,1.49 3.4,1.05 1.09,-0.23 1.38,0.26 1.68,0.76 0.12,0.19 0.23,0.39 0.42,0.45l-0.21 0.66c-0.43,-0.14 -0.62,-0.45 -0.8,-0.75 -0.17,-0.28 -0.34,-0.56 -0.95,-0.44 -2.53,0.53 -3.4,-0.5 -4.06,-1.28 -0.27,-0.32 -0.5,-0.59 -0.78,-0.58l-0.04 -0.69z"/>
     <path class="fil15" d="M317.52 320.71c1.32,2.17 2.07,2.03 2.95,1.87 0.38,-0.07 0.78,-0.14 1.26,-0.1l-0.06 0.69c-0.39,-0.03 -0.74,0.03 -1.07,0.09 -1.14,0.21 -2.1,0.38 -3.67,-2.19l0.59 -0.36z"/>
    </g>
    <g>
     <path class="fil15" d="M343.65 327.87c2.01,-0.09 2.96,-0.18 4.18,-0.29 0.71,-0.07 1.5,-0.14 2.52,-0.22 0.98,-0.08 1.39,-0.23 1.54,-0.28 0.24,-0.09 0.35,-0.13 0.5,0.13l0 0.01c0.08,0.15 0.05,0.23 -0.01,0.37 -0.1,0.21 -0.51,1.08 0.6,3.91 0.18,0.46 0.64,0.85 1.21,1.16 0.73,0.39 1.64,0.63 2.43,0.72l-0.07 0.69c-0.87,-0.09 -1.87,-0.37 -2.68,-0.8 -0.71,-0.38 -1.28,-0.88 -1.53,-1.51 -0.81,-2.05 -0.85,-3.23 -0.76,-3.86 -0.27,0.06 -0.65,0.12 -1.18,0.16 -1.12,0.09 -1.85,0.16 -2.51,0.22 -1.23,0.12 -2.2,0.21 -4.22,0.3l-0.03 -0.69z"/>
     <path class="fil15" d="M359.84 334.07c2.67,0 3,0.94 3.44,2.16 0.32,0.91 0.72,2.02 2.64,2.93 0.16,0.08 0.2,0.16 0.24,0.24 0,0.01 -0.01,0.02 -0.02,0.01l-0.19 0.09 0 0.44c-0.24,0 -0.32,-0.08 -0.37,-0.19 -2.14,-1.03 -2.58,-2.27 -2.94,-3.3 -0.34,-0.96 -0.6,-1.7 -2.79,-1.7l0 -0.69zm6.29 5.34c-0.05,-0.01 -0.14,-0.06 -0.19,-0.1l0 0.19 0.19 -0.09z"/>
     <path class="fil15" d="M356.26 336.21c0.62,-0.03 0.94,0.35 1.34,0.82 0.55,0.64 1.27,1.49 3.4,1.05 1.09,-0.23 1.38,0.26 1.68,0.76 0.12,0.19 0.23,0.39 0.42,0.45l-0.21 0.66c-0.43,-0.14 -0.62,-0.45 -0.8,-0.75 -0.17,-0.28 -0.34,-0.56 -0.95,-0.44 -2.53,0.53 -3.4,-0.5 -4.06,-1.28 -0.27,-0.32 -0.5,-0.59 -0.78,-0.58l-0.04 -0.69z"/>
     <path class="fil15" d="M348.13 332.51c1.32,2.17 2.07,2.03 2.95,1.87 0.38,-0.07 0.78,-0.14 1.26,-0.1l-0.06 0.69c-0.39,-0.03 -0.74,0.03 -1.07,0.09 -1.14,0.21 -2.1,0.38 -3.67,-2.19l0.59 -0.36z"/>
    </g>
    <g>
     <path class="fil15" d="M367.35 344.35c2.01,-0.09 2.96,-0.18 4.18,-0.29 0.71,-0.07 1.5,-0.14 2.52,-0.22 0.98,-0.08 1.39,-0.23 1.54,-0.28 0.24,-0.09 0.35,-0.13 0.5,0.13l0 0.01c0.08,0.15 0.05,0.23 -0.01,0.37 -0.1,0.21 -0.51,1.08 0.6,3.91 0.18,0.46 0.64,0.85 1.21,1.16 0.73,0.39 1.64,0.63 2.43,0.72l-0.07 0.69c-0.87,-0.09 -1.87,-0.37 -2.68,-0.8 -0.71,-0.38 -1.28,-0.88 -1.53,-1.51 -0.81,-2.05 -0.85,-3.23 -0.76,-3.86 -0.27,0.06 -0.65,0.12 -1.18,0.16 -1.12,0.09 -1.85,0.16 -2.51,0.22 -1.23,0.12 -2.2,0.21 -4.22,0.3l-0.03 -0.69z"/>
     <path class="fil15" d="M383.54 350.55c2.67,0 3,0.94 3.44,2.16 0.32,0.91 0.72,2.02 2.64,2.93 0.16,0.08 0.2,0.16 0.24,0.24 0,0.01 -0.01,0.02 -0.02,0.01l-0.19 0.09 0 0.44c-0.24,0 -0.32,-0.08 -0.37,-0.19 -2.14,-1.03 -2.58,-2.27 -2.94,-3.3 -0.34,-0.96 -0.6,-1.7 -2.79,-1.7l0 -0.69zm6.29 5.34c-0.05,-0.01 -0.14,-0.06 -0.19,-0.1l0 0.19 0.19 -0.09z"/>
     <path class="fil15" d="M379.96 352.69c0.62,-0.03 0.94,0.35 1.34,0.82 0.55,0.64 1.27,1.49 3.4,1.05 1.09,-0.23 1.38,0.26 1.68,0.76 0.12,0.19 0.23,0.39 0.42,0.45l-0.21 0.66c-0.43,-0.14 -0.62,-0.45 -0.8,-0.75 -0.17,-0.28 -0.34,-0.56 -0.95,-0.44 -2.53,0.53 -3.4,-0.5 -4.06,-1.28 -0.27,-0.32 -0.5,-0.59 -0.78,-0.58l-0.04 -0.69z"/>
     <path class="fil15" d="M371.83 348.99c1.32,2.17 2.07,2.03 2.95,1.87 0.38,-0.07 0.78,-0.14 1.26,-0.1l-0.06 0.69c-0.39,-0.03 -0.74,0.03 -1.07,0.09 -1.14,0.21 -2.1,0.38 -3.67,-2.19l0.59 -0.36z"/>
    </g>
    <path class="fil15" d="M374.57 340.84c0.23,0.15 1.67,0.14 3.14,0.03 1.4,-0.1 2.78,-0.29 3.11,-0.51 0.02,-0.01 0.47,-0.19 0.89,-0.19 0.17,0 0.34,0.02 0.5,0.08 0.18,0.07 0.35,0.18 0.47,0.36 0.12,0.17 0.19,0.4 0.19,0.69 0,0.39 0.28,1.48 0.64,2.33 0.22,0.51 0.43,0.92 0.54,0.92 0.14,0 0.35,0.02 0.59,0.04 0.28,0.03 0.61,0.06 0.93,0.06l0 0.69c-0.33,0 -0.69,-0.03 -1,-0.06 -0.21,-0.02 -0.39,-0.04 -0.53,-0.04 -0.45,0 -0.86,-0.59 -1.17,-1.34 -0.39,-0.92 -0.7,-2.14 -0.7,-2.6 0,-0.14 -0.03,-0.24 -0.07,-0.3 -0.03,-0.05 -0.08,-0.08 -0.14,-0.1 -0.07,-0.03 -0.17,-0.04 -0.26,-0.04 -0.27,0 -0.48,0.06 -0.51,0.07 -0.43,0.29 -1.94,0.52 -3.44,0.63 -1.59,0.12 -3.21,0.09 -3.57,-0.14l0.38 -0.58z"/>
    <path class="fil15" d="M368.48 352.79c0.61,0 1.05,-0.03 1.38,-0.05 1.17,-0.08 1.31,-0.09 2.52,1.06l-0.48 0.5c-0.99,-0.94 -1.09,-0.93 -2,-0.87 -0.35,0.02 -0.81,0.05 -1.42,0.05l0 -0.69z"/>
    <path class="fil15" d="M375.53 357.92c0.68,-0.39 1.54,-0.67 2.36,-0.64 0.7,0.03 1.36,0.28 1.87,0.87 0.01,0.02 0.01,0 0.04,0.02 0.14,0.11 0.38,0.31 0.48,0.47l-0.59 0.36c-0.04,-0.07 -0.22,-0.21 -0.32,-0.29 -0.06,-0.05 -0.1,-0.08 -0.13,-0.11 -0.37,-0.43 -0.86,-0.61 -1.37,-0.63 -0.68,-0.03 -1.4,0.21 -1.99,0.55l-0.34 -0.6z"/>
    <path class="fil15" d="M346 335.9c0.61,0 1.05,-0.03 1.38,-0.05 1.17,-0.08 1.31,-0.09 2.52,1.06l-0.48 0.5c-0.99,-0.94 -1.09,-0.93 -2,-0.87 -0.35,0.02 -0.81,0.05 -1.42,0.05l0 -0.69z"/>
    <path class="fil15" d="M353.05 341.04c0.68,-0.39 1.54,-0.67 2.36,-0.64 0.7,0.03 1.36,0.28 1.87,0.87 0.01,0.02 0.01,0 0.04,0.02 0.14,0.11 0.38,0.31 0.48,0.47l-0.59 0.36c-0.04,-0.07 -0.22,-0.21 -0.32,-0.29 -0.06,-0.05 -0.1,-0.08 -0.13,-0.11 -0.37,-0.43 -0.86,-0.61 -1.37,-0.63 -0.68,-0.03 -1.4,0.21 -1.99,0.55l-0.34 -0.6z"/>
    <path class="fil15" d="M264.9 299.45c0.04,-0.12 0.23,-0.32 0.49,-0.47 0.18,-0.1 0.4,-0.2 0.64,-0.25 0.25,-0.06 0.53,-0.06 0.8,0.03 0.28,0.09 0.55,0.29 0.75,0.63 0.03,0.06 0.09,0.03 0.27,0.16 0.72,0.5 2.23,1.53 2.54,2.04l0.03 0.05c0.14,0.24 0.18,0.3 0.4,0.38l-0.22 0.65c-0.47,-0.16 -0.53,-0.26 -0.77,-0.68l-0.03 -0.05c-0.22,-0.38 -1.65,-1.35 -2.33,-1.82 -0.26,-0.18 -0.43,-0.3 -0.48,-0.38 -0.11,-0.18 -0.24,-0.28 -0.37,-0.33 -0.13,-0.04 -0.28,-0.04 -0.43,-0.01 -0.16,0.03 -0.31,0.1 -0.43,0.17 -0.12,0.07 -0.18,0.09 -0.18,0.1l-0.65 -0.22z"/>
    <path class="fil15" d="M267.94 297.02c0.48,0.03 1.79,0.18 2.74,0.51 0.66,0.23 1.19,0.56 1.27,1.05 0.01,0.09 0.04,0.1 0.08,0.11 0.28,0.12 0.65,0.29 0.94,1.57 0.01,0.04 0.15,0.16 0.33,0.3 0.38,0.3 0.91,0.61 1.1,0.72l-0.34 0.6c-0.21,-0.12 -0.77,-0.45 -1.19,-0.77 -0.29,-0.23 -0.53,-0.48 -0.58,-0.7 -0.21,-0.94 -0.4,-1.02 -0.54,-1.08 -0.23,-0.1 -0.4,-0.18 -0.48,-0.63 -0.03,-0.18 -0.37,-0.36 -0.81,-0.51 -0.89,-0.31 -2.12,-0.44 -2.57,-0.47l0.05 -0.69z"/>
    <path class="fil15" d="M261.61 294.68c0.41,0.11 0.52,0.23 0.63,0.34 0.07,0.08 0.15,0.16 1.11,0.32 0.72,0.12 0.8,0.37 0.96,0.87l0.07 0.21 -0.65 0.22 -0.07 -0.23c-0.07,-0.23 -0.11,-0.34 -0.41,-0.39 -1.2,-0.2 -1.36,-0.37 -1.51,-0.53 -0.04,-0.04 -0.07,-0.08 -0.3,-0.14l0.18 -0.67z"/>
    <path class="fil15" d="M257.7 297.02c0.32,0.26 0.58,0.52 0.8,0.75 0.63,0.63 0.93,0.94 2.17,0.09 0.26,-0.18 0.84,0.27 1.32,0.64 0.22,0.17 0.41,0.32 0.42,0.33l-0.27 0.63c-0.1,-0.04 -0.32,-0.22 -0.58,-0.42 -0.29,-0.23 -0.35,-0.72 -0.5,-0.61 -1.71,1.18 -2.15,0.74 -3.05,-0.17 -0.21,-0.21 -0.45,-0.45 -0.75,-0.7l0.44 -0.53z"/>
    <path class="fil15" d="M374.27 364.74c0.23,0.15 1.67,0.14 3.14,0.03 1.4,-0.1 2.78,-0.29 3.11,-0.51 0.02,-0.01 0.47,-0.19 0.89,-0.19 0.17,0 0.34,0.02 0.5,0.08 0.18,0.07 0.35,0.18 0.47,0.36 0.12,0.17 0.19,0.4 0.19,0.69 0,0.39 0.28,1.48 0.64,2.33 0.22,0.51 0.43,0.92 0.54,0.92 0.14,0 0.35,0.02 0.59,0.04 0.28,0.03 0.61,0.06 0.93,0.06l0 0.69c-0.33,0 -0.69,-0.03 -1,-0.06 -0.21,-0.02 -0.39,-0.04 -0.53,-0.04 -0.45,0 -0.86,-0.59 -1.17,-1.34 -0.39,-0.92 -0.7,-2.14 -0.7,-2.6 0,-0.14 -0.03,-0.24 -0.07,-0.3 -0.03,-0.05 -0.08,-0.08 -0.14,-0.1 -0.07,-0.03 -0.17,-0.04 -0.26,-0.04 -0.27,0 -0.48,0.06 -0.51,0.07 -0.43,0.29 -1.94,0.52 -3.44,0.63 -1.59,0.12 -3.21,0.09 -3.57,-0.14l0.38 -0.58z"/>
   </g>
   <path class="fil16" d="M6.25 295.56l-1.36 -5.26 7.12 -4.04 -2.5 -9.67 -8.17 -0.01 -1.34 -5.16 36.24 0.6 1.34 5.18 -31.34 18.36zm11.07 -12.36l11.7 -6.58 -13.4 -0.01 1.71 6.6zm-10.34 14.66l33.63 -9.46 4.61 16.38 -5.68 1.6 -3.25 -11.57 -7.99 2.25 2.82 10.02 -5.68 1.6 -2.82 -10.02 -14.28 4.02 -1.35 -4.81zm21.29 11.79c3.95,-1.3 7.37,-1.86 10.26,-1.69 2.89,0.17 5.24,0.87 7.02,2.09 1.79,1.22 3.07,3 3.83,5.33 1.11,3.38 0.53,6.61 -1.74,9.72 -2.27,3.1 -6.15,5.56 -11.64,7.37 -5.55,1.83 -10.26,2.13 -14.12,0.91 -3.41,-1.06 -5.67,-3.29 -6.79,-6.68 -1.12,-3.42 -0.64,-6.56 1.43,-9.43 2.38,-3.28 6.3,-5.82 11.74,-7.61zm1.84 4.83c-3.81,1.25 -6.46,2.82 -7.95,4.7 -1.49,1.89 -1.93,3.76 -1.32,5.62 0.62,1.88 2.07,3.12 4.37,3.72 2.29,0.61 5.4,0.27 9.31,-1.02 3.83,-1.26 6.48,-2.79 7.91,-4.6 1.44,-1.8 1.85,-3.67 1.21,-5.62 -0.64,-1.94 -2.08,-3.21 -4.33,-3.82 -2.26,-0.61 -5.32,-0.27 -9.21,1zm6.43 32.88l5.52 -2.11 3.86 10.12 -13 4.96c-1.77,-0.49 -3.51,-1.48 -5.21,-2.96 -1.71,-1.49 -2.92,-3.17 -3.63,-5.05 -0.88,-2.29 -1,-4.56 -0.37,-6.81 0.63,-2.25 2.05,-4.38 4.25,-6.39 2.19,-2.01 5.04,-3.68 8.55,-5.02 3.59,-1.37 6.86,-2.02 9.8,-1.96 2.95,0.06 5.37,0.68 7.26,1.85 1.89,1.17 3.28,2.91 4.16,5.22 1.06,2.77 1.09,5.29 0.09,7.58 -0.99,2.29 -2.97,4.28 -5.95,5.95l-3 -4.16c1.55,-0.99 2.59,-2.11 3.13,-3.38 0.53,-1.27 0.56,-2.55 0.07,-3.84 -0.76,-2 -2.27,-3.27 -4.53,-3.83 -2.26,-0.55 -5.21,-0.13 -8.87,1.26 -3.93,1.5 -6.65,3.31 -8.18,5.43 -1.33,1.81 -1.62,3.7 -0.87,5.66 0.35,0.92 0.96,1.77 1.83,2.56 0.87,0.8 1.88,1.42 3.03,1.86l4.12 -1.57 -2.05 -5.38zm1.49 38.2l-2.06 -5.03 6.51 -4.96 -3.79 -9.24 -8.09 1.1 -2.02 -4.93 35.99 -4.31 2.03 4.95 -28.57 22.43zm9.3 -13.74l10.7 -8.1 -13.28 1.8 2.58 6.31zm22.95 -0.18l3.89 8.28c0.98,2.09 1.45,3.81 1.42,5.12 -0.04,1.32 -0.49,2.72 -1.35,4.23 -0.85,1.5 -2.18,2.98 -3.98,4.45 -1.81,1.47 -4.23,2.92 -7.26,4.34 -2.73,1.28 -5.23,2.13 -7.5,2.54 -2.28,0.41 -4.19,0.49 -5.76,0.22 -1.57,-0.27 -2.92,-0.85 -4.07,-1.73 -1.14,-0.89 -2.15,-2.25 -3.01,-4.08l-4 -8.52 31.62 -14.85zm-3.22 7.03l-20.94 9.83 1.6 3.41c0.69,1.46 1.34,2.45 1.96,2.96 0.63,0.51 1.36,0.82 2.19,0.93 0.84,0.12 2.01,-0.01 3.52,-0.38 1.51,-0.37 3.39,-1.09 5.65,-2.15 2.34,-1.1 4.12,-2.11 5.34,-3.03 1.22,-0.91 2.08,-1.86 2.57,-2.81 0.49,-0.96 0.67,-1.92 0.51,-2.88 -0.11,-0.72 -0.6,-2 -1.45,-3.82l-0.97 -2.06zm-2.97 21.47c3.66,-1.96 6.93,-3.11 9.81,-3.44 2.88,-0.33 5.31,-0.05 7.28,0.85 1.97,0.9 3.54,2.42 4.7,4.58 1.68,3.13 1.67,6.42 -0.04,9.87 -1.7,3.45 -5.1,6.54 -10.19,9.27 -5.15,2.76 -9.74,3.87 -13.75,3.33 -3.54,-0.46 -6.16,-2.26 -7.84,-5.4 -1.7,-3.17 -1.77,-6.35 -0.22,-9.53 1.78,-3.64 5.2,-6.82 10.25,-9.52zm2.65 4.44c-3.53,1.89 -5.87,3.9 -7.01,6.01 -1.14,2.12 -1.25,4.04 -0.33,5.76 0.93,1.74 2.58,2.71 4.95,2.91 2.36,0.21 5.36,-0.66 9,-2.61 3.56,-1.9 5.9,-3.87 7,-5.89 1.11,-2.03 1.18,-3.94 0.22,-5.74 -0.96,-1.8 -2.61,-2.8 -4.93,-3.01 -2.33,-0.21 -5.29,0.65 -8.9,2.58zm4.34 21.36l3.11 3.8c-3.52,2.79 -4.48,5.49 -2.89,8.12 0.79,1.3 1.8,2.08 3.03,2.36 1.23,0.27 2.42,0.05 3.58,-0.65 0.68,-0.41 1.17,-0.89 1.49,-1.44 0.31,-0.55 0.46,-1.18 0.45,-1.9 -0.02,-0.72 -0.29,-2.32 -0.81,-4.79 -0.47,-2.21 -0.6,-3.97 -0.37,-5.27 0.24,-1.3 0.81,-2.57 1.71,-3.81 0.91,-1.24 2.06,-2.29 3.46,-3.14 1.63,-0.99 3.29,-1.56 4.98,-1.71 1.69,-0.15 3.22,0.14 4.57,0.87 1.35,0.73 2.53,1.93 3.55,3.59 1.52,2.5 1.93,4.93 1.22,7.28 -0.71,2.35 -2.5,4.46 -5.35,6.31l-2.87 -4.15c1.48,-1.16 2.35,-2.25 2.6,-3.26 0.25,-1.01 0.03,-2.1 -0.68,-3.26 -0.7,-1.16 -1.52,-1.88 -2.45,-2.17 -0.93,-0.29 -1.8,-0.19 -2.62,0.31 -0.81,0.49 -1.3,1.19 -1.5,2.1 -0.2,0.91 -0.02,2.59 0.54,5.03 0.58,2.6 0.76,4.62 0.56,6.06 -0.22,1.44 -0.79,2.8 -1.73,4.07 -0.95,1.27 -2.32,2.45 -4.11,3.54 -2.58,1.57 -5.19,2.21 -7.79,1.9 -2.61,-0.31 -4.81,-1.94 -6.6,-4.88 -3.16,-5.2 -1.52,-10.16 4.93,-14.9zm35.22 12.6l5.19 7.53c1.31,1.91 2.06,3.52 2.24,4.82 0.18,1.31 -0.04,2.77 -0.64,4.39 -0.59,1.62 -1.67,3.3 -3.2,5.04 -1.54,1.75 -3.69,3.57 -6.45,5.47 -2.48,1.71 -4.82,2.96 -6.99,3.74 -2.18,0.78 -4.06,1.17 -5.64,1.16 -1.59,-0.01 -3.02,-0.36 -4.29,-1.04 -1.28,-0.69 -2.49,-1.86 -3.64,-3.53l-5.34 -7.75 28.77 -19.83zm-2.03 7.46l-19.05 13.13 2.14 3.1c0.92,1.33 1.72,2.2 2.42,2.6 0.7,0.4 1.47,0.59 2.31,0.56 0.85,-0.02 1.98,-0.34 3.41,-0.95 1.42,-0.61 3.17,-1.63 5.22,-3.04 2.13,-1.47 3.72,-2.75 4.78,-3.86 1.05,-1.1 1.74,-2.17 2.07,-3.19 0.33,-1.02 0.35,-2 0.04,-2.93 -0.23,-0.69 -0.91,-1.87 -2.06,-3.53l-1.29 -1.88zm0.25 50.21l-3.21 -4.38 5.12 -6.39 -5.9 -8.06 -7.59 3.02 -3.15 -4.3 33.89 -12.86 3.16 4.31 -22.32 28.66zm5.71 -15.58l8.43 -10.44 -12.46 4.95 4.03 5.5zm2.95 25.62l26.92 -22.27 3.18 3.85 -26.92 22.27 -3.18 -3.85zm7.5 8.96l25.54 -23.84 3.32 3.55 -10.09 23.38 17.06 -15.92 3.18 3.4 -25.54 23.84 -3.43 -3.68 9.8 -22.88 -16.65 15.54 -3.18 -3.4zm33.81 16.69l4.07 -4.28 7.86 7.46 -9.58 10.09c-1.81,0.33 -3.8,0.18 -5.98,-0.42 -2.19,-0.61 -4,-1.6 -5.46,-2.99 -1.78,-1.69 -2.87,-3.68 -3.27,-5.98 -0.4,-2.3 -0.05,-4.84 1.07,-7.6 1.11,-2.76 2.96,-5.5 5.54,-8.22 2.64,-2.78 5.32,-4.79 8,-6 2.68,-1.22 5.13,-1.71 7.35,-1.47 2.21,0.24 4.21,1.21 6,2.91 2.15,2.04 3.27,4.3 3.36,6.8 0.1,2.49 -0.84,5.14 -2.79,7.94l-4.5 -2.45c0.97,-1.56 1.42,-3.02 1.36,-4.4 -0.07,-1.37 -0.59,-2.54 -1.6,-3.49 -1.55,-1.47 -3.46,-1.97 -5.74,-1.5 -2.27,0.48 -4.76,2.13 -7.45,4.97 -2.9,3.05 -4.57,5.86 -5.04,8.43 -0.41,2.21 0.14,4.04 1.66,5.48 0.71,0.68 1.63,1.18 2.76,1.52 1.13,0.35 2.31,0.47 3.54,0.37l3.04 -3.2 -4.17 -3.96zm17.11 33.03l-4.05 -3.62 3.69 -7.31 -7.45 -6.66 -6.8 4.52 -3.98 -3.55 30.49 -19.61 3.99 3.56 -15.89 32.66zm2.35 -16.42l6.08 -11.96 -11.16 7.42 5.08 4.54zm-1.12 17.38l3.96 -5.01 24.3 -9.65 -9.08 -7.19 3.67 -4.63 14.23 11.27 -3.4 4.29 -25.28 10.04 11.08 8.78 -3.67 4.63 -15.83 -12.53zm18.59 14.59l20.87 -28.02 14.77 11 -3.53 4.74 -10.76 -8.01 -4.61 6.18 10.01 7.46 -3.53 4.74 -10.01 -7.46 -5.68 7.63 11.13 8.29 -3.53 4.74 -15.14 -11.28zm18.39 13.29l20.04 -28.62 4.09 2.86 -20.04 28.62 -4.09 -2.86zm9.06 6.38l18.35 -29.73 8.99 5.55c2.3,1.42 3.77,2.7 4.43,3.85 0.66,1.14 0.89,2.56 0.71,4.27 -0.19,1.71 -0.84,3.49 -1.97,5.32 -1.44,2.33 -3.08,3.9 -4.92,4.72 -1.84,0.82 -3.77,0.87 -5.78,0.13 0.45,1.32 0.7,2.62 0.73,3.88 0.05,1.27 -0.13,3.39 -0.53,6.35l-1 7.39 -5.11 -3.15 0.89 -8.38c0.33,-3.02 0.48,-4.96 0.44,-5.8 -0.03,-0.83 -0.21,-1.5 -0.51,-2 -0.3,-0.5 -0.95,-1.05 -1.93,-1.66l-0.88 -0.54 -7.66 12.42 -4.25 -2.62zm14.84 -14.53l3.17 1.96c1.94,1.2 3.23,1.86 3.88,1.98 0.65,0.13 1.32,0 2.02,-0.39 0.7,-0.39 1.35,-1.09 1.96,-2.08 0.59,-0.95 0.89,-1.81 0.92,-2.59 0.02,-0.78 -0.18,-1.45 -0.6,-2.02 -0.31,-0.39 -1.42,-1.18 -3.33,-2.36l-3.34 -2.06 -4.66 7.56zm25.78 38.81l-4.7 -2.72 2.12 -7.91 -8.64 -5 -5.74 5.81 -4.62 -2.67 25.86 -25.4 4.63 2.68 -8.92 35.21zm-1.04 -16.56l3.52 -12.95 -9.42 9.54 5.9 3.41z"/>
   <path class="fil16" d="M358.62 622.17l-15.82 -29.08 19.26 -10.48 2.67 4.91 -13.58 7.39 3.76 6.9 11.74 -6.39 2.67 4.91 -11.74 6.39 6.72 12.35 -5.68 3.09zm10.3 -43.54l5.41 -3.53 9.81 15.02c1.56,2.39 2.64,3.88 3.23,4.5 0.97,0.98 2.11,1.55 3.42,1.67 1.32,0.13 2.71,-0.3 4.21,-1.28 1.51,-0.99 2.44,-2.06 2.79,-3.21 0.35,-1.16 0.29,-2.25 -0.18,-3.3 -0.46,-1.05 -1.41,-2.67 -2.84,-4.86l-10.02 -15.34 5.41 -3.53 9.52 14.57c2.17,3.33 3.57,5.78 4.18,7.34 0.61,1.57 0.83,3.08 0.67,4.54 -0.16,1.46 -0.71,2.89 -1.65,4.3 -0.95,1.42 -2.46,2.82 -4.57,4.19 -2.54,1.66 -4.67,2.62 -6.38,2.86 -1.71,0.24 -3.27,0.13 -4.68,-0.35 -1.41,-0.48 -2.57,-1.18 -3.52,-2.09 -1.39,-1.36 -3.1,-3.59 -5.13,-6.69l-9.67 -14.8zm56.06 1.82l-16.92 -21.69 -7.45 5.81 -3.44 -4.41 19.96 -15.57 3.44 4.41 -7.42 5.78 16.92 21.69 -5.1 3.97zm20.97 -16.75l-21.81 -24.91 17.77 -15.56 3.68 4.21 -12.91 11.3 4.84 5.53 12 -10.51 3.69 4.21 -12 10.51 5.91 6.75 13.38 -11.71 3.69 4.21 -18.24 15.97zm1.57 -46.03l8.85 -9.2c1.76,-1.83 3.14,-3.11 4.15,-3.85 1.03,-0.74 2.12,-1.23 3.29,-1.46 1.18,-0.23 2.41,-0.18 3.69,0.15 1.28,0.33 2.44,0.99 3.47,1.98 1.11,1.07 1.86,2.35 2.23,3.82 0.38,1.48 0.31,2.93 -0.17,4.37 1.77,-0.99 3.52,-1.36 5.27,-1.13 1.74,0.23 3.3,1.01 4.69,2.34 1.09,1.05 1.91,2.3 2.47,3.78 0.56,1.48 0.74,2.93 0.55,4.37 -0.2,1.43 -0.82,2.83 -1.86,4.21 -0.66,0.85 -2.4,2.77 -5.22,5.75l-7.53 7.83 -23.86 -22.95zm8.45 -0.84l5.5 5.29 2.92 -3.04c1.74,-1.8 2.79,-2.95 3.16,-3.45 0.67,-0.88 0.99,-1.78 0.95,-2.69 -0.03,-0.91 -0.43,-1.73 -1.2,-2.46 -0.74,-0.71 -1.52,-1.08 -2.36,-1.14 -0.84,-0.05 -1.68,0.26 -2.51,0.94 -0.5,0.41 -1.8,1.7 -3.89,3.88l-2.56 2.67zm9.46 9.1l6.4 6.15 4.14 -4.3c1.61,-1.67 2.58,-2.78 2.92,-3.32 0.53,-0.82 0.76,-1.69 0.67,-2.61 -0.09,-0.93 -0.56,-1.79 -1.4,-2.61 -0.72,-0.69 -1.49,-1.11 -2.31,-1.25 -0.82,-0.15 -1.65,-0.01 -2.49,0.4 -0.84,0.41 -2.28,1.68 -4.31,3.79l-3.61 3.75zm17.53 -21.2c-2.62,-2.13 -4.52,-4.29 -5.69,-6.49 -0.86,-1.62 -1.41,-3.35 -1.66,-5.17 -0.25,-1.82 -0.16,-3.51 0.27,-5.08 0.58,-2.09 1.68,-4.15 3.32,-6.17 2.96,-3.66 6.51,-5.62 10.65,-5.92 4.14,-0.28 8.3,1.28 12.5,4.68 4.16,3.37 6.53,7.1 7.12,11.18 0.59,4.08 -0.6,7.95 -3.55,11.59 -2.99,3.69 -6.54,5.68 -10.64,5.96 -4.1,0.28 -8.2,-1.24 -12.31,-4.56zm4.01 -5.3c2.92,2.36 5.65,3.5 8.21,3.43 2.55,-0.08 4.65,-1.12 6.26,-3.12 1.62,-2 2.2,-4.25 1.75,-6.74 -0.46,-2.49 -2.18,-4.95 -5.17,-7.37 -2.95,-2.39 -5.66,-3.55 -8.12,-3.48 -2.46,0.07 -4.53,1.14 -6.21,3.21 -1.67,2.07 -2.29,4.33 -1.85,6.78 0.45,2.46 2.15,4.89 5.11,7.29zm32.53 -14.49l-26.61 -19.22 3.78 -5.24 22.08 15.94 9.37 -12.97 4.54 3.28 -13.15 18.21zm26.14 -63.23l4.82 -4.43c2.69,2.64 4.25,5.37 4.68,8.18 0.43,2.81 -0.2,5.7 -1.9,8.67 -2.1,3.68 -5.13,5.96 -9.1,6.85 -3.96,0.88 -8.21,0.03 -12.74,-2.56 -4.78,-2.73 -7.82,-6.05 -9.12,-9.94 -1.29,-3.89 -0.83,-7.78 1.39,-11.67 1.94,-3.39 4.55,-5.55 7.84,-6.48 1.95,-0.56 4.26,-0.49 6.93,0.19l-1.79 6.31c-1.67,-0.52 -3.24,-0.51 -4.7,0.04 -1.46,0.55 -2.61,1.57 -3.46,3.06 -1.17,2.06 -1.37,4.16 -0.56,6.32 0.79,2.15 2.91,4.21 6.33,6.16 3.63,2.07 6.58,2.92 8.84,2.54 2.27,-0.38 3.97,-1.58 5.13,-3.6 0.85,-1.49 1.09,-3.05 0.72,-4.69 -0.37,-1.63 -1.47,-3.28 -3.31,-4.95zm18.96 -9.57l-29.3 -14.81 2.92 -5.77 24.3 12.28 7.22 -14.28 4.99 2.52 -10.13 20.05zm-17.01 -40.06l2.49 -5.96 16.55 6.92c2.63,1.1 4.36,1.73 5.2,1.91 1.36,0.27 2.62,0.09 3.77,-0.54 1.16,-0.63 2.08,-1.77 2.76,-3.42 0.7,-1.67 0.87,-3.07 0.5,-4.22 -0.36,-1.15 -1.03,-2.02 -2,-2.63 -0.97,-0.61 -2.66,-1.42 -5.08,-2.43l-16.91 -7.07 2.49 -5.96 16.06 6.71c3.67,1.53 6.2,2.78 7.58,3.73 1.38,0.95 2.41,2.08 3.1,3.38 0.69,1.29 1.03,2.79 1.05,4.49 0.01,1.7 -0.46,3.71 -1.43,6.04 -1.17,2.8 -2.39,4.79 -3.67,5.95 -1.28,1.16 -2.63,1.94 -4.07,2.33 -1.43,0.39 -2.79,0.47 -4.08,0.24 -1.91,-0.34 -4.58,-1.23 -8,-2.66l-16.31 -6.82zm14.2 -34.29l4.38 -11.98c0.87,-2.38 1.62,-4.11 2.25,-5.2 0.64,-1.1 1.45,-1.98 2.43,-2.66 0.99,-0.68 2.13,-1.13 3.43,-1.35 1.3,-0.22 2.63,-0.08 3.97,0.41 1.45,0.53 2.65,1.4 3.58,2.59 0.94,1.2 1.47,2.55 1.61,4.07 1.22,-1.62 2.67,-2.67 4.37,-3.16 1.69,-0.49 3.43,-0.41 5.23,0.25 1.42,0.52 2.68,1.34 3.79,2.46 1.11,1.12 1.86,2.38 2.26,3.78 0.4,1.39 0.39,2.92 -0.01,4.6 -0.26,1.04 -1.08,3.5 -2.46,7.37l-3.73 10.21 -31.09 -11.37zm7.39 -4.18l7.16 2.62 1.45 -3.96c0.86,-2.35 1.36,-3.83 1.5,-4.43 0.25,-1.08 0.18,-2.03 -0.21,-2.85 -0.4,-0.82 -1.09,-1.4 -2.09,-1.77 -0.96,-0.35 -1.83,-0.38 -2.62,-0.09 -0.79,0.29 -1.43,0.92 -1.92,1.88 -0.29,0.57 -0.96,2.28 -2,5.12l-1.27 3.47zm12.33 4.51l8.34 3.05 2.05 -5.61c0.8,-2.18 1.24,-3.59 1.33,-4.22 0.16,-0.96 0.01,-1.85 -0.44,-2.65 -0.46,-0.81 -1.23,-1.42 -2.34,-1.82 -0.94,-0.34 -1.81,-0.42 -2.62,-0.22 -0.81,0.19 -1.52,0.65 -2.12,1.37 -0.6,0.71 -1.41,2.45 -2.41,5.21l-1.79 4.89zm23.96 -24.57l-31.55 -10.03 7.16 -22.51 5.33 1.7 -5.2 16.35 7.01 2.23 4.83 -15.2 5.33 1.7 -4.83 15.2 8.55 2.72 5.39 -16.95 5.33 1.7 -7.35 23.1z"/>
  </g>
 </g>
</svg>
