<?xml version="1.0" encoding="UTF-8"?>
<!DOCTYPE svg PUBLIC "-//W3C//DTD SVG 1.1//EN" "http://www.w3.org/Graphics/SVG/1.1/DTD/svg11.dtd">
<!-- Creator: CorelDRAW 2020 (64 Bit) -->
<svg xmlns="http://www.w3.org/2000/svg" xml:space="preserve" width="38.5944mm" height="42.7732mm" version="1.1" style="shape-rendering:geometricPrecision; text-rendering:geometricPrecision; image-rendering:optimizeQuality; fill-rule:evenodd; clip-rule:evenodd"
viewBox="0 0 30.97 34.33"
 xmlns:xlink="http://www.w3.org/1999/xlink"
 xmlns:xodm="http://www.corel.com/coreldraw/odm/2003">
 <defs>
  <style type="text/css">
   <![CDATA[
    .fil82 {fill:#020201}
    .fil83 {fill:#050506}
    .fil69 {fill:#060709}
    .fil75 {fill:#0C0C0E}
    .fil76 {fill:#0D0905}
    .fil0 {fill:#111214}
    .fil6 {fill:#131514}
    .fil67 {fill:#14110E}
    .fil13 {fill:#151615}
    .fil46 {fill:#161311}
    .fil45 {fill:#171816}
    .fil39 {fill:#1A1512}
    .fil33 {fill:#1A1614}
    .fil44 {fill:#1D1715}
    .fil5 {fill:#1D1815}
    .fil2 {fill:#1E1916}
    .fil68 {fill:#221615}
    .fil58 {fill:#272727}
    .fil41 {fill:#2B2C2C}
    .fil32 {fill:#2E2F30}
    .fil37 {fill:#333333}
    .fil26 {fill:#373738}
    .fil50 {fill:#3B3B3B}
    .fil55 {fill:#3D3E40}
    .fil25 {fill:#3F4041}
    .fil65 {fill:#474748}
    .fil31 {fill:#4B4B4C}
    .fil42 {fill:#4E4F51}
    .fil22 {fill:#532713}
    .fil17 {fill:#535354}
    .fil21 {fill:#575758}
    .fil36 {fill:#5B5B5C}
    .fil63 {fill:#5D5D60}
    .fil48 {fill:#636364}
    .fil12 {fill:#676767}
    .fil51 {fill:#6B6B6C}
    .fil61 {fill:#6D6E71}
    .fil88 {fill:#703123}
    .fil52 {fill:#713014}
    .fil40 {fill:#716F6F}
    .fil56 {fill:#727474}
    .fil43 {fill:#787676}
    .fil47 {fill:#7C7C7B}
    .fil19 {fill:#7E8081}
    .fil10 {fill:#82817E}
    .fil66 {fill:#898886}
    .fil64 {fill:#8B3016}
    .fil24 {fill:#8C8C8B}
    .fil53 {fill:#944816}
    .fil29 {fill:#949493}
    .fil28 {fill:#999896}
    .fil27 {fill:#9C9C9B}
    .fil60 {fill:#A2A2A2}
    .fil8 {fill:#A4A4A4}
    .fil3 {fill:#A8A8A8}
    .fil54 {fill:#AD5117}
    .fil20 {fill:#B2B1AE}
    .fil80 {fill:#B4B4B3}
    .fil86 {fill:#B5A397}
    .fil16 {fill:#B8B7B6}
    .fil18 {fill:#BABAB9}
    .fil34 {fill:#C2C2C1}
    .fil35 {fill:#C9C8C6}
    .fil57 {fill:#CA5B22}
    .fil11 {fill:#CBCBCA}
    .fil14 {fill:#CDCDCC}
    .fil87 {fill:#D1D1CE}
    .fil15 {fill:#D2D2D1}
    .fil1 {fill:#DA251B}
    .fil77 {fill:#DCDCDB}
    .fil9 {fill:#DEDEDD}
    .fil30 {fill:#DFDFDF}
    .fil62 {fill:#E2BC1B}
    .fil23 {fill:#E4E4E3}
    .fil78 {fill:#E8E6E6}
    .fil85 {fill:#EAEAE9}
    .fil49 {fill:#EB9B18}
    .fil81 {fill:#EBEBEB}
    .fil79 {fill:#EDEEEA}
    .fil74 {fill:#F1F1EE}
    .fil84 {fill:#F2F2F1}
    .fil4 {fill:#F3F3F3}
    .fil71 {fill:#F4F3EE}
    .fil70 {fill:#F4F4F2}
    .fil73 {fill:#F7F7F7}
    .fil72 {fill:#F9F9F6}
    .fil59 {fill:#F9F9F9}
    .fil38 {fill:#FBFBFB}
    .fil7 {fill:#FDFDFD}
   ]]>
  </style>
 </defs>
 <g id="Camada_x0020_1">
  <metadata id="CorelCorpID_0Corel-Layer"/>
  <g id="_2346835438000">
   <path class="fil0" d="M18.89 18.16c0.56,0.41 0.43,0.37 1.2,0.84 -0.93,0.06 -1,-0.64 -1.2,-0.84zm1.08 -0.85l1 0.35c-0.33,0.15 -0.69,0.09 -1,-0.04 -0.32,-0.19 -0.23,-0.12 -0.48,-0.36 -0.15,-0.14 -0.27,-0.23 -0.39,-0.39l0.87 0.44zm0.72 -1.17l1.33 0.09c-0.06,0.04 0.02,0.02 -0.14,0.09 -0.04,0.02 -0.12,0.04 -0.16,0.06 -0.47,0.14 -0.73,0.1 -1.16,0.02 -0.35,-0.11 -0.67,-0.3 -0.87,-0.5 0.29,0.03 0.81,0.07 1,0.25zm-0.82 -1.51c0.16,0.02 1.03,-0.39 1.43,-0.45 0.54,-0.08 1.16,0.03 1.59,0.27 -0.41,0.06 -1.14,0.02 -1.63,0.05 -0.49,0.03 -0.98,0.1 -1.39,0.13zm2.68 -2.42c-0.15,0.11 -0.89,0.27 -1.16,0.36 -0.38,0.12 -0.66,0.26 -1,0.39 0.57,-0.34 1.15,-0.88 2.08,-1.03 0.91,-0.06 1.17,-0.2 2.03,0.26 -0.24,0.08 -0.62,-0.06 -0.94,-0.06 -0.36,0 -0.68,0.07 -1.02,0.08zm0.88 -2.52c-0.1,0.09 -0,0.03 -0.19,0.12 -0.05,0.02 -0.15,0.05 -0.2,0.07 -0.27,0.09 -0.16,0.08 -0.39,0.07 -0.15,0.2 -0.52,0.29 -0.75,0.38 -0.1,0.09 0.09,-0.01 -0.19,0.13 -0.01,0.01 -0.12,0.04 -0.15,0.05 -0.35,0.14 -0.57,0.32 -0.83,0.33 0.34,-0.28 0.71,-0.75 1.16,-0.86 0.25,-0.16 0.52,-0.32 0.85,-0.42l0.7 -0.21c0.59,-0.1 1.13,-0.14 1.59,0.12 -0.53,0.02 -1.24,0.21 -1.61,0.21zm-3.21 -1.16c-0.14,0.79 -0.8,1.67 -1.18,2.25 -0.46,0.71 -0.85,1.3 -1.07,2.31 0,0.33 0,0.14 0.08,0.22l0.21 -0.23c0.09,-0.31 0.67,-1.11 1.16,-1.3 -0.08,0.22 -0.27,0.4 -0.4,0.62 -0.4,0.68 -0.72,1.73 -0.98,2.04 0,-0.1 0.01,-0.34 -0.01,-0.42 -0.05,-0.23 -0.01,-0.11 -0.12,-0.22 -0.24,0.13 -0.28,0.32 -0.34,0.68 -0.17,1.01 -0.5,1.87 -0.99,2.69l-0.39 0.55c-0.14,0.14 -0.04,0.07 -0.21,0.17 -0.2,0.26 -0.28,0.27 -0.64,0.44l-0.55 0.08 -0.23 0.01 -0.28 0.01c-0.06,0.11 -0.06,0.1 -0.16,0.17l0.59 0.12c-0.08,0.05 -0.06,0.02 -0.15,0.1l-0.19 0.16 0.34 0.15 -0.27 0.21 0.1 0.15 0.15 0.07 -0.44 0.04 0.18 0.46 -0.22 -0.06c-0.05,0.27 -0.05,0.27 0.09,0.45l-0.25 -0.05 -0.23 -0.06 -0.07 0.21c-0.23,-0.12 -0.27,0.05 -0.4,-0.1 -0.06,0.4 0.03,0.29 0.05,0.62 0.22,0.11 0.16,0.17 0.35,0.33 0.16,0.14 0.19,0.1 0.34,0.32 0.21,0.13 0.38,0.29 0.44,0.65 0.18,-0.26 0.02,-0.61 -0.03,-0.94l0.17 0.15c0.1,0.1 0.08,0.08 0.14,0.19 0.28,0.48 0.33,1.12 0.19,1.65 -0.16,-0.27 -0.19,-0.46 -0.42,-0.68 0.01,0.65 -0.24,0.7 0.04,1.46 0.16,0.43 0.35,0.79 0.38,1.33l-0.31 -0.19 0.08 0.67 0.42 -0.03c0.01,0.28 -0.04,0.49 -0.09,0.66 0.01,0.01 0.03,-0 0.04,0.01l0.2 -0.02c0.24,-0.1 -0.09,-0.14 0.26,-0.06 -0.02,-0.14 -0.04,-0.16 -0.07,-0.28 -0.02,-0.08 -0.03,-0.06 -0.03,-0.15 0,-0.19 -0.04,0.01 0.03,-0.14 0.06,-0.14 -0.05,-0.09 -0.04,-0.35 0.01,-0.23 -0.04,-0.14 -0.07,-0.42l0.39 0.09c-0.13,-0.85 -0.29,-0.39 -0.06,-0.88 0.01,-0.01 0.02,-0.04 0.02,-0.05l0.34 0.32c-0.38,0.26 0.28,-0.03 -0.25,0.06 -0,0 -0.02,0 -0.03,0.01 0.17,0.19 0.09,0.07 0.15,0.25l0.12 0.46 -0.28 -0.03c-0.3,-0.17 0.07,0.33 0.09,0.36 0.08,-0.07 0.13,-0.1 0.19,-0.16l0.2 -0.24c-0.02,0.48 0.03,0.57 0.12,0.98l0.27 0.01c0.09,-0.24 0.12,-0.24 0.13,-0.5 0.01,-0.45 -0.07,-1.31 -0.18,-1.76 -0.18,-0.73 -0.3,-1.02 -0.18,-1.81 0.18,0.07 0.59,0.34 0.58,0.58 -0.01,0.15 0.01,0.05 -0.1,0.16 -0.12,0.12 0.1,0.36 0.05,1.42 -0.03,0.61 0.3,0.9 0.15,1.39 -0.13,-0.04 -0.02,0.04 -0.18,-0.16l0.14 0.62c0.2,-0.01 0.16,0.01 0.19,-0.22 0.02,-0.16 -0.01,-0.34 -0.02,-0.5 0.08,-0.07 -0.26,-0.19 0.31,-0.08 0.09,0.06 0.04,0.32 0.13,0.5l0.2 0.37 0.23 0.04 -0.11 -0.12c-0.06,-0.29 -0.03,-0.46 -0.14,-0.66l0.26 0.19 -0.02 -0.23 -0.08 -0.31c-0,-0.39 0.01,-0.06 -0.1,-0.39 -0.05,-0.15 -0.05,-0.23 -0.06,-0.39 0.13,-0.01 0.11,0.09 0.18,-0.11 -0.21,-0.18 -0.18,-0.24 -0.25,-0.55l0.47 0.19 0.21 0.04c-0.08,-0.25 -0.07,-0.18 0.07,-0.28l-0.01 -0.51c0.69,0.21 0.09,-0.09 0.46,-0.01 -0.06,-0.23 -0.13,-0.2 -0.18,-0.43 0.2,-0.01 0.45,-0 0.62,-0.11l0.02 -0.22c-0.16,-0.26 -0.54,-0.37 -0.74,-0.91l0.4 0.06c-0.07,-0.25 -0.11,-0.27 -0.22,-0.48l0.5 0.08c-0.03,-0.54 -0.18,-0.55 -0.33,-0.91 0.29,0.31 0.67,0.55 1.23,0.67 -0,-0.37 -0.27,-0.86 -0.41,-1.13 0.62,0.2 0.55,0.61 1.49,0.62 -0.12,-0.7 -0.41,-0.72 -0.57,-1.06 0.37,0.19 0.66,0.37 1.17,0.37l-0.01 -0.47c0.26,-0.02 0.36,-0.02 0.55,-0.15 0.01,-0.28 -0.02,-0.36 -0.11,-0.58l0.57 -0.1c0.02,-0.29 -0.13,-0.52 -0.27,-0.74 0.01,-0.01 0.04,-0.04 0.05,-0.03l0.44 -0.18c0.02,-0.29 -0.1,-0.51 -0.24,-0.65l0.63 -0.1c-0.01,-0.28 -0.18,-0.47 -0.29,-0.61l0.4 -0.02c0.04,-0.23 -0.01,-0.38 -0.1,-0.6l0.42 -0.13 -0.09 -0.31c0.18,-0.12 0.19,-0.18 0.37,-0.27 -0.01,-0.26 -0.04,-0.27 -0.12,-0.43 0.04,-0.02 0.04,-0.01 0.13,-0.05l0.21 -0.09 -0.08 -0.32 0.33 -0.12 -0.29 -0.37 0.48 -0.16c-0.03,-0.28 -0.11,-0.41 -0.31,-0.54l0.92 0.02c0.08,-0.22 -0.06,-0.32 -0.21,-0.46l-0.16 -0.14c0.41,0.05 1.06,0.15 1.42,-0.13 -0.37,-0.24 -0.84,-0.26 -1.21,-0.54 0.82,0 1.94,-0.01 2.33,-0.55 -1.04,-0.29 -1.24,-0.04 -2.13,-0.11 0.6,-0.17 0.56,-0.29 1.54,-0.35 0.57,-0.03 1.33,0.13 1.72,-0.39 -2.33,-0.3 -1.36,-0.04 -3.02,0.02 0.4,-0.29 1.1,-0.35 1.69,-0.41 0.32,-0.03 0.55,-0.05 0.86,-0.14 0.37,-0.11 0.49,-0.16 0.71,-0.4 -0.61,-0.13 -1.28,-0.16 -1.94,-0.08 -0.74,0.09 -1.48,0.41 -1.7,0.27 1.44,-0.63 3.11,-0.53 3.47,-1.44 -0.64,0.14 -1.37,0.13 -2.05,0.28 -0.76,0.16 -1.2,0.46 -1.81,0.61 0.27,-0.46 1.1,-0.69 1.58,-0.84 0.67,-0.2 1.16,-0.34 1.71,-0.69 -0.02,-0.01 -0.04,-0.04 -0.05,-0.02l-0.2 -0.07c-0.29,-0.06 -0.82,0.01 -1.1,0.06 -1.64,0.29 -2.36,0.97 -3.44,1.25 0.81,-1.24 3.43,-0.87 3.85,-2.33 -0.24,0.05 -1.01,0.4 -1.38,0.52 -0.52,0.17 -0.94,0.31 -1.45,0.52 -0.48,0.2 -0.88,0.42 -1.3,0.67 -0.49,0.29 -0.79,0.61 -1.13,0.83 0.63,-1.37 3.26,-1.55 3.45,-3.17 -1.37,0.34 -4.16,2.55 -5.03,3.71 -0.14,0.18 -0.49,0.51 -0.56,0.66 0.05,-0.55 0.7,-0.97 0.39,-1.69 -0.16,0 -0.13,0.06 -0.23,0.26z"/>
   <path class="fil0" d="M9.54 20.89c0.08,-0.18 0.01,-0.05 0.12,-0.21 0.2,-0.28 0.16,-0.05 0.46,-0.49 0.12,-0.17 0.45,-0.56 0.59,-0.67 -0.16,0.63 -0.44,1.22 -1.17,1.37zm-1.32 -0.86c0.12,-0.15 0.08,-0.09 0.25,-0.21l0.75 -0.55c0.23,-0.09 0.09,-0.07 0.18,0.01 0.33,0.31 -0.8,0.72 -1.18,0.75zm5.82 2.46c0.02,-0.47 -0.5,-0.62 -0.73,-1.15l-0.41 -0.88c-0.23,0.23 -0.42,0.66 -0.36,1.04l0.22 0.01 -0.18 0.11 -0.36 -0.05c-0.23,-0.15 -0.28,-0.21 -0.31,-0.51 -0.03,-0.3 0.02,-0.48 -0.05,-0.81 -0.21,-0.14 -0.1,-0.06 -0.19,-0.27 -0.13,0.03 -0.06,-0.65 -0.05,-0.75 0.03,-0.3 0.15,-0.47 0.31,-0.62 0.16,-0.15 0.97,-0.43 1.23,-0.54 0.08,-0.08 -0.14,-0.23 0.17,-0.09 -0.26,-0.03 -0.4,-0.09 -0.59,-0.24l-0.71 -0.76c-0.19,-0.16 -0.47,-0.56 -0.55,-0.86 -0.2,-0.24 -0.25,-0.55 -0.63,-0.61l0 0.3c0.16,0.18 0.1,0.13 0.2,0.43 0.07,0.19 0.13,0.25 0.19,0.46 -0.52,-0.24 -0.67,-0.53 -0.86,-1.11 -0.3,-0.38 -0.34,-0.46 -0.71,-0.76 -0.36,-0.28 -0.49,-0.31 -0.91,-0.53 1.05,-0.15 1.57,0.89 1.93,0.74 -0.08,-0.21 -0.11,-0.31 -0.25,-0.5 -0.12,-0.17 -0.21,-0.23 -0.28,-0.42 -0.41,-0.56 -1.43,-1.13 -2,-1.65 -0.18,-0.16 -0.12,-0.05 -0.24,-0.26 -0.44,-0.24 -0.53,-0.19 -1.09,-0.58 -0.2,-0.14 -0.15,-0.18 -0.39,-0.24 0.14,0.91 0.51,0.9 0.92,1.48 -1.22,-0.75 -3.85,-1.88 -5.72,-1.43 0.32,1.23 1.93,0.71 3.88,1.3 -0.9,-0.1 -1.33,-0.31 -2.42,-0.18 -0.91,0.11 -1.59,0.21 -2.54,0.19 0.09,0.14 -0.02,0.01 0.14,0.17 0.91,0.86 2.69,0.31 3.7,0.39 -0.37,0.18 -1.8,0.16 -2.36,0.3 -0.52,0.13 -1.6,0.44 -1.82,0.97 0.96,-0.08 2.26,-0.33 3.2,-0.22 -0.4,0.16 -0.81,-0 -1.87,0.39 -0.39,0.14 -1.34,0.55 -1.56,0.74 0.34,0.43 1.24,0.16 1.67,-0.01 0.41,-0.16 1.26,-0.59 1.67,-0.25 -1.12,0.14 -1.97,0.62 -2.78,1.24 -0.32,0.24 -0.24,0.15 -0.33,0.36 1.35,0.11 1.75,-0.81 2.96,-0.8l-2.36 1.41c-0.14,0.15 -0.04,0.01 -0.14,0.19 1.24,0.07 1.24,-0.8 2.87,-1.01l-0.46 0.29c-0.4,0.19 -0.98,0.52 -1.19,0.9 0.5,0.39 1.72,-0.41 2.07,-0.63 -0.17,0.45 -0.72,0.85 -0.86,1.16 0.47,-0.03 1.1,-0.43 1.25,-0.63l-0.24 0.77c0.35,-0.06 0.64,-0.29 0.86,-0.46 -0.13,0.49 -0.32,0.79 0.34,0.56l-0.12 0.46c0.09,0.06 0.02,0.08 0.34,0.04l0.02 0.36 0.35 -0.07c-0.08,0.48 -0.08,0.54 0.42,0.58l-0 0.32c0.22,0.01 0.26,-0.02 0.41,-0.08l0.07 0.51c0.22,-0.05 0.41,-0.2 0.45,-0.32l-0.04 0.57c0.39,-0.1 0.41,-0.22 0.67,-0.34l-0.02 0.53 0.3 -0.02c0.15,-0.07 0.14,-0.11 0.31,-0.2l-0.01 0.7c0.35,-0.04 0.38,-0.17 0.62,-0.27l0.13 0.5 0.53 -0.13c0.08,0.22 0.04,0.26 0.17,0.41 0.23,-0.11 0.76,-0.69 0.84,-1.02 -0.06,0.54 -0.24,0.69 -0.19,1.4 0.99,-0.29 0.72,0.13 1.1,-0.08 0.19,-0.1 0.52,-0.53 0.66,-0.74l-0.07 1.1c0.29,-0.11 0.27,-0.09 0.37,-0.32l0.06 0.17c0.07,0.26 -0.08,0 0.07,0.24 0.16,-0.13 0.13,-0.12 0.28,-0.28l0.23 0.41 0.33 -0.23c0.13,-0.09 0.3,-0.21 0.45,-0.28z"/>
   <path class="fil1" d="M7.92 11.69c0.47,0.35 1.81,0.72 2.88,2.16 0.57,0.76 2.29,3.43 3.05,3.69 2.34,0.79 2.74,-3.57 3.21,-5.09 0.28,-0.91 0.69,-1.63 1.15,-2.25 0.54,-0.74 1.32,-1.42 1.56,-1.84 -0.68,-0.47 -2.43,-0.83 -3.41,-0.89 -2.74,-0.18 -5.91,1.07 -7.5,3.04l-0.95 1.18z"/>
   <path class="fil1" d="M22.64 23.29c0.32,-0.53 1.35,-1.22 2.11,-3.62 0.48,-1.52 0.6,-3.43 0.17,-5.03 -0.2,0.13 -0.04,-0.02 -0.38,0.61 -0.08,0.15 -0.05,0.2 -0.12,0.36 -0.13,0.3 -0.16,0.09 -0.24,0.43l-0.14 0.61c-0.04,0.38 -0.02,0.5 -0.39,0.59 0.03,0.61 0.03,0.48 -0.28,0.83 0.06,0.24 0.16,0.44 -0.02,0.68 -0.09,0.12 -0.21,0.17 -0.26,0.22 -0.22,0.24 -0.04,0.09 -0.15,0.4 -0.14,0.4 -0.31,0.17 -0.51,0.49 -0.21,0.33 -0.09,0.4 -0.63,0.43 0.05,0.68 -0.34,0.75 -0.97,0.64 -0.26,0.33 -0.1,0.75 -0.95,0.44 -0.01,0.01 -0.03,0.02 -0.04,0.04l-0.11 0.11c-0.21,0.23 -0.26,0.27 -0.22,0.5 0.48,0.19 1.4,-0.23 2.09,-0.1 0.49,0.1 1.64,0.7 0.82,1.13l0.2 0.23z"/>
   <path class="fil2" d="M7.92 11.69l0.95 -1.18c1.59,-1.97 4.76,-3.22 7.5,-3.04 0.98,0.06 2.72,0.41 3.41,0.89 0.34,-0.3 0.17,-0.53 0.83,-0.59 -0.04,-0 -1.32,-0.58 -1.62,-0.68 -0.64,-0.21 -1.31,-0.36 -2.01,-0.44 -1.53,-0.16 -2.94,-0.01 -4.32,0.43 -2.15,0.69 -3.67,1.87 -4.99,3.51 -0.18,0.22 -0.37,0.49 -0.49,0.78l0.75 0.31z"/>
   <path class="fil1" d="M13.73 26.08c0.01,-0 0.18,-0 0.19,-0 0.11,-0.02 0.12,-0.03 0.16,-0.05 0.02,-0.54 -0.11,-0.88 -0.22,-1.36 -0.15,-0.64 -0.03,-0.91 -0.07,-1.49 -0.58,0.24 -0.2,0.53 -1.01,0.19 -0.18,-0.07 -0.4,-0.1 -0.59,-0.17 -0.38,-0.14 -0.12,-0.13 -0.39,-0.35 -0.32,0.17 -0.33,0.04 -0.62,0 -0.59,-0.09 -0.41,0.36 -0.98,-0.16 -0.37,-0.34 0.08,0.14 -0.7,-0.32 -0.19,-0.11 -0.24,-0.06 -0.41,-0.14 -0.14,-0.07 -0.14,-0.13 -0.29,-0.17 -0.18,-0.05 -0.16,0.04 -0.4,-0.02 -0.5,-0.13 0.02,-0.3 -0.67,-0.44 0.32,0.87 1.64,2.19 2.46,2.8 1.74,1.29 3.13,1.4 3.54,1.69z"/>
   <path class="fil3" d="M30.97 17.76l0 -1.98c-0.06,-0.16 -0.26,-1.96 -0.55,-3 -0.13,-0.46 -0.27,-0.89 -0.44,-1.33 -0.15,-0.4 -0.4,-0.87 -0.52,-1.26 -0.1,0.13 -0.21,0.3 -0.29,0.41 0.13,0.43 0.39,0.91 0.55,1.38 0.18,0.51 0.32,0.99 0.44,1.53 1.1,4.76 -0.14,9.08 -3.02,12.76 -0.65,0.82 -1.05,1.11 -1.71,1.75 -1.09,1.06 -3.21,2.16 -4.63,2.71l-0.08 0.45c1.05,-0.16 3.19,-1.47 3.91,-1.99 1.23,-0.88 2.12,-1.76 3.03,-2.88 1.62,-1.98 2.77,-4.6 3.15,-7.25 0.05,-0.33 0.08,-1.09 0.16,-1.32z"/>
   <path class="fil4" d="M13.98 29.65c-0.25,0.11 -0.24,0.34 -0.42,0.52 0,0 0.02,-0 0.02,0 0.05,0.28 -0.19,-0.38 0.23,0.3 0.6,0.96 0.26,0.54 0.93,0.96 0.01,0.01 0.03,0.02 0.04,0.03 0.29,0.17 0.73,0.24 1.1,0.24l0.07 0.09c0.07,0.09 0.02,0.03 0.06,0.08 0.19,-0.15 0.03,-0.22 0.29,-0.39 0.26,0.07 0.54,0.11 0.81,0.09l0.1 -0.03c0.02,-0.28 -0.03,-0.03 0.07,-0.17l0.61 -0.88c0.15,-0.29 0.1,-0.74 0.1,-1.13 -0,-0.13 0,-0.34 -0.02,-0.46 -0.05,-0.24 -0.05,-0.09 -0.14,-0.38l0.21 -0.09 -0.24 -0 -1.31 -0.12c-0.21,0.42 -0.67,0.96 -0.95,1.46 -0.51,0.03 -1.05,-0.2 -1.55,-0.11z"/>
   <path class="fil2" d="M24.92 14.65c0.43,1.59 0.32,3.51 -0.17,5.03 -0.76,2.39 -1.8,3.08 -2.11,3.62 0.33,0.56 0.32,0.85 -0.51,0.95 0.04,0.15 0.13,0.34 0.21,0.48 0.53,-0.29 1.46,-1.41 1.87,-1.99 1.8,-2.56 2.33,-5.94 1.37,-8.97l-0.18 -0.4c-0.3,0.99 -0.33,0.6 -0.48,1.29z"/>
   <path class="fil5" d="M4.05 11.1c0.56,0.08 0.28,0.16 0.86,-0.81 0.21,-0.35 0.47,-0.72 0.71,-1.05 0.98,-1.32 1.41,-1.66 2.66,-2.64 0.3,-0.24 0.69,-0.49 1.06,-0.7 0.74,-0.44 1.58,-0.83 2.47,-1.12 3.33,-1.09 7.14,-0.77 10.2,0.99 0.33,0.19 0.88,0.57 1.15,0.69 0.16,-0.16 0.08,-0.1 0.29,-0.17 -0.28,-0.43 -1.86,-1.2 -2.28,-1.38 -0.85,-0.38 -1.78,-0.71 -2.77,-0.9 -3.69,-0.72 -7.73,0.15 -10.64,2.49 -0.12,0.1 -0.18,0.13 -0.27,0.21 -1.21,1 -2.87,2.83 -3.46,4.4z"/>
   <path class="fil0" d="M19.65 22.56l0.01 0.44c-0.29,0.11 -0.32,0.03 -0.6,-0.05 0.17,0.34 0.27,0.2 0.33,0.47l0.01 0.13c0.03,0.12 -0.02,0 0.07,0.14l-0.17 -0.06 0.04 0.35c-0.14,0.1 -0.08,0.07 -0.31,-0.01 0.15,0.35 0.2,0.26 -0.2,0.27 -0.19,0.01 -0.33,-0.03 -0.5,-0.06l-0.22 -0.04 0.05 0.17c0.08,0.2 0.18,0.31 0.29,0.55 -0.09,0.03 -0.2,-0.01 -0.32,0.06l0.08 0.22 0.3 0.52c-0.15,-0.04 -0.14,-0.06 -0.21,-0.07 -0.23,-0.05 -0.05,-0.03 -0.15,0.02 0.01,0.01 0.03,0.02 0.03,0.04 0,0.02 0.02,0.03 0.03,0.04l0.16 0.27 0.39 0.25 -0.25 -0.95c0.17,0.12 0.25,0.46 0.66,0.98l0.07 -0.07c0.06,-0.06 0.25,-0.1 0.22,-0.95 0.26,0.33 0.36,0.53 0.79,0.71 0.04,-0.38 0.08,-0.51 -0.04,-0.85 0.27,0.12 0.47,0.27 0.83,0.37 -0.02,-0.5 -0.05,-0.51 -0.24,-0.85l0.01 -0.08c0.32,0.16 0.64,0.27 1.05,0.22 -0.15,-0.44 -0.38,-0.73 -0.77,-0.93 0.41,0 0.97,0.12 1.31,-0.08 -0.25,-0.39 -0.53,-0.43 -1.02,-0.68l0.66 -0.19c0.01,-0.01 0.03,-0.02 0.04,-0.03l0.14 -0.13c-0.76,-0.63 -1.61,-0.28 -2.57,-0.13z"/>
   <path class="fil5" d="M27.46 11.77c1.41,3.68 1.47,7.07 -0.23,10.65 -0.87,1.82 -1.57,2.48 -2.79,3.73 -1.56,1.61 -3.8,2.42 -3.97,2.58l0.11 0.31c1.43,-0.38 2.53,-1.33 3.65,-2.15 0.39,-0.29 1.34,-1.29 1.66,-1.67 2.52,-2.98 3.54,-7.11 2.74,-11.05 -0.14,-0.67 -0.5,-2.13 -0.85,-2.55l-0.32 0.14z"/>
   <path class="fil3" d="M12.22 31.6c-0.16,-0.8 -0.2,-0.35 -1.98,-1.08 -1.2,-0.49 -2.89,-1.45 -3.82,-2.29 -0.19,-0.17 -0.25,-0.19 -0.42,-0.33l-1.86 -2.01c-0.7,-0.93 -1.23,-1.79 -1.74,-2.89 -0.69,-1.48 -1.13,-3.08 -1.29,-4.89l-0.44 -0.05c0.17,1.8 0.57,3.49 1.28,4.99 0.6,1.29 0.95,1.88 1.74,2.95 1.05,1.44 2.58,2.78 4.08,3.74 1.15,0.73 2.89,1.54 4.45,1.87z"/>
   <path class="fil2" d="M13.73 26.08c-0.41,-0.29 -1.8,-0.39 -3.54,-1.69 -0.83,-0.61 -2.14,-1.94 -2.46,-2.8 -0.18,-0.14 -0.1,-0.04 -0.18,-0.26 -0.59,0.11 -0.42,-0.03 -0.97,-0.34 -0.12,-0.07 -0,-0.01 -0.18,-0.09 0.41,1.44 2.06,3.23 2.94,3.94 1.21,0.98 2.01,1.28 3.49,1.86 0.42,-0.42 0.06,-0.47 0.9,-0.61z"/>
   <path class="fil5" d="M12.19 29.35l0.07 -0.31c-2.23,-0.42 -5.07,-2.6 -5.93,-3.72 -0.8,-1.03 -1.23,-1.39 -1.94,-2.88 -0.26,-0.54 -0.5,-1.09 -0.69,-1.69 -0.21,-0.67 -0.29,-1.31 -0.48,-1.97l-0.38 -0.08c0.04,1.12 0.72,2.93 1.16,3.84 0.9,1.85 1.06,1.75 2.01,3.02 0.38,0.51 1.41,1.39 1.95,1.79 0.81,0.6 3.03,1.88 3.97,2.02 0.1,0.02 -0.07,0.01 0.1,0.01 0.13,-0 0.08,0 0.16,-0.03z"/>
   <path class="fil2" d="M16.81 0l-0.61 0 -0.22 3.22 0.72 0.03 0.05 -1.64c0.27,0.42 0.2,1.23 0.51,1.63 0.16,0.11 0.5,0.1 0.75,0.11l0.22 -3.23 -0.73 -0.04 -0.05 1.75c-0.14,-0.31 -0.28,-1.05 -0.38,-1.46 -0.09,-0.37 -0.01,-0.25 -0.27,-0.38z"/>
   <path class="fil2" d="M10.39 3.02c-0.28,0.05 -0.55,0.17 -0.71,0.31 0.09,0.32 0.23,0.42 0.12,0.76 -0.54,0.1 -0.57,-0.41 -0.79,-0.89 -0.21,-0.45 -0.52,-0.82 -0.2,-1.15 0.29,0.04 0.37,0.2 0.45,0.47l0.72 -0.29c-0.29,-0.8 -0.79,-1.1 -1.62,-0.6 -0.77,0.46 -0.34,1.24 -0.03,1.9 0.29,0.62 0.48,1.46 1.4,1.18 1.33,-0.41 0.71,-1.48 0.66,-1.71z"/>
   <path class="fil5" d="M12.93 0.96c0.09,0.24 0.46,1.07 0.38,1.32l-0.35 0.05 -0.02 -1.37zm-0.53 -0.6c-0.11,0.36 -0.18,2.81 -0.14,3.3l0.73 -0.12c0,-0.32 -0.05,-0.41 0.05,-0.64l0.51 -0.08 0.22 0.58 0.74 -0.13 -1.22 -3.03 -0.88 0.13z"/>
   <path class="fil2" d="M4.25 4.65c0.31,0.23 0.52,0.56 0.76,0.86 0.26,0.33 1.1,1.37 1.38,1.51 0.23,-0.3 0.35,-0.33 0.63,-0.58l0.65 -0.61 -0.42 -0.4c-0.22,0.11 -0.56,0.46 -0.74,0.62 -0.16,-0.1 -0.39,-0.36 -0.47,-0.55 0.18,-0.17 0.24,-0.13 0.51,-0.41l0.17 -0.18c-0.12,-0.21 -0.25,-0.32 -0.42,-0.47 -0.27,0.21 -0.46,0.49 -0.77,0.57l-0.28 -0.45c0.16,-0.17 0.51,-0.4 0.68,-0.61 -0.11,-0.2 -0.14,-0.29 -0.37,-0.47 -0.14,0.05 -1.19,0.9 -1.31,1.17z"/>
   <path class="fil6" d="M16.02 31.87l-0.02 0.24c0.11,0.13 0.03,0.11 0.11,-0.01l0.15 -0.29 0.01 -0.16 1.59 0.12c0.13,0.02 0.09,0.02 0.13,0.04l0.11 0.55 0 0.28c-0.48,-0 -0.83,-0.03 -1.24,-0.1 -0.89,-0.15 -0.83,0.08 -0.98,-0.33l-0.02 -0.02 -0.14 0.22c-0.11,0.2 -0.05,0.12 -0.23,0.23 -0.14,0.28 -0.12,0.05 -0.08,0.33l1.08 0.9c0.72,-0.04 1.39,-0.27 1.78,-0.68l0.02 -0.02 -0.06 -0.9 -0.08 -0.48c-0.14,-0.24 0.02,-0.1 -0.26,-0.15 -0.01,-0 -0.24,0 -0.28,0 -0.24,-0 -0.31,0.01 -0.46,-0.09 -0.27,0.02 -0.55,-0.02 -0.81,-0.09 -0.27,0.17 -0.1,0.24 -0.29,0.39z"/>
   <path class="fil6" d="M14.36 27.77c0.24,-0.02 0.5,-0.16 0.74,-0.27 0.34,-0.17 0.43,-0.06 0.57,0.18l0.22 0.17c-0,0 -0.02,0 -0.03,0.03l-1.76 1.2c-0.01,0.01 -0.03,0.02 -0.05,0.03l-0.1 0.06c0.01,-0.11 0.04,-0.04 0,-0.16 -0.05,-0.17 -0,-0.09 -0.11,-0.19l0.13 0.83c0.5,-0.08 1.04,0.14 1.55,0.11 0.28,-0.5 0.74,-1.04 0.95,-1.46l-0.01 -0.09 -0.9 -0.97c-0.44,0.11 -0.88,0.31 -1.22,0.53z"/>
   <path class="fil7" d="M11.67 19.98l0.35 -0.04c0.24,-0.01 0.1,0.14 0.39,-0.03 0.42,-0.33 -0.37,-0.39 0.72,-1.03 0.19,-0.17 0.26,-0.21 0.91,0.11 0.31,0.15 0.24,0.24 0.25,0.31 0.1,0.34 -0.05,0.05 0.25,0.18l-0.1 -0.15 0.27 -0.21 -0.34 -0.15 0.19 -0.16c0.09,-0.07 0.07,-0.04 0.15,-0.1l-0.59 -0.12c0.09,-0.07 0.09,-0.07 0.16,-0.17l-0.22 -0.07 -0.22 -0.04c-0.04,-0.09 -0.12,0.12 -0,-0.24l-0.16 0.01 -0.52 -0c-0.26,0.11 -1.07,0.39 -1.23,0.54 -0.16,0.15 -0.28,0.32 -0.31,0.62 -0.01,0.1 -0.09,0.77 0.05,0.75z"/>
   <path class="fil8" d="M13.43 31.72l0.25 0.51 0.18 0.32 -0.23 0.41c0.53,0.14 0.88,0.93 2.2,1.09 0.6,0.07 0.4,-0.04 0.46,0.25 0.13,-0.02 0.06,0.04 0.11,-0.03 0.08,-0.19 -0.22,-0.15 0.2,-0.15 0.31,-0.42 -0.13,-0.08 0.17,0.02 0.51,-0.05 0.83,-0.11 1.22,-0.3 0.23,-0.11 0.8,-0.52 0.92,-0.54l-0.67 -0.1c-0.39,0.41 -1.06,0.64 -1.78,0.68 -0.17,0.07 -0.48,-0.01 -0.7,-0.05 -0.51,-0.09 -0.91,-0.33 -1.28,-0.63 -0.01,-0.01 -0.03,-0.02 -0.04,-0.03 -0.01,-0.01 -0.03,-0.02 -0.04,-0.03 -0.32,-0.23 -0.22,-0.01 -0.3,-0.31 0.03,-0 0.73,0.09 0.82,0.22l0.46 -0.06c-0.04,-0.28 -0.07,-0.05 0.08,-0.33 -0.26,-0.11 -0.73,-0.14 -1.13,-0.38 -0.1,-0.06 -0.16,-0.1 -0.26,-0.16 -0.7,-0.4 -0.44,-0.44 -0.65,-0.38z"/>
   <path class="fil9" d="M13.24 28.23c0.11,-0.02 0.14,-0.02 0.27,-0.03 -0.15,0.21 -0.3,0.85 -0.35,1.15 -0.04,0.26 0.01,0.44 0.08,0.69l0.04 0.11c0.31,0.31 -0.37,-0.15 0.22,0.09l-0.15 0.34c0.22,0.25 0.14,-0.26 0.12,0.05 0.2,0.18 0.08,0.12 0.23,0.35l0.1 0.12c0.34,0.39 0.25,0.38 0.65,0.59 0.31,0.16 0.12,0.16 0.49,0.3 0.41,0.15 0.64,0.04 0.9,0.2l0.02 0.02 0.13 -0.11 0.02 -0.24c-0.04,-0.04 0.01,0.01 -0.06,-0.08l-0.07 -0.09c-0.37,0.01 -0.81,-0.07 -1.1,-0.24 -0.01,-0.01 -0.03,-0.02 -0.04,-0.03 -0.67,-0.43 -0.33,-0.01 -0.93,-0.96 -0.43,-0.68 -0.18,-0.02 -0.23,-0.3 -0,-0.01 -0.02,0 -0.02,-0 0.18,-0.18 0.16,-0.41 0.42,-0.52l-0.13 -0.83 0.05 -0.69 0.04 -0.06 -0.44 0.01 -0.19 -0.07c-0.12,0.08 -0.12,-0.18 -0.08,0.21z"/>
   <path class="fil10" d="M18.21 32.28l0.06 0.9 0.61 -0.05 -0.23 -0.1c0.19,-0.1 0.34,-0.34 0.49,-0.5 0.47,-0.47 0.81,-1.41 0.72,-2.16l0.17 -0.05c-0.21,-0.14 -0.47,-0.14 -0.75,-0.15l0.12 0.12c0.01,-0.01 0.03,0.02 0.05,0.03 -0.2,0.2 -0,0.12 -0.23,0.59 -0.12,0.24 -0.18,0.24 -0.34,0.48 -0.01,0.01 -0.02,0.03 -0.03,0.04 -0.34,0.57 -0.19,0.28 -0.51,0.64 -0.06,0.07 -0.05,0.09 -0.14,0.19z"/>
   <path class="fil11" d="M13.24 28.23c-0.19,0.07 -0.06,-0.03 -0.2,0.18l-0.4 0.96c-0.12,0.44 -0.11,0.71 -0.15,1.14 -0.01,0.12 -0.04,0.33 0.05,0.44 -0.02,-0.32 -0.03,-0.11 0.09,-0.16l0.41 0.14c0.01,-0.07 -0.01,-0.26 0.16,-0.24 0.01,0 0.03,0.02 0.03,0.02 0.01,0 0.02,0.02 0.03,0.03 0.22,0.17 0.02,-0.06 0.11,0.25 0.08,0.27 0.35,0.39 0.66,0.7 0.51,0.51 1.04,0.5 1.68,0.72l0.14 -0.22c-0.27,-0.16 -0.49,-0.05 -0.9,-0.2 -0.38,-0.14 -0.19,-0.14 -0.49,-0.3 -0.39,-0.21 -0.31,-0.21 -0.65,-0.59l-0.1 -0.12c-0.15,-0.23 -0.03,-0.17 -0.23,-0.35 0.02,-0.31 0.11,0.19 -0.12,-0.05l0.15 -0.34c-0.59,-0.24 0.09,0.22 -0.22,-0.09l-0.04 -0.11c-0.07,-0.25 -0.12,-0.43 -0.08,-0.69 0.05,-0.29 0.2,-0.94 0.35,-1.15 -0.13,0.01 -0.16,0.01 -0.27,0.03z"/>
   <path class="fil3" d="M20.86 2.98c2.54,1.08 2.15,0.96 4.02,2.25 0.25,0.17 0.28,0.09 0.57,-0.07 -0.23,-0.32 -1.6,-1.19 -2.05,-1.45 -0.69,-0.39 -1.57,-0.88 -2.4,-1.12l-0.13 0.39z"/>
   <path class="fil12" d="M19.18 9.78c0.05,0.22 -0.45,1.08 -0.58,1.34 -0.1,0.2 -0.08,0.11 -0.16,0.23l-0.77 1.63c-0.34,0.62 -0.24,0.88 -0.48,0.76l-0.2 1c0.27,0.13 0.28,-0.25 0.52,-0.71l0.17 -0.37c0.01,-0.01 0.02,-0.03 0.02,-0.04 0.01,-0.01 0.02,-0.03 0.02,-0.04 0.04,-0.07 0.06,-0.13 0.1,-0.22l0.17 -0.27c0.22,-1.01 0.6,-1.6 1.07,-2.31 0.38,-0.58 1.03,-1.46 1.18,-2.25 -0.23,0.24 -0.27,0.38 -0.54,0.64 -0.2,0.19 -0.42,0.4 -0.51,0.62z"/>
   <path class="fil13" d="M18.34 28.54c0.13,0.23 0.17,0.03 0.23,0.36 0.34,0.2 0.46,0.81 0.52,1.24l0.2 0.04c0.28,0.01 0.54,0.02 0.75,0.15l0.16 -0.19 -0.06 -0.79c-0.04,-0.38 -0.1,-0.6 -0.3,-0.83 -0.06,0.21 -0.02,0.1 -0.08,0.19l-0.96 0.13 -0.37 -0.28 0.09 -0.18 0.06 -0.22 -0.25 0.38z"/>
   <path class="fil14" d="M17.22 31.53c0.64,0.18 0.5,0.04 0.8,-0.32 0.94,-1.14 0.45,-1.57 0.54,-2.32 -0.06,-0.33 -0.1,-0.12 -0.23,-0.36 -0.25,-0.18 -0.06,-0.11 -0.3,-0.11l-0.21 0.09c0.08,0.29 0.09,0.13 0.14,0.38 0.02,0.12 0.02,0.34 0.02,0.46 0,0.39 0.06,0.85 -0.1,1.13l-0.61 0.88c-0.09,0.14 -0.04,-0.12 -0.07,0.17z"/>
   <path class="fil15" d="M15.1 26.6c-0.15,0.19 -0.02,0.12 -0.31,0.2l-0.36 0.16c-0.06,0.07 -0.04,0.07 -0.12,0.14 -0.26,0.2 -0.53,-0.04 -0.75,0.33l0.07 0.01 0.24 -0.06c-0.06,0.08 -0.03,0.05 -0.1,0.13l-0.24 0.23 -0.14 0.13c0.16,0.12 0.07,-0.09 0.12,0.22l0.44 -0.01c0.07,-0.08 0.12,-0.11 0.24,-0.21 -0.13,-0.13 0.02,-0.08 0.17,-0.09 0.34,-0.21 0.78,-0.41 1.22,-0.53 0.19,-0.06 0.36,-0.24 0.45,-0.4l0.05 -0.2c-0.16,-0.12 -0.1,-0.12 -0.15,-0.18l-0.33 0.06c-0.35,-0.08 -0.02,-0.04 -0.26,0.06l-0.2 0.02c-0.01,-0.01 -0.03,-0.01 -0.04,-0.01z"/>
   <path class="fil16" d="M17.2 27.34c0.27,0.01 0.02,-0.08 0.25,0.11l0.63 0.76c0.01,0.01 0.03,0.03 0.04,0.05l-0.32 0.16 0.24 0c0.24,-0 0.04,-0.06 0.3,0.11l0.25 -0.38c-0.01,-0.22 0.07,-0.27 0.22,-0.5 0.28,0.05 0.56,0.14 0.55,0.36 0.18,0.22 0.03,0.11 0.27,0.22 -0.12,-0.32 -0.35,-0.5 -0.56,-0.71 -0.19,-0.19 -0.55,-0.4 -0.64,-0.59l-0.17 0.11c0.06,0.3 0.09,0.16 0.06,0.49 -0.31,-0.38 -0.17,-0.96 -1.01,-0.77 -0.1,0.15 -0.07,0.35 -0.12,0.59z"/>
   <path class="fil17" d="M17.98 13.09l-0.17 0.27c-0.04,0.09 -0.07,0.14 -0.1,0.22 -0.01,0.01 -0.02,0.03 -0.02,0.04 -0.01,0.01 -0.02,0.03 -0.02,0.04l-0.17 0.37c-0.24,0.46 -0.25,0.84 -0.52,0.71 -0.4,1.26 -0.6,2.2 -1.42,2.91l0.06 0.15c-0.15,0.21 -0.18,0.23 -0.26,0.51 0.36,-0.17 0.44,-0.18 0.64,-0.44 0.03,-0.32 0.28,-0.64 0.49,-1.1l1.11 -2.31c0.06,-0.36 0.1,-0.55 0.34,-0.68l0.15 -0.19c0,-0.01 0.09,-0.15 0.11,-0.17 0.11,-0.17 0.19,-0.22 0.08,-0.37l-0.21 0.23c-0.07,-0.07 -0.07,0.11 -0.08,-0.22z"/>
   <path class="fil17" d="M14.15 22.49c0.02,0.3 0.1,0.5 0.09,0.88 -0.07,1.8 0.36,1.59 0.27,2.76l0.31 -0.03 -0.03 -0.13 -0.08 -0.67 0.31 0.19c-0.03,-0.54 -0.22,-0.9 -0.38,-1.33 -0.28,-0.76 -0.03,-0.81 -0.04,-1.46 0.07,-0.22 0.05,-0.07 0.03,-0.19 -0,-0.01 -0.08,-0.17 -0.08,-0.18 -0.06,-0.36 -0.24,-0.52 -0.44,-0.65 0,0.13 0.08,0.68 0.06,0.8z"/>
   <path class="fil18" d="M20.38 28.52l0.69 -0.29c-0.16,-0.43 -0.64,-0.86 -0.94,-1.09 -0.18,-0.14 -0.37,-0.26 -0.57,-0.39 -0.33,-0.21 0.14,0.02 -0.79,-0.11 0.17,0.28 0.47,0.37 0.88,0.84l0.71 1.04z"/>
   <path class="fil3" d="M1.83 10.96l0.48 -0.01c0.27,-0.87 1.09,-2.08 1.52,-2.73l-0.31 -0.24c-0.35,0.29 -1.51,2.37 -1.69,2.98z"/>
   <path class="fil19" d="M17.18 13.75c0.25,0.12 0.15,-0.14 0.48,-0.76l0.77 -1.63c0.08,-0.12 0.05,-0.03 0.16,-0.23 0.14,-0.27 0.63,-1.12 0.58,-1.34 -0.15,0.1 -0.07,0.05 -0.2,0.17 -0.01,0.01 -0.13,0.14 -0.16,0.18 -0.87,1.06 -1.35,2.21 -1.64,3.62z"/>
   <path class="fil20" d="M17.22 31.53l-0.1 0.03c0.15,0.1 0.22,0.09 0.46,0.09 0.03,0 0.27,-0.01 0.28,-0 0.28,0.05 0.13,-0.1 0.26,0.15 0.25,-0.1 0.16,-0.02 0.42,-0.35 0.22,-0.28 0.27,-0.15 0.09,-0.57 0.38,0.05 0.23,0.01 0.45,-0.17l-0.16 -0.19c-0.01,-0.02 -0.03,-0.03 -0.04,-0.05 -0.01,-0.01 -0.02,-0.04 -0.03,-0.05 -0.01,-0.01 -0.03,-0.03 -0.03,-0.05 0.01,-0.01 0.02,-0.04 0.03,-0.03 0.06,0.13 -0.05,-0.03 0.24,-0.21 -0.06,-0.42 -0.18,-1.04 -0.52,-1.24 -0.1,0.75 0.39,1.17 -0.54,2.32 -0.3,0.36 -0.16,0.5 -0.8,0.32z"/>
   <path class="fil21" d="M16.82 25.87l0.15 -0.18c0.16,0.2 0.04,0.12 0.18,0.16 0.14,-0.48 -0.18,-0.77 -0.15,-1.39 0.05,-1.06 -0.17,-1.3 -0.05,-1.42 0.1,-0.11 0.09,-0.01 0.1,-0.16 0.01,-0.24 -0.4,-0.51 -0.58,-0.58 -0.11,0.79 0.01,1.08 0.18,1.81 0.11,0.45 0.19,1.31 0.18,1.76z"/>
   <path class="fil17" d="M10.4 15.59c0.25,0.01 0.08,-0.04 0.24,0.06 0.1,0.07 0.07,0.08 0.22,0.16l-0 -0.3c0.38,0.06 0.43,0.37 0.63,0.61l0.38 0.33c0.08,-0.06 0.06,-0.02 0.15,-0.12 -0.11,-0.26 -0.39,-0.69 -0.61,-0.9 -0.3,-0.07 -0.21,-0.05 -0.4,-0.23 -0.14,-0.14 0.04,-0.01 -0.14,-0.09 -0.06,-0.03 -0.13,-0.06 -0.17,-0.08 -0.36,0.15 -0.88,-0.89 -1.93,-0.74 0.42,0.22 0.55,0.25 0.91,0.53 0.37,0.3 0.41,0.38 0.71,0.76z"/>
   <path class="fil22" d="M17.04 26.34l-0.18 0.08c-0.26,0.29 -0.58,-0.06 -0.53,0.56l-0.27 0.04 0.02 0.1 0.17 0.03 -0.03 0.32c0.07,0.13 -0.11,0.12 0.13,0.1l0.11 -0.38 -0 -0.41c0.18,-0.09 0.12,-0.09 0.38,-0.07 -0.06,0.18 -0.13,0.31 -0.15,0.55l0.16 0.12 0 0.51 0.19 -0.36 0.15 -0.18c0.06,-0.23 0.02,-0.43 0.12,-0.59 0.84,-0.18 0.7,0.39 1.01,0.77 0.03,-0.33 0,-0.19 -0.06,-0.49l0.17 -0.11 -0.05 -0.12 -0.18 0.06c-0.2,-0.28 -0.07,-0.29 -0.51,-0.28 0.02,-0.02 0.03,-0.05 0.04,-0.06 0.01,-0.01 0.03,-0.04 0.04,-0.05 0.01,-0.01 0.05,-0.06 0.07,-0.07l-0.15 -0.01c-0.01,-0.08 -0.04,-0.16 -0.03,-0.24 0.01,-0.16 0.01,-0.06 0.06,-0.15 -0.09,-0.17 -0.04,-0.44 -0.13,-0.5 -0.57,-0.11 -0.23,0 -0.31,0.08 0.14,0.08 0.19,0.07 0.19,0.64 -0.44,0.43 -0.36,0.37 -0.31,0.96 -0.15,-0.08 -0.18,-0.08 -0.37,-0.01l0.25 -0.86z"/>
   <path class="fil23" d="M15.58 27.24l0.9 0.97 1.14 -0.01c-0.09,-0.16 -0.09,-0.13 -0.15,-0.23 -0.01,-0.01 -0.02,-0.03 -0.02,-0.03l-0.41 -0.43 -0.19 0.36 -0 -0.51 -0.16 -0.12c-0.08,-0.09 -0.09,-0.05 -0.15,-0.21 -0.06,-0.16 0.01,-0.07 0.02,-0.1 0,0.47 0.02,0.06 -0.1,0.23l-0.11 0.38c-0.24,0.02 -0.06,0.03 -0.13,-0.1l-0.14 -0.35 -0.02 -0.1 -0.04 -0.17c-0.09,0.16 -0.26,0.35 -0.45,0.4z"/>
   <path class="fil24" d="M16.48 33.88l-1.08 -0.9 -0.46 0.06c-0.09,-0.13 -0.79,-0.22 -0.82,-0.22 0.08,0.3 -0.02,0.08 0.3,0.31 0.01,0.01 0.03,0.02 0.04,0.03 0.01,0.01 0.03,0.02 0.04,0.03 0.37,0.3 0.77,0.54 1.28,0.63 0.22,0.04 0.53,0.12 0.7,0.05z"/>
   <path class="fil11" d="M11.67 19.98c0.08,0.21 -0.02,0.13 0.19,0.27 0.01,-0.32 0.39,-0.13 0.7,-0.27l0.05 -0.09c0.06,-0.29 -0.03,-0.24 0.05,-0.48l0.15 -0.26c0.01,0.02 0.02,0.04 0.03,0.05l0.07 0.15c0.12,0.26 -0.06,0.01 0.06,0.08l0.25 0.17c0.14,0.07 0.22,0.07 0.26,0.42l0.06 -0.26c0.11,0.19 0.02,0.04 0.13,0.2 0.11,0.17 0.06,0.08 0.11,0.12 0.11,0.09 0.12,0.04 0.27,0.29l0.25 0.05c-0.14,-0.17 -0.13,-0.18 -0.09,-0.45 -0.12,-0.05 -0.21,0.25 -0.22,0.27 0,-0.52 0.12,-0.3 0.1,-0.51 -0.03,-0.23 -0.3,-0.3 -0.48,-0.41 -0.34,-0.21 -0.1,-0.23 -0.48,-0.46 -1.1,0.64 -0.31,0.7 -0.72,1.03 -0.29,0.18 -0.15,0.03 -0.39,0.03l-0.35 0.04z"/>
   <path class="fil17" d="M18.29 24.05l-0.11 0.03 0.13 0.1c0.18,0.04 0.32,0.07 0.5,0.06 0.4,-0.01 0.35,0.08 0.2,-0.27 0.23,0.08 0.17,0.11 0.31,0.01l-0.04 -0.35 0.17 0.06c-0.09,-0.13 -0.04,-0.01 -0.07,-0.14l-0.01 -0.13c-0.06,-0.28 -0.16,-0.13 -0.33,-0.47 0.27,0.07 0.3,0.15 0.6,0.05l-0.01 -0.44 -0.17 -0.02 -0.02 0.22c-0.17,0.1 -0.42,0.1 -0.62,0.11 0.05,0.23 0.11,0.2 0.18,0.43 -0.37,-0.08 0.23,0.23 -0.46,0.01l0.01 0.51c-0.14,0.1 -0.15,0.02 -0.07,0.28l-0.21 -0.04z"/>
   <path class="fil18" d="M13.04 30.93c0.11,0.06 0.06,-0.1 0.14,0.18l0.1 0.08 0.16 0.54c0.22,-0.06 -0.05,-0.02 0.65,0.38 0.09,0.05 0.16,0.1 0.26,0.16 0.4,0.24 0.87,0.27 1.13,0.38 0.18,-0.11 0.12,-0.04 0.23,-0.23 -0.63,-0.22 -1.17,-0.22 -1.68,-0.72 -0.31,-0.31 -0.58,-0.43 -0.66,-0.7 -0.09,-0.31 0.11,-0.08 -0.11,-0.25 -0.01,-0 -0.02,-0.02 -0.03,-0.03 -0.01,-0 -0.03,-0.02 -0.03,-0.02 -0.17,-0.03 -0.15,0.17 -0.16,0.24z"/>
   <path class="fil25" d="M15.99 17.87c0.17,-0.1 0.07,-0.03 0.21,-0.17l0.39 -0.55c0.5,-0.82 0.83,-1.68 0.99,-2.69l-1.11 2.31c-0.21,0.46 -0.46,0.78 -0.49,1.1z"/>
   <path class="fil26" d="M18.27 13.07c0.1,0.14 0.02,0.19 -0.08,0.37 -0.01,0.02 -0.1,0.16 -0.11,0.17l-0.15 0.19c0.12,0.11 0.08,-0.01 0.12,0.22 0.02,0.08 0.01,0.32 0.01,0.42 0.26,-0.31 0.58,-1.36 0.98,-2.04 0.13,-0.22 0.31,-0.4 0.4,-0.62 -0.49,0.2 -1.07,1 -1.16,1.3z"/>
   <path class="fil18" d="M20.2 30.14c-0.02,0.39 -0.08,-0.13 -0.14,0.78 -0.04,0.66 -0.48,1.65 -0.9,1.92 0.02,0.02 0.04,0.04 0.05,0.05 0.01,0.01 0.04,0.04 0.05,0.05l0.09 0.09c0.35,-0.37 0.68,-1.01 0.84,-1.59 0.11,-0.38 0.14,-0.64 0.14,-1.06 0,-0.19 -0.02,-0.38 -0.04,-0.55 -0.03,-0.18 -0.05,-0.33 -0.17,-0.48l0.06 0.79z"/>
   <path class="fil27" d="M20.04 30.33l-0.17 0.05c0.09,0.74 -0.25,1.68 -0.72,2.16 -0.15,0.15 -0.3,0.4 -0.49,0.5l0.23 0.1 0.43 -0.09 0.06 -0.01 -0.09 -0.09c-0.01,-0.01 -0.04,-0.04 -0.05,-0.05 -0.01,-0.01 -0.03,-0.04 -0.05,-0.05 0.42,-0.26 0.86,-1.26 0.9,-1.92 0.06,-0.91 0.11,-0.39 0.14,-0.78l-0.16 0.19z"/>
   <path class="fil26" d="M15.87 32.22c0.15,0.41 0.09,0.18 0.98,0.33 0.41,0.07 0.76,0.1 1.24,0.1l-0 -0.28 -1.99 -0.27c-0.08,0.11 0,0.13 -0.11,0.01l-0.13 0.11z"/>
   <path class="fil28" d="M18.12 31.8l0.08 0.48c0.09,-0.1 0.08,-0.12 0.14,-0.19 0.32,-0.37 0.17,-0.08 0.51,-0.64 0.01,-0.01 0.02,-0.03 0.03,-0.04 0.15,-0.24 0.22,-0.23 0.34,-0.48 0.23,-0.47 0.04,-0.39 0.23,-0.59 -0.02,-0.01 -0.04,-0.05 -0.05,-0.03l-0.12 -0.12 -0.2 -0.04c-0.3,0.18 -0.19,0.34 -0.24,0.21 -0,-0.01 -0.02,0.02 -0.03,0.03 0.01,0.02 0.02,0.04 0.03,0.05 0.01,0.01 0.02,0.03 0.03,0.05 0.01,0.01 0.02,0.03 0.04,0.05l0.16 0.19c-0.21,0.18 -0.06,0.22 -0.45,0.17 0.18,0.42 0.13,0.29 -0.09,0.57 -0.26,0.32 -0.16,0.25 -0.42,0.35z"/>
   <path class="fil29" d="M10.17 14.12c0.24,0.1 0.05,0.11 0.28,0.04 -0.11,-0.3 -0.8,-0.92 -1.08,-1.13 -0.44,-0.33 -0.88,-0.61 -1.44,-0.82 0.12,0.21 0.06,0.1 0.24,0.26 0.57,0.51 1.59,1.09 2,1.65z"/>
   <path class="fil5" d="M18.33 5.31c-0,0 0.05,0.08 -0.09,0.22l-0.02 -0.29c-0.02,-0.34 0.05,-0.25 -0.16,-0.37 -0.26,0.08 -0.09,-0.2 -0.2,0.23 -0.02,0.08 -0.04,0.26 -0.05,0.36 -0.12,0.71 -0.1,0.5 0.05,0.59 0.22,-0.13 0.1,-0.24 0.2,-0.5 0.04,0.26 -0.02,0.44 0.2,0.57 0.25,-0.08 0.08,0.19 0.19,-0.22 0.02,-0.09 0.04,-0.26 0.06,-0.36 0.02,-0.09 0.06,-0.27 0.07,-0.35 0.03,-0.33 0.08,-0.2 -0.18,-0.24l-0.07 0.36z"/>
   <path class="fil30" d="M13.13 18.87c0.38,0.23 0.14,0.24 0.48,0.46 0.18,0.11 0.45,0.18 0.48,0.41 0.02,0.21 -0.1,-0.02 -0.1,0.51 0.01,-0.02 0.1,-0.32 0.22,-0.27l0.22 0.06 -0.18 -0.46 0.44 -0.04 -0.15 -0.07c-0.3,-0.13 -0.15,0.16 -0.25,-0.18 -0.02,-0.06 0.05,-0.15 -0.25,-0.31 -0.65,-0.32 -0.72,-0.29 -0.91,-0.11z"/>
   <path class="fil31" d="M15.1 27.5c0.08,0.09 0.43,-0.07 -0.39,0.47 -0.23,0.15 -0.32,0.27 -0.65,0.36 0.07,-0.27 0.12,-0.21 0.12,-0.48 -0.13,0.1 -0.18,0.13 -0.24,0.21l-0.04 0.06c0.13,0.1 0.19,-0.15 0.11,0.7 0.19,-0.21 0.53,-0.37 0.79,-0.55 0.35,-0.23 0.78,-0.43 0.85,-0.6 -0.13,-0.24 -0.23,-0.35 -0.57,-0.18z"/>
   <path class="fil32" d="M13.91 28.13l-0.05 0.69c0.11,0.1 0.06,0.02 0.11,0.19 0.03,0.12 0.01,0.05 -0,0.16l0.1 -0.06c0.01,-0.01 0.03,-0.02 0.05,-0.03l1.76 -1.2c0.01,-0.02 0.03,-0.02 0.03,-0.03l-0.22 -0.17c-0.07,0.17 -0.5,0.37 -0.85,0.6 -0.26,0.17 -0.61,0.33 -0.79,0.55 0.07,-0.84 0.02,-0.59 -0.11,-0.7z"/>
   <path class="fil33" d="M26.83 17.19l0.2 0.05 -0.28 0.08c-0.16,0.07 -0.03,-0.11 -0.11,0.09 -0.03,0.09 -0.02,0.17 -0.02,0.27 0.77,0 0.85,0.12 0.93,-0.15 -0.14,-0.11 -0.39,-0.08 -0.62,-0.11 0.19,0.02 0.49,-0.02 0.62,-0.16 -0.13,-0.11 -0.45,-0.19 -0.62,-0.17 0.27,-0.05 0.46,0.01 0.62,-0.11 -0.07,-0.22 -0.03,-0.15 -0.39,-0.16 -0.18,-0 -0.36,-0 -0.54,0.01l-0 0.28c0.13,0.11 -0.03,0.05 0.2,0.07z"/>
   <path class="fil34" d="M13.51 33.09c0.02,0.01 0.04,0.01 0.05,0.04l0.56 0.43c0.19,0.14 0.39,0.27 0.63,0.39 0.22,0.1 0.49,0.21 0.76,0.27l0.78 0.08c-0.06,-0.29 0.14,-0.18 -0.46,-0.25 -1.32,-0.16 -1.66,-0.95 -2.2,-1.09 -0.01,0.18 0.04,0.15 -0.13,0.14z"/>
   <path class="fil35" d="M18.88 33.13l-0.61 0.05 -0.02 0.02 0.67 0.1c-0.12,0.01 -0.7,0.43 -0.92,0.54 -0.4,0.19 -0.71,0.25 -1.22,0.3 -0.3,-0.09 0.14,-0.44 -0.17,-0.02 -0.42,0 -0.11,-0.03 -0.2,0.15 0.45,0.2 1.33,-0.13 1.72,-0.3 0.52,-0.23 0.88,-0.56 1.18,-0.93l-0.43 0.09z"/>
   <path class="fil36" d="M19.87 14.63c0.41,-0.03 0.91,-0.1 1.39,-0.13 0.49,-0.03 1.21,0.01 1.63,-0.05 -0.43,-0.24 -1.05,-0.35 -1.59,-0.27 -0.4,0.06 -1.27,0.46 -1.43,0.45z"/>
   <path class="fil37" d="M14.53 22.34c0.01,0.01 0.08,0.17 0.08,0.18 0.02,0.12 0.04,-0.03 -0.03,0.19 0.23,0.23 0.25,0.41 0.42,0.68 0.14,-0.53 0.09,-1.17 -0.19,-1.65 -0.07,-0.12 -0.05,-0.09 -0.14,-0.19l-0.17 -0.15c0.06,0.33 0.22,0.68 0.03,0.94z"/>
   <path class="fil14" d="M17.04 27.52l0.41 0.43c0,0.01 0.02,0.03 0.02,0.03 0.06,0.1 0.07,0.07 0.15,0.23l-1.14 0.01 0.01 0.09 1.31 0.12 0.32 -0.16c-0.01,-0.02 -0.03,-0.04 -0.04,-0.05l-0.63 -0.76c-0.24,-0.19 0.01,-0.11 -0.25,-0.11l-0.15 0.18z"/>
   <path class="fil33" d="M10.17 6.1c-0.04,0.31 0.08,0.66 0.22,0.9 0.24,0.43 0.81,0.08 0.68,-0.26 -0.1,-0.28 0.02,-0.11 -0.25,-0.15 -0.06,0.18 0.04,-0.13 -0.02,0.15l-0.08 0.23 -0.21 -0.36c-0.09,-0.2 -0.11,-0.2 -0.09,-0.38 0.35,0.02 -0.06,0.31 0.38,0.04 0.04,-0.26 -0.24,-0.36 -0.64,-0.16z"/>
   <path class="fil38" d="M15.91 25.78c-0.01,0.01 0.05,0.06 -0.11,0.01 -0.01,-0 -0.08,-0.04 -0.09,-0.06 -0.01,-0.03 -0.03,-0.03 -0.05,-0.05 0.04,0.25 0.06,0.22 0.14,0.42l-0.26 -0.15c-0.07,0.15 -0.03,-0.05 -0.03,0.14 -0,0.09 0.01,0.07 0.03,0.15 0.03,0.13 0.05,0.14 0.07,0.28l0.33 -0.06 0.49 -0.09c-0.09,-0.42 -0.14,-0.5 -0.12,-0.98l-0.2 0.24c-0.06,0.06 -0.1,0.09 -0.19,0.16z"/>
   <path class="fil33" d="M15.07 5.26c0.02,0.02 0.13,0.03 0.11,0.24 -0.03,0.43 0.05,0.06 -0.16,0.23l0.04 -0.47zm0.11 0.6l-0.01 0.21c-0.18,-0.04 -0.17,-0.08 -0.34,0.04 0.25,0.27 0.52,0.07 0.55,0.04 0.1,-0.28 0.02,-0.73 -0.01,-1.08 -0.4,-0.03 -0.54,-0.01 -0.59,0.23 -0.06,0.33 0,0.76 0.4,0.57z"/>
   <path class="fil39" d="M19.56 6.2c-0.08,-0.19 -0.03,-0.34 0.11,-0.46 0.11,0.47 -0.11,0.45 -0.11,0.46zm-0.29 0.05l0.29 0.2c-0.08,0.06 0.28,0.13 -0.17,0.04 -0.03,-0.01 -0.03,-0.06 -0.21,-0.08 0.03,0.27 0.16,0.31 0.45,0.3 0.24,-0.24 0.27,-0.61 0.38,-1.01 -0.11,-0.07 0.09,0.03 -0.16,-0.09 -0.36,-0.17 -0.58,-0.14 -0.57,0.63z"/>
   <path class="fil39" d="M7.13 9.71c-0.3,0.09 -0.07,0.18 -0.41,0.21 -0.21,-0.37 0.05,-0.06 0.04,-0.44 -0.59,-0.14 0.15,0.22 -0.42,0.08 0,-0.27 0.16,-0.16 0.06,-0.4 -0.24,-0.05 -0.38,0.25 -0.46,0.46 0.16,0.09 0.29,0.18 0.43,0.32 0.23,0.23 0.16,0.22 0.43,0.37 0.24,-0.17 0.39,-0.37 0.32,-0.59z"/>
   <path class="fil39" d="M7.85 8.95c-0.23,-0.03 -0.28,-0.16 -0.37,-0.39 0.26,0.05 0.32,0.2 0.37,0.39zm-0.68 -0.33c0.11,0.21 0.05,0.08 0.18,0.24 0.24,0.28 0.31,0.52 0.61,0.65 0.12,-0.23 0.07,-0.2 -0.08,-0.35 0,-0 0.21,-0.16 0.22,-0.27 0,-0.01 -0.27,-0.87 -0.72,-0.48 -0.01,0.01 -0.02,0.02 -0.04,0.03l-0.18 0.18z"/>
   <path class="fil31" d="M18.53 28.38l-0.09 0.18 0.37 0.28 0.96 -0.13c0.05,-0.08 0.02,0.02 0.08,-0.19l-0.21 -0.29c-0.24,-0.11 -0.09,0 -0.27,-0.22 0.01,0.28 -0.18,0.12 0.07,0.25 -0.11,0.2 -0.85,0.2 -0.87,0.15 -0.01,-0.02 -0.03,-0.02 -0.04,-0.03z"/>
   <path class="fil39" d="M14.33 5.61c-0.13,-0.15 -0.09,-0.23 -0.03,-0.47 0.02,0.19 0.12,0.31 0.03,0.47zm-0.2 -0.72l-0.12 1.03c0.02,0.13 0.03,0.12 0.05,0.17 0.4,-0.12 0.02,0.01 0.27,-0.27 0.46,0.12 -0.21,0.18 0.44,0.19l-0.28 -0.92c-0.03,-0.07 -0.03,-0.09 -0.07,-0.14 -0.09,-0.12 0,-0.02 -0.12,-0.11l-0.17 0.05z"/>
   <path class="fil5" d="M18.52 3.51l0.65 0.14 0.14 -0.73 -0.72 -0.14c-0.06,0.37 -0.15,0.49 -0.07,0.73z"/>
   <path class="fil33" d="M12.42 5.75c0.42,0.55 0.04,0.51 0.04,0.51 -0.05,-0.23 -0.12,-0.33 -0.04,-0.51zm-0.12 0.75c0.11,-0.03 0.19,-0.06 0.25,-0.07 0.29,-0.07 0.38,-0.05 0.11,-0.89 -0.21,-0.02 -0.22,-0.04 -0.35,0.08 -0.1,-0.29 -0.01,-0.25 -0.22,-0.29 -0.13,0.13 -0.11,0.09 0.02,0.54 0.07,0.24 0.08,0.41 0.18,0.63z"/>
   <path class="fil5" d="M7.68 5.01c0.06,0.22 0.21,0.41 0.34,0.61 0.1,-0.04 0.22,-0.1 0.29,-0.14 0.06,-0.04 0.11,-0.07 0.16,-0.11 0.33,-0.27 -0.22,0.2 0.08,-0.06l0.07 -0.07c-0.12,-0.22 -0.18,-0.32 -0.35,-0.55 -0.23,0.05 -0.45,0.21 -0.6,0.32z"/>
   <path class="fil5" d="M4.99 7.3c0.12,0.28 0.31,0.4 0.51,0.56 0.18,-0.16 0.23,-0.31 0.49,-0.42 -0.1,-0.26 -0.19,-0.34 -0.51,-0.56 -0.13,0.16 -0.31,0.29 -0.49,0.41z"/>
   <path class="fil33" d="M26.17 19.97c0.08,0.24 0.15,0.15 0.41,0.26 -0.05,0 -0.27,0 -0.3,0.01 -0.3,0.05 -0.11,-0.04 -0.21,0.08 -0.14,0.16 0.05,0.21 0.17,0.25 0.11,0.04 0.3,0.1 0.42,0.14 0.27,0.09 0.22,0.1 0.29,-0.12l-0.45 -0.17c0.1,-0 0.4,-0.01 0.46,-0.03 0.02,-0.01 0.11,0.13 0.11,-0.14 0,-0.14 -0.25,-0.17 -0.52,-0.26 -0.32,-0.11 -0.31,-0.08 -0.38,-0z"/>
   <path class="fil40" d="M18.59 28.16l-0.06 0.22c0.01,0.01 0.04,0.01 0.04,0.03 0.01,0.05 0.76,0.05 0.87,-0.15 -0.25,-0.13 -0.06,0.03 -0.07,-0.25 0,-0.22 -0.27,-0.31 -0.55,-0.36 -0.15,0.24 -0.23,0.28 -0.22,0.5z"/>
   <path class="fil5" d="M11.04 3.3l0.2 0.67c0.27,-0.04 0.47,-0.1 0.67,-0.24l-0.21 -0.64 -0.67 0.2z"/>
   <path class="fil41" d="M13.17 18.07l0.52 0 0 -0.08c-0.43,-0.27 -0.66,-0.58 -0.99,-0.82 -0.07,0.22 0,0.16 -0.32,-0.02 -0.16,-0.09 -0.16,-0.1 -0.34,-0.17l0.71 0.76c0.19,0.15 0.33,0.21 0.59,0.24 -0.31,-0.14 -0.09,0 -0.17,0.09z"/>
   <path class="fil42" d="M16.1 32.1l1.99 0.27 -0.11 -0.55 -0.05 0.26c-0.42,-0.02 -0.59,-0.07 -0.9,-0.12 -0.35,-0.05 -0.54,0.02 -0.78,-0.15l-0.15 0.29z"/>
   <path class="fil43" d="M22.48 11.93c-0.03,0.21 -0.03,0.19 -0.14,0.29l0.21 -0.01c0.34,-0 0.66,-0.07 1.02,-0.08 0.32,-0 0.7,0.13 0.94,0.06 -0.86,-0.46 -1.12,-0.32 -2.03,-0.26z"/>
   <path class="fil18" d="M12.97 19.74l0.21 -0.01 -0.06 0.32c-0.1,0.21 -0.04,0.03 -0.05,0.22l0.28 0.15c0.12,0.16 0.16,-0.02 0.4,0.1l0.07 -0.21 0.23 0.06c-0.15,-0.26 -0.17,-0.2 -0.27,-0.29 -0.04,-0.04 0.01,0.05 -0.11,-0.12 -0.11,-0.17 -0.02,-0.01 -0.13,-0.2l-0.06 0.26c-0.04,-0.36 -0.12,-0.35 -0.26,-0.42l-0.25 -0.17 0.01 0.3z"/>
   <path class="fil44" d="M14.82 3.14c0.27,0.11 0.42,0.05 0.72,0.04l-0.03 -0.69 -0.71 0.01 0.02 0.63z"/>
   <path class="fil45" d="M13.51 33.09c0.17,0.01 0.12,0.05 0.13,-0.14l0.23 -0.41 -0.18 -0.32c-0.04,0.3 0.09,-0.01 -0.02,0.35l-0.93 -0.88c0.09,0.33 0.19,0.5 0.36,0.78 0.06,0.1 0.15,0.25 0.22,0.33 0.16,0.19 0.14,0.03 0.2,0.28z"/>
   <path class="fil46" d="M17.06 5.53c-0.06,0.38 0.04,0.17 -0.15,0.24 -0.08,-0.19 -0.01,-0.16 0.15,-0.24zm-0.39 -0.2l0.33 0.05c-0.2,0.12 -0.18,0.04 -0.34,0.19l-0 0.31c0.21,0.11 0.23,0.04 0.62,0.1 0,-0.18 0.07,-0.71 -0.01,-0.83 -0.13,-0.18 -0.47,-0.2 -0.59,0.18z"/>
   <path class="fil33" d="M25.65 21.4c0.02,0.17 0.12,0.08 0.26,0.26 -0.12,0.07 -0,0.03 -0.16,0 -0.33,-0.06 -0.11,-0.1 -0.25,0.04 0.04,0.19 -0.12,0.03 0.12,0.17 0.54,0.31 0.65,0.32 0.77,0.13 -0.15,-0.15 -0.19,-0.07 -0.32,-0.25 0.24,-0.09 0.03,0 0.25,0.04 0.23,0.04 0.09,0.08 0.2,-0.1 -0.11,-0.14 -0.21,-0.15 -0.4,-0.25 -0.06,-0.03 -0.17,-0.09 -0.24,-0.11 -0.37,-0.11 -0.15,0.01 -0.24,0.08z"/>
   <path class="fil46" d="M20.6 6.65c0.01,-0.18 0.06,-0.17 0.23,-0.17 -0.09,0.27 -0.01,0.17 -0.23,0.17zm-0.03 -0.6c0.13,0.3 0.24,-0.04 0.33,0.2l-0.49 0.09 -0.06 0.42c0.13,0.05 0.14,0.04 0.28,0.08 0.1,0.03 0.15,0.06 0.31,0.11 0.06,-0.34 0.26,-0.53 0.17,-0.87 -0.23,-0.16 -0.3,-0.19 -0.54,-0.02z"/>
   <path class="fil31" d="M22.55 12.21l-0.21 0.01c0.11,-0.1 0.11,-0.08 0.14,-0.29 -0.93,0.15 -1.51,0.69 -2.08,1.03 0.33,-0.13 0.62,-0.27 1,-0.39 0.27,-0.08 1.01,-0.24 1.16,-0.36z"/>
   <path class="fil39" d="M24.75 23.81c0.18,0 0.17,0.02 0.23,0.17 -0.24,-0.03 -0.12,0.03 -0.23,-0.17zm-0.18 -0.05l-0.12 -0.19c0.22,0.02 0.27,-0.03 0.12,0.19zm-0.37 0.05c0.36,0.14 0.31,0.21 0.59,0.38 0.12,0.07 -0.02,0 0.13,0.07 0.22,-0.2 0.26,-0.27 0.22,-0.57 -0.29,-0.13 -0.15,0.01 -0.39,-0.2 -0.27,-0.23 -0.42,-0.12 -0.55,0.32z"/>
   <path class="fil39" d="M9.48 7.16c-0.14,-0.22 0.12,-0.11 0.12,-0.11 0,0.14 0.12,0.12 -0.12,0.11zm-0.24 -0.16c-0.03,0.84 0.85,1.05 0.76,0.26 -0.28,0.12 -0.14,0.12 -0.29,0.27l-0.11 -0.12 0.3 -0.25c-0.16,-0.43 -0.37,-0.43 -0.66,-0.15z"/>
   <path class="fil41" d="M12.74 31.7l0.93 0.88c0.1,-0.35 -0.03,-0.04 0.02,-0.35l-0.25 -0.51 -0.16 -0.54c-0.2,0.13 -0.21,-0.21 -0.11,0.28 0.1,0.22 0.15,0.43 0.22,0.61 -0.12,-0.12 -0.29,-0.29 -0.42,-0.41 -0.1,-0.1 -0.28,-0.35 -0.31,-0.36 -0.02,0.23 0.02,0.32 0.08,0.4z"/>
   <path class="fil39" d="M15.58 5.88c0.26,0.09 0.06,0.02 0.58,0.02 -0.05,-0.91 0.09,-0.83 -0.2,-0.88 -0.16,0.31 0.08,0.45 -0.13,0.71l-0.07 -0.72c-0.29,0.04 -0.24,-0.09 -0.24,0.34 0,0.19 0.01,0.33 0.05,0.52z"/>
   <path class="fil47" d="M13.3 21.34c0.23,0.53 0.76,0.68 0.73,1.15l0.11 -0c0.02,-0.12 -0.06,-0.67 -0.06,-0.8 -0.15,-0.22 -0.17,-0.18 -0.34,-0.32 -0.2,-0.17 -0.13,-0.22 -0.35,-0.33 -0.08,0.13 0.01,0 -0.02,0.13 -0.04,0.22 0.03,0.07 -0.08,0.18z"/>
   <path class="fil46" d="M23.06 25.11c0.2,0.02 0.11,-0.02 0.16,0.17 -0.21,-0.08 -0.08,-0.01 -0.16,-0.17zm-0.31 0.12c0.09,0.09 0.24,0.21 0.33,0.33 0.02,0.03 0.14,0.21 0.15,0.21 0.27,0.21 0.2,0.03 0.23,0.02 0,-0.02 0.01,-0.06 0.01,-0.05l-0.06 -0.16c-0.09,-0.14 -0.09,-0.01 -0.09,-0.2 0.31,0.11 0.14,0.3 0.46,0.17 -0.14,-0.37 -0.19,-0.2 -0.39,-0.47 -0.09,-0.12 -0,-0.06 -0.15,-0.19 -0.2,0.02 -0.09,-0.03 -0.28,0.11 -0.16,0.13 -0.11,0.08 -0.2,0.23z"/>
   <path class="fil39" d="M25.08 23.16c-0.28,-0.08 -0.12,0.02 -0.17,-0.18 0.2,0.07 0.12,-0.04 0.17,0.18zm-0.45 0.04c0.09,0.04 1.33,0.89 0.68,0.14 -0.09,-0.1 -0.05,-0.01 -0.07,-0.13 0.36,0.07 0.23,0.29 0.46,0.04 -0.18,-0.29 -0.13,-0.05 -0.47,-0.36 -0.32,-0.29 -0.46,0.01 -0.59,0.32z"/>
   <path class="fil48" d="M16.25 31.81c0.24,0.17 0.42,0.1 0.78,0.15 0.31,0.04 0.48,0.09 0.9,0.12l0.05 -0.26c-0.04,-0.02 -0,-0.03 -0.13,-0.04l-1.59 -0.12 -0.01 0.16z"/>
   <path class="fil39" d="M8.06 8.07c0.15,0.02 0.3,0.24 0.37,0.46 -0.29,-0.09 -0.05,0.09 -0.27,-0.2 -0.14,-0.19 -0.09,-0.2 -0.1,-0.26zm-0.25 0.02c0.01,0.23 0.27,0.9 0.81,0.49 0.02,-0.39 -0.17,-0.53 -0.39,-0.76 -0.31,0.04 -0.29,0.04 -0.42,0.26z"/>
   <path class="fil39" d="M19.04 5.5c-0.03,0.29 0.09,0.13 -0.15,0.18 0.03,-0.22 -0.05,-0.09 0.15,-0.18zm0.12 0.54c-0.34,-0.19 -0.11,-0.07 -0.33,0.04l-0.03 -0.25 0.42 0.08 0.03 -0.5 -0.54 -0.09c-0.42,1.06 0.27,1.15 0.44,0.72z"/>
   <path class="fil39" d="M13.07 5.54c0.13,0.02 0.09,-0.06 0.14,0.14 -0.25,0.02 -0.16,0.09 -0.14,-0.14zm-0.04 0.73c0.34,0.03 0.45,-0.05 0.49,-0.38 -0.47,0.1 -0.02,0.04 -0.36,0.21l-0.04 -0.19 0.36 -0.16 -0.11 -0.37c-0.75,-0.2 -0.62,0.56 -0.34,0.88z"/>
   <path class="fil33" d="M24.29 24.77c-0.2,-0.08 -0.38,-0.23 -0.47,-0.46 0.22,0.1 0.44,0.24 0.47,0.46zm-0.67 -0.38c0.11,0.38 0.8,1.03 0.89,0.19 -0.36,-0.39 -0.59,-0.72 -0.89,-0.19z"/>
   <path class="fil49" d="M12.02 20.23l0.08 0.77c0.03,0.37 0.27,0.4 0.11,0.57l0.36 0.05 -0.04 -0.12c-0.19,-0.05 -0.06,0.02 -0.18,-0.08 -0.03,-0.29 -0.06,-0.45 0.03,-0.74 0.08,-0.25 0.17,-0.26 0.27,-0.54l-0.63 0.08z"/>
   <path class="fil43" d="M10.71 15.04c0.04,0.03 0.11,0.06 0.17,0.08 0.18,0.08 -0,-0.05 0.14,0.09 0.19,0.18 0.1,0.16 0.4,0.23 -0.14,-0.33 -0.72,-1.07 -0.96,-1.27 -0.23,0.06 -0.04,0.06 -0.28,-0.04 0.07,0.19 0.16,0.24 0.28,0.42 0.13,0.19 0.16,0.28 0.25,0.5z"/>
   <path class="fil50" d="M11.49 16.13c0.08,0.3 0.36,0.7 0.55,0.86 0.19,0.07 0.18,0.08 0.34,0.17 0.33,0.18 0.25,0.24 0.32,0.02l-0.69 -0.83c-0.1,0.1 -0.07,0.06 -0.15,0.12l-0.38 -0.33z"/>
   <path class="fil46" d="M11.81 6.49c-0.34,-0.46 0.06,-0.59 -0.41,-0.59 -0.08,0.19 0.14,0.69 0.27,0.83l0.49 -0.21c-0.04,-0.15 -0.09,-0.29 -0.13,-0.42 -0.11,-0.36 -0.1,-0.28 -0.22,-0.34 -0.06,0.08 -0.15,-0.01 -0.02,0.38 0.07,0.21 0.12,0.21 0.02,0.36z"/>
   <path class="fil51" d="M23.44 9.69c0.37,0.01 1.08,-0.18 1.61,-0.21 -0.46,-0.26 -1,-0.22 -1.59,-0.12 0.08,0.36 -0.17,0.12 -0.02,0.33z"/>
   <path class="fil46" d="M26.66 16.14c-0.06,0.22 -0.12,0.58 0.23,0.54 0.33,-0.03 0.1,-0.22 0.5,-0.37 -0.06,0.22 -0.09,0.05 -0.14,0.36 0.18,-0.02 0.25,0.04 0.31,-0.19 0.01,-0.04 0.01,-0.12 -0,-0.16 -0.13,-0.66 -0.61,0.09 -0.78,0.13 0.17,-0.36 0.12,0.1 0.12,-0.34l-0.24 0.03z"/>
   <path class="fil46" d="M26.04 20.96c0.32,-0.01 0.3,-0.03 0.41,0.19l-0.41 -0.19zm0.6 0.55c0.04,-0.37 -0.01,-0.07 -0.06,-0.37 0.31,-0.13 0.14,0.11 0.24,-0.2 -0.22,-0.13 -0.65,-0.17 -0.95,-0.18 -0.05,0.31 -0.06,0.28 0.21,0.45 0.19,0.12 0.33,0.22 0.56,0.3z"/>
   <path class="fil39" d="M7.94 25.26c0.17,0.08 0.04,-0.07 0.11,0.09 0.1,0.22 0.05,-0 -0.08,0.11l-0.03 -0.19zm0.19 -0.02c0.06,-0.26 0,-0.21 0.26,-0.26 -0.1,0.17 -0.06,0.14 -0.26,0.26zm-0.19 0.02c-0.18,-0.07 -0.1,-0.01 -0.15,0.01 -0.07,0.21 0.03,0.25 0.22,0.36 0.31,-0.06 0.61,-0.33 0.55,-0.7l-0.2 -0.17c-0.28,0.06 -0.41,0.2 -0.41,0.5z"/>
   <path class="fil39" d="M7.13 9.71c0.61,0.02 0.62,-0.63 0.14,-0.6 -0.25,0.01 0.01,0.03 -0.17,0.04 -0.16,0.01 -0.09,0.01 -0.17,-0.04 0.02,-0.01 0.12,-0.04 0.14,-0.05l0.13 -0.15c-0.32,-0.17 -0.48,0.07 -0.45,0.38 0.31,0.29 0.25,0.08 0.61,0.07 0.02,0.22 -0.03,0.05 -0.28,0.24 0.11,0.07 0.01,0.02 0.05,0.11z"/>
   <path class="fil52" d="M13.64 26.72c0.07,0.16 0,0.07 0.17,0.12l0.18 0.07c-0.08,0.07 0.14,0.08 -0.19,0.08l-0.23 -0 -0.09 -0.05 -0.05 0.04c0.12,0.05 0.05,0.07 0.4,0.02 -0.13,0.14 -0.05,0.17 -0.54,0.24 -0.07,0.11 0,0.09 -0.16,0.16l0.42 0.04c0.23,-0.37 0.5,-0.14 0.75,-0.33 0.08,-0.06 0.06,-0.07 0.12,-0.14 -0.22,-0.33 -0.11,-0.05 -0.31,-0.24l-0.21 -0.02c-0.08,-0.35 -0.05,-0.08 0.09,-0.18 -0.25,-0.08 -0.12,-0.06 -0.33,0.01 0.14,0.16 0.11,-0.21 0.12,0.21l-0.15 -0.03z"/>
   <path class="fil53" d="M11.86 20.25l0.16 -0.02 0.63 -0.08 0.25 0.17 0.22 -0.27 0.06 -0.32 -0.21 0.01c-0.03,0.05 -0.02,0.11 -0.13,0.19 -0.34,0.23 -0.15,-0 -0.17,-0.01 0.34,-0.11 0.06,-0.03 0.21,-0.15 -0.1,-0.09 0.18,-0.17 -0.16,-0.09 0.05,-0.2 -0.09,-0.13 0.17,-0.13 -0.02,-0.01 -0.04,-0.02 -0.06,-0.03l-0.12 -0.06c-0.01,-0.03 -0.04,-0.02 -0.06,-0.03 -0.08,0.24 0,0.19 -0.05,0.48l-0.05 0.09c-0.31,0.14 -0.69,-0.06 -0.7,0.27z"/>
   <path class="fil41" d="M9.54 20.89c0.73,-0.16 1.01,-0.74 1.17,-1.37 -0.14,0.11 -0.47,0.5 -0.59,0.67 -0.3,0.44 -0.26,0.21 -0.46,0.49 -0.11,0.16 -0.04,0.04 -0.12,0.21z"/>
   <path class="fil54" d="M12.65 20.14c-0.09,0.28 -0.18,0.29 -0.27,0.54 -0.09,0.28 -0.06,0.45 -0.03,0.74 0.12,0.1 -0.01,0.03 0.18,0.08 -0.06,-0.38 0.12,-0.81 0.36,-1.04l0.18 -0.2c0.01,-0.19 -0.05,-0.01 0.05,-0.22l-0.22 0.27 -0.25 -0.17z"/>
   <path class="fil32" d="M10.4 15.59c0.18,0.58 0.33,0.87 0.86,1.11 -0.05,-0.21 -0.12,-0.27 -0.19,-0.46 -0.1,-0.3 -0.04,-0.25 -0.2,-0.43 -0.15,-0.08 -0.12,-0.09 -0.22,-0.16 -0.16,-0.1 0.01,-0.05 -0.24,-0.06z"/>
   <path class="fil39" d="M26.84 18.91l-0.09 0.18 -0.14 -0.09c0.05,-0.43 0.02,-0.15 -0.06,-0.26 -0.17,0.14 -0.14,0.26 -0.17,0.5l0.93 0.15c0.01,-0.08 0.03,-0.21 0.04,-0.27l-0.05 -0.26c-0.27,0.23 0.24,-0.23 -0.1,0.12 -0.14,0.14 0,0.07 -0.17,0.13l-0.08 -0.27c-0.23,-0.04 -0.03,-0.02 -0.11,0.06z"/>
   <path class="fil12" d="M14.36 27.77c-0.15,0.01 -0.3,-0.04 -0.17,0.09 -0,0.27 -0.06,0.21 -0.12,0.48 0.32,-0.09 0.41,-0.21 0.65,-0.36 0.82,-0.54 0.47,-0.38 0.39,-0.47 -0.24,0.1 -0.5,0.25 -0.74,0.27z"/>
   <path class="fil46" d="M9.14 25.66c-0,0.02 -0.01,0.03 -0.01,0.05 0.01,0.25 0.09,0.06 0.26,0.11 -0.22,0.32 -0.27,-0.03 -0.65,0.34 0.06,0.18 -0.04,0.09 0.18,0.25 0.08,0.06 0.14,0.08 0.23,0.13 0.14,-0.25 0.03,-0.1 -0.13,-0.36 0.86,-0.11 0.54,-0.5 0.46,-0.55 -0.08,-0.05 -0.04,-0.05 -0.17,-0.04 -0.35,0.02 -0.02,-0.01 -0.17,0.07z"/>
   <path class="fil55" d="M21.9 9.99c-0,0.02 -0.05,0.17 -0.05,0.18 -0,0.2 -0.14,-0.01 0.06,0.16 0.23,-0.09 0.6,-0.18 0.75,-0.38l-0.11 -0.03c0.22,-0.11 0.04,0.06 0.18,-0.16 0.09,-0.15 0.07,0.02 0.03,-0.19 -0.34,0.11 -0.6,0.27 -0.85,0.42z"/>
   <path class="fil56" d="M20.56 16.39c0.43,0.08 0.69,0.12 1.16,-0.02 0.04,-0.01 0.12,-0.04 0.16,-0.06 0.17,-0.08 0.09,-0.05 0.14,-0.09l-1.33 -0.09 -0.12 0.03c0.08,0.19 0.09,-0.02 -0,0.22z"/>
   <path class="fil41" d="M8.22 20.03c0.38,-0.03 1.51,-0.44 1.18,-0.75 -0.09,-0.08 0.05,-0.1 -0.18,-0.01l-0.75 0.55c-0.17,0.11 -0.13,0.05 -0.25,0.21z"/>
   <path class="fil57" d="M17.11 26.31l-0.07 0.03 -0.25 0.86c0.19,-0.07 0.22,-0.07 0.37,0.01 -0.05,-0.59 -0.13,-0.53 0.31,-0.96 -0,-0.57 -0.05,-0.56 -0.19,-0.64 0.01,0.15 0.04,0.34 0.02,0.5 -0.03,0.23 0.01,0.21 -0.19,0.22z"/>
   <path class="fil39" d="M8.69 7.4c0.56,0.39 0.18,0.29 0.54,0.59l0.28 -0.07c-0.16,-0.3 -0.11,-0.07 -0.32,-0.36 -0.17,-0.23 -0.02,-0.43 -0.34,-0.54 -0.27,-0.09 -0.02,-0.02 -0.13,0.01l-0.03 0.37z"/>
   <path class="fil58" d="M21.91 10.33c-0.2,-0.17 -0.07,0.04 -0.06,-0.16 0,-0 0.05,-0.16 0.05,-0.18 -0.45,0.11 -0.82,0.57 -1.16,0.86 0.27,-0.01 0.48,-0.19 0.83,-0.33 0.03,-0.01 0.13,-0.05 0.15,-0.05 0.28,-0.14 0.09,-0.04 0.19,-0.13z"/>
   <path class="fil59" d="M12.95 2.33l0.35 -0.05c0.08,-0.25 -0.29,-1.08 -0.38,-1.32l0.02 1.37z"/>
   <path class="fil33" d="M11.31 6.9c0.19,-0.1 0.27,0.09 -0.12,-0.91 -0.13,-0.33 -0.04,-0.21 -0.27,-0.22 -0.07,0.16 0.23,0.94 0.38,1.13z"/>
   <path class="fil17" d="M22.75 9.57c0.05,0.21 0.07,0.04 -0.03,0.19 -0.14,0.23 0.04,0.05 -0.18,0.16l0.11 0.03c0.23,0 0.12,0.02 0.39,-0.07 0.05,-0.02 0.16,-0.05 0.2,-0.07 0.18,-0.09 0.08,-0.03 0.19,-0.12 -0.15,-0.21 0.09,0.03 0.02,-0.33l-0.7 0.21z"/>
   <path class="fil60" d="M12.89 20.46l0.41 0.88c0.1,-0.11 0.04,0.04 0.08,-0.18 0.02,-0.13 -0.06,-0 0.02,-0.13 -0.02,-0.33 -0.11,-0.22 -0.05,-0.62l-0.28 -0.15 -0.18 0.2z"/>
   <path class="fil54" d="M15.93 26.46c0.05,0.06 -0.01,0.06 0.15,0.18l-0.05 0.2 0.04 0.17 0.27 -0.04c-0.06,-0.62 0.26,-0.27 0.53,-0.56l-0.17 -0.04 -0.27 -0.01 -0.49 0.09z"/>
   <path class="fil33" d="M8.84 25.47c-0.66,0.24 -0.56,0.3 -0.55,0.47 0.31,0.06 0.21,-0.03 0.43,-0.21 0.14,-0.11 0.25,-0.12 0.41,-0.27 -0.27,-0.28 -0.81,-0.67 -0.3,0.01z"/>
   <path class="fil61" d="M15.05 17.93l-0.02 0.23c-0.22,0.04 -0.12,-0.05 -0.07,0.14 -0.12,0 -0.01,-0.01 -0.15,0.09l0.55 -0.08c0.08,-0.29 0.11,-0.31 0.26,-0.51l-0.06 -0.15c-0.16,0.07 -0.35,0.18 -0.5,0.28z"/>
   <path class="fil46" d="M26.24 19.85l0.14 -0.05c0.33,-0.13 0.23,-0.01 0.54,0.03 0.52,0.07 0.1,0.07 0.29,-0.07 -0.11,-0.18 0.08,-0.04 -0.16,-0.15 -0.23,-0.1 -0.2,0.05 -0.55,-0.2 -0.04,-0.03 -0.04,-0.05 -0.17,-0.1l-0.09 0.53z"/>
   <path class="fil39" d="M25.21 22.2c0.15,0.23 0.09,0.11 0.36,0.26 0.22,0.12 0.24,0.16 0.47,0.24l0.14 -0.32c0.02,-0.12 -0.01,-0.09 -0.02,-0.13 -0.21,-0.03 -0.06,-0.04 -0.22,0.13 -0.98,-0.45 -0.5,-0.33 -0.74,-0.19z"/>
   <path class="fil33" d="M8.69 7.4l-0.37 0.18c0.07,0.2 0.36,0.68 0.55,0.75 0.1,-0.13 0.12,0 0.06,-0.21 -0.02,-0.06 -0.11,-0.17 -0.14,-0.22 -0.24,-0.39 0.05,-0.09 -0.1,-0.5z"/>
   <path class="fil36" d="M18.04 25.31c0.02,-0.02 0.04,-0.06 0.05,-0.05 0.01,0.01 0.04,-0.03 0.04,-0.04l0.06 -0.07 -0.08 -0.22c0.12,-0.07 0.23,-0.03 0.32,-0.06 -0.11,-0.24 -0.21,-0.36 -0.29,-0.55 -0.11,0 -0.07,-0.02 -0.08,0.11 -0.08,0.2 -0.06,0.1 -0.18,0.11 0.01,0.16 0.01,0.24 0.06,0.39 0.12,0.33 0.1,0 0.1,0.39z"/>
   <path class="fil62" d="M12.21 21.57c0.16,-0.17 -0.08,-0.2 -0.11,-0.57l-0.08 -0.77 -0.16 0.02c0.06,0.32 0.02,0.5 0.05,0.81 0.03,0.3 0.08,0.36 0.31,0.51z"/>
   <path class="fil33" d="M19.97 6.58c0.3,-0.03 0.1,0.09 0.26,-0.34 0.16,-0.45 0.18,0.09 0.28,-0.39 -0.07,-0.03 -0.25,-0.09 -0.35,-0.12 -0.08,0.2 -0.29,0.66 -0.19,0.86z"/>
   <path class="fil51" d="M19.97 17.62c0.31,0.13 0.67,0.19 1,0.04l-1 -0.35 -0 0.31z"/>
   <path class="fil63" d="M18.89 18.16c0.2,0.2 0.27,0.9 1.2,0.84 -0.77,-0.47 -0.63,-0.43 -1.2,-0.84z"/>
   <path class="fil42" d="M12.66 31.3c0.03,0.01 0.21,0.26 0.31,0.36 0.13,0.12 0.3,0.3 0.42,0.41 -0.07,-0.18 -0.13,-0.39 -0.22,-0.61 -0.09,0.06 0.06,0.15 -0.15,-0.04 -0.09,-0.08 -0.04,-0.06 -0.13,-0.15 -0.11,-0.11 -0.28,-0.18 -0.19,-0.27 -0.05,-0.09 0.07,-0.09 -0.15,-0.05 0.03,0.25 -0.01,0.21 0.11,0.35z"/>
   <path class="fil39" d="M23.33 24.64c-0,0.02 -0.01,0.03 -0.01,0.05 0.01,0.23 0.04,0.11 0.45,0.53 0.23,0.24 0.48,0.05 -0.17,-0.52 -0.19,-0.17 -0.23,-0.07 -0.27,-0.05z"/>
   <path class="fil17" d="M20.56 16.39c0.1,-0.24 0.09,-0.03 0,-0.22l0.12 -0.03c-0.19,-0.17 -0.71,-0.21 -1,-0.25 0.21,0.2 0.52,0.39 0.87,0.5z"/>
   <path class="fil12" d="M15.54 25.95l0.26 0.15c-0.08,-0.19 -0.1,-0.17 -0.14,-0.42 0.02,0.01 0.04,0.02 0.05,0.05 0.01,0.03 0.08,0.06 0.09,0.06 0.16,0.05 0.1,-0 0.11,-0.01 -0.02,-0.03 -0.39,-0.53 -0.09,-0.36l-0.01 -0.16 -0.39 -0.09c0.04,0.28 0.09,0.19 0.07,0.42 -0.01,0.27 0.1,0.21 0.04,0.35z"/>
   <path class="fil39" d="M25.84 23c0.08,-0.24 0.01,-0.2 -0.26,-0.35 -0.18,-0.1 -0.28,-0.22 -0.5,-0.21 -0.02,0.27 0.04,0.21 0.29,0.36 0.11,0.06 0.1,0.07 0.21,0.14 0.04,0.02 0.08,0.06 0.12,0.07 0.03,0.01 0.13,-0 0.14,-0z"/>
   <path class="fil39" d="M7.33 25.01l0.09 0.11c0.2,-0.06 0.61,-0.51 0.68,-0.69l-0.3 -0.08c-0.01,0.01 -0.02,0.01 -0.02,0.03 -0,0.02 -0.02,0.03 -0.02,0.03 -0.06,0.25 0.11,0.06 -0.28,0.41l-0.15 0.18z"/>
   <path class="fil46" d="M16.37 5.92c0.18,-0.07 0.1,0.05 0.16,-0.14 0,-0 0.01,-0.25 0.01,-0.27 0,-0.03 0.01,-0.28 0.01,-0.28 -0.04,-0.22 0.02,-0.13 -0.18,-0.2 -0.09,0.14 -0.08,0.14 -0.08,0.41 -0,0.04 -0.01,0.26 -0,0.28 0.04,0.3 0.01,0.1 0.08,0.21z"/>
   <path class="fil64" d="M14.81 26.1l-0.03 0.23c0.12,0.13 0.13,-0.22 0.1,0.17 -0.19,0.1 -0.17,0.23 -0.19,0.19 -0.01,-0.01 -0.02,0.04 -0.03,0.07l-0.33 -0.06 -0.1 -0c-0.05,0.06 0.07,0.14 -0.11,0.03 0.2,0.19 0.09,-0.1 0.31,0.24l0.36 -0.16c0.05,-0.19 0.02,-0.08 0.09,-0.21 0.1,-0.17 0.2,-0.23 0.1,-0.54 -0.14,0.01 -0.07,-0.03 -0.17,0.05z"/>
   <path class="fil65" d="M15.82 25.27l0.17 -0.28c-0.06,-0.18 0.02,-0.06 -0.15,-0.25 0.01,-0.01 0.03,-0.01 0.03,-0.01 0.53,-0.09 -0.13,0.2 0.25,-0.06l-0.34 -0.32c-0.01,0.01 -0.01,0.03 -0.02,0.05 -0.23,0.49 -0.07,0.02 0.06,0.88z"/>
   <path class="fil17" d="M19.97 17.62l0 -0.31 -0.87 -0.44c0.12,0.16 0.23,0.25 0.39,0.39 0.25,0.24 0.16,0.17 0.48,0.36z"/>
   <path class="fil66" d="M18.14 26.43l0.08 0 -0.04 -0.2c0.01,-0.01 0.03,-0.02 0.04,-0.01l0.13 -0.26 -0.16 -0.27c-0,-0.01 -0.02,-0.02 -0.03,-0.04 -0,-0.02 -0.02,-0.02 -0.03,-0.04l0.02 0.23 -0.26 -0.19c0.11,0.19 0.09,0.36 0.14,0.66l0.11 0.12z"/>
   <path class="fil22" d="M14.78 25.97l0.03 0.13c0.11,-0.08 0.03,-0.04 0.17,-0.05 0.11,0.31 0,0.36 -0.1,0.54 -0.08,0.14 -0.04,0.02 -0.09,0.21 0.29,-0.08 0.16,-0.01 0.31,-0.2 0.05,-0.17 0.11,-0.38 0.09,-0.66l-0.42 0.03z"/>
   <path class="fil27" d="M14.28 18.08c-0.1,0.26 0.05,0.06 -0.2,0.27l0.22 0.07 0.28 -0.01c0.09,-0.22 0.11,-0.15 0.18,-0.4l-0.48 0.07z"/>
   <path class="fil67" d="M27.47 18.46c-0.04,-0.24 -0.68,-0.41 -0.92,-0.48 0.06,0.25 -0.09,0.09 0.15,0.23 0.01,0.01 0.22,0.07 0.25,0.09 0.23,0.09 0.28,0.17 0.53,0.16z"/>
   <path class="fil59" d="M16.82 25.87c-0,0.26 -0.04,0.26 -0.13,0.5l0.17 0.04 0.18 -0.08 0.07 -0.03 -0.14 -0.62 -0.15 0.18z"/>
   <path class="fil3" d="M26 6.23c0.25,0.02 0.3,0 0.48,-0.12 -0.08,-0.18 -0.01,-0.08 -0.17,-0.23 -0.08,-0.08 -0.14,-0.11 -0.22,-0.17l-0.09 0.52z"/>
   <path class="fil57" d="M17.84 26.41c-0.02,0.01 -0.06,0.06 -0.07,0.07 -0.01,0.01 -0.03,0.04 -0.04,0.05 -0.01,0.01 -0.03,0.04 -0.04,0.06 0.44,-0.01 0.31,-0 0.51,0.28l0.18 -0.06 -0.16 -0.38 -0.08 -0 -0.23 -0.04 -0.08 0.03z"/>
   <path class="fil34" d="M16.47 27.18c0.12,-0.17 0.1,0.24 0.1,-0.23 -0.01,0.02 -0.08,-0.06 -0.02,0.1 0.06,0.16 0.07,0.12 0.15,0.21 0.02,-0.24 0.09,-0.37 0.15,-0.55 -0.26,-0.02 -0.2,-0.02 -0.38,0.07l0 0.41z"/>
   <path class="fil51" d="M13.16 31.47c-0.1,-0.49 -0.09,-0.15 0.11,-0.28l-0.1 -0.08 -0.05 0.11c-0.1,-0.23 0.12,-0.09 -0.19,-0.2 -0.06,-0.02 -0.16,-0.01 -0.24,-0.01 -0.08,0.09 0.09,0.16 0.19,0.27 0.09,0.09 0.04,0.07 0.13,0.15 0.21,0.2 0.06,0.1 0.15,0.04z"/>
   <path class="fil66" d="M14.75 18.01c-0.07,0.25 -0.09,0.18 -0.18,0.4l0.23 -0.01c0.14,-0.1 0.04,-0.09 0.15,-0.09 -0.05,-0.19 -0.14,-0.1 0.07,-0.14l0.02 -0.23 -0.3 0.07z"/>
   <path class="fil50" d="M18.07 24.42c0.01,-0.13 -0.03,-0.11 0.08,-0.11l-0.05 -0.17 0.22 0.04 -0.13 -0.1 0.11 -0.03 -0.47 -0.19c0.07,0.32 0.03,0.37 0.25,0.55z"/>
   <path class="fil18" d="M14.07 18.34c0.25,-0.21 0.1,-0.01 0.2,-0.27 -0.13,0 -0.14,0 -0.27,-0.02l-0.11 -0.03c-0.08,-0.02 -0.1,-0.03 -0.2,-0.04l0 0.08 0.16 -0.01c-0.12,0.36 -0.04,0.15 0,0.24l0.22 0.04z"/>
   <path class="fil47" d="M18.04 25.31l0.08 0.31c0.1,-0.05 -0.08,-0.07 0.15,-0.02 0.08,0.02 0.06,0.03 0.21,0.07l-0.3 -0.52 -0.06 0.07c-0.01,0.01 -0.04,0.06 -0.04,0.04 -0.01,-0.01 -0.03,0.03 -0.05,0.05z"/>
   <path class="fil68" d="M12.66 19.41c0.02,0.01 0.04,0.01 0.06,0.03l0.12 0.06c0.02,0.01 0.04,0.02 0.06,0.03l-0.01 0.22c-0.15,0.12 0.13,0.04 -0.21,0.15 0.02,0.01 -0.17,0.24 0.17,0.01 0.11,-0.07 0.1,-0.14 0.13,-0.19l-0.01 -0.3c-0.12,-0.07 0.06,0.18 -0.06,-0.08l-0.07 -0.15c-0.01,-0.01 -0.02,-0.04 -0.03,-0.05l-0.15 0.26z"/>
   <path class="fil54" d="M14.34 26.69l0.33 0.06c0.01,-0.03 0.03,-0.08 0.03,-0.07 0.02,0.04 -0,-0.09 0.19,-0.19 0.03,-0.39 0.02,-0.04 -0.1,-0.17 -0.15,0.19 -0.27,0.21 -0.45,0.36z"/>
   <path class="fil54" d="M13.13 27.16l0.16 0.07c0.48,-0.07 0.41,-0.1 0.54,-0.24 -0.35,0.05 -0.28,0.04 -0.4,-0.02l-0.3 0.19z"/>
   <path class="fil69" d="M12.54 30.95c0.22,-0.03 0.1,-0.04 0.15,0.05 0.07,0 0.17,-0.01 0.24,0.01 0.31,0.11 0.09,-0.03 0.19,0.2l0.05 -0.11c-0.08,-0.28 -0.03,-0.11 -0.14,-0.18l-0.41 -0.14c-0.11,0.05 -0.11,-0.16 -0.09,0.16z"/>
   <polygon class="fil19" points="15.82,25.27 15.82,25.43 16.1,25.45 15.98,24.99 "/>
   <path class="fil54" d="M13.36 27.61c0.33,0.03 0.11,-0.02 0.17,0.13l0.24 -0.23c0.07,-0.07 0.04,-0.05 0.1,-0.13l-0.24 0.06 -0.2 0 -0.07 0.17z"/>
   <path class="fil4" d="M12.46 6.26c0,-0 0.38,0.04 -0.04,-0.51 -0.09,0.18 -0.02,0.28 0.04,0.51z"/>
   <path class="fil70" d="M8.43 8.53c-0.07,-0.23 -0.21,-0.45 -0.37,-0.46 0.01,0.07 -0.04,0.07 0.1,0.26 0.21,0.29 -0.02,0.11 0.27,0.2z"/>
   <path class="fil71" d="M24.29 24.77c-0.03,-0.22 -0.25,-0.36 -0.47,-0.46 0.09,0.22 0.27,0.38 0.47,0.46z"/>
   <path class="fil72" d="M13.49 26.79l-0.02 0.15 0.09 0.05 0.23 0 0.01 -0.15c-0.17,-0.05 -0.1,0.04 -0.17,-0.12 -0.13,0.02 -0.09,-0.02 -0.15,0.07z"/>
   <path class="fil43" d="M14.82 3.14c0.08,0.2 0.05,0.14 0.71,0.1 0.05,-0.18 0.05,-0.18 0.04,-0.38l-0.06 -0.36 0.03 0.69c-0.3,0.01 -0.45,0.06 -0.72,-0.04z"/>
   <path class="fil70" d="M7.85 8.95c-0.05,-0.2 -0.12,-0.34 -0.37,-0.39 0.09,0.23 0.14,0.37 0.37,0.39z"/>
   <path class="fil73" d="M17.84 26.41l0.08 -0.03 -0.2 -0.37c-0.05,0.08 -0.05,-0.01 -0.06,0.15 -0.01,0.08 0.02,0.16 0.03,0.24l0.15 0.01z"/>
   <path class="fil74" d="M19.56 6.2c0,-0 0.23,0.01 0.11,-0.46 -0.14,0.12 -0.19,0.27 -0.11,0.46z"/>
   <path class="fil67" d="M13.13 27.39c0.16,-0.06 0.09,-0.04 0.16,-0.16l-0.16 -0.07c-0.13,0.19 -0.17,0.16 -0.1,0.41 0.09,-0.09 0.06,-0.01 0.1,-0.19z"/>
   <path class="fil47" d="M13.47 26.93l0.02 -0.15 0.01 -0.21c-0.05,0.03 -0.14,0.01 -0.18,0.14 -0.09,0.36 0.12,0.19 0.15,0.21z"/>
   <path class="fil70" d="M15.03 5.73c0.2,-0.17 0.12,0.2 0.16,-0.23 0.02,-0.21 -0.09,-0.22 -0.11,-0.24l-0.04 0.47z"/>
   <path class="fil75" d="M13.49 26.79c0.07,-0.08 0.02,-0.05 0.15,-0.07l0.15 0.03c-0.01,-0.43 0.02,-0.05 -0.12,-0.21l-0.17 0.04 -0.01 0.21z"/>
   <path class="fil2" d="M14.08 4.73c0.26,0.01 0.26,-0.08 0.37,-0.24 -0.28,0.01 -0.27,0.02 -0.37,0.24z"/>
   <path class="fil75" d="M20.96 8.28c0.16,-0.14 0.09,-0.06 0.17,-0.22 -0.16,-0.08 -0.13,-0.07 -0.3,-0.12l0.13 0.34z"/>
   <polygon class="fil3" points="1.31,12.33 1.64,12.31 1.44,12.03 "/>
   <path class="fil54" d="M14.12 26.72c0.19,0.11 0.06,0.03 0.11,-0.03l-0.23 -0.17c-0.14,0.1 -0.17,-0.17 -0.09,0.18l0.21 0.02z"/>
   <path class="fil29" d="M16.29 4.91c0.12,0.08 0.1,0.08 0.27,0.04 0.02,-0.42 -0.12,-0.26 -0.25,-0.18l0.21 0.06c-0.12,0.1 0.17,0.09 -0.22,0.08z"/>
   <path class="fil76" d="M13.33 27.81l0.06 0.05 0.14 -0.13c-0.06,-0.15 0.16,-0.1 -0.17,-0.13 -0.06,0.16 -0.02,0.04 -0.03,0.2z"/>
   <path class="fil12" d="M13.32 28.02l0.19 0.07c-0.05,-0.31 0.05,-0.1 -0.12,-0.22l-0.06 -0.05c-0.07,0.1 -0.08,-0.03 -0.01,0.21z"/>
   <path class="fil77" d="M14.33 5.61c0.09,-0.16 -0.01,-0.28 -0.03,-0.47 -0.06,0.24 -0.1,0.32 0.03,0.47z"/>
   <path class="fil78" d="M20.6 6.65c0.21,-0.01 0.13,0.1 0.23,-0.17 -0.17,0.01 -0.22,-0 -0.23,0.17z"/>
   <path class="fil79" d="M8.13 25.24c0.2,-0.12 0.16,-0.09 0.26,-0.26 -0.26,0.05 -0.2,0.01 -0.26,0.26z"/>
   <path class="fil80" d="M26.45 21.15c-0.11,-0.23 -0.09,-0.2 -0.41,-0.19l0.41 0.19z"/>
   <path class="fil81" d="M16.91 5.78c0.19,-0.07 0.08,0.14 0.15,-0.24 -0.16,0.09 -0.23,0.06 -0.15,0.24z"/>
   <polygon class="fil56" points="16.23,27.46 16.26,27.14 16.09,27.11 "/>
   <path class="fil14" d="M24.75 23.81c0.1,0.21 -0.01,0.14 0.23,0.17 -0.06,-0.15 -0.05,-0.17 -0.23,-0.17z"/>
   <path class="fil82" d="M16.29 4.91c0.4,0.01 0.11,0.02 0.22,-0.08l-0.21 -0.06 -0.01 0.14z"/>
   <path class="fil83" d="M21.46 25.38c0.11,-0.04 0.04,0.01 0.11,-0.05 0.09,-0.08 0.06,-0.05 0.13,-0.13 -0.47,0.02 -0.12,0.01 -0.24,0.18z"/>
   <path class="fil84" d="M9.48 7.16c0.24,0.01 0.12,0.02 0.12,-0.11 -0,0 -0.26,-0.11 -0.12,0.11z"/>
   <path class="fil85" d="M25.08 23.16c-0.05,-0.22 0.03,-0.11 -0.17,-0.18 0.04,0.21 -0.12,0.1 0.17,0.18z"/>
   <path class="fil86" d="M13.8 26.99c0.34,-0 0.12,-0.01 0.19,-0.08l-0.18 -0.07 -0.01 0.15z"/>
   <path class="fil9" d="M13.21 5.68c-0.05,-0.2 -0.01,-0.12 -0.14,-0.14 -0.02,0.23 -0.1,0.16 0.14,0.14z"/>
   <path class="fil28" d="M18.33 5.31l-0.11 -0.07 0.02 0.29c0.14,-0.14 0.09,-0.22 0.09,-0.22z"/>
   <path class="fil23" d="M18.89 5.68c0.23,-0.05 0.11,0.11 0.15,-0.18 -0.2,0.09 -0.11,-0.04 -0.15,0.18z"/>
   <path class="fil62" d="M12.89 19.76l0.01 -0.22c-0.26,0.01 -0.12,-0.07 -0.17,0.13 0.35,-0.08 0.06,0 0.16,0.09z"/>
   <path class="fil35" d="M24.58 23.76c0.15,-0.22 0.1,-0.16 -0.12,-0.19l0.12 0.19z"/>
   <path class="fil81" d="M23.06 25.11c0.08,0.17 -0.05,0.09 0.16,0.17 -0.05,-0.19 0.04,-0.15 -0.16,-0.17z"/>
   <path class="fil87" d="M7.94 25.26l0.03 0.19c0.13,-0.11 0.18,0.11 0.08,-0.11 -0.07,-0.15 0.06,-0.01 -0.11,-0.09z"/>
   <polygon class="fil47" points="26.75,17.32 27.03,17.24 26.83,17.19 "/>
   <polygon class="fil88" points="12.57,21.62 12.75,21.51 12.53,21.5 "/>
   <path class="fil29" d="M26.62 19.01l0.14 0.09 0.09 -0.18c-0.11,0.1 -0.06,0.08 -0.23,0.1z"/>
   <polygon class="fil29" points="20.79,24.6 20.8,24.52 "/>
  </g>
 </g>
</svg>
