<?xml version="1.0" encoding="utf-8"?>
<!-- Generator: Adobe Illustrator 23.0.1, SVG Export Plug-In . SVG Version: 6.00 Build 0)  -->
<svg version="1.1" id="Layer_1" xmlns="http://www.w3.org/2000/svg" xmlns:xlink="http://www.w3.org/1999/xlink" x="0px" y="0px"
	 viewBox="0 0 595.3 595.3" style="enable-background:new 0 0 595.3 595.3;" xml:space="preserve">
<style type="text/css">
	.st0{fill:#16498B;}
	.st1{fill:#FFFFFF;}
</style>
<g>
	<circle class="st0" cx="297.6" cy="297.6" r="290.3"/>
	<circle class="st1" cx="297.6" cy="297.6" r="182.3"/>
	<g>
		<path class="st1" d="M67.8,243.9l6.3-10.5c3,1.6,5.4,3.4,7.1,5.6c1.7,2.2,2.8,4.6,3.3,7.3c0.5,2.7,0.2,5.9-0.7,9.7
			c-1.1,4.6-2.7,8.1-4.8,10.7c-2.1,2.6-5,4.5-8.9,5.7c-3.9,1.3-8.4,1.2-13.6-0.1c-6.9-1.7-11.8-4.9-14.6-9.6
			c-2.8-4.6-3.4-10.3-1.7-17.1c1.3-5.3,3.4-9.2,6.3-11.7c2.9-2.5,6.7-3.9,11.6-4.3l-0.3,12.1c-1.4,0.1-2.4,0.3-3.1,0.6
			c-1.2,0.5-2.2,1.2-3,2.1c-0.8,0.9-1.4,2-1.7,3.3c-0.7,2.9-0.1,5.5,1.8,7.7c1.5,1.6,4.1,2.9,7.8,3.9c4.7,1.2,8,1.3,10.1,0.3
			c2.1-1,3.4-2.7,4.1-5.3c0.6-2.5,0.4-4.5-0.7-6.2C72.1,246.6,70.3,245.1,67.8,243.9z"/>
		<path class="st1" d="M51.9,211.3l5.8-12.1l29.5,14.1l9-18.8l9.6,4.6L91,230L51.9,211.3z"/>
		<path class="st1" d="M90.7,145.6l8-10.7l20.6,15.5c2,1.5,3.7,3.3,5.1,5.3c1.3,2,2.2,4.2,2.5,6.6c0.3,2.4,0.2,4.5-0.4,6.4
			c-0.8,2.7-2.3,5.4-4.5,8.4c-1.3,1.7-2.8,3.4-4.5,5.2c-1.7,1.8-3.5,3.1-5.2,3.9c-1.7,0.8-3.6,1.3-5.7,1.4c-2.1,0.1-4-0.1-5.7-0.7
			c-2.7-1-4.9-2.1-6.6-3.4l-20.6-15.5l8-10.7l21.1,15.9c1.9,1.4,3.8,2,5.6,1.8c1.8-0.2,3.5-1.3,4.9-3.2c1.4-1.8,1.9-3.7,1.7-5.5
			s-1.3-3.5-3.3-4.9L90.7,145.6z"/>
		<path class="st1" d="M112.3,120.9l19.1-16.3c3.2-2.7,6.3-4,9.3-3.9c3,0.1,5.6,1.3,7.5,3.7c1.7,1.9,2.5,4.1,2.5,6.6
			c0,1.6-0.6,3.4-1.7,5.2c2.9-1.5,5.4-2,7.7-1.5c2.3,0.4,4.3,1.7,6.1,3.8c1.5,1.7,2.4,3.6,2.7,5.6c0.4,2,0.2,4-0.5,6
			c-0.4,1.2-1.4,2.7-2.9,4.4c-2,2.3-3.4,3.7-4.2,4.3l-17.6,15L112.3,120.9z M133.6,125l4.4-3.8c1.6-1.4,2.5-2.6,2.6-3.6
			c0.2-1.1-0.2-2.1-1.1-3.2c-0.8-1-1.8-1.4-2.8-1.5c-1.1,0-2.4,0.6-3.9,2l-4.5,3.8L133.6,125z M144.6,138l5.2-4.4
			c1.8-1.5,2.7-2.9,2.9-4.1c0.2-1.2-0.2-2.4-1.1-3.4c-0.8-1-1.9-1.5-3.1-1.4c-1.2,0-2.7,0.8-4.5,2.3l-5.2,4.4L144.6,138z"/>
		<path class="st1" d="M156.8,85.6l31.5-17.2l4.4,8.1L173,87.3l3.3,6l18.3-10l4.2,7.7l-18.3,10l4.1,7.5l20.3-11.1l4.7,8.6l-32,17.5
			L156.8,85.6z"/>
		<path class="st1" d="M227.8,53.9l35.1-7.5l1.9,9l-22,4.7l1.4,6.7l20.4-4.3l1.8,8.6l-20.4,4.3l1.8,8.4l22.6-4.8l2,9.6l-35.7,7.6
			L227.8,53.9z"/>
		<path class="st1" d="M277.9,73.7l12.7-1c0.3,2.1,0.9,3.6,1.8,4.7c1.4,1.7,3.4,2.6,5.9,2.5c1.9,0,3.4-0.5,4.4-1.4
			c1-0.9,1.5-2,1.5-3.1c0-1.1-0.5-2.1-1.5-3c-1-0.9-3.3-1.7-6.9-2.4c-5.9-1.2-10.1-2.9-12.6-5.1c-2.6-2.1-3.9-4.9-3.9-8.3
			c0-2.2,0.6-4.3,1.8-6.3c1.3-2,3.2-3.6,5.7-4.8c2.6-1.2,6.1-1.8,10.6-1.9c5.5-0.1,9.8,0.9,12.7,2.9c2.9,2,4.7,5.3,5.3,9.7
			l-12.6,0.9c-0.4-1.9-1.1-3.4-2.2-4.2c-1.1-0.9-2.6-1.3-4.5-1.3c-1.6,0-2.7,0.4-3.5,1c-0.8,0.7-1.2,1.5-1.1,2.4
			c0,0.7,0.3,1.3,1,1.8c0.6,0.6,2.1,1.1,4.5,1.5c5.9,1.2,10.1,2.4,12.6,3.6c2.6,1.3,4.4,2.8,5.6,4.7c1.2,1.9,1.8,4,1.8,6.4
			c0,2.8-0.7,5.3-2.2,7.7c-1.5,2.4-3.6,4.2-6.4,5.4c-2.7,1.3-6.2,1.9-10.4,2c-7.4,0.1-12.5-1.2-15.4-4C280,81.6,278.3,78,277.9,73.7
			z"/>
		<path class="st1" d="M333.2,45.7l21.9,4.1c4.8,0.9,8.1,2.7,10.1,5.4c1.9,2.7,2.5,6.2,1.7,10.3c-0.8,4.3-2.7,7.4-5.8,9.4
			c-3,1.9-7.2,2.4-12.5,1.4l-7.2-1.3l-3,15.8l-13.2-2.5L333.2,45.7z M343,66.3l3.2,0.6c2.5,0.5,4.4,0.4,5.6-0.3
			c1.2-0.7,1.9-1.7,2.2-3.1c0.2-1.3,0-2.6-0.7-3.6c-0.7-1.1-2.3-1.9-4.8-2.3l-3.7-0.7L343,66.3z"/>
		<path class="st1" d="M376,76.6c2.7-6.5,6.7-10.8,11.9-12.9c5.2-2.1,11-1.8,17.5,1c6.6,2.8,11,6.7,13.1,11.8
			c2.1,5.1,1.8,10.8-0.9,17.3c-2,4.7-4.4,8.2-7.2,10.5c-2.8,2.3-6.1,3.7-9.7,4.1c-3.7,0.4-7.7-0.3-12.1-2.2
			c-4.5-1.9-7.9-4.2-10.3-6.9c-2.3-2.7-3.8-6-4.3-9.8C373.3,85.6,374.1,81.3,376,76.6z M388.3,81.9c-1.7,4-2.2,7.2-1.4,9.6
			c0.8,2.4,2.4,4.1,5,5.2c2.6,1.1,5.1,1.1,7.2,0c2.2-1.1,4.2-3.9,6.1-8.4c1.6-3.8,2-6.8,1.2-9.2c-0.8-2.4-2.5-4.1-5.1-5.2
			c-2.5-1.1-4.9-1-7.1,0.1C392,75.3,390,77.8,388.3,81.9z"/>
		<path class="st1" d="M416.2,118.5l25.2-35.2l18.1,13c3.4,2.4,5.7,4.5,7.1,6.4c1.4,1.8,2,3.9,2,6.3c0,2.3-0.8,4.6-2.4,6.9
			c-1.4,2-3,3.3-4.9,4.2c-1.8,0.8-3.8,1.2-5.9,1c-1.3-0.1-2.9-0.6-4.8-1.3c1,1.4,1.6,2.5,1.9,3.3c0.2,0.6,0.3,1.6,0.4,3.1
			c0.1,1.5,0.1,2.6,0,3.3l-2,14l-12.3-8.8l1.9-14.9c0.3-1.9,0.3-3.3,0-4.1c-0.4-1.1-1.1-2-2.1-2.7l-1-0.7l-10.2,14.3L416.2,118.5z
			 M442.1,105.4l4.6,3.3c0.5,0.4,1.6,0.9,3.2,1.6c0.8,0.4,1.7,0.4,2.6,0.2c0.9-0.3,1.6-0.8,2.1-1.6c0.8-1.1,1.1-2.3,0.8-3.4
			c-0.3-1.1-1.4-2.4-3.4-3.8l-4.8-3.4L442.1,105.4z"/>
		<path class="st1" d="M483.7,115.3l27.6,29.8l-7.8,7.3l-9.3-10l-23.9,22.2l-9.1-9.8l23.9-22.2l-9.3-10L483.7,115.3z"/>
		<path class="st1" d="M519.2,156.7l7.5,11.1l-35.9,24.3l-7.5-11.1L519.2,156.7z"/>
		<path class="st1" d="M534.4,178.5l5.9,12.7l-24.2,22l32.3-4.4l5.7,12.3l-46,3.7l-6.1-13.2L534.4,178.5z"/>
		<path class="st1" d="M536.4,236.2c6.9-1.6,12.7-0.8,17.4,2.1c4.7,3,7.8,7.9,9.4,14.7c1.6,7,0.9,12.9-2,17.5
			c-2.9,4.7-7.8,7.8-14.6,9.3c-4.9,1.1-9.2,1.2-12.7,0.3c-3.5-0.9-6.5-2.8-9-5.5s-4.2-6.5-5.3-11.1c-1.1-4.8-1.2-8.9-0.4-12.3
			s2.6-6.5,5.5-9.2C527.6,239.2,531.5,237.3,536.4,236.2z M539.3,249.3c-4.3,1-7.1,2.4-8.7,4.5c-1.5,2-1.9,4.4-1.3,7.1
			c0.6,2.8,2,4.8,4.2,5.9c2.2,1.1,5.6,1.2,10.3,0.1c4-0.9,6.7-2.4,8.2-4.4c1.5-2,1.9-4.4,1.3-7.1c-0.6-2.6-2-4.5-4.2-5.7
			C546.9,248.4,543.6,248.3,539.3,249.3z"/>
	</g>
	<g>
		<path class="st1" d="M143.8,507.9l-14.9-9.2l-6.4,5.7l-13.4-8.3l42.3-32.4l14.3,8.9l-10.4,52.2l-13.7-8.5L143.8,507.9z M146.8,497
			l4.8-18.1l-14.1,12.3L146.8,497z"/>
		<path class="st1" d="M191.6,485.6l14.3,5.8l-18.7,46.2l-14.3-5.8L191.6,485.6z"/>
		<path class="st1" d="M220.9,497.9l19.9,3.8l2,31.3l13.3-28.4l19.9,3.8l-9.3,49l-12.4-2.4l7.1-37.4l-16.7,35.5l-11.2-2.1l-2.4-39.2
			l-7.1,37.4l-12.4-2.4L220.9,497.9z"/>
		<path class="st1" d="M292.1,533.9c-0.5-8.1,1.3-14.6,5.5-19.4c4.2-4.8,10.4-7.5,18.5-8c8.3-0.6,14.8,1.2,19.6,5.4
			c4.8,4.1,7.4,10.2,8,18.2c0.4,5.8-0.3,10.7-2,14.5c-1.7,3.9-4.3,6.9-7.9,9.3c-3.6,2.3-8.1,3.7-13.6,4c-5.6,0.4-10.3-0.2-14.1-1.8
			c-3.8-1.5-7-4.2-9.5-7.9C293.9,544.4,292.4,539.7,292.1,533.9z M307.4,532.9c0.3,5,1.5,8.6,3.5,10.6c2,2.1,4.6,3,7.8,2.8
			c3.3-0.2,5.8-1.5,7.5-3.7c1.7-2.3,2.3-6.2,1.9-11.8c-0.3-4.7-1.5-8-3.5-10.1c-2-2-4.7-2.9-7.9-2.7c-3.1,0.2-5.5,1.5-7.2,3.8
			S307.1,527.8,307.4,532.9z"/>
		<path class="st1" d="M371,550l-14.8-47.6l24.5-7.6c4.5-1.4,8.1-2.1,10.8-2.1c2.6,0,5,0.9,7.2,2.5s3.7,4,4.6,7
			c0.8,2.6,1,5.1,0.4,7.4c-0.5,2.3-1.6,4.3-3.2,6.1c-1,1.1-2.5,2.3-4.6,3.5c1.9,0,3.4,0.2,4.4,0.6c0.7,0.2,1.7,0.8,3.1,1.8
			c1.4,1,2.4,1.7,3,2.3l11.4,11.6l-16.6,5.2l-12.4-12.1c-1.6-1.6-2.8-2.5-3.8-2.8c-1.3-0.4-2.6-0.4-3.9,0l-1.3,0.4l6,19.3L371,550z
			 M377,517.1l6.2-1.9c0.7-0.2,1.9-0.8,3.7-1.9c0.9-0.5,1.6-1.2,1.9-2.2c0.4-1,0.4-2,0.1-3.1c-0.5-1.5-1.3-2.6-2.6-3.1
			c-1.2-0.5-3.2-0.4-5.9,0.5l-6.5,2L377,517.1z"/>
		<path class="st1" d="M412.5,482.9l35.8-20.5l5.3,9.2l-22.4,12.9l3.9,6.9l20.8-11.9l5.1,8.8l-20.8,11.9l4.9,8.5l23.1-13.2l5.6,9.8
			l-36.5,20.9L412.5,482.9z M423.1,461.6l10.3-5.9L429,470l-5.8,3.3L423.1,461.6z"/>
	</g>
	<path class="st0" d="M451.5,374.7c-1.5,2.4-2.4,3.7-3,5.2c-2.2,4.9-5.3,5.8-10.5,3.9c-5.8-2-12.2-2.3-18.3-3.7
		c-11.3-2.7-22.8-5.1-33.9-8.5c-17-5.3-34.2-6-51.5-3.6c-15.4,2.1-25.4-2-32.9-14.7c5.1,2.3,9.8,5.3,15,6.7
		c13.1,3.4,26-0.1,38.9-2.4c1-0.2,2.2-1.2,2.6-2.2c11.2-22.3,17.3-45.9,17-71.6c-7.8,1.6-9.7,7.4-10.7,13.3
		c-1,5.9-1.1,11.9-1.6,17.9c-0.8-0.1-1.6-0.1-2.4-0.2c0.8-8.7,1-17.5,2.7-25.9c0.6-3,4.8-5.5,7.9-7.5c3.2-2,4.6-4.3,3.9-7.9
		c-2.9-16.3-5.5-32.6-8.8-48.7c-0.4-1.8-4-3.8-6.3-4c-12.9-1.1-25.8-2.5-38.7-2.3c-19.8,0.3-39.2,4-58.2,10.3
		c-4.2,1.4-5.8,3.2-6.6,7.8c-4,22.9-7.1,45.9-5.8,69.2c0.3,4.8,0.6,9.7,1.6,14.4c1.2,5.8,3.9,10.7,9.8,13.8
		c8.6,4.5,16.8,9.7,25.1,14.7c1.8,1.1,3.5,2.4,5.2,3.6c-0.3,0.7-0.6,1.5-0.9,2.2c-9.8-2.7-19.5-5.4-29.8-8.2
		c-5.7,14.6-2.9,30.1-3.8,45.6c-5.8-2.3-8.7-5.9-8.9-12.2c-0.2-9.5-0.9-19-1.6-28.4c-0.2-2.4-0.9-4.7-1.3-7c-0.6,0-1.2,0-1.8,0
		c-0.9,12.1-1.8,24.1-2.7,36.8c-2.6-1-5.4-1.7-7.7-3.2c-1.3-0.8-2.8-2.9-2.7-4.4c0.8-13.3,2-26.5,2.8-39.8c0.1-2-1.1-4.1-2.5-6
		c-6.4,14.5-7.1,29.8-8,45.9c-3.4-1.5-6-2.7-10.1-4.4c2.4-17.3,4.9-34.7,7.5-52.8c-1,1.4-2.2,2.6-2.6,4c-3.4,10.3-7,20.5-10,31
		c-2.6,9.2-7.9,15.4-17.1,18.8c-11.3,4.2-23.4,6.5-33.1,15.6c-2.2-3.4-4.3-6.7-7.3-11.3c6.1-2.1,11.4-4.9,16.9-5.6
		c19.7-2.6,29.5-15.9,36.3-32.5c4.2-10.3,7.5-20.9,11.1-31.3c0.4-1.1,0.7-2.3,0.8-3.5c0.5-17.4,2-34.8,1-52.1
		c-0.5-8.9,2.5-12.5,9.3-16.4c27.4-15.8,56.2-27.2,88.3-28.6c20.1-0.9,39.3,3.1,57.7,11.1c1.7,0.7,3.3,3.3,3.7,5.3
		c5.7,33.8,10.8,67.6,16.8,101.3c2.4,13.6,6.8,26.9,9.7,40.5c0.8,3.8,2.7,5.9,6,6.5c10.3,1.8,20.6,3.4,30.9,5
		C442.8,374.1,446.6,374.3,451.5,374.7z"/>
	<path class="st0" d="M249.8,424.7c35.3,0,69.6,0,104.4,0c2.3,11.2,7.1,20.9,16.4,28c-31.3,23.8-106.6,24.8-138,1.6
		C242.2,446.7,248.1,436.9,249.8,424.7z"/>
	<path class="st0" d="M366.3,178.5c-51.2-14-99.8-10.2-145.7,16.1c0.4-5.6,6.2-16.5,12.7-23.7c9.2-10.3,20.6-17.3,34-19.3
		c16.1-2.4,32.4-4.9,48.6-4.6c18.8,0.4,35.2,8,46.6,24.1c0.9,1.3,1.7,2.7,2.5,4.2C365.4,175.8,365.6,176.5,366.3,178.5z"/>
	<path class="st0" d="M370,190.2c-54.6-14.8-104.8-2.4-152.6,24.6c-2.1-12.2-1.7-12.8,8-17.3c27.2-12.5,55.5-20.6,85.5-21.4
		c19.3-0.5,38.1,2.9,56.2,9.7c1.2,0.5,2.2,1.7,3.3,2.6C370.3,189,370.1,189.6,370,190.2z"/>
	<path class="st0" d="M374.2,209.6c-57-23.9-107.6-6.7-156.9,21.5c-0.6-2.6-1.1-4.9-1.6-7.4c18.5-11.8,38.1-20.6,59-26.2
		c31-8.3,62.2-8.1,93.6-2.4c3.5,0.6,5.4,1.9,5.1,5.9C373.3,203.5,373.8,206.1,374.2,209.6z"/>
	<path class="st0" d="M415.8,424.3c-9.9,12.6-20.1,21.7-36.1,20.6c-8.7-0.6-15.4-10.4-12.2-18.5c0.4-1,2.4-2,3.7-2.1
		C385.6,424.2,399.9,424.3,415.8,424.3z"/>
	<path class="st0" d="M238.1,425c-1,4.9-1.1,9.5-2.8,13.4c-2.4,5.5-9.1,8-16.8,6.3c-11.8-2.5-19.6-10.8-28.4-19.7
		C206.7,425,221.8,425,238.1,425z"/>
	<path class="st0" d="M271.3,247.5c5.3-2.9,10.6-5.8,15.9-8.7c0-0.5,0-0.9,0-1.4c-5.5,0-10.9,0-16.7,0c8.4-9.9,22.9-10.9,32.3-3.3
		c2.2,1.8,6.1,1.3,9.3,1.9c1.7,0.3,3.5,0.7,5.2,1c-0.6,2.1-0.9,5.9-1.9,6.1c-8,1.8-14.1,9.3-23.9,6.1c-5.8-1.9-12.8-0.3-19.2-0.3
		C271.9,248.5,271.6,248,271.3,247.5z"/>
	<path class="st0" d="M346.6,237.2c5.5,2.7,10.6,5.3,15.7,7.8c-0.2,0.6-0.3,1.3-0.5,1.9c-6.1,0-12.1-0.1-18.2,0
		c-7.6,0.2-8.9,1.6-8,9.1c0.4,3.5,1.6,6.9,1.9,10.4c-6.4-9.8-7.4-20.7-4.7-31.7c0.6-2.5,4.1-5.1,6.8-6.2c6.9-2.8,22.3,2.6,27.1,8.8
		C349.1,233.4,349.1,233.4,346.6,237.2z"/>
	<path class="st0" d="M261.2,125.9c2.1,6.5,4.1,12.6,6.2,19.1c-5.2,2.2-9.9,4.1-15.2,6.3c-2.6-6.5-5.1-12.6-7.9-19.4
		C250,129.9,255.2,128,261.2,125.9z"/>
	<path class="st0" d="M352,302.2c-1.7-2.6-3-5.6-5.3-7.7c-1.6-1.5-4.5-2.5-6.7-2.3c-1.2,0.1-2.3,3.2-3.1,5.1c-0.4,1-0.1,2.4-0.1,3.6
		c-0.2,5.8-1,6.3-7.8,4.5c0.5-0.7,1-1.3,1.4-1.9c1.2-1.9,3.8-4.8,3.3-5.7c-1.5-2.4-4.1-4.4-6.8-5.7c-2-1-4.8-0.4-7.2-0.7
		c-5.5-0.7-9.9,0.9-13,5.7c-1.1,1.6-2.5,2.9-3,3.5c1-5.5,2.1-11.6,3.4-18.9c1,2.9,1.7,4.7,2.5,7.2c2.7-0.3,5.4-0.6,8.2-0.8
		c2.2-0.2,4.8-1.1,6.6-0.3c7,3.2,13.2,1.7,19.5-1.9c0.9-0.5,4,0.8,4.5,2c2.1,4.4,3.6,9.2,5.3,13.8C353.3,301.7,352.6,302,352,302.2z
		"/>
	<path class="st0" d="M295.2,141.5c-5.5,0.5-10.6,0.9-16.1,1.4c-0.3-6.2-0.6-11.7-1-17.9c5.7-0.5,11.2-1,17.1-1.6
		C295.2,129.5,295.2,135.3,295.2,141.5z"/>
	<path class="st0" d="M353.3,315.8c-17.5,0.8-33.5,1.4-50.6,2.2c5.7-6.7,18.4-9.8,25-7.6c2.5,0.8,5.7,1.3,8,0.4
		C343.4,307.8,345.6,308,353.3,315.8z"/>
	<path class="st0" d="M323,141.5c-5.5-0.7-10.3-1.3-16.1-2c0.5-5.6,1-11.2,1.5-17.6c6,0.9,11.4,1.7,17.6,2.6
		C325,130.4,324.1,135.6,323,141.5z"/>
	<path class="st0" d="M285.8,311.2c-4.2-11.3-8.6-23.2-12.8-34.6c7,0.6,9.6,3,10.6,11.5c0.8,6.8,1.5,13.6,2.2,20.4
		C285.9,309.7,285.8,310.9,285.8,311.2z"/>
	<path class="st0" d="M341.9,328.2c-8.2,9.5-13.8,9.6-25.3,0C325,328.2,333.6,328.2,341.9,328.2z"/>
	<path class="st0" d="M339,371.4c-0.3,13.7-6.2,20.8-14.8,17C329,382.9,333.7,377.5,339,371.4z"/>
	<path class="st0" d="M303.5,377.9c-2.6-0.4-5.6-0.1-7.6-1.4c-4.1-2.5-4.6-9.4-1.8-16.3c1.1,6.7,1.2,13.9,10.6,14.9
		C304.2,376.1,303.8,377,303.5,377.9z"/>
	<path class="st0" d="M278.8,358.7c-0.8,3.3-1.2,6.7-2.5,9.8c-0.4,1-2.9,1.1-4.4,1.6c-0.2-1.5-0.9-3.4-0.4-4.5c1.3-2.7,3.3-5,5-7.5
		C277.3,358.3,278.1,358.5,278.8,358.7z"/>
	<g>
		<path class="st1" d="M275.5,456.5c0.5-1.7,1-3.6,1.6-5.8l1.7-6.6c0.6-2.3,1.1-4.2,1.5-5.8c-0.5,0.3-0.8,0.5-1.1,0.7
			c-0.3,0.2-0.9,0.6-1.9,1.3c0.2-0.7,0.4-1.5,0.6-2.3c0.2-0.9,0.4-1.5,0.5-2c0.4-0.2,0.8-0.5,1.4-0.9c0.6-0.4,1-0.6,1.1-0.7
			c0.2-0.1,0.4-0.3,0.6-0.5c0.5,0,1.2,0,2,0c0.8,0,1.5,0,2.1,0l-0.7,2.3c-0.2,0.5-0.4,1.3-0.6,2.2l-3.5,13.2l-0.5,2
			c-0.1,0.4-0.2,0.8-0.3,1.2l-0.4,1.7c-0.6,0-1.3,0-2,0C277,456.5,276.2,456.5,275.5,456.5z"/>
		<path class="st1" d="M289,456.5c1.6-1.8,3-3.5,4.1-4.9c1.2-1.5,2.3-3,3.3-4.3c0.7-1,1.3-1.9,1.7-2.7c0.5-0.8,0.8-1.5,1-2.1
			c0.2-0.6,0.4-1.1,0.5-1.6c0.2-0.8,0.2-1.5,0.1-2.2c-0.1-0.6-0.4-1.1-0.8-1.4c-0.4-0.3-0.9-0.5-1.5-0.5c-0.6,0-1.3,0.2-1.9,0.5
			c-0.6,0.3-1.1,0.8-1.6,1.4c-0.4,0.6-0.7,1.3-0.9,2c-0.2,0.7-0.2,1.3-0.1,1.8c0.1,0.5,0.4,0.9,0.8,1.2c0.4,0.3,1,0.4,1.7,0.4
			c0.3,0,0.5,0,0.8-0.1c0.3-0.1,0.6-0.1,1-0.2c-0.9,1.1-1.8,2.3-2.6,3.5c-0.5,0.1-1,0.2-1.4,0.2c-1.1,0-2.1-0.3-2.9-0.8
			c-0.8-0.5-1.3-1.3-1.5-2.2c-0.2-1-0.2-2.1,0.1-3.2c0.3-1.5,0.9-2.8,1.8-4c0.9-1.2,2-2.2,3.3-2.9c1.3-0.7,2.8-1,4.3-1
			c1,0,2,0.2,2.8,0.5c0.8,0.3,1.5,0.8,1.9,1.5c0.4,0.7,0.7,1.5,0.8,2.4c0.1,0.9,0,1.8-0.2,2.7c-0.1,0.7-0.4,1.4-0.7,2.2
			c-0.3,0.8-0.7,1.7-1.2,2.6c-0.5,0.9-1.1,1.9-1.8,3.1c-0.7,1.1-1.6,2.3-2.5,3.6c-0.9,1.2-2.1,2.7-3.5,4.5c-0.8,0-1.6,0-2.4,0
			L289,456.5z"/>
		<path class="st1" d="M301.9,456.1c0.3-1.5,0.5-2.8,0.6-3.9c1.7,0.8,3.4,1.2,5,1.2c0.8,0,1.6-0.2,2.3-0.5c0.7-0.3,1.3-0.8,1.8-1.3
			c0.5-0.6,0.8-1.3,1-2c0.1-0.7,0.1-1.2-0.1-1.7c-0.2-0.5-0.6-0.9-1.2-1.1c-0.6-0.2-1.5-0.4-2.5-0.4c-0.7,0-1.4,0-2.1,0.1
			c0.4-1.3,0.7-2.5,1-3.6c0.5,0.1,1,0.2,1.6,0.2c0.8,0,1.6-0.1,2.4-0.3c0.8-0.2,1.4-0.6,2-1.2c0.5-0.6,0.9-1.2,1-1.9
			c0.1-0.3,0.1-0.5,0.1-0.8c0-0.3-0.1-0.5-0.1-0.7c-0.1-0.2-0.2-0.4-0.3-0.6c-0.2-0.2-0.3-0.3-0.5-0.4c-0.2-0.1-0.5-0.2-0.9-0.3
			c-0.4-0.1-0.8-0.1-1.2-0.1c-0.6,0-1.2,0-1.9,0.1c-0.7,0.1-1.5,0.3-2.6,0.5l0.6-1.4l0.8-2.2c1.1-0.2,2-0.3,2.7-0.4
			c0.7-0.1,1.5-0.1,2.4-0.1c1,0,1.9,0.1,2.7,0.3c0.9,0.2,1.6,0.5,2.1,1c0.5,0.5,0.9,1.1,1,1.8c0.1,0.7,0.1,1.6-0.1,2.4
			c-0.1,0.6-0.3,1.1-0.6,1.7c-0.3,0.6-0.6,1.1-1,1.6c-0.4,0.5-0.8,0.9-1.2,1.2c-0.4,0.3-0.8,0.6-1.1,0.7c-0.4,0.2-0.9,0.4-1.5,0.7
			c0.6,0.1,1.1,0.3,1.4,0.4c0.3,0.1,0.6,0.4,0.9,0.7c0.3,0.3,0.5,0.7,0.6,1.1c0.1,0.4,0.2,0.9,0.2,1.4c0,0.5-0.1,1.1-0.2,1.6
			c-0.2,1-0.7,2-1.3,2.9c-0.6,0.9-1.4,1.7-2.3,2.3c-0.9,0.6-1.9,1-2.9,1.3c-1,0.2-2.1,0.4-3.2,0.4c-0.8,0-1.6-0.1-2.4-0.2
			C304,456.6,303,456.4,301.9,456.1z"/>
		<path class="st1" d="M327.6,442.8c0.7-0.1,1.2-0.2,1.7-0.2c1,0,1.8,0.2,2.6,0.6c0.8,0.4,1.3,1.2,1.5,2.2c0.3,1,0.2,2.2,0,3.5
			c-0.2,1.1-0.6,2.1-1.2,3.1c-0.5,1-1.3,1.9-2.1,2.7c-0.9,0.8-1.8,1.4-2.9,1.7c-1,0.3-2.1,0.5-3.2,0.5c-0.9,0-1.8-0.1-2.6-0.4
			c-0.8-0.3-1.5-0.7-2-1.4c-0.5-0.6-0.9-1.4-1-2.4c-0.1-1-0.1-2,0.2-3c0.2-0.8,0.4-1.7,0.8-2.6c0.4-1,1-2.1,1.8-3.5
			c0.8-1.4,1.9-2.9,3.1-4.6c1.2-1.7,2.6-3.4,4.1-5.1h5c-1.8,1.9-2.9,3.2-3.5,3.9c-0.9,1-1.7,2-2.5,3.1c-0.8,1.1-1.5,2-2.1,3
			c-0.6,0.9-1.1,1.8-1.5,2.7c-0.3,0.5-0.5,1-0.7,1.5c-0.2,0.5-0.3,1-0.4,1.5c-0.3,1.2-0.2,2.2,0.2,2.9c0.4,0.7,1.1,1.1,2,1.1
			c0.7,0,1.3-0.2,1.9-0.6c0.6-0.4,1.1-0.9,1.5-1.5c0.4-0.6,0.7-1.3,0.8-2.1c0.2-0.7,0.2-1.3,0.1-1.9c-0.1-0.5-0.4-0.9-0.9-1.2
			c-0.5-0.3-1-0.4-1.7-0.4c-0.4,0-0.8,0.1-1.4,0.2C326.5,444.4,327.3,443.2,327.6,442.8z"/>
	</g>
</g>
</svg>
