<?xml version="1.0" encoding="UTF-8"?>
<!DOCTYPE svg PUBLIC "-//W3C//DTD SVG 1.1//EN" "http://www.w3.org/Graphics/SVG/1.1/DTD/svg11.dtd">
<!-- Creator: CorelDRAW 2020 (64 Bit) -->
<svg xmlns="http://www.w3.org/2000/svg" xml:space="preserve" width="361.28mm" height="390.486mm" version="1.1" style="shape-rendering:geometricPrecision; text-rendering:geometricPrecision; image-rendering:optimizeQuality; fill-rule:evenodd; clip-rule:evenodd"
viewBox="0 0 2922.85 3159.14"
 xmlns:xlink="http://www.w3.org/1999/xlink"
 xmlns:xodm="http://www.corel.com/coreldraw/odm/2003">
 <defs>
  <style type="text/css">
   <![CDATA[
    .fil1 {fill:#FEFEFE;fill-rule:nonzero}
    .fil2 {fill:#F3E332;fill-rule:nonzero}
    .fil3 {fill:#444599;fill-rule:nonzero}
    .fil0 {fill:#009958;fill-rule:nonzero}
   ]]>
  </style>
 </defs>
 <g id="Camada_x0020_1">
  <metadata id="CorelCorpID_0Corel-Layer"/>
  <g id="_2346439489264">
   <path class="fil0" d="M1415.57 3159.14c-253.97,-2.94 -493.1,-168.05 -503.16,-175.07 -38.84,-27.43 -156.6,-110.54 -291.52,-239.01 -160.48,-152.79 -288.95,-315.68 -381.86,-484.15 -214.55,-389.05 -216.05,-493.83 -168.32,-640.19 37.26,-114.25 146.8,-160.76 200.81,-177.15l0 -342.19c-24.34,14.78 -62.81,27.68 -104.78,27.68 -44.71,0 -85.78,-14.52 -118.75,-42 -26.6,-22.17 -56.16,-66.43 -45.9,-151.39 5.1,-42.25 18.13,-77.66 20.53,-83.91l160.99 -468.05 21.47 -3.83c0.79,-0.14 79.3,-14.23 142.72,-30.77 62.56,-16.32 242.18,-82.49 349.51,-122.05l6.64 -2.45c45.47,-16.75 90.5,-49.63 138.17,-84.48 57.3,-41.87 122.25,-89.3 199.48,-115.59 47.76,-16.27 93.9,-24.52 137.13,-24.52 94.5,0 174.87,39.41 232.42,114.02 22.26,28.85 38.5,55.8 50.32,79.91 11.83,-24.12 28.06,-51.06 50.33,-79.91 57.54,-74.61 137.91,-114.02 232.41,-114.02 43.24,0 89.37,8.25 137.14,24.52 77.24,26.29 142.18,73.72 199.48,115.59 47.67,34.85 92.69,67.73 138.17,84.48l6.64 2.45c107.32,39.56 286.94,105.73 349.51,122.05 63.42,16.55 141.93,30.63 142.72,30.77l21.47 3.83 160.99 468.05c2.4,6.25 15.44,41.66 20.52,83.91 1.19,9.82 1.84,19.09 2.03,27.85l0 10.63c-1.35,60.36 -25.67,94.37 -47.92,112.91 -32.98,27.48 -74.04,42 -118.75,42 -0.01,0 -0.01,0 -0.01,0 -41.98,-0 -80.45,-12.9 -104.78,-27.68l0 342.2c54.01,16.39 163.55,62.89 200.81,177.15 47.73,146.36 46.22,251.14 -168.32,640.19 -92.91,168.47 -221.38,331.37 -381.86,484.15 -134.93,128.47 -252.68,211.58 -291.38,238.89 -10.2,7.13 -249.33,172.24 -503.3,175.18l-91.77 0z"/>
   <path class="fil1" d="M564.43 2239.9l16.58 23.95 54.77 -78.85 -17.37 -25.09 -93.16 23.41 16.15 23.33 14.76 -4.72 17.94 25.92 -9.68 12.05zm11.1 -44.19l32.18 -10.21 -20.96 26.42 -11.22 -16.21z"/>
   <path class="fil1" d="M594.93 2270.27c-1.31,8.15 2.71,18.45 11.74,30.67 5.22,7.07 10.49,12.08 15.94,15.23 5.38,3.05 10.99,4.52 16.8,4.14 5.8,-0.39 11.02,-2.21 15.66,-5.64 3.94,-2.91 6.83,-6.61 8.54,-10.84 1.81,-4.31 2.2,-9.28 1.29,-15.16 -1.01,-5.81 -4.04,-14.34 -9.09,-25.61 -2.1,-4.54 -3.06,-7.73 -2.9,-9.41 0.09,-1.78 0.82,-3.11 1.94,-3.93 1.62,-1.19 3.45,-1.46 5.53,-0.97 2.08,0.49 4,2.04 5.94,4.66 2.31,3.13 3.4,6.08 3.23,9.01 -0.17,2.94 -1.77,5.84 -4.56,8.83l16.74 20.11c6.9,-6.51 10.19,-13.47 10.04,-20.85 -0.15,-7.39 -3.58,-15.62 -10.45,-24.91 -5.52,-7.47 -10.84,-12.76 -15.97,-15.68 -5.13,-2.92 -10.04,-4.29 -14.94,-3.95 -4.9,0.34 -9.15,1.77 -12.89,4.53 -5.65,4.18 -8.73,9.73 -9.31,16.56 -0.5,6.93 1.72,16.06 6.74,27.5 3.09,6.93 4.51,11.81 4.19,14.55 -0.22,2.66 -1.34,4.74 -3.16,6.08 -2.02,1.49 -4.41,1.85 -7.19,1.26 -2.78,-0.6 -5.28,-2.5 -7.67,-5.73 -3.13,-4.24 -4.11,-8.52 -2.9,-13.01 0.77,-2.76 2.73,-5.61 5.79,-8.65l-16.99 -20.24c-6.82,5.98 -10.87,13.19 -12.1,21.44z"/>
   <path class="fil1" d="M648.63 2342.24c-1.08,8.19 3.24,18.37 12.62,30.32 5.43,6.91 10.83,11.77 16.38,14.76 5.46,2.9 11.12,4.2 16.91,3.65 5.79,-0.55 10.95,-2.52 15.49,-6.09 3.85,-3.02 6.63,-6.8 8.22,-11.08 1.69,-4.36 1.93,-9.34 0.85,-15.19 -1.18,-5.78 -4.46,-14.22 -9.82,-25.33 -2.23,-4.47 -3.28,-7.64 -3.17,-9.33 0.04,-1.78 0.74,-3.13 1.82,-3.98 1.58,-1.24 3.41,-1.56 5.5,-1.12 2.09,0.43 4.06,1.92 6.08,4.49 2.4,3.06 3.57,5.98 3.49,8.92 -0.09,2.94 -1.61,5.89 -4.3,8.96l17.31 19.62c6.71,-6.7 9.8,-13.76 9.44,-21.13 -0.36,-7.38 -4.03,-15.51 -11.16,-24.6 -5.74,-7.31 -11.2,-12.44 -16.41,-15.22 -5.21,-2.77 -10.16,-4 -15.05,-3.51 -4.89,0.48 -9.1,2.03 -12.76,4.9 -5.53,4.34 -8.45,9.98 -8.83,16.82 -0.3,6.94 2.18,16 7.53,27.29 3.29,6.84 4.85,11.68 4.61,14.42 -0.14,2.67 -1.2,4.77 -2.98,6.17 -1.98,1.55 -4.35,1.98 -7.15,1.46 -2.8,-0.52 -5.35,-2.35 -7.83,-5.51 -3.26,-4.15 -4.35,-8.4 -3.27,-12.92 0.69,-2.78 2.56,-5.68 5.54,-8.81l-17.56 -19.74c-6.65,6.17 -10.48,13.49 -11.48,21.78z"/>
   <path class="fil1" d="M711.42 2403.37c-2.73,7.69 -3.21,15.14 -1.35,22.26 1.77,7.2 5.92,14.7 12.45,22.5 6.37,7.61 13.13,12.75 20.38,15.53 7.07,2.76 14.41,3.33 21.87,1.67 7.36,-1.58 15.13,-5.79 23.12,-12.48 11.17,-9.35 17.16,-19.61 18.08,-31.03 1,-11.32 -3.33,-22.76 -12.93,-34.22 -9.35,-11.17 -19.87,-17.27 -31.36,-18.29 -11.5,-1.02 -22.92,3.14 -34.09,12.49 -8.09,6.77 -13.54,13.96 -16.17,21.57zm52.32 -8.92c5.16,0.1 9.6,2.28 13.15,6.51 3.79,4.52 5.23,9.38 4.42,14.48 -0.81,5.1 -4.4,10.4 -10.85,15.8 -7.7,6.45 -14.14,9.71 -19.22,9.71 -5.08,-0 -9.51,-2.36 -13.38,-6.98 -3.71,-4.43 -5.15,-9.28 -4.34,-14.38 0.9,-5.18 4.86,-10.62 11.8,-16.43 7.03,-5.89 13.16,-8.73 18.42,-8.71z"/>
   <path class="fil1" d="M816.15 2516.93c-4.09,-0.04 -7.9,-2.02 -11.42,-5.94 -3.7,-4.11 -5.15,-8.54 -4.46,-13.22 0.69,-4.68 4.82,-10.42 12.19,-17.05 5.97,-5.38 11.2,-8.39 15.68,-9.04 6,-0.84 11.15,1.12 15.34,5.79 1.85,2.05 3.06,4.34 3.73,6.78 0.67,2.44 0.72,4.93 0.23,7.39 -0.26,1.59 -1.17,3.58 -2.63,6.08l20.39 14.59c5,-8.72 7.03,-16.97 6.03,-24.85 -0.91,-7.96 -5.2,-16.1 -12.76,-24.5 -9.66,-10.74 -20.12,-16.36 -31.29,-16.95 -11.27,-0.51 -22.45,4.15 -33.47,14.06 -8.31,7.48 -13.61,15.29 -15.91,23.44 -2.3,8.15 -2.41,15.35 -0.36,21.94 1.97,6.51 6.32,13.41 12.78,20.59 5.46,6.07 10.75,10.26 15.97,12.49 5.21,2.41 10.68,3.23 16.39,2.82 5.81,-0.49 11.77,-2.31 17.9,-5.63l-10.79 -23.07c-5.04,2.85 -9.57,4.39 -13.56,4.26z"/>
   <polygon class="fil1" points="828.41,2565.31 847.65,2585.49 912.73,2523.44 893.49,2503.26 "/>
   <path class="fil1" d="M904.34 2642.18l20.81 20.39 38.88 -87.78 -21.8 -21.35 -87.05 40.59 20.27 19.86 13.6 -7.42 22.52 22.06 -7.23 13.66zm2.55 -45.49l29.67 -16.11 -15.59 29.91 -14.08 -13.8z"/>
   <path class="fil1" d="M990.45 2688.06c-4.06,0.46 -8.08,-1.04 -12.06,-4.51 -4.17,-3.63 -6.15,-7.85 -6.03,-12.58 0.12,-4.73 3.52,-10.93 10.03,-18.41 5.28,-6.06 10.1,-9.69 14.47,-10.88 5.85,-1.56 11.2,-0.24 15.93,3.88 2.08,1.81 3.57,3.94 4.53,6.27 0.96,2.34 1.31,4.8 1.13,7.31 -0.07,1.61 -0.72,3.7 -1.87,6.36l22.02 12c3.9,-9.26 4.92,-17.7 2.96,-25.4 -1.88,-7.79 -7.12,-15.35 -15.64,-22.77 -10.89,-9.48 -21.96,-13.79 -33.12,-13.01 -11.24,0.87 -21.78,6.85 -31.51,18.03 -7.34,8.43 -11.65,16.83 -12.94,25.2 -1.29,8.37 -0.53,15.52 2.31,21.83 2.75,6.22 7.9,12.54 15.19,18.89 6.16,5.36 11.92,8.88 17.37,10.46 5.46,1.76 10.99,1.91 16.61,0.81 5.7,-1.2 11.4,-3.73 17.09,-7.77l-13.51 -21.58c-4.66,3.44 -8.96,5.52 -12.94,5.88zm-35.23 13.12c1.61,1.4 2.59,2.76 2.77,4.08 0.18,1.32 -0.1,2.41 -0.92,3.36 -0.99,1.14 -2.21,1.58 -3.81,1.51 -1.53,-0.16 -3.66,-1.35 -6.31,-3.66 -3.6,-3.13 -6.76,-6.39 -9.41,-9.85l-4.95 5.68c3.99,4.97 7.83,8.98 11.34,12.03 3.88,3.38 7.42,5.63 10.61,6.74 3.19,1.11 5.96,1.19 8.22,0.5 2.25,-0.87 4.05,-1.97 5.37,-3.49 2.06,-2.37 2.91,-5.45 2.49,-8.99 -0.42,-3.53 -3.28,-7.52 -8.59,-12.13 -2.56,-2.23 -5.63,-4.24 -9.05,-6.05l-6.2 4.26c3.35,2.08 6.25,4.11 8.43,6z"/>
   <path class="fil1" d="M1061.5 2772.47l23.96 16.57 23.46 -93.1 -25.1 -17.36 -78.93 54.74 23.34 16.14 12.15 -9.62 25.93 17.93 -4.81 14.69zm-5.19 -45.27l26.52 -20.9 -10.3 32.12 -16.22 -11.21zm59.56 -48.59c-0.94,0.26 -1.88,0.07 -2.81,-0.57 -1.34,-0.93 -2.88,-2.91 -4.88,-5.97 -2.11,-3.14 -3.47,-5.14 -4.28,-6.17 -0.82,-1.02 -1.88,-1.91 -3.02,-2.7 -2.79,-1.93 -5.88,-2.54 -9.34,-1.73 -3.46,0.81 -6.32,2.96 -8.82,6.57 -0.43,0.62 -0.93,1.34 -1.5,2.17l7.85 5.43c1.07,-1.55 2.09,-2.37 3.04,-2.63 0.94,-0.26 1.99,-0 2.91,0.64 1.03,0.71 2.53,2.52 4.4,5.34 3.23,4.83 5.79,7.97 7.96,9.47 3,2.07 6.09,2.68 9.37,1.9 3.29,-0.78 6.32,-2.96 8.89,-6.68 0.43,-0.62 0.9,-1.52 1.47,-2.34l-7.95 -5.5c-1.25,1.58 -2.34,2.5 -3.29,2.77z"/>
   <path class="fil1" d="M1112.25 2781.69c0.84,8.12 3.6,15.05 8.34,20.68 4.69,5.74 11.66,10.73 20.9,14.97 9.02,4.13 17.34,5.87 25.07,5.28 7.57,-0.54 14.45,-3.19 20.47,-7.88 5.97,-4.59 11.18,-11.73 15.52,-21.2 6.07,-13.24 7.07,-25.08 3,-35.78 -3.96,-10.66 -12.78,-19.12 -26.37,-25.35 -13.24,-6.07 -25.36,-7.07 -36.18,-3.05 -10.82,4.02 -19.35,12.68 -25.42,25.92 -4.4,9.59 -6.23,18.42 -5.34,26.42zm43.42 -30.52c4.7,-2.13 9.65,-2.07 14.67,0.23 5.37,2.46 8.75,6.22 10.21,11.18 1.46,4.95 0.49,11.28 -3.01,18.93 -4.19,9.13 -8.6,14.85 -13.19,17.02 -4.59,2.18 -9.6,1.95 -15.08,-0.56 -5.25,-2.41 -8.64,-6.17 -10.1,-11.12 -1.41,-5.07 -0.17,-11.68 3.6,-19.9 3.82,-8.33 8.14,-13.54 12.9,-15.78z"/>
   <path class="fil1" d="M1306.9 2869.13l28.4 6.5 -12.74 -95.16 -29.75 -6.81 -52.99 80.11 27.66 6.33 7.71 -13.44 30.73 7.03 0.98 15.42zm-21.61 -40.12l16.87 -29.25 2.35 33.65 -19.22 -4.4z"/>
   <polygon class="fil1" points="1343.11,2808.03 1371.3,2811.3 1363.49,2878.53 1391.06,2881.73 1398.87,2814.5 1427.06,2817.77 1429.62,2795.69 1345.67,2785.95 "/>
   <polygon class="fil1" points="1438.9,2885.69 1510.1,2884.63 1509.77,2862.53 1466.32,2863.18 1465.3,2795.37 1437.56,2795.79 "/>
   <path class="fil1" d="M1529.56 2882.64l74.98 -10.57 -2.84 -20.14 -47.38 6.68 -2.47 -17.53 42.65 -6.01 -2.56 -18.16 -42.65 6.01 -2 -14.18 46.01 -6.49 -2.68 -19.03 -73.61 10.38 12.55 89.03zm11.69 -97.91l11.81 -1.66 17.09 -20.92 -21.26 3 -7.64 19.59z"/>
   <polygon class="fil1" points="1602.28,2803.81 1629.73,2796.61 1646.9,2862.09 1673.75,2855.05 1656.58,2789.57 1684.03,2782.37 1678.39,2760.87 1596.64,2782.31 "/>
   <polygon class="fil1" points="1718.93,2840.91 1745.08,2831.24 1713.9,2746.9 1687.75,2756.57 "/>
   <path class="fil1" d="M1807.08 2776.53c-1.1,3.94 -4.01,7.1 -8.71,9.48 -4.93,2.5 -9.59,2.74 -13.92,0.86 -4.33,-1.89 -8.8,-7.37 -13.28,-16.22 -3.63,-7.17 -5.18,-13 -4.64,-17.5 0.76,-6.01 3.99,-10.47 9.59,-13.3 2.47,-1.25 4.99,-1.82 7.52,-1.84 2.53,-0.01 4.95,0.59 7.2,1.71 1.46,0.67 3.16,2.06 5.19,4.13l19.41 -15.88c-7.11,-7.1 -14.55,-11.22 -22.41,-12.3 -7.92,-1.2 -16.9,0.82 -26.98,5.92 -12.88,6.52 -21.04,15.16 -24.52,25.79 -3.43,10.74 -1.85,22.76 4.84,35.98 5.05,9.97 11.21,17.13 18.47,21.47 7.27,4.34 14.18,6.33 21.09,6.07 6.79,-0.2 14.59,-2.6 23.22,-6.97 7.28,-3.69 12.71,-7.7 16.23,-12.16 3.69,-4.4 5.91,-9.46 7,-15.09 1.04,-5.73 0.84,-11.97 -0.77,-18.75l-25.08 4.39c1.43,5.61 1.74,10.38 0.58,14.21z"/>
   <path class="fil1" d="M1912.37 2735.76l23.3 -17.48 -80.88 -51.72 -24.41 18.31 26.94 92.2 22.7 -17.03 -5.28 -14.57 25.21 -18.92 12.41 9.21zm-44.58 -9.41l-11.43 -31.77 27.2 19.94 -15.77 11.83z"/>
   <path class="fil1" d="M1978.06 2680.32l30.06 -28.34c3.56,-3.36 6.98,-7.79 10.34,-13.2 2.42,-3.84 3.8,-8.42 4.22,-13.65 0.33,-5.32 -0.49,-10.59 -2.46,-15.97 -2.15,-5.39 -6.41,-11.56 -12.96,-18.51 -4.22,-4.48 -8.82,-8.26 -13.62,-11.15 -4.8,-3.07 -9.8,-4.91 -15.02,-5.69 -5.22,-0.78 -10.39,-0.22 -15.59,1.58 -5.12,1.89 -10.65,5.55 -16.59,11.15l-30.07 28.34 61.67 65.43zm-22.5 -74.4c5.3,-5 10.25,-7.25 14.95,-6.84 4.7,0.41 10.27,4.12 16.82,11.07 4.91,5.21 7.89,9.47 9.13,12.8 1.15,3.23 1.33,6.17 0.45,8.9 -0.87,2.55 -3.46,5.85 -7.75,9.9l-4.93 4.65 -33.68 -35.73 5.03 -4.74z"/>
   <polygon class="fil1" points="2049.94,2611.67 2102.52,2557.18 2087.89,2543.05 2054.66,2577.48 2041.92,2565.18 2071.83,2534.19 2058.64,2521.46 2028.73,2552.45 2018.43,2542.51 2050.69,2509.08 2036.87,2495.73 1985.24,2549.22 "/>
   <path class="fil1" d="M2179.29 2470.82l19.1 -22 -89.96 -33.54 -20.01 23.04 45.75 84.46 18.61 -21.43 -8.23 -13.13 20.66 -23.8 14.07 6.4zm-45.56 0.19l-17.87 -28.65 30.79 13.76 -12.93 14.89z"/>
   <polygon class="fil1" points="2203.39,2442.45 2248.41,2387.29 2231.29,2373.31 2203.82,2406.98 2151.28,2364.1 2133.73,2385.61 "/>
   <polygon class="fil1" points="2194.53,2346.38 2211.9,2323.94 2265.43,2365.36 2282.41,2343.41 2228.88,2301.99 2246.25,2279.54 2228.67,2265.94 2176.95,2332.78 "/>
   <path class="fil1" d="M2290.72 2301.84c8.12,0.78 15.46,-0.55 21.92,-4.09 6.55,-3.46 12.82,-9.31 18.81,-17.53 5.83,-8.02 9.19,-15.84 10.13,-23.53 0.97,-7.52 -0.27,-14.79 -3.68,-21.62 -3.32,-6.76 -9.29,-13.28 -17.72,-19.41 -11.78,-8.57 -23.18,-11.89 -34.48,-10.01 -11.23,1.77 -21.27,8.75 -30.06,20.84 -8.57,11.78 -11.94,23.46 -10.14,34.86 1.8,11.4 8.61,21.48 20.39,30.04 8.53,6.2 16.82,9.75 24.85,10.46zm-21.34 -48.59c-1.15,-5.03 -0.12,-9.87 3.13,-14.34 3.47,-4.77 7.83,-7.35 12.97,-7.8 5.14,-0.45 11.15,1.75 17.96,6.69 8.13,5.91 12.85,11.37 14.08,16.3 1.23,4.93 0.02,9.8 -3.53,14.67 -3.4,4.67 -7.76,7.25 -12.9,7.7 -5.24,0.38 -11.48,-2.14 -18.8,-7.46 -7.41,-5.39 -11.66,-10.65 -12.92,-15.76z"/>
   <path class="fil1" d="M2362.07 2222.21c8.13,-1.47 16.51,-8.68 25.04,-21.26 4.93,-7.27 7.91,-13.9 9.08,-20.09 1.09,-6.09 0.62,-11.87 -1.67,-17.22 -2.29,-5.35 -5.74,-9.66 -10.52,-12.9 -4.05,-2.75 -8.5,-4.25 -13.06,-4.46 -4.66,-0.28 -9.48,1 -14.73,3.82 -5.14,2.88 -12.19,8.58 -21.14,17.07 -3.58,3.49 -6.28,5.45 -7.92,5.86 -1.71,0.51 -3.21,0.25 -4.35,-0.52 -1.66,-1.13 -2.52,-2.77 -2.75,-4.9 -0.23,-2.13 0.59,-4.45 2.43,-7.16 2.19,-3.22 4.6,-5.22 7.43,-6.04 2.83,-0.81 6.1,-0.26 9.85,1.37l13.41 -22.46c-8.43,-4.35 -16.09,-5.14 -23,-2.55 -6.92,2.59 -13.55,8.57 -20.03,18.13 -5.22,7.69 -8.44,14.46 -9.5,20.27 -1.06,5.81 -0.71,10.9 1.24,15.4 1.95,4.51 4.71,8.05 8.55,10.66 5.82,3.95 12.08,5.01 18.71,3.28 6.7,-1.83 14.58,-6.95 23.7,-15.48 5.51,-5.22 9.64,-8.18 12.33,-8.78 2.58,-0.68 4.91,-0.31 6.78,0.96 2.08,1.41 3.21,3.54 3.57,6.37 0.36,2.82 -0.6,5.81 -2.86,9.14 -2.96,4.36 -6.67,6.7 -11.31,7.05 -2.86,0.19 -6.19,-0.71 -10.08,-2.59l-13.45 22.74c7.91,4.45 16.05,5.87 24.24,4.3z"/>
   <polygon class="fil2" points="203.43,1940.13 2668.85,492.87 2334.2,363.62 116.74,1665.33 "/>
   <polygon class="fil1" points="2117.91,270.17 367.59,1297.64 377.53,1480.21 2293.68,355.38 "/>
   <polygon class="fil3" points="1823.61,91.33 346.81,958.26 386.74,1254.09 2068.6,266.8 "/>
   <path class="fil1" d="M2865.45 864.47l-154.13 -448.09c0,0 -79.91,-14.27 -145.56,-31.4 -65.64,-17.12 -251.16,-85.63 -359.61,-125.58 -108.45,-39.96 -202.64,-154.12 -336.78,-199.79 -134.14,-45.66 -251.16,-22.83 -328.22,77.06 -77.06,99.89 -74.08,172.66 -74.08,172.66l0.02 -0.01c-0.08,1.9 -0.15,3.81 -0.15,5.73 0,76.45 61.97,138.42 138.42,138.42 76.45,0 138.42,-61.97 138.42,-138.42 0,-42.1 -18.83,-79.8 -48.49,-105.18l0.03 0c0,0 14.21,-18.98 68.44,-18.98 82.77,0 156.97,108.45 488.05,245.46 331.07,136.99 362.47,108.45 362.47,108.45l117.02 365.32c0,0 -25.69,-79.91 -131.29,-79.91 -105.6,0 -105.6,151.27 -105.6,151.27l0 493.75c0,0 -25.69,-11.42 -134.14,71.35 -108.45,82.77 -102.75,225.47 -102.75,225.47l0.03 -0.02c-0.01,0.48 -0.03,0.96 -0.03,1.44 0,72.51 58.78,131.29 131.29,131.29 72.51,0 131.29,-58.78 131.29,-131.29 0,-49.85 -27.78,-93.21 -68.71,-115.44 0,0 65.85,-51.52 142.91,-28.69 77.06,22.83 79.91,119.87 77.06,151.27 -2.85,31.4 -5.71,142.7 -151.27,376.74 -145.56,234.03 -388.15,519.44 -593.65,670.71 -187,137.65 -421.23,142.95 -461.89,142.78l-0.05 -0.09c0,0 -1.05,0.03 -3.07,0.06 -2.01,-0.03 -3.06,-0.06 -3.06,-0.06l-0.05 0.09c-40.65,0.17 -274.89,-5.14 -461.89,-142.78 -205.49,-151.27 -448.09,-436.67 -593.65,-670.71 -145.56,-234.03 -148.41,-345.34 -151.26,-376.74 -2.85,-31.39 0,-128.43 77.06,-151.27 77.06,-22.83 142.91,28.69 142.91,28.69 -40.92,22.23 -68.71,65.59 -68.71,115.44 0,72.51 58.78,131.29 131.29,131.29 72.51,0 131.29,-58.78 131.29,-131.29 0,-0.49 -0.03,-0.96 -0.04,-1.44l0.04 0.02c0,0 5.71,-142.7 -102.75,-225.47 -108.45,-82.77 -134.14,-71.35 -134.14,-71.35l0 -493.75c0,0 0,-151.27 -105.6,-151.27 -105.6,0 -131.29,79.91 -131.29,79.91l117.02 -365.32c0,0 31.39,28.54 362.47,-108.45 331.07,-137 405.28,-245.46 488.05,-245.46 54.23,0 68.44,18.98 68.44,18.98l0.03 0c-29.66,25.37 -48.49,63.07 -48.49,105.18 0,76.45 61.98,138.42 138.42,138.42 76.45,0 138.42,-61.97 138.42,-138.42 0,-1.92 -0.07,-3.83 -0.14,-5.73l0.02 0.01c0,0 2.98,-72.77 -74.08,-172.66 -77.06,-99.89 -194.08,-122.72 -328.22,-77.06 -134.14,45.67 -228.33,159.83 -336.78,199.79 -108.45,39.96 -293.97,108.46 -359.61,125.58 -65.64,17.12 -145.56,31.4 -145.56,31.4l-154.12 448.09c0,0 -54.23,136.99 14.27,194.08 68.5,57.08 159.83,28.54 188.37,5.71 28.54,-22.83 48.52,-48.52 48.52,-48.52l0 456.65c0,0 -159.83,28.54 -202.64,159.83 -42.81,131.29 -48.52,222.62 165.54,610.77 214.05,388.15 565.1,642.16 662.14,710.66 0,0 236.89,165.54 482.34,168.39 15.92,0 41.68,0 45.24,0 0.27,0 0.43,0 0.43,0 3.56,0 29.32,0 45.24,0 245.45,-2.85 482.34,-168.39 482.34,-168.39 97.04,-68.5 448.09,-322.5 662.14,-710.66 214.06,-388.15 208.36,-479.48 165.54,-610.77 -42.81,-131.29 -202.64,-159.83 -202.64,-159.83l0 -456.65c0,0 19.98,25.69 48.52,48.52 28.54,22.83 119.87,51.37 188.37,-5.71 68.51,-57.08 14.28,-194.08 14.28,-194.08z"/>
   <path class="fil1" d="M629.76 686.63l12.54 21.44 -80.9 47.34c-3.87,-8.61 -5.73,-17.83 -5.6,-27.65 0.14,-9.82 3.15,-24.5 9.06,-44.06 4.73,-15.78 7.27,-26.08 7.6,-30.91 0.39,-6.62 -0.78,-12.26 -3.5,-16.91 -3.01,-5.15 -6.71,-8.29 -11.09,-9.44 -4.38,-1.15 -9.01,-0.29 -13.88,2.56 -4.82,2.82 -7.8,6.52 -8.95,11.08 -1.15,4.57 0.03,10.35 3.53,17.34l-24.35 11.16c-6.06,-13.5 -7.1,-25.13 -3.11,-34.89 3.99,-9.76 11.41,-17.81 22.25,-24.16 11.88,-6.95 23.09,-9.21 33.63,-6.78 10.54,2.43 18.59,8.41 24.17,17.94 3.17,5.42 5.22,11.15 6.14,17.19 0.92,6.04 0.85,12.98 -0.23,20.81 -0.71,5.19 -2.75,13.26 -6.13,24.2 -3.37,10.94 -5.39,18.08 -6.05,21.4 -0.66,3.33 -0.99,6.38 -0.97,9.17l45.83 -26.82z"/>
   <path class="fil1" d="M637.37 574.34c-2.79,1.64 -4.77,3.98 -5.91,7.04 -1.15,3.06 -0.98,7.24 0.51,12.55 1.9,6.9 6.99,17.41 15.26,31.54 8.27,14.13 14.66,23.42 19.18,27.87 4.52,4.45 8.37,6.92 11.56,7.41 3.19,0.49 6.18,-0.09 8.97,-1.72 2.79,-1.63 4.76,-3.98 5.91,-7.04 1.15,-3.06 0.98,-7.24 -0.51,-12.55 -1.88,-6.84 -6.94,-17.33 -15.21,-31.45 -8.27,-14.13 -14.66,-23.41 -19.17,-27.87 -4.52,-4.45 -8.38,-6.93 -11.58,-7.45 -3.2,-0.51 -6.2,0.05 -8.99,1.68zm-11.2 -19.14c11.66,-6.83 23.22,-8 34.66,-3.52 13.6,5.27 27.08,19.33 40.44,42.16 13.33,22.78 18.97,41.46 16.92,56.04 -1.71,12.03 -8.4,21.45 -20.06,28.28 -11.72,6.86 -23.8,7.88 -36.24,3.07 -12.45,-4.81 -25.43,-18.77 -38.95,-41.88 -13.27,-22.67 -18.87,-41.29 -16.82,-55.87 1.71,-12.02 8.39,-21.45 20.06,-28.28z"/>
   <path class="fil1" d="M810.51 609.63l-23.08 13.51 -50.9 -86.98c-3.82,12.82 -10.34,24.47 -19.57,34.95l-12.26 -20.95c4.87,-5.5 9.23,-13.06 13.07,-22.7 3.84,-9.64 4.93,-18.89 3.27,-27.77l18.72 -10.96 70.75 120.9z"/>
   <path class="fil1" d="M825.49 557.97l20.75 -15.78c4.04,5.28 8.51,8.51 13.39,9.69 4.88,1.18 9.54,0.48 13.98,-2.12 4.76,-2.79 7.71,-6.94 8.86,-12.46 1.14,-5.52 -0.08,-11.34 -3.67,-17.48 -3.4,-5.8 -7.65,-9.49 -12.76,-11.06 -5.11,-1.57 -9.91,-1.04 -14.4,1.59 -2.96,1.73 -6.15,4.37 -9.59,7.93l-8.46 -20.3c6.34,-3.49 10.31,-7.63 11.91,-12.43 1.6,-4.8 1.01,-9.58 -1.78,-14.34 -2.37,-4.05 -5.46,-6.58 -9.29,-7.58 -3.82,-1 -7.73,-0.33 -11.72,2.01 -3.94,2.31 -6.51,5.65 -7.7,10.02 -1.19,4.37 -0.55,9.36 1.93,14.97l-23.39 8.83c-2.78,-8.15 -3.96,-15.27 -3.52,-21.37 0.44,-6.1 2.6,-11.96 6.48,-17.57 3.88,-5.61 9.13,-10.36 15.76,-14.24 11.34,-6.63 22.54,-8.34 33.62,-5.12 9.1,2.61 15.83,7.64 20.19,15.09 6.18,10.57 5.34,22.38 -2.53,35.44 7.76,-2.56 15.22,-2.47 22.36,0.25 7.15,2.73 12.85,7.73 17.11,15.02 6.19,10.57 7.6,21.83 4.23,33.8 -3.36,11.97 -10.79,21.31 -22.29,28.04 -10.9,6.38 -21.77,8.53 -32.61,6.46 -10.84,-2.07 -19.8,-7.84 -26.88,-17.3z"/>
   <path class="fil1" d="M1522.1 2199.97c-0.03,-0.05 -0.05,-0.09 -0.08,-0.14 -0.06,-0.01 -0.1,-0.03 -0.16,-0.03l0.24 0.18z"/>
   <path class="fil1" d="M1998.41 1787.32c-17.86,5.53 -29.52,18.89 -42.66,30.57 -9.79,8.71 -19.91,17.04 -29.73,25.71 -3.25,2.87 -6.45,6 -8.82,9.58 -1.27,1.91 -0.73,5.01 -1.01,7.58 2.36,-0.43 5.14,-0.2 7.03,-1.39 15.45,-9.7 30.62,-19.86 46.12,-29.49 10.56,-6.56 21.77,-10.78 37.84,-4.06 -9.93,10.03 -18.13,19.24 -27.28,27.37 -19.36,17.19 -42.65,23.38 -68.18,23.87 -5.55,0.11 -11.5,4.21 -16.35,7.73 -3.97,2.88 -6.59,7.63 -10.78,10.85 4.63,-7.39 10.85,-14.28 13.43,-22.32 2.55,-7.93 1.42,-17.04 1.88,-25.28 1.9,4.03 3.7,7.85 5.5,11.66 3.16,-2.98 6.9,-5.56 9.38,-9.02 9.08,-12.65 17.75,-25.59 26.19,-37.86 0.9,2.14 2.03,4.79 3.15,7.45 3.21,-1.58 7.18,-2.43 9.5,-4.86 16.18,-16.96 31.51,-34.77 48.15,-51.25 11.65,-11.54 24.6,-21.88 37.7,-31.81 4.72,-3.58 11.55,-4.36 17.42,-6.43 0.52,0.72 1.03,1.43 1.54,2.15 -1.94,2.92 -3.57,6.13 -5.88,8.71 -11.63,12.95 -23.06,26.12 -35.38,38.4 -5.19,5.18 -11.87,10 -18.76,12.14zm-17.33 154.07c4.81,1.06 8.85,1.94 15.52,3.4 -4.95,5.93 -8.02,9.6 -11.09,13.28 -0.93,-0.8 -1.87,-1.6 -2.8,-2.4 -0.48,-4.2 -0.96,-8.4 -1.63,-14.28zm44.91 -69.9c1,4.22 1.56,8.86 3.75,12.43 9.08,14.83 10.1,31.18 10.81,47.89 0.8,18.83 3.82,37.63 3.68,56.43 -0.22,29.9 -1.24,59.88 -3.81,89.65 -2.29,26.5 -17.01,47.91 -33.87,67.52 -27.85,32.37 -55.98,64.51 -84.4,96.39 -5.91,6.62 -13.41,11.9 -20.48,17.4 -12.13,9.44 -24.5,18.58 -36.78,27.84 -2.44,1.84 -4.93,3.61 -9.65,7.06 5.97,-21.97 3.28,-41.26 -0.45,-60.4 -4.87,-24.96 -14.77,-47.95 -32.27,-66.52 -6.38,-6.77 -16.36,-10.15 -23.54,-14.39 24.59,-42.35 49.74,-85.68 74.38,-128.12 6.52,5.39 11.49,11.03 17.7,14.26 8.01,4.16 15.58,-0.69 23.1,-3.98 5.96,-2.6 12.36,-5.02 18.75,-5.68 15.49,-1.6 29.87,-10.34 31.87,-27.86 0.25,-2.24 1.19,-4.4 2.06,-7.48 20.13,6.29 28.96,22.98 38.1,39.58 5.55,-7.56 -0.71,-18.21 -20.67,-40.02 4.69,2.96 9.25,6.15 14.1,8.82 4.58,2.52 4.53,11.81 14.1,8.56 -9.04,-13.52 -19.93,-22.73 -36.47,-23.93 12.05,-6.83 27.44,-9.18 35.74,-4.98 1.84,0.93 2.64,3.82 4.08,5.7 1.27,1.66 2.74,3.17 4.12,4.75 1.17,-2.01 3.79,-5.23 3.29,-5.83 -3.21,-3.81 -6.67,-9.13 -10.87,-10 -7.67,-1.58 -15.99,-1.07 -23.9,-0.2 -6.84,0.74 -13.49,3.18 -20.09,4.83 -3.61,-7 3.86,-15.96 12.11,-17.06 5.05,-0.68 10.18,-3.2 14.54,-6.04 5.51,-3.58 9.24,-10.08 5.6,-15.67 -2.83,-4.37 -9.47,-6.49 -14.73,-8.94 -2.1,-0.98 -5.03,-0.16 -9.21,-0.16 1.4,-3.51 2.05,-5.87 3.22,-7.93 2.87,-5.05 6.17,-9.87 8.93,-14.98 4.13,-7.64 2.41,-10.28 -6.53,-10.51 -1.72,-0.05 -3.53,0 -5.18,0.44 -7.22,1.94 -13.03,2.52 -20.08,-3.37 -8.26,-6.91 -19.22,-4.26 -27.61,1.98 -5.02,3.73 -9.5,4.44 -15.26,3.74 -6.79,-0.83 -13.69,-0.75 -21.51,-1.12 6.81,-10.14 12.13,-17.63 27.08,-17.2 24.23,0.7 46.87,-7.93 65.31,-24.75 8.1,-7.39 16.32,-14.9 23.04,-23.5 8.99,-11.5 4.63,-20.51 -9.69,-21.64 -5.17,-0.41 -10.5,-0.16 -15.61,0.67 -4.72,0.77 -9.24,2.72 -16.14,4.85 11.8,-13.22 23.84,-21.88 39.7,-26.42 1.95,6.2 4.28,12.39 5.82,18.77 4.76,19.67 9.18,39.42 13.83,59.11zm-105.4 477.59c-8.13,44.83 -16.61,89.61 -25.86,134.22 -3.23,15.54 -7.55,31.25 -14.25,45.53 -4.75,10.12 -13.77,18.55 -21.91,26.7 -11.43,11.44 -25.32,17.29 -42,14.15 -8.27,-1.56 -16.76,-2.22 -24.86,-4.35 -36.81,-9.7 -74.41,-8.49 -111.88,-8.18 -13.22,0.11 -26.43,4.48 -39.63,4.41 -26.96,-0.13 -53.96,-1.31 -80.84,-3.36 -11.91,-0.9 -23.61,-4.87 -35.36,-7.62 -14.36,-3.36 -28.5,-8.29 -43.04,-10.08 -27.22,-3.35 -36.29,-22.92 -41.39,-45.01 -6.32,-27.4 -11.48,-55.16 -15.26,-83.02 -2.83,-20.88 -6.3,-42.11 -1.28,-63.29 0.45,-1.91 1.24,-3.73 2.48,-7.34 6.33,31.36 7.61,62.22 20.75,89.93 1.01,-0.24 2.02,-0.48 3.03,-0.71 -0.33,-2.16 -0.56,-4.34 -1,-6.48 -5.39,-26.11 -9.7,-52.5 -16.53,-78.23 -7.6,-28.62 -1.7,-55.78 4.37,-83.37 1.76,-8.03 1.38,-16.53 1.98,-24.85 6.48,-1.4 7.73,2.37 7.68,7.37 -0.1,11.63 -0.44,23.26 -0.29,34.88 0.06,4.69 1.17,9.37 1.8,14.06 0.98,0.13 1.96,0.27 2.95,0.41 0.72,-1.66 2.08,-3.34 2.05,-4.99 -0.31,-16.2 -1.08,-32.4 -1.09,-48.6 -0,-2.26 3.4,-4.52 6.58,-8.47 4.33,31.97 7.83,61.22 12.37,90.31 4.45,28.53 9.94,56.9 14.97,85.34 1.04,-0.13 2.08,-0.26 3.12,-0.39 -0.3,-5.56 -0.11,-11.19 -1,-16.66 -3.41,-20.93 -7.64,-41.72 -10.69,-62.7 -4.63,-31.91 -8.57,-63.92 -12.68,-95.9 -0.22,-1.72 0.61,-3.57 2.44,-5.35 2.05,12.73 4.1,25.47 6.14,38.2 0.91,-0.11 1.81,-0.21 2.72,-0.32 -1.32,-15.35 -2.65,-30.69 -3.97,-46.04 1.04,-0.12 2.07,-0.24 3.1,-0.36 1.27,13.17 2.55,26.34 3.82,39.51 0.77,0.02 1.54,0.04 2.31,0.06 1.79,-7.39 0.41,-15.05 -0.11,-22.63 -0.53,-7.83 -1.08,-15.66 -1.62,-23.48 1.05,-0.08 2.11,-0.16 3.16,-0.23 1.07,13.15 2.14,26.3 3.21,39.44 0.63,-0.03 1.26,-0.07 1.88,-0.1 0,-14.53 0,-29.07 0,-43.61 0.83,-0.14 1.65,-0.28 2.48,-0.41 5.1,13.73 2.58,28.84 4.02,43.24 0.8,-0.03 1.61,-0.06 2.42,-0.09 0,-9.97 0,-19.94 0,-29.91 0.65,-0.03 1.3,-0.05 1.95,-0.07 2.36,30.07 4.71,60.14 7.06,90.21 1.58,-0.15 3.15,-0.29 4.72,-0.44 -3.1,-36.87 -6.2,-73.75 -9.3,-110.63 0.92,-0.09 1.84,-0.17 2.76,-0.26 5.9,13.49 2.19,28.4 6.31,42.62 0.41,-1.92 1.22,-3.85 1.15,-5.75 -0.53,-12.77 -1.33,-25.54 -1.85,-38.31 -0.11,-2.64 0.6,-5.31 0.93,-7.96 1.32,0.07 2.64,0.14 3.96,0.21 0,18.23 0,36.47 0,54.7 1.05,-0.04 2.1,-0.09 3.16,-0.13 0,-16.85 0,-33.7 0,-50.55 0.51,-0.28 1.03,-0.56 1.54,-0.84 1.25,2.09 2.5,4.19 3.76,6.29 8.25,1.53 8.93,8.4 9.28,14.6 1.01,17.97 1.16,36 2.09,53.98 1.36,26.12 2.93,52.26 12.42,77.07 0.91,2.39 2.81,4.41 6.06,5.58 -2.93,-11.63 -7.13,-23.11 -8.52,-34.93 -2.61,-22.17 -4.53,-44.51 -4.91,-66.81 -0.23,-13.49 2.99,-27.03 5.26,-40.93 0,8.29 0,16.59 0,24.87 1.06,0.13 2.11,0.26 3.16,0.39 0.93,-4.35 1.86,-8.7 3.16,-14.75 6.85,32.68 12.7,64.17 25.15,93.66 1.03,-0.29 2.07,-0.57 3.11,-0.86 -2.36,-8.06 -4.99,-16.06 -7.02,-24.2 -6.36,-25.63 -12.57,-51.3 -18.67,-76.99 -1.6,-6.72 -1.33,-6.78 4.35,-10.21 9.04,19.32 11.03,41.34 21.4,60.08 0.95,-0.35 1.9,-0.7 2.85,-1.05 -1.31,-3.27 -2.85,-6.46 -3.88,-9.82 -3.85,-12.48 -7.45,-25.04 -11.31,-37.52 -4.53,-14.65 -4.61,-14.63 8.55,-21.54 9.5,22.31 18.99,44.61 28.07,65.93 -1.49,6.4 -4.27,12.98 -4.26,19.55 0.02,9.17 1.37,18.53 3.52,27.47 4.19,17.36 4.59,17.26 -5.71,33.81 -2.11,-1.94 -4.09,-3.84 -6.15,-5.65 -6.93,-6.09 -14.07,-4.48 -15.09,4.48 -1.5,13.14 -1.02,26.5 -1.63,39.75 -0.18,3.85 -0.71,7.82 -1.93,11.45 -5.46,16.16 -11.7,32.08 -16.4,48.45 -0.71,2.49 4.6,7.93 8.25,10.14 4.93,2.99 8.92,-0.5 11.07,-5.15 5,-10.81 9.42,-21.91 14.72,-32.57 1.88,-3.78 5.2,-7.19 8.59,-9.82 12.23,-9.44 20.4,-21.23 23.01,-36.64 1.25,-7.35 -3.17,-9.86 -9.28,-10.74 -1.65,-15.3 11.11,-20 19.45,-27.76 20.6,23.85 40.46,48.05 61.69,70.99 12.94,13.98 27.94,26.05 42.17,38.82 1.91,1.72 4.7,2.47 8.29,2.1 -0.78,-1.25 -1.25,-3 -2.37,-3.69 -25.28,-15.63 -42.79,-38.99 -61.51,-61.21 -8.96,-10.64 -18.79,-20.54 -28.08,-30.9 -3.29,-3.68 -6.35,-7.6 -9.15,-11.66 -7.39,-10.75 -7.3,-10.8 0.96,-19.84 21.56,17.99 43.19,35.8 64.54,53.95 18.25,15.51 40.47,22.16 62.68,28.95 0.64,0.19 1.55,-0.52 3.82,-1.35 -1.96,-1.59 -3.04,-3 -4.45,-3.53 -13.3,-4.99 -27.21,-8.73 -39.81,-15.07 -10.44,-5.26 -19.81,-13.01 -28.85,-20.61 -16.64,-13.97 -32.77,-28.56 -48.93,-43.09 -3.49,-3.15 -5.31,-6.83 -3.1,-12.32 3.35,-8.34 -4.02,-6.76 -11.14,-8.07 6.25,-6.11 11.3,-11.06 15.97,-15.62 6.56,10.05 12.1,19.93 19.05,28.71 4.54,5.74 10.46,11.05 16.86,14.54 30.16,16.42 62.01,28.56 95.73,35.62 18.6,3.9 44.14,-1.72 57.08,-14.27 -3.67,0.31 -5.88,-0.15 -7.28,0.71 -25.85,15.91 -52.42,10.17 -78.23,1.21 -22.12,-7.68 -43.8,-17.06 -64.67,-27.66 -8.96,-4.55 -15.39,-14.06 -21.83,-20.23 10.83,-6.11 20.04,-11.3 29.76,-16.79 -4.49,8.34 -0.09,14.01 6.45,17.87 8.26,4.89 13.18,-2.32 18.26,-6.6 8.21,4.91 15.66,10.55 23.99,14.12 20.38,8.75 41.55,14.74 64.1,14.25 1.56,-0.03 3.36,0.81 4.7,1.74 10.76,7.45 17.89,6.34 28.16,-1.86 21.42,-17.1 43.41,-33.49 65.22,-50.1 1.5,-1.14 3.47,-1.64 7.09,-3.3 -1.1,11.78 -2.49,22 -2.85,32.26 -0.22,6.25 -0.63,13.49 2.11,18.67 6.85,12.91 5.74,26.16 3.37,39.21zm-512.71 -17.68c-22.56,17.32 -46,33.59 -63.37,56.7 -1.56,2.08 -3.41,4.03 -5.44,5.64 -10.23,8.1 -15.24,7.16 -22.74,-3.25 -9.45,-13.11 -19.28,-25.94 -28.84,-38.97 -1.35,-1.84 -2.42,-4.04 -3.03,-6.24 -12.46,-45.29 -23.16,-90.53 -12.55,-138.16 9.15,-41.04 16.64,-82.45 24.65,-123.74 1.4,-7.2 1.73,-14.6 0.77,-22.27 -6.17,10.65 -6.06,22.92 -9,34.32 -3.03,11.72 -5.55,23.58 -8.77,37.44 -5.88,-26.29 -11.44,-50.58 -16.68,-74.95 -1.7,-7.93 -3.38,-16.01 -3.63,-24.07 -0.38,-12.18 6.23,-21.99 12.56,-31.89 5.99,-9.37 13.66,-18.48 9.13,-31.26 -0.53,-1.5 1.88,-4.74 3.7,-6.22 3.31,-2.7 7.21,-4.69 12.13,-7.77 10.58,28.78 26.59,52.67 51.97,65.91 -1.04,11.07 -2.15,20.33 -2.64,29.62 -0.14,2.7 1.28,5.57 2.35,8.22 2.93,7.2 2.89,14.07 1.25,21.91 -3.77,18.11 -4.76,36.81 -8.84,54.83 -9.8,43.27 -2.49,86.25 0.29,129.36 1.05,16.26 3.04,32.63 2.01,48.78 -0.74,11.56 -5.88,22.82 -8.84,34.27 -0.64,2.48 -0.33,5.2 -0.46,7.81 1.91,-1.94 4.36,-3.59 5.66,-5.88 11.39,-20.08 9.96,-41.78 8.22,-63.69 -2.64,-33.3 -4.63,-66.65 -6.79,-99.99 -0.3,-4.6 -0.04,-9.24 -0.04,-13.86 0.44,-0.02 0.89,-0.03 1.34,-0.05 3.64,28.46 7.27,56.92 10.9,85.37 1.35,-0.13 2.71,-0.26 4.06,-0.39 -1.14,-14.76 -2.29,-29.53 -3.43,-44.29 0.51,-0.28 1.02,-0.55 1.53,-0.83 1.02,1.69 2.72,3.28 2.95,5.07 2.57,19.88 5.01,39.77 7.23,59.69 0.34,3.03 3.17,7.98 -3.8,8.05 -0.51,0.01 -1.71,2.53 -1.39,3.46 4.81,13.61 1.16,26.25 -4.92,38.75 6.55,0.01 11.52,-13.52 12.08,-26.02 0.43,-9.83 3.01,-19.56 4.28,-27.23 1.3,6.7 4.51,15.74 4.39,24.73 -0.11,8.51 -5.43,16.7 -4.87,25.66 7.75,-10.39 7.04,-24.23 15.8,-33.68 2.45,-8.16 -0.83,-17.72 4.92,-25.5 1.14,0.21 2.28,0.43 3.42,0.64 -3.78,20.62 -7.56,41.24 -11.33,61.87 1.06,0.22 2.13,0.43 3.19,0.65 2.11,-8.47 4.54,-16.86 6.26,-25.41 1.89,-9.37 1.64,-19.61 12.76,-24.59 0.66,3.17 1.3,6.28 1.95,9.39 0.8,0.01 1.6,0.01 2.4,0.01 0.25,-5.37 0.5,-10.75 0.75,-16.12 0.5,-0.01 1,-0.01 1.51,-0.01 0.18,2.14 0.37,4.28 0.71,8.29 3.96,-2.54 7.13,-4.56 11.23,-7.18 -0.13,2.97 -0.06,5.36 -0.37,7.7 -1.25,9.43 -3.78,18.85 -3.64,28.25 0.14,10.43 -6.09,15.85 -12.9,21.08zm-32.72 -95.95c1.39,8.05 10.41,16.01 1.25,24.42 -0.44,-8.58 -0.84,-16.53 -1.25,-24.42zm11.95 23.13c-3.66,11.11 2.44,22.27 -8.72,29.5 -2.25,-10.43 -5.59,-20.78 8.72,-29.5zm-19.15 -3.78c-0.87,-8.69 -1.64,-16.4 -2.46,-24.53 6.82,3.37 7.19,8.13 2.46,24.53zm-11.3 -162.37c-1.28,-1.78 -0.2,-5.25 -0.19,-7.94 0.02,-7.02 1.6,-14.49 -0.25,-20.97 -3.69,-12.92 -3.96,-24.44 2.38,-36.99 4.87,-9.63 6.07,-21.06 9.44,-31.53 1.47,-4.56 4.25,-8.71 6.44,-13.04 1.25,-0.01 2.49,-0.03 3.74,-0.04 0.64,3.14 2.14,6.4 1.74,9.4 -1.09,8.3 -4.19,16.51 -4.11,24.73 0.05,5.23 3.36,11.33 7.06,15.34 2.77,3 14.03,-3.46 16.63,-9.46 4.15,-9.57 7.53,-19.48 11.52,-29.13 3.5,-8.47 8.42,-15.83 19.98,-18.35 -5.81,16.39 -11.59,32.79 -17.44,49.17 -1.46,4.09 -3.45,8.03 -4.58,12.2 -0.46,1.7 0.73,3.85 1.17,5.8 1.4,-1.46 3.48,-2.67 4.09,-4.41 7.19,-20.49 14.16,-41.06 21.22,-61.6 0.45,-1.31 1.2,-2.51 1.81,-3.74 7.07,3.11 10.33,10.32 7.97,19.49 -4.04,15.71 -8.8,31.23 -13.04,46.89 -0.8,2.98 -0.62,6.23 -0.89,9.35 1.21,0.2 2.42,0.39 3.62,0.59 5.45,-18.63 10.89,-37.27 16.88,-57.78 14.01,24.13 2.97,45.83 -1.44,67.9 11.23,-8.81 7.03,-25.27 16.75,-34.38 1.07,0.27 2.15,0.55 3.22,0.82 -0.53,5.79 -0.37,11.74 -1.74,17.32 -4.57,18.57 -11.6,34.78 -32.71,41.08 -15.78,4.7 -30.74,12.1 -46.1,18.23 -10.07,4.02 -26.95,-0.27 -33.16,-8.93zm62.73 162.03c2.45,-6.18 4.9,-12.36 7.88,-19.86 5.6,10.87 -1.66,15.14 -7.88,19.86zm155.04 -73.61c-10.76,6.06 -19.88,11.1 -28.92,16.29 -5.82,3.34 -14.78,0.84 -19.74,-5.84 -1.9,-2.56 -3.44,-5.38 -5.22,-8.04 -5.57,-8.31 -5.59,-8.31 1.1,-18.19 11.92,22.22 32.9,15.24 52.77,15.77zm-8.3 -12.61c-2.65,-1.79 -4.52,-4.75 -6.73,-7.19 -0.71,0.61 -1.43,1.21 -2.14,1.82 1.12,2.78 2.24,5.57 3.38,8.39 -5.47,0 -10.78,-0.99 -15.55,0.2 -10,2.5 -12.19,-5.56 -16.28,-10.96 -0.77,-1.02 -0.28,-4.38 0.76,-5.16 7.95,-6.03 16.19,-11 27.1,-8 10.64,2.93 16.35,10.33 19.93,19.94 0.42,1.13 -0.92,2.91 -1.44,4.38 -3.04,-1.09 -6.44,-1.66 -9.03,-3.42zm-251.26 -354.34c6.54,-15.78 13.09,-31.56 19.63,-47.34 -1.82,7.61 -3.38,15.3 -5.75,22.73 -2.83,8.87 -6.56,17.45 -9.9,26.16 -1.33,-0.51 -2.65,-1.03 -3.98,-1.54zm-7.21 73.56c8.09,-12.27 16.56,-24.28 23.37,-37.45 -11.67,6.37 -16.07,18.72 -25.74,27.62 0.67,-5.76 0.69,-11.68 2.12,-17.24 3.81,-14.73 7.84,-29.08 15.48,-42.88 8.95,-16.16 13.66,-34.68 20.81,-53.78 -4.42,0.42 -6.48,0.62 -8.42,0.81 2.84,-11.17 5.73,-22.28 8.63,-33.4 -0.99,-0.37 -1.99,-0.75 -2.98,-1.12 -1.34,2.43 -3.09,4.72 -3.97,7.31 -5.08,14.81 -10.51,29.53 -14.76,44.59 -4.52,16.02 -16.15,24.88 -29.53,32.44 -10.34,5.85 -21.31,10.79 -30.96,17.61 -14.34,10.13 -27.39,8.33 -41.14,-0.72 -18.77,-12.36 -34.56,-27.18 -43.34,-48.89 38.22,-1.7 61.92,-25.71 84.88,-55.66 -3,18.03 -5.7,34.33 -8.41,50.63 0.78,0.17 1.57,0.35 2.36,0.52 7.12,-8.64 6.41,-19.85 7.48,-30.16 1.02,-9.79 0.22,-19.76 0.22,-29.66 1.28,-0.01 2.57,-0.03 3.86,-0.04 0.89,16.02 1.71,32.05 2.76,48.06 0.14,2.1 1.52,4.11 2.33,6.17 1.17,-2 3.18,-3.94 3.34,-6.03 0.47,-5.76 0.16,-11.58 0.16,-17.39 0.74,-0.03 1.48,-0.05 2.22,-0.08 0.34,8.45 1.36,16.95 0.82,25.34 -0.52,8.15 -2.64,16.19 -4.07,24.36 8.55,-2.18 8.94,-4.35 10.28,-48.44 2.25,6.04 4.49,12.07 6.79,18.24 5.43,-1.04 6.64,-2.55 3.32,-8.84 -6.34,-12.01 -13.49,-23.6 -20.36,-35.33 -1.43,-2.45 -3.16,-4.72 -5.06,-7.53 15.27,-13.92 23.88,3.2 36.62,7.34 -1.92,-9.94 -11.76,-9.95 -15.48,-17.04 6.5,-7.46 16.25,-8.86 25.87,-11.84 12.16,-3.76 15.72,8.8 24.12,11.5 0.53,-0.72 1.06,-1.43 1.6,-2.15 -3.59,-4.15 -7.18,-8.29 -11.93,-13.79 6.98,-2.48 13.06,-4.63 19.52,-6.93 2.75,4.69 5.06,9.33 8,13.52 22.32,31.86 55.23,37.88 87.32,22.15 8.11,-3.98 14.42,-10.69 14.84,-21.07 0.21,-5.19 1.46,-10.33 2.3,-15.98 11.74,1.17 18.95,9.6 25.2,15.87 0,13.74 0,26.06 0,40.09 -14.22,11.86 -19.79,30.24 -22.88,49.15 -1.11,6.78 1.26,15.29 4.82,21.4 5.12,8.81 12.92,16.04 19.28,24.19 5.08,6.5 9.7,13.36 13.1,18.09 -3.56,4.46 -5.84,7.41 -8.23,10.28 -5.92,7.1 -11.76,14.28 -17.87,21.21 -5.38,6.1 -11.08,11.91 -16.64,17.84 0.6,0.85 1.2,1.7 1.8,2.54 9.42,-4.06 18.84,-8.13 28.26,-12.2 0.39,0.7 0.77,1.4 1.16,2.1 -3.76,7.21 -7.53,14.43 -11.29,21.64 1.32,0.71 2.63,1.41 3.94,2.11 5.44,-9.03 10.88,-18.06 17.33,-28.76 -6.96,-0.96 -11.99,-1.65 -17.8,-2.46 5.29,-6.23 10.51,-12.38 16.66,-19.64 -1.36,18.22 9.61,27.95 21.8,37.38 6.36,4.92 11.41,11.54 17.1,17.34 3.05,3.11 5.82,6.68 9.36,9.08 26.24,17.79 37.3,44.69 44.87,73.77 0.07,0.28 0.13,0.57 0.25,0.84 12.69,27.61 5.94,55.19 -1.06,82.38 -5.3,20.61 -4.2,40.8 -0.51,61.25 0.92,5.11 1.84,10.23 2.5,15.38 0.9,7.06 -3.08,11.29 -9.99,15.28 3.66,-10.04 -0.57,-17.28 -5.09,-24.61 -4.72,-7.64 -11.49,-12.07 -19.9,-14.48 -14.68,-4.21 -34.49,4.46 -41.51,18.06 -5.16,10 -9.68,20.49 -16.14,29.59 -3.81,5.37 -10.29,10.38 -16.53,12.14 -11.53,3.25 -19.03,10.99 -23.97,20.19 -8.72,16.24 -31.66,14.4 -38.62,-3.87 -6.3,-16.54 -8.96,-17.27 -25.99,-16.48 -12.93,0.6 -19.29,-4.7 -17.28,-17.41 2.53,-15.98 7.19,-31.63 11.16,-47.37 1.91,-7.6 4.04,-15.17 6.7,-22.53 0.94,-2.59 3.31,-5.47 5.77,-6.56 12.73,-5.62 25.38,-11.76 38.65,-15.71 18.65,-5.55 26.48,-19.7 31.92,-36.1 2.35,-7.1 3.6,-14.7 4.31,-22.17 0.67,-7.03 0.43,-14.25 -9.16,-16.22 -1.34,-0.27 -2.49,-4.09 -2.77,-6.38 -1.19,-9.92 -2.45,-19.67 -11.34,-26.29 -1.01,-0.75 -1.31,-2.51 -1.86,-3.83 -7.06,-17.12 -22.83,-19.98 -36.62,-6.8 -11.47,10.97 -14.57,26.13 -20.6,39.86 -1.92,4.38 -5.22,8.16 -7.89,12.21 -1.22,-0.41 -2.45,-0.82 -3.68,-1.22 0.24,-4.21 0.2,-8.46 0.79,-12.62 1.06,-7.44 3.88,-14.93 3.29,-22.18 -0.39,-4.79 -4.57,-10.85 -8.79,-13.13 -2.42,-1.31 -10.06,2.69 -12.27,6.23 -4.21,6.73 -6.38,14.78 -9.05,22.4 -1.32,3.78 -1.86,7.84 -3.07,13.17 -12.78,-7.05 -27.63,-14.46 -30.54,-26.15 -2.98,-11.94 -10.1,-24.08 -7.58,-37.53 0.51,-2.71 -0.74,-5.75 -1.18,-8.63 -1.08,-0.17 -2.15,-0.35 -3.23,-0.52 -1.72,4.8 -3.45,9.6 -5.17,14.4 -0.75,0.09 -1.5,0.19 -2.25,0.28 0,-5.56 -1.32,-11.53 0.26,-16.59 3.78,-12.11 8.89,-23.81 13.53,-35.64 2.54,-6.48 5.34,-12.86 7.74,-19.39 0.58,-1.59 0.09,-3.59 0.09,-5.4 -0.82,-0.3 -1.64,-0.6 -2.45,-0.9 -3.81,8.3 -7.55,16.63 -11.45,24.88 -3.96,8.37 -8.08,16.66 -12.1,24.93 -3,-7.97 1.04,-32.91 7.42,-42.58zm-144.35 -124.12c8.67,-26.53 23.11,-48.37 50.71,-58.42 -5.31,15.29 -10.52,29.85 -15.27,44.55 -0.77,2.37 0.57,5.41 0.93,8.15 2.59,-0.73 5.27,-1.24 7.76,-2.22 21.03,-8.28 34.99,-24.16 45.37,-43.84 0.93,0.01 1.87,0.01 2.8,0.01 0.66,2.51 2.64,5.65 1.79,7.43 -13.65,28.44 -35.67,47.39 -66.13,55.77 -6.23,1.71 -13.3,1.21 -19.88,0.6 -6.8,-0.63 -9.9,-6.43 -8.07,-12.02zm51.9 -58.85c0.06,0.01 0.08,0.03 0,0l0 0zm17.11 -49c2.61,-3.84 13.61,-2.75 16.64,1.48 2.73,3.81 4.52,8.29 5.59,13.66 -4.4,-3.67 -8.79,-7.34 -13.19,-11.01 -0.72,0.63 -1.43,1.27 -2.15,1.9 3.21,4.76 6.41,9.53 9.61,14.29 -0.75,0.66 -1.5,1.32 -2.25,1.98 -4.35,-2.52 -8.7,-5.04 -13.06,-7.57 -0.58,0.72 -1.15,1.45 -1.72,2.17 3.1,3.27 6.19,6.54 9.29,9.82 -0.13,0.51 -0.25,1.01 -0.38,1.52 -4.05,-1.35 -8.1,-2.7 -12.45,-4.15 2.38,9.73 11.18,13.1 17.89,7.18 9.49,-8.38 18.75,-17.02 29.29,-26.63 -5.7,13.47 -10.63,26.4 -16.84,38.69 -1.21,2.4 -7.34,2.43 -11.25,3.34 -4.79,1.11 -9.63,2 -14.45,2.99 0.21,1.28 0.43,2.57 0.64,3.85 3.63,-0.31 7.25,-0.63 12.03,-1.04 -9.34,15.83 -17.8,31.13 -36.19,36.74 -0.79,-0.55 -1.59,-1.11 -2.39,-1.67 4.48,-9.58 8.3,-19.55 13.65,-28.61 3.91,-6.62 5.46,-12.74 2.35,-19.66 -6.99,-15.53 1.3,-27.49 9.33,-39.29zm13.31 -22.6c0.92,0.2 1.85,0.39 2.77,0.58 -0.86,4.46 -1.53,8.98 -2.83,13.31 -0.17,0.55 -3.7,0.07 -7.02,0.07 2.83,-5.58 4.95,-9.77 7.07,-13.96zm130.5 69.85c15.94,13.75 34.29,16.49 53.83,11.82 11.45,-2.74 17.73,-11.35 19.4,-23.18 0.53,-3.78 1.67,-7.47 2.54,-11.19 0.92,-0.03 1.85,-0.06 2.77,-0.09 0.7,2.64 2,5.29 1.99,7.92 -0.07,16.66 -7.17,26.12 -23.36,31.19 -31.02,9.71 -56.68,-3.78 -72.13,-27.73 5.13,3.58 10.25,7.18 14.96,11.25zm90.88 -70.85c0.64,-6.11 1.27,-12.22 1.98,-18.97 6.93,5.23 6.61,10.88 -1.98,18.97zm5.69 -25.31c0.51,-10.8 1.66,-20.79 1.27,-30.73 -0.44,-11.4 -6.44,-19.36 -17.54,-23.5 -11.63,-4.34 -22.95,-9.51 -34.57,-13.85 -2.98,-1.11 -7.28,-1.72 -9.82,-0.37 -9.21,4.87 -18.73,5.27 -28.76,4.64 -11.34,-0.72 -12.47,0.91 -14.38,12.06 -0.64,3.74 -3.18,7.21 -5.11,10.66 -4.03,7.23 -9.34,13.97 -12.11,21.63 -4.38,12.12 -3.69,12.38 -17.84,12.12 0.52,-3.84 0.93,-6.92 1.36,-10 1.27,-9.18 3.02,-18.32 3.73,-27.55 1.99,-25.92 25.08,-47.01 53.11,-48.45 6.57,-0.34 13.11,-1.64 19.6,-2.85 13.72,-2.55 24.69,4.76 36.28,9.81 15.87,6.92 23.91,19.8 28.9,35.95 5.04,16.32 4.77,31.81 -2.01,47.32 -0.41,0.94 -1.16,1.73 -2.11,3.11zm-53.41 75.82c-12.3,5.48 -24.59,2.69 -33.81,-4.6 -11.65,-9.21 -22.01,-20.75 -30.38,-33.02 -2.88,-4.22 -6.3,-6.91 -9.01,-10.42 -4.95,-6.41 -6.98,-15.09 -10.23,-22.82 1.12,-0.39 2.23,-0.77 3.35,-1.15 1.37,5.61 2.74,11.23 4.1,16.85 7.14,-6.15 0.98,-12.39 1.52,-16.4 3.41,-3.79 6.97,-5.98 7.76,-8.91 3.58,-13.29 7.3,-26.02 17.93,-36.11 3.71,-3.52 4.06,-10.59 5.52,-14.8 13.69,-2.74 26.31,-5.38 38.99,-7.68 2.09,-0.38 4.58,0.4 6.66,1.21 11.04,4.35 22.02,8.88 33.02,13.34 9.45,3.83 13.95,11.05 13.98,21.03 0.04,13.76 -2.25,27.08 -6.47,40.28 -2.3,7.18 -2.2,15.12 -3.23,22.99 -5.57,9.46 -11.78,19.74 -17.62,30.23 -0.75,1.36 0.55,3.78 0.68,5.73 1.03,14.66 -3.47,29.06 -23.83,30.1 -21.49,1.09 -35.85,-9.02 -48.94,-23.51 -0.97,-1.07 -2.21,-2.33 -2.35,-3.61 -0.25,-2.3 0.25,-4.69 0.44,-7.04 1.96,0.57 4.47,0.56 5.8,1.81 8.81,8.25 19.2,12.84 31.05,14.52 12.4,1.76 22.26,-4.18 32.05,-10.34 0.61,-0.38 0.43,-2.03 0.85,-4.45 -6.58,2.47 -12.35,4.32 -17.85,6.76zm-119.14 -143.27c20.44,-57.43 89.46,-84.53 142.67,-69.26 46.2,13.25 74.97,46.35 83.08,94.69 6.8,40.5 -4.76,76.43 -30.79,107.85 -7.36,8.89 -10.92,9.22 -21.38,4.75 -6.73,-2.87 -13.92,-4.64 -23.26,-7.67 6.37,-8.06 12.31,-15.81 18.49,-23.36 8.02,-9.81 15.59,-19.59 12.86,-33.63 -0.57,-2.91 0.62,-6.36 1.64,-9.35 13.01,-38.09 -0.43,-79.7 -44,-95.31 -11.39,-4.08 -22.09,-7.4 -34.61,-3.36 -9.47,3.05 -20.19,2.03 -29.93,4.48 -25.43,6.41 -43.82,30.74 -44.23,57.09 -0.05,3.49 0.79,7.46 -0.56,10.39 -7.34,15.95 -1.82,31.4 1.4,46.85 1.1,5.27 3.35,10.73 6.54,15.03 6.21,8.39 12.91,16.59 20.46,23.76 4.88,4.64 4.11,7.7 -0.76,9.77 -8.48,3.6 -17.34,6.42 -26.23,8.86 -1.6,0.44 -4.54,-2.12 -6.16,-3.92 -36.47,-40.71 -43.52,-86.26 -25.24,-137.65zm163.75 -95.02c-18.97,-42.77 -17.06,-86.31 -3.35,-129.52 8.06,-25.42 23.55,-46.7 43.24,-65.34 20.56,-19.45 44.9,-31.56 70.29,-42.63 28.53,-12.44 57.97,-15.6 88.67,-11.96 18.65,2.21 34.83,10.33 51.15,18.51 5.18,2.59 10.48,4.93 15.66,7.51 23.89,11.87 38.96,32.52 52.82,54.1 10.64,16.55 22.57,32.83 25.9,52.78 4.92,29.51 11.25,59.43 4.24,89.16 -8.19,34.73 -24.7,65.6 -50.35,91.03 -1.38,1.37 -3.38,2.13 -6.05,3.76 -1.61,-6.58 -3.4,-12.52 -4.48,-18.58 -2.6,-14.58 -5.27,-29.18 -7.04,-43.87 -0.6,-4.98 1.04,-10.38 2.33,-15.42 3.66,-14.26 9.17,-28.23 11.11,-42.7 1.99,-14.84 1,-30.14 0.64,-45.23 -0.53,-22.47 -12.48,-37.77 -29.97,-51.23 -15.16,-11.66 -29.79,-23.61 -46.4,-33.42 -17.26,-10.19 -35.48,-15.14 -54.75,-14.17 -26.04,1.31 -52.39,2.43 -77.26,11.79 -11.94,4.5 -24.11,8.99 -31.92,20.14 -1.99,2.84 -5.05,5.87 -5.18,8.91 -0.67,16.53 -12.87,28.08 -17.62,42.84 -10.32,32.09 -10.36,62.19 13.61,89.01 3.79,4.23 6.8,9.58 8.78,14.92 4.53,12.28 12.61,20.55 24.62,25.44 10.52,4.29 15.48,13.27 19.07,23.39 4.53,12.8 8.51,25.89 14.26,38.14 3.04,6.46 9.36,11.38 13.24,15.9 -8.62,6.14 -16.41,12.02 -24.59,17.28 -2.22,1.43 -5.85,1.84 -8.46,1.19 -3.87,-0.95 -7.48,-3.11 -11.07,-5.01 -9.04,-4.79 -16.73,-10.33 -20.61,-20.92 -6.14,-16.72 -17.85,-30.23 -31.41,-41.18 -14.84,-12 -21.82,-28.12 -29.14,-44.62zm297.45 91.68c10.33,6.85 19.01,16.11 32.1,18.4 5.59,0.98 6.83,5.5 3.22,9.82 -6.84,8.19 -13.23,17.2 -21.52,23.67 -42.72,33.3 -90.4,41.34 -142.16,25.78 -9.68,-2.91 -19.36,-5.86 -28.92,-9.15 -1.73,-0.59 -4.04,-2.88 -4.08,-4.44 -0.33,-12.99 -0.19,-25.99 -0.19,-39.83 10.71,7.56 20.54,14.4 30.26,21.4 4.98,3.59 9.74,7.49 14.65,11.18 1.1,0.82 2.43,1.94 3.64,1.91 9.36,-0.2 18.71,-0.64 28.06,-1.01 0.01,-1.5 0.02,-3.01 0.03,-4.52 -4,0 -8.01,0 -13.62,0 9.56,-7.94 18.65,-13.93 25.76,-21.74 13.39,-14.69 26.21,-29.98 38.13,-45.87 7.95,-10.61 3.23,-23.67 3.39,-35.68 0.22,-16.19 0.05,-32.39 1.68,-49.25 1.98,6.61 4.54,13.11 5.85,19.86 3.78,19.37 7.11,38.83 10.53,58.27 1.56,8.86 5.18,15.9 13.18,21.21zm57.04 42.24c-7.44,12.84 -16.95,25.61 -28.46,34.71 -24.53,19.39 -52.76,33.27 -83.26,40.41 -29.03,6.8 -57.95,1.09 -86.3,-6.67 -0.28,-0.07 -0.56,-0.17 -0.83,-0.26 -21.69,-6.5 -22.92,-8.61 -18.47,-33.84 6.35,1.51 12.91,2.33 18.89,4.62 43.29,16.57 85.98,16.92 128.23,-3.59 18.25,-8.86 34.17,-20.38 47.63,-35.82 10.8,-12.38 16.55,-26.33 -0.26,-40.37 -0.58,-0.49 -0.93,-1.27 -1.5,-2.06 23.47,2.82 35.77,23.18 24.35,42.87zm42.28 415.64c4.57,0 9.4,0 15.4,0 -5.71,15.56 -11.13,30.29 -16.54,45.02 -0.73,-0.28 -1.47,-0.56 -2.21,-0.84 1.12,-14.83 2.24,-29.66 3.34,-44.18zm-12.68 -29.85c7.61,-10.82 14.87,-21.57 22.7,-31.88 1.25,-1.65 5.35,-2.4 7.62,-1.76 4.54,1.28 8.72,3.81 14.63,6.56 -6.03,2.88 -10.67,4.18 -14.13,6.95 -6.64,5.33 -13.39,10.87 -18.61,17.5 -4.12,5.24 -7.11,6.94 -12.21,2.63zm15.41 -40.44c0.82,0.62 1.63,1.24 2.45,1.86 -6.78,16.05 -20.52,27.01 -32.57,42.73 -2.96,-17.89 -5.57,-33.14 -7.97,-48.43 -0.68,-4.32 -0.83,-8.72 -1.2,-13.08 4.54,16.29 9.09,32.59 13.92,49.91 8.45,-10.98 16.91,-21.98 25.37,-32.98zm-22.39 19.53c-4.34,-16.6 -8.72,-30.62 -11.4,-44.96 -1.09,-5.85 1.79,-12.37 2.43,-18.63 0.91,-8.87 1.42,-17.78 2.1,-26.81 3.46,-0.33 7.45,-0.7 12.73,-1.2 -7.37,28.92 5.95,59.93 -5.87,91.6zm-57.54 -103.79c-4.53,2.16 -8.86,5.25 -13.63,6.24 -5.46,1.13 -6.89,-4.44 -2.88,-12.75 1.05,1.15 2.02,2.02 2.76,3.06 0.82,1.16 1.42,2.47 2.12,3.72 3.82,-0.33 7.38,-0.63 10.93,-0.93 1.97,-4.68 -0.88,-12.4 8.37,-12.97 2.34,7.52 -3.27,10.24 -7.67,13.63zm-14.13 18.5c1.88,18.04 0.04,34.53 -16.85,46.35 -7.07,-6.36 -13.49,-14.89 -13.95,-24.88 -0.43,-9.5 3.33,-19.2 5.27,-28.93 -0.4,-0.08 -0.09,0.23 -9.71,9.88 -4.08,4.09 -9.81,6.54 -14.8,9.75 -2.72,-21.36 6.3,-35.08 25.82,-39.74 1.51,-0.36 3.72,-2.35 3.69,-3.52 -0.06,-1.51 -1.76,-3.52 -3.27,-4.28 -2.2,-1.12 -4.86,-1.31 -10.87,-2.75 10.58,-11.09 19.55,-20.5 28.52,-29.91 1.45,0.76 2.9,1.53 4.35,2.29 1.72,4.06 3.7,8.03 5.08,12.2 1.33,4.01 4.4,6.22 6.64,2.52 9.13,-15.11 23.71,-13.13 38.9,-13.64 -8.45,11.59 -17.67,20.65 -30.32,27.11 -1.17,-3.57 -2,-6.1 -3.61,-10.99 -2.7,4.59 -4.4,7.48 -7.3,12.4 -3.74,-6.7 -6.97,-12.49 -10.2,-18.27 -1.06,0.37 -2.11,0.74 -3.17,1.11 1.69,6.01 3.37,12.02 5.17,18.43 -5.44,-3.94 -10.45,-7.56 -15.45,-11.17 -0.9,0.92 -1.8,1.84 -2.69,2.75 3.92,4.08 7.84,8.15 11.79,12.26 -1.3,4.03 -3.41,8 -3.72,12.11 -0.8,10.28 6.95,16.1 16.29,11.85 11.67,-5.31 22.65,-11.09 24.15,-26.87 0.49,-5.19 7.95,-9.72 11.96,-14.25 15.93,4.68 28.91,20.67 27.41,35.56 -6.84,-4.64 -12.64,-8.96 -18.82,-12.62 -3.6,-2.13 -7.81,-3.2 -11.76,-4.75 2.34,2.8 5.33,5.28 6.89,8.47 4.1,8.38 8.83,16.78 10.85,25.73 1.45,6.42 -0.31,13.93 -1.98,20.62 -1.99,8 -3.43,15.64 0.25,23.4 -11.05,-7.09 -21.95,-14.48 -33.38,-20.92 -4.27,-2.41 -9.8,-2.57 -15.89,-4.04 -1.08,-6.77 4.99,-16.42 -5.3,-23.24zm60.21 147.98c1.12,-0.09 2.25,-0.18 3.38,-0.28 5.6,20.37 7.47,41.01 3.65,62.05 -2.34,-20.59 -4.69,-41.18 -7.03,-61.77zm0.36 71.01c-8.48,-13.04 -16.96,-26.07 -25.26,-38.83 5.34,-5.6 9.16,-9.52 12.88,-13.55 8.36,-9.06 8.12,-10.25 -2.9,-15.55 9.59,-3.09 9.14,-3.04 10.25,6.51 2.34,20.08 5.21,40.08 7.85,60.12 -0.94,0.43 -1.88,0.87 -2.82,1.3zm-6.77 7.37c-14.5,-11.42 -28.74,-23.18 -44.59,-36.09 7.81,-3.3 14.18,-5.98 20.23,-8.53 10.36,15.07 20.4,29.66 31.37,45.61 -2.25,-0.27 -5.37,0.31 -7.02,-0.98zm-6 17.51c-15.61,-0.73 -31.34,-1.26 -46.72,-3.73 -6.38,-1.03 -12.02,-6.68 -17.68,-10.04 0.93,-2.53 1.05,-3.12 1.34,-3.61 8.09,-13.52 8.61,-12.77 22.68,-6.02 12.34,5.92 25.91,9.25 38.94,13.73 2.53,0.87 5.04,1.8 9.88,3.54 -3.98,3 -6.28,6.23 -8.43,6.13zm-74.68 19.66c4.96,-7.28 9.31,-13.67 12.98,-19.05 20.63,1.99 40.58,3.92 62.09,6 -5.27,8.25 -9.63,15.34 -14.34,22.2 -0.96,1.39 -3.3,2.72 -4.91,2.62 -18.83,-1.08 -37.4,-3.62 -55.82,-11.77zm50.04 142.03c5.48,7.64 10.7,15.49 16.52,22.86 5.58,7.07 11.8,13.65 18.83,21.7 2.1,-4.38 3.26,-6.28 3.96,-8.34 7.9,-23.42 10.33,-47.88 2.77,-71.06 -6.26,-19.2 -15.14,-38.8 -33.78,-50.31 -6.68,-4.13 -14.82,-5.88 -22.19,-8.68 6.98,-11.81 21.24,-13.63 34.59,-3.13 13.09,10.31 21.33,24.33 27.4,39.59 11.14,28 16.65,56.64 9.34,86.72 -2.57,10.57 -10.32,15.48 -19.4,19.05 -1.49,0.59 -4.03,-0.08 -5.5,-1.05 -17.1,-11.26 -26.95,-27.86 -32.54,-47.35zm-14.34 1.97c1.41,-0.36 4.34,2.51 5.53,4.51 4.02,6.72 7.32,13.88 11.37,20.58 3.25,5.39 7.19,10.36 12.19,17.46 -27.25,-4.67 -53.32,-8.52 -75.55,-26.75 14.36,-11.11 30.99,-11.87 46.46,-15.79zm49.4 -12.88c0,12.46 0,24.93 0,37.39 -0.36,0.03 -0.72,0.05 -1.07,0.07 0,-12.45 0,-24.91 0,-37.36 0.36,-0.04 0.71,-0.07 1.07,-0.11zm-165.46 -45.21c-0.58,-0.21 -1.15,-0.42 -1.73,-0.64 0,-10.61 0,-21.23 0,-31.85 0.47,-0.03 0.93,-0.07 1.39,-0.11 2.64,6.79 6.58,13.43 7.39,20.43 0.44,3.73 -4.53,8.08 -7.06,12.16zm-122.52 -300.14c9.17,0 18.37,-0.33 27.51,0.25 2.11,0.13 4.86,2.98 5.89,5.23 15.77,34.53 36.41,66.47 60.36,95.29 20.15,24.25 39.97,50.63 70.05,64.59 12.14,5.63 15.57,14.06 12.79,26.27 -0.38,1.68 -0.43,3.43 -0.75,5.12 -0.1,0.53 -0.59,0.97 -1.62,2.55 -11.04,-7.76 -23.15,-14.35 -32.88,-23.48 -23.69,-22.2 -46.3,-45.57 -69.3,-68.5 -6.24,-6.22 -9.65,-13.66 -12.72,-22.13 -9.22,-25.51 -18.62,-51.27 -43.07,-67.42 -6.41,-4.24 -11.55,-10.39 -17.27,-15.67 0.34,-0.7 0.68,-1.39 1.01,-2.08zm-30.04 -45c4.25,3.64 8.66,6.3 11.56,10.11 9.67,12.67 21.49,16.25 35.97,10.12 10.36,-4.38 13.11,-15.35 11.91,-30.44 -0.75,-9.45 -2.06,-20.24 6.7,-28.84 4.94,-4.85 7.27,-12.36 10.72,-18.69 1.34,-2.45 2.52,-4.99 4.04,-8.02 13.78,12.33 18.06,24.59 14.2,42.6 -3.46,16.16 -7.2,31.59 -15.74,45.5 -2.95,4.81 -8.09,10.22 -13.17,11.43 -20.1,4.79 -40.35,6.22 -58.5,-7.02 -9.17,-6.69 -11.4,-13.61 -7.69,-26.76zm52.45 2.32c-1.72,8.15 -8.09,12.01 -16.58,12.66 -7.54,0.58 -12.64,-2.29 -15.97,-8.37 4.35,-1.81 8.28,-3.43 12.2,-5.07 -3.95,-0.86 -7.93,-1.59 -11.84,-2.6 -4.42,-1.14 -9.32,-1.68 -13.03,-4.03 -5.27,-3.33 -9.5,-7.45 -5.84,-15.43 2.59,-5.63 2.53,-12.46 3.66,-18.76 1.1,0.19 2.2,0.38 3.29,0.58 -0.37,4.82 -0.74,9.64 -1.21,15.71 10.47,-0.75 2.49,-12.6 9.57,-14.9 -0.33,5.62 -0.64,11 -0.95,16.39 1.17,0.22 2.35,0.44 3.52,0.66 1.41,-5.33 2.83,-10.67 4.24,-16 0.55,-0.06 1.1,-0.11 1.65,-0.16 0.61,2.8 0.8,5.77 1.92,8.35 1.84,4.24 3.53,10.68 6.66,11.62 3.17,0.95 8.08,-3.52 12.08,-5.86 1.99,-1.16 3.66,-2.85 5.48,-4.31 0.65,0.47 1.3,0.95 1.95,1.42 -2.09,5.79 -4.18,11.59 -5.72,15.88 2,4.65 5.61,8.89 4.9,12.22zm12.93 -55.92c-4.38,14.4 -18.93,17.71 -29.15,28 -0.8,-3.6 -1.54,-6.37 -2.03,-9.19 -1.33,-7.65 -4.47,-13.12 -13.56,-12.3 -2.27,0.21 -4.64,-0.21 -6.92,-0.6 -12.53,-2.16 -13.06,-1.83 -16.56,10.79 -14.44,3.33 -21.11,-0.95 -27.04,-16.7 31.28,0 62.89,0 95.27,0zm5.16 -25.86c7.41,10.47 0.56,14.8 -10.49,19.25 -4.91,1.98 -10.86,2.15 -16.3,1.96 -23.78,-0.87 -47.57,-1.83 -71.31,-3.51 -9.12,-0.65 -10.45,-3.7 -7.95,-11.43 36.02,-2.61 71.61,4.37 106.05,-6.26zm-66.54 -46.77c0,12.79 0,24.88 0,37.71 -12.25,0 -23.9,0 -35.67,0 2.89,-19.49 20.73,-38 35.67,-37.71zm27.27 37.44c0,-13.25 0,-25.18 0,-36.93 15.01,-2.85 27.39,14.97 32.36,34.55 -10.9,0.8 -21.57,1.59 -32.36,2.38zm26.87 5.99c-6.62,3.94 -74.93,6.09 -88.83,0 30.28,0 60.56,0 88.83,0zm-46.63 -99.09c3.59,0 7.21,0 12.32,0 0,6.5 0.37,12.53 -0.09,18.49 -0.61,7.85 2.98,10.58 10.27,9.8 0.29,-0.03 0.58,-0 0.87,-0 11.71,0.04 11.71,0.04 11.12,13.58 -2.11,0.3 -3.79,0.57 -5.48,0.77 -13.48,1.58 -15.5,4.02 -15.26,17.26 0.2,10.92 0.04,21.84 0.04,33.21 -6.24,0 -10.19,0 -15.33,0 0,-12.74 -0.23,-25.1 0.1,-37.44 0.17,-6.13 -1.41,-9.59 -8.23,-8.56 -0.56,0.08 -1.15,-0.09 -1.73,-0.13 -15.32,-1.29 -15.96,-2.11 -13.93,-19.18 5.79,0 11.76,-0.17 17.72,0.05 5.55,0.2 7.91,-2.09 7.68,-7.72 -0.27,-6.57 -0.06,-13.16 -0.06,-20.13zm85.7 389.59c10.54,10.19 21.01,20.85 32.06,30.86 12.18,11.03 24.93,21.43 37.34,32.2 1.38,1.19 3.03,3.01 3.1,4.61 0.33,7.43 0.15,14.88 0.15,22.85 -25.55,-8.65 -77.33,-74.74 -72.65,-90.52zm0.08 -47.8c0.84,-0.32 1.68,-0.64 2.51,-0.96 33.05,31.37 62.52,66.76 102.86,90.69 -3.61,5.39 -6.73,10.04 -11.02,16.44 -0.98,-4.09 -1.36,-6.43 -2.11,-8.64 -1.53,-4.47 -3.27,-8.87 -4.91,-13.31 -3.72,1.74 -7.43,3.47 -13.24,6.18 -9.57,-8.69 -21.02,-17.95 -31.1,-28.53 -12.93,-13.58 -25.3,-27.79 -36.76,-42.62 -3.88,-5.02 -4.26,-12.75 -6.23,-19.24zm0.99 25.63c18.12,18.61 36.14,37.3 54.42,55.75 4.64,4.69 9.76,9.1 15.29,12.67 5.47,3.53 4.68,7 0.95,13.01 -9.46,-8.24 -18.96,-15.71 -27.5,-24.15 -13.57,-13.41 -26.83,-27.16 -39.46,-41.45 -3.44,-3.88 -4.15,-10.18 -6.12,-15.36 0.81,-0.16 1.62,-0.31 2.42,-0.47zm156.12 120.88c-20.29,0.86 -42.67,-8.67 -65.07,1.31 4.3,-6.65 8.4,-13.44 13.06,-19.83 0.85,-1.17 4.28,-1.53 5.95,-0.85 15.66,6.38 31.2,13.07 46.06,19.37zm-48.25 -28.42c4.65,-2.5 9.1,-3.77 11.92,-6.63 8.31,-8.43 16.59,-4.8 25.94,-2.22 13.54,3.74 27.59,5.6 44,8.75 -8.27,7.29 -15.26,13.91 -22.8,19.81 -1.88,1.47 -5.61,1.16 -8.38,0.8 -19.39,-2.59 -30.97,-7.25 -50.69,-20.51zm59.06 -85.7c10.71,9.49 20.53,18.19 30.35,26.89 -0.65,0.77 -1.31,1.54 -1.96,2.31 -12.07,-5.15 -24.15,-10.3 -37.53,-16.01 3.52,-5.09 6.04,-8.73 9.13,-13.2zm-2.05 -9.33c-9.81,13.31 -19.03,27.07 -28.09,40.9 -5.78,8.83 -5.36,9.3 6.4,10.73 -6.04,7.98 -11.11,15.68 -17.25,22.4 -3.5,3.84 -9.01,5.76 -13.14,9.12 -3.95,3.21 -8.07,6.67 -10.75,10.89 -7.9,12.45 -15.1,25.34 -22.61,38.03 -1.74,2.94 -3.62,5.79 -5.45,8.69 -1.51,-0.9 -3.02,-1.79 -4.53,-2.69 15.42,-18.94 5.6,-42.15 12.38,-63.91 6.57,8.88 0.21,20.32 9.97,27.03 7.65,-12.85 15.21,-24.86 21.93,-37.31 1.92,-3.57 1.65,-8.43 1.98,-12.73 0.74,-9.57 1.05,-19.17 1.9,-28.73 0.29,-3.24 1.67,-6.38 2.55,-9.56 0.96,0 1.92,0.01 2.88,0.01 1.88,9.67 3.76,19.34 6.12,31.47 3.66,-4.56 5.69,-6.85 7.46,-9.33 9.44,-13.17 19.14,-26.19 28.02,-39.73 2.84,-4.32 4.35,-10.01 4.89,-15.25 0.81,-7.68 0.21,-15.52 1.39,-24.49 8.81,10.51 15.57,24.23 33.17,17.57 -7.02,10.77 -17.33,15.33 -27.93,19.69 -4.1,1.69 -8.82,3.81 -11.31,7.18zm-188.74 -550.43c3.82,-2.54 8.35,-8.15 8,-12.07 -1.31,-14.39 8.21,-19.01 18.05,-25.18 14.49,-9.09 27.19,-9.39 43.03,-1.59 10.69,5.26 24.9,5.43 37.32,4.59 13.9,-0.94 22.67,-16.91 19.33,-30.73 -0.75,-3.09 -1.67,-6.15 -2.32,-9.27 -1.12,-5.45 0.32,-9.37 6.05,-11.61 9.43,-3.69 14.66,-10.63 15.9,-20.97 1.28,-10.66 4.14,-21.16 5.05,-31.83 1.32,-15.48 -7.49,-23.94 -22.76,-21.84 -4.26,0.59 -8.34,4.34 -11.92,7.34 -2.35,1.97 -3.36,5.45 -5.48,7.78 -4.12,4.53 -8.87,3.6 -10.4,-2.17 -1.78,-6.71 -3.24,-13.56 -4.16,-20.44 -1.58,-11.74 -7.73,-17.99 -19.76,-19.2 -3.47,-0.35 -7.11,-0.18 -10.35,-1.22 -1.91,-0.61 -4.58,-3.16 -4.55,-4.8 0.13,-6.86 -4.53,-9.09 -9.53,-10.87 -29.97,-10.67 -56.42,-5.05 -79.2,17.35 -2.68,2.63 -5.45,5.32 -8.61,7.27 -8.18,5.06 -16.55,4.59 -22.62,-0.78 -4.79,-4.24 -6.92,-15.84 -4.29,-22.8 3.38,-8.97 9.99,-14.58 18.4,-18.71 17.18,-8.43 35.03,-13.78 54.34,-14.22 6.91,-0.15 13.76,-2.41 20.69,-2.92 23.8,-1.76 46.01,0.83 67.48,14.19 22.3,13.87 42.93,29.02 60.41,48.5 8.58,9.56 10.2,21.96 9.62,33.53 -1.13,22.53 -4.35,44.98 -7.17,67.4 -0.51,4.1 -3.21,7.94 -5.18,12.56 -3.53,-3.1 -6.35,-5.81 -9.43,-8.16 -1.64,-1.26 -3.76,-1.91 -5.66,-2.83 -0.94,1.97 -2.7,3.96 -2.69,5.92 0.21,23.81 -0.3,47.7 1.51,71.4 0.87,11.44 -1.98,20.58 -8.04,29.2 -14.37,20.45 -32.73,36.95 -53.12,51.17 -2.97,2.07 -8.13,3.5 -11.27,2.39 -20.86,-7.45 -39.94,-17.33 -49.71,-39.27 -2.64,-5.94 -7.04,-11.29 -11.44,-16.2 -9.19,-10.26 -14.66,-22.08 -16.94,-34.84 4.13,1.55 9.44,5.24 11.43,3.92zm-43.88 -73.88c-1.82,-5.49 6.46,-13.32 13.67,-14.02 -3.13,3.92 -6.62,8.29 -10.1,12.66 0.67,0.65 1.34,1.3 2.01,1.95 7.27,-0.91 17.13,4.5 18.51,-9.95 0.37,-3.85 5.89,-7.21 9.15,-10.78 2.19,17.03 4.14,34.09 6.75,51.05 0.59,3.84 2.92,7.8 5.45,10.88 3.77,4.59 2.13,19.89 -5.17,27.86 -11.11,-16.86 -22.23,-32.99 -32.49,-49.65 -3.69,-6 -5.55,-13.21 -7.8,-20.01zm26.35 -27.68c-10.15,5 -21.05,10.36 -31.15,15.33 -1.04,-12.29 17.29,-21.72 31.15,-15.33zm84.79 -80.35c2.85,0.47 5.83,0.08 8.71,0.41 9.36,1.05 13.09,5.08 14.43,14.34 1.03,7.17 2.05,14.44 4.27,21.28 1.09,3.37 4.61,7.88 7.52,8.27 3.87,0.53 8.47,-2 12.26,-4.1 2.06,-1.14 3.14,-4.09 4.61,-6.25 5.34,-7.81 11.15,-9.72 20.07,-5.9 7.38,3.16 6.7,10.53 6.11,16.29 -1.15,11.22 -3.6,22.34 -6,33.39 -2.12,9.76 -6.46,11.98 -22.28,12.1 1.23,10.69 2.52,21.27 3.64,31.86 1.36,12.87 -9.2,21.54 -23.65,21.14 -14.04,-0.38 -26.91,-4.04 -39.1,-10.52 -7.18,-3.82 -13.91,-3.08 -20.77,0.54 -6.42,3.4 -12.91,6.67 -19.37,10.01 -10.77,5.58 -15.33,2.8 -16.08,-9.04 -0.77,-12.16 -2,-24.3 -3.55,-36.39 -0.61,-4.74 -2.02,-9.84 -8.54,-9.86 2.45,-7.75 -0.81,-12.08 -8.27,-14.1 -14.08,-3.81 -23.9,2.56 -33.49,12.48 0.5,-25.55 -17.94,-48.85 -5.85,-75.82 21.39,8.11 32.12,-9.28 45.54,-19.61 19.77,-15.21 40.82,-14 62.7,-7.04 1.75,0.56 4.2,3.11 4.12,4.61 -0.54,9.56 6.17,10.78 12.97,11.89zm-133.09 49.11c2.33,13.66 5.04,27.27 7.98,40.82 1.15,5.28 3.04,10.47 5.19,15.45 4.63,10.7 9.64,21.23 14.5,31.83 -0.73,0.65 -1.46,1.3 -2.19,1.94 -4.1,-3.21 -9.32,-5.66 -12.11,-9.76 -9.06,-13.34 -17.22,-27.29 -25.74,-41 -16.45,-26.48 -7.9,-67.84 8.99,-89.29 0.97,-0.07 1.93,-0.15 2.89,-0.22 0.43,4.46 2.36,9.45 1,13.27 -4.43,12.44 -2.6,24.69 -0.51,36.97zm15.29 193.05c7.69,3.25 15,6.35 23.61,9.99 -7.87,1.55 -14.38,2.83 -21.49,4.24 -0.69,-4.65 -1.39,-9.35 -2.11,-14.23zm2.87 32.77c0.37,-7.83 4.61,-11.74 11.68,-12.51 8.9,-0.97 15.42,-4.27 20.75,-12.12 5.12,-7.54 12.73,-13.27 23.21,-14.83 0,21.1 0.07,41.38 -0.01,61.65 -0.19,46.79 6.26,92.5 19.42,137.53 9.47,32.41 19.86,64.27 35.11,94.46 9.56,18.91 20.58,37.31 27.89,57.08 18.74,50.66 49.43,93.65 82.6,135.3 1.79,2.25 3.41,4.64 5.47,7.47 -4.49,5.77 -8.89,11.42 -14.42,18.51 -37.4,-28.7 -69.72,-61.97 -102.4,-94.83 -0.94,0.83 -1.89,1.65 -2.83,2.48 1.46,2.23 2.57,4.83 4.44,6.65 23.6,22.98 47.22,45.95 71.08,68.66 4.3,4.09 6.19,7.28 3.2,13.29 -2.5,5.04 -2.99,11.08 -4.61,17.7 -17.48,-10.4 -34.95,-20.41 -49.16,-35.04 -35.52,-36.55 -63.26,-78.6 -86.87,-123.53 -1.59,-3.03 -2.79,-6.26 -4.47,-10.06 21.16,-8.26 26.67,-27.74 32.75,-45.84 4.08,-12.14 6.34,-25.67 5.59,-38.36 -0.49,-8.24 -7.31,-16.44 -12.28,-24.01 -6.29,-9.57 -13.77,-18.35 -20.3,-27.77 -1.9,-2.74 -1.72,-6.87 -3.47,-9.78 -5.72,-9.58 -11.88,-18.89 -18.03,-28.54 3.95,-3.28 6.74,-16.27 3.04,-25.16 -4.22,-10.15 -14.15,-2.98 -22.13,-6.44 -0.31,-5.92 -1.09,-12.5 -0.88,-19.05 0.21,-6.55 -1.7,-9.4 -8.82,-9.3 -24.55,0.32 -19.71,-1.82 -19.48,19.8 0.03,2.54 0,5.09 0,7.54 -10.83,1.6 -10.83,1.6 -21.02,-9.04 9.91,-13.78 20.76,-26.59 29.03,-40.91 10.74,-18.59 14.88,-39.57 15.91,-60.98zm115.05 645.62c-0.85,0.07 -1.71,0.15 -2.56,0.23 -1.01,-1.48 -1.99,-2.99 -3.02,-4.45 -2.32,-3.3 -3.99,-8.38 -7.12,-9.57 -14.79,-5.59 -17.69,-19.59 -23.38,-31.43 -9.55,-19.87 -19.2,-39.86 -17.23,-62.95 0.06,-0.75 0.23,-1.49 0.56,-3.55 11.13,24.86 21.49,48.84 41.52,66.64 0.7,0.62 2.61,-0.13 4.58,-0.3 -0.52,-1.6 -0.54,-2.94 -1.22,-3.56 -22.54,-20.85 -33.36,-48.55 -43.44,-76.35 -2.39,-6.61 0.35,-15.07 0.73,-22.69 1.03,-0.22 2.07,-0.43 3.1,-0.65 18.56,32.42 39.51,62.74 72.74,82.88 -1.28,2.67 -2.5,5.18 -3.96,8.23 -2.71,-3.92 -4.74,-7.64 -7.54,-10.64 -1.54,-1.66 -4.64,-3.24 -6.54,-2.79 -1.69,0.41 -3.74,3.62 -3.84,5.67 -0.67,14.14 -0.68,28.31 -1.28,42.46 -0.32,7.62 -1.38,15.21 -2.1,22.81zm-19.62 46.23c0.82,-16.81 1.64,-33.39 2.45,-49.97 1.25,-0.16 2.5,-0.31 3.74,-0.47 1.11,3.94 2.16,7.9 3.34,11.82 0.94,3.09 2.04,6.14 3.07,9.21 2.83,-1.31 5.65,-2.62 8.08,-3.74 0.15,13.86 -8.76,23.83 -20.67,33.16zm-29.93 -36.98c-8.41,-17.06 -14.81,-35.1 -21.67,-51.75 8.05,-5.84 15.11,-10.96 22.86,-16.58 1.11,2.26 2.9,5.96 4.73,9.64 6.08,12.17 12.21,24.31 18.22,36.52 0.85,1.73 1.71,3.76 1.6,5.6 -0.91,16.81 -2.02,33.62 -3.11,50.42 -0.07,1.04 -0.46,2.05 -0.31,1.43 -7.21,-11.21 -16.07,-22.6 -22.32,-35.28zm7.42 83.98c7.63,-5.62 5.4,-10.99 2.96,-16.47 -5.69,-12.74 -6.34,-26.09 -3.16,-40.75 1.57,2.22 3.96,4.26 4.52,6.7 1.02,4.46 0.65,9.21 1.41,13.75 0.59,3.49 2.04,6.84 3.11,10.25 2.82,-1.95 5.63,-3.91 8.24,-5.72 -0.82,8.12 0.21,8.71 10.78,4.56 -2.26,9.38 -16.73,24.61 -27.85,27.68zm-28.87 12.04c1.46,-0.33 2.93,-0.65 4.39,-0.98 1.45,3.56 3.35,7.03 4.18,10.73 0.53,2.37 -0.84,5.11 -0.77,7.67 0.08,2.9 0.83,5.78 1.29,8.67 2.61,-1.06 5.22,-2.11 7.84,-3.17 2.13,5.22 1.26,7.89 13.37,0.13 1.64,10.13 -7.3,23.85 -18.6,30.26 -3.82,2.17 -7.39,6.08 -9.31,10.05 -5.53,11.46 -10.16,23.35 -15.19,35.05 -0.18,0.41 -0.92,0.59 -2.43,1.5 -0.61,-1.63 -1.55,-2.81 -1.28,-3.58 5.4,-15.52 11.05,-30.96 16.36,-46.51 1.22,-3.57 1.99,-7.52 1.89,-11.27 -0.33,-12.86 -1.13,-25.7 -1.75,-38.56zm159.86 -95.14c-7.89,3.01 -16.3,5.1 -23.56,9.22 -12.32,7 -24.05,15.08 -35.73,23.13 -4.49,3.09 -8.28,4.34 -12.07,-0.26 -3.79,-4.59 -1,-7.64 2.61,-10.88 14.17,-12.76 26.04,-28.3 44.32,-36.03 3.84,-1.62 7.52,-3.61 11.27,-5.43 -0.23,-0.92 -0.45,-1.83 -0.68,-2.75 -2.67,0.31 -5.49,0.16 -8,0.98 -18.64,6.14 -31.26,20.48 -44.93,33.36 -3.57,3.36 -7.13,6.73 -10.79,10.2 -5.43,-2.44 -5.85,-5.67 -3.94,-10.62 6.21,-16.06 19.41,-25.76 32.2,-35.66 5.16,-3.99 11.7,-6.16 17.52,-9.32 2.26,-1.22 4.28,-2.88 6.41,-4.33 -0.25,-0.76 -0.49,-1.52 -0.74,-2.28 -1.71,0 -3.85,-0.67 -5.06,0.1 -12.56,8.11 -24.91,16.53 -37.46,24.66 -3.26,2.11 -6.99,3.48 -10.51,5.2 0.48,-4.3 -0.53,-9.7 1.69,-12.71 10.73,-14.49 19.17,-30.77 37.18,-39.21 10.52,-4.93 20.59,-7.79 31.7,-6.8 15.59,1.4 31.07,4.19 46.66,5.38 16.49,1.26 27.27,9.9 34.79,23.77 4.13,7.62 8.26,15.24 12.28,22.92 3.19,6.08 1.93,9.88 -4.26,14.25 -16.65,11.75 -35.42,16.32 -54.84,20.58 -15.12,3.31 -29.6,9.57 -44.26,14.82 -1.93,0.69 -3.44,3.03 -4.75,4.88 -3.48,4.89 -6.9,4.38 -12.65,-1.74 12.43,-11.39 24.49,-22.43 36.55,-33.48 -0.32,-0.66 -0.64,-1.32 -0.96,-1.98zm104.95 -191.96c-2.13,-16.11 -4.26,-32.22 -6.46,-48.8 4.96,-2.01 9.98,-4.04 15.97,-6.47 -0.01,19.4 0.87,38.19 -9.52,55.28zm3.97 -61.54c-11.72,4.41 -23.17,10.64 -36.57,8.67 3.97,-18.22 3.36,-35.36 -5.21,-53.04 10.96,1.45 14.05,9.28 17.8,16.74 2.28,4.54 5.04,9.03 8.5,12.68 1.11,1.18 5.17,-0.82 7.82,-0.65 4.26,0.28 10.68,-0.28 12.24,2.1 3.13,4.79 1.73,11.13 -4.59,13.51zm88.2 -16.83c-11.33,-0.14 -18.36,-17.75 -10.26,-31.02 1,4.32 2.01,8.64 3.17,13.6 1.87,-1.3 3.93,-2.75 6,-4.2 0.68,0.55 1.36,1.11 2.04,1.66 -2.23,2.73 -4.47,5.45 -7.47,9.1 1.91,3.19 4.12,6.86 6.52,10.86zm2.31 -26.99c2.35,-9.22 4.7,-18.44 7.05,-27.65 -1.23,-0.39 -2.47,-0.77 -3.7,-1.16 -2.65,6.89 -5.3,13.79 -7.96,20.71 -12.1,-5.15 -17.52,-2.29 -18.14,10.39 -0.56,11.31 2.44,21.88 11.99,29.36 5.96,4.68 10.37,2.31 14.79,-2.85 2.02,-2.36 5.72,-4.85 8.4,-4.6 2.13,0.2 5.56,4.55 5.48,6.96 -0.32,10.29 -0.2,21.01 -3.15,30.68 -3.32,10.89 -13.67,13.13 -24.88,12.73 -0.05,-24.68 -0.38,-26.41 -7.07,-31.04 0.35,6.64 0.5,12.25 0.96,17.83 1.21,14.68 -19.29,30.28 -31.81,22.65 -6.09,-3.71 -10.21,-13.11 -12.02,-20.7 -1.82,-7.63 3.48,-14.51 10.75,-18.25 4.62,-2.37 9.85,-3.49 14.62,-5.6 2.01,-0.89 3.53,-2.89 5.28,-4.39 -2.2,-0.33 -4.55,-1.31 -6.59,-0.88 -9.04,1.9 -17.92,4.8 -27.03,6.08 -4.09,0.58 -11.77,-1 -12.28,-3.01 -1.28,-5.06 -0.7,-11.47 1.43,-16.34 5.47,-12.47 17.49,-16.99 29.28,-21.54 8.93,-3.44 9.71,-6 2.51,-12.5 -5.84,-5.27 -13.09,-8.99 -20.29,-13.79 11.58,-9.76 25.41,-10.01 39.22,-7.6 6.18,1.08 10.29,0.42 14.89,-3.78 10.54,-9.62 22.03,-8.1 28.11,4.39 5.51,11.32 10.12,23.25 13.59,35.35 3.15,11.01 -7.52,20.07 -18.63,17.1 -2.46,-0.66 -5.13,-0.53 -7.47,-0.74 -6.38,-12.04 4.47,-17.72 9.48,-25.51 -5.1,-1.5 -5.1,-1.5 -16.8,7.67zm-56.47 -149.84c-4.98,0.52 -9.88,2.69 -14.6,4.67 -2.8,1.18 -5.18,3.38 -9.62,3.98 1.71,-5.66 3.02,-11.48 5.21,-16.95 4.6,-11.46 4.58,-12.13 -5.36,-19.06 -0.89,-0.63 -1.66,-1.44 -2.71,-2.37 3.68,-8.73 10.7,-12.69 18.74,-15.87 3.14,-1.24 6.09,-3.78 8.3,-6.42 6.12,-7.34 11.77,-15.05 17.65,-22.58 4.62,-5.91 8.99,-4.86 11.75,1.36 3.04,6.84 4.79,14.23 7.75,21.11 1,2.34 3.67,4.41 6.07,5.62 3.97,2 9.1,2.32 12.31,5.03 2.59,2.2 4.89,7.32 4.15,10.39 -1.88,7.81 -5.47,15.21 -8.55,22.71 -0.63,1.54 -2.01,3.9 -3.11,3.94 -9.63,0.27 -8.68,8.42 -9.7,13.9 -2.68,14.41 -9.82,25.59 -21.68,34.63 -8.18,-10.66 -10.24,-23.09 -8.91,-35.42 0.83,-7.74 -2.38,-9.21 -7.7,-8.66zm-51.15 -234.36c14.47,2.12 27.49,11.97 41.28,19.98 12.42,7.21 24.24,15.52 36.92,22.21 9.38,4.94 16.46,11.36 21.51,20.58 14.1,25.72 28.54,51.26 42.54,77.02 1.4,2.57 1.92,6.78 0.82,9.35 -7.37,17.13 -12.6,34.66 -16.33,53.05 -2.25,11.12 -10.3,21.15 -16.19,31.41 -4.85,8.45 -10.36,16.52 -16.13,24.45 2.46,-7.05 4.3,-13.56 9.37,-20.27 8.09,-10.69 11.94,-24.88 16.16,-38.06 2.02,-6.31 -8.01,-16.55 -17.88,-18.69 -5.57,-1.21 -7.42,-4.05 -9.15,-8.76 -2.58,-7.03 -5.65,-13.95 -9.24,-20.52 -3.42,-6.25 -9.14,-7.71 -14.34,-2.55 -7.77,7.7 -14.6,16.35 -22.13,24.32 -3.03,3.21 -6.46,6.43 -10.34,8.37 -9.17,4.57 -16.97,10.23 -20.23,20.39 -1.63,5.09 -1.63,9.76 4.89,11.91 4.95,1.64 5.01,4.59 3.08,9.47 -3.08,7.77 -5.1,16.04 -6.75,24.27 -1.48,7.37 1.63,9.69 8.89,6.76 4.21,-1.7 7.89,-4.71 11.86,-7.05 3.36,-1.98 6.8,-3.84 11.44,-6.46 1.67,9.85 1.41,18.8 4.8,26.06 6.37,13.65 4.58,27.45 4.1,41.4 -0.05,1.36 -0.48,2.91 -1.26,4 -12.03,16.68 -24.15,33.3 -38,49.15 0,-32.12 0,-64.24 0,-96.36 -0.37,-0.14 -0.74,-0.28 -1.1,-0.43 -1.25,3.01 -2.5,6.02 -3.93,9.46 -2.37,-15.76 -16.06,-22.48 -24.94,-32.76 0.17,-0.73 0.13,-1.42 0.44,-1.77 3.13,-3.44 9.96,-6.2 5.99,-11.64 -2.47,-3.36 -8.61,-5.27 -13.25,-5.56 -12.54,-0.8 -24.7,1.41 -35.33,8.74 -0.64,-0.17 -1.47,-0.14 -1.68,-0.48 -7.69,-12.76 -14.05,-13.63 -27.22,0.62 -5.71,6.17 -11.76,12.04 -17.33,18.32 -3.57,4.03 -10.25,6.8 -6.84,14.35 0.3,0.67 -0.57,2.28 -1.34,2.94 -14.75,12.73 -12.8,30.81 -14.98,47.46 -0.29,2.24 1.72,5.74 3.71,6.98 1.25,0.78 4.72,-1.17 6.71,-2.57 2.95,-2.07 5.47,-4.75 9.63,-8.48 -0.86,16.62 8.04,26.88 16.27,37.21 6.1,7.67 9.65,6.89 14.84,-1.16 3.13,-4.85 6.3,-10.05 10.67,-13.59 3.11,-2.52 9.08,-4.61 12.3,-3.29 9.82,4 20.55,8.08 27.87,15.25 8.24,8.06 8.07,20.58 7.52,33.69 -4.8,-2.17 -8.73,-4.3 -12.91,-5.73 -2.77,-0.94 -5.88,-0.87 -8.84,-1.25 0.17,2.73 -0.03,5.54 0.55,8.19 2.66,12.08 5.51,24.12 8.35,36.16 2.17,9.19 -2.08,15.55 -10.96,22.4 -5.81,-26.91 -11.38,-52.72 -16.94,-78.53 -0.54,-0.08 -1.07,-0.17 -1.6,-0.25 -0.39,4.05 -1.8,8.3 -1.02,12.1 4.02,19.58 8.61,39.04 12.99,58.54 0.49,2.19 0.9,4.39 1.75,8.59 -6.57,-7.26 -12.32,-11.38 -20.76,-4.41 -6.89,-24.77 -13.45,-48.35 -20.02,-71.92 -1,0.12 -2.01,0.24 -3.01,0.36 -0.31,1.98 -1.31,4.15 -0.82,5.91 6.82,24.9 12.99,50.04 21.21,74.47 3.27,9.72 2.41,18.05 0.85,29.64 -7.25,-8.65 -13.59,-15.04 -18.57,-22.35 -17.17,-25.17 -34.6,-50.22 -50.42,-76.22 -7.75,-12.74 -11.75,-27.72 -18.23,-41.31 -12.25,-25.67 -26.29,-50.56 -37.37,-76.71 -18.97,-44.76 -32.68,-91.22 -39.01,-139.62 -1.27,-9.7 -2.44,-19.4 -3.85,-30.65 12.6,3.11 23.25,5.77 33.92,8.37 45.82,11.17 88.06,3.16 129.12,-20.05 21.88,-12.36 40.62,-26.87 54.64,-47.25 5.43,-7.89 8.55,-17.37 13.24,-27.19zm164.65 193.45c-10.1,12.6 -20.2,25.2 -30.3,37.79 -0.67,-0.5 -1.33,-1 -1.99,-1.51 10.63,-12.13 13.24,-30.22 29.4,-38.23 0.96,0.65 1.93,1.3 2.89,1.94zm43.96 -97.44c0.94,0.33 1.89,0.65 2.83,0.98 -3.56,9.29 -5.96,19.25 -10.9,27.75 -11.63,20.04 -23.44,40.08 -40.6,56.25 -8.86,8.35 -17.15,17.3 -24.59,24.86 -0.59,-47.4 36.73,-84.82 73.26,-109.83zm8.13 95.9c6.76,-7.53 12.84,-15.75 18.47,-24.17 1.6,-2.39 1.84,-7.43 0.34,-9.64 -1.3,-1.92 -6.2,-2.63 -9.09,-2 -7.32,1.62 -15.12,3.08 -21.42,6.81 -11.77,6.96 -22.6,15.5 -35.1,24.27 1.35,-3.24 2,-6.08 3.54,-8.29 9.14,-13.07 19.64,-25.34 27.42,-39.16 7.45,-13.22 12.57,-27.84 17.73,-42.2 1.12,-3.12 -0.86,-9.68 -3.43,-11.17 -2.77,-1.61 -9.13,-0.55 -11.83,1.78 -14.01,12.08 -27.43,24.86 -40.86,37.59 -3.68,3.49 -6.69,7.7 -10.62,12.3 -2.24,-3.39 -3.95,-5.65 -5.32,-8.11 -12.78,-22.79 -25.77,-45.46 -38.13,-68.48 -6.74,-12.54 -16.06,-21.48 -28.86,-27.87 -12.08,-6.04 -23.13,-14.08 -34.89,-20.79 -11.31,-6.45 -23.07,-12.12 -34.39,-18.55 -6.62,-3.76 -13.76,-7.39 -18.95,-12.75 -10.21,-10.56 -21.35,-17.81 -36.55,-17.25 -5.82,0.21 -11.69,0.7 -17.45,0.11 -3.47,-0.35 -6.75,-2.53 -11.43,-4.41 7.27,-6.56 13.38,-11.08 18.27,-16.67 17.99,-20.58 29.87,-44.8 39.78,-69.98 8.53,-21.65 8.93,-44.26 5.82,-66.99 -2.44,-17.83 -2.53,-36.62 -8.6,-53.17 -10.22,-27.87 -27.03,-52.63 -46.43,-75.34 -14.38,-16.84 -33.89,-25.64 -53.05,-35.62 -48.74,-25.39 -97.39,-25.05 -146.78,-3.01 -7.17,3.2 -14.28,6.51 -21.45,9.7 -29.74,13.22 -52.99,34.48 -71.93,60.29 -14.59,19.9 -23.27,42.62 -27.37,67.2 -5.13,30.81 -6.82,61.31 3.96,91.3 4.65,12.93 9.84,25.67 14.74,38.4 -58.65,-20.35 -113.79,-13.49 -152.27,35.13 -47.95,60.59 -40.39,124.55 7.89,181.69 -10.67,4.39 -21.23,8.54 -31.62,13.05 -8,3.48 -15.8,7.42 -25.98,12.24 4.63,-10.61 8.49,-18.31 11.38,-26.37 3.12,-8.69 5.79,-17.61 7.65,-26.64 0.53,-2.55 -1.83,-7.41 -4.03,-8.3 -2.1,-0.85 -6.19,1.53 -8.59,3.49 -2.82,2.31 -4.76,5.7 -7.25,8.84 -6.91,-4.27 -9.66,-9.39 -7.63,-17.02 0.88,-3.29 1.66,-7.27 0.58,-10.25 -1.31,-3.62 -4.07,-8.05 -7.27,-9.21 -2.22,-0.81 -7.16,2.58 -9.24,5.33 -3.63,4.81 -5.34,11.08 -9,15.87 -11.22,14.68 -20.71,29.71 -15.52,48.87 -7.5,4.33 -14.26,8.25 -21.05,12.14 -20.06,11.5 -28.41,31.55 -36.79,51.31 -3.26,7.69 -1.15,15.12 5.18,21.48 5.91,5.94 12.3,12.1 15.99,19.42 10.45,20.77 28.55,32.56 47.74,43.16 11.96,6.6 24.06,6.77 36.05,-1.47 8.57,-5.89 17.94,-10.64 27.09,-15.64 6.18,-3.37 12.59,-6.3 21.05,-10.49 -1.72,9.44 -2.99,16.7 -4.38,23.93 -2.51,13.1 -5.27,26.15 -7.59,39.28 -1.55,8.79 -1.81,17.85 -3.94,26.47 -2.79,11.25 -4.45,22.05 -0.07,33.34 1.35,3.49 0.21,7.95 0.21,11.17 -6.03,4.31 -12.04,7.88 -17.1,12.5 -2.44,2.23 -5.17,7.32 -4.2,9.58 4.36,10.18 -1.64,17.12 -5.91,24.88 -4.58,8.33 -10.53,16.42 -12.84,25.41 -5.86,22.83 1.8,44.89 7.12,66.76 6.56,26.98 15.37,53.33 8.8,81.91 -3.7,16.08 -5.47,32.69 -7.01,49.16 -1.53,16.39 -3.8,33.15 -1.92,49.31 2.63,22.65 8.58,44.95 13.57,67.29 1.5,6.69 3.5,13.68 7.07,19.42 8.99,14.46 18.98,28.29 28.64,42.33 1.31,1.9 2.99,3.58 4.66,5.19 6.34,6.11 13.93,8.22 21.36,3.25 6.63,-4.44 13,-9.88 17.97,-16.09 17.53,-21.87 40.41,-37.21 64.05,-55.54 -0.55,3.86 -0.78,5.26 -0.93,6.67 -1.27,11.48 -4.66,23.22 -3.36,34.41 3.44,29.65 8.78,59.1 13.62,88.58 3.29,19.99 5.12,40.14 15.11,58.73 6.1,11.36 14.5,17.95 26.11,20.96 17.08,4.42 34.9,6.54 51.42,12.41 19.31,6.86 38.98,8.8 58.96,9.86 19.7,1.05 39.44,1.63 59.16,2.04 9.54,0.2 19.09,-0.32 28.63,-0.76 10.41,-0.47 20.81,-1.46 31.22,-1.78 8.4,-0.26 16.89,0.82 25.24,0.11 28.28,-2.39 55.58,3.57 82.67,9.93 26.38,6.2 48.16,1.12 64.97,-20.96 1.75,-2.29 3.94,-4.25 5.69,-6.54 4.06,-5.3 9.61,-10.14 11.67,-16.17 11.53,-33.8 21.01,-68.14 26.27,-103.63 4.12,-27.78 10.48,-55.23 14.74,-83 1.46,-9.51 1.86,-20.37 -1.37,-29.08 -3.8,-10.25 -5.45,-19.81 -4.35,-30.44 1.02,-9.8 0.88,-19.73 1.69,-29.56 0.24,-2.89 1.26,-6.26 3.1,-8.39 29.54,-34.28 59.72,-68.03 88.79,-102.7 17.96,-21.43 31.29,-45.49 32.28,-74.61 0.45,-13.31 0.42,-26.69 1.89,-39.89 4.24,-38.22 -1.34,-76.08 -3.69,-114.03 -0.63,-10.15 -4.8,-20.08 -7.41,-30.09 -2.24,-8.61 -4.63,-17.18 -6.83,-25.8 -0.78,-3.08 -0.98,-6.31 -1.82,-9.37 -5.17,-18.77 -10.6,-37.46 -15.52,-56.29 -0.64,-2.47 0.17,-6.38 1.85,-8.21 10.18,-11.11 21.12,-21.53 31.18,-32.74z"/>
   <path class="fil1" d="M1587.73 2248.78c-5.06,-18.09 -9.17,-36.51 -17.59,-53.47 -0.95,0.32 -1.9,0.63 -2.85,0.95 5.77,17.85 11.55,35.7 17.32,53.55 1.04,-0.34 2.08,-0.69 3.11,-1.03z"/>
   <path class="fil1" d="M1525.68 2249.03c0,-10.16 0.47,-19.67 -0.16,-29.1 -0.44,-6.53 -2.25,-12.97 -3.53,-19.45 -2.72,10.23 -0.73,44.84 3.69,48.55z"/>
   <path class="fil1" d="M1522.12 2199.99c-0.03,-0.02 -0.27,-0.2 -0.27,-0.2 0.05,0.23 0.09,0.46 0.14,0.69 0.05,-0.17 0.08,-0.34 0.13,-0.49z"/>
   <path class="fil1" d="M1441.59 1930.36c24.35,2.6 47.59,8.84 65.28,26.73 9.46,9.57 16.11,21.89 24.33,32.74 1.72,2.27 4.59,4.14 7.32,5.09 4.92,1.71 7.3,9.8 4.76,14.38 -4.75,8.53 -9.02,17.38 -12.74,26.41 -1.05,2.55 0.47,6.16 0.81,9.29 1.15,-0.06 2.29,-0.11 3.43,-0.17 0.46,-2.7 0.45,-5.59 1.45,-8.07 3,-7.45 4.56,-16.85 10.05,-21.61 9.07,-7.87 5.91,-13.73 0.51,-20.29 -6.69,-8.13 -15.25,-14.95 -20.79,-23.74 -17.38,-27.58 -44.04,-39.24 -74.14,-45.53 -7.36,-1.54 -8.93,-0.32 -10.26,4.77z"/>
   <path class="fil1" d="M1582.62 2045.63c-1.91,16.95 -5.11,33.76 -8.08,50.57 -0.65,3.7 -2.68,7.16 -4.99,13.08 0.52,4.87 -0.03,13.2 2.59,20.38 2.46,6.72 1.53,15.86 10.62,19.63 0.18,-4.31 -1.1,-8.14 -1.92,-12.06 -1.18,-5.6 -3.47,-11.46 -2.76,-16.88 2.95,-22.58 8.07,-44.93 9.97,-67.57 1.22,-14.46 -1.28,-29.35 -3.24,-43.89 -0.67,-4.97 -3.95,-10.37 -10.96,-11.41 -0.1,1.74 -0.52,2.84 -0.15,3.33 10.26,13.49 10.68,29.16 8.91,44.8z"/>
   <path class="fil1" d="M1401.42 1895.21c10.12,-6.47 20.11,-9.73 32.5,-7 9.83,2.17 20.46,0.8 30.72,0.71 0.88,-0.01 1.74,-2.21 3.79,-4.97 -4.86,0 -7.96,0.18 -11.04,-0.03 -9.71,-0.67 -19.45,-1.22 -29.12,-2.31 -14.24,-1.61 -25.95,4.02 -36.87,12.13 -1.4,1.04 -2.16,2.95 -3.9,5.42 22.89,1.97 44.49,3.82 66.09,5.67 -16.19,-8.84 -33.71,-11.42 -52.18,-9.62z"/>
   <path class="fil1" d="M1448.13 2103.64c4.88,7.53 9.76,15.07 14.73,22.75 -7.94,9.66 -8.5,15.85 -1.69,27.38 0.87,1.47 3.17,2.08 4.81,3.09 0.22,-2.14 1.19,-4.58 0.48,-6.34 -1.13,-2.78 -3.38,-5.1 -5.47,-8.05 7.88,-2.38 14.38,-4.34 20.85,-6.3 -10.66,-11.86 -20.8,-23.13 -30.93,-34.41 -0.92,0.62 -1.85,1.24 -2.78,1.87z"/>
   <path class="fil1" d="M1540.15 2094.84c1.94,-2.01 4.45,-3.71 5.69,-6.08 2.94,-5.64 5.57,-11.48 7.81,-17.44 5.88,-15.69 11.71,-31.42 17.04,-47.31 1.18,-3.51 0.17,-7.76 0.17,-11.67 -1,-0.1 -1.99,-0.2 -2.99,-0.3 -0.72,2.28 -1.51,4.54 -2.15,6.84 -2.01,7.24 -3.37,14.72 -6.06,21.68 -6.05,15.65 -12.85,31 -19.08,46.58 -0.9,2.26 -0.32,5.12 -0.43,7.7z"/>
   <path class="fil1" d="M1995.15 2042.38c4.12,6.6 8.58,12.2 11.27,18.55 2.63,6.19 3.44,13.15 5.05,19.78 1.01,-0.37 2.03,-0.74 3.04,-1.12 2.49,-16.27 -6.93,-35.63 -19.36,-37.21z"/>
   <path class="fil1" d="M1314.1 2134.1c-0.91,2.01 -2.49,3.98 -2.62,6.05 -1.35,20.85 -3.36,41.72 -3.4,62.58 -0.05,27.25 1.44,54.51 2.51,81.76 0.09,2.44 1.9,4.81 2.91,7.21 1.27,-0.44 2.53,-0.88 3.8,-1.31 -1.31,-26 -3.63,-52 -3.64,-78 -0,-25.86 2.33,-51.72 3.64,-77.58 -1.07,-0.23 -2.13,-0.47 -3.2,-0.7z"/>
   <path class="fil1" d="M1317.17 2007.5c0,0.01 0,0.01 0,0.02l0.15 -0.17c-0.05,0.05 -0.11,0.1 -0.16,0.15z"/>
   <path class="fil1" d="M1301.49 1995.96c-2.27,0.5 -4.71,0.71 -6.72,1.74 -1.75,0.89 -3.02,2.75 -4.5,4.18 1.89,0.96 3.72,2.58 5.68,2.75 4.63,0.41 9.33,0.13 14.21,0.13 -3.93,4.64 -7.86,8.55 -10.89,13.07 -3.36,5 -6.16,10.45 -8.57,15.97 -0.48,1.12 1.88,3.49 2.93,5.28 1.34,-1.26 3.82,-2.49 3.85,-3.79 0.4,-13.76 11.53,-19.69 19.7,-27.79 -0.68,-12.78 -2.83,-14.37 -15.68,-11.54z"/>
   <path class="fil1" d="M1320.68 2030.69c2.67,-10.76 1.69,-17.38 -3.4,-23.05 -1.87,12.13 -0.69,20.1 3.4,23.05z"/>
   <path class="fil1" d="M1317.18 2007.52c0.03,0.04 0.06,0.08 0.1,0.12 0.01,-0.09 0.03,-0.18 0.04,-0.28 0.01,-0.02 -0.14,0.15 -0.14,0.15z"/>
   <path class="fil1" d="M1617.05 1491.83c5.06,0.01 10.21,0.52 15.12,-0.33 1.3,-0.22 1.88,-4.62 3.47,-8.94 2.3,0.42 5.44,1 8.72,1.61 -5.6,16.16 -21.9,20.42 -36.06,7.66 4.36,0 6.56,0 8.75,0zm14.91 -13.05c-5.63,2.65 -10.27,4.82 -14.9,7 -0.46,-0.97 -0.92,-1.94 -1.38,-2.91 2.69,-7.45 7.45,-9.42 16.29,-4.08zm2.43 23.35c0.53,-0.51 1.65,-0.41 2.49,-0.61 7.71,-1.92 12.98,-8.43 13.39,-16.85 0.36,-7.21 -5.68,-6.63 -10.09,-8.29 -3.2,-1.2 -5.97,-3.51 -9.12,-4.92 -6.07,-2.71 -12.58,-4.54 -17,2.31 -4.94,7.64 -9.02,15.84 -13.86,24.5 12.08,3.53 21.57,16.12 34.17,3.87z"/>
   <path class="fil1" d="M1653.8 1367.72c-2.72,5.76 -2.7,5.55 -17.36,4.23 -6.55,-0.58 -13.21,-0.1 -21.57,-0.1 13.02,-9.54 25.56,-10.95 38.93,-4.14zm-52.2 7.51c-1.4,2.28 -0.86,5.77 -1.22,8.69 2.96,-0.05 6.83,1.08 8.72,-0.37 8.81,-6.78 18.57,-7.35 28.89,-6.12 4.03,0.42 8.43,2.03 11.99,0.94 3.4,-1.05 6.91,-4.43 8.51,-7.7 1.02,-2.07 -0.44,-7.42 -2.39,-8.55 -15.79,-9.15 -45.22,-1.97 -54.5,13.11z"/>
   <path class="fil1" d="M1712.44 1374.1c-2.27,3.61 -4.38,6.62 -6.06,9.86 -0.52,0.99 -0.36,3.15 0.36,3.76 0.75,0.64 2.8,0.54 3.83,-0.03 7.27,-4.03 8.11,-16.47 1.53,-21.15 -4.93,-3.51 -4.29,-12.41 1.22,-14.83 2.12,-0.93 4.58,-1.13 7.73,-1.86 -6.05,-5.12 -10.7,-4.71 -14.53,0.21 -6.42,8.27 -4.63,17.22 5.93,24.03z"/>
   <path class="fil1" d="M1637.82 1381.36c-8.09,-1.87 -15.91,-0.99 -22.43,7.32 3.21,1.21 5.58,1.52 7.17,2.8 9.23,7.48 10.23,7.31 13.57,-2.65 3.07,-0.43 5.8,-0.82 8.54,-1.2 -2.26,-2.17 -4.22,-5.66 -6.84,-6.27z"/>
   <path class="fil1" d="M1396.96 1596.5c-4.54,-5.51 -10.9,-5.62 -16.89,-3.45 -2.7,0.98 -4.28,5.06 -6.37,7.73 0.68,0.72 1.36,1.44 2.04,2.16 7.07,-0.96 14.13,-1.93 21.2,-2.89 0.01,-1.18 0.01,-2.37 0.02,-3.55z"/>
   <path class="fil1" d="M1440.19 1593.23c-3.82,0.24 -7.43,4.03 -11.14,6.23 0.59,1.38 1.17,2.76 1.75,4.15 7.16,0 14.31,0 22.28,0 -1.97,-7.79 -7.19,-10.73 -12.89,-10.38z"/>
   <path class="fil1" d="M1422.62 1648.07c-9.18,-1.26 -18.43,-2.04 -27.66,-2.97 -0.39,0.98 -0.78,1.97 -1.17,2.96 2.55,1.25 4.99,3.13 7.68,3.62 6.7,1.22 13.49,1.94 20.28,2.52 1.31,0.11 2.76,-1.32 4.14,-2.03 -1.08,-1.42 -2.02,-3.92 -3.27,-4.09z"/>
   <path class="fil1" d="M1399.98 1585.06c-4,-1.61 -8.09,-4.7 -11.98,-4.47 -5.6,0.34 -12.5,0.33 -16.56,7.97 9.85,-0.52 18.37,-0.97 26.89,-1.42 0.55,-0.7 1.1,-1.39 1.65,-2.09z"/>
   <path class="fil1" d="M1449.5 1593.12c1.84,0.71 3.72,1.32 7.82,2.75 -6.76,-12.78 -13.06,-16.66 -19.98,-13.79 -1.46,0.61 -2.28,2.75 -3.4,4.18 1.32,0.75 2.59,1.65 3.98,2.23 3.83,1.62 7.7,3.13 11.58,4.63z"/>
   <path class="fil1" d="M1421.77 1639.66c0.8,-6.6 -3.4,-9.22 -8.36,-9.74 -2.8,-0.29 -5.89,2.13 -8.84,3.33 0.38,0.62 0.76,1.24 1.14,1.86 4.94,1.4 9.89,2.8 16.06,4.55z"/>
   <path class="fil1" d="M1894.27 1792.36c2.99,-0.72 5.88,-2.13 8.56,-3.7 0.72,-0.42 0.55,-2.35 0.85,-3.92 -3.12,0.52 -5.44,0.91 -7.76,1.3 1.2,-6.79 0.73,-13.9 3.8,-18.8 3.04,-4.87 9.64,-7.52 15.87,-12.01 -12.2,-4.27 -16.7,5.12 -22.5,9.86 -3.35,-2.11 -6.21,-3.91 -9.07,-5.72 -0.64,0.65 -1.28,1.31 -1.91,1.96 2.43,3.3 4.86,6.59 7.7,10.43 -13.84,-6.28 -13.84,-6.28 -17.99,0.04 10.97,0.69 17.77,5.87 19.22,16.97 0.18,1.39 2.44,3.78 3.23,3.59z"/>
   <path class="fil1" d="M1181.39 1757.69c8.15,-13.81 15.75,-26.67 24.39,-41.31 -13.37,6.41 -27.24,30.64 -24.39,41.31z"/>
  </g>
 </g>
</svg>
