<?xml version="1.0" encoding="UTF-8"?>
<!DOCTYPE svg PUBLIC "-//W3C//DTD SVG 1.1//EN" "http://www.w3.org/Graphics/SVG/1.1/DTD/svg11.dtd">
<!-- Creator: CorelDRAW 2020 (64 Bit) -->
<svg xmlns="http://www.w3.org/2000/svg" xml:space="preserve" width="62.0001mm" height="61.9145mm" version="1.1" style="shape-rendering:geometricPrecision; text-rendering:geometricPrecision; image-rendering:optimizeQuality; fill-rule:evenodd; clip-rule:evenodd"
viewBox="0 0 114.3 114.14"
 xmlns:xlink="http://www.w3.org/1999/xlink"
 xmlns:xodm="http://www.corel.com/coreldraw/odm/2003">
 <defs>
  <style type="text/css">
   <![CDATA[
    .fil1 {fill:#FEFEFE}
    .fil0 {fill:#EE4037}
   ]]>
  </style>
 </defs>
 <g id="Camada_x0020_1">
  <metadata id="CorelCorpID_0Corel-Layer"/>
  <g id="_2346487898944">
   <path class="fil0" d="M-0 114.14l0 0zm57.27 -114.14c31.4,0 57.02,25.63 57.02,57.05 0,31.4 -25.63,57.06 -57.02,57.06 -31.43,0 -57.07,-25.66 -57.07,-57.06 0,-31.43 25.64,-57.05 57.07,-57.05z"/>
   <path class="fil1" d="M57.27 1.6c30.5,0 55.42,24.92 55.42,55.45 0,30.53 -24.92,55.44 -55.42,55.44 -30.55,0 -55.47,-24.9 -55.47,-55.44 0,-30.53 24.92,-55.45 55.47,-55.45z"/>
   <polygon class="fil0" points="99.5,66.11 107.87,68.27 106.2,74.34 104.72,73.94 105.94,69.61 104.21,69.13 103.15,73.08 101.62,72.69 102.69,68.74 100.56,68.2 99.29,72.69 97.85,72.29 "/>
   <path class="fil0" d="M100.36 61.68l0.2 -3.93 8.6 0.48 -0.18 4.24c-0.06,0.51 -0.2,1.06 -0.32,1.33 -0.28,0.39 -0.6,0.71 -0.86,0.83 -0.28,0.22 -0.66,0.34 -0.99,0.34 -1.06,-0.08 -1.73,-0.46 -1.93,-1.17 -0.2,0.39 -0.46,0.77 -0.86,0.97 -0.4,0.28 -0.86,0.32 -1.39,0.32 -0.42,-0.05 -0.8,-0.25 -1.05,-0.4 -0.28,-0.12 -0.62,-0.46 -0.74,-0.69 -0.12,-0.28 -0.32,-0.62 -0.4,-1.02 -0.08,-0.39 -0.08,-0.86 -0.08,-1.3z"/>
   <path class="fil0" d="M103.03 49.22l5.75 -0.35 0.08 1.93 -5.63 0.34c-0.4,0 -0.82,0.06 -1.06,0.2 -0.28,0.2 -0.4,0.4 -0.46,0.6 -0.08,0.19 -0.12,0.46 -0.12,0.71 0.05,1.06 0.71,1.6 1.77,1.6l5.63 -0.34 0.14 1.91 -5.69 0.35c-0.6,0 -1.14,-0.15 -1.54,-0.2 -0.39,-0.2 -0.79,-0.54 -1.05,-0.74 -0.28,-0.32 -0.48,-0.71 -0.6,-1.14 -0.08,-0.39 -0.14,-0.91 -0.2,-1.37 0,-0.52 0.06,-1.14 0.2,-1.65 0.2,-0.55 0.52,-1.06 0.91,-1.34 0.43,-0.26 1.06,-0.51 1.8,-0.51l0.08 0z"/>
   <polygon class="fil0" points="98.05,42.65 106.4,40.4 106.85,42.19 100.1,43.98 101.22,48.16 99.65,48.54 "/>
   <path class="fil0" d="M98.51 32.71c0.6,-0.26 1.19,-0.39 1.73,-0.51 0.52,-0.08 1.14,0.05 1.53,0.19 0.52,0.12 0.99,0.4 1.31,0.72 0.4,0.34 0.86,0.79 1.06,1.25 0.34,0.6 0.46,1.26 0.46,1.85 0,0.62 -0.19,1.22 -0.46,1.67 -0.25,0.46 -0.66,1 -1.11,1.2l-0.82 -1.6c0.74,-0.65 1.02,-1.45 0.62,-2.25 -0.34,-0.59 -0.82,-1.05 -1.45,-1.17 -0.66,-0.08 -1.53,0.12 -2.39,0.51l0 0.08c-0.4,0.2 -0.86,0.52 -1.22,0.79 -0.25,0.28 -0.45,0.79 -0.51,1.06 -0.12,0.4 -0.08,0.86 0.12,1.19 0.46,1 1.2,1.33 2.27,1.06l0.79 1.6c-0.59,0.12 -1.26,0.19 -1.8,0.12 -0.51,0 -1.06,-0.28 -1.5,-0.6 -0.48,-0.32 -0.86,-0.86 -1.22,-1.45 -0.32,-0.66 -0.46,-1.39 -0.46,-2.05 0,-0.66 0.22,-1.4 0.66,-1.93 0.46,-0.54 1.26,-1.13 2.07,-1.53 0.06,-0.08 0.2,-0.12 0.25,-0.12l0.08 -0.08z"/>
   <polygon class="fil0" points="83.26,22.5 88.92,15.96 90.29,17.21 85.72,22.5 88.96,25.29 87.9,26.54 "/>
   <path class="fil0" d="M77.17 14.16l0.15 -0.28c0.45,-0.79 1.06,-1.45 1.57,-1.85 0.6,-0.46 1.34,-0.66 2.05,-0.71 0.74,0 1.6,0.2 2.39,0.65 0.48,0.26 0.86,0.66 1.19,1 0.34,0.4 0.62,0.91 0.74,1.39 0.12,0.54 0.12,1.19 0,1.73 -0.08,0.66 -0.34,1.33 -0.74,2.05 -0.32,0.54 -0.86,1.13 -1.19,1.45 -0.46,0.4 -0.99,0.66 -1.45,0.79 -0.6,0.15 -1.14,0.15 -1.65,0 -0.55,-0.05 -1.14,-0.25 -1.66,-0.59 -0.66,-0.4 -1.25,-0.99 -1.6,-1.59 -0.31,-0.59 -0.51,-1.33 -0.46,-1.99 0.08,-0.66 0.28,-1.39 0.66,-2.05z"/>
   <path class="fil0" d="M71.28 16.16l-3.62 -1.42 3.1 -8.07 3.9 1.51c0.54,0.2 0.99,0.54 1.26,0.74 0.26,0.32 0.46,0.79 0.46,1.06 0.12,0.31 0.12,0.79 0.08,1.11 -0.4,0.92 -1.02,1.48 -1.73,1.48 0.32,0.25 0.59,0.63 0.66,1.05 0.05,0.45 0.05,0.99 -0.15,1.47 -0.12,0.39 -0.43,0.63 -0.71,0.86 -0.2,0.2 -0.54,0.45 -0.86,0.45 -0.34,0.06 -0.66,0.14 -1.06,0.06 -0.39,-0.06 -0.86,-0.18 -1.33,-0.31z"/>
   <polygon class="fil0" points="60.1,13.83 61.3,5.27 67.5,6.14 67.3,7.66 62.81,7.08 62.61,8.77 66.63,9.39 66.43,10.9 62.41,10.3 62.1,12.58 66.71,13.22 66.51,14.74 "/>
   <polygon class="fil0" points="54.88,13.96 54.48,6.88 51.89,7 51.85,5.47 58.85,5.15 58.92,6.6 56.33,6.8 56.73,13.83 "/>
   <path class="fil0" d="M44.15 12.77l-1.39 -5.57 1.85 -0.48 1.39 5.43c0.08,0.43 0.26,0.82 0.46,1.02 0.2,0.2 0.4,0.4 0.6,0.4 0.19,0 0.54,0 0.8,-0.08 0.99,-0.28 1.47,-0.99 1.19,-1.97l-1.4 -5.58 1.88 -0.46 1.37 5.57c0.12,0.52 0.12,1.11 0.12,1.54 -0.12,0.43 -0.32,0.91 -0.51,1.17 -0.28,0.32 -0.6,0.6 -0.99,0.72 -0.4,0.22 -0.86,0.42 -1.34,0.46 -0.54,0.15 -1.13,0.2 -1.65,0.2 -0.59,-0.05 -1.14,-0.4 -1.45,-0.66 -0.4,-0.32 -0.74,-0.91 -0.94,-1.65l0 -0.06z"/>
   <polygon class="fil0" points="38.25,18.06 35.22,10.05 40.91,7.86 41.51,9.25 37.46,10.78 38.12,12.58 41.7,11.24 42.22,12.71 38.72,14.03 39.97,17.41 "/>
   <polygon class="fil0" points="23.75,29.99 19.43,21.9 20.84,20.37 29.32,23.82 27.99,25.29 26.26,24.56 24.14,26.89 25,28.59 "/>
   <path class="fil0" d="M15.61 34.29c-0.62,-0.32 -1.02,-0.72 -1.42,-1.11 -0.39,-0.48 -0.59,-0.99 -0.71,-1.46 -0.15,-0.46 -0.2,-1.06 -0.08,-1.53 0.08,-0.46 0.2,-1.06 0.48,-1.53 0.31,-0.6 0.79,-1.06 1.3,-1.39 0.48,-0.34 1.14,-0.46 1.6,-0.54 0.6,0 1.19,0.08 1.67,0.34l-0.94 1.51c-0.91,-0.25 -1.71,-0.05 -2.17,0.74 -0.34,0.59 -0.46,1.26 -0.2,1.85 0.28,0.59 0.91,1.2 1.73,1.73l0.05 -0.08c0.4,0.28 0.86,0.48 1.26,0.62 0.46,0.05 0.94,0 1.26,-0.14 0.34,-0.08 0.74,-0.4 0.93,-0.8 0.52,-0.86 0.4,-1.73 -0.39,-2.44l0.91 -1.53c0.46,0.39 0.82,0.91 1.06,1.37 0.26,0.56 0.42,1.14 0.42,1.67 -0.08,0.62 -0.28,1.2 -0.66,1.79 -0.35,0.6 -0.86,1.14 -1.46,1.54 -0.54,0.31 -1.25,0.51 -1.91,0.39 -0.74,0 -1.67,-0.34 -2.47,-0.79 -0.06,-0.08 -0.12,-0.15 -0.2,-0.15l-0.05 -0.06z"/>
   <polygon class="fil0" points="18.17,39.08 10.49,35.16 11.35,33.49 19.03,37.43 "/>
   <path class="fil0" d="M15.13 46.69l-8.02 -3.13 1.53 -4.02c0.2,-0.54 0.52,-0.93 0.86,-1.25 0.4,-0.28 0.8,-0.48 1.19,-0.48 0.32,-0.06 0.86,-0.06 1.26,0.06 0.2,0.06 0.51,0.26 0.71,0.42 0.2,0.25 0.48,0.51 0.48,0.79 0.14,0.28 0.18,0.52 0.18,0.79 0.28,-0.26 0.6,-0.51 0.94,-0.51 0.32,0 0.86,0 1.26,0.18l0.39 0.12c0.12,0.08 0.2,0.12 0.32,0.2 0.35,0.12 0.66,0.12 0.82,0.2 0.2,0.08 0.45,-0.08 0.45,-0.2l0.22 0.08 -0.74 1.93c-0.12,0 -0.39,0 -0.59,-0.08 -0.2,-0.08 -0.48,-0.12 -0.74,-0.2 -0.25,-0.12 -0.52,-0.2 -0.72,-0.34 -0.26,-0.05 -0.54,-0.05 -0.66,-0.05 -0.12,-0.08 -0.39,0.05 -0.46,0.12 -0.2,0.06 -0.4,0.39 -0.52,0.74l-0.66 1.7 3.18 1.28 -0.66 1.65z"/>
   <polygon class="fil0" points="3.86,47.42 5.39,49.53 5.18,50.72 3.61,49.34 "/>
   <polygon class="fil0" points="14.19,54.37 5.66,53.18 6.53,46.94 8.02,47.14 7.44,51.66 9.16,51.86 9.75,47.8 11.29,48 10.69,52.06 12.94,52.4 13.6,47.76 15.13,47.96 "/>
   <polygon class="fil0" points="14.59,64.1 6.05,64.56 5.86,61.93 12.62,60.08 12.62,60 5.71,58.81 5.59,56.18 14.19,55.7 14.27,57.42 7.11,57.83 7.11,57.9 14.34,59.09 14.47,60.86 7.39,62.79 7.39,62.79 14.54,62.39 "/>
   <polygon class="fil0" points="16.78,72.89 7.64,72.03 7.19,69.99 14.75,64.89 15.25,66.82 13.68,67.8 14.39,70.93 16.32,71.13 "/>
   <polygon class="fil0" points="85.6,100.45 80.5,93.49 82.1,92.35 88.39,95.22 88.39,95.22 84.86,90.3 86.28,89.31 91.31,96.27 89.86,97.38 83.41,94.48 83.41,94.48 86.99,99.46 "/>
   <path class="fil0" d="M77.66 104.81l-3.92 -7.68 3.92 -1.99c0.48,-0.28 0.99,-0.4 1.47,-0.4 0.46,0.08 0.91,0.2 1.17,0.48 0.35,0.18 0.74,0.51 0.94,0.86 0.05,0.25 0.2,0.59 0.25,0.86 0,0.25 -0.05,0.63 -0.12,0.83 -0.12,0.28 -0.26,0.62 -0.46,0.74 0.39,-0.08 0.82,0.08 1.06,0.2 0.26,0.26 0.59,0.59 0.8,0.99l0.2 0.39c0.05,0.15 0.05,0.28 0.12,0.43 0.12,0.25 0.4,0.51 0.48,0.59 0.05,0.2 0.31,0.25 0.46,0.2l0.12 0.2 -1.85 0.91c-0.15,-0.05 -0.34,-0.25 -0.4,-0.45 -0.06,-0.2 -0.26,-0.42 -0.42,-0.62 -0.12,-0.25 -0.25,-0.52 -0.32,-0.71 -0.12,-0.2 -0.39,-0.4 -0.46,-0.56 0,-0.12 -0.25,-0.18 -0.46,-0.18 -0.12,-0.06 -0.45,0.06 -0.85,0.18l-1.68 0.86 1.6 2.99 -1.65 0.86z"/>
   <polygon class="fil0" points="66.31,105.55 65.99,103.95 69.3,103.24 69.69,104.73 "/>
   <polygon class="fil0" points="53.73,108.93 53.73,100.29 55.58,100.29 55.58,107.32 59.85,107.32 59.85,108.93 "/>
   <polygon class="fil0" points="43.83,107.53 48.22,99.51 50.27,99.85 52,108.85 50.07,108.51 49.72,106.66 46.62,106.2 45.71,107.86 "/>
   <polygon class="fil0" points="39.73,105.95 42.05,99.23 39.59,98.4 40.05,96.99 46.7,99.23 46.22,100.71 43.78,99.85 41.45,106.54 "/>
   <polygon class="fil0" points="29.92,101.43 36.55,95.14 38.4,96.08 37.26,105.21 35.49,104.29 35.81,102.42 32.97,100.96 31.58,102.3 "/>
   <polygon class="fil0" points="23.1,96.33 28.25,89.44 29.8,90.62 28.85,97.46 28.93,97.53 32.57,92.69 33.91,93.75 28.73,100.65 27.27,99.51 28.13,92.51 28.13,92.51 24.41,97.38 "/>
   <path class="fil0" d="M57.24 15.79c22.68,0 41.22,18.52 41.22,41.25 0,22.68 -18.54,41.23 -41.22,41.23 -22.71,0 -41.25,-18.55 -41.25,-41.23 0,-22.73 18.53,-41.25 41.25,-41.25z"/>
   <path class="fil1" d="M88.31 67.77l4.8 2.17c-3.32,8.22 -9.73,16.58 -17.96,20.71l0 -67.34c8.36,4.12 14.65,12.34 17.96,20.69l-4.8 2.05c-2.19,-4.44 -4.24,-8 -7.45,-11.89l0 45.72c3.21,-3.99 5.26,-7.77 7.45,-12.12z"/>
   <path class="fil1" d="M52.54 94.65l0 -75.24c5.27,-0.79 11.87,0.46 17.01,1.6l0 5.72c-0.79,-0.82 -10.04,-2.17 -11.29,-2.3l0 28.94 9.93 0 0 5.6 -9.93 0 0 36.01c-1.6,0 -4.12,-0.22 -5.72,-0.34z"/>
   <path class="fil1" d="M19.73 56.38c1.13,-18.44 11.32,-29.42 25.86,-35.36l0 71.8c-1.73,-0.56 -4.02,-1.5 -5.86,-2.41l0 -31.43 -14.74 0c0.34,3.69 1.48,7.79 2.85,11.09l-4.81 2.96c-2.05,-5.69 -3.65,-10.96 -3.3,-16.65z"/>
   <path class="fil0" d="M25.11 53.38l14.62 0 0 -23.78c-8.57,5.81 -12.58,11.89 -14.62,23.78z"/>
   <path class="fil1" d="M101.96 59.6l-0.14 2.27c0,0.32 0.14,0.68 0.19,0.86 0.15,0.25 0.48,0.52 0.86,0.52 0.4,0 0.8,-0.08 0.94,-0.32 0.2,-0.26 0.32,-0.62 0.32,-0.94l0.15 -2.24 -2.33 -0.15z"/>
   <path class="fil1" d="M107.59 59.95l-1.85 -0.15 -0.15 2.13c0,0.34 0.08,0.66 0.15,0.86 0.12,0.19 0.46,0.39 0.71,0.39 0.28,0 0.56,-0.12 0.68,-0.25 0.14,-0.14 0.34,-0.54 0.34,-1l0.12 -1.97z"/>
   <path class="fil1" d="M79.09 14.56c-0.46,0.79 -0.71,1.6 -0.71,2.24 0,0.66 0.38,1.34 1.05,1.73 0.45,0.28 0.93,0.4 1.31,0.35 0.4,-0.08 0.86,-0.35 1.22,-0.6 0.31,-0.26 0.71,-0.66 0.91,-1 0.39,-0.68 0.59,-1.39 0.74,-2.13 0.12,-0.71 -0.36,-1.39 -1.14,-1.93 -0.26,-0.12 -0.66,-0.25 -0.99,-0.25 -0.34,0 -0.79,0.12 -1.2,0.32 -0.4,0.2 -0.85,0.66 -1.19,1.26z"/>
   <path class="fil1" d="M69.81 14.03l2.13 0.79c0.34,0.12 0.66,0.12 0.94,0.08 0.25,-0.08 0.59,-0.28 0.71,-0.66 0.15,-0.35 0.15,-0.82 -0.05,-1.02 -0.22,-0.2 -0.46,-0.45 -0.74,-0.59l-2.13 -0.79 -0.86 2.19z"/>
   <path class="fil1" d="M71.86 8.73l-0.63 1.77 1.97 0.74c0.26,0.12 0.59,0.2 0.86,0.12 0.19,-0.05 0.46,-0.32 0.54,-0.59 0.12,-0.2 0.05,-0.52 0,-0.66 -0.08,-0.2 -0.42,-0.48 -0.86,-0.68l-1.88 -0.71z"/>
   <polygon class="fil1" points="21.55,22.45 23.35,25.55 24.8,23.95 21.62,22.5 "/>
   <path class="fil1" d="M11.29 43.32l0.74 -2.07c0.19,-0.4 0.19,-0.79 0.12,-0.99 -0.12,-0.28 -0.4,-0.48 -0.74,-0.6 -0.2,-0.12 -0.6,-0.06 -0.8,-0.06 -0.26,0.14 -0.51,0.46 -0.66,0.86l-0.79 1.99 2.13 0.86z"/>
   <polygon class="fil1" points="9.29,70.52 12.86,70.79 12.34,68.67 9.29,70.52 "/>
   <path class="fil1" d="M77.07 99.66l1.97 -1.02c0.34,-0.12 0.66,-0.45 0.66,-0.66 0.12,-0.25 0.08,-0.6 -0.08,-0.85 -0.12,-0.26 -0.38,-0.54 -0.59,-0.62 -0.28,-0.12 -0.66,-0.05 -1.06,0.15l-1.93 0.99 1.02 2z"/>
   <polygon class="fil1" points="48.93,101.56 47.28,104.81 49.47,105.15 48.93,101.63 "/>
   <polygon class="fil1" points="36.63,97.33 34.04,99.91 36.01,100.91 36.55,97.38 "/>
  </g>
 </g>
</svg>
