<?xml version="1.0" encoding="utf-8"?>
<!-- Generator: Adobe Illustrator 23.0.1, SVG Export Plug-In . SVG Version: 6.00 Build 0)  -->
<svg version="1.1" id="Layer_1" xmlns="http://www.w3.org/2000/svg" xmlns:xlink="http://www.w3.org/1999/xlink" x="0px" y="0px"
	 viewBox="0 0 595.3 595.3" style="enable-background:new 0 0 595.3 595.3;" xml:space="preserve">
<style type="text/css">
	.st0{fill-rule:evenodd;clip-rule:evenodd;fill:#231F20;}
	.st1{fill-rule:evenodd;clip-rule:evenodd;fill:#FFFFFF;}
	.st2{fill-rule:evenodd;clip-rule:evenodd;fill:#EE3124;}
</style>
<g>
	<path class="st0" d="M308.9,56.9h-22.5c-53.1-0.3-96.5-19-129.8-56.1L59,123.2c4.1,4.1,7,7.9,9.2,11.1c17.1,23,24.7,50.7,22.8,83.5
		l-1.1,39.3c-15.4,77.5-12.5,135,9.2,172.9l1.4,3c27.1,65.9,93,119.8,197,161.5c104.6-41.7,170.2-95.4,197.3-161.5l1.1-3
		c21.9-37.4,25.2-95.1,9.5-172.9l-0.3-2.2c0-13.5-0.3-26-1.1-37.1c-1.4-25.2,3-47.4,12.7-66.9c2.4-5.1,5.7-10.6,10-16.5
		c2.7-3.5,6-7.3,9.5-11.1L438.7,0.8C405.4,37.9,362.3,56.6,308.9,56.9L308.9,56.9z"/>
	<path class="st1" d="M286.4,71.2h22.5c51.8-0.3,94.9-16.8,129-49.6L518.1,123l-1.9,2.4c-4.6,6.5-8.4,12.7-11.4,18.7
		c-10.8,21.1-15.7,46.1-14.4,74.5c0.8,10.8,1.1,22.8,1.1,36.3l0.3,1.6v1.9l0.3,1.6c14.6,72.9,12.2,126.8-7.6,162.3l-1.1,1.9l-1.1,3
		c-25.7,61.8-87.5,112.2-184.8,151.8c-96.8-39.3-158.3-90-184.8-151.8h0.3l-1.1-3l-1.1-1.9c-19.5-35.2-22.2-89.2-7.6-162.3v-1.6
		l0.3-1.9V255c0-8.1,0.5-20.3,1.1-36.3c1.9-36.9-6.5-67.8-25.7-93.2l-1.6-2.4l80.2-101.4C191.8,54.4,234.6,70.9,286.4,71.2
		L286.4,71.2z"/>
	<polygon class="st2" points="122.7,160.9 102.7,160.9 118.9,172.8 112.7,191.8 128.9,179.9 145.2,191.8 139,172.8 155.5,160.9 
		135.2,160.9 128.9,141.4 122.7,160.9 	"/>
	<polygon class="st2" points="216.5,90.5 210.2,70.9 204,90.5 184,90.5 200.2,102.4 194,121.3 210.2,109.4 226.5,121.3 220.3,102.4 
		236.8,90.5 216.5,90.5 	"/>
	<polygon class="st2" points="122.7,337.1 102.7,337.1 118.9,349 112.7,368.2 128.9,356.3 145.2,368.2 139,349 155.5,337.1 
		135.2,337.1 128.9,317.8 122.7,337.1 	"/>
	<polygon class="st2" points="183.1,475.6 199.4,487.5 193.2,468.2 209.7,456.3 189.4,456.3 183.1,437.1 176.9,456.3 156.9,456.3 
		173.1,468.2 166.9,487.5 183.1,475.6 	"/>
	<polygon class="st2" points="323.5,521.4 303.2,521.4 297.2,502.1 297,502.4 297,502.1 290.7,521.4 270.7,521.4 286.9,533.3 
		280.7,552.8 297,540.6 313.2,552.8 313.2,552.2 313.5,552.8 307.3,533.3 323.5,521.4 	"/>
	<polygon class="st2" points="394.5,487.5 410.8,475.6 427.3,487.5 421.1,468.2 437.3,456.3 417,456.3 410.8,437.1 404.5,456.3 
		384.5,456.3 401,468.2 394.5,487.5 	"/>
	<polygon class="st2" points="491.5,337.1 471.2,337.1 465,317.8 458.7,337.1 438.7,337.1 455.2,349 448.7,368.2 465,356.3 
		481.5,368.2 475.3,349 491.5,337.1 	"/>
	<polygon class="st2" points="491.5,160.9 471.2,160.9 465,141.4 458.7,160.9 438.7,160.9 455.2,172.8 448.7,191.8 465,179.9 
		481.5,191.8 475.3,172.8 491.5,160.9 	"/>
	<polygon class="st2" points="400.2,121.3 394,102.4 410.2,90.5 389.9,90.5 384,70.9 377.4,90.5 357.4,90.5 373.9,102.4 
		367.4,121.3 384,109.4 400.2,121.3 	"/>
	<path class="st0" d="M304.5,155.8h-14.1c-33.3,0-60.2-11.4-81-35l-60.7,76.7c2.7,2.7,4.6,5.1,5.7,6.8c10.6,14.1,15.2,31.7,14.1,52
		L168,281c-9.8,48.2-7.9,84.3,5.7,107.6l0.8,1.9c16.8,40.9,58,74.5,123,100.5c65.3-25.7,106.2-59.4,123.3-100.5l0.8-1.9
		c13.6-23.3,15.4-59.3,5.7-107.6l-0.3-1.6c0-10.3,0-17.9-0.5-23c-0.8-15.7,1.9-29.5,7.9-41.7c1.6-3,3.5-6.8,6.2-10.3
		c2.2-2.7,4.1-4.9,6-6.8l-60.7-76.7C365,144.4,337.9,155.8,304.5,155.8L304.5,155.8z"/>
	<path class="st1" d="M290.5,163.1h14.1c32.5,0,59.3-10.6,80.8-31.7l52.3,65.9l-2.4,2.4v0.3l-6.8,11.4c-6.8,12.7-9.5,27.9-8.7,45.5
		c0.5,4.9,0.5,12.5,0.5,22.5v0.5l0.3,1.4c0,0.3,0.3,0.5,0.3,1.1c8.9,46.6,7.3,80.8-5.1,102.4c0,0.5-0.3,0.8-0.3,1.1l-0.8,1.9v-0.3
		c-16.3,39-55.3,71-117.1,95.9C236,458.5,197,426.5,180.7,387.5v0.3l-0.8-1.9c0-0.5-0.3-0.8-0.5-1.1c-12.5-22.2-14.1-56.4-4.9-102.4
		c0-0.5,0.3-0.8,0.3-1.1l0.5-24.4c1.4-22.2-3.8-41.2-15.7-56.9v-0.3l-1.9-2.4l52.3-65.9C231.1,152.5,258.2,163.1,290.5,163.1
		L290.5,163.1z"/>
	<path class="st0" d="M387.5,228.4h-39.3c0-17.1,4.6-29.8,13.6-38.2v-14.9H232.2v10c9.8,6.8,13.8,21.1,12.5,43.1h-38.8
		c-9.8,65.3-6.2,120.9,11.1,166.9c2.2,2.2,4.3,2.2,7,0c2.2-1.1,3-3.3,2.2-6c-8.4-23.6-13.3-50.1-14.9-79.7h33.3v98.6
		c-1.9-1.4-4.1-2.7-6.2-3.5c-3.8-1.9-7.3-1.4-10,1.4l-1.4,1.6c-0.8,3.8,0.3,6.8,3.5,8.7c14.1,3.8,25.5,10.3,34.7,20.1
		c0.3,0.5,0.5,0.5,0.8,0.5c8.9,6.2,20.6,11.1,35,14.9l7.3,1.4l4.9,0.3c7.6,0,13.8-1.6,19.2-5.4c4.9-3.3,7.6-7.6,7.9-12.7
		c-0.3-5.4-3-9.8-7.9-13.3c-5.1-3.3-10.8-4.9-16.8-5.1c-1.9,0.3-3.3,1.4-3.8,3c-1.1,1.6-0.8,2.7,1.1,3l9.2,2.7
		c3.8,1.6,5.7,3.5,5.7,6c0,1.9-1.9,4.1-5.7,5.7c-3,1.6-7.6,2.2-13.3,2.4l-2.7-0.3c-6.2-1.6-11.1-3.3-14.6-4.9l-4.9-2.2
		c-10.8-4.6-18.7-10-23.6-16.5V309.7h16.8v110c0.5,1.4,1.1,2.4,1.6,2.7l0.8,0.8c1.1,0.8,2.2,1.4,3.3,1.4c2.2-0.3,3.5-1.1,4.3-2.2
		c1.1-0.8,1.6-1.9,1.9-3.5c0.3-0.3,0.3-0.5,0.3-1.1V288.3h19.8c0.3,31.7,5.2,59.9,14.6,84.8c0.5,3.3,1.9,6,3.8,8.7l3.3,4.3
		c5.4,5.4,11.7,8.1,18.7,8.1c7.3,0,13.3-2.7,18.4-8.1c3.8-3.8,6.5-8.4,7.6-13.8l0.5-4.9l-0.8-1.9c-0.8-0.5-1.6-1.1-2.7-1.1l-1.6,0.3
		l-1.4,2.2v0.3c-4.3,5.1-9.5,7.6-15.4,7.6c-6.2,0-11.1-2.4-15.2-7.9l-1.6-1.9l-4.9-15.7l-0.8-2.7c-4.9-19.5-7.3-38.8-7-58.3h12.7
		c0.5,0.3,0.8,0.3,0.8,0.3l0.8,0.3c1.6,1.1,2.4,3.5,1.6,7.9l-1.4,9.5c-0.8,4.3,0.3,7,3.8,8.9c0.3,0,0.5,0,0.8,0.3
		c5.4,0,9.2-4.9,10.8-14.9v-33.6h-28.7c0.8-7.9,1.6-13.6,2.4-17.3c0-0.3,0.3-0.5,0.3-1.1H378c7.9,3.5,13.8,7.6,17.9,11.9
		c1.6,1.9,2.7,3.8,3.3,5.2l2.4,0.3c1.6,0,3-0.3,4.3-1.4l0.8-1.1c0.3-0.3,0.5-0.5,0.5-0.8l-1.1-6
		C402.7,242.2,396.4,232.7,387.5,228.4L387.5,228.4z M302.7,206.4c9.5,0,18.2,2.4,25.2,7.9c5.4,3.8,8.7,8.4,10,14.1h-22.2
		c-1.4,9.2-2.2,19.5-3,30.4l-0.5,8.1h-20.1v-38.5h-24.9c1.1-5.4,4.3-10,10-14.1C284.5,208.9,292.9,206.4,302.7,206.4L302.7,206.4z
		 M279.9,288.3v4.6h-16.8v-4.6H279.9L279.9,288.3z M279.9,246.8v20.1h-16.8v-20.1H279.9L279.9,246.8z M244.7,246.8v46.1h-33.3
		c0-14.4,1.1-29.5,3.5-46.1H244.7L244.7,246.8z"/>
</g>
</svg>
