<?xml version="1.0" encoding="utf-8"?>
<!-- Generator: Adobe Illustrator 23.0.1, SVG Export Plug-In . SVG Version: 6.00 Build 0)  -->
<svg version="1.1" id="Layer_1" xmlns="http://www.w3.org/2000/svg" xmlns:xlink="http://www.w3.org/1999/xlink" x="0px" y="0px"
	 viewBox="0 0 595.3 595.3" style="enable-background:new 0 0 595.3 595.3;" xml:space="preserve">
<style type="text/css">
	.st0{fill:#E32027;}
	.st1{fill:#FFFFFF;}
	.st2{fill-rule:evenodd;clip-rule:evenodd;fill:#E32027;}
	.st3{fill-rule:evenodd;clip-rule:evenodd;fill:#FFFFFF;}
	.st4{fill-rule:evenodd;clip-rule:evenodd;fill:#EE3128;}
</style>
<g>
	<path class="st0" d="M297.6,12.9L297.6,12.9c79,0,150.7,32,202.7,83.6c52,51.6,84.2,122.8,84.2,201.2v0v0
		c0,78.4-32.2,149.6-84.2,201.2c-52,51.6-123.7,83.6-202.7,83.6h0h0c-79,0-150.7-32-202.7-83.6c-52-51.6-84.2-122.8-84.2-201.2v0v0
		c0-78.4,32.2-149.6,84.2-201.2C146.9,44.9,218.6,12.9,297.6,12.9L297.6,12.9L297.6,12.9z"/>
	<path class="st1" d="M297.6,21.3L297.6,21.3L297.6,21.3c-76.7,0-146.4,31-196.8,81.1c-50.5,50.1-81.7,119.2-81.7,195.3v0v0
		c0,76.1,31.3,145.2,81.7,195.3C151.3,543,220.9,574,297.6,574h0h0c76.7,0,146.4-31,196.8-81.1c50.5-50.1,81.7-119.2,81.7-195.3v0v0
		c0-76.1-31.3-145.2-81.7-195.3C444,52.3,374.4,21.3,297.6,21.3L297.6,21.3z"/>
	<path class="st2" d="M296.8,59.7c133.8,0,243,107.1,243,238.4c0,131.3-109.2,238.4-243,238.4c-133.8,0-243-107.1-243-238.4
		C53.8,166.7,162.9,59.7,296.8,59.7L296.8,59.7z"/>
	<path class="st3" d="M235.2,104C114.3,142.2,61.1,265.7,109,386l36.3-17.4c-8.4-12.7-11.6-31.7-15.8-57h67.8V481l37.9,14.3V104
		L235.2,104z"/>
	<path class="st3" d="M265.2,97.7v400.8l39.4,4.8V311.5h33.1v-38h-33.1v-141c16.8,0,33.7,3.7,50.5,7.9v-34.8
		C325.2,92.4,295.2,89.8,265.2,97.7L265.2,97.7z"/>
	<path class="st3" d="M386.7,115.1v370.7c40.5-17.4,76.8-56,108.9-115.6l-34.7-20.6c-10,23.2-18.9,39.1-36.3,52.3V194.3
		c13.7,14.8,26.8,34.8,36.3,53.9l30-19C472,178.5,435.1,136.2,386.7,115.1L386.7,115.1z"/>
	<path class="st4" d="M197.4,164.2l0,110.9h-67.8C142.1,221.2,163.7,184.3,197.4,164.2L197.4,164.2z"/>
</g>
</svg>
