<?xml version="1.0" encoding="UTF-8"?>
<!DOCTYPE svg PUBLIC "-//W3C//DTD SVG 1.1//EN" "http://www.w3.org/Graphics/SVG/1.1/DTD/svg11.dtd">
<!-- Creator: CorelDRAW 2019 (64 Bit) -->
<svg xmlns="http://www.w3.org/2000/svg" xml:space="preserve" width="58.6949mm" height="62mm" version="1.1" style="shape-rendering:geometricPrecision; text-rendering:geometricPrecision; image-rendering:optimizeQuality; fill-rule:evenodd; clip-rule:evenodd"
viewBox="0 0 1108.32 1170.73"
 xmlns:xlink="http://www.w3.org/1999/xlink">
 <defs>
  <style type="text/css">
   <![CDATA[
    .fil0 {fill:#FEFEFE}
    .fil1 {fill:#373435}
   ]]>
  </style>
 </defs>
 <g id="Camada_x0020_1">
  <metadata id="CorelCorpID_0Corel-Layer"/>
  <g id="_2647821358848">
   <path class="fil0" d="M854.13 1034.87c-104.4,41.94 -203.79,82.06 -295.42,133.12l-4.56 2.74 -4.56 -2.74c-91.63,-51.06 -191.02,-91.17 -295.42,-133.12 -10.03,-4.1 -20.51,-8.21 -30.55,-12.31 -76.59,-30.55 -130.84,-76.13 -166.85,-134.03 -36.01,-57.44 -53.34,-126.74 -56.53,-204.7 -1.37,-38.75 2.73,-77.96 14.59,-118.07 11.85,-40.12 31.45,-81.6 62,-124 53.79,-82.97 53.79,-175.06 -0.91,-275.35l-3.19 -5.93 5.02 -5.01 142.24 -152.27 2.73 -3.19 662.86 0 2.74 3.19 142.23 152.27 5.02 5.01 -3.19 5.93c-54.7,100.29 -54.7,192.39 -0.91,275.35 30.55,42.4 50.15,83.89 62.01,124 11.85,40.11 15.95,79.32 14.59,118.07 -3.19,77.96 -20.52,147.25 -56.53,204.7 -36.01,57.9 -90.26,103.48 -166.85,134.03 -10.03,4.1 -20.51,8.2 -30.54,12.31z"/>
   <path class="fil1" d="M554.16 1148.84c91.17,-50.6 189.65,-90.27 293.13,-131.3 10.03,-4.1 20.06,-8.2 30.55,-12.31 72.48,-29.18 123.54,-72.49 157.73,-126.74 33.74,-54.25 50.61,-120.35 53.34,-195.58 1.37,-36.47 -2.28,-73.86 -13.67,-111.69 -10.94,-38.29 -30.09,-77.96 -59.27,-118.53l0 -0.46c-56.99,-87.98 -58.35,-184.18 -3.64,-288.58l-135.4 -144.52 -645.54 0 -135.4 144.52c54.71,104.4 53.34,200.59 -3.64,288.58l0 0.46c-29.18,40.57 -48.32,80.24 -59.27,118.53 -11.4,37.83 -15.04,75.22 -13.68,111.69 2.74,75.22 19.6,141.33 53.34,195.58 34.19,54.25 85.25,97.56 157.74,126.74 10.48,4.1 20.51,8.2 30.54,12.31 103.48,41.03 201.96,80.7 293.13,131.3zm299.98 -113.97c-104.4,41.94 -203.79,82.06 -295.42,133.12l-4.56 2.74 -4.56 -2.74c-91.63,-51.06 -191.02,-91.17 -295.42,-133.12 -10.03,-4.1 -20.51,-8.21 -30.55,-12.31 -76.59,-30.55 -130.84,-76.13 -166.85,-134.03 -36.01,-57.44 -53.34,-126.74 -56.53,-204.7 -1.37,-38.75 2.73,-77.96 14.59,-118.07 11.85,-40.12 31.45,-81.6 62,-124 53.79,-82.97 53.79,-175.06 -0.91,-275.35l-3.19 -5.93 5.02 -5.01 142.24 -152.27 2.73 -3.19 662.86 0 2.74 3.19 142.23 152.27 5.02 5.01 -3.19 5.93c-54.7,100.29 -54.7,192.39 -0.91,275.35 30.55,42.4 50.15,83.89 62.01,124 11.85,40.11 15.95,79.32 14.59,118.07 -3.19,77.96 -20.52,147.25 -56.53,204.7 -36.01,57.9 -90.26,103.48 -166.85,134.03 -10.03,4.1 -20.51,8.2 -30.54,12.31z"/>
   <path class="fil1" d="M958.08 401.64c-24.62,-72.49 -18.24,-149.08 20.06,-230.23l-113.52 -121.26 -620.92 0 -113.52 121.26c38.29,81.15 44.68,157.74 20.06,230.23l807.84 0z"/>
   <path class="fil0" d="M265.58 366.08l5.47 -46.96 37.84 0 6.38 46.96 56.08 0 -45.13 -265.79 -72.03 0 -45.13 265.79 56.53 0zm25.07 -221.11l0.91 0 11.4 125.83 -25.98 0 13.68 -125.83z"/>
   <polygon class="fil0" points="486.69,362.89 597.92,362.89 597.92,314.56 540.94,314.56 540.94,248.46 595.19,248.46 595.19,199.68 540.94,199.68 540.94,145.43 597.92,145.43 597.92,97.1 486.69,97.1 "/>
   <path class="fil0" d="M709.16 305.45c0,44.22 19.14,62.46 68.39,62.46 49.69,0 68.38,-18.23 68.38,-62.46l0 -46.96 -54.25 0 0 49.24c0,7.75 -6.38,11.85 -14.13,11.85 -9.58,0 -14.14,-4.11 -14.14,-18.69l0 -141.78c0,-14.59 4.56,-18.69 14.14,-18.69 7.75,0 14.13,4.11 14.13,11.85l0 39.66 54.25 0 0 -37.38c0,-43.77 -18.69,-62.45 -68.38,-62.45 -49.24,0 -68.39,18.68 -68.39,62.45l0 150.9z"/>
   <path class="fil0" d="M418.3 366.08c14.13,0 25.99,-11.4 25.99,-25.99 0,-14.14 -11.85,-25.99 -25.99,-25.99 -14.13,0 -25.98,11.85 -25.98,25.99 0,14.59 11.85,25.99 25.98,25.99z"/>
   <path class="fil0" d="M648.07 366.08c14.14,0 25.99,-11.4 25.99,-25.99 0,-14.14 -11.85,-25.99 -25.99,-25.99 -14.59,0 -25.99,11.85 -25.99,25.99 0,14.59 11.4,25.99 25.99,25.99z"/>
   <path class="fil0" d="M884.67 366.08c14.14,0 25.53,-11.4 25.53,-25.99 0,-14.14 -11.4,-25.99 -25.53,-25.99 -14.59,0 -25.98,11.85 -25.98,25.99 0,14.59 11.4,25.99 25.98,25.99z"/>
   <path class="fil1" d="M1020.53 515.61c12.31,22.8 21.42,44.68 27.35,66.1 10.48,34.65 13.67,68.84 12.31,103.03 -2.28,62.45 -14.59,118.53 -39.66,165.03l0 -334.17zm-139.5 459.54c-4.56,2.28 -9.12,4.1 -13.68,5.93 -10.49,4.1 -20.52,8.2 -31,12.31 -27.35,11.4 -54.7,22.34 -81.61,33.28l0 -103.49c42.4,-47.41 68.39,-109.87 68.39,-178.25 0,-68.38 -25.99,-130.84 -68.39,-178.25l0 -132.66 126.29 0 0 541.14z"/>
   <path class="fil1" d="M87.78 515.61c-12.31,22.8 -21.43,44.68 -27.35,66.1 -10.48,34.65 -13.68,68.84 -12.31,103.03 2.28,62.45 14.59,118.53 39.66,165.03l0 -334.17zm139.5 459.54c4.56,2.28 9.12,4.1 13.68,5.93 10.49,4.1 20.52,8.2 31,12.31 27.36,11.4 54.71,22.34 81.61,33.28l0 -103.49c-42.4,-47.41 -68.38,-109.87 -68.38,-178.25 0,-68.38 25.98,-130.84 68.38,-178.25l0 -132.66 -126.28 0 0 541.14z"/>
   <path class="fil1" d="M554.16 1119.21c20.51,-11.4 41.49,-21.88 62.91,-32.37l0 -80.69c-20.06,5.01 -41.48,7.75 -62.91,7.75 -21.43,0 -42.85,-2.74 -62.91,-7.75l0 80.69c21.43,10.48 42.4,20.97 62.91,32.37zm62.91 -635.5l0 -49.69 -125.82 0 0 49.69c20.06,-4.56 41.49,-7.29 62.91,-7.29 21.43,0 42.85,2.73 62.91,7.29z"/>
   <path class="fil1" d="M362.69 599.04c-23.25,29.18 -39.66,63.82 -46.96,101.66 23.71,73.4 56.53,124.46 98.01,154.55 40.12,29.18 88.44,39.21 143.6,32.37 0,-0.46 0,-0.46 0,-0.46 15.5,-33.74 15.04,-75.22 -5.47,-125.82 -55.62,9.57 -99.38,-1.37 -132.21,-33.28 -28.27,-27.81 -47.41,-70.66 -56.99,-129.02zm19.15 320.03c-34.19,-34.65 -58.36,-79.32 -67.47,-129.02 21.88,40.58 48.32,71.58 78.41,93.91 40.12,29.18 86.62,42.4 138.59,41.03 -17.32,18.24 -40.58,33.74 -68.38,47.41 -30.55,-12.31 -58.36,-30.54 -81.15,-53.34zm170.5 70.66c-14.13,0 -27.81,-1.37 -41.48,-3.65 36.93,-22.79 63.36,-50.6 78.87,-84.34 20.06,-44.22 19.15,-97.1 -8.66,-160.02 15.04,-32.37 37.38,-51.06 68.38,-54.25 5.47,-0.46 11.4,-0.91 17.33,-0.46 33.28,57.44 46.96,109.41 42.4,156.37 -5.02,47.87 -29.18,91.63 -72.04,130.84 -26.44,10.03 -55.16,15.5 -84.79,15.5zm241.62 -241.62c0,-5.47 -0.45,-10.94 -0.91,-16.41 -30.54,-16.87 -57.44,-28.72 -81.15,-36.02 26.45,53.8 36.93,104.4 32.37,151.36 -2.73,24.16 -9.11,47.87 -19.6,70.21 42.85,-43.76 69.29,-103.48 69.29,-169.13zm-212.45 -239.34c-33.73,5.92 -63.82,16.41 -89.81,31 -36.93,20.05 -65.65,47.4 -88.44,81.14 -4.1,-16.41 -7.29,-34.65 -9.57,-54.25 42.4,-37.39 98.02,-59.72 158.65,-59.72 9.57,0 19.6,0.45 29.18,1.82zm141.33 69.29c30.08,29.63 52.43,67.47 63.37,110.32 -56.99,-28.72 -103.03,-40.12 -140.42,-36.01 -44.68,4.56 -75.68,29.63 -95.74,73.4 -45.59,8.66 -80.69,0.91 -105.76,-23.25 -10.03,-10.03 -18.69,-22.34 -25.99,-37.84 21.88,-40.57 51.06,-72.49 90.27,-93.91 41.48,-22.8 93.91,-34.2 161.83,-32.82 19.15,10.94 36.93,24.16 52.43,40.11z"/>
  </g>
 </g>
</svg>
