<?xml version="1.0" encoding="UTF-8"?>
<!DOCTYPE svg PUBLIC "-//W3C//DTD SVG 1.1//EN" "http://www.w3.org/Graphics/SVG/1.1/DTD/svg11.dtd">
<!-- Creator: CorelDRAW 2020 (64 Bit) -->
<svg xmlns="http://www.w3.org/2000/svg" xml:space="preserve" width="65.2491mm" height="63.5824mm" version="1.1" style="shape-rendering:geometricPrecision; text-rendering:geometricPrecision; image-rendering:optimizeQuality; fill-rule:evenodd; clip-rule:evenodd"
viewBox="0 0 9035.63 8804.83"
 xmlns:xlink="http://www.w3.org/1999/xlink"
 xmlns:xodm="http://www.corel.com/coreldraw/odm/2003">
 <defs>
  <style type="text/css">
   <![CDATA[
    .fil0 {fill:#FEFEFE}
    .fil1 {fill:#334175}
    .fil3 {fill:#FEFEFE;fill-rule:nonzero}
    .fil2 {fill:#334175;fill-rule:nonzero}
   ]]>
  </style>
 </defs>
 <g id="Camada_x0020_1">
  <metadata id="CorelCorpID_0Corel-Layer"/>
  <g id="_2560810468720">
   <path class="fil0" d="M643.94 3871.58c358.26,-559.16 563.86,-1156.45 360.16,-1809.98 -95.45,-206.18 -255.83,-375.02 -399.14,-548.22l-67.41 -81.47 75.97 -73.53c447.02,-432.72 892.87,-866.63 1339.9,-1299.35l58.04 -56.19 72.33 35.94c1621.51,805.7 3221.31,873.64 4838.4,1.74l75.12 -40.52 60.18 60.53c436.06,438.4 872.11,876.79 1308.18,1315.2l79.03 79.45 -77.88 80.59c-278.33,288.12 -473.58,620.34 -448.67,1032.08 22.09,364.92 211.54,730.08 386.33,1044.15 154.47,277.62 330.33,542.26 470.27,828.15 155.28,317.16 253.68,636.49 260.42,992.16 9.22,485.15 -120.32,943.42 -477.23,1284.43 -560.85,563.53 -1276.39,824.84 -2018.07,1056.22 -333.91,104.18 -673.66,201.81 -998.97,330.73 -286.4,113.54 -569.8,255.81 -801.75,461.59 -52.47,46.56 -102.11,96.22 -148.35,148.96l-79.42 90.58 -86.3 -84.04c-430.61,-419.4 -972.48,-656.64 -1555.51,-781.09l-2.58 -0.57 -2.58 -0.66c-1186.82,-311.48 -2454.76,-609.03 -2827.89,-1952.3l-1.16 -4.14 -0.84 -4.25c-146.47,-739.96 195.28,-1511.33 609.42,-2106.18z"/>
   <path class="fil1" d="M693.03 1440.53c440.75,-426.67 899.13,-872.72 1339.88,-1299.36 1612.63,801.25 3255.7,910.01 4943.52,-0.04 436.06,438.41 872.11,876.81 1308.18,1315.23 -768.63,795.59 -483.87,1485.56 -80.04,2211.25 305.07,548.22 702.82,1056.95 716.31,1766.88 8.49,447.33 -104.22,876.95 -443.96,1201.62 -1175.15,1180.73 -3088.82,995.17 -3972.08,2002.78 -428.99,-417.82 -975.54,-675.27 -1611.4,-810.99 -1174.99,-308.39 -2391.16,-592.11 -2746.77,-1872.33 -105.05,-530.62 39.04,-1226.48 592.32,-2020.46 425.26,-663.02 572.11,-1280.97 372.02,-1914.61 -101.48,-223.03 -264.63,-394.64 -417.99,-579.96z"/>
   <path class="fil0" d="M1034.58 1458.36c116.74,140.94 224.32,282.4 304.4,458.43l6.29 13.81 4.57 14.48c241.38,764.38 20.92,1468.93 -400.02,2125.24l-2.6 4.03 -2.73 3.95c-351.36,504.2 -674.63,1187.42 -553.9,1819.48 98.6,348.9 275.43,638.24 552.3,874.41 527.37,449.86 1349.63,639.21 2008.6,812 568.33,122.03 1098.76,343.51 1543.64,710 0.65,-0.58 1.3,-1.16 1.95,-1.74 524.72,-465.55 1277.86,-662.93 1934.16,-867.68 677.43,-211.35 1355.9,-450.61 1868.18,-965.31l2.22 -2.24 2.26 -2.17c283.31,-270.73 373.85,-634.62 366.6,-1015.79 -12.08,-636.45 -389.21,-1118.76 -684.75,-1649.88 -205.53,-369.32 -405.7,-770.28 -431.67,-1199.45 -26.14,-431.85 130.6,-801.25 387.73,-1123.11 -337.71,-339.5 -675.39,-679 -1013.07,-1018.51 -1612.89,809.6 -3229.21,752.36 -4847.17,-5.59 -349.2,338.33 -697.82,677.29 -1046.97,1015.66z"/>
   <path class="fil1" d="M7308.02 2057.13l450.26 -321.01c-144.49,255.04 -223.37,537.69 -204.23,853.79 25.96,429.17 226.14,830.13 431.67,1199.45 27.39,49.23 55.49,98.04 83.93,146.59l0 2728.31c-233.02,184.65 -490.99,327.21 -761.63,445.86l0 -5053zm-5867.33 5034.79c239.01,118.07 500.27,210.56 761.63,289.23l0 -3409.38 -761.63 493.64 0 2626.52zm1354.01 451.46c53.11,13.78 105.44,27.35 156.77,40.81 207.44,44.53 409.81,102.35 604.85,175.61l0 -4842.31 -761.62 673.48 0 3952.41zm1410.42 539.46c100.11,64.39 196.93,134.68 289.99,211.35 0.65,-0.58 1.3,-1.16 1.95,-1.74 141.98,-125.97 300.69,-232.27 469.68,-324.43l0 -4331.22 -761.62 0 0 4446.05zm1537.35 -441.44c232.27,-78.55 466.08,-147.18 688.75,-216.64 24.29,-7.57 48.58,-15.2 72.87,-22.86l0 -4907.53 -761.62 0 0 5147.03z"/>
   <polygon class="fil1" points="344.12,5149.49 6356.02,660.84 6980.17,364.62 8066.18,1436.51 7382.14,2184.04 1038.8,6942.41 703.86,6702.62 330.11,5997.42 "/>
   <path class="fil1" d="M2484.51 1025.71c535.54,0 969.67,434.13 969.67,969.64 0,535.55 -434.13,969.69 -969.67,969.69 -535.53,0 -969.66,-434.13 -969.66,-969.69 0,-535.51 434.13,-969.64 969.66,-969.64z"/>
   <path class="fil0" d="M2484.52 1087.42c501.45,0 907.95,406.51 907.95,907.94 0,501.46 -406.51,907.97 -907.95,907.97 -501.45,0 -907.95,-406.51 -907.95,-907.97 0,-501.43 406.51,-907.94 907.95,-907.94z"/>
   <path class="fil2" d="M2095.02 2816.48c122.14,-26.55 231,-66.64 327.05,-119.62 84.13,-46.45 158.61,-102.95 223.75,-169.11 -6.34,-10.93 -11.15,-22.92 -14.46,-35.78 -170.61,38.75 -343.62,37.86 -519.17,-6.44 -189.3,-47.75 -381.26,-146.15 -576.02,-299.9l39.05 -78.31c184.63,145.8 380.15,249.46 557.95,294.31 168.17,42.44 333.79,41.71 497.04,1.79 3.05,-16.27 7.74,-33.11 14.03,-50.27 -159.54,-81.85 -320.63,-186.09 -483.62,-318.53 -169.98,-138.16 -342.18,-307.06 -517.01,-513.36l65.96 -55.83c171.4,202.28 339.74,367.45 505.55,502.19 158.02,128.45 313.75,229.31 467.56,308.34 6.45,-10.25 13.43,-20.41 20.97,-30.49 15.01,-20.12 31.61,-39.01 49.24,-56.42 10.52,-10.39 21.4,-20.12 32.43,-29.19 -69.16,-204.28 -155.66,-391.55 -256.71,-564.47 -105.98,-181.34 -227.6,-346.46 -361.68,-498.46 140.28,-124.13 366.91,335.87 436.44,454.83 100.19,171.46 186.57,356.99 256.56,559.15 13.24,-6.65 26.48,-12.23 39.49,-16.62 17.7,-6 35.2,-9.9 52.14,-11.54 34.18,-173.13 36.85,-334.41 7.95,-486.37 -30.7,-161.47 -108.32,-327.36 -210.85,-472.57l85.52 -30.26c109.62,155.23 177.14,312.84 210.25,486.91 30.88,162.39 28.35,333.79 -7.55,516.73 18.68,9.68 33.75,23.31 45.19,40.02 55.28,-39.13 105.84,-81.67 151.43,-127.66 57.09,-57.62 106.31,-120.6 147.11,-189.16 123.02,73.02 12.24,151.01 -85.88,250.07 -55.83,56.36 -118.57,107.79 -187.82,154.54 0.11,27.04 -5.03,56.44 -15.29,86.7 -2.58,7.57 -5.48,15.27 -8.71,23l238.28 74.65 -25.72 82.53 -255.08 -79.9c-3.59,5.23 -7.28,10.44 -11.15,15.59 -42.18,56.53 -94.75,101.48 -147.02,129.64 5.18,93.15 -11.26,196 -27.93,300.54l-4.06 25.4 -85.26 -13.53 4.04 -25.41c14.32,-89.71 28.43,-178.06 27.79,-256.05 -30.01,5.21 -58.65,3.78 -84.11,-5.17 -72.23,74.43 -155.12,137.76 -249.01,189.61 -116.28,64.19 -334.75,200.99 -368.66,43.86zm915.69 -630.49c-3.39,-4.97 -8.02,-9.07 -13.82,-12.01 -2.35,-1.27 -4.82,-2.27 -7.26,-3.02 -2.42,-0.75 -5.18,-1.34 -8.18,-1.83l-3.56 -0.4c-14.78,-1.54 -32.09,1.14 -50.72,7.44 -21.34,7.21 -43.9,19.01 -66.22,34.68l-2.08 1.48c-15.51,10.98 -30.81,23.87 -45.43,38.29 -14,13.81 -27.61,29.4 -40.45,46.58 -31.85,42.68 -51.42,85.79 -58.15,122.98 -5.68,31.34 -2.38,56.8 10.37,70.93l2.3 2.19c1.99,1.69 3.09,2.58 5.28,4.06l3.2 1.73c22.54,11.47 57.61,5.61 95.99,-13.14l0.06 0.14c44.34,-21.7 90.48,-60.17 127.84,-110.26 23.22,-31.09 39.91,-62.56 49.87,-91.88 9.57,-28.18 12.85,-53.7 9.68,-74.04l-0.18 -0.98c-1.55,-9.08 -4.4,-16.88 -8.53,-22.93z"/>
   <g>
    <path class="fil3" d="M2071.11 5753.32l-402.6 -1169.94 283.83 -213.06 1011.23 713.04 -278 208.69 -124.84 -99.18 -278.01 208.7 60.99 147.11 -272.6 204.64zm-51.36 -991.39l169.47 407.5 177.72 -133.41 -347.19 -274.09zm248.18 417.67l246.17 -184.79 -246.17 184.79zm1524.74 -718.64l-706.82 -941.57 661.49 -496.56 174.41 232.35 -386.47 290.14 113.37 151.03 309.03 -231.97 169.61 225.93 -309.03 231.97 249.4 332.24 -274.99 206.44zm1855.34 -2301.83l-263.98 198.16c-40.02,-43.72 -82.69,-68.84 -128.09,-75.97 -45.23,-6.91 -87.46,4.36 -126.89,33.96 -49.23,36.97 -73.5,88.43 -72.77,154.02 0.69,65.96 36.84,146.21 108.33,241.44 49.05,65.36 92.89,110.01 131.87,134.41 39.04,24.07 76.58,35.71 112.65,34.58 36.07,-1.11 71.82,-14.76 107.06,-41.21 43.03,-32.31 67.44,-71.05 73.24,-116.29 5.64,-45.42 -8.47,-95.45 -42.43,-150.29l268.58 -201.65c37.94,62.63 64.24,119.76 78.96,171.04 14.55,51.07 18.87,110.19 13.17,176.78 -6.05,66.55 -25.41,129.55 -58.56,188.39 -32.97,59.01 -82.06,112.85 -146.91,161.55 -64.85,48.68 -132.88,83.1 -203.85,102.78 -70.97,19.69 -139.81,24.28 -206.29,13.24 -66.54,-10.66 -129.34,-33.48 -188.43,-68.42 -82.69,-48.07 -156.36,-115.33 -221.04,-201.5 -54.87,-73.1 -95.12,-149.21 -121.07,-228.42 -25.95,-79.57 -36.27,-154.57 -30.73,-225.57 5.33,-70.85 22.67,-134.44 52.23,-190.55 37.78,-70.97 92.1,-132.87 162.74,-185.91 61.44,-46.13 126.74,-79.21 195.89,-99.61 69.16,-20.05 136.03,-23.49 200.12,-10.66 64.06,13.22 124.59,38.41 181.26,75.54 40.66,26.24 82.08,63.06 124.95,110.19z"/>
   </g>
   <path class="fil0" d="M3319.08 4557.16c77.89,0 141.04,63.16 141.04,141.04 0,77.89 -63.15,141.04 -141.04,141.04 -77.89,0 -141.04,-63.15 -141.04,-141.04 0,-77.88 63.15,-141.04 141.04,-141.04z"/>
   <path class="fil0" d="M4750.65 3379.5c77.89,0 141.04,63.15 141.04,141.04 0,77.88 -63.15,141.04 -141.04,141.04 -77.88,0 -141.03,-63.16 -141.03,-141.04 0,-77.89 63.15,-141.04 141.03,-141.04z"/>
   <path class="fil0" d="M6436.12 2127.74c77.88,0 141.03,63.15 141.03,141.04 0,77.88 -63.15,141.03 -141.03,141.03 -77.89,0 -141.04,-63.15 -141.04,-141.03 0,-77.89 63.15,-141.04 141.04,-141.04z"/>
  </g>
 </g>
</svg>
