<?xml version="1.0" encoding="UTF-8"?>
<!DOCTYPE svg PUBLIC "-//W3C//DTD SVG 1.1//EN" "http://www.w3.org/Graphics/SVG/1.1/DTD/svg11.dtd">
<!-- Creator: CorelDRAW 2020 (64 Bit) -->
<svg xmlns="http://www.w3.org/2000/svg" xml:space="preserve" width="200mm" height="200mm" version="1.1" style="shape-rendering:geometricPrecision; text-rendering:geometricPrecision; image-rendering:optimizeQuality; fill-rule:evenodd; clip-rule:evenodd"
viewBox="0 0 847.13 847.13"
 xmlns:xlink="http://www.w3.org/1999/xlink"
 xmlns:xodm="http://www.corel.com/coreldraw/odm/2003">
 <defs>
  <style type="text/css">
   <![CDATA[
    .fil2 {fill:none}
    .fil0 {fill:#344996;fill-rule:nonzero}
    .fil1 {fill:#FEFEFE;fill-rule:nonzero}
   ]]>
  </style>
 </defs>
 <g id="Camada_x0020_1">
  <metadata id="CorelCorpID_0Corel-Layer"/>
  <g id="_2346705454560">
   <g id="_2647825499008">
    <polygon class="fil0" points="423.56,171.87 -0,423.51 423.56,675.26 847.13,423.51 "/>
    <polygon class="fil1" points="423.56,647.83 46.26,423.51 423.56,199.3 800.87,423.51 "/>
    <path class="fil0" d="M436.8 231.69l0 383.76 30.88 -18.29 0 -151.48 100.92 0 0 91.45 30.88 -18.29 0 -190.53 -162.67 -96.61 0 0zm131.79 183.22l0 0 -100.92 0 0 -130.72 100.92 59.93 0 70.79 0 -0z"/>
    <path class="fil0" d="M247.66 518.83l30.88 18.29 0 -91.45 100.92 0 0 151.48 30.88 18.29 0 -383.76 -162.67 96.61 0 190.53 0 -0zm30.88 -174.72l0 0 100.92 -59.93 0 130.72 -100.92 0 0 -70.79 0 0z"/>
   </g>
  </g>
  <rect class="fil2" x="-0" y="0" width="847.13" height="847.13"/>
 </g>
</svg>
