<?xml version="1.0" encoding="UTF-8"?>
<!DOCTYPE svg PUBLIC "-//W3C//DTD SVG 1.1//EN" "http://www.w3.org/Graphics/SVG/1.1/DTD/svg11.dtd">
<!-- Creator: CorelDRAW 2020 (64 Bit) -->
<svg xmlns="http://www.w3.org/2000/svg" xml:space="preserve" width="196.828mm" height="196.359mm" version="1.1" style="shape-rendering:geometricPrecision; text-rendering:geometricPrecision; image-rendering:optimizeQuality; fill-rule:evenodd; clip-rule:evenodd"
viewBox="0 0 1154.51 1151.76"
 xmlns:xlink="http://www.w3.org/1999/xlink"
 xmlns:xodm="http://www.corel.com/coreldraw/odm/2003">
 <defs>
  <style type="text/css">
   <![CDATA[
    .str0 {stroke:black;stroke-width:2.07;stroke-miterlimit:22.9256}
    .str1 {stroke:white;stroke-width:2.07;stroke-miterlimit:22.9256}
    .fil0 {fill:black;fill-rule:nonzero}
    .fil2 {fill:red;fill-rule:nonzero}
    .fil1 {fill:white;fill-rule:nonzero}
   ]]>
  </style>
 </defs>
 <g id="Camada_x0020_1">
  <metadata id="CorelCorpID_0Corel-Layer"/>
  <g id="_2346853539216">
   <g>
    <path class="fil0" d="M1139.1 714.39c7.88,-31.9 13.1,-64.84 15.41,-98.58l-42.64 -12.88c0.45,-8.96 0.68,-17.98 0.68,-27.06 0,-9.68 -0.27,-19.3 -0.78,-28.85l42.62 -13.03c-2.42,-33.73 -7.76,-66.65 -15.75,-98.52l-44.58 0.93c-4.9,-18.1 -10.71,-35.82 -17.42,-53.11l36.48 -25.55c-12.7,-31.03 -28.03,-60.7 -45.72,-88.75l-42.1 14.65c-10.2,-15.53 -21.18,-30.51 -32.91,-44.86l26.77 -35.53c-21.59,-25.45 -45.34,-49.02 -70.98,-70.41l-35.48 26.92c-14.38,-11.55 -29.36,-22.39 -44.91,-32.43l14.48 -42.05c-28.23,-17.51 -58.08,-32.66 -89.29,-45.17l-25.41 36.55c-17.13,-6.5 -34.68,-12.16 -52.61,-16.91l0.78 -44.45c-32.03,-7.85 -65.1,-13.04 -98.97,-15.32l-12.85 42.55c-8.84,-0.43 -17.72,-0.66 -26.67,-0.66 -9.55,0 -19.03,0.26 -28.46,0.75l-13 -42.52c-33.86,2.39 -66.91,7.7 -98.91,15.65l0.92 44.46c-17.91,4.81 -35.44,10.51 -52.55,17.08l-25.53 -36.46c-31.16,12.62 -60.96,27.87 -89.14,45.47l14.62 42.01c-15.51,10.09 -30.47,20.97 -44.81,32.57l-35.56 -26.8c-25.57,21.47 -49.25,45.11 -70.75,70.63l26.9 35.45c-11.68,14.39 -22.62,29.4 -32.77,44.96l-42.14 -14.51c-17.59,28.11 -32.82,57.83 -45.42,88.9l36.58 25.43c-6.64,17.31 -12.41,35.05 -17.25,53.16l-44.57 -0.78c-7.88,31.9 -13.1,64.84 -15.41,98.58l42.64 12.88c-0.45,8.96 -0.68,17.99 -0.68,27.06 0,9.68 0.27,19.29 0.78,28.84l-42.62 13.03c2.42,33.73 7.76,66.64 15.75,98.52l44.58 -0.93c4.9,18.1 10.71,35.82 17.42,53.11l-36.48 25.55c12.7,31.03 28.03,60.7 45.72,88.75l42.1 -14.65c10.2,15.53 21.19,30.51 32.91,44.86l-26.77 35.53c21.59,25.45 45.33,49.02 70.98,70.41l35.48 -26.92c14.38,11.55 29.36,22.39 44.91,32.43l-14.48 42.05c28.23,17.51 58.08,32.66 89.29,45.17l25.41 -36.55c17.13,6.5 34.69,12.16 52.61,16.91l-0.77 44.45c32.03,7.85 65.1,13.04 98.97,15.32l12.85 -42.55c8.84,0.43 17.72,0.66 26.67,0.66 9.55,0 19.03,-0.26 28.46,-0.75l13 42.52c33.86,-2.39 66.91,-7.7 98.91,-15.65l-0.93 -44.46c17.91,-4.81 35.45,-10.51 52.56,-17.08l25.53 36.46c31.16,-12.62 60.96,-27.87 89.14,-45.47l-14.62 -42.01c15.52,-10.1 30.47,-20.97 44.81,-32.57l35.56 26.8c25.57,-21.47 49.25,-45.11 70.75,-70.63l-26.9 -35.45c11.68,-14.39 22.62,-29.4 32.77,-44.97l42.14 14.51c17.59,-28.11 32.82,-57.83 45.42,-88.9l-36.58 -25.43c6.64,-17.31 12.41,-35.04 17.25,-53.16l44.57 0.78z"/>
    <path class="fil1 str0" d="M79.37 575.88c0,-274.3 222.91,-496.66 497.88,-496.66 274.97,0 497.88,222.36 497.88,496.66 0,274.3 -222.91,496.66 -497.88,496.66 -274.97,0 -497.88,-222.36 -497.88,-496.66z"/>
    <path class="fil2 str1" d="M188.97 575.88c0,-213.92 173.84,-387.33 388.28,-387.33 214.44,0 388.28,173.42 388.28,387.33 0,213.92 -173.84,387.33 -388.28,387.33 -214.44,0 -388.28,-173.42 -388.28,-387.33z"/>
    <g>
     <path class="fil0" d="M193.18 766.23l10.64 20.66 6.96 -0.48c2.31,-0.17 4.09,-0.57 5.32,-1.21 1.64,-0.84 2.51,-2.13 2.6,-3.85 0.06,-1.01 -0.58,-3.1 -1.92,-6.27l1.6 -0.82 10.02 19.45 -1.6 0.82c-1.4,-1.94 -3.16,-3.21 -5.28,-3.83 -2.12,-0.62 -5.92,-0.77 -11.4,-0.46l-57.44 3.12 -0.42 -0.82 37.1 -45.79c3.51,-4.35 5.52,-7.48 6.03,-9.38 0.39,-1.43 0.2,-3.08 -0.58,-4.94l1.6 -0.82 14.57 28.29 -1.6 0.82 -0.6 -1.16c-1.17,-2.27 -2.31,-3.7 -3.41,-4.3 -0.79,-0.39 -1.61,-0.37 -2.47,0.07 -0.52,0.27 -1,0.63 -1.46,1.08 -0.23,0.19 -1.09,1.18 -2.57,2.96l-5.69 6.86zm-2.43 3.11l0 0 -15.65 19.09 24.76 -1.4 -9.11 -17.68z"/>
     <path class="fil0" d="M150.74 656.93l22.96 -3.47 14.82 56.49 -1.74 0.45 -0.55 -2.11c-0.49,-1.84 -1.2,-3.24 -2.16,-4.2 -0.65,-0.7 -1.56,-1.13 -2.74,-1.29 -0.84,-0.15 -2.86,0.2 -6.05,1.04l-41.85 10.98c-3.25,0.85 -5.24,1.56 -5.97,2.12 -0.72,0.56 -1.25,1.44 -1.59,2.65 -0.33,1.21 -0.27,2.7 0.2,4.49l0.55 2.11 -1.74 0.45 -8.9 -33.92 1.74 -0.45 0.73 2.77c0.49,1.85 1.2,3.25 2.15,4.2 0.65,0.7 1.57,1.14 2.76,1.33 0.84,0.15 2.86,-0.2 6.05,-1.03l40.54 -10.63c3.25,-0.85 5.28,-1.58 6.07,-2.19 0.79,-0.61 1.27,-1.52 1.42,-2.73 0.08,-0.86 -0.28,-2.79 -1.07,-5.79l-1.39 -5.3c-0.89,-3.38 -2.22,-6.04 -4,-7.98 -1.78,-1.94 -4.17,-3.4 -7.16,-4.37 -2.99,-0.97 -7.19,-1.53 -12.58,-1.69l-0.5 -1.92z"/>
     <path class="fil0" d="M148.66 587.31l0.9 23.2 6.5 2.51c2.17,0.82 3.95,1.2 5.33,1.15 1.84,-0.07 3.17,-0.87 3.98,-2.39 0.48,-0.89 0.79,-3.05 0.91,-6.49l1.79 -0.07 0.85 21.84 -1.79 0.07c-0.45,-2.34 -1.5,-4.24 -3.16,-5.69 -1.66,-1.45 -5.03,-3.2 -10.12,-5.23l-53.32 -21.45 -0.04 -0.92 52.94 -25.78c5.02,-2.46 8.16,-4.44 9.42,-5.95 0.96,-1.14 1.48,-2.71 1.56,-4.72l1.79 -0.07 1.23 31.77 -1.79 0.07 -0.05 -1.31c-0.1,-2.55 -0.52,-4.33 -1.27,-5.33 -0.55,-0.69 -1.3,-1.01 -2.27,-0.98 -0.58,0.02 -1.17,0.14 -1.78,0.36 -0.29,0.08 -1.48,0.61 -3.57,1.59l-8.05 3.81zm-3.52 1.79l0 0 -22.24 10.66 23.01 9.2 -0.77 -19.86z"/>
     <path class="fil0" d="M114.27 456.05l22.76 4.39 -0.34 1.76c-6.63,0.93 -11.98,3.2 -16.04,6.83 -4.06,3.63 -6.57,7.97 -7.55,13.01 -0.93,4.83 -0.35,9.1 1.75,12.83 2.1,3.73 5.44,6.73 10.04,9 4.6,2.27 9.46,3.9 14.57,4.88 6.19,1.2 11.76,1.51 16.71,0.95 4.95,-0.56 8.83,-2.26 11.65,-5.09 2.82,-2.83 4.66,-6.48 5.52,-10.96 0.3,-1.56 0.44,-3.18 0.42,-4.88 -0.02,-1.7 -0.18,-3.47 -0.48,-5.3l-13.43 -2.59c-2.54,-0.49 -4.22,-0.63 -5.03,-0.43 -0.81,0.21 -1.63,0.8 -2.44,1.78 -0.81,0.98 -1.37,2.24 -1.67,3.8l-0.32 1.67 -1.76 -0.34 6.05 -31.38 1.76 0.34c-0.3,2.41 -0.3,4.13 0.02,5.17 0.31,1.03 0.99,1.91 2.03,2.64 0.55,0.4 2,0.83 4.35,1.28l13.43 2.59c1.04,4.48 1.6,9.04 1.68,13.68 0.08,4.64 -0.35,9.36 -1.27,14.15 -1.18,6.13 -3,11.05 -5.44,14.78 -2.45,3.73 -5.32,6.88 -8.64,9.45 -3.31,2.57 -6.83,4.4 -10.57,5.49 -4.81,1.38 -9.93,1.54 -15.36,0.49 -9.71,-1.87 -17.26,-6.87 -22.64,-14.98 -5.38,-8.12 -7.07,-17.35 -5.08,-27.7 0.62,-3.2 1.43,-6.05 2.43,-8.52 0.52,-1.35 1.68,-3.47 3.48,-6.37 1.8,-2.9 2.75,-4.63 2.86,-5.2 0.17,-0.89 0.01,-1.78 -0.5,-2.67 -0.5,-0.89 -1.6,-1.82 -3.29,-2.81l0.34 -1.76z"/>
     <path class="fil0" d="M143.53 378.3c4.01,-9.68 10.34,-16.14 18.98,-19.39 8.64,-3.24 17.39,-2.82 26.27,1.25 7.58,3.48 13.23,8.76 16.96,15.84 4.94,9.38 4.95,19.44 0.03,30.16 -4.93,10.75 -12.39,17.4 -22.38,19.93 -7.89,2 -15.78,1.19 -23.69,-2.44 -8.88,-4.07 -14.89,-10.48 -18.04,-19.24 -3.15,-8.75 -2.53,-17.46 1.87,-26.11zm3.06 0.77l0 0c-2.51,5.47 -1.62,10.9 2.65,16.31 3.52,4.43 9.57,8.61 18.15,12.54 10.2,4.68 18.56,6.34 25.08,5 4.56,-0.93 7.86,-3.65 9.93,-8.15 1.39,-3.03 1.81,-5.89 1.27,-8.59 -0.7,-3.45 -2.78,-6.84 -6.25,-10.17 -3.47,-3.33 -8.52,-6.52 -15.16,-9.57 -7.91,-3.63 -14.16,-5.61 -18.75,-5.93 -4.6,-0.33 -8.22,0.27 -10.89,1.81 -2.66,1.54 -4.67,3.79 -6.03,6.76z"/>
     <path class="fil0" d="M251.67 323.75l1.46 1.04 -20 27.98 -1.46 -1.04 1.27 -1.78c1.11,-1.55 1.73,-3 1.85,-4.34 0.12,-0.95 -0.14,-1.92 -0.77,-2.93 -0.42,-0.74 -1.98,-2.07 -4.66,-3.99l-35.21 -25.17c-2.74,-1.96 -4.55,-3.03 -5.44,-3.23 -0.89,-0.2 -1.91,-0.04 -3.05,0.47 -1.14,0.51 -2.25,1.52 -3.32,3.02l-1.27 1.78 -1.46 -1.04 20 -27.98 1.46 1.04 -1.27 1.77c-1.11,1.55 -1.73,3 -1.85,4.34 -0.12,0.95 0.13,1.94 0.74,2.98 0.42,0.74 1.98,2.07 4.66,3.99l35.21 25.17c2.74,1.96 4.55,3.03 5.46,3.21 0.9,0.19 1.92,0.02 3.07,-0.49 1.14,-0.51 2.25,-1.52 3.32,-3.02l1.27 -1.77z"/>
     <path class="fil0" d="M238.49 242.28l51.71 6.82 -19.65 -20.36c-2.74,-2.84 -5,-4.37 -6.78,-4.58 -2.42,-0.27 -4.92,0.89 -7.51,3.47l-1.25 -1.29 15.64 -15.1 1.25 1.29c-1.76,2.19 -2.78,3.82 -3.07,4.89 -0.29,1.07 -0.19,2.25 0.32,3.54 0.5,1.29 1.83,3.05 3.99,5.29l38.05 39.43 -1.19 1.15 -70.08 -8.52 29.06 30.1c2.63,2.72 5.03,3.96 7.19,3.71 2.17,-0.25 4.05,-1.15 5.66,-2.7l1.12 -1.08 1.25 1.29 -16.8 16.21 -1.25 -1.29c2.58,-2.54 3.88,-4.83 3.9,-6.86 0.01,-2.03 -1.19,-4.31 -3.62,-6.82l-32.26 -33.42 -2.22 -0.28c-2.21,-0.29 -3.9,-0.26 -5.05,0.08 -1.15,0.35 -2.47,1.19 -3.96,2.54l-1.25 -1.29 16.8 -16.21z"/>
     <path class="fil0" d="M340.91 203.45l10.44 17.48c1.72,2.89 2.96,4.6 3.71,5.13 0.75,0.53 1.75,0.79 3,0.78 1.25,-0.01 2.67,-0.5 4.25,-1.44l1.87 -1.12 0.92 1.54 -29.5 17.62 -0.92 -1.54 1.87 -1.12c1.64,-0.98 2.78,-2.05 3.43,-3.23 0.49,-0.82 0.64,-1.81 0.47,-2.99 -0.09,-0.85 -0.98,-2.69 -2.67,-5.52l-22.17 -37.12c-1.72,-2.89 -2.95,-4.6 -3.69,-5.14 -0.73,-0.54 -1.73,-0.8 -2.98,-0.79 -1.25,0.01 -2.67,0.49 -4.25,1.44l-1.87 1.12 -0.92 -1.54 29.5 -17.62 0.92 1.54 -1.87 1.12c-1.64,0.98 -2.78,2.06 -3.43,3.24 -0.49,0.82 -0.66,1.83 -0.51,3.02 0.09,0.85 0.99,2.69 2.68,5.52l9.54 15.98 19.93 -11.9 -9.54 -15.98c-1.72,-2.89 -2.95,-4.6 -3.69,-5.14 -0.74,-0.54 -1.74,-0.8 -3,-0.78 -1.27,0.02 -2.69,0.51 -4.27,1.45l-1.83 1.09 -0.92 -1.54 29.46 -17.59 0.92 1.54 -1.83 1.09c-1.67,0.99 -2.81,2.07 -3.43,3.23 -0.49,0.82 -0.66,1.83 -0.51,3.02 0.09,0.85 0.98,2.69 2.67,5.52l22.17 37.12c1.72,2.89 2.95,4.6 3.69,5.14 0.74,0.54 1.74,0.8 3,0.78 1.27,-0.02 2.69,-0.51 4.27,-1.45l1.83 -1.09 0.92 1.54 -29.46 17.59 -0.92 -1.54 1.83 -1.09c1.66,-0.99 2.81,-2.07 3.43,-3.23 0.49,-0.82 0.66,-1.82 0.51,-3.02 -0.09,-0.85 -0.98,-2.69 -2.67,-5.52l-10.44 -17.48 -19.93 11.9z"/>
     <path class="fil0" d="M452.35 166.56l-22.14 7.03 -0.7 6.94c-0.22,2.31 -0.12,4.12 0.3,5.45 0.56,1.76 1.68,2.83 3.36,3.21 0.99,0.23 3.15,-0.05 6.5,-0.84l0.54 1.71 -20.85 6.62 -0.54 -1.71c2.14,-1.05 3.7,-2.57 4.66,-4.56 0.96,-1.98 1.75,-5.7 2.36,-11.15l6.54 -57.13 0.88 -0.28 38.92 44.23c3.7,4.19 6.45,6.69 8.24,7.51 1.35,0.62 3,0.71 4.96,0.26l0.54 1.71 -30.32 9.62 -0.54 -1.71 1.25 -0.4c2.43,-0.77 4.04,-1.66 4.81,-2.65 0.52,-0.71 0.63,-1.52 0.34,-2.45 -0.18,-0.55 -0.45,-1.1 -0.82,-1.62 -0.15,-0.26 -0.98,-1.27 -2.49,-3.03l-5.81 -6.76zm-2.66 -2.92l0 0 -16.19 -18.62 -2.76 24.64 18.95 -6.02z"/>
     <path class="fil0" d="M546.27 100.21l2.8 21.75 -1.98 0.21c-1.5,-5.37 -4.25,-9.53 -8.25,-12.48 -4,-2.95 -8.12,-4.2 -12.36,-3.76 -3.28,0.34 -5.79,1.49 -7.52,3.44 -1.73,1.95 -2.48,4.07 -2.24,6.35 0.15,1.45 0.62,2.7 1.41,3.75 1.09,1.42 2.74,2.76 4.95,4.02 1.62,0.91 5.31,2.42 11.06,4.56 8.05,2.97 13.58,5.99 16.6,9.05 2.98,3.07 4.7,6.76 5.15,11.07 0.57,5.47 -1.08,10.39 -4.93,14.78 -3.85,4.38 -9.06,6.91 -15.62,7.6 -2.06,0.21 -4.03,0.21 -5.9,-0.02 -1.88,-0.23 -4.26,-0.78 -7.14,-1.65 -1.61,-0.48 -2.92,-0.67 -3.91,-0.57 -0.84,0.09 -1.69,0.5 -2.55,1.24 -0.87,0.74 -1.52,1.8 -1.96,3.18l-1.78 0.19 -2.57 -24.7 1.78 -0.19c2.14,6.8 5.41,11.82 9.83,15.05 4.42,3.23 8.96,4.61 13.62,4.12 3.6,-0.37 6.37,-1.65 8.31,-3.84 1.94,-2.18 2.77,-4.58 2.5,-7.19 -0.16,-1.54 -0.73,-3 -1.7,-4.36 -0.97,-1.36 -2.36,-2.61 -4.17,-3.74 -1.81,-1.13 -4.95,-2.52 -9.41,-4.17 -6.25,-2.31 -10.79,-4.36 -13.61,-6.14 -2.82,-1.79 -5.06,-3.88 -6.72,-6.27 -1.66,-2.39 -2.65,-5.12 -2.97,-8.18 -0.54,-5.21 0.91,-9.85 4.36,-13.91 3.45,-4.07 8.08,-6.4 13.9,-7.01 2.12,-0.22 4.21,-0.18 6.26,0.13 1.55,0.23 3.47,0.75 5.75,1.57 2.28,0.82 3.85,1.18 4.72,1.09 0.84,-0.09 1.47,-0.41 1.9,-0.98 0.43,-0.57 0.75,-1.85 0.97,-3.86l1.45 -0.15z"/>
     <path class="fil0" d="M788.21 203.41l-20.36 -11.16 -5.5 4.28c-1.82,1.44 -3.06,2.76 -3.73,3.98 -0.89,1.61 -0.89,3.16 -0,4.64 0.52,0.87 2.21,2.25 5.1,4.12l-0.86 1.57 -19.17 -10.51 0.86 -1.57c2.24,0.82 4.41,0.9 6.51,0.22 2.1,-0.67 5.33,-2.67 9.69,-5.99l45.82 -34.68 0.81 0.44 -5.13 58.65c-0.47,5.56 -0.39,9.28 0.25,11.14 0.48,1.41 1.56,2.66 3.24,3.77l-0.86 1.57 -27.88 -15.29 0.86 -1.57 1.15 0.63c2.24,1.23 3.98,1.78 5.23,1.65 0.87,-0.11 1.54,-0.59 2.01,-1.44 0.28,-0.51 0.48,-1.08 0.61,-1.71 0.08,-0.29 0.24,-1.58 0.47,-3.89l0.88 -8.86zm0.28 -3.94l0 0 2.3 -24.56 -19.72 15 17.42 9.55z"/>
     <path class="fil0" d="M906.48 231.95l-11.46 13.6 -1.33 -1.12c1.85,-3.8 2.88,-6.8 3.07,-8.98 0.19,-2.18 -0.21,-4.39 -1.2,-6.62 -0.57,-1.23 -2.02,-2.84 -4.37,-4.82l-3.74 -3.15 -32.66 38.77c-2.16,2.57 -3.37,4.3 -3.63,5.18 -0.26,0.88 -0.18,1.91 0.25,3.09 0.42,1.18 1.35,2.37 2.78,3.58l1.67 1.4 -1.16 1.37 -26.32 -22.16 1.16 -1.37 1.67 1.4c1.46,1.23 2.85,1.96 4.18,2.19 0.93,0.19 1.94,0.03 3.02,-0.5 0.77,-0.37 2.22,-1.81 4.34,-4.33l32.66 -38.77 -3.63 -3.06c-3.39,-2.85 -6.45,-4.21 -9.19,-4.06 -3.84,0.19 -7.6,1.9 -11.29,5.13l-1.41 -1.19 11.46 -13.6 45.15 38.02z"/>
     <path class="fil0" d="M937.59 334.28l-19.73 12.24 -35.89 -46.07 1.42 -1.1 1.34 1.72c1.17,1.5 2.38,2.51 3.63,3.01 0.87,0.38 1.88,0.41 3.03,0.1 0.83,-0.2 2.55,-1.31 5.15,-3.34l34.13 -26.59c2.65,-2.07 4.2,-3.5 4.65,-4.3 0.44,-0.8 0.58,-1.82 0.41,-3.06 -0.17,-1.24 -0.82,-2.59 -1.95,-4.05l-1.34 -1.72 1.41 -1.1 21.55 27.67 -1.41 1.1 -1.76 -2.26c-1.17,-1.5 -2.38,-2.51 -3.64,-3.01 -0.87,-0.38 -1.89,-0.43 -3.06,-0.14 -0.83,0.2 -2.55,1.31 -5.15,3.33l-33.06 25.76c-2.66,2.07 -4.23,3.54 -4.71,4.41 -0.49,0.87 -0.56,1.89 -0.22,3.07 0.27,0.82 1.35,2.45 3.26,4.9l3.37 4.32c2.15,2.75 4.42,4.67 6.82,5.76 2.4,1.08 5.17,1.48 8.31,1.19 3.13,-0.29 7.21,-1.42 12.23,-3.4l1.22 1.57z"/>
     <path class="fil0" d="M999.74 365.66l-24.09 11.67 0.57 1.18c1.82,3.75 4.31,5.9 7.49,6.45 3.17,0.54 7.17,-0.06 11.99,-1.82l0.8 1.66 -30.98 15.01 -0.8 -1.66c3.2,-1.98 5.61,-4.06 7.22,-6.22 1.61,-2.16 2.43,-4.17 2.45,-6.01 0.02,-1.84 -0.65,-4.18 -2.01,-7l-16.67 8.07c-3.26,1.58 -5.19,2.68 -5.78,3.31 -0.59,0.63 -0.94,1.43 -1.04,2.41 -0.1,0.98 0.26,2.31 1.08,4l1.71 3.53c2.68,5.53 6.1,9.34 10.28,11.43 4.17,2.09 9.23,2.59 15.17,1.51l0.78 1.61 -20.1 6.45 -24.77 -51.14 1.61 -0.78 0.95 1.96c0.83,1.72 1.8,2.95 2.92,3.7 0.77,0.56 1.75,0.8 2.94,0.73 0.85,-0.02 2.76,-0.75 5.73,-2.18l38.92 -18.86c2.68,-1.3 4.28,-2.16 4.83,-2.61 0.88,-0.78 1.4,-1.7 1.58,-2.76 0.28,-1.5 -0.05,-3.21 -0.98,-5.13l-0.95 -1.96 1.61 -0.78 23.99 49.53 -17.5 8.48 -0.8 -1.66c3.87,-2.92 6.36,-5.59 7.48,-8.02 1.12,-2.43 1.44,-5.25 0.96,-8.47 -0.26,-1.88 -1.48,-5.06 -3.65,-9.54l-2.96 -6.11zm32.69 7.22l0 0 -22.14 -7.11 -1.82 -3.75 17.59 -2.27 6.36 13.13z"/>
     <path class="fil0" d="M1046.55 492.12l-17.29 4.21 -0.41 -1.7c3.74,-1.98 6.34,-3.79 7.78,-5.44 1.44,-1.65 2.42,-3.67 2.94,-6.06 0.27,-1.33 0.05,-3.49 -0.68,-6.47l-1.16 -4.76 -49.27 12c-3.27,0.79 -5.27,1.47 -5.99,2.03 -0.73,0.56 -1.27,1.44 -1.63,2.64 -0.36,1.2 -0.31,2.71 0.13,4.53l0.52 2.12 -1.74 0.42 -8.14 -33.45 1.74 -0.42 0.51 2.12c0.45,1.85 1.15,3.27 2.08,4.23 0.64,0.71 1.55,1.17 2.73,1.38 0.84,0.16 2.86,-0.15 6.06,-0.93l49.27 -12 -1.12 -4.62c-1.05,-4.3 -2.72,-7.21 -5.02,-8.71 -3.21,-2.11 -7.26,-2.96 -12.14,-2.53l-0.44 -1.79 17.29 -4.21 13.97 57.38z"/>
     <path class="fil0" d="M989.32 567.35l-1.79 0.11 -2.11 -34.34 1.79 -0.11 0.13 2.18c0.12,1.9 0.55,3.42 1.3,4.54 0.5,0.81 1.32,1.41 2.45,1.8 0.8,0.31 2.84,0.36 6.13,0.16l43.2 -2.66c3.36,-0.21 5.45,-0.52 6.26,-0.92 0.82,-0.41 1.51,-1.17 2.07,-2.29 0.56,-1.12 0.79,-2.6 0.67,-4.44l-0.13 -2.18 1.79 -0.11 2.11 34.34 -1.79 0.11 -0.14 -2.18c-0.12,-1.91 -0.55,-3.42 -1.3,-4.54 -0.5,-0.81 -1.32,-1.43 -2.45,-1.84 -0.8,-0.31 -2.84,-0.36 -6.13,-0.16l-43.2 2.66c-3.36,0.21 -5.45,0.52 -6.26,0.94 -0.82,0.42 -1.51,1.19 -2.07,2.32 -0.56,1.12 -0.79,2.6 -0.68,4.44l0.13 2.18z"/>
     <path class="fil0" d="M1047.39 663.57l-22.62 -2.73 0.23 -1.88c6.07,-0.7 10.91,-2.78 14.52,-6.25 3.61,-3.47 5.71,-7.64 6.3,-12.52 0.49,-4.07 -0.23,-7.95 -2.16,-11.64 -1.93,-3.69 -4.69,-6.54 -8.29,-8.57 -4.6,-2.61 -9.87,-4.27 -15.8,-4.99 -5.84,-0.71 -11.25,-0.61 -16.22,0.29 -4.97,0.9 -8.88,2.77 -11.71,5.62 -2.84,2.84 -4.55,6.77 -5.16,11.78 -0.5,4.11 -0.05,7.98 1.33,11.61 1.38,3.63 4.04,7.61 7.98,11.93l-5.63 -0.68c-3.38,-4.12 -5.68,-8.26 -6.92,-12.43 -1.24,-4.17 -1.54,-8.9 -0.9,-14.19 0.84,-6.96 2.98,-12.98 6.43,-18.05 3.44,-5.07 7.96,-8.75 13.54,-11.06 5.58,-2.3 11.33,-3.1 17.23,-2.39 6.22,0.75 11.93,3.09 17.12,7.02 5.19,3.93 8.99,8.85 11.4,14.76 2.41,5.9 3.24,11.97 2.49,18.19 -0.55,4.59 -2.13,9.31 -4.74,14.17 -1.51,2.81 -2.32,4.62 -2.41,5.42 -0.13,1.03 0.15,1.96 0.81,2.81 0.66,0.84 1.8,1.48 3.41,1.9l-0.23 1.88z"/>
     <path class="fil0" d="M1024.93 739.68c-3.26,9.97 -9.07,16.9 -17.43,20.81 -8.36,3.9 -17.13,4.16 -26.29,0.79 -7.83,-2.88 -13.88,-7.71 -18.14,-14.48 -5.66,-8.98 -6.44,-19.01 -2.37,-30.08 4.09,-11.11 11.02,-18.31 20.78,-21.61 7.71,-2.6 15.65,-2.4 23.82,0.6 9.17,3.38 15.66,9.31 19.48,17.8 3.82,8.49 3.87,17.22 0.16,26.19zm-3.12 -0.53l0 0c2.08,-5.65 0.78,-11 -3.9,-16.07 -3.85,-4.14 -10.21,-7.84 -19.07,-11.11 -10.53,-3.88 -19,-4.89 -25.4,-3.04 -4.47,1.28 -7.56,4.25 -9.27,8.89 -1.15,3.12 -1.35,6.01 -0.61,8.67 0.96,3.39 3.3,6.61 7.01,9.67 3.72,3.06 9,5.85 15.87,8.37 8.16,3 14.55,4.49 19.16,4.47 4.61,-0.03 8.18,-0.91 10.72,-2.65 2.53,-1.74 4.37,-4.14 5.49,-7.21z"/>
    </g>
    <g>
     <path class="fil0" d="M419.45 951.96l-10.41 20.28 -1.68 -0.86c1.45,-5.94 1.17,-11.21 -0.83,-15.8 -2.01,-4.59 -5.2,-8.01 -9.57,-10.25 -3.65,-1.87 -7.54,-2.54 -11.67,-2.01 -4.13,0.54 -7.76,2.14 -10.92,4.81 -4.04,3.41 -7.43,7.78 -10.16,13.1 -2.69,5.24 -4.47,10.35 -5.36,15.33 -0.89,4.98 -0.48,9.29 1.21,12.94 1.69,3.65 4.78,6.62 9.27,8.93 3.68,1.89 7.47,2.81 11.36,2.77 3.89,-0.04 8.54,-1.16 13.96,-3.35l-2.59 5.05c-5.04,1.74 -9.73,2.47 -14.07,2.18 -4.34,-0.29 -8.89,-1.64 -13.63,-4.08 -6.24,-3.2 -11.15,-7.3 -14.71,-12.29 -3.56,-4.99 -5.46,-10.5 -5.68,-16.54 -0.23,-6.04 1.02,-11.7 3.73,-17 2.87,-5.58 7.04,-10.12 12.53,-13.63 5.49,-3.51 11.42,-5.37 17.8,-5.58 6.38,-0.22 12.36,1.11 17.94,3.97 4.11,2.11 8,5.23 11.66,9.37 2.11,2.39 3.53,3.77 4.25,4.14 0.92,0.47 1.89,0.54 2.92,0.21 1.02,-0.33 2.01,-1.18 2.97,-2.54l1.68 0.86z"/>
     <path class="fil0" d="M502.12 1021.62l-7.75 21.88 -56.79 -13.52 0.42 -1.75 2.12 0.51c1.85,0.44 3.43,0.47 4.72,0.08 0.92,-0.24 1.73,-0.85 2.43,-1.81 0.52,-0.67 1.17,-2.61 1.93,-5.82l10.02 -42.07c0.78,-3.27 1.09,-5.36 0.94,-6.25 -0.15,-0.9 -0.68,-1.78 -1.59,-2.64 -0.91,-0.86 -2.25,-1.51 -4.05,-1.93l-2.12 -0.51 0.42 -1.75 34.1 8.12 -0.42 1.75 -2.78 -0.66c-1.86,-0.44 -3.43,-0.47 -4.72,-0.08 -0.92,0.25 -1.75,0.85 -2.48,1.81 -0.52,0.67 -1.17,2.61 -1.93,5.82l-9.7 40.75c-0.78,3.27 -1.09,5.4 -0.92,6.39 0.16,0.99 0.74,1.83 1.74,2.53 0.72,0.47 2.59,1.07 5.61,1.78l5.33 1.27c3.39,0.81 6.37,0.89 8.92,0.23 2.55,-0.65 4.96,-2.08 7.22,-4.26 2.26,-2.18 4.73,-5.62 7.41,-10.3l1.93 0.46z"/>
     <path class="fil0" d="M546.79 984.53l33.95 -0.2 0.01 1.8 -1.7 0.01c-2.55,0.02 -4.31,0.29 -5.26,0.83 -0.95,0.54 -1.63,1.28 -2.02,2.22 -0.4,0.94 -0.59,3.29 -0.56,7.03l0.19 32.2c0.03,5.89 0.5,9.78 1.4,11.68 0.9,1.9 2.37,3.48 4.42,4.73 2.05,1.25 4.62,1.87 7.72,1.85 3.56,-0.02 6.58,-0.84 9.08,-2.45 2.49,-1.62 4.36,-3.83 5.59,-6.65 1.22,-2.82 1.82,-7.72 1.78,-14.71l-0.16 -26.82c-0.02,-2.94 -0.34,-5.04 -0.96,-6.3 -0.62,-1.25 -1.4,-2.13 -2.34,-2.61 -1.46,-0.73 -3.52,-1.09 -6.17,-1.08l-0.01 -1.8 22.75 -0.13 0.01 1.8 -1.36 0.01c-1.84,0.01 -3.38,0.39 -4.6,1.14 -1.22,0.75 -2.11,1.87 -2.65,3.36 -0.42,1.04 -0.61,2.9 -0.6,5.58l0.15 24.98c0.04,7.73 -0.43,13.31 -1.43,16.74 -1,3.43 -3.46,6.6 -7.39,9.5 -3.92,2.9 -9.3,4.37 -16.12,4.41 -5.69,0.03 -10.09,-0.7 -13.2,-2.2 -4.25,-2.04 -7.25,-4.68 -9.02,-7.9 -1.76,-3.22 -2.66,-7.57 -2.69,-13.03l-0.19 -32.2c-0.02,-3.78 -0.25,-6.13 -0.67,-7.05 -0.43,-0.92 -1.15,-1.65 -2.2,-2.19 -1.04,-0.54 -2.94,-0.79 -5.73,-0.74l-0.01 -1.8z"/>
     <path class="fil0" d="M695.54 999.45c6.41,-0.1 11.08,0.55 14.03,1.96 4.23,1.98 6.9,5.25 8.04,9.8 1.2,4.8 0.25,9.25 -2.82,13.35 -3.79,4.98 -10.21,8.59 -19.24,10.84l-32.44 8.08 -0.43 -1.74c2.95,-0.73 4.88,-1.51 5.8,-2.32 0.91,-0.81 1.48,-1.71 1.68,-2.69 0.21,-0.99 -0.12,-3.2 -0.98,-6.66l-10.32 -41.42c-0.86,-3.45 -1.61,-5.57 -2.26,-6.36 -0.65,-0.79 -1.57,-1.32 -2.77,-1.59 -1.2,-0.27 -3.26,-0.04 -6.18,0.69l-0.43 -1.74 30.6 -7.62c7.31,-1.82 12.65,-2.46 16.02,-1.91 3.37,0.55 6.26,1.89 8.66,4.04 2.4,2.15 3.97,4.69 4.69,7.6 0.76,3.08 0.33,6.09 -1.3,9.05 -1.63,2.96 -5.08,5.84 -10.34,8.65zm-17.45 3l0 0c4.46,-1.11 7.62,-2.43 9.49,-3.96 1.87,-1.53 3.14,-3.35 3.82,-5.45 0.68,-2.1 0.66,-4.56 -0.04,-7.39 -0.7,-2.82 -1.84,-5 -3.4,-6.53 -1.56,-1.53 -3.5,-2.5 -5.8,-2.93 -2.3,-0.42 -5.75,-0.05 -10.32,1.12l6.26 25.14zm0.92 3.67l0 0 5.1 20.48 0.54 2.36c0.42,1.69 1.17,2.87 2.25,3.51 1.08,0.65 2.46,0.76 4.16,0.34 2.51,-0.62 4.68,-1.76 6.53,-3.4 1.84,-1.64 3.06,-3.66 3.66,-6.06 0.6,-2.4 0.58,-4.9 -0.07,-7.51 -0.74,-2.98 -2.1,-5.49 -4.07,-7.51 -1.97,-2.02 -4.28,-3.21 -6.93,-3.55 -2.65,-0.34 -6.37,0.1 -11.17,1.33z"/>
     <path class="fil0" d="M762.9 944.69l12.31 23.76 1.16 -0.6c3.7,-1.92 5.78,-4.47 6.24,-7.65 0.46,-3.19 -0.26,-7.16 -2.14,-11.93l1.63 -0.85 15.83 30.56 -1.64 0.85c-2.07,-3.15 -4.2,-5.5 -6.41,-7.05 -2.2,-1.55 -4.23,-2.31 -6.07,-2.29 -1.84,0.03 -4.15,0.76 -6.94,2.2l8.52 16.44c1.66,3.21 2.82,5.11 3.46,5.69 0.64,0.58 1.46,0.9 2.44,0.97 0.98,0.07 2.31,-0.32 3.97,-1.19l3.48 -1.8c5.45,-2.82 9.16,-6.35 11.14,-10.58 1.98,-4.23 2.35,-9.29 1.11,-15.2l1.59 -0.82 6.98 19.91 -50.44 26.13 -0.83 -1.59 1.94 -1c1.69,-0.88 2.9,-1.88 3.62,-3.02 0.54,-0.79 0.75,-1.77 0.65,-2.96 -0.04,-0.85 -0.82,-2.74 -2.34,-5.67l-19.88 -38.39c-1.37,-2.64 -2.28,-4.22 -2.74,-4.75 -0.81,-0.86 -1.74,-1.36 -2.8,-1.5 -1.51,-0.24 -3.2,0.13 -5.1,1.11l-1.94 1 -0.82 -1.59 48.85 -25.3 8.94 17.26 -1.64 0.85c-3.01,-3.78 -5.75,-6.21 -8.21,-7.26 -2.46,-1.06 -5.29,-1.3 -8.49,-0.74 -1.88,0.32 -5.02,1.62 -9.44,3.91l-6.02 3.12z"/>
    </g>
    <g>
     <path class="fil1" d="M411.97 612.84l-54.52 0c17.37,105.47 109.16,185.93 219.8,185.93 10.41,0 20.66,-0.73 30.69,-2.11l0 -54.11c-9.96,1.82 -20.21,2.82 -30.69,2.82 -80.98,0 -148.63,-56.74 -165.28,-132.54zm-54.52 -72.59l0 0 54.52 0c16.65,-75.79 84.31,-132.54 165.28,-132.54 10.49,0 20.73,1 30.69,2.82l0 -54.11c-10.03,-1.38 -20.28,-2.11 -30.69,-2.11 -110.64,0 -202.43,80.47 -219.8,185.94zm320.57 -161.95l0 0 0 62.6c17.65,13.07 32.65,29.49 44.08,48.31l0 -81.5c-13.41,-11.46 -28.2,-21.35 -44.08,-29.41zm0 333.89l0 0 0 62.6c15.89,-8.05 30.67,-17.95 44.08,-29.4l0 -81.5c-11.43,18.82 -26.43,35.24 -44.08,48.31z"/>
     <path class="fil1" d="M503 794.8l0.04 0 0 100.98c14.43,3.33 29.22,5.71 44.31,7.08l0 -98.76c-15.31,-1.98 -30.15,-5.44 -44.35,-10.27l0 0.97zm-255.58 -218.25l0 0c0,131.26 77.06,244.54 188.5,297.34l0 -63.33c-72.19,-43.47 -122.64,-119.22 -131.23,-207.23l198.31 0 0 111.28c13.69,7.34 28.61,12.66 44.35,15.69l0 -307.49c-15.74,3.03 -30.67,8.34 -44.35,15.69l0 111.28 -198.31 0c11.05,-113.28 91.45,-206.28 198.31,-236.24l0 45.74c14.21,-4.83 29.05,-8.29 44.35,-10.27l0 -100.1c-168.15,15.08 -299.93,155.99 -299.93,327.65zm373.57 -326.13l0 0 0 650.89c15.42,-2.05 30.49,-5.17 45.16,-9.28 0.12,-8.97 0.11,-57.04 -0.04,-56.99l0 -231.71 183.66 0c-8.07,82.76 -53.16,154.67 -118.52,199.11l0 65.1c104.57,-55.17 175.84,-164.77 175.84,-290.99 0,-166.92 -124.61,-304.78 -286.09,-326.13zm45.12 299.35l0 0 0 -231.71c99.52,34.03 173.12,123.66 183.66,231.71l-183.66 0z"/>
    </g>
    <polygon class="fil0" points="674.02,110.88 677.07,139.1 704.84,144.93 678.95,156.54 681.99,184.76 662.94,163.72 637.04,175.34 651.17,150.72 632.12,129.68 659.89,135.5 "/>
    <polygon class="fil0" points="935.86,887.43 909.74,876.31 891.09,897.69 893.61,869.42 867.5,858.29 895.16,851.95 897.68,823.68 912.26,848.03 939.92,841.69 921.27,863.08 "/>
    <polygon class="fil0" points="245.09,918.8 257.42,893.24 236.92,873.61 265.05,877.44 277.38,851.87 282.42,879.81 310.56,883.64 285.55,897.07 290.6,925 270.09,905.37 "/>
   </g>
  </g>
 </g>
</svg>
