<?xml version="1.0" encoding="UTF-8"?>
<!DOCTYPE svg PUBLIC "-//W3C//DTD SVG 1.1//EN" "http://www.w3.org/Graphics/SVG/1.1/DTD/svg11.dtd">
<!-- Creator: CorelDRAW 2020 (64 Bit) -->
<svg xmlns="http://www.w3.org/2000/svg" xml:space="preserve" width="190mm" height="175.222mm" version="1.1" style="shape-rendering:geometricPrecision; text-rendering:geometricPrecision; image-rendering:optimizeQuality; fill-rule:evenodd; clip-rule:evenodd"
viewBox="0 0 763.58 704.19"
 xmlns:xlink="http://www.w3.org/1999/xlink"
 xmlns:xodm="http://www.corel.com/coreldraw/odm/2003">
 <defs>
  <style type="text/css">
   <![CDATA[
    .fil2 {fill:#FEFEFE;fill-rule:nonzero}
    .fil0 {fill:#E33439;fill-rule:nonzero}
    .fil1 {fill:#394785;fill-rule:nonzero}
   ]]>
  </style>
 </defs>
 <g id="Camada_x0020_1">
  <metadata id="CorelCorpID_0Corel-Layer"/>
  <g id="_2346923913696">
   <polygon class="fil0" points="381.79,0 381.79,704.19 383.57,702.45 714.79,378.25 714.79,0 "/>
   <polygon class="fil1" points="48.79,0 48.79,378.25 380.01,702.45 381.79,704.19 381.79,704.19 381.79,0 "/>
   <polygon class="fil2" points="381.79,670.7 72.72,368.19 72.72,23.93 690.86,23.93 690.86,368.19 381.79,670.7 "/>
   <polygon class="fil0" points="109.64,352.66 349.93,587.86 349.93,60.85 109.64,60.85 "/>
   <polygon class="fil1" points="413.65,60.85 413.65,587.87 653.94,352.66 653.94,60.85 "/>
   <polygon class="fil1" points="-0,310.49 381.79,310.49 381.79,108.22 -0,108.22 "/>
   <polygon class="fil0" points="381.79,310.49 763.58,310.49 763.58,108.22 381.79,108.22 "/>
   <polygon class="fil2" points="739.65,286.56 23.93,286.56 23.93,132.15 739.65,132.15 "/>
   <path class="fil1" d="M112.69 223.17l43.88 0 -22.25 -42.02 -21.63 42.02zm-0.62 -67.98l44.65 0 61.49 111.86 -38.16 0 -10.66 -19.78 -69.52 0 -10.04 19.78 -38.31 0 60.56 -111.86z"/>
   <path class="fil0" d="M275.07 238.31l60.87 0c14.68,0 20.39,-4.17 20.39,-20.08l0 -15.14c0,-15.91 -5.72,-20.08 -20.39,-20.08l-60.87 0 0 55.31zm-34.3 -83.12l103.51 0c34.3,0 46.35,11.28 46.35,38.93l0 33.99c0,27.65 -12.05,38.93 -46.35,38.93l-103.51 0 0 -111.86z"/>
   <path class="fil1" d="M454.75 240.16l61.49 0c7.41,0 12.36,-1.7 12.36,-8.19 0,-7.57 -4.95,-9.27 -12.36,-9.27l-61.49 0 0 17.46zm0 -40.63l60.72 0c6.33,0 10.04,-2.32 10.04,-8.65 0,-6.49 -3.71,-8.81 -10.04,-8.81l-60.72 0 0 17.46zm-34.3 -44.34l98.72 0c27.35,0 40.63,7.42 40.63,29.36 0,19.16 -6.95,22.87 -16.53,25.65l0 0.46c14.98,1.85 20.55,9.89 20.55,26.73 0,24.57 -14.52,29.66 -34.15,29.66l-109.23 0 0 -111.86z"/>
   <polygon class="fil0" points="593.65,155.19 710.45,155.19 710.45,182.07 627.95,182.07 627.95,202.93 706.59,202.93 706.59,228.88 627.95,228.88 627.95,267.04 593.65,267.04 "/>
  </g>
 </g>
</svg>
