<?xml version="1.0" encoding="UTF-8"?>
<!DOCTYPE svg PUBLIC "-//W3C//DTD SVG 1.1//EN" "http://www.w3.org/Graphics/SVG/1.1/DTD/svg11.dtd">
<!-- Creator: CorelDRAW 2020 (64 Bit) -->
<svg xmlns="http://www.w3.org/2000/svg" xml:space="preserve" width="158.059mm" height="158.059mm" version="1.1" style="shape-rendering:geometricPrecision; text-rendering:geometricPrecision; image-rendering:optimizeQuality; fill-rule:evenodd; clip-rule:evenodd"
viewBox="0 0 15804.84 15804.84"
 xmlns:xlink="http://www.w3.org/1999/xlink"
 xmlns:xodm="http://www.corel.com/coreldraw/odm/2003">
 <defs>
  <style type="text/css">
   <![CDATA[
    .fil0 {fill:none}
    .fil1 {fill:#FEFEFE}
    .fil2 {fill:#ED3237;fill-rule:nonzero}
   ]]>
  </style>
 </defs>
 <g id="Camada_x0020_1">
  <metadata id="CorelCorpID_0Corel-Layer"/>
  <rect class="fil0" x="0" y="0" width="15804.84" height="15804.84"/>
  <g id="_3154454156208">
   <polygon class="fil1" points="7902.4,4803.99 1107.05,7902.4 7902.4,11000.79 14697.74,7902.4 "/>
   <path class="fil2" d="M0.01 7902.4l7902.39 -3603.13 7902.43 3603.13 -7902.43 3603.17 -7902.39 -3603.17zm1107.04 0l6795.36 3098.39 6795.34 -3098.39 -6795.34 -3098.41 -6795.36 3098.41z"/>
   <path class="fil2" d="M5220.17 6190.02l0 0c-113.83,50.7 -227.66,100.71 -341.5,151.97l0 0c-228.37,101.91 -456.04,202.63 -683.67,304.53 0,412.58 0,825.23 0,1237.22 0,412.64 0,825.24 0,1237.24 227.63,100.7 455.3,201.38 683.67,302.69l0 0c113.83,50.65 227.66,101.29 341.5,151.33l0 0c186.82,83.35 349.73,97.66 482.36,27.19 135.88,-72.24 201.39,-206.95 201.39,-389.15 0,-221.78 0,-443.52 0,-665.26 0,-181.62 -65.44,-345.22 -201.39,-477.49 -132.6,-129.01 -295.54,-187.15 -482.36,-187.78 186.82,0.63 350.08,-58.46 482.36,-187.78 136.23,-133.16 201.39,-295.89 201.39,-478.09 0,-221.78 0,-443.51 0,-665.26 0,-182.2 -65.37,-317.16 -201.39,-389.12 -132.56,-70.13 -295.54,-55.6 -482.36,27.76zm0 2821.01c-113.83,-33.34 -227.66,-66.72 -341.5,-100.69 0,-256.32 0,-513.3 0,-770.25 113.83,8.04 227.66,16.68 341.5,24.7 0,282.28 0,564.6 0,846.24zm0 -1410.2c-113.83,8.68 -227.66,16.69 -341.5,25.33 0,-256.31 0,-513.29 0,-770.24 113.83,-33.97 227.66,-67.94 341.5,-101.9l0 0c0,282.9 0,564.54 0,846.81zm1851.26 -2235.4l0 0 0 0c-114.57,51.29 -228.4,101.91 -342.24,152.57 0,263.15 0,525.67 0,788.16 113.83,-33.97 227.66,-67.95 342.24,-101.91 0,279.2 0,559.04 0,838.21l0 0c0,140.22 0,279.84 0,419.39 -114.57,8.68 -228.4,17.32 -342.24,25.96 0,-130.94 0,-262.51 0,-394.09l0 0c0,-262.48 0,-525 0,-787.56 0,-262.48 0,-525 0,-788.16l0 0c-186.83,83.42 -345.53,228.58 -481.62,425.59 -133.17,192.75 -202.13,378.05 -202.13,565.82 0,572.59 0,1144.58 0,1716.52 0,572.01 0,1143.97 0,1715.35 227.66,100.66 455.33,202 683.74,303.29 0,-327.39 0,-656.01 0,-983.98 0,-328.01 0,-656.62 0,-985.21 113.83,8.03 227.66,16.69 342.24,24.7 0,349.61 0,699.82 0,1048.83 0,348.99 0,698.62 0,1047 227.63,101.29 455.3,201.96 683.66,303.28 0,-782.64 0,-1565.24 0,-2348.46 0,-782.6 0,-1565.81 0,-2349.67 0,-256.94 -64.49,-455.02 -201.38,-581.9 -132.39,-122.69 -295.5,-136.48 -482.29,-53.73zm1871.63 178.52c0,261.88 0,523.17 0,785.09 0,261.29 0,522.57 0,784.46l0 0c0,64.24 0,128.47 0,192.71l0 0c0,130.94 0,261.92 0,392.23 -114.61,-6.18 -228.41,-12.35 -342.28,-17.92 0,-243.37 0,-487.37 0,-730.7 0,-242.76 0,-486.73 0,-730.73 113.86,36.45 227.66,72.89 342.28,109.95 0,-261.91 0,-523.2 0,-785.09 -342.28,-161.84 -684.48,-324.29 -1025.95,-486.13 0,941.36 0,1883.31 0,2824.68 0,940.76 0,1882.73 0,2823.46 227.66,-101.29 455.34,-201.36 683.67,-302.65 0,-313.81 0,-628.81 0,-942.61 0,-314.4 0,-628.8 0,-943.84 113.86,-11.1 227.66,-22.83 342.28,-33.96 0,295.23 0,589.86 0,884.54 0,294.63 0,589.88 0,883.9 227.63,-100.67 455.3,-202 683.7,-303.29 0,-198.29 0,-397.16 0,-595.45 0,-198.88 0,-397.78 0,-596.7 0,-185.91 -68.97,-337.22 -201.39,-465.73 -136.8,-132.73 -295.54,-203.21 -482.32,-199.51l0 0c186.78,-3.7 345.52,-80.87 482.32,-219.93 132.42,-134.58 201.39,-289.05 201.39,-475.59l0 0 0 0c0,-281.67 0,-563.94 0,-846.85 0,-185.94 -68.75,-371.38 -201.39,-565.78 -136.58,-200.26 -295.54,-349.65 -482.32,-438.58zm1864.3 2132.86c0,166.79 0,332.97 0,499.75 113.87,-7.44 227.66,-14.85 342.24,-21.01 0,-148.88 0,-298.37 0,-447.23 -114.57,-11.08 -228.36,-21 -342.24,-31.51zm0 1249c-113.8,33.35 -227.63,66.07 -341.47,99.45 0,-276.12 0,-551.62 0,-828.32 113.83,-6.82 227.66,-13.6 341.47,-20.38 0,-166.78 0,-332.96 0,-499.75 -113.8,-9.88 -227.63,-20.99 -341.47,-30.87 0,-276.1 0,-551.59 0,-828.33 341.47,109.95 683.7,219.91 1025.95,329.86 0,-131.57 0,-263.15 0,-395.32 -228.4,-108.09 -456.82,-216.18 -684.48,-324.26l0 0c-342.21,-161.84 -683.7,-323.72 -1025.21,-485.53 0,218.68 0,437.34 0,655.98 0,219.28 0,437.95 0,656.63l0 0c0,437.3 0,875.24 0,1312.56 0,437.33 0,874.65 0,1311.98 341.51,-151.34 683,-303.28 1025.21,-454.61l0 0c227.66,-101.92 456.08,-202.59 684.48,-303.92 0,-131.55 0,-263.11 0,-394.7 -228.4,66.72 -456.82,132.8 -684.48,199.54zm-220.34 -2859.92c106.53,58.07 213.04,116.76 320.34,175.43 -75.91,12.38 -151.79,26.56 -226.92,43.85 -107.31,-53.73 -214.55,-107.48 -321.08,-159.98 75.87,-22.22 151.76,-42.01 227.66,-59.3z"/>
  </g>
 </g>
</svg>
