<?xml version="1.0" encoding="UTF-8"?>
<!DOCTYPE svg PUBLIC "-//W3C//DTD SVG 1.1//EN" "http://www.w3.org/Graphics/SVG/1.1/DTD/svg11.dtd">
<!-- Creator: CorelDRAW 2020 (64 Bit) -->
<svg xmlns="http://www.w3.org/2000/svg" xml:space="preserve" width="336.845mm" height="392.335mm" version="1.1" style="shape-rendering:geometricPrecision; text-rendering:geometricPrecision; image-rendering:optimizeQuality; fill-rule:evenodd; clip-rule:evenodd"
viewBox="0 0 2648.94 3085.3"
 xmlns:xlink="http://www.w3.org/1999/xlink"
 xmlns:xodm="http://www.corel.com/coreldraw/odm/2003">
 <defs>
  <style type="text/css">
   <![CDATA[
    .str2 {stroke:#02056C;stroke-width:7.86;stroke-miterlimit:22.9256}
    .str6 {stroke:#FEFEFE;stroke-width:39.32;stroke-miterlimit:22.9256}
    .str4 {stroke:#02056C;stroke-width:3.93;stroke-miterlimit:22.9256}
    .str7 {stroke:#797A7C;stroke-width:11.8;stroke-miterlimit:22.9256}
    .str5 {stroke:#373435;stroke-width:1.57;stroke-miterlimit:22.9256}
    .str0 {stroke:#FFF212;stroke-width:1.57;stroke-miterlimit:22.9256}
    .str1 {stroke:#FFF212;stroke-width:1.57;stroke-miterlimit:22.9256}
    .str3 {stroke:#02056C;stroke-width:1.57;stroke-miterlimit:22.9256}
    .fil4 {fill:none}
    .fil1 {fill:#FEFEFE}
    .fil7 {fill:#02014F}
    .fil2 {fill:#020475}
    .fil12 {fill:#020475}
    .fil5 {fill:#02056C}
    .fil0 {fill:#02056C}
    .fil9 {fill:#292829}
    .fil8 {fill:#7266CC}
    .fil3 {fill:#C51D1C}
    .fil11 {fill:#CADBD5}
    .fil6 {fill:#FEFEFE;fill-rule:nonzero}
    .fil10 {fill:url(#id14)}
   ]]>
  </style>
     <clipPath id="id0">
      <path d="M1033.9 2337.17c33.17,158.5 101.54,277.75 213.29,348.6 121.39,38.99 214.45,2.99 284.46,-94.03 99.64,-245.19 255.8,-392.74 488.43,-408.23 19.08,130.09 68.29,240.81 172.01,316.49 26.42,16.59 34.54,-14.01 22.93,-29.81 -143.18,-228.48 -114.26,-486.88 20.64,-763.72 11.79,-12.48 -12.34,-82.04 -50.46,-34.4 -84.3,93.05 -136.05,202.9 -153.28,332.17 -1.81,28.17 -38.72,26.72 -75.72,-1.91 -93.54,-59.32 -192.02,-71.78 -282.54,-61.57 -38.1,-35.62 -81.47,-64.64 -130.73,-86.31l-43.48 -358.97c-4.3,-27.33 -33.07,-29.17 -43.58,0l-107.79 357.78c-270.33,157.58 -313.59,320.27 -314.2,483.92z"/>
     </clipPath>
      <clipPath id="id1">
       <path d="M1034.26 2315.37c153.23,188.94 403.43,195.59 553.92,-0.31 72.67,-94.6 80.71,-150.33 246.26,-182.97 73.58,-14.5 164.48,-14.91 277.82,4.09l8.02 -0.8c0.95,-136.45 42.82,-280.01 115.38,-428.91 11.79,-12.48 -12.34,-82.04 -50.46,-34.4 -84.3,93.05 -136.05,202.9 -153.28,332.17 -1.81,28.17 -38.72,26.72 -75.72,-1.91 -93.54,-59.32 -192.02,-71.78 -282.54,-61.57 -38.1,-35.62 -81.47,-64.64 -130.73,-86.31l-43.48 -358.97c-4.3,-27.33 -33.07,-29.17 -43.58,0l-107.79 357.78c-258.32,150.58 -309.3,305.82 -313.85,462.11z"/>
      </clipPath>
      <clipPath id="id2">
       <path d="M1033.9 2337.17c33.17,158.5 101.54,277.75 213.29,348.6 121.39,38.99 214.45,2.99 284.46,-94.03 99.64,-245.19 255.8,-392.74 488.43,-408.23 19.08,130.09 68.29,240.81 172.01,316.49 26.42,16.59 34.54,-14.01 22.93,-29.81 -143.18,-228.48 -114.26,-486.88 20.64,-763.72 11.79,-12.48 -12.34,-82.04 -50.46,-34.4 -84.3,93.05 -136.05,202.9 -153.28,332.17 -1.81,28.17 -38.72,26.72 -75.72,-1.91 -93.54,-59.32 -192.02,-71.78 -282.54,-61.57 -38.1,-35.62 -81.47,-64.64 -130.73,-86.31l-43.48 -358.97c-4.3,-27.33 -33.07,-29.17 -43.58,0l-107.79 357.78c-270.33,157.58 -313.59,320.27 -314.2,483.92z"/>
      </clipPath>
      <clipPath id="id3">
       <path d="M1531.66 2445.61c-25.85,6.84 -71.64,49.07 -116.44,66.87 -57.96,22.01 -141.84,28.06 -218.75,-14.73 -20.49,-12.16 -40.9,-32.9 -74.81,-35.14 42.79,38.07 72.7,78.14 110.43,118.7 67.13,53.32 134.37,63.83 201.5,5.48 36.35,-39.17 69.47,-102.43 98.05,-141.18z"/>
      </clipPath>
      <clipPath id="id4">
       <path d="M1033.9 2337.17c33.17,158.5 101.54,277.75 213.29,348.6 121.39,38.99 214.45,2.99 284.46,-94.03 99.64,-245.19 255.8,-392.74 488.43,-408.23 19.08,130.09 68.29,240.81 172.01,316.49 26.42,16.59 34.54,-14.01 22.93,-29.81 -143.18,-228.48 -114.26,-486.88 20.64,-763.72 11.79,-12.48 -12.34,-82.04 -50.46,-34.4 -84.3,93.05 -136.05,202.9 -153.28,332.17 -1.81,28.17 -38.72,26.72 -75.72,-1.91 -93.54,-59.32 -192.02,-71.78 -282.54,-61.57 -38.1,-35.62 -81.47,-64.64 -130.73,-86.31l-43.48 -358.97c-4.3,-27.33 -33.07,-29.17 -43.58,0l-107.79 357.78c-270.33,157.58 -313.59,320.27 -314.2,483.92z"/>
      </clipPath>
     <clipPath id="id5">
      <path d="M1057.63 2429.66c-65.38,48.64 -69.15,257.81 -148.02,256.47 77.68,39.2 159.95,-56.15 233.04,-95.7 -31.48,-36.54 -60.17,-90.59 -85.02,-160.77z"/>
     </clipPath>
     <clipPath id="id6">
      <path d="M1530.53 2590.76c45.9,33.73 91.17,68.23 145.4,91.55 30.07,10.7 54.79,8.03 79.51,-4.97 -53.59,-10.43 -67.67,-62.7 -85.63,-110.86 -22.41,-40.89 -15.78,-94.77 -53.48,-141.01 -28.08,49.57 -56.02,97.66 -85.8,165.29z"/>
     </clipPath>
    <clipPath id="id7">
     <path d="M1033.9 2337.17c33.17,158.5 101.54,277.75 213.29,348.6 121.39,38.99 214.45,2.99 284.46,-94.03 99.64,-245.19 255.8,-392.74 488.43,-408.23 19.08,130.09 68.29,240.81 172.01,316.49 26.42,16.59 34.54,-14.01 22.93,-29.81 -143.18,-228.48 -114.26,-486.88 20.64,-763.72 11.79,-12.48 -12.34,-82.04 -50.46,-34.4 -84.3,93.05 -136.05,202.9 -153.28,332.17 -1.81,28.17 -38.72,26.72 -75.72,-1.91 -93.54,-59.32 -192.02,-71.78 -282.54,-61.57 -38.1,-35.62 -81.47,-64.64 -130.73,-86.31l-43.48 -358.97c-4.3,-27.33 -33.07,-29.17 -43.58,0l-107.79 357.78c-270.33,157.58 -313.59,320.27 -314.2,483.92z"/>
    </clipPath>
     <clipPath id="id8">
      <path d="M1034.26 2315.37c153.23,188.94 403.43,195.59 553.92,-0.31 72.67,-94.6 80.71,-150.33 246.26,-182.97 73.58,-14.5 164.48,-14.91 277.82,4.09l8.02 -0.8c0.95,-136.45 42.82,-280.01 115.38,-428.91 11.79,-12.48 -12.34,-82.04 -50.46,-34.4 -84.3,93.05 -136.05,202.9 -153.28,332.17 -1.81,28.17 -38.72,26.72 -75.72,-1.91 -93.54,-59.32 -192.02,-71.78 -282.54,-61.57 -38.1,-35.62 -81.47,-64.64 -130.73,-86.31l-43.48 -358.97c-4.3,-27.33 -33.07,-29.17 -43.58,0l-107.79 357.78c-258.32,150.58 -309.3,305.82 -313.85,462.11z"/>
     </clipPath>
     <clipPath id="id9">
      <path d="M1033.9 2337.17c33.17,158.5 101.54,277.75 213.29,348.6 121.39,38.99 214.45,2.99 284.46,-94.03 99.64,-245.19 255.8,-392.74 488.43,-408.23 19.08,130.09 68.29,240.81 172.01,316.49 26.42,16.59 34.54,-14.01 22.93,-29.81 -143.18,-228.48 -114.26,-486.88 20.64,-763.72 11.79,-12.48 -12.34,-82.04 -50.46,-34.4 -84.3,93.05 -136.05,202.9 -153.28,332.17 -1.81,28.17 -38.72,26.72 -75.72,-1.91 -93.54,-59.32 -192.02,-71.78 -282.54,-61.57 -38.1,-35.62 -81.47,-64.64 -130.73,-86.31l-43.48 -358.97c-4.3,-27.33 -33.07,-29.17 -43.58,0l-107.79 357.78c-270.33,157.58 -313.59,320.27 -314.2,483.92z"/>
     </clipPath>
     <clipPath id="id10">
      <path d="M1531.66 2445.61c-25.85,6.84 -71.64,49.07 -116.44,66.87 -57.96,22.01 -141.84,28.06 -218.75,-14.73 -20.49,-12.16 -40.9,-32.9 -74.81,-35.14 42.79,38.07 72.7,78.14 110.43,118.7 67.13,53.32 134.37,63.83 201.5,5.48 36.35,-39.17 69.47,-102.43 98.05,-141.18z"/>
     </clipPath>
     <clipPath id="id11">
      <path d="M1033.9 2337.17c33.17,158.5 101.54,277.75 213.29,348.6 121.39,38.99 214.45,2.99 284.46,-94.03 99.64,-245.19 255.8,-392.74 488.43,-408.23 19.08,130.09 68.29,240.81 172.01,316.49 26.42,16.59 34.54,-14.01 22.93,-29.81 -143.18,-228.48 -114.26,-486.88 20.64,-763.72 11.79,-12.48 -12.34,-82.04 -50.46,-34.4 -84.3,93.05 -136.05,202.9 -153.28,332.17 -1.81,28.17 -38.72,26.72 -75.72,-1.91 -93.54,-59.32 -192.02,-71.78 -282.54,-61.57 -38.1,-35.62 -81.47,-64.64 -130.73,-86.31l-43.48 -358.97c-4.3,-27.33 -33.07,-29.17 -43.58,0l-107.79 357.78c-270.33,157.58 -313.59,320.27 -314.2,483.92z"/>
     </clipPath>
    <clipPath id="id12">
     <path d="M1057.63 2429.66c-65.38,48.64 -69.15,257.81 -148.02,256.47 77.68,39.2 159.95,-56.15 233.04,-95.7 -31.48,-36.54 -60.17,-90.59 -85.02,-160.77z"/>
    </clipPath>
    <clipPath id="id13">
     <path d="M1530.53 2590.76c45.9,33.73 91.17,68.23 145.4,91.55 30.07,10.7 54.79,8.03 79.51,-4.97 -53.59,-10.43 -67.67,-62.7 -85.63,-110.86 -22.41,-40.89 -15.78,-94.77 -53.48,-141.01 -28.08,49.57 -56.02,97.66 -85.8,165.29z"/>
    </clipPath>
  <radialGradient id="id14" gradientUnits="userSpaceOnUse" gradientTransform="matrix(0.562698 -0 -0 0.562697 586 1137)" cx="1340.3" cy="2599.33" r="138.09" fx="1340.3" fy="2599.33">
   <stop offset="0" style="stop-opacity:1; stop-color:#C33E3E"/>
   <stop offset="1" style="stop-opacity:1; stop-color:#292829"/>
  </radialGradient>
 </defs>
 <g id="Camada_x0020_1">
  <metadata id="CorelCorpID_0Corel-Layer"/>
  <g id="bragantino-clube-do-para-nova-seeklogo.com.cdr">
   <path class="fil0 str0" d="M644.27 0.95l-643.18 536.08c101.78,126.19 194.74,256.79 270.09,400.61 68.16,196.57 -123.61,419.58 -196.44,611.74 -128.1,428.23 -29.5,749.12 321.91,1092.98 116.46,113.95 303.61,185.9 484.78,249.23 177.56,62.07 349.38,115.88 443.29,192.86 0.24,0.2 0.41,-0.06 0.53,-0.62 190.55,-154.9 696.85,-216.01 927.02,-441.24 351.41,-343.86 450.01,-664.75 321.91,-1092.98 -72.82,-192.16 -264.59,-415.17 -196.44,-611.74 75.34,-143.82 168.31,-274.42 270.09,-400.61l-643.18 -536.08c-472.86,254.81 -895.43,252.55 -1360.39,-0.23z"/>
   <path class="fil1 str1" d="M1322.9 2988.41c-186.7,-144.62 -473.19,-165.24 -733.96,-303.84 -388.25,-206.36 -589,-701.22 -449.83,-1098.47 71.34,-180.31 266.06,-421.46 219.79,-608.19 -60.14,-150.9 -146.66,-307.62 -246.37,-426.03l545.8 -455.15c230.51,118.97 448.83,178.2 666.13,178.48 217.3,-0.28 435.62,-59.51 666.13,-178.48l545.8 455.15c-99.71,118.41 -186.23,275.13 -246.37,426.03 -46.26,186.72 148.45,427.88 219.79,608.19 139.17,397.25 -61.58,892.12 -449.83,1098.47 -260.76,138.6 -547.25,159.22 -733.96,303.84 -0.26,0.36 -3.01,0.47 -3.13,0z"/>
   <path class="fil2" d="M909.61 2715.97c-110.46,-37.51 -221.67,-81.47 -317.8,-148.66 -41.53,-29.03 -79.94,-58.9 -115.28,-89.53l2.49 -36.75 430.59 -398.37 0 673.31zm1046.61 -88.42c-136.57,70 -289.87,109.87 -424.56,157.15l0 -1317.56 424.56 -392.79 0 1553.19z"/>
   <path class="fil3" d="M2270.04 784.02c-42.15,75.53 -73.66,155.25 -78.13,227.53 -44.28,173.83 142.1,398.33 210.38,566.19 161.78,372.2 44.13,717.47 -345.17,989.58 -5.32,3.72 -10.68,7.35 -16.09,10.93l0 -1582.36 229 -211.86zm-839.92 2040.12c-38.16,16.75 -73.62,35.17 -105.3,56.41l0 0.46 -0.35 -0.23 -0.35 0.23 0 -0.46c-85.55,-57.35 -198.64,-94.2 -318.21,-132.9l0 -794.08 424.21 -392.47 0 1263.05z"/>
   <path class="fil0" d="M212.08 1937.98c20.81,167.47 66.24,325.36 169.01,460.95l1975.25 -1883.06 -348.27 -288.52 -1795.99 1710.63z"/>
   <ellipse class="fil4 str2" cx="765.27" cy="658.03" rx="324.51" ry="322.17"/>
   <path class="fil5 str3" d="M506.33 463.81l42.03 60.59 -41.09 121.21 -66.47 7.15c3.29,-71.78 23.92,-135.33 65.53,-188.94z"/>
   <path class="fil5 str3" d="M663.06 351.29l23.97 57.03 158.19 7.19 30.08 -62.96c-70.52,-22.22 -141.25,-24.38 -212.24,-1.26z"/>
   <polygon class="fil5 str3" points="1024.72,464.49 988,513.1 1040.38,648.69 1089.6,647.03 "/>
   <polygon class="fil5 str3" points="839.05,551.11 681.89,556.24 634.64,690.8 765.1,785.31 893.49,685.67 "/>
   <path class="fil5 str3" d="M1033.1 840l-63.59 -30.04 -123.26 87.31 10.71 69.89c72.65,-22.79 129.49,-67.81 176.14,-127.16z"/>
   <path class="fil5 str3" d="M568.9 821.26l-63.18 30.18c39.54,44.16 89.25,84.38 156.65,117.73l20.54 -65.74 -114.02 -82.17z"/>
   <polyline class="fil4 str4" points="687.03,408.33 640.81,485.37 544.95,519.49 507.27,645.61 555.55,721.62 640.64,695.15 765.1,785.31 893.49,685.67 970.53,727.78 969.51,809.96 847.39,904.76 749.69,871.59 682.92,903.43 568.9,821.26 555.55,721.62 "/>
   <polyline class="fil4 str4" points="749.69,871.59 765.1,785.31 893.49,685.67 970.53,727.78 1040.38,648.69 988,513.1 899.66,473.04 847.77,410.18 687.03,408.33 640.81,485.37 544.95,519.49 640.81,485.37 681.89,556.24 839.05,551.11 899.66,473.04 "/>
   <path class="fil6" d="M303.73 1993.35l73.11 -69.69c14.51,-13.83 25.85,-23.5 34.09,-29.08 8.33,-5.58 17.06,-9.11 26.29,-10.68 9.27,-1.52 18.78,-0.92 28.57,1.85 9.79,2.77 18.48,8.14 25.98,16.01 8.11,8.51 13.32,18.57 15.5,30.06 2.22,11.53 1.03,22.81 -3.43,33.89 14.23,-7.31 28.02,-9.89 41.48,-7.78 13.42,2.15 25.16,8.5 35.26,19.1 7.95,8.34 13.74,18.25 17.37,29.82 3.63,11.56 4.36,22.89 2.14,34.03 -2.22,11.05 -7.72,21.81 -16.49,32.29 -5.52,6.48 -19.97,21.06 -43.34,43.66l-62.26 59.35 -174.27 -182.83zm65.99 -4.9l40.16 42.13 24.17 -23.04c14.34,-13.67 23.08,-22.4 26.16,-26.15 5.61,-6.73 8.52,-13.64 8.69,-20.71 0.17,-7.06 -2.55,-13.49 -8.14,-19.37 -5.4,-5.66 -11.31,-8.71 -17.78,-9.28 -6.47,-0.57 -13.14,1.72 -19.96,6.84 -4.06,3.06 -14.78,12.87 -32.1,29.38l-21.19 20.2zm69.12 72.52l46.73 49.03 34.22 -32.61c13.28,-12.66 21.38,-21.11 24.27,-25.24 4.52,-6.25 6.67,-12.94 6.43,-20.1 -0.28,-7.2 -3.45,-14.01 -9.66,-20.53 -5.27,-5.53 -11.01,-8.91 -17.34,-10.19 -6.29,-1.31 -12.84,-0.43 -19.53,2.61 -6.68,3.04 -18.47,12.57 -35.28,28.6l-29.83 28.44zm223.55 -60.55l-174.27 -182.83 77.75 -74.11c19.53,-18.62 35.33,-30.51 47.3,-35.67 12.02,-5.2 24.64,-6.1 37.95,-2.79 13.35,3.36 25.16,10.38 35.46,21.18 13.1,13.75 19.89,28.88 20.37,45.48 0.47,16.6 -6.17,33.66 -19.94,51.25 12.38,-2.95 23.8,-4.09 34.27,-3.42 10.51,0.63 26.94,3.89 49.25,9.75l56.29 14.41 -44.13 42.07 -64.52 -14.69c-23,-5.12 -38.03,-7.86 -45.09,-8.19 -6.98,-0.33 -13.11,0.64 -18.33,3.01 -5.26,2.41 -12.12,7.65 -20.63,15.76l-7.49 7.14 72.77 76.35 -37.03 35.29zm-63.49 -140.75l27.32 -26.04c17.7,-16.87 28,-28.15 31,-33.86 2.96,-5.67 3.98,-11.59 2.96,-17.6 -0.98,-6.05 -4.12,-11.83 -9.36,-17.31 -5.88,-6.17 -12.25,-9.53 -19.17,-10.23 -6.89,-0.66 -13.8,1.37 -20.69,6.07 -3.43,2.46 -12.61,10.8 -27.55,25.04l-28.81 27.46 44.3 46.47zm412.59 -192.01l-39.88 38.01 -55.46 -26.57 -73.33 69.89 24.48 56.1 -39.15 37.32 -103.28 -250.49 39.11 -37.28 247.51 113.01zm-136.79 -8.02l-89.91 -43.45 39.82 91.19 50.09 -47.74zm177.51 -158.97l-29.45 -30.9 79.41 -75.69 69.53 72.94c-0.52,14.87 -5.43,32.14 -14.63,51.88 -9.2,19.66 -21.34,36.66 -36.4,51.02 -19.11,18.21 -39.56,30.07 -61.44,35.58 -21.84,5.46 -43.51,4.11 -64.9,-4.01 -21.39,-8.12 -40.5,-21.01 -57.25,-38.59 -18.17,-19.07 -30.32,-39.82 -36.52,-62.25 -6.12,-22.44 -5.33,-44.96 2.49,-67.52 5.95,-17.28 17.62,-34.18 35.07,-50.81 22.68,-21.62 44.97,-33.77 66.83,-36.41 21.85,-2.55 42.6,2.77 62.32,16.13l-30.2 41.94c-11.11,-6.55 -22.74,-9.03 -34.83,-7.49 -12.01,1.54 -23.34,7.38 -33.98,17.52 -16.09,15.33 -24.03,32.65 -23.74,51.95 0.29,19.3 10,39.04 29.19,59.17 20.73,21.75 41.07,33.46 61.04,35.15 20.01,1.64 37.79,-4.92 53.41,-19.8 7.7,-7.34 13.99,-16.26 18.85,-26.66 4.91,-10.44 8.02,-20.47 9.45,-30.13l-22.11 -23.19 -42.13 40.16zm342.29 -198.1l-39.88 38.01 -55.46 -26.57 -73.33 69.89 24.48 56.1 -39.15 37.32 -103.28 -250.49 39.11 -37.28 247.51 113.01zm-136.79 -8.02l-89.91 -43.45 39.82 91.19 50.09 -47.74zm156.49 -10.76l-174.27 -182.83 35.83 -34.16 192.03 50.8 -116.79 -122.52 34.22 -32.61 174.27 182.82 -36.98 35.25 -188.65 -49.56 114.56 120.18 -34.22 32.61zm225.51 -214.95l-144.82 -151.93 -54.13 51.6 -29.45 -30.9 145.03 -138.25 29.45 30.9 -53.88 51.35 144.82 151.93 -37.03 35.29zm113.58 -108.27l-174.27 -182.82 37.03 -35.29 174.27 182.83 -37.02 35.29zm72.22 -68.84l-174.27 -182.83 35.83 -34.16 192.03 50.8 -116.79 -122.52 34.22 -32.61 174.27 182.82 -36.98 35.25 -188.65 -49.56 114.56 120.18 -34.22 32.61zm90.66 -258.77c-17.77,-18.64 -29.89,-36.98 -36.4,-54.97 -4.76,-13.25 -7.04,-27.07 -6.91,-41.33 0.13,-14.26 2.78,-27.25 7.88,-39.03 6.82,-15.68 17.66,-30.64 32.55,-44.84 26.98,-25.72 56.51,-37.86 88.66,-36.59 32.15,1.35 62.43,16.92 90.86,46.76 28.19,29.58 42.22,60.39 42.07,92.37 -0.1,32.02 -13.64,60.84 -40.5,86.44 -27.19,25.92 -56.76,38.27 -88.67,36.92 -31.86,-1.31 -61.73,-16.53 -89.56,-45.73zm36.87 -37.5c19.76,20.73 39.53,31.85 59.33,33.44 19.76,1.55 37.04,-4.69 51.76,-18.72 14.77,-14.08 21.78,-30.92 21.17,-50.56 -0.69,-19.64 -11.14,-40.06 -31.38,-61.3 -20,-20.98 -39.52,-32.26 -58.57,-33.76 -19.05,-1.58 -36.17,4.91 -51.45,19.48 -15.24,14.52 -22.55,31.48 -21.93,50.79 0.66,19.35 10.99,39.56 31.07,60.63z"/>
   <g>
    <path class="fil1" d="M1033.9 2337.17c33.17,158.5 101.54,277.75 213.29,348.6 121.39,38.99 214.45,2.99 284.46,-94.03 99.64,-245.19 255.8,-392.74 488.43,-408.23 19.08,130.09 68.29,240.81 172.01,316.49 26.42,16.59 34.54,-14.01 22.93,-29.81 -143.18,-228.48 -114.26,-486.88 20.64,-763.72 11.79,-12.48 -12.34,-82.04 -50.46,-34.4 -84.3,93.05 -136.05,202.9 -153.28,332.17 -1.81,28.17 -38.72,26.72 -75.72,-1.91 -93.54,-59.32 -192.02,-71.78 -282.54,-61.57 -38.1,-35.62 -81.47,-64.64 -130.73,-86.31l-43.48 -358.97c-4.3,-27.33 -33.07,-29.17 -43.58,0l-107.79 357.78c-270.33,157.58 -313.59,320.27 -314.2,483.92z"/>
    <g style="clip-path:url(#id0)">
     <g>
      <path id="1" class="fil7" d="M1034.25 2315.36c153.22,188.94 403.43,195.59 553.93,-0.3 72.67,-94.6 80.71,-150.33 246.26,-182.97 73.58,-14.5 164.48,-14.91 277.82,4.09l158.68 -15.87 13.6 -474.9 -265.22 -43.07 -472.29 -149.43 -67.21 -12.65 -99.74 80.47 -452.23 778.65 106.4 15.96z"/>
     </g>
     <g style="clip-path:url(#id1)">
      <g>
       <path id="2" class="fil8" d="M2097.66 1933.63l-30.14 -7.89c24.93,-78.43 62.14,-150.72 117.69,-213.84 -49.11,72.49 -78.63,146.38 -87.55,221.74z"/>
      </g>
     </g>
     <g style="clip-path:url(#id2)">
      <path class="fil4" d="M1034.25 2315.36c153.22,188.94 403.43,195.59 553.93,-0.3 72.67,-94.6 80.71,-150.33 246.26,-182.97 73.58,-14.5 164.48,-14.91 277.82,4.09l158.68 -15.87 13.6 -474.9 -265.22 -43.07 -472.29 -149.43 -67.21 -12.65 -99.74 80.47 -452.23 778.65 106.4 15.96z"/>
      <path class="fil9" d="M1531.66 2445.61c-25.85,6.84 -71.64,49.07 -116.44,66.87 -57.96,22.01 -141.84,28.06 -218.75,-14.73 -20.49,-12.16 -40.9,-32.9 -74.81,-35.14 42.79,38.07 72.7,78.14 110.43,118.7 67.13,53.32 134.37,63.83 201.5,5.48 36.35,-39.17 69.47,-102.43 98.05,-141.18z"/>
     </g>
     <g style="clip-path:url(#id3)">
      <g>
       <ellipse class="fil10" cx="1340.3" cy="2599.33" rx="138.09" ry="71.29"/>
      </g>
     </g>
     <g style="clip-path:url(#id4)">
      <path class="fil4" d="M1531.66 2445.61c-25.85,6.84 -71.64,49.07 -116.44,66.87 -57.96,22.01 -141.84,28.06 -218.75,-14.73 -20.49,-12.16 -40.9,-32.9 -74.81,-35.14 42.79,38.07 72.7,78.14 110.43,118.7 67.13,53.32 134.37,63.83 201.5,5.48 36.35,-39.17 69.47,-102.43 98.05,-141.18z"/>
      <ellipse class="fil1" cx="1500.79" cy="2318.21" rx="23.8" ry="27.09"/>
      <ellipse class="fil1 str5" cx="1119.68" cy="2320.41" rx="26.04" ry="27.26"/>
      <polygon class="fil8" points="1460.43,1555.46 1424.55,1826 1395.85,1828.15 "/>
      <path class="fil8" d="M1548.7 1889.86c54.25,39.7 102.22,81.08 127.73,128.45 113.33,-1.94 216.53,10.31 310.72,35.16 -97.69,-51.62 -205.37,-73.27 -316.46,-84.68 -36.43,-41.14 -77.91,-64.59 -121.99,-78.94z"/>
      <path class="fil11" d="M1706.44 2202.29c-32.24,17.36 -58.09,42.73 -77.68,75.9 -6.67,33.17 -6.58,68.03 -0.59,104.37 63.16,-111.79 187.29,-184.32 365.89,-221.78 14.33,-4.5 7.17,-34.64 -23.72,-23.72 -86.71,29.51 -176.18,66.93 -273.97,128.09l10.08 -62.86z"/>
     </g>
    </g>
    <path class="fil4 str6" d="M1033.9 2337.17c33.17,158.5 101.54,277.75 213.29,348.6 121.39,38.99 214.45,2.99 284.46,-94.03 99.64,-245.19 255.8,-392.74 488.43,-408.23 19.08,130.09 68.29,240.81 172.01,316.49 26.42,16.59 34.54,-14.01 22.93,-29.81 -143.18,-228.48 -114.26,-486.88 20.64,-763.72 11.79,-12.48 -12.34,-82.04 -50.46,-34.4 -84.3,93.05 -136.05,202.9 -153.28,332.17 -1.81,28.17 -38.72,26.72 -75.72,-1.91 -93.54,-59.32 -192.02,-71.78 -282.54,-61.57 -38.1,-35.62 -81.47,-64.64 -130.73,-86.31l-43.48 -358.97c-4.3,-27.33 -33.07,-29.17 -43.58,0l-107.79 357.78c-270.33,157.58 -313.59,320.27 -314.2,483.92z"/>
    <path class="fil1 str6" d="M1928.66 2197.24l-45.34 74.96 -103.41 -11.24c40.85,-25.69 86.68,-48.84 148.76,-63.72z"/>
    <ellipse class="fil1 str6" cx="1501.72" cy="2317.97" rx="25.63" ry="26.85"/>
    <path class="fil1" d="M1057.63 2429.66c-65.38,48.64 -69.15,257.81 -148.02,256.47 77.68,39.2 159.95,-56.15 233.04,-95.7 -31.48,-36.54 -60.17,-90.59 -85.02,-160.77z"/>
    <g style="clip-path:url(#id5)">
     <g>
      <polygon id="1" class="fil8" points="1091.05,2533.22 1113.99,2574.51 993.96,2660.14 "/>
     </g>
    </g>
    <path class="fil4 str6" d="M1057.63 2429.66c-65.38,48.64 -69.15,257.81 -148.02,256.47 77.68,39.2 159.95,-56.15 233.04,-95.7 -31.48,-36.54 -60.17,-90.59 -85.02,-160.77z"/>
    <path class="fil1" d="M1530.53 2590.76c45.9,33.73 91.17,68.23 145.4,91.55 30.07,10.7 54.79,8.03 79.51,-4.97 -53.59,-10.43 -67.67,-62.7 -85.63,-110.86 -22.41,-40.89 -15.78,-94.77 -53.48,-141.01 -28.08,49.57 -56.02,97.66 -85.8,165.29z"/>
    <g style="clip-path:url(#id6)">
     <g>
      <path id="1" class="fil8" d="M1575.77 2530.16l-22.17 41.28 121.56 82.57c-42.94,-35.51 -78.11,-74.96 -99.39,-123.86z"/>
     </g>
    </g>
    <path class="fil4 str6" d="M1530.53 2590.76c45.9,33.73 91.17,68.23 145.4,91.55 30.07,10.7 54.79,8.03 79.51,-4.97 -53.59,-10.43 -67.67,-62.7 -85.63,-110.86 -22.41,-40.89 -15.78,-94.77 -53.48,-141.01 -28.08,49.57 -56.02,97.66 -85.8,165.29z"/>
   </g>
   <path class="fil1" d="M1033.9 2337.17c33.17,158.5 101.54,277.75 213.29,348.6 121.39,38.99 214.45,2.99 284.46,-94.03 99.64,-245.19 255.8,-392.74 488.43,-408.23 19.08,130.09 68.29,240.81 172.01,316.49 26.42,16.59 34.54,-14.01 22.93,-29.81 -143.18,-228.48 -114.26,-486.88 20.64,-763.72 11.79,-12.48 -12.34,-82.04 -50.46,-34.4 -84.3,93.05 -136.05,202.9 -153.28,332.17 -1.81,28.17 -38.72,26.72 -75.72,-1.91 -93.54,-59.32 -192.02,-71.78 -282.54,-61.57 -38.1,-35.62 -81.47,-64.64 -130.73,-86.31l-43.48 -358.97c-4.3,-27.33 -33.07,-29.17 -43.58,0l-107.79 357.78c-270.33,157.58 -313.59,320.27 -314.2,483.92z"/>
   <g style="clip-path:url(#id7)">
    <g>
     <path id="1" class="fil7" d="M1034.25 2315.36c153.22,188.94 403.43,195.59 553.93,-0.3 72.67,-94.6 80.71,-150.33 246.26,-182.97 73.58,-14.5 164.48,-14.91 277.82,4.09l158.68 -15.87 13.6 -474.9 -265.22 -43.07 -472.29 -149.43 -67.21 -12.65 -99.74 80.47 -452.23 778.65 106.4 15.96z"/>
    </g>
    <g style="clip-path:url(#id8)">
     <g>
      <path id="2" class="fil8" d="M2097.66 1933.63l-30.14 -7.89c24.93,-78.43 62.14,-150.72 117.69,-213.84 -49.11,72.49 -78.63,146.38 -87.55,221.74z"/>
     </g>
    </g>
    <g style="clip-path:url(#id9)">
     <path class="fil4" d="M1034.25 2315.36c153.22,188.94 403.43,195.59 553.93,-0.3 72.67,-94.6 80.71,-150.33 246.26,-182.97 73.58,-14.5 164.48,-14.91 277.82,4.09l158.68 -15.87 13.6 -474.9 -265.22 -43.07 -472.29 -149.43 -67.21 -12.65 -99.74 80.47 -452.23 778.65 106.4 15.96z"/>
     <path class="fil9" d="M1531.66 2445.61c-25.85,6.84 -71.64,49.07 -116.44,66.87 -57.96,22.01 -141.84,28.06 -218.75,-14.73 -20.49,-12.16 -40.9,-32.9 -74.81,-35.14 42.79,38.07 72.7,78.14 110.43,118.7 67.13,53.32 134.37,63.83 201.5,5.48 36.35,-39.17 69.47,-102.43 98.05,-141.18z"/>
    </g>
    <g style="clip-path:url(#id10)">
     <g>
      <ellipse class="fil10" cx="1340.3" cy="2599.33" rx="138.09" ry="71.29"/>
     </g>
    </g>
    <g style="clip-path:url(#id11)">
     <path class="fil4" d="M1531.66 2445.61c-25.85,6.84 -71.64,49.07 -116.44,66.87 -57.96,22.01 -141.84,28.06 -218.75,-14.73 -20.49,-12.16 -40.9,-32.9 -74.81,-35.14 42.79,38.07 72.7,78.14 110.43,118.7 67.13,53.32 134.37,63.83 201.5,5.48 36.35,-39.17 69.47,-102.43 98.05,-141.18z"/>
     <ellipse class="fil1" cx="1500.79" cy="2318.21" rx="23.8" ry="27.09"/>
     <ellipse class="fil1 str5" cx="1119.68" cy="2320.41" rx="26.04" ry="27.26"/>
     <polygon class="fil8" points="1460.43,1555.46 1424.55,1826 1395.85,1828.15 "/>
     <path class="fil8" d="M1548.7 1889.86c54.25,39.7 102.22,81.08 127.73,128.45 113.33,-1.94 216.53,10.31 310.72,35.16 -97.69,-51.62 -205.37,-73.27 -316.46,-84.68 -36.43,-41.14 -77.91,-64.59 -121.99,-78.94z"/>
     <path class="fil11" d="M1706.44 2202.29c-32.24,17.36 -58.09,42.73 -77.68,75.9 -6.67,33.17 -6.58,68.03 -0.59,104.37 63.16,-111.79 187.29,-184.32 365.89,-221.78 14.33,-4.5 7.17,-34.64 -23.72,-23.72 -86.71,29.51 -176.18,66.93 -273.97,128.09l10.08 -62.86z"/>
    </g>
   </g>
   <path class="fil4 str7" d="M1033.9 2337.17c33.17,158.5 101.54,277.75 213.29,348.6 121.39,38.99 214.45,2.99 284.46,-94.03 99.64,-245.19 255.8,-392.74 488.43,-408.23 19.08,130.09 68.29,240.81 172.01,316.49 26.42,16.59 34.54,-14.01 22.93,-29.81 -143.18,-228.48 -114.26,-486.88 20.64,-763.72 11.79,-12.48 -12.34,-82.04 -50.46,-34.4 -84.3,93.05 -136.05,202.9 -153.28,332.17 -1.81,28.17 -38.72,26.72 -75.72,-1.91 -93.54,-59.32 -192.02,-71.78 -282.54,-61.57 -38.1,-35.62 -81.47,-64.64 -130.73,-86.31l-43.48 -358.97c-4.3,-27.33 -33.07,-29.17 -43.58,0l-107.79 357.78c-270.33,157.58 -313.59,320.27 -314.2,483.92z"/>
   <path class="fil0 str7" d="M1928.66 2197.24l-45.34 74.96 -103.41 -11.24c40.85,-25.69 86.68,-48.84 148.76,-63.72z"/>
   <ellipse class="fil4" cx="1501.72" cy="2317.97" rx="25.63" ry="26.85"/>
   <path class="fil12" d="M1057.63 2429.66c-65.38,48.64 -69.15,257.81 -148.02,256.47 77.68,39.2 159.95,-56.15 233.04,-95.7 -31.48,-36.54 -60.17,-90.59 -85.02,-160.77z"/>
   <g style="clip-path:url(#id12)">
    <g>
     <polygon id="1" class="fil8" points="1091.05,2533.22 1113.99,2574.51 993.96,2660.14 "/>
    </g>
   </g>
   <path class="fil4 str7" d="M1057.63 2429.66c-65.38,48.64 -69.15,257.81 -148.02,256.47 77.68,39.2 159.95,-56.15 233.04,-95.7 -31.48,-36.54 -60.17,-90.59 -85.02,-160.77z"/>
   <path class="fil12" d="M1530.53 2590.76c45.9,33.73 91.17,68.23 145.4,91.55 30.07,10.7 54.79,8.03 79.51,-4.97 -53.59,-10.43 -67.67,-62.7 -85.63,-110.86 -22.41,-40.89 -15.78,-94.77 -53.48,-141.01 -28.08,49.57 -56.02,97.66 -85.8,165.29z"/>
   <g style="clip-path:url(#id13)">
    <g>
     <path id="1" class="fil8" d="M1575.77 2530.16l-22.17 41.28 121.56 82.57c-42.94,-35.51 -78.11,-74.96 -99.39,-123.86z"/>
    </g>
   </g>
   <path class="fil4 str7" d="M1530.53 2590.76c45.9,33.73 91.17,68.23 145.4,91.55 30.07,10.7 54.79,8.03 79.51,-4.97 -53.59,-10.43 -67.67,-62.7 -85.63,-110.86 -22.41,-40.89 -15.78,-94.77 -53.48,-141.01 -28.08,49.57 -56.02,97.66 -85.8,165.29z"/>
  </g>
 </g>
</svg>
