<?xml version="1.0" encoding="UTF-8"?>
<!DOCTYPE svg PUBLIC "-//W3C//DTD SVG 1.1//EN" "http://www.w3.org/Graphics/SVG/1.1/DTD/svg11.dtd">
<!-- Creator: CorelDRAW 2020 (64 Bit) -->
<svg xmlns="http://www.w3.org/2000/svg" xml:space="preserve" width="394.689mm" height="403.061mm" version="1.1" style="shape-rendering:geometricPrecision; text-rendering:geometricPrecision; image-rendering:optimizeQuality; fill-rule:evenodd; clip-rule:evenodd"
viewBox="0 0 24407.53 24925.25"
 xmlns:xlink="http://www.w3.org/1999/xlink"
 xmlns:xodm="http://www.corel.com/coreldraw/odm/2003">
 <defs>
  <style type="text/css">
   <![CDATA[
    .fil0 {fill:#FEFEFE}
    .fil1 {fill:#373435}
    .fil3 {fill:#019143}
    .fil8 {fill:#01A244}
    .fil14 {fill:#01AA42}
    .fil5 {fill:#049C44}
    .fil25 {fill:#058A3C}
    .fil22 {fill:#099744}
    .fil30 {fill:#282A24}
    .fil29 {fill:#293624}
    .fil32 {fill:#363728}
    .fil12 {fill:#373F42}
    .fil17 {fill:#3A423B}
    .fil39 {fill:#464937}
    .fil41 {fill:#525535}
    .fil40 {fill:#575946}
    .fil42 {fill:#60672F}
    .fil23 {fill:#663726}
    .fil48 {fill:#766E0E}
    .fil34 {fill:#767876}
    .fil38 {fill:#777967}
    .fil44 {fill:#7A8357}
    .fil33 {fill:#7A8572}
    .fil35 {fill:#7B8385}
    .fil36 {fill:#868978}
    .fil26 {fill:#888888}
    .fil7 {fill:#8B9394}
    .fil47 {fill:#95A892}
    .fil10 {fill:#A4C5D4}
    .fil24 {fill:#A6C6CA}
    .fil46 {fill:#AEB091}
    .fil20 {fill:#B94816}
    .fil28 {fill:#B9CDCC}
    .fil37 {fill:#C6C8C8}
    .fil18 {fill:#D9C904}
    .fil11 {fill:#DDE8EA}
    .fil15 {fill:#DEE9E9}
    .fil43 {fill:#E8E8B7}
    .fil13 {fill:#EAE601}
    .fil27 {fill:#F3DC04}
    .fil4 {fill:#F5DE00}
    .fil2 {fill:#F6DD00}
    .fil16 {fill:#F8F9F7}
    .fil45 {fill:#FAF08F}
    .fil31 {fill:#FAF6B9}
    .fil19 {fill:#FAFAFA}
    .fil21 {fill:#FDFDFD}
    .fil9 {fill:#FDFEFA}
    .fil6 {fill:#FDFEFD}
    .fil49 {fill:#373435;fill-rule:nonzero}
   ]]>
  </style>
 </defs>
 <g id="Camada_x0020_1">
  <metadata id="CorelCorpID_0Corel-Layer"/>
  <g id="_2561252534384">
   <g>
    <path class="fil0" d="M4820.03 515.14c2230.49,1156.55 4521.35,871.39 6772.7,-58.45l611.03 -252.36 611.03 252.36c2251.35,929.84 4542.21,1215 6772.7,58.45l993.49 -515.14 824.97 756.2c698.12,639.92 1396.25,1279.86 2094.38,1919.79l816.93 748.83 -413.37 1028.22c-552.63,1374.62 -930.86,2659.74 -1021.82,4146.92l-1.17 19.11 -1.61 19.07c-74.5,878.82 8.67,1727.61 220.2,2582.53 210.06,848.97 523.04,1669.78 781.69,2504.52 252.84,815.99 449.81,1643.9 520.1,2497.11l4.43 53.83 0.79 54.01c44.09,2988.47 -1335.68,4975.4 -4092.15,6091.24l-46.18 18.69 -47.24 15.79c-1022.47,341.75 -2078.2,562.82 -3132,782.39 -844.22,175.9 -1691.85,340.97 -2525.81,561.91 -455.69,120.72 -1087.08,289.46 -1480.64,547.95l-878.73 577.14 -878.73 -577.14c-393.56,-258.49 -1024.95,-427.23 -1480.64,-547.95 -833.95,-220.95 -1681.59,-386.02 -2525.81,-561.91 -1053.81,-219.56 -2109.53,-440.63 -3132,-782.39l-47.24 -15.79 -46.18 -18.69c-2756.47,-1115.84 -4136.23,-3102.77 -4092.15,-6091.24l0.79 -54.01 4.43 -53.83c70.29,-853.22 267.26,-1681.12 520.1,-2497.11 258.66,-834.74 571.63,-1655.55 781.69,-2504.52 211.53,-854.92 294.7,-1703.71 220.2,-2582.53l-1.61 -19.07 -1.17 -19.11c-90.96,-1487.17 -469.19,-2772.3 -1021.82,-4146.92l-413.37 -1028.22 816.93 -748.83c698.13,-639.93 1396.26,-1279.86 2094.38,-1919.79l824.97 -756.2 993.49 515.14z"/>
    <path class="fil1" d="M4649.3 844.42c2331.33,1208.85 4728.32,928.44 7085.02,-44.91l469.44 -193.89 469.44 193.89c2356.7,973.35 4753.69,1253.75 7085.02,44.91l763.28 -395.78 633.81 580.97c698.12,639.92 1396.25,1279.86 2094.38,1919.79l627.64 575.31 -317.58 789.97c-573.18,1425.75 -953.66,2719.06 -1047.9,4262.63l-0.9 14.76 -1.25 14.74c-78.42,923.49 7.46,1804.62 229.74,2702.94 211.8,856 526.68,1683.66 787.45,2525.22 245.35,791.8 436.52,1589.69 504.73,2417.78l3.41 41.36 0.61 41.5c41.53,2837.06 -1244.09,4682.44 -3860.46,5741.96l-35.5 14.37 -36.32 12.14c-1007.21,336.63 -2051.86,554.74 -3090.08,771.06 -850.63,177.23 -1704.88,343.87 -2545.14,566.48 -492.8,130.56 -1163.31,316.71 -1589.27,596.47l-675.11 443.4 -675.11 -443.4c-425.96,-279.76 -1096.47,-465.91 -1589.27,-596.47 -840.26,-222.62 -1694.51,-389.25 -2545.14,-566.48 -1038.21,-216.32 -2082.87,-434.42 -3090.08,-771.06l-36.32 -12.14 -35.5 -14.37c-2616.37,-1059.52 -3901.98,-2904.9 -3860.46,-5741.96l0.61 -41.5 3.41 -41.36c68.21,-828.09 259.38,-1625.98 504.73,-2417.78 260.77,-841.55 575.65,-1669.22 787.45,-2525.22 222.27,-898.32 308.15,-1779.45 229.74,-2702.94l-1.25 -14.74 -0.9 -14.76c-94.24,-1543.57 -474.72,-2836.88 -1047.9,-4262.63l-317.58 -789.97 627.64 -575.31c698.13,-639.92 1396.26,-1279.86 2094.38,-1919.79l633.81 -580.97 763.28 395.78z"/>
    <path class="fil0" d="M4481.02 1168.95c2428.21,1259.11 4926.99,986.83 7392.85,-31.56l329.9 -136.25 329.9 136.25c2465.86,1018.4 4964.64,1290.67 7392.85,31.56l536.39 -278.13 445.4 408.27c698.13,639.93 1396.25,1279.86 2094.38,1919.79l441.07 404.3 -223.18 555.14c-597.2,1485.49 -975.68,2762.32 -1073.6,4376.7l-0.64 10.43 -0.88 10.41c-82.45,970.38 5.78,1878.6 239.12,2821.68 213.87,864.35 529.95,1696.26 793.13,2545.61 238.34,769.19 423.34,1534.69 489.59,2339.59l2.39 29.05 0.43 29.15c39.35,2679.29 -1147.67,4391.79 -3632.15,5397.77l-24.95 10.1 -25.53 8.53c-985.9,329.4 -2031.59,547.96 -3048.76,759.89 -855.17,178.18 -1719.8,347.27 -2564.2,570.99 -525.34,139.18 -1239.73,344.4 -1696.32,644.28l-474.43 311.6 -474.43 -311.6c-456.59,-299.88 -1170.98,-505.1 -1696.32,-644.28 -844.4,-223.72 -1709.03,-392.81 -2564.2,-570.99 -1017.17,-211.93 -2062.86,-430.49 -3048.76,-759.89l-25.53 -8.53 -24.95 -10.1c-2484.47,-1005.99 -3671.49,-2718.48 -3632.15,-5397.77l0.43 -29.15 2.39 -29.05c66.25,-804.9 251.24,-1570.4 489.59,-2339.59 263.18,-849.35 579.27,-1681.26 793.13,-2545.61 233.34,-943.08 321.57,-1851.3 239.12,-2821.68l-0.88 -10.41 -0.64 -10.43c-97.92,-1614.38 -476.4,-2891.22 -1073.6,-4376.7l-223.18 -555.14 441.07 -404.3c698.13,-639.93 1396.25,-1279.86 2094.38,-1919.79l445.4 -408.27 536.39 278.13z"/>
    <path class="fil2" d="M12203.77 1936.17c-2815.01,1162.6 -5538.28,1339 -8120.57,0 -698.13,639.93 -1396.25,1279.86 -2094.38,1919.79 528.01,1313.39 1015.71,2690.13 1134.39,4646.75 283.6,3337.81 -1303.49,5200.33 -1521.65,7850.94 -32.56,2216.83 841.41,3672.6 3092.36,4584.03 2377.84,794.46 6042.81,1108.97 7509.85,2072.49 1467.04,-963.53 5132.01,-1278.04 7509.85,-2072.49 2250.96,-911.43 3124.92,-2367.2 3092.36,-4584.03 -218.16,-2650.61 -1805.25,-4513.13 -1521.65,-7850.94 118.68,-1956.61 606.38,-3333.35 1134.39,-4646.75 -698.13,-639.93 -1396.25,-1279.86 -2094.38,-1919.79 -2582.29,1339 -5305.56,1162.6 -8120.57,0z"/>
    <g>
     <path class="fil1" d="M15276.97 18291.2c28.29,39.22 55.48,79.46 81.53,120.69 69.09,109.39 128.4,223.53 177.54,341.39 22.13,-10.28 46.68,-14.88 72.92,-13.52 289.31,15 644.11,245.13 865.61,420.53 227.36,180.05 748.23,652.95 619.41,994.98 6.59,5.41 12.82,11.43 18.63,18.04 47.57,54.14 51.9,131.3 10.7,190.43 -20.72,29.73 -43.56,58.18 -68.32,85.42 33.39,56.11 28.23,126.6 -14.82,177.9 -405.48,483.07 -1210.31,609.62 -1810.14,638.05 -62.35,2.96 -117.3,-29.12 -145.38,-84.86 -0.53,-1.05 -1.04,-2.1 -1.55,-3.15 -470.6,501.75 -1142.49,783.13 -1840.69,783.13 -849.27,0 -1659.61,-416.31 -2116.13,-1139.15 -122.93,-194.63 -214.9,-404.33 -273.68,-623.21 -19.74,-50.91 -30.52,-107.82 -37.54,-164.35 -25.82,-136.55 -38.99,-276.01 -38.99,-417.01 0,-308.7 63.11,-609.96 183.92,-889.67 -23.18,-15.1 -41.89,-36.64 -54.65,-63.54 -58.07,-122.48 -85.14,-245.45 -78.69,-369.08 -40.08,-15.89 -70.21,-46.53 -85.75,-83.83 -20.06,5.31 -41.5,6.63 -63.26,3.25 -502.98,-78.26 -939.12,-367.7 -1283.89,-741.66 -0.2,1.08 -0.41,2.16 -0.63,3.25 -10.27,50.06 -41.06,88.62 -87.6,109.73 -609.9,276.58 -1416.25,233.43 -2038.45,20.3 -383.79,-131.47 -746.85,-340.14 -1030.55,-632.73 -620.18,-639.62 -682.95,-1477.13 -426.05,-2298.19 0.46,-1.48 0.87,-2.74 1.38,-4.21 122.55,-355.63 278.48,-703.98 412.18,-1056.34 133.91,-352.9 338.68,-924.33 281.43,-1303.29 -75.82,-501.89 -502.94,-631.85 -957.63,-601.8 -354.21,80.68 -562.87,264.59 -771.5,554.66 -200.48,278.74 -564.07,775.14 -945.07,758.16 -79.38,-3.54 -142.63,-65.79 -147.43,-145.11 -27.83,-459.82 406.99,-1136.15 727.76,-1448.03 213.04,-207.14 503.35,-405.65 770.39,-533.31 219.01,-104.69 469.53,-184.7 714.76,-174.01 45.83,2 84.5,21.48 113.38,57.13 4.97,6.13 512.83,-458.65 592.72,-518.94 128.98,-97.32 391.46,-291.23 578.5,-373.82 -38.33,-35.82 -76.55,-71.26 -114.46,-106.32l-65.75 -53.27c-39.81,-32.24 -59.87,-77.49 -57.05,-128.63 2.82,-51.15 27.74,-93.91 70.84,-121.58 87.35,-56.08 352.1,-63.68 456.76,-68.65 244.66,-11.63 491.35,-14.03 736.25,-12.07 241.36,1.93 485.53,7.77 726.23,25.97 74.89,5.66 202.62,13.91 311.44,37.85 2.76,-7.62 6.15,-15.15 10.17,-22.55 25.18,-46.41 67.96,-74.86 120.49,-80.13 107.13,-10.73 235.87,-133.99 301.91,-211.65 59.63,-70.12 115.71,-153.64 152.45,-238.26 26.36,-60.7 84.96,-96.7 151.01,-92.77l273.88 16.33c13.26,0.63 26.52,1.31 39.78,2.04 -15.13,-61.12 -36.69,-119.36 -49.39,-181.17 -51.75,-103.37 -134.64,-321.07 -134.93,-372.33 0,-0.02 0,-0.05 0,-0.07 -316,-30.47 -589.39,-200.52 -752.86,-480.52 -153.03,-262.1 -191.27,-601.03 -56.95,-878.94 83.32,-172.39 222.05,-297.97 395.38,-370.43 -0.51,-1.86 -1,-3.75 -1.44,-5.65 -8.28,-35.01 -13.88,-70.63 -16.83,-106.48 -18.84,-228.12 69.01,-456.55 219.98,-626.08 163.59,-183.71 392.42,-290.86 639.42,-289.38 1.94,0.01 3.88,0.06 5.81,0.14 15.48,-8.61 32.69,-14.48 51.5,-17.51l85.39 -13.74c18.92,-3.04 37.34,-2.83 54.89,0.55 32.44,-27.3 69.6,-49.15 111.96,-63.39 120.4,-40.47 239.69,-4.69 339.96,65.33 48.4,24.64 91.84,57.06 130.85,95.49 76.73,-75.46 191.44,-112.72 305.45,-96.01 160.04,13.56 280.43,111.73 366.33,244.97 8.53,9.94 16.93,20.07 25.18,30.67 16.55,21.25 26.69,45.51 30.67,70.43 41.79,88.29 71.6,184.93 90.56,279.21 110.9,-80.61 258.14,-83.83 362.36,22.75 117.22,93.73 160.24,260.09 148.21,413.6 68.03,-51.69 148.63,-101.13 250.23,-152.75 26.6,-13.52 55.14,-18.94 82.82,-16.71 20.75,-18.75 43.29,-36.03 67.96,-51.65 -2.88,-78.41 4.05,-157.63 18.47,-233.86 46.99,-248.34 202.93,-571.91 479.59,-620.12 85.83,-14.96 166.81,0.58 239.92,35.97 45.19,-50 98.53,-83.56 160.83,-102.43 11.56,-75.98 45.07,-149.06 91.67,-209.36 145.6,-188.44 389.52,-227.59 570.68,-59.32 101.49,94.26 123.95,218.14 121.99,351.15 -0.59,39.82 -5.26,78.6 -6.97,117.11 1.23,2.5 2.54,5.05 3.9,7.62 101.82,55.54 164.47,121.29 225.39,228.71 181.77,281.48 49.58,732.94 -252.04,870.58 -37.28,189.72 -199.71,447.7 -349.72,542.06 -50.08,31.5 -109.41,32.44 -160.47,2.53 -50.49,-29.58 -78.63,-81 -76.34,-139.3 0.08,-15.89 -0.46,-32.53 -1.38,-49.5 -9.33,107.08 -42.8,216.93 -77.47,303.53 -51.45,128.53 -146.09,307.01 -277.04,391.55 4.01,6.47 7.8,13.11 11.37,19.92 64.29,122.63 41.23,264.97 -18.08,384.32 -63.52,127.84 -169.83,237.25 -286.83,317.45 -142.58,97.74 -299.86,155.01 -462.03,176.88 44.82,7.83 85.84,35.21 109.27,78.09l41.49 75.93c32.17,58.88 21.82,129.88 -20.56,177.31 47.57,62.58 99.26,122.41 147.83,177.5 123.63,140.26 280.5,296.39 385.59,456.67 124.34,-64.25 290.34,-42.47 424.2,-43.9 142.16,-1.51 281.13,-10.77 422.66,3.68 178.93,-351.49 495.74,-441.42 843.58,-168.56 7.53,5.91 14.25,12.11 20.25,18.76 72.49,-27.36 157.14,-45.74 229.75,-60.84 114.66,-23.85 230.8,-42.98 346.54,-60.79 176.96,-27.23 354.4,-49.54 531.4,-75.79 156.95,-23.28 314.94,-39.72 472.6,-57.35 224.18,-25.08 457.78,-51.38 675.98,-109.48 106.31,-28.31 196.2,-73.96 271.67,-155.04 111.79,-120.09 187.83,-315.44 253.65,-464.65 84.14,-190.72 128.62,-376.6 103.44,-584.94 -18.66,-154.44 -74.28,-304.22 -76.27,-460.12 -0.24,-18.88 0.29,-37.77 1.67,-56.61 3.49,-47.64 25.82,-87.23 64.81,-114.86 396.53,-280.96 826.11,120.49 886.84,517.85 22.51,147.27 2.05,281.33 -42,422.03 -23.44,74.9 -56.09,153.94 -76.44,231.73 223.89,-45.61 486.05,-66.54 666.24,77.6 206.71,165.35 228.1,486.63 232.17,730.68 0.09,5.06 -0.05,10.04 -0.4,14.95 19.07,27.35 28.12,59.67 26.34,95 -6.92,137.14 -11.23,310.53 -111.7,415.57 2.81,12.44 4.08,25.47 3.78,39.03 -4.33,198.1 -77.31,379.54 -249,489.09 -132.86,84.77 -296.43,106.8 -450.91,91.73 -161.43,-15.74 -413.63,-94.29 -534.14,-243.05 -12.25,3.02 -25.11,4.58 -38.42,4.59 -205.63,0.32 -360.33,-76.93 -465.52,-201.09 -61.09,31.24 -137.85,64.39 -168.54,78.81 -147.02,69.11 -294.19,137.88 -441.31,206.79 -133,62.29 -266,124.58 -398.81,187.3 -75.64,35.72 -153.71,71.12 -228,109.41 -288.77,148.84 -910.8,470.43 -1219.69,484.21 -1.37,0.06 -2.73,0.11 -4.09,0.14 -8.52,27.75 -20.38,54.41 -35.41,79.67 -89.4,150.3 -251.68,209.24 -405.81,267.1 -1.63,1.48 -3.28,2.96 -4.92,4.42 -19.89,17.72 -40.55,34.8 -61.14,51.71 -63.06,51.76 -127.3,102.34 -191.6,152.55 -86.32,67.4 -175.93,139.25 -265.79,201.6 -19.42,13.47 -40.34,22.14 -61.97,25.9 23.84,43.97 41.88,85.8 51.96,124.17 34.32,11.82 63.79,35.9 83.12,69.72 604.15,1056.92 933.91,2015.14 778.88,3243.75 -4.76,37.74 -21.22,69.8 -48.06,94.14 223.38,89.13 421.9,209.72 531.05,369.43 34.38,50.3 36.65,112.08 6.29,164.47 137.41,57.42 263.64,131.85 365.56,228.08 52.9,49.95 64.07,127.46 27.41,190.31 -4.93,8.45 -10.51,16.28 -16.66,23.45 111.11,77.31 206.34,172.03 270.54,288 238.85,431.46 -93.29,915.18 -423.14,1188.38 -93.79,99.34 -243.07,192.24 -372.69,241.29l-58.66 41.48c-5.06,3.58 -9.55,6.39 -14.99,9.36 -96.73,52.97 -193.01,105.03 -293.29,151.2 -60.92,28.06 -140.72,63.89 -222.93,86.07z"/>
     <path class="fil3" d="M5525.5 11555.27c653.54,-46.92 1055.77,222.08 1132.83,732.13 98.79,653.97 -462.77,1743.78 -700.32,2433.09 -779.26,2490.61 1996.41,3307.41 3283.65,2723.66 -299.5,-327.77 -571.19,-899.49 -681.04,-1292.81 -123.83,-443.4 -99.35,-793.31 -89.46,-1278.04 -67.48,-90.19 -178.67,-182.25 -158.97,-322.41 14.73,-104.73 88.07,-246.29 100.07,-347.16 -179.92,-91.64 -315.03,-137.11 -461.44,-278.51 -337.87,-326.3 -161.43,-1048.2 -255.47,-1209.49 -2.3,-3.95 -352.84,-271.67 -404.59,-312.38 -302.76,-238.16 -472.21,-420.5 -743.4,-716.52l-657.37 -811.33c-517.46,-22.55 -1132.31,431.98 -1370.64,663.71 -288.71,280.72 -705.84,920.95 -681.22,1327.85 304.68,13.58 659.13,-480.5 812.68,-693.99 226.85,-315.4 467.16,-528.17 874.68,-617.81z"/>
     <path class="fil4" d="M12393.57 10881.15c25.06,165.98 114.14,197.23 133.33,348.62 -946.59,88.88 -1527.67,-5.46 -2169.71,-130.52 -94.03,167.41 -216.83,564.02 -245.2,703.32 412.3,2.78 382.89,-65.92 597.35,193 91.46,110.43 71.78,112.59 246.38,142.79 113.88,19.7 220.66,37.17 343.6,49.64 530.34,53.81 946.06,43.21 1484.18,25.36 132.74,4.2 145.77,-7.06 176.03,61.69 276.65,886.58 209.24,1604.42 211.81,2533.15 227.98,7.17 464.21,282.39 835.62,245.79 209.99,-20.69 440.03,5.65 650.99,-9.08 129.54,-1422.56 -259.39,-2067.97 -638.01,-2971.9 236.09,-105.78 349.61,-49.61 498.36,-116 -25.99,-179.98 -433.5,-597.81 -575.77,-766.72 -608.99,31.9 -308.82,78.15 -760.77,-499.95 -43.16,-67.68 -507.56,-738.66 -523.69,-735.8 -8.73,5.13 -247.98,846.66 -264.5,926.61z"/>
     <path class="fil5" d="M10536.76 5675.28c-458.85,-2.75 -781.53,449.7 -691.2,831.76l145.8 -3.96c7.85,-79.56 -16.57,-71.57 19.36,-159.56l45.98 172.56c183.84,8.93 357.69,63.06 454.47,172.45 -1530.95,-411.66 -1397.17,1427.06 -307.65,1439.9 403.79,68.75 843.66,-17.61 1247.04,27.16 487.34,54.09 578.7,134.18 978.33,286.78 873.28,337.01 1459.27,-467.24 1134.4,-652.54 -237.95,-135.73 -674.85,-143.94 -741.33,-63.52l338.94 88.61c73.73,27.91 123.27,61.56 142.84,142.81 -198.8,180.11 -669.97,105.96 -956.38,85.64 -564.8,-40.1 -1250.23,-153.44 -1728.31,-450.55 -168.31,-104.6 -524.92,-387.15 -568.3,-530.25 -124.35,-7.56 -222.46,95.3 -299.25,151.2 35.68,-225.18 605.9,-427.88 718.29,-222.8 -149.72,-32.12 -273.73,-11.51 -363.61,12.23 52.45,93.94 372.23,303.28 486.87,375.56 340.67,214.79 841.98,362.8 1211.69,145.75 171.13,-100.47 125.41,-29.67 520.54,60.6 303.67,69.37 594.53,88.11 890.53,-27.38 511.19,-199.45 749.41,-957.4 1328.54,-954.84 271.39,-29.08 433.24,-439.53 276.76,-674.99 -52.76,-94.17 -99.06,-142.73 -204.7,-192.24 -70.14,-126.16 -42.57,-71.9 -40.03,-243.86 1.47,-99.13 -11.39,-178.72 -72.62,-235.59 -195.57,-181.65 -423.05,53.74 -406.05,232.16 8.09,57.6 -7.41,16.44 69.4,65.57 -182.43,-25.61 -270.73,19.86 -336.18,182.55 -358.94,-364.07 -693.44,261.38 -618.52,687.22 -154.75,53.75 -224.43,169.78 -300.04,374.89 -4.46,-90.03 8.26,-177.6 54.7,-260.36 -314.6,159.84 -380.86,260.98 -621.9,635.94 24.06,-271.84 195.58,-350.59 173.7,-393.26 -51.98,-43.41 -452.8,66.75 -542.93,65.88 -156.24,-1.5 -272.56,-43.13 -389.44,-100.5 -72.28,2.47 -47.02,11.85 -79.72,105.98 -196.34,515.32 -643.91,87.18 -746.49,-217.13 -93.3,-213.89 -126.77,-476.78 -115.74,-662.32 8.31,-139.79 43.58,-201.93 60.41,-330.64l-85.39 13.74c-67.55,103.03 -123.46,163 -158.98,583.89 -51.16,-41.38 -50.6,-548.4 76.18,-564.55zm3824.3 -349.9c48.8,-12.78 104.29,37.7 123.93,112.73 19.65,75.03 -4,146.22 -52.81,159 -48.8,12.78 -104.29,-37.7 -123.93,-112.73 -19.65,-75.03 4,-146.22 52.81,-159zm-766.6 485.94c83.13,0 150.51,111.93 150.51,250.01 0,138.08 -67.39,250.01 -150.51,250.01 -83.13,0 -150.51,-111.93 -150.51,-250.01 0,-138.08 67.39,-250.01 150.51,-250.01z"/>
     <path class="fil6" d="M10960.37 12286.22c90.28,364.13 -112.13,772.76 -295.52,926.05 -83.6,69.88 -465.91,414.08 -571.57,407.1 -28.12,2.97 -51.66,-1.14 -58.17,-34.33 40.92,-228.72 16.52,-405.74 239.76,-503.62 -118.45,-207.64 -380.15,-45.79 -687.59,117.04 -211.09,111.81 -417.51,150.25 -553.52,278.89 -97.22,123.36 -374.97,419.18 -540.73,1035.97 740.21,-500.19 2458.07,-227.03 3066.98,-201.72 962.36,-390.61 1273.33,-521.94 1525.22,-152.06 40.5,-396.96 -59.94,-1671.33 -242.17,-1889.52 -447.5,59.75 -1393.45,41.55 -1869.98,-38.25 -23.44,24.43 -30.82,-47.05 -12.7,54.45z"/>
     <path class="fil5" d="M8560.87 13068.73c197.13,88.29 151.19,228.29 317.88,340.92 97.43,31.54 1103.9,-498.6 1184.44,-512.66 106.35,-18.56 317.45,72.12 296.25,253.05 -26.42,-24.83 -39.37,-34.5 -82.25,-51.95 -67.85,83.72 -213.64,171.48 -154.95,427.35 56.94,-7.97 542.59,-313.17 559.55,-445.53 21.97,-181.2 -319.38,-593.12 -447.52,-684.23 187.6,-4 372.99,349.67 454.87,525.09 188.87,-133.03 29.99,-370.76 -50.89,-505.91 -190.36,-318.09 -239.72,-266.72 -280.47,-348.94 222.69,-44.88 401.35,387.66 480.07,595.14 348.64,-46.15 -163.2,-641.8 -286.24,-737.75 -49.82,-51.23 -45.56,-43.73 -144.46,-39 -297.59,14.21 -394.89,-40.43 -479.32,70.09 -154.18,111.21 -466.27,483.67 -1058.09,699.56 -191,-187.3 -252.17,-239.56 -417.81,-517.33 -92.36,-154.88 -172.22,-439.97 -238.91,-608.98 -55.78,-141.36 -379.02,-653.58 -424.69,-719.15 79.02,18.87 513.51,397.82 484.57,436.05 -234.08,-558.2 -617.04,-1106.91 -964.89,-1240.93 -221.23,53.13 -1080.16,705.61 -1152.51,877.41 52.16,113.82 386.56,475.71 496.74,612.02 670.46,829.49 1287.8,1199.29 1908.62,1575.67z"/>
     <path class="fil7" d="M14395.58 17207.49l-32.76 -87.16c125.57,-98.33 275,62.84 314.91,93.94l29.13 23.38 176.21 -0.12c-10.49,-96.37 -54.75,-201.07 16.84,-251.63 41.23,24.9 240.06,423.14 -60,508.84 -83.16,23.75 -282.74,40.08 -349.4,-9.34 -74.57,-55.3 -53.96,-194.1 -94.93,-277.91zm-1711.75 -219.58c39.84,-57.75 -24.73,-13.98 55.37,-31.77 186.11,-41.35 166.58,83.01 305.59,127.46l51.76 17.03c3.65,1.43 10.36,4.68 14.96,7.96l86.33 0.08c-7.61,-76.5 -37.85,-154.57 -17.23,-236.54 35.79,-37.28 -17.46,-29.65 82.26,-32.52l2.94 90.73c0.23,155.8 158.73,314.13 -56.51,392.38 -29.27,35.36 -13.04,50.19 -184.63,60.86 -93.97,5.84 -161.27,10.97 -227.1,-32.92l-113.74 -362.76zm3021.97 -329.45c18.7,89.58 76.22,227.17 69.22,308.8 -9.41,109.79 -117.03,174.72 -217.97,168.54 -30.04,40.12 -124.93,49.21 -178.23,38.61 -110.03,-21.87 -39.2,-8.45 -69.72,-35.72l-66.66 -11.57 -40.78 -152.15c-32.96,-51.72 -47.56,-133.68 -55.9,-203.68l49.44 -19.91 146.18 1.97c151.54,156.65 80.18,57.67 310.03,117.19 -13.98,-98.63 -51.84,-171.87 -4.87,-241.74 103.29,-10.9 21.59,-9.08 59.25,29.66zm-1735.11 -133.88l54.42 8.34c18.69,103.5 57.1,185.97 70.61,264.01 17.07,98.53 -19.68,183.71 -110.13,203.51 -52.64,53.43 -64.38,53.78 -198.11,62.32 -140.17,8.96 -182.31,3.02 -219.54,-65.17 -56.69,-53.64 -71.85,-234.33 -95.49,-332.46 31.15,-41.55 153.55,-48.93 236.93,32.78 26.89,26.35 -5.24,5.35 31.29,29.51l53.91 20.38c43.81,7.24 106.4,1.76 159.05,7.69 -90.18,-265.04 15.74,-229.98 17.06,-230.9zm941.36 47.99c-24.93,-177.85 -46.45,-170.67 9.67,-237.4 67.69,29.91 31.4,12.46 61.06,115.7 35.69,124.25 128.44,324.98 -106.61,377.58 -45.39,40.44 53.89,2.86 -56.17,35.51 -21.78,6.46 -70.02,8.05 -94.03,8.94 -77.57,2.88 -127.2,11.69 -190.01,-28.56 -82.89,-61.2 -88.22,-187.75 -111.45,-304.43 -32.45,-28 -29.55,47.6 -40.83,-74.05 66.26,-35.64 136.2,-7.74 232.62,-6.5 34.46,42.95 53.77,61.7 79.51,95.85l216.24 17.36zm-3014.56 582.31c-247.56,207.87 -371.82,280.34 -616.25,578.97 -183.24,223.88 -415.99,484.06 -236.22,863.22 329.58,-395.13 694.7,-687.25 840.28,-815.4l11.61 -37.9c0.53,-4.95 2.7,-13.26 3.02,-19.36 0.33,-6.03 1.01,-12.7 0.95,-19.35 -0.42,-52.4 -33.27,-111.59 -33.27,-252.15l239.9 29.15c37.64,61.44 44.25,56.1 75.09,99.61l160.73 -24.9 48.4 -13.68c-27.82,-90.74 -40.68,-107.64 -8.77,-187.28 60.45,31.51 36.19,34.74 82.8,167.65 76.83,0.45 254.88,-49.14 356.09,-64.11 505.86,-74.82 774.93,-5.3 1213.38,73.45 117.55,15.79 34.04,10.91 65.97,-19.78 -9.72,-105.64 -27.33,-102.63 56.95,-132.27l31.6 89.04c4.75,209.96 276.05,192.04 427.24,330.6 60.83,15.26 59.87,21.95 88.66,-3.7 -49.89,-28.45 -42.98,101.73 -43.37,-65.5 40.14,-30.15 9.15,-14.35 65.41,-26.36l129.9 -7.2c67.5,17 85.49,68.52 128.55,114.62l187.91 18.74c-6.25,-23.73 -30.67,-105.55 -32.34,-123.67 -2.57,-27.88 -4.3,-36.76 3.86,-64.58 20.75,-70.74 -3.62,-19.11 34.7,-56.44 99.28,-2.21 41.55,-0.5 69.67,104.83 7.9,29.61 26.63,81 35.19,112.06 31.45,114.21 26.45,208.85 -62.98,233.53 -74.11,91.6 -74.8,37.29 -158.89,86.44 61.06,127.16 518.53,-129.73 655.66,-204.83l75.62 -53.47c37.26,-44.03 -6.61,-8.61 43.28,-45.9 20,-14.95 29.5,-15.99 42.3,-22.33 -15.71,-22.93 12.86,-9.02 -53.99,-23.91 -37.2,-2.41 -62.37,1.01 -97.68,0.26 -26.74,-0.57 -36.05,2.94 -63.63,-3.93 -46.79,-11.65 -21.11,-3.77 -46.55,-25.79 -124.49,-9.04 -131.78,-199.68 -147.5,-321.26 -37.93,-32.69 -22.31,9.38 -29.57,-61.69l99.31 -7.62 144.9 12.49 33.63 79.98 206.51 12.62 11.65 -25.55c9.29,-103.85 -27.82,-131.82 31.64,-199.08 64.38,27.95 12.05,-22.65 45.15,59.66l64.98 320.21c19.16,53.43 -24.22,48.59 54.25,36.02 264.03,-215.85 594.57,-638.76 394.17,-1000.76 -141.28,-255.2 -485.41,-395.18 -773.26,-467.69 -844.13,-212.64 -2041.02,26.94 -2807.31,357.71 -285.64,123.3 -822.99,418.94 -1049.35,616.58z"/>
     <path class="fil8" d="M15636.43 10840.35c273.8,-12.21 940.39,-356.19 1155.74,-467.19 133.43,-68.77 1268.4,-594.7 1277.8,-603.78l-36.81 -235.49c1.15,-108.41 -13.57,-71.59 51.84,-118.69 4.04,275.24 127.18,560.12 479.95,559.56 72.19,-115.42 65.8,-96.16 100.63,-228.05 -175.9,-106 -21.42,-258.5 9.33,-307.12 45.35,-103.08 -130.9,-198.49 11.2,-334.68 79.25,-75.96 265.43,-110.31 362.69,-141.46 396.88,-127.16 55.35,-156.45 237.27,-180.08l107.89 -16.41 62.35 159.5c1.38,-3.5 5.9,11 7.85,16.51l-89.16 20.46c-109.46,14.78 -654.34,141.52 -674.49,259.61 35.6,172.01 195.81,202.71 410.51,200.38 239.59,-2.6 527.07,-71.78 654.04,-198.39 -10.59,-635.27 -182.02,-790.51 -828.52,-633.28l-22.53 187.24c-202.47,-370.66 133.75,-596.66 72.83,-995.22 -41.7,-272.86 -344.07,-628.03 -644.64,-415.06 -21.05,287.46 222.44,554.3 -41.58,1152.78 -152.93,346.66 -252.79,607.04 -626.99,706.68 -352.84,93.96 -784.22,113.79 -1165.69,170.36 -255.19,37.85 -919.73,117.05 -1103.25,200.47 -57.97,500.41 8.66,815.69 231.74,1241.35z"/>
     <path class="fil6" d="M7168.13 9662.16c1181.46,1092.23 1113.56,1275.09 1339.76,2249.57 455.93,-363.32 1816.37,-982.68 1883.59,-1016.8 273.42,-192.74 380.36,-468.39 362.78,-690.44 -7.03,-88.65 -6.73,-125.16 -83.35,-124.77 -486.02,479.72 -1100.67,-226.35 -1361.07,-436.69 -153.87,-121.55 -2090.92,-114.66 -2211.39,-37.31l69.67 56.45z"/>
     <path class="fil9" d="M14543.13 10007.59c-22.07,-104.51 -25.35,-153.85 -21.97,-258.35 -142.58,-17.6 -284.67,-7.02 -428.45,-5.49 -120.48,1.29 -306.61,-21.11 -381.37,44.55 62.19,37.4 96.25,65.15 116.27,126.2 -294.23,-25.84 -613.95,-78.07 -908.53,-123.04 26.11,136.89 768.12,830.45 911.28,980.59 133.74,134.94 714.82,838.13 756.07,852.91 90.35,-62.69 544.71,-416.23 522.57,-414.89 127.98,-48.83 368.6,-116.46 390.13,-296.92 25.91,-88.76 -12.46,-103.17 -28.9,-180 -353.95,-894.16 -136.17,-998.58 -208.32,-1187.25 -476.2,-373.56 -667.94,165.5 -718.76,461.68z"/>
     <path class="fil10" d="M8785.33 14466.39c-70.74,32.26 -143.54,439.46 -148.4,558.83 -109.57,1189.59 819.87,2841.99 2064.49,3035.65 34.01,-167.09 51.6,-190.4 66.77,-302.16 -672.44,-9.63 -1426.42,-1251.74 -1554.47,-1852.49 -91.91,-431.18 -107.51,-694.63 19.73,-1093.5 51.88,-162.65 67.59,-133.27 240.53,-174.85 318.26,-76.52 1520.8,-106.61 1521.03,-9.16 140.66,-73.6 164.82,-95.85 329.66,-191.72 -348.94,-139.77 -2182.46,-218.57 -2500.17,-5.92 -46.31,30.57 -4.77,-7.69 -39.16,35.31z"/>
     <path class="fil5" d="M10856.09 14777.81c-177.22,121.56 -471.89,904.06 -135.6,1264.3 133.63,143.13 515.22,321.54 737.79,297.84 -66.06,-888.95 60.79,-1133.56 239.62,-1468.2 57.95,15.72 58.56,-44.93 37.12,49.76l-24.6 67.39c558.36,-156.62 553.49,-320.03 1335.79,-355.93 -7.66,-208.18 -101.15,-455.44 -264.85,-541.77 -301.48,-158.97 -1152.54,254.68 -1451.75,420.72 -140.15,77.76 -352.83,183.08 -473.52,265.88z"/>
     <path class="fil6" d="M14164.61 12107.8c414.56,1066.54 621.9,1205.59 596.45,2941.47 179.07,5.99 373.12,63.07 612.1,146.92 148.23,-1174.76 -154.68,-2089.2 -759.71,-3147.68 -245.89,38.46 -365.27,50.71 -448.83,59.29z"/>
     <path class="fil6" d="M12383.42 18727.43c56.46,117.14 310.85,328.51 402.39,419.77 117.18,116.82 109.07,91.18 325.12,89.49 124.74,-0.97 285.63,16.05 403.2,-13.61l12.3 -50.83 62.11 -84.5 93.31 -138.71c9.88,-43.5 -3.51,-78.84 59.25,-83.12 32.92,-172.31 296.78,-368.16 248.48,-542.71 -16,-16.99 -17.48,-9.65 -33.28,-40.55 -21.44,-41.92 -10.01,-7.58 -15.45,-64.99l-45.48 -126.72c-11.47,-8.36 -21.72,-7.78 -37.56,-24.93 -284.35,-18.89 -461.68,-67.07 -766.32,36.31 -271.58,92.16 -678.57,385.44 -708.08,625.11z"/>
     <path class="fil6" d="M13967.06 18704.14l-45.3 74.08 -95.08 152.93c-20.36,91.47 5.23,6.67 -20.74,64.76 -1.97,4.4 -9.89,18.09 -11.5,14.97 -1.56,-3.02 -8.66,8.59 -12.91,12.96l-43.75 125.45 8.65 180.62 18.58 47.79 65.82 122.72c-6.14,54.88 146.1,403.99 172.64,469.09 13.97,15.32 17.77,16.05 34.36,41.59 14.77,22.76 16.73,34.58 26.66,56.93l2.12 11.25c46.82,17.68 10.33,-3.74 37.83,15.97 28.81,20.64 21.57,15.69 40.07,36.39l57.93 13.97 122.72 30.46c125.17,-1.76 125.05,-36.88 195.75,-118.4 394.93,-455.45 418.97,-979.39 102.77,-1483.19 -313.73,-26.1 -514.63,-132.24 -656.6,129.65z"/>
     <path class="fil6" d="M10399.03 11011.93c76.34,147.46 1754.79,207.36 2025.34,163.54 18.38,-176.7 -392.55,-484.24 -720.45,-710.4 -236.44,-163.07 -572.96,-426.86 -833.64,-547.11 -67.63,81.76 -91.41,71.89 -67.41,210.9 53.35,309.09 -174.05,689.5 -403.84,883.08z"/>
     <path class="fil11" d="M11684.29 18594.14c-320.86,556.56 -332.18,1193.94 -44.23,1770.18l16.41 29.63 52.3 -14.33c38.26,-51.3 34.1,-40.41 103.8,-51.72l70.92 -19.06c27.44,-29.02 -23.51,-6.16 52.64,-43.9 31.59,-15.66 57.26,-18.14 91.42,-26.1l127.82 -46.16c14.9,-11.02 16.9,-14.73 50.4,-30.09 39.53,-18.11 -40.17,6.29 43.85,-9.99 47.21,-17.01 105.81,-42.8 161.43,-64.46 96.94,-37.75 103.19,-28.5 131.3,-131.65 -56.51,30.81 -25.02,-25.18 -54.21,39.48 -94.76,-139.97 -189.77,-270.38 -231.22,-481.43 -14.53,-73.99 -74.03,-637.87 81.89,-627.3 -35.27,-52.66 13.01,-26.51 -53.5,-48.61l-68.84 -72.11 -38.77 -22.34 -73.01 -65.51 -15.74 -1.53c-42.87,-21.74 -14.67,-4 -48.81,-31.92 -3.64,-2.97 -10.18,-6.2 -12.85,-15.22 -2.73,-9.21 -7.77,-11.12 -11.82,-16.56l-17.52 -0.17c-109.79,-62.11 -182.01,-25.74 -313.66,-19.15z"/>
     <path class="fil12" d="M15493.23 19302.02l29.4 384.74c32.25,-45.68 31.58,-69.89 31.74,-133.9l180.43 -3.38c5.84,549.89 -87.12,752.84 -83.99,838.38 128.89,40.18 1194.97,-179.81 1248.14,-220.35 330.14,-251.64 -775.27,-1246.25 -1298.01,-1273.37 30.49,205.23 143.9,410.78 130.47,638.57l-177.05 2.68c-1.52,-84.24 -15.71,-172.55 -61.14,-233.38z"/>
     <path class="fil11" d="M12172.82 20309.03l-95.57 56.99c-43.09,-3.56 -96.49,31.68 -131.74,48.45l-77.89 39 -75.98 53.93c-2.7,197.7 449.25,496.87 599.2,585.3 158.67,93.56 661.72,297.46 885.05,244.01 39.73,-129.35 7.55,-254.82 6.86,-388.45l-83.4 -413.86c-39.75,-18.6 -9.1,2.06 -35.19,-17.93 -25.15,-19.28 -23.2,-18.87 -39.78,-36.73l-49.48 -18.59c-58.72,-14.8 -8.9,5.32 -41.17,-11.89 -32.57,-17.36 -30.66,-18.35 -47.32,-32.19l-103.9 -47.51 -120.43 -58.15 -39.27 -12.83c-32.01,-12.75 -25.03,-6.33 -58.92,-25.67 -26.18,-14.95 -26.05,-20.66 -41.1,-34.78 -120.7,-49.97 -341.57,14.4 -449.95,70.92z"/>
     <path class="fil12" d="M13233.82 16007.72c1074.94,-311.47 1571.78,-378.34 2648.08,-241.39 -319.51,-467.52 -1874.93,-712.35 -2488.19,-373.07 -46.19,61.35 -158.5,522.26 -159.88,614.45z"/>
     <path class="fil11" d="M13556.24 20459.37l-32.09 5.43 -52.8 31.88c-27.84,35.08 31.79,23.05 -76.63,44.44 -20.59,93.67 41.05,665.29 60.16,789.76 237.94,64.55 701.18,-107.88 874.74,-200.43 199.59,-106.43 499.11,-328.78 594.07,-504.5l-5.4 -49.6c-76.28,-115.74 -73.88,-97.36 -222.33,-137.58 -44.9,-4.38 -45.35,1.82 -89.74,-15.18 -34.23,-13.11 -23.05,-17.2 -39.62,-32.95l-403.2 -114.11c10.77,72.6 22.85,28.51 -25.05,73.8 -18.71,17.69 -469.48,189.52 -582.11,109.03z"/>
     <path class="fil13" d="M12172.82 14893.45c-216.64,248.57 -239.26,731.69 -196.26,1070.64 10.98,86.58 -4.12,100.91 64.83,120.07 522.98,-415.87 807.08,-562.37 973.09,-669.69 17.98,-182.27 62.24,-494.51 27.25,-666.69 -203.2,-67.71 -701.04,34.25 -868.91,145.68z"/>
     <path class="fil14" d="M10459.85 8865.94c124.76,36.42 408.69,50.22 556.95,55.22 276.29,9.33 271.26,52.24 401.66,206.29 226.36,267.41 807.16,1439.32 807.84,1434.41 -12.35,-395.5 -63.12,-800.73 -15.58,-1164.3 -191.98,-197.36 -315.87,-323.6 -496.59,-522.9 -70.54,-77.8 -160.62,-181.31 -230.08,-271.46 -78.84,-102.32 -126.79,-217.26 -193.31,-296.53 -83.67,-20.76 -404.66,-21.64 -453.98,13.83 -37.54,50.54 -12.93,78.81 -11.75,85.98 0.02,0.11 27.31,85.58 28.21,88.48 19.67,63.39 40.66,116.32 48.31,192.2 -181.35,-1.29 -211.97,-2.31 -391.5,-50.08l-116.01 -35.76c13.67,85.19 47.47,144.63 65.83,264.62z"/>
     <path class="fil11" d="M14962.12 18550.75l-22.33 45.33 -316.14 -21.58c316.2,503.79 292.17,1027.74 -102.77,1483.19 -70.7,81.53 -70.58,116.65 -195.75,118.4l29.26 34.62c147.38,26.72 345.47,102.49 515.84,87.74 30.61,-46.94 22.76,-17.72 38.89,-73.73 34.85,-67.16 12.62,-39.4 65.07,-72.57l19.41 -57.31c29.31,-59.1 -5.55,-10.02 21.52,-39.26 30.81,-33.29 7.76,-13.33 45.77,-38.41l82.04 -105.96 8.62 -42.89c6.54,-65.38 -2.82,0.35 41.74,-30.44l26.48 -51.94c27.36,-59.89 -9.29,-3.1 17.97,-35.41 24.38,-28.89 14.03,-17.7 40.67,-38.46l35.6 -74.03c3.3,-6.34 7.29,-13.76 9.48,-19.24l21.67 -58.78c58,-245.5 -128.84,-798.39 -314.38,-1047.55 -8.09,4.97 -67.2,37.16 -68.67,38.3z"/>
     <path class="fil10" d="M11234.75 18691.73l-71.06 94.11c-160.04,292.16 -244.64,681.3 -208.68,1081.84 37.63,419.18 30.84,307.36 461,518.85 109.71,53.94 123.99,74.49 240.46,7.41l-16.41 -29.63c-287.94,-576.24 -276.63,-1213.62 44.23,-1770.18l-126.33 12.69c-104.58,-7.54 -311.2,-29.85 -323.21,84.91z"/>
     <path class="fil15" d="M13380.83 17674.63c-255.05,11 -392.86,22.79 -618.03,86.37 -127.62,36.03 -411.32,200.21 -486.36,201.36 -15.22,64.18 8.22,2.86 -21.18,53.55 -2.44,4.21 -12.34,18.58 -14.38,14.81 -2.15,-3.97 -11.15,9.24 -16.65,13.94l-30.78 109.71c-11.11,57.8 0.41,16.82 -18.28,62.78 -1.8,4.43 -9.2,18.95 -10.68,15.81 -1.45,-3.07 -8.17,9.44 -12.08,14.29l-52.49 116.69 -10.04 99.37c90.57,66.47 186.41,211.98 293.56,264.12 29.51,-239.67 436.5,-532.95 708.08,-625.11 304.64,-103.38 481.97,-55.19 766.32,-36.31l-5.06 -67.36 -117.21 -267.59 -24.98 -25.63c-118.36,-33.78 22.47,-9.76 -80.4,-36.58 -44.18,-11.52 -35.06,-6.56 -81.02,-3.54 -64.07,4.22 -96.7,10.06 -168.32,9.31z"/>
     <path class="fil10" d="M11756.08 21278.47c68.14,34.47 -7.32,-18.47 33.44,18.77 26.81,24.51 18,16.04 38.17,43.02 170.82,108.31 784.49,488.04 1013.81,323.97 4.44,-4.73 10.26,-18.97 13.01,-14.46 2.71,4.43 10.19,-10.76 13.86,-13.19 35.25,-23.34 8.15,-9.5 50.63,-26.71l35.07 -12.52c23.54,-36.99 -17.28,-23.85 69.57,-42.7l248.74 -177.9 3.51 -40.05c-223.32,53.45 -726.37,-150.44 -885.05,-244.01 -149.95,-88.42 -601.91,-387.59 -599.2,-585.3 -159.18,97.86 -97.98,81.91 -123.02,292.92 -15.65,131.95 -18.17,268.37 -18.29,402.21l105.75 75.95z"/>
     <path class="fil4" d="M8661.05 12160.36c46.5,90.76 134.57,297.88 241.59,306.4 425.69,33.9 1160.99,-822.84 1216.45,-1277.02 -259.16,83.58 -1463.79,682.81 -1458.04,970.61z"/>
     <path class="fil16" d="M12058.04 16722.05c37.76,134.82 53.74,123.09 181.22,102.28 1078.59,-772.37 2791.53,-1024.4 4035.98,-640.27 -699.17,-660.1 -3164.26,-423.18 -4217.21,537.98z"/>
     <path class="fil17" d="M11315.99 17164.65c642.25,-507.8 937.96,-744.68 1684.21,-1052.8 14.1,-14.04 202.18,-593.48 198.36,-628.63 -394.3,148.37 -1505.96,1009.06 -1882.58,1681.43z"/>
     <path class="fil18" d="M11690.03 15117.72c-190.5,134.32 -181.39,1002.83 -79.39,1342.7 41.73,-5.91 385.58,-299.13 430.75,-376.27 -68.95,-19.16 -53.85,-33.49 -64.83,-120.07 -43,-338.95 -20.38,-822.07 196.26,-1070.64 -186.53,41.53 -437.16,171.38 -482.79,224.27z"/>
     <path class="fil10" d="M13454.88 21330.88l7.19 105.62 54.23 24.57c90.81,23.35 -1.98,-12.71 40.55,12.11 33.05,19.29 26.42,16.58 45.17,34.35l85.13 41.17 78.21 36.81c45.65,32.41 72,55.43 127.05,52.2 105.81,24.14 106.32,-3.05 211.8,-21.14l120.96 -48.64c5.67,-3.82 13.31,-16.98 16.8,-11.79 3.46,5.14 12.69,-8.61 17.33,-10.63 39.33,-17.11 13.07,-8.37 58.67,-20.3l315.73 -185.36c4.08,-5.16 9.36,-20.07 11.92,-15.74 2.5,4.22 9.31,-11.74 12.71,-14.5 33.54,-27.24 6.88,-10.07 46.44,-30.67 116.3,-67.43 196.53,-186.48 282.5,-237.69 27.22,-76.12 4.89,-38.54 57.81,-62.8 85.25,-140.15 49.79,-58.2 1.57,-194.6 -64.13,-29.67 -44.02,-9.33 -53.26,-81.22l-24.93 -39.97c-3.64,-3.02 -30.11,-18.49 -44.77,-36.71 -94.96,175.71 -394.48,398.06 -594.07,504.5 -173.55,92.55 -636.8,264.98 -874.74,200.43z"/>
     <path class="fil19" d="M11930.81 8787.73c36.37,-14.96 449.24,33.91 523.29,86.49 3.76,82.93 4.35,142.49 -50.21,202.69 -159.66,408.86 -158.14,964.73 -48.72,1620.82 34.59,-200.29 26.17,-324.05 35.09,-413.38 60.21,-365.24 72.33,-882.81 262.63,-1250.29 84.49,14.67 62.37,37.75 166.36,153.08 51.32,56.92 308.49,280.13 747.12,577.43 -144.62,-252.5 -537.04,-571.69 -692.47,-886.85 -132.78,-174.98 -45.67,-170.58 -350.77,-195.82 -99.14,-8.2 -186.92,-5.71 -285.81,4.43 -163.49,16.78 -242.32,53.66 -306.5,101.4z"/>
     <path class="fil9" d="M11311.47 6733.29l54.28 48.48c85.65,-68.96 100.58,-89.94 139.93,-235.82 -25.99,-205.51 -108.81,-812.74 -421.09,-930.45 -220.92,-61.09 -273.31,127.84 -277.65,334.75 -5.27,251.24 46.13,330.89 106.37,541.35 286.22,-201.41 380.15,27.4 398.17,241.7z"/>
     <path class="fil4" d="M8525.9 13943.06c78.33,-136.98 208.44,-306.04 266.33,-422.32 -27.8,-58.81 -84.04,-128.12 -126.4,-200.08 -29.58,-50.24 -614.86,-418.69 -738.91,-433.17 6.28,167.62 24.8,493.15 75.34,636.68 82.36,233.9 308.67,385.94 523.64,418.88z"/>
     <path class="fil19" d="M10687.97 9850.6c151.35,-101.65 352.96,-397.5 383.18,-566.48 22.87,75.48 4.76,170.04 141.8,286.18 83.28,90.63 124.53,139.31 190.6,225.57 309.04,403.49 349.22,579.83 754.81,897.4 -8.58,-227.4 -741.26,-1308.95 -848.99,-1472.67 -43.44,-73.66 -116.01,-155.05 -205.74,-164.53 -262.28,-18.25 -584.67,-59.21 -857.17,-72.06 -97.74,16.7 -85.38,51.17 -152.73,147.47 -119.06,170.23 -352.67,339.46 -398.77,457.1 538.38,316.02 462.57,338.67 993.01,262.01z"/>
     <path class="fil20" d="M12217.55 7796.24c-107.63,-3.23 -324.05,-12.91 -417.2,-80.45 -48.23,-34.97 -86.33,-63.03 -148.57,-61.64 -49.49,1.1 -78.72,18.48 -154.45,24.05 -443.4,32.6 -1009.89,-243.54 -1323.8,-536.58 43.35,114.72 345.12,314.03 492.95,399.71 199.92,115.86 408.35,202.74 642.83,269.36 424.44,120.59 1127.26,216.97 1623.8,186.25 -24.57,-101.44 -625.82,-198 -715.56,-200.69z"/>
     <path class="fil9" d="M12542.36 19956.49l1.55 -44.32c7.78,-23.24 17.85,-60.97 26,-82.52 36.53,-96.62 -14.45,21.19 13.02,-33.25 13.14,-26.04 18.32,-27.18 29.28,-40.49l20.85 -91.13c7.79,-55.8 -7.51,-16.25 11.82,-66 11.02,-28.38 20.73,-36.76 28.43,-47.99 29.46,-143.6 78.77,-142.69 11.16,-288.07 -22.25,-19.16 -19.82,-15.42 -40.69,-40.76 -41.61,-50.54 30,67.02 -17.71,-34.04l-5.46 -17.12 -64.95 -68.27 -19.66 -39.52c-42.96,-21.61 -36.15,25.05 -43.87,-21.57l-10.98 -40.14 -25.77 -7.93c-62.33,-49.78 -31.28,-16.38 -61.54,-81.96l-55.01 -24.17c-155.93,-10.57 -96.42,553.31 -81.89,627.3 41.45,211.05 136.46,341.46 231.22,481.43 29.19,-64.66 -2.3,-8.67 54.21,-39.48z"/>
     <path class="fil21" d="M11477.97 6065.15l45.31 225.73c157.47,4.21 236.62,115.18 250.41,278.38 133.59,49.7 186.69,-111.76 233.55,-205.33 0.59,-223.39 -107.3,-698.73 -401.63,-718.7 -128.81,112.13 -154.61,207.63 -127.65,419.91z"/>
     <path class="fil10" d="M9391.67 9509.86c81.44,157.57 532.11,454.48 707.12,522.7 256.16,109.96 415.93,-46.75 589.17,-181.96 -530.44,76.66 -454.63,54.01 -993.01,-262.01 46.1,-117.64 279.71,-286.87 398.77,-457.1 67.36,-96.3 165.08,-124.22 262.82,-140.91l-384.11 -22.89c-101.32,233.42 -356.72,519.74 -580.77,542.18z"/>
     <path class="fil22" d="M19428.8 9456.8c-238.65,67.43 -785.38,-82.79 -758.38,180.75 31.84,85.55 51.9,89.17 128.4,135.27 171.2,47.93 452,24.56 613.91,-10.59 85.01,-5.53 244.84,-67.34 299.09,-111.57 71.31,-58.13 74.03,-220.64 79.35,-326.04 -46.65,8.93 -300.08,104.18 -362.38,132.19z"/>
     <path class="fil16" d="M15565.46 20572.01c-35.38,94.57 -123.24,195.27 -158.9,297.54 478,-36.37 1299.64,-177.65 1589.91,-594.21 -89.54,46.56 -1341.21,317.54 -1431.01,296.66z"/>
     <path class="fil23" d="M11800.35 7715.8c93.15,67.54 309.56,77.22 417.2,80.45 134.93,4.04 373.94,45.92 489.93,93.38 -55.96,-98.57 324.21,108.49 324.93,108.66 108.11,27.27 124.57,-12.28 228.36,-34.02 33.32,-153.24 -217.84,-183.49 -338.81,-218.48l-100 -19.49c-162.94,-26.44 -407.33,-76.37 -562.64,-114.74 -207.29,-51.22 -355.76,-150.22 -514.81,3.64 -11.89,67.48 55.74,100.5 55.85,100.59z"/>
     <path class="fil10" d="M9841.37 15041.52l-59.16 61.03c-40.04,27.7 -28.14,7 -68.71,47.29 -18.98,29.87 -12.11,25.33 -42.05,60.22 -19.77,23.05 -36,35.81 -53.13,50.97 259.78,-27.93 551.29,-180.65 819.11,60.54l-7.74 492.08c8.91,82.98 27.64,108.93 63.19,150.34 -63.16,-496.83 -65.87,-781.06 186.31,-1112.18l7.82 -38.26 -41.27 0.35c-138.26,2.25 -310.62,45.69 -438.04,83.45 -127.39,37.76 -254.87,111.1 -366.33,144.17z"/>
     <path class="fil22" d="M19683.09 9783.63l-67.37 4.68c-213.64,152.09 -816.89,-15.48 -893.88,75.92 -240.61,264.48 944.65,679.22 961.26,-80.6z"/>
     <path class="fil10" d="M12195.77 16831.43c-107.98,-15.24 -115.56,-57.75 -137.73,-109.38 -294.38,149.75 -1044.31,696.7 -1174.25,1428.53 382,-651.06 885.9,-1050.52 1311.98,-1319.14z"/>
     <path class="fil24" d="M12367.5 10670.81c80.58,-396.15 162.71,-960.71 317.84,-1336.51 97.16,84.03 787.59,434.51 881.01,430.28 -438.63,-297.3 -695.8,-520.51 -747.12,-577.43 -103.98,-115.34 -81.86,-138.42 -166.36,-153.08 -190.29,367.48 -202.42,885.05 -262.63,1250.29 -5.41,54.18 -29.61,371.4 -22.75,386.46z"/>
     <path class="fil25" d="M10394.02 8601.32l116.01 35.76c179.53,47.77 210.15,48.79 391.5,50.08 -7.65,-75.88 -28.64,-128.81 -48.31,-192.2 -0.9,-2.9 -28.19,-88.38 -28.21,-88.48 -1.18,-7.17 -25.79,-35.45 11.75,-85.98 49.33,-35.47 370.32,-34.59 453.98,-13.83 -50.29,-106.28 -238.76,-38.22 -470.3,-31.65 -182.32,5.17 -378.14,-6.87 -554.85,2.34 0.09,15.59 110.06,301.37 128.44,323.95z"/>
     <path class="fil9" d="M11314.66 16814.05c148.48,-166.92 249.57,-146.44 147.8,-378.34 -325.69,-167.34 -1044.91,150.87 -1025.03,-1114.13 -339.06,-305.35 -774.23,30.78 -837.19,-97.34 571.14,-565.82 1226.82,-578.43 1424.6,-608.28 -251.11,-102.9 -1232.62,-54.59 -1550.88,21.93 -172.94,41.58 -188.65,12.2 -240.53,174.85 -127.24,398.86 -111.63,662.32 -19.73,1093.5 154.12,723.08 617.63,1470.69 1292.36,1791.56 81.92,38.96 174,59.68 262.11,60.94 62.25,-287.89 400.91,-792.11 546.48,-944.68z"/>
     <path class="fil26" d="M15336.02 20971.9l-113.31 138.77c606.36,-28.74 1342.25,-157.94 1699.04,-583.01 -628.81,300.01 -1255.21,420.15 -1585.73,444.24z"/>
     <path class="fil10" d="M11065.35 9466.85c-19.82,111.1 -89.11,282.15 -73.62,316.9 462.72,299.02 775.47,590.21 1166.63,909.52 -113.63,-178 -641.26,-749.15 -754.81,-897.4 -66.06,-86.26 -107.32,-134.94 -190.6,-225.57 -109.04,-101.78 -101.73,-171.98 -141.8,-286.18 8.22,60.19 6.86,111.79 -5.79,182.73z"/>
     <path class="fil24" d="M14976.23 18468.71c-4.15,45.64 2.39,17.76 -14.11,82.04 1.48,-1.14 60.58,-33.33 68.67,-38.3 185.53,249.17 372.37,802.06 314.38,1047.55l-21.67 58.78c-2.19,5.48 -6.18,12.9 -9.48,19.24 100.83,-16.78 103.51,15.22 208.62,48.73l-29.4 -384.74c-42.31,-134.28 -67.43,-289.32 -134.51,-399.4 -4.72,-5.1 -10.91,-10.88 -13.7,-15.7 -2.83,-4.91 -8.03,-13.26 -10.69,-18.33 -22.1,-42.12 1.43,72.46 -9.51,-46.52 -44.32,-79.34 -138.48,-253.38 -209.34,-309.38l-52.46 -65.48 4.3 -21.64c-74.38,20.73 -39.17,1.39 -91.08,43.15z"/>
     <path class="fil10" d="M11843.19 8830.36c59.15,83.76 214.5,323.21 414.54,481.34 32.79,-106.3 97.34,-247.33 155.75,-326.17l-9.59 91.38c58.02,-63.99 53.91,-121.13 50.21,-202.69 -66.36,-52.31 -477.69,-100.19 -523.29,-86.49 -31.79,-1.02 -60.87,13.89 -87.61,42.63z"/>
     <path class="fil22" d="M12190.53 6276.71c-71.95,57.05 -143.15,124.14 -154.44,246.38l-54.13 148.54 -4.97 20.9c77.84,155.42 228.81,-116.51 228.81,-116.53 10.65,-62.01 5.29,-56.52 -46.08,-100.23 128.27,4.26 170.83,37.83 151.31,168.17 -21.33,-34.53 -22.79,-52.93 -48.73,-55.46 -18.43,45.71 -23.11,74 -62.07,116.39l93.49 -12.33 55.57 -2.97c76.58,-0.93 75.49,14.24 119.56,-34.67 52.04,-143.03 23.42,-330.62 -74.43,-400.33 -58.23,-66.84 -144.75,-50.24 -203.89,22.14z"/>
     <path class="fil27" d="M11573.5 8347.62c72.62,132.36 150.73,222.3 242.23,335.77 98.46,-39.65 163.4,-69.83 271.63,-91.31 101.52,-20.15 213.76,-9.13 313.59,-35.58 -198.52,-152.93 -859.77,-329.09 -840.47,-246.88 -3.98,-2.43 -1.4,0.64 13.01,38z"/>
     <path class="fil28" d="M10710.72 6256.64c25.09,143.13 134.54,530.55 262.99,589.83 49.18,-21.01 -69.19,-335.6 33.28,-409.03 -36.03,8.43 -66.74,27.53 -93.68,54.15 -60.24,-210.45 -111.65,-290.1 -106.37,-541.35 4.35,-206.9 71.67,-392.86 300.77,-324.95 -303.81,-223.97 -481.27,212.02 -396.98,631.35z"/>
     <path class="fil29" d="M14524.26 17403.94c8.77,-14.37 -25.04,-51.17 157.88,-81.18 98.33,-16.13 137.16,-26.66 231.64,6.77 4.02,164.59 -272.88,185.52 -389.52,74.41zm182.58 -166.29c-54.32,25.62 -137.54,61.55 -190.33,69.56 -31.56,-76.09 -35.94,-110.01 -84.16,-192.3 -48.11,38.67 -47.29,-66.7 -36.78,92.57 40.98,83.82 20.36,222.62 94.93,277.91 66.66,49.42 266.23,33.09 349.4,9.34 300.06,-85.7 101.23,-483.94 60,-508.84 -71.59,50.55 -27.33,155.26 -16.84,251.63l-176.21 0.12z"/>
     <path class="fil24" d="M12276.43 17962.36c75.04,-1.15 358.75,-165.34 486.36,-201.36 225.17,-63.58 362.98,-75.37 618.03,-86.37l8.25 -57.94c-261.12,-2.88 -426.63,0.61 -667.9,44.8 -86.69,15.87 -222.44,46.87 -298.96,77.76 -91.32,36.85 -117.67,126.63 -145.78,223.11z"/>
     <path class="fil30" d="M14912.05 16572.57c-44.16,66.93 50.42,-20.59 -33.96,27.53 -212.95,-31.45 -227.51,44.25 -340.89,52.25 -56.92,-158.35 5.21,-118.58 -95.43,-177.21 -26.81,35.77 -31.38,-50.29 -17.27,64.76 23.23,116.68 28.56,243.23 111.45,304.43 1.14,0.07 76.27,3.4 79.97,2.06 74.49,-26.97 2.89,23.99 56.2,-42.77l-116.86 -28.16c1.26,-17.07 -46.41,-76.71 130.15,-105.61 82.3,-13.47 170.34,-15.26 251.18,2.24 2.64,114.5 -56.15,132.11 -155.11,132.74 0,54.28 40.6,29.71 94.68,23.6 235.05,-52.59 142.31,-253.33 106.61,-377.58 -29.66,-103.24 6.63,-85.8 -61.06,-115.7 -56.11,66.74 -34.6,59.56 -9.67,237.4z"/>
     <path class="fil30" d="M15937.23 17432.23l28.59 59.67 -238.81 7.19 -90.69 39.78c-74.95,25.62 -89.14,-105.57 -94.36,-155.27l-76.47 -8.81 5.31 47.21c15.72,121.58 23.01,312.22 147.5,321.26l67.14 4c49.73,-25.7 9.84,17.02 23.38,-39.01l-107.27 -42.52c10.46,-66.97 -47.93,-21.71 51.31,-73.11 67.26,-34.84 246.54,-45.61 329.11,-14.16 -9.94,92.69 -49.5,111.66 -135.4,126.07 29.12,25.18 -48.33,48.63 60.47,21.69 60.37,-15.95 38.25,4.92 100.78,-43.49l71.19 -69.71 -64.98 -320.21c-33.1,-82.31 19.23,-31.71 -45.15,-59.66 -59.46,67.26 -22.35,95.23 -31.64,199.08z"/>
     <path class="fil30" d="M13472.44 16665.12c23.64,98.13 38.8,278.82 95.49,332.46l88.76 45.9c50.44,-46.75 27.3,32.21 6.96,-54.34 -42.5,-36 -28.88,-18.01 -37.72,-65.15 88.5,-65.7 263.69,-96.09 367.38,-56.51 14.04,71.77 -3.24,78.12 -66.13,119.8l58.39 13.15c90.45,-19.8 127.2,-104.98 110.13,-203.51 -13.52,-78.04 -51.93,-160.52 -70.61,-264.01l-54.42 -8.34c-22.16,110.47 5.32,153.64 4.58,263.85 -240.91,-12.18 -177.55,10.75 -362.5,59.85 -68.3,-130.63 -32.87,-189.11 -140.33,-183.16z"/>
     <path class="fil31" d="M13589.78 7455.86c9.65,68.61 23.08,105.09 35.83,204.67 176.03,-35.42 397.09,-549.32 319.9,-742.34 -51.99,84.97 -139.1,180.16 -213.11,264.49 -85.32,97.22 -152.3,100.38 -142.62,273.18z"/>
     <path class="fil30" d="M15448.55 16907.15c-88.89,0.74 -77.97,21.41 -171.61,51.21l-41.79 -170.76c-83.84,9.78 -19.08,-28.85 -63.53,26.84l30.04 160.53 40.78 152.15 66.66 11.57 129.72 0.3c-0.2,-6.04 -31.56,-13.02 -39.32,-17.03 -57.72,-29.82 -18.58,-9.02 -48.43,-31.87 -86.51,-36.36 -36.78,-8.52 -51.83,-57.01 88.65,-84.81 250.42,-89.92 383.05,-62.41 -8.73,94.4 -27.83,90.76 -93.76,125.7 -32.26,24.41 46.12,18.39 -77.22,35.84l45.75 3.61c100.94,6.18 208.55,-58.75 217.97,-168.54 7,-81.62 -50.52,-219.22 -69.22,-308.8l-69.41 5.66 40.55 239.99 -228.38 3.04z"/>
     <path class="fil30" d="M14800 17912.64c39.65,38.24 -79.46,40.47 64.78,35.66 130.24,-19.11 203.74,-54.95 356.17,-17.68 -9.39,71 0,59.78 -61.04,96.06 -19.27,63.86 20.93,23.53 62.25,10.03 89.43,-24.68 94.44,-119.32 62.98,-233.53 -8.55,-31.06 -27.28,-82.45 -35.19,-112.06 -28.12,-105.33 29.62,-107.04 -69.67,-104.83 -21.07,145.74 20.98,145.24 11.16,261.94 -70.61,6.83 -137.8,-6.93 -205.2,2.56 -100.95,14.2 -73.81,43.38 -186.25,61.86z"/>
     <path class="fil30" d="M13111.51 17108.59l-180.61 29.05c-72.06,75.75 -25.63,31.68 64.4,36.02 97.79,4.12 136.6,-13.64 217.68,17.85l2.05 35.09c-18.06,77.58 -22.01,38.54 -60.5,91.79l54.77 4.32c215.24,-78.25 56.74,-236.58 56.51,-392.38l-33.35 -63.16 -51.85 4.95c-20.61,81.96 9.63,160.04 17.23,236.54l-86.33 -0.08z"/>
     <path class="fil31" d="M14269.2 7129.32c117.79,-74.09 272.26,-324.73 284.7,-471.1 -24.4,-85.99 -143.01,4.06 -298.58,73.15 -16.52,10.49 16.08,354.37 13.88,397.95z"/>
     <path class="fil32" d="M13209.3 17322.72l-54.77 -4.32c-108.23,32.55 -238.42,58.39 -314.02,-45.35 22.26,-45.8 -13.65,-19.54 61.77,-55.5 68.19,-32.51 40.99,0.27 93.03,-43.89 -90.03,-4.34 -136.46,39.73 -64.4,-36.02l-103.5 28.89c-39,-116.83 -17.8,-164.81 -143.57,-178.62l113.74 362.76c65.83,43.89 133.14,38.76 227.1,32.92 171.59,-10.67 155.35,-25.5 184.63,-60.86z"/>
     <path class="fil33" d="M11885.3 17781.67l60.56 -23.86c-9.65,-148.89 -63.61,-179.09 -12.91,-251.97 67.76,74.46 29.91,89.25 87.27,172.84 72.12,-17.27 76.4,-43.15 153.6,-58.96 139.81,-28.64 92.87,13.44 169.51,-62.96l-160.73 24.9c-30.84,-43.5 -37.45,-38.16 -75.09,-99.61l-239.9 -29.15c0,140.56 32.85,199.74 33.27,252.15 0.06,6.65 -0.62,13.32 -0.95,19.35 -0.33,6.1 -2.5,14.41 -3.02,19.36l-11.61 37.9z"/>
     <path class="fil33" d="M14705.67 17796.67c-3.54,-114.66 -2.21,-35.14 19.71,-63.11 67.99,55.71 64.73,96.32 74.63,179.08 112.44,-18.48 85.3,-47.67 186.25,-61.86 67.39,-9.49 134.58,4.27 205.2,-2.56 9.83,-116.69 -32.22,-116.2 -11.16,-261.94 -38.32,37.33 -13.94,-14.3 -34.7,56.44 -8.17,27.82 -6.43,36.7 -3.86,64.58 1.68,18.13 26.09,99.95 32.34,123.67l-187.91 -18.74c-43.06,-46.1 -61.05,-97.62 -128.55,-114.62l-129.9 7.2c-56.26,12.01 -25.27,-3.8 -65.41,26.36 0.39,167.23 -6.52,37.05 43.37,65.5z"/>
     <path class="fil33" d="M13154.53 17318.4c38.5,-53.24 42.44,-14.21 60.5,-91.79l-2.05 -35.09c-81.07,-31.5 -119.89,-13.73 -217.68,-17.85 -52.04,44.16 -24.83,11.38 -93.03,43.89 -75.42,35.95 -39.52,9.7 -61.77,55.5 75.61,103.74 205.8,77.91 314.02,45.35z"/>
     <path class="fil33" d="M13472.44 16665.12c107.45,-5.94 72.02,52.53 140.33,183.16 184.94,-49.1 121.59,-72.03 362.5,-59.85 0.74,-110.21 -26.74,-153.38 -4.58,-263.85 -1.32,0.92 -107.24,-34.14 -17.06,230.9 -52.64,-5.94 -115.23,-0.46 -159.05,-7.69l-53.91 -20.38c-36.53,-24.16 -4.4,-3.16 -31.29,-29.51 -83.38,-81.71 -205.78,-74.33 -236.93,-32.78z"/>
     <path class="fil34" d="M14524.26 17403.94c116.64,111.11 393.54,90.18 389.52,-74.41 -94.48,-33.43 -133.31,-22.91 -231.64,-6.77 -182.92,30.01 -149.11,66.81 -157.88,81.18z"/>
     <path class="fil34" d="M14672.12 16803.63l109.36 1.21c98.96,-0.63 157.75,-18.24 155.11,-132.74 -80.84,-17.5 -168.88,-15.71 -251.18,-2.24 -176.57,28.9 -128.89,88.54 -130.15,105.61l116.86 28.16z"/>
     <path class="fil35" d="M13663.66 16989.14c135.16,27.15 131.06,33.05 263.54,-1.86 62.88,-41.69 80.17,-48.04 66.13,-119.8 -103.7,-39.58 -278.89,-9.2 -367.38,56.51 8.84,47.13 -4.77,29.15 37.72,65.15z"/>
     <path class="fil34" d="M15708.81 17708.25l137.75 -3.71c85.91,-14.41 125.46,-33.39 135.4,-126.07 -82.57,-31.45 -261.85,-20.69 -329.11,14.16 -99.24,51.4 -40.85,6.13 -51.31,73.11l107.27 42.52z"/>
     <path class="fil35" d="M15351.06 17090.08l237.46 6.27c65.93,-34.93 85.03,-31.29 93.76,-125.7 -132.63,-27.51 -294.39,-22.39 -383.05,62.41 15.05,48.49 -34.69,20.65 51.83,57.01z"/>
     <path class="fil33" d="M14424.5 16539.91c-14.11,-115.06 -9.54,-28.99 17.27,-64.76 100.64,58.64 38.51,18.87 95.43,177.21 113.38,-8.01 127.93,-83.71 340.89,-52.25 84.39,-48.12 -10.2,39.4 33.96,-27.53l-216.24 -17.36c-25.74,-34.15 -45.06,-52.9 -79.51,-95.85 -96.42,-1.24 -166.37,-29.15 -232.62,6.5 11.29,121.65 8.38,46.05 40.83,74.05z"/>
     <path class="fil36" d="M12930.91 17137.64l180.61 -29.05c-4.59,-3.28 -11.3,-6.53 -14.96,-7.96l-51.76 -17.03c-139.02,-44.45 -119.48,-168.8 -305.59,-127.46 -80.1,17.79 -15.53,-25.99 -55.37,31.77 125.77,13.81 104.57,61.79 143.57,178.62l103.5 -28.89z"/>
     <path class="fil28" d="M11773.69 6569.26l5.16 145.18 129.88 24.68c75.52,-147.21 101.38,-202.12 98.51,-375.18 -46.86,93.57 -99.96,255.03 -233.55,205.33z"/>
     <path class="fil35" d="M14864.78 17948.3l100.17 98.7c107.73,31.25 103.5,21.38 194.96,-20.32 61.04,-36.28 51.64,-25.06 61.04,-96.06 -152.42,-37.27 -225.93,-1.43 -356.17,17.68z"/>
     <path class="fil33" d="M15636.32 17538.87c4.4,-3.73 10.1,-15.96 12.95,-11.49 2.96,4.64 10.7,-8.56 14.8,-10.2 42.64,-17.16 -6.2,-4.73 62.94,-18.08l238.81 -7.19 -28.59 -59.67 -11.65 25.55 -206.51 -12.62 -33.63 -79.98 -144.9 -12.49 1.42 30.91c5.23,49.69 19.41,180.89 94.36,155.27z"/>
     <path class="fil33" d="M15235.15 16787.59l41.79 170.76c93.64,-29.8 82.72,-50.47 171.61,-51.21 26.61,-32.92 30.73,-28.84 83.21,-32.47 39.09,-2.71 39.68,5.15 66.39,4.46 92.8,-2.39 22.2,2.16 53.26,-8.6 -229.86,-59.51 -158.49,39.46 -310.03,-117.19l-146.18 -1.97c36.69,35.13 -33.2,-4.16 39.95,36.21z"/>
     <path class="fil33" d="M14395.58 17207.49c-10.51,-159.27 -11.33,-53.9 36.78,-92.57 48.22,82.29 52.6,116.2 84.16,192.3 52.79,-8.01 136.01,-43.94 190.33,-69.56l-29.13 -23.38c-39.91,-31.1 -189.34,-192.27 -314.91,-93.94l32.76 87.16z"/>
     <path class="fil37" d="M11311.47 6733.29l20.02 180.28 -14.33 63.56 45.3 -21.9c103.69,-32.32 141.77,-259.78 143.2,-409.27 -24.35,111.8 -62.45,179.14 -139.93,235.82l-54.28 -48.48z"/>
     <path class="fil10" d="M13107.68 15360c165.14,-85 394.19,-186.68 572.53,-236.7 -151.07,-85.65 -310.52,-162.91 -508.95,-201.2 -7.69,67.23 -19.32,267.07 -63.58,437.9z"/>
     <path class="fil37" d="M11380.72 5798.09c0.23,86.61 92.84,434.66 142.55,492.79 -26.96,-212.28 -46.47,-533.51 82.34,-645.64 -130.02,-21.9 -219.33,65.83 -224.89,152.85z"/>
     <path class="fil38" d="M15907.02 17726.23l-80.87 46.49c66.85,14.89 38.27,0.98 53.99,23.91 -12.79,6.34 -22.3,7.38 -42.3,22.33 -49.89,37.29 -6.01,1.87 -43.28,45.9 115.11,-39.81 259.74,-128.78 338.68,-215.81 -78.47,12.57 -35.09,17.41 -54.25,-36.02l-71.19 69.71c-62.53,48.41 -40.41,27.54 -100.78,43.49z"/>
     <path class="fil39" d="M13567.94 16997.58c37.23,68.2 79.37,74.13 219.54,65.17 133.73,-8.54 145.47,-8.89 198.11,-62.32l-58.39 -13.15c-132.48,34.9 -128.38,29 -263.54,1.86 20.33,86.55 43.48,7.59 -6.96,54.34l-88.76 -45.9z"/>
     <path class="fil40" d="M15309.1 17138.68c30.52,27.27 -40.31,13.85 69.72,35.72 53.31,10.61 148.2,1.52 178.23,-38.61l-45.75 -3.61c123.34,-17.45 44.96,-11.43 77.22,-35.84l-237.46 -6.27c29.84,22.84 -9.29,2.05 48.43,31.87 7.77,4.01 39.12,10.99 39.32,17.03l-129.72 -0.3z"/>
     <path class="fil40" d="M14535.95 16844.34c62.8,40.25 112.44,31.44 190.01,28.56 24.02,-0.9 72.25,-2.48 94.03,-8.94 110.06,-32.65 10.78,4.92 56.17,-35.51 -54.09,6.1 -94.68,30.67 -94.68,-23.6l-109.36 -1.21c-53.31,66.76 18.29,15.79 -56.2,42.77 -3.7,1.34 -78.83,-1.99 -79.97,-2.06z"/>
     <path class="fil41" d="M15651.41 16870.53c-31.06,10.76 39.55,6.21 -53.26,8.6 -26.7,0.69 -27.3,-7.17 -66.39,-4.46 -52.48,3.64 -56.6,-0.45 -83.21,32.47l228.38 -3.04 -40.55 -239.99 69.41 -5.66c-37.66,-38.74 44.04,-40.56 -59.25,-29.66 -46.97,69.87 -9.12,143.11 4.87,241.74z"/>
     <path class="fil42" d="M15618.29 17743.26c25.43,22.02 -0.25,14.14 46.55,25.79 27.57,6.86 36.89,3.36 63.63,3.93 35.31,0.75 60.49,-2.67 97.68,-0.26l80.87 -46.49c-108.79,26.94 -31.35,3.49 -60.47,-21.69l-137.75 3.71c-13.54,56.03 26.36,13.31 -23.38,39.01l-67.14 -4z"/>
     <path class="fil43" d="M13380.83 17674.63c71.62,0.75 104.24,-5.09 168.32,-9.31 45.97,-3.02 36.84,-7.98 81.02,3.54 102.87,26.82 -37.95,2.8 80.4,36.58l-11.82 -48.87 -309.68 -39.88 -8.25 57.94z"/>
     <path class="fil40" d="M14035.24 17532.8c33.38,33.82 -57.9,37.9 79.29,35.85 29.81,-72.49 16.5,-60.84 12.48,-150.63l30.19 26.78c3.4,2.72 12.69,10.01 16.1,12.73 3.41,2.71 11.21,7.88 16.47,12.26l-31.6 -89.04c-84.29,29.64 -66.67,26.63 -56.95,132.27 -31.93,30.7 51.58,35.57 -65.97,19.78z"/>
     <path class="fil41" d="M14964.95 18047l98.32 76.15c84.09,-49.15 84.78,5.16 158.89,-86.44 -41.32,13.5 -81.52,53.83 -62.25,-10.03 -91.46,41.7 -87.23,51.57 -194.96,20.32z"/>
     <path class="fil40" d="M15201.65 16974.96l-30.04 -160.53c44.45,-55.69 -20.3,-17.06 63.53,-26.84 -73.16,-40.37 -3.27,-1.08 -39.95,-36.21l-49.44 19.91c8.34,70 22.94,151.96 55.9,203.68z"/>
     <path class="fil6" d="M12797.01 9972.14c131.2,222.73 447.14,619.65 778.38,1186.52l300.8 -31.71c-109.86,-187.06 -876.5,-955.86 -1079.17,-1154.81z"/>
     <path class="fil40" d="M14705.67 17796.67c-28.79,25.65 -27.83,18.97 -88.66,3.7l103.45 63.48c31.42,-165.06 7.05,-41.98 -14.79,-67.18z"/>
     <path class="fil44" d="M15470.79 17422l-5.31 -47.21 76.47 8.81 -1.42 -30.91 -99.31 7.62c7.26,71.07 -8.36,29 29.57,61.69z"/>
     <path class="fil44" d="M13265.81 16930.34l-2.94 -90.73c-99.72,2.88 -46.47,-4.76 -82.26,32.52l51.85 -4.95 33.35 63.16z"/>
     <path class="fil45" d="M11266.16 22143.55c-19.45,-17.95 -14.05,-18.82 -43.7,-36.37 -49.8,-29.49 -15.53,-7.33 -55.15,-17.74 37.95,44.92 21.71,42.74 98.86,54.11z"/>
     <path class="fil46" d="M11287.36 6610.72l-48.28 -92.72c1.99,7.59 3.7,10.9 5.76,22.81 1.97,11.45 4.43,16.46 7.2,21.42 35.95,64.21 7.59,18.85 35.32,48.49z"/>
     <path class="fil40" d="M15636.32 17538.87l90.69 -39.78c-69.14,13.35 -20.3,0.92 -62.94,18.08 -4.09,1.64 -11.84,14.85 -14.8,10.2 -2.85,-4.47 -8.55,7.76 -12.95,11.49z"/>
     <path class="fil46" d="M11893.05 5862.21c-22.86,-29.33 -38,-44.94 -55.44,-64.4l55.44 64.4z"/>
     <polygon class="fil47" points="13020.13,9135.17 12977.21,9059.15 "/>
     <polygon class="fil48" points="13018.34,8895.7 12976.85,8819.77 "/>
     <path class="fil1" d="M10605.76 5756.2c6.6,-29.81 5.08,-106.64 10.22,-171.42 5.15,-64.78 16.96,-117.5 31.9,-161.15 14.95,-43.65 33.02,-78.23 53.04,-108.03 20.02,-29.81 42,-54.85 75.14,-62.02 33.14,-7.18 77.45,3.5 121.99,24.84 44.54,21.34 89.29,53.34 108.45,64.74 19.16,11.4 12.72,2.21 -2.99,-25.29 -15.71,-27.5 -40.68,-73.31 -68.84,-117.06 -28.16,-43.75 -59.49,-85.44 -97.89,-123.1 -38.4,-37.67 -83.84,-71.3 -131.57,-80.39 -47.72,-9.09 -97.71,6.36 -131.76,36.46 -34.04,30.09 -52.11,74.83 -63.91,137.08 -11.79,62.25 -17.29,142.02 -13.71,222.83 3.59,80.8 16.26,162.64 30.09,222.46 13.82,59.82 28.79,97.63 43.64,125.13 14.85,27.51 29.6,44.72 36.2,14.91z"/>
     <path class="fil1" d="M11748.64 5501.41c-8.27,-18.14 -29.37,-58.5 -63.68,-104.4 -34.31,-45.9 -81.85,-97.35 -122.81,-135.79 -40.96,-38.45 -75.34,-63.91 -113.06,-83.45 -37.72,-19.55 -78.79,-33.18 -109.64,-33.38 -30.85,-0.2 -51.48,13.02 -64.27,32.2 -12.78,19.18 -17.71,44.32 -22.71,71.61 -5,27.28 -10.08,56.71 -11.16,92.3 -1.08,35.58 1.84,77.32 12.39,111.14 10.55,33.82 28.73,59.73 48.73,71.55 20,11.82 41.81,9.54 53.95,-14.98 12.14,-24.53 14.59,-71.31 17.41,-104.53 2.81,-33.23 5.97,-52.9 9.75,-65.41 3.77,-12.52 8.14,-17.88 30.33,-13.28 22.19,4.59 62.18,19.13 97.18,33.45 35,14.32 64.99,28.41 97.72,47.27 32.73,18.86 68.17,42.5 91.81,60.91 23.64,18.4 35.45,31.59 43.63,40.22 8.18,8.63 12.73,12.73 4.45,-5.41z"/>
    </g>
   </g>
   <path class="fil49" d="M4290.84 3241.84l691.17 80.16c115.05,13.35 200.11,52.22 255.19,116.35 55.09,64.13 77.75,138.3 67.99,222.51 -8.19,70.58 -37.17,128.63 -87.19,173.8 -33.12,30.52 -79.25,51.92 -137.96,65.11 83.49,30.52 142.21,73.11 176.95,128.11 34.46,54.98 47.42,120.41 38.63,196.29 -7.19,61.98 -28.08,115.88 -62.45,162.03 -34.64,46.11 -78.61,80.45 -131.71,103.58 -33.19,14.17 -81.39,21.82 -144.86,22.63 -84.35,1.19 -140.02,0.37 -167.25,-2.78l-636.98 -73.89 138.48 -1193.89zm317.5 511.68l160.91 18.66c57.53,6.67 98.99,1.34 123.79,-15.78 24.83,-17.4 39.54,-44.7 43.89,-82.22 4.03,-34.74 -4.21,-63.3 -24.46,-85.36 -20.23,-22.34 -58.56,-36.64 -114.42,-43.12l-163.41 -18.95 -26.3 226.77zm-54.35 468.55l188.15 21.82c63.64,7.38 109.7,1.17 138.44,-18.3 28.73,-19.48 45.27,-47.98 49.69,-86.05 4.09,-35.3 -5.4,-65.13 -28.77,-89.53 -23.36,-24.4 -67.41,-40.49 -132.16,-47.99l-187.31 -21.73 -28.04 241.78zm899.45 358.17l100.06 -1197.73 616.7 51.52c114.31,9.55 201.04,26.62 259.61,51.44 58.87,24.58 104.61,65.17 137.27,121.24 32.63,56.35 45.61,122.84 39.23,199.24 -5.55,66.36 -24.56,122.6 -57.03,168.46 -32.21,46.16 -74.5,81.93 -126.92,107.87 -33.09,16.33 -77.91,28.58 -133.89,36.54 42.82,18.46 73.67,35.63 92.51,52.09 12.57,10.88 30.59,33.72 53.84,67.95 22.97,34.2 38.18,60.45 45.35,78.74l150.93 361.02 -418.2 -34.94 -167.16 -381.74c-21.14,-49.49 -40.88,-82.02 -59.21,-97.87 -25.22,-20.64 -54.85,-32.38 -88.59,-35.19l-32.62 -2.73 -40.52 485.12 -371.37 -31.03zm430.76 -679.92l156.41 13.07c16.73,1.4 50.09,-1.43 99.51,-8.25 24.93,-2.69 46.05,-13.56 63.08,-32.63 17.32,-19.05 27.05,-41.53 29.24,-67.74 3.23,-38.76 -6.54,-69.61 -29.34,-92.29 -22.79,-22.96 -67.93,-37.12 -135.68,-42.78l-162.82 -13.6 -20.4 244.22zm1616.72 638.54l-419.81 -28.5 -73.71 193.53 -378.23 -25.68 532.78 -1168.49 405.58 27.54 367.98 1229.65 -388 -26.34 -46.59 -201.7zm-60.81 -264.92l-101.65 -439.86 -160.73 422.04 262.38 17.82zm563.65 99.77l353.09 -8.92c5.42,57.31 19.44,101.51 41.82,132.02 36.49,49.8 90.11,76.16 161.12,78.81 52.84,1.97 94.12,-8.8 123.56,-32.61 29.73,-23.81 45.06,-52.07 46.29,-84.78 1.16,-31.03 -11.22,-59.5 -37.41,-85.11 -26.2,-25.61 -88.53,-50.9 -186.95,-76.7 -161.36,-42.42 -275.29,-95.39 -342.35,-158.66 -67.63,-63 -99.7,-141.47 -96.19,-235.41 2.3,-61.51 22.36,-118.99 60.19,-172.45 37.85,-53.74 93.13,-94.79 166.16,-123.41 73.02,-28.63 172.01,-40.61 296.99,-35.94 153.49,5.73 269.28,38.63 347.66,98.94 78.38,60.05 122.8,152.69 133.51,277.96l-349.69 7.64c-7.19,-54.86 -25.27,-95.3 -53.99,-121.01 -28.98,-26 -69.62,-39.84 -121.9,-41.79 -43.05,-1.61 -76.11,6.39 -98.6,23.76 -22.48,17.35 -34.22,39.31 -35.21,65.59 -0.71,19.02 7.6,36.4 24.64,52.44 16.46,16.57 57.29,32.66 122.2,48.8 160.85,41.01 275.55,80.85 344.1,119.25 68.84,38.41 118.35,84.49 148.24,138.81 29.89,54.02 43.62,113.89 41.16,179.6 -2.88,76.89 -26.78,147.1 -71.71,210.65 -45.2,63.26 -106.32,110.53 -184.18,141.22 -77.58,30.69 -174.38,43.87 -290.68,39.52 -204.09,-7.62 -344.08,-52.34 -419.71,-133.83 -75.63,-81.49 -116.35,-182.97 -122.16,-304.41zm1302.21 -753.78l372.56 8.34 -26.88 1201.6 -372.56 -8.34 26.88 -1201.6zm638.01 14.27l370.88 8.29 -20.27 906.24 580.66 12.99 -6.6 295.37 -951.55 -21.29 26.88 -1201.6zm1116.67 15.43l372.64 2.77 -8.94 1201.87 -372.65 -2.77 8.94 -1201.87zm620.27 0.23l993.73 -7.39 1.91 256.82 -621.09 4.62 1.42 191.36 575.76 -4.28 1.82 245.07 -575.76 4.29 1.76 236.68 639.55 -4.76 2.02 271.93 -1012.19 7.53 -8.94 -1201.87zm1179.69 -9.73l346.4 -12.95 475.18 646.32 -24.79 -663.15 350.59 -13.1 44.9 1201.06 -350.59 13.1 -472.54 -642.78 24.65 659.53 -348.91 13.04 -44.9 -1201.07zm1354.31 755.23l350.87 -40.57c10.54,56.6 28.47,99.36 53.5,127.74 40.81,46.32 96.58,67.77 167.54,64.04 52.81,-2.78 92.95,-17.22 120.14,-43.57 27.48,-26.38 40.21,-55.9 38.5,-88.59 -1.63,-31.01 -16.51,-58.25 -44.9,-81.41 -28.4,-23.16 -92.74,-42.75 -193.08,-59.61 -164.51,-27.77 -282.74,-70.31 -355.21,-127.3 -73.01,-56.68 -111.99,-131.95 -116.92,-225.83 -3.23,-61.46 11.59,-120.51 44.48,-177.15 32.87,-56.92 84.25,-102.76 154.41,-137.83 70.16,-35.06 167.68,-55.88 292.56,-62.44 153.38,-8.06 271.66,14.31 355.14,67.35 83.45,52.77 136,141.06 157.91,264.87l-347.6 38.99c-12.08,-53.99 -33.72,-92.64 -64.62,-115.67 -31.2,-23.3 -72.92,-33.43 -125.16,-30.68 -43.03,2.26 -75.23,13.2 -96.07,32.5 -20.84,19.3 -30.56,42.23 -29.18,68.49 1,19 10.84,35.57 29.24,50.02 17.88,15.03 59.99,27.38 126.09,37.64 163.88,26.41 281.69,55.8 353.41,87.89 72.01,32.08 125.45,73.53 160.1,124.95 34.62,51.12 53.66,109.52 57.11,175.17 4.03,76.84 -13.47,148.91 -52.51,216.24 -39.34,67.06 -95.98,119.63 -170.76,157.17 -74.51,37.54 -169.74,59.35 -285.97,65.45 -203.95,10.72 -347.39,-21.25 -430.03,-95.64 -82.63,-74.37 -132.29,-171.79 -148.98,-292.22zm1213.47 -873.27l991.47 -67.32 17.4 256.24 -619.67 42.08 12.96 190.92 574.45 -39 16.6 244.51 -574.45 39.01 16.03 236.14 638.1 -43.33 18.42 271.32 -1009.9 68.57 -81.41 -1199.14zm1730.42 -137.77l913.7 -90.95 25.6 257.24 -542.87 54.04 20.78 208.8 464.37 -46.22 24.11 242.2 -464.37 46.22 48.55 487.76 -370.83 36.91 -119.04 -1195.99zm917.41 778.22l353.51 -41 38.48 331.82 -353.5 41 -38.49 -331.82zm1342.93 -325.82l335.76 54.41c-9.61,93.29 -33.65,173.53 -72.48,240.23 -38.52,66.93 -90.12,120.36 -155.35,160.36 -64.97,39.97 -150.82,67.19 -257.59,81.39 -129.79,17.27 -237.96,12.46 -325.31,-14.03 -87.1,-26.8 -166.64,-83.68 -238.84,-170.32 -72.2,-86.64 -118.31,-204.13 -137.93,-351.66 -26.19,-196.9 6.09,-355.29 96.83,-475.18 91.06,-119.64 232.39,-192.34 424.3,-217.87 150.04,-19.95 272.19,-5.44 366.25,43.87 93.77,49.34 170.23,134 228.57,254.38l-314.93 114.99c-16.16,-34.54 -31.59,-59.3 -46.29,-74.28 -24.53,-25.25 -52.64,-43.52 -84.31,-54.56 -31.98,-11.27 -66.26,-14.33 -103.14,-9.42 -83.76,11.14 -143.36,53.22 -178.84,125.96 -26.95,54.1 -33.47,134.56 -19.34,240.78 17.56,132.01 49.51,219.48 96.25,263.22 46.71,43.47 106.25,60.39 178.91,50.72 70.45,-9.37 121.08,-36.14 151.85,-80.6 30.81,-44.17 49.25,-105.05 55.62,-182.38zm523.45 83.87l351.9 -53.02 49.77 330.32 -351.91 53.02 -49.76 -330.32z"/>
  </g>
 </g>
</svg>
