<?xml version="1.0" encoding="UTF-8"?>
<!DOCTYPE svg PUBLIC "-//W3C//DTD SVG 1.1//EN" "http://www.w3.org/Graphics/SVG/1.1/DTD/svg11.dtd">
<!-- Creator: CorelDRAW 2020 (64 Bit) -->
<svg xmlns="http://www.w3.org/2000/svg" xml:space="preserve" width="687.877mm" height="782.047mm" version="1.1" style="shape-rendering:geometricPrecision; text-rendering:geometricPrecision; image-rendering:optimizeQuality; fill-rule:evenodd; clip-rule:evenodd"
viewBox="0 0 10452.07 11882.95"
 xmlns:xlink="http://www.w3.org/1999/xlink"
 xmlns:xodm="http://www.corel.com/coreldraw/odm/2003">
 <defs>
  <style type="text/css">
   <![CDATA[
    .fil4 {fill:#201E1E}
    .fil0 {fill:black;fill-rule:nonzero}
    .fil3 {fill:#008B14;fill-rule:nonzero}
    .fil2 {fill:red;fill-rule:nonzero}
    .fil1 {fill:#FFE600;fill-rule:nonzero}
   ]]>
  </style>
 </defs>
 <g id="Camada_x0020_1">
  <metadata id="CorelCorpID_0Corel-Layer"/>
  <g id="_2346832926656">
   <g id="_2346560643152">
    <path class="fil0" d="M5223.41 414.45c0,0 1702.93,2350.45 4768.16,2350.45 54.46,0 108.89,-0.74 164.2,-2.24 0,0 853.57,6091.43 -4929.35,8844.19 0,0 -5526.85,-2336.64 -4929.35,-8861.1 0,0 126.22,16.91 345.77,16.91 805.25,0 2867.89,-227.11 4580.56,-2348.21l0.01 0zm10.84 -414.45l0 0 -206.85 256.18c-1643.03,2034.85 -3613.59,2254.54 -4384.55,2254.54 -191.9,0 -306.11,-13.9 -312.59,-14.71l-261.09 -36.13 -22.97 262.9c-37.25,406.73 -52.09,811.41 -44.11,1202.82 7.65,375.09 36.46,747.94 85.63,1108.21 91.65,671.53 257.24,1323.87 492.15,1938.89 395.75,1036.1 992.5,1985.63 1773.68,2822.21 306.31,328.03 642.05,639.24 997.92,924.99 284.64,228.56 582.83,441.52 886.3,632.98 520.21,328.2 875.68,479.73 890.56,486.02l104.22 44.06 102.17 -48.63c361.1,-171.89 709.04,-362.71 1034.18,-567.17 311.58,-195.94 610.48,-409.59 888.38,-635.02 517.9,-420.11 981.9,-896.33 1379.11,-1415.41 668.58,-873.73 1161.94,-1882.39 1466.36,-2997.93 119.29,-437.12 209.48,-891.92 268.07,-1351.76 46.85,-367.71 73.72,-739.6 79.88,-1105.34 10.55,-626.58 -43.13,-1017.66 -45.42,-1034l-31.25 -223.01 -225.1 6.12c-53.07,1.45 -104.53,2.15 -157.35,2.15 -1515.76,0 -2677.66,-612.93 -3385.48,-1127.12 -767.58,-557.61 -1174.65,-1113.65 -1178.67,-1119.2l-193.18 -266.64 -0.01 0z"/>
    <path class="fil1" d="M297.08 2745.75c0,0 2746.71,368.1 4926.33,-2331.31 0,0 1763.5,2434.46 4932.37,2348.2 0,0 853.57,6091.43 -4929.35,8844.19 0,0 -5526.85,-2336.64 -4929.35,-8861.09l0 0z"/>
    <path class="fil2" d="M972.85 4642.94l3152.87 0 0 5544.85c0,0 -2742.08,-1577.76 -3152.87,-5544.85z"/>
    <path class="fil3" d="M9479.17 4642.94l-3152.86 0 0 5544.85c0,0 2742.08,-1577.76 3152.86,-5544.85z"/>
    <path class="fil4" d="M6770.57 4276.26c-66.73,25.07 -134.94,32.39 -208.28,32.39 -114.3,0 -233.62,-18.73 -318.33,-95.09 -65.73,-59.25 -96.77,-140.55 -113.75,-221.87 -22.05,-105.55 -24.05,-221.24 -24.05,-328.54 0,-108.74 2.18,-226.33 24.99,-333.23 17.44,-81.72 49.12,-163.28 115.84,-222.32 84.42,-74.7 202.3,-93.08 315.31,-93.08 113.01,0 230.89,18.37 315.31,93.08 66.72,59.04 98.4,140.6 115.84,222.32 22.81,106.89 24.99,224.49 24.99,333.23 0,62.82 -1.15,125.95 -5.5,188.66 -2.96,42.52 -7.39,85.45 -15.52,127.43 -9.94,51.25 -24.29,92.95 -48.57,138.29l139.58 124.78 -180.55 156.64 -137.29 -122.7 -0.02 0.01zm-5131.8 -664.92c23.19,15.64 43.59,35.05 59.94,56.02 49.16,63 66.01,141.67 66.01,217.93 0,254.75 -117.46,398.34 -405.01,398.34l-425.46 0 0 -1244.06 428.87 0c241.36,0 372.63,98.86 372.63,326.38 0,79.98 -9.46,161.71 -71.22,222.92 -8.09,8.02 -16.74,15.45 -25.76,22.48l-0.01 0zm1332.35 26.61c21.25,11.48 40.47,25.9 56.32,44.45 29.01,33.94 41.22,75.2 47.44,117.27 7.94,53.67 7.52,111.23 7.52,165.38 0,36.11 0.25,72.19 2.92,108.23 2,27 5.21,56.07 12.72,82.27 2,6.97 9.7,29.96 16.76,34.1l18.73 10.32 0 83.64 -343.81 0 -5.5 -29.43c-4.79,-25.63 -8.51,-51.45 -11.48,-77.32 -7.43,-64.62 -10.29,-129.56 -12.1,-194.48 -0.7,-25.21 -1.2,-50.44 -2.15,-75.65 -0.58,-15.55 -1.05,-32.39 -3.42,-47.77 -11.89,-77.11 -73.38,-77.48 -142.44,-77.48l-82.41 0 0 502.14 -327.71 0 0 -1244.06 537.94 0c229.5,0 347.07,130.65 347.07,335.77 0,73.5 -12.18,154.14 -61.66,214.49 -16.23,19.8 -34.5,35.3 -54.76,48.14l0.01 -0.02zm1463.06 -598.4l0 808.18c0,102.77 -7.58,218.22 -68.06,307.86 -82.25,121.89 -232.99,153.05 -379.56,153.05 -146.57,0 -297.31,-31.16 -379.56,-153.05 -60.49,-89.63 -68.06,-205.09 -68.06,-307.86l0 -808.18 327.71 0 0 808.18c0,48.51 0.21,144.55 42.25,180.72 20.57,17.7 50.56,21.63 77.66,21.63 27.1,0 57.08,-3.92 77.66,-21.63 42.04,-36.17 42.25,-132.21 42.25,-180.72l0 -808.18 327.71 0zm1038.21 520.7c161.8,98.53 257.32,183.46 257.32,370.39 0,254.1 -181.2,378 -447.62,378 -113.33,0 -223.12,-26.25 -299.04,-108.15 -90.18,-97.29 -104.27,-244.29 -104.27,-366.83l0 -35.43 310.9 0 1.45 34.05c0.4,9.42 0.74,18.84 1.08,28.27 1.68,45.53 2.22,134.31 38.57,169.08 17.06,16.32 41.2,20.45 64.94,20.45 68.2,0 106.26,-35.12 106.26,-97.54 0,-71.52 -55.04,-103.68 -112.64,-139.65l-165 -103.05c-48.85,-29.25 -97.04,-60.15 -137.31,-99.21 -73.29,-71.09 -103.14,-153.76 -103.14,-250.95 0,-220.36 180.64,-345.15 410.12,-345.15 132.87,0 262.43,32.28 339.53,138.86 59.18,81.81 72.29,186.96 72.29,282.94l0 35.43 -311.35 0 -1.02 -34.46c-0.96,-32.57 -1.53,-65.29 -11.2,-96.91 -13.23,-43.26 -38.32,-67.28 -89.97,-67.28 -43.2,0 -80.7,26.35 -80.7,67.82 0,10.8 1.59,21.29 5.69,31.45 14.64,36.31 65.21,68.55 98.52,89.49l156.56 98.4 0.02 0.01zm-4210.43 -262.14l0 202.89 24.46 0c92.42,0 121.61,-21.94 121.61,-108.49 0,-22.62 -2.71,-53.2 -20.49,-70.69 -21.63,-21.28 -66.69,-23.72 -96,-23.72l-29.58 0 0 0zm0 461.46l0 265.47 41.5 0c31.96,0 80.83,-2.17 105.1,-24.53 26.68,-24.58 28.44,-78.43 28.44,-110.55 0,-33.11 -3.27,-82.32 -32,-106.52 -25.03,-21.08 -69.45,-23.87 -101.54,-23.87l-41.5 0zm1268.27 -461.46l0 224.8 82.41 0c83.88,0 147.17,-21.05 147.17,-106.93 0,-25.02 -0.62,-65.38 -17.62,-86.45 -24.28,-30.08 -95.42,-31.42 -131.25,-31.42l-80.7 0 0 -0.01zm5816.11 -258.56l0 808.18c0,102.77 -7.58,218.22 -68.06,307.86 -82.25,121.89 -232.99,153.05 -379.56,153.05 -146.57,0 -297.31,-31.16 -379.56,-153.05 -60.49,-89.63 -68.06,-205.09 -68.06,-307.86l0 -808.18 327.71 0 0 808.18c0,48.51 0.21,144.55 42.25,180.72 20.57,17.7 50.56,21.63 77.66,21.63 27.1,0 57.08,-3.92 77.66,-21.63 42.04,-36.17 42.25,-132.21 42.25,-180.72l0 -808.18 327.71 0zm801.29 258.56l0 209.16 388.57 0 0 258.56 -388.57 0 0 259.21 422.66 0 0 258.56 -750.37 0 0 -1244.06 741.85 0 0 258.56 -414.14 0 0 -0zm-2463.09 580.43c5.28,-71.68 6.17,-142.43 6.17,-215.4 0,-47.59 0.13,-95.24 -1.12,-142.82 -0.97,-37.02 -2.65,-74.62 -7.6,-111.38 -4.98,-36.88 -15.44,-92.7 -49.08,-117.68 -19.69,-14.63 -46.02,-18.17 -70.61,-18.17 -24.19,0 -49.9,3.53 -69.35,17.77 -33.9,24.83 -44.68,80.6 -49.82,117.53 -5.12,36.81 -6.93,74.48 -7.98,111.57 -1.35,47.69 -1.28,95.48 -1.28,143.2 0,45.28 -0.1,90.61 1.19,135.87 1.05,36.78 2.93,74.09 8.12,110.59 24.53,172.65 223.07,165.46 241.37,-31.05l-0 -0.01z"/>
    <path class="fil4" d="M4800.35 4870.57l0 120.81 302.65 0 0 209.93 -302.65 0 0 366.12 -263.33 0 0 -906.78 583.72 0 0 209.93 -320.38 0 -0.01 0zm792.41 504.63c15.4,0 41.41,-1.21 52.9,-13.58 20.49,-22.05 17.41,-107.41 17.41,-135.87l0 -38.59 251.94 0 0 38.59c0,27.75 -0.78,55.53 -3.49,83.16 -18.49,188.3 -126.6,276.2 -318.76,276.2 -87.87,0 -179.9,-16.1 -242.69,-82.98 -44.69,-47.59 -65.07,-110.67 -75.82,-173.78 -13.2,-77.57 -13.87,-161.18 -13.87,-239.78 0,-112.61 1.43,-263.46 78.63,-353.65 63.4,-74.08 160.84,-91.99 253.76,-91.99 112.74,0 235.96,23.99 290.81,134.57 27.52,55.5 31.43,119.62 31.43,180.55l0 38.59 -247.44 0 -4.21 -33.83c-2.62,-21.06 -3.09,-42.59 -8.02,-63.31 -8.34,-35.08 -25.61,-46.66 -62.59,-46.66 -13.25,0 -29.77,1.6 -40.3,10.64 -15.96,13.71 -21.34,46.97 -23.77,66.46 -6.33,50.94 -4.98,107.21 -4.98,158.62 0,63.13 -1.58,132.04 6.33,194.58 3.01,23.89 10.15,68.03 31.17,83.68 8.98,6.69 20.63,8.34 31.55,8.34l0.01 0.02z"/>
    <path class="fil4" d="M5156.28 6419.79l-157.94 0 0 -114.71 15.29 -0.61c42.08,-1.68 95.7,-4.96 131.62,-29.41 26.97,-18.35 43.54,-47.49 56.21,-76.8l4.15 -9.61 125.83 0 0 696.14 -175.16 0 0 -465.01 0 0.01zm82.27 1333.74c-24.48,17.66 -51.68,24.81 -85.84,24.81 -150.1,0 -184.59,-117.59 -184.59,-246.63 0,-154.1 54.29,-251.12 219.69,-251.12 60.64,0 123.64,11.98 165.29,59.85 31.22,35.88 43.63,84.04 49.66,130.16 3.59,27.4 5.08,55.19 5.87,82.8 0.87,30.75 0.82,61.54 0.82,92.31 0,60.93 -1.81,126.55 -14.57,186.27 -9.96,46.59 -27.75,93.2 -63.56,126.14 -39.47,36.32 -91.28,47.32 -143.51,47.32 -120.06,0 -202.14,-51.73 -202.14,-177.5l0 -15.92 157.46 0 2.72 12.54c1.91,8.78 3.97,23.18 9.61,30.32 7.26,9.2 19.35,11.01 30.41,11.01 10.55,0 21.12,-2 29.17,-9.24 12.75,-11.47 17.18,-34.35 19.39,-50.52 2.35,-17.2 3.35,-34.92 4.13,-52.6l0 0zm-191.11 964.49c-12.04,-7.94 -23.29,-16.64 -34.18,-28.49 -27.85,-30.29 -39.3,-67.31 -39.3,-108.07 0,-127 92.86,-194.56 213.85,-194.56 127.29,0 213.85,60.74 213.85,194.56 0,39.9 -11.13,76.5 -37.74,106.69 -10.24,11.62 -21.29,20.76 -33.24,28.9 14.99,7.73 28.37,18.98 38.79,31.55 32.53,39.25 41.93,93.91 41.93,143.47 0,142.06 -82.16,219.7 -223.59,219.7 -144.11,0 -220.66,-75.73 -220.66,-219.7 0,-49.62 9.5,-103.49 42.22,-142.63 10.57,-12.64 23.56,-23.48 38.09,-31.43l-0.01 0.01zm185.89 929.12l-265.22 0 0 -139.56 441.33 0 0 108.7 -1.81 3.46c-48.16,92.29 -94.36,186.44 -124,286.56 -27.29,92.15 -40.46,188.16 -51.75,283.38l-1.67 14.05 -176.01 0 2.8 -18.33c11.82,-77.39 24.3,-155.65 46.17,-230.94 14.09,-48.49 32.01,-95.19 52.1,-141.5 24.26,-55.92 51.03,-111.08 78.05,-165.81l0.02 -0.01zm-90.05 -2115.42c0,25.72 0.05,82 22.12,99.94 6.69,5.44 14.93,7.13 23.38,7.13 8.45,0 16.69,-1.69 23.38,-7.13 22.08,-17.94 22.12,-74.22 22.12,-99.94 0,-26.72 -0.11,-86.74 -23.55,-104.97 -6.38,-4.95 -14,-6.58 -21.95,-6.58 -7.94,0 -15.58,1.62 -21.95,6.58 -23.43,18.23 -23.55,78.26 -23.55,104.97l-0.02 0zm-0.98 1350.48c0,21.75 0.28,65.34 18.09,81.24 7.95,7.09 19.07,8.77 29.36,8.77 10.12,0 21.16,-1.62 28.96,-8.65 17.47,-15.75 17.52,-59.92 17.52,-81.36 0,-22.93 0.12,-72.65 -19.13,-89.15 -7.52,-6.45 -17.75,-8.04 -27.35,-8.04 -9.75,0 -20.03,1.65 -27.69,8.14 -19.64,16.64 -19.76,65.8 -19.76,89.05l-0 0zm6.83 -295.34c0,17.96 0.62,52.14 14.89,65.45 6.42,5.99 15.29,7.51 23.78,7.51 8.49,0 17.36,-1.51 23.78,-7.51 14.28,-13.31 14.89,-47.49 14.89,-65.45 0,-24.99 -7.39,-60.38 -38.68,-60.38 -31.28,0 -38.68,35.39 -38.68,60.38l-0 0z"/>
   </g>
  </g>
 </g>
</svg>
