<?xml version="1.0" encoding="utf-8"?>
<!-- Generator: Adobe Illustrator 23.0.1, SVG Export Plug-In . SVG Version: 6.00 Build 0)  -->
<svg version="1.1" id="Layer_1" xmlns="http://www.w3.org/2000/svg" xmlns:xlink="http://www.w3.org/1999/xlink" x="0px" y="0px"
	 viewBox="0 0 600 600" style="enable-background:new 0 0 600 600;" xml:space="preserve">
<style type="text/css">
	.st0{fill:#0B9D54;}
	.st1{fill:#ED1C24;}
	.st2{fill:#FFFFFF;}
	.st3{fill:none;}
</style>
<path class="st0" d="M255.1,457.6L23.3,321.8C13.2,316,4.9,309.9,4.9,295c0-14.9,8.3-21,18.3-26.8l231.8-135.8
	c4.1-2.4,7.8-4.4,11.1-6.1c-2.5,1.4-5.3,3.1-8.3,5L43.7,267.1c-9.6,6.1-17.5,12.4-17.5,27.9c0,15.5,7.9,21.8,17.5,27.9l214.2,135.8
	c3,1.9,5.8,3.6,8.3,5C262.9,462,259.2,460.1,255.1,457.6z"/>
<g>
	<path class="st1" d="M300.5,118.8c13.2,0,20.5,0,41.9,13.6l214.2,135.8c9.3,5.9,16.9,11.9,16.9,26.8c0,14.9-7.7,21-16.9,26.8
		L342.4,457.6c-21.4,13.6-28.7,13.6-41.9,13.6c-13.2,0-20.5,0-41.9-13.6L44.4,321.8c-9.3-5.9-16.9-11.9-16.9-26.8
		c0-14.9,7.7-21,16.9-26.8l214.2-135.8C280,118.8,287.3,118.8,300.5,118.8z"/>
	<path class="st1" d="M300.5,472.5c-13.4,0-20.8,0-42.6-13.8L43.7,322.9c-9.6-6.1-17.5-12.4-17.5-27.9c0-15.5,7.9-21.8,17.5-27.9
		l214.2-135.8c21.7-13.8,29.1-13.8,42.6-13.8c13.4,0,20.8,0,42.6,13.8l214.2,135.8c9.6,6.1,17.5,12.4,17.5,27.9
		c0,15.5-7.9,21.8-17.5,27.9L343.1,458.7C321.3,472.5,313.9,472.5,300.5,472.5z M300.5,120c-13,0-20.1,0-41.2,13.4L45.1,269.2
		c-9.3,5.9-16.3,11.5-16.3,25.8c0,14.3,7.1,19.9,16.3,25.8l214.2,135.8c21.1,13.4,28.3,13.4,41.2,13.4c13,0,20.1,0,41.2-13.4
		l214.2-135.8c9.3-5.9,16.3-11.5,16.3-25.8c0-14.3-7.1-19.9-16.3-25.8L341.7,133.4C320.6,120,313.5,120,300.5,120z"/>
</g>
<path class="st0" d="M577.7,321.8L345.9,457.6c-4.1,2.4-7.8,4.4-11.1,6.1c2.5-1.4,5.3-3.1,8.3-5l214.2-135.8
	c9.6-6.1,17.5-12.4,17.5-27.9c0-15.5-7.9-21.8-17.5-27.9L343.1,131.3c-3-1.9-5.8-3.6-8.3-5c3.3,1.6,6.9,3.6,11.1,6.1l231.8,135.8
	c10,5.9,18.3,11.9,18.3,26.8C596,309.9,587.7,316,577.7,321.8z"/>
<path class="st2" d="M52.2,270.4l207.6-124.8c20.8-12.5,27.8-12.5,40.6-12.5c12.8,0,19.8,0,40.6,12.5l207.6,124.8
	c9,5.4,16.4,11,16.4,24.6c0,13.7-7.4,19.2-16.4,24.6L341.1,444.4c-20.8,12.5-27.8,12.5-40.6,12.5c-12.8,0-19.8,0-40.6-12.5
	L52.2,319.6c-9-5.4-16.4-11-16.4-24.6C35.8,281.3,43.3,275.8,52.2,270.4z"/>
<path class="st0" d="M99.2,274.4l168.4-104.9c16.8-10.5,22.5-10.5,32.9-10.5c10.4,0,16.1,0,32.9,10.5l168.4,104.9
	c7.2,4.5,13.2,9.2,13.2,20.6c0,11.4-6,16.1-13.2,20.6L333.4,420.6C316.6,431,310.8,431,300.5,431c-10.4,0-16.1,0-32.9-10.5
	L99.2,315.6C92,311.1,86,306.4,86,295C86,283.6,92,278.9,99.2,274.4z"/>
<g>
	<path class="st1" d="M219.2,312.2h-31.6l-5.7,14.5h-28.5l41.6-88.1h30.4l26.2,88.1h-29.2L219.2,312.2z M215,293.1l-7.2-31.7
		l-12.6,31.7H215z"/>
	<path class="st1" d="M268.6,238.6H310c8.2,0,14.7,1.1,19.5,3.2c4.8,2.2,8.7,5.3,11.7,9.3c2.9,4,4.9,8.8,5.9,14.1
		c1,5.4,1.2,11.1,0.7,17.1c-0.8,9.4-2.6,16.7-5.2,21.9c-2.7,5.2-6.1,9.5-10.3,13c-4.2,3.5-8.6,5.8-13.2,7
		c-6.3,1.6-11.9,2.4-16.8,2.4h-41.4L268.6,238.6z M294.7,258.6l-4.2,48.1h6.8c5.8,0,10.1-0.6,12.6-1.9c2.6-1.3,4.7-3.5,6.4-6.6
		c1.7-3.1,2.8-8.2,3.4-15.3c0.8-9.3-0.2-15.7-3-19.2c-2.8-3.4-7.9-5.2-15.1-5.2H294.7z"/>
	<path class="st1" d="M421.8,290.7l23.8,7.2c-2.2,6.7-5.3,12.3-9.2,16.8c-3.9,4.5-8.6,7.9-14,10.2c-5.4,2.3-12.2,3.4-20.3,3.4
		c-9.8,0-17.7-1.4-23.7-4.2c-6-2.8-10.9-7.7-14.8-14.7c-3.9-7-5.4-16-4.4-26.9c1.3-14.6,6.2-25.8,14.9-33.6
		c8.6-7.8,20.2-11.7,34.7-11.7c11.4,0,20.1,2.2,26.2,6.7c6.1,4.5,10.3,11.4,12.7,20.7l-25.1,5.4c-0.6-2.7-1.4-4.7-2.2-5.9
		c-1.4-2.1-3.2-3.7-5.3-4.8c-2.2-1.1-4.6-1.7-7.4-1.7c-6.3,0-11.4,2.5-15.2,7.4c-2.9,3.7-4.7,9.5-5.3,17.3
		c-0.9,9.8,0.1,16.4,2.8,20.1c2.7,3.6,6.8,5.4,12.4,5.4c5.3,0,9.5-1.5,12.5-4.4C417.8,300.5,420.1,296.2,421.8,290.7z"/>
</g>
<g>
	<path class="st1" d="M219.2,312.2h-31.6l-5.7,14.5h-28.5l41.6-88.1h30.4l26.2,88.1h-29.2L219.2,312.2z M215,293.1l-7.2-31.7
		l-12.6,31.7H215z"/>
	<path class="st1" d="M268.6,238.6H310c8.2,0,14.7,1.1,19.5,3.2c4.8,2.2,8.7,5.3,11.7,9.3c2.9,4,4.9,8.8,5.9,14.1
		c1,5.4,1.2,11.1,0.7,17.1c-0.8,9.4-2.6,16.7-5.2,21.9c-2.7,5.2-6.1,9.5-10.3,13c-4.2,3.5-8.6,5.8-13.2,7
		c-6.3,1.6-11.9,2.4-16.8,2.4h-41.4L268.6,238.6z M294.7,258.6l-4.2,48.1h6.8c5.8,0,10.1-0.6,12.6-1.9c2.6-1.3,4.7-3.5,6.4-6.6
		c1.7-3.1,2.8-8.2,3.4-15.3c0.8-9.3-0.2-15.7-3-19.2c-2.8-3.4-7.9-5.2-15.1-5.2H294.7z"/>
	<path class="st1" d="M421.8,290.7l23.8,7.2c-2.2,6.7-5.3,12.3-9.2,16.8c-3.9,4.5-8.6,7.9-14,10.2c-5.4,2.3-12.2,3.4-20.3,3.4
		c-9.8,0-17.7-1.4-23.7-4.2c-6-2.8-10.9-7.7-14.8-14.7c-3.9-7-5.4-16-4.4-26.9c1.3-14.6,6.2-25.8,14.9-33.6
		c8.6-7.8,20.2-11.7,34.7-11.7c11.4,0,20.1,2.2,26.2,6.7c6.1,4.5,10.3,11.4,12.7,20.7l-25.1,5.4c-0.6-2.7-1.4-4.7-2.2-5.9
		c-1.4-2.1-3.2-3.7-5.3-4.8c-2.2-1.1-4.6-1.7-7.4-1.7c-6.3,0-11.4,2.5-15.2,7.4c-2.9,3.7-4.7,9.5-5.3,17.3
		c-0.9,9.8,0.1,16.4,2.8,20.1c2.7,3.6,6.8,5.4,12.4,5.4c5.3,0,9.5-1.5,12.5-4.4C417.8,300.5,420.1,296.2,421.8,290.7z"/>
</g>
<g>
	<path class="st3" d="M301.7,261.8c0,0-2.1,0-4.1,0c-0.4,4.7-3.2,36.2-3.7,41.8c1.7,0,3.4,0,3.4,0c6.6,0,9.8-0.9,11.2-1.6
		c2-1,3.6-2.7,5-5.2c1.5-2.8,2.5-7.5,3.1-14.1c0.2-2.1,0.3-3.9,0.3-5.6c0-6.6-1.3-9.8-2.6-11.3C312.1,263.1,307.9,261.8,301.7,261.8
		z"/>
	<path class="st3" d="M338.6,253c-2.6-3.6-6.1-6.4-10.4-8.3c-4.4-2-10.5-3-18.2-3c0,0-33.5,0-38.5,0c-0.5,5.2-6.6,75.6-7.2,81.8
		c5.8,0,38,0,38,0c4.7,0,10.1-0.8,16.1-2.3c4.1-1,8.1-3.2,11.9-6.4c3.9-3.2,7-7.3,9.5-12c2.5-4.8,4.1-11.8,4.9-20.7
		c0.2-2,0.3-3.9,0.3-5.8c0-3.6-0.3-7.1-0.9-10.4C343.1,261,341.3,256.7,338.6,253z M322.9,283.2c-0.7,7.5-1.9,12.9-3.8,16.5
		c-2,3.7-4.6,6.4-7.8,8c-3,1.5-7.6,2.2-14,2.2H287l4.8-54.5h9.9c8.2,0,14.1,2.1,17.6,6.3C322.6,265.9,323.8,272.9,322.9,283.2z"/>
	<path class="st3" d="M199.9,290c4,0,7.6,0,11.1,0c-0.9-3.8-2.3-10.1-4-17.8C204,279.6,201.6,285.7,199.9,290z"/>
	<path class="st3" d="M196.9,241.8c-1.6,3.3-34.9,73.8-38.6,81.8c6.2,0,18.3,0,21.3,0c1.2-3,5.7-14.5,5.7-14.5h36.4
		c0,0,2.5,11.1,3.3,14.5c3.6,0,16.8,0,22.4,0c-2.2-7.2-23.1-77.7-24.4-81.8C219.3,241.8,200.2,241.8,196.9,241.8z M190.5,296.3
		l18.2-45.5l10.3,45.5H190.5z"/>
	<path class="st3" d="M402.3,310.9c-6.5,0-11.5-2.3-14.9-6.7c-3.2-4.3-4.4-11.6-3.4-22.2c0.8-8.6,2.7-14.8,6-19
		c4.4-5.8,10.4-8.7,17.7-8.7c3.3,0,6.3,0.7,8.9,2c2.6,1.4,4.8,3.4,6.5,5.9c0.7,1,1.2,2.4,1.8,4c3.8-0.8,14.3-3.1,18.8-4
		c-2.3-6.9-5.7-12.3-10.5-15.8c-5.5-4.1-13.7-6.1-24.3-6.1c-13.7,0-24.6,3.7-32.6,10.9c-8,7.2-12.6,17.8-13.8,31.5
		c-0.9,10.2,0.5,18.7,4,25.1c3.6,6.4,8.1,10.9,13.4,13.4c5.5,2.6,13,3.9,22.3,3.9c7.6,0,14-1.1,19.1-3.2c5-2.1,9.3-5.2,12.9-9.3
		c3-3.4,5.5-7.7,7.4-12.6c-4.2-1.3-13.9-4.2-17.7-5.3c-1.8,4.6-4,8.4-6.8,11.1C413.4,309.2,408.5,310.9,402.3,310.9z"/>
	<path class="st2" d="M192.9,235.4l-44.6,94.5H184c0,0,4.5-11.6,5.7-14.5c3.4,0,23,0,26.9,0c0.8,3.4,3.3,14.5,3.3,14.5h36
		l-28.1-94.5H192.9z M225,323.6c-0.8-3.4-3.3-14.5-3.3-14.5h-36.4c0,0-4.5,11.6-5.7,14.5c-3,0-15.2,0-21.3,0
		c3.8-8,37.1-78.5,38.6-81.8c3.2,0,22.3,0,26,0c1.2,4.1,22.2,74.6,24.4,81.8C241.8,323.6,228.5,323.6,225,323.6z"/>
	<path class="st2" d="M190.5,296.3H219l-10.3-45.5L190.5,296.3z M199.9,290c1.7-4.2,4.1-10.3,7.1-17.8c1.7,7.7,3.2,14,4,17.8
		C207.5,290,203.9,290,199.9,290z"/>
	<path class="st2" d="M343.8,249.3c-3.2-4.5-7.6-8-12.9-10.4c-5.2-2.3-12.2-3.5-20.8-3.5h-44.3l-8.3,94.5h44.9
		c5.2,0,11.1-0.8,17.6-2.5c5-1.3,9.9-3.8,14.4-7.6c4.5-3.8,8.2-8.5,11.1-14c2.8-5.5,4.7-13.3,5.5-23.1c0.5-6.3,0.3-12.3-0.8-17.9
		C349.1,258.9,347,253.7,343.8,249.3z M344.7,282.1c-0.8,9-2.4,15.9-4.9,20.7c-2.4,4.8-5.6,8.8-9.5,12c-3.8,3.2-7.8,5.3-11.9,6.4
		c-6,1.5-11.4,2.3-16.1,2.3c0,0-32.2,0-38,0c0.5-6.2,6.7-76.6,7.2-81.8c5,0,38.5,0,38.5,0c7.7,0,13.8,1,18.2,3
		c4.3,1.9,7.8,4.7,10.4,8.3c2.6,3.6,4.4,8,5.4,12.9c0.6,3.3,0.9,6.8,0.9,10.4C344.9,278.2,344.8,280.1,344.7,282.1z"/>
	<path class="st2" d="M301.7,255.4h-9.9l-4.8,54.5h10.3c6.4,0,11-0.7,14-2.2c3.2-1.6,5.8-4.2,7.8-8c1.9-3.6,3.1-9,3.8-16.5
		c0.9-10.3-0.3-17.3-3.7-21.5C315.8,257.6,309.9,255.4,301.7,255.4z M316.6,282.7c-0.6,6.6-1.6,11.3-3.1,14.1c-1.4,2.6-3,4.3-5,5.2
		c-1.5,0.7-4.6,1.6-11.2,1.6c0,0-1.7,0-3.4,0c0.5-5.6,3.2-37.1,3.7-41.8c2,0,4.1,0,4.1,0c6.2,0,10.5,1.3,12.6,4
		c1.2,1.5,2.6,4.7,2.6,11.3C316.9,278.7,316.8,280.6,316.6,282.7z"/>
	<path class="st2" d="M418.8,289.8c-1.6,5-3.7,8.8-6.2,11.4c-2.4,2.3-5.8,3.5-10.3,3.5c-4.5,0-7.7-1.4-9.8-4.2
		c-1.5-2-3.2-6.8-2.2-17.9c0.6-7.2,2.2-12.5,4.7-15.7c3.2-4.2,7.4-6.2,12.7-6.2c2.3,0,4.3,0.4,6,1.3c1.7,0.9,3,2.1,4.1,3.8
		c0.4,0.7,1.1,2,1.8,4.9l0.7,3l31.3-6.7l-0.8-3.2c-2.5-10-7.2-17.6-13.9-22.5c-6.6-4.9-16.1-7.4-28.1-7.4
		c-15.3,0-27.7,4.2-36.9,12.6c-9.2,8.3-14.5,20.4-15.9,35.7c-1,11.5,0.6,21.2,4.8,28.7c4.2,7.6,9.7,13,16.3,16
		c6.4,3,14.8,4.5,25,4.5c8.5,0,15.7-1.2,21.5-3.7c5.9-2.5,11-6.2,15.2-11c4.2-4.8,7.5-10.8,9.9-17.9l1-3.1l-29.9-9L418.8,289.8z
		 M441.5,299.9c-2,4.9-4.4,9.2-7.4,12.6c-3.6,4.1-7.9,7.2-12.9,9.3c-5,2.1-11.4,3.2-19.1,3.2c-9.3,0-16.8-1.3-22.3-3.9
		c-5.3-2.5-9.8-7-13.4-13.4c-3.6-6.4-4.9-14.9-4-25.1c1.2-13.7,5.8-24.3,13.8-31.5c8-7.2,19-10.9,32.6-10.9
		c10.6,0,18.8,2.1,24.3,6.1c4.8,3.5,8.2,8.9,10.5,15.8c-4.4,0.9-15,3.2-18.8,4c-0.5-1.6-1.1-3-1.8-4c-1.7-2.5-3.8-4.5-6.5-5.9
		c-2.6-1.4-5.6-2-8.9-2c-7.3,0-13.3,2.9-17.7,8.7c-3.3,4.2-5.2,10.4-6,19c-0.9,10.7,0.2,17.9,3.4,22.2c3.3,4.4,8.4,6.7,14.9,6.7
		c6.2,0,11.1-1.8,14.7-5.3c2.8-2.7,5-6.5,6.8-11.1C427.5,295.7,437.3,298.7,441.5,299.9z"/>
</g>
<g>
	<path class="st2" d="M214,357.4c-2.8,4.9-8.1,7.9-12.9,7.9c-7.2,0-11.8-6.4-10.5-13.9c1.3-7.3,8.1-13.7,15.2-13.7
		c4.1,0,8.9,2.3,10.3,8.1h-5.2c-1.4-2.2-3.3-3.5-6-3.5c-4,0-8.8,3.9-9.7,9.2c-0.9,5,2.3,9.3,6.7,9.3c3.3,0,5.5-2.1,6.8-3.3H214z"/>
	<path class="st2" d="M228.5,338.2h3.6l5.8,26.5h-5.1l-1.5-6.8h-8.9l-3.8,6.8h-5.1L228.5,338.2z M224.8,353.3h5.7l-1.4-8.1H229
		L224.8,353.3z"/>
	<path class="st2" d="M245.1,338.2h4.9c2.8,0,5.5,0,7.3,2c1,1.2,1.6,3.1,1.3,4.9c-0.6,3.3-2.8,4.6-3.7,5.1c1.5,0.6,3.9,2.1,3.1,6.6
		c-0.6,3.2-2.5,5.2-4.2,6.3c-2.1,1.4-5.1,1.6-6.7,1.6h-6.6L245.1,338.2z M245.9,360.2h2.3c0.9,0,4.6,0,5.2-3.5
		c0.2-1.1,0.1-3.6-3.9-3.6h-2.4L245.9,360.2z M247.9,348.6h1.5c1.1,0,4,0,4.5-2.9c0.3-1.6-0.4-2.9-3.1-2.9h-1.9L247.9,348.6z"/>
	<path class="st2" d="M276.4,337.7c7.1,0,11.9,6,10.6,13.9c-1.3,7.6-8.2,13.7-15.4,13.7c-7.2,0-11.9-6.1-10.6-13.7
		C262.4,343.7,269.4,337.7,276.4,337.7z M272.4,360.7c4.7,0,9.1-4.3,10-9.2c0.9-5.1-2.1-9.3-6.8-9.3c-4.7,0-9.1,4.2-10,9.3
		C264.8,356.5,267.7,360.7,272.4,360.7z"/>
	<path class="st2" d="M292.5,338.2h12.7l-0.8,4.6h-8.1l-1.1,6.5h7.7l-0.8,4.6h-7.7l-1.9,10.9h-4.6L292.5,338.2z"/>
	<path class="st2" d="M308.7,338.2h7.6c2.9,0,4.5,0.6,5.7,1.8c1.2,1.2,2.3,3.4,1.8,6.4c-0.3,1.8-1.4,4.5-3.5,6.3
		c-1.7,1.5-3.2,1.9-4.5,2.2l5,9.8h-5.6l-4.8-10.1h-0.1l-1.8,10.1h-4.6L308.7,338.2z M311.1,350.9h3c3.8,0,4.9-2.7,5.1-4.1
		c0.3-1.5-0.1-4-3.7-4h-3L311.1,350.9z"/>
	<path class="st2" d="M328.5,338.2h4.6l-4.6,26.5h-4.6L328.5,338.2z"/>
	<path class="st2" d="M337.5,338.2h13.4l-0.8,4.6h-8.8l-1.1,6.5h8.4l-0.8,4.6h-8.4l-1.1,6.3h8.8l-0.8,4.6h-13.4L337.5,338.2z"/>
	<path class="st2" d="M355.2,338.2h5.2l6.9,19.3h0.1l3.3-19.3h4.6l-4.6,26.5h-5.1l-7-19.3h-0.1l-3.3,19.3h-4.6L355.2,338.2z"/>
	<path class="st2" d="M379.7,357.2c-0.2,2.7,1.3,3.5,2.7,3.5c1.8,0,3.7-1.3,4-3.3c0.5-2.7-1.1-3.2-4-4.5c-1.8-0.8-5.6-2-4.6-7.6
		c0.7-4.2,4.4-7.6,8.6-7.6c2.9,0,6.7,2.2,6,7.6h-4.7c0.2-2.4-1-3-2.3-3c-1.4,0-2.7,1.1-3,2.7c-0.4,2.3,1.1,2.8,3.5,3.7
		c1.9,0.7,6.1,2.4,5.1,8.2c-1,5.7-5.6,8.5-9.5,8.5c-3.2,0-7.4-2.3-6.7-8.1H379.7z"/>
	<path class="st2" d="M397.2,338.2h13.4l-0.8,4.6h-8.8l-1.1,6.5h8.4l-0.8,4.6h-8.4l-1.1,6.3h8.8l-0.8,4.6h-13.4L397.2,338.2z"/>
</g>
</svg>
