<?xml version="1.0" encoding="UTF-8"?>
<!DOCTYPE svg PUBLIC "-//W3C//DTD SVG 1.1//EN" "http://www.w3.org/Graphics/SVG/1.1/DTD/svg11.dtd">
<!-- Creator: CorelDRAW 2020 (64 Bit) -->
<svg xmlns="http://www.w3.org/2000/svg" xml:space="preserve" width="53.7121mm" height="62.0001mm" version="1.1" style="shape-rendering:geometricPrecision; text-rendering:geometricPrecision; image-rendering:optimizeQuality; fill-rule:evenodd; clip-rule:evenodd"
viewBox="0 0 62.36 71.98"
 xmlns:xlink="http://www.w3.org/1999/xlink"
 xmlns:xodm="http://www.corel.com/coreldraw/odm/2003">
 <defs>
  <style type="text/css">
   <![CDATA[
    .fil3 {fill:#FEFEFE}
    .fil2 {fill:#18AB55}
    .fil1 {fill:#00A857}
    .fil0 {fill:#00A857;fill-rule:nonzero}
   ]]>
  </style>
 </defs>
 <g id="Camada_x0020_1">
  <metadata id="CorelCorpID_0Corel-Layer"/>
  <g id="_2346437440160">
   <path class="fil0" d="M11.04 1.2l-9.82 10.93c8.86,9.77 7.01,15.5 4.89,22.06 -0.83,2.58 -1.71,5.29 -1.95,8.44l-0 0c-0.83,11.96 7.32,16.15 15.46,20.32 4.27,2.19 8.53,4.38 11.58,7.68 3.08,-3.29 7.33,-5.47 11.59,-7.66 8.15,-4.18 16.29,-8.36 15.5,-20.34l0 0c-0.26,-3.14 -1.14,-5.84 -1.98,-8.41 -2.14,-6.57 -4.01,-12.3 4.86,-22.08l-9.78 -10.93c-6.14,4.35 -13.15,6.53 -20.17,6.53 -1.16,0 -2.32,-0.06 -3.48,-0.18 -5.83,-0.6 -11.56,-2.72 -16.69,-6.35zm-10.76 10.64l10.36 -11.53 0.27 -0.3 0.33 0.24c5.07,3.68 10.78,5.82 16.58,6.42 1.12,0.12 2.25,0.17 3.39,0.17 6.95,0 13.89,-2.19 19.95,-6.57 0.01,-0.01 0.02,-0.02 0.04,-0.03l0.32 -0.22 0.26 0.29 10.31 11.53 0.27 0.3 -0.28 0.3c-8.83,9.58 -7.02,15.13 -4.94,21.5 0.86,2.63 1.76,5.39 2.02,8.62l0 0.01c0.84,12.58 -7.57,16.89 -15.99,21.21 -4.34,2.23 -8.68,4.45 -11.66,7.82l0 0 -0 0 -0.34 0.39 -0.34 -0.39c-2.95,-3.38 -7.29,-5.61 -11.65,-7.84 -8.4,-4.31 -16.82,-8.63 -15.95,-21.19l0 -0c0.25,-3.24 1.15,-6.01 2,-8.65 2.06,-6.36 3.85,-11.91 -4.97,-21.48l-0.28 -0.3 0.27 -0.3z"/>
   <path class="fil1" d="M13.57 37.41l-1.98 18.4c3.27,2.4 6.74,4.18 10.14,5.93l-1.63 -24.13c-2.1,0.14 -4.23,0.06 -6.53,-0.2z"/>
   <path class="fil2" d="M26.89 35.97l9.28 28.23c4.11,-2.33 8.16,-4.28 12,-6.67l-16.31 -24.58c-1.61,1.2 -3.25,2.36 -4.97,3.02z"/>
   <path class="fil1" d="M36.44 9.39c4.92,-0.62 9.74,-2.34 14.53,-5.37l3.35 3.63 -16.94 5.31c-0.27,-1.21 -0.58,-2.4 -0.95,-3.56z"/>
   <path class="fil1" d="M37.69 14.94l17.8 0.79c-1.83,2.64 -2.73,5.44 -3.11,8.34l-14.4 -4.13c0.06,-1.67 -0,-3.33 -0.29,-5z"/>
   <path class="fil1" d="M37.45 23.8l15.83 8.51c1.18,4.23 3.12,7.88 2.82,13.41l-20.73 -16.79c0.87,-1.58 1.64,-3.22 2.09,-5.12z"/>
   <path class="fil1" d="M14.66 28.45l-3.71 -7.19 1.84 -1.43 6.06 5.36 -1.42 1.1 -1.01 -0.98 -1.05 0.82 0.7 1.22 -1.42 1.1zm-0.03 -3.58l0.75 -0.58 -2.67 -2.67 1.92 3.25z"/>
   <path class="fil1" d="M22.3 21.36l-2.65 -7.64 2.03 -1.16 5.24 6.16 -1.56 0.89 -0.86 -1.11 -1.16 0.66 0.52 1.31 -1.56 0.89zm0.48 -3.55l0.82 -0.47 -2.26 -3.02 1.44 3.49z"/>
   <path class="fil1" d="M36.53 16.7c0.14,0.76 0.07,1.33 -0.2,1.68 -0.27,0.36 -0.82,0.61 -1.66,0.76 -0.84,0.15 -1.45,0.11 -1.82,-0.13 -0.37,-0.24 -0.63,-0.74 -0.77,-1.51l-0.73 -4.05c-0.14,-0.77 -0.07,-1.33 0.19,-1.69 0.27,-0.35 0.82,-0.61 1.66,-0.76 0.84,-0.15 1.45,-0.11 1.82,0.13 0.38,0.24 0.64,0.74 0.77,1.51l0.16 0.88 -1.7 0.31 -0.15 -0.85c-0.04,-0.25 -0.12,-0.42 -0.22,-0.52 -0.1,-0.09 -0.25,-0.12 -0.45,-0.09 -0.18,0.03 -0.31,0.11 -0.37,0.23 -0.06,0.12 -0.07,0.3 -0.03,0.55l0.73 4.03c0.04,0.25 0.12,0.42 0.21,0.51 0.09,0.09 0.24,0.11 0.43,0.08 0.2,-0.04 0.33,-0.12 0.39,-0.24 0.06,-0.13 0.07,-0.33 0.02,-0.6l-0.17 -0.92 1.7 -0.31 0.18 1z"/>
   <path class="fil0" d="M9.39 31.13c4.02,0.2 8.02,-0.19 11.97,-1.38 1.28,-0.39 2.56,-0.85 3.84,-1.41 -1.28,-2.19 -2.86,-4.06 -4.7,-5.67 -3.6,-3.14 -8.21,-5.24 -13.47,-6.55l0.14 -0.56c5.35,1.34 10.04,3.48 13.71,6.68 1.9,1.66 3.54,3.6 4.85,5.86 2.39,-1.1 4.77,-2.52 7.12,-4.31 -1.34,-3.82 -3.29,-7.22 -5.77,-10.13 -0.73,-0.85 -1.5,-1.66 -2.32,-2.43 -0.82,-0.77 -1.68,-1.49 -2.59,-2.17l-0 -0 -0 -0 0.22 -0.29 0.13 -0.17c0,0 0,0 0,0l0 0 0 0 -0 0c0.92,0.69 1.8,1.43 2.63,2.21 0.83,0.78 1.62,1.61 2.36,2.48 3.69,4.33 6.21,9.71 7.36,15.94 0.71,-1.08 1.3,-2.27 1.75,-3.56 1.52,-4.28 1.59,-9.7 -0.45,-16.18l0.55 -0.17c2.07,6.61 2,12.14 0.44,16.54 -1,2.81 -2.6,5.15 -4.65,7.01 -2.04,1.85 -4.52,3.22 -7.26,4.08 -5.2,1.63 -11.36,1.45 -17.34,-0.67l0.19 -0.54c5.86,2.08 11.89,2.26 16.97,0.67 0.99,-0.31 1.94,-0.68 2.84,-1.13 -0.57,-2.38 -1.39,-4.51 -2.44,-6.42 -1.32,0.58 -2.64,1.07 -3.96,1.46 -4.02,1.2 -8.08,1.6 -12.16,1.4l0.03 -0.57zm25.01 -1.24c-0.33,-1.93 -0.78,-3.77 -1.37,-5.53 -2.32,1.75 -4.67,3.15 -7.03,4.24 1.04,1.9 1.87,4.02 2.44,6.39 1.34,-0.71 2.58,-1.56 3.68,-2.56 0.84,-0.76 1.6,-1.61 2.27,-2.53z"/>
   <path class="fil0" d="M11.82 3.52c0.01,0.01 0.02,0.01 0.04,0.03 1.48,1.07 3.09,1.99 4.8,2.76 1.72,0.78 3.54,1.4 5.42,1.88 9.68,2.44 20.95,0.89 28.59,-4.65l0.33 -0.24 0.27 0.3 7.32 8.17 0.26 0.29 -0.26 0.3c-8.16,9.36 -6.03,16.09 -3.93,22.73 0.83,2.61 1.65,5.21 1.87,7.97l0 0.01c0.53,10.55 -7.18,14.49 -14.81,18.38 -3.82,1.95 -7.61,3.88 -10.26,6.63l-0.33 0.34 -0.32 -0.34 -0 -0 0 0c-2.61,-2.76 -6.4,-4.7 -10.22,-6.65 -7.58,-3.88 -15.28,-7.82 -14.8,-18.35l0 -0.01c0.21,-2.76 1.01,-5.38 1.82,-8.03 2.05,-6.71 4.13,-13.53 -3.81,-22.67l-0.26 -0.3 0.27 -0.29 7.42 -8.17 0.26 -0.29 0.32 0.21zm4.47 3.6c-1.65,-0.74 -3.21,-1.62 -4.65,-2.63l-6.89 7.58c7.96,9.36 5.83,16.35 3.74,23.21 -0.79,2.59 -1.58,5.17 -1.78,7.84l-0 0c-0.44,9.94 6.99,13.75 14.31,17.49 3.74,1.91 7.45,3.81 10.14,6.51 2.72,-2.68 6.44,-4.58 10.17,-6.48 7.36,-3.76 14.81,-7.56 14.32,-17.52l-0 0c-0.22,-2.66 -1.02,-5.21 -1.83,-7.77 -2.15,-6.81 -4.33,-13.7 3.85,-23.29l-6.79 -7.58c-7.85,5.51 -19.22,7.03 -29.01,4.56 -1.93,-0.49 -3.8,-1.13 -5.57,-1.93z"/>
  </g>
  <path class="fil3" d="M25.2 28.33c-3.75,-6.42 -10.06,-10.06 -17.42,-12.03 3.25,5.58 2.97,10.32 1.88,14.83 5.38,0.23 10.54,-0.61 15.54,-2.81zm-9.82 -4.05l-2.67 -2.67 1.92 3.25 0.75 -0.58zm5.96 -9.97l1.44 3.49 0.82 -0.47 -2.26 -3.02zm-20.13 -2.18c8.86,9.77 7.01,15.5 4.89,22.06 -0.83,2.58 -1.71,5.29 -1.95,8.44 -0.83,11.96 7.32,16.15 15.46,20.32 4.27,2.19 8.53,4.38 11.58,7.68 3.08,-3.29 7.33,-5.47 11.59,-7.66 8.15,-4.18 16.29,-8.36 15.5,-20.34 -0.26,-3.14 -1.14,-5.84 -1.98,-8.41 -2.14,-6.57 -4.01,-12.3 4.86,-22.08l-9.78 -10.93c-12.32,8.73 -28.1,8.67 -40.34,-0l-9.82 10.93zm4.59 30.92c0.21,-2.76 1.01,-5.38 1.82,-8.03 2.05,-6.71 4.13,-13.53 -3.81,-22.67l-0.26 -0.3 0.27 -0.29 7.42 -8.17 0.26 -0.29 0.32 0.21c0.01,0.01 0.02,0.01 0.04,0.03 1.48,1.07 3.09,1.99 4.8,2.76 1.72,0.78 3.54,1.4 5.42,1.88 9.68,2.44 20.95,0.89 28.59,-4.65l0.33 -0.24 0.27 0.3 7.32 8.17 0.26 0.29 -0.26 0.3c-8.16,9.36 -6.03,16.09 -3.93,22.73 0.83,2.61 1.65,5.21 1.87,7.97l0 0.01c0.53,10.55 -7.18,14.49 -14.81,18.38 -3.82,1.95 -7.61,3.88 -10.26,6.63l-0.33 0.34 -0.32 -0.34 -0 -0c-2.61,-2.76 -6.4,-4.7 -10.22,-6.65 -7.58,-3.88 -15.28,-7.82 -14.8,-18.35l0 -0.01zm7.74 -5.39c-1.82,-0.28 -3.63,-0.73 -5.38,-1.33 -0.67,2.24 -1.29,4.48 -1.46,6.79 -0.24,5.41 1.85,9 4.99,11.76l1.85 -17.21zm6.57 0.25l1.56 23.04c3.51,1.8 6.94,3.63 9.48,6.17 1.39,-1.37 3.03,-2.53 4.8,-3.59l-8.95 -27.23c-2.16,0.89 -4.49,1.42 -6.89,1.61zm11.95 -4.67l15.78 23.78c4.13,-2.69 7.35,-6.11 7.77,-11.71l-20 -16.2c-0.83,1.35 -1.85,2.6 -3.1,3.73 -0.15,0.14 -0.3,0.27 -0.46,0.4zm5.67 -9.3l15.08 8.1c-0.71,-2.59 -1.19,-5.24 -0.89,-8.11l-13.64 -3.91c-0.07,1.35 -0.25,2.66 -0.55,3.92zm0.29 -8.99l16.92 0.75c0.74,-1.17 1.64,-2.38 2.71,-3.64l-3.83 -4.27 -16.17 5.07c0.15,0.7 0.27,1.4 0.36,2.09zm-10.1 20.29c-0.57,-2.38 -1.39,-4.51 -2.44,-6.42 -5.13,2.26 -10.44,3.12 -15.97,2.87 -0.31,1.2 -0.67,2.39 -1.04,3.58 -0.05,0.17 -0.1,0.33 -0.15,0.5 5.79,2.01 11.74,2.17 16.76,0.59 0.99,-0.31 1.94,-0.68 2.84,-1.13zm-1.92 -6.65c1.04,1.9 1.87,4.02 2.44,6.39 2.36,-1.24 4.39,-2.94 5.96,-5.1 -0.33,-1.93 -0.78,-3.77 -1.37,-5.53 -2.32,1.75 -4.67,3.15 -7.03,4.24zm-2.4 -19.15c5.99,4.91 9.79,11.75 11.27,19.77 3.38,-5.19 3.66,-11.97 1.43,-19.34 -4.21,0.55 -8.57,0.4 -12.7,-0.43zm12.73 8.93c-0.27,0.36 -0.82,0.61 -1.66,0.76 -0.84,0.15 -1.45,0.11 -1.82,-0.13 -0.37,-0.24 -0.63,-0.74 -0.77,-1.51l-0.73 -4.05c-0.14,-0.77 -0.07,-1.33 0.19,-1.69 0.27,-0.35 0.82,-0.61 1.66,-0.76 0.84,-0.15 1.45,-0.11 1.82,0.13 0.38,0.24 0.64,0.74 0.77,1.51l0.16 0.88 -1.7 0.31 -0.15 -0.85c-0.04,-0.25 -0.12,-0.42 -0.22,-0.52 -0.1,-0.09 -0.25,-0.12 -0.45,-0.09 -0.18,0.03 -0.31,0.11 -0.37,0.23 -0.06,0.12 -0.07,0.3 -0.03,0.55l0.73 4.03c0.04,0.25 0.12,0.42 0.21,0.51 0.09,0.09 0.24,0.11 0.43,0.08 0.2,-0.04 0.33,-0.12 0.39,-0.24 0.06,-0.13 0.07,-0.33 0.02,-0.6l-0.17 -0.92 1.7 -0.31 0.18 1c0.14,0.76 0.07,1.33 -0.2,1.68zm-3.48 5.4c-1.71,-4.88 -4.43,-9.14 -8.09,-12.57l-2.45 -2.06c-0.15,-0.04 -0.3,-0.07 -0.44,-0.11 -1.93,-0.49 -3.8,-1.13 -5.57,-1.93 -1.65,-0.74 -3.21,-1.62 -4.65,-2.63l-6.89 7.58c1.03,1.22 1.9,2.39 2.61,3.53 7.77,1.98 14.45,5.74 18.37,12.49 2.39,-1.1 4.77,-2.52 7.12,-4.31zm-5.92 -5.07l-1.56 0.89 -0.86 -1.11 -1.16 0.66 0.52 1.31 -1.56 0.89 -2.65 -7.64 2.03 -1.16 5.24 6.16zm-8.07 6.47l-1.42 1.1 -1.01 -0.98 -1.05 0.82 0.7 1.22 -1.42 1.1 -3.71 -7.19 1.84 -1.43 6.06 5.36z"/>
 </g>
</svg>
