<?xml version="1.0" encoding="UTF-8"?>
<!DOCTYPE svg PUBLIC "-//W3C//DTD SVG 1.1//EN" "http://www.w3.org/Graphics/SVG/1.1/DTD/svg11.dtd">
<!-- Creator: CorelDRAW 2020 (64 Bit) -->
<svg xmlns="http://www.w3.org/2000/svg" xml:space="preserve" width="173.563mm" height="173.563mm" version="1.1" style="shape-rendering:geometricPrecision; text-rendering:geometricPrecision; image-rendering:optimizeQuality; fill-rule:evenodd; clip-rule:evenodd"
viewBox="0 0 672.58 672.58"
 xmlns:xlink="http://www.w3.org/1999/xlink"
 xmlns:xodm="http://www.corel.com/coreldraw/odm/2003">
 <defs>
  <style type="text/css">
   <![CDATA[
    .fil1 {fill:#FEFEFE}
    .fil2 {fill:#373435}
    .fil0 {fill:#DB2B23}
   ]]>
  </style>
 </defs>
 <g id="Camada_x0020_1">
  <metadata id="CorelCorpID_0Corel-Layer"/>
  <g id="_2346923915856">
   <path class="fil0" d="M336.29 0c185.73,0 336.29,150.56 336.29,336.29 0,185.73 -150.56,336.29 -336.29,336.29 -185.73,0 -336.29,-150.56 -336.29,-336.29 0,-185.73 150.56,-336.29 336.29,-336.29z"/>
   <path class="fil1" d="M336.29 34.47c166.69,0 301.82,135.13 301.82,301.82 0,166.69 -135.13,301.82 -301.82,301.82 -166.69,0 -301.82,-135.13 -301.82,-301.82 0,-166.69 135.13,-301.82 301.82,-301.82z"/>
   <path class="fil0" d="M351.57 191.01c77.33,0 146.07,22.16 189.77,56.53l0.01 -0 18.03 -60.37 0 76.74 0 24.03c-30.3,-40.27 -96.98,-68.23 -174.39,-68.23 -105.92,0 -191.78,52.36 -191.78,116.95 0,64.59 85.86,116.95 191.78,116.95 77.4,0 144.09,-27.97 174.39,-68.23l0 10.71 0 10.71 0 78c-5.39,-19.77 -11.42,-39.75 -19.56,-60.44l-0 -0c-43.77,33.69 -111.82,55.34 -188.25,55.34 -132.06,0 -239.12,-64.62 -239.12,-144.34 0,-79.72 107.06,-144.34 239.12,-144.34z"/>
   <path class="fil2" d="M378.25 68.14l43.91 47.16 23.72 -18.81 10.89 177.68 -7.15 -0.62c-24.81,-73.81 -46.35,-159.89 -71.37,-180.06 -21.22,-17.11 -45.04,7.67 -58.54,51.08 -31.75,102.05 -35.32,210.31 -16.26,321.99 8.73,51.17 23.1,94.03 47.16,112.21 17.48,13.21 40.83,2.07 58.54,-48.79 13.04,-37.43 19.43,-79.17 23.01,-124.02l25.77 21.57 -3.22 157.45 -32.54 -32.83c-23.91,45.88 -59.92,73.28 -100.72,57.74 -32.9,-12.53 -65.04,-53.79 -86.75,-125.12 -17.99,-59.1 -24.7,-129.37 -15.83,-210.1 10.54,-95.9 44.8,-167.45 73.93,-193.04 30.86,-27.12 58.73,-29.02 85.44,-13.48z"/>
  </g>
 </g>
</svg>
