<?xml version="1.0" encoding="UTF-8"?>
<!DOCTYPE svg PUBLIC "-//W3C//DTD SVG 1.1//EN" "http://www.w3.org/Graphics/SVG/1.1/DTD/svg11.dtd">
<!-- Creator: CorelDRAW 2020 (64 Bit) -->
<svg xmlns="http://www.w3.org/2000/svg" xml:space="preserve" width="100mm" height="100mm" version="1.1" style="shape-rendering:geometricPrecision; text-rendering:geometricPrecision; image-rendering:optimizeQuality; fill-rule:evenodd; clip-rule:evenodd"
viewBox="0 0 2072.71 2072.71"
 xmlns:xlink="http://www.w3.org/1999/xlink"
 xmlns:xodm="http://www.corel.com/coreldraw/odm/2003">
 <defs>
  <style type="text/css">
   <![CDATA[
    .fil3 {fill:#FEFEFE}
    .fil6 {fill:#373435}
    .fil4 {fill:#ACA77B}
    .fil1 {fill:#ED3237}
    .fil0 {fill:#3E4095}
    .fil5 {fill:#FEFEFE;fill-rule:nonzero}
    .fil2 {fill:#FFF212;fill-rule:nonzero}
   ]]>
  </style>
 </defs>
 <g id="Camada_x0020_1">
  <metadata id="CorelCorpID_0Corel-Layer"/>
  <g id="cascavel-c-r.cdr">
   <circle class="fil0" cx="1036.36" cy="1036.36" r="1036.36"/>
   <path class="fil1" d="M224.34 1567.3l0 -1061.9c-99.95,152.56 -158.13,334.94 -158.13,530.95 0,196 58.18,378.39 158.13,530.95zm902.25 -1496.89c62.02,5.74 122.36,17.26 180.45,34.1l0 1863.67c-58.09,16.84 -118.43,28.37 -180.45,34.1l0 -1931.88zm360.9 106.91c64.82,34.11 125.33,75.33 180.45,122.64l0 1472.77c-55.12,47.31 -115.63,88.53 -180.45,122.64l0 -1718.05zm360.9 328.08c99.96,152.54 158.13,334.94 158.13,530.94 0,196 -58.17,378.4 -158.13,530.94l0 -1061.89zm-902.25 1496.88c-62.02,-5.73 -122.36,-17.26 -180.45,-34.1l0 -1863.67c58.09,-16.84 118.43,-28.38 180.45,-34.1l0 1931.88zm-360.9 -106.91c-64.82,-34.12 -125.33,-75.33 -180.45,-122.64l0 -1472.77c55.12,-47.31 115.63,-88.52 180.45,-122.64l0 1718.06z"/>
   <path class="fil2" d="M1036.36 56.36c270.62,0 515.62,109.69 692.96,287.03 177.34,177.34 287.04,422.35 287.04,692.96 0,270.62 -109.69,515.62 -287.04,692.96 -177.34,177.34 -422.35,287.04 -692.96,287.04 -270.62,0 -515.62,-109.69 -692.96,-287.04 -177.34,-177.34 -287.04,-422.35 -287.04,-692.96 0,-270.62 109.69,-515.62 287.04,-692.96 177.34,-177.34 422.35,-287.03 692.96,-287.03zm680.01 299.98c-174.03,-174.02 -414.45,-281.67 -680.01,-281.67 -265.56,0 -505.98,107.64 -680.01,281.67 -174.02,174.03 -281.67,414.45 -281.67,680.01 0,265.56 107.64,505.98 281.67,680.01 174.03,174.02 414.45,281.67 680.01,281.67 265.56,0 505.98,-107.64 680.01,-281.67 174.02,-174.03 281.67,-414.45 281.67,-680.01 0,-265.56 -107.64,-505.98 -281.67,-680.01z"/>
   <path class="fil3" d="M1036.36 443.18c261.64,0 473.74,212.1 473.74,473.74 0,29.47 -2.71,58.31 -7.87,86.29l-931.75 0c-5.15,-27.98 -7.87,-56.82 -7.87,-86.29 0,-261.64 212.1,-473.74 473.74,-473.74z"/>
   <path class="fil4" d="M1280.51 933.3l-155.01 -282.66c-18.88,-34.44 -41.83,-66.77 -75.86,-66.49 -63.14,0.5 -94.73,87.35 -117.02,135.65l-132.38 286.84 773.87 0c49.71,0 90.38,40.67 90.38,90.38l0 0c0,49.71 -40.67,90.38 -90.38,90.38l-49.3 0c49.71,0 90.38,40.67 90.38,90.38l0 0c0,49.71 -40.67,90.38 -90.38,90.38l-118.69 0c49.71,0 90.38,40.67 90.38,90.38l0 0c0,49.71 -40.67,90.38 -90.38,90.38l-340.06 0c11.79,0 21.43,9.64 21.43,21.43l0 0c0,11.79 -9.64,21.43 -21.43,21.43l-12.39 0c11.79,0 21.43,9.64 21.43,21.43l0 0c0,11.79 -9.64,21.43 -21.43,21.43l-11.73 0c11.79,0 21.43,9.64 21.43,21.43l0 0.01c0,11.79 -9.64,21.43 -21.43,21.43l-5.58 0c9.78,0 17.79,8 17.79,17.79l0 7.29c0,9.79 -8,17.79 -17.79,17.79l-0 0c-9.78,0 -17.79,-8 -17.79,-17.79l0 -7.29c0,-9.78 8,-17.79 17.79,-17.79l-5.58 0c-11.79,0 -21.43,-9.64 -21.43,-21.43l0 -0.01c0,-11.79 9.64,-21.43 21.43,-21.43l-11.73 0c-11.79,0 -21.43,-9.64 -21.43,-21.43l0 -0c0,-11.79 9.64,-21.43 21.43,-21.43l-12.39 0c-11.79,0 -21.43,-9.64 -21.43,-21.43l0 -0c0,-11.79 9.64,-21.43 21.43,-21.43l-340.06 0c-49.71,0 -90.38,-40.67 -90.38,-90.38l0 -0c0,-49.71 40.67,-90.38 90.38,-90.38l-118.69 0c-49.71,0 -90.38,-40.67 -90.38,-90.38l0 -0c0,-49.71 40.67,-90.38 90.38,-90.38l-49.3 0c-49.71,0 -90.38,-40.67 -90.38,-90.38l0 -0c0,-49.71 40.67,-90.38 90.38,-90.38l47.73 0 320.97 -405.8c43.99,-55.61 97.85,-116.6 175.3,-117.22 72.98,-0.59 105.8,54.09 131.06,112.32l133.64 308.06c11.16,-12.74 21.51,-18.37 33.38,-19.8 18.83,-2.27 41.49,6.04 77.27,13.26 12.05,2.72 24.9,5.29 37.25,8.54 6.99,1.84 23.99,5.91 27.56,12.1 4.52,7.86 -6.66,24.15 -21.91,39.66l11.24 -19.52c-29.38,0.7 -77.32,-6.65 -100.24,14.09 8.78,8.05 15.88,14.75 22.77,20.8 12,10.55 23.38,19.17 41.99,29.69 -22.4,-2.1 -36.29,-4.53 -50.83,-8.68 -10.86,-3.09 -22.1,-7.14 -37.52,-12.72 -18.56,1.37 -42.93,0.09 -57.52,-9.91 -10.65,-7.3 -16.08,-19.25 -10.23,-38.21z"/>
   <path class="fil1" d="M1342.75 915.17l-8.87 -7.73 10.79 4.49c7.47,2.99 13.5,5.4 31.84,4.67 -4.17,8.16 -31.76,21.98 -33.76,-1.43z"/>
   <path class="fil5" d="M308.78 621.16l31.72 -31.9c9.3,8.22 16.06,16.96 20.29,26.26 4.24,9.3 6,19 5.3,29.07 -0.67,10.09 -4.38,21.41 -11.05,33.96 -8.12,15.26 -16.98,26.57 -26.52,33.87 -9.59,7.31 -21.85,11.53 -36.77,12.61 -14.9,1.05 -31.06,-3.01 -48.48,-12.28 -23.24,-12.36 -37.84,-28.04 -43.72,-47.02 -5.92,-18.99 -2.86,-39.8 9.15,-62.39 9.4,-17.68 20.36,-29.68 32.9,-36.01 12.55,-6.33 27.53,-8 44.94,-5.03l-11.84 42.85c-5,-0.94 -8.88,-1.2 -11.66,-0.79 -4.59,0.66 -8.72,2.28 -12.38,4.82 -3.67,2.57 -6.64,6.03 -8.95,10.37 -5.22,9.81 -5.28,19.46 -0.15,28.9 3.78,7.08 11.94,13.98 24.52,20.67 15.6,8.29 27.52,11.57 35.81,9.94 8.31,-1.66 14.71,-6.77 19.25,-15.3 4.41,-8.3 5.43,-15.81 3.02,-22.55 -2.38,-6.72 -7.52,-13.39 -15.38,-20.04zm131.92 -116.04l-36.72 42.25 14.76 23.03 -32.94 37.89 -80.81 -149.42 35.15 -40.43 159.23 59.19 -33.74 38.81 -24.94 -11.33zm-32.71 -14.8l-54.68 -24.23 31.68 50.69 23.01 -26.46zm60.09 -57.36l35.58 -30.48c5.37,5.46 10.5,8.82 15.39,10.15 7.9,2.11 15.61,0.29 23.12,-5.37 5.59,-4.21 8.92,-8.77 9.99,-13.69 1.03,-4.9 0.24,-9.08 -2.36,-12.54 -2.47,-3.28 -6.12,-5.17 -10.98,-5.59 -4.86,-0.42 -13.39,2.16 -25.65,7.79 -20.13,9.1 -36.25,13.22 -48.42,12.33 -12.23,-0.85 -22.07,-6.22 -29.56,-16.15 -4.92,-6.54 -7.69,-14.14 -8.27,-22.79 -0.58,-8.65 1.66,-17.48 6.75,-26.55 5.1,-9.04 14.26,-18.54 27.48,-28.5 16.23,-12.23 30.89,-18.55 43.95,-18.94 13.06,-0.38 25.36,5.42 36.9,17.35l-35.36 30.03c-5.28,-4.97 -10.49,-7.58 -15.61,-7.8 -5.07,-0.21 -10.4,1.76 -15.93,5.93 -4.58,3.46 -7.3,6.98 -8.14,10.67 -0.86,3.66 -0.23,6.9 1.87,9.68 1.51,2.01 3.82,3.1 6.94,3.3 3.13,0.28 8.67,-1.48 16.71,-5.26 19.93,-9.23 35.03,-14.72 45.31,-16.53 10.27,-1.81 19.21,-1.21 26.81,1.87 7.58,3.05 14.02,8.03 19.25,14.97 6.13,8.13 9.51,17.36 10.18,27.6 0.7,10.28 -1.67,20.23 -7.11,29.88 -5.4,9.63 -14.26,19.09 -26.56,28.36 -21.59,16.27 -39.66,23.4 -54.26,21.32 -14.6,-2.03 -27.25,-9.04 -38.02,-21.05zm227.3 -163.58l44.13 -8.71c3.12,12.01 3.82,23.04 2.14,33.12 -1.69,10.08 -5.65,19.11 -11.86,27.06 -6.19,7.99 -15.6,15.3 -28.15,21.97 -15.27,8.12 -28.94,12.53 -40.93,13.24 -12.04,0.7 -24.56,-2.66 -37.53,-10.11 -12.94,-7.46 -24.07,-19.87 -33.33,-37.29 -12.36,-23.24 -15.69,-44.41 -9.95,-63.43 5.72,-19.06 19.89,-34.6 42.48,-46.61 17.68,-9.4 33.47,-13.23 47.41,-11.46 13.94,1.77 27.3,8.76 40.08,20.96l-33.78 28.9c-3.62,-3.57 -6.69,-5.96 -9.22,-7.17 -4.17,-2.02 -8.5,-2.98 -12.96,-2.92 -4.49,0.08 -8.88,1.29 -13.23,3.6 -9.81,5.21 -15.25,13.18 -16.28,23.87 -0.83,7.99 2.08,18.27 8.77,30.85 8.29,15.59 16.35,24.98 24.13,28.26 7.82,3.27 15.98,2.61 24.51,-1.92 8.3,-4.41 13.35,-10.07 15.11,-17 1.78,-6.9 1.26,-15.3 -1.54,-25.22zm175.86 -14.28l-54.54 12.59 -1.6 27.31 -48.92 11.29 22.45 -168.37 52.2 -12.05 94.03 141.48 -50.11 11.57 -13.52 -23.82zm-17.77 -31.2l-29.99 -51.74 -4.17 59.63 34.16 -7.89zm64.27 -118.77l51.39 0 35.8 114.43 35.25 -114.43 49.91 0 -59.01 159.01 -53.24 0 -60.09 -159.01zm210.44 2.27l130.03 20.6 -5.31 33.53 -81.4 -12.89 -3.96 24.98 75.51 11.96 -5.07 32.03 -75.51 -11.96 -4.9 30.93 83.77 13.27 -5.64 35.58 -132.41 -20.97 24.87 -157.05zm182.14 37.32l46.2 16.82 -40.99 112.61 72.05 26.22 -13.4 36.81 -118.25 -43.04 54.39 -149.42zm266.2 252.27l25.91 36.78c-9.71,7.73 -19.49,12.87 -29.39,15.43 -9.9,2.56 -19.75,2.61 -29.55,0.17 -9.82,-2.41 -20.32,-8.03 -31.52,-16.78 -13.62,-10.64 -23.22,-21.34 -28.75,-32 -5.53,-10.71 -7.56,-23.52 -6.03,-38.4 1.55,-14.86 8.36,-30.07 20.51,-45.62 16.2,-20.74 34.19,-32.39 53.9,-34.89 19.73,-2.53 39.69,4.09 59.86,19.84 15.78,12.33 25.69,25.2 29.75,38.65 4.05,13.45 3.1,28.5 -2.85,45.13l-40.14 -19.1c1.79,-4.75 2.72,-8.54 2.8,-11.34 0.14,-4.63 -0.73,-8.98 -2.6,-13.03 -1.9,-4.07 -4.78,-7.59 -8.66,-10.62 -8.75,-6.84 -18.25,-8.57 -28.43,-5.16 -7.63,2.49 -15.84,9.33 -24.62,20.56 -10.87,13.92 -16.17,25.09 -16.01,33.54 0.19,8.47 4.11,15.66 11.73,21.61 7.41,5.79 14.63,8.1 21.68,6.89 7.03,-1.18 14.49,-5.08 22.41,-11.67zm38.51 63.07l33.38 33.38 -31.28 31.28 -33.38 -33.38 31.28 -31.28zm61.99 143.06l137.7 -79.5 40.95 70.92c7.59,13.15 12.28,23.86 14,32.1 1.77,8.25 0.85,16.27 -2.82,24.07 -3.63,7.78 -9.84,14.19 -18.6,19.25 -7.66,4.43 -15.18,6.58 -22.59,6.55 -7.43,-0.07 -14.52,-1.96 -21.26,-5.64 -4.29,-2.4 -8.99,-6.31 -14.04,-11.81 1.22,6.05 1.65,10.72 1.31,14.04 -0.23,2.19 -1.32,5.85 -3.29,10.96 -2,5.13 -3.67,8.74 -5.12,10.9l-28.03 43.63 -27.77 -48.09 28.97 -47.04c3.76,-6.02 5.83,-10.64 6.15,-13.85 0.36,-4.27 -0.6,-8.38 -2.84,-12.26l-2.17 -3.75 -55.88 32.26 -24.68 -42.74zm106.6 -4.56l10.37 17.96c1.11,1.92 3.88,5.32 8.36,10.18 2.21,2.49 4.98,3.96 8.33,4.43 3.33,0.43 6.51,-0.21 9.52,-1.95 4.46,-2.57 7.04,-5.95 7.79,-10.14 0.77,-4.21 -1.09,-10.19 -5.58,-17.95l-10.79 -18.69 -27.99 16.16zm9.98 133.82l18.45 43.45 -40.72 17.29 -18.45 -43.45 40.72 -17.28z"/>
   <path class="fil2" d="M904.01 1958.55l-3.18 16.35 -91.56 -17.8c0.67,-4.12 2.08,-7.93 4.26,-11.42 3.54,-5.8 8.47,-11.2 14.78,-16.27 6.33,-5.03 15.11,-10.59 26.32,-16.64 17.46,-9.42 29.55,-17.21 36.25,-23.41 6.69,-6.16 10.66,-12.48 11.91,-18.9 1.31,-6.74 -0,-12.89 -3.91,-18.46 -3.94,-5.55 -9.78,-9.1 -17.52,-10.6 -8.19,-1.59 -15.22,-0.41 -21.08,3.57 -5.89,3.94 -9.69,10.27 -11.44,18.93l-17.14 -5.17c3.73,-12.83 10.18,-21.89 19.31,-27.2 9.13,-5.32 20.31,-6.69 33.47,-4.14 13.29,2.58 23.08,8.33 29.39,17.19 6.34,8.89 8.43,18.77 6.31,29.68 -1.08,5.55 -3.26,10.78 -6.6,15.68 -3.3,4.92 -8.17,9.82 -14.57,14.71 -6.41,4.91 -16.73,11.34 -30.96,19.28 -11.86,6.6 -19.53,11.13 -23.03,13.63 -3.49,2.47 -6.48,5.07 -8.98,7.79l67.95 13.21zm36.21 -51.48c1.46,-16.63 4.33,-29.86 8.65,-39.68 4.29,-9.85 10.08,-17.22 17.31,-22.13 7.22,-4.91 15.94,-6.92 26.15,-6.02 7.56,0.66 14.04,2.78 19.46,6.32 5.43,3.51 9.73,8.3 12.96,14.36 3.2,6.05 5.5,13.28 6.88,21.68 1.41,8.4 1.49,19.55 0.27,33.5 -1.44,16.49 -4.31,29.63 -8.57,39.48 -4.29,9.85 -10.05,17.23 -17.27,22.17 -7.23,4.94 -15.98,6.94 -26.28,6.04 -13.55,-1.19 -23.76,-6.96 -30.64,-17.35 -8.24,-12.49 -11.22,-31.98 -8.91,-58.36zm17.74 1.55c-2.02,23.07 -0.64,38.66 4.09,46.79 4.73,8.1 11.04,12.51 18.96,13.2 7.95,0.7 14.93,-2.59 21,-9.77 6.07,-7.19 10.13,-22.3 12.14,-45.31 2.03,-23.14 0.65,-38.76 -4.08,-46.82 -4.73,-8.1 -11.11,-12.48 -19.16,-13.19 -7.95,-0.7 -14.56,2.12 -19.9,8.42 -6.67,8.03 -11.03,23.6 -13.05,46.68zm92.74 6.88c-1.46,-16.63 -0.93,-30.16 1.63,-40.57 2.52,-10.44 6.94,-18.71 13.2,-24.8 6.26,-6.09 14.5,-9.58 24.71,-10.47 7.56,-0.66 14.31,0.3 20.26,2.85 5.96,2.51 11.02,6.49 15.26,11.89 4.2,5.4 7.72,12.12 10.54,20.15 2.85,8.03 4.86,19 6.08,32.94 1.44,16.5 0.91,29.93 -1.58,40.37 -2.52,10.44 -6.9,18.71 -13.16,24.83 -6.26,6.12 -14.53,9.62 -24.84,10.52 -13.55,1.19 -24.61,-2.73 -33.18,-11.77 -10.28,-10.87 -16.6,-29.55 -18.91,-55.93zm17.74 -1.55c2.02,23.08 6.08,38.19 12.15,45.37 6.07,7.15 13.05,10.4 20.97,9.71 7.95,-0.69 14.26,-5.14 18.99,-13.27 4.73,-8.13 6.1,-23.72 4.09,-46.73 -2.02,-23.14 -6.09,-38.28 -12.15,-45.4 -6.07,-7.15 -13.11,-10.36 -21.16,-9.66 -7.95,0.7 -13.97,4.62 -18.13,11.75 -5.18,9.06 -6.77,25.16 -4.75,48.23zm166.97 47.72l-17 3.3 -21.06 -108.36c-3.34,4.7 -7.93,9.64 -13.82,14.83 -5.92,5.2 -11.31,9.29 -16.23,12.26l-3.19 -16.41c8.64,-6.33 15.91,-13.37 21.8,-21.11 5.86,-7.77 9.72,-14.91 11.52,-21.48l10.93 -2.12 27.03 139.09z"/>
   <path class="fil2" d="M1255.81 888.26l-3.88 -7.07 2.54 -5.95 10.53 4.49 -4.49 10.53 -4.7 -2zm-69.39 -126.54l-3.08 -5.62 -0.02 -5.81 11.45 -0.05 0.05 11.45 -8.39 0.04zm-58.7 -107.03l-2.22 -4.05c-0.82,-1.49 -1.64,-2.98 -2.47,-4.46l-0.07 -2.84 11.44 -0.27 0.27 11.45 -6.95 0.16zm-70.03 -69.99c-2.61,-0.39 -5.29,-0.58 -8.05,-0.56 -2.51,0.02 -4.96,0.19 -7.37,0.47l-4.76 -5.13 6.72 -6.23 -1.09 0.07 -0.8 -11.42 11.42 -0.8 0.8 11.42 -7.41 0.52 2.89 3.12 2.94 -2.57 7.54 8.61 -2.85 2.5zm-21.78 0.98c-2.08,0.46 -4.13,1.01 -6.14,1.65l-5.52 -0.72 1.47 -11.35 11.35 1.47 -1.16 8.94zm-58.2 45.58c-2.66,3.84 -5.21,7.82 -7.67,11.88l-3.9 -10.62 3.17 -1.16 0.01 -0.3 0.77 0.02 2.87 -1.06 1.63 1.17 3.13 0.08zm-66.7 135.37l-4.85 10.51 -3.3 1.24 -4.02 -10.72 8.72 -3.27 3.45 2.24zm-79.6 172.47l-0.64 1.39 -10.42 1.82 -1.97 -11.28 11.28 -1.97 1.75 10.03zm-6.69 14.5l-1.14 2.47 -0.26 0.11 -0.44 0.19 -0.46 0.2 -0.49 0.22 -0.49 0.21 -0.51 0.22 -0.52 0.22 -0.52 0.23 -0.55 0.24 -0.55 0.24 -0.58 0.25 -0.58 0.25 -0.58 0.26 -0.62 0.27 -0.62 0.27 -0.63 0.28 -0.25 0.11 -4.59 -10.49 0.24 -0.11 0.64 -0.28 0.62 -0.27 0.6 -0.26 0.61 -0.27 0.59 -0.25 0.56 -0.24 0.56 -0.25 0.54 -0.24 0.53 -0.24 0.52 -0.23 0.5 -0.22 0.49 -0.22 0.46 -0.2 0.47 -0.21 0.45 -0.19 0.43 -0.19 0.42 -0.18 0.41 -0.18 0.38 -0.17 0.36 -0.16 0.09 -0.04 3.9 8.82zm-138.4 49.6l0.4 -0.17 1.11 -0.48 1.12 -0.48 1.12 -0.48 1.12 -0.48 1.13 -0.49 1.14 -0.49 1.13 -0.49 0.28 -0.12 0.98 2.28 4.37 -1.11 0.64 2.51 -14.54 0zm-22.54 -145.05l2.63 -3.32 7.32 -2.75 4.02 10.72 -10.72 4.02 -3.25 -8.67zm116.18 -146.89l7.06 -8.93 3.34 1.93 1.84 10.54 -11.28 1.97 -0.96 -5.51zm112.26 -140.73c2.74,-3.17 5.52,-6.31 8.34,-9.42l0 0.01 2.75 2.95 0.52 8.92 -11.43 0.67 -0.18 -3.13zm229.44 -57.06c0.87,0.81 1.73,1.62 2.58,2.46l5.21 5.95 -7.99 7 10.31 -0.24 0.26 11.44 -11.44 0.27 -0.26 -11.44 0.05 -0 -7.09 -8.09 8.37 -7.33zm129.14 260.28l1.33 3.06 -1.8 8.54 -11.2 -2.36 2.36 -11.2 9.31 1.96zm6.88 15.85l1.36 3.13 -0.19 8.34 -11.44 -0.26 0.25 -11.44 10.02 0.22zm46.31 106.75l1.87 4.31 -3.23 7.56 -10.53 -4.49 4.49 -10.53 7.4 3.15zm-266.43 -402.97l11.42 -0.8 0.8 11.42 -11.42 0.8 -0.8 -11.42zm1.6 22.84l11.42 -0.8 0.8 11.42 -11.42 0.8 -0.8 -11.42zm1.6 22.84l11.42 -0.8 0.8 11.42 -11.42 0.8 -0.8 -11.42zm-2.62 24.24l-8.39 7.79 -7.78 -8.4 8.39 -7.79 7.78 8.4zm-15.57 -16.79l-8.39 7.78 -7.78 -8.39 8.39 -7.79 7.78 8.4zm-15.56 -16.79l-8.39 7.79 -7.78 -8.4 8.39 -7.79 7.78 8.4zm-15.57 -16.79l-7.82 7.25 -0.21 8.16 -11.44 -0.29 0.29 -11.45 7.14 0.18 -4.14 -4.46 8.39 -7.79 7.78 8.39zm-19.77 26.56l11.44 0.29 -0.29 11.44 -11.44 -0.29 0.29 -11.44zm-0.59 22.89l11.44 0.29 -0.18 6.96 9.31 1.21 -1.47 11.35 -11.35 -1.48 0.86 -6.66 -8.91 -0.23 0.29 -11.44zm-0.58 22.89l11.44 0.29 -0.29 11.44 -11.44 -0.29 0.29 -11.44zm-0.59 22.89l11.44 0.29 -0.29 11.44 -11.44 -0.29 0.29 -11.45zm-14.5 28.3l3.95 10.75 -10.75 3.95 -3.95 -10.75 10.75 -3.95zm-21.5 7.89l3.95 10.75 -10.75 3.95 -3.95 -10.75 10.75 -3.95zm-21.5 7.89l3.95 10.75 -10.75 3.95 -0.83 -2.26 -7.04 0.41 -0.67 -11.43 11.43 -0.67 0.04 0.67 3.87 -1.42zm-21.49 7.89l3.95 10.75 -10.74 3.95 -3.95 -10.75 10.74 -3.95zm-21.49 7.89l3.95 10.75 -10.74 3.95 -3.95 -10.75 10.74 -3.95zm-21.49 7.89l3.95 10.75 -10.74 3.95 -3.95 -10.75 10.74 -3.95zm-21.49 7.89l3.95 10.75 -10.74 3.95 -3.95 -10.75 10.74 -3.95zm-21.49 7.89l3.95 10.75 -10.74 3.94 -3.95 -10.75 10.74 -3.94zm-22.05 36.32l11.28 -1.97 1.97 11.28 -11.28 1.97 -1.97 -11.28zm3.94 22.56l11.28 -1.97 1.97 11.28 -11.28 1.97 -1.97 -11.28zm3.94 22.56l11.28 -1.97 1.97 11.28 -11.28 1.97 -1.97 -11.28zm3.94 22.56l11.28 -1.97 1.97 11.28 -4.86 0.85 3.26 8.69 -10.72 4.02 -4.02 -10.72 4.89 -1.84 -1.8 -10.31zm3.94 22.55l11.28 -1.97 1.97 11.28 -11.28 1.97 -1.97 -11.28zm3.94 22.55l11.28 -1.97 1.97 11.28 -11.28 1.97 -1.97 -11.28zm3.94 22.55l11.28 -1.97 1.97 11.28 -11.28 1.97 -1.97 -11.28zm3.94 22.55l11.28 -1.97 1.97 11.28 -11.28 1.97 -1.97 -11.28zm3.94 22.55l11.28 -1.97 1.97 11.28 -11.28 1.97 -1.97 -11.28zm-14.57 45.47l-0.17 0.08 -0.83 0.36 -0.82 0.36 -0.83 0.36 -0.85 0.37 -0.85 0.37 -0.86 0.38 -0.88 0.39 -0.88 0.38 -0.89 0.39 -0.9 0.39 -0.91 0.4 -0.84 0.37 4.59 10.49 0.83 -0.36 0.9 -0.39 0.9 -0.39 0.9 -0.39 0.88 -0.39 0.86 -0.38 0.86 -0.37 0.86 -0.38 0.84 -0.37 0.84 -0.37 0.82 -0.36 0.8 -0.35 0.17 -0.07 -4.57 -10.5zm-20.98 9.16l-0.21 0.09 -1.01 0.44 -1.02 0.44 -1.03 0.45 -1.03 0.45 -1.03 0.45 -1.04 0.45 -1.05 0.46 -1.05 0.46 -1.07 0.46 -0.97 0.42 4.58 10.49 0.96 -0.42 1.06 -0.46 1.06 -0.46 1.05 -0.46 1.05 -0.45 1.04 -0.46 1.03 -0.45 1.02 -0.45 1.01 -0.44 1.01 -0.44 0.21 -0.09 -4.57 -10.5zm-20.99 9.14l-0.55 0.24 -1.12 0.49 -1.12 0.49 -1.13 0.49 -1.14 0.49 -1.13 0.5 -1.14 0.49 -1.14 0.5 -1.15 0.5 -0.89 0.39 4.56 10.5 0.88 -0.39 1.15 -0.5 1.14 -0.5 1.14 -0.5 1.14 -0.5 1.13 -0.49 1.12 -0.49 1.13 -0.49 1.12 -0.49 0.55 -0.24 -4.57 -10.5zm-20.99 9.12l-0.21 0.09 -1.18 0.51 -1.17 0.51 -1.17 0.51 -1.18 0.51 -1.18 0.51 -1.18 0.51 -1.17 0.51 -1.18 0.51 -0.89 0.39 4.55 10.5 0.89 -0.38 1.18 -0.51 1.18 -0.51 1.18 -0.51 1.18 -0.51 1.17 -0.51 1.18 -0.51 1.17 -0.51 1.17 -0.51 0.21 -0.09 -4.55 -10.5zm-21.01 9.1l-0.4 0.17 -1.18 0.51 -1.17 0.51 -1.18 0.51 -1.18 0.51 -1.17 0.51 -1.17 0.51 -1.17 0.5 -1.17 0.5 -0.74 0.32 3.54 8.2 6.35 0 0.06 -0.02 1.18 -0.51 1.17 -0.51 1.18 -0.51 1.18 -0.51 0.4 -0.17 -4.54 -10.51zm570.16 -101.76l-4.49 10.53 -10.53 -4.49 4.49 -10.53 10.53 4.49zm-28.75 -18.95l-11.45 -0.25 0.26 -11.45 11.44 0.26 -0.25 11.45zm0.51 -22.89l-11.44 -0.26 0.26 -11.45 11.44 0.26 -0.26 11.45zm0.51 -22.89l-11.44 -0.25 0.26 -11.45 11.44 0.26 -0.26 11.45zm-28.05 -54.54l-2.36 11.2 -11.2 -2.36 2.36 -11.2 11.2 2.36zm-22.41 -4.71l-2.36 11.2 -11.2 -2.36 2.36 -11.2 11.2 2.36zm-13.17 -25.94l-11.45 0.05 -0.05 -11.45 11.45 -0.05 0.05 11.45zm-0.1 -22.9l-11.45 0.05 -0.05 -11.45 11.45 -0.05 0.05 11.45zm-0.1 -22.9l-11.45 0.05 -0.05 -11.45 11.45 -0.05 0.05 11.45zm-0.1 -22.9l-11.45 0.05 -0.01 -1.2 -0.08 -0.01 0.08 -0.69 -0.02 -4.38 0.52 -0 0.72 -6.3 5.14 0.59 5.05 0.58 0.02 5.09 0.02 6.28zm-21.61 -13.83l-1.3 11.38 -11.38 -1.3 1.3 -11.38 11.38 1.3zm-22.75 -2.6l-1.3 11.38 -11.37 -1.3 1.3 -11.38 11.37 1.3zm-15.91 -22.03l-11.44 0.27 -0.27 -11.45 11.44 -0.27 0.27 11.45zm-0.53 -22.89l-11.45 0.27 -0.26 -11.45 11.45 -0.27 0.26 11.45zm-0.53 -22.89l-11.45 0.27 -0.26 -11.45 11.45 -0.27 0.26 11.45zm-0.53 -22.89l-11.44 0.27 -0.26 -11.44 11.44 -0.27 0.26 11.45zm-27.88 -34.62l7.54 8.61 -8.61 7.54 -7.54 -8.61 8.61 -7.54zm-17.23 15.09l7.54 8.61 -8.61 7.54 -7.54 -8.61 8.61 -7.54zm-17.23 15.08l7.54 8.61 -8.61 7.54 -7.54 -8.61 8.61 -7.54zm-55.86 15.28l-1.47 11.35 -11.35 -1.47 1.47 -11.35 11.35 1.48zm-45.41 -5.9l-1.47 11.35 -11.35 -1.48 1.47 -11.35 11.35 1.48zm-22.7 -2.95l-1.47 11.35 -11.35 -1.47 1.47 -11.35 11.35 1.47zm-22.7 -2.94l-1.47 11.35 -11.35 -1.47 1.47 -11.35 11.35 1.47zm-30.46 23.09l11.43 -0.67 0.67 11.43 -11.43 0.67 -0.67 -11.43zm1.33 22.86l11.43 -0.67 0.67 11.43 -11.43 0.67 -0.67 -11.43zm1.33 22.86l11.43 -0.67 0.67 11.43 -11.43 0.67 -0.67 -11.43zm2.67 45.72l11.43 -0.67 0.67 11.43 -11.43 0.67 -0.67 -11.43zm1.33 22.86l11.43 -0.67 0.67 11.43 -11.43 0.67 -0.67 -11.43zm1.33 22.86l11.43 -0.67 0.67 11.43 -11.43 0.67 -0.67 -11.43zm1.33 22.85l11.43 -0.67 0.67 11.43 -11.43 0.67 -0.67 -11.43zm-14.28 26.59l4.02 10.72 -10.72 4.02 -4.02 -10.72 10.72 -4.02zm-21.44 8.04l4.02 10.72 -10.72 4.02 -4.02 -10.72 10.72 -4.02zm-21.44 8.04l4.02 10.72 -10.72 4.02 -4.02 -10.72 10.72 -4.02zm-21.44 8.04l4.02 10.72 -10.72 4.02 -4.02 -10.72 10.72 -4.02zm-42.88 16.08l4.02 10.72 -10.72 4.02 -4.02 -10.72 10.72 -4.02zm-21.44 8.04l4.02 10.72 -10.72 4.02 -4.02 -10.72 10.72 -4.02zm-21.43 8.04l4.02 10.72 -10.72 4.02 -4.02 -10.72 10.72 -4.02zm-21.44 8.04l4.02 10.72 -10.72 4.02 -4.02 -10.72 10.72 -4.02zm-21.44 8.04l4.02 10.72 -10.72 4.02 -4.02 -10.72 10.72 -4.02zm-39.81 26.29l11.1 -2.81 2.81 11.1 -11.1 2.81 -2.81 -11.1zm5.63 22.2l11.1 -2.81 2.81 11.1 -11.1 2.81 -2.81 -11.1zm5.63 22.19l11.1 -2.81 2.81 11.1 -11.1 2.81 -2.81 -11.1zm5.63 22.2l11.1 -2.81 2.81 11.1 -11.1 2.81 -2.81 -11.1zm5.63 22.2l11.1 -2.81 2.81 11.1 -11.1 2.81 -2.81 -11.1zm5.63 22.19l11.1 -2.81 2.81 11.1 -11.1 2.81 -2.81 -11.1zm8.13 28.75l0.57 0.46 -7.18 8.92 -6.52 -5.25 -6.52 5.25 -7.18 -8.92 0.56 -0.46 26.27 0zm223.17 0l-6.77 8.41 -5.33 -4.29 -5.33 4.29 -6.77 -8.41 24.2 0zm225.24 0l0.57 0.46 -7.18 8.92 -6.52 -5.25 -6.52 5.25 -7.18 -8.92 0.57 -0.46 26.27 0zm223.17 0l-6.77 8.41 -5.33 -4.29 -5.33 4.29 -6.77 -8.41 24.2 0zm225.21 1.19l-6.59 8.19 -6.52 -5.25 -6.52 5.25 -7.18 -8.92 0.57 -0.46 11.93 0c4.87,0 9.65,0.41 14.31,1.19zm68.87 60.51l-4.09 5.09 -8.92 -7.18 7.18 -8.92 2.54 2.04c1.26,2.91 2.36,5.9 3.29,8.96zm-3.3 59.48l-2.54 2.04 -7.18 -8.92 8.92 -7.18 4.09 5.08c-0.93,3.06 -2.04,6.06 -3.3,8.97zm-91.82 52.73l-0.56 -0.45 7.18 -8.92 6.52 5.25 6.52 -5.25 6.59 8.19c-4.66,0.78 -9.44,1.19 -14.31,1.19l-11.93 0zm-223.15 -0.01l6.75 -8.4 5.33 4.29 5.33 -4.29 6.75 8.4 -24.17 0zm-225.27 0l-0.55 -0.44 7.18 -8.92 6.52 5.25 6.52 -5.25 7.18 8.92 -0.55 0.44 -26.3 0zm-223.14 0l6.75 -8.4 5.33 4.29 5.33 -4.29 6.75 8.4 -24.17 0zm-225.27 0l-0.55 -0.44 7.18 -8.92 6.52 5.25 6.52 -5.25 7.18 8.92 -0.55 0.44 -26.3 0zm477 -157.34l7.18 -8.92 8.92 7.18 -7.18 8.92 -8.92 -7.18zm17.84 14.35l7.18 -8.92 8.92 7.18 -7.18 8.92 -8.92 -7.18zm17.84 14.35l7.18 -8.92 8.92 7.18 -7.18 8.92 -8.92 -7.18zm17.84 14.35l7.18 -8.92 8.92 7.18 -7.18 8.92 -8.92 -7.18zm17.84 14.35l7.18 -8.92 8.92 7.18 -7.18 8.92 -8.92 -7.18zm17.84 14.35l1.09 -1.36 -1.09 -1.36 6.19 -4.98 0.99 -1.22 0.27 0.22 1.48 -1.19 5.41 6.73 1.76 1.42 -0.31 0.39 0.31 0.39 -1.76 1.42 -5.41 6.73 -1.48 -1.19 -0.27 0.21 -0.99 -1.22 -6.19 -4.98zm17.84 14.35l7.18 -8.92 8.92 7.18 -7.18 8.92 -8.92 -7.18zm17.84 14.35l7.18 -8.92 8.92 7.18 -7.18 8.92 -8.92 -7.18zm17.84 14.35l7.18 -8.92 8.92 7.18 -7.18 8.92 -8.92 -7.18zm17.84 14.35l7.18 -8.92 8.92 7.18 -7.18 8.92 -8.92 -7.18zm17.84 14.35l7.18 -8.92 8.92 7.17 -7.18 8.92 -8.92 -7.17zm231.93 -152.43l7.18 8.92 -8.92 7.18 -7.18 -8.92 8.92 -7.18zm-17.84 14.35l7.18 8.92 -8.92 7.18 -7.18 -8.92 8.92 -7.18zm-17.84 14.35l7.18 8.92 -8.92 7.18 -7.18 -8.92 8.92 -7.18zm-17.84 14.35l7.18 8.92 -8.92 7.18 -7.18 -8.92 8.92 -7.18zm-17.84 14.35l7.18 8.92 -8.92 7.18 -7.18 -8.92 8.92 -7.18zm-17.84 14.35l0.99 1.22 6.19 4.98 -1.09 1.36 1.09 1.36 -6.19 4.98 -0.99 1.22 -0.27 -0.21 -1.48 1.19 -5.41 -6.73 -1.76 -1.42 0.31 -0.39 -0.31 -0.39 1.76 -1.42 5.41 -6.73 1.48 1.19 0.27 -0.22zm-17.84 14.35l7.18 8.92 -8.92 7.18 -7.18 -8.92 8.92 -7.18zm-17.84 14.35l7.18 8.92 -8.92 7.18 -7.18 -8.92 8.92 -7.18zm-17.84 14.35l7.18 8.92 -8.92 7.18 -7.18 -8.92 8.92 -7.18zm-17.84 14.35l7.18 8.92 -8.92 7.18 -7.18 -8.92 8.92 -7.18zm-17.84 14.35l7.18 8.92 -8.92 7.17 -7.18 -8.92 8.92 -7.17zm216.47 -134.59l7.18 -8.92 8.92 7.18 -7.18 8.92 -8.92 -7.18zm17.84 14.35l7.18 -8.92 8.92 7.18 -7.18 8.92 -8.92 -7.18zm17.84 14.35l7.18 -8.92 8.92 7.18 -7.18 8.92 -8.92 -7.18zm-476.91 121.02l-7.18 -8.92 8.92 -7.18 7.18 8.92 -8.92 7.18zm17.84 -14.35l-7.18 -8.92 8.92 -7.18 7.18 8.92 -8.92 7.18zm17.84 -14.35l-7.18 -8.92 8.92 -7.18 7.18 8.92 -8.92 7.18zm17.84 -14.35l-7.18 -8.92 8.92 -7.18 7.18 8.92 -8.92 7.18zm17.84 -14.35l-7.18 -8.92 8.92 -7.18 7.18 8.92 -8.92 7.18zm35.68 -28.7l-7.18 -8.92 8.92 -7.18 7.18 8.92 -8.92 7.18zm17.84 -14.35l-7.18 -8.92 8.92 -7.18 7.18 8.92 -8.92 7.18zm17.84 -14.35l-7.18 -8.92 8.92 -7.18 7.18 8.92 -8.92 7.18zm17.84 -14.35l-7.18 -8.92 8.92 -7.18 7.18 8.92 -8.92 7.18zm17.84 -14.35l-7.18 -8.92 8.92 -7.17 7.18 8.92 -8.92 7.17zm231.93 134.59l-7.18 8.92 -8.92 -7.18 7.18 -8.92 8.92 7.18zm-17.84 -14.35l-7.18 8.92 -8.92 -7.18 7.18 -8.92 8.92 7.18zm-17.84 -14.35l-7.18 8.92 -8.92 -7.18 7.18 -8.92 8.92 7.18zm-17.84 -14.35l-7.18 8.92 -8.92 -7.18 7.18 -8.92 8.92 7.18zm-17.84 -14.35l-7.18 8.92 -8.92 -7.18 7.18 -8.92 8.92 7.18zm-35.68 -28.7l-7.18 8.92 -8.92 -7.18 7.18 -8.92 8.92 7.18zm-17.84 -14.35l-7.18 8.92 -8.92 -7.18 7.18 -8.92 8.92 7.18zm-17.84 -14.35l-7.18 8.92 -8.92 -7.18 7.18 -8.92 8.92 7.18zm-17.84 -14.35l-7.18 8.92 -8.92 -7.18 7.18 -8.92 8.92 7.18zm-17.84 -14.35l-7.18 8.92 -8.92 -7.17 7.18 -8.92 8.92 7.17zm216.47 152.44l-7.18 -8.92 8.92 -7.18 7.18 8.92 -8.92 7.18zm17.84 -14.35l-7.18 -8.92 8.92 -7.18 7.18 8.92 -8.92 7.18zm17.84 -14.35l-7.18 -8.92 8.92 -7.18 7.18 8.92 -8.92 7.18zm-522.15 19.78l-7.18 8.92 -8.92 -7.18 7.18 -8.92 8.92 7.18zm-17.84 -14.35l-7.18 8.92 -8.92 -7.18 7.18 -8.92 8.92 7.18zm-17.84 -14.35l-7.18 8.92 -8.92 -7.18 7.18 -8.92 8.92 7.18zm-17.84 -14.35l-7.18 8.92 -8.92 -7.18 7.18 -8.92 8.92 7.18zm-17.84 -14.35l-7.18 8.92 -8.92 -7.18 7.18 -8.92 8.92 7.18zm-17.84 -14.35l-1.09 1.36 1.09 1.36 -6.19 4.98 -0.99 1.22 -0.27 -0.21 -1.48 1.19 -5.41 -6.73 -1.76 -1.42 0.31 -0.39 -0.31 -0.39 1.76 -1.42 5.41 -6.73 1.48 1.19 0.27 -0.22 0.99 1.22 6.19 4.98zm-17.84 -14.35l-7.18 8.92 -8.92 -7.18 7.18 -8.92 8.92 7.18zm-17.84 -14.35l-7.18 8.92 -8.92 -7.18 7.18 -8.92 8.92 7.18zm-17.84 -14.35l-7.18 8.92 -8.92 -7.18 7.18 -8.92 8.92 7.18zm-17.84 -14.35l-7.18 8.92 -8.92 -7.18 7.18 -8.92 8.92 7.18zm-17.84 -14.35l-7.18 8.92 -8.92 -7.17 7.18 -8.92 8.92 7.17zm-231.93 152.44l-7.18 -8.92 8.92 -7.18 7.18 8.92 -8.92 7.18zm17.84 -14.35l-7.18 -8.92 8.92 -7.18 7.18 8.92 -8.92 7.18zm17.84 -14.35l-7.18 -8.92 8.92 -7.18 7.18 8.92 -8.92 7.18zm17.84 -14.35l-7.18 -8.92 8.92 -7.18 7.18 8.92 -8.92 7.18zm17.84 -14.35l-7.18 -8.92 8.92 -7.18 7.18 8.92 -8.92 7.18zm17.84 -14.35l-0.99 -1.22 -6.19 -4.98 1.09 -1.36 -1.09 -1.36 6.19 -4.98 0.99 -1.22 0.27 0.22 1.48 -1.19 5.41 6.73 1.76 1.42 -0.31 0.39 0.31 0.39 -1.76 1.42 -5.41 6.73 -1.48 -1.19 -0.27 0.21zm17.84 -14.35l-7.18 -8.92 8.92 -7.18 7.18 8.92 -8.92 7.18zm17.84 -14.35l-7.18 -8.92 8.92 -7.18 7.18 8.92 -8.92 7.18zm17.84 -14.35l-7.18 -8.92 8.92 -7.18 7.18 8.92 -8.92 7.18zm17.84 -14.35l-7.18 -8.92 8.92 -7.18 7.18 8.92 -8.92 7.18zm17.84 -14.35l-7.18 -8.92 8.92 -7.17 7.18 8.92 -8.92 7.17zm-216.47 134.59l-7.18 8.92 -8.92 -7.18 7.18 -8.92 8.92 7.18zm-17.84 -14.35l-7.18 8.92 -8.92 -7.18 7.18 -8.92 8.92 7.18zm-17.84 -14.35l-7.18 8.92 -8.92 -7.18 7.18 -8.92 8.92 7.18zm-17.84 -14.35l-7.18 8.92 -8.92 -7.18 7.18 -8.92 8.92 7.18zm-17.84 -14.35l-7.18 8.92 -8.92 -7.18 7.18 -8.92 8.92 7.18zm-17.84 -14.35l-1.09 1.36 1.09 1.36 -6.19 4.98 -0.99 1.22 -0.27 -0.21 -1.48 1.19 -5.41 -6.73 -1.76 -1.42 0.31 -0.39 -0.31 -0.39 1.76 -1.42 5.41 -6.73 1.48 1.19 0.27 -0.22 0.99 1.22 6.19 4.98zm-17.84 -14.35l-7.18 8.92 -8.92 -7.18 7.18 -8.92 8.92 7.18zm-17.84 -14.35l-7.18 8.92 -8.92 -7.18 7.18 -8.92 8.92 7.18zm-17.84 -14.35l-7.18 8.92 -8.92 -7.18 7.18 -8.92 8.92 7.18zm-17.84 -14.35l-7.18 8.92 -8.92 -7.18 7.18 -8.92 8.92 7.18zm-17.84 -14.35l-7.18 8.92 -8.92 -7.17 7.18 -8.92 8.92 7.17zm619.64 -6.21l7.18 8.92 -8.92 7.18 -7.18 -8.92 8.92 -7.18zm-17.84 14.35l7.18 8.92 -8.92 7.18 -7.18 -8.92 8.92 -7.18zm-17.84 14.35l7.18 8.92 -8.92 7.18 -7.18 -8.92 8.92 -7.18zm-17.84 14.35l7.18 8.92 -8.92 7.18 -7.18 -8.92 8.92 -7.18zm-17.84 14.35l7.18 8.92 -8.92 7.18 -7.18 -8.92 8.92 -7.18zm-35.68 28.7l7.18 8.92 -8.92 7.18 -7.18 -8.92 8.92 -7.18zm-17.84 14.35l7.18 8.92 -8.92 7.18 -7.18 -8.92 8.92 -7.18zm-17.84 14.35l7.18 8.92 -8.92 7.18 -7.18 -8.92 8.92 -7.18zm-17.84 14.35l7.18 8.92 -8.92 7.18 -7.18 -8.92 8.92 -7.18zm-17.84 14.35l7.18 8.92 -8.92 7.17 -7.18 -8.92 8.92 -7.17zm-231.93 -134.59l7.18 -8.92 8.92 7.18 -7.18 8.92 -8.92 -7.18zm17.84 14.35l7.18 -8.92 8.92 7.18 -7.18 8.92 -8.92 -7.18zm17.84 14.35l7.18 -8.92 8.92 7.18 -7.18 8.92 -8.92 -7.18zm17.84 14.35l7.18 -8.92 8.92 7.18 -7.18 8.92 -8.92 -7.18zm17.84 14.35l7.18 -8.92 8.92 7.18 -7.18 8.92 -8.92 -7.18zm35.68 28.7l7.18 -8.92 8.92 7.18 -7.18 8.92 -8.92 -7.18zm17.84 14.35l7.18 -8.92 8.92 7.18 -7.18 8.92 -8.92 -7.18zm17.84 14.35l7.18 -8.92 8.92 7.18 -7.18 8.92 -8.92 -7.18zm17.84 14.35l7.18 -8.92 8.92 7.18 -7.18 8.92 -8.92 -7.18zm17.84 14.35l7.18 -8.92 8.92 7.17 -7.18 8.92 -8.92 -7.17zm-216.47 -152.43l7.18 8.92 -8.92 7.18 -7.18 -8.92 8.92 -7.18zm-17.84 14.35l7.18 8.92 -8.92 7.18 -7.18 -8.92 8.92 -7.18zm-17.84 14.35l7.18 8.92 -8.92 7.18 -7.18 -8.92 8.92 -7.18zm-17.84 14.35l7.18 8.92 -8.92 7.18 -7.18 -8.92 8.92 -7.18zm-17.84 14.35l7.18 8.92 -8.92 7.18 -7.18 -8.92 8.92 -7.18zm-35.68 28.7l7.18 8.92 -8.92 7.18 -7.18 -8.92 8.92 -7.18zm-17.84 14.35l7.18 8.92 -8.92 7.18 -7.18 -8.92 8.92 -7.18zm-17.84 14.35l7.18 8.92 -8.92 7.18 -7.18 -8.92 8.92 -7.18zm-17.84 14.35l7.18 8.92 -8.92 7.18 -7.18 -8.92 8.92 -7.18zm-17.84 14.35l7.18 8.92 -8.92 7.17 -7.18 -8.92 8.92 -7.17zm206.64 210.41l0.55 0.44 -7.18 8.92 -6.52 -5.25 -6.52 5.25 -7.16 -8.9c2.14,-0.23 4.29,-0.39 6.47,-0.46l20.37 0zm223.14 0l-6.75 8.4 -5.33 -4.29 -5.33 4.29 -6.75 -8.4 24.17 0zm225.27 0l0.55 0.44 -7.18 8.92 -6.52 -5.25 -6.52 5.25 -7.18 -8.92 0.55 -0.44 26.3 0zm223.14 0l-6.75 8.4 -5.33 -4.29 -5.33 4.29 -6.75 -8.4 24.17 0zm134.91 66.22l-0.68 0.55 -7.18 -8.92 4.08 -3.28c1.52,3.76 2.79,7.66 3.77,11.66zm-3.77 53.09l-4.08 -3.29 7.18 -8.92 0.68 0.55c-0.99,4 -2.26,7.89 -3.78,11.66zm-155.35 54.61l6.79 -8.45 5.33 4.29 5.33 -4.29 6.79 8.45 -24.25 0zm-225.17 0l-0.61 -0.49 7.18 -8.92 6.52 5.25 6.52 -5.25 7.18 8.92 -0.61 0.49 -26.18 0zm-223.24 0l6.79 -8.45 5.33 4.29 5.33 -4.29 6.79 8.45 -24.25 0zm-225.77 -0.5l7.17 -8.91 6.52 5.25 6.52 -5.25 7.18 8.92 -0.61 0.49 -17.45 0c-3.15,0 -6.26,-0.17 -9.33,-0.5zm-77.06 -76.66l3.94 3.17 -2.9 3.6c-0.44,-2.23 -0.78,-4.49 -1.04,-6.78zm1.04 -26.42l2.9 3.6 -3.94 3.17c0.26,-2.28 0.61,-4.55 1.04,-6.78zm553.56 -53.8l7.18 -8.92 8.92 7.18 -7.18 8.92 -8.92 -7.18zm17.84 14.35l7.18 -8.92 8.92 7.18 -7.18 8.92 -8.92 -7.18zm17.84 14.35l7.18 -8.92 8.92 7.18 -7.18 8.92 -8.92 -7.18zm17.84 14.35l7.18 -8.92 8.92 7.18 -7.18 8.92 -8.92 -7.18zm17.84 14.35l7.18 -8.92 8.92 7.18 -7.18 8.92 -8.92 -7.18zm17.84 14.35l1.09 -1.36 -1.09 -1.36 6.19 -4.98 0.99 -1.22 0.27 0.22 1.48 -1.19 5.41 6.73 1.76 1.42 -0.31 0.39 0.31 0.39 -1.76 1.42 -5.41 6.73 -1.48 -1.19 -0.27 0.22 -0.99 -1.22 -6.19 -4.98zm17.84 14.35l7.18 -8.92 8.92 7.18 -7.18 8.92 -8.92 -7.18zm17.84 14.35l7.18 -8.92 8.92 7.18 -7.18 8.92 -8.92 -7.18zm17.84 14.35l7.18 -8.92 8.92 7.18 -7.18 8.92 -8.92 -7.18zm17.84 14.35l7.18 -8.92 8.92 7.18 -7.18 8.92 -8.92 -7.18zm17.84 14.35l7.18 -8.92 8.92 7.17 -7.18 8.92 -8.92 -7.17zm160.57 -95.03l7.18 8.92 -8.92 7.18 -7.18 -8.92 8.92 -7.18zm-17.84 14.35l0.99 1.22 6.19 4.98 -1.09 1.36 1.09 1.36 -6.19 4.98 -0.99 1.22 -0.27 -0.22 -1.48 1.19 -5.41 -6.73 -1.76 -1.42 0.31 -0.39 -0.31 -0.39 1.76 -1.42 5.41 -6.73 1.48 1.19 0.27 -0.22zm-17.84 14.35l7.18 8.92 -8.92 7.18 -7.18 -8.92 8.92 -7.18zm-17.84 14.35l7.18 8.92 -8.92 7.18 -7.18 -8.92 8.92 -7.18zm-17.84 14.35l7.18 8.92 -8.92 7.18 -7.18 -8.92 8.92 -7.18zm-17.84 14.35l7.18 8.92 -8.92 7.18 -7.18 -8.92 8.92 -7.18zm-17.84 14.35l7.18 8.92 -8.92 7.17 -7.18 -8.92 8.92 -7.17zm-224.76 15.13l-7.18 -8.92 8.92 -7.18 7.18 8.92 -8.92 7.18zm17.84 -14.35l-7.18 -8.92 8.92 -7.18 7.18 8.92 -8.92 7.18zm17.84 -14.35l-7.18 -8.92 8.92 -7.18 7.18 8.92 -8.92 7.18zm17.84 -14.35l-7.18 -8.92 8.92 -7.18 7.18 8.92 -8.92 7.18zm17.84 -14.35l-7.18 -8.92 8.92 -7.18 7.18 8.92 -8.92 7.18zm35.68 -28.7l-7.18 -8.92 8.92 -7.18 7.18 8.92 -8.92 7.18zm17.84 -14.35l-7.18 -8.92 8.92 -7.18 7.18 8.92 -8.92 7.18zm17.84 -14.35l-7.18 -8.92 8.92 -7.18 7.18 8.92 -8.92 7.18zm17.84 -14.35l-7.18 -8.92 8.92 -7.18 7.18 8.92 -8.92 7.18zm17.84 -14.35l-7.18 -8.92 8.92 -7.17 7.18 8.92 -8.92 7.17zm160.57 77.19l-7.18 8.92 -8.92 -7.18 7.18 -8.92 8.92 7.18zm-35.68 -28.7l-7.18 8.92 -8.92 -7.18 7.18 -8.92 8.92 7.18zm-17.84 -14.35l-7.18 8.92 -8.92 -7.18 7.18 -8.92 8.92 7.18zm-17.84 -14.35l-7.18 8.92 -8.92 -7.18 7.18 -8.92 8.92 7.18zm-17.84 -14.35l-7.18 8.92 -8.92 -7.18 7.18 -8.92 8.92 7.18zm-17.84 -14.35l-7.18 8.92 -8.92 -7.17 7.18 -8.92 8.92 7.17zm-270 143.51l-7.18 8.92 -8.92 -7.18 7.18 -8.92 8.92 7.18zm-17.84 -14.35l-7.18 8.92 -8.92 -7.18 7.18 -8.92 8.92 7.18zm-17.84 -14.35l-7.18 8.92 -8.92 -7.18 7.18 -8.92 8.92 7.18zm-17.84 -14.35l-7.18 8.92 -8.92 -7.18 7.18 -8.92 8.92 7.18zm-17.84 -14.35l-7.18 8.92 -8.92 -7.18 7.18 -8.92 8.92 7.18zm-17.84 -14.35l-1.09 1.36 1.09 1.36 -6.19 4.98 -0.99 1.22 -0.27 -0.22 -1.48 1.19 -5.41 -6.73 -1.76 -1.42 0.31 -0.39 -0.31 -0.39 1.76 -1.42 5.41 -6.73 1.48 1.19 0.27 -0.22 0.99 1.22 6.19 4.98zm-17.84 -14.35l-7.18 8.92 -8.92 -7.18 7.18 -8.92 8.92 7.18zm-17.84 -14.35l-7.18 8.92 -8.92 -7.18 7.18 -8.92 8.92 7.18zm-17.84 -14.35l-7.18 8.92 -8.92 -7.18 7.18 -8.92 8.92 7.18zm-17.84 -14.35l-7.18 8.92 -8.92 -7.18 7.18 -8.92 8.92 7.18zm-17.84 -14.35l-7.18 8.92 -8.92 -7.17 7.18 -8.92 8.92 7.17zm-231.93 152.43l-7.18 -8.92 8.92 -7.18 7.18 8.92 -8.92 7.18zm17.84 -14.35l-7.18 -8.92 8.92 -7.18 7.18 8.92 -8.92 7.18zm17.84 -14.35l-7.18 -8.92 8.92 -7.18 7.18 8.92 -8.92 7.18zm17.84 -14.35l-7.18 -8.92 8.92 -7.18 7.18 8.92 -8.92 7.18zm17.84 -14.35l-7.18 -8.92 8.92 -7.18 7.18 8.92 -8.92 7.18zm17.84 -14.35l-0.99 -1.22 -6.19 -4.98 1.09 -1.36 -1.09 -1.36 6.19 -4.98 0.99 -1.22 0.27 0.22 1.48 -1.19 5.41 6.73 1.76 1.42 -0.31 0.39 0.31 0.39 -1.76 1.42 -5.41 6.73 -1.48 -1.19 -0.27 0.22zm17.84 -14.35l-7.18 -8.92 8.92 -7.18 7.18 8.92 -8.92 7.18zm17.84 -14.35l-7.18 -8.92 8.92 -7.18 7.18 8.92 -8.92 7.18zm17.84 -14.35l-7.18 -8.92 8.92 -7.18 7.18 8.92 -8.92 7.18zm17.84 -14.35l-7.18 -8.92 8.92 -7.18 7.18 8.92 -8.92 7.18zm17.84 -14.35l-7.18 -8.92 8.92 -7.17 7.18 8.92 -8.92 7.17zm-216.47 134.59l-7.18 8.92 -8.92 -7.18 7.18 -8.92 8.92 7.18zm-17.84 -14.35l-7.18 8.92 -8.92 -7.18 7.18 -8.92 8.92 7.18zm-17.84 -14.35l-7.18 8.92 -8.92 -7.18 7.18 -8.92 8.92 7.18zm-17.84 -14.35l-7.18 8.92 -8.92 -7.18 7.18 -8.92 8.92 7.18zm494.75 -106.67l7.18 8.92 -8.92 7.18 -7.18 -8.92 8.92 -7.18zm-17.84 14.35l7.18 8.92 -8.92 7.18 -7.18 -8.92 8.92 -7.18zm-17.84 14.35l7.18 8.92 -8.92 7.18 -7.18 -8.92 8.92 -7.18zm-17.84 14.35l7.18 8.92 -8.92 7.18 -7.18 -8.92 8.92 -7.18zm-17.84 14.35l7.18 8.92 -8.92 7.18 -7.18 -8.92 8.92 -7.18zm-35.68 28.7l7.18 8.92 -8.92 7.18 -7.18 -8.92 8.92 -7.18zm-17.84 14.35l7.18 8.92 -8.92 7.18 -7.18 -8.92 8.92 -7.18zm-17.84 14.35l7.18 8.92 -8.92 7.18 -7.18 -8.92 8.92 -7.18zm-17.84 14.35l7.18 8.92 -8.92 7.18 -7.18 -8.92 8.92 -7.18zm-17.84 14.35l7.18 8.92 -8.92 7.17 -7.18 -8.92 8.92 -7.17zm-231.93 -134.59l7.18 -8.92 8.92 7.18 -7.18 8.92 -8.92 -7.18zm17.84 14.35l7.18 -8.92 8.92 7.18 -7.18 8.92 -8.92 -7.18zm17.84 14.35l7.18 -8.92 8.92 7.18 -7.18 8.92 -8.92 -7.18zm17.84 14.35l7.18 -8.92 8.92 7.18 -7.18 8.92 -8.92 -7.18zm17.84 14.35l7.18 -8.92 8.92 7.18 -7.18 8.92 -8.92 -7.18zm35.68 28.7l7.18 -8.92 8.92 7.18 -7.18 8.92 -8.92 -7.18zm17.84 14.35l7.18 -8.92 8.92 7.18 -7.18 8.92 -8.92 -7.18zm17.84 14.35l7.18 -8.92 8.92 7.18 -7.18 8.92 -8.92 -7.18zm17.84 14.35l7.18 -8.92 8.92 7.18 -7.18 8.92 -8.92 -7.18zm17.84 14.35l7.18 -8.92 8.92 7.17 -7.18 8.92 -8.92 -7.17zm-216.47 -152.43l7.18 8.92 -8.92 7.18 -7.18 -8.92 8.92 -7.18zm-17.84 14.35l7.18 8.92 -8.92 7.18 -7.18 -8.92 8.92 -7.18zm-17.84 14.35l7.18 8.92 -8.92 7.18 -7.18 -8.92 8.92 -7.18zm-17.84 14.35l7.18 8.92 -8.92 7.18 -7.18 -8.92 8.92 -7.18zm-35.21 -57.57l0.55 -0.44 -7.18 -8.92 -6.52 5.25 -6.52 -5.25 -6.54 8.14c4.73,0.8 9.58,1.22 14.53,1.22l11.69 0zm223.14 0l-6.75 -8.4 -5.33 4.29 -5.33 -4.29 -6.75 8.4 24.17 0zm225.27 0l0.55 -0.44 -7.18 -8.92 -6.52 5.25 -6.52 -5.25 -7.18 8.92 0.55 0.44 26.3 0zm223.14 0l-6.75 -8.4 -5.33 4.29 -5.33 -4.29 -6.75 8.4 24.18 0zm225.27 0l0.55 -0.44 -7.18 -8.92 -6.52 5.25 -6.52 -5.25 -7.18 8.92 0.55 0.44 26.3 0zm-26.3 -173.88l-0.55 0.44 7.18 8.92 6.52 -5.25 6.52 5.25 7.18 -8.92 -0.55 -0.44 -26.3 0zm-223.14 0l6.76 8.4 5.33 -4.29 5.33 4.29 6.76 -8.4 -24.18 0zm-225.26 0l-0.55 0.44 7.18 8.92 6.52 -5.25 6.52 5.25 7.18 -8.92 -0.55 -0.44 -26.3 0zm-223.14 0l6.76 8.4 5.33 -4.29 5.33 4.29 6.76 -8.4 -24.18 0zm-225.18 1.22l6.55 8.14 6.52 -5.25 6.52 5.25 7.18 -8.92 -0.55 -0.44 -11.69 0c-4.95,0 -9.8,0.42 -14.53,1.22zm-68.71 60.7l3.89 4.84 8.92 -7.18 -7.18 -8.92 -2.12 1.71c-1.35,3.09 -2.53,6.28 -3.51,9.54zm3.52 59.57l2.12 1.71 7.18 -8.92 -8.92 -7.18 -3.89 4.84c0.99,3.27 2.16,6.45 3.52,9.55zm542.12 -104.96l7.18 -8.92 8.92 7.18 -7.18 8.92 -8.92 -7.18zm17.84 14.35l7.18 -8.92 8.92 7.18 -7.18 8.92 -8.92 -7.18zm17.84 14.35l7.18 -8.92 8.92 7.18 -7.18 8.92 -8.92 -7.18zm17.84 14.35l7.18 -8.92 8.92 7.18 -7.18 8.92 -8.92 -7.18zm17.84 14.35l7.18 -8.92 8.92 7.18 -7.18 8.92 -8.92 -7.18zm17.84 14.35l1.09 -1.36 -1.09 -1.36 6.19 -4.98 0.99 -1.22 0.27 0.22 1.48 -1.19 5.41 6.73 1.76 1.42 -0.31 0.39 0.31 0.39 -1.76 1.42 -5.41 6.73 -1.48 -1.19 -0.27 0.22 -0.99 -1.22 -6.19 -4.98zm17.84 14.35l7.18 -8.92 8.92 7.18 -7.18 8.92 -8.92 -7.18zm17.84 14.35l7.18 -8.92 8.92 7.18 -7.18 8.92 -8.92 -7.18zm17.84 14.35l7.18 -8.92 8.92 7.18 -7.18 8.92 -8.92 -7.18zm17.84 14.35l7.18 -8.92 8.92 7.18 -7.18 8.92 -8.92 -7.18zm17.84 14.35l7.18 -8.92 8.92 7.17 -7.18 8.92 -8.92 -7.17zm231.93 -152.44l7.18 8.92 -8.92 7.18 -7.18 -8.92 8.92 -7.18zm-17.84 14.35l7.18 8.92 -8.92 7.18 -7.18 -8.92 8.92 -7.18zm-17.84 14.35l7.18 8.92 -8.92 7.18 -7.18 -8.92 8.92 -7.18zm-17.84 14.35l7.18 8.92 -8.92 7.18 -7.18 -8.92 8.92 -7.18zm-17.84 14.35l7.18 8.92 -8.92 7.18 -7.18 -8.92 8.92 -7.18zm-17.84 14.35l0.99 1.22 6.19 4.98 -1.09 1.36 1.09 1.36 -6.19 4.98 -0.99 1.22 -0.27 -0.22 -1.48 1.19 -5.41 -6.73 -1.76 -1.42 0.31 -0.39 -0.31 -0.39 1.76 -1.42 5.41 -6.73 1.48 1.19 0.27 -0.22zm-17.84 14.35l7.18 8.92 -8.92 7.18 -7.18 -8.92 8.92 -7.18zm-17.84 14.35l7.18 8.92 -8.92 7.18 -7.18 -8.92 8.92 -7.18zm-17.84 14.35l7.18 8.92 -8.92 7.18 -7.18 -8.92 8.92 -7.18zm-17.84 14.35l7.18 8.92 -8.92 7.18 -7.18 -8.92 8.92 -7.18zm-17.84 14.35l7.18 8.92 -8.92 7.17 -7.18 -8.92 8.92 -7.17zm216.47 -134.59l7.18 -8.92 8.92 7.18 -7.18 8.92 -8.92 -7.18zm17.84 14.35l7.18 -8.92 8.92 7.18 -7.18 8.92 -8.92 -7.18zm17.84 14.35l7.18 -8.92 8.92 7.18 -7.18 8.92 -8.92 -7.18zm17.84 14.35l7.18 -8.92 8.92 7.18 -7.18 8.92 -8.92 -7.18zm17.84 14.35l7.18 -8.92 8.92 7.18 -7.18 8.92 -8.92 -7.18zm17.84 14.35l1.09 -1.36 -1.09 -1.36 6.19 -4.98 0.99 -1.22 0.27 0.22 1.48 -1.19 5.41 6.73 1.76 1.42 -0.31 0.39 0.31 0.39 -1.76 1.42 -5.41 6.73 -1.48 -1.19 -0.27 0.22 -0.99 -1.22 -6.19 -4.98zm17.84 14.35l7.18 -8.92 8.92 7.18 -7.18 8.92 -8.92 -7.18zm17.84 14.35l7.18 -8.92 8.92 7.18 -7.18 8.92 -8.92 -7.18zm-566.12 49.26l-7.18 -8.92 8.92 -7.18 7.18 8.92 -8.92 7.18zm17.84 -14.35l-7.18 -8.92 8.92 -7.18 7.18 8.92 -8.92 7.18zm17.84 -14.35l-7.18 -8.92 8.92 -7.18 7.18 8.92 -8.92 7.18zm17.84 -14.35l-7.18 -8.92 8.92 -7.18 7.18 8.92 -8.92 7.18zm17.84 -14.35l-7.18 -8.92 8.92 -7.18 7.18 8.92 -8.92 7.18zm35.68 -28.7l-7.18 -8.92 8.92 -7.18 7.18 8.92 -8.92 7.18zm17.84 -14.35l-7.18 -8.92 8.92 -7.18 7.18 8.92 -8.92 7.18zm17.84 -14.35l-7.18 -8.92 8.92 -7.18 7.18 8.92 -8.92 7.18zm17.84 -14.35l-7.18 -8.92 8.92 -7.18 7.18 8.92 -8.92 7.18zm17.84 -14.35l-7.18 -8.92 8.92 -7.17 7.18 8.92 -8.92 7.17zm231.93 134.59l-7.18 8.92 -8.92 -7.18 7.18 -8.92 8.92 7.18zm-17.84 -14.35l-7.18 8.92 -8.92 -7.18 7.18 -8.92 8.92 7.18zm-17.84 -14.35l-7.18 8.92 -8.92 -7.18 7.18 -8.92 8.92 7.18zm-17.84 -14.35l-7.18 8.92 -8.92 -7.18 7.18 -8.92 8.92 7.18zm-17.84 -14.35l-7.18 8.92 -8.92 -7.18 7.18 -8.92 8.92 7.18zm-35.68 -28.7l-7.18 8.92 -8.92 -7.18 7.18 -8.92 8.92 7.18zm-17.84 -14.35l-7.18 8.92 -8.92 -7.18 7.18 -8.92 8.92 7.18zm-17.84 -14.35l-7.18 8.92 -8.92 -7.18 7.18 -8.92 8.92 7.18zm-17.84 -14.35l-7.18 8.92 -8.92 -7.18 7.18 -8.92 8.92 7.18zm-17.84 -14.35l-7.18 8.92 -8.92 -7.17 7.18 -8.92 8.92 7.17zm216.47 152.43l-7.18 -8.92 8.92 -7.18 7.18 8.92 -8.92 7.18zm17.84 -14.35l-7.18 -8.92 8.92 -7.18 7.18 8.92 -8.92 7.18zm17.84 -14.35l-7.18 -8.92 8.92 -7.18 7.18 8.92 -8.92 7.18zm17.84 -14.35l-7.18 -8.92 8.92 -7.18 7.18 8.92 -8.92 7.18zm17.84 -14.35l-7.18 -8.92 8.92 -7.18 7.18 8.92 -8.92 7.18zm35.68 -28.7l-7.18 -8.92 8.92 -7.18 7.18 8.92 -8.92 7.18zm17.84 -14.35l-7.18 -8.92 8.92 -7.18 7.18 8.92 -8.92 7.18zm-611.36 91.54l-7.18 8.92 -8.92 -7.18 7.18 -8.92 8.92 7.18zm-17.84 -14.35l-7.18 8.92 -8.92 -7.18 7.18 -8.92 8.92 7.18zm-17.84 -14.35l-7.18 8.92 -8.92 -7.18 7.18 -8.92 8.92 7.18zm-17.84 -14.35l-7.18 8.92 -8.92 -7.18 7.18 -8.92 8.92 7.18zm-17.84 -14.35l-7.18 8.92 -8.92 -7.18 7.18 -8.92 8.92 7.18zm-17.84 -14.35l-1.09 1.36 1.09 1.36 -6.19 4.98 -0.99 1.22 -0.27 -0.22 -1.48 1.19 -5.41 -6.73 -1.76 -1.42 0.31 -0.39 -0.31 -0.39 1.76 -1.42 5.41 -6.73 1.48 1.19 0.27 -0.22 0.99 1.22 6.19 4.98zm-17.84 -14.35l-7.18 8.92 -8.92 -7.18 7.18 -8.92 8.92 7.18zm-17.84 -14.35l-7.18 8.92 -8.92 -7.18 7.18 -8.92 8.92 7.18zm-17.84 -14.35l-7.18 8.92 -8.92 -7.18 7.18 -8.92 8.92 7.18zm-17.84 -14.35l-7.18 8.92 -8.92 -7.18 7.18 -8.92 8.92 7.18zm-17.84 -14.35l-7.18 8.92 -8.92 -7.17 7.18 -8.92 8.92 7.17zm-231.93 152.43l-7.18 -8.92 8.92 -7.18 7.18 8.92 -8.92 7.18zm17.84 -14.35l-7.18 -8.92 8.92 -7.18 7.18 8.92 -8.92 7.18zm17.84 -14.35l-7.18 -8.92 8.92 -7.18 7.18 8.92 -8.92 7.18zm17.84 -14.35l-7.18 -8.92 8.92 -7.18 7.18 8.92 -8.92 7.18zm17.84 -14.35l-7.18 -8.92 8.92 -7.18 7.18 8.92 -8.92 7.18zm17.84 -14.35l-0.99 -1.22 -6.19 -4.98 1.09 -1.36 -1.09 -1.36 6.19 -4.98 0.99 -1.22 0.27 0.22 1.48 -1.19 5.41 6.73 1.76 1.42 -0.31 0.39 0.31 0.39 -1.76 1.42 -5.41 6.73 -1.48 -1.19 -0.27 0.22zm17.84 -14.35l-7.18 -8.92 8.92 -7.18 7.18 8.92 -8.92 7.18zm17.84 -14.35l-7.18 -8.92 8.92 -7.18 7.18 8.92 -8.92 7.18zm17.84 -14.35l-7.18 -8.92 8.92 -7.18 7.18 8.92 -8.92 7.18zm17.84 -14.35l-7.18 -8.92 8.92 -7.18 7.18 8.92 -8.92 7.18zm17.84 -14.35l-7.18 -8.92 8.92 -7.17 7.18 8.92 -8.92 7.17zm-216.47 134.59l-7.18 8.92 -8.92 -7.18 7.18 -8.92 8.92 7.18zm-17.84 -14.35l-7.18 8.92 -8.92 -7.18 7.18 -8.92 8.92 7.18zm-17.84 -14.35l-7.18 8.92 -8.92 -7.18 7.18 -8.92 8.92 7.18zm476.91 -121.02l7.18 8.92 -8.92 7.18 -7.18 -8.92 8.92 -7.18zm-17.84 14.35l7.18 8.92 -8.92 7.18 -7.18 -8.92 8.92 -7.18zm-17.84 14.35l7.18 8.92 -8.92 7.18 -7.18 -8.92 8.92 -7.18zm-17.84 14.35l7.18 8.92 -8.92 7.18 -7.18 -8.92 8.92 -7.18zm-17.84 14.35l7.18 8.92 -8.92 7.18 -7.18 -8.92 8.92 -7.18zm-35.68 28.7l7.18 8.92 -8.92 7.18 -7.18 -8.92 8.92 -7.18zm-17.84 14.35l7.18 8.92 -8.92 7.18 -7.18 -8.92 8.92 -7.18zm-17.84 14.35l7.18 8.92 -8.92 7.18 -7.18 -8.92 8.92 -7.18zm-17.84 14.35l7.18 8.92 -8.92 7.18 -7.18 -8.92 8.92 -7.18zm-17.84 14.35l7.18 8.92 -8.92 7.17 -7.18 -8.92 8.92 -7.17zm-231.93 -134.59l7.18 -8.92 8.92 7.18 -7.18 8.92 -8.92 -7.18zm17.84 14.35l7.18 -8.92 8.92 7.18 -7.18 8.92 -8.92 -7.18zm17.84 14.35l7.18 -8.92 8.92 7.18 -7.18 8.92 -8.92 -7.18zm17.84 14.35l7.18 -8.92 8.92 7.18 -7.18 8.92 -8.92 -7.18zm17.84 14.35l7.18 -8.92 8.92 7.18 -7.18 8.92 -8.92 -7.18zm35.68 28.7l7.18 -8.92 8.92 7.18 -7.18 8.92 -8.92 -7.18zm17.84 14.35l7.18 -8.92 8.92 7.18 -7.18 8.92 -8.92 -7.18zm17.84 14.35l7.18 -8.92 8.92 7.18 -7.18 8.92 -8.92 -7.18zm17.84 14.35l7.18 -8.92 8.92 7.18 -7.18 8.92 -8.92 -7.18zm17.84 14.35l7.18 -8.92 8.92 7.17 -7.18 8.92 -8.92 -7.17zm-216.47 -152.44l7.18 8.92 -8.92 7.18 -7.18 -8.92 8.92 -7.18zm-17.84 14.35l7.18 8.92 -8.92 7.18 -7.18 -8.92 8.92 -7.18zm-17.84 14.35l7.18 8.92 -8.92 7.18 -7.18 -8.92 8.92 -7.18z"/>
   <path class="fil6" d="M1039.79 1552.4l0 35.97 26.27 0c4.94,0 9.44,-2.03 12.7,-5.29 3.26,-3.26 5.29,-7.76 5.29,-12.7l0 -0c0,-4.94 -2.03,-9.44 -5.29,-12.7 -3.26,-3.26 -7.76,-5.29 -12.7,-5.29l-26.27 0zm-218.97 -1034.67l96.36 -55.88c-38.83,10.14 -75.7,25.12 -109.93,44.25l13.57 11.63zm119.28 -61.25l-116.78 67.72 -2.81 130.28 44.11 -55.76c22.14,-27.99 46.78,-57.35 75.68,-79.82 25.69,-19.98 54.73,-34.53 88.34,-37.94l-38.07 -32.14c-17.11,1.65 -33.94,4.22 -50.47,7.66zm260.18 19.5l-72.47 38.68 0.65 0.66c20.85,21.25 35.56,49.82 48.33,79.26l76.58 176.54 152.21 -85.36 3.84 -55.24c-12.5,-16.26 -26.04,-31.68 -40.52,-46.16 -47.33,-47.33 -104.69,-84.61 -168.63,-108.39zm-380.02 189.84l-56.17 71.02 -210.68 266.37 244.64 0 131.46 -284.85c2.38,-5.15 4.66,-10.26 7.04,-15.63 22.3,-50.1 54.1,-121.54 113.06,-122.01 18.08,-0.14 33.11,8.26 46.07,21.22l0 0.01c12.63,12.64 23.26,29.58 32.83,47.03l155.01 282.66 0.69 1.27 -0.43 1.38c-2.56,8.28 -2.81,15.04 -1.35,20.51 1.59,5.93 5.26,10.46 10.23,13.86 6,4.11 13.89,6.66 22.37,8.13 10.96,1.89 22.85,1.94 32.97,1.2l0.7 -0.05 0.7 0.25c7.44,2.69 13.9,5.02 20.42,7.27 6.06,2.09 11.54,3.86 16.88,5.38 7.15,2.04 14.15,3.65 22.11,5.02 3.95,0.68 8.11,1.29 12.63,1.86 -3.7,-2.36 -7.1,-4.66 -10.31,-6.96 -6.77,-4.86 -12.7,-9.72 -18.77,-15.05l-0.01 0c-4.72,-4.15 -9.64,-8.7 -15.15,-13.79l0 -0.01c-1.47,-1.36 -3.34,-3.08 -7.67,-7.06l-2.76 -2.53 2.79 -2.53c19.02,-17.21 53.2,-16.16 81.56,-15.29 7.55,0.23 14.68,0.45 20.89,0.3l3.38 -0.08c0.59,-0.94 1.14,-1.87 1.64,-2.77 2.95,-5.34 4.18,-9.69 2.75,-12.16 -2.63,-4.56 -16.88,-8.27 -24.06,-10.13l-1.4 -0.37 -0.01 0c-8.53,-2.24 -17.53,-4.21 -26.32,-6.12 -3.19,-0.69 -6.17,-1.34 -10.81,-2.39l0 -0c-11.23,-2.27 -20.69,-4.51 -29.22,-6.54 -19.65,-4.66 -34.39,-8.16 -46.9,-6.65 -5.47,0.66 -10.6,2.29 -15.64,5.21 -5.14,2.99 -10.25,7.36 -15.57,13.43l-3.56 4.07 -2.15 -4.97 -133.64 -308.06c-12.48,-28.79 -26.82,-56.67 -46.94,-77.17 -19.87,-20.25 -45.54,-33.37 -80.95,-33.08 -37.84,0.3 -70.01,15.42 -98.12,37.28 -28.39,22.08 -52.68,51.03 -74.52,78.64l-49.72 62.86zm-70.25 77.8l-72.15 34.72 0.55 55.81 71.6 -90.53zm-78.36 99.07l-0.64 -64.4 -69.74 -40.27c-22.7,55.15 -35.23,115.57 -35.23,178.91 0,14.61 0.66,28.97 1.94,43.05 0.37,4.07 0.79,8.13 1.27,12.18l102.4 -129.47zm484.11 -129.7l-40.71 -21.47 0 -52.2c2.55,4.25 5.02,8.6 7.43,12.99l33.28 60.68zm-47.57 -84.52l0 63.21 -139.67 80.08 -45.14 -23.78 12.34 -26.73c2.12,-4.59 4.54,-10.02 7.07,-15.71 21.56,-48.45 52.31,-117.52 106.87,-117.96 15.95,-0.13 29.41,7.49 41.16,19.24l0.01 -0.01c6.23,6.23 11.98,13.62 17.37,21.65zm-187.68 125.74l44.13 23.25 0 165.71 -90.28 56.62 -67.18 0 113.33 -245.58zm-33.26 245.58l81.54 -51.14 82.27 51.14 -163.81 0zm284.13 0l104.85 -63.87c-1.99,8.02 -1.98,14.87 -0.42,20.68 2.05,7.66 6.71,13.45 12.99,17.75 6.89,4.72 15.72,7.61 25.08,9.23 11.31,1.95 23.47,2.05 33.9,1.32 7.68,2.78 14.33,5.18 19.83,7.07 6.13,2.11 11.71,3.91 17.22,5.48 2.96,0.84 5.89,1.61 8.87,2.33l-222.32 0zm292.74 -278.56l-55.11 -29.5 -152.89 85.74 52.22 120.37c4.58,-4.69 9.08,-8.27 13.66,-10.93 5.89,-3.43 11.88,-5.33 18.27,-6.1 13.73,-1.65 28.97,1.96 49.29,6.79 8.83,2.1 18.63,4.42 29.06,6.52l0.08 0.01c2.42,0.55 6.66,1.47 10.75,2.36 8.75,1.9 17.71,3.86 26.62,6.2l0 0 1.39 0.36c8.1,2.1 24.2,6.29 28.27,13.35 2.78,4.84 1.42,11.46 -2.67,18.87 -4.2,7.61 -11.4,16.39 -19.76,24.9l-18.78 19.11 13.37 -23.21 8.27 -14.36c-4.78,-0.03 -9.9,-0.18 -15.21,-0.35 -25.64,-0.79 -56.25,-1.73 -73.86,11.14l4.76 4.39 0.01 -0.01c5.41,4.99 10.23,9.45 15.04,13.68l-0.01 0.01c5.92,5.2 11.69,9.94 18.25,14.64 6.56,4.71 13.92,9.41 23.03,14.56l5.2 0 60.03 -27.1c0.5,-4.22 0.95,-8.46 1.33,-12.71 1.28,-14.08 1.94,-28.44 1.94,-43.05 0,-69.84 -15.23,-136.12 -42.54,-195.71zm-427.77 -281.47c131.77,0 251.07,53.41 337.41,139.76 86.35,86.35 139.76,205.65 139.76,337.41 0,14.62 -0.68,29.19 -2,43.66 -1.31,14.42 -3.27,28.64 -5.82,42.62l68.4 0c25.8,0 49.26,10.55 66.26,27.55 17,17 27.55,40.46 27.55,66.27l0 0c0,25.8 -10.56,49.26 -27.55,66.26 -17,17 -40.46,27.55 -66.26,27.55l-14.12 0c11.72,4.78 22.27,11.86 31.09,20.68 17,17 27.56,40.47 27.56,66.27l0 0c0,25.8 -10.56,49.27 -27.56,66.27 -17.01,17 -40.47,27.56 -66.27,27.56l-83.59 0c11.75,4.78 22.33,11.87 31.17,20.71 17,17 27.56,40.44 27.56,66.22l0 0c0,25.78 -10.55,49.22 -27.56,66.22 -17,17 -40.46,27.56 -66.26,27.56l-322.96 0 0.47 0.46c4.5,4.5 7.3,10.73 7.3,17.57l0 0c0,6.84 -2.8,13.07 -7.3,17.57 -3.54,3.54 -8.16,6.04 -13.3,6.93 0.31,0.28 0.62,0.57 0.91,0.87 4.49,4.49 7.29,10.69 7.29,17.49l0 0c0,6.8 -2.79,12.99 -7.29,17.49 -3.44,3.44 -7.87,5.88 -12.83,6.85 0.38,0.33 0.74,0.68 1.1,1.03 4.49,4.49 7.29,10.69 7.29,17.49l0 0.01c0,6.8 -2.79,12.99 -7.29,17.49 -2.57,2.56 -5.69,4.58 -9.16,5.83 0.34,0.3 0.68,0.62 1,0.94 3.84,3.84 6.23,9.14 6.23,14.95l0 7.29c0,5.82 -2.39,11.11 -6.23,14.95 -3.84,3.85 -9.15,6.23 -14.99,6.23l-0 0c-5.83,0 -11.15,-2.39 -14.99,-6.23 -3.84,-3.84 -6.23,-9.14 -6.23,-14.95l0 -7.29c0,-5.81 2.39,-11.11 6.23,-14.95 0.32,-0.33 0.66,-0.64 1,-0.94 -3.48,-1.26 -6.6,-3.27 -9.16,-5.83 -4.5,-4.49 -7.29,-10.69 -7.29,-17.49l0 -0.01c0,-6.8 2.79,-12.99 7.29,-17.49 0.35,-0.35 0.72,-0.7 1.1,-1.03 -4.95,-0.97 -9.39,-3.41 -12.83,-6.85 -4.49,-4.5 -7.29,-10.69 -7.29,-17.49l0 -0c0,-6.8 2.79,-12.99 7.29,-17.49 0.3,-0.3 0.6,-0.58 0.91,-0.87 -5.14,-0.9 -9.75,-3.39 -13.3,-6.93 -4.5,-4.5 -7.3,-10.73 -7.3,-17.57l0 -0c0,-6.84 2.8,-13.07 7.3,-17.57l0.47 -0.46 -322.96 0c-25.8,0 -49.26,-10.55 -66.26,-27.56 -17,-17 -27.56,-40.45 -27.56,-66.23l0 -0c0,-25.78 10.55,-49.22 27.56,-66.22 8.84,-8.84 19.42,-15.94 31.17,-20.71l-83.6 0c-25.8,0 -49.26,-10.56 -66.27,-27.56 -17,-17 -27.56,-40.47 -27.56,-66.27l0 -0c0,-25.8 10.56,-49.27 27.56,-66.27 8.82,-8.82 19.37,-15.9 31.09,-20.68l-14.12 0c-25.8,0 -49.26,-10.55 -66.26,-27.55 -17,-17 -27.56,-40.46 -27.56,-66.26l0 -0c0,-25.8 10.56,-49.27 27.56,-66.27 17,-17 40.46,-27.55 66.26,-27.55l46.08 0 18.61 -23.53c-0.83,-6.32 -1.54,-12.69 -2.12,-19.09 -1.32,-14.47 -2,-29.04 -2,-43.66 0,-131.77 53.41,-251.06 139.76,-337.41 86.35,-86.35 205.65,-139.76 337.42,-139.76zm-488.45 924.99l976.9 0c23.91,0 45.64,-9.78 61.4,-25.54 15.75,-15.75 25.54,-37.49 25.54,-61.4l0 -0c0,-23.91 -9.78,-45.64 -25.54,-61.4 -15.76,-15.75 -37.49,-25.54 -61.4,-25.54l-976.9 0c-23.91,0 -45.64,9.78 -61.4,25.54 -15.75,15.75 -25.54,37.49 -25.54,61.4l0 0c0,23.91 9.78,45.65 25.54,61.4 15.76,15.76 37.49,25.54 61.4,25.54zm861.07 6.9l-745.24 0c-22.78,0.75 -43.42,10.37 -58.54,25.49 -15.76,15.76 -25.55,37.51 -25.55,61.44l0 0c0,23.93 9.79,45.69 25.55,61.45 15.75,15.75 37.5,25.54 61.4,25.54l338.55 0c0.5,-0.03 1.01,-0.05 1.51,-0.05l59.4 0c0.51,0 1.01,0.02 1.51,0.05l338.55 0c23.91,0 45.65,-9.79 61.4,-25.54 15.76,-15.76 25.55,-37.51 25.55,-61.44l0 -0c0,-23.93 -9.79,-45.68 -25.55,-61.44 -15.12,-15.12 -35.77,-24.75 -58.54,-25.49zm-862.64 -187.66l1.57 -0.01 976.9 0 1.57 0.01 47.73 0c23.91,0 45.65,-9.79 61.41,-25.54 15.76,-15.76 25.54,-37.5 25.54,-61.4l0 -0c0,-23.91 -9.79,-45.65 -25.54,-61.41 -15.76,-15.76 -37.5,-25.54 -61.41,-25.54l-771.68 0 -2.19 0 -253.9 0 -7.08 0 -40.65 0c-23.91,0 -45.65,9.79 -61.4,25.54 -15.76,15.76 -25.55,37.5 -25.55,61.41l0 0c0,23.9 9.79,45.65 25.55,61.4 15.76,15.76 37.5,25.54 61.4,25.54l47.73 0zm486.58 404.39l0 -35.97 -26.26 0c-4.94,0 -9.44,2.03 -12.7,5.29 -3.26,3.26 -5.29,7.76 -5.29,12.7l0 0c0,4.94 2.03,9.44 5.29,12.7 3.26,3.26 7.76,5.29 12.7,5.29l26.26 0zm22.44 6.89l-15.57 0 0 36.05 2.15 0 11.73 0c4.94,0 9.44,-2.03 12.7,-5.28 3.27,-3.27 5.3,-7.79 5.3,-12.78l0 -0c0,-4.99 -2.03,-9.51 -5.3,-12.78 -2.88,-2.88 -6.73,-4.8 -11,-5.2zm-22.44 0l-15.57 0c-4.27,0.4 -8.12,2.32 -11,5.2 -3.27,3.27 -5.3,7.79 -5.3,12.78l0 0c0,4.99 2.03,9.51 5.3,12.78 3.25,3.26 7.75,5.28 12.69,5.28l11.73 0 2.14 0 0 -36.05zm6.87 42.78l0 36.13 2.15 0c4.94,0 9.44,-2.03 12.69,-5.28 3.27,-3.27 5.3,-7.79 5.3,-12.78l0 -0.01c0,-4.99 -2.03,-9.51 -5.3,-12.78 -3.25,-3.26 -7.75,-5.28 -12.69,-5.28l-2.15 0zm-6.87 36.13l0 -36.13 -2.14 0c-4.94,0 -9.44,2.03 -12.69,5.28 -3.27,3.27 -5.3,7.79 -5.3,12.78l0 0.01c0,4.99 2.03,9.51 5.3,12.78 3.26,3.26 7.75,5.28 12.69,5.28l2.14 0zm6.87 7.18l0 35.23c2.58,-0.64 4.88,-1.98 6.7,-3.8 2.6,-2.6 4.22,-6.2 4.22,-10.17l0 -7.29c0,-3.97 -1.62,-7.57 -4.22,-10.17 -1.82,-1.82 -4.12,-3.16 -6.7,-3.8zm-6.87 35.23l0 -35.23c-2.57,0.64 -4.88,1.98 -6.7,3.8 -2.6,2.6 -4.22,6.21 -4.22,10.17l0 7.29c0,3.97 1.62,7.57 4.22,10.17 1.82,1.82 4.13,3.16 6.7,3.8z"/>
  </g>
 </g>
</svg>
