<?xml version="1.0" encoding="UTF-8"?>
<!DOCTYPE svg PUBLIC "-//W3C//DTD SVG 1.1//EN" "http://www.w3.org/Graphics/SVG/1.1/DTD/svg11.dtd">
<!-- Creator: CorelDRAW 2020 (64 Bit) -->
<svg xmlns="http://www.w3.org/2000/svg" xml:space="preserve" width="137.735mm" height="135.627mm" version="1.1" style="shape-rendering:geometricPrecision; text-rendering:geometricPrecision; image-rendering:optimizeQuality; fill-rule:evenodd; clip-rule:evenodd"
viewBox="0 0 1092.19 1075.47"
 xmlns:xlink="http://www.w3.org/1999/xlink"
 xmlns:xodm="http://www.corel.com/coreldraw/odm/2003">
 <defs>
  <style type="text/css">
   <![CDATA[
    .fil3 {fill:#FEFEFE}
    .fil2 {fill:#FEFEFE;fill-rule:nonzero}
    .fil1 {fill:#901F5A;fill-rule:nonzero}
    .fil0 {fill:#0077BD;fill-rule:nonzero}
   ]]>
  </style>
 </defs>
 <g id="Camada_x0020_1">
  <metadata id="CorelCorpID_0Corel-Layer"/>
  <g id="_2346486484416">
   <g>
    <g>
     <path class="fil0" d="M913.29 437.56l-726.26 0c0,0 48.06,-281.43 360.45,-281.43 312.39,0 365.81,281.43 365.81,281.43z"/>
     <path class="fil0" d="M913.29 647.38l-726.26 0c0,0 48.06,275.33 368.67,275.33 320.61,0 357.59,-275.33 357.59,-275.33z"/>
     <path class="fil1" d="M546.17 209.97c183.04,0 332.5,149.45 332.5,332.64 0,183.04 -149.45,332.5 -332.5,332.5 -183.19,0 -332.64,-149.45 -332.64,-332.5 0,-183.19 149.45,-332.64 332.64,-332.64zm-400.71 -39.51l0 0 51.05 101.07 0.03 0.44c-24.32,31.33 -44.54,66 -59.83,103.19l-0.14 0.1 -112.9 6.36 -23.68 133.47 104.03 44.69 0.05 0.37c1.6,40.71 8.75,80.05 20.72,117.26l0.1 0.17 -82.57 77.39 67.92 117.49 108.32 -32.7 0.22 -0.15c26.87,29.57 57.68,55.51 91.58,76.97l-0.05 0.28 -13.47 112.31 127.55 46.32 61.85 -94.55 0.09 -0.05c19.58,2.67 39.55,4.04 59.84,4.04 20.22,0 40.13,-1.37 59.65,-4.02l0.13 0.03 62 94.55 127.41 -46.32 -13.47 -112.31 -0.08 -0.23c33.85,-21.43 64.61,-47.32 91.46,-76.84l0.51 -0.02 108.32 32.7 67.77 -117.49 -82.42 -77.39 -0.13 0.08c12.05,-37.41 19.24,-76.97 20.81,-117.92l0.03 0.05 104.03 -44.69 -23.53 -133.47 -113.05 -6.36 -0.19 -0.25c-15.21,-36.96 -35.29,-71.44 -59.44,-102.62l-0.15 -0.86 50.91 -101.07 -103.88 -87.16 -90.56 67.77 -0.49 0.01c-34.9,-18.44 -72.52,-32.35 -112.1,-40.93l-0.02 -0.07 -25.9 -110.09 -135.39 0 -25.9 110.09 -0.06 0.1c-39.64,8.61 -77.34,22.55 -112.28,41.04l-0.27 -0.16 -90.56 -67.77 -103.88 87.16z"/>
     <path class="fil1" d="M309.48 518.78l37.12 0 0 -20.39c0,0 2.43,-41.68 -50.5,-41.68 -46.55,0 -46.85,41.68 -46.85,41.68l0 86.4c0,0 -2.43,43.81 46.85,43.81 55.68,0 51.11,-44.11 51.11,-44.11l0 -23.73 -37.12 0 0 23.73c0,0 1.52,14.6 -14,14.6 -11.26,0 -11.26,-12.78 -11.26,-14.6 0,-1.83 0,-86.1 0,-86.1 0,0 -0.3,-12.47 11.26,-12.47 12.47,0 13.08,12.47 13.08,12.47l0.3 20.39z"/>
     <path class="fil1" d="M392.54 624.34l-36.51 0 33.77 -163.98 44.42 0 31.94 163.98 -36.51 0 -4.26 -31.64 -28.6 0 -4.26 31.64zm19.17 -132.65l0 0 -10.65 73.63 20.08 0 -9.43 -73.63z"/>
     <path class="fil1" d="M674.11 624.34l-36.51 0 33.77 -163.98 44.42 0 31.95 163.98 -36.51 0 -4.26 -31.64 -28.6 0 -4.26 31.64zm19.17 -132.65l0 0 -10.65 73.63 20.08 0 -9.43 -73.63z"/>
     <polygon class="fil1" points="504.2,624.34 468.91,624.34 503.59,542.5 470.73,460.36 507.85,460.36 523.97,510.86 539.49,460.36 577.21,460.36 544.66,542.5 578.12,624.34 540.71,624.34 523.97,575.67 "/>
     <g>
      <polygon class="fil1" points="590.9,460.36 626.81,460.36 626.81,624.34 590.9,624.34 "/>
     </g>
     <path class="fil1" d="M785.01 584.49l0 -14.3 -33.16 0 0 14.3c0,0 -3.35,41.98 45.03,41.98 48.37,0 47.76,-38.94 47.76,-41.98 0,-3.04 0.61,-17.95 -1.83,-26.77 -2.43,-8.82 -9.43,-18.26 -25.86,-29.21 -16.43,-10.95 -24.95,-14.3 -27.38,-19.78 -2.43,-5.48 -2.13,-6.69 -2.13,-10.34 0,-3.65 0.91,-12.78 10.95,-12.78 10.04,0 13.39,9.73 13.39,12.78 0,3.04 0,10.04 0,10.04l33.47 0 0 -10.04c0,0 0,-42.59 -48.37,-42.59 -39.86,0 -43.2,41.38 -43.2,42.59 0,1.22 -0.91,20.99 5.17,30.12 6.08,9.13 14.3,16.12 20.69,20.69 6.39,4.57 21.3,13.08 25.86,19.17 4.56,6.08 6.09,10.04 6.39,12.47 0.3,2.43 -0.3,3.65 -0.3,3.65 0,0 0.91,14.3 -14.6,14.3 -10.65,0 -11.87,-14.3 -11.87,-14.3z"/>
     <path class="fil2" d="M379.46 776.24l0 -96.14 32.86 0c0,0 9.43,-0.3 15.82,6.7 6.39,7 6.09,12.78 6.09,12.78l0 57.81c0,0 0,7.3 -5.78,12.47 -5.78,5.17 -10.73,5.19 -15.52,6.08 -4.87,0.92 -33.46,0.3 -33.46,0.3zm29.51 -19.17l0 0c4.57,-1.52 4.26,-8.21 4.26,-8.21l0 -40.46c0,0 0.61,-4.26 -2.43,-7.61 -3.04,-3.35 -10.34,-3.04 -10.34,-3.04l0 60.24c0,0 3.96,0.61 8.52,-0.91 0,0 -4.56,1.52 0,0z"/>
     <path class="fil2" d="M444.26 753.73c0,0 0,-45.94 0,-52.02 0,-6.09 3.35,-23.12 29.51,-23.12 26.16,0 27.38,21.3 27.38,22.82 0,1.52 0,52.02 0,52.02 0,0 0.91,25.86 -27.38,25.86 -28.29,0 -29.51,-25.55 -29.51,-25.55zm29.51 7l0 0c6.69,0 6.69,-7.3 6.69,-7.3l0 -52.02c0,0 -0.3,-6.09 -6.69,-6.09 -7.91,0 -8.52,6.09 -8.52,6.09l0 52.02c0,0 -0.61,7.3 8.52,7.3 0,0 -9.13,0 0,0z"/>
     <path class="fil2" d="M446.04 367.24l-18.78 0 0 13.72c0,0 0,19.98 25.04,19.98 25.05,0 26.83,-19.08 26.83,-19.08 0,0 0.6,-12.82 0.3,-15.5 -0.3,-2.68 0.15,-7.9 -7.16,-15.21 -8.2,-8.2 -14.61,-11.33 -18.19,-13.72 -3.58,-2.38 -6.86,-5.37 -6.56,-11.03 0.3,-5.66 4.18,-6.56 6.86,-6.56 2.68,0 6.26,1.49 6.26,6.26 0,4.77 0.3,7.45 0.3,7.45l18.78 0c0,0 4.17,-31.01 -25.94,-31.01 -26.83,0 -25.94,23.26 -25.94,25.04 0,1.79 0,13.12 3.28,16.99 3.28,3.88 7.45,8.65 16.1,14.61 8.65,5.96 12.22,9.84 13.12,12.52 0.89,2.68 0.6,11.63 -7.16,11.63 -7.16,0 -7.16,-6.56 -7.16,-8.35 0,-1.79 0,-7.75 0,-7.75z"/>
     <polygon class="fil2" points="538.58,324.73 538.58,341.16 564.13,341.16 564.13,360.93 538.27,360.93 538.27,381.01 565.35,381.01 565.35,400.49 517.28,400.49 517.28,304.65 565.65,304.65 565.65,324.73 "/>
     <path class="fil2" d="M621.8 362.76l0 37.42 -20.69 0 0 -95.53 34.07 0c0,0 15.74,-1.23 20.99,14.91 4.26,13.08 0.77,21.69 -0.3,25.25 -1.83,6.09 -9.44,8.52 -9.44,8.52 0,0 9.44,1.52 10.04,9.43 0.61,7.91 0.91,30.42 0.91,30.42 0,0 1.22,5.48 2.74,6.69 1.52,1.22 -20.69,0.61 -20.69,0.61 0,0 -3.35,-0.61 -3.35,-3.65 0,-3.04 0,-27.38 0,-27.38 0,0 0,-7 -7,-7 -7.3,0 -7.3,0.31 -7.3,0.31zm9.74 -17.34l0 0c4.26,0 4.82,-4.49 5.17,-6.08 0.61,-2.74 0.3,-6.68 0.3,-9.74 0,-4.87 -4.87,-6.08 -6.39,-6.69 -1.52,-0.61 -8.21,-0.3 -8.21,-0.3l0 22.82c0,0 4.25,0 9.13,0 0,0 -4.88,0 0,0z"/>
     <polygon class="fil3" points="489.69,379.97 502.78,379.97 502.78,399.3 489.69,399.3 "/>
     <polygon class="fil3" points="575.2,380.09 588.29,380.09 588.29,399.43 575.2,399.43 "/>
     <polygon class="fil3" points="669.09,379.97 682.18,379.97 682.18,399.3 669.09,399.3 "/>
     <g>
      <path class="fil2" d="M563.4 753.42l0 -8.82 -18.86 0 0 8.82c0,0 -1.52,25.25 24.95,25.25 26.47,0 27.99,-23.73 27.99,-25.25 0,-1.52 0.91,-16.12 -7.61,-24.95 -7.66,-7.93 -18.86,-13.39 -21.6,-16.43 -2.74,-3.04 -3.65,-5.78 -3.65,-8.82 0,-3.04 1.52,-7.3 6.69,-7.3 5.17,0 7.61,3.65 7.61,5.47 0,1.82 0,8.22 0,8.22l18.86 0 0 -8.22c0,0 -0.91,-23.12 -27.38,-23.12 -23.73,0 -25.25,23.12 -25.25,23.12 0,0 -0.17,14.4 2.43,18.86 4.26,7.3 13.39,13.39 17.34,15.82 3.96,2.43 10.04,7.3 11.56,10.34 1.52,3.04 1.83,3.35 1.83,7 0,3.65 -2.13,7 -7.91,7 -7.3,0 -7,-7 -7,-7z"/>
      <path class="fil2" d="M605.69 753.42l0 -73.32 21.6 0 0 73.32c0,0 -1.06,6.85 6.85,6.85 7.91,0 7,-7 7,-7l0 -72.86 20.84 0 0 73.02c0,0 1.82,26.47 -27.99,26.47 -29.82,0 -28.29,-26.47 -28.29,-26.47z"/>
      <polygon class="fil2" points="671.71,680.4 692.7,680.4 692.7,755.85 717.95,755.85 717.95,775.93 671.71,775.93 "/>
     </g>
    </g>
   </g>
  </g>
 </g>
</svg>
