<?xml version="1.0" encoding="UTF-8"?>
<!DOCTYPE svg PUBLIC "-//W3C//DTD SVG 1.1//EN" "http://www.w3.org/Graphics/SVG/1.1/DTD/svg11.dtd">
<!-- Creator: CorelDRAW 2020 (64 Bit) -->
<svg xmlns="http://www.w3.org/2000/svg" xml:space="preserve" width="64.5956mm" height="70.0945mm" version="1.1" style="shape-rendering:geometricPrecision; text-rendering:geometricPrecision; image-rendering:optimizeQuality; fill-rule:evenodd; clip-rule:evenodd"
viewBox="0 0 231.83 251.57"
 xmlns:xlink="http://www.w3.org/1999/xlink"
 xmlns:xodm="http://www.corel.com/coreldraw/odm/2003">
 <defs>
  <style type="text/css">
   <![CDATA[
    .fil0 {fill:#FEFEFE}
    .fil1 {fill:#373435}
   ]]>
  </style>
 </defs>
 <g id="Camada_x0020_1">
  <metadata id="CorelCorpID_0Corel-Layer"/>
  <g id="_2346851425184">
   <path class="fil0" d="M115.96 245.99l0 0c-3.3,0 -6.42,-1.55 -8.35,-4.23 -8.42,-11.56 -20.81,-16.41 -35.11,-22.03 -5.77,-2.3 -11.73,-4.64 -17.6,-7.46 -3.94,-1.93 -24.29,-12.22 -36.85,-28.21 -10.63,-13.49 -12.19,-29.84 -12.47,-34.52 0.37,-18.96 6.97,-31.39 12.28,-41.37 3.85,-7.09 6.78,-12.72 7.24,-19.12 0.83,-12.29 -9.44,-17.18 -9.53,-17.2 -2.93,-1.32 -5.04,-3.93 -5.77,-7.03 -0.72,-3.1 0,-6.36 2.02,-8.85l38.04 -46.56c3.03,-3.78 8.34,-4.88 12.65,-2.68 0.19,0.15 24.11,12.18 52.98,12.18 29.52,-0.13 53.72,-12.07 53.99,-12.22 4.31,-2.13 9.54,-0.99 12.56,2.72l37.95 46.56c2.02,2.49 2.84,5.75 2.1,8.85 -0.73,3.1 -2.84,5.71 -5.77,7.03 -0.91,0.47 -10.36,5.43 -9.62,17.2 0.47,6.4 3.48,12 7.24,19.12 5.32,9.98 11.92,22.41 12.29,40.68 -0.18,5.33 -1.74,21.64 -12.38,35.21 -12.64,15.99 -32.91,26.32 -36.85,28.21 -5.87,2.82 -11.83,5.16 -17.69,7.46 -14.29,5.62 -26.68,10.47 -35.02,22.03 -2.02,2.65 -5.04,4.24 -8.34,4.23z"/>
   <path class="fil0" d="M115.96 245.99l0 0c-3.3,0 -6.42,-1.55 -8.35,-4.23 -8.42,-11.56 -20.81,-16.41 -35.11,-22.03 -5.77,-2.3 -11.73,-4.64 -17.6,-7.46 -3.94,-1.93 -24.29,-12.22 -36.85,-28.21 -10.63,-13.49 -12.19,-29.84 -12.47,-34.52 0.37,-18.96 6.97,-31.39 12.28,-41.37 3.85,-7.09 6.78,-12.72 7.24,-19.12 0.83,-12.29 -9.44,-17.18 -9.53,-17.2 -2.93,-1.32 -5.04,-3.93 -5.77,-7.03 -0.72,-3.1 0,-6.36 2.02,-8.85l38.04 -46.56c3.03,-3.78 8.34,-4.88 12.65,-2.68 0.19,0.15 24.11,12.18 52.98,12.18 29.52,-0.13 53.72,-12.07 53.99,-12.22 4.31,-2.13 9.54,-0.99 12.56,2.72l37.95 46.56c2.02,2.49 2.84,5.75 2.1,8.85 -0.73,3.1 -2.84,5.71 -5.77,7.03 -0.91,0.47 -10.36,5.43 -9.62,17.2 0.47,6.4 3.48,12 7.24,19.12 5.32,9.98 11.92,22.41 12.29,40.68 -0.18,5.33 -1.74,21.64 -12.38,35.21 -12.64,15.99 -32.91,26.32 -36.85,28.21 -5.87,2.82 -11.83,5.16 -17.69,7.46 -14.29,5.62 -26.68,10.47 -35.02,22.03 -2.02,2.65 -5.04,4.24 -8.34,4.23z"/>
   <path class="fil1" d="M115.96 245.99l0 -5.59c-1.56,-0.01 -2.94,-0.7 -3.85,-1.91l0.01 -0.05 0 0.04c-4.76,-6.55 -10.64,-11.2 -17.06,-14.82 -6.42,-3.63 -13.29,-6.31 -20.44,-9.12l0 0.01c-5.87,-2.3 -11.64,-4.6 -17.33,-7.3l0 0.01c-3.57,-1.71 -23.38,-11.93 -34.83,-26.65l-0.08 -0.04 0.08 0.03c-9.53,-11.9 -11.09,-27.21 -11.27,-31.32l-5.59 0.27 5.59 0.11c0.37,-17.69 6.32,-28.86 11.64,-38.85l0.01 0.02c3.75,-7.07 7.24,-13.41 7.88,-21.4l0 0.02 0 -1.82c0.09,-7.25 -3.12,-12.69 -6.23,-15.92 -1.55,-1.64 -3.12,-2.81 -4.31,-3.6l-1.46 -0.92 -0.55 -0.28 -0.18 -0.1 -0.19 -0.07 -0.18 -0.06 -0.55 -0.2 -1.46 5.39 2.29 -5.09c-1.28,-0.58 -2.3,-1.81 -2.66,-3.2l0 -0.04 0 0.02 -0.09 -1.06c0,-1.07 0.37,-2.13 1.01,-2.99l38.05 -46.56 0 -0.02c0.92,-1.13 2.2,-1.72 3.66,-1.72l2.11 0.51 2.57 -4.98 -2.85 4.8 0.28 0.16c0.83,0.43 7.15,3.54 17.14,6.66 9.9,3.09 23.47,6.14 38.41,6.14l0.01 -0c15.49,-0.07 29.42,-3.21 39.59,-6.35 5.05,-1.57 9.26,-3.14 12.1,-4.34 1.47,-0.6 2.66,-1.1 3.39,-1.48l1.02 -0.45 0.27 -0.15 0.19 -0.07 0.46 -0.27 -3.03 -4.7 2.48 5.03 2.11 -0.5c1.37,0.01 2.74,0.61 3.66,1.73l37.95 46.54 0 0.03c0.73,0.85 1.1,1.89 1.1,2.96l-0.18 1.07c-0.28,1.44 -1.29,2.64 -2.57,3.22l-0.09 0.03 -0.09 0.04c-0.82,0.44 -3.85,2 -6.88,5.32 -2.93,3.26 -5.86,8.57 -5.86,15.52l0.1 1.76 -0.09 -0.22 0.09 0.21c0.55,8.02 4.12,14.31 7.79,21.38l0.09 0.1 -0.09 -0.09c5.32,9.99 11.27,21.21 11.64,38.16l5.6 -0.1 -5.6 -0.22c-0.17,4.77 -1.65,19.99 -11.18,31.97 -11.54,14.72 -31.35,24.98 -34.93,26.65 -5.59,2.7 -11.46,5 -17.23,7.3l0 -0.01c-7.15,2.81 -14.03,5.49 -20.44,9.12 -6.41,3.62 -12.38,8.27 -17.14,14.82l0.1 -0.03c-0.92,1.23 -2.39,1.96 -3.86,1.95l0 5.59 0 5.58c5.04,-0.01 9.8,-2.44 12.83,-6.52l0.01 -0.02c3.66,-5.01 8.06,-8.56 13.56,-11.67 5.42,-3.09 11.82,-5.64 18.97,-8.43l0.1 -0.02 0 0.01c5.77,-2.3 11.82,-4.69 17.96,-7.63 4.31,-2.13 25.12,-12.51 38.87,-29.79 11.83,-15.15 13.29,-32.54 13.57,-38.45l0.01 -0.16 0 -0.16c-0.37,-19.6 -7.62,-33.23 -12.93,-43.2l0 0.01c-3.85,-7.19 -6.33,-12.1 -6.6,-16.88l0 -0.01 0 -1c0,-3.84 1.37,-6.21 3.02,-8.05 4.31,-4.92 9.96,-3.89 12.19,-13.53 0.28,-1.2 0.46,-2.41 0.46,-3.62 0,-3.61 -1.28,-7.17 -3.67,-10.04l0.1 0.04 -38.04 -46.58c-3.03,-3.8 -7.61,-5.85 -12.29,-5.84 -2.38,-0.01 -4.77,0.53 -7.06,1.63l-0.27 0.14 -0.28 0.17 2.83 4.4 -2.47 -4.63 -0.36 0.23 2.83 4.4 -2.47 -4.63 0.56 0.94 -0.56 -0.95 0 0.01 0.56 0.94 -0.56 -0.95c-1,0.59 -24.29,11.52 -51.43,11.58l0.1 0c-13.67,0.01 -26.32,-2.87 -35.57,-5.78 -4.58,-1.45 -8.34,-2.9 -10.91,-4 -1.27,-0.55 -2.29,-1 -3.02,-1.31l-0.72 -0.36 -0.18 -0.08 -2.29 4.42 2.56 -4.29 -0.27 -0.13 -2.29 4.42 2.56 -4.29 -0.17 -0.09 -0.19 -0.08c-2.29,-1.16 -4.77,-1.73 -7.15,-1.73 -4.67,0 -9.26,2.05 -12.38,5.89l0.01 -0.02 -37.95 46.58 0 -0.03c-2.3,2.87 -3.58,6.42 -3.58,10.03 0.01,1.2 0.18,2.41 0.46,3.61l0 -0.02c1.1,4.82 4.31,8.81 8.8,10.86l0.46 0.19 0.46 0.11 1.47 -5.35 -2.12 5.16 0.65 0.19 1.47 -5.35 -2.12 5.16 1.74 -4.4 -2.01 4.28 0.27 0.12 1.74 -4.4 -2.01 4.28 0.45 -0.99 -0.45 0.98 0 0.01 0.45 -0.99 -0.45 0.98c0.09,0.05 1.92,1.05 3.48,2.83 1.57,1.82 2.84,4.15 2.93,7.88l-0.09 1.04 0 0.02c-0.28,4.8 -2.66,9.75 -6.51,16.86l-0.09 0.04 0.09 -0.02c-5.42,9.98 -12.66,23.66 -13.02,43.88l0.01 0.19 0.09 0.18c0.27,5.26 1.73,22.64 13.56,37.71l0 -0.02 0 0.01c13.66,17.29 34.55,27.66 38.77,29.8l0 0.01c6.15,2.93 12.19,5.33 18.06,7.63l0 0.01c7.16,2.8 13.57,5.35 19.07,8.43 5.42,3.11 9.9,6.65 13.57,11.67l0.01 -0.01c2.93,4.14 7.78,6.56 12.83,6.55l0 -5.58z"/>
   <path class="fil0" d="M115.96 245.99l0 0c-3.3,0 -6.42,-1.55 -8.35,-4.23 -8.42,-11.56 -20.81,-16.41 -35.11,-22.03 -5.77,-2.3 -11.73,-4.64 -17.6,-7.46 -3.94,-1.93 -24.29,-12.22 -36.85,-28.21 -10.63,-13.49 -12.19,-29.84 -12.47,-34.52 0.37,-18.96 6.97,-31.39 12.28,-41.37 3.85,-7.09 6.78,-12.72 7.24,-19.12 0.83,-12.29 -9.44,-17.18 -9.53,-17.2 -2.93,-1.32 -5.04,-3.93 -5.77,-7.03 -0.72,-3.1 0,-6.36 2.02,-8.85l38.04 -46.56c3.03,-3.78 8.34,-4.88 12.65,-2.68 0.19,0.15 24.11,12.18 52.98,12.18 29.52,-0.13 53.72,-12.07 53.99,-12.22 4.31,-2.13 9.54,-0.99 12.56,2.72l37.95 46.56c2.02,2.49 2.84,5.75 2.1,8.85 -0.73,3.1 -2.84,5.71 -5.77,7.03 -0.91,0.47 -10.36,5.43 -9.62,17.2 0.47,6.4 3.48,12 7.24,19.12 5.32,9.98 11.92,22.41 12.29,40.68 -0.18,5.33 -1.74,21.64 -12.38,35.21 -12.64,15.99 -32.91,26.32 -36.85,28.21 -5.87,2.82 -11.83,5.16 -17.69,7.46 -14.29,5.62 -26.68,10.47 -35.02,22.03 -2.02,2.65 -5.04,4.24 -8.34,4.23z"/>
   <path class="fil0" d="M196.45 89.72c-1.29,-19.52 15.57,-27.26 15.57,-27.26l-37.94 -46.56c0,0 -26.04,13.15 -58.12,13.29 -32.08,0.13 -58.12,-13.28 -58.12,-13.28l-38.04 46.56c0,0 16.95,7.75 15.57,27.26 -1.28,19.51 -18.88,31 -19.43,59.32 0.28,7.54 2.93,19.42 10.18,28.63 9.72,12.29 25.39,21.51 33.28,25.34 20.9,10.05 42.62,13.53 56.56,32.7l0 0.03 0 -0.03c13.84,-19.17 35.66,-22.65 56.55,-32.7 7.89,-3.82 23.56,-13.04 33.27,-25.34 7.24,-9.21 9.81,-21.08 10.18,-28.63 -0.54,-28.32 -18.15,-39.81 -19.52,-59.32z"/>
   <path class="fil1" d="M205.15 178.47l0 -64.96c5.07,9.52 10.52,19.99 10.81,35.53 -0.37,7.55 -2.93,19.41 -10.18,28.64l-0.64 0.79z"/>
   <path class="fil1" d="M154.83 210.43l0 -104.34 22.82 0 0 94.22c-1.92,1.07 -3.66,1.98 -5.13,2.69 -5.89,2.83 -11.85,5.14 -17.69,7.43z"/>
   <path class="fil1" d="M104.5 224.16l0 -118.06 22.82 0 0 118.1c-4.17,3.12 -8,6.84 -11.36,11.5l0 0.04 -0 -0.04c-3.4,-4.67 -7.26,-8.41 -11.46,-11.54z"/>
   <path class="fil1" d="M54.27 200.32l0 -94.23 22.73 0 0 104.31c-5.8,-2.28 -11.73,-4.58 -17.6,-7.4 -1.47,-0.71 -3.21,-1.61 -5.13,-2.68z"/>
   <path class="fil1" d="M26.77 113.47l0 65 -0.64 -0.8c-7.24,-9.22 -9.89,-21.09 -10.18,-28.64 0.3,-15.56 5.76,-26.04 10.82,-35.57z"/>
   <path class="fil1" d="M31.18 104.82l169.53 0c0.39,0.84 0.8,1.68 1.22,2.52l-171.96 0c0.42,-0.84 0.82,-1.68 1.21,-2.52zm166.43 -25.53l-163.35 0c-0.27,-0.86 -0.57,-1.69 -0.9,-2.48l165.16 0c-0.33,0.79 -0.64,1.61 -0.9,2.48z"/>
   <path class="fil1" d="M65.27 94.57l1.83 0.48c-0.36,1.55 -1.01,2.72 -2.02,3.52 -1.1,0.81 -2.29,1.23 -3.76,1.23 -1.56,-0 -2.84,-0.31 -3.76,-0.92 -0.91,-0.63 -1.65,-1.51 -2.2,-2.69 -0.45,-1.2 -0.73,-2.45 -0.73,-3.81 0,-1.49 0.28,-2.76 0.82,-3.86 0.56,-1.1 1.37,-1.93 2.48,-2.51 1.01,-0.55 2.2,-0.86 3.39,-0.86 1.38,0 2.56,0.38 3.57,1.1 0.93,0.72 1.65,1.72 2.02,3.03l-1.83 0.45c-0.37,-1.05 -0.83,-1.8 -1.47,-2.27 -0.64,-0.45 -1.37,-0.69 -2.29,-0.69 -1.09,0 -2.02,0.28 -2.75,0.78 -0.72,0.52 -1.29,1.21 -1.56,2.11 -0.27,0.9 -0.46,1.79 -0.46,2.72 0,1.2 0.18,2.27 0.55,3.13 0.37,0.93 0.92,1.58 1.65,2.03 0.74,0.45 1.47,0.7 2.38,0.7 1.01,0 1.93,-0.32 2.66,-0.94 0.74,-0.58 1.28,-1.51 1.48,-2.71z"/>
   <polygon class="fil1" points="69.48,99.56 69.48,85.42 79.75,85.42 79.75,87.07 71.41,87.07 71.41,91.4 79.21,91.4 79.21,93.09 71.41,93.09 71.41,97.87 80.12,97.87 80.12,99.56 "/>
   <polygon class="fil1" points="82.6,99.56 82.6,85.42 84.61,85.42 92.04,96.49 92.04,85.42 93.78,85.42 93.78,99.56 91.85,99.56 84.43,88.44 84.43,99.56 "/>
   <polygon class="fil1" points="100.56,99.56 100.56,87.07 95.88,87.07 95.88,85.42 107.07,85.42 107.07,87.07 102.4,87.07 102.4,99.56 "/>
   <path class="fil1" d="M110.92 91.65l4.03 0c0.92,0 1.56,-0.11 2.02,-0.28l1.11 -0.82 0.36 -1.27 -0.73 -1.66c-0.45,-0.45 -1.29,-0.65 -2.29,-0.65l-4.49 -0 0 4.69zm-1.83 7.91l0 -14.14 6.24 0c1.28,0 2.19,0.11 2.93,0.34l1.57 1.38 0.55 2.14c0,0.99 -0.28,1.82 -1.01,2.54 -0.54,0.69 -1.56,1.1 -2.93,1.31l1.1 0.69 1.56 1.89 2.48 3.86 -2.38 0 -1.83 -2.96 -1.38 -1.92 -1.01 -0.97 -0.83 -0.38 -1 -0.07 -2.21 0 0 6.31 -1.83 0z"/>
   <path class="fil1" d="M125.86 93.74l4.76 0 -1.46 -3.93c-0.45,-1.19 -0.74,-2.16 -1.01,-2.92 -0.17,0.9 -0.46,1.79 -0.73,2.72l-1.55 4.12zm-4.13 5.82l5.5 -14.14 2.02 0 5.78 14.14 -2.1 0 -1.65 -4.31 -5.96 0 -1.56 4.31 -2.02 0z"/>
   <polygon class="fil1" points="136.4,99.56 136.4,85.42 138.33,85.42 138.33,97.87 145.3,97.87 145.3,99.56 "/>
   <path class="fil1" d="M151.62 95.02l1.83 -0.18 0.55 1.76 1.37 1.1 2.21 0.42 1.92 -0.31 1.2 -0.9 0.45 -1.21 -0.45 -1.16 -1.29 -0.83c-0.36,-0.13 -1.19,-0.38 -2.47,-0.68 -1.28,-0.31 -2.2,-0.59 -2.75,-0.87l-1.46 -1.33 -0.56 -1.76 0.65 -1.99 1.73 -1.42c0.82,-0.35 1.65,-0.51 2.56,-0.51 1.11,0 2.02,0.17 2.84,0.51l1.84 1.51 0.73 2.21 -1.84 0.13c-0.09,-0.88 -0.46,-1.55 -1.01,-1.98 -0.54,-0.49 -1.37,-0.7 -2.47,-0.7 -1.1,0 -1.93,0.21 -2.48,0.62l-0.73 1.48 0.55 1.27c0.37,0.31 1.28,0.65 2.84,1 1.47,0.34 2.57,0.65 3.12,0.9l1.84 1.44 0.55 2.03 -0.64 2.11 -1.83 1.58c-0.83,0.38 -1.74,0.55 -2.75,0.55 -1.28,-0 -2.38,-0.17 -3.21,-0.58 -0.82,-0.35 -1.56,-0.94 -2.02,-1.66 -0.54,-0.76 -0.73,-1.62 -0.82,-2.54z"/>
   <path class="fil1" d="M175.55 94.57l1.93 0.48c-0.46,1.55 -1.11,2.72 -2.11,3.52 -1.01,0.81 -2.29,1.23 -3.76,1.23 -1.55,-0 -2.75,-0.31 -3.76,-0.92 -0.92,-0.63 -1.65,-1.51 -2.2,-2.69 -0.46,-1.2 -0.73,-2.45 -0.73,-3.81 0.01,-1.49 0.28,-2.76 0.82,-3.86 0.65,-1.1 1.37,-1.93 2.48,-2.51 1.02,-0.55 2.2,-0.86 3.39,-0.86 1.47,0 2.57,0.38 3.58,1.1 1.01,0.72 1.65,1.72 2.02,3.03l-1.83 0.45c-0.36,-1.05 -0.83,-1.8 -1.47,-2.27 -0.54,-0.45 -1.37,-0.69 -2.29,-0.69 -1.1,0 -2.02,0.28 -2.75,0.78 -0.73,0.52 -1.28,1.21 -1.56,2.11 -0.27,0.9 -0.46,1.79 -0.46,2.72 0,1.2 0.18,2.27 0.55,3.13 0.37,0.93 0.92,1.58 1.65,2.03 0.74,0.45 1.56,0.7 2.38,0.7 1.11,0 1.93,-0.32 2.66,-0.94 0.74,-0.58 1.19,-1.51 1.47,-2.71z"/>
   <path class="fil1" d="M147.5 40.13c0,0 -7.51,1.71 -21.27,1.2 -13.75,-0.48 -19.25,-1.96 -19.25,-1.96 -0,-0 -3.12,8.78 -8.53,8.19 -1.29,0.25 -0.55,-10.93 -8.25,-11.66 -7.71,-0.75 -10.91,4.24 -10.91,4.24 -0.01,-0 3.21,0.79 4.03,4.2 0.82,3.37 0.28,9.77 0.28,9.77 -0.01,0 -6.42,1.2 -11.73,-3.41 -0.01,-0 2.93,8.74 10.73,13.42 7.88,4.68 18.42,7.09 18.42,7.09 -0,0 -10.81,-6.36 -6.6,-5.88 1.56,0.16 6.23,2.06 11.64,2.65 9.16,1.03 20.26,0.89 20.26,0.89 -0.01,-0 -7.15,-2.13 -6.42,-4.2 0.82,-2.06 2.75,-4.71 3.94,-5.26 1.28,-0.53 34.19,-0.52 34.19,-0.52l1.92 -8.94c0,0 -36.29,7.95 -41.06,7.53 -4.86,-0.41 -10.54,-4.23 -10.73,-6.12 -0.64,-1.58 3.48,0.17 18.61,-3.44 10.99,-2.76 20.71,-7.77 20.71,-7.77z"/>
   <path class="fil0" d="M86.27 51.49c0,0 -0.09,2.44 1.65,5.4 1.09,1.68 3.3,3.86 5.04,5.02 0,-0 -4.12,-1.93 -5.78,-4.17 -2.47,-3.26 -0.91,-6.25 -0.92,-6.25z"/>
   <path class="fil1" d="M21.73 62.11c4.13,2.42 16.04,10.95 14.94,27.68 -0.64,8.87 -4.49,16.13 -8.52,23.78 -5.22,9.84 -10.64,19.99 -11,35.51 0.37,7.74 3.21,19.21 9.99,27.84 11,14.01 29.24,23.24 32.73,24.92 5.68,2.76 11.37,4.96 16.87,7.16 14.86,5.85 28.96,11.36 39.23,24.64 10.27,-13.28 24.29,-18.79 39.14,-24.64 5.6,-2.2 11.27,-4.4 16.87,-7.16 3.58,-1.68 21.82,-10.91 32.82,-24.92 6.78,-8.63 9.62,-20.09 9.9,-27.94 -0.27,-15.42 -5.68,-25.56 -10.91,-35.41 -4.02,-7.64 -7.89,-14.91 -8.53,-23.78 -1.1,-16.73 10.72,-25.25 14.94,-27.68l-36.48 -44.7c-4.86,2.3 -29.06,12.87 -57.75,13.01l-0.55 -0c-28.42,0 -52.35,-10.67 -57.3,-13.01l-36.39 44.69zm94.24 174.86l-1.01 -0.51c-9.99,-13.72 -24.11,-19.27 -39.05,-25.16 -5.58,-2.2 -11.37,-4.46 -17.05,-7.18 -3.66,-1.75 -22.28,-11.25 -33.64,-25.68 -7.24,-9.09 -10.18,-21.09 -10.54,-29.35 0.37,-16.17 6.14,-27.05 11.27,-36.65 3.94,-7.44 7.61,-14.46 8.25,-22.78 1.2,-18.42 -14.21,-25.75 -14.85,-26.05l-0.73 -0.86 0.28 -1.04 37.95 -46.59 1.56 -0.34c0.28,0.17 25.94,13.17 57.01,13.17l0.55 -0c31.35,-0.13 57.29,-13.03 57.56,-13.17l1.56 0.34 37.95 46.59 0.28 1.04 -0.73 0.86c-0.64,0.3 -16.14,7.64 -14.85,26.05 0.55,8.32 4.31,15.34 8.25,22.78 5.14,9.6 10.91,20.48 11.18,36.59 -0.36,8.32 -3.3,20.33 -10.45,29.41 -11.36,14.43 -30.07,23.93 -33.64,25.68 -5.68,2.72 -11.46,4.99 -17.05,7.18 -14.93,5.9 -29.15,11.44 -39.05,25.14l-0.91 0.5 -0.09 0.04z"/>
  </g>
 </g>
</svg>
