<?xml version="1.0" encoding="UTF-8"?>
<!DOCTYPE svg PUBLIC "-//W3C//DTD SVG 1.1//EN" "http://www.w3.org/Graphics/SVG/1.1/DTD/svg11.dtd">
<!-- Creator: CorelDRAW 2020 (64 Bit) -->
<svg xmlns="http://www.w3.org/2000/svg" xml:space="preserve" width="119.803mm" height="137.442mm" version="1.1" style="shape-rendering:geometricPrecision; text-rendering:geometricPrecision; image-rendering:optimizeQuality; fill-rule:evenodd; clip-rule:evenodd"
viewBox="0 0 2587.99 2969.04"
 xmlns:xlink="http://www.w3.org/1999/xlink"
 xmlns:xodm="http://www.corel.com/coreldraw/odm/2003">
 <defs>
  <style type="text/css">
   <![CDATA[
    .fil3 {fill:white}
    .fil1 {fill:#FEFEFE;fill-rule:nonzero}
    .fil2 {fill:#983233;fill-rule:nonzero}
    .fil0 {fill:#434851;fill-rule:nonzero}
   ]]>
  </style>
 </defs>
 <g id="Camada_x0020_1">
  <metadata id="CorelCorpID_0Corel-Layer"/>
  <path class="fil0" d="M2418.35 358.1c0,0 -553.75,-286.71 -1112.69,-293.57 -0.66,0.02 -1.39,0 -2.14,-0.02 -0.93,-0.02 -1.88,-0.04 -2.71,0.02 -1.84,-0.08 -3.34,-0.08 -4.94,-0.08 -558.85,0 -1115.95,279.89 -1115.95,279.89 0,0 -272.27,891.49 -9.38,1503.42 285.58,664.82 1112.85,1056.86 1112.85,1056.86 0,0 831.89,-381.78 1125.75,-1043.04 270.35,-608.5 9.2,-1503.47 9.2,-1503.47z"/>
  <polygon class="fil1" points="1296.88,160.97 1296.04,160.97 1295.62,160.97 1296.04,160.97 "/>
  <path class="fil1" d="M1127.26 2423.44c-10.8,-6.7 -21.35,-9.68 -31.82,-8.96 -11.8,0.72 -21.35,5.94 -28.97,15.87l-3.68 4.9 15.15 9.67 3.86 -4.78c3.43,-4.47 7.87,-7.03 13.06,-8.03 5.53,-1.01 10.71,-0.3 15.07,1.97 10.13,5.06 12.98,12.39 8.88,21.98 -4.19,9.59 -12.56,15.74 -25.45,18.88l-79.2 18.5 -11.05 14.15 74.76 47.55 11.14 -14.37 -40.18 -25.66 56.43 -14.06c18.75,-4.76 32.23,-13.35 40.27,-25.87 6.11,-9.54 6.95,-19.26 2.68,-29.01 -3.6,-8.5 -10.72,-16.03 -20.93,-22.73z"/>
  <path class="fil1" d="M1221.19 2508.41c3.61,-2.26 7.37,-3.09 11.3,-2.26 3.52,0.87 6.2,3.14 7.79,6.83 1.76,4.3 1.51,9.5 -0.25,15.57l-19.26 57.77c-2.1,6.58 -5.02,11.38 -9.04,14.36 -4.02,2.84 -7.87,3.98 -11.55,3.06 -3.77,-0.84 -6.53,-3.47 -8.04,-7.74 -1.43,-4.27 -1.26,-9.67 1.01,-16.21l19 -57.84c2.1,-5.95 5.11,-10.51 9.04,-13.53zm-44.04 5.2l-19.17 57.81c-4.02,11.29 -2.01,21.52 5.52,30.85 6.87,8.21 16.49,13.77 28.63,16.75l5.36 1.33c12.73,3.1 24.78,2.09 36.25,-2.88 11.38,-4.99 18.75,-12.52 22.19,-22.78l19.17 -57.69c3.86,-11.26 2.01,-21.48 -5.69,-30.98 -6.87,-8.25 -16.32,-13.81 -28.21,-16.79l-5.61 -1.25c-12.31,-2.86 -23.61,-2.3 -34.41,1.88 -12.22,4.53 -20.26,12.48 -24.04,23.75z"/>
  <path class="fil1" d="M437.2 728.62c2.77,12.26 9.8,21.35 20.85,27.04 10.38,5.15 21.76,6.7 34.83,4.86 4.02,-0.63 10.97,-2.43 20.77,-5.49 12.89,-4.06 22.6,-12.06 29.64,-24.33 7.04,-11.97 9.21,-24.49 6.36,-37.42l-21.77 6.82c1.59,7.12 0.42,13.69 -3.09,19.88 -3.77,6.11 -8.71,10.38 -15.16,12.89 -6.69,2.47 -12.31,2.51 -17.24,0.04 -6.11,-3.05 -10.21,-8.91 -12.22,-17.87l-34.16 -156.02c-1.51,-5.78 -1.01,-10.88 1,-15.36 1.84,-4.57 4.69,-7.45 8.7,-8.58l50.15 -15.78 -5.1 -22.35 -55.93 17.67c-14.07,4.4 -25.29,12.06 -33.24,23.15 -8.28,12.1 -10.8,25.54 -7.44,40.39l33.07 150.46z"/>
  <polygon class="fil1" points="642.58,717.73 597.7,470.83 553.67,482.85 598.71,729.66 "/>
  <path class="fil1" d="M703.2 475.65c3.02,-5.4 7.62,-8.83 13.4,-10.01 6.28,-1.43 11.39,-0.42 15.74,3.34 4.53,3.69 6.87,8.79 7.79,15.29l11.97 87.75 -40.02 9.12 -12.06 -87.71c-0.67,-6.52 0.16,-12.6 3.18,-17.78zm-19.43 230.57l44.12 -9.96 -12.81 -92.48 40.1 -9.17 7.79 57.4c1.51,11.43 6.45,19.51 14.49,24.07 7.53,4.11 16.83,4.98 27.71,2.38l17.66 -3.93 -3.26 -22.6c-7.03,1.42 -11.05,-2.01 -12.22,-10.09l-22.19 -161.21c-2.26,-17.75 -11.63,-29.73 -27.54,-35.83 -13.06,-4.9 -27.79,-5.52 -44.12,-1.84 -16.16,3.73 -29.72,10.8 -40.35,21.1 -13.31,12.55 -18.75,27.79 -16.32,45.88l26.95 196.29z"/>
  <path class="fil1" d="M858.5 436.84l15.83 227.65 44.95 -7.03 -15.57 -225.93 19.51 -3.47c5.19,-0.84 10.04,1 14.23,5.61 4.36,4.77 6.78,11.55 7.37,20.96l10.8 161.47c0.92,11.42 5.19,19.88 13.31,24.99 7.2,4.56 16.25,5.99 27.13,4.31l18.25 -2.84 -1.68 -22.78c-7.2,0.89 -11.05,-2.67 -11.55,-10.88l-11.47 -161.38c-1.09,-17.21 -8.63,-29.55 -22.69,-37.3 -12.48,-6.99 -27.72,-9.04 -45.55,-6.2l-77.78 12.15 1.43 22.9 13.48 -2.23z"/>
  <path class="fil1" d="M1106.24 429.89c0.42,-6.41 2.68,-12.1 7.37,-16.99 4.52,-4.9 10.13,-7.75 16.41,-8.17 6.36,-0.58 11.72,1.56 16.07,5.82 4.36,4.27 6.7,9.67 6.7,16.07l-2.51 158.62c0.17,6.58 -2.18,12.22 -6.87,17.12 -4.69,4.94 -10.04,7.53 -16.74,8.04 -6.53,0.58 -11.89,-1.51 -16.58,-5.74 -4.27,-4.36 -6.53,-9.76 -6.45,-16l2.6 -158.78zm-31.48 190.98c11.22,9.71 25.79,13.85 44.04,12.56l15.07 -1.05c18.33,-1.38 33.33,-7.62 44.71,-18.92 10.97,-10.42 16.49,-23.23 16.83,-38.3l2.43 -145.39c0.17,-14.94 -5.19,-27.04 -16.07,-36.34 -11.22,-9.33 -25.96,-13.43 -44.29,-12.09l-14.49 1.09c-18.42,1.26 -33.07,7.45 -44.46,18.34 -11.3,10.92 -17.16,23.86 -17.5,38.81l-2.26 145.43c-0.25,15.03 5.1,27 15.99,35.88z"/>
  <path class="fil1" d="M1280.05 2806.22l0 1.84c0,0 0.67,-0.25 1.84,-0.83l-1.84 -1.02z"/>
  <path class="fil1" d="M1280.05 2808.07l0 -1.84 1.84 1.01c-1.17,0.58 -1.84,0.83 -1.84,0.83z"/>
  <path class="fil1" d="M1295.62 160.97c-1.34,0 -2.59,-0.08 -4.02,-0.08l0 0.08c1.33,0 2.67,0.04 4.02,0z"/>
  <path class="fil1" d="M1294.28 160.99c-0.89,0 -1.78,-0.02 -2.68,-0.02l0 -0.09c1.43,0 2.68,0.09 4.02,0.09 -0.45,0.01 -0.89,0.02 -1.34,0.02z"/>
  <path class="fil1" d="M1300.98 161.1l0 -0.12 -4.1 0c1.08,0 2.09,0 3.43,0.04l0.67 0.08z"/>
  <path class="fil1" d="M1300.98 161.1l-0.67 -0.08c-1.34,-0.04 -2.35,-0.04 -3.43,-0.04l4.1 0 0 0.12z"/>
  <path class="fil1" d="M1475.13 2542.41l8.2 15.91 75.02 -46.88 -8.2 -16.29 -40.53 25.24 11.81 -57.02c4.02,-18.96 1.84,-34.83 -5.95,-47.3 -5.94,-9.72 -14.31,-14.83 -25.11,-15.11 -9.12,-0.43 -18.85,2.54 -29.31,9.13 -10.8,6.65 -17.92,14.9 -21.94,24.74 -4.51,11 -3.76,21.94 1.85,33.11l2.77 5.33 15.32 -9.68 -2.85 -5.27c-2.35,-5.03 -2.68,-10.14 -1.43,-15.45 1.43,-5.19 4.28,-9.63 8.29,-12.65 8.96,-6.9 16.74,-6.36 23.61,1.48 6.7,7.95 8.88,18.2 5.86,31.14l-17.41 79.58z"/>
  <path class="fil1" d="M1483.33 2558.32l-8.2 -15.91 17.41 -79.58c0.89,-3.84 1.33,-7.45 1.33,-10.82 -0.01,-8 -2.48,-14.73 -7.2,-20.32 -3.66,-4.18 -7.59,-6.29 -11.83,-6.29 -3.69,0 -7.6,1.6 -11.77,4.81 -4.02,3.02 -6.87,7.46 -8.29,12.66 -0.47,1.99 -0.72,3.96 -0.72,5.9 -0.01,3.23 0.67,6.4 2.14,9.55l2.85 5.27 -15.32 9.68 -2.77 -5.33c-3.16,-6.28 -4.77,-12.49 -4.78,-18.68 -0.01,-4.82 0.96,-9.62 2.93,-14.43 4.02,-9.84 11.14,-18.09 21.94,-24.74 9.8,-6.17 18.95,-9.17 27.57,-9.17 0.58,0 1.16,0.02 1.74,0.05 10.8,0.28 19.17,5.39 25.11,15.1 5.24,8.38 7.93,18.29 7.93,29.64 0,5.55 -0.65,11.44 -1.97,17.66l-11.81 57.03 40.53 -25.25 8.2 16.29 -75.02 46.88z"/>
  <path class="fil2" d="M1917.52 1763.03c-164.43,370.44 -630.19,584.36 -630.19,584.36 0,0 -1.84,-0.85 -5.27,-2.56 -51.57,-25.45 -468.01,-240.36 -617.71,-589.46 -147.27,-342.43 5.02,-841.63 5.02,-841.63 0,0 308.53,-154.97 619.73,-156.61 1.67,0 3.35,-0.08 5.19,-0.17 0.92,0.08 1.84,0.08 2.84,0.08 0.84,0.08 1.68,0.08 2.85,0.08 312.79,3.73 622.73,164.44 622.73,164.44 0,0 146.18,500.91 -5.19,841.47zm24.78 -861.02c0,0 -319.57,-165.52 -642.33,-169.5 -0.84,-0.04 -1.84,-0.04 -2.68,-0.04 -1.17,-0.08 -2.09,0 -2.84,-0.08 -1.84,0 -3.52,0.12 -5.36,0.12 -320.67,1.72 -638.98,161.55 -638.98,161.55 0,0 -156.9,514.56 -5.36,867.7 154.72,360.19 585.07,582.35 637.14,608.1 3.51,1.72 5.36,2.54 5.36,2.54 0,0 480.07,-221.03 649.87,-602.68 156.06,-351.23 5.19,-867.72 5.19,-867.72z"/>
  <path class="fil1" d="M1076.44 2090.14c-13.06,-22.95 -22.36,-44.09 -27.96,-61 0,17.46 11.29,47.51 27.96,78.74 20.43,38.31 48.73,78.25 74.01,98.41 45.96,36.63 83.3,43.46 93.1,40.83 -82.55,-41.24 -136.14,-103.82 -167.11,-156.99z"/>
  <path class="fil1" d="M1243.72 1140.33c-33.83,-9.33 -71.17,-13.52 -105.66,-15.36 52.08,14.24 102.64,30.39 148.03,54.88l0.83 7.79 0.17 41.4 0.17 -63.42 0 6.53c-10.38,-11.64 -25.45,-22.15 -43.53,-31.82z"/>
  <path class="fil1" d="M1287.34 1159.08l0 -32.39c-1.59,11.09 -1.84,22.01 0,32.39z"/>
  <path class="fil1" d="M1286.58 1315.18l0 -23.86c-13.73,-7.07 -27.96,-12.56 -41.19,-17.04 15.91,12.32 29.72,25.79 41.19,40.9z"/>
  <path class="fil1" d="M1210.4 2006.95c21.43,10.09 44.54,15.58 68.65,15.79l4.44 0 0 -23.02c-26.37,5.52 -51.66,7.44 -73.09,7.23z"/>
  <path class="fil1" d="M1084.22 829.17c47.31,20.89 87.49,48.48 114.29,80.88 -1.01,-0.71 -1.84,-1.51 -3.02,-2.26l-1.09 -0.87 -1.92 -1.26 -1.34 -1.01 -1.59 -1.3 -1.59 -0.84c-0.66,-0.59 -1.5,-1.13 -2.26,-1.68l-0.66 -0.46c-0.92,-0.79 -1.84,-1.46 -3.1,-2.13l-1 -0.63 -2.35 -1.55 -0.84 -0.79 -2.35 -1.43 -1 -0.71 -2.01 -1.26 -1.51 -0.88c-1,-0.63 -1.93,-1.3 -3.18,-2l-0.17 -0.13c-1.09,-0.59 -2.01,-1.26 -3.27,-1.84l-1.01 -0.59 -2.26 -1.34 -1.34 -0.8 -2.1 -1.25 -1.42 -0.71c-1.01,-0.59 -2.18,-1.14 -3.19,-1.72l-0.08 -0.12c-1.09,-0.59 -2.26,-1.3 -3.43,-1.84l-1.34 -0.76 -2.01 -1.09 -1.76 -0.71 -2.09 -1.01 -1.42 -0.87 -1.84 -0.92 -1.92 -0.92c-1.09,-0.59 -2.18,-1.01 -3.19,-1.55l-1.59 -0.71 -1.92 -0.84 -1.93 -0.89 -1.93 -0.84 -1.84 -0.87 -1.51 -0.71 -2.01 -0.84 -1.76 -0.71c-1.33,-0.67 -2.93,-1.3 -4.27,-1.93l-1 -0.3 -2.76 -1.04 -0.67 -0.42 -2.6 -1.01 -1.42 -0.42 -2.42 -0.79 -1.01 -0.5c-4.02,-1.55 -8.37,-3.05 -12.48,-4.48l-0.59 -0.12c-1.16,-0.38 -2,-0.8 -3.09,-0.92l-0.5 -0.3c-0.75,-0.21 -1.59,-0.49 -2.6,-0.71 -3.01,-1.01 -6.03,-1.84 -9.2,-2.77l0 -0.12c-1.01,-0.25 -2.18,-0.59 -3.35,-0.88l-0.83 -0.21 -0.43 -0.08 -0.5 -0.08 -0.24 -0.12 -0.17 -0.05 -0.17 -0.17 -0.34 -0.08c-2.01,-0.54 -3.86,-0.96 -5.86,-1.42l-0.26 -0.13 -1.75 -0.33 -0.08 -0.08 -0.75 -0.17 -0.25 -0.04 -0.08 -0.08 -0.33 0 -0.17 -0.13 -2.1 -0.46 -0.75 -0.13 -0.42 -0.17 -0.08 0 -0.5 -0.12 -0.5 -0.05 0 -0.08 -0.34 0 -0.25 0 -0.17 -0.12 -0.42 -0.08 -0.83 -0.17 -0.17 0 0 -0.05 -0.25 0 -0.41 -0.12 -0.5 -0.17 -0.33 0 -0.17 -0.17 -0.17 0 -0.17 0 0 -0.05 -0.08 0.05 -0.25 0 0 -0.05 0 -0.08 -0.17 0 -0.17 0 -0.34 0 0 -0.12 -0.08 0 -0.17 0 0 -0.08 -0.33 0.08 -0.08 0 -0.17 0 0 -0.17 -0.17 0 -0.17 0 -0.17 0 0 -0.08 0 -0.05 -0.17 0 -0.17 0 0 -0.12 -0.17 0.04 -0.17 0.08 0 -0.12 -1.93 -0.38 -0.41 -0.08 -0.17 -0.05 -0.5 -0.08 -0.08 -0.08 -0.34 0 -0.25 -0.08 -0.17 0 0 -0.08 -0.92 -0.05 0 -0.12 -0.25 0 -0.33 0 0 -0.08 -0.33 0 0 -0.04 -0.08 0.04 -0.08 -0.04 -0.25 -0.17 -0.25 0.08 -0.42 -0.08 -0.33 -0.13 -0.08 0 -0.59 0 0 -0.08 -0.41 -0.08 -0.17 0 -0.33 -0.13 -0.17 0 -0.34 0.09 0 -0.17 -0.5 -0.08 -0.34 0 -0.17 0 0 -0.12 -0.25 0 -0.25 0 -1.51 -0.3 -0.17 0 0 -0.13 -0.33 0 -0.34 0 -0.33 -0.17 -0.17 0 -0.66 -0.04 -0.26 -0.08 -0.08 0 -0.33 0 -0.33 -0.08 0 -0.04 -0.33 0 -0.34 0 -0.33 -0.17 -0.17 0 -0.5 -0.13 -0.5 0 -0.25 0 -0.17 -0.12c16.58,-3.94 33.58,-7.62 50.82,-11.13 1.17,0.58 2.35,1 3.6,1.59zm-0.42 79.87c-37.84,-18.59 -80.96,-31.4 -125.92,-36.59 -2.26,-0.08 -4.18,-0.38 -6.28,-0.67 -2.6,-0.12 -5.1,-0.42 -7.7,-0.54 -7.78,-0.55 -15.65,-0.92 -23.52,-1.01l-4.18 0c20.93,-6.65 43.03,-13.18 66.48,-19.47 37.51,11.93 72.42,27.72 101.13,47.18 16.25,10.84 30.47,22.69 42.53,35.71 -13.22,-9.04 -27.62,-17.24 -42.53,-24.62zm-345.69 217.47c41.94,19.76 71.75,46.93 89.41,75.02 -18.17,-12.27 -51.74,-23.7 -89.67,-30.94 -24.45,-4.69 -51.07,-7.54 -76.19,-7.83 3.1,-20.55 6.53,-40.06 9.88,-58.44 24.78,5.36 47.05,12.99 66.56,22.19zm179.67 185.53c7.62,7.95 14.49,15.78 20.51,22.86l-8.03 10.8c-4.11,-4.73 -8.21,-9.67 -12.73,-14.49 -15.9,-18 -34.66,-36.83 -54.75,-55.42 -11.22,-10.42 -36.5,-26.74 -62.95,-43.07 7.87,6.03 14.9,12.06 21.76,17.92 -25.2,-10.13 -50.9,-22.77 -84.06,-31.06 -23.11,-5.9 -49.9,-9.46 -82.55,-8.62 1.84,-15.48 4.1,-30.69 6.2,-45.21 22.78,3.85 45.72,12.1 67.65,22.6l0.17 0c3.02,1.39 5.86,2.85 8.71,4.27 1.51,0.85 3.01,1.72 4.52,2.51 34.91,18.09 101.14,53 120.73,67.99 21.1,16.37 39.69,33.28 54.84,48.94zm-0.41 50.86c-2.43,3.43 -4.86,6.7 -7.12,9.79 -14.9,-17.45 -84.73,-92.22 -246.48,-150.95 -3.44,0.59 -6.95,1.43 -10.46,2.3 0.08,-1.3 0.17,-2.55 0.5,-3.98 3.18,0.42 6.36,0.96 9.54,1.43l0.17 0.04 0.42 0.09 0.25 0c140.99,26.41 237.77,109.71 253.34,122.02 3.02,2.34 6.11,4.77 8.88,7.2 -3.18,3.93 -6.03,8.16 -9.04,12.06zm-183.11 390.75c3.77,-2.89 7.54,-5.66 11.38,-7.96 -5.27,12.22 -8.95,25.75 -11.47,39.69 -1.17,5.85 -1.84,11.93 -2.51,18.05 -5.69,-10.46 -11.05,-20.9 -16.25,-31.57 5.7,-6.74 12.06,-12.84 18.84,-18.2zm-40.44 -814.81c0,0 -146.35,479.49 -4.85,808.57 143.83,334.81 542.7,541.06 593.26,566.14l0.26 -63.37c-11.48,9.22 -23.86,18.04 -36.5,26.42l1 1.41c-33.23,-17.87 -84.81,-47.72 -144.59,-88.74 -9.21,-11.32 -18,-22.82 -26.28,-34.96 -77.87,-113.82 -104.82,-255.65 -75.44,-346.78 -36.59,73.63 -37.09,175.15 4.69,301.19 -24.36,-21.09 -42.11,-48.09 -54.84,-78.13 -2.18,-5.2 -4.18,-10.51 -6.03,-15.96 -2.84,-7.95 -5.27,-16.2 -7.37,-24.46 -19.25,-73.46 -13.89,-155.84 1.26,-211.73 1.84,-6.87 3.85,-13.27 5.86,-19.09 -1.93,2.56 -4.02,5.28 -5.78,8.12 -9.54,13.89 -17.24,29.84 -23.78,47.6 -20.68,56.01 -26.04,129.48 -12.06,210.39 -49.56,-49.11 -96.87,-104.14 -136.81,-164.98 15.49,-33.32 38.51,-67.73 52.92,-84.64 -2.52,26 -11.81,110.44 12.39,139.45 -16.42,-83.01 1.17,-146.27 29.13,-192.02 16.41,-27.5 36.67,-48.77 55.43,-64.25 6.53,-5.5 12.89,-10.27 18.75,-14.28 -6.53,3.6 -12.89,7.02 -18.75,10.3 -23.78,13.06 -41.36,23.65 -55.43,34.12 -32.23,23.56 -47.98,46.84 -82.39,97.79 17.09,-51.33 50.15,-97.38 82.64,-132.62 20.01,-21.82 39.77,-39.51 55.42,-51.74 5.11,-4.15 10.13,-7.65 14.06,-10.43 -4.77,2.17 -9.46,4.31 -14.06,6.49 -18.92,8.92 -37.42,18.17 -55.34,27.92 -48.32,26.54 -91.93,57.01 -126.09,94.35 -4.77,5.14 -9.37,10.55 -13.89,16.12 3.6,-8.5 8.37,-17.46 13.81,-26.41 28.14,-45.09 79.13,-93.18 126.51,-128.01 19.59,-14.32 38.76,-26.54 55.26,-35.16 4.69,-2.6 9.37,-4.73 13.64,-6.7 -4.44,0.83 -9.12,1.75 -13.48,2.84 -18.34,4.28 -36.67,10.64 -55.26,18.67 -43.37,18.71 -86.91,46.55 -125.93,78.41 -19.09,15.36 -36.67,31.6 -53.08,48.26 -9.71,-29.64 -17.25,-59.95 -23.03,-90.76 23.62,-21.13 49.82,-37.97 76.44,-51.74 42.03,-21.6 86.07,-36.26 125.84,-49.19 9.37,-3.14 18.67,-6.11 27.37,-9.12 -9.04,-1.26 -18.25,-2.13 -27.21,-2.55 -47.97,-2.6 -90.5,6.57 -125.67,21.47 -24.11,10.27 -44.63,23.4 -60.7,37.39 15.91,-19.04 37.26,-35.67 60.7,-49.31 42.03,-24.24 90.67,-38.39 125.93,-37.47 1.67,0.08 3.51,0.21 5.36,0.38 -1.84,-0.21 -3.69,-0.47 -5.53,-0.67 -56.01,-5.87 -89.76,-0.63 -125.76,12.97 -18.92,7.16 -38.68,16.96 -62.79,28.76 21.85,-15.48 42.7,-27.88 63.04,-37.38 45.13,-21.19 86.57,-28.55 125.84,-25.67 9.37,0.63 18.75,1.93 28.13,3.77 -9.38,-3.48 -18.75,-6.53 -28.13,-9.25 -41.37,-11.93 -84.15,-16.96 -125.59,-13.35 -32.49,2.97 -64.3,11.3 -93.61,25.86 -0.33,-7.11 -0.49,-14.36 -0.49,-21.51 31.47,-14.53 63.37,-22.1 94.1,-24.62 46.05,-3.77 89.59,3.85 125.59,17.16 21.26,7.96 39.93,17.75 54.92,28.43 9.29,6.57 17.25,13.56 23.53,20.59l0 0.08 0 -0.16c-7.62,-9.17 -15.49,-17.92 -23.36,-26.21 -17.92,-18.59 -36,-34.7 -54.92,-48.06 -38.18,-27.59 -79.21,-45.3 -125.09,-55.42 -20.43,-4.4 -41.69,-7.54 -64.14,-9.17 -7.53,0.62 -17.75,3.18 -28.97,7.83 0.34,-7.83 0.84,-15.53 1.34,-23.27 5.19,-0.55 10.38,-0.97 15.82,-1.26 1.84,0.29 3.44,0.29 5.11,0.05 23.27,-0.33 47.05,2.42 70.83,7.19 44.21,9.08 87.91,25.87 125.09,45.72 16.16,8.58 31.14,17.67 44.28,27.04 31.9,-4.6 128.68,-16.74 174.57,-11.64 31.82,3.56 62.46,9.17 84.14,15.99 -13.9,-13.98 -47.13,-29.76 -84.14,-40.72 -19.93,-5.69 -40.95,-10.39 -61.12,-12.27 17.25,-0.96 38.68,-0.17 61.29,1.8 64.21,5.36 139.48,19.72 160.16,31.4 -21.35,3.02 -47.46,13.65 -61.03,25.5l0.17 -0.08c5.53,47.47 1.5,97.45 0.5,145.05 -3.52,2.52 -6.96,5.08 -10.22,7.92 2.1,-21.35 -6.87,-42.36 -18.75,-60.24 -22.1,-6.45 -49.57,-16.12 -71.67,-29.05 -17.67,-10.38 -31.73,-22.86 -36.5,-37.38 1.51,-6.33 2.52,-11.93 3.35,-16.8 -24.78,-11.55 -95.11,-8.91 -131.44,-12.89l1.51 1.26c1.16,0.83 2.34,1.84 3.51,2.72 5.69,7.83 12.56,16.79 19.93,26.99 2.51,3.35 4.85,6.83 7.37,10.51 2,2.85 4.02,5.82 6.19,8.84 23.11,33.03 50.57,75.27 76.19,123.65 -23.61,-24.32 -49.23,-45.34 -76.52,-67.44l-6.2 -5.19 -7.54 -5.99 -5.69 -4.69c2,2.85 3.85,5.9 5.69,8.79 2.51,4.02 5.11,7.91 7.54,11.76 2.09,3.31 4.02,6.61 6.2,9.84 71.33,113.75 104.65,188.51 117.21,261.42l0.08 -1.42c0.42,-22.02 3.1,-43.5 7.62,-63.97 3.86,-16.79 9.04,-32.9 15.41,-48.18 -0.84,2.43 -1.51,4.81 -2.35,7.24 32.15,72.21 103.82,112.57 130.28,119.97 -67.15,-7.91 -115.04,-47.89 -136.64,-74.97 28.63,61.44 86.99,95.15 109.76,101.46 -54,-6.23 -93.35,-33.19 -113.94,-55.04 20.42,42.74 58.77,63.75 75.19,68.27 -34.67,-3.93 -60.87,-20.38 -76.95,-34.91 6.11,68.2 33.15,128.22 72.42,169.5 40.19,22.28 89.42,24.71 131.69,20.96l0.42 -74.37c-3.34,-0.51 -6.36,-1.13 -8.79,-1.52 2.92,-0.49 5.94,-0.83 8.62,-1.25l0 -16.2c-23.02,-0.17 -42.69,1.38 -55.08,2.64 18.25,-6.66 36.91,-10.76 55.42,-13.32l0 -21.18c-69.82,1.3 -126.76,28.01 -134.62,62.25 -12.06,-19.96 -21.94,-42.2 -28.81,-66.22 67.73,4.6 142.84,-46.05 162.68,-60.58 -6.36,-28.2 -20.02,-49.85 -37.26,-66.43 -1.34,-1.51 -2.51,-2.93 -3.69,-4.48l-1.16 0c-17.67,-15.65 -38.01,-26.28 -57.35,-33.4 1.26,-9.04 2.43,-18.21 2.67,-30.99 32.99,6.84 65.73,10.68 98.38,11.35l0.17 -31.69c-3.85,0 -7.28,-0.05 -10.72,-0.05 3.6,-0.79 7.2,-1.37 10.72,-2.09l0.67 -137.65 -1.26 -0.08c-25.36,-0.13 -49.06,5.27 -71.25,15.35 17.92,-12.22 44.37,-21.8 72.5,-28.59l-0.17 -16.45c-18.33,0.12 -38,2.8 -58.77,9.08 17.41,-10.38 37.5,-20.42 58.94,-28.13l0 -19.92c-10.3,0.92 -21.01,2.96 -33.15,6.82 10.71,-5.1 21.76,-9.79 33.32,-14.19l0.42 -97.62c-42.53,-43.96 -125.92,-87.12 -204.53,-121.06 -10.89,-4.86 -22.19,-9.47 -32.91,-13.95 10.97,2.89 22.01,5.74 32.91,8.83 69.99,18.8 138.14,40.4 199.76,72.25 -44.88,-40.77 -126.25,-72.2 -199.43,-102.18 -3.02,-1.13 -5.69,-2.31 -8.71,-3.52l8.71 2.22c69.99,18.33 138.48,38.68 200.35,69.74 -41.78,-38.47 -119.81,-67.69 -188.22,-95.61 65.9,17.08 130.53,35.63 188.39,64.97 -31.4,-33.9 -95.53,-59.69 -154.81,-83.72 -10.8,-0.42 -21.35,-0.71 -31.15,-0.71 -4.85,6.1 -9.79,12.3 -14.49,18.46 -25.29,32.36 -49.23,63.96 -72.5,95.23l0 -1.47 -0.92 1.6c-18.85,-2.68 -36.76,-7.21 -53.42,-12.77 -2.1,-0.72 -4.1,-1.55 -6.2,-2.35 -2.51,-0.88 -5.11,-1.92 -7.54,-2.92 -8.28,-3.27 -16.07,-6.95 -23.44,-10.76 -21.6,-11.09 -40.1,-24.49 -55.09,-38.68 -19.26,-18.5 -31.81,-38.38 -36.5,-56.89 10.89,10.88 23.36,21.22 36.84,30.73 12.56,9.17 25.87,17.63 39.52,25.45 -14.91,-13.1 -28.46,-27.42 -39.35,-42.07 -16.91,-22.77 -28.13,-46.46 -30.31,-69.07 2.51,-4.35 5.1,-8.79 7.96,-13.11l11.47 32.11 -0.08 -37.92 0.08 -10.38c1.01,-1.26 1.93,-2.56 3.01,-3.86l0 -0.12c0.75,-0.72 1.17,-1.55 1.93,-2.31l0.08 -0.12 1.17 -1.21 0.17 -0.21c1.68,-1.97 3.35,-3.98 5.19,-5.81l1.51 -1.59c8.62,-9.2 18.25,-17.66 29.39,-25.12 -10.38,-0.38 -20.77,-0.29 -30.73,0 -47.55,1.04 -89,8.38 -125.75,25.7 -20.26,9.54 -39.35,22.02 -56.77,38.26 13.4,-62.13 25.03,-100.3 25.03,-100.3 0,0 43.12,-21.69 112.86,-48.39 11.14,0.84 26.71,2.72 45.05,5.86 16.32,2.76 35.08,6.48 55.17,11.47 7.71,1.93 15.48,3.98 23.44,6.11 2.35,0.71 5.11,1.43 7.71,2.13 1.84,0.72 3.93,1.3 5.94,2.01 41.94,12.43 86.57,29.97 126.08,53.58 52.33,31.27 95.2,73.39 111.02,129.19l1.09 1.14c-18.34,-60.12 -59.27,-118.73 -112.11,-162.43 -2.76,-2.22 -5.27,-4.43 -8.12,-6.66 2.67,1.51 5.52,2.94 8.2,4.53 81.88,44.75 143.59,112.48 174.15,177.24 -5.36,-67.23 -48.73,-147.57 -109.43,-214.38 82.71,60.53 117.46,142.08 138.89,212.66l0.25 -1 0.67 -156.36c-11.81,-34.03 -31.06,-66.82 -57.19,-95.87l1.68 2.26 0.5 0.67c0.75,0.75 1.42,1.55 2.01,2.38l0 0.17 0.17 0c0.67,0.96 1.34,1.84 2,2.77l0 0.08c0.67,0.84 1.43,1.68 2.01,2.55l0 0.24 0.25 0.3 1.76 2.26 0.33 0.59c0.5,0.83 1.17,1.71 1.84,2.54l0 0.17c0.67,0.97 1.34,1.97 2.01,2.85l0 0.13 0 0.21c0.67,0.79 1.17,1.72 1.68,2.47l0.33 0.38 0.17 0.08c0.49,1.05 1.25,1.92 1.5,2.89l0.33 0.08 -0.33 0.08c2.68,4.02 5.2,8.12 7.54,12.35 0.59,1.21 1.17,2.22 1.68,3.35 -30.22,-45.08 -70.5,-78.7 -119.73,-97.58 18.42,-2.76 37.17,-5.19 55.84,-7.03 20.18,12.76 38.68,28.56 54.67,47.48 -9.37,-17.54 -21.77,-34.12 -36.76,-49.19 25.29,-2.13 50.82,-3.44 76.44,-3.56l0 -16.91c-298.72,1.71 -594.94,150.62 -594.94,150.62z"/>
  <path class="fil1" d="M1156.73 1473.76c0.84,-11.68 -1.75,-38.06 -6.11,-46.3 -8.37,20.01 -40.35,25.92 -70.16,9.5 -3.35,-1.84 -6.61,-3.98 -9.72,-6.4 2.35,2.13 5.94,4.47 9.72,7.04 23.19,14.56 66.06,34.2 76.27,36.17z"/>
  <path class="fil1" d="M920.04 942.45c-18.42,-2.97 -36.92,-4.6 -55.09,-4.9 -44.54,-0.5 -87.58,7.32 -125.84,25.5 -14.65,6.99 -28.3,15.48 -41.28,25.61 13.73,-3.56 27.3,-6.52 41.03,-9.04 40.52,-7.33 81.21,-10.21 125.75,-7.96 16.83,0.79 34.32,2.47 52.58,4.9 0.67,-0.3 1.76,-0.72 2.51,-1.13 2.35,-1.01 4.77,-1.76 7.03,-2.73 -2.26,-0.71 -4.52,-1.13 -7.03,-1.68 -19.01,-4.56 -37.59,-7.53 -55.01,-9.08 -13.9,-1.17 -27.21,-1.34 -39.6,0 13.47,-4.69 26.7,-8.12 39.6,-10.76 19.09,-3.64 37.43,-5.32 55.34,-5.19 7.87,0 15.65,0.54 23.44,1.13l1.34 0.17 -1.17 -0.29c-7.96,-1.71 -15.74,-3.22 -23.61,-4.56z"/>
  <path class="fil1" d="M1398.1 1885.3c-25.61,-14.81 -62.8,-24.48 -104.49,-25.03l-1.84 -0.08c-2.67,-0.04 -5.19,-0.04 -7.53,0.08l0 21.18c3.01,-0.49 6.19,-0.83 9.38,-1.2 39.52,-4.36 76.86,-0.76 104.49,5.06z"/>
  <path class="fil1" d="M1398.1 1885.3c-19.11,-4.02 -42.88,-6.99 -68.8,-6.99 -11.54,0 -23.52,0.59 -35.69,1.93 -3.19,0.37 -6.36,0.71 -9.38,1.2l0 -21.18c1.5,-0.08 3.08,-0.11 4.72,-0.11 0.91,0 1.85,0.01 2.81,0.02l1.84 0.08c41.69,0.55 78.87,10.22 104.49,25.03z"/>
  <path class="fil1" d="M1375.92 1666.74c-2.76,-19.05 -49.15,-25.08 -82.88,-26.46 -2.6,-0.08 -5.28,-0.21 -7.79,-0.21l-0.17 31.69c2.51,0.17 5.27,0.17 7.96,0.24 27.71,0.22 55.34,-1.59 82.88,-5.27z"/>
  <path class="fil1" d="M1297.5 1672.03c-1.49,0 -2.98,-0.01 -4.47,-0.02 -2.68,-0.08 -5.44,-0.08 -7.96,-0.25l0.17 -31.69c2.51,0 5.19,0.13 7.79,0.21 33.74,1.37 80.12,7.4 82.89,26.45 -26.06,3.49 -52.2,5.29 -78.42,5.29z"/>
  <path class="fil1" d="M1392.58 1642.21c-21.11,-15.33 -53.25,-18.18 -79.38,-18.93 24.28,-5.77 64.81,-5.23 86.08,3.15 2.67,10.25 3.18,25.03 4.52,35.88l0.33 -0.13c-0.08,11.81 -1.18,20.43 -2.35,28.59 -40.27,11.01 -89.41,35.59 -109.51,91.6 -1.17,3.93 -2.51,7.83 -3.69,11.8 1.34,1.14 3.18,2.73 5.36,4.4 22.44,18.01 88.24,64.64 158.74,57.4 3.84,-0.47 7.19,-1.17 10.38,-2.22 17.75,-5.69 28.13,-20.77 33.23,-40.24 -8.79,7.25 -19.84,14.57 -33.14,20.77 -14.24,6.57 -30.74,11.63 -49.32,13.48 10.8,-2.85 30.48,-11.8 49.48,-28.42 13.48,-11.81 26.87,-27.29 36.92,-47.06l-0.17 -2.26c-9.03,9.21 -21.43,19.34 -36.66,28.68 -23.86,14.53 -54.92,26.96 -91.85,30.56 18.66,-4.64 58.69,-25.36 92.01,-62.41 10.72,-11.6 20.52,-25 28.88,-39.9 -7.54,8.34 -17.17,17.5 -28.8,26.37 -29.06,22.52 -70.41,44.34 -121.15,49.4 24.45,-6.33 80.88,-34.58 121.39,-87.99 5.2,-6.82 10.05,-13.95 14.66,-21.48 -4.27,4.73 -9.13,9.59 -14.49,14.53 -29.64,27.01 -76.36,55.64 -136.3,66.66 35.75,-10.89 119.64,-47.06 136.56,-125.51 0.75,-3.7 1.58,-7.25 2.09,-11.09 -0.66,-1.55 -1.33,-2.97 -2,-4.61 -18.42,-43.49 -46.89,-79.41 -80.88,-103.15 -22.43,-11.85 -51.57,-26.41 -87.65,-29.42 -3.43,0 -6.78,-0.25 -9.96,-0.33l-0.67 137.64c2.51,-0.41 5.19,-0.83 7.87,-1.26 31.9,-4.1 72.33,-2.96 99.47,5.53z"/>
  <path class="fil1" d="M1437.74 1856.71c-64.69,0 -122.95,-41.43 -143.8,-58.15 -2.17,-1.67 -4.02,-3.26 -5.36,-4.4 1.17,-3.97 2.51,-7.86 3.69,-11.8 20.09,-56.01 69.24,-80.58 109.51,-91.59 1.16,-8.15 2.26,-16.78 2.34,-28.58l-0.34 0.13c-1.33,-10.84 -1.84,-25.63 -4.51,-35.88 -12.03,-4.74 -30.22,-6.97 -48.15,-6.97 -13.76,0 -27.38,1.32 -37.93,3.83 26.12,0.75 58.27,3.6 79.38,18.93 -17.24,-5.4 -39.84,-7.83 -62.22,-7.83 -12.85,0 -25.62,0.8 -37.25,2.29 -2.68,0.43 -5.36,0.84 -7.87,1.26l0.67 -137.64c3.18,0.08 6.53,0.33 9.96,0.33 36.08,3.01 65.23,17.57 87.65,29.42 34,23.74 62.47,59.65 80.89,103.15 0.67,1.64 1.33,3.06 2,4.61l-0.16 -0.17c0.05,0.08 0.11,0.17 0.15,0.25 -0.51,3.82 -1.33,7.35 -2.08,11.02 -16.92,78.45 -100.81,114.62 -136.56,125.5 59.94,-11.01 106.66,-39.65 136.3,-66.65 5.36,-4.94 10.21,-9.79 14.49,-14.53 -4.61,7.54 -9.47,14.66 -14.66,21.48 -40.51,53.41 -96.95,81.66 -121.39,87.99 50.74,-5.06 92.09,-26.88 121.15,-49.4 11.63,-8.87 21.26,-18.04 28.8,-26.38 -8.37,14.91 -18.17,28.3 -28.88,39.9 -33.33,37.05 -73.35,57.76 -92.01,62.41 36.92,-3.61 67.99,-16.03 91.85,-30.56 15.23,-9.34 27.63,-19.47 36.66,-28.68l0.17 2.26c-10.05,19.77 -23.44,35.25 -36.92,47.06 -19.01,16.62 -38.68,25.57 -49.48,28.42 18.58,-1.84 35.08,-6.9 49.31,-13.47 13.31,-6.2 24.36,-13.52 33.15,-20.77 -5.11,19.47 -15.49,34.54 -33.23,40.24 -3.19,1.05 -6.54,1.75 -10.38,2.22 -5.01,0.51 -10,0.75 -14.95,0.75z"/>
  <path class="fil1" d="M1339.83 1477.78c-13.73,-3.86 -28.29,-6.41 -43.7,-7.12 -3.43,-0.13 -6.78,-0.13 -10.38,-0.13l0.17 16.45c3.18,-0.83 6.53,-1.55 10.13,-2.35 14.65,-3.01 29.72,-5.31 43.79,-6.86z"/>
  <path class="fil1" d="M1285.91 1486.98l0 0 -0.17 -16.45c3.61,0 6.95,0 10.38,0.13 15.41,0.71 29.97,3.26 43.71,7.12 -14.07,1.55 -29.13,3.85 -43.79,6.86 -3.6,0.8 -6.95,1.52 -10.13,2.35z"/>
  <path class="fil1" d="M1466.26 1637.64l0.17 0.17c0.16,0.71 0.5,1.3 0.76,2.01 -0.25,-0.71 -0.43,-1.43 -0.92,-2.18z"/>
  <path class="fil1" d="M1467.18 1639.82c-0.23,-0.65 -0.53,-1.2 -0.71,-1.83 0.34,0.63 0.49,1.23 0.71,1.83z"/>
  <path class="fil1" d="M1466.47 1637.99c-0.02,-0.03 -0.04,-0.07 -0.05,-0.1 -0.05,-0.08 -0.1,-0.17 -0.16,-0.25l0.17 0.17c0.02,0.06 0.03,0.12 0.05,0.18z"/>
  <path class="fil1" d="M1425.9 1926.62c-39.51,-25.91 -90.59,-33.36 -132.45,-34.37 -3.35,-0.05 -6.2,-0.12 -9.55,-0.12l0 16.2c3.19,-0.42 6.2,-0.88 9.38,-1.23 56.43,-6.02 103.73,7.04 132.62,19.52z"/>
  <path class="fil1" d="M1425.9 1926.62c-23.87,-10.31 -60.34,-21.03 -104.15,-21.03 -9.18,0 -18.69,0.46 -28.47,1.51 -3.19,0.34 -6.2,0.81 -9.38,1.23l0 -16.2c3.35,0 6.2,0.08 9.55,0.12 41.85,1 92.94,8.46 132.45,34.37z"/>
  <path class="fil1" d="M1446.16 1470.36l0 0.08 0.08 0.33 -0.08 0.3 0.08 0.33 0 0.08 -0.08 0.3 0.16 0.3 -0.08 0.24 0.08 0.33 -0.08 0.13 0 0.84 0.59 -0.13 0.33 -0.08 0.25 -0.08 0.09 0 0.33 -0.13 0.34 0 0.33 -0.04 0.34 -0.08 0.41 -0.17 0.08 0 0.49 -0.12 0.09 -0.13 0.42 0 0.33 -0.17 0.17 -0.08 0.5 -0.13 0 -0.08 0.59 -0.12 0.58 -0.17 0.5 -0.12 0.67 -0.3 0.67 -0.21 0.25 -0.08 0.33 0 1.26 -0.42 0.33 -0.21 0.43 -0.12 0.59 -0.12 0 -0.09 0.83 -0.16 0 -0.21 0.26 0.08 0.58 -0.38 0.25 0.09 0.25 -0.13 0.17 -0.12 1.43 -0.46 0.33 -0.12 0.25 -0.17 0.5 -0.13 0.33 -0.12 0.84 -0.33 0.84 -0.25 0.16 -0.21 0.51 -0.08 0.33 -0.21 1.17 -0.5 0.34 0 0.58 -0.29 0.67 -0.21 0 -0.04 1.75 -0.76 0.51 -0.12 0.33 -0.3 0.67 -0.13 0.08 -0.12 2.77 -1.13 0.67 -0.25 0.84 -0.42 0.5 -0.13 0.25 -0.37 0.92 -0.29 0.92 -0.43 0.17 0.17 1.59 -0.79 0 -0.08 0.67 -0.33 0 -0.08 1.17 -0.34 1.68 -0.79 0.67 -0.42c3,-1.3 5.69,-2.85 8.37,-4.15 6.69,-3.47 12.72,-7.07 16.91,-10.63 -12.89,6.95 -29.64,10.13 -44.03,3.56 -1.17,-0.47 -2.18,-1.01 -3.27,-1.72l0 -0.09c-3.26,-2.05 -6.36,-4.47 -9.3,-7.61 -1.25,-1.55 -2.58,-3.1 -3.51,-4.82 -1.68,2.72 -2.68,8.25 -3.19,14.36 -0.33,4.06 -0.33,8.38 -0.5,12.44l0.17 0.08 0 0.42 -0.17 0.29 0.17 0.13 0 0.41 0 0.43 0 0.29 0 0.17c0.17,2.76 0.25,5.36 0.17,7.66z"/>
  <path class="fil1" d="M1446.24 1473.63l0 -0.84 0.08 -0.12 -0.08 -0.34 0.08 -0.24 -0.17 -0.3 0.08 -0.29 0 -0.08 -0.08 -0.33 0.08 -0.29 -0.08 -0.34 0 -0.08c0.02,-0.61 0.03,-1.24 0.03,-1.89 0,-1.8 -0.08,-3.74 -0.2,-5.77l0 -0.17 0 -0.29 0 -0.42 0 -0.42 -0.17 -0.13 0.17 -0.29 0 -0.42 -0.17 -0.08c0.17,-4.06 0.17,-8.38 0.51,-12.44 0.5,-6.1 1.5,-11.64 3.18,-14.36 0.92,1.71 2.26,3.27 3.51,4.82 2.92,3.14 6.03,5.57 9.29,7.62l0 0.08c1.09,0.71 2.1,1.25 3.27,1.72 5.5,2.51 11.33,3.6 17.16,3.6 9.45,0 18.9,-2.86 26.88,-7.16 -4.19,3.56 -10.22,7.16 -16.92,10.64 -2.68,1.29 -5.36,2.84 -8.37,4.14l-0.67 0.42 -1.68 0.8 -1.17 0.33 0 0.08 -0.67 0.33 0 0.08 -1.59 0.8 -0.17 -0.17 -0.92 0.42 -0.92 0.29 -0.26 0.38 -0.5 0.12 -0.83 0.42 -0.67 0.25 -2.77 1.13 -0.08 0.13 -0.67 0.12 -0.33 0.3 -0.51 0.12 -1.75 0.75 0 0.05 -0.67 0.21 -0.58 0.29 -0.34 0 -1.17 0.5 -0.33 0.21 -0.51 0.08 -0.16 0.21 -0.83 0.26 -0.85 0.33 -0.33 0.12 -0.5 0.12 -0.24 0.17 -0.33 0.13 -1.43 0.46 -0.16 0.13 -0.26 0.12 -0.25 -0.08 -0.58 0.38 -0.25 -0.09 0 0.21 -0.83 0.17 0 0.08 -0.59 0.12 -0.42 0.13 -0.33 0.21 -1.26 0.41 -0.33 0 -0.26 0.08 -0.66 0.21 -0.67 0.29 -0.51 0.13 -0.58 0.17 -0.59 0.12 0 0.08 -0.5 0.13 -0.17 0.08 -0.33 0.17 -0.42 0 -0.08 0.12 -0.5 0.12 -0.08 0 -0.42 0.17 -0.34 0.08 -0.33 0.04 -0.34 0 -0.33 0.12 -0.09 0 -0.25 0.09 -0.33 0.08 -0.59 0.13z"/>
  <path class="fil1" d="M1362.44 1971.59c-22.36,12.06 -46.39,20.58 -69.74,26.08 -3.1,0.76 -6.11,1.43 -9.21,2.05l0 23.03c3.01,-0.05 6.1,-0.3 9.12,-0.43 44.37,-3.25 85.06,-24.53 117.88,-57.97 -7.54,-27.33 -77.36,-44.25 -117.21,-51.62 -3.35,-0.69 -6.53,-1.04 -9.21,-1.62l-0.42 74.38c3.1,-0.24 6.11,-0.67 9.3,-1 29.47,-3.26 54.75,-9.42 69.49,-12.89z"/>
  <path class="fil1" d="M1283.49 2022.74l0 -23.02c3.09,-0.62 6.11,-1.29 9.2,-2.06 23.36,-5.5 47.39,-14.02 69.75,-26.08 -14.73,3.47 -40.02,9.63 -69.49,12.89 -3.18,0.33 -6.2,0.76 -9.29,1l0.42 -74.37c2.68,0.58 5.86,0.92 9.21,1.62 39.86,7.37 109.68,24.29 117.22,51.62 -32.82,33.45 -73.5,54.72 -117.89,57.97 -3.01,0.14 -6.1,0.39 -9.12,0.43z"/>
  <path class="fil1" d="M1558.02 1632.58c25.95,-49.14 55.42,-80.71 81.88,-108.34 -35.5,26.89 -60.95,49.73 -80.21,76.36 32.32,-66.27 74.94,-122.24 100.46,-152.17 4.19,-4.64 7.55,-8.41 10.55,-11.59 -3.43,2.84 -7.03,5.53 -10.55,8.53 -35.16,28.97 -70.16,56.39 -101.64,88.83 -4.69,4.82 -9.2,9.8 -13.89,14.91 4.52,-8.09 9.21,-16.08 14.07,-24.03 32.98,-54 68.9,-101.98 101.97,-136.02 3.93,-4.15 7.87,-8.03 11.89,-11.72 -1.59,-1.63 -3.27,-3.43 -4.85,-5.06 -2.52,0.16 -4.52,0.41 -7.04,0.71 -32.49,4.6 -68.32,16.79 -101.3,34.28l-1.18 0.67c-0.93,10.97 -2.18,21.77 -0.75,28.01 -20.52,22.6 -60.2,39.3 -90.85,50.19 -0.5,0.71 -0.83,1.26 -1.17,1.84 -16.08,25.16 -23.69,52.75 -17.76,81.3 6.03,5.69 11.73,11.89 17.09,18.34 28.97,34.41 50.06,78.04 59.43,127.01 10.05,-32.19 21.78,-59.2 33.84,-82.05z"/>
  <path class="fil1" d="M1524.18 1714.63c-9.37,-48.98 -30.47,-92.6 -59.44,-127.02 -5.36,-6.45 -11.05,-12.64 -17.08,-18.33 -1.37,-6.58 -2.02,-13.11 -2.01,-19.57 0.03,-21.57 7.39,-42.37 19.76,-61.73 0.33,-0.59 0.67,-1.13 1.17,-1.84 30.64,-10.89 70.32,-27.59 90.84,-50.2 -0.46,-2.02 -0.64,-4.53 -0.64,-7.35 0,-5.91 0.77,-13.24 1.39,-20.65l1.18 -0.67c32.99,-17.5 68.82,-29.68 101.3,-34.29 2.52,-0.29 4.53,-0.54 7.03,-0.71 1.59,1.63 3.27,3.43 4.86,5.07 -4.02,3.68 -7.96,7.58 -11.9,11.72 -33.07,34.03 -68.98,82.01 -101.97,136.01 -4.85,7.96 -9.54,15.95 -14.06,24.03 4.69,-5.1 9.21,-10.09 13.89,-14.91 31.48,-32.44 66.48,-59.86 101.64,-88.83 3.52,-3.02 7.12,-5.69 10.55,-8.54 -3.02,3.18 -6.36,6.95 -10.55,11.6 -25.53,29.93 -68.15,85.9 -100.47,152.16 19.27,-26.62 44.71,-49.47 80.22,-76.36 -26.46,27.64 -55.93,59.2 -81.88,108.34 -12.06,22.86 -23.79,49.86 -33.84,82.05z"/>
  <path class="fil1" d="M1467.76 821.55c-31.48,12.81 -59.11,32.06 -81.38,57.22 13.15,-23.61 32.32,-44.12 55.93,-61.33 8.63,1.34 17.16,2.6 25.45,4.11zm110.1 24.24c-5.11,-0.54 -9.96,-0.84 -14.99,-0.84 -2.52,-0.08 -4.69,-0.17 -7.28,-0.17 -29.72,0.38 -59.19,6.41 -86.33,18.21 -10.21,4.35 -20.26,9.54 -29.55,15.49 8.62,-9.97 18.66,-18.75 29.55,-26.71 11.9,-8.63 24.87,-16.08 38.68,-22.44 23.95,4.82 47.22,10.51 69.91,16.45zm288.26 146.35c-22.6,-9.46 -47.9,-15.69 -78.53,-19.97l-1.34 0.54 -0.5 -0.71 -2.19 -0.42 1.43 -0.63c-31.23,-43.16 -68.57,-75.14 -108.42,-96.04 123.75,40.95 208.22,84.65 208.22,84.65 0,0 5.11,17.7 12.31,48.68 -9.96,-6.23 -20.18,-11.55 -30.98,-16.12zm77.95 390.03c-24.54,-26.42 -51.5,-50.24 -79.96,-69.7 -14.57,-10.09 -29.48,-18.92 -44.71,-26.46 15.4,4.15 30.39,9.13 44.71,15.07 29.05,11.81 55.42,26.92 79.19,44.41 0.59,12.14 0.76,24.41 0.76,36.67zm-3.61 110.47c-22.6,-31.72 -48.57,-60.36 -77.02,-83.68 -17.09,-13.9 -35,-26.17 -53.42,-35.67 18.75,4.81 36.84,11.21 53.75,18.75 29.64,13.22 56.19,30.14 79.71,49.69 -0.67,16.91 -1.5,33.9 -3.01,50.9zm-60.53 257.74c-3.76,7.62 -7.12,15.29 -10.97,22.91 -1.17,-23.4 -3.76,-46.93 -7.2,-69.96 -15.24,-97.03 -49.22,-188.12 -86.4,-245.1 32.82,7.79 61.96,19.56 87.58,34.33 27.62,15.86 51.42,34.95 71.51,56.64 -9.72,69.74 -26.79,138.35 -54.5,201.18zm-104.24 169.71c3.18,-116.34 -14.99,-270.25 -54.92,-360.26 53.33,57.81 101.05,144.63 120.64,264.9 -20.01,33.42 -41.86,65.23 -65.72,95.37zm-481.58 -1115.07l2.77 0c0.75,0.04 1.76,0.13 2.68,0.04 39.69,0.5 79.28,3.77 118.3,8.92 -66.55,54.13 -107.92,126.63 -118.72,199.89 0,-0.75 -0.17,-1.46 -0.34,-2.34 -2.17,-14.2 -5.86,-28.47 -10.79,-42.49l-0.67 156.35 0.24 -0.71c-0.17,0.71 -0.17,1.3 -0.24,2l0 32.4 0 0.5 -0.08 6.03 -0.17 63.42 -0.17 62.54 -0.16 -0.17 -0.17 23.78 0.5 0.55 0 11.51 -0.58 -0.67 -0.42 97.62c3.43,-1.29 6.86,-2.59 10.04,-3.68 23.61,-8.21 49.89,-15.11 81.55,-20.51 2.67,22.19 10.3,85.31 19.84,119.55 1.67,-52.03 1.67,-108.5 3.85,-126.37 13.98,-5.81 37.26,-11.09 64.63,-15.48 28.56,-4.4 61.88,-7.87 93.69,-9.93 37.34,-2.42 73.34,-2.93 98.13,-0.75 -27.3,-12.56 -61.03,-22.85 -97.96,-30.69 -29.72,-6.41 -61.62,-11.22 -93.6,-14.36 -50.91,-5.11 -102.65,-6.33 -147.61,-3.35 42.27,-13.85 93.68,-22.94 147.94,-26.62 30.64,-2.13 62.12,-2.43 93.52,-1.01 11.14,0.59 22.19,1.26 33.07,2.26l-1 -1.14c-10.39,-3.14 -20.93,-5.73 -32.07,-7.66 -29.13,-5.36 -60.71,-6.48 -93.52,-6.11 -44.12,0.59 -90.84,3.76 -138.56,3.27 50.65,-10.05 93.51,-19.84 138.9,-24.37 28.62,-2.92 58.52,-3.76 91.92,-1l-0.67 -1.12c-29.8,-9.59 -59.45,-13.9 -91.17,-14.87 -40.36,-1.42 -83.72,2.43 -133.04,6.87 44.72,-14.86 85.06,-26.2 133.04,-29.05 18.33,-1.13 37.93,-1.13 59.19,0.54l-2.01 -2.13c-18.5,-7.07 -37.51,-11.26 -57,-13.18 -40.12,-3.86 -82.39,1.84 -130.96,9.25 39.1,-15.36 83.65,-28.71 131.03,-33.33 8.54,-0.92 17.24,-1.42 26.05,-1.68 -9.14,-11.8 -17.67,-23.98 -25.88,-36.25 -1.51,-2.34 -3.1,-4.69 -4.69,-7.16 -2.6,-5.69 -64.22,-5.69 -117.71,5.11 2.33,-30.18 3.18,-62.41 3.18,-62.41 0,0 -14.07,33.49 -19.09,66.06 -1.85,0.42 -3.69,0.92 -5.53,1.46 -2.26,-49.14 18.41,-119.22 31.98,-143.04l1.68 -2.84c0.83,-1.59 2.01,-2.68 2.67,-3.64l-0.91 0.67c20.43,-32.44 46.13,-62.54 77.27,-87.78 -47.3,69.03 -76.69,149.61 -73.59,212.66 11.81,-63.75 47.8,-131.57 106.07,-180.59 4.77,-3.94 9.8,-7.96 14.91,-11.6 -5.11,6.15 -10.14,12.43 -15.16,18.96 -38.26,52.45 -62.46,111.74 -60.7,167.15 8.21,-44.12 29.47,-84.85 60.62,-118.8 16.91,-18.75 37,-35.29 59.11,-49.48 -26.37,29.72 -47.39,63.47 -59.53,97.79 -7.96,22.65 -11.97,45.76 -11.05,68.32 1.68,-14.65 5.44,-29.23 10.89,-43.45 17.24,-43.42 50.98,-82.85 94.27,-106.87 29.89,-16.79 64.63,-26.04 101.39,-24.03 31.23,1.59 63.97,11.39 96.95,31.56 -32.73,-2.22 -65.64,-0.59 -97.28,4.94 -6.12,1.01 -12.4,2.3 -18.43,3.73 -2.34,0.54 -4.76,1.13 -7.03,1.72 -1.01,0.25 -2.01,0.42 -3.03,0.71l0.18 0c-25.03,7.03 -45.47,19.3 -58.77,38.14 25.7,-17.54 55.75,-27.05 86.9,-28.17 8.53,-0.47 17.08,-0.17 25.62,0.67 15.57,5.56 29.73,13.1 42.52,21.89 51.83,-5.82 93.77,-8.5 134.89,0.17 11.38,2.42 22.86,5.69 34.41,10 3.02,12.77 6.2,27.25 9.46,43.17 -14.06,-7.12 -28.88,-13.53 -44.2,-19.05 -36.76,-13.1 -77.12,-21.35 -120.4,-23.52 20.43,17.24 36.42,38.31 46.97,61.16 26.54,-1.26 50.73,-0.55 73.34,2.3 17.41,2.39 34.32,5.99 50.24,10.8 1.93,10.51 3.86,21.64 5.69,33.11 -17.75,-8.25 -36.5,-15.36 -56.18,-20.97 -19.01,-5.4 -38.6,-9.59 -58.85,-12.26l0.83 -0.46 -39.26 -3.14c0,0 -65.22,58.15 -60.95,56.01 3.1,-1.46 56.26,-29.55 83.64,-44.12 -7.87,19.63 -21.44,39.89 -39.01,58.19 39.18,-9.09 77.19,-11.01 113.36,-7.08 21.6,2.35 42.36,6.83 62.46,12.94 3.18,23.02 6.2,47.47 8.79,72.76 -1.67,-0.42 -3.43,-0.97 -5.11,-1.34 1.84,0.92 3.44,1.76 5.2,2.64 1.5,13.86 2.59,27.84 3.61,42.16 -23.45,-22.7 -48.89,-43.5 -75.27,-61.2 -38.52,-25.87 -78.78,-45.3 -118.47,-55.3 -15.9,15.49 -34.5,29.43 -54.68,40.43 27.55,55.64 47.14,139.24 53.09,209.61 -0.67,-0.75 -57.61,114.95 -85.24,166.78 -5.27,9.66 -9.37,17.12 -11.88,21.14 4.1,4.65 7.87,9.5 11.55,14.49 64.04,85.06 87.91,214.2 95.86,323.51 -12.22,14.37 -24.61,28.34 -37.26,41.9 1.01,-78.03 -15.49,-157.66 -31.65,-200.94 0.33,28.13 1.68,138.03 -21.27,253.99 -1.5,1.38 -2.92,2.84 -4.52,4.14 3.27,-42.78 1.84,-87.87 -3.01,-128.05 -3.51,-30.14 -9.12,-57.6 -16.16,-79.21 2.09,29.77 3.43,138.61 -32.91,253.22 -1.68,1.52 -3.34,2.94 -5.19,4.36 16.58,-73.35 17.33,-155.02 2.6,-212.37 4.35,27.3 -10.97,123.66 -50.49,219.6 -6.53,15.8 -13.9,31.87 -21.77,47.49 -35.25,25.86 -68.98,48.48 -99.64,67.72 10.22,-16.7 19.43,-36.38 27.47,-56.34 17.41,-43.46 29.55,-88.87 35.08,-113.86 -4.77,11.22 -15.66,40.65 -34.83,77.49 -12.22,23.44 -28.14,50.05 -47.97,76.85 20.68,-38.42 36.75,-79.78 48.22,-118.38 16.07,-54.75 22.61,-103.77 18.5,-131.07 -4.1,12.93 -10.14,29.55 -18,48.76 -28.04,67.82 -81.04,166.56 -171.05,241.84 -2.67,2.35 -5.69,4.78 -8.7,7.2l-0.26 63.38c3.35,1.8 5.36,2.56 5.36,2.56 0,0 447.59,-205.51 605.33,-561.26 145.59,-327.27 5.19,-808.64 5.19,-808.64 0,0 -297.89,-154.3 -598.37,-158.11 -1.01,0 -1.93,0 -2.77,0.04l-2.85 0c-1.67,0.08 -3.51,0.08 -5.36,0.08l0 16.92c1.84,0 3.52,-0.13 5.36,-0.13z"/>
  <path class="fil1" d="M1287.59 2316.11c0,0 -2.01,-0.75 -5.36,-2.56l0.25 -63.37c3.02,-2.43 6.03,-4.85 8.71,-7.21 90,-75.26 143,-174.01 171.05,-241.84 7.87,-19.22 13.89,-35.82 17.99,-48.76 0.81,5.33 1.21,11.49 1.2,18.36 0,28.3 -6.76,68.65 -19.69,112.71 -11.47,38.59 -27.55,79.96 -48.23,118.37 19.84,-26.8 35.76,-53.41 47.97,-76.85 19.17,-36.84 30.06,-66.26 34.83,-77.49 -5.53,24.99 -17.67,70.4 -35.09,113.87 -8.04,19.96 -17.24,39.64 -27.46,56.33 30.64,-19.24 64.39,-41.85 99.63,-67.72 7.87,-15.61 15.24,-31.69 21.76,-47.48 35.2,-85.45 51.2,-171.23 51.2,-208.26 0,-4.55 -0.24,-8.36 -0.72,-11.35 6.96,27.11 10.47,59.65 10.48,94.18 0.02,38.52 -4.33,79.52 -13.07,118.2 1.84,-1.43 3.51,-2.84 5.19,-4.37 28.39,-89.54 33.77,-175.56 33.78,-223.1 0,-13.31 -0.42,-23.61 -0.88,-30.12 7.03,21.6 12.65,49.06 16.16,79.2 3.07,25.43 4.77,52.83 4.77,80.35 0.01,15.97 -0.56,31.99 -1.76,47.7 1.59,-1.3 3.02,-2.75 4.52,-4.14 19.25,-97.28 21.41,-190.28 21.41,-234.34 0,-8.46 -0.08,-15.11 -0.14,-19.65 15.69,42.01 31.69,118.28 31.69,194.08 0,2.29 -0.02,4.57 -0.05,6.86 12.66,-13.56 25.03,-27.53 37.27,-41.9 -7.96,-109.3 -31.82,-238.44 -95.86,-323.51 -3.69,-4.98 -7.46,-9.84 -11.56,-14.48 2.51,-4.02 6.62,-11.48 11.89,-21.15 27.54,-51.66 84.19,-166.78 85.22,-166.78 0.01,0 0.01,0 0.01,0.01 -5.94,-70.37 -25.53,-153.98 -53.08,-209.61 20.18,-11.01 38.78,-24.95 54.67,-40.43 39.69,10 79.96,29.42 118.47,55.29 26.37,17.71 51.83,38.52 75.27,61.2 -1.01,-14.31 -2.1,-28.3 -3.6,-42.15 -1.76,-0.88 -3.35,-1.72 -5.2,-2.64 1.68,0.37 3.44,0.91 5.11,1.33 -2.59,-25.29 -5.62,-49.73 -8.79,-72.75 -20.09,-6.11 -40.86,-10.59 -62.47,-12.93 -11.72,-1.28 -23.63,-1.94 -35.73,-1.94 -25.2,0 -51.15,2.86 -77.63,9.01 17.58,-18.3 31.15,-38.55 39.01,-58.19 -27.37,14.56 -80.53,42.65 -83.63,44.12 -0.08,0.04 -0.13,0.05 -0.17,0.05 -0.02,0 -0.04,-0.01 -0.04,-0.03 -0.03,-1.49 61.16,-56.04 61.16,-56.04l39.26 3.14 -0.83 0.46c20.26,2.68 39.84,6.87 58.85,12.27 19.68,5.6 38.43,12.72 56.18,20.97 -1.84,-11.47 -3.76,-22.61 -5.69,-33.12 -15.91,-4.81 -32.81,-8.41 -50.23,-10.8 -15.49,-1.95 -31.73,-2.9 -48.96,-2.9 -7.91,0 -16.03,0.2 -24.39,0.59 -10.55,-22.86 -26.54,-43.91 -46.97,-61.16 43.28,2.17 83.63,10.42 120.39,23.52 15.32,5.53 30.14,11.94 44.21,19.04 -3.28,-15.91 -6.45,-30.39 -9.46,-43.16 -11.55,-4.31 -23.03,-7.58 -34.42,-10.01 -18.82,-3.96 -37.81,-5.56 -57.83,-5.56 -23.74,0 -48.94,2.23 -77.05,5.39 -12.8,-8.8 -26.96,-16.33 -42.52,-21.9 -5.82,-0.57 -11.62,-0.88 -17.44,-0.88 -2.73,0 -5.45,0.07 -8.18,0.21 -31.15,1.13 -61.19,10.63 -86.91,28.17 13.3,-18.84 33.74,-31.11 58.77,-38.13l-0.17 0c1.02,-0.3 2.01,-0.46 3.02,-0.72 2.26,-0.58 4.7,-1.16 7.03,-1.71 6.03,-1.43 12.31,-2.72 18.43,-3.73 22.55,-3.93 45.73,-5.9 69.04,-5.9 9.4,0 18.83,0.32 28.24,0.96 -32.98,-20.17 -65.72,-29.97 -96.96,-31.57 -3.33,-0.17 -6.64,-0.27 -9.94,-0.27 -33.07,0 -64.27,9.03 -91.44,24.3 -43.29,24.03 -77.03,63.46 -94.28,106.87 -5.44,14.24 -9.21,28.8 -10.88,43.45 -0.09,-2.11 -0.13,-4.23 -0.14,-6.36 0,-20.54 3.98,-41.43 11.19,-61.95 12.14,-34.33 33.15,-68.08 59.52,-97.8 -22.1,14.2 -42.2,30.73 -59.1,49.48 -31.15,33.95 -52.42,74.68 -60.62,118.81 -0.05,-1.84 -0.08,-3.69 -0.08,-5.53 -0.05,-53.82 23.8,-110.91 60.79,-161.62 5.01,-6.53 10.05,-12.81 15.15,-18.97 -5.1,3.64 -10.14,7.66 -14.91,11.6 -58.27,49.02 -94.27,116.83 -106.07,180.59 -0.14,-3.08 -0.22,-6.2 -0.22,-9.35 0.04,-61.53 28.82,-137.65 73.81,-203.31 -31.15,25.25 -56.84,55.34 -77.28,87.78l0.92 -0.67c-0.67,0.97 -1.84,2.06 -2.67,3.64l-1.68 2.85c-12.88,22.61 -32.16,86.9 -32.15,135.4 0,2.6 0.06,5.14 0.17,7.64 1.84,-0.54 3.67,-1.04 5.52,-1.46 5.02,-32.57 19.09,-66.06 19.09,-66.06 0,0 -0.84,32.23 -3.18,62.41 30.99,-6.26 64.71,-8.89 88.1,-8.89 16.98,0 28.52,1.39 29.61,3.78 1.59,2.48 3.18,4.82 4.69,7.16 8.21,12.26 16.74,24.45 25.87,36.25 -8.8,0.25 -17.51,0.75 -26.05,1.67 -47.39,4.61 -91.92,17.97 -131.03,33.33 37.79,-5.77 71.77,-10.49 103.88,-10.49 9.16,0 18.17,0.38 27.07,1.24 19.5,1.93 38.51,6.11 57.01,13.19l2.01 2.13c-11.68,-0.92 -22.86,-1.33 -33.59,-1.33 -8.82,0 -17.34,0.28 -25.6,0.78 -47.98,2.85 -88.33,14.19 -133.04,29.06 42.2,-3.8 80.05,-7.17 115.38,-7.17 5.96,0 11.84,0.1 17.67,0.3 31.72,0.96 61.37,5.27 91.17,14.86l0.67 1.13c-14.05,-1.16 -27.49,-1.68 -40.47,-1.68 -17.87,0 -34.88,0.99 -51.46,2.69 -45.38,4.53 -88.25,14.32 -138.89,24.36 3.46,0.04 6.91,0.05 10.36,0.05 44.12,0 87.27,-2.77 128.19,-3.32 3.72,-0.04 7.42,-0.06 11.1,-0.06 28.84,0 56.59,1.42 82.43,6.18 11.13,1.92 21.67,4.52 32.07,7.66l1 1.13c-10.88,-1 -21.93,-1.67 -33.07,-2.26 -12.83,-0.58 -25.68,-0.87 -38.47,-0.87 -18.52,0 -36.93,0.62 -55.06,1.88 -54.25,3.69 -105.65,12.77 -147.93,26.63 16.17,-1.07 33.21,-1.6 50.78,-1.6 31.28,0 64.23,1.68 96.82,4.95 31.99,3.15 63.89,7.96 93.61,14.37 36.92,7.83 70.66,18.12 97.96,30.68 -10.72,-0.95 -23.55,-1.38 -37.67,-1.38 -18.52,0 -39.28,0.75 -60.46,2.13 -31.81,2.05 -65.13,5.53 -93.68,9.92 -27.38,4.4 -50.65,9.67 -64.63,15.48 -2.18,17.88 -2.18,74.35 -3.85,126.38 -9.55,-34.25 -17.17,-97.37 -19.85,-119.55 -31.65,5.4 -57.93,12.3 -81.54,20.52 -3.18,1.08 -6.61,2.38 -10.05,3.68l0.43 -97.63 0.58 0.67 0 -11.51 -0.5 -0.55 0.17 -23.78 0.17 0.17 0.17 -62.54 0.17 -63.43 0.08 -6.03 0 -0.5 0 -32.39c0.08,-0.71 0.08,-1.3 0.25,-2.01l-0.25 0.72 0.67 -156.36c4.94,14.03 8.63,28.3 10.8,42.49 0.17,0.88 0.33,1.59 0.33,2.35 10.81,-73.26 52.16,-145.76 118.72,-199.89 -39.02,-5.15 -78.62,-8.41 -118.3,-8.92 -0.28,0.02 -0.58,0.04 -0.88,0.04 -0.65,0 -1.28,-0.05 -1.8,-0.08l-2.77 0c-1.84,0 -3.51,0.13 -5.36,0.13l0 -16.91c1.84,0 3.68,0 5.36,-0.08l2.84 0c0.84,-0.05 1.76,-0.05 2.77,-0.05 300.49,3.81 598.37,158.11 598.37,158.11 0,0 60.92,208.86 60.9,444.95 -0.02,122.33 -16.39,251.99 -66.08,363.69 -157.75,355.75 -605.33,561.25 -605.33,561.25zm488.11 -396.03l0 0c23.86,-30.14 45.71,-61.95 65.72,-95.36 -19.6,-120.27 -67.31,-207.09 -120.64,-264.9 36.97,83.33 55.28,221.43 55.27,333.77 0,9.01 -0.11,17.85 -0.35,26.48zm-0.34 -461.85c37.18,56.97 71.17,148.06 86.4,245.1 3.44,23.02 6.03,46.55 7.2,69.96 3.86,-7.62 7.2,-15.29 10.97,-22.91 27.72,-62.83 44.79,-131.44 54.51,-201.19 -20.1,-21.68 -43.88,-40.77 -71.51,-56.64 -25.61,-14.78 -54.76,-26.54 -87.58,-34.32zm34.66 -84.94c18.42,9.5 36.33,21.77 53.42,35.67 28.46,23.32 54.42,51.95 77.03,83.68 1.5,-16.99 2.34,-34 3.01,-50.91 -23.52,-19.55 -50.07,-36.46 -79.71,-49.69 -16.9,-7.54 -34.99,-13.94 -53.74,-18.75zm134.05 8.87l0 0c0,-12.26 -0.17,-24.52 -0.76,-36.66 -23.78,-17.51 -50.14,-32.61 -79.2,-44.42 -14.32,-5.94 -29.3,-10.92 -44.71,-15.07 15.24,7.53 30.14,16.37 44.71,26.45 28.46,19.46 55.43,43.29 79.96,69.7zm-46.98 -373.9l0 0c-7.2,-30.98 -12.31,-48.69 -12.31,-48.69 0,0 -84.47,-43.71 -208.21,-84.64 39.85,20.89 77.19,52.87 108.42,96.03l-1.43 0.63 2.18 0.42 0.5 0.71 1.33 -0.54c30.64,4.27 55.93,10.51 78.54,19.97 10.8,4.56 21.02,9.88 30.97,16.12zm-510.71 -129.49l0 0c22.27,-25.16 49.9,-44.41 81.38,-57.22 -8.29,-1.5 -16.83,-2.76 -25.45,-4.1 -23.61,17.21 -42.78,37.72 -55.93,61.32zm121.57 -49.43c-13.81,6.36 -26.8,13.82 -38.68,22.44 -10.88,7.96 -20.93,16.74 -29.55,26.71 9.29,-5.94 19.33,-11.13 29.55,-15.49 27.13,-11.8 56.61,-17.82 86.33,-18.2 2.59,0 4.76,0.08 7.28,0.17 5.02,0 9.88,0.29 14.99,0.84 -22.7,-5.94 -45.96,-11.64 -69.91,-16.45z"/>
  <path class="fil1" d="M1345.52 1437.34c-18.25,-3.77 -33.74,-6.2 -49.4,-6.11 -3.18,-0.08 -6.62,0.21 -10.21,0.33l0 19.92c3.6,-1.3 6.78,-2.42 10.21,-3.43 15.83,-5.06 32.32,-8.95 49.4,-10.71z"/>
  <path class="fil1" d="M1285.91 1451.48l0 -19.92c3.15,-0.11 6.18,-0.35 9.02,-0.35 0.4,0 0.8,0.01 1.19,0.02 0.27,0 0.53,0 0.8,0 15.39,0 30.65,2.41 48.6,6.11 -17.08,1.75 -33.57,5.65 -49.4,10.71 -3.43,1.01 -6.61,2.13 -10.21,3.43z"/>
  <path class="fil1" d="M1287.59 1124.67l-0.25 0.71 0 1.3c0.08,-0.72 0.08,-1.3 0.25,-2.01z"/>
  <polygon class="fil1" points="1490.37,639.53 1532.56,415.4 1564.97,418.5 1569.23,396.4 1459.38,385.56 1455.2,407.58 1487.69,410.84 1445.15,635.14 "/>
  <polygon class="fil1" points="1490.37,639.53 1445.15,635.14 1487.69,410.84 1455.2,407.58 1459.38,385.56 1569.23,396.4 1564.97,418.5 1532.56,415.4 "/>
  <path class="fil1" d="M1668.7 442.11c5.87,-3.85 11.97,-5.19 18.42,-4.02l45.13 7.45 5.6 -22.06 -60.78 -10.21c-14.24,-2.42 -27.8,0.62 -40.53,8.87 -12.56,8.17 -21.09,19.39 -24.78,33.46l-36.33 140.91c-3.86,14.02 -1.84,27 5.69,38.64 7.54,11.64 18.43,18.71 32.75,21.18l61.03 10.26 5.78 -21.77 -45.37 -7.67c-6.53,-1 -11.31,-4.22 -14.82,-9.46 -3.18,-5.32 -4.02,-11.01 -2.17,-17.16l17.16 -65.94 56.34 9.55 5.36 -22.19 -55.93 -9.37 16.83 -65.68c1.42,-6.11 5.11,-11.1 10.63,-14.78z"/>
  <path class="fil1" d="M1674.89 666.58l-61.03 -10.26c-14.32,-2.47 -25.2,-9.54 -32.75,-21.18 -5.03,-7.77 -7.6,-16.15 -7.6,-25.03 0,-4.41 0.63,-8.96 1.91,-13.61l36.34 -140.91c3.68,-14.07 12.22,-25.29 24.78,-33.46 9.89,-6.41 20.28,-9.68 31.11,-9.68 3.1,0 6.24,0.27 9.41,0.81l60.78 10.21 -5.61 22.06 -45.13 -7.44c-1.5,-0.27 -2.99,-0.41 -4.46,-0.41 -4.82,0 -9.46,1.47 -13.96,4.43 -5.52,3.68 -9.2,8.66 -10.62,14.78l-16.83 65.68 55.93 9.37 -5.36 22.19 -56.35 -9.55 -17.16 65.93c-0.65,2.16 -0.97,4.27 -0.97,6.32 0,3.79 1.08,7.4 3.14,10.84 3.51,5.23 8.29,8.45 14.83,9.46l45.37 7.67 -5.79 21.76z"/>
  <polygon class="fil1" points="1815.3,696.88 1859.33,708.47 1897.76,600.89 1945.65,613.58 1953.27,592.06 1905.55,579.5 1936.45,493.69 2005.76,511.85 2013.3,490.3 1900.28,460.74 "/>
  <polygon class="fil1" points="1859.33,708.48 1815.3,696.89 1900.28,460.74 2013.3,490.3 2005.77,511.85 1936.45,493.69 1905.55,579.5 1953.28,592.06 1945.65,613.59 1897.77,600.9 "/>
  <path class="fil1" d="M1978.14 721.29c1.59,-5.69 1.08,-10.93 -1.68,-15.95 -2.67,-5.11 -7.03,-8.46 -12.73,-10.08 -5.6,-1.68 -10.88,-1.13 -15.74,1.72 -5.02,2.84 -8.38,7.03 -10.04,12.64 -1.59,5.49 -0.84,10.68 2,15.7 2.68,5.19 6.79,8.41 12.39,9.96 5.53,1.64 10.71,1.14 15.91,-1.62 4.86,-2.68 8.21,-6.83 9.88,-12.35z"/>
  <path class="fil1" d="M1958.5 736.2c-2.01,0 -4.05,-0.31 -6.15,-0.93 -5.6,-1.55 -9.71,-4.77 -12.39,-9.96 -1.87,-3.3 -2.83,-6.67 -2.83,-10.14 0,-1.82 0.27,-3.67 0.82,-5.56 1.67,-5.61 5.02,-9.79 10.04,-12.64 3.03,-1.78 6.23,-2.66 9.58,-2.66 2,0 4.06,0.32 6.16,0.94 5.69,1.63 10.05,4.98 12.73,10.09 1.73,3.14 2.57,6.36 2.58,9.72 0,2.02 -0.3,4.08 -0.9,6.22 -1.68,5.53 -5.02,9.67 -9.88,12.35 -3.22,1.72 -6.45,2.56 -9.76,2.56z"/>
  <path class="fil1" d="M2059.85 765.91c3.44,1.97 10.38,4.6 20.26,7.92 12.73,4.14 25.38,3.3 38.18,-2.52 12.82,-5.74 21.77,-14.78 26.8,-26.88l-21.6 -7.03c-2.77,6.61 -7.45,11.48 -13.98,14.15 -6.62,2.85 -13.32,3.56 -19.85,1.84 -6.7,-1.76 -11.38,-5.11 -14.07,-10.09 -3.17,-6.11 -3.01,-13.23 0.75,-21.6l62.96 -146.68c2.26,-5.4 5.45,-9.46 9.63,-12.02 4.18,-2.64 8.2,-3.14 12.14,-1.93l49.89 16.5 8.96 -21.02 -55.75 -18.34c-14.07,-4.73 -27.64,-4.85 -40.36,-0.59 -13.9,5.02 -23.86,14.49 -29.81,28.43l-60.53 141.58c-5.11,11.64 -4.86,23.15 1.09,34.24 5.19,10.17 13.82,18.21 25.29,24.03z"/>
  <path class="fil1" d="M2095.97 776.41c-5.28,0 -10.56,-0.86 -15.86,-2.58 -9.88,-3.31 -16.82,-5.94 -20.26,-7.92 -11.47,-5.82 -20.09,-13.85 -25.29,-24.02 -3.16,-5.9 -4.71,-11.91 -4.7,-17.99 0.01,-5.37 1.22,-10.8 3.61,-16.25l60.54 -141.59c5.94,-13.94 15.9,-23.4 29.8,-28.42 6.11,-2.05 12.41,-3.09 18.87,-3.09 6.99,0 14.18,1.22 21.49,3.68l55.75 18.33 -8.96 21.02 -49.89 -16.5c-1.33,-0.41 -2.68,-0.62 -4.05,-0.62 -2.64,0 -5.33,0.81 -8.09,2.55 -4.18,2.55 -7.37,6.61 -9.63,12.02l-62.96 146.68c-2,4.45 -2.98,8.54 -2.99,12.32 -0.01,3.33 0.75,6.42 2.24,9.28 2.68,4.99 7.37,8.33 14.06,10.09 2.36,0.62 4.74,0.92 7.13,0.92 4.22,0 8.49,-0.94 12.72,-2.76 6.52,-2.68 11.21,-7.54 13.98,-14.15l21.6 7.03c-5.02,12.1 -13.98,21.14 -26.8,26.87 -7.48,3.4 -14.9,5.1 -22.32,5.1z"/>
  <path class="fil1" d="M2184.94 811.96c5.53,2.01 10.88,1.76 16.24,-0.54 5.02,-2.43 8.63,-6.28 10.71,-11.68 2.1,-5.56 1.84,-10.8 -0.58,-16.07 -2.61,-5.24 -6.45,-8.79 -11.98,-10.84 -5.36,-2.1 -10.79,-1.93 -15.9,0.62 -5.19,2.39 -8.71,6.41 -10.8,11.85 -2.1,5.36 -1.76,10.64 0.67,15.87 2.42,5.19 6.19,8.83 11.64,10.8z"/>
  <path class="fil1" d="M2192.38 813.32c-2.45,0 -4.93,-0.45 -7.44,-1.36 -5.45,-1.97 -9.21,-5.61 -11.64,-10.8 -1.35,-2.9 -2.05,-5.82 -2.06,-8.76 0,-2.35 0.45,-4.73 1.39,-7.11 2.09,-5.44 5.61,-9.46 10.8,-11.85 2.78,-1.39 5.64,-2.07 8.54,-2.07 2.45,0 4.91,0.48 7.36,1.44 5.53,2.05 9.37,5.61 11.98,10.84 1.32,2.89 2,5.76 2,8.68 0,2.42 -0.46,4.88 -1.42,7.4 -2.09,5.4 -5.69,9.25 -10.71,11.68 -2.93,1.26 -5.85,1.91 -8.8,1.91z"/>
  <path class="fil1" d="M1347.7 468.28c-1.01,11.35 -6.61,16.83 -16.25,16.62l-23.11 -0.59 9.37 -83.55 19.94 0.41c4.85,0.17 8.53,1.72 11.54,4.86 2.84,3.09 4.02,6.95 3.86,11.47l-5.36 50.78zm30.97 128.6c0.17,-0.79 0.17,-1.8 0.17,-2.68l7.71 -70.79 0.49 -5.82c0.17,-10.76 -3.01,-19.04 -10.29,-24.66 13.14,-11.38 20.26,-34.49 21.34,-69.32 0.17,-14.78 -5.26,-26.04 -16.65,-33.95 -9.88,-6.95 -22.61,-10.39 -38.1,-10.76l-52.74 -1.17 -29.13 -0.58 -2.67 22.31 13.22 0.25 -24.45 226.77 42.03 1.01 3.02 0.12 13.22 -120.52 24.45 0.5c7.37,0.13 11.04,4.31 10.88,12.39 -0.08,0.96 -0.08,1.93 -0.08,3.02l-7.28 70.2c-0.34,1.3 -0.42,2.72 -0.42,3.98 -0.42,20.93 11.13,31.44 34.57,32.02l19.26 0.42 2.42 -22.61c-7.37,-0.16 -10.97,-3.56 -10.97,-10.13z"/>
  <path class="fil1" d="M1399.19 2579.87c-0.67,4.9 -2.76,8.34 -6.11,10.21 -3.26,2.05 -7.03,2.05 -11.05,0.09 -4.02,-1.97 -7.71,-6.07 -10.71,-12.22l-26.96 -54.59c-2.68,-5.68 -3.7,-11.09 -3.02,-15.91 1.01,-4.34 3.02,-7.4 6.37,-9.54 3.26,-1.88 6.7,-2.13 10.55,-0.58 4.19,1.87 7.71,5.68 10.55,11.38l26.88 54.58c3.1,6.12 4.28,11.68 3.51,16.58zm27.38 -35.12l-26.62 -54.79c-5.2,-10.67 -13.91,-16.62 -25.8,-18.13 -10.71,-0.92 -21.44,1.64 -31.98,7.92l-4.94 2.96c-10.71,6.42 -18.34,14.91 -23.2,25.29 -5.53,11.94 -5.85,23.19 -0.5,33.91l26.62 54.66c5.36,10.9 13.89,16.93 25.79,18.18 10.55,1.09 21.43,-1.64 32.14,-8.08l4.69 -2.73c11.22,-6.81 19.17,-16.07 23.86,-27.5 4.69,-11.6 4.43,-22.11 -0.08,-31.69z"/>
  <path class="fil0" d="M2419.4 1864.98c-296.43,667.31 -1136.13,1052.64 -1136.13,1052.64 0,0 -834.88,-395.65 -1123.01,-1066.6 -265.19,-617.29 9.27,-1517.12 9.27,-1517.12 0,0 562.25,-282.48 1126.33,-282.48l0 -0.08c1.67,0.08 3.41,0.17 5.08,0.08 1.65,0.14 3.41,0 5.08,0l0 0.14c563.73,6.82 1122.74,296.3 1122.74,296.3 0,0 263.27,903.15 -9.36,1517.12zm50.06 -1557.99c0,0 -578.87,-299.72 -1163.18,-306.9 -1.58,0.05 -3.5,-0.08 -5.07,0 -1.93,-0.08 -3.5,-0.08 -5.16,-0.08 -584.21,0 -1166.59,292.58 -1166.59,292.58 0,0 -284.63,931.94 -9.81,1571.65 298.53,694.99 1163.35,1104.81 1163.35,1104.81 0,0 869.62,-399.1 1176.84,-1090.36 282.61,-636.12 9.62,-1571.69 9.62,-1571.69z"/>
  <path class="fil1" d="M2333.35 1835.83c-273.87,616.25 -1049.31,972.24 -1049.31,972.24 0,0 -0.75,-0.25 -2.01,-0.83 -1.17,0.58 -1.84,0.83 -1.84,0.83l0 -1.84c-59.27,-28.85 -778.29,-389.18 -1033.31,-983.29 -244.98,-570.12 8.7,-1401.08 8.7,-1401.08 0,0 516.66,-259.63 1036.16,-260.88l0 -0.09c1.43,0 2.68,0.09 4.02,0.09l1.26 0 4.1 0 0 0.12c1.34,0 2.51,-0.12 3.94,-0.12l0 0.04c520.67,6.33 1036.83,273.7 1036.83,273.7 0,0 243.38,834.01 -8.53,1401.12zm85.14 -1477.73c0,0 -553.75,-286.71 -1112.69,-293.58 -1.5,0.05 -3.35,-0.08 -4.85,0 -1.84,-0.08 -3.35,-0.08 -4.94,-0.08 -558.85,0 -1115.95,279.89 -1115.95,279.89 0,0 -272.27,891.49 -9.38,1503.43 285.58,664.83 1112.86,1056.86 1112.86,1056.86 0,0 831.89,-381.78 1125.75,-1043.04 270.35,-608.5 9.21,-1503.47 9.21,-1503.47z"/>
  <path class="fil3" d="M180.05 344.32c0,0 557.1,-279.89 1115.95,-279.89 1.59,0 3.09,0 4.94,0.08 0.84,-0.05 1.78,-0.03 2.71,-0.01 0.75,0.02 1.48,0.03 2.14,0.01 558.94,6.87 1112.69,293.58 1112.69,293.58 0,0 261.15,894.97 -9.21,1503.47 -293.86,661.26 -1125.75,1043.04 -1125.75,1043.04 0,0 -827.28,-392.03 -1112.86,-1056.86 -262.89,-611.94 9.38,-1503.43 9.38,-1503.43zm1115.94 -292.9c-564.08,0 -1126.33,282.48 -1126.33,282.48 0,0 -274.47,899.83 -9.27,1517.12 288.12,670.95 1123.01,1066.6 1123.01,1066.6 0,0 839.7,-385.33 1136.13,-1052.64 272.63,-613.97 9.36,-1517.12 9.36,-1517.12 0,0 -559.01,-289.48 -1122.74,-296.3l0 -0.14c-1.66,0 -3.42,0.14 -5.08,0 -1.67,0.08 -3.41,0 -5.08,-0.08l0 0.08z"/>
 </g>
</svg>
