<?xml version="1.0" encoding="UTF-8"?>
<!DOCTYPE svg PUBLIC "-//W3C//DTD SVG 1.1//EN" "http://www.w3.org/Graphics/SVG/1.1/DTD/svg11.dtd">
<!-- Creator: CorelDRAW 2020 (64 Bit) -->
<svg xmlns="http://www.w3.org/2000/svg" xml:space="preserve" width="194.043mm" height="188.386mm" version="1.1" style="shape-rendering:geometricPrecision; text-rendering:geometricPrecision; image-rendering:optimizeQuality; fill-rule:evenodd; clip-rule:evenodd"
viewBox="0 0 2618.96 2542.6"
 xmlns:xlink="http://www.w3.org/1999/xlink"
 xmlns:xodm="http://www.corel.com/coreldraw/odm/2003">
 <defs>
  <style type="text/css">
   <![CDATA[
    .fil3 {fill:black;fill-rule:nonzero}
    .fil0 {fill:#0860A0;fill-rule:nonzero}
    .fil4 {fill:#338F28;fill-rule:nonzero}
    .fil1 {fill:yellow;fill-rule:nonzero}
    .fil2 {fill:white;fill-rule:nonzero}
   ]]>
  </style>
 </defs>
 <g id="Camada_x0020_1">
  <metadata id="CorelCorpID_0Corel-Layer"/>
  <g id="_2346563796432">
   <g>
    <path class="fil0" d="M2522.73 197.37c-417.96,81.27 -609.53,-197.37 -609.53,-197.37l-603.73 0 -603.72 0c0,0 -191.57,278.64 -609.53,197.37 0,0 -603.72,1695.07 1213.25,2345.23 1816.98,-650.16 1213.26,-2345.23 1213.26,-2345.23z"/>
    <path class="fil1" d="M1863.42 107.42c-83.82,0 -553.95,0 -553.95,0 0,0 -470.13,0 -553.94,0 -76.33,81.25 -266.23,236.6 -582.32,209.03 -26.63,102.68 -65.63,291.81 -65.63,518.73 0,89.39 6.05,184.62 21.31,282.72 5.06,32.54 11.03,64.63 17.86,96.3l1965.12 -941.41c-122.3,-46.85 -204.37,-118.45 -248.46,-165.37z"/>
    <path class="fil0" d="M900.36 638.29c-15.38,36.35 -163.57,-2.8 -202.71,-65.71 0,0 109.05,39.15 160.78,-23.77 0,0 47.33,53.17 187.56,48.57 0,0 -32.38,39.5 -145.62,40.9z"/>
    <path class="fil0" d="M1093.28 547.41c-15.38,36.35 -163.56,-2.8 -202.71,-65.71 0,0 109.05,39.14 160.78,-23.77 0,0 47.33,53.18 187.56,48.57 0,0 -32.38,39.5 -145.62,40.9z"/>
    <path class="fil0" d="M1297.39 642.48c-15.38,36.35 -163.56,-2.8 -202.71,-65.71 0,0 109.05,39.14 160.78,-23.77 0,0 47.33,53.17 187.56,48.57 0,0 -32.38,39.5 -145.62,40.9z"/>
    <path class="fil0" d="M1487.53 550.21c-15.38,36.35 -163.57,-2.8 -202.71,-65.71 0,0 109.05,39.14 160.77,-23.77 0,0 47.33,53.17 187.56,48.57 0,0 -32.38,39.5 -145.62,40.9z"/>
    <g>
     <polygon class="fil2" points="539.91,467.4 463.97,467.4 463.97,298.78 539.91,298.78 "/>
     <path class="fil3" d="M539.91 287.17l-87.55 0 0 191.84 99.16 0 0 -191.84 -11.61 0zm-11.61 23.22l0 0c0,18.65 0,126.76 0,145.4 -13.66,0 -39.07,0 -52.72,0 0,-18.64 0,-126.76 0,-145.4 13.66,0 39.06,0 52.72,0z"/>
    </g>
    <g>
     <polygon class="fil2" points="604.01,792.48 399.87,792.48 399.87,455.84 604.01,455.84 "/>
     <path class="fil3" d="M604.01 444.71l-215.27 0 0 358.9 226.4 0 0 -358.9 -11.13 0zm-11.13 22.26l0 0c0,20.1 0,294.27 0,314.38 -18.76,0 -163.12,0 -181.88,0 0,-20.11 0,-294.28 0,-314.38 18.75,0 163.12,0 181.88,0z"/>
    </g>
    <polygon class="fil3" points="604.01,652.44 399.87,652.44 399.87,581.26 604.01,581.26 "/>
    <polygon class="fil3" points="604.01,509.99 399.87,509.99 399.87,438.81 604.01,438.81 "/>
    <polygon class="fil3" points="604.01,794.89 399.87,794.89 399.87,723.71 604.01,723.71 "/>
    <g>
     <polygon class="fil2" points="664.45,467.4 339.42,467.4 339.42,357.22 664.45,357.22 "/>
     <path class="fil3" d="M664.45 346.09l-336.16 0 0 132.44 347.29 0 0 -132.44 -11.13 0zm-11.13 22.26l0 0c0,15.97 0,71.95 0,87.92 -20.03,0 -282.74,0 -302.77,0 0,-15.97 0,-71.94 0,-87.92 20.03,0 282.74,0 302.77,0z"/>
    </g>
    <polygon class="fil3" points="729.84,832.06 274.03,832.06 274.03,1088.34 409.48,1088.34 729.84,934.87 "/>
    <path class="fil4" d="M453.4 1854.64c200.34,243.55 488.24,436.17 856.07,573.33 377.59,-140.8 670.97,-339.98 871.88,-592.76 164.17,-206.54 268.41,-450.38 309.85,-724.73 12.6,-83.4 18.61,-164.53 19.99,-241.64l-2057.8 985.8z"/>
    <path class="fil2" d="M436.67 1833.92l2074.8 -993.94c0.01,-2.08 0.06,-4.21 0.06,-6.29 0,-226.81 -38.96,-415.02 -65.62,-517.25 -116.9,10.22 -216.48,-4.63 -299.49,-31.46l-1993.71 955.1c51.52,221.42 146.7,420.73 283.97,593.84z"/>
    <g>
     <path class="fil0" d="M2046.32 752.22c-7.73,128.13 -73.49,238.13 -163.55,278.56 -117.42,52.72 -178.68,-37.36 -178.29,-191.4 0.41,-156.42 54.9,-310.27 178.01,-365.55 99.75,-44.77 156.53,11.8 164.17,143.3l-111.74 58.04c1.26,-46.33 -11.14,-98.36 -51.6,-80.2 -53.02,23.79 -55.59,137.79 -55.71,189.13 -0.15,54.52 1.91,145.9 56.04,121.59 37.06,-16.63 51.42,-68.05 53.25,-113.85l109.41 -39.64z"/>
     <polygon class="fil0" points="1044.25,1279.03 1044.25,1427.58 1130.42,1386.24 1130.42,1237.69 "/>
     <path class="fil0" d="M876.55 972.74l-116.72 55.99 -104.96 585.66 90.33 -43.34 15.14 -84.51 131.62 -63.14 18.17 68.52 92.34 -44.3 -125.92 -474.88zm-95.79 399.92l0 0 39.42 -219.98 47.3 178.37 -86.72 41.61z"/>
     <polygon class="fil0" points="1575.8,1020.25 1575.8,1168.8 1661.96,1127.46 1661.96,978.91 "/>
     <polygon class="fil0" points="2103.12,765.95 2103.12,914.5 2189.29,873.16 2189.29,724.62 "/>
     <path class="fil0" d="M1408.09 713.96l-116.72 56 -104.96 585.66 90.33 -43.33 15.14 -84.51 131.61 -63.14 18.18 68.52 92.34 -44.3 -125.92 -474.89zm-95.79 399.93l0 0 39.42 -219.98 47.3 178.37 -86.72 41.61z"/>
    </g>
   </g>
  </g>
 </g>
</svg>
