<?xml version="1.0" encoding="UTF-8"?>
<!DOCTYPE svg PUBLIC "-//W3C//DTD SVG 1.1//EN" "http://www.w3.org/Graphics/SVG/1.1/DTD/svg11.dtd">
<!-- Creator: CorelDRAW 2020 (64 Bit) -->
<svg xmlns="http://www.w3.org/2000/svg" xml:space="preserve" width="89.8272mm" height="112.409mm" version="1.1" style="shape-rendering:geometricPrecision; text-rendering:geometricPrecision; image-rendering:optimizeQuality; fill-rule:evenodd; clip-rule:evenodd"
viewBox="0 0 824.75 1032.08"
 xmlns:xlink="http://www.w3.org/1999/xlink"
 xmlns:xodm="http://www.corel.com/coreldraw/odm/2003">
 <defs>
  <style type="text/css">
   <![CDATA[
    .fil2 {fill:#00AFEF}
    .fil1 {fill:#FEFEFE}
    .fil0 {fill:#FEFEFE;fill-rule:nonzero}
   ]]>
  </style>
 </defs>
 <g id="Camada_x0020_1">
  <metadata id="CorelCorpID_0Corel-Layer"/>
  <path class="fil0" d="M417.41 977.63c81.95,-42 209.78,-154.91 287.98,-338.31 52.57,-123.28 82.29,-278.23 60.09,-464.69 -190.93,55.86 -306.02,-50.44 -355.01,-107.46 -48.21,57.54 -160.86,165.48 -353.03,112.66 -19.46,187.01 12.68,341.78 67.18,464.41 81.1,182.48 210.71,293.4 292.8,333.4zm335.61 -318.04c-87.48,205.17 -235.48,329.22 -324.39,370.16 -6.46,2.9 -14.07,3.23 -21.08,0.2 -89.04,-38.66 -239.35,-160.53 -330.15,-364.86 -60.79,-136.79 -95.41,-310.81 -67.74,-521.76 0.2,-1.99 0.63,-4 1.32,-5.98 4.7,-13.48 19.46,-20.61 32.94,-15.91 204.08,71.34 311.19,-66.64 342.24,-106.65l2.61 -3.32c1.48,-2.2 3.31,-4.21 5.51,-5.94 11.24,-8.84 27.54,-6.89 36.38,4.35l2.37 3.11c29.52,37.68 139.74,178.3 344.52,103.12 1.82,-0.72 3.75,-1.24 5.77,-1.53 14.16,-2.07 27.33,7.73 29.39,21.89 30.99,210.76 -0.93,385.33 -59.67,523.1z"/>
  <path class="fil1" d="M417.77 1006.26c142.45,-65.61 444.23,-356.15 369.26,-865.99 -228.69,84.35 -348.65,-78.72 -376.76,-114.34 -28.12,35.61 -144.33,200.56 -374.89,119.96 -67.47,511.72 239.93,798.5 382.4,860.37z"/>
  <path class="fil0" d="M349.39 968.59c-8.89,-6.92 -11.99,-9.25 -15.18,-11.65 -13.11,-9.87 -26.64,-20.05 -38.62,-30.7 -6.21,-5.53 -9.13,-13.37 -8.63,-21.07l-3.74 -545.51c-0.05,-14.27 11.47,-25.89 25.74,-25.94l0.1 -0.1 52.49 0c14.33,0 25.94,11.61 25.94,25.94l-0.09 2.14 3.73 586.33c0.05,14.27 -11.47,25.89 -25.73,25.94 -6.01,0.02 -11.56,-2.01 -15.96,-5.44l-0.05 0.07zm-10.82 -73.73l0.55 0.45 -3.25 -509.82 -0.8 0 3.5 509.36z"/>
  <path class="fil1" d="M365.28 948.15c-16.87,-13.12 -35.61,-26.24 -52.49,-41.23l-3.75 -547.34 52.48 0 3.75 588.57z"/>
  <path class="fil0" d="M531.61 932.03c-7.66,5.62 -15.54,12.06 -23.13,18.28 -7.98,6.53 -15.64,12.79 -27.17,20.88 -11.69,8.17 -27.8,5.31 -35.97,-6.38 -3.11,-4.45 -4.62,-9.54 -4.65,-14.59l-5.63 -592.33c-0.11,-14.27 11.37,-25.93 25.63,-26.04l0.2 0 0 -0.1 50.61 0c14.33,0 25.94,11.61 25.94,25.94l-0.08 2.04 5.61 550.71c0.07,8.98 -4.45,16.92 -11.36,21.6z"/>
  <path class="fil1" d="M517.11 910.66c-20.63,15 -31.87,26.24 -50.61,39.37l-5.62 -592.32 50.61 0 5.63 552.96z"/>
  <path class="fil0" d="M671.17 766.42c-6.96,9.93 -15.35,21.45 -24.57,34.08 -6.19,8.5 -12.57,17.23 -24.04,33.29 -8.28,11.64 -24.44,14.36 -36.07,6.07 -7.37,-5.25 -11.16,-13.65 -10.85,-22.06l-3.74 -459.92c-0.11,-14.03 10.99,-25.54 24.93,-26.03l50.61 -1.89c14.27,-0.5 26.25,10.66 26.75,24.93l1.87 396.31c0.02,5.68 -1.8,10.93 -4.88,15.21z"/>
  <path class="fil1" d="M650.19 751.33c-13.12,18.74 -29.99,41.24 -48.74,67.48l-3.75 -461.11 50.62 -1.88 1.87 395.5z"/>
  <path class="fil0" d="M200.07 730.86l-2.85 -345.37 -0.77 0 3.42 345.04 0.2 0.32zm48.61 -371.51l3.72 451.34c0.71,7.44 -1.78,15.12 -7.47,20.82 -10.13,10.13 -26.56,10.13 -36.68,0 -0.97,-0.97 -2.44,-2.44 -5.07,-5.51 -2.05,-2.4 -4.18,-5.23 -5.99,-8.34l-16.03 -21.36c-10.02,-14.03 -19.43,-29.06 -28.81,-44.08 -2.52,-4.01 -4.03,-8.73 -4.07,-13.82l-3.73 -376.28 -0.12 -2.56c0,-14.33 11.61,-25.94 25.94,-25.94l52.49 0 0 0.1c14.17,0 25.73,11.43 25.84,25.63z"/>
  <path class="fil1" d="M226.57 813.2l-3.75 -453.61 -52.48 0 3.74 378.64c9.38,14.99 18.74,29.99 28.12,43.11l16.86 22.5c1.88,3.75 5.62,7.5 7.5,9.37z"/>
  <path class="fil0" d="M771.82 357.29l-719.46 5.61c-14.27,0.05 -25.89,-11.47 -25.94,-25.73l-0.1 -0.1 0.03 -10.55c-0.88,-25.19 -0.86,-49.95 0.07,-74.71 0.98,-25.85 2.89,-51.34 5.73,-76.91 1.56,-14.21 14.36,-24.46 28.57,-22.9 2.77,0.3 5.39,1.03 7.79,2.12l11.3 4.24 17.2 3.12c7.26,0.69 13.99,1.54 20.64,2.37 11.72,1.48 23.24,2.94 35.83,2.94l18.26 0c8.19,-0.82 16.09,-1.69 23.99,-2.75 7.95,-1.07 15.52,-2.32 22.72,-3.89 7.17,-1.85 14.03,-3.82 20.35,-5.84 8.02,-2.59 15.9,-5.36 23.16,-8.07 8.35,-3.36 16.4,-7.19 24.31,-11.46 7.91,-4.27 15.7,-9.03 23.51,-14.25l1.18 -0.74c14.56,-9.49 28.86,-20.41 42.46,-32.54 13.41,-11.94 25.83,-24.81 36.81,-38.31 9.01,-11.08 25.29,-12.76 36.38,-3.75 1.52,1.24 2.87,2.62 4.04,4.1 10.57,12.96 22.75,25.23 35.74,36.57 14.3,12.47 29.66,23.87 45.08,33.91l12.63 6.43c12.74,6.53 25,12.83 38.3,18.14l12.77 4.81c6.85,1.7 14.29,3.44 22.03,5.22l23.05 5.22c7.65,0.84 15.83,1.7 24.65,2.37 8.19,0.62 16.71,1.05 25.47,1.07l17.4 -1.73c12.25,-0.92 23.79,-2.62 35.09,-4.9 11.28,-2.32 23.46,-5.51 36.49,-9.23 13.76,-3.91 28.11,4.07 32.02,17.84 0.52,1.82 0.83,3.66 0.94,5.48 2.77,25.16 4.65,50.17 5.83,75.37 1.25,26.38 1.74,51.49 1.74,76.2l0 9.37c0,14.33 -11.61,25.94 -25.94,25.94l-2.1 -0.09zm-694.18 -46.27l670.28 -5.22c-0.15,-19.98 -0.62,-39.15 -1.48,-57.5 -0.67,-14.38 -1.6,-28.86 -2.84,-43.51l-10.54 2.26c-13.97,2.84 -27.72,4.89 -41.67,5.89l-15.92 1.56c-1.51,0.27 -3.06,0.42 -4.65,0.42 -9.8,0 -19.88,-0.51 -29.81,-1.27 -9.09,-0.7 -18.45,-1.69 -27.38,-2.68l-2.74 -0.51 -25.27 -5.62c-8.19,-1.87 -16.26,-3.78 -24.08,-5.72l-2.84 -0.91 -15.6 -5.83c-14.69,-5.88 -28.36,-12.89 -42.55,-20.17l-12.69 -6.46c-1.22,-0.54 -2.42,-1.19 -3.58,-1.94 -17.64,-11.41 -35.34,-24.52 -51.98,-39.02 -7.56,-6.59 -14.89,-13.47 -21.89,-20.62 -7.26,7.61 -14.81,14.9 -22.57,21.81 -15.23,13.59 -31.67,26.09 -48.77,37.21l-0.75 0.52c-9.04,6.02 -18.16,11.59 -27.57,16.68 -9.42,5.09 -19.21,9.72 -29.58,13.87l-0.61 0.2c-8.47,3.17 -17.36,6.31 -25.99,9.07l-0.1 0c-8.6,2.74 -16.66,5.12 -23.51,6.83l-0.7 0.1c-9.45,2.1 -18.55,3.63 -27.67,4.87 -8.14,1.09 -16.72,2.02 -25.74,2.93 -1.51,0.27 -3.06,0.42 -4.65,0.42l-18.74 0c-14.35,0 -28.21,-1.76 -42.33,-3.54 -6.67,-0.84 -13.42,-1.7 -19.98,-2.29l-2.23 -0.3 -8.28 -1.5c-1.19,14.39 -2.04,28.56 -2.57,42.58 -0.71,19.06 -0.86,38.13 -0.45,57.41z"/>
  <path class="fil1" d="M773.9 331.47l-721.65 5.62 0 -9.37c-1.88,-50.61 0,-99.34 5.62,-149.96l14.99 5.63 20.63 3.74c20.61,1.88 39.36,5.63 59.98,5.63l18.74 0c18.74,-1.88 35.61,-3.75 52.47,-7.5 15.01,-3.74 31.87,-9.37 46.87,-14.99 18.74,-7.5 35.61,-16.87 52.48,-28.12 31.86,-20.62 61.86,-46.86 86.23,-76.85 24.37,29.99 56.23,56.23 88.1,76.85 18.74,9.37 35.61,18.74 54.35,26.24l15 5.63c14.99,3.74 31.87,7.5 48.73,11.24 16.87,1.88 35.61,3.75 54.37,3.75l18.74 -1.88c26.23,-1.88 50.61,-7.5 76.85,-14.99 5.62,50.61 7.5,99.34 7.5,149.96l0 9.37z"/>
  <path class="fil0" d="M262.91 262.09c8.32,6.35 12.28,17.39 9.12,28.01 -0.36,1.2 -0.8,2.37 -1.31,3.47 -4.92,12.29 -10.11,24.5 -23,34.17l-1.12 0.8c-5.13,3.44 -11.92,6.81 -19.62,9.01 -6.29,1.8 -13.4,2.96 -21.02,2.96 -9.87,0 -18.63,-1.53 -27.07,-4.97l-2.1 -0.96c-7.62,-3.42 -14.4,-8.27 -20.94,-14.79l-2.01 -2.24c-5.14,-6.4 -9.75,-13.72 -13.24,-22.82 -3.48,-9.05 -5.58,-19.15 -5.58,-30.78 0,-10.44 1.49,-20.56 4.8,-30.07 3.34,-9.53 8.38,-18.07 15.43,-25.27 6.52,-7.56 14.49,-12.93 23.87,-16.44 8.8,-3.3 18.34,-4.77 28.7,-4.77 8.52,0 16.53,1.5 23.98,4.1 7.26,2.54 13.83,6.18 19.65,10.54 0.99,0.75 1.91,1.55 2.77,2.4l0.07 -0.07c7.5,7.5 10.52,13.87 14.15,21.56l1.96 3.98c5.64,11.33 2.21,24.8 -7.5,32.18zm16.52 46.97l-1.83 -95.31c-0.22,-14.27 11.17,-26.02 25.43,-26.24l0.4 0 0 -0.1 41.23 0c7.94,0 14.17,0.76 19.32,1.39 2.18,0.26 4.07,0.49 5.05,0.49 5.47,0 10.54,1.69 14.71,4.58 5.87,3.52 10.25,7.89 14.64,12.26l0.23 0.13c3.58,3.58 5.89,7.94 6.94,12.54 2.31,7.01 4.4,14.16 4.4,22.67 0,6.38 -0.95,12.41 -2.83,18.05l-0.64 1.69c-1.72,4.62 -4.02,8.72 -6.88,12.28l2.86 5.25 9.66 13.81 34 -88.42c3.93,-10.28 13.73,-16.6 24.12,-16.6l0 -0.12 22.49 0c11.59,0 21.39,7.59 24.72,18.07l38.65 95.72c5.31,13.26 -1.13,28.33 -14.38,33.64 -3.16,1.27 -6.42,1.86 -9.63,1.86l-22.49 0.07c-12.34,0 -22.66,-8.61 -25.29,-20.15l-0.78 -2.35 -2.22 0 -1.55 4.67c-3.58,10.85 -13.68,17.72 -24.52,17.72l0 0.12 -22.49 0c-7.91,0 -14.99,-3.54 -19.75,-9.12 -1.39,1.62 -3,3.08 -4.82,4.36 -4.51,3.15 -9.68,4.66 -14.8,4.65l0 0.11 -24.36 0c-9.16,0 -17.21,-4.75 -21.82,-11.91l-0.73 -1c-4.5,7.72 -12.86,12.91 -22.44,12.91l-18.74 0c-14.33,0 -25.94,-11.61 -25.94,-25.94l0.06 -1.77zm399.59 -50.73c7.78,5.92 11.76,15.97 9.67,25.93 -1.55,8.5 -4.53,15.78 -8.21,22.06 -3.81,6.47 -7.95,11.37 -11.92,15.35 -1.63,1.63 -3.43,3 -5.33,4.1 -5.94,4 -12.31,6.72 -18.83,8.45 -6.91,1.82 -13.79,2.55 -20.42,2.55 -9.92,0 -19.52,-1.64 -28.47,-5.32 -8.82,-3.63 -16.58,-9.11 -22.91,-16.72 -6.76,-7.08 -11.62,-14.99 -14.88,-24.01 -3.22,-8.95 -4.67,-18.38 -4.67,-28.63 0,-10.81 1.28,-20.67 3.83,-29.58 2.78,-9.74 7.18,-18.38 13.2,-25.9 1.31,-1.64 2.78,-3.08 4.37,-4.31 6.46,-5.13 13.58,-9.63 21.32,-12.86 8.67,-3.6 18.08,-5.77 28.2,-5.77 8.64,0 17.52,1.57 25.83,4.68 8.5,3.19 16.26,7.92 22.5,14.16l1.78 1.97c2.93,3.21 5.78,7.05 8.24,11.48 2.55,4.6 4.72,9.79 6.14,15.48 2.59,10.35 -1.46,20.81 -9.44,26.89z"/>
  <path class="fil1" d="M228.44 277.11l18.74 5.62c-3.76,9.37 -7.5,18.74 -14.99,24.36 -5.63,3.75 -15.01,7.5 -26.26,7.5 -13.12,0 -22.48,-3.75 -31.86,-13.12 -7.5,-9.37 -13.12,-20.62 -13.12,-37.49 0,-14.99 3.76,-28.12 13.12,-37.49 7.5,-9.37 18.74,-13.12 33.74,-13.12 11.24,0 20.62,3.75 28.11,9.37 5.63,5.63 7.5,11.25 11.26,18.74l-20.62 3.75c0,-3.75 -3.75,-7.5 -7.5,-11.25 -3.75,-1.88 -7.5,-3.74 -13.12,-3.74 -7.5,0 -13.12,1.87 -16.86,7.5 -5.62,5.62 -7.5,13.12 -7.5,26.24 0,11.25 1.88,20.62 7.5,26.24 3.74,3.75 9.37,7.5 16.86,7.5 5.63,0 9.38,-1.87 13.12,-5.62 3.75,-3.75 7.5,-9.37 9.38,-14.99zm76.85 33.74l-1.87 -97.48 41.23 0c11.25,0 18.74,1.88 24.37,1.88 3.75,1.88 7.5,5.63 11.25,9.37 1.87,5.63 3.75,11.25 3.75,16.87 0,7.5 -1.88,13.12 -5.62,16.88 -5.63,5.62 -11.25,9.37 -20.63,9.37 5.62,3.74 9.38,5.62 11.25,9.37 3.75,1.87 7.5,7.5 11.25,14.99l13.12 18.74 -24.37 0 -14.99 -20.62c-5.62,-7.5 -7.5,-13.12 -9.38,-14.99 -1.87,-1.88 -3.74,-1.88 -7.5,-3.75 -1.87,0 -3.74,0 -9.37,0l-3.75 0 0 39.37 -18.74 0zm18.74 -56.23l14.99 0c9.38,0 15,0 16.87,0 1.88,-1.88 3.76,-3.75 5.63,-5.62 1.87,-1.88 1.87,-3.75 1.87,-7.5 0,-1.87 0,-5.62 -1.87,-7.5 -1.87,-1.88 -5.63,-3.74 -7.5,-3.74 -1.87,0 -7.5,0 -15,0l-14.99 0 0 24.36zm208.07 56.23l-22.49 0 -7.51 -22.5 -39.36 0 -7.5 22.5 -22.5 0 37.49 -97.48 22.5 0 39.36 97.48zm-37.5 -39.37l-13.12 -35.61 -13.12 35.61 26.23 0zm149.96 1.88l18.74 5.62c-1.88,11.25 -7.5,18.74 -13.12,24.37 -7.5,5.62 -16.88,7.5 -26.24,7.5 -13.12,0 -24.36,-3.75 -31.86,-13.12 -9.38,-9.37 -13.13,-20.61 -13.13,-35.61 0,-16.87 3.75,-29.99 11.25,-39.37 9.38,-7.5 20.63,-13.12 33.74,-13.12 11.24,0 22.49,3.74 29.99,11.25 3.76,3.74 7.5,9.37 9.38,16.87l-18.74 5.62c-1.88,-5.62 -3.76,-9.37 -7.5,-13.12 -3.76,-1.88 -9.38,-3.75 -13.12,-3.75 -7.5,0 -13.12,3.75 -18.74,7.5 -3.75,5.63 -5.62,15 -5.62,26.24 0,11.25 1.87,20.62 5.62,26.25 5.63,5.62 11.24,7.5 18.74,7.5 3.74,0 9.37,-1.88 13.12,-5.63 3.74,-1.87 5.62,-7.5 7.5,-14.99z"/>
  <path class="fil0" d="M417.74 1003.16c84.74,-39.5 225.03,-158.13 308.88,-354.81 56.59,-132.7 87.43,-300.93 58.13,-504.32 -222.55,80.17 -342.16,-72.37 -374.31,-113.39l-0.17 -0.2 -1.45 1.86c-33.72,43.48 -149.71,192.83 -371.09,117.3 -26.28,203.97 7.17,371.96 65.82,503.92 87.02,195.81 229.39,312.33 314.18,349.63zm314.04 -352.61c-84.86,199.04 -227.37,318.88 -312.83,358.24 -0.7,0.31 -1.52,0.34 -2.28,0.02 -85.52,-37.13 -230.15,-154.84 -318.23,-353.03 -59.33,-133.51 -93.07,-303.61 -65.83,-510.21l0.14 -0.63c0.51,-1.46 2.11,-2.23 3.57,-1.72 219.71,76.8 334.73,-71.37 368.08,-114.34l4.15 -5.19c1.22,-0.95 2.99,-0.75 3.94,0.47l2.37 3.01c31.76,40.54 150.37,191.88 371.23,110.42l0.56 -0.14c1.53,-0.22 2.96,0.84 3.18,2.37 30.3,206.04 -0.78,376.43 -58.04,510.71z"/>
  <path class="fil2" d="M417.77 1006.26c142.45,-65.61 444.23,-356.15 369.26,-865.99 -228.69,84.35 -348.65,-78.72 -376.76,-114.34 -28.12,35.61 -144.33,200.56 -374.89,119.96 -67.47,511.72 239.93,798.5 382.4,860.37z"/>
  <path class="fil1" d="M365.28 948.15c-16.87,-13.12 -35.61,-26.24 -52.49,-41.23l-3.75 -547.34 52.48 0 3.75 588.57z"/>
  <path class="fil1" d="M517.11 910.66c-20.63,15 -31.87,26.24 -50.61,39.37l-5.62 -592.32 50.61 0 5.63 552.96z"/>
  <path class="fil1" d="M650.19 751.33c-13.12,18.74 -29.99,41.24 -48.74,67.48l-3.75 -461.11 50.62 -1.88 1.87 395.5z"/>
  <path class="fil1" d="M226.57 813.2l-3.75 -453.61 -52.48 0 3.74 378.64c9.38,14.99 18.74,29.99 28.12,43.11l16.86 22.5c1.88,3.75 5.62,7.5 7.5,9.37z"/>
  <path class="fil1" d="M773.9 331.47l-721.65 5.62 0 -9.37c-1.88,-50.61 0,-99.34 5.62,-149.96l14.99 5.63 20.63 3.74c20.61,1.88 39.36,5.63 59.98,5.63l18.74 0c18.74,-1.88 35.61,-3.75 52.47,-7.5 15.01,-3.74 31.87,-9.37 46.87,-14.99 18.74,-7.5 35.61,-16.87 52.48,-28.12 31.86,-20.62 61.86,-46.86 86.23,-76.85 24.37,29.99 56.23,56.23 88.1,76.85 18.74,9.37 35.61,18.74 54.35,26.24l15 5.63c14.99,3.74 31.87,7.5 48.73,11.24 16.87,1.88 35.61,3.75 54.37,3.75l18.74 -1.88c26.23,-1.88 50.61,-7.5 76.85,-14.99 5.62,50.61 7.5,99.34 7.5,149.96l0 9.37z"/>
  <path class="fil2" d="M228.44 277.11l18.74 5.62c-3.76,9.37 -7.5,18.74 -14.99,24.36 -5.63,3.75 -15.01,7.5 -26.26,7.5 -13.12,0 -22.48,-3.75 -31.86,-13.12 -7.5,-9.37 -13.12,-20.62 -13.12,-37.49 0,-14.99 3.76,-28.12 13.12,-37.49 7.5,-9.37 18.74,-13.12 33.74,-13.12 11.24,0 20.62,3.75 28.11,9.37 5.63,5.63 7.5,11.25 11.26,18.74l-20.62 3.75c0,-3.75 -3.75,-7.5 -7.5,-11.25 -3.75,-1.88 -7.5,-3.74 -13.12,-3.74 -7.5,0 -13.12,1.87 -16.86,7.5 -5.62,5.62 -7.5,13.12 -7.5,26.24 0,11.25 1.88,20.62 7.5,26.24 3.74,3.75 9.37,7.5 16.86,7.5 5.63,0 9.38,-1.87 13.12,-5.62 3.75,-3.75 7.5,-9.37 9.38,-14.99zm76.85 33.74l-1.87 -97.48 41.23 0c11.25,0 18.74,1.88 24.37,1.88 3.75,1.88 7.5,5.63 11.25,9.37 1.87,5.63 3.75,11.25 3.75,16.87 0,7.5 -1.88,13.12 -5.62,16.88 -5.63,5.62 -11.25,9.37 -20.63,9.37 5.62,3.74 9.38,5.62 11.25,9.37 3.75,1.87 7.5,7.5 11.25,14.99l13.12 18.74 -24.37 0 -14.99 -20.62c-5.62,-7.5 -7.5,-13.12 -9.38,-14.99 -1.87,-1.88 -3.74,-1.88 -7.5,-3.75 -1.87,0 -3.74,0 -9.37,0l-3.75 0 0 39.37 -18.74 0zm18.74 -56.23l14.99 0c9.38,0 15,0 16.87,0 1.88,-1.88 3.76,-3.75 5.63,-5.62 1.87,-1.88 1.87,-3.75 1.87,-7.5 0,-1.87 0,-5.62 -1.87,-7.5 -1.87,-1.88 -5.63,-3.74 -7.5,-3.74 -1.87,0 -7.5,0 -15,0l-14.99 0 0 24.36zm208.07 56.23l-22.49 0 -7.51 -22.5 -39.36 0 -7.5 22.5 -22.5 0 37.49 -97.48 22.5 0 39.36 97.48zm-37.5 -39.37l-13.12 -35.61 -13.12 35.61 26.23 0zm149.96 1.88l18.74 5.62c-1.88,11.25 -7.5,18.74 -13.12,24.37 -7.5,5.62 -16.88,7.5 -26.24,7.5 -13.12,0 -24.36,-3.75 -31.86,-13.12 -9.38,-9.37 -13.13,-20.61 -13.13,-35.61 0,-16.87 3.75,-29.99 11.25,-39.37 9.38,-7.5 20.63,-13.12 33.74,-13.12 11.24,0 22.49,3.74 29.99,11.25 3.76,3.74 7.5,9.37 9.38,16.87l-18.74 5.62c-1.88,-5.62 -3.76,-9.37 -7.5,-13.12 -3.76,-1.88 -9.38,-3.75 -13.12,-3.75 -7.5,0 -13.12,3.75 -18.74,7.5 -3.75,5.63 -5.62,15 -5.62,26.24 0,11.25 1.87,20.62 5.62,26.25 5.63,5.62 11.24,7.5 18.74,7.5 3.74,0 9.37,-1.88 13.12,-5.63 3.74,-1.87 5.62,-7.5 7.5,-14.99z"/>
 </g>
</svg>
