<?xml version="1.0" encoding="UTF-8"?>
<!DOCTYPE svg PUBLIC "-//W3C//DTD SVG 1.1//EN" "http://www.w3.org/Graphics/SVG/1.1/DTD/svg11.dtd">
<!-- Creator: CorelDRAW 2020 (64 Bit) -->
<svg xmlns="http://www.w3.org/2000/svg" xml:space="preserve" width="149.489mm" height="149.489mm" version="1.1" style="shape-rendering:geometricPrecision; text-rendering:geometricPrecision; image-rendering:optimizeQuality; fill-rule:evenodd; clip-rule:evenodd"
viewBox="0 0 459.9 459.9"
 xmlns:xlink="http://www.w3.org/1999/xlink"
 xmlns:xodm="http://www.corel.com/coreldraw/odm/2003">
 <defs>
  <style type="text/css">
   <![CDATA[
    .fil0 {fill:none}
    .fil1 {fill:#1F150A}
    .fil2 {fill:#F4CF16;fill-rule:nonzero}
   ]]>
  </style>
 </defs>
 <g id="Camada_x0020_1">
  <metadata id="CorelCorpID_0Corel-Layer"/>
  <rect class="fil0" x="-0" y="0" width="459.9" height="459.9"/>
  <g id="_2346838360144">
   <polygon class="fil1" points="225.07,156.2 225.07,310.94 78.47,164.26 155.8,86.85 "/>
   <polygon class="fil2" points="218.07,293.77 88.48,164.26 155.8,96.86 218.07,159.13 "/>
   <polygon class="fil1" points="71.87,172.81 75.46,176.47 217.82,318.76 74.07,318.76 -0,244.68 "/>
   <polygon class="fil2" points="200.81,311.67 77.08,311.67 10.01,244.6 71.87,182.82 "/>
   <polygon class="fil1" points="234.75,156.2 234.75,310.94 381.43,164.26 304.02,86.85 "/>
   <polygon class="fil2" points="241.83,293.77 241.83,159.13 304.02,96.86 371.42,164.26 "/>
   <polygon class="fil1" points="241.92,318.76 385.83,318.76 459.9,244.68 391.61,176.47 388.03,172.81 384.36,176.47 "/>
   <polygon class="fil2" points="382.82,311.67 259.09,311.67 388.03,182.82 449.89,244.6 "/>
   <g>
    <g>
     <path class="fil1" d="M63.49 341.39l5.05 0c2.12,0 3.58,0.33 4.4,1.06 0.73,0.65 1.14,1.55 1.14,2.85 0,0.9 -0.33,1.55 -0.73,2.2 -0.49,0.65 -1.14,1.06 -1.95,1.22 -1.47,0.33 -2.6,0.49 -3.09,0.49l-4.88 -0 0 -7.81 0.08 0zm0 30.93l0 -15.71 0.98 0c1.06,0 2.04,0.33 2.85,0.9 0.57,0.49 1.3,1.47 2.04,3.01l6.19 11.88 13.19 0 -5.62 -11.23c-0.33,-0.57 -0.81,-1.38 -1.63,-2.44 -0.81,-1.06 -1.47,-1.71 -1.87,-2.04 -0.65,-0.49 -1.63,-0.98 -3.01,-1.47 1.71,-0.41 3.09,-0.9 4.07,-1.55 1.55,-0.9 2.77,-2.2 3.66,-3.83 0.9,-1.55 1.38,-3.34 1.38,-5.54 0,-2.44 -0.57,-4.48 -1.71,-6.19 -1.22,-1.71 -2.69,-2.93 -4.64,-3.5 -1.87,-0.65 -4.64,-0.98 -8.22,-0.98l-19.37 0 0 38.75 11.72 0 0 -0.08zm31.26 0l11.64 0 0 -38.75 -11.64 0 0 38.75zm44.28 -10.17c-1.14,1.3 -2.85,1.95 -5.05,1.95 -2.28,0 -4.07,-0.9 -5.37,-2.44 -1.22,-1.55 -1.87,-4.48 -1.87,-8.79 0,-3.5 0.49,-6.02 1.55,-7.65 1.47,-2.2 3.42,-3.26 6.1,-3.26 1.14,0 2.2,0.33 3.17,0.73 0.9,0.49 1.71,1.22 2.36,2.12 0.41,0.57 0.81,1.47 1.14,2.6l10.26 -2.36c-1.38,-4.07 -3.34,-7.08 -6.1,-9.12 -2.69,-1.95 -6.43,-2.93 -11.15,-2.93 -6.1,0 -10.74,1.71 -14.08,5.13 -3.26,3.42 -4.97,8.38 -4.97,14.81 0,4.8 0.9,8.71 2.77,11.8 1.95,3.09 4.15,5.21 6.76,6.43 2.6,1.3 5.94,1.87 10.01,1.87 3.34,0 6.19,-0.49 8.38,-1.47 2.12,-0.98 3.99,-2.52 5.53,-4.4 1.47,-2.04 2.52,-4.4 3.26,-7.33l-10.26 -3.26c-0.49,2.36 -1.3,4.23 -2.44,5.54l0 0zm20.51 10.17l11.64 0 0 -38.75 -11.64 0 0 38.75zm46.23 -15.06c0,2.12 -0.57,3.83 -1.71,4.97 -1.14,1.22 -2.69,1.79 -4.72,1.79 -2.04,0 -3.58,-0.65 -4.72,-1.79 -1.14,-1.22 -1.71,-2.85 -1.71,-4.97l0 -23.69 -11.56 0 0 23.12c0,1.95 0.33,4.07 1.06,6.51 0.41,1.55 1.3,3.09 2.52,4.48 1.22,1.47 2.52,2.6 3.99,3.34 1.47,0.81 3.26,1.3 5.45,1.55 2.12,0.24 4.15,0.33 5.94,0.33 3.26,0 5.94,-0.41 8.14,-1.3 1.63,-0.65 3.26,-1.71 4.64,-3.26 1.47,-1.47 2.6,-3.26 3.26,-5.29 0.73,-2.04 0.98,-4.23 0.98,-6.51l0 -23.12 -11.48 0 0 23.85 -0.08 0zm20.84 15.06l9.52 0 0 -29.55 7.33 29.55 8.55 0 7.33 -29.55 0 29.55 9.52 0 0 -38.75 -15.3 0 -5.86 23.61 -5.86 -23.61 -15.3 0 0 38.75 0.08 0zm63.98 -14.81l4.07 -13.92 4.23 13.92 -8.3 0zm12.45 14.81l12.21 0 -14.08 -38.75 -12.7 0 -14.16 38.75 11.88 0 1.79 -6.43 13.27 -0 1.79 6.43zm36.95 0l31.75 0 0 -8.79 -20.11 0 0 -7.65 18.07 0 0 -7.9 -18.07 0 0 -6.19 19.54 0 0 -8.3 -31.18 0 0 38.83zm39.32 0l10.74 0 0 -10.83 -10.74 0 0 10.83zm42.25 -10.17c-1.14,1.3 -2.77,1.95 -4.97,1.95 -2.28,0 -4.07,-0.9 -5.37,-2.44 -1.3,-1.55 -1.95,-4.48 -1.95,-8.79 0,-3.5 0.57,-6.02 1.63,-7.65 1.38,-2.2 3.42,-3.26 6.02,-3.26 1.22,0 2.2,0.33 3.26,0.73 0.9,0.49 1.71,1.22 2.36,2.12 0.33,0.57 0.81,1.47 1.14,2.6l10.26 -2.36c-1.3,-4.07 -3.26,-7.08 -6.02,-9.12 -2.69,-1.95 -6.43,-2.93 -11.23,-2.93 -6.02,0 -10.74,1.71 -14,5.13 -3.26,3.42 -4.97,8.38 -4.97,14.81 0,4.8 0.98,8.71 2.85,11.8 1.87,3.09 4.15,5.21 6.76,6.43 2.6,1.3 5.94,1.87 10.01,1.87 3.34,0 6.19,-0.49 8.3,-1.47 2.2,-0.98 3.99,-2.52 5.53,-4.4 1.47,-2.04 2.6,-4.4 3.26,-7.33l-10.17 -3.26c-0.73,2.36 -1.55,4.23 -2.69,5.54l0 0zm20.27 10.17l10.74 0 0 -10.83 -10.74 0 0 10.83zm-246.56 -40.86l4.15 0 8.87 -7.98 -9.12 0 -3.91 7.98zm-163.77 30.69c-1.06,1.3 -2.77,1.95 -4.97,1.95 -2.28,0 -4.07,-0.9 -5.37,-2.44 -1.22,-1.55 -1.87,-4.48 -1.87,-8.79 0,-3.5 0.49,-6.02 1.55,-7.65 1.47,-2.2 3.42,-3.26 6.1,-3.26 1.14,0 2.2,0.33 3.17,0.73 0.9,0.49 1.71,1.22 2.36,2.12 0.41,0.57 0.81,1.47 1.14,2.6l10.26 -2.36c-1.38,-4.07 -3.34,-7.08 -6.1,-9.12 -2.69,-1.95 -6.43,-2.93 -11.15,-2.93 -6.1,0 -10.74,1.71 -14.08,5.13 -3.26,3.42 -4.97,8.38 -4.97,14.81 0,4.8 0.9,8.71 2.77,11.8 1.95,3.09 4.15,5.21 6.76,6.43 2.6,1.3 5.94,1.87 10.01,1.87 3.34,0 6.19,-0.49 8.38,-1.47 2.12,-0.98 3.99,-2.52 5.45,-4.4 1.47,-2.04 2.6,-4.4 3.26,-7.33l-10.26 -3.26c-0.41,2.36 -1.3,4.23 -2.44,5.54z"/>
    </g>
   </g>
  </g>
 </g>
</svg>
