<?xml version="1.0" encoding="utf-8"?>
<!-- Generator: Adobe Illustrator 23.0.2, SVG Export Plug-In . SVG Version: 6.00 Build 0)  -->
<svg version="1.1" id="Layer_1" xmlns="http://www.w3.org/2000/svg" xmlns:xlink="http://www.w3.org/1999/xlink" x="0px" y="0px"
	 viewBox="0 0 600 600" style="enable-background:new 0 0 600 600;" xml:space="preserve">
<style type="text/css">
	.st0{fill-rule:evenodd;clip-rule:evenodd;fill:#0095D7;}
	.st1{fill-rule:evenodd;clip-rule:evenodd;fill:#FFFFFF;}
	.st2{fill:#0095D7;}
</style>
<g>
	<path class="st0" d="M299.4,81.7c-68.6-3.4-124.7-26.8-171.9-67.3L57.2,80.1c61.7,124.1,17,129.9,4.3,245.8
		c-0.5,127.4,159.3,136,237.9,260.4v0c0,0,0,0,0,0c0,0,0,0,0,0v0c78.6-124.4,238.4-133,237.9-260.4
		c-12.8-115.9-57.4-121.7,4.3-245.8l-70.2-65.7C424,54.9,368,78.4,299.4,81.7L299.4,81.7L299.4,81.7z"/>
	<path class="st1" d="M442.3,448.9l17.8-12.5c8.2-6.2,16.1-12.4,23.8-19.2l7-6.7l6.5-6.8l5.9-7.1l5.3-7.3l4.7-7.6l4.1-8l3.4-8.4
		l2.7-8.9l2-9.5l1.2-10.1l0.4-10.4c-1.2-9.6-2.5-19-4.1-28.5c-2.1-10.8-4.4-21.4-7-32.1c-4.5-17.3-9.7-34.4-13.4-51.9l-2-12.5
		c-0.7-6.6-1-13-1-19.7l1-14.1l2.6-15.1l4.3-16.4l6.2-18c4.8-12.1,9.9-23.9,15.5-35.5l-58.2-54.5c-11.6,9.4-23.7,17.6-36.5,25.3
		c-8.6,4.9-17.3,9.4-26.3,13.5c-9.2,4-18.4,7.5-27.9,10.8c-9.8,3.1-19.5,5.7-29.5,7.9c-10.4,2.1-20.7,3.7-31.2,4.9
		c-6.7,0.6-13.3,1.2-20,1.5c-8.9-0.5-17.6-1.3-26.4-2.3c-10.4-1.4-20.6-3.2-30.9-5.5c-9.9-2.4-19.5-5.2-29.2-8.5
		c-9.4-3.4-18.5-7.1-27.6-11.3L174.7,59c-16.6-9-32.2-19.2-46.9-31L69.6,82.4c5.7,11.7,10.7,23.5,15.5,35.5l6.2,18l4.3,16.4
		l2.6,15.1l1,14.1l-0.4,13.3c-0.6,6.4-1.5,12.6-2.6,19c-3.7,17.5-8.8,34.6-13.4,51.9c-2.6,10.7-5,21.3-7,32.1
		c-1.6,9.5-3,19-4.1,28.5l0.4,10.4l1.2,10.1l2,9.5l2.7,8.9l3.4,8.4l4.1,8l4.7,7.6l5.3,7.3l5.9,7.1l6.5,6.8l7,6.7l15.5,12.9
		l17.1,12.5c22.4,15.4,45.4,30,67.7,45.6l20.1,14.9l9.9,8l9.8,8.4l9.6,8.8l9.4,9.3l9.1,9.9l8.7,10.5l7.7,10.2l7.7-10.2l8.7-10.5
		l9.1-9.9l9.4-9.3l9.6-8.8l9.8-8.4l19.9-15.6c9.9-7.2,20-14.2,30.1-21C416.5,465.9,429.5,457.5,442.3,448.9L442.3,448.9z"/>
	<path class="st2" d="M106.7,321.8l367.7-89.7l0,0l3.8-0.9c0.6,2.8,1.3,5.5,2,8.3c4.3,15.8,8.7,31.5,12.4,47.5
		c2.9,13.5,5.1,26.9,6.8,40.6l-0.3,7.1l-0.9,7.8l-1.5,7.1l-2,6.6l-2.5,6.2l-3,5.9l-3.6,5.8l-8.9,11.4l-11.4,11.4
		c-7,6.1-14.2,11.8-21.6,17.4c-21.5,15.4-43.8,29.5-65.7,44.3c-10.7,7.4-21.1,15-31.5,22.9l-21.1,17.5l-10.4,9.6l-15.8,16.2
		l-15.8-16.2l-10.4-9.6c-10.3-8.9-20.8-17.3-31.6-25.5l-20.9-14.9c-21.9-14.8-44.2-29-65.7-44.3c-7.4-5.6-14.6-11.3-21.6-17.4
		l-11.4-11.4L113,374l-3.6-5.8l-3-5.9L104,356l-2-6.6l-1.5-7.1l-0.9-7.8l-0.3-7.1c0.2-1.4,0.4-2.9,0.5-4.3l6.9-1.7L106.7,321.8
		L106.7,321.8z M435.2,248.9l-54.3,13.2v186.4c18.1-12.1,36.5-23.9,54.3-36.5V248.9L435.2,248.9z M326.9,275.4l-54.3,13.2v201.2
		l5,4.1c7.4,6.8,15,13.6,21.7,21c8.5-9.3,18-17.7,27.5-25.9V275.4L326.9,275.4z M218.4,301.8L164.5,315v97.9
		c0.8,0.6,1.7,1.2,2.5,1.8c17,11.7,34.3,22.9,51.4,34.3V301.8L218.4,301.8z M435.2,154.1V91.6c-8.4,4.2-16.8,8-25.5,11.5
		c-9.5,3.7-19.1,6.9-28.8,9.8v54.7L435.2,154.1L435.2,154.1z M326.9,181.3v-57.5c-6,0.7-12.1,1.3-18.1,1.8l-9.4,0.5
		c-7.9-0.5-15.8-1-23.7-1.8c-1-0.1-2-0.2-3-0.4v70.9L326.9,181.3L326.9,181.3z M218.4,208.5v-95.4c-5.6-1.6-11.2-3.4-16.8-5.2
		c-10.6-3.8-20.8-8-31-12.7c-2.1-1-4.1-2-6.1-3.1V222L218.4,208.5L218.4,208.5z M125.4,239.1l0,0.2l-7.3,1.8c1.3-5,2.6-10,3.8-15
		l2.7-14.1c1.1-7.7,1.8-15.1,2.2-22.9l-0.3-16.4l-2.1-17.2l-3.9-18.1l-5.8-19.2c-3.6-9.9-7.4-19.6-11.6-29.3l26.8-25.1
		c8.6,5.9,17.3,11.3,26.3,16.4c5.7,3.1,11.5,6.1,17.4,8.9c10,4.6,20,8.7,30.3,12.4c10.6,3.6,21.1,6.6,32,9.3
		c13.5,3,26.8,5.2,40.6,6.8c7.7,0.7,15.3,1.3,23,1.7l9-0.5c11.6-0.9,23.1-2.2,34.6-4.1c11.2-2,22-4.4,33-7.3
		c10.7-3.1,21-6.6,31.3-10.6c10.1-4.2,19.9-8.7,29.6-13.7c11.1-6,21.6-12.4,32-19.5l26.8,25.1c-4.2,9.7-8,19.4-11.6,29.3l-5.8,19.2
		l-3,13.8l-2.2,0.6l0,0L125.4,239.1L125.4,239.1z"/>
	<path class="st0" d="M117.2,300.6l-9.3-36.9l27.4-6.9l1.6,6.2l-19.9,5l2.1,8.2l18.5-4.6l1.6,6.2l-18.5,4.6l2.5,10l20.6-5.2l1.6,6.2
		L117.2,300.6L117.2,300.6z M154,278.6l7.1-2.5c1,2.3,2.4,3.9,4,4.7c1.6,0.8,3.6,0.9,5.8,0.4c2.4-0.6,4.1-1.6,5-2.9
		c1-1.3,1.3-2.7,0.9-4c-0.2-0.9-0.7-1.6-1.3-2c-0.7-0.5-1.7-0.8-3.1-0.9c-0.9-0.1-3.1-0.1-6.4-0.1c-4.2,0-7.4-0.5-9.3-1.5
		c-2.8-1.5-4.5-3.7-5.3-6.6c-0.5-1.9-0.4-3.8,0.3-5.7c0.7-1.9,1.9-3.5,3.7-4.9c1.8-1.4,4.1-2.4,6.9-3.1c4.6-1.2,8.4-1,11.2,0.4
		c2.8,1.4,4.8,3.9,5.7,7.2l-7.4,2.2c-0.8-1.8-1.8-3-3.1-3.6c-1.3-0.6-2.9-0.6-5-0.1c-2.2,0.5-3.8,1.4-4.7,2.6
		c-0.6,0.8-0.8,1.6-0.6,2.6c0.2,0.9,0.8,1.5,1.7,2c1.1,0.6,3.6,0.8,7.5,0.7c3.8-0.1,6.7,0.2,8.7,0.6c2,0.5,3.6,1.4,5,2.7
		c1.4,1.3,2.4,3.2,2.9,5.5c0.5,2.1,0.4,4.2-0.3,6.4c-0.7,2.1-2,3.9-4,5.4c-1.9,1.4-4.5,2.6-7.7,3.4c-4.7,1.2-8.5,1-11.6-0.5
		C157.8,285.3,155.5,282.6,154,278.6L154,278.6L154,278.6z M200.6,279.6l-9.3-36.9l12-3c4.5-1.1,7.5-1.7,9-1.7
		c2.2,0,4.3,0.8,6.2,2.3c1.9,1.5,3.2,3.7,3.9,6.6c0.6,2.3,0.6,4.3,0.2,6c-0.4,1.7-1.2,3.2-2.2,4.4c-1,1.2-2.2,2.1-3.4,2.7
		c-1.7,0.8-4.2,1.6-7.6,2.5l-4.9,1.2l3.5,13.9L200.6,279.6L200.6,279.6z M200.4,247.1l2.6,10.5l4.1-1c2.9-0.7,4.8-1.4,5.7-2.1
		c0.9-0.6,1.5-1.4,1.9-2.4c0.4-1,0.4-2,0.1-3.1c-0.3-1.3-1-2.4-2-3c-1-0.7-2.2-1-3.4-0.9c-0.9,0.1-2.7,0.4-5.4,1.1L200.4,247.1
		L200.4,247.1z M236.2,251.3c-0.9-3.8-1.2-7.1-0.7-9.9c0.4-2.1,1.1-4.1,2.2-5.9c1.1-1.9,2.4-3.4,3.9-4.5c2.1-1.5,4.6-2.7,7.6-3.5
		c5.4-1.4,10.2-0.8,14.3,1.8c4.1,2.6,6.9,6.8,8.4,12.8c1.5,6,1,11-1.4,15.2c-2.4,4.2-6.3,6.9-11.7,8.3c-5.5,1.4-10.3,0.8-14.3-1.7
		C240.5,261.4,237.7,257.2,236.2,251.3L236.2,251.3z M243.8,249.2c1,4.2,2.8,7.1,5.3,8.8c2.5,1.7,5.2,2.1,8.2,1.4
		c3-0.7,5.1-2.4,6.5-5c1.4-2.6,1.5-6.1,0.4-10.3c-1.1-4.2-2.8-7.2-5.2-8.8c-2.4-1.6-5.1-2-8.2-1.3c-3.1,0.8-5.3,2.4-6.6,5
		C242.9,241.5,242.7,244.9,243.8,249.2L243.8,249.2L243.8,249.2z M289.7,257.3l-9.3-36.9l15.7-3.9c3.9-1,6.9-1.4,8.8-1.2
		c1.9,0.2,3.7,1,5.2,2.5c1.5,1.4,2.5,3.2,3.1,5.4c0.7,2.8,0.5,5.3-0.7,7.5c-1.2,2.2-3.3,4-6.4,5.2c1.8,0.5,3.4,1.2,4.8,2.1
		c1.3,0.9,3.2,2.5,5.7,4.9l6.3,6.1l-8.9,2.2l-7.4-6.7c-2.6-2.4-4.4-3.9-5.3-4.4c-0.9-0.6-1.8-0.9-2.6-1c-0.9-0.1-2.1,0.1-3.9,0.5
		l-1.5,0.4l3.9,15.4L289.7,257.3L289.7,257.3z M291.8,234.1l5.5-1.4c3.6-0.9,5.8-1.6,6.6-2.1c0.8-0.5,1.4-1.2,1.7-2.1
		c0.3-0.9,0.3-1.9,0.1-3c-0.3-1.2-0.9-2.2-1.7-2.8c-0.9-0.6-1.9-0.8-3.2-0.7c-0.6,0.1-2.5,0.5-5.5,1.2l-5.8,1.5L291.8,234.1
		L291.8,234.1z M342.5,244l-7.7-30.7l-11,2.7l-1.6-6.2l29.3-7.4l1.6,6.2l-10.9,2.7l7.7,30.7L342.5,244L342.5,244z M372.8,236.5
		l-9.3-36.9l7.4-1.9l9.3,36.9L372.8,236.5L372.8,236.5z M404.1,228.6L381.6,195l8.1-2l16.2,25l2.2-29.6l7.9-2l-4,40.2L404.1,228.6
		L404.1,228.6z M430.3,202.7c-0.9-3.8-1.2-7.1-0.7-9.9c0.4-2.1,1.1-4.1,2.2-5.9c1.1-1.9,2.4-3.4,3.9-4.5c2.1-1.5,4.6-2.7,7.6-3.5
		c5.4-1.4,10.2-0.8,14.3,1.8c4.1,2.6,6.9,6.8,8.4,12.8c1.5,6,1,11-1.4,15.2c-2.4,4.2-6.3,6.9-11.7,8.3c-5.5,1.4-10.3,0.8-14.3-1.7
		C434.5,212.8,431.7,208.6,430.3,202.7L430.3,202.7z M437.9,200.5c1,4.2,2.8,7.1,5.3,8.8c2.5,1.7,5.2,2.1,8.2,1.4
		c3-0.7,5.1-2.4,6.5-5c1.4-2.6,1.5-6.1,0.4-10.3c-1.1-4.2-2.8-7.2-5.2-8.8c-2.4-1.6-5.1-2-8.2-1.3c-3.1,0.8-5.3,2.4-6.6,5
		C437,192.8,436.8,196.3,437.9,200.5L437.9,200.5L437.9,200.5z"/>
	<path class="st0" d="M418.4,361.4c-0.8,1.3-2.1,2.4-3.9,3.1c-1.8,0.8-3.8,1.2-6,1.2c-2.8,0-5.3-0.6-7.4-1.8
		c-1.1-0.6-2.2-1.4-3.2-2.4c-1-1-1.8-2.1-2.6-3.4c-0.7-1.3-1.3-2.8-1.7-4.6c-0.4-1.8-0.6-3.7-0.6-5.9c0-4,0.8-7.5,2.4-10.3
		c1.6-2.8,3.7-4.9,6.2-6.2c2.6-1.4,5.3-2,8.1-2c2.5,0,5,0.5,7.2,1.5c2.3,1,4.2,2.5,5.6,4.4c1.5,1.9,2.3,4.1,2.5,6.7l-10.5,0.9
		c-0.2-1.7-0.7-3-1.6-4c-0.9-1-2-1.5-3.2-1.5c-1.5,0-2.7,0.6-3.5,1.7c-0.8,1.1-1.3,2.4-1.5,3.9c-0.2,1.5-0.4,3.1-0.4,4.9
		c0,3.4,0.6,5.9,1.7,7.5c1.1,1.6,2.5,2.4,4.2,2.5c1.3,0,2.4-0.5,3.3-1.4c0.9-0.9,1.3-2,1.3-3.3h-5.5v-7.5H425v19.9h-5.3L418.4,361.4
		L418.4,361.4z"/>
	<path class="st0" d="M307.5,384.6c2.3,0.2,4.2,1.2,5.5,2.9c1.3,1.7,2,3.7,2,6c0,1.6-0.4,3.2-1.2,4.7c-0.8,1.5-1.9,2.7-3.5,3.6
		c-1.5,0.9-3.4,1.4-5.5,1.4h-19.5v-35.5h18.2c2.2,0,4.1,0.4,5.7,1.3c1.6,0.9,2.7,2,3.5,3.4c0.8,1.4,1.2,2.9,1.2,4.5
		c0,1.9-0.6,3.6-1.7,5.1C311,383.4,309.5,384.3,307.5,384.6L307.5,384.6L307.5,384.6z M295.1,388.8l0,6.3h5.3c1.2,0,2.2-0.3,2.9-0.9
		c0.7-0.6,1-1.4,1-2.2c0-0.9-0.3-1.6-1-2.3c-0.7-0.6-1.6-0.9-2.8-0.9H295.1L295.1,388.8z M295.1,381.2h5.7c0.8,0,1.4-0.3,1.9-0.8
		c0.5-0.6,0.7-1.2,0.7-2c0-0.9-0.3-1.6-0.8-2.2c-0.6-0.6-1.4-0.9-2.6-0.9h-4.8L295.1,381.2L295.1,381.2z"/>
	<path class="st0" d="M195.9,160.4l9.9,0.7c-0.1,2.7-0.9,5.2-2.3,7.2c-1.4,2.1-3.3,3.6-5.5,4.7c-2.3,1.1-4.7,1.6-7.2,1.6
		c-2.7,0-5.2-0.6-7.6-1.9c-2.4-1.3-4.4-3.2-5.9-5.9c-1.5-2.6-2.3-5.8-2.4-9.6c0-3.2,0.4-6,1.2-8.4c0.8-2.4,1.9-4.4,3.4-6
		c1.4-1.6,3-2.7,4.8-3.5c1.8-0.8,3.7-1.2,5.6-1.2c3.1,0,5.9,0.6,8.3,1.7c2.4,1.1,4.3,2.7,5.6,4.9c1.3,2.1,2,4.7,2.1,7.7l-10.1,0.4
		c0-1.4-0.2-2.5-0.6-3.5c-0.4-1-1-1.8-1.7-2.3c-0.7-0.5-1.5-0.8-2.3-0.8c-0.9,0-1.7,0.4-2.5,1.1c-0.8,0.8-1.5,1.9-2,3.5
		c-0.5,1.6-0.8,3.5-0.8,5.8c0,3.4,0.6,5.9,1.5,7.5c1,1.6,2.2,2.4,3.6,2.5c0.8,0,1.6-0.3,2.4-0.8c0.7-0.5,1.3-1.3,1.8-2.2
		C195.6,162.5,195.8,161.5,195.9,160.4L195.9,160.4L195.9,160.4z"/>
</g>
</svg>
