<?xml version="1.0" encoding="UTF-8"?>
<!DOCTYPE svg PUBLIC "-//W3C//DTD SVG 1.1//EN" "http://www.w3.org/Graphics/SVG/1.1/DTD/svg11.dtd">
<!-- Creator: CorelDRAW 2020 (64 Bit) -->
<svg xmlns="http://www.w3.org/2000/svg" xml:space="preserve" width="190.178mm" height="221.104mm" version="1.1" style="shape-rendering:geometricPrecision; text-rendering:geometricPrecision; image-rendering:optimizeQuality; fill-rule:evenodd; clip-rule:evenodd"
viewBox="0 0 4036.61 4693.03"
 xmlns:xlink="http://www.w3.org/1999/xlink"
 xmlns:xodm="http://www.corel.com/coreldraw/odm/2003">
 <defs>
  <style type="text/css">
   <![CDATA[
    .fil1 {fill:#FEFEFE;fill-rule:nonzero}
    .fil3 {fill:#FFE124;fill-rule:nonzero}
    .fil2 {fill:#EE4037;fill-rule:nonzero}
    .fil0 {fill:#405DA8;fill-rule:nonzero}
   ]]>
  </style>
 </defs>
 <g id="Camada_x0020_1">
  <metadata id="CorelCorpID_0Corel-Layer"/>
  <g id="_2346858191424">
   <path class="fil0" d="M2016.83 0.66c-55.55,2.92 -386.68,-47.36 -1016.67,510.39 -478.92,423.99 -865.81,445.5 -938.5,445.5l-61.66 0 33.5 51.86c2.54,3.93 254.06,402.21 254.54,1184.58 0.56,1028.66 204.95,1376.7 534.4,1604.95 95.85,66.24 196.38,120.29 302.86,177.37 257.38,138.12 549.14,294.63 866.99,685.56l26.02 32.15 26.06 -32.15c320.17,-393.68 613.63,-554.13 872.59,-695.54 104.41,-57.06 203.2,-110.98 297.26,-176.17 329.53,-228.15 533.79,-576.3 534.45,-1604.96 0.39,-782.34 252,-1180.61 254.5,-1184.55l33.45 -51.82 -61.65 -0.04c-72.68,0 -459.41,-21.47 -938.5,-445.5 -631.39,-559.01 -970.28,-498.72 -1019.64,-501.65z"/>
   <path class="fil1" d="M2027.15 67.21c-16.24,6.76 330.18,-76.48 964.84,485.43 425.17,376.32 783.96,446.58 927.6,459.18 -66.64,125.24 -237.7,509.35 -238.1,1172.36 -0.65,1003.77 -185.76,1328.31 -505.45,1549.76 -91.3,63.1 -188.38,116.22 -291.23,172.37 -257.39,140.63 -548.35,301.34 -866.51,682.16 -316.06,-378.08 -605.41,-534.97 -861.27,-672.31 -104.73,-56.14 -203.68,-109.27 -296.34,-173.43 -319.69,-221.43 -504.93,-545.99 -505.5,-1549.76 -0.39,-663.05 -171.41,-1047.15 -238.19,-1172.43 143.69,-12.6 502.57,-82.86 927.64,-459.19 634.98,-562.12 967.09,-487.72 982.49,-494.13z"/>
   <path class="fil2" d="M3534.84 1796.92c30.96,-285.68 91.3,-506.9 147.84,-660.48 -203.6,-56.58 -489.45,-181.55 -801.93,-458.09 -349.35,-309.2 -585.73,-401.74 -710.63,-428.71l0 1547.27 1364.71 0z"/>
   <path class="fil2" d="M1864 253.8c-127.38,30.57 -363.29,128.08 -708,433.26 -312.48,276.58 -598.47,401.55 -801.97,458.13 55.84,151.92 115.53,370.38 146.84,651.73l1363.13 0 0 -1543.12z"/>
   <path class="fil0" d="M2535.5 2103.01c138.25,-103.9 652.31,-489.93 652.31,-489.93 0,0 -870,0 -873.15,0 -0.79,-2.36 -293.41,-837.08 -293.41,-837.08 0,0 -298.79,834.73 -299.63,837.08 -3.23,0 -896.64,0 -896.64,0 0,0 541.09,385.37 687.9,489.93l-991.85 0c0.75,29.9 2.06,58.86 2.1,89.82 0.57,1027.12 205.22,1253.95 433.17,1411.89 84.87,58.63 179.72,109.55 280.16,163.47 182.87,98.25 397.27,215.01 627.54,419.65l0 -1618.5c57.91,-40.91 154.92,-109.52 157.24,-111.03 1.98,1.24 91.16,62.32 148.89,101.86l0 1628.86c232.85,-208.99 449.44,-329 634.14,-430.02 98.79,-53.92 192.19,-104.94 276.14,-163.2 227.87,-157.82 432.51,-384.5 433.17,-1411.71 0,-27.99 1.32,-53.96 1.83,-81.07l-979.92 0z"/>
   <path class="fil3" d="M3049.94 1658.99c-81.08,61.05 -487.09,365.87 -583.11,437.89l-407.42 -126.41c40.76,-50.55 149.38,-184.97 251.57,-311.48 127.38,0 637.95,0 738.97,0z"/>
   <path class="fil3" d="M2020.76 913.6c32.26,91.83 209.93,598.99 252.3,719.42l-254.18 314.36 -255.63 -314.49c43.25,-120.69 224.72,-627.68 257.52,-719.29z"/>
   <path class="fil3" d="M968.8 1658.99c110.93,0 670.08,0 756.49,0l254.4 313.14 -398.01 123.48c-103.15,-73.47 -527.09,-375.45 -612.88,-436.62z"/>
   <path class="fil3" d="M1338.87 2884.34c34.23,-99.84 212.73,-618.7 256.06,-744.7l400.9 -124.36 0 404.59c-112.34,79.32 -570.57,403.34 -656.97,464.47z"/>
   <path class="fil3" d="M2041.74 2416.51c0,-166.14 0,-345.17 0,-403.46l414.98 128.87c46.56,128.83 232.98,643.89 268.79,742.81 -89.21,-60.98 -578.66,-396.17 -683.77,-468.22z"/>
  </g>
 </g>
</svg>
