<?xml version="1.0" encoding="UTF-8"?>
<!DOCTYPE svg PUBLIC "-//W3C//DTD SVG 1.1//EN" "http://www.w3.org/Graphics/SVG/1.1/DTD/svg11.dtd">
<!-- Creator: CorelDRAW 2020 (64 Bit) -->
<svg xmlns="http://www.w3.org/2000/svg" xml:space="preserve" width="338.002mm" height="338.058mm" version="1.1" style="shape-rendering:geometricPrecision; text-rendering:geometricPrecision; image-rendering:optimizeQuality; fill-rule:evenodd; clip-rule:evenodd"
viewBox="0 0 17991.02 17994.03"
 xmlns:xlink="http://www.w3.org/1999/xlink"
 xmlns:xodm="http://www.corel.com/coreldraw/odm/2003">
 <defs>
  <style type="text/css">
   <![CDATA[
    .fil2 {fill:#FEFEFE}
    .fil1 {fill:black}
    .fil3 {fill:#757200}
    .fil4 {fill:#7C7A00}
    .fil8 {fill:#908F8F}
    .fil5 {fill:#918D00}
    .fil6 {fill:#939393}
    .fil7 {fill:#B2AE00}
    .fil0 {fill:#F8F200}
   ]]>
  </style>
 </defs>
 <g id="Camada_x0020_1">
  <metadata id="CorelCorpID_0Corel-Layer"/>
  <g id="_2894347051152">
   <path class="fil0" d="M14904.26 9231.6c-55.73,877.19 -287.46,1680.11 -635.85,2358.87 -172.82,336.7 -362.43,641.65 -572.24,911.38 -58.13,74.74 -108.89,136.7 -166.38,209.22 -176.14,222.19 -357.93,377.53 -548.19,578.05 -390.62,411.7 -1311.38,941.96 -1835.18,1150.55 -756.9,301.41 -1648.76,464.01 -2551.32,413.8 -3191.85,-177.56 -5843.8,-2892.44 -5643.28,-6316.85 186.2,-3179.68 2911.52,-5796.5 6325.44,-5606.15 1627.19,90.73 3135.78,880.08 4134.83,2000.01 156.91,175.89 452,568.15 564.95,749.57 648.83,1042.22 1010.03,2248.33 927.22,3551.55zm-1115.21 4846.33c29.51,73.83 122,124.43 154,213.01 70.23,26.82 117.34,110.5 182.62,178.75 61.92,64.74 96.12,118.17 168.43,185.52 256,-155.53 348.77,-477.16 675.99,-332.17l474.45 -546.56c-64.36,-70.07 -172.07,-127.19 -246.27,-183.22 54.3,-140.7 244.73,-303.35 297.54,-468.64 74.39,-47.03 416.58,-702.15 484.77,-853.86 1262.57,-2809.17 858.61,-5878.81 -1039.78,-8192.81 -188.88,-230.24 -683.65,-741.32 -909.28,-930.02 -402.48,-336.65 -791.99,-618.08 -1272.35,-887.79 -3942.21,-2213.47 -8815.07,-534.82 -10703.34,3351.56 -1124.56,2314.55 -1035.4,5190.73 362.77,7421.04 144.89,231.12 376.91,573.22 544.18,780.53 -79.5,102.7 -138.16,120.53 -219.84,206.18 116.74,129.72 229.27,273.93 359.78,393.29 114.94,-108.41 124.47,-273.84 457.84,-442.44 455.95,-230.62 992.13,-88.97 1287.74,313.37 149.37,203.3 192.1,395.22 195.03,706.96 73.11,-31.77 248.12,-213.23 316.97,-252.96 136.99,-79.06 309.17,56.68 418.85,116.54 435.31,237.58 333.34,113.99 296.63,797.91 101.15,-110.88 168.63,-196.46 340.83,-271.29 438.45,-190.51 823.31,5.67 1162.13,265.79 70.87,54.4 104.09,104.6 162.38,151.5 520.49,-398.04 1221.15,-106.84 1442.35,270.06 3.18,-3.71 7.36,-14.78 8.51,-11.91l88.91 -270.56c66.24,-204.03 256.7,-168.5 547.64,-200.77 351.48,-38.98 206.89,48.7 341.5,20.19 160.99,-34.09 400.57,-171.94 558.9,-198.1 221,-36.51 304.49,258.15 429.16,347.24 1.88,-580.85 -17.47,-481.21 498.93,-653.4 102.56,-34.19 1226.64,-668.03 1292.05,-736.28l461.13 -421.17c186.15,-134.33 295.26,73.26 378.84,134.48l0.01 0.04z"/>
   <path class="fil0" d="M7553.01 8589.84l-0.01 755.34 1606.86 7.07 9.51 460.61c-5.32,34.44 -8.35,25.56 -16.87,39.98l-1587.23 2.65c-47.27,204.8 25.84,1167.15 -22.89,1337.09 -92.77,17.1 -194.66,7.58 -289.79,7.58l-226.01 0.8c-99.32,-10.22 -15.18,5.81 -55.61,-19.41 -32.96,-912.26 -4.48,-1894.84 -2.15,-2814.15 0.56,-225.02 93.15,-392.81 302.97,-409.33l2098.9 -8.31 1.96 530.53c-426.06,15.69 -1008.54,2.05 -1462.85,1.88 -149.8,-0.06 -332.41,-42.08 -356.77,107.66l0 0.01zm4828.55 2109.78c-67.12,44.1 -112.38,93.04 -184.64,152.56 -53.69,44.2 -122.49,91.23 -187.67,131.3 -451.53,277.52 -1054.75,348.83 -1536.61,135.34 -1312.11,-581.32 -1386.06,-2559.97 -25.36,-3105.37 345.81,-138.62 723.05,-158.3 1109.81,-62.45 284.28,70.45 707.74,291.83 818.12,459.05 -87.4,85.35 -227.83,298.33 -348.31,420.18 -163.28,-131.1 -302.46,-240.62 -556.97,-323.11 -742.6,-240.69 -1447.08,192.58 -1418.86,1063.18 17.46,538.96 295.23,920.26 677.57,1067.64 676.98,260.98 1209.04,-271.57 1318.07,-315.83 66.07,64.65 301.81,298.82 334.83,377.53l0.01 -0.02zm-1436.57 3231.42c-236.99,-1.96 -1122.66,376.72 -2531.91,55.29 -1473.65,-336.13 -2560.69,-1188.25 -3203.58,-2542.16 -326.26,-687.11 -483.35,-1564 -425.49,-2426.97 121.36,-1809.4 1069.15,-2930.74 2113.86,-3614.49 327.46,-214.31 510.89,-318.51 862.45,-563.97 314.86,-219.84 484.74,-460.39 1056.27,-362.83 202.53,34.57 371.79,92.56 551.54,161.31 340.2,130.15 238.98,132.57 455.07,259.04 165.45,96.83 313.73,161.16 453.03,260.18 308.08,219 209.97,267.93 299.91,435.81 527.66,5.62 653.16,17.55 1020.26,271.49 154.55,106.9 681.89,30.31 761.42,534.79 -123.73,-87.61 -297.61,-375.68 -593.07,-297.99 137.69,366.85 116.13,386.22 -19.89,710.28 -31.07,40.09 40.14,9.27 -26.7,32.63 -43.92,-68.64 -5.32,-23.69 3.54,-35.97 57.84,-335.46 4.88,-612.77 -273.2,-832.66 -200.38,-158.45 -533.11,-333.96 -891.17,-263.49 -11.25,13.91 -12.79,16.27 -24.97,38.53 -217.83,397.82 -349.06,321.6 -836.85,460.35 -103.28,29.38 -209.02,93.38 -311.85,138.79 -660.04,291.45 -849.45,127.73 -1485.6,-17.35 -570.56,-130.13 -873.21,140.1 -1221.12,521.82 -336.4,369.11 -513.69,614.74 -706.73,1114.56 -719.87,1863.9 27.23,3953.74 1897.2,4836.48 1380.54,651.69 2985.66,498.47 4187.68,-422.61 706.09,-541.06 1194.66,-1275.14 1485.25,-2139.06 139.41,-414.46 290.59,-1063.67 277.88,-1537.42 -52.37,-1951.54 -1001.87,-3683.75 -2838.84,-4421.21 -952.73,-382.47 -2072.66,-460.23 -3140.45,-212.72 -4462.54,1034.39 -5111.43,6514.88 -2455.53,8907.33 1107.59,997.72 2600.9,1437.24 4104.18,1302.84 380.64,-34.03 1198.03,-187.97 1457.37,-350.65l0.04 0.01z"/>
   <path class="fil1" d="M10944.99 13931.04c46.54,-39.15 -59.61,-3.36 55.4,-34.92 62.96,-17.27 45.04,7.15 46.18,6.38l-101.58 28.56 0 -0.02zm-2286.28 -7696.79c-9.75,-226.48 303.68,-181.92 487.86,-171.29 -66.97,165.28 -277.75,306.21 -487.86,171.29zm632.3 -1291.62c-144.17,14.33 -567.47,-105.82 -428.98,-258.66 82.15,-90.67 229.02,-26.04 291.94,36.11 63.92,63.14 86.06,153.25 137.06,222.54l-0.02 0.01zm1654 8988.41c-259.34,162.67 -1076.72,316.62 -1457.37,350.65 -1503.28,134.4 -2996.59,-305.11 -4104.18,-1302.84 -2655.9,-2392.45 -2007,-7872.94 2455.53,-8907.33 1067.78,-247.51 2187.73,-169.75 3140.45,212.72 1836.99,737.46 2786.47,2469.67 2838.84,4421.21 12.71,473.76 -138.47,1122.96 -277.88,1537.42 -290.59,863.93 -779.16,1598 -1485.25,2139.06 -1202.01,921.07 -2807.15,1074.3 -4187.68,422.61 -1869.97,-882.74 -2617.06,-2972.58 -1897.2,-4836.48 193.05,-499.84 370.33,-745.47 706.73,-1114.56 347.91,-381.72 650.56,-651.95 1221.12,-521.82 636.14,145.09 825.54,308.81 1485.6,17.35 102.83,-45.39 208.57,-109.41 311.85,-138.79 487.8,-138.75 619.02,-62.52 836.85,-460.35 12.18,-22.25 13.72,-24.61 24.97,-38.53 358.06,-70.47 690.79,105.03 891.17,263.49 278.08,219.88 331.03,497.2 273.2,832.66l23.16 3.34c136.01,-324.06 157.57,-343.43 19.89,-710.28 295.47,-77.69 469.33,210.39 593.07,297.99 -79.53,-504.48 -606.87,-427.89 -761.42,-534.79 -367.12,-253.95 -492.61,-265.88 -1020.26,-271.49 -89.93,-167.9 8.17,-216.81 -299.91,-435.81 -139.3,-99.02 -287.58,-163.35 -453.03,-260.18 -216.09,-126.47 -114.88,-128.89 -455.07,-259.04 -179.74,-68.76 -349.03,-126.75 -551.54,-161.31 -571.53,-97.56 -741.41,142.99 -1056.27,362.83 -351.56,245.47 -534.99,349.67 -862.45,563.97 -1044.71,683.76 -1992.5,1805.1 -2113.86,3614.49 -57.89,862.97 99.22,1739.85 425.49,2426.97 642.89,1353.89 1729.93,2206.02 3203.58,2542.16 1409.25,321.44 2294.92,-57.26 2531.91,-55.29l-0.05 -0.02zm3959.28 -4699.46c82.81,-1303.21 -278.4,-2509.32 -927.22,-3551.55 -112.94,-181.42 -408.03,-573.68 -564.95,-749.57 -999.05,-1119.92 -2507.64,-1909.28 -4134.83,-2000.01 -3413.91,-190.35 -6139.24,2426.48 -6325.44,5606.15 -200.53,3424.41 2451.43,6139.29 5643.28,6316.85 902.56,50.21 1794.41,-112.39 2551.32,-413.8 523.8,-208.58 1444.56,-738.86 1835.18,-1150.55 190.25,-200.5 372.04,-355.86 548.19,-578.05 57.49,-72.52 108.25,-134.5 166.38,-209.22 209.81,-269.74 399.44,-574.7 572.24,-911.38 348.39,-678.75 580.11,-1481.69 635.85,-2358.87z"/>
   <path class="fil1" d="M2742.96 14019.47c81.66,-85.63 140.32,-103.47 219.84,-206.18 -167.27,-207.32 -399.29,-549.41 -544.18,-780.53 -1398.19,-2230.31 -1487.34,-5106.49 -362.77,-7421.04 1888.26,-3886.38 6761.14,-5565.03 10703.34,-3351.56 480.36,269.71 869.87,551.14 1272.35,887.79 225.63,188.71 720.4,699.79 909.28,930.02 1898.38,2314.01 2302.35,5383.65 1039.78,8192.81 -68.19,151.71 -410.38,806.83 -484.77,853.86 -52.81,165.29 -243.24,327.94 -297.54,468.64 74.19,56.02 181.92,113.15 246.27,183.22 53.96,19.91 53.99,34.51 110.21,55.68l130.71 -176.26 286.52 -455.49c50.7,-83.1 86.28,-150.88 137.67,-237.67 30.19,-51 39.47,-73.07 64.79,-123.46l79.99 -115.64 402.71 -959.94c944.75,-2636.86 477.31,-5404.91 -1095.81,-7592.52 -207.98,-289.23 -397.2,-489.45 -622.04,-748.72 -560.08,-645.85 -1603.74,-1383.62 -2374.4,-1755.63 -2768.64,-1336.44 -6143.51,-1019 -8536.75,866.53 -2325.06,1831.81 -3561.19,4658.6 -3082.17,7746.46 203.99,1314.97 684.66,2382.65 1399.64,3426.96 72.82,106.36 227.74,326.37 306.48,390.04l90.89 -77.34 -0.04 -0.04z"/>
   <path class="fil1" d="M12381.56 10699.62c-33.03,-78.71 -268.78,-312.87 -334.83,-377.53 -109.05,44.26 -641.09,576.81 -1318.07,315.83 -382.34,-147.38 -660.11,-528.68 -677.57,-1067.64 -28.23,-870.6 676.26,-1303.87 1418.86,-1063.18 254.53,82.5 393.7,192.02 556.97,323.11 120.48,-121.85 260.91,-334.83 348.31,-420.18 -110.39,-167.22 -533.85,-388.59 -818.12,-459.05 -386.76,-95.85 -764,-76.16 -1109.81,62.45 -1360.69,545.39 -1286.75,2524.05 25.36,3105.37 481.86,213.49 1085.08,142.18 1536.61,-135.34 65.18,-40.06 133.98,-87.09 187.67,-131.3 72.26,-59.52 117.52,-108.45 184.64,-152.56l-0.01 0.02z"/>
   <path class="fil1" d="M6970.94 11181.56l563.28 0 -0.65 -1256.74c11.23,-116.41 -3.51,-37.1 31.68,-69.33l1587.23 -2.65 0.37 -488.68c-218.83,0 -1504.47,15.72 -1609.08,-10.67 -23.97,-108.13 -26.74,-694.82 9.25,-763.65 24.36,-149.74 206.96,-107.73 356.77,-107.66 454.31,0.17 1036.79,13.81 1462.85,-1.88l-1.96 -530.53 -2098.9 8.31c-209.82,16.53 -302.4,184.33 -302.97,409.33 -2.35,919.31 -30.83,1901.91 2.15,2814.15l-0.01 0.01z"/>
   <path class="fil1" d="M12072.09 15401.73l71.1 94.19c43.1,76.39 121.81,177.4 131.56,259.1 40.43,27.19 328.47,482.06 338.77,579.56 48.98,33.52 40.34,33.27 69.17,85.9l71.67 101.44 1136.14 -654.84c-62.69,-138.16 -151.51,-229.18 -199.21,-363.69 -121.72,19.92 -560.92,341.4 -727.99,409.17 -30.6,-60.32 -53.9,-81.49 -78.48,-150.2l639.86 -392.77 -178.61 -313.74 -648.05 381.76 -89.62 -139.25c122.24,-74.15 636.89,-345.52 703.53,-414.72l-156.91 -287.15c-55.76,-88.65 3.67,-52.26 -81.34,-69.59l-1112.96 649.29c33.1,83.05 103.19,157 111.37,225.57l-0.01 -0.02z"/>
   <path class="fil1" d="M9977.46 16736.87l11.8 37.91 -63.2 7.65 -224.33 19.33 101.07 -372.89c53.94,72.11 129.16,218.55 174.65,308.01l0.01 -0.02zm-854.93 319.02l-101.47 360.18c-10.15,76.69 -7.75,20.73 15.34,40.9l498.61 -49.08c149.53,-223.88 -155.57,-241.69 636.86,-280.24l92.29 169.77c126.76,24.53 395.94,-33.31 545.26,-43.18 -31.65,-91.12 -137.65,-264.51 -187.68,-351.14 -65.81,-113.92 -153.38,-248.24 -195.36,-366.98l-303.78 -544.54 -120.65 -218.01c-92.79,5.18 -184.12,16.57 -276.53,26.09 -78.7,8.11 -182.63,9.47 -247.69,39.8l-355.22 1216.44 0.02 0z"/>
   <path class="fil1" d="M6238.58 16428.69c-70.44,42.61 -275.02,178.06 -333.72,238.78 155.59,270.98 924.45,712.24 1328.15,393.28 208.25,-164.54 249.08,-465.63 69.16,-668.42 -149.61,-168.62 -778.16,-382.56 -499.07,-442.08 37,-7.88 54.2,-5.11 90.52,1.39 148.86,26.61 246.65,179.48 377.72,251.19 71.71,-34.36 107.42,-72.51 165.17,-121.38 53.71,-45.46 110.78,-89.53 149.47,-126.4 -81.67,-151.56 -451.09,-418.57 -745.69,-440.63 -340.25,-25.49 -695.07,183.76 -648.25,526.15 37.09,271.22 400.07,419.53 617.71,562.66 256.32,168.58 -45,172.34 -229.77,80.29 -175.34,-87.36 -227.6,-180.31 -341.39,-254.83l-0.01 -0.01z"/>
   <path class="fil1" d="M5104.54 15862.11c77.89,-122.31 177.61,-153.66 262.95,-270.65 23.56,32.08 7.64,-3.32 19.01,45.39l-20.5 331.57c-73.86,-3.94 -174.75,-82.52 -261.48,-106.31l0.01 0zm-931.34 148.15c49.61,42.59 402.87,234.01 469.29,246.99 68.24,-47.43 109.87,-98.9 187.77,-139.71l465.69 253.75 -0.44 202.3c56.29,48.59 413.15,251.72 480.89,252.26l136.02 -1684.37 -443.07 -223.08 -1296.17 1091.87 0.02 -0.01z"/>
   <path class="fil1" d="M10251.56 15780.39l-8.7 41.12c38.47,44.39 46.79,47.16 59.92,97.86 72.67,44.25 69.83,49.22 118.03,114.98 35.02,47.79 57.44,63.14 96.12,109.97 62.16,75.26 127.77,161.47 195.47,232.57l612.76 718.83 473.38 -162.54 12.27 -132.08 50.37 -844.42c8.94,-42.74 3.49,-22.33 15.27,-43.91 -30.87,-114.98 -0.8,-274.36 8.03,-398.64l13.54 -282.08 -537.66 177.82 -6.63 927.36 -280.9 -354.26c-80.79,-105.33 -235.94,-273.12 -285.44,-383.31l-535.84 180.7 0.01 0.02z"/>
   <path class="fil1" d="M7845.31 17304.23c92.37,31.04 174.8,90.6 287.27,116.88 121.48,28.38 262.5,29.08 383.44,2.36 250.68,-55.39 389.08,-172.54 495.84,-336.85l10.34 -43.31c-143.03,-52.95 -265.81,-173.71 -397.87,-240.64 -167.79,297.46 -614.85,214.89 -575.03,-205.69 15.41,-162.78 106.09,-280.53 258.47,-301.72 203.54,-28.3 252.58,113.51 353.07,180.21 84.18,-43.14 356.66,-149.02 415.02,-221.11 -93.47,-152.22 -314.36,-367.23 -555.51,-422.83 -684.72,-157.89 -1257.3,562.73 -889.41,1227.36 73.63,133.03 167.76,170.89 214.34,245.33l0.02 0.01z"/>
   <path class="fil1" d="M4308.3 15634.71l-152.87 -438.11c-743.05,158.62 -446.7,-805.1 27.93,-605.18 161.51,68.03 152.93,161.88 187.44,357.03l465.79 98.15c32.02,-1107.97 -1041.77,-1191.39 -1446.67,-683.07 -225.4,282.96 -279.65,692.38 -30.84,996.07 256.95,313.62 723.05,450.75 949.21,275.12l0.01 0z"/>
   <path class="fil1" d="M13168.77 14483.65l769.65 881.43c48.66,35.1 186.28,199.94 217.98,256.24 106.89,-47.04 808.84,-696.22 947.1,-812.81l-45.87 -72.83c-67.77,-63.18 -176.45,-207.18 -241.5,-256.8 -77.91,70.68 -181.84,154.16 -268.42,226.98l-272.37 235.42c-26.69,-21.61 -96.39,-95.49 -129.75,-134.01 -46.22,-53.37 -69.75,-81.01 -123.4,-139.47 -84.38,-91.96 -157.52,-187.9 -245.21,-287.23 -43.02,-38.6 -195.99,-216.56 -227.98,-271.09 -145.89,66.91 -266.26,242.58 -404.23,318.71l24.01 55.5 -0.02 -0.04z"/>
   <path class="fil2" d="M6238.58 16428.69c113.79,74.51 166.06,167.46 341.39,254.83 184.76,92.05 486.1,88.29 229.77,-80.29 -217.64,-143.13 -580.61,-291.44 -617.71,-562.66 -46.82,-342.39 308.01,-551.63 648.25,-526.15 294.59,22.06 664.01,289.07 745.69,440.63 -38.69,36.87 -95.76,80.95 -149.47,126.4 -57.75,48.87 -93.45,87.02 -165.17,121.38 -131.07,-71.72 -228.86,-224.59 -377.72,-251.19 -36.32,-6.5 -53.52,-9.27 -90.52,-1.39 -279.09,59.52 349.46,273.45 499.07,442.08 179.92,202.79 139.09,503.88 -69.16,668.42 -403.69,318.96 -1172.56,-122.31 -1328.15,-393.28 58.69,-60.72 263.27,-196.18 333.72,-238.78l0.01 0.01zm-1134.03 -566.58c86.72,23.8 187.62,102.37 261.48,106.31l20.5 -331.57c-11.39,-48.71 4.53,-13.31 -19.01,-45.39 -85.35,116.97 -185.07,148.33 -262.95,270.65l-0.01 0zm5018.07 129.48l303.78 544.54c41.98,118.74 129.55,253.07 195.36,366.98 50.04,86.62 156.04,260.02 187.68,351.14 -149.32,9.87 -418.5,67.71 -545.26,43.18l-92.29 -169.77c-792.43,38.54 -487.34,56.35 -636.86,280.24l-498.61 49.08c-23.09,-20.17 -25.49,35.79 -15.34,-40.9l101.47 -360.18 355.22 -1216.44c65.06,-30.33 168.99,-31.7 247.69,-39.8 92.41,-9.52 183.74,-20.9 276.53,-26.09l120.65 218.01 -0.02 0zm589.8 385.34c-67.7,-71.09 -133.31,-157.31 -195.47,-232.57 -38.68,-46.83 -61.11,-62.19 -96.12,-109.97 -48.19,-65.76 -45.36,-70.73 -118.03,-114.98 -13.13,-50.7 -21.46,-53.48 -59.92,-97.86 -4.55,-3.39 -56.12,-12.86 8.7,-41.12l535.84 -180.7c49.51,110.19 204.65,277.98 285.44,383.31l280.9 354.26 6.63 -927.36 537.66 -177.82 -13.54 282.08c-8.83,124.28 -38.91,283.65 -8.03,398.64 -11.78,21.58 -6.34,1.17 -15.27,43.91l-50.37 844.42 -12.27 132.08 -473.38 162.54 -612.76 -718.83 -0.01 -0.02zm-786.34 405.51c0.72,-0.57 24.42,-20.35 28.93,-24.32 2.16,-1.89 9.34,-3.78 10.99,-10.29 1.76,-6.86 7.62,-7.33 11.46,-10.95 -45.5,-89.45 -120.71,-235.9 -174.65,-308.01l-101.07 372.89 224.33 -19.33 0.01 0.02zm3147.59 -2255.56c85.02,17.33 25.58,-19.06 81.34,69.59l156.91 287.15c-66.62,69.21 -581.27,340.59 -703.53,414.72l89.62 139.25 648.05 -381.76 178.61 313.74 -639.86 392.77c24.58,68.71 47.9,89.88 78.48,150.2 167.07,-67.77 606.29,-389.25 727.99,-409.17 47.7,134.51 136.53,225.55 199.21,363.69l-1136.14 654.84 -71.67 -101.44c-28.84,-52.63 -20.19,-52.38 -69.17,-85.9 -10.3,-97.51 -298.34,-552.37 -338.77,-579.56 -9.75,-81.7 -88.47,-182.69 -131.56,-259.1l-71.1 -94.19c-8.18,-68.57 -78.27,-142.52 -111.37,-225.57l1112.96 -649.29 0.01 0.02zm864.76 838.21l-769.65 -881.43 -24.01 -55.5c137.98,-76.13 258.35,-251.78 404.23,-318.71 31.98,54.54 184.94,232.49 227.98,271.09 87.69,99.32 160.83,195.28 245.21,287.23 53.65,58.46 77.18,86.12 123.4,139.47 33.37,38.52 103.07,112.42 129.75,134.01l272.37 -235.42c86.6,-72.82 190.51,-156.3 268.42,-226.98 65.03,49.62 173.73,193.63 241.5,256.8l45.87 72.83c-138.25,116.61 -840.2,765.77 -947.1,812.81 -31.69,-56.3 -169.31,-221.14 -217.98,-256.24l0.02 0.04zm2316 -2641.43l-79.99 115.64c-25.3,50.39 -34.6,72.46 -64.79,123.46 -51.39,86.8 -86.97,154.57 -137.67,237.67l-286.52 455.49 -130.71 176.26c-56.21,-21.16 -56.25,-35.76 -110.21,-55.68l-474.45 546.56c-327.22,-145.01 -419.98,176.63 -675.99,332.17 -72.32,-67.35 -106.51,-120.77 -168.43,-185.52 -65.28,-68.25 -112.41,-151.93 -182.62,-178.75 -32.01,-88.58 -124.49,-139.18 -154,-213.01 -83.58,-61.23 -192.69,-268.82 -378.84,-134.48l-461.13 421.17c-65.41,68.25 -1189.49,702.09 -1292.05,736.28 -516.41,172.18 -497.05,72.55 -498.93,653.4 -124.66,-89.07 -208.16,-383.75 -429.16,-347.24 -158.33,26.16 -397.92,164 -558.9,198.1 -134.61,28.51 9.99,-59.17 -341.5,-20.19 -290.95,32.28 -481.41,-3.25 -547.64,200.77l-88.91 270.56c-1.16,-2.86 -5.34,8.22 -8.51,11.91 -221.2,-376.88 -921.86,-668.08 -1442.35,-270.06 -58.29,-46.89 -91.51,-97.1 -162.38,-151.5 -338.82,-260.11 -723.68,-456.3 -1162.13,-265.79 -172.19,74.81 -239.66,160.39 -340.83,271.29 36.71,-683.92 138.66,-560.33 -296.63,-797.91 -109.68,-59.86 -281.86,-195.59 -418.85,-116.54 -68.87,39.73 -243.86,221.19 -316.97,252.96 -2.91,-311.74 -45.65,-503.67 -195.03,-706.96 -295.62,-402.35 -831.78,-543.99 -1287.74,-313.37 -333.37,168.62 -342.88,334.05 -457.84,442.44 -130.51,-119.37 -243.04,-263.57 -359.78,-393.29l-90.89 77.34c-78.74,-63.67 -233.66,-283.68 -306.48,-390.04 -714.98,-1044.31 -1195.65,-2111.99 -1399.64,-3426.96 -479.02,-3087.85 757.11,-5914.64 3082.17,-7746.46 2393.25,-1885.53 5768.12,-2202.97 8536.75,-866.53 770.66,372.01 1814.32,1109.78 2374.4,1755.63 224.84,259.28 414.06,459.49 622.04,748.72 1573.12,2187.61 2040.56,4955.65 1095.81,7592.52l-402.71 959.94 0.03 0.01zm-7242.55 4362.97c-106.76,164.31 -245.16,281.45 -495.84,336.85 -120.94,26.73 -261.98,26.02 -383.44,-2.36 -112.48,-26.28 -194.9,-85.84 -287.27,-116.88 -46.58,-74.44 -140.71,-112.29 -214.34,-245.33 -367.88,-664.63 204.7,-1385.26 889.41,-1227.36 241.14,55.61 462.04,270.61 555.51,422.83 -58.35,72.1 -330.84,177.98 -415.02,221.11 -100.49,-66.7 -149.53,-208.5 -353.07,-180.21 -152.4,21.18 -243.07,138.95 -258.47,301.72 -39.83,420.57 407.23,503.16 575.03,205.69 132.06,66.92 254.84,187.68 397.87,240.64l-10.34 43.31 -0.02 -0.01zm-1960.7 681.23c64.57,55.81 844.3,182.98 942.18,154.16 5.12,2.97 11.74,5.58 16.25,7.21 4.51,1.63 10.83,4.88 16.45,6.71 119.25,39.23 -90.85,-19.14 34.18,10.24l380.66 31.75c470.83,26.45 855.5,20.28 1327.97,-18.18 717.81,-36.96 1600.03,-254.92 2209.01,-473.07 1315.1,-471.07 2304.07,-1116.9 3273.62,-2021.4 246.46,-229.93 1099.58,-1178.57 1203.53,-1453.56 93.99,-79.45 556.52,-890.82 623.2,-1076.47 50.36,-39.6 325.26,-706.42 354.62,-830.61 87.74,-98.88 342.09,-1123.79 384.77,-1339.51 303.72,-1535.2 205.65,-3128.46 -272.37,-4577.64 -283.91,-860.68 -701.07,-1685.07 -1154.33,-2319.7 -127.28,-178.21 -509.39,-688.33 -668.82,-852.65l-524.09 -545.7c-147.84,-134.42 -305.04,-268.78 -460.98,-403.37 -577.58,-498.48 -1325.69,-955.94 -2149.52,-1324.45 -2705.91,-1210.38 -5972.5,-886.7 -8315.85,589.3 -385.12,242.58 -694.36,472.07 -1017.73,728.94 -210.23,166.99 -837.29,766.99 -991.62,960.97 -36.28,45.61 -70.04,73.03 -106.38,118.47l-563.15 732.98c-1333.38,1853.85 -1907.64,4458.14 -1422.21,6902.96 176.61,889.5 528.86,1856.04 928.77,2543.87 471.88,811.61 845.36,1334.67 1484.2,1989.81 867,889.09 1903.32,1578.9 3132.92,2068.92 215.27,85.79 1123.67,403 1334.76,390.01l-0.04 0.02zm-1581.81 -2849.45l443.07 223.08 -136.02 1684.37c-67.74,-0.54 -424.6,-203.67 -480.89,-252.26l0.44 -202.3 -465.69 -253.75c-77.9,40.81 -119.53,92.29 -187.77,139.71 -66.42,-12.98 -419.69,-204.38 -469.29,-246.99l1296.17 -1091.87 -0.02 0.01zm-1161.06 716.32c-226.17,175.63 -692.26,38.5 -949.21,-275.12 -248.81,-303.68 -194.56,-713.1 30.84,-996.07 404.9,-508.3 1478.69,-424.89 1446.67,683.07l-465.79 -98.15c-34.51,-195.16 -25.93,-288.99 -187.44,-357.03 -474.63,-199.93 -770.98,763.81 -27.93,605.18l152.87 438.11 -0.01 0z"/>
   <path class="fil0" d="M9290.99 4942.63c-51,-69.28 -73.14,-159.4 -137.06,-222.54 -62.92,-62.15 -209.78,-126.77 -291.94,-36.11 -138.49,152.84 284.83,272.98 428.98,258.66l0.02 -0.01z"/>
   <path class="fil0" d="M8658.69 6234.25c210.11,134.93 420.9,-6 487.86,-171.29 -184.18,-10.63 -497.61,-55.2 -487.86,171.29z"/>
   <path class="fil3" d="M9152.47 9852.84c8.52,-14.42 11.57,-5.54 16.87,-39.98l-9.51 -460.61 -1606.86 -7.07 0.01 -755.34c-35.99,68.83 -33.22,655.52 -9.25,763.65 104.6,26.4 1390.26,10.67 1609.08,10.67l-0.37 488.68 0.02 0z"/>
   <path class="fil4" d="M6970.94 11181.56c40.43,25.2 -43.72,9.19 55.61,19.41l226.01 -0.8c95.13,0 197.03,9.52 289.79,-7.58 48.74,-169.93 -24.38,-1132.3 22.89,-1337.09 -35.2,32.23 -20.45,-47.07 -31.68,69.33l0.65 1256.74 -563.28 0 -0.01 -0.02z"/>
   <path class="fil5" d="M10944.99 13931.04l101.58 -28.56c-1.14,0.77 16.78,-23.64 -46.18,-6.38 -115.02,31.56 -8.87,-4.24 -55.4,34.92l0 0.02z"/>
   <path class="fil6" d="M9926.07 16782.43l63.2 -7.65 -11.8 -37.91c-3.84,3.62 -9.69,4.11 -11.46,10.95 -1.67,6.51 -8.83,8.4 -10.99,10.29 -4.52,3.97 -28.21,23.74 -28.93,24.32l-0.02 0z"/>
   <path class="fil7" d="M11744.91 6810.84l-23.16 -3.34c-8.87,12.28 -47.46,-32.67 -3.54,35.97 66.84,-23.36 -4.37,7.47 26.7,-32.63l0.01 0.01z"/>
   <path class="fil8" d="M10242.87 15821.53l8.7 -41.12c-64.8,28.26 -13.23,37.73 -8.7,41.12z"/>
  </g>
 </g>
</svg>
