<?xml version="1.0" encoding="UTF-8"?>
<!DOCTYPE svg PUBLIC "-//W3C//DTD SVG 1.1//EN" "http://www.w3.org/Graphics/SVG/1.1/DTD/svg11.dtd">
<!-- Creator: CorelDRAW 2020 (64 Bit) -->
<svg xmlns="http://www.w3.org/2000/svg" xml:space="preserve" width="771.808mm" height="719.42mm" version="1.1" style="shape-rendering:geometricPrecision; text-rendering:geometricPrecision; image-rendering:optimizeQuality; fill-rule:evenodd; clip-rule:evenodd"
viewBox="0 0 8796.06 8199"
 xmlns:xlink="http://www.w3.org/1999/xlink"
 xmlns:xodm="http://www.corel.com/coreldraw/odm/2003">
 <defs>
  <style type="text/css">
   <![CDATA[
    .str0 {stroke:#201E1E;stroke-width:184.39;stroke-miterlimit:22.9256}
    .fil1 {fill:none}
    .fil0 {fill:#FEFEFE}
    .fil3 {fill:#ED3237}
    .fil2 {fill:#201E1E}
   ]]>
  </style>
 </defs>
 <g id="Camada_x0020_1">
  <metadata id="CorelCorpID_0Corel-Layer"/>
  <g id="ferroviario-atletico-clube-seeklogo.com.cdr">
   <polygon class="fil0" points="4398.04,8048.73 8703.86,2506.65 8703.86,92.2 92.2,92.2 92.2,2506.65 4398.04,8048.73 "/>
   <polygon class="fil1 str0" points="4398.04,8048.73 8703.86,2506.65 8703.86,92.2 92.2,92.2 92.2,2506.65 4398.04,8048.73 "/>
   <polygon class="fil2" points="497.45,498.34 8298.58,498.34 8298.58,2372.21 497.45,2372.21 "/>
   <polygon class="fil0" points="1147.25,2137.99 1147.25,732.52 2235.31,732.52 2235.31,970.43 1467.93,970.43 1467.93,1302.92 2130.41,1302.92 2130.41,1540.82 1467.93,1540.82 1467.93,2137.99 1147.25,2137.99 "/>
   <path class="fil0" d="M4594.66 1582.06l-218.72 -521.63 -214.28 521.63 432.99 0 0 0zm590.04 555.93l-348.78 0 -138.55 -319.37 -634.34 0 -130.8 319.37 -339.9 0 618.12 -1405.47 338.78 0 635.47 1405.47 0 0z"/>
   <path class="fil0" d="M7377.92 1621.33l310.31 87.03c-47.64,153.47 -126.72,267.33 -237.58,341.97 -110.46,74.27 -251.18,111.56 -421.52,111.56 -210.61,0 -383.9,-63.79 -519.5,-191.09 -135.58,-127.65 -203.54,-302.02 -203.54,-522.93 0,-233.99 68.32,-415.58 204.66,-545.18 136.37,-129.21 315.49,-194.02 537.94,-194.02 193.97,0 351.76,50.7 472.95,152.5 72.38,59.85 126.34,146.25 162.56,258.86l-317.37 67.04c-18.48,-72.96 -57.66,-130.56 -117.51,-172.79 -59.47,-42.2 -131.92,-63.14 -216.89,-63.14 -117.48,0 -213.16,37.32 -286.32,112.28 -73.14,74.61 -109.72,195.66 -109.72,363.19 0,177.73 35.85,304.34 108.29,379.63 72.03,75.57 165.83,113.23 281.12,113.23 85.36,0 158.52,-23.93 219.86,-72.03 61.3,-47.79 105.25,-123.38 132.27,-226.09l0 0z"/>
   <polygon class="fil3" points="3981.72,2737.79 786.07,2737.79 3981.72,6850.89 "/>
   <polygon class="fil2" points="4814.33,6850.89 8009.98,2737.79 4814.33,2737.79 "/>
  </g>
 </g>
</svg>
