<?xml version="1.0" encoding="UTF-8"?>
<!DOCTYPE svg PUBLIC "-//W3C//DTD SVG 1.1//EN" "http://www.w3.org/Graphics/SVG/1.1/DTD/svg11.dtd">
<!-- Creator: CorelDRAW 2020 (64 Bit) -->
<svg xmlns="http://www.w3.org/2000/svg" xml:space="preserve" width="329.36mm" height="329.355mm" version="1.1" style="shape-rendering:geometricPrecision; text-rendering:geometricPrecision; image-rendering:optimizeQuality; fill-rule:evenodd; clip-rule:evenodd"
viewBox="0 0 11374.6 11374.44"
 xmlns:xlink="http://www.w3.org/1999/xlink"
 xmlns:xodm="http://www.corel.com/coreldraw/odm/2003">
 <defs>
  <style type="text/css">
   <![CDATA[
    .fil5 {fill:#000D00}
    .fil1 {fill:#001D7E}
    .fil8 {fill:#005F00}
    .fil6 {fill:darkgreen}
    .fil18 {fill:#008802}
    .fil15 {fill:#009002}
    .fil3 {fill:#009600}
    .fil11 {fill:#0101C6}
    .fil4 {fill:#010600}
    .fil14 {fill:#011E80}
    .fil12 {fill:#0507C1}
    .fil19 {fill:#0E0502}
    .fil22 {fill:#161616}
    .fil20 {fill:#636371}
    .fil7 {fill:#640000}
    .fil28 {fill:#7F8000}
    .fil24 {fill:#7F8DC1}
    .fil29 {fill:#8793C9}
    .fil27 {fill:#97A1D2}
    .fil9 {fill:#A1AAD6}
    .fil23 {fill:#ABB3D8}
    .fil21 {fill:#B3BCDC}
    .fil26 {fill:#BFC6DF}
    .fil10 {fill:#C80000}
    .fil25 {fill:#E7E7F8}
    .fil16 {fill:ghostwhite}
    .fil17 {fill:#FAFA04}
    .fil13 {fill:#FCFCFF}
    .fil0 {fill:#FEFE01}
    .fil2 {fill:#FEFEFF}
   ]]>
  </style>
 </defs>
 <g id="Camada_x0020_1">
  <metadata id="CorelCorpID_0Corel-Layer"/>
  <g id="_2350693509840">
   <path class="fil0" d="M4678.48 2943.6c42.3,41.83 301.46,675.27 974.67,677.46 483.66,1.57 748.27,-312.47 965.9,-688.56l1602.4 695.66c16.2,203.02 243.4,3127.32 220.43,3188.23 -35.83,95.02 -151.96,279.29 -205.76,366.95 -184.32,300.34 -262.92,396.95 -468.01,664.94l-474.21 537.16c-107.4,93.15 -117.92,121.45 -209.8,204.34l-769.01 656.6c-211.4,161.4 -425.14,328.49 -649.76,480.84 -147.69,-49.41 -859.8,-580.49 -1004.35,-711.09 -34.76,-31.4 -50.73,-39.57 -80.19,-66.38 -36.27,-33.01 -36.92,-36.28 -71.26,-62.51l-293.5 -278.89c-238.56,-230.16 -462.49,-482.5 -666.58,-746.63 -80,-103.54 -161.56,-212.41 -236.69,-323.71 -72.07,-106.78 -157.63,-229.67 -225.61,-347.1 -289.96,-500.87 -242.32,-288.69 -200.2,-897.11 12.16,-175.6 24.4,-348.03 36.56,-523.88 48.8,-705.87 106.49,-1415.3 147.88,-2119.11l1607.08 -707.22zm948.23 -1245.92c9.09,-15.89 7.89,-12.93 16.83,-22.47l203.16 558.06 589.03 30.31c-19.62,42.67 -188.78,158.83 -233.19,193.61 -51.4,40.26 -195.58,140.03 -230.79,181.92l145.48 577.48 -488.45 -332.1c-107.03,52.06 -429.64,297.33 -508.64,314.25l166.21 -570.92 -461.45 -380.57 597.8 -18.43 204.02 -531.14zm4278.47 4060.18c0,-721.58 -128.29,-1236.31 -381.37,-1811.86 -623.13,-1417.11 -2163.47,-2464.55 -3761.02,-2464.55l-146.2 0c-928.25,0 -1812.67,374.97 -2367.14,776.04 -222.25,160.76 -441.91,347.22 -626.15,543.72 -1573.18,1677.8 -1535.14,4262.03 81.24,5880.87 1059.9,1061.51 2830.71,1670 4698.34,872.5 1438.83,-614.39 2502.3,-2161.89 2502.3,-3796.73z"/>
   <path class="fil1" d="M6045.72 10383.92l6.62 114.25 -236.31 7.02 -2.23 -108.66 231.92 -12.62zm-1074.93 -365.53c338.43,-131.86 313.64,557.57 90.42,629.19 -343.03,110.05 -307.57,-544.58 -90.42,-629.19zm-425.73 237.51l223.25 48.94 -20.49 112.15 -229.76 -54.49 26.99 -106.6zm2130.13 -311.84c162.36,-47.71 244.79,116.98 282.24,247.19 48.56,168.86 51.03,333.8 -109.55,379.35 -166.3,47.17 -242.14,-118.42 -279.08,-245.24 -49.41,-169.64 -57.82,-333.05 106.39,-381.3zm-1044.48 127.79c52.26,19.71 24.03,2.18 44.3,47.6 98.56,88.18 -51.78,214.44 -56.81,222.17 206.49,144.8 63.53,359.13 -121.87,346.82 -91.51,-6.08 -174.56,-64.81 -191.21,-146.83 -27.81,-137.02 52.28,-153.98 101.15,-215.3 -241.2,-195.84 100.09,-373.88 224.45,-254.45zm-1195.83 -205.14c42.78,16.88 43.05,10.29 57.99,57.8 107.96,98.73 -20.11,398.34 -86.49,471.32 -105.24,115.69 -349.89,106.1 -349.64,-135.71l97.87 18.61c25.85,41.3 20.46,127.9 124.6,88.25 42.8,-16.3 76.02,-81.85 89.15,-141.33 -95.2,19.75 -146.22,24.69 -203.16,-43.49 -41.36,-49.51 -60.07,-118.19 -34.82,-197.37 58.38,-183.06 244.95,-179.26 304.51,-118.07zm1641.46 342.34c20.71,-266.51 319.71,-240.34 387.64,-109.78 102.18,196.37 -175.88,335.87 -183.87,441.9l240.38 -22.4 2.65 105.55 -416.2 40.43c10.19,-222.56 396.35,-447.95 222.81,-553.46 -113.48,-68.99 -150.62,94.51 -152.72,97.76l-100.7 0zm1124.1 -428c26.04,34.46 203.2,536.08 216.34,602.22l-102.36 36.42c-29.97,-68.48 -52.84,-146.96 -77.28,-214.19l-85.43 -210.65c-32.34,25.84 -78.25,88.22 -115.34,122.84l-28.27 -95.65c48.49,-50.03 103.04,-107.72 111.9,-213.65l80.45 -27.35zm-3495 -39.51c18.76,-53.66 2.02,-25.78 45.19,-47.61 75.36,-88.5 378.61,8.69 314.79,214.17 -55.63,179.12 -306.63,168.19 -360.34,253.45l217.37 91.73 -39.27 96.2 -390.72 -160.24 18.33 -21.05c20.29,-49.15 21.95,-49.61 71.14,-70.28 35.39,-51.39 252.53,-107.75 323.36,-154.52 117.66,-77.69 20.91,-292.33 -128.18,-122.34l-96.5 -47.72 24.83 -31.78zm3870.77 193.72c2.33,-1.92 5.1,-5.04 6.37,-6.44l32.74 -40.8c12.94,-15.69 19.68,-22.94 37.55,-34.35 32.52,-20.77 79.11,-30.04 126.11,-19.66 70.67,15.6 130.28,83.75 151.76,151.08 60.61,190.03 -140.46,339.45 -298.39,237.67 -72.96,-47.02 -216.66,-264.05 -194.67,-415.54 24.08,-165.91 260.02,-265.6 344.52,-101.79l-87.3 55.36c-57.23,-91.64 -200.2,-41.45 -118.7,174.49zm2328.99 -4177.39c0,1634.84 -1063.47,3182.34 -2502.3,3796.73 -1867.64,797.49 -3638.44,189.01 -4698.34,-872.5 -1616.38,-1618.83 -1654.42,-4203.06 -81.24,-5880.87 184.24,-196.5 403.91,-382.96 626.15,-543.72 554.46,-401.07 1438.88,-776.04 2367.14,-776.04l146.2 0c1597.55,0 3137.89,1047.43 3761.02,2464.55 253.08,575.55 381.37,1090.28 381.37,1811.86zm-509.85 -2619.48c21.4,-48.89 22.34,-49.45 71.14,-71.59 31,-52.53 258.2,-189.24 431.28,-6.13 126.37,133.7 138.56,299.55 8.13,431.83 -380.68,386.06 -719.4,-192.04 -510.55,-354.11zm-7994.27 67.06l666.78 105.93 -60.07 109.58 -155.83 -20.64c-28.93,29.79 -92.04,140.33 -112.36,176.07 -43.18,75.93 27.25,109.08 70.18,170.99l-60.12 107.99 -423.21 -536.76 74.64 -113.14zm683.24 -93.03l83.67 63.88 -62.65 86.9 -88.35 -65.91 67.32 -84.86zm413.41 -849.71c46.75,22.72 50.02,24.82 72.74,71.58 49.57,24.2 133.47,180.29 36.94,317.85 -33.24,47.37 -173.54,209.9 -219.39,226.59l-456.33 -429.18c44.27,-23.76 157.61,-179.69 228.98,-232.25 95.01,-69.97 283.17,-47.19 337.07,45.41zm6748.89 290.22l-35.11 22.87 -271.33 231.36 -65.77 -79.23 481.36 -412.57c109.46,112.75 71.02,99.17 18.92,269.15 -25.93,84.6 -77.75,214.29 -88.85,296.06 71.38,-26.33 239.04,-212.89 327.87,-265.55l70.88 76.37 -486.68 411.4 -73.82 -86.16c15.6,-101.84 114.61,-351.06 127.12,-412.12 8.64,-42.17 1.38,-41.5 -4.58,-51.56zm-6406.18 -266.78l68.13 84.83 -85.07 66.09 -68.86 -81.02 85.81 -69.91zm6116.89 -344.16l95.12 88.6 -224.48 642.14 -96.7 -92.31 46.79 -154.58c-64.94,-38.42 -136.25,-131.26 -201.45,-157.75l-134.67 66.49 -91.2 -79.83 606.58 -312.76zm-259.45 -61.56c-31.01,-32.77 -104.42,-90.62 -145.09,-104.72 -41.58,29.09 -286.72,360.27 -322.41,419.6l-98.64 -73.38c44.98,-41.53 303.74,-385.64 315.21,-436.4l-138.38 -106.55c16.61,-33.87 33.46,-52.75 53.77,-77.45l399.04 300.26 -63.51 78.64zm-5478.1 -507.98l54.18 81.85c-44.31,25.3 -228.67,137.55 -252.43,173.41l70.54 113.31c1.45,1.49 6.17,8.41 7.25,6.28 1.1,-2.17 4.83,4.32 9.38,9.03l220.78 -139.31 44.05 83.8 -190.78 125.28c-14.37,12.23 -10.27,8.69 -24.41,23.31l141.02 227.66 -97.56 59.86 -338.58 -534.59 356.57 -229.89zm4793.63 463.18c-16.15,53.46 -2.97,20.81 -28.26,37 -68.64,86.85 -218.23,47.32 -304.06,-7.79 -103.42,-66.41 -140.38,-123.4 -109.67,-291.24l113.32 43.74c-40.42,191.7 173.51,245.1 225.53,157.42 50.34,-89.59 -80.3,-134.76 -102.59,-183.28 -51.75,-22.19 -23.8,-4.44 -45.95,-48.77 -113.5,-61.25 -60.37,-315.92 139.81,-285.22 253.48,38.88 322.69,319.32 207.06,301.03l-75.91 -32.67c-3.2,-83.39 -0.7,-104.8 -57.56,-137.97 -46.6,-27.18 -92.15,-30.06 -141.47,-16.32 -32.49,104.59 77.95,153.26 133.04,208.68 48.59,48.88 132.69,163.01 46.7,255.39zm-4615.63 -536.87c158.03,-90.5 496.49,-285.32 554.31,-16.92 21.68,100.67 -48.99,138.09 -79.41,187.49l44.19 19.51c76.59,27.59 203.27,99.95 248.41,151.05 -238.01,161.56 -214.74,-161.8 -504.65,-66.34 18.03,90.13 78.48,165.77 104.28,253.19l-104.55 49.58 -262.58 -577.57zm2334.5 -562.49l135.57 5.67 233.62 642.72 -126.65 -4.31 -50.1 -146.31 -269.26 -4.03 -63.26 141.92 -120.56 -3.74 260.63 -631.92zm1781.72 337.62l119.13 38.31 -225.73 598.27 -108.25 -37.66 214.85 -598.92zm-3014.38 -200.28l28.26 91.8c-68.6,18.42 -287.84,78.35 -331.62,104.27l38.11 141.42 314 -89.48 28.72 91.33 -308.79 99.06 50.51 170.71 347.85 -98.41 22.69 93.43 -459.14 134.91 -178.04 -610.42 447.44 -128.61zm2497.66 21.83l114.75 40.24 -165.92 502.6 302.04 105.01 -28.18 93.47 -424.43 -143.3 201.72 -598.02zm-2200.82 -93.1l111.06 627.19 -116.74 16.64 -100.17 -627.25 105.85 -16.57zm147.3 -18.51c189.95,-19.91 419.26,-99.62 491.31,74.01 42.54,102.51 3.17,192.83 -57,238.35 -69.03,52.22 -158.24,42.03 -248.79,63.69 -27.09,47.67 16.05,147.62 10.47,243.82l-115.15 13.2 -80.84 -633.06zm1826.06 64.15c-73.63,343.55 -23.81,648.09 -356.19,590.9 -344.23,-59.23 -176.45,-383.92 -145.26,-678.3l118.9 16.72c-24.03,293.01 -155.25,531.49 46.31,560.25 146.8,20.94 144.06,-81.83 164.58,-203.33 16.99,-100.62 30.99,-200.22 49.63,-298.41l19.47 -5.77c45.54,-7.7 -27.95,-0.94 20.1,-2.69 9.93,-0.36 21.11,1.14 30.94,2.87 27.84,4.9 36.86,8.52 51.52,17.76zm-1080.13 -388.6c-2918.32,0 -5240.37,2356.96 -5243.57,5237.58 -3.22,2892.48 2337.25,5248.78 5243.57,5243.86 2887.73,-4.89 5239.69,-2333.09 5237.52,-5243.86 -2.16,-2895.77 -2342.79,-5237.58 -5237.52,-5237.58z"/>
   <path class="fil1" d="M4039.31 5443.06l43.2 -4.4 905.71 2.27c73.64,-23.06 538.05,-6.39 652.75,-6.17 215.67,0.4 450.04,12.5 663.2,1.76l1517.62 -1.62c-0.11,369.82 50.13,758.44 60.88,1126.52 4.66,159.52 4.96,127.07 -63.35,229.54 -184.36,276.57 -418.12,593.01 -630.58,843.08 -191.16,225.01 -691.8,767.9 -890,900.02l-0.28 232.87c-44.92,25.64 -108.61,87.49 -155.26,124.71 -102.02,81.39 -420.3,324.47 -514.4,350.96 -49.57,-31.57 -622.57,-411.4 -638.24,-487.64l-3.77 -252.32c-52.26,-28.07 -68.53,-51.54 -112.73,-88.64 -36.45,-30.58 -73.46,-60.92 -112.14,-95.3 -63.83,-56.75 -154,-153.2 -215.46,-195.37l3.66 90.3c21.48,23.24 9.1,8.49 20.57,49.26 8.74,31.08 5.71,33.33 17.05,59.96 -53.38,-24.24 -177.92,-196.75 -185.62,-360.15 -47.75,-26.14 -69.37,-67.95 -112.39,-100.49l-7.64 22.28c-16.32,-24.33 -33.35,-42.27 -51.01,-69.75 -22.88,-35.6 -29.3,-55.81 -52.1,-89.07 -131.47,-94.26 -545.14,-713.84 -639.58,-877.62 -68.66,-119.06 -97.14,-116.92 -92.86,-286.07l22.3 -1120.89 570.5 1.97zm-53.24 -1546.35l223.08 1.85 429.74 1308.04 -225.43 0c-14.26,-53 -34.92,-108.06 -53.06,-165.47 -40.07,-126.82 -17.89,-125.29 -71.45,-133.94 -57.03,-9.21 -343.45,-2 -413.58,2.45l-88.99 297.32 -221.22 -3.09 420.91 -1307.16zm1287.91 1297.17c-47.74,40.64 -422.35,22.7 -509.41,14.92l0 -1314.18c64.27,-5.74 501.17,-16.24 516.61,16.93 289.73,-18.69 391.16,391.12 391.11,652.35 -0.03,163.2 -31.43,312.46 -93.63,426.45 -48.19,88.32 -162.54,212.29 -304.69,203.54zm2194.55 -1237.7c49.03,21.81 49.19,22.21 70.4,71.59 119.07,96.54 95.92,414.67 6.31,540.21 -126.06,176.62 -278.92,119.09 -537.37,145.58l-3.51 493.04 -207.41 0 2.97 -1309.78c146.05,0 595.04,-35.69 668.61,59.36zm-1596.08 -59.36l733.17 0 -2.56 213.16 -522.33 2.08 0.35 320.62 452.26 0.22 -2.57 213.17 -449.95 1.58 -3.54 558.96 -207.42 0 2.58 -1309.78zm-1767.39 4406.47c39.21,26.85 84.88,76.88 109.74,122.66 28.28,7.96 102.52,82.16 110.42,110.42 46.26,24.91 95.83,70.12 122.22,110.19 291.82,247.42 849.78,736.59 1205.7,915.04 77.79,-32.1 275.92,-192.27 357.67,-253.58 378.73,-284.01 662.48,-533.14 1006.41,-843.96 18.75,-29.12 228.39,-238.82 257.64,-257.79 391.54,-454.94 604.36,-663.59 920.87,-1222.85 162.89,-287.83 117.02,-179.7 89.72,-579.83l-146.12 -2010.11c-15.03,-217.35 -44.75,-458.48 -46.8,-673.13l-1418.79 -614.13c-78.14,166.57 -259.09,350.22 -388.7,444.2 -378.26,274.26 -870.74,274.83 -1258.79,7.01 -252.5,-174.26 -266.04,-263.93 -389.18,-413.96 -10.8,-13.16 -9.46,-11.57 -19.51,-21.06l-1410.5 618.64c-21.17,100.38 -181.09,2585.54 -194.16,2735.92 -27.7,318.66 -38.83,258.11 141.26,560.52 290.18,487.29 577.28,853.85 950.91,1265.81z"/>
   <path class="fil1" d="M9612.48 9412.93c-25.07,46.25 -53.41,69.7 -88.89,105.66 -35.51,35.98 -58.74,64.46 -105.73,89.28 -8.06,31.57 -126.18,125.42 -166.84,161.45 -2126.3,1884.45 -5385.43,1756.92 -7389.92,-243.79 -1774.34,-1770.99 -2144.95,-4630.63 -671.73,-6831.05 111.71,-166.84 298.59,-415.02 433.73,-565.25 36.67,-40.77 124.43,-152.35 155.66,-160.47 30.01,-56.81 113.71,-140.53 170.57,-170.57 9.17,-39.12 279.54,-258.26 332.18,-300.77 1949.14,-1574.43 4711.8,-1612.69 6690.62,-93.6 60.19,46.21 315.91,243.89 336.08,286.47 40.35,20.41 62.46,38.68 85.33,73.07 374.16,325.71 891.57,992.12 1153.22,1560.97 303.97,660.84 504.86,1290.5 546.87,2168.95 61.59,1287.67 -396.65,2605.84 -1171.9,3571.06 -47.71,59.4 -270.17,335.17 -309.25,348.58zm-3837.5 1961.51c788.82,-0.04 1618.78,-215.45 2307.35,-530.48 638.57,-292.15 1252.41,-743.16 1662.34,-1177.53l340.74 -377.74c105.21,-122.54 206.4,-264.2 303.17,-403.91 398.24,-574.99 698.11,-1279.2 850.65,-1975.87 43.21,-197.35 78.39,-397.27 101.25,-605.11 6.88,-62.54 13.44,-106.09 14.43,-168.28 1.08,-68.08 12.21,-88.75 12.64,-157.9l7.05 -337.48c-11.86,-99.97 -4.73,-245.77 -16.81,-348.03 -13.51,-114.38 -16.14,-213.05 -29.76,-323.51 -69.74,-565.65 -244.63,-1151.84 -472.5,-1647.55 -459.96,-1000.59 -1084.11,-1696.44 -1939.34,-2312.73 -143.07,-103.1 -284.18,-182 -434.75,-271.94 -454.67,-271.56 -1009.69,-467.94 -1527.54,-592.37 -195.68,-47.02 -387.59,-75.21 -603.1,-103.44 -179.72,-23.54 -554.59,-49 -742.75,-37.86 -231.23,13.69 -270.96,-5.15 -558.63,34.36 -223.68,30.72 -402.04,58.38 -603.77,102.53 -1063.18,232.67 -1975.73,751.13 -2743.67,1496.44 -441.95,428.93 -873.53,1003.36 -1171.44,1656.1 -318.66,698.19 -530.54,1510.97 -530.53,2295.17 0.01,891.48 153.97,1689.7 521.47,2474.83 398.47,851.29 1106.91,1767.46 1914.45,2289.81 74.59,48.24 138.55,92.75 211.59,141.52 214.06,142.9 454.86,254.6 680.3,367.69 159.62,80.07 334.63,136.97 506.09,200.79 171.41,63.8 348.88,114.07 537.64,156.24 519.66,116.1 836.96,156.32 1403.43,156.27z"/>
   <path class="fil2" d="M5689.7 459.36c2894.73,0 5235.36,2341.81 5237.52,5237.58 2.17,2910.77 -2349.79,5238.98 -5237.52,5243.86 -2906.32,4.91 -5246.8,-2351.39 -5243.57,-5243.86 3.21,-2880.62 2325.26,-5237.58 5243.57,-5237.58zm-3740.35 1338.84l-170.57 170.57c-31.23,8.12 -118.99,119.7 -155.66,160.47 -135.14,150.23 -322.02,398.41 -433.73,565.25 -1473.23,2200.42 -1102.61,5060.06 671.73,6831.05 2004.49,2000.71 5263.63,2128.24 7389.92,243.79 40.66,-36.03 158.77,-129.88 166.84,-161.45l194.62 -194.94c39.08,-13.41 261.54,-289.18 309.25,-348.58 775.25,-965.22 1233.49,-2283.39 1171.9,-3571.06 -42.02,-878.46 -242.91,-1508.12 -546.87,-2168.95 -261.66,-568.85 -779.06,-1235.26 -1153.22,-1560.97l-85.33 -73.07c-20.17,-42.59 -275.89,-240.27 -336.08,-286.47 -1978.82,-1519.09 -4741.48,-1480.83 -6690.62,93.6 -52.63,42.51 -323,261.65 -332.18,300.77z"/>
   <path class="fil2" d="M7274.87 8206.27c-20.89,50.49 -83.92,97.36 -122.1,135.53 -38.35,38.35 -84.83,100.94 -135.53,122.26 -343.93,310.83 -627.68,559.96 -1006.41,843.96 -81.76,61.31 -279.89,221.48 -357.67,253.58 -355.92,-178.45 -913.88,-667.62 -1205.7,-915.04 -44.45,-18.16 -85.86,-68.44 -122.22,-110.19 -7.91,-28.26 -82.14,-102.46 -110.42,-110.42 -41.6,-36.09 -92.61,-78.3 -109.74,-122.66 -373.63,-411.96 -660.72,-778.52 -950.91,-1265.81 -180.09,-302.41 -168.95,-241.86 -141.26,-560.52 13.07,-150.38 172.99,-2635.54 194.16,-2735.92l1410.5 -618.64c10.05,9.49 8.71,7.9 19.51,21.06 123.14,150.03 136.68,239.7 389.18,413.96 388.05,267.81 880.53,267.24 1258.79,-7.01 129.62,-93.98 310.57,-277.63 388.7,-444.2l1418.79 614.13c2.05,214.65 31.77,455.79 46.8,673.13l146.12 2010.11c27.3,400.13 73.17,292 -89.72,579.83 -316.5,559.27 -529.33,767.91 -920.87,1222.85zm-2596.39 -5262.67l-1607.08 707.22c-41.39,703.81 -99.09,1413.23 -147.88,2119.11 -12.16,175.84 -24.4,348.28 -36.56,523.88 -42.13,608.42 -89.76,396.25 200.2,897.11 67.98,117.43 153.55,240.32 225.61,347.1 75.12,111.3 156.68,220.17 236.69,323.71 204.09,264.12 428.02,516.46 666.58,746.63l293.5 278.89c34.35,26.23 34.99,29.49 71.26,62.51 29.46,26.82 45.43,34.98 80.19,66.38 144.55,130.59 856.66,661.67 1004.35,711.09 224.62,-152.34 438.37,-319.44 649.76,-480.84l769.01 -656.6c91.87,-82.89 102.4,-111.19 209.8,-204.34l474.21 -537.16c205.09,-267.99 283.69,-364.6 468.01,-664.94 53.8,-87.66 169.93,-271.94 205.76,-366.95 22.97,-60.91 -204.23,-2985.21 -220.43,-3188.23l-1602.4 -695.66c-217.64,376.09 -482.24,690.13 -965.9,688.56 -673.21,-2.19 -932.37,-635.63 -974.67,-677.46z"/>
   <path class="fil3" d="M6542.01 7819.42c21.03,-70.92 84.79,-161.9 128.87,-203.2 66.24,-62.07 103.65,-97.95 213.69,-102.74l-80.09 153.01 211.36 -4.92c-30.78,44.05 -136.15,121.99 -195.59,153.58 -107.45,57.11 -174.24,38.42 -278.23,4.27zm-244.44 -1681.55c6.31,47.39 43.18,113.97 58.51,183.8 13.55,61.75 26.1,147.26 26.82,215.83 1.86,176.94 -50.11,270.87 -85.57,405.66 10.11,73.52 4.17,153.32 4.2,227.97 0.01,36.63 1.21,74.35 0.91,110.68 -0.4,48.73 10.07,67.06 -22.43,84.18 53.06,-2.81 38.96,-5.97 67.35,24.59 42.96,46.23 -16.76,40.96 61.59,33.46 -3.86,-11.68 -96.19,-276.18 0.24,-218.05l78.9 57.39 28.08 -119.22c10.94,-22.66 5.86,-12.93 18.9,-27.48 17.25,46.06 54.43,99 97.47,126.97 23.27,-31.23 36.3,-34.77 63.65,-58.57l8.33 64.61c61.65,-174.74 40.43,-157.6 -0.06,-325.75 -36.41,17.84 -103.9,50.01 -150.5,47.42 -2.92,-0.16 -7.62,-1.4 -9.99,-1.66 -2.41,-0.27 -8.24,1.11 -9.97,-2.59 -1.76,-3.75 -6.83,-1.57 -9.95,-3.08 10.23,-11.26 7.8,-8.55 21.36,-20.32 2.78,-2.41 11.35,-9.33 14.25,-11.65l93.38 -63.98c-86.54,-89.84 -106.39,65.49 -173.69,-97.02 -63.01,-152.16 -18.56,-56.88 42.96,-144.04 27.39,-38.81 -0.05,-39.83 51.65,-83.45 25.34,-7.52 217.54,12.43 252.84,20.43 -12.43,-209.61 -139,-150 -198.84,-147.06 -134.85,6.63 -188.44,-38.92 -223.1,-140.7l121.63 27.11c7.62,-209.78 -96.54,-228.28 -82.76,-278.79 37.38,-11.97 167,65.57 226.54,82.36 -2.12,-56.59 -3.87,-39.82 -15.81,-85.42 -6.81,-25.99 -7.62,-34.83 -11.56,-63.12 -25.22,-181.33 -102,-177.71 -170.68,-279.41l194.18 32.2c10.16,-77.29 42.67,-150.38 89.16,-191.06 116.65,69.22 77.92,110.67 129.64,167.03 22.51,-41.23 58.52,-87.22 115.46,-119.33 -1.76,75.61 8.08,207.97 -30.07,264.62 -57.3,85.1 -26.6,131.11 -2.97,222.23 -49.07,-22.27 -68.49,-45.02 -121.83,-67.31 6.61,95.18 15.41,187.73 23.77,282.2l17.11 213.23c1.84,11.82 3,17.75 7.16,29.16 10.83,29.76 -2.18,7.24 13.03,24.71l37.92 -35.41c-7.78,-81.27 -88.1,-221.37 -3.39,-284.36 55.31,-41.13 78.43,12.89 134.83,-21.35 42.68,-25.91 42.73,-57.4 124.66,-45.76 33.89,38.19 20.27,41.45 47.8,84.05 25.49,39.44 33.48,19.6 73.23,47.95 1.11,60.79 -16.3,36.85 -28.13,79.21 -8.29,29.68 28.31,81.22 -49.52,111.71 -147.83,57.91 -149.4,-75.54 -294.1,130.74 -58.96,84.05 -28.53,108.87 -35.68,223.97 -4.47,71.9 -24.12,141.64 -30.2,209.91 63.16,-35.98 57.29,-34.47 51.5,-122.77 -9.74,-148.35 87.22,-321.54 177.03,-365.14l10.36 175.16c10.62,-22.83 66.64,-79.21 93.95,-97.57 43.77,-29.43 90.12,-48.34 157.78,-53.88l-120.96 240.93 196.42 -4.79c-58.34,100.86 -188.06,229.75 -344.84,259.64 40.52,22.65 43.88,19.25 107,25.22 161.45,15.28 70.58,99.57 81.14,145.79 9.42,41.25 35.61,17.81 37.95,87.28 -37.45,20.53 -47.85,3.36 -114.7,67.74 -1.81,1.74 -4.48,4.15 -6.21,5.96 -99.32,103.38 -44.92,44.45 -162.33,25.53 -6.83,45.01 3.07,48.72 -18.48,72.76 -37.53,-55.25 -21.55,-61.35 -73.1,-95.61 -53.97,-5.71 -198.21,65.49 -238.07,102.31 -20.39,18.83 -47.37,72.59 -69.03,101.18 -81.3,107.32 -172.05,194.74 -226.29,273.24 -32.29,46.73 -103.52,161.66 -134.96,189.93 31.33,65.24 10.84,364.27 10.31,463.86 198.21,-132.12 698.84,-675.01 890,-900.02 212.46,-250.07 446.22,-566.51 630.58,-843.08 68.31,-102.47 68.01,-70.02 63.35,-229.54 -10.75,-368.09 -60.99,-756.7 -60.88,-1126.52l-1517.62 1.62 -6.6 701.34z"/>
   <path class="fil3" d="M4178.94 7725.67c-16,-102.02 22.45,-118.17 -14.05,-186.63 -30.2,-56.64 -58.99,-104.74 -67.06,-177.45 -23.42,-211.08 98.32,-226.4 268.84,-190.46 -20.23,-97.92 -80.67,-259.71 -176.06,-264.32 -95.26,79.81 -21.5,202.7 -121.3,234.6 -118.91,-71.4 -95.78,-526.89 233.2,-358.43 0.79,-146.05 -180.95,-414.36 -236.36,-394.74 -62.13,46.67 -49.31,179.35 -92.45,244.26 -110.11,-158.24 -187.57,-256.36 10.33,-390.18 62.92,3.38 114.06,23.99 170.04,43.15 -23.02,-78.12 -109.86,-201.97 -169.03,-224.9 -123.4,-47.81 -127.73,126.77 -151.46,218.17 -40.61,-71.82 -83.01,-170.92 -46.11,-266.55 32.78,-84.97 107.28,-89.65 171.35,-82.35 70.12,7.98 33.58,23.61 60.73,-13.53 -38.87,-15.67 -68.8,-147.99 -73.43,-185.7l63.61 30.11c0.78,-158.49 -106.71,-208 29.56,-317.66l-570.5 -1.97 -22.3 1120.89c-4.28,169.15 24.2,167.01 92.86,286.07 94.44,163.78 508.11,783.36 639.58,877.62z"/>
   <path class="fil0" d="M5523.37 8034.84l7.5 16.36c9.2,48.74 10.81,194.99 -11.74,226.88 -62.94,-11.56 -24.49,-26.23 -31.61,-108.92 -7.85,-91.18 9,-24.09 -22.15,-48.01l-25.63 9.96c2.09,-34.77 2.19,-29.32 23.4,-52.77l60.22 -43.49zm104.3 95.78c100.25,-35.32 124.05,82.09 51.59,146.14 -67.93,-0.12 -86.37,-21.59 -92.11,-93.74 -13.19,-165.72 103.57,-189.48 129.37,-85.99 -90.71,-6.91 4.22,-18.21 -69.9,-18.6l-18.95 52.19zm-171.88 -154.25c-46.46,-87.06 -30.56,-302.35 75.16,-220.68 30.23,23.35 33.48,111.69 25.7,158.58 -11.56,69.74 -39.02,76.05 -100.87,62.1zm149.63 -203.53c0,-37.95 108.73,-51.18 105.41,31.12 -1.81,44.86 -21.08,17.58 -7.43,60.71 37.19,117.56 -25.43,146.58 -111.55,91.88 -9.2,-78.71 13.15,-84.9 13.78,-103.73 0.6,-17.91 -29.31,-42.69 -0.21,-79.98zm68.04 -171.24c-113.12,56.67 -119.16,-152.14 -21.9,-145.17 88.48,6.34 83.82,179.78 24.55,235.34 -64.2,9.21 -79.57,6.73 -83.09,-54.43 71.64,5.03 0.63,14.06 71.48,18.62l8.96 -54.36zm-119.15 -111.45c24.76,67.93 -38.88,119.72 -64.41,160.99 65.73,0 58.2,-15.39 69.07,31.69 -12.67,6.21 8.95,3.34 -28.2,9.68l-102.59 0.82c11.69,-105.91 130.42,-131.67 73.49,-199.43 -72.6,21.38 18.21,25.26 -72.57,33.02 9.03,-48.71 9.84,-65.02 56.48,-70.28 34.84,-3.93 58.61,5.77 68.72,33.5zm-565.69 -261.29c101.23,155.99 135.52,139.46 112.14,413.57 -14.36,168.33 -41.16,-43.12 -0.77,203.86 13.38,81.8 15.25,166.16 15.25,251.48 -42.51,-12.56 -37.44,-60.16 -64.27,-141.76 -16.03,-48.74 -39.2,-91.46 -64.12,-122.56l3.14 197.12c20.98,53.29 55.66,58.9 90.9,90.7 36.98,33.39 62.44,58.01 102.16,86.19 69.02,42.34 331.55,273.42 431.84,230.1 120.81,-52.18 354.61,-215.84 413.64,-291.77 -31.66,-54.74 -56.12,-80.72 -50.02,-170.7 1.28,-19 10.95,-81.7 16.44,-98.57 18.98,-58.32 1.65,-20.66 19.89,-25.48l32.58 2.34c10.48,-69.42 30.04,-101.58 72.98,-127.97l21.04 66.48c35.33,-46.49 37.68,-71.6 80.62,-100.63 -54.42,-36.49 -28.96,-9.32 -46.94,-79.87 -15.25,-59.83 -27.05,-33.4 -32.65,-102.18 36.19,-36.89 44.6,-25.63 69.21,-59.57 38.63,-53.29 7.98,-57.62 68.34,-83.68 32.49,-17.11 22.03,-35.45 22.43,-84.18 0.3,-36.33 -0.89,-74.05 -0.91,-110.68 -0.03,-74.65 5.91,-154.45 -4.2,-227.97 -38.85,52.97 -61.12,107.59 -106.53,168.35 -302.95,405.31 -910.37,403.53 -1204.14,-178.78l1.98 296.14z"/>
   <path class="fil1" d="M5422.69 2228.83l-597.8 18.43 461.45 380.57 -166.21 570.92c79,-16.92 401.61,-262.18 508.64,-314.25l488.45 332.1 -145.48 -577.48c35.21,-41.88 179.39,-141.66 230.79,-181.92 44.41,-34.78 213.58,-150.94 233.19,-193.61l-589.03 -30.31 -203.16 -558.06c-8.94,9.55 -7.74,6.58 -16.83,22.47l-204.02 531.14z"/>
   <path class="fil2" d="M6064.82 6556.95c16.74,38.91 0.73,7.67 36.08,41.57l7.36 84.4c-15.94,82.25 18.29,76.22 -44.46,131.03 -159.35,139.21 -96.94,37.27 -213.65,54.18 -63.03,9.13 -81.33,-8.87 -109.92,-52.11 -78.18,27.96 -60.37,42.38 -169.35,52.57 -75.55,216.46 -130.17,242.94 -208.09,361.42 162.01,72.08 306.07,116.23 501.44,29.01 141.49,-63.16 246.75,-171.11 318.86,-299.88 122.32,-218.44 143.88,-510.68 38.28,-759.27 -26.5,-62.39 -79.57,-162.27 -118.52,-186.22l-96.32 -96.32c-49.59,-89.87 -400.07,-238.48 -683.02,-37.54 -164.22,116.62 -301.81,316.01 -324.31,608.54l130.03 -133.49 -36.6 -118.38c58.02,2.35 83.49,23.63 135.51,32.98 83.48,15.01 74.43,-0.56 130.89,46.62 -18.07,-81.37 -23.7,-121.14 11.56,-193.79l74.97 -110.05c117.31,-63.01 -85.07,196.13 21.99,186.59 4.71,-0.42 19.18,-3.87 24.81,-4.99 29.84,-5.93 27.48,-14.08 66.94,-2.06 46.19,14.07 49.48,43.77 90.85,64.55 26.29,-76.72 -3.73,-131.51 15.19,-171.64 57.33,7.64 77.09,76.84 82,137.98 10.99,136.71 -9.74,64.44 59.6,162.47 40.14,56.76 209.35,102.28 257.89,171.8z"/>
   <path class="fil0" d="M5764.04 8499.45l1.3 23.74c79.42,9.31 137.4,45.97 156.18,117.1 -152.31,-3.99 -226.24,-39.9 -344.19,-52.29 -40.61,-4.27 -118.23,15.13 -166.8,21.15 -46.86,5.82 -130.84,26.78 -160.53,11.79 43.81,-44.46 124.07,-54.62 171.11,-96.91 -174.11,-68.05 -308.9,-179.09 -432.96,-268.21l-1.38 246.81 3.77 252.32c15.67,76.24 588.67,456.07 638.24,487.64 94.11,-26.49 412.38,-269.58 514.4,-350.96 46.66,-37.22 110.34,-99.08 155.26,-124.71l0.28 -232.87c0.54,-99.6 21.02,-398.62 -10.31,-463.86 -69.22,114.97 -146.96,160.04 -240.96,238.62 -73.43,61.38 -185.78,142.02 -283.43,190.64z"/>
   <path class="fil3" d="M4247.14 5652.81c26.25,31.59 13.77,76.63 24.4,47.91 0.69,-1.86 2.52,6.05 4.44,8.67 19.67,-37.06 20.01,-38.29 55.55,-54.57 32.73,101.15 71.95,106.3 32.04,235.82 97.22,-20.32 161.86,14.8 194.67,74.34 -87.92,55.26 -222.23,85.98 -277.65,313.23 32.82,-54.77 83.31,-92.66 123.91,-136.59 235.11,-254.42 346.96,111.25 310.45,270.52 -54.38,-41.26 -99.7,-250.44 -217.1,-189.78 -64.37,33.26 -99,141.52 -113.98,215.97 -7.65,38.02 -10.36,62.32 2.22,90.81 37.07,-22.87 32.17,-34.74 82.95,-55.53 180.41,-73.86 368.02,14.39 401.86,200.32 8.58,47.11 8.11,84.75 4.38,132.21 -1.01,12.85 -3.94,44.04 -6.69,55.56 -4.47,18.77 -3.37,11.86 -9.79,27.64l-9.75 16.95c-23.95,-28.83 -28.13,-62.3 -40.95,-96.73 -12.05,-32.36 -27.12,-61.38 -43.68,-89.83 -151.01,-259.44 -318.38,-98.93 -275.3,255.14 57.27,-155.52 171.83,-136.75 300.5,-61.34 111.68,65.45 168.81,125.72 150.85,308.25l48.15 7.09 -1.98 -296.14c-43.4,-146.42 -76.9,-210.77 -76.93,-395.14 -0.03,-159.73 29.63,-262.4 78.95,-389.74l-0.45 -706.91 -905.71 -2.27c2.76,25.69 6.54,70.72 24.98,86.74 28.19,24.51 27.62,-4.68 68.62,-12.55 27.99,43.32 69.29,81.87 71.04,139.96z"/>
   <path class="fil2" d="M4980.35 4110.39c386.01,-3.05 473.59,35.94 473.59,441.27 0,481.51 -139.57,441.66 -473.89,441.66l0.31 -882.93zm293.63 1083.49c142.16,8.74 256.51,-115.22 304.69,-203.54 62.19,-113.99 93.59,-263.24 93.63,-426.45 0.05,-261.22 -101.38,-671.04 -391.11,-652.35l-503.96 -9.52 0 1299.37c160.89,0 341.53,7.59 496.76,-7.51z"/>
   <path class="fil1" d="M5153.75 6294.05c76.67,17.06 150.45,72.22 173.76,142.76 -74.88,0.62 -75.84,-1.88 -113.22,-45.04 -32.06,-37.01 -48.57,-44.99 -60.53,-97.72zm535.71 -35.41c4.8,-13.46 16.79,-32.34 22.07,-41.68 1.97,50.2 14.45,56.57 -21.84,76.47 -9.63,-19.32 -13.77,3.17 -0.23,-34.79zm-280.68 61.08c-17.46,-47.32 -23.86,-70.85 -20.84,-136.85 41.75,90.29 95.4,61.82 104.24,159.74l-83.4 -22.89zm597.74 -402.39c50.01,23.61 72.5,46.48 96.32,96.32 38.95,23.94 92.02,123.83 118.52,186.22 105.6,248.59 84.04,540.83 -38.28,759.27 -72.11,128.77 -177.37,236.72 -318.86,299.88 -195.37,87.22 -339.44,43.07 -501.44,-29.01 77.91,-118.48 132.54,-144.96 208.09,-361.42 108.98,-10.19 91.17,-24.61 169.35,-52.57 28.59,43.24 46.89,61.24 109.92,52.11 116.71,-16.91 54.3,85.03 213.65,-54.18 62.75,-54.81 28.52,-48.78 44.46,-131.03 -6.64,-10.08 -6.82,5.61 -14.98,-35.03 -3.85,-19.19 -2.33,-33.67 -2.93,-52.67 -57.81,8.69 -20.35,-11.94 -33.89,24.63 2.11,64.94 20.97,113.74 -12.03,150.4 -15.22,16.9 -78.56,70.61 -98.98,78.68l-33.44 -19.31c10.13,-34.86 13.62,-45.83 43.89,-61.39 58.35,-30 35.93,24.91 58.23,-35.69 -54.63,-49 -112.61,14.73 -128.37,50.53 -22.57,-16.98 -24.96,-25.46 -53.52,-17.64 -5.44,32.1 3.24,23.78 18.78,62.54 -75.78,0.74 -62.4,-29.67 -112.58,-64.74 -51.18,18.91 -113.79,91.07 -179.45,51.72 -66.07,-39.59 -45.2,-131.68 -100.77,-153.43 -18.99,24.92 -18.87,-5.39 -7.72,51.54 11.77,60.12 59.92,112.68 79.84,141.32 -43.43,120.83 -121.33,283.32 -208.14,346.09l-34.61 -31.6c-53.95,-25.43 -82.41,-53.88 -107.28,-107.31 -70.38,-48.36 -250.64,-428.72 -152.04,-540.06 34.6,-39.08 87.67,-109.61 137.55,-118.03 42.23,62.38 21.64,166.95 21.37,246.81l42.56 0 0 -183.4c37.15,7.81 84.89,17.55 125.44,1.71l37.62 -23.75c2.12,-1.41 5.43,-3.08 7.47,-4.52 32.84,-23.13 21.97,14.25 30.65,-36.72 -48.14,-22.91 -35.05,13.96 -79.98,-23.98 101.78,-27.96 257.43,57.08 144.89,-144.22 78.24,-18.11 88.67,40.16 142.18,74.68 68.02,43.88 83.3,16.28 127.84,89.46 49.83,81.86 47.19,43.93 128.81,92.44 39.64,23.56 79.57,57.67 126.01,74.63l25.18 11.18 18.97 -20.84c-48.54,-69.52 -217.75,-115.05 -257.89,-171.8 -69.34,-98.03 -48.61,-25.77 -59.6,-162.47 -4.91,-61.14 -24.67,-130.34 -82,-137.98 -18.92,40.13 11.1,94.92 -15.19,171.64 -41.37,-20.78 -44.66,-50.48 -90.85,-64.55 -39.46,-12.02 -37.1,-3.87 -66.94,2.06 -5.63,1.12 -20.1,4.57 -24.81,4.99 -107.06,9.54 95.32,-249.6 -21.99,-186.59l-74.97 110.05c-35.26,72.65 -29.63,112.42 -11.56,193.79 -56.45,-47.18 -47.41,-31.61 -130.89,-46.62 -52.02,-9.36 -77.49,-30.64 -135.51,-32.98l36.6 118.38 -130.03 133.49c22.49,-292.53 160.09,-491.92 324.31,-608.54 282.96,-200.95 633.43,-52.33 683.02,37.54zm-1017.86 230.52c-49.31,127.34 -78.98,230.01 -78.95,389.74 0.03,184.37 33.53,248.72 76.93,395.14 293.76,582.31 901.19,584.09 1204.14,178.78 45.41,-60.76 67.68,-115.38 106.53,-168.35 35.46,-134.79 87.43,-228.73 85.57,-405.66 -0.72,-68.57 -13.27,-154.09 -26.82,-215.83 -15.33,-69.83 -52.2,-136.41 -58.51,-183.8 -39.12,-47.04 -66.35,-117.8 -109.85,-171.52 -347.48,-429.1 -921.58,-369.24 -1199.05,181.5z"/>
   <path class="fil2" d="M3947.89 4694.44c-0.46,-45.6 121.61,-449.62 145.78,-482.22 1.97,2.11 4.22,5.45 5.15,6.95 0.93,1.51 3.83,5.19 4.92,7.11l17.29 42.85c26.95,88.08 121.24,375.67 120.36,425.3l-293.51 0zm-382.74 509.43l221.22 3.09 88.99 -297.32c70.13,-4.45 356.55,-11.66 413.58,-2.45 53.56,8.65 31.38,7.12 71.45,133.94 18.14,57.42 38.8,112.47 53.06,165.47l225.43 0 -429.74 -1308.04 -223.08 -1.85 -420.91 1307.16z"/>
   <path class="fil4" d="M5621.57 8572.22c81.66,-66.9 228.74,-28.53 269.8,43.29 -77.3,4.75 -202.31,-9.9 -269.8,-43.29zm514.56 -693.64c54.35,-48.06 -0.56,-104.56 101.82,-167.23 14.96,35.15 19.78,80.55 26.32,118.32 10.52,60.78 16.24,57.33 -16.17,94.1 -103.14,117.04 -76.56,35.45 -147.7,108.02 -31.3,-16.04 -30.49,-27.89 -64.25,-27.56 24.34,21.11 45.01,44.53 69.02,69.7 -30.83,23.12 -27.3,31.03 -62.15,46.28 -64.4,-69.18 -42.65,-145.3 -29.68,-235.57 3.67,1.65 7.7,4.66 10.3,6.29 67.5,42.17 47.7,31.83 47.95,-14.31 0.3,-55.02 -3.33,-66.18 32.35,-105.64 19.57,27.01 26.52,71.07 32.19,107.61zm162.47 -10.57c-14.15,-26.12 -36.67,-102.12 -15.21,-132.69 28.12,36.45 21.17,74.76 15.21,132.69zm73.37 -129c-22.56,-48.17 9.39,-50.56 48.77,-59.94 -10.73,37.03 -6.74,49.87 -48.77,59.94zm-111.11 -79.35l26.52 50.77c-9.12,-9.09 -9.8,-6.13 -18.7,-21.63 -9.43,-16.41 -4.2,-10.37 -7.82,-29.14zm181.97 41.23c41.05,-103.15 54.37,-53.89 102.04,-113.18 38.79,-48.24 -9.42,-62.3 82.95,-115.17 -10.81,53.65 -129.7,201.13 -184.99,228.34zm-181.97 -41.23l-56.3 -4.02c-29.05,-148.2 -31.99,-82.22 -40.29,-146.7 105.9,-48.36 47.28,-70.48 122.41,-126.53 44.31,11.93 54.08,30.27 70.95,74.11 107.03,-17.67 69.74,-23.03 80.45,59.48l108.17 15.72c-16.5,42.16 -59.75,87.01 -101.19,99.24 -85.48,-32.54 -42.14,-71.66 -88.85,-127.22l-32.98 57.74c-32.67,-46.44 -4.13,-36.64 -47.75,-49.12 -0.12,26.86 2.67,55.44 -6.35,80.61 -16.51,46.07 -2.42,-5.29 -28.69,41.9l20.42 24.78zm268.54 -491.8c17.15,14.49 9.95,7.45 26.56,26.34l64.51 78.89 62.82 -39.68c3.61,129.92 -36.49,217.59 -119.25,251.91 1.38,-69.4 6.17,-65.71 50.64,-92.3 -44.87,-36.29 -43.57,43.84 -59.96,-93.99 -26.59,27.93 -9.07,46.35 -16.43,94.28l-62.45 -45.2c-8.39,51.7 5.65,24.32 44.73,63.48 32.18,32.25 20.76,49.04 41.38,91.36 -127.09,-26 -175.24,-146.76 -168.24,-276.52l108.21 76.38 27.49 -134.94zm740.68 72.44c4.42,18.46 27.94,31.3 42.39,79.4 -128.29,16.18 -94.89,92.97 -186.85,117.37 -32.96,-33.2 -49.25,-89.51 -22.64,-146.33 2.02,2.32 4.18,5.91 5.22,7.61 32.74,53.54 21.49,57.75 54.68,67.74 -64.48,-175.75 -57.61,-81.34 -105.32,-150.52 -11.06,-16.04 -1.38,-11.49 -16.31,-28.96 -21.52,-25.18 18.74,-7.11 -18.83,-9.52l34.61 92.13 -68.58 0.03 -13.09 -104.74c-16.99,17.99 -31.69,46.21 -54.87,46.09 -34.15,-49.5 10.55,-43.96 54.05,-70 37.27,-22.31 43.39,-58.52 80.38,-61.44 35.37,-2.79 41.3,27.17 108.84,33.78 46.25,4.53 86.39,8.33 122.14,21.47 1.25,51.92 -22.15,79.37 -15.81,105.88zm-509.59 142.58c23.72,-215.31 79.58,-257.35 181.07,-370.21 26.74,12.08 58.78,30.15 86.97,45.96 -35.3,25.16 -22.24,24.89 -49.1,50.24 -29.86,28.19 -29.5,16.17 -61.94,35.22 -73.24,43.03 -13.37,76.71 4.54,112.33 -32.58,81.21 -77.31,100.52 -161.54,126.46zm44.05 -410.79c-2.11,-26.3 -9.33,-94.85 -6.19,-117.49 6.17,-44.47 24.04,-35.95 43.54,-70.91 13.75,100.1 -7.69,114.64 -37.35,188.4zm-333.01 -276.11c85.8,-86.96 97.76,-10.22 161.77,-54.65 52.9,-36.72 35.94,-102.9 167.92,-59.92 1.35,3.17 2.26,7.49 2.94,9.92l5.59 20.05c11.97,44.46 26.46,74.19 15.84,100.85 -14.57,36.61 -59.73,45.6 -94.31,69.03 29.86,21.9 57.59,-8.88 92.88,-24.46 -42.48,135.08 -197.45,58.26 -218.48,58.3 -27.26,0.04 -58.26,32.5 -86.54,-9.55l-47.62 -109.57zm490.68 266.67c-10.02,-80.21 -3.55,-155.55 25.09,-224.35 21.88,-52.54 67.28,-127.74 105.13,-131.84l16.94 193.44c41.32,-85.8 117.82,-184.94 228.13,-198.13l-118.14 235.7 186.56 -4.08c-25.43,56.94 -114.75,131.01 -177.4,170.62 -106.7,67.46 -167.54,41.98 -257.8,-1.14 13.34,-23.5 22.14,-33.35 46.53,-52.53 42.51,-33.42 13.57,-15.94 51.06,-13.76 100.03,5.81 123.66,16.58 143.62,-21.05l-148.37 5.05c18.73,-49.06 -3.25,-13.7 33.53,-48.09 78,-72.95 104.51,-52.4 100.62,-111.65 -102.49,65.6 -72.67,85.02 -136.27,109.46l-29.24 -75.92c-0.42,9.39 2.02,23.45 3.17,33.3 7.73,66.55 16.37,77.46 -73.15,134.96zm-386.18 -404.9l74.4 8.33c-0.1,58.33 -28.61,77.22 -87.16,62.49l12.76 -70.82zm-226.84 1273.47c42.71,-23.65 59.89,-52.8 92.95,-90.51 116.8,-133.23 152.25,-108.6 223.45,-300.11 76.79,-206.51 142.64,-320.88 43.8,-547.57 -48.08,20.42 -52.31,34.88 -124.13,52.62 62.88,-47.61 87.77,-106.64 192.45,-84.46l20.68 175.96c90.93,-100.07 64.61,-247.44 55.2,-390.42 -5.38,-81.7 5.67,-169.73 -38.08,-211.9 -84.77,-81.72 -59.71,-71.83 19.81,-22.77l39.87 174.35c44.15,-19.76 67.19,-54.3 98.22,-79.94l-26.9 -102.88c126.98,-54.56 90.03,8.8 109.32,40.39 -9.22,17.11 -104.62,96.86 -150.98,188.9 -20.17,40.05 -12.39,223.19 -24.12,292.81 -39.24,233.13 -106.25,170.56 -149.44,492.97 177.78,-48.12 183.4,-88.37 219.47,-168.25 28.89,59.29 34.07,57.51 105.59,44.22 -15.12,86.87 11.34,80.38 -32.66,138.36 -69.06,-103.13 -145.94,-34.54 -243.05,13.13 -60.57,29.74 -69.59,22.06 -103.72,78.35l-249.33 311.68c-257.37,327.57 -98.95,248.76 -541.35,566.85 -131.67,94.67 -327.29,186.06 -537.6,189.72l363.47 -180.58c116.13,-70.98 214.59,-150.61 312.25,-224.26 50.81,-38.32 90.2,-93.92 141.82,-138.4 49.16,-42.35 169.68,-163.61 167.62,-231.54 -3.43,-113.21 -64.67,-166.69 -52.79,-201.99 30.86,-91.67 26.01,21.36 72.58,-48.77 34.71,55.86 15.93,48.49 66.68,82.72l-78.74 45.18 7.65 136.15zm732.41 -1594.24c94.74,-183.29 157.62,29.51 157.74,29.63 21.18,22.28 34.06,10.08 66.67,29.01 -12.49,34.6 -32.01,44.94 -37.15,63.57 -10.22,37 67.11,129.77 -199.06,98.07l2.56 -132.73c-35.69,6.34 -14.26,8.01 -44.16,40.81l-31.96 -74.99 -27.29 85.24c-66.84,-21.55 -53.76,-97.47 -12.18,-143.04 49.71,-20.93 70.09,-1.3 124.83,4.43zm-405.05 6.31c10.95,-13.95 3.52,1.95 11.89,-25.79l7.95 -73.04c-0.32,-39.96 -7.54,-55.04 -2.21,-100.93 36.21,26.08 24.45,9.89 61.52,49.28 19.16,20.36 38.68,36.11 52.84,69.59 90.55,214.21 -275.03,332.75 -360.88,148.07 41.76,11.79 109.37,26.81 154.82,20.51 33.98,-4.71 19.02,0.82 34.75,-17.01l-90.68 -6.22c7.85,-132.99 -21.19,-155.41 -61.14,-251.98l178.97 77.46c18.74,47.8 -5.52,68.29 12.18,110.06zm114.2 -207c1.54,22.85 2.06,42.01 -1.3,60.15 -41.04,-40.15 -84.17,-64.36 -103.04,-94.92 19.61,-30.72 38.93,-39.11 87.61,-40.72 1.61,3.04 3.59,6.87 4.43,9.33l12.3 66.16zm-28.92 -482.46c61.43,51.1 79.86,74.46 90.7,186.43 37.82,-35.23 69.02,-76.03 123.51,-113.26 -0.86,38.97 -1.33,81.24 -3.65,119.98 -8.37,139.23 -84.77,72.37 -46.46,252.99l-102.92 -48.34c24.62,-57.32 62.05,-87.32 88.12,-151.74 -64.86,33.48 -40.69,57.46 -97.47,113.36l-36.99 -151.69c-0.51,2.69 -1.11,6.33 -1.42,9.27l12.37 135.68 -105.65 -118.87c-3.42,44.18 62.35,105.84 89.86,140.78 -46.96,26.26 -53.76,7.79 -103.59,50.03 -13.21,-130.19 -71.02,-211.52 -134.62,-265.64l142.94 20.55c39.31,-74.44 15.27,-117.26 85.28,-179.53zm-481.84 1812.15c-60.36,26.07 -29.71,30.39 -68.34,83.68 -24.61,33.94 -33.02,22.69 -69.21,59.57 5.61,68.77 17.4,42.34 32.65,102.18 17.98,70.55 -7.47,43.38 46.94,79.87 -42.94,29.02 -45.29,54.14 -80.62,100.63l-21.04 -66.48c-42.94,26.39 -62.5,58.55 -72.98,127.97l-32.58 -2.34c-18.24,4.82 -0.91,-32.84 -19.89,25.48 -5.49,16.87 -15.16,79.56 -16.44,98.57 -6.1,89.98 18.37,115.96 50.02,170.7 -59.02,75.93 -292.82,239.59 -413.64,291.77 -100.29,43.32 -362.82,-187.77 -431.84,-230.1l-2.33 19.65c19.47,36.98 302.41,213.82 366.01,234.54 -35.24,32.97 -79.54,60.18 -135.53,36.21 -394.81,-169.01 -745.75,-626.5 -860.47,-553.71 -71.55,78.29 -12.13,210.64 -2.29,297.69l1.67 -28.22 -3.66 -90.3c-5.88,-58.36 -6.92,-113.12 8.7,-161.13 106.3,-9.14 251.35,139.24 332.11,206.39l100.9 87.23c124.06,89.12 258.85,200.16 432.96,268.21 -47.04,42.3 -127.3,52.46 -171.11,96.91 29.69,14.99 113.66,-5.98 160.53,-11.79 48.57,-6.03 126.19,-25.42 166.8,-21.15 117.95,12.38 191.88,48.3 344.19,52.29 -18.78,-71.13 -76.76,-107.78 -156.18,-117.1l-25.91 -6c5.41,-9.1 18.93,-14.2 24.61,-17.75 97.65,-48.62 209.99,-129.26 283.43,-190.64 94,-78.58 171.74,-123.65 240.96,-238.62 31.43,-28.26 102.67,-143.2 134.96,-189.93 54.24,-78.5 144.99,-165.92 226.29,-273.24 21.66,-28.59 48.64,-82.34 69.03,-101.18 39.86,-36.81 184.1,-108.01 238.07,-102.31 51.55,34.27 35.57,40.37 73.1,95.61 21.55,-24.04 11.64,-27.75 18.48,-72.76 117.41,18.92 63.01,77.85 162.33,-25.53 1.74,-1.81 4.4,-4.23 6.21,-5.96 66.86,-64.38 77.25,-47.21 114.7,-67.74 -2.34,-69.46 -28.53,-46.03 -37.95,-87.28 -10.56,-46.22 80.31,-130.51 -81.14,-145.79 -63.13,-5.97 -66.48,-2.57 -107,-25.22 156.78,-29.89 286.5,-158.77 344.84,-259.64l-196.42 4.79 120.96 -240.93c-67.66,5.54 -114,24.44 -157.78,53.88 -27.3,18.36 -83.33,74.74 -93.95,97.57l-10.36 -175.16c-89.82,43.6 -186.77,216.79 -177.03,365.14 5.79,88.29 11.66,86.78 -51.5,122.77 6.08,-68.27 25.73,-138 30.2,-209.91 7.16,-115.1 -23.27,-139.92 35.68,-223.97 144.69,-206.28 146.27,-72.83 294.1,-130.74 77.83,-30.49 41.23,-82.03 49.52,-111.71 11.84,-42.36 29.24,-18.43 28.13,-79.21 -39.75,-28.35 -47.73,-8.51 -73.23,-47.95 -27.53,-42.6 -13.92,-45.86 -47.8,-84.05 -81.93,-11.65 -81.98,19.85 -124.66,45.76 -56.4,34.24 -79.52,-19.78 -134.83,21.35 -84.72,62.99 -4.4,203.09 3.39,284.36l-37.92 35.41c-15.21,-17.47 -2.2,5.05 -13.03,-24.71 -4.15,-11.41 -5.31,-17.34 -7.16,-29.16l-17.11 -213.23c-8.36,-94.47 -17.16,-187.01 -23.77,-282.2 53.34,22.29 72.76,45.04 121.83,67.31 -23.63,-91.12 -54.33,-137.13 2.97,-222.23 38.15,-56.65 28.3,-189.01 30.07,-264.62 -56.94,32.11 -92.95,78.11 -115.46,119.33 -51.72,-56.36 -12.99,-97.81 -129.64,-167.03 -46.48,40.68 -79,113.77 -89.16,191.06l-194.18 -32.2c68.67,101.7 145.45,98.08 170.68,279.41 3.94,28.29 4.75,37.13 11.56,63.12 11.95,45.61 13.69,28.83 15.81,85.42 -59.54,-16.79 -189.15,-94.33 -226.54,-82.36 -13.78,50.5 90.37,69.01 82.76,278.79l-121.63 -27.11c34.66,101.78 88.25,147.34 223.1,140.7 59.84,-2.94 186.41,-62.55 198.84,147.06 -35.31,-8.01 -227.5,-27.95 -252.84,-20.43 -51.7,43.62 -24.25,44.64 -51.65,83.45 -61.52,87.17 -105.97,-8.12 -42.96,144.04 67.29,162.51 87.15,7.18 173.69,97.02l-93.38 63.98c-2.9,2.31 -11.48,9.23 -14.25,11.65 -13.56,11.77 -11.12,9.07 -21.36,20.32 3.13,1.51 8.2,-0.66 9.95,3.08 1.73,3.7 7.56,2.33 9.97,2.59 2.37,0.26 7.07,1.5 9.99,1.66 46.6,2.59 114.09,-29.58 150.5,-47.42 40.49,168.15 61.71,151.01 0.06,325.75l-8.33 -64.61c-27.35,23.79 -40.38,27.34 -63.65,58.57 -43.04,-27.97 -80.22,-80.91 -97.47,-126.97 -13.04,14.56 -7.96,4.82 -18.9,27.48l-28.08 119.22 -78.9 -57.39c-96.43,-58.12 -4.1,206.38 -0.24,218.05 -78.35,7.49 -18.63,12.76 -61.59,-33.46 -28.4,-30.56 -14.29,-27.39 -67.35,-24.59z"/>
   <path class="fil2" d="M7007.5 4491.85l0.1 -379.13c189.56,-15.84 390.85,-20.82 395.03,182.99 4.55,221.15 -199.13,208.09 -395.13,196.13zm531.43 -464.08l-70.4 -71.59c-73.57,-95.05 -522.56,-59.36 -668.61,-59.36l-2.97 1309.78 207.41 0 3.51 -493.04c258.45,-26.49 411.3,31.04 537.37,-145.58 89.6,-125.54 112.75,-443.67 -6.31,-540.21z"/>
   <path class="fil0" d="M4988.66 6147.85c277.47,-550.74 851.57,-610.6 1199.05,-181.5 43.5,53.72 70.73,124.48 109.85,171.52l6.6 -701.34c-213.16,10.74 -447.53,-1.35 -663.2,-1.76 -114.7,-0.22 -579.12,-16.89 -652.75,6.17l0.45 706.91z"/>
   <polygon class="fil2" points="5869.86,5206.6 6077.28,5206.6 6080.82,4647.64 6530.77,4646.06 6533.34,4432.89 6081.08,4432.67 6080.74,4112.05 6603.06,4109.98 6605.62,3896.82 5872.45,3896.82 "/>
   <path class="fil2" d="M5956.24 6637.06c-29.62,17.64 -12.97,11.88 -49.56,19.31 -20.54,-36.91 -6.65,12.67 -16.52,-44.69 -15.59,-19.93 -15.98,22.19 -15.92,-47.93 62.93,0.32 23.38,-0.22 64.74,16.73 52.85,21.66 16.28,-17.45 48.56,30.22 -20.64,37.4 9.86,11.49 -31.3,26.36zm-229.83 -144.89c-44.26,6.09 -13.67,-3.52 -36.78,-13.59 -56.54,-24.64 -70.83,26.87 -104.76,-85.44 81.3,-13.88 2.62,3.27 58.99,11.87 10.01,1.53 22.79,-6.41 47.47,-12.19 25.43,57.43 53.09,55.3 35.09,99.36zm-546.1 569.38l107.28 107.31 34.61 31.6c86.82,-62.76 164.71,-225.26 208.14,-346.09 -19.92,-28.64 -68.07,-81.19 -79.84,-141.32 -11.15,-56.92 -11.27,-26.61 7.72,-51.54 55.57,21.75 34.7,113.84 100.77,153.43 65.65,39.35 128.26,-32.81 179.45,-51.72 50.18,35.06 36.8,65.48 112.58,64.74 -15.54,-38.76 -24.21,-30.44 -18.78,-62.54 28.56,-7.82 30.95,0.66 53.52,17.64 15.76,-35.81 73.74,-99.53 128.37,-50.53 -22.31,60.6 0.11,5.69 -58.23,35.69 -30.27,15.56 -33.76,26.52 -43.89,61.39l33.44 19.31c20.42,-8.06 83.77,-61.78 98.98,-78.68 33,-36.66 14.13,-85.46 12.03,-150.4 -7.97,-11.22 -7.8,-11.67 -18.14,-27.23 -5.58,-8.4 -8.75,-3.39 -11.43,-17.08 -1.01,-5.14 -4.12,-5.99 -6.23,-8.93 -46.44,-16.96 -86.37,-51.07 -126.01,-74.63 -81.63,-48.51 -78.98,-10.59 -128.81,-92.44 -44.54,-73.18 -59.82,-45.58 -127.84,-89.46 -53.51,-34.53 -63.93,-92.8 -142.18,-74.68 112.54,201.3 -43.11,116.26 -144.89,144.22 44.93,37.93 31.85,1.06 79.98,23.98 -8.68,50.96 2.19,13.59 -30.65,36.72 -2.04,1.44 -5.35,3.11 -7.47,4.52l-37.62 23.75c-40.54,15.84 -88.29,6.1 -125.44,-1.71l0 183.4 -42.56 0c0.27,-79.86 20.86,-184.42 -21.37,-246.81 -49.88,8.42 -102.95,78.95 -137.55,118.03 -98.61,111.35 81.66,491.7 152.04,540.06z"/>
   <path class="fil5" d="M4988.92 7464.97c29.66,66.76 59.96,161.49 78.61,247.27 -21.17,-28.51 -61.38,-71.11 -78.85,-103.04 -155.95,-40.24 -153.26,-22.4 -292.43,31.5 1.31,-79.35 16.19,-250.89 69.06,-298.47 71.95,-64.75 188.48,72.49 223.62,122.74zm-766.59 66c-7.25,-101.11 -8.09,-149.23 27.88,-225.29 106.51,-0.04 216.39,169.47 253.99,254.26 -154.96,-45.05 -116.18,-83.96 -281.87,-28.97zm445.65 128.05c-41.25,-19.97 -25.93,-22.99 -64.64,-47.62l-47.32 -24.38c-79.26,-45.46 34.79,42.26 -19.97,-13.42 0.95,-40.05 41.23,-219.89 60.56,-253.65 44.23,-77.24 134.33,-95.29 240.64,-86.85 42.48,3.37 99.15,3.47 131.99,25.32 116.22,77.34 127.72,249.34 105.17,385.91 -46.66,-173.43 -76.22,-260.28 -211.69,-329.8 -176.1,-90.38 -183.06,215.59 -194.74,344.5zm-470.41 -112.72c-26.3,-53.92 -138.14,-240.66 -38.55,-347.07 54.58,-58.31 254.59,-5.99 343.96,86.5 85.86,88.86 38.02,111.32 17.42,240.19 -104.08,-137.06 -343.94,-504.55 -322.83,20.38zm397.67 -269.68c-9.51,-93.86 5.76,-208.29 46.43,-274.82 123.56,-19.7 243.31,200.43 271.46,209.04 -144.51,21.45 -213.97,-40.37 -317.89,65.78zm-28.21 51.08c-25.47,-24.04 -9.48,-18.39 -44.63,-39.12 -0.78,-59.98 -86.92,-422.69 116.25,-404.93 138.84,12.14 301.22,137.69 279.19,295.34l-107.6 -127.54c-38.39,-40.19 -89.79,-83.33 -173.74,-75.25 -103.52,145.02 -41.49,205.87 -69.48,351.51zm-500.91 -208.79c-74.99,-90.02 -55.64,-448.14 200.04,-326.94 106.32,50.4 245.51,253.24 201.03,432.83 -134.03,-88.37 -70.07,-167.7 -186.86,-301.1 -82.96,-94.76 -155.27,-7.79 -171.91,103.12 -8.43,56.19 -5.76,73.12 -42.31,92.09zm236.41 -335.93c32.97,-10.93 29.25,-24.41 22.66,-71.78 -7.67,-55.11 -59.09,-127.53 -86.45,-172.13 -222.52,-362.7 -218.73,-82.54 -271.06,40.85 -36.24,-56.71 -101.74,-118.81 -73.73,-205.54 26.66,-82.54 82.57,-125.73 185.29,-89.03 76.29,27.26 152.54,68.92 191.25,111.95 69.65,77.41 68.01,138.44 121.73,182.98 83.54,-207.91 552.57,-121.19 450.43,257.72 -23.11,-103.04 -131.53,-282.28 -249.3,-268.13 -137.64,16.53 -131.56,267.45 -132.49,399.15l-70.88 -105.98c-30.54,-42.1 -41.78,-45.3 -87.45,-80.07zm-46.13 -427.72c102.29,-134.29 382.3,-533.86 434.28,-31.25 -43.65,-55.94 -107.92,-184.24 -219.69,-116.6 -68.07,41.19 -95.04,160.17 -117.48,261.89 -10.23,-31.41 -74.37,-91.78 -97.11,-114.03zm-28.69 -266.08c48.75,-89.64 27.02,-102.49 114.23,-156.21 64.2,-39.55 127.66,-39.66 173.51,19.82 -27.77,20.77 -72.52,40.26 -101.94,63.55 -125.64,99.44 -141.66,255.23 -185.79,312.05 -53.01,-30.86 -53.03,-75.02 -91.2,-137.8 -209.75,-345.03 -280.67,-64.79 -319.97,8.38 -24.97,-133.39 -26.76,-274.31 142.22,-247.49 136,21.58 165.2,135.1 268.95,137.7zm61.29 -379.99c39.14,-5.6 35.99,-30.77 59.95,36.45 10.75,30.16 15.53,66.27 6.01,102.64 -13.08,49.98 -75.57,113.39 -115.07,125.63 -24.02,-27.95 -35.42,-70.34 -60.66,-82.09l-7.05 -2.69c9.18,84.15 60.59,61.82 43.87,171.98 -126.61,-43.74 -143.13,-112.45 -169.6,-120.56l-26.88 -24.24c-27.15,37.15 9.39,21.52 -60.73,13.53 -64.07,-7.3 -138.57,-2.62 -171.35,82.35 -36.9,95.63 5.49,194.72 46.11,266.55 23.72,-91.4 28.06,-265.98 151.46,-218.17 59.17,22.92 146,146.78 169.03,224.9 -55.97,-19.16 -107.12,-39.76 -170.04,-43.15 -197.9,133.82 -120.43,231.94 -10.33,390.18 43.15,-64.91 30.33,-197.59 92.45,-244.26 55.42,-19.62 237.15,248.69 236.36,394.74 -328.98,-168.46 -352.11,287.03 -233.2,358.43 99.8,-31.9 26.04,-154.79 121.3,-234.6 95.39,4.6 155.83,166.4 176.06,264.32 -170.52,-35.94 -292.26,-20.62 -268.84,190.46 8.07,72.71 36.86,120.81 67.06,177.45 36.5,68.46 -1.95,84.6 14.05,186.63 22.8,33.26 29.22,53.47 52.1,89.07 17.66,27.49 34.69,45.42 51.01,69.75l7.64 -22.28c13.38,-93.97 -9.42,-135.51 48.72,-200.04 99.58,-7.88 196.38,111.62 203.18,203.4 -81.73,40.69 -92.45,26.47 -139.51,97.12 7.71,163.4 132.25,335.91 185.62,360.15 -11.34,-26.63 -8.31,-28.88 -17.05,-59.96 -11.47,-40.78 0.92,-26.03 -20.57,-49.26l-1.67 28.22 2.38 24.91c-36.93,-64.94 -103.84,-120.77 -125.62,-209.78 -25.3,-103.44 20.44,-128.42 85.37,-151.1l44.17 -17.8c2.45,-1.27 6.48,-3.94 8.44,-5.03 2,-1.1 5.78,-3.31 8.45,-5.28 -47.92,-226.76 -307.7,-387.37 -303.41,-41.71 -100.65,-70.05 -110.87,-380.57 123.61,-292.34 85.21,32.06 257.82,90.22 287.23,175.45l16.25 96.57c4.67,37.42 -5.61,9.63 7.54,39.12 1.7,-2.75 3.39,-10.51 3.84,-8.91 0.46,1.63 2.95,-6.88 3.51,-9.28 0.93,-3.95 13.35,-20.14 3.45,-78.6 -4.53,-26.77 -20.29,-55.88 -27.92,-75.25 188.25,-166.81 429.93,-57.58 400.86,316.21 -20.22,-116.62 -102.83,-318.98 -275.64,-195.55 -18.06,12.9 -0.61,3.48 -22.81,15.44 -20.72,-45.98 -12.22,-71.92 17.7,-106.1 42.92,-49.04 45.54,-21.68 69.81,-80.97 -302.77,123.6 22.23,358.76 136.66,460.82 60.8,54.23 93.51,91.41 168.4,134.44l2.33 -19.65c-39.72,-28.18 -65.18,-52.8 -102.16,-86.19 -35.23,-31.81 -69.92,-37.41 -90.9,-90.7 -35.53,-18.36 -75.73,-49.03 -104.8,-79.77l-82.65 -97.4c34.98,-64.09 128.04,-105.18 184.32,-19.95 24.92,31.1 48.09,73.82 64.12,122.56 26.84,81.6 21.77,129.2 64.27,141.76 0,-85.31 -1.87,-169.67 -15.25,-251.48 -40.39,-246.98 -13.59,-35.53 0.77,-203.86 23.39,-274.1 -10.9,-257.58 -112.14,-413.57l-48.15 -7.09c17.95,-182.52 -39.18,-242.79 -150.85,-308.25 -128.68,-75.41 -243.23,-94.18 -300.5,61.34 -43.09,-354.07 124.29,-514.58 275.3,-255.14 16.56,28.45 31.63,57.47 43.68,89.83 12.82,34.43 17.01,67.9 40.95,96.73l9.75 -16.95c6.42,-15.78 5.32,-8.87 9.79,-27.64 2.75,-11.52 5.68,-42.71 6.69,-55.56 3.73,-47.46 4.19,-85.1 -4.38,-132.21 -33.84,-185.93 -221.45,-274.18 -401.86,-200.32 -50.78,20.79 -45.89,32.66 -82.95,55.53 -12.57,-28.49 -9.87,-52.79 -2.22,-90.81 14.98,-74.45 49.61,-182.71 113.98,-215.97 117.4,-60.66 162.72,148.52 217.1,189.78 36.51,-159.27 -75.33,-524.94 -310.45,-270.52 -40.59,43.93 -91.09,81.82 -123.91,136.59 55.42,-227.25 189.73,-257.97 277.65,-313.23 -32.81,-59.54 -97.45,-94.66 -194.67,-74.34 39.92,-129.52 0.69,-134.66 -32.04,-235.82 -35.53,16.28 -35.88,17.52 -55.55,54.57 -1.92,-2.62 -3.75,-10.54 -4.44,-8.67 -10.63,28.72 1.85,-16.32 -24.4,-47.91l-7.2 80.62c42.73,-12.55 4.34,19.51 49.04,-24.24z"/>
   <path class="fil1" d="M4980.04 4993.32c334.32,0 473.89,39.85 473.89,-441.66 0,-405.33 -87.58,-444.32 -473.59,-441.27l-0.31 882.93z"/>
   <path class="fil6" d="M4548.43 8241.85c-9.84,-87.05 -69.26,-219.39 2.29,-297.69 114.72,-72.79 465.67,384.7 860.47,553.71 56,23.97 100.29,-3.24 135.53,-36.21 -63.6,-20.72 -346.54,-197.56 -366.01,-234.54 -74.89,-43.02 -107.6,-80.21 -168.4,-134.44 -114.44,-102.06 -439.43,-337.22 -136.66,-460.82 -24.28,59.29 -26.89,31.93 -69.81,80.97 -29.92,34.18 -38.42,60.12 -17.7,106.1 22.2,-11.97 4.76,-2.55 22.81,-15.44 172.81,-123.43 255.42,78.92 275.64,195.55 29.07,-373.8 -212.61,-483.02 -400.86,-316.21 7.63,19.36 23.39,48.48 27.92,75.25 9.9,58.46 -2.52,74.65 -3.45,78.6 -0.56,2.39 -3.05,10.91 -3.51,9.28 -0.45,-1.6 -2.14,6.16 -3.84,8.91 -13.15,-29.49 -2.87,-1.7 -7.54,-39.12l-16.25 -96.57c-29.41,-85.23 -202.02,-143.39 -287.23,-175.45 -234.49,-88.23 -224.27,222.29 -123.61,292.34 -4.29,-345.66 255.49,-185.06 303.41,41.71 -2.67,1.98 -6.46,4.18 -8.45,5.28 -1.97,1.08 -6,3.76 -8.44,5.03l-44.17 17.8c-64.93,22.68 -110.67,47.67 -85.37,151.1 21.77,89.01 88.69,144.84 125.62,209.78l-2.38 -24.91z"/>
   <path class="fil7" d="M6835.32 6412.06c-79.52,-49.06 -104.58,-58.96 -19.81,22.77 43.75,42.17 32.7,130.2 38.08,211.9 9.41,142.98 35.73,290.35 -55.2,390.42l-20.68 -175.96c-104.67,-22.18 -129.57,36.86 -192.45,84.46 71.82,-17.74 76.06,-32.19 124.13,-52.62 98.83,226.69 32.98,341.06 -43.8,547.57 -71.21,191.51 -106.65,166.88 -223.45,300.11 -33.05,37.7 -50.24,66.85 -92.95,90.51l-7.65 -136.15 78.74 -45.18c-50.75,-34.24 -31.97,-26.87 -66.68,-82.72 -46.57,70.13 -41.72,-42.9 -72.58,48.77 -11.89,35.31 49.36,88.78 52.79,201.99 2.05,67.94 -118.46,189.19 -167.62,231.54 -51.63,44.48 -91.01,100.08 -141.82,138.4 -97.66,73.65 -196.13,153.29 -312.25,224.26l-363.47 180.58c210.31,-3.67 405.92,-95.05 537.6,-189.72 442.4,-318.09 283.98,-239.28 541.35,-566.85l249.33 -311.68c34.14,-56.3 43.15,-48.62 103.72,-78.35 97.1,-47.67 173.98,-116.26 243.05,-13.13 44,-57.98 17.54,-51.49 32.66,-138.36 -71.52,13.29 -76.7,15.07 -105.59,-44.22 -36.08,79.88 -41.69,120.13 -219.47,168.25 43.19,-322.41 110.2,-259.84 149.44,-492.97 11.72,-69.62 3.94,-252.76 24.12,-292.81 46.36,-92.04 141.76,-171.8 150.98,-188.9 -19.28,-31.59 17.66,-94.95 -109.32,-40.39l26.9 102.88c-31.03,25.64 -54.07,60.18 -98.22,79.94l-39.87 -174.35z"/>
   <path class="fil2" d="M3548.66 1335.48c66.97,-34.04 245.49,-144.6 281.88,-27.99 24.01,76.92 -21.68,95.92 -71.29,120.12 -50.07,24.42 -97.11,51.76 -144.97,64.66l-65.62 -156.79zm-150.88 -36.73l262.58 577.57 104.55 -49.58c-25.8,-87.43 -86.24,-163.07 -104.28,-253.19 289.91,-95.46 266.64,227.9 504.65,66.34 -45.14,-51.11 -171.81,-123.47 -248.41,-151.05l-44.19 -19.51c30.42,-49.39 101.09,-86.81 79.41,-187.49 -57.82,-268.4 -396.28,-73.58 -554.31,16.92z"/>
   <path class="fil2" d="M9211.51 2575.79l35.11 -22.87c5.96,10.06 13.22,9.39 4.58,51.56 -12.51,61.07 -111.52,310.28 -127.12,412.12l73.82 86.16 486.68 -411.4 -70.88 -76.37c-88.83,52.66 -256.49,239.22 -327.87,265.55 11.1,-81.77 62.92,-211.46 88.85,-296.06 52.11,-169.98 90.55,-156.4 -18.92,-269.15l-481.36 412.57 65.77 79.23 271.33 -231.36z"/>
   <path class="fil2" d="M9651.77 3098.88c261.52,-82.31 337.98,300.11 31.15,391.53 -248.11,73.92 -353.32,-290.14 -31.15,-391.53zm-185.29 -32.09l-71.14 71.59c-208.85,162.06 129.87,740.16 510.55,354.11 130.43,-132.28 118.24,-298.13 -8.13,-431.83 -173.07,-183.11 -400.28,-46.39 -431.28,6.13z"/>
   <path class="fil2" d="M2094.86 2419.13c16.28,-40.74 69.92,-93.86 111.28,-110.24 129.4,-63.68 242.95,53.46 298.77,128.15 34.74,46.49 53.87,99.87 16.74,164.02 -26.14,45.18 -81.58,108.23 -122.27,123.73l-47.64 -36.6c-26.16,-63.85 -235.19,-188.61 -256.88,-269.06zm475.6 -84.85l-72.74 -71.58c-53.9,-92.6 -242.06,-115.38 -337.07,-45.41 -71.37,52.56 -184.71,208.49 -228.98,232.25l456.33 429.18c45.84,-16.69 186.14,-179.23 219.39,-226.59 96.54,-137.56 12.63,-293.65 -36.94,-317.85z"/>
   <path class="fil2" d="M7761.74 1542.7c19.92,21.17 26.4,27.79 45.95,48.77 22.29,48.52 152.92,93.69 102.59,183.28 -52.02,87.69 -265.95,34.29 -225.53,-157.42l-113.32 -43.74c-30.71,167.84 6.25,224.83 109.67,291.24 85.83,55.12 235.42,94.64 304.06,7.79l28.26 -37c86,-92.39 1.9,-206.51 -46.7,-255.39 -55.09,-55.42 -165.53,-104.09 -133.04,-208.68 49.32,-13.75 94.88,-10.86 141.47,16.32 56.87,33.17 54.37,54.58 57.56,137.97l75.91 32.67c115.62,18.29 46.42,-262.16 -207.06,-301.03 -200.19,-30.7 -253.32,223.97 -139.81,285.22z"/>
   <path class="fil2" d="M4052.18 1002.22l178.04 610.42 459.14 -134.91 -22.69 -93.43 -347.85 98.41 -50.51 -170.71 308.79 -99.06 -28.72 -91.33 -314 89.48 -38.11 -141.42c43.78,-25.92 263.02,-85.85 331.62,-104.27l-28.26 -91.8 -447.44 128.61z"/>
   <path class="fil2" d="M5703.51 1126.56c6.4,-56.09 60.53,-202.74 97.52,-239.11l80.3 243.81 -177.82 -4.7zm-231.87 241.63l120.56 3.74 63.26 -141.92 269.26 4.03 50.1 146.31 126.65 4.31 -233.62 -642.72 -135.57 -5.67 -260.63 631.92z"/>
   <path class="fil2" d="M6769.83 847.97c-14.66,-9.24 -23.68,-12.86 -51.52,-17.76 -9.83,-1.73 -21.01,-3.24 -30.94,-2.87 -48.05,1.74 25.44,-5.01 -20.1,2.69l-19.47 5.77c-18.64,98.18 -32.64,197.79 -49.63,298.41 -20.52,121.51 -17.78,224.28 -164.58,203.33 -201.56,-28.76 -70.34,-267.24 -46.31,-560.25l-118.9 -16.72c-31.19,294.38 -198.97,619.07 145.26,678.3 332.38,57.19 282.55,-247.35 356.19,-590.9z"/>
   <path class="fil2" d="M8688.72 2212.51c30.87,-30.7 172.05,-106.6 221.54,-118.68l-89.61 237.29c-40.88,-15.62 -117.29,-81.08 -131.93,-118.6zm-337.97 42.24l91.2 79.83 134.67 -66.49c65.2,26.49 136.51,119.32 201.45,157.75l-46.79 154.58 96.7 92.31 224.48 -642.14 -95.12 -88.6 -606.58 312.76z"/>
   <path class="fil2" d="M1644.82 3529.08c-39.62,-22.62 -141.41,-145.52 -156.88,-195.12l248.79 42.17c-12.25,43.63 -22.19,54.58 -43.18,90.38 -8.64,14.73 -15,26.94 -23.2,37.38 -20.36,25.94 -6.9,11.26 -25.54,25.19zm-318.39 -210.5l423.21 536.76 60.12 -107.99c-42.94,-61.91 -113.36,-95.06 -70.18,-170.99 20.32,-35.74 83.43,-146.27 112.36,-176.07l155.83 20.64 60.07 -109.58 -666.78 -105.93 -74.64 113.14z"/>
   <path class="fil6" d="M4302.52 6782.98c45.67,34.77 56.91,37.97 87.45,80.07l70.88 105.98c0.93,-131.7 -5.15,-382.62 132.49,-399.15 117.77,-14.15 226.19,165.09 249.3,268.13 102.15,-378.91 -366.88,-465.64 -450.43,-257.72 -53.72,-44.54 -52.08,-105.56 -121.73,-182.98 -38.72,-43.03 -114.97,-84.69 -191.25,-111.95 -102.72,-36.7 -158.63,6.49 -185.29,89.03 -28.01,86.73 37.49,148.83 73.73,205.54 52.32,-123.38 48.53,-403.55 271.06,-40.85 27.36,44.6 78.79,117.02 86.45,172.13 6.59,47.37 10.32,60.85 -22.66,71.78z"/>
   <path class="fil2" d="M5077.52 868.83c93.37,-10.81 237.51,-48.8 248.1,65.61 10.54,113.93 -127.68,118.73 -224.63,123.6l-23.47 -189.21zm-133.76 -85.01l80.84 633.06 115.15 -13.2c5.58,-96.2 -37.56,-196.15 -10.47,-243.82 90.55,-21.66 179.76,-11.47 248.79,-63.69 60.18,-45.52 99.54,-135.84 57,-238.35 -72.05,-173.63 -301.36,-93.91 -491.31,-74.01z"/>
   <path class="fil2" d="M5459.42 10397.93c125.73,-81.1 190.76,118.97 106.03,182.96 -111.18,83.95 -218.52,-110.4 -106.03,-182.96zm-1.86 -131.56c-143.39,-145.77 242.76,-223.31 112.6,13.32 -53.79,12.29 -75.71,21.57 -112.6,-13.32zm217.45 -146.92c-20.18,-23.55 -22.8,-26.02 -44.3,-47.6 -124.36,-119.43 -465.65,58.61 -224.45,254.45 -48.86,61.32 -128.96,78.29 -101.15,215.3 16.65,82.03 99.7,140.76 191.21,146.83 185.41,12.32 328.37,-202.02 121.87,-346.82 5.04,-7.73 155.37,-133.99 56.81,-222.17z"/>
   <path class="fil2" d="M7648.81 9946.03c162.56,-86.6 215.63,129.16 170.53,183.03 -65.35,78.08 -218.07,-16.4 -170.53,-183.03zm-72.61 -10.78c-81.5,-215.93 61.47,-266.13 118.7,-174.49l87.3 -55.36c-84.5,-163.81 -320.44,-64.12 -344.52,101.79 -21.99,151.49 121.71,368.53 194.67,415.54 157.93,101.78 359,-47.63 298.39,-237.67 -21.47,-67.32 -81.08,-135.47 -151.76,-151.08 -47,-10.38 -93.6,-1.11 -126.11,19.66 -17.87,11.41 -24.61,18.67 -37.55,34.35l-32.74 40.8c-1.27,1.4 -4.04,4.53 -6.37,6.44z"/>
   <path class="fil2" d="M4299.99 9933.24c139.72,-61.89 139.91,196.7 41.96,228.65 -148.45,48.42 -138.49,-185.88 -41.96,-228.65zm192.87 -8.73c-28.81,-35.32 -22.51,-29.17 -57.99,-57.8 -59.56,-61.18 -246.13,-64.99 -304.51,118.07 -25.25,79.18 -6.54,147.86 34.82,197.37 56.95,68.18 107.96,63.24 203.16,43.49 -13.13,59.49 -46.35,125.04 -89.15,141.33 -104.14,39.65 -98.75,-46.95 -124.6,-88.25l-97.87 -18.61c-0.25,241.81 244.4,251.41 349.64,135.71 66.38,-72.98 194.45,-372.6 86.49,-471.32z"/>
   <path class="fil2" d="M5078.66 10109.19c62.54,87.05 27,534.97 -122.37,440.2 -59.6,-37.82 -28.98,-191.94 -17.23,-266.53 17.73,-112.53 20.46,-194.61 139.6,-173.67zm-107.88 -90.8c-217.15,84.61 -252.6,739.24 90.42,629.19 223.22,-71.62 248.01,-761.05 -90.42,-629.19z"/>
   <path class="fil2" d="M6862.43 10464.53c-104.88,49.64 -129.18,-25.03 -159.84,-115.93 -17.26,-51.17 -125.59,-397.03 50.5,-307.31 53.81,27.41 146.45,289.95 109.34,423.25zm-187.25 -520.47c-164.21,48.26 -155.81,211.66 -106.39,381.3 36.94,126.82 112.78,292.41 279.08,245.24 160.58,-45.55 158.11,-210.49 109.55,-379.35 -37.45,-130.21 -119.88,-294.91 -282.24,-247.19z"/>
   <path class="fil1" d="M7007.5 4491.85c196.01,11.95 399.68,25.01 395.13,-196.13 -4.19,-203.81 -205.48,-198.83 -395.03,-182.99l-0.1 379.13z"/>
   <path class="fil2" d="M3750.62 9693.92c-20.47,20.79 -25.29,25.66 -45.19,47.61l-24.83 31.78 96.5 47.72c149.1,-169.99 245.84,44.64 128.18,122.34 -70.83,46.77 -287.98,103.14 -323.36,154.52l-71.14 70.28 -18.33 21.05 390.72 160.24 39.27 -96.2 -217.37 -91.73c53.71,-85.26 304.71,-74.32 360.34,-253.45 63.81,-205.48 -239.43,-302.67 -314.79,-214.17z"/>
   <path class="fil1" d="M9651.77 3098.88c-322.16,101.39 -216.96,465.45 31.15,391.53 306.83,-91.42 230.37,-473.83 -31.15,-391.53z"/>
   <path class="fil2" d="M6076.34 10209.04l100.7 0c2.1,-3.25 39.24,-166.75 152.72,-97.76 173.54,105.51 -212.62,330.9 -222.81,553.46l416.2 -40.43 -2.65 -105.55 -240.38 22.4c7.99,-106.03 286.05,-245.53 183.87,-441.9 -67.93,-130.55 -366.94,-156.73 -387.64,109.78z"/>
   <path class="fil2" d="M2863.2 1602.34l338.58 534.59 97.56 -59.86 -141.02 -227.66c14.14,-14.63 10.04,-11.08 24.41,-23.31l190.78 -125.28 -44.05 -83.8 -220.78 139.31c-4.55,-4.7 -8.29,-11.19 -9.38,-9.03 -1.08,2.14 -5.8,-4.78 -7.25,-6.28l-70.54 -113.31c23.76,-35.86 208.11,-148.1 252.43,-173.41l-54.18 -81.85 -356.57 229.89z"/>
   <path class="fil1" d="M2206.15 2308.88c-30.6,38.04 -71.42,81.71 -111.28,110.24 21.68,80.45 230.72,205.21 256.88,269.06 41.44,20.31 22.04,2.99 47.64,36.6 40.69,-15.51 96.13,-78.56 122.27,-123.73 37.13,-64.15 18,-117.52 -16.74,-164.02 -55.82,-74.69 -169.37,-191.84 -298.77,-128.15z"/>
   <path class="fil2" d="M8308.58 1578.97l138.38 106.55c-11.47,50.76 -270.23,394.87 -315.21,436.4l98.64 73.38c35.68,-59.33 280.83,-390.5 322.41,-419.6 40.67,14.09 114.08,71.94 145.09,104.72l63.51 -78.64 -399.04 -300.26c-20.31,24.7 -37.16,43.58 -53.77,77.45z"/>
   <polygon class="fil2" points="6795.55,1493.45 7219.98,1636.75 7248.16,1543.28 6946.12,1438.27 7112.03,935.68 6997.28,895.43 "/>
   <path class="fil3" d="M4546.43 8123.34c61.46,42.17 151.64,138.63 215.46,195.37 38.67,34.38 75.69,64.72 112.14,95.3 44.21,37.09 60.48,60.57 112.73,88.64l1.38 -246.81 -100.9 -87.23c-80.76,-67.15 -225.81,-215.53 -332.11,-206.39 -15.62,48.01 -14.58,102.77 -8.7,161.13z"/>
   <path class="fil8" d="M6962.22 6962.65c89.52,-57.51 80.88,-68.41 73.15,-134.96 -1.14,-9.85 -3.59,-23.91 -3.17,-33.3l29.24 75.92c63.6,-24.44 33.78,-43.86 136.27,-109.46 3.89,59.25 -22.62,38.7 -100.62,111.65 -36.78,34.4 -14.8,-0.96 -33.53,48.09l148.37 -5.05c-19.95,37.62 -43.58,26.85 -143.62,21.05 -37.49,-2.18 -8.55,-19.66 -51.06,13.76 -24.38,19.17 -33.19,29.03 -46.53,52.53 90.26,43.13 151.1,68.6 257.8,1.14 62.65,-39.61 151.97,-113.69 177.4,-170.62l-186.56 4.08 118.14 -235.7c-110.31,13.19 -186.81,112.33 -228.13,198.13l-16.94 -193.44c-37.84,4.09 -83.25,79.3 -105.13,131.84 -28.65,68.8 -35.11,144.14 -25.09,224.35z"/>
   <path class="fil6" d="M4227.69 6089.18c-103.75,-2.6 -132.94,-116.12 -268.95,-137.7 -168.98,-26.82 -167.18,114.1 -142.22,247.49 39.29,-73.17 110.22,-353.42 319.97,-8.38 38.17,62.78 38.19,106.94 91.2,137.8 44.13,-56.82 60.15,-212.61 185.79,-312.05 29.42,-23.28 74.17,-42.78 101.94,-63.55 -45.85,-59.49 -109.3,-59.37 -173.51,-19.82 -87.21,53.72 -65.48,66.57 -114.23,156.21z"/>
   <path class="fil2" d="M7119.99 9808.39c-8.87,105.93 -63.41,163.62 -111.9,213.65l28.27 95.65c37.09,-34.61 83,-96.99 115.34,-122.84l85.43 210.65c24.44,67.23 47.31,145.72 77.28,214.19l102.36 -36.42c-13.14,-66.14 -190.3,-567.76 -216.34,-602.22l-80.45 27.35z"/>
   <path class="fil6" d="M6676.55 5733.37l-142.94 -20.55c63.6,54.12 121.41,135.45 134.62,265.64 49.83,-42.24 56.63,-23.77 103.59,-50.03 -27.51,-34.94 -93.28,-96.6 -89.86,-140.78l105.65 118.87 -12.37 -135.68c0.31,-2.94 0.9,-6.58 1.42,-9.27l36.99 151.69c56.78,-55.9 32.61,-79.88 97.47,-113.36 -26.07,64.43 -63.5,94.42 -88.12,151.74l102.92 48.34c-38.31,-180.62 38.1,-113.76 46.46,-252.99 2.33,-38.74 2.8,-81.01 3.65,-119.98 -54.49,37.23 -85.69,78.03 -123.51,113.26 -10.84,-111.97 -29.27,-135.33 -90.7,-186.43 -70.01,62.27 -45.97,105.08 -85.28,179.53z"/>
   <path class="fil6" d="M4667.97 7659.02c11.68,-128.9 18.64,-434.87 194.74,-344.5 135.47,69.53 165.03,156.37 211.69,329.8 22.56,-136.56 11.05,-308.57 -105.17,-385.91 -32.84,-21.85 -89.51,-21.95 -131.99,-25.32 -106.31,-8.45 -196.41,9.61 -240.64,86.85 -19.33,33.76 -59.61,213.6 -60.56,253.65 54.76,55.69 -59.28,-32.03 19.97,13.42l47.32 24.38c38.7,24.63 23.38,27.65 64.64,47.62z"/>
   <path class="fil6" d="M4066.11 7118.91c36.55,-18.97 33.88,-35.9 42.31,-92.09 16.64,-110.9 88.95,-197.87 171.91,-103.12 116.79,133.39 52.83,212.73 186.86,301.1 44.47,-179.59 -94.71,-382.43 -201.03,-432.83 -255.68,-121.2 -275.03,236.92 -200.04,326.94z"/>
   <path class="fil1" d="M3947.89 4694.44l293.51 0c0.88,-49.64 -93.41,-337.22 -120.36,-425.3l-17.29 -42.85c-1.09,-1.92 -3.99,-5.6 -4.92,-7.11 -0.94,-1.51 -3.18,-4.85 -5.15,-6.95 -24.17,32.59 -146.25,436.62 -145.78,482.22z"/>
   <path class="fil8" d="M6676.55 6243.29c-17.7,-41.77 6.56,-62.26 -12.18,-110.06l-178.97 -77.46c39.95,96.57 68.99,118.99 61.14,251.98l90.68 6.22c-15.73,17.82 -0.76,12.3 -34.75,17.01 -45.45,6.3 -113.06,-8.72 -154.82,-20.51 85.86,184.68 451.43,66.14 360.88,-148.07 -14.15,-33.48 -33.68,-49.23 -52.84,-69.59 -37.07,-39.39 -25.31,-23.2 -61.52,-49.28 -5.33,45.89 1.89,60.97 2.21,100.93l-7.95 73.04c-8.37,27.75 -0.95,11.85 -11.89,25.79z"/>
   <polygon class="fil2" points="7299.15,1672.81 7407.4,1710.47 7633.13,1112.2 7514,1073.89 "/>
   <polygon class="fil2" points="4690.61,818.9 4790.78,1446.15 4907.52,1429.52 4796.46,802.33 "/>
   <path class="fil8" d="M4197.56 7546.3c-21.1,-524.93 218.75,-157.44 322.83,-20.38 20.6,-128.87 68.44,-151.33 -17.42,-240.19 -89.36,-92.49 -289.38,-144.82 -343.96,-86.5 -99.59,106.41 12.25,293.14 38.55,347.07z"/>
   <path class="fil1" d="M6862.43 10464.53c37.11,-133.3 -55.53,-395.83 -109.34,-423.25 -176.09,-89.72 -67.76,256.15 -50.5,307.31 30.65,90.9 54.95,165.57 159.84,115.93z"/>
   <path class="fil1" d="M5078.66 10109.19c-119.13,-20.94 -121.86,61.14 -139.6,173.67 -11.75,74.59 -42.38,228.71 17.23,266.53 149.37,94.77 184.91,-353.15 122.37,-440.2z"/>
   <path class="fil3" d="M4988.67 7609.2l0.25 -144.23c-35.14,-50.25 -151.68,-187.49 -223.62,-122.74 -52.87,47.58 -67.75,219.13 -69.06,298.47 139.17,-53.9 136.49,-71.74 292.43,-31.5z"/>
   <path class="fil2" d="M7174.25 6413.39c1.15,-18.29 35.81,-60.73 57.73,-77.66 1.93,32.11 -19.55,64.61 -35.99,76.24 -30.93,21.87 -3.25,9.93 -21.75,1.42zm15.95 -121.64c-20.22,-14.29 -19.31,-14.95 -37.11,-33.53l-83.4 8.07c35.78,-45.52 106.28,-40.81 120.51,25.45zm-108.6 -54.76c-54.74,-5.73 -75.13,-25.36 -124.83,-4.43 -41.58,45.58 -54.66,121.5 12.18,143.04l27.29 -85.24 31.96 74.99c29.9,-32.8 8.48,-34.47 44.16,-40.81l-2.56 132.73c266.16,31.69 188.83,-61.07 199.06,-98.07 5.14,-18.62 24.66,-28.96 37.15,-63.57 -32.61,-18.93 -45.49,-6.73 -66.67,-29.01 -0.12,-0.12 -63,-212.92 -157.74,-29.63z"/>
   <path class="fil2" d="M7083.47 7169.42c43.05,-27.15 241.42,54.01 129.15,154.83 -15.21,-26.2 7.74,-26.16 7.79,-80.01 -51.9,-56.82 -75.02,-40.76 -136.93,-74.82zm-163 41.19c23.18,0.12 37.88,-28.1 54.87,-46.09l13.09 104.74 68.58 -0.03 -34.61 -92.13c37.57,2.41 -2.68,-15.65 18.83,9.52 14.93,17.47 5.25,12.92 16.31,28.96 47.71,69.18 40.83,-25.23 105.32,150.52 -33.19,-9.99 -21.94,-14.2 -54.68,-67.74 -1.04,-1.71 -3.2,-5.29 -5.22,-7.61 -26.61,56.82 -10.32,113.13 22.64,146.33 91.96,-24.4 58.56,-101.19 186.85,-117.37 -14.44,-48.1 -37.97,-60.94 -42.39,-79.4 -6.34,-26.51 17.06,-53.96 15.81,-105.88 -35.75,-13.14 -75.89,-16.94 -122.14,-21.47 -67.54,-6.61 -73.47,-36.57 -108.84,-33.78 -36.99,2.92 -43.1,39.14 -80.38,61.44 -43.5,26.03 -88.2,20.49 -54.05,70z"/>
   <path class="fil2" d="M6530.02 6721.31c21.3,-7.35 32.42,31.83 74.59,39.3 68.03,12.05 42.05,-18.99 92.45,-35.96 -4.85,45.24 -72.2,96.78 -143.14,32.28 -35.17,-31.99 -20.02,-29.88 -23.9,-35.62zm-58.49 -25.32l47.62 109.57c28.28,42.05 59.29,9.59 86.54,9.55 21.02,-0.03 176,76.78 218.48,-58.3 -35.3,15.59 -63.02,46.36 -92.88,24.46 34.59,-23.43 79.74,-32.42 94.31,-69.03 10.61,-26.66 -3.88,-56.39 -15.84,-100.85l-5.59 -20.05c-0.67,-2.43 -1.58,-6.74 -2.94,-9.92 -131.97,-42.99 -115.02,23.2 -167.92,59.92 -64.02,44.43 -75.97,-32.31 -161.77,54.65z"/>
   <path class="fil6" d="M4567.02 7327.71c27.98,-145.64 -34.05,-206.48 69.48,-351.51 83.95,-8.08 135.35,35.06 173.74,75.25l107.6 127.54c22.02,-157.65 -140.36,-283.2 -279.19,-295.34 -203.17,-17.76 -117.03,344.95 -116.25,404.93 35.15,20.73 19.16,15.08 44.63,39.12z"/>
   <path class="fil8" d="M6136.13 7878.58c-5.67,-36.54 -12.63,-80.6 -32.19,-107.61 -35.68,39.46 -32.05,50.63 -32.35,105.64 -0.26,46.14 19.55,56.48 -47.95,14.31 -2.59,-1.62 -6.63,-4.63 -10.3,-6.29 -12.97,90.27 -34.72,166.39 29.68,235.57 34.85,-15.25 31.32,-23.16 62.15,-46.28 -24.01,-25.17 -44.68,-48.59 -69.02,-69.7 33.75,-0.33 32.95,11.52 64.25,27.56 71.15,-72.57 44.56,9.03 147.7,-108.02 32.41,-36.78 26.69,-33.32 16.17,-94.1 -6.54,-37.77 -11.36,-83.18 -26.32,-118.32 -102.38,62.67 -47.48,119.17 -101.82,167.23z"/>
   <path class="fil6" d="M4256.38 6355.26c22.75,22.25 86.88,82.63 97.11,114.03 22.44,-101.72 49.42,-220.7 117.48,-261.89 111.76,-67.63 176.04,60.67 219.69,116.6 -51.98,-502.61 -331.99,-103.04 -434.28,31.25z"/>
   <path class="fil8" d="M6501.91 7302.8l-108.21 -76.38c-7,129.76 41.15,250.52 168.24,276.52 -20.62,-42.32 -9.2,-59.11 -41.38,-91.36 -39.07,-39.16 -53.11,-11.78 -44.73,-63.48l62.45 45.2c7.36,-47.93 -10.16,-66.35 16.43,-94.28 16.39,137.83 15.09,57.71 59.96,93.99 -44.47,26.59 -49.25,22.9 -50.64,92.3 82.76,-34.31 122.86,-121.98 119.25,-251.91l-62.82 39.68 -64.51 -78.89c-16.62,-18.88 -9.42,-11.84 -26.56,-26.34l-27.49 134.94z"/>
   <path class="fil3" d="M4289.69 7862.22c43.02,32.54 64.64,74.35 112.39,100.49 47.06,-70.65 57.78,-56.43 139.51,-97.12 -6.8,-91.78 -103.6,-211.28 -203.18,-203.4 -58.14,64.53 -35.34,106.07 -48.72,200.04z"/>
   <path class="fil3" d="M4595.23 7276.62c103.92,-106.15 173.38,-44.34 317.89,-65.78 -28.15,-8.61 -147.9,-228.74 -271.46,-209.04 -40.68,66.53 -55.94,180.96 -46.43,274.82z"/>
   <path class="fil2" d="M6260.86 7659.66l-20.42 -24.78c26.27,-47.2 12.18,4.17 28.69,-41.9 9.02,-25.18 6.23,-53.75 6.35,-80.61 43.63,12.48 15.08,2.68 47.75,49.12l32.98 -57.74c46.71,55.56 3.38,94.68 88.85,127.22 41.44,-12.24 84.69,-57.08 101.19,-99.24l-108.17 -15.72c-10.71,-82.51 26.58,-77.15 -80.45,-59.48 -16.87,-43.84 -26.64,-62.18 -70.95,-74.11 -75.14,56.05 -16.51,78.16 -122.41,126.53 8.3,64.48 11.23,-1.5 40.29,146.7l56.3 4.02z"/>
   <path class="fil1" d="M3548.66 1335.48l65.62 156.79c47.86,-12.91 94.91,-40.24 144.97,-64.66 49.61,-24.2 95.29,-43.2 71.29,-120.12 -36.39,-116.6 -214.91,-6.04 -281.88,27.99z"/>
   <path class="fil1" d="M5077.52 868.83l23.47 189.21c96.95,-4.87 235.17,-9.67 224.63,-123.6 -10.59,-114.41 -154.73,-76.42 -248.1,-65.61z"/>
   <path class="fil4" d="M4100.62 5688.91c21.82,-56.82 46.55,-65.51 65.72,-138.6 71.31,60.77 86.36,111.89 55.21,211.71 -39.5,-15.49 -5.36,1.56 -40.07,-18.91 -37.25,-21.96 -31.5,-33.68 -80.86,-54.19zm-79.72 -56.18c67.73,30.86 30.06,34.99 81.27,80l68.03 54.1c1.95,1.81 4.77,4.24 6.59,6.07l17.59 21.51c-56.56,83.06 -66.13,28.18 -162.06,-13.63l-11.42 -148.05zm60.6 12.79c-30.05,-20.77 -78.21,-41.5 -83.42,-83.64 -6.59,-53.32 23.85,-82.53 59.05,-96.51 36.53,63.26 2.71,45.3 68.98,98.51l-44.62 81.64zm-61.94 270.79l26.88 24.24c-28.03,-59.95 -49.68,-87.9 -67.66,-162.47 78.69,27.84 127.61,68.87 193.39,111.05l7.05 2.69c-1.65,-53.72 15.77,-63.83 47.48,-98.34 27.18,-29.59 39.24,-48.7 62.28,-84.29 -44.7,43.75 -6.31,11.7 -49.04,24.24l7.2 -80.62c-1.75,-58.09 -43.05,-96.64 -71.04,-139.96 -41,7.87 -40.42,37.06 -68.62,12.55 -18.44,-16.02 -22.22,-61.05 -24.98,-86.74l-43.2 4.4c-136.27,109.66 -28.78,159.17 -29.56,317.66l-63.61 -30.11c4.63,37.71 34.56,170.03 73.43,185.7z"/>
   <path class="fil8" d="M6718.69 7657.92c-17.65,53.75 -48.8,77.66 -73.24,121.02 113.32,15.03 162.08,-56.51 237.27,-72.01 -38.16,74.23 -189.92,99.92 -281.85,97.06l117.82 -146.06zm-141.3 146.74c73.51,39.52 146.93,31.04 219.19,-2.16 78.14,-35.9 100.98,-67.92 158.71,-114.94l-192.8 3.37c14.4,-33.97 63.02,-129.67 76.64,-146.32 -114.75,5.25 -244.47,187.07 -261.75,260.05z"/>
   <path class="fil3" d="M4222.32 7530.97c165.69,-54.99 126.91,-16.08 281.87,28.97 -37.6,-84.78 -147.48,-254.3 -253.99,-254.26 -35.97,76.05 -35.13,124.18 -27.88,225.29z"/>
   <path class="fil3" d="M6760.49 7382.88c84.24,-25.94 128.96,-45.25 161.54,-126.46 -17.91,-35.62 -77.78,-69.3 -4.54,-112.33 32.44,-19.05 32.08,-7.03 61.94,-35.22 26.85,-25.35 13.8,-25.09 49.1,-50.24 -28.19,-15.81 -60.23,-33.88 -86.97,-45.96 -101.48,112.86 -157.35,154.91 -181.07,370.21z"/>
   <path class="fil1" d="M7648.81 9946.03c-47.54,166.64 105.18,261.11 170.53,183.03 45.09,-53.88 -7.98,-269.64 -170.53,-183.03z"/>
   <path class="fil1" d="M4299.99 9933.24c-96.52,42.76 -106.48,277.07 41.96,228.65 97.94,-31.95 97.76,-290.54 -41.96,-228.65z"/>
   <path class="fil1" d="M5459.42 10397.93c-112.49,72.56 -5.15,266.91 106.03,182.96 84.73,-63.98 19.7,-264.05 -106.03,-182.96z"/>
   <path class="fil9" d="M5273.98 5193.88c-155.22,15.11 -335.86,7.51 -496.76,7.51l0 -1299.37 503.96 9.52c-15.44,-33.17 -452.34,-22.67 -516.61,-16.93l0 1314.18c87.06,7.78 461.66,25.73 509.41,-14.92z"/>
   <path class="fil5" d="M6577.38 7804.67c17.28,-72.99 147,-254.8 261.75,-260.05 -13.62,16.65 -62.24,112.35 -76.64,146.32l192.8 -3.37c-57.74,47.02 -80.57,79.04 -158.71,114.94 -72.26,33.2 -145.68,41.68 -219.19,2.16zm-35.38 14.75c104,34.15 170.78,52.84 278.23,-4.27 59.44,-31.59 164.81,-109.53 195.59,-153.58l-211.36 4.92 80.09 -153.01c-110.03,4.79 -147.45,40.67 -213.69,102.74 -44.08,41.3 -107.84,132.28 -128.87,203.2z"/>
   <path class="fil10" d="M4288.98 5709.19c-23.04,35.59 -35.1,54.7 -62.28,84.29 -31.71,34.51 -49.13,44.62 -47.48,98.34 25.24,11.76 36.64,54.14 60.66,82.09 39.5,-12.24 101.99,-75.65 115.07,-125.63 9.52,-36.37 4.74,-72.48 -6.01,-102.64 -23.96,-67.22 -20.82,-42.05 -59.95,-36.45z"/>
   <path class="fil10" d="M4046.44 5940.55c26.47,8.11 43,76.81 169.6,120.56 16.71,-110.16 -34.7,-87.83 -43.87,-171.98 -65.78,-42.17 -114.7,-83.21 -193.39,-111.05 17.98,74.57 39.63,102.52 67.66,162.47z"/>
   <path class="fil3" d="M4989.98 8030.58l-3.14 -197.12c-56.28,-85.23 -149.33,-44.15 -184.32,19.95l82.65 97.4c29.07,30.74 69.27,61.41 104.8,79.77z"/>
   <polygon class="fil2" points="5813.79,10396.54 5816.03,10505.19 6052.33,10498.17 6045.72,10383.92 "/>
   <polygon class="fil2" points="4518.06,10362.51 4747.82,10416.99 4768.31,10304.84 4545.05,10255.9 "/>
   <path class="fil1" d="M1644.82 3529.08c18.64,-13.92 5.18,0.75 25.54,-25.19 8.2,-10.44 14.56,-22.66 23.2,-37.38 20.98,-35.79 30.92,-46.75 43.18,-90.38l-248.79 -42.17c15.46,49.59 117.26,172.5 156.88,195.12z"/>
   <path class="fil1" d="M8688.72 2212.51c14.64,37.52 91.05,102.98 131.93,118.6l89.61 -237.29c-49.49,12.09 -190.67,87.99 -221.54,118.68z"/>
   <path class="fil1" d="M5703.51 1126.56l177.82 4.7 -80.3 -243.81c-36.99,36.37 -91.13,183.02 -97.52,239.11z"/>
   <path class="fil1" d="M5457.56 10266.37c36.9,34.89 58.81,25.61 112.6,13.32 130.16,-236.63 -256,-159.09 -112.6,-13.32z"/>
   <path class="fil11" d="M5653.15 7874.28c46.17,31.54 33.58,52.55 0,73.57 -35.84,-20.93 -47.9,-43.5 0,-73.57zm0 -39.15c-30.39,-22.66 -26.36,-11.92 -17.06,-47.09 43.91,-10.65 59.91,10.51 17.06,47.09zm-61.29 121.42c86.12,54.7 148.74,25.68 111.55,-91.88 -13.64,-43.13 5.63,-15.85 7.43,-60.71 3.32,-82.3 -105.41,-69.07 -105.41,-31.12 -29.1,37.29 0.81,62.07 0.21,79.98 -0.63,18.83 -22.98,25.02 -13.78,103.73z"/>
   <path class="fil11" d="M5494.76 7945.94c-36.95,-34.54 -38.08,-130.8 0,-163.62 30.93,30.93 42.5,130.6 0,163.62zm-38.97 30.44c61.85,13.95 89.31,7.64 100.87,-62.1 7.77,-46.89 4.52,-135.23 -25.7,-158.58 -105.73,-81.67 -121.63,133.62 -75.16,220.68z"/>
   <path class="fil12" d="M5667.06 8236.06c-45.62,2.87 -63.2,-62.11 -1.72,-78.22 45.38,63.91 1.99,77.78 1.72,78.22zm-20.42 -157.63c74.12,0.38 -20.81,11.68 69.9,18.6 -25.8,-103.48 -142.57,-79.73 -129.37,85.99 5.74,72.16 24.18,93.62 92.11,93.74 72.46,-64.05 48.66,-181.47 -51.59,-146.14l18.95 -52.19z"/>
   <path class="fil11" d="M5640.97 7577.05c-3.63,-5.14 -19.31,5.39 -18.22,-40.53 1.35,-57.18 11.35,-31.63 18.22,-41.31 16.93,8.23 33.92,1.61 34.92,42.24 1.29,52.75 -22.88,32.77 -34.92,39.6zm32.5 24.55l-8.96 54.36c-70.85,-4.56 0.17,-13.59 -71.48,-18.62 3.52,61.16 18.89,63.64 83.09,54.43 59.26,-55.56 63.92,-229 -24.55,-235.34 -97.26,-6.97 -91.22,201.84 21.9,145.17z"/>
   <path class="fil11" d="M5429.12 7526.93c90.78,-7.76 -0.04,-11.64 72.57,-33.02 56.93,67.76 -61.8,93.52 -73.49,199.43l102.59 -0.82c37.15,-6.34 15.53,-3.47 28.2,-9.68 -10.86,-47.08 -3.34,-31.69 -69.07,-31.69 25.53,-41.27 89.16,-93.06 64.41,-160.99 -10.11,-27.73 -33.87,-37.43 -68.72,-33.5 -46.64,5.26 -47.45,21.57 -56.48,70.28z"/>
   <path class="fil10" d="M4102.17 5712.74c-51.21,-45.01 -13.53,-49.14 -81.27,-80l11.42 148.05c95.93,41.81 105.5,96.69 162.06,13.63l-17.59 -21.51c-1.83,-1.83 -4.64,-4.26 -6.59,-6.07l-68.03 -54.1z"/>
   <path class="fil10" d="M4100.62 5688.91c49.37,20.51 43.61,32.23 80.86,54.19 34.7,20.47 0.57,3.42 40.07,18.91 31.15,-99.81 16.1,-150.94 -55.21,-211.71 -19.17,73.09 -43.91,81.78 -65.72,138.6z"/>
   <path class="fil10" d="M4081.5 5645.52l44.62 -81.64c-66.27,-53.22 -32.45,-35.26 -68.98,-98.51 -35.21,13.98 -65.64,43.19 -59.05,96.51 5.2,42.14 53.36,62.88 83.42,83.64z"/>
   <path class="fil8" d="M5621.57 8572.22c67.49,33.39 192.5,48.03 269.8,43.29 -41.07,-71.82 -188.14,-110.19 -269.8,-43.29z"/>
   <polygon class="fil13" points="2754.63,2356.05 2823.49,2437.07 2908.57,2370.97 2840.43,2286.14 "/>
   <polygon class="fil13" points="2016.99,3197.27 2105.34,3263.18 2167.98,3176.29 2084.31,3112.41 "/>
   <path class="fil13" d="M5327.51 6436.81c-23.3,-70.54 -97.09,-125.7 -173.76,-142.76 11.96,52.73 28.48,60.71 60.53,97.72 37.39,43.17 38.34,45.66 113.22,45.04z"/>
   <path class="fil14" d="M5726.4 6492.17c18,-44.06 -9.66,-41.92 -35.09,-99.36 -24.67,5.78 -37.45,13.72 -47.47,12.19 -56.36,-8.6 22.31,-25.75 -58.99,-11.87 33.93,112.31 48.22,60.8 104.76,85.44 23.11,10.07 -7.48,19.67 36.78,13.59z"/>
   <path class="fil15" d="M6686.41 6001.53c18.87,30.55 62.01,54.77 103.04,94.92 3.36,-18.15 2.84,-37.31 1.3,-60.15l-12.3 -66.16c-0.84,-2.46 -2.82,-6.29 -4.43,-9.33 -48.68,1.61 -68,10 -87.61,40.72z"/>
   <path class="fil4" d="M6600.86 7803.99c91.93,2.86 243.69,-22.82 281.85,-97.06 -75.19,15.5 -123.95,87.04 -237.27,72.01 24.44,-43.36 55.59,-67.27 73.24,-121.02l-117.82 146.06z"/>
   <path class="fil11" d="M5465.38 8121.14c27.08,-23.44 -35.15,-12.28 34.24,-21.08l0 167.74 23.76 0 0 -232.97 -60.22 43.49c-21.2,23.45 -21.31,18.01 -23.4,52.77l25.63 -9.96z"/>
   <path class="fil16" d="M5408.78 6319.72l83.4 22.89c-8.83,-97.92 -62.49,-69.45 -104.24,-159.74 -3.02,66 3.38,89.53 20.84,136.85z"/>
   <path class="fil17" d="M4988.67 7609.2c17.47,31.92 57.68,74.53 78.85,103.04 -18.65,-85.77 -48.94,-180.51 -78.61,-247.27l-0.25 144.23z"/>
   <path class="fil17" d="M5494.76 7945.94c42.5,-33.02 30.93,-132.68 0,-163.62 -38.08,32.82 -36.95,129.08 0,163.62z"/>
   <path class="fil18" d="M6442.83 7700.89c55.29,-27.21 174.18,-174.69 184.99,-228.34 -92.37,52.87 -44.16,66.93 -82.95,115.17 -47.67,59.28 -60.99,10.03 -102.04,113.18z"/>
   <path class="fil19" d="M7083.47 7169.42c61.91,34.06 85.03,17.99 136.93,74.82 -0.05,53.85 -23,53.82 -7.79,80.01 112.28,-100.82 -86.1,-181.98 -129.15,-154.83z"/>
   <path class="fil18" d="M6804.54 6972.09c29.66,-73.76 51.1,-88.3 37.35,-188.4 -19.5,34.95 -37.37,26.44 -43.54,70.91 -3.14,22.64 4.08,91.19 6.19,117.49z"/>
   <path class="fil20" d="M5465.38 8121.14c31.15,23.92 14.3,-43.17 22.15,48.01 7.12,82.69 -31.33,97.37 31.61,108.92 22.54,-31.89 20.94,-178.14 11.74,-226.88l-7.5 -16.36 0 232.97 -23.76 0 0 -167.74c-69.39,8.8 -7.16,-2.36 -34.24,21.08z"/>
   <path class="fil21" d="M7017.23 8464.06c50.71,-21.32 97.19,-83.91 135.53,-122.26 38.18,-38.18 101.21,-85.05 122.1,-135.53 -29.25,18.97 -238.89,228.67 -257.64,257.79z"/>
   <path class="fil2" d="M6563.28 6628.58c58.56,14.73 87.06,-4.16 87.16,-62.49l-74.4 -8.33 -12.76 70.82z"/>
   <path class="fil1" d="M5890.16 6611.68c9.87,57.36 -4.02,7.77 16.52,44.69 36.59,-7.42 19.94,-1.66 49.56,-19.31 7.19,-9.09 11.52,-20.87 19.17,-26.36 -3.12,-1.65 -7.24,-3.48 -9.6,-4.48l-37.49 -14.82c-47.95,-19.28 5.44,-5.63 -42.6,-15.51l4.44 35.8z"/>
   <path class="fil22" d="M6604.61 6760.6c-42.17,-7.47 -53.28,-46.64 -74.59,-39.3 3.88,5.74 -11.28,3.63 23.9,35.62 70.93,64.5 138.29,12.96 143.14,-32.28 -50.4,16.96 -24.42,48.01 -92.45,35.96z"/>
   <path class="fil0" d="M5675.88 7537.45c-0.99,-40.63 -17.99,-34.01 -34.92,-42.24 -6.87,9.69 -16.87,-15.87 -18.22,41.31 -1.09,45.92 14.59,35.39 18.22,40.53 12.04,-6.83 36.21,13.14 34.92,-39.6z"/>
   <path class="fil0" d="M5667.06 8236.06c0.27,-0.43 43.65,-14.31 -1.72,-78.22 -61.48,16.11 -43.89,81.09 1.72,78.22z"/>
   <path class="fil0" d="M5653.15 7947.85c33.58,-21.02 46.17,-42.03 0,-73.57 -47.9,30.07 -35.84,52.65 0,73.57z"/>
   <path class="fil23" d="M9417.87 9607.87c46.99,-24.82 70.22,-53.3 105.73,-89.28 35.49,-35.96 63.82,-59.41 88.89,-105.66l-194.62 194.94z"/>
   <path class="fil23" d="M6020.66 6566.6c2.12,2.95 5.23,3.79 6.23,8.93 2.68,13.69 5.85,8.69 11.43,17.08 10.34,15.56 10.17,16.01 18.14,27.23 13.54,-36.57 -23.92,-15.94 33.89,-24.63 0.6,19 -0.92,33.48 2.93,52.67 8.16,40.64 8.34,24.96 14.98,35.03l-7.36 -84.4c-35.35,-33.9 -19.34,-2.66 -36.08,-41.57l-18.97 20.84 -25.18 -11.18z"/>
   <path class="fil24" d="M5890.16 6611.68l-4.44 -35.8c48.04,9.88 -5.34,-3.76 42.6,15.51l37.49 14.82c2.36,1 6.48,2.82 9.6,4.48 -7.65,5.5 -11.98,17.27 -19.17,26.36 41.16,-14.87 10.66,11.03 31.3,-26.36 -32.28,-47.67 4.29,-8.56 -48.56,-30.22 -41.36,-16.95 -1.82,-16.41 -64.74,-16.73 -0.06,70.12 0.33,28 15.92,47.93z"/>
   <path class="fil17" d="M6298.6 7868.02c5.97,-57.93 12.92,-96.24 -15.21,-132.69 -21.47,30.57 1.05,106.57 15.21,132.69z"/>
   <path class="fil23" d="M1778.77 1968.78l170.57 -170.57c-56.86,30.04 -140.56,113.76 -170.57,170.57z"/>
   <path class="fil19" d="M7069.69 6266.29l83.4 -8.07c17.8,18.58 16.89,19.23 37.11,33.53 -14.23,-66.26 -84.73,-70.98 -120.51,-25.45z"/>
   <path class="fil25" d="M6371.97 7739.01c42.03,-10.07 38.04,-22.91 48.77,-59.94 -39.38,9.38 -71.33,11.77 -48.77,59.94z"/>
   <path class="fil21" d="M4447.45 8646.57c-26.4,-40.06 -75.96,-85.28 -122.22,-110.19 36.36,41.75 77.78,92.03 122.22,110.19z"/>
   <path class="fil21" d="M4214.8 8425.96c-24.86,-45.78 -70.53,-95.81 -109.74,-122.66 17.12,44.37 68.13,86.58 109.74,122.66z"/>
   <path class="fil21" d="M2094.86 2419.13c39.86,-28.53 80.68,-72.2 111.28,-110.24 -41.36,16.38 -95,69.5 -111.28,110.24z"/>
   <path class="fil22" d="M7174.25 6413.39c18.5,8.51 -9.18,20.45 21.75,-1.42 16.44,-11.62 37.92,-44.12 35.99,-76.24 -21.92,16.93 -56.58,59.37 -57.73,77.66z"/>
   <path class="fil17" d="M5636.08 7788.04c-9.29,35.17 -13.33,24.43 17.06,47.09 42.84,-36.58 26.84,-57.74 -17.06,-47.09z"/>
   <path class="fil23" d="M5287.59 7168.85l-107.28 -107.31c24.87,53.43 53.33,81.88 107.28,107.31z"/>
   <path class="fil26" d="M5689.7 6293.44c36.29,-19.9 23.81,-26.27 21.84,-76.47 -5.28,9.34 -17.27,28.23 -22.07,41.68 -13.53,37.96 -9.4,15.46 0.23,34.79z"/>
   <path class="fil23" d="M6102.85 6013.65c-23.82,-49.85 -46.31,-72.72 -96.32,-96.32l96.32 96.32z"/>
   <path class="fil9" d="M3510.78 10168.18l71.14 -70.28c-49.2,20.66 -50.85,21.12 -71.14,70.28z"/>
   <path class="fil23" d="M7538.93 4027.77c-21.21,-49.38 -21.37,-49.78 -70.4,-71.59l70.4 71.59z"/>
   <path class="fil9" d="M9395.34 3138.38l71.14 -71.59c-48.8,22.14 -49.74,22.7 -71.14,71.59z"/>
   <path class="fil9" d="M2570.46 2334.28c-22.72,-46.76 -25.99,-48.86 -72.74,-71.58l72.74 71.58z"/>
   <path class="fil23" d="M9393.54 1763.37c-22.86,-34.39 -44.98,-52.66 -85.33,-73.07l85.33 73.07z"/>
   <path class="fil27" d="M4492.86 9924.51c-14.94,-47.51 -15.21,-40.92 -57.99,-57.8 35.47,28.64 29.18,22.48 57.99,57.8z"/>
   <path class="fil27" d="M3705.43 9741.54c19.9,-21.95 24.72,-26.83 45.19,-47.61 -43.17,21.83 -26.43,-6.05 -45.19,47.61z"/>
   <path class="fil27" d="M7807.68 1591.47c-19.55,-20.97 -26.02,-27.6 -45.95,-48.77 22.14,44.33 -5.81,26.58 45.95,48.77z"/>
   <path class="fil27" d="M5675 10119.44c-20.27,-45.41 7.96,-27.89 -44.3,-47.6 21.5,21.58 24.12,24.05 44.3,47.6z"/>
   <path class="fil28" d="M5765.34 8523.2l-1.3 -23.74c-5.68,3.55 -19.2,8.64 -24.61,17.75l25.91 6z"/>
   <path class="fil26" d="M6260.86 7659.66c3.62,18.77 -1.62,12.73 7.82,29.14 8.9,15.5 9.58,12.54 18.7,21.63l-26.52 -50.77z"/>
   <path class="fil29" d="M7985.14 1872.63c25.29,-16.19 12.12,16.46 28.26,-37l-28.26 37z"/>
   <path class="fil27" d="M2399.39 2724.79c-25.6,-33.61 -6.21,-16.29 -47.64,-36.6l47.64 36.6z"/>
   <polygon class="fil29" points="9211.51,2575.79 9246.62,2552.92 "/>
  </g>
 </g>
</svg>
