<?xml version="1.0" encoding="UTF-8"?>
<!DOCTYPE svg PUBLIC "-//W3C//DTD SVG 1.1//EN" "http://www.w3.org/Graphics/SVG/1.1/DTD/svg11.dtd">
<!-- Creator: CorelDRAW 2019 (64 Bit) -->
<svg xmlns="http://www.w3.org/2000/svg" xml:space="preserve" width="60.7819mm" height="66.0004mm" version="1.1" style="shape-rendering:geometricPrecision; text-rendering:geometricPrecision; image-rendering:optimizeQuality; fill-rule:evenodd; clip-rule:evenodd"
viewBox="0 0 5986.23 6500.19"
 xmlns:xlink="http://www.w3.org/1999/xlink">
 <defs>
  <style type="text/css">
   <![CDATA[
    .fil0 {fill:#4D4171}
    .fil2 {fill:#EE4037}
    .fil1 {fill:#FEFEFE}
   ]]>
  </style>
 </defs>
 <g id="Camada_x0020_1">
  <metadata id="CorelCorpID_0Corel-Layer"/>
  <g id="_1846983881520">
   <path class="fil0" d="M5724.81 3265.63c-4.45,-4.45 -4.45,-8.9 -8.9,-13.27 -482.97,-855.21 -389.96,-1590.71 270.33,-2197.76l-1010.27 -1036.88c-722.24,398.76 -1382.42,394.4 -1985.03,-17.72 -598.15,407.67 -1258.34,416.48 -1976.21,17.72l-1014.72 1036.88c664.64,607.05 753.3,1338.09 270.33,2197.76 0,0 -4.45,4.45 -4.45,13.27 -549.46,1488.88 -88.66,2388.24 1378.06,2689.63 17.72,0 35.43,4.45 53.14,8.81 522.85,66.49 957.13,248.16 1298.31,536.11 341.18,-288.04 775.46,-465.26 1298.22,-536.11 17.72,0 31.06,-4.45 48.69,-8.81 1466.72,-301.3 1927.44,-1196.39 1382.51,-2689.63z"/>
   <path class="fil1" d="M5600.72 3314.32l0 4.45c256.97,695.61 279.14,1258.43 70.94,1679.36 -221.55,412.03 -673.54,686.81 -1355.9,828.51l-4.45 0c-13.27,0 -26.61,4.45 -44.33,8.81 -505.13,66.49 -930.52,230.45 -1271.61,491.87 -341.18,-261.42 -766.56,-425.46 -1276.15,-496.33 -13.27,0 -26.52,-4.45 -44.33,-8.81 -686.81,-137.34 -1138.72,-416.48 -1355.9,-828.6 -212.64,-420.93 -186.12,-979.21 70.85,-1679.27 491.87,-877.37 425.39,-1630.67 -199.39,-2264.25l846.31 -872.93c708.97,363.34 1360.35,358.89 1954.05,-17.72 598.15,376.69 1249.54,385.6 1958.5,22.16l846.31 872.93c-624.76,629.13 -686.81,1386.79 -194.94,2264.17l0 -4.45 0.02 0.09z"/>
   <path class="fil0" d="M5613.99 1054.61l-691.17 -713.42c-695.7,332.28 -1338.18,323.46 -1931.97,-22.16 -589.34,341.18 -1231.82,349.99 -1922.99,22.16l-695.7 713.42c589.34,651.3 633.58,1426.75 137.34,2321.75 -239.26,646.93 -261.42,1165.33 -70.85,1559.73l-4.45 -4.45c208.28,376.6 629.21,629.13 1267.24,762.11 4.45,0 8.9,0 17.72,4.45 4.45,0 13.35,0 17.72,4.45 4.45,0 4.45,0 8.9,0 491.79,66.49 908.36,217.1 1249.54,460.81 341.18,-239.26 757.66,-389.87 1249.45,-456.36l4.45 0c8.81,-4.45 17.72,-4.45 22.16,-8.9 4.45,0 8.9,-4.45 17.72,-4.45 633.67,-128.54 1059.05,-385.51 1262.79,-757.66 190.57,-389.96 163.96,-908.36 -70.85,-1559.73 -500.69,-890.64 -456.36,-1666.1 132.9,-2321.75l0.07 0z"/>
   <path class="fil1" d="M5015.84 3274.44c0,-553.91 -195.02,-1032.43 -593.79,-1426.75 -394.32,-389.87 -872.84,-589.25 -1431.2,-589.25 -562.73,0 -1036.79,199.39 -1435.57,589.25 -394.4,394.32 -593.79,872.93 -593.79,1426.75 0,558.27 199.39,1032.35 593.79,1422.3 398.76,394.4 872.84,593.79 1435.57,593.79 558.27,0 1036.88,-199.39 1431.2,-593.79 398.76,-389.96 593.79,-864.03 593.79,-1422.3z"/>
   <path class="fil0" d="M4329.03 1940.8c367.79,372.15 553.82,815.25 553.82,1333.73 0,518.4 -181.67,961.49 -553.82,1329.28 -372.24,367.7 -815.34,553.82 -1338.18,553.82 -522.85,0 -970.3,-186.12 -1342.55,-553.82 -367.7,-367.79 -553.82,-810.88 -553.82,-1329.28 0,-518.4 186.12,-961.49 553.82,-1333.73 372.24,-367.79 819.7,-549.46 1342.55,-549.46 522.85,0 965.94,181.67 1338.18,549.46z"/>
   <path class="fil1" d="M1741.31 2007.2c-4.45,4.45 -8.81,8.81 -13.27,13.27 -350.08,345.72 -522.85,766.56 -522.85,1253.98 0,487.42 172.85,903.99 522.85,1249.54 350.08,350.08 771.01,522.85 1262.79,522.85 491.87,0 912.81,-172.85 1258.43,-522.85 4.45,-4.45 8.81,-8.81 13.27,-8.81 341.18,-345.63 509.58,-757.66 509.58,-1240.72 0,-487.42 -172.85,-908.36 -522.85,-1253.98 -345.63,-345.54 -766.56,-518.4 -1258.43,-518.4 -487.42,0 -903.9,168.4 -1249.54,505.13l0.01 0z"/>
   <polygon class="fil2" points="3628.96,3394.07 4652.5,2631.96 3367.54,2631.96 2986.48,1502.07 2600.98,2631.96 1320.39,2631.96 2339.47,3394.07 1900.91,4679.03 2986.48,3872.68 4067.52,4679.03 "/>
   <path class="fil1" d="M2326.21 3194.68c0,57.67 4.45,115.27 22.16,172.85 26.61,106.37 84.21,208.28 168.4,292.49 132.9,128.54 288.04,194.94 469.7,194.94 181.67,0 336.73,-66.49 465.26,-194.94 128.45,-128.54 190.48,-283.58 194.94,-465.26 -4.45,-181.67 -66.49,-336.73 -194.94,-469.63 -128.54,-128.54 -283.58,-190.57 -465.26,-190.57 -181.67,0 -336.82,62.04 -469.7,190.57 -84.21,88.66 -141.7,186.12 -168.4,296.85 -17.72,53.14 -22.16,110.73 -22.16,172.77l0 -0.07z"/>
   <path class="fil2" d="M2547.75 2756.04c119.63,-124.08 265.88,-181.76 438.73,-181.76 168.4,0 314.57,57.67 434.19,181.76 124,119.63 181.67,265.88 181.67,438.64 0,168.4 -57.59,314.66 -181.67,434.28 -119.63,124 -265.88,181.67 -434.19,181.67 -172.85,0 -319.01,-57.67 -438.73,-181.67 -124.08,-119.63 -181.67,-265.88 -181.67,-434.28 0,-172.77 57.59,-319.01 181.67,-438.64z"/>
   <path class="fil1" d="M2915.54 2631.96c-39.88,4.45 -79.75,13.27 -115.18,26.61l0 1054.6c35.43,8.81 75.3,17.63 115.18,22.16l0 -522.94 132.9 0 0 527.3c8.9,-4.36 8.9,-4.36 17.72,-4.36 35.43,-4.54 66.49,-13.35 97.46,-22.16l0 -1054.6c-53.22,-22.16 -115.27,-30.97 -177.22,-30.97 -26.61,0 -48.78,4.45 -70.94,4.45l0.08 -0.09zm62.04 110.82c26.52,0 48.69,4.36 70.85,4.36l0 389.96 -132.9 0 0 -389.96c17.72,0 39.88,-4.36 62.04,-4.36l0.01 0z"/>
   <path class="fil1" d="M3376.35 2791.47c-53.22,-53.14 -110.73,-93.02 -168.4,-119.63l0 1023.54c57.59,-26.52 115.18,-66.49 168.4,-119.63 84.21,-79.75 132.9,-172.77 155.06,-279.14l-128.45 0c-13.35,57.59 -39.88,106.37 -79.75,150.7l0 -531.75c35.43,44.33 62.04,93.02 79.75,141.79l124.08 0c-22.16,-97.46 -70.94,-190.57 -150.61,-265.88l-0.09 0.01z"/>
   <path class="fil1" d="M2676.28 2720.62c-31.06,17.8 -57.59,44.33 -84.21,70.85 -110.82,106.37 -163.96,239.26 -163.96,394.4 0,150.7 53.14,283.58 163.96,389.96 53.14,53.22 110.73,93.1 172.85,119.63l0 -128.54c-35.43,-17.72 -66.49,-44.33 -97.46,-75.3 -79.75,-79.75 -119.63,-172.85 -128.54,-279.14l226 0 0 -75.3 -221.55 0c8.9,-101.91 48.69,-190.57 124.08,-265.88 4.45,0 4.45,-4.45 8.9,-8.9l0 181.67 88.66 0 0 -372.15c-31.06,13.27 -57.59,26.61 -88.66,48.78l-0.09 -0.08z"/>
  </g>
 </g>
</svg>
