<?xml version="1.0" encoding="UTF-8"?>
<!DOCTYPE svg PUBLIC "-//W3C//DTD SVG 1.1//EN" "http://www.w3.org/Graphics/SVG/1.1/DTD/svg11.dtd">
<!-- Creator: CorelDRAW 2019 (64 Bit) -->
<svg xmlns="http://www.w3.org/2000/svg" xml:space="preserve" width="317.655mm" height="297.194mm" version="1.1" style="shape-rendering:geometricPrecision; text-rendering:geometricPrecision; image-rendering:optimizeQuality; fill-rule:evenodd; clip-rule:evenodd"
viewBox="0 0 6077.93 5686.43"
 xmlns:xlink="http://www.w3.org/1999/xlink">
 <defs>
  <style type="text/css">
   <![CDATA[
    .str0 {stroke:black;stroke-width:13.5;stroke-miterlimit:22.9256}
    .fil2 {fill:black}
    .fil18 {fill:black}
    .fil6 {fill:#006634}
    .fil3 {fill:#020202}
    .fil0 {fill:#030303}
    .fil17 {fill:#5C5C5C}
    .fil10 {fill:#6D421F}
    .fil14 {fill:#81807F}
    .fil11 {fill:#9A8E82}
    .fil13 {fill:#9C8F79}
    .fil12 {fill:#C3973E}
    .fil4 {fill:#E4E4E4}
    .fil1 {fill:#E5E5E5}
    .fil16 {fill:#F2E714}
    .fil15 {fill:#FBEC13}
    .fil9 {fill:#FDFDF9}
    .fil5 {fill:#FEF112}
    .fil8 {fill:#FEFEFE}
    .fil7 {fill:red}
   ]]>
  </style>
 </defs>
 <g id="Camada_x0020_1">
  <metadata id="CorelCorpID_0Corel-Layer"/>
  <path class="fil0" d="M1382.82 1532.23c146.81,-88.64 555.78,-198.33 756.73,-243.78 606.25,-137.11 1194.84,-147.52 1802.7,-13.34 130.56,28.82 269.87,68.54 389.53,110.16 62.73,21.82 120.17,43.28 182.48,67.26 58.01,22.32 141.18,47.5 161.18,91.61 -59.13,0.7 -187.9,7.94 -235.17,-10.99 -169.52,-67.9 -368.88,-132.24 -547.75,-174.56 -715.85,-169.39 -1411.48,-118.81 -2104.29,105.39 -211.69,68.51 -145.07,78.51 -405.41,68.25zm-63.12 -246.51c-10.21,-21.91 -18.57,-13.6 39.9,-41.58l177.59 -86.9 24.65 46.07c-37.16,10.96 -229.12,86.51 -242.14,82.41zm100.79 168.73c40.59,-30.6 286.35,-111.03 355.07,-131.6 709.3,-212.28 1393.17,-278.1 2128.28,-110.26 121.85,27.82 654.44,170.49 727.8,235.05l-10.45 30.59c-46.9,-9.21 -130.01,-48.96 -179.95,-67.52 -182.55,-67.86 -360.67,-119.16 -554.48,-160.58 -588.34,-125.74 -1141.58,-102.01 -1724.95,20.16 -128.24,26.85 -258.25,63.01 -379.34,99.9 -61.14,18.63 -319.71,113.83 -351.78,115.5l-10.2 -31.25zm-132.05 -248.67c33.87,-20.8 172.58,-97.96 206.98,-102.17 15.94,18.11 17.43,19.89 29.01,42.83l-219.31 106.68 -16.67 -47.34zm37.53 192.51c54.31,-15.52 131.12,-50.82 188.85,-72.89 187.31,-71.59 398.01,-133.26 594.6,-181.13 847.03,-206.27 1733.3,-116.39 2526.52,227.08 16.79,7.27 29.68,13.5 46.9,20.4l41.3 22.63 -15.62 33.35c-113.78,13.3 -1279.73,-687.07 -2989,-120.22 -60.97,20.22 -336.51,129.44 -372.31,126.01l-21.25 -55.23zm3456.82 -261.09c-8.56,37.59 -41.62,123.11 -61.67,151.47l-229.63 -90.69c23.74,-60.95 71.04,-98.67 107.08,-141.72l24.32 -19.77c13.63,-13.34 20.92,-18.41 37.86,-27.87l138.65 94.63 -16.61 33.95zm-3511.94 20.29c26.05,-20.82 151.81,-98.2 185.28,-102.64l25.61 37.12 -200.79 98.52 -10.1 -33zm3012.38 -118.14l76.83 21.63 -30.34 45.53 -63.68 -17.45 17.19 -49.71zm-2508.26 2.43l15.06 47.68 -67.41 19.92 -25.59 -45.93 77.95 -21.67zm-364.88 -26.53c7.1,10.31 3.54,4.16 11.52,13.38 8.61,9.95 4.96,3.5 12.97,15.92l-171.53 96.64 -16.46 -46.05 163.51 -79.89zm2655.53 -35.5l168.59 45.08 -14.94 48.63 -164.46 -44.53 10.82 -49.18zm-2242.37 49.51c42.39,-23.62 113.88,-36.63 165.8,-46.86l11.29 49.78 -166.75 43.05 -10.35 -45.97zm2244.72 45.97c-33.81,-8.52 -237.64,-45.57 -261.79,-61.05 18.17,-14.59 231.65,39.6 267.48,49.01 42.67,11.2 207.69,42.85 247.41,72.32 -33.06,7.14 -205.33,-48.24 -253.11,-60.28zm-2307.86 -60.15l-51.06 19.4c-20.09,0.73 -6.2,-0.81 -13.92,-8.25l64.99 -11.15zm2492 -6.07c14.88,-9.49 -24.98,-14.63 26.49,-3.69l54.39 11.66c27.69,6.84 10.62,-3.04 26.95,18.99 -51.85,-9.66 -0.46,-9.04 -90.26,-20 -58.03,-7.09 29.98,23.48 -17.56,-6.96zm556.81 75.67c-21.91,-8.57 -117.78,-70.05 -131.3,-89.57 16.79,-17.65 59.75,5.78 76.54,14.95 21.96,12 45.95,23.63 68.74,32.05l-13.98 42.57zm-3048.81 -69.6l46.1 -6.53c-18.02,15.85 -9.25,8.51 -46.1,6.53zm-531.51 34.43c21.47,-16.56 52.35,-28.09 76.74,-41.37 47.31,-25.76 35.84,-23.67 83.54,-6.22 -19.48,19.89 -117.99,68.88 -149.47,80.94l-10.8 -33.35zm2628.28 -111.12l170.49 31.74 -8.42 52.05 -170.06 -31.08 7.99 -52.71zm-1754.26 97.22c30.96,-6.05 72.31,-12.42 101.49,-20.35 64.57,-17.56 6.01,5.71 93.55,-7.13 65.94,-9.68 136.01,-27.61 203.58,-24.02 -54.27,14.16 -143.28,19.68 -203.06,30.94 -63.97,12.05 -128.44,25.29 -192.43,37.76l-328.6 83.42c-2.06,0.63 -20.82,6.23 -20.9,6.24 -25.4,2.07 -11.81,-1.02 -19.41,-5.2l365.78 -101.64zm94.68 -96.74l8.45 50.88 -170.18 32.31 -5.91 -51.31 167.64 -31.87zm2183.03 77.89c8.02,-38.33 3.34,-51.68 36.06,-46.61 -4.07,11.02 -5.92,15.98 -11.69,25.15 -18.11,28.79 -1.25,10.71 -24.37,21.46zm-2710.94 2.6c-15.75,-11.69 -22.95,-28.57 -29.95,-43.76l17.96 -5.8c11.19,15.93 15.44,28.41 12,49.56zm3054.07 -39.76c35.38,-16.05 87.86,-21.94 132.93,-18.43l-26.24 70.91 -106.7 -52.48zm-615.43 -16.64c44.61,-3.25 31.62,-17.52 49.85,15.05l-49.85 -15.05zm-469.6 -47.91l170.6 22.4 -4.95 51.46c-47.06,-5.07 -133.89,-8 -171.24,-27.23l5.59 -46.63zm-1741.31 65.36c7.11,-35.58 11.21,-20.01 56.53,-16.08l-56.53 16.08zm-671.68 54.52c-15.37,-18.23 -24.78,-53.33 -33.15,-79.42 64.65,-2.7 86.21,6.49 143.3,23.33l-110.15 56.09zm1020.86 -98.42c43.21,-6.1 132.87,-25.69 171.11,-20.21l2.86 47.55 -168.9 24.24 -5.07 -51.58zm2098.37 4.09c4.61,2.52 25.27,17.98 6.52,17.98l-14.41 36.4c-45.77,-9.95 -128.53,-21.39 -161.87,-46.95l14.12 -44.56 155.64 37.13zm-920.73 -42.52l173.12 16.44 -1.96 46.05 -172.17 -12.33 1.01 -50.16zm-1555.68 9.62l11.83 47.59 -168.4 42.78 -10.4 -50.36 166.97 -40.01zm762.53 -13.3l-0.28 51.93 -171.1 11.37 1.26 -51.66 170.12 -11.64zm1795.57 283.43c34.06,-66.25 145.13,-179.51 211.38,-218.83 64.11,-38.05 321.89,-133.93 289.46,-15.29 -81.24,14.51 -164.69,-23.39 -289,62.89 -95.75,66.46 -109.1,118.59 -167.01,188.77l-44.83 -17.54zm-2849.95 14.08c-29.65,-38.02 -46.18,-68.87 -76.94,-105.81 -27.61,-33.17 -50.62,-59.36 -90.46,-85.15 -138.57,-89.7 -220.37,-43.41 -286.76,-63.63 -6.16,-41.86 4.38,-53.74 49.23,-53.93 118.08,-0.5 224.07,48.53 313.16,116.28 36.82,28 129.04,131.37 145.94,179.12l-54.15 13.12zm2366.71 -268.02c-16.41,7.25 -46.69,-2.08 -60.86,-8.73 27.36,-0.84 43.28,-2.42 60.86,8.73zm22.48 -71.06l170.93 32.26 -8.45 52.28 -169.38 -32.74 6.9 -51.8zm-131.03 72.26c-14.76,-10.91 -13.54,-10.88 -33.22,-14.44 -8.56,-1.55 -15.55,-1.05 -24.41,-3.5 -11.7,-3.23 -10.75,-4.72 -16.01,-9.8l93.97 12.75 -20.33 14.98zm-1745.56 -70.76l5.39 50.76 -166.73 32.99 -8.84 -50.69 170.19 -33.06zm23.63 70.17c9.76,-6.76 182.64,-36.99 212.85,-29.52 -18.65,13.56 -28.52,10.41 -54.18,14.09 -25.93,3.72 -30.12,1.29 -41,18.19 -71.6,-32.13 -76.63,9.54 -117.68,-2.76zm314.78 -36.97c0.38,-7.79 4.63,-1.73 7.23,-1.27 14.66,2.57 -1.51,-19.71 2.88,2.14 2.3,11.44 -10.73,11.99 -10.11,-0.86zm-844.2 0c26.77,-16.81 103.52,-42.16 140,-42.26l10.27 42.26c-25.72,17.25 -88.64,34.97 -125.41,41.86l-24.86 -41.86zm2754.09 -48.97l137.98 45.18 -30.73 42.22 -125.3 -40.75 18.05 -46.65zm-2455.54 42.22c-0.34,-9.6 -5.46,-3.91 6.63,-1.13 18.92,4.33 -5.64,28.43 -6.63,1.13zm2288.96 -0.83c1.84,8.38 -11.27,16.65 -10.05,0.83 0.92,-11.83 -8.15,-7.6 9.3,-2.1 0.09,0.03 0.73,1.22 0.74,1.26zm-1526.65 -11.89l22.16 5.18 -5.96 32.96 -16.2 -38.14zm-343.15 -50.12l7.1 49.31 -171.71 24.15 -5.99 -51.63 170.59 -21.83zm1451.2 -0.56l171.88 23.81 -5.47 51.18 -170.89 -25.25 4.48 -49.74zm-199.05 -10.83c33.18,-11.85 125.2,10.78 170.29,15.74l-4.46 48.16c-37.59,5.81 -127.61,-12.52 -172.38,-17.26l6.55 -46.63zm-1050.73 -7.8l1.91 51.9 -168.49 19.45 -5.69 -49.18 172.26 -22.17zm1619.1 -15.2l165.83 40.03 -11.28 52.29 -169.41 -42.31 14.86 -50zm-611.86 15.19c8.85,18.1 4.13,30.66 0.62,51.87 -23.68,6.63 -33.61,4.76 -51.92,-4.04l-58.53 -0.99 -9.75 -52.59 119.57 5.75zm-1741.42 34.81c23.43,-19.68 129.08,-41.37 167.18,-48.83l10.97 49.52 -168.05 43.44 -10.1 -44.13zm2683.88 -56.89l77.04 21.83 -30.88 46.37 -58.76 -19.28 12.6 -48.92zm-1906.52 20.28l132.37 -8.46 -8.94 52.72 -125 4.03 1.56 -48.29zm-1014.89 9.61c15.11,-12.42 47.65,-21.64 69.91,-23.89l13.27 47.31 -60.22 17.23 -22.96 -40.65zm2373.55 -61.53l168.81 31.78 -6.04 51.77 -170.05 -31.14 7.28 -52.42zm-1754.54 0.91l5.11 51.16 -167.68 31.94 -7.67 -51.44 170.23 -31.66zm1517.58 47.71l-15.75 -18.54 15.75 18.54zm577.32 -71.9l168.68 41.1 -11.16 51.38 -168.73 -41.35 11.22 -51.13zm-2436.9 4.41l11.68 48.17 -168.48 42.43 -9.41 -49.84 166.21 -40.76zm554.73 -10l5.3 48.84 -171.38 23.99c-0.58,-6.7 -3.27,-26.26 -2.92,-31.47 1.77,-27.06 -0.69,-9.51 5.7,-21.29l163.3 -20.07zm1333.43 -1.11l166.77 24.75 -5.39 48.84c-37.15,-2.46 -150.26,-9.85 -172.03,-29.38l10.65 -44.21zm-224.96 -16.78l171.17 10.25 -0.44 52.03c-51.95,-2.34 -127.35,3.14 -172.58,-14.76l1.85 -47.51zm-888.55 -3.06l2.45 43.85c-1.63,1.12 -3.91,2.21 -5.23,2.78 -30.01,12.84 -81.94,11.91 -167.3,16.72l-1.27 -51.87 171.36 -11.49zm-538.25 41.09c0.46,-2.2 11.9,-7.59 13.71,-7.78 26.55,-2.79 1.63,-2.54 12.78,6.34l-26.49 1.44zm1986.65 -64.73c12.68,-6.62 -2.93,-4.6 20.66,-4.48l149.36 38.44 -12.87 46.14 -164.38 -39.94 7.23 -40.17zm-2009.23 -7.16l7.31 49.76 -166.83 37.07 -8.24 -48.19 167.76 -38.65zm1407.67 79.04l-41.77 -2.76c-7.65,-8.94 -4.82,8.12 -13.25,-24.8 -1.76,-6.88 -2.36,-19.78 -3.21,-27.15l61.75 3.5 -3.52 51.21zm-804.39 -55.07l75.12 -4.53 -12.68 52.61 -64.78 3.18 2.34 -51.26zm1705.58 452.97c29.94,-30.63 340.85,-538.07 371.41,-568.94l281.54 118.17 -88.8 180.99c-128.51,20.84 -204.62,27.66 -296.03,95.44 -57.25,42.45 -154.09,144.86 -185.92,204.99 -25.73,-5.05 -64.05,-10.88 -82.2,-30.66zm-2983.42 -576.8c18.34,14.99 78.94,117.12 96.8,145.28l281.1 440.33 -81.18 21.53c-33.09,-69.91 -127.19,-171.64 -187.73,-210.95 -110.85,-71.98 -152.98,-70.52 -300.4,-93.5l-85.79 -184.23 277.2 -118.45zm2463.82 65.42l171.78 28.15 -6.71 45.83 -169.48 -23.56 4.4 -50.43zm415.79 69.75c-5.21,-22.48 -2.37,-20.39 -28.49,-25.48 57.4,-0.51 323.25,76.83 353.42,103.97 -36.99,-7.46 -41.7,-15.31 -100.39,-25.51 -28.03,-4.87 -6.64,0.05 -20.67,-6.07 -42.62,-18.6 -161.48,-53.26 -203.87,-46.91zm-2155.58 -46.53c38.64,-6.52 137.81,-25.07 171.24,-20.82l2.57 47.83 -168.09 23.88 -5.72 -50.89zm1521.88 -46.76l172.53 22.86 -5.71 46.88c-37.57,8.92 -128.46,-12.67 -172.31,-17.64l5.49 -52.1zm-1133.71 -0.75l5.1 50.27 -171.3 22.37 -2.89 -49.8 169.09 -22.83zm914.37 -8.97l172.01 10.28 -1.32 51.32 -171.9 -9.46 1.21 -52.13zm-867.7 7.07c38.95,-2.06 77.86,-4.68 116.46,-7.78 62.48,-5.02 56.09,-14.96 59.34,47.98l-173.26 11.07 -2.54 -51.27zm-999.86 177.06c4.38,-3.43 5.63,-5.27 14.29,-10.08 75.46,-41.89 411.82,-124.01 485.01,-130.26 -29.94,2.84 -155.88,28.75 -178.82,52.43l-7.05 8.81c-32.27,-3.75 -127.11,26.28 -163.48,36.85 -47.6,13.84 -9.73,9.33 -67.21,20.45 -29.21,5.65 -51.79,16.8 -82.73,21.79zm2494.37 -143.86c8.57,-5.85 -2.76,-4.77 13.09,-5.44 26.11,-1.1 8.96,2.81 14.94,6.27 -39.34,18.35 -13.2,11.69 -28.03,-0.83zm-1948.04 0.83c0,0 43.59,6.31 -17.57,7.25 -1.44,0.02 -3.59,-0.63 -4.93,-0.86 -1.81,-0.31 -14.39,-10.52 -14.53,-10.61 2.71,-0.66 18.83,-4.16 20.66,-4.07 25.03,1.22 5.17,-0.56 16.37,8.29zm120.5 -29.89l-120.5 29.89zm120.5 -29.89c82.02,-10.28 184.75,-34.07 271.37,-30.06 -47.72,20.57 -127.22,17.65 -179.33,37.04l-11.03 -5.26c-1.8,-0.71 -3.61,-1.78 -5.62,-2.46 -34.21,-11.58 -25.84,-2.9 -33.83,-1.62 -20.45,3.28 -19.95,4.46 -41.56,2.36zm1400.85 -20.25c-1.3,0.07 -3.07,0.12 -4.39,0.04l-82.59 -9.9c-80.85,-5.23 -114.66,-19.34 -140.33,13.14l-3.76 -30.74c163.97,2.25 311.72,19.41 471.77,37.99 -31.73,19.78 -16.1,13.73 -51.46,6.22 -53.78,-11.42 -134.46,-24.39 -184.71,-17.65 -1.41,0.19 -3.16,0.82 -4.53,0.89zm-1105.73 -11.83c26.04,-8.06 227.4,-16.99 262.51,-14.97 -5.91,40.54 -12.16,60.67 -24.26,94.56 0.84,-28.67 -1.87,-61.27 -10.72,-83.09 -31.37,-8.34 -169.21,2.5 -192.94,7.77 -26.81,5.96 -13.51,22.37 -34.6,-4.26zm20.77 -169.29l113.48 -0.32 0 93.87 140.79 -5.48 -7.79 39.84c-288.13,22.97 -360.34,12.42 -669.8,66.01 -102.2,17.7 -201.82,39.34 -299.21,64.92 -47.36,12.44 -93.98,25.93 -140.92,41.36 -40.89,13.45 -99.2,38.98 -138.94,47.05 -9.15,-21.24 -21.4,-34.95 -30.89,-57.58l122.62 -35.52 -28.34 -85.96 110.2 -39.18 38.36 92.24 109.53 -24.17 -16.16 -80.86 122.01 -25.85 17.39 80.63 109.1 -18.62 -11.57 -98.2 94.64 -11.58 12.14 95.37c42.71,-4.07 105.47,-4.39 139.53,-21.54l-9.29 -87.78 88.97 -6.58 9.94 89.89 123.62 -10.37 0.59 -101.6zm1301.41 94.64c7.05,25.26 -3.92,7.13 11.64,23.05l129.67 15.18 17.52 -96.16 75.61 13.98 -14.38 92.84c30.04,15.76 111.56,28.93 150.1,33.27l22.21 -93.37 67.71 15.41 -19.29 94.76 138.26 36.55 31.3 -100.51 80.19 23.25 -29.53 98.63c35.56,26.47 104.4,25.52 139.58,53.99 -8.4,16.05 -13.24,25.44 -25.64,37.47 -346.59,-106.03 -522.38,-154.26 -895.06,-194.49 -53.89,-5.82 -309.92,-14.86 -334.7,-24.94l-5.97 -44.27 125.47 4.44 0.26 -107.78 95.29 -0.61 -0.02 113.57 128.18 9.63 13.52 -116.13 107.04 10.68 -8.94 101.56zm-484.17 474.44c-29.24,2.41 -48.49,-3.98 -75.96,-2.72 -27.64,1.27 -39.64,5.47 -69.22,2.72l-154.72 -0.94 0 7.9c131.73,-8.27 333.62,14.34 393.39,10.36 45.62,-3.04 -8.25,-12.35 49.66,-8.8 131.75,8.09 383.62,53.14 508.36,80.46 142.67,31.24 717.39,189.33 802.29,262.53l-25.02 68.63c-37.36,-5.73 -147.37,-59 -189.41,-75.57 -779.76,-307.29 -1621.57,-396 -2446.4,-187.35 -193.05,48.84 -409.99,111.23 -594.12,182.45 -58.31,22.55 -130.81,55.91 -186.29,71.49 -7.86,-24.98 -18.79,-40.49 -9.56,-71.73 37.35,-27.19 286.58,-109.08 350.33,-128.61 123.93,-37.96 243.99,-72.76 375.57,-103.81 167.73,-39.59 336.54,-69.03 512.04,-89.21 137.93,-15.86 67.57,1.58 113.89,5.16 13.59,1.05 143.83,-11.93 193.4,-9l5.87 -30.5 -0.06 -40.28c51.95,-6.4 170.35,16.35 206.6,-4.29 -26.51,-19.56 -163.35,-4.89 -203.22,-13.62l6.41 -61.95 5.83 -44.95c33.97,-4.45 69.31,-3.25 103.69,-3.96 15.36,-0.32 33.57,0.48 48.55,-0.28 44.04,-2.22 35.32,-9.78 39.11,-14.44l-188.68 3.4 14.24 -54.32 168.36 -0.38 -164.84 -13.45 12.71 -44.63c26.62,3.39 51.43,1.21 78.27,0.5 12.77,-0.33 28.66,0.05 40.92,-0.77 7.2,-0.49 11.73,-0.85 18.79,-2.21 17.86,-3.45 8.74,-1.49 15.76,-5.42 -8.44,-4.71 6.84,-1.12 -15.73,-5.03l-129.78 2.29c14.75,-52.37 8.4,-43.21 63.14,-45.58 24.55,-1.06 62.5,0.83 77.99,-12.42 -20.62,-11.19 -84.4,0.34 -112.45,1.71 14.19,-33.98 55.46,-77.63 112.54,-59.83 102,31.8 157.82,269.93 157.24,371.47l14.47 60.36 -2.93 -52.84c14.44,-132.43 -82.26,-436.62 -222.76,-391.56 -61.84,19.83 -103.6,114.8 -123.38,187.22 -11.22,41.09 -19.75,85.35 -25.47,128.73 -5.38,40.76 -1.31,103.8 -16.83,134.96l-41.66 1.34c7.38,-176.19 58.3,-497.02 217.95,-508.34 162.65,-11.53 253.16,304.78 248.23,472.27 1.03,2 6.63,10.59 7.96,12.36 0.83,1.11 3.71,6.05 4.39,4.75 0.74,-1.41 3.31,3.29 4.94,4.97 -13.69,-121.57 -20.7,-219.14 -65.6,-325.33 -135.08,-319.45 -400.68,-231.97 -430.92,336.04l-124.51 7.83 142.09 -703.5 472.47 -0.11 129.09 697.79 -97.02 -1.98zm1398.54 -631.45c28.75,12.42 71.6,23.08 95.02,43.99l-31.65 79.93 97.69 40.4 38.11 -79.9 105.88 48.07 -32.59 82.33 97.78 40.3c8.35,-24.68 31.68,-58.74 47.36,-80.69l94.77 40.21 -64.8 140.32c-46.55,-32.96 -175.39,-81.3 -240.14,-110.12 -49.07,-21.84 -204.11,-81.87 -235.33,-105.61 -40.28,14.86 5.97,33.23 -50.69,11.09l78.58 -150.32zm-3329.41 -52.09l71.91 151.26 -513.14 222.27 -71.46 -156.04c19,-14.4 67.92,-37.28 93.15,-40.49 16.22,21.92 37.58,55.7 44.43,77.57 33.93,-8.59 76.56,-24.35 99.18,-44.19l-33.38 -79.28c30.7,-16.42 71.14,-31.58 105.34,-45.96l41.37 78.65 97.62 -39.17 -34.35 -85.17 99.33 -39.45zm1372.46 -260.15c16.17,18.29 8.64,73.56 8.53,97.88l104.41 0 0.55 -78.43c3.23,-17.42 -1.21,-2.3 6.83,-13.02l102.58 1.98 0.06 94.33 109.71 -1.9 1.17 -101.59 106.61 1.18 0.22 102.12 115.76 -0.45 0.56 -96.45 100.32 0.69 -6.64 172.33 -746.92 -1.28 10.9 -178.07 85.36 0.68zm1979.07 1553.74c-9.94,-3.78 -38.12,-73.8 -47.85,-81.97 -11.98,-10.06 -11.43,-6.4 -19.39,-14.6 -0.98,-1.01 -15.38,-4.12 -5.33,-14.41 16.09,-16.48 61.89,33.84 93.64,-48.09 20.7,-53.41 34.59,-46.65 34.59,-120.64 -16.06,-10.75 -7.03,-8.17 -27,-13.5 7.41,-31.81 31.74,-82.79 45.3,-116.67l69.76 -173.21c15.14,-37.71 10.87,-19.66 50.53,-30.46 72.23,-19.66 23.56,-84.43 9.88,-104.85 8.95,-38.43 49.01,-109.97 67.49,-148.48 38.58,3.21 84.4,38.61 121.48,47.24 49.91,-33.42 47.29,-40.7 74.24,-94.49 20.64,-41.19 47.24,-76.98 47.24,-128.23 -22.04,-14.76 -96.84,-51.38 -128.23,-53.99 -24.3,16.28 -37.06,48.95 -53.99,74.24 -16.5,-8.73 -30.95,-12.43 -47.24,-20.25 13.96,-26.39 27,-46.87 27,-87.74 -19.71,-10.43 -120.52,-61.75 -141.73,-53.99 -28.29,10.34 -32.32,32.39 -40.49,67.49 -32.53,-2.71 -21.46,-10.79 -53.99,-13.5 12.31,-23.27 27,-52.63 27,-87.74 -27.21,-14.4 -105.82,-53.19 -141.73,-53.99 -17.84,26.64 -92.45,172.24 -87.74,188.98 5.2,18.47 21.67,6.01 29.41,35.02 4.03,15.12 -1.27,23.3 38.08,32.47 -17.29,32.67 -60.13,83.13 -67.49,114.74 -33.86,-16.25 -80.87,-24.25 -114.74,-40.49 3.28,-39.37 20.25,-58.12 20.25,-101.24 -29.24,-14.03 -79.18,-33.75 -121.48,-33.75 -17.07,32.27 -19.04,63.83 -33.75,94.49 -26.65,-6.21 -59.95,-17.94 -87.74,-20.25 2.83,-34.04 17.42,-60.45 20.25,-94.49 -25.51,-13.5 -81.7,-27 -121.48,-27 -7.13,14.86 -19.75,65.53 -20.25,87.74 -28.71,-2.39 -73.63,-13.81 -101.24,-20.25 6.6,-28.32 13.5,-59.69 13.5,-94.49 -9.95,-4.77 -93.06,-22.24 -107.75,-20.12 -31.7,4.57 -33.98,57.66 -33.98,94.36 -23.28,-5.42 -67,-13.5 -94.49,-13.5 0,-32.73 28.49,-105.75 -7.32,-120.45 -24.66,-10.12 -119.42,-18.22 -141.16,-7.78 -6.87,14.31 -13.5,84.61 -13.5,107.99 -37.47,0 -40.02,-6.75 -74.24,-6.75 0,-34.97 4.86,-83.79 -6.75,-107.99 -22.29,-10.7 -87.92,-12.9 -121.31,-6.57 -38.42,7.28 -27.17,61.29 -27.17,107.81l-87.74 0c-9.41,-40.38 -27,-116.5 -27,-161.98 65.44,0 67.49,5.9 67.49,-60.74 69.3,0 43.98,-12.37 47.24,-81 7.5,-158.08 49.6,-150.41 -108.75,-149.25 -58.67,0.43 -39.72,27.43 -39.72,95.26l-60.74 0c0,-109.43 23.26,-101.29 -80.99,-101.29 -104.25,0 -80.99,-8.14 -80.99,101.29 -51.96,0 -61.67,12.56 -61.12,-40.12 0.55,-52.02 9.12,-55.55 -46.27,-54.97 -123.19,1.31 -108.58,-24.22 -108.58,95.08l-60.74 0c0,-20.31 0.92,-41.54 0.78,-61.52 -0.23,-31.93 4.84,-34.47 -20.93,-39.81 -31.36,-6.5 -94.34,-2.99 -114.83,6.84 -16.69,16.68 -18.15,159.06 -14.19,196.42 3.72,35.11 10.52,26.31 47.93,26.31 0,76.28 7.72,65.56 94.49,67.49 -8.04,16.76 -33.75,141.31 -33.75,168.73 -46.74,0 -68.47,6.75 -107.99,6.75 0,-109.69 19.67,-94.24 -87.75,-94.52 -104.27,-0.28 -80.97,-7.71 -80.97,101.27 -29.37,0.65 -36.82,6.75 -74.24,6.75 0,-85.69 2.15,-96.91 -79.15,-86.01 -104.44,14 -62.58,-1.23 -62.58,99.51 -21.18,4.93 -65,11.6 -87.74,13.5 0,-95.45 -1.11,-99.77 -81.38,-88.17 -111.32,16.07 -67.1,4.13 -67.1,108.42 -25.73,6 -26.83,6.75 -60.74,6.75 0,-94.75 -31.84,-74.64 -100.68,-60.19 -115.34,24.21 -74.8,0.88 -74.8,100.68 -22.29,1.85 -40.49,8.78 -60.74,13.5 -4.9,-21.04 -9.31,-30.06 -17.05,-50.44 -23.97,-63.06 -49.94,-36.28 -98.7,-18.08 -25.37,9.47 -50.85,17.29 -73.22,28.02 0,54.54 11.42,49.83 20.25,87.74 -26.91,2.24 -74.48,17.4 -94.49,27 -9.75,-36.53 -57.68,-77.93 -60.74,-114.74 32.62,-7.6 54.71,-19.84 80.99,-33.74 -0.61,-27.62 -4.03,-29.36 -13.5,-47.24 35.01,-52.28 17.33,-53.15 -11.25,-110.24 -19.01,-37.97 -34.52,-73.29 -56.24,-105.74 -29.02,0.65 -113.9,40.64 -141.73,53.99 0,51.61 17.66,47.66 27,87.74 -28.22,6.57 -18.55,12.71 -53.99,13.5 -6.39,-27.43 -20.16,-47.2 -33.75,-67.49 -41.68,0.93 -115.48,38.65 -148.48,60.74 0.63,28.29 16.7,61.53 27,80.99 -15.99,8.46 -27.52,15.65 -47.24,20.25 -16.35,-24.41 -30.98,-49.95 -47.24,-74.24 -42.16,3.51 -98.98,34.95 -134.98,53.99 0,33.49 57.68,172.51 83.23,193.49 30.73,25.23 23.25,4.13 45.01,49.48 35.98,0 57.23,-12.36 87.74,-27 7.57,32.48 57.15,129.68 74.24,161.98 -23.27,15.58 -44.89,43.45 -24.58,78.06 31.88,54.32 50.65,-27.86 92.86,89.88 16.15,45.04 101.9,237.03 94.64,265.07 -13.3,51.4 0.41,90.97 25.67,147.8 12.36,27.8 31.17,33.1 60.18,32.8 42.79,-0.44 13.66,20.89 -10.19,29.78 -20.58,7.67 -3.08,77.93 -28.1,77.93 111.66,0.55 233.18,47.58 334.09,1.12 815.59,-375.53 1727.46,-399.48 2786.88,-5.02 84.44,31.44 180.4,0.54 270.9,0.98z"/>
  <path class="fil1 str0" d="M3103.57 5316.21c159.04,-41.96 185.29,189.6 63.87,222.98 -77.67,21.35 -133.26,-19.17 -144.25,-81.36 -13.76,-77.84 20.92,-125.93 80.38,-141.62l0 0zm204.18 197.46c-19.24,-230.47 -13.27,-136.92 -48.18,-190.6 29.32,-7.05 135.75,-13.07 159.8,1.32 17.79,10.64 28.79,36.34 19.13,65.46 -9.83,29.65 -21.46,22.01 -38.97,43.78l71.88 68.71c22.91,14.74 13.46,-1.49 29.58,18.08 -49.91,21.09 -65.05,-4.14 -88.61,-27.08 -30.16,-29.37 -28.18,-50.22 -77.25,-54.11 9.59,124.86 12.47,54.56 39.9,97.38l-97.72 2.61 30.42 -25.55 0.02 0zm-456.02 -182.22c-14.88,-27.45 -20.73,-6.57 -29.4,-29.79 59.62,-6.8 159.61,-11.52 174.04,40.76 19.61,71.06 -45.13,99.76 -111.27,81.92l0.45 77.19c23.44,5.85 22.94,0.08 32.03,20.22l-97.16 -2.38c26.3,-51.12 30.77,67.34 31.3,-187.92l0.01 0zm-202.44 90.12c7.44,19.67 3.75,41.1 24.43,54.87 37.53,24.99 139.11,-8.47 21.94,-83 -83.13,-52.87 -21.55,-149.11 69.39,-109.9l18.85 10.86c0.81,-1.4 3.14,2.12 5.51,3.44l-11.52 49.16c-20.03,-9.71 -8.5,-12.98 -18.86,-43.48 -29.16,-10.88 -42.41,-12.2 -69.58,-0.86 -18.11,87.7 86.81,58.92 87.09,136.56 0.14,36.43 -20.34,57.85 -52.82,63.14 -38.18,6.22 -66.17,-12.33 -94.26,-21.65 0.95,-9.4 2.15,-29.65 4.31,-38.04 6.49,-25.18 -1.57,-15.05 15.53,-21.12l-0.02 0zm985.72 -157.9c28.59,57.26 7.56,53.58 6.75,54.94l-16.28 -18.02c-9.54,-12.23 0.95,-3.35 -10.94,-14.8l-44.79 13.9c8.81,33.3 17.82,68.76 26.89,103.87 23.58,91.21 13.51,65.83 50.86,74.86 -14.72,20.54 -59.61,27.53 -85.27,28.78l23.53 -27.69 -47.03 -172.62 -46.67 10.94c-0.5,24.48 2.38,33.24 -6.89,44.21 -16.7,-8.5 -18.15,-37.19 -18.97,-55.56l168.82 -42.78 -0.02 -0.02zm-1210.1 175.76c17.46,-13.71 27.28,-2.16 38.55,-44.57 5.01,-18.86 9.82,-38.98 15.56,-58.61 12.54,-42.94 24.79,-62.5 14.3,-84.86 -10.01,-21.34 -1.99,9.2 -12.92,-23.5l147.81 41.88 -19.06 51.25 -8.89 -22.61c-11.28,-36.91 6.37,12.08 -2.89,-17.99l-68.48 -17.43 -18.89 73.24 38.41 11.24c1.49,-0.96 2.89,-3.03 3.75,-3.83 19.94,-18.49 14.01,-16.85 27.97,-16.95 -5.77,23.89 -10.77,54.69 -24.98,73.44 -13.46,-21.41 6.78,-31.75 -47.25,-42.86 -12.68,19.55 -19.95,54.35 -26.29,81.89l80.29 19.61c13.87,-19.63 6.15,-22.8 27,-30.92 8.14,17.03 -3.41,44.29 -13.59,57.01l-150.41 -45.4 0 -0.01zm1384.39 -242.79c5.12,20.5 14.38,37.08 7.94,52.38 -22.29,-6.4 -10.16,-3.94 -27.58,-27.78l-73.13 19.69 26.47 74.39c59.09,-13.45 27.75,-6.07 47.25,-44.85 17.76,16.37 23.19,51.7 28.68,75.48 -17.91,-5.45 -6.05,-4.06 -18.67,-11.61 -23.42,-14.02 -19.24,-9.13 -49.82,-0.67 -0.75,29.9 13,55.87 20.7,84.32 123.69,-27.3 63.93,-20.57 86.61,-68.4 17.97,11.87 19.42,30.67 24.37,54.31l-160.75 49.78c12.81,-42.05 5.12,13.82 14.68,-29.94 5.43,-24.87 -12.96,-59.36 -20.68,-84.89 -43.95,-145.59 -24.22,-52.99 -54.8,-97.24l148.75 -44.98 -0.01 0zm1035.49 -6.93c-16.75,-34.98 -16.92,0.42 -26.21,-32.45l156.79 1.18 0 49.24c-32.79,2.15 -6.86,2.79 -20.5,-15.13 -19.05,-25.01 5.7,-17.83 -80.33,-17.23l0.11 78.26c23.44,-0.03 28.35,4.31 44.56,-7.24 14.77,-10.52 5.31,-17.69 24.11,-22.01l-2.13 76.89c-22.07,-6.52 -6.89,-7.27 -23.83,-28.81l-41.86 0.06 -0.7 87.45 83.04 -2.27c14.85,-22.27 1.88,-22.82 20.25,-38.98 12.56,15.58 8.82,35.31 6.72,58.92l-167.07 -0.08c9.73,-21.71 23.86,-15.64 27.2,-32.63l-0.15 -155.22 -0 0.03zm-192.14 0c-8.17,-38.33 -6.97,-1.2 -27.27,-36.84 38.35,-0.02 112.07,-8.79 139.49,14.15 19.89,16.62 31.96,56.54 -21.69,87.85 46.58,17.01 73.8,60.13 33.97,98.32 -29.15,27.95 -104.16,21.48 -151.5,21.82 27.39,-49.71 27.27,44.15 27,-185.32l-0 0.02zm-234.06 -42.72c-27.83,-9.8 -15.33,0.14 -26.61,-19.7 28.65,-1 69.11,0.89 90.06,10.26 -25.76,25.18 -26.27,-5.7 -34.5,40.31 -12.92,72.12 -28.15,161.56 44.49,161.39 54.05,-0.12 57.29,-35.11 63.09,-86.2 16.03,-140.89 8.37,-53.89 -16.39,-114.49l76.85 8.73c-16,49.4 -22.1,-55.2 -41.33,118.14 -6.08,54.84 -16.78,85.5 -68.99,94.11 -142.76,23.52 -92.82,-120.84 -86.67,-212.51l0 -0.02zm-2060.53 17.48c-15.69,19.17 -178.74,114.73 -200.42,140.13l114.06 32.77c20.5,-27.06 7.56,-34.5 38.74,-29.09l-18.49 55.25c-30.05,-2.29 -162.99,-44.38 -182.55,-59.09 13.99,-29.68 158.91,-112.94 195.48,-141.73l-46.72 -20.26c-16.57,-4.97 -29.63,-8.72 -47.2,-13.26 -14.72,13.87 -12.54,25.35 -31.06,29.85 -12.09,-12.5 -13.06,12.9 5.45,-56.29 28.99,3.6 64.41,17.65 92.66,26.69 44.73,14.33 65.6,13.79 80.05,35.05l-0 -0.01zm1884.6 -28.76c-16.96,-15.91 -17.65,-6.22 -25.26,-25.09 26.22,-1.56 70.92,-1.59 89.5,11.6 -27.53,23.62 -22.66,-3.97 -32.87,31.02l-17.16 163.17c17.29,1.31 63.31,10.16 75.84,3.1 26.13,-14.74 -1.63,-35.58 31.23,-45.6 9.83,16.96 1.21,47.26 -1.34,69.71 -43.92,-0.62 -135.15,-2.74 -168.9,-18.91l13.06 -8.61c25.54,-18.83 18.57,-21.21 24.78,-75.78 4.05,-35.51 9.66,-69.19 11.14,-104.6l-0.02 -0.02zm-74.23 149.42c-5.23,68.91 -196.6,80.61 -204.14,-48.01 -7.31,-124.72 96.85,-143.49 209.89,-118.48l-6.01 55.56c-30.27,-3.46 -13.14,-3.47 -24.46,-38.95 -86.42,-23.89 -149.85,-2.18 -139.07,101.72 13.57,130.57 163.46,48.24 163.77,48.15l0.02 0.02zm-2263.95 -41.44c23.79,-25.77 21.4,11.39 38.61,-38.25 7.18,-20.7 13.26,-41.21 19.8,-61.32 42.69,-131.09 15.97,-60.12 7.02,-110.11l145.23 47.48c-8.72,40.1 -8.53,41.79 -28.71,48.56l-0.92 -38.41 -68.72 -21.2 -22.02 74.89c66.65,17.65 33.33,2.46 69.88,-11.86 -3.53,16.26 -7.07,30.42 -12.44,46.24l-16.7 29.15c-16,-31.05 14.05,-37.35 -48.71,-44.31l-24.71 80.6 80.66 24.34c10.6,-18.12 6.92,-23.69 26.52,-31.5 7.84,16.59 -3.44,38.83 -14.04,56.77l-150.71 -51.09 -0.03 0.02zm-595.21 -33.74c8.29,-23.7 17.06,-4.31 36.76,-48.06 14.78,-32.84 60.77,-152.93 88.78,-170.36 20.06,8.79 9.28,-5.1 23.09,26.74 25.07,57.8 67.68,242.26 117.84,183.66 12.87,-22.55 7.56,-74.86 9.09,-106.73 5.01,-104.27 -15.8,-58.94 -28.99,-91.38l99.31 6.08c-19.86,38.07 -32.68,-24.2 -35.28,78.33 -1.03,40.54 -3.47,81.04 -3.83,121.76l88.74 0.17c15.03,-28.88 0.44,-38.21 27,-48.2l5.62 34.11c0.06,9.83 -1.23,22.63 -1.52,33.04 -61.32,11.89 -203.92,-8.89 -275.18,-10.91 18.57,-35.75 11.49,3.66 25.69,-29.1l-22.58 -48.98 -82.98 -1.34c-43.03,61.1 -5.73,53.97 -0.81,76.54l-70.73 -5.35 -0.02 -0.02zm489.99 20.51c-19.69,-29.23 -28.09,-85.08 -37.96,-124.53 -33.99,-135.86 -25.69,-67.85 -44.68,-114.98l87.7 19.05 -27.98 17.69 45.72 158.65 83.38 -145.93c-14.78,-11.16 -16.95,-5.71 -21.31,-24.12l69.44 11.44c-13.6,31.89 -6.24,-12.12 -42.92,50.73 -12.2,20.92 -20.48,33.73 -33.07,54.58 -28.7,47.5 -45.96,94.03 -78.31,97.42l-0.02 -0zm-501.02 -34.07c-102.56,34.77 -237.86,19.14 -235.42,-101.16 2.44,-120.45 127.58,-117.98 233.35,-103.58l0 58.07c-56.34,-6.99 0.98,-17.66 -45.61,-40.7 -25.04,-12.39 -141.54,-29.57 -143.88,79.84 -2.4,111.87 107.55,114.65 137.89,100.44 21.96,-10.29 13.65,-30.85 13.65,-61.69 -21.76,-9.34 -28.7,-2.26 -43.7,-22.04l110.81 -0.84c-2.61,19.61 -0.09,5.18 -12.31,17.1 -15.62,15.25 -16.01,-13.24 -14.78,74.56l0.02 -0zm-221.65 140.75c171.17,9.29 341.12,20.26 512.24,29.74 83.49,4.62 168.25,9.76 251.76,14.75 116.13,6.96 125.05,12.74 220.38,52.59 607.72,254 1133.58,348.43 1764.1,100.74 271.32,-106.59 175.59,-103.58 424.14,-76.27 343.92,37.8 417.83,39.22 719.12,26.22 23.67,-34.74 170.21,-408.36 189.85,-469.25 -79.18,18.69 -89.24,31.42 -186.88,31.42 -210.45,0 -483.95,-90.03 -573.69,-90.03l-371.2 0c-32.82,0 -179.03,68.94 -221.66,85.24 -72.3,27.64 -150.07,53.99 -229,74.59 -566.47,147.88 -1070.99,73.27 -1574.69,-210.11 -47.58,-26.77 -53.46,-45.79 -120.75,-41.06l-465.81 29.69c-83.99,4.56 -298.21,-49.64 -387.51,-101.16 -38.14,-22.01 -71.51,-48.37 -108.41,-65.46 0.26,118.91 -2.12,244.68 27.31,355.51 37.82,142.46 73.32,162.66 130.66,252.8l0.01 0.03z"/>
  <path class="fil1 str0" d="M1214.18 3233.44c-15.56,-11.41 -7.59,-3.39 -18.21,-18.88 -3.5,-5.1 -6.24,-10.85 -10.12,-16.75 -13.85,-21.06 -12.37,-13.49 -19.95,-37.8 -69.32,-34.22 -87.17,-200.24 -461.42,-212.51 13.94,103.8 0.42,164.31 -41.43,248.78 -97.56,196.93 -195.53,216.77 -244.72,376.15 -27.19,88.07 -7.05,178.96 24.78,252.53l499.19 -19.56c-25.73,-133.43 11.77,-151.86 108.32,-289.01 30.74,-43.67 60.07,-73.98 93.73,-115.32l92.13 -115.16 -22.32 -52.48 0.02 0z"/>
  <path class="fil1 str0" d="M773.4 1672.01c-28.42,49.97 -27.34,98.29 -69.22,154.85 -124,167.45 -271.72,178.4 -361.18,306.99 -17.16,24.68 -66.53,122.88 -60.41,158.88 4.82,28.4 81.13,99.52 103.66,118.81 40.56,34.69 91.29,53.71 156.95,65.57 119.12,21.54 75.43,12.34 149.87,-47.05 296.28,-236.44 602.52,-286.03 542.2,-549.89 -11.44,-50.03 -7.52,-41.83 -51.03,-57.33 -125.79,-44.82 -284.49,-122.31 -410.82,-150.82l-0.02 0z"/>
  <path class="fil1 str0" d="M465.28 3845.13c23.67,48.48 50.07,69.27 59.17,136.48 12.81,94.56 -110.54,221.02 237.75,315.39 45.41,12.31 135.95,5.18 186.69,4.62l141.95 -1.6c37.37,-3.94 15.06,-6.35 42.02,-12.37 81.91,-18.33 274.48,0.96 374.62,-10.54 -121.37,-143.61 -155.49,-366.44 -176.26,-401.13 -23.76,-39.67 -65.29,-65.18 -125.65,-70.69l-740.27 39.81 -0.02 0.01z"/>
  <path class="fil1 str0" d="M5308.8 1713.95c-58.27,7.45 -295.77,105.25 -381.05,138.6 -35.42,13.85 -34.89,27.59 -42.44,65.94 -12.11,61.55 -2.99,123.23 26.43,165.56 52.4,75.37 151.92,125.48 235.46,182.92 90.67,62.34 164.62,119.26 238.83,186.41 67.67,61.24 18.01,70.73 133.14,51.71 61.52,-10.16 109.89,-31.53 144.2,-65.36 102.82,-101.37 137.06,-161.68 38.19,-274.84 -17.52,-20.06 -30.28,-33.18 -50.24,-51.09 -20.2,-18.13 -33.69,-32.32 -55.64,-52.2 -52.59,-47.64 -144.98,-81.05 -221.21,-197.35 -36.73,-56.04 -38.38,-89.28 -65.67,-150.32l-0 0.02z"/>
  <path class="fil1 str0" d="M4905.55 3320.22c28.9,34.21 57.26,76.26 86.47,114.32 44.56,58.1 134.71,174.58 169.56,235.28 39.2,68.27 29.72,82.96 20.42,161.9l438.32 19.22c23.53,-94.19 63.4,-135.82 22.97,-251.1 -51.78,-147.64 -139.35,-154.6 -243.93,-363.65 -47.86,-95.68 -54.02,-145.06 -36.74,-259.24 -128.8,10.49 -220.2,35.44 -295.72,101.36 -34.43,30.05 -144.02,177.04 -161.32,241.92l-0.01 0z"/>
  <path class="fil1 str0" d="M1181.75 3152.11c7.19,5.38 6.78,4.01 13,10.02 1.99,1.93 7.73,8.89 9.21,10.97 8.48,11.98 10.26,17.88 16.01,32.34 12.61,5.31 3.11,4.59 15.08,0.03 -3.35,-141.09 -11.27,-284.03 -17.26,-425.17 -4.51,-106.28 27.39,-149.4 -214.81,-222.86 -139.52,-42.31 -237.55,-40.6 -384.9,-53.92 -179.55,-16.23 -207.79,-38.24 -300.53,-131.99 -7.1,76.86 24.71,287.75 32.45,379 4.65,55.06 28.12,78.14 92.15,118.06 51.59,32.15 185.16,74.19 237.27,59.7 37.34,-10.4 45.29,-6.35 93.45,0.7 58.51,8.56 116.02,21.24 167.95,41.54 101.27,39.58 153.42,76.23 221.36,150.23 18.67,20.34 15.76,8.45 19.59,31.37l-0.03 -0.02z"/>
  <path class="fil1 str0" d="M812.6 1411.5c-83.06,90.01 -458.15,66.1 -599.41,59.17 -55.51,-2.71 -162.26,-14.88 -211.76,-8.29 4.37,-0.95 643.64,150.55 779.47,189.91 43.95,12.73 101.03,39.5 146.15,56.49 90.4,34.07 201.96,80.24 291.68,104.28 9.03,-102.88 -12.11,-303.83 -17.59,-416.19 -4.86,-99.8 7.05,-116.13 -68.51,-156.9 -149.62,-80.72 -384.82,-92.05 -554.93,-106.62 -143.07,-12.25 -240.97,-37.34 -363.06,-78.25 193.86,136.7 362.13,273.84 597.98,356.38l-0.02 0.02z"/>
  <path class="fil1 str0" d="M4686.29 4312.07l256.64 3.49c98.87,-7.55 593.58,96.81 610.1,-172 3.35,-54.36 -30.08,-81.13 -13.63,-160.75 12.85,-62.16 43.95,-82.95 56.23,-119.27 -108.96,-8.29 -225.14,-9.26 -334.71,-13.34 -78.4,-2.93 -276.36,-25.82 -339.36,-13.04 -228.97,46.41 -107.83,349.52 -235.26,474.93l-0.02 -0.02z"/>
  <path class="fil1 str0" d="M4588 4953.5c67.99,49.23 414.34,118.81 569.11,30.13 67.23,-38.52 15.3,-10.27 39.55,-7.28 29.83,-25.21 37.89,-20.31 22.47,-81.44 -19.16,-75.93 -64.93,-171.52 -95.41,-242.14l-132.14 -318.49c-93.59,-7.31 -235.46,6.74 -337.99,13.17 -35.23,2.21 -34.02,-1.57 -48.54,23.83 -80.54,140.84 -3.3,256.18 11.72,342.94 17.03,98.42 13.31,166.01 -28.76,239.31l-0 -0.02z"/>
  <path class="fil1 str0" d="M4926.69 3230.9c35.89,-46.81 55.78,-111.83 123.16,-162.8 52.93,-40.03 114.65,-77.73 196.26,-94.03 84.1,-16.79 168.54,-11.89 253.47,-36.87 53.77,-15.81 162.89,-71.25 191.79,-102.92l31.98 -423.47c-19.66,11.56 -31.93,34.72 -48.87,53.41 -100.61,111.07 -306.32,32.12 -591.82,130.45 -55.01,18.94 -94.39,37.97 -136.55,66.06 -50.47,33.63 -35.06,52.2 -31.65,166.54 3.98,133.76 5.04,270.32 12.25,403.63l-0.03 0z"/>
  <path class="fil1 str0" d="M4906.05 1838.95c88.19,-30.28 180.7,-61.58 269.95,-95.88 226.19,-86.93 337.34,-111.79 567.32,-175.22 90.64,-24.99 203.22,-50.91 288.39,-81.11 -170.5,9.1 -542.86,49.74 -711.76,-6.74l-45.83 -21.77c-15.11,-11.67 -7.56,-5.82 -14.89,-14.91 158.32,-24.54 468.89,-304.97 525.77,-333.96 -52.76,13.32 -89.17,31.59 -156.25,41.15 -185.34,26.41 -474.6,21.52 -657.38,151.77 -58.55,41.72 -43.81,33.8 -49.72,152.79 -3.89,78.37 -26.35,324.68 -15.59,383.87l0 0.02z"/>
  <path class="fil1 str0" d="M938.9 4717.28c94.01,85.84 332.17,164.84 502.66,157.06l125.31 -4.9c-2.16,-36.74 -26.29,-38.3 -13.48,-146.49 6.08,-51.5 15.92,-100.57 28.32,-148.69 24.62,-95.52 76.41,-111.46 -14.25,-266.08l-375.64 3.69c-67.9,0.33 -65.43,-11.27 -96.83,38.38 -58.62,92.68 -139.39,233.95 -156.08,367.03l-0.02 -0z"/>
  <path class="fil2" d="M1428.99 5037.42l28.42 81.47 -68.31 -5.59 39.89 -75.87 0 -0.02zm-119.72 172.54l70.73 5.35c-4.92,-22.57 -42.21,-15.44 0.81,-76.54l82.98 1.34 22.58 48.98c-14.21,32.76 -7.13,-6.65 -25.69,29.1 71.26,2.02 213.86,22.8 275.18,10.91 0.3,-10.4 1.59,-23.2 1.52,-33.04l-5.62 -34.11c-26.55,9.99 -11.97,19.31 -27,48.2l-88.74 -0.17c0.36,-40.73 2.8,-81.22 3.83,-121.76 2.6,-102.53 15.44,-40.25 35.28,-78.33l-99.31 -6.08c13.2,32.46 34,-12.87 28.99,91.38 -1.52,31.87 3.77,84.18 -9.09,106.73 -50.16,58.62 -92.79,-125.86 -117.84,-183.66 -13.8,-31.84 -3.03,-17.94 -23.09,-26.74 -28.01,17.45 -74,137.53 -88.78,170.36 -19.69,43.75 -28.46,24.36 -36.76,48.06l0.02 0.02z"/>
  <path class="fil1" d="M3102.63 5336.61c-83.04,40 -49.61,224.99 59.79,183.86 77.73,-29.23 48.93,-236.21 -59.79,-183.86z"/>
  <path class="fil2" d="M3331.31 5336.38c105.24,-13.2 103.07,86.72 6.75,84.79l-10.35 -69.24c1.25,-15.48 0.84,-8.47 3.6,-15.55zm-71.73 -13.29c34.91,53.68 28.95,-39.87 48.18,190.6l-30.42 25.55 97.72 -2.61c-27.44,-42.8 -30.32,27.5 -39.9,-97.38 49.07,3.89 47.08,24.74 77.25,54.11 23.56,22.94 38.7,48.17 88.61,27.08 -16.12,-19.56 -6.68,-3.35 -29.58,-18.08l-71.88 -68.71c17.51,-21.77 29.13,-14.13 38.97,-43.78 9.66,-29.12 -1.35,-54.81 -19.13,-65.46 -24.04,-14.4 -130.48,-8.37 -159.8,-1.32l-0.02 -0z"/>
  <path class="fil2" d="M1298.24 5196.41c-1.25,-87.8 -0.86,-59.29 14.78,-74.56 12.22,-11.92 9.7,2.51 12.31,-17.1l-110.81 0.84c15,19.78 21.94,12.7 43.7,22.04 0,30.85 8.31,51.4 -13.65,61.69 -30.33,14.21 -140.28,11.42 -137.89,-100.44 2.33,-109.4 118.84,-92.22 143.88,-79.84 46.58,23.03 -10.72,33.71 45.61,40.7l0 -58.07c-105.76,-14.41 -230.9,-16.89 -233.35,103.58 -2.44,120.3 132.86,135.92 235.42,101.16l-0.02 0z"/>
  <path class="fil2" d="M3102.63 5336.61c108.74,-52.37 137.53,154.63 59.79,183.86 -109.4,41.13 -142.85,-143.86 -59.79,-183.86zm0.95 -20.39c-59.47,15.69 -94.14,63.78 -80.38,141.62 10.99,62.17 66.59,102.7 144.25,81.36 121.42,-33.37 95.17,-264.92 -63.87,-222.98l-0 0z"/>
  <path class="fil2" d="M4684.69 5354.88l-2.57 -83.85c44.35,-4.84 78.95,-4.97 79.56,40.45 0.59,44.24 -37.66,45.65 -76.99,43.4zm-1.23 -183.08c24.68,-1.4 42.55,1.87 59.65,9.26 14.07,55.5 1.81,73.24 -60.8,68.82l1.15 -78.08 0 -0zm-30.8 17.93c0.26,229.46 0.4,135.61 -27,185.32 47.34,-0.36 122.35,6.13 151.5,-21.82 39.82,-38.19 12.61,-81.31 -33.97,-98.32 53.66,-31.33 41.58,-71.23 21.69,-87.85 -27.42,-22.94 -101.16,-14.16 -139.49,-14.15 20.28,35.64 19.1,-1.49 27.27,36.84l0 -0.02z"/>
  <path class="fil2" d="M2179.89 5159.04c18.52,-4.5 16.34,-15.98 31.06,-29.85 17.57,4.56 30.63,8.29 47.2,13.26l46.72 20.26c-36.57,28.79 -181.48,112.05 -195.48,141.73 19.56,14.71 152.51,56.8 182.55,59.09l18.49 -55.25c-31.17,-5.42 -18.24,2.02 -38.74,29.09l-114.06 -32.77c21.68,-25.4 184.73,-120.95 200.42,-140.13 -14.46,-21.26 -35.33,-20.71 -80.05,-35.05 -28.23,-9.04 -63.65,-23.09 -92.66,-26.69 -18.5,69.19 -17.54,43.79 -5.45,56.29l0 0.01z"/>
  <path class="fil2" d="M2885.86 5318.34c66.13,0.73 86.65,18.71 68.58,82.76 -27.59,12.56 -28.29,13.2 -68.69,10.02l0.11 -92.79zm-34.13 13.12c-0.53,255.26 -5.01,136.8 -31.3,187.92l97.16 2.38c-9.09,-20.14 -8.59,-14.36 -32.03,-20.22l-0.45 -77.19c66.13,17.83 130.88,-10.86 111.27,-81.92 -14.43,-52.28 -114.42,-47.56 -174.04,-40.76 8.67,23.2 14.52,2.32 29.4,29.79l-0.01 0z"/>
  <path class="fil2" d="M4418.58 5147.01c-6.15,91.68 -56.09,236.02 86.67,212.51 52.21,-8.61 62.9,-39.26 68.99,-94.11 19.24,-173.34 25.34,-68.72 41.33,-118.14l-76.85 -8.73c24.78,60.6 32.42,-26.39 16.39,114.49 -5.82,51.09 -9.04,86.08 -63.09,86.2 -72.65,0.17 -57.41,-89.25 -44.49,-161.39 8.23,-46 8.75,-15.14 34.5,-40.31 -20.96,-9.37 -61.41,-11.25 -90.06,-10.26 11.28,19.86 -1.21,9.9 26.61,19.7l0 0.02z"/>
  <path class="fil0" d="M4844.78 5189.71l0.15 155.22c-3.35,16.99 -17.48,10.94 -27.2,32.63l167.07 0.08c2.1,-23.61 5.84,-43.34 -6.72,-58.92 -18.36,16.15 -5.4,16.7 -20.25,38.98l-83.04 2.27 0.7 -87.45 41.86 -0.06c16.93,21.54 1.77,22.29 23.83,28.81l2.13 -76.89c-18.8,4.31 -9.34,11.47 -24.11,22.01 -16.2,11.55 -21.12,7.21 -44.56,7.24l-0.11 -78.26c86.03,-0.61 61.29,-7.78 80.33,17.23 13.63,17.9 -12.3,17.26 20.5,15.13l0 -49.24 -156.79 -1.18c9.31,32.85 9.48,-2.55 26.21,32.45l0 -0.03z"/>
  <path class="fil3" d="M3660.56 5241.63c30.58,44.24 10.83,-48.35 54.8,97.24 7.72,25.54 26.11,60.02 20.68,84.89 -9.56,43.78 -1.87,-12.11 -14.68,29.94l160.75 -49.78c-4.95,-23.64 -6.4,-42.44 -24.37,-54.31 -22.68,47.82 37.1,41.1 -86.61,68.4 -7.7,-28.45 -21.45,-54.42 -20.7,-84.32 30.58,-8.47 26.39,-13.35 49.82,0.67 12.62,7.56 0.76,6.18 18.67,11.61 -5.51,-23.76 -10.94,-59.11 -28.68,-75.48 -19.5,38.78 11.84,31.41 -47.25,44.85l-26.47 -74.39 73.13 -19.69c17.42,23.84 5.29,21.37 27.58,27.78 6.44,-15.3 -2.82,-31.89 -7.94,-52.38l-148.75 44.98 0.01 -0z"/>
  <path class="fil3" d="M1904.48 5243.72l150.71 51.09c10.6,-17.94 21.88,-40.18 14.04,-56.77 -19.59,7.81 -15.94,13.37 -26.52,31.5l-80.66 -24.34 24.71 -80.6c62.76,6.96 32.71,13.26 48.71,44.31l16.7 -29.15c5.37,-15.81 8.9,-29.97 12.44,-46.24 -36.54,14.32 -3.21,29.51 -69.88,11.86l22.02 -74.89 68.72 21.2 0.92 38.41c20.18,-6.77 20,-8.45 28.71,-48.56l-145.23 -47.48c8.95,49.99 35.65,-20.98 -7.02,110.11 -6.55,20.11 -12.64,40.63 -19.8,61.32 -17.21,49.63 -14.82,12.48 -38.61,38.25l0.03 -0.02z"/>
  <path class="fil3" d="M1799.26 5230.49c32.36,-3.39 49.61,-49.93 78.31,-97.42 12.61,-20.85 20.87,-33.68 33.07,-54.58 36.68,-62.87 29.32,-18.85 42.92,-50.73l-69.44 -11.44c4.36,18.43 6.52,12.98 21.31,24.12l-83.38 145.93 -45.72 -158.65 27.98 -17.69 -87.7 -19.05c18.99,47.12 10.69,-20.88 44.68,114.98 9.87,39.47 18.29,95.31 37.96,124.53l0.02 0z"/>
  <path class="fil3" d="M2424.91 5439.43l150.41 45.4c10.18,-12.71 21.73,-39.98 13.59,-57.01 -20.85,8.12 -13.14,11.28 -27,30.92l-80.29 -19.61c6.33,-27.55 13.62,-62.34 26.29,-81.89 54.03,11.11 33.79,21.45 47.25,42.86 14.21,-18.75 19.2,-49.55 24.98,-73.44 -13.98,0.09 -8.05,-1.54 -27.97,16.95 -0.86,0.79 -2.26,2.86 -3.75,3.83l-38.41 -11.24 18.89 -73.24 68.48 17.43c9.26,30.07 -8.37,-18.91 2.89,17.99l8.89 22.61 19.06 -51.25 -147.81 -41.88c10.93,32.7 2.91,2.18 12.92,23.5 10.49,22.36 -1.76,41.93 -14.3,84.86 -5.74,19.63 -10.55,39.76 -15.56,58.61 -11.28,42.41 -21.09,30.86 -38.55,44.57l-0 0.01z"/>
  <path class="fil2" d="M4168.43 5285.14c-0.31,0.11 -150.2,82.42 -163.77,-48.15 -10.79,-103.9 52.65,-125.61 139.07,-101.72 11.33,35.47 -5.81,35.5 24.46,38.95l6.01 -55.56c-113.05,-25.01 -217.21,-6.26 -209.89,118.48 7.53,128.62 198.91,116.92 204.14,48.01l-0.02 -0.02z"/>
  <path class="fil2" d="M2649.3 5421.57c-17.1,6.07 -9.03,-4.06 -15.53,21.12 -2.16,8.4 -3.36,28.64 -4.31,38.04 28.09,9.32 56.09,27.87 94.26,21.65 32.48,-5.29 52.94,-26.7 52.82,-63.14 -0.28,-77.64 -105.2,-48.87 -87.09,-136.56 27.19,-11.34 40.43,-10.04 69.58,0.86 10.36,30.5 -1.17,33.77 18.86,43.48l11.52 -49.16c-2.36,-1.32 -4.7,-4.84 -5.51,-3.44l-18.85 -10.86c-90.95,-39.22 -152.53,57.02 -69.39,109.9 117.17,74.53 15.61,107.97 -21.94,83 -20.68,-13.77 -16.99,-35.19 -24.43,-54.87l0.02 0z"/>
  <path class="fil3" d="M4242.66 5135.73c-1.48,35.41 -7.11,69.08 -11.14,104.6 -6.21,54.56 0.76,56.94 -24.78,75.78l-13.06 8.61c33.76,16.17 124.98,18.29 168.9,18.91 2.55,-22.44 11.17,-52.76 1.34,-69.71 -32.87,10.02 -5.1,30.86 -31.23,45.6 -12.51,7.07 -58.55,-1.77 -75.84,-3.1l17.16 -163.17c10.23,-34.98 5.34,-7.39 32.87,-31.02 -18.57,-13.18 -63.28,-13.15 -89.5,-11.6 7.61,18.88 8.29,9.2 25.26,25.09l0.02 0.02z"/>
  <path class="fil3" d="M3466.19 5306.47c0.82,18.36 2.27,47.05 18.97,55.56 9.28,-10.97 6.4,-19.73 6.89,-44.21l46.67 -10.94 47.03 172.62 -23.53 27.69c25.66,-1.26 70.55,-8.23 85.27,-28.78 -37.34,-9.03 -27.27,16.36 -50.86,-74.86 -9.07,-35.11 -18.08,-70.56 -26.89,-103.87l44.79 -13.9c11.89,11.45 1.4,2.58 10.94,14.8l16.28 18.02c0.82,-1.34 21.83,2.33 -6.75,-54.94l-168.82 42.78 0.02 0.02z"/>
  <path class="fil1" d="M2885.75 5411.12c40.4,3.17 41.12,2.54 68.69,-10.02 18.07,-64.04 -2.44,-82.03 -68.58,-82.76l-0.11 92.79z"/>
  <path class="fil4" d="M4684.69 5354.88c39.33,2.24 77.58,0.84 76.99,-43.4 -0.61,-45.4 -35.2,-45.27 -79.56,-40.45l2.57 83.85z"/>
  <path class="fil1" d="M3338.05 5421.16c96.32,1.93 98.5,-97.98 -6.75,-84.79 -2.76,7.1 -2.35,0.06 -3.6,15.55l10.35 69.24z"/>
  <path class="fil1" d="M4682.31 5249.86c62.61,4.42 74.86,-13.32 60.8,-68.82 -17.1,-7.39 -34.97,-10.66 -59.65,-9.26l-1.15 78.08 0 0z"/>
  <polygon class="fil4" points="1389.11,5113.29 1457.41,5118.89 1428.99,5037.42 "/>
  <path class="fil2" d="M1339.06 3049.08l-4.41 -1474.28c-0.05,-15.54 5.48,-28.93 16.47,-39.92 10.99,-10.99 24.39,-16.51 39.93,-16.46l3357.49 11.13c30.86,0.1 55.98,25.26 56.03,56.12l1.54 952.22 0.22 48.44 3.74 735.69c0.01,1.06 -0.02,2.12 -0.06,3.16 -2.03,119.91 -5.51,241.86 -29.64,359.67 -25.43,124.2 -73.1,236.35 -131.33,348.43 -50.19,96.59 -105.03,180.49 -169.12,268.03 -58.74,80.23 -132.51,163.32 -207.04,228.93l-114.78 101.05c-0.74,0.65 -1.38,1.18 -2.14,1.79 -332.42,264.52 -687.79,370 -1107.7,401.39 -322.81,24.13 -750.07,-110.59 -1008.69,-303.06 -40.6,-30.21 -80.47,-63.33 -118.94,-96.2 -37.95,-32.42 -79.98,-68.43 -113.31,-105.51 -316.96,-352.59 -450.97,-787.69 -466.47,-1250.77 -0.45,-2.87 -0.69,-5.82 -0.71,-8.84l-0.15 -22.23c-0.62,-28.27 -0.81,-56.65 -0.58,-85.11l-0.73 -106.36c-0.02,-2.49 0.11,-4.94 0.39,-7.33z"/>
  <path class="fil5" d="M4753.02 3217.85l-3.13 -679.71 -1.54 -952.39 -3357.49 -11.13 4.75 1588.23c-5.23,636.54 204.07,1051.79 453.51,1329.28 45.97,51.14 170.58,154.43 224.01,194.19 242.15,180.21 655.53,315.67 970.94,292.1 421.37,-31.48 760.83,-137.81 1076.89,-389.32l114.78 -101.05c66.67,-58.24 142.49,-143.01 198.83,-219.95 63.48,-86.72 111.12,-157.82 164.59,-260.74 134.43,-258.75 149.9,-400.61 154.68,-685.1l-0.81 -104.42z"/>
  <path class="fil6" d="M1396.34 3269.72c122.62,63.59 351.36,315.91 619.14,219.54 114.37,-41.15 177.49,-99.85 311.38,-128.03 133.64,-28.12 272.91,-13.77 402.36,15.87l258.93 -115.91c-104.89,-17.71 -205.74,-124.61 -378.79,-157 -288.33,-53.96 -353.88,104.18 -634.35,149.67 -105.42,17.1 -136.62,8.47 -218.61,-32.2l-361.52 -165.63 1.46 213.69 0 -0zm2851.7 -38.89l-12.03 15.94c-24.74,36.96 -26.85,55.75 -40.14,47.68 -13.04,13.51 -12.08,16.65 -20.73,33.66 -8.51,16.75 -13.91,21.62 -24.74,34.46 2.36,5.49 11.42,-4 -7.7,25.93 -7.36,11.52 -14.38,20.47 -22.41,32.51l-43.7 58.7c-0.78,0.82 -2.4,2.55 -3.73,3.67l-7.42 12.76c187.45,-20.25 210.63,46.13 292.61,-40.06 85.64,-90.03 247.29,-181.04 395.81,-133.78l-3.98 -784.11 2.32 575.29c-54.33,-22.32 -64.34,-39.26 -137.89,-22.22 -69.86,16.19 -282.74,136.64 -366.24,139.6l-0.02 -0.03z"/>
  <path class="fil7" d="M3001.71 1935.87l-260.46 -2.82c16.59,27.5 197.63,152.75 207.25,156.93l-83.84 255.77 216.06 -150.83c49.82,24.15 163.42,127.21 216.45,154.69l-77.07 -250.68c9.57,-8.96 -0.44,-0.03 12.61,-10.86 42.02,-34.89 186.63,-126.63 200.03,-148.76l-264.55 -1.95 -76.65 -247.32 -17.38 30.02c-3.14,8.67 -6.51,20.42 -9.85,30.56 -7.07,21.46 -13.09,39.23 -20.25,60.74 -13.93,41.77 -27.65,86.83 -42.33,124.49l-0.02 0.02z"/>
  <path class="fil2" d="M3072.94 3946.18c-108.85,7.92 -225.33,8 -335.64,11.02 -63.34,1.74 -182.72,16.68 -212.15,81.97l-17.24 30.86c-74.3,-98.65 32.23,-233.49 98.15,-327.75 25.59,-36.59 289.73,-149.68 319.41,-157.85 38.5,75.6 74.47,144.38 141.62,182.33 25.93,14.66 59.56,19.13 82.54,32.65l-76.69 146.77 0 -0zm-84.79 -685.01l-258.93 115.91 -50.89 24.93c-24.17,130.17 50.17,176.29 100.15,221.89 -1.18,1.14 -3.24,1.01 -3.86,3.05l-12.54 8.11c-36.06,18.57 -67.04,20.31 -133.34,62.49 -44.77,28.48 -62.42,73.05 -97.22,125.31 -59.03,88.64 -124.81,230.34 9.54,296.35 -11.8,-97.45 21.24,-108.39 106.42,-133.08 40.52,-11.75 424,-29.68 472.56,-9.2 190.1,80.16 140.58,69.64 354.27,-28 51.59,-23.56 407.9,-179.75 426.34,-201.04 15.64,-18.05 40,-60.35 48.53,-77.39l-576.71 262.88c34.75,-89.92 37.32,-81.19 121.67,-119.32 51.01,-23.06 479.72,-219.04 497.01,-211.09 18.19,-13.98 54.35,-68.94 60.55,-89.36l-580.57 265.02c27.83,-91.29 47.58,-84.16 124.95,-119.37l491.91 -214.86 -15.11 38.94c1.34,-1.12 2.96,-2.85 3.73,-3.67l43.7 -58.7c8.05,-12.03 15.05,-20.99 22.41,-32.51 19.13,-29.93 10.09,-20.43 7.7,-25.93 -66.92,12.39 -461.98,220.13 -573.69,258.96 36.03,-91.87 35.67,-79.67 120.16,-117.84l482.09 -212.09c16.12,-2.47 5.62,-4.05 16.9,2.86 13.29,8.06 15.39,-10.71 40.14,-47.68l12.03 -15.94 14.75 -24.67 -581.75 264.86c28.4,-88.27 43.84,-82.96 121.61,-118.18 68.65,-31.08 456.24,-205.55 495.27,-215.53l-14.33 35.86 81.74 -124.7 -578.81 263.71c6.66,-13.57 31.42,-68.16 39.86,-77.19 14.64,-15.64 217.44,-99.51 245.77,-111.99l330.38 -133.76 76.07 -110.57 -526.49 226.58 -0.76 32.81c-75.74,29.46 -161.65,74.93 -238.65,110.91l-479.72 222.31c-52.8,23.58 -193.99,98.03 -238.93,105.06l-19.87 -23.62 978.49 -462.43c13.35,-17.27 26.1,-38.44 33.91,-61.99l-580.35 264.32c36.78,-93.45 31.2,-78.61 122.34,-119.16 70.06,-31.17 480.73,-217.11 497.23,-212.37 17.62,-15.86 37.66,-56.04 49.6,-79.9l-565.33 256.29c10.32,-28.09 25.71,-66.92 42.95,-81.5l574.09 -254.23 81.44 -90.12 -1220.39 549.55 0.01 0.03z"/>
  <path class="fil8" d="M2604.33 3915.15c12.59,-79.54 6.75,-92.94 113.45,-131.33 -19.5,93.98 -26.94,117.14 -113.45,131.33zm545.3 -115.74c-22.99,-13.51 -56.62,-17.99 -82.54,-32.65 -67.15,-37.96 -103.1,-106.73 -141.62,-182.33 -29.68,8.17 -293.84,121.26 -319.41,157.85 -65.92,94.26 -172.45,229.1 -98.15,327.75l17.24 -30.86c29.41,-65.29 148.8,-80.23 212.15,-81.97 110.31,-3.03 226.79,-3.1 335.64,-11.02l76.69 -146.77 0 0z"/>
  <path class="fil8" d="M3952.14 3105.23l0.53 -14.94 -978.49 462.43 19.87 23.62c44.95,-7.03 186.13,-81.49 238.93,-105.06l479.72 -222.31c77,-35.98 162.91,-81.45 238.65,-110.91l0.76 -32.81 0.01 -0.02z"/>
  <path class="fil8" d="M3949.16 3670.52c20.88,-22.32 23.76,-45.68 41.96,-67.53 -17.29,-7.95 -445.98,188.03 -497.01,211.09 -84.35,38.13 -86.92,29.4 -121.67,119.32l576.71 -262.88 0.02 -0z"/>
  <path class="fil8" d="M3986.59 3028.32c15.91,-17.45 21.85,-44.54 39.22,-67.2 -16.51,-4.73 -427.16,181.2 -497.23,212.37 -91.14,40.54 -85.56,25.69 -122.34,119.16l580.35 -264.32 0 -0.02z"/>
  <path class="fil8" d="M4262.81 3206.16l20.79 -32.99 14.33 -35.86c-39.03,9.99 -426.62,184.45 -495.27,215.53 -77.77,35.2 -93.2,29.9 -121.61,118.18l581.75 -264.86 0 -0z"/>
  <path class="fil8" d="M4150.42 3362.55c10.82,-12.82 16.23,-17.69 24.74,-34.46 8.64,-17.01 7.67,-20.15 20.73,-33.66 -11.28,-6.91 -0.78,-5.34 -16.9,-2.86l-482.09 212.09c-84.49,38.18 -84.13,25.97 -120.16,117.84 111.71,-38.83 506.77,-246.59 573.69,-258.96l-0.01 0.02z"/>
  <path class="fil8" d="M4075.41 2881.21c29.27,-21.2 40.12,-43.39 51.7,-79.46l-574.09 254.23c-17.24,14.58 -32.63,53.41 -42.95,81.5l565.33 -256.29 0.02 0.02z"/>
  <path class="fil8" d="M4051.68 3513.63c2.86,-4.23 7.77,-11.24 13.76,-17.51l7.42 -12.76 15.11 -38.94 -491.91 214.86c-77.38,35.22 -97.13,28.09 -124.95,119.37l580.57 -265.02z"/>
  <path class="fil8" d="M4365.34 3048.46c15.39,-19.92 24.32,-44.98 37.21,-59.22l-330.38 133.76c-28.32,12.48 -231.12,96.35 -245.77,111.99 -8.45,9.03 -33.2,63.62 -39.86,77.19l578.81 -263.71 -0.02 -0.02z"/>
  <path class="fil2" d="M2604.33 3915.15c86.51,-14.19 93.94,-37.35 113.45,-131.33 -106.7,38.39 -100.86,51.79 -113.45,131.33z"/>
  <path class="fil2" d="M2324.89 4639.54c-0.61,-30.08 -2.89,-89.21 15.25,-103.58 22.11,-17.52 66.14,-24.34 83.77,-11.73 77.24,55.2 73.72,79.57 76.79,145.48 -28.98,6.89 -74.92,30.72 -102.22,22.29 -34.81,-10.75 -45.4,-36.87 -73.61,-52.45l0.02 0zm183.66 -57.04c13.27,-7.05 68.57,-53.69 79.35,-68.07l80.83 32.63 2.32 105.22c-86.54,59.32 -50.11,55.7 -156.81,17.56l-5.7 -87.35 0 0.02zm46.35 -184.31c22.53,-20.42 37.89,-34.08 56.8,-55.96 25.38,10.02 60.85,22.43 75.27,40.8 14.07,17.91 29.91,64.1 33.15,91.28 -13.12,19.02 -38.58,46.73 -52.16,57.54 -41.41,-17.51 -94.62,-13.2 -113.06,-133.65l0 0zm-232.37 125.61c-19.7,-36.01 -31.22,-41.46 -36.68,-50.49 -12.96,-21.46 -5.49,-42.47 3.58,-69.01 14.95,-43.68 60.94,-57.1 103.74,-66.03 64.73,71.92 52.48,72.2 36.23,111.29 -17.2,41.4 -7.14,57.13 -106.87,74.23l0 0zm84.75 -188.82c24.95,-60.15 46.73,-81.78 93.94,-80.74 43.87,0.96 65.89,32.48 95.29,78.33 -52.1,82.82 -73.1,68.1 -142.54,66.64 -10.89,-17.88 -31.25,-48.91 -46.69,-64.24l0 0.02zm-103.66 -18.22c2.57,45.32 -15.95,50.97 -28.96,93.06 -15.84,51.31 4.14,50.92 -42.21,71.84 -3.47,52.79 8.33,133.53 47.25,153.28l33.01 1.73c12.93,24.64 30.66,38.8 58.41,55.34 81.47,48.54 25.32,23.22 61.3,49.91 51.48,14.27 104.16,15.31 147.38,-4.03l3.89 -19.3c29.29,-12.68 43.2,-18.33 65.3,-35.67 16.11,-12.62 31.45,-32.99 53.02,-29.15 30.04,-18.05 64.65,-102.46 56.07,-149.18 -21.88,-33.74 -62.17,-114.65 -59.01,-166.72 2.32,-36.62 -8.4,-42.98 -29.26,-59.22 -16.76,-13.06 -33.6,-25.32 -60.87,-29.6 -58.02,9.68 -32.59,5.93 -81.08,-4.45 -33.23,-7.11 -64.44,3.02 -94.31,6.15l-14.01 -18.61c-39.61,5.51 -113.75,46 -115.93,84.65l0 -0.02z"/>
  <path class="fil8" d="M2324.89 4639.54c28.21,15.58 38.81,41.69 73.61,52.45 27.28,8.43 73.24,-15.39 102.22,-22.29 -3.07,-65.91 0.45,-90.28 -76.79,-145.48 -17.63,-12.61 -61.66,-5.79 -83.77,11.73 -18.15,14.36 -15.86,73.5 -15.25,103.58l-0.02 0z"/>
  <path class="fil8" d="M2508.56 4582.5l5.7 87.35c106.68,38.14 70.26,41.77 156.81,-17.56l-2.32 -105.22 -80.83 -32.63c-10.77,14.4 -66.08,61.04 -79.35,68.07l0 -0.02z"/>
  <path class="fil8" d="M2322.54 4523.8c99.74,-17.12 89.69,-32.84 106.87,-74.23 16.23,-39.11 28.5,-39.37 -36.23,-111.29 -42.78,8.93 -88.78,22.35 -103.74,66.03 -9.07,26.53 -16.54,47.54 -3.58,69.01 5.46,9.03 16.98,14.47 36.68,50.49l0 -0z"/>
  <path class="fil8" d="M2554.91 4398.2c18.44,120.45 71.65,116.14 113.06,133.65 13.6,-10.8 39.04,-38.52 52.16,-57.54 -3.25,-27.16 -19.08,-73.35 -33.15,-91.28 -14.42,-18.38 -49.91,-30.78 -75.27,-40.8 -18.91,21.88 -34.27,35.54 -56.8,55.96l0 -0z"/>
  <path class="fil8" d="M2407.3 4335c15.42,15.33 35.78,46.35 46.69,64.24 69.46,1.46 90.44,16.19 142.54,-66.64 -29.4,-45.86 -51.4,-77.36 -95.29,-78.33 -47.2,-1.04 -68.99,20.59 -93.94,80.74l0 -0.02z"/>
  <path class="fil8" d="M2699.08 4337.86c-3.17,52.09 37.13,133 59.01,166.72 10.68,-23.14 7.91,-54.5 -8.25,-103.4 -12.62,-38.24 -22.01,-49.37 -41.96,-79.59l-8.81 16.26 0 -0z"/>
  <path class="fil8" d="M2232.45 4481.68c46.35,-20.92 26.36,-20.51 42.21,-71.84 13.01,-42.1 31.53,-47.75 28.96,-93.06 -18.78,-1.51 -37.91,40.17 -47.73,60.74 -15.56,32.59 -22.13,64.35 -23.44,104.16z"/>
  <path class="fil8" d="M2432.43 4741.93c-35.98,-26.67 20.15,-1.37 -61.3,-49.91 -27.75,-16.53 -45.49,-30.71 -58.41,-55.34l-33.01 -1.73c20.12,42.36 89.8,100.92 152.73,106.98l-0.02 0z"/>
  <path class="fil9" d="M2419.56 4232.13l14.01 18.61c29.86,-3.14 61.08,-13.26 94.31,-6.15 48.49,10.38 23.08,14.13 81.08,4.45 -45.69,-35.9 -127.1,-31.16 -189.4,-16.9l0 -0.02z"/>
  <path class="fil9" d="M2579.81 4737.88c55.03,-9.15 99.29,-51.12 122.2,-84.12 -21.57,-3.84 -36.91,16.53 -53.02,29.15 -22.11,17.34 -36.01,22.99 -65.3,35.67l-3.89 19.3 0.02 0z"/>
  <path class="fil10" d="M2904.13 2605.32c12.04,-0.64 9.26,-3.64 9.26,8.02l7.77 18.19 12.85 14.07c-1.14,0.87 -3.1,2.24 -4.28,3.13 -1.1,0.82 -3.13,2.01 -4.12,2.76 -8.2,6.05 -3.38,1.46 -10.18,7.83 32.18,19.14 15.03,-36.6 131.22,28.7 -32.98,18.63 -186.77,86.98 -225.6,72.04 4.23,-35.37 51.59,-66.81 84.3,-82.01 -7.94,-7.38 13.4,-8.48 -17.69,-6.49 -88.94,40.71 -192.67,180.64 -217.95,299.15l156.39 17.76c-12.82,-94.31 3.75,-145.4 56.96,-187.13 6.63,-9.15 -1.48,-8.89 20.61,-15.95 14.82,-16.25 112.5,-60.93 146.9,-67.56 62.14,-29.93 35.84,2.97 89.78,13.34l50.94 24.9 9.8 2.1c16.53,3.21 19.16,3.53 33.29,10.89 0.53,0.28 10.69,6.33 12.45,7.59 13.9,9.96 4.61,3.89 10.75,10.13 9.6,4.65 9.7,4.34 16.76,9.93 15,11.86 2.04,2.05 11.08,11.63 50.08,53.77 54.49,70.48 52.35,168.39 6.55,15.8 -11.66,13.21 71.37,3.69 67.21,-7.7 64.73,2.36 80.23,-24.2 -31.28,-65.57 -41.77,-104.91 -82.96,-163.27 -38.67,-54.78 -72.65,-83.49 -132.44,-123.04 -19.42,5.06 -9.06,-2.85 -19.11,9.18 36.78,13.63 78.26,42.17 82.45,80.99 -57.54,18.22 -275.58,-100.13 -336.71,-118.87 32.48,-47.57 107.77,-12.01 155.39,-8.28l35.68 1.18c0.93,-0.81 5.65,-4.59 7.05,-6.35 -7.72,-34.22 -6.94,-38 -2.4,-72.36 -18.32,5.98 -43.36,15.64 -60.1,24 -54.56,27.22 -3.58,4.68 -15.31,29.49 -40.7,7.27 -147.83,-50.02 -188.43,-69.41 -15.62,16.65 -24.65,42.87 -28.35,65.84l0.01 0.02z"/>
  <path class="fil11" d="M3271.5 2611.42c-10.89,14.69 4.54,4.62 -12.96,3.94 -14.64,-0.58 -0.42,4.08 -9.28,-6.83l-24.26 5.38 5.26 18.39c8.93,3.33 6.99,0.15 18.07,8.12 8.72,6.27 4.17,4.08 10.47,14.61l-14.33 2.6c-1.25,0.89 -3.17,1.98 -4.01,2.18l-13.32 1.96c-0.59,-0.05 -12.42,-4.36 -16.17,-5.59l-1.14 29.32c-24.45,-1.03 -51.9,-13.17 -70.76,-25.65l-4.81 -22.71 20.29 2.69 1.45 -6.96c-47.61,-3.73 -122.91,-39.29 -155.39,8.28 61.13,18.74 279.18,137.09 336.71,118.87 -4.17,-38.81 -45.68,-67.35 -82.45,-80.99 10.05,-12.03 -0.31,-4.12 19.11,-9.18 14.74,-12.08 13.91,-10.77 23.53,-24.4l17.99 -31.81c-15.02,-13.48 -9.99,-10.75 -26.49,-0.3l5.62 -23.34 -18.21 0.05 -4.9 21.34 -0.02 0.02z"/>
  <path class="fil11" d="M2887.68 2671.55c31.09,-1.99 9.74,-0.89 17.69,6.49 -32.71,15.21 -80.07,46.64 -84.3,82.01 38.83,14.94 192.62,-53.41 225.6,-72.04 -116.19,-65.3 -99.04,-9.57 -131.22,-28.7 -16.87,-10.09 -5.48,9.99 -14.61,-9.66l20.33 -18.12 -7.77 -18.19 -26.88 5.4c-1.63,1.01 -3.7,3.06 -4.62,3.47 -0.82,0.36 -3.92,1.77 -4.75,2.1l-11.84 -19.78c-27.8,5.18 -10.4,-6.75 -23.5,20.54 6.8,5.07 6.83,-2.32 19.44,16.87 10.91,16.62 12.9,19.14 26.41,29.6l0.03 0z"/>
  <path class="fil11" d="M2814.32 2554.01l8.42 -19.95c-37.8,-11.92 -72.83,-22.92 -85.58,-48.29l88.68 36.84 15.22 -23.27 11.87 3.7 7.22 -20.12 -177.71 -74.37 -17.09 40.99 59.56 29.62c-4.98,9.21 -11.58,18.74 -10.64,34 30.19,5.2 27.41,2.07 53.88,13.46l46.16 27.36 0.02 0.03z"/>
  <polygon class="fil11" points="3300.75,2484.47 3305.51,2505.47 3323.41,2501.7 3332.06,2525.54 3432.14,2482.57 3493.55,2455.09 3479.45,2409.88 "/>
  <path class="fil11" d="M2932.47 2539.45c40.6,19.39 147.74,76.68 188.43,69.41 11.73,-24.81 -39.23,-2.27 15.31,-29.49 16.75,-8.36 41.79,-18.02 60.1,-24 -4.54,34.35 -5.32,38.14 2.4,72.36l3.53 4.25c2.47,-34.83 12.67,-59.03 7.3,-85.25l17.15 -5.04c4.01,-21.06 -6.04,-15.76 -10.19,-19.06 -30.33,10.15 -112.67,53.29 -135.74,53.86 -24.81,0.61 -101.13,-43.73 -137.01,-51.81 -19.47,2.47 -7.36,-8.48 -11.25,14.78l-0.03 -0.01z"/>
  <path class="fil12" d="M3337.78 2976.67c-29.96,42.1 74.89,85.46 133.68,38.45 26.36,-21.07 26.05,-38.83 17.93,-58.97 -15.52,26.57 -13.03,16.5 -80.23,24.2 -83.03,9.51 -64.82,12.09 -71.37,-3.69l-0.02 0z"/>
  <path class="fil12" d="M2826.12 2988.45l-156.39 -17.76c-20.9,27.31 36.87,59.01 63.29,63.51 45.58,7.75 86.14,-5.56 93.11,-45.75l-0.02 0z"/>
  <path class="fil12" d="M3277.61 2495.21c8.65,12.82 11.25,-20.64 6.46,16.62 -6.52,4.53 -11.1,10.64 -21.26,10.91 -23.11,0.61 -17.73,-9.03 -20.74,-14.21 -17.82,5.32 -13.1,2.94 -25.57,14.08 4.16,3.28 14.21,-2.01 10.19,19.06 7.67,5.06 2.89,-1.51 10.16,9.26 1.46,2.16 5.68,10.72 6.71,13.17 5.49,13.2 7.92,25.96 6.88,43.37l12.7 -6.85c14.99,6.91 1.84,-5.07 8.39,10.79l4.9 -21.34 18.21 -0.05c7.41,-5.09 9.43,-4.44 18.61,-8.93 10.09,-4.95 6.55,-2.57 13.73,-7.19 10.04,-6.46 5.59,-2.83 12.37,-9.93 -12.45,-10.05 1.82,10.07 -13.49,-14.4 -0.37,-0.59 -5.91,-12.82 -6.51,-14.13 -5.82,-13.04 -8.45,-20.31 -13.84,-29.96l-4.78 -21.01 -23.14 10.74 0.02 -0.02z"/>
  <path class="fil12" d="M2852.95 2503.05l-27.76 62.58 40.17 25.15c29.29,1.66 12.34,0.15 19.55,8.29l19.22 6.26c3.69,-22.99 12.73,-49.19 28.35,-65.84 3.89,-23.25 -8.22,-12.31 11.25,-14.78l-24.12 -14.47 -20.25 13.62c-26.99,-11.34 -10.89,2.69 -25.48,-20.25 5.32,-7.78 -7.91,-7.45 9.1,-5.93l-22.83 -14.72 -7.22 20.12 0.02 -0.02z"/>
  <path class="fil13" d="M2903.7 2785.37c41.06,9.34 8.93,14.94 50.73,22.18 -8.72,5.57 12.54,3.42 -15.25,7.44 -8.15,1.18 -17.01,1.31 -24.87,-2.07 -15.78,-6.77 -12.78,-15.55 -10.6,-27.56l-0.02 0.02zm50.73 22.18c-13.21,-10.38 -16.51,-8.86 -21.73,-27.25 14.85,-15.35 27.61,-20.08 51.39,-23.98l1.74 34.74c-11.13,8.4 -13.88,12.82 -31.41,16.51l0 -0.02zm-50.73 -22.18c-22.08,7.07 -13.98,6.8 -20.61,15.95l27.83 25.41c66.33,6.35 96.01,-17.79 82.14,-79.93l44.88 -17.51c9.79,-6.38 6.8,-5.43 12.65,-11.49 -34.39,6.65 -132.06,51.33 -146.9,67.56z"/>
  <path class="fil10" d="M3202.25 2631.97c0,0.06 -6.18,9.18 8.72,24.22 3.75,1.23 15.56,5.54 16.17,5.59l13.32 -1.96c0.84,-0.2 2.79,-1.29 4.01,-2.18l-27.05 -14.01 12.84 -11.33 -5.26 -18.39 24.26 -5.38 1.15 -1.06c1.04,-17.42 -1.39,-30.18 -6.88,-43.37 -1.03,-2.44 -5.24,-11.02 -6.71,-13.17 -7.27,-10.77 -2.49,-4.19 -10.16,-9.26l-17.15 5.04c5.37,26.22 -4.82,50.42 -7.3,85.25l0.03 0.02z"/>
  <path class="fil14" d="M3155.98 2632.91l-1.45 6.96 0.4 18.44 -15.89 1.57c18.88,12.48 46.32,24.6 70.76,25.65l1.14 -29.32c-14.89,-15.03 -8.72,-24.15 -8.72,-24.22l-3.53 -4.25c-1.4,1.76 -6.12,5.54 -7.05,6.35l-35.68 -1.18 0.01 0z"/>
  <path class="fil13" d="M3285.43 2808.28c-9.04,-9.56 3.92,0.23 -11.08,-11.63 -7.07,-5.59 -7.16,-5.26 -16.76,-9.93 -1.01,34.36 -20.29,29.58 -52.09,27.51l17.76 -13.79c-36.74,5.42 -51.89,15.53 -47.59,-40.43 7.61,-6.86 -11.52,-8.39 15.66,-4.01l-50.94 -24.9 12.9 10.79c14.99,12.06 2.33,-0.87 14.78,12.47l-5.42 44.14c29.37,24.71 74,50.41 100.38,6.63l22.43 3.13 -0.03 0.03z"/>
  <path class="fil13" d="M3336.38 2531.15c4.22,25.69 2.38,12.28 9.98,17.65 40.18,-22.6 66.31,-22.46 100.64,-38.47 -2.18,-11.2 4.76,-1.15 -4.48,-16.72 -5.63,-9.49 -6.02,-7.13 -10.38,-11.05 -27.11,24.79 -50.5,42.38 -95.76,48.59l-0 0z"/>
  <path class="fil5" d="M3223.26 2800.49l5.77 -20.18c-9.82,-8.96 -4.09,-2.99 -15.03,-11.36 -11.7,-8.96 -5.52,-3.86 -12.89,-10.79l-9.8 -2.1c-27.16,-4.39 -8.05,-2.85 -15.66,4.01 -4.28,55.96 10.86,45.85 47.59,40.43l0.01 -0.01z"/>
  <path class="fil5" d="M2954.42 2807.55c17.51,-3.69 20.28,-8.09 31.41,-16.51l-1.74 -34.74c-23.78,3.89 -36.54,8.64 -51.39,23.98 5.21,18.4 8.5,16.87 21.73,27.25l-0 0.02z"/>
  <path class="fil15" d="M2822.74 2534.06l3.1 -11.45 -88.68 -36.84c12.74,25.37 47.79,36.37 85.58,48.29l-0 -0z"/>
  <path class="fil16" d="M3332.06 2525.54l4.31 5.6c45.26,-6.19 68.65,-23.78 95.76,-48.59l-100.08 42.98 0.02 0z"/>
  <path class="fil10" d="M3339.34 2563.97l7 -15.17c-7.59,-5.37 -5.74,8.05 -9.98,-17.65l-4.31 -5.6 -8.65 -23.84 -17.9 3.77c5.38,9.66 8,16.92 13.84,29.96 0.59,1.32 6.13,13.54 6.51,14.13 15.31,24.46 1.06,4.34 13.49,14.4l0 0.02z"/>
  <path class="fil10" d="M2825.84 2522.6l-3.1 11.45 -8.42 19.95c3.84,8.37 4.75,6.38 10.86,11.63l27.76 -62.58 -11.87 -3.7 -15.22 23.27 -0.01 -0.02z"/>
  <path class="fil5" d="M2954.42 2807.55c-41.8,-7.24 -9.68,-12.82 -50.73,-22.18 -2.18,12.01 -5.18,20.78 10.6,27.56 7.86,3.38 16.72,3.25 24.87,2.07 27.8,-4.03 6.55,-1.88 15.25,-7.44l0.02 -0.02z"/>
  <path class="fil5" d="M3223.26 2800.49l-17.76 13.79c31.79,2.05 51.08,6.85 52.09,-27.51l-17.04 4.44c-1.4,0.55 -3.31,1.74 -4.57,2.3l-12.73 7 0.01 -0.02z"/>
  <path class="fil13" d="M3242.06 2508.55c3.02,5.18 -2.36,14.82 20.74,14.21 10.16,-0.26 14.72,-6.4 21.26,-10.91 4.79,-37.27 2.19,-3.8 -6.46,-16.62l-35.54 13.34 -0 -0.02z"/>
  <path class="fil13" d="M3223.26 2800.49l12.73 -7c1.25,-0.56 3.17,-1.74 4.57,-2.3l17.04 -4.44c-6.15,-6.24 3.14,-0.17 -10.75,-10.13 -1.76,-1.26 -11.91,-7.31 -12.45,-7.59 -14.13,-7.36 -16.76,-7.69 -33.29,-10.89 7.36,6.94 1.18,1.84 12.89,10.79 10.94,8.37 5.21,2.4 15.03,11.36l-5.77 20.18 0 0.03z"/>
  <path class="fil13" d="M2919.6 2510.21l-36.62 -12.56c-17.01,-1.52 -3.78,-1.85 -9.1,5.93 14.6,22.95 -1.51,8.92 25.48,20.25l20.25 -13.62 -0 0z"/>
  <path class="fil15" d="M3244.47 2657.64l14.33 -2.6c-6.29,-10.54 -1.76,-8.34 -10.47,-14.61 -11.08,-7.97 -9.13,-4.79 -18.07,-8.12l-12.84 11.33 27.05 14.01z"/>
  <path class="fil15" d="M2915.45 2659.3c6.8,-6.37 1.96,-1.77 10.18,-7.83 1.01,-0.75 3.02,-1.93 4.12,-2.76 1.18,-0.89 3.14,-2.26 4.28,-3.13l-12.85 -14.07 -20.33 18.12c9.13,19.64 -2.26,-0.42 14.61,9.66l-0.01 0z"/>
  <path class="fil11" d="M2865.32 2604.52l21.2 14.22 -1.62 -19.69c-7.21,-8.12 9.73,-6.63 -19.55,-8.29l-0.03 13.76z"/>
  <polygon class="fil17" points="3139.05,2659.86 3154.94,2658.29 3154.54,2639.85 3134.26,2637.16 "/>
  <path class="fil15" d="M2886.52 2618.73l26.88 -5.4c0,-11.66 2.79,-8.67 -9.26,-8.02l-19.22 -6.26 1.62 19.69 -0.02 -0.02z"/>
  <path class="fil15" d="M3250.42 2607.48l-1.15 1.06c8.84,10.89 -5.37,6.26 9.28,6.83 17.49,0.68 2.07,10.75 12.96,-3.94 -6.55,-15.87 6.6,-3.87 -8.39,-10.79l-12.7 6.85 0 -0.02z"/>
  <path class="fil16" d="M2886.52 2618.73l-21.2 -14.22 11.84 19.78c0.82,-0.33 3.92,-1.74 4.75,-2.1 0.92,-0.39 2.99,-2.44 4.62,-3.47l-0.02 0.02z"/>
  <rect class="fil18" transform="matrix(0.997837 0.0657373 -0.0657373 0.997837 2852.02 299.004)" width="72.14" height="148.08"/>
  <rect class="fil18" transform="matrix(0.998817 -0.0486206 0.0486206 0.998817 3125.12 303.057)" width="72.14" height="148.08"/>
  <rect class="fil18" transform="matrix(0.919304 -0.393548 0.393548 0.919304 1192.4 707.043)" width="72.14" height="148.08"/>
  <rect class="fil18" transform="matrix(0.899253 0.43743 -0.43743 0.899253 4852.58 667.885)" width="72.14" height="148.08"/>
 </g>
</svg>
