<?xml version="1.0" encoding="UTF-8"?>
<!DOCTYPE svg PUBLIC "-//W3C//DTD SVG 1.1//EN" "http://www.w3.org/Graphics/SVG/1.1/DTD/svg11.dtd">
<!-- Creator: CorelDRAW 2020 (64 Bit) -->
<svg xmlns="http://www.w3.org/2000/svg" xml:space="preserve" width="94.729mm" height="120mm" version="1.1" style="shape-rendering:geometricPrecision; text-rendering:geometricPrecision; image-rendering:optimizeQuality; fill-rule:evenodd; clip-rule:evenodd"
viewBox="0 0 14563.3 18448.37"
 xmlns:xlink="http://www.w3.org/1999/xlink"
 xmlns:xodm="http://www.corel.com/coreldraw/odm/2003">
 <defs>
  <style type="text/css">
   <![CDATA[
    .str0 {stroke:#373435;stroke-width:11.71;stroke-miterlimit:22.9256}
    .fil1 {fill:#008B45}
    .fil0 {fill:#FEFEFE}
    .fil2 {fill:#008B45;fill-rule:nonzero}
   ]]>
  </style>
 </defs>
 <g id="Camada_x0020_1">
  <metadata id="CorelCorpID_0Corel-Layer"/>
  <g id="sociedade-esportiva-do-gama-seeklogo.com.cdr">
   <path class="fil0" d="M14563.3 12212.22c-92.92,3449.18 -3356.08,6236.15 -7287.43,6236.15 -3931.02,0 -7183.12,-2786.96 -7270.09,-6236.15l-5.78 0 0 -151.63 0 -12060.59 14563.3 0 0 12060.59 0 151.63z"/>
   <path class="fil1" d="M14563.3 12211.71c-92.92,3449.2 -3356.25,6236.49 -7287.43,6236.49 -3931.19,0 -7182.95,-2787.29 -7270.09,-6236.49l-5.78 0 0 -150.95 0 -12060.42 14563.3 0 0 12060.42 0 150.95zm-296.13 -92.92c-92.93,3321.54 -3193.74,6004.16 -6979.74,6004.16 -3791.79,0 -6892.59,-2682.62 -6985.51,-6004.16l0 0 0 -150.97 0 -11624.89 13971.2 0 0 11624.89 0 150.97 -5.95 0z"/>
   <path class="fil1" d="M14127.95 12031.81c-81.53,3269.13 -3106.6,5911.26 -6840.52,5911.26 -3733.75,0 -6741.62,-2642.13 -6822.81,-5911.26l0 0 0 -127.8 0 -11410.12 13663.32 0 0 11410.12 0 127.8zm-313.67 -122.02c-87.14,3095.01 -2984.73,5597.74 -6520.88,5597.74 -3542.12,0 -6439.7,-2502.74 -6526.85,-5597.74l0 0 0 -145.17 0 -10951.43 13053.51 0 0 10951.43 0 145.17 -5.78 0zm-133.61 -63.83c-34.71,1335.54 -604.02,2560.77 -1515.43,3513.02l0 -11601.73 1515.43 0 0 7949.34 0 139.38zm-2264.46 4175.08c-673.8,505.15 -1469.12,888.43 -2340.34,1108.99l0 -13372.79 2340.34 0 0 12263.8zm-3089.38 1259.96c-336.65,46.46 -685.22,75.56 -1039.4,75.56 -400.64,0 -789.7,-34.88 -1167.03,-92.92l0 -13506.41 2206.43 0 0 13523.76zm-2949.83 -179.9c-836.17,-232.31 -1591,-609.81 -2241.31,-1103.38l0 -12240.48 2241.31 0 0 13343.86zm-2984.56 -1771.06c-894.38,-946.62 -1445.81,-2160.12 -1480.7,-3484.08l0 0 0 -139.38 0 -7949.34 1480.7 0 0 11572.8zm-1480.7 -11764.45l0 -2607.23 12768.93 0 0 2607.23 -12768.93 0z"/>
   <path class="fil0 str0" d="M3629.41 5429.59l1225.08 0c-859.49,981.35 -1776.85,1834.87 -1736.18,3385.2 -40.68,1254.34 418.18,3280.86 2467.84,4087.93 11.58,0 23.32,17.53 23.32,40.68l-2102.08 0 -1643.41 -4128.61 1765.43 -3385.2z"/>
   <g>
    <path class="fil2" d="M4855.32 5542.75l-1225.08 0 0 -228.67 1225.08 0 86.02 189.66 -86.02 39zm0 -228.67l252.1 0 -166.08 189.66 -86.02 -189.66zm-1621.9 3503.24l-228.54 -7.41 -0.03 6.7 -1.06 -147.68 4.52 -143.87 9.96 -140.13 15.19 -136.55 20.26 -133.04 25.11 -129.69 29.79 -126.45 34.25 -123.3 38.51 -120.28 42.58 -117.41 46.43 -114.63 50.04 -112.01 53.5 -109.52 56.7 -107.17 59.68 -104.97 62.49 -102.9 65.06 -101 67.44 -99.24 69.61 -97.65 71.6 -96.21 73.38 -94.93 74.95 -93.83 76.33 -92.84 77.53 -92.04 78.54 -91.41 79.34 -90.92 79.97 -90.57 80.4 -90.4 80.67 -90.38 80.73 -90.49 80.6 -90.78 80.34 -91.24 172.03 150.66 -81.05 92.07 -81.13 91.33 -80.91 90.7 -80.54 90.26 -80 89.94 -79.27 89.77 -78.33 89.75 -77.22 89.87 -75.93 90.14 -74.45 90.57 -72.79 91.12 -70.98 91.83 -68.95 92.67 -66.78 93.66 -64.43 94.81 -61.89 96.05 -59.2 97.52 -56.36 99.1 -53.35 100.8 -50.15 102.7 -46.81 104.76 -43.32 106.97 -39.66 109.35 -35.84 111.89 -31.85 114.66 -27.7 117.56 -23.35 120.65 -18.88 123.97 -14.17 127.42 -9.32 131.09 -4.24 134.92 1 138.98 -0.03 6.7zm0.03 -6.7l0.08 3.18 -0.11 3.52 0.03 -6.7zm2353.54 3976.61l0 228.67 -41.89 -7.95 -192.66 -81.34 -183.55 -88.43 -174.52 -95.12 -165.68 -101.44 -157 -107.34 -148.49 -112.9 -140.13 -118.05 -131.98 -122.79 -124 -127.14 -116.19 -131.11 -108.61 -134.66 -101.2 -137.81 -94.01 -140.59 -87.03 -142.97 -80.27 -144.96 -73.69 -146.59 -67.35 -147.8 -61.22 -148.69 -55.31 -149.17 -49.6 -149.28 -44.12 -149.05 -38.85 -148.45 -33.79 -147.48 -28.95 -146.14 -24.31 -144.47 -19.88 -142.41 -15.67 -140.02 -11.64 -137.27 -7.84 -134.17 -4.23 -130.71 -0.83 -126.91 2.38 -122.79 228.54 7.41 -2.26 116.79 0.8 121.01 4.04 124.8 7.47 128.2 11.15 131.21 14.96 133.87 19.02 136.16 23.23 138.07 27.63 139.56 32.25 140.75 37.04 141.53 42 141.94 47.2 141.99 52.52 141.7 58.05 141.01 63.79 139.99 69.69 138.59 75.78 136.87 82.05 134.8 88.51 132.35 95.15 129.6 102 126.48 109.06 123.05 116.32 119.27 123.77 115.16 131.46 110.74 139.36 105.96 147.46 100.85 155.87 95.41 164.44 89.64 173.28 83.48 182.39 77.01 -41.89 -7.95zm0 228.67l-21.71 0 -20.19 -7.95 41.89 7.95zm23.32 40.68l0 -228.67 -114.33 114.33 0.03 1.55 0.05 1.28 0.12 1.45 0.17 1.57 0.26 1.78 0.23 1.43 0.35 1.63 0.45 1.91 0.46 1.63 0.69 2.24 0.69 1.95 0.72 1.88 0.8 1.84 1.25 2.61 1.35 2.6 1.35 2.37 1.88 2.97 1.88 2.72 1.89 2.49 2.74 3.31 3.14 3.43 2.92 2.87 4.49 3.94 4.66 3.61 4.07 2.78 6.3 3.72 6.32 3.15 6.32 2.6 8.44 2.72 8.61 1.97 9.15 1.25 9.24 0.42 0 -228.67 11.45 0.51 11.33 1.55 10.79 2.46 10.62 3.43 8.44 3.49 8.47 4.2 8.39 4.98 6.13 4.2 6.72 5.18 6.46 5.69 4.89 4.81 5.04 5.49 4.58 5.55 3.67 4.86 3.63 5.24 3.54 5.61 2.95 5.17 2.89 5.52 2.69 5.69 2.15 5.01 2.01 5.17 1.89 5.37 1.8 5.75 1.45 5.26 1.37 5.63 1.12 5.47 0.94 5.33 0.81 5.78 0.63 5.66 0.43 5.6 0.26 5.52 0.09 5.86 -114.33 114.33zm114.33 -114.33l0 114.33 -114.33 0 114.33 -114.33zm-2216.43 -114.33l2102.1 0 0 228.67 -2102.1 0 -106.23 -72.06 106.23 -156.61zm0 228.67l-77.56 0 -28.67 -72.06 106.23 72.06zm-1537.01 -4285.23l1643.24 4128.62 -212.46 84.56 -1643.24 -4128.62 4.84 -95.15 207.62 10.59zm-212.46 84.56l-19.39 -48.69 24.23 -46.46 -4.84 95.15zm1972.9 -3374.61l-1765.28 3385.2 -202.78 -105.74 1765.28 -3385.2 101.39 -61.46 101.39 167.2zm-202.78 -105.74l32.05 -61.46 69.34 0 -101.39 61.46z"/>
   </g>
   <path class="fil0 str0" d="M10945.63 5429.59l-1225.25 0c853.7,981.35 1777.01,1834.87 1730.38,3385.2 46.63,1254.34 -417.99,3280.86 -2467.67,4087.93 -11.58,0 -17.53,17.53 -23.32,40.68l2101.93 0 1643.57 -4128.61 -1759.64 -3385.2z"/>
   <g>
    <path class="fil2" d="M9721.38 5314.08l1225.23 0 0 228.67 -1225.23 0 -86.28 -39.3 86.28 -189.37zm-86.28 189.37l-164.7 -189.37 250.97 0 -86.28 189.37zm1931.07 3305.95l-228.51 8.42 -0.03 -7.63 1.49 -138.93 -3.84 -134.89 -8.95 -131.04 -13.87 -127.39 -18.6 -123.91 -23.15 -120.64 -27.52 -117.53 -31.69 -114.61 -35.73 -111.86 -39.59 -109.34 -43.23 -106.94 -46.78 -104.74 -50.13 -102.7 -53.33 -100.8 -56.34 -99.08 -59.2 -97.5 -61.91 -96.07 -64.43 -94.81 -66.77 -93.67 -68.95 -92.67 -70.93 -91.84 -72.73 -91.13 -74.39 -90.57 -75.82 -90.17 -77.1 -89.89 -78.16 -89.78 -79.04 -89.78 -79.74 -89.97 -80.24 -90.29 -80.57 -90.72 -80.68 -91.38 -80.59 -92.1 172.55 -150.08 79.79 91.21 80.13 90.74 80.33 90.47 80.3 90.35 80.11 90.37 79.71 90.55 79.14 90.89 78.36 91.4 77.39 92.01 76.24 92.84 74.89 93.81 73.3 94.92 71.56 96.21 69.6 97.64 67.44 99.24 65.08 100.99 62.49 102.91 59.7 104.99 56.68 107.17 53.45 109.52 50.04 112.03 46.37 114.66 42.51 117.42 38.4 120.31 34.11 123.34 29.61 126.48 24.87 129.71 19.99 133.1 14.88 136.58 9.56 140.18 4.09 143.9 -1.58 147.73 -0.03 -7.63zm-228.51 8.42l-0.14 -3.87 0.11 -3.75 0.03 7.63zm-2353.74 4198.07l0 -228.67 -41.89 7.95 182.44 -77.01 173.34 -83.49 164.54 -89.64 155.97 -95.42 147.62 -100.85 139.5 -105.96 131.61 -110.75 123.96 -115.18 116.49 -119.27 109.25 -123.07 102.19 -126.49 95.33 -129.58 88.69 -132.37 82.2 -134.78 75.92 -136.87 69.83 -138.61 63.89 -139.96 58.16 -141.01 52.62 -141.68 47.21 -141.98 42.03 -141.91 37.04 -141.51 32.19 -140.71 27.56 -139.55 23.11 -138.02 18.83 -136.1 14.76 -133.84 10.88 -131.18 7.16 -128.14 3.67 -124.73 0.37 -120.94 -2.74 -116.72 228.51 -8.42 2.89 122.87 -0.4 126.97 -3.83 130.78 -7.53 134.23 -11.38 137.3 -15.47 140.05 -19.69 142.47 -24.21 144.51 -28.86 146.16 -33.76 147.51 -38.85 148.46 -44.15 149.08 -49.67 149.29 -55.39 149.19 -61.33 148.69 -67.49 147.83 -73.85 146.57 -80.4 144.96 -87.21 142.99 -94.19 140.58 -101.39 137.82 -108.8 134.64 -116.38 131.09 -124.17 127.14 -132.14 122.77 -140.28 118.04 -148.63 112.9 -157.12 107.34 -165.77 101.42 -174.6 95.12 -183.61 88.41 -192.68 81.34 -41.89 7.95zm41.89 -7.95l-20.19 7.95 -21.71 0 41.89 -7.95zm-65.05 -180.04l0 228.67 -110.94 -142.04 0.69 -2.74 0.68 -2.61 0.68 -2.58 0.8 -2.95 0.72 -2.64 0.83 -2.92 0.91 -3.04 0.97 -3.17 1.01 -3.17 1.06 -3.18 1.29 -3.64 1.43 -3.83 1.29 -3.27 1.63 -3.94 2.11 -4.67 1.86 -3.86 2.28 -4.41 2.8 -5 3.12 -5.09 3.71 -5.5 3.83 -5.17 4.67 -5.7 6 -6.46 6.43 -6.07 7.12 -5.84 8.55 -6 9.81 -5.69 9.84 -4.6 11.56 -4.15 12.24 -3.06 12.31 -1.8 11.88 -0.55 0 228.67 9.73 -0.46 10.25 -1.49 10.24 -2.57 9.62 -3.44 7.93 -3.71 7.99 -4.64 6.76 -4.74 5.4 -4.43 4.77 -4.5 4.37 -4.7 3.11 -3.77 2.29 -3.11 2.2 -3.26 1.68 -2.72 1.38 -2.48 0.92 -1.77 0.51 -1.06 0.78 -1.75 0.37 -0.86 0.03 -0.11 0.2 -0.54 0.09 -0.23 -0.11 0.32 -0.15 0.46 -0.17 0.55 -0.23 0.8 -0.28 0.98 -0.38 1.35 -0.31 1.14 -0.4 1.57 -0.43 1.63 -0.38 1.57 -110.94 -142.04zm0 228.67l-146.4 0 35.47 -142.04 110.94 142.04zm2101.92 0l-2101.92 0 0 -228.67 2101.92 0 106.23 156.63 -106.23 72.04zm106.23 -72.04l-28.67 72.04 -77.56 0 106.23 -72.04zm1643.41 -4128.62l-1643.41 4128.62 -212.46 -84.59 1643.41 -4128.62 207.68 -10.44 4.78 95.02zm-4.78 -95.02l24.12 46.43 -19.34 48.6 -4.78 -95.02zm-1759.48 -3385.2l1759.48 3385.2 -202.9 105.46 -1759.48 -3385.2 101.45 -167.07 101.45 61.6zm-101.45 -61.6l69.43 0 32.02 61.6 -101.45 -61.6z"/>
   </g>
   <path class="fil0 str0" d="M11003.67 9999.34l-568.98 -325.08 0 -1202.08 568.98 -325.09c75.73,296.14 122.02,603.86 122.02,923.31 0,319.3 -46.29,632.79 -122.02,928.94z"/>
   <g>
    <path class="fil2" d="M10492.42 9573.83l568.96 325.08 -113.46 198.57 -568.96 -325.08 -57.61 -99.28 171.06 -99.28zm-113.46 198.57l-57.61 -32.91 0 -66.37 57.61 99.28zm171.06 -1301.38l0 1202.1 -228.67 0 0 -1202.1 57.61 -99.28 171.06 99.28zm-228.67 0l0 -66.37 57.61 -32.91 -57.61 99.28zm740.03 -225.79l-568.96 325.08 -113.46 -198.57 568.96 -325.08 167.51 71.01 -54.05 127.56zm-113.46 -198.57l130.38 -74.5 37.13 145.51 -167.51 -71.01zm293.1 1022.59l-228.67 0 0 0 -0.14 -28.89 -0.38 -28.81 -0.66 -28.76 -0.89 -28.69 -1.15 -28.63 -1.4 -28.59 -1.64 -28.5 -1.89 -28.46 -2.12 -28.4 -2.37 -28.33 -2.6 -28.29 -2.83 -28.24 -3.06 -28.16 -3.27 -28.1 -3.49 -28.04 -3.74 -28 -3.94 -27.93 -4.14 -27.89 -4.35 -27.83 -4.57 -27.73 -4.78 -27.7 -4.97 -27.67 -5.17 -27.6 -5.37 -27.52 -5.57 -27.49 -5.73 -27.43 -5.93 -27.35 -6.12 -27.33 -6.29 -27.24 -6.47 -27.18 -6.66 -27.18 -6.81 -27.07 221.56 -56.54 7.18 28.52 7 28.56 6.84 28.69 6.63 28.75 6.46 28.81 6.27 28.92 6.07 28.99 5.87 29.06 5.67 29.15 5.47 29.23 5.27 29.27 5.06 29.39 4.84 29.49 4.63 29.55 4.41 29.61 4.18 29.69 3.95 29.78 3.74 29.89 3.49 29.95 3.24 30.01 3.01 30.09 2.78 30.16 2.52 30.27 2.28 30.33 2.01 30.39 1.77 30.5 1.49 30.56 1.25 30.66 0.95 30.72 0.69 30.79 0.42 30.87 0.14 30.95 0 0zm-293.1 1028.22l113.46 -198.57 -167.51 71.01 6.8 -27.06 6.66 -27.2 6.47 -27.23 6.27 -27.33 6.12 -27.44 5.93 -27.5 5.73 -27.6 5.57 -27.67 5.37 -27.72 5.17 -27.83 4.97 -27.9 4.78 -27.96 4.57 -27.98 4.35 -28.09 4.15 -28.15 3.94 -28.23 3.74 -28.27 3.49 -28.3 3.27 -28.38 3.06 -28.44 2.83 -28.49 2.61 -28.52 2.37 -28.56 2.12 -28.61 1.89 -28.66 1.64 -28.69 1.4 -28.73 1.15 -28.76 0.89 -28.78 0.66 -28.84 0.38 -28.86 0.14 -28.89 228.67 0 -0.14 30.95 -0.42 30.92 -0.69 30.84 -0.95 30.81 -1.25 30.76 -1.49 30.7 -1.77 30.66 -2.01 30.56 -2.28 30.55 -2.52 30.47 -2.77 30.39 -3.01 30.3 -3.24 30.26 -3.49 30.19 -3.74 30.12 -3.95 30.06 -4.18 29.95 -4.4 29.87 -4.63 29.81 -4.84 29.73 -5.06 29.63 -5.27 29.53 -5.47 29.46 -5.67 29.38 -5.87 29.24 -6.07 29.16 -6.27 29.1 -6.46 28.95 -6.64 28.87 -6.84 28.79 -7 28.64 -7.19 28.56 -167.51 71.01zm167.51 -71.01l-37.13 145.51 -130.38 -74.5 167.51 -71.01z"/>
   </g>
   <polygon class="fil0 str0" points="9395.48,7874.1 10434.69,8472.18 10434.69,9674.26 9395.48,10272.33 8361.71,9674.26 8361.71,8472.18 "/>
   <g>
    <path class="fil2" d="M10378.67 8570.11l-1039.38 -598.07 114.04 -198.2 1039.38 598.07 57.31 99.1 -171.35 99.1zm114.04 -198.2l57.31 32.98 0 66.12 -57.31 -99.1zm-171.35 1301.19l0 -1202.1 228.67 0 0 1202.1 -57.31 99.1 -171.35 -99.1zm228.67 0l0 66.12 -57.31 32.98 57.31 -99.1zm-1210.74 498.97l1039.38 -598.07 114.04 198.2 -1039.38 598.07 -114.29 -0.14 0.25 -198.06zm114.04 198.2l-57.19 32.9 -57.1 -33.04 114.29 0.14zm-1033.35 -796.12l1033.6 598.07 -114.53 197.92 -1033.6 -598.07 -57.07 -98.96 171.6 -98.96zm-114.53 197.92l-57.07 -33.02 0 -65.94 57.07 98.96zm171.6 -1301.06l0 1202.1 -228.67 0 0 -1202.1 57.07 -98.96 171.6 98.96zm-228.67 0l0 -65.94 57.07 -33.02 -57.07 98.96zm1205.2 -499.11l-1033.6 598.07 -114.53 -197.92 1033.6 -598.07 114.29 -0.14 0.25 198.06zm-114.53 -197.92l57.1 -33.04 57.19 32.9 -114.29 0.14z"/>
   </g>
   <polygon class="fil0 str0" points="7322.5,7874.1 8361.71,8472.18 8361.71,9674.26 7322.5,10272.33 6282.78,9674.26 6282.78,8472.18 "/>
   <g>
    <path class="fil2" d="M8305.69 8570.11l-1039.4 -598.07 114.04 -198.2 1039.4 598.07 57.31 99.1 -171.35 99.1zm114.04 -198.2l57.31 32.98 0 66.12 -57.31 -99.1zm-171.35 1301.19l0 -1202.1 228.67 0 0 1202.1 -57.31 99.1 -171.35 -99.1zm228.67 0l0 66.12 -57.31 32.98 57.31 -99.1zm-1210.75 498.97l1039.4 -598.07 114.04 198.2 -1039.4 598.07 -114.04 0.02 0 -198.21zm114.04 198.2l-57.04 32.81 -57.01 -32.79 114.04 -0.02zm-1039.55 -796.28l1039.55 598.07 -114.04 198.23 -1039.55 -598.07 -57.31 -99.11 171.35 -99.11zm-114.04 198.23l-57.31 -32.98 0 -66.14 57.31 99.11zm171.35 -1301.21l0 1202.1 -228.67 0 0 -1202.1 57.31 -99.11 171.35 99.11zm-228.67 0l0 -66.14 57.31 -32.98 -57.31 99.11zm1210.9 -498.95l-1039.55 598.07 -114.04 -198.23 1039.55 -598.07 114.04 0.02 0 198.21zm-114.04 -198.23l57.01 -32.79 57.04 32.81 -114.04 -0.02z"/>
   </g>
   <polygon class="fil0 str0" points="5249.35,7874.1 6282.78,8472.18 6282.78,9674.26 5249.35,10272.33 4209.8,9674.26 4209.8,8472.18 "/>
   <g>
    <path class="fil2" d="M6226.49 8569.98l-1033.6 -598.07 114.53 -197.92 1033.6 598.07 57.07 98.96 -171.6 98.96zm114.53 -197.92l57.07 33.02 0 65.94 -57.07 -98.96zm-171.6 1301.06l0 -1202.1 228.67 0 0 1202.1 -57.07 98.96 -171.6 -98.96zm228.67 0l0 65.94 -57.07 33.02 57.07 -98.96zm-1205.2 499.11l1033.6 -598.07 114.53 197.92 -1033.6 598.07 -114.29 0.14 -0.25 -198.06zm114.53 197.92l-57.1 33.04 -57.19 -32.9 114.29 -0.14zm-1039.63 -796.12l1039.38 598.07 -114.04 198.2 -1039.38 -598.07 -57.31 -99.1 171.35 -99.1zm-114.04 198.2l-57.31 -32.98 0 -66.12 57.31 99.1zm171.35 -1301.19l0 1202.1 -228.67 0 0 -1202.1 57.31 -99.1 171.35 99.1zm-228.67 0l0 -66.12 57.31 -32.98 -57.31 99.1zm1210.74 -498.97l-1039.38 598.07 -114.04 -198.2 1039.38 -598.07 114.29 0.14 -0.25 198.06zm-114.04 -198.2l57.19 -32.9 57.1 33.04 -114.29 -0.14z"/>
   </g>
   <path class="fil0 str0" d="M11003.67 8147.09l-568.98 325.09 -1039.21 -598.08 0 -1196.13 522.33 -301.94c516.88,470.26 900,1085.86 1085.86,1771.06z"/>
   <g>
    <path class="fil2" d="M10378.96 8371.73l568.96 -325.08 113.46 198.57 -568.96 325.08 -113.75 -0.18 0.29 -198.38zm113.46 198.57l-56.91 32.52 -56.84 -32.7 113.75 0.18zm-1039.09 -796.45l1039.38 598.07 -114.04 198.2 -1039.38 -598.07 -57.31 -99.1 171.35 -99.1zm-114.04 198.2l-57.31 -32.98 0 -66.12 57.31 99.1zm171.35 -1295.23l0 1196.13 -228.67 0 0 -1196.13 57.13 -98.99 171.54 98.99zm-228.67 0l0 -65.98 57.13 -33.01 -57.13 98.99zm694.04 -202.95l-522.5 301.94 -114.41 -197.98 522.5 -301.94 134.15 14.42 -19.74 183.56zm-114.41 -197.98l72.35 -41.8 61.8 56.22 -134.15 -14.42zm1199.77 1969.33l-113.46 -198.57 -53.62 129.22 -17.43 -62.02 -18.54 -61.62 -19.63 -61.19 -20.74 -60.76 -21.8 -60.33 -22.86 -59.85 -23.92 -59.37 -24.97 -58.93 -26.01 -58.39 -27 -57.9 -28.04 -57.36 -29.01 -56.82 -30.01 -56.27 -30.99 -55.7 -31.96 -55.13 -32.88 -54.51 -33.84 -53.9 -34.79 -53.32 -35.68 -52.67 -36.59 -51.98 -37.51 -51.36 -38.36 -50.67 -39.26 -49.96 -40.09 -49.27 -40.97 -48.53 -41.8 -47.84 -42.62 -47.07 -43.45 -46.32 -44.25 -45.54 -45.03 -44.75 -45.81 -43.95 -46.58 -43.14 153.89 -169.14 49.53 45.87 48.73 46.75 47.89 47.58 47.04 48.43 46.18 49.24 45.32 50.06 44.41 50.83 43.55 51.61 42.65 52.38 41.72 53.13 40.79 53.87 39.85 54.56 38.93 55.3 37.93 55.99 36.97 56.64 35.99 57.34 34.98 57.96 33.96 58.6 32.96 59.23 31.92 59.86 30.85 60.42 29.82 61.02 28.75 61.59 27.64 62.14 26.57 62.68 25.46 63.19 24.34 63.72 23.21 64.2 22.06 64.69 20.92 65.15 19.74 65.61 18.57 66.05 -53.62 129.22zm53.62 -129.22l23.15 85.35 -76.78 43.86 53.62 -129.22z"/>
   </g>
   <polygon class="fil0 str0" points="8361.71,6074.11 9395.48,6677.97 9395.48,7874.1 8361.71,8472.18 7322.5,7874.1 7322.5,6677.97 "/>
   <g>
    <path class="fil2" d="M9338.63 6775.55l-1033.6 -603.86 115.36 -197.46 1033.6 603.86 56.65 98.73 -172.02 98.73zm115.36 -197.46l56.65 33.1 0 65.63 -56.65 -98.73zm-172.02 1294.86l0 -1196.13 228.67 0 0 1196.13 -57.07 98.96 -171.6 -98.96zm228.67 0l0 65.94 -57.07 33.02 57.07 -98.96zm-1205.2 499.11l1033.6 -598.07 114.53 197.92 -1033.6 598.07 -114.29 0.14 -0.25 -198.06zm114.53 197.92l-57.1 33.04 -57.19 -32.9 114.29 -0.14zm-1039.64 -796.12l1039.4 598.07 -114.04 198.2 -1039.4 -598.07 -57.31 -99.1 171.35 -99.1zm-114.04 198.2l-57.31 -32.98 0 -66.12 57.31 99.1zm171.35 -1295.23l0 1196.13 -228.67 0 0 -1196.13 56.9 -98.87 171.77 98.87zm-228.67 0l0 -65.81 56.9 -33.05 -56.9 98.87zm1211.17 -504.99l-1039.4 603.86 -114.87 -197.74 1039.4 -603.86 115.12 0.14 -0.25 197.6zm-114.87 -197.74l57.61 -33.47 57.51 33.61 -115.12 -0.14z"/>
   </g>
   <polygon class="fil0 str0" points="6282.78,6074.11 7322.5,6677.97 7322.5,7874.1 6282.78,8472.18 5249.35,7874.1 5249.35,6677.97 "/>
   <g>
    <path class="fil2" d="M7265.88 6775.69l-1039.55 -603.86 114.87 -197.74 1039.55 603.86 56.9 98.87 -171.77 98.87zm114.87 -197.74l56.9 33.05 0 65.81 -56.9 -98.87zm-171.77 1295l0 -1196.13 228.67 0 0 1196.13 -57.31 99.11 -171.35 -99.11zm228.67 0l0 66.14 -57.31 32.98 57.31 -99.11zm-1210.9 498.95l1039.55 -598.07 114.04 198.23 -1039.55 598.07 -114.29 -0.15 0.25 -198.07zm114.04 198.23l-57.17 32.9 -57.11 -33.05 114.29 0.15zm-1033.35 -796.14l1033.6 598.07 -114.53 197.92 -1033.6 -598.07 -57.07 -98.96 171.6 -98.96zm-114.53 197.92l-57.07 -33.02 0 -65.94 57.07 98.96zm171.6 -1295.09l0 1196.13 -228.67 0 0 -1196.13 56.65 -98.73 172.02 98.73zm-228.67 0l0 -65.63 56.65 -33.1 -56.65 98.73zm1205.62 -505.13l-1033.6 603.86 -115.36 -197.46 1033.6 -603.86 115.12 -0.14 0.25 197.6zm-115.36 -197.46l57.51 -33.61 57.61 33.47 -115.12 0.14z"/>
   </g>
   <path class="fil0 str0" d="M9917.81 6376.03l-522.33 301.94 -1033.77 -603.86 0 -551.61c586.66,162.55 1114.79,458.69 1556.1,853.53z"/>
   <g>
    <path class="fil2" d="M9339.1 6577.83l522.5 -301.94 114.41 197.98 -522.5 301.94 -114.89 -0.26 0.48 -197.72zm114.41 197.98l-57.53 33.25 -57.36 -33.51 114.89 0.26zm-1033.12 -801.58l1033.6 603.86 -115.36 197.46 -1033.6 -603.86 -56.65 -98.73 172.02 -98.73zm-115.36 197.46l-56.65 -33.1 0 -65.63 56.65 98.73zm172.02 -650.34l0 551.61 -228.67 0 0 -551.61 144.87 -110.18 83.8 110.18zm-228.67 0l0 -150.32 144.87 40.14 -144.87 110.18zm1727.64 952.52l-114.41 -197.98 -19.03 184.21 -40.45 -35.68 -40.91 -35.1 -41.4 -34.53 -41.89 -33.95 -42.37 -33.36 -42.83 -32.78 -43.26 -32.16 -43.75 -31.56 -44.17 -30.93 -44.65 -30.32 -45.09 -29.72 -45.51 -29.06 -45.95 -28.44 -46.37 -27.78 -46.8 -27.15 -47.21 -26.47 -47.61 -25.81 -48.03 -25.17 -48.43 -24.47 -48.81 -23.8 -49.21 -23.11 -49.61 -22.43 -49.98 -21.72 -50.33 -21.02 -50.75 -20.29 -51.09 -19.6 -51.44 -18.86 -51.81 -18.16 -52.15 -17.39 -52.52 -16.67 -52.85 -15.91 -53.18 -15.17 61.06 -220.37 56.44 16.1 56.08 16.9 55.71 17.68 55.38 18.46 54.98 19.26 54.61 20 54.22 20.8 53.82 21.55 53.44 22.31 53.02 23.05 52.62 23.78 52.22 24.52 51.79 25.24 51.38 25.98 50.95 26.67 50.5 27.38 50.07 28.1 49.63 28.78 49.16 29.47 48.72 30.13 48.27 30.84 47.77 31.47 47.32 32.13 46.84 32.81 46.37 33.44 45.87 34.1 45.35 34.71 44.86 35.33 44.38 35.97 43.86 36.56 43.34 37.19 42.82 37.77 -19.03 184.21zm19.03 -184.21l117.62 105.23 -136.66 78.97 19.03 -184.21z"/>
   </g>
   <polygon class="fil0 str0" points="8361.71,9674.26 9395.48,10272.33 9395.48,11468.48 8361.71,12066.54 7322.5,11468.48 7322.5,10272.33 "/>
   <g>
    <path class="fil2" d="M9339.04 10370.14l-1033.6 -598.07 114.53 -197.92 1033.6 598.07 57.07 98.96 -171.6 98.96zm114.53 -197.92l57.07 33.02 0 65.94 -57.07 -98.96zm-171.6 1295.11l0 -1196.15 228.67 0 0 1196.15 -57.07 98.96 -171.6 -98.96zm228.67 0l0 65.94 -57.07 33.02 57.07 -98.96zm-1205.2 499.11l1033.6 -598.07 114.53 197.92 -1033.6 598.07 -114.29 0.14 -0.25 -198.06zm114.53 197.92l-57.1 33.04 -57.19 -32.9 114.29 -0.14zm-1039.64 -796.12l1039.4 598.07 -114.04 198.2 -1039.4 -598.07 -57.31 -99.1 171.35 -99.1zm-114.04 198.2l-57.31 -32.98 0 -66.12 57.31 99.1zm171.35 -1295.24l0 1196.15 -228.67 0 0 -1196.15 57.31 -99.1 171.35 99.1zm-228.67 0l0 -66.12 57.31 -32.98 -57.31 99.1zm1210.75 -498.97l-1039.4 598.07 -114.04 -198.2 1039.4 -598.07 114.29 0.14 -0.25 198.06zm-114.04 -198.2l57.19 -32.9 57.1 33.04 -114.29 -0.14z"/>
   </g>
   <polygon class="fil0 str0" points="6282.78,9674.26 7322.5,10272.33 7322.5,11468.48 6282.78,12066.54 5249.35,11468.48 5249.35,10272.33 "/>
   <g>
    <path class="fil2" d="M7266.29 10370.29l-1039.55 -598.07 114.04 -198.23 1039.55 598.07 57.31 99.11 -171.35 99.11zm114.04 -198.23l57.31 32.98 0 66.14 -57.31 -99.11zm-171.35 1295.26l0 -1196.15 228.67 0 0 1196.15 -57.31 99.11 -171.35 -99.11zm228.67 0l0 66.14 -57.31 32.98 57.31 -99.11zm-1210.9 498.95l1039.55 -598.07 114.04 198.23 -1039.55 598.07 -114.29 -0.15 0.25 -198.07zm114.04 198.23l-57.17 32.9 -57.11 -33.05 114.29 0.15zm-1033.35 -796.14l1033.6 598.07 -114.53 197.92 -1033.6 -598.07 -57.07 -98.96 171.6 -98.96zm-114.53 197.92l-57.07 -33.02 0 -65.94 57.07 98.96zm171.6 -1295.11l0 1196.15 -228.67 0 0 -1196.15 57.07 -98.96 171.6 98.96zm-228.67 0l0 -65.94 57.07 -33.02 -57.07 98.96zm1205.2 -499.11l-1033.6 598.07 -114.53 -197.92 1033.6 -598.07 114.29 -0.15 0.25 198.07zm-114.53 -197.92l57.11 -33.05 57.17 32.9 -114.29 0.15z"/>
   </g>
   <path class="fil0 str0" d="M3640.82 8147.09l568.98 325.09 0 1202.08 -568.98 325.08c-75.39,-296.14 -122.02,-609.64 -122.02,-928.94 0,-319.45 46.63,-627.17 122.02,-923.31z"/>
   <g>
    <path class="fil2" d="M4154.05 8570.3l-568.96 -325.08 113.46 -198.57 568.96 325.08 57.61 99.28 -171.06 99.28zm113.46 -198.57l57.61 32.91 0 66.37 -57.61 -99.28zm-171.06 1301.38l0 -1202.1 228.67 0 0 1202.1 -57.61 99.28 -171.06 -99.28zm228.67 0l0 66.37 -57.61 32.91 57.61 -99.28zm-740.03 225.79l568.96 -325.08 113.46 198.57 -568.96 325.08 -167.51 -71.01 54.05 -127.56zm113.46 198.57l-130.38 74.5 -37.13 -145.51 167.51 71.01zm-293.1 -1028.22l228.67 0 0 0 0.14 28.89 0.38 28.86 0.66 28.84 0.89 28.78 1.15 28.76 1.4 28.73 1.64 28.69 1.89 28.66 2.12 28.61 2.37 28.56 2.61 28.52 2.83 28.49 3.06 28.44 3.27 28.38 3.49 28.3 3.74 28.27 3.94 28.23 4.15 28.15 4.35 28.09 4.57 27.98 4.78 27.96 4.97 27.9 5.17 27.83 5.37 27.72 5.57 27.67 5.73 27.6 5.93 27.5 6.12 27.44 6.27 27.33 6.47 27.23 6.66 27.2 6.8 27.06 -221.56 56.54 -7.19 -28.56 -7 -28.64 -6.84 -28.79 -6.64 -28.87 -6.46 -28.95 -6.27 -29.1 -6.07 -29.16 -5.87 -29.24 -5.67 -29.38 -5.47 -29.46 -5.27 -29.53 -5.06 -29.63 -4.84 -29.73 -4.63 -29.81 -4.4 -29.87 -4.18 -29.95 -3.95 -30.06 -3.74 -30.12 -3.49 -30.19 -3.24 -30.26 -3.01 -30.3 -2.77 -30.39 -2.52 -30.47 -2.28 -30.55 -2.01 -30.56 -1.77 -30.66 -1.49 -30.7 -1.25 -30.76 -0.95 -30.81 -0.69 -30.84 -0.42 -30.92 -0.14 -30.95 0 0zm293.1 -1022.59l-113.46 198.57 167.51 -71.01 -6.81 27.07 -6.66 27.18 -6.47 27.18 -6.29 27.24 -6.12 27.33 -5.93 27.35 -5.73 27.43 -5.57 27.49 -5.37 27.52 -5.17 27.6 -4.97 27.67 -4.78 27.7 -4.57 27.73 -4.35 27.83 -4.14 27.89 -3.94 27.93 -3.74 28 -3.49 28.04 -3.27 28.1 -3.06 28.16 -2.83 28.24 -2.6 28.29 -2.37 28.33 -2.12 28.4 -1.89 28.46 -1.64 28.5 -1.4 28.59 -1.15 28.63 -0.89 28.69 -0.66 28.76 -0.38 28.81 -0.14 28.89 -228.67 0 0.14 -30.95 0.42 -30.87 0.69 -30.79 0.95 -30.72 1.25 -30.66 1.49 -30.56 1.77 -30.5 2.01 -30.39 2.28 -30.33 2.52 -30.27 2.78 -30.16 3.01 -30.09 3.24 -30.01 3.49 -29.95 3.74 -29.89 3.95 -29.78 4.18 -29.69 4.41 -29.61 4.63 -29.55 4.84 -29.49 5.06 -29.39 5.27 -29.27 5.47 -29.23 5.67 -29.15 5.87 -29.06 6.07 -28.99 6.27 -28.92 6.46 -28.81 6.63 -28.75 6.84 -28.69 7 -28.56 7.18 -28.52 167.51 -71.01zm-167.51 71.01l37.13 -145.51 130.38 74.5 -167.51 71.01z"/>
   </g>
   <path class="fil0 str0" d="M4726.67 6376.03l522.67 301.94 0 1196.13 -1039.55 598.08 -568.98 -325.09c185.85,-685.2 568.98,-1300.79 1085.86,-1771.06z"/>
   <g>
    <path class="fil2" d="M5192.95 6775.81l-522.5 -301.94 114.41 -197.98 522.5 301.94 57.13 98.99 -171.54 98.99zm114.41 -197.98l57.13 33.01 0 65.98 -57.13 -98.99zm-171.54 1295.12l0 -1196.13 228.67 0 0 1196.13 -57.31 99.1 -171.35 -99.1zm228.67 0l0 66.12 -57.31 32.98 57.31 -99.1zm-1210.74 498.97l1039.38 -598.07 114.04 198.2 -1039.38 598.07 -113.75 0.18 -0.29 -198.38zm114.04 198.2l-56.84 32.7 -56.91 -32.52 113.75 -0.18zm-569.26 -523.46l568.96 325.08 -113.46 198.57 -568.96 -325.08 -53.62 -129.22 167.08 -69.35zm-113.46 198.57l-76.78 -43.86 23.15 -85.35 53.62 129.22zm1199.77 -1969.33l-114.41 197.98 134.15 -14.42 -46.58 43.14 -45.81 43.95 -45.03 44.75 -44.25 45.54 -43.45 46.32 -42.62 47.07 -41.8 47.84 -40.97 48.53 -40.09 49.27 -39.26 49.96 -38.36 50.67 -37.51 51.36 -36.59 51.98 -35.68 52.67 -34.79 53.32 -33.84 53.9 -32.88 54.51 -31.96 55.13 -30.99 55.7 -30.01 56.27 -29.01 56.82 -28.04 57.36 -27 57.9 -26.01 58.39 -24.97 58.93 -23.92 59.37 -22.86 59.85 -21.8 60.33 -20.74 60.76 -19.63 61.19 -18.54 61.62 -17.43 62.02 -220.7 -59.86 18.57 -66.05 19.74 -65.61 20.92 -65.15 22.06 -64.69 23.21 -64.2 24.34 -63.72 25.46 -63.19 26.57 -62.68 27.64 -62.14 28.75 -61.59 29.82 -61.02 30.85 -60.42 31.92 -59.86 32.96 -59.23 33.96 -58.6 34.98 -57.96 35.99 -57.34 36.97 -56.64 37.93 -55.99 38.93 -55.3 39.85 -54.56 40.79 -53.87 41.72 -53.13 42.65 -52.38 43.55 -51.61 44.41 -50.83 45.32 -50.06 46.18 -49.24 47.04 -48.43 47.89 -47.58 48.73 -46.75 49.53 -45.87 134.15 -14.42zm-134.15 14.42l61.8 -56.22 72.35 41.8 -134.15 14.42z"/>
   </g>
   <path class="fil0 str0" d="M8361.71 5522.5l0 551.61 -1039.21 603.86 -1039.72 -603.86 0 -551.61c331.03,-92.92 679.58,-139.39 1039.72,-139.39 359.96,0 708.19,46.47 1039.21,139.39z"/>
   <g>
    <path class="fil2" d="M8248.37 6072.96l0 -551.61 228.67 0 0 551.61 -56.9 98.87 -171.77 -98.87zm228.67 0l0 65.81 -56.9 33.05 56.9 -98.87zm-1211.17 504.99l1039.4 -603.86 114.87 197.74 -1039.4 603.86 -114.87 0 0 -197.74zm114.87 197.74l-57.44 33.36 -57.44 -33.36 114.87 0zm-1039.55 -801.6l1039.55 603.86 -114.87 197.74 -1039.55 -603.86 -56.9 -98.87 171.77 -98.87zm-114.87 197.74l-56.9 -33.05 0 -65.81 56.9 98.87zm171.77 -650.47l0 551.61 -228.67 0 0 -551.61 83.43 -110.09 145.23 110.09zm-228.67 0l0 -86.66 83.43 -23.43 -83.43 110.09zm1153.88 -253.73l0 228.67 0 0 -32.82 0.14 -32.7 0.38 -32.65 0.68 -32.61 0.92 -32.48 1.18 -32.42 1.46 -32.35 1.72 -32.28 1.98 -32.19 2.24 -32.1 2.51 -32.01 2.78 -31.96 3.04 -31.87 3.29 -31.75 3.57 -31.69 3.84 -31.61 4.09 -31.53 4.37 -31.44 4.63 -31.33 4.87 -31.22 5.15 -31.19 5.41 -31.04 5.66 -30.96 5.95 -30.89 6.2 -30.78 6.47 -30.69 6.73 -30.61 6.98 -30.49 7.26 -30.39 7.52 -30.32 7.78 -30.18 8.03 -30.1 8.32 -61.8 -220.18 32.07 -8.84 32.21 -8.58 32.25 -8.27 32.36 -8.01 32.48 -7.72 32.55 -7.44 32.65 -7.16 32.78 -6.87 32.82 -6.6 32.96 -6.32 33.04 -6.03 33.07 -5.75 33.22 -5.49 33.3 -5.18 33.38 -4.9 33.44 -4.61 33.55 -4.37 33.62 -4.06 33.71 -3.78 33.78 -3.51 33.87 -3.23 33.95 -2.94 34.04 -2.66 34.07 -2.37 34.16 -2.11 34.22 -1.81 34.33 -1.55 34.39 -1.25 34.42 -0.98 34.53 -0.71 34.61 -0.42 34.64 -0.14 0 0zm1153.73 253.73l-228.67 0 83.43 110.09 -30.1 -8.32 -30.18 -8.03 -30.32 -7.78 -30.39 -7.52 -30.49 -7.26 -30.61 -6.98 -30.69 -6.73 -30.76 -6.47 -30.9 -6.2 -30.95 -5.95 -31.05 -5.66 -31.19 -5.41 -31.24 -5.15 -31.3 -4.87 -31.44 -4.63 -31.53 -4.37 -31.59 -4.09 -31.69 -3.84 -31.75 -3.57 -31.87 -3.29 -31.95 -3.04 -32.01 -2.78 -32.08 -2.51 -32.19 -2.24 -32.27 -1.98 -32.35 -1.72 -32.41 -1.46 -32.47 -1.18 -32.61 -0.92 -32.64 -0.68 -32.68 -0.38 -32.81 -0.14 0 -228.67 34.62 0.14 34.59 0.42 34.51 0.71 34.42 0.98 34.38 1.25 34.31 1.55 34.22 1.81 34.14 2.11 34.07 2.37 34.02 2.66 33.95 2.94 33.85 3.23 33.78 3.51 33.71 3.78 33.62 4.06 33.53 4.37 33.44 4.61 33.38 4.9 33.3 5.18 33.21 5.49 33.07 5.75 33.05 6.03 32.95 6.32 32.84 6.6 32.76 6.87 32.65 7.16 32.55 7.44 32.48 7.72 32.36 8.01 32.25 8.27 32.21 8.58 32.07 8.84 83.43 110.09zm-83.43 -110.09l83.43 23.43 0 86.66 -83.43 -110.09z"/>
   </g>
   <path class="fil0 str0" d="M6282.78 5522.5l0 551.61 -1033.43 603.86 -522.67 -301.94c435.69,-394.84 969.94,-690.98 1556.1,-853.53z"/>
   <g>
    <path class="fil2" d="M6169.43 6072.96l0 -551.61 228.67 0 0 551.61 -56.65 98.73 -172.02 -98.73zm228.67 0l0 65.63 -56.65 33.1 56.65 -98.73zm-1205.62 505.13l1033.6 -603.86 115.36 197.46 -1033.6 603.86 -114.89 0.26 -0.48 -197.72zm115.36 197.46l-57.36 33.51 -57.53 -33.25 114.89 -0.26zm-522.98 -499.66l522.5 301.94 -114.41 197.98 -522.5 -301.94 -19.59 -183.7 134 -14.28zm-114.41 197.98l-135.7 -78.42 116.12 -105.28 19.59 183.7zm1727.64 -952.52l-228.67 0 144.88 110.18 -53.19 15.17 -52.92 15.93 -52.61 16.67 -52.24 17.4 -51.95 18.16 -51.58 18.86 -51.26 19.6 -50.92 20.32 -50.52 21.02 -50.16 21.72 -49.8 22.43 -49.38 23.11 -49 23.8 -48.6 24.49 -48.18 25.15 -47.75 25.81 -47.34 26.47 -46.87 27.13 -46.44 27.78 -45.98 28.41 -45.52 29.06 -45.04 29.69 -44.57 30.29 -44.08 30.92 -43.57 31.52 -43.08 32.13 -42.57 32.73 -42.02 33.3 -41.51 33.9 -40.97 34.47 -40.39 35.02 -39.88 35.61 -153.58 -169.42 42.37 -37.85 42.97 -37.27 43.55 -36.62 44.09 -36.02 44.66 -35.39 45.21 -34.76 45.75 -34.13 46.27 -33.48 46.81 -32.82 47.3 -32.16 47.81 -31.5 48.32 -30.84 48.81 -30.16 49.27 -29.47 49.76 -28.79 50.23 -28.1 50.67 -27.38 51.1 -26.69 51.55 -25.97 51.98 -25.24 52.39 -24.52 52.81 -23.78 53.18 -23.05 53.62 -22.31 53.96 -21.52 54.36 -20.8 54.71 -20 55.08 -19.26 55.44 -18.45 55.78 -17.68 56.08 -16.88 56.42 -16.1 144.88 110.18zm-144.88 -110.18l144.88 -40.16 0 150.34 -144.88 -110.18z"/>
   </g>
   <path class="fil0 str0" d="M10434.69 9674.26l568.98 325.08c-185.85,685.22 -568.98,1295.01 -1085.86,1771.06l-522.33 -301.92 0 -1196.15 1039.21 -598.07z"/>
   <g>
    <path class="fil2" d="M10947.92 10097.47l-568.96 -325.08 113.46 -198.57 568.96 325.08 53.62 129.22 -167.08 69.35zm113.46 -198.57l76.78 43.86 -23.15 85.35 -53.62 -129.22zm-1199.77 1969.35l114.41 -198.01 -134.66 14.9 46.64 -43.69 45.89 -44.46 45.11 -45.18 44.29 -45.91 43.49 -46.64 42.68 -47.32 41.82 -48.04 41.02 -48.72 40.14 -49.4 39.28 -50.04 38.37 -50.7 37.53 -51.35 36.62 -51.96 35.68 -52.59 34.81 -53.22 33.84 -53.79 32.9 -54.38 31.95 -54.99 31.01 -55.53 29.99 -56.08 29.01 -56.65 28.04 -57.19 27 -57.68 26 -58.22 24.95 -58.74 23.92 -59.22 22.85 -59.7 21.8 -60.2 20.72 -60.63 19.65 -61.11 18.53 -61.54 17.43 -61.99 220.7 59.86 -18.57 66.05 -19.76 65.57 -20.91 65.11 -22.08 64.6 -23.21 64.11 -24.35 63.57 -25.46 63.06 -26.58 62.52 -27.66 61.97 -28.75 61.43 -29.82 60.82 -30.85 60.25 -31.93 59.68 -32.95 59.07 -33.98 58.44 -34.96 57.82 -35.99 57.21 -36.96 56.51 -37.93 55.88 -38.9 55.22 -39.83 54.51 -40.77 53.84 -41.71 53.15 -42.6 52.41 -43.51 51.7 -44.4 50.96 -45.26 50.21 -46.14 49.47 -47 48.7 -47.81 47.92 -48.66 47.14 -49.47 46.34 -134.66 14.9zm134.66 -14.9l-61.85 56.96 -72.81 -42.06 134.66 -14.9zm-542.75 -485.04l522.5 301.92 -114.41 198.01 -522.5 -301.92 -57.13 -99.01 171.54 -99.01zm-114.41 198.01l-57.13 -33.01 0 -66 57.13 99.01zm171.54 -1295.15l0 1196.15 -228.67 0 0 -1196.15 57.31 -99.1 171.35 99.1zm-228.67 0l0 -66.12 57.31 -32.98 -57.31 99.1zm1210.74 -498.97l-1039.38 598.07 -114.04 -198.2 1039.38 -598.07 113.75 -0.18 0.29 198.38zm-114.04 -198.2l56.84 -32.7 56.91 32.52 -113.75 0.18z"/>
   </g>
   <path class="fil0 str0" d="M4209.8 9674.26l1039.55 598.07 0 1196.15 -522.67 301.92c-516.88,-476.04 -900,-1085.84 -1085.86,-1771.06l568.98 -325.08z"/>
   <g>
    <path class="fil2" d="M5193.14 10370.27l-1039.38 -598.07 114.04 -198.2 1039.38 598.07 57.31 99.1 -171.35 99.1zm114.04 -198.2l57.31 32.98 0 66.12 -57.31 -99.1zm-171.35 1295.24l0 -1196.15 228.67 0 0 1196.15 -57.13 99.01 -171.54 -99.01zm228.67 0l0 66 -57.13 33.01 57.13 -99.01zm-694.04 202.92l522.5 -301.92 114.41 198.01 -522.5 301.92 -134.66 -14.9 20.25 -183.12zm114.41 198.01l-72.81 42.06 -61.85 -56.96 134.66 14.9zm-1199.77 -1969.35l113.46 198.57 53.62 -129.22 17.43 61.99 18.53 61.54 19.65 61.11 20.72 60.63 21.8 60.2 22.85 59.7 23.92 59.22 24.95 58.74 26 58.22 27 57.68 28.04 57.19 29.01 56.65 29.99 56.08 31.01 55.53 31.95 54.99 32.9 54.38 33.84 53.79 34.81 53.22 35.68 52.59 36.62 51.96 37.53 51.35 38.37 50.7 39.28 50.04 40.14 49.4 41.02 48.72 41.82 48.04 42.68 47.32 43.49 46.64 44.29 45.91 45.11 45.18 45.89 44.46 46.64 43.69 -154.9 168.22 -49.47 -46.34 -48.66 -47.14 -47.81 -47.92 -47 -48.7 -46.14 -49.47 -45.26 -50.21 -44.4 -50.96 -43.51 -51.7 -42.6 -52.41 -41.71 -53.15 -40.77 -53.84 -39.83 -54.51 -38.9 -55.22 -37.93 -55.88 -36.96 -56.51 -35.99 -57.21 -34.96 -57.82 -33.98 -58.44 -32.95 -59.07 -31.93 -59.68 -30.85 -60.25 -29.82 -60.82 -28.75 -61.43 -27.66 -61.97 -26.58 -62.52 -25.46 -63.06 -24.35 -63.57 -23.21 -64.11 -22.08 -64.6 -20.91 -65.11 -19.76 -65.57 -18.57 -66.05 53.62 -129.22zm-53.62 129.22l-23.15 -85.35 76.78 -43.86 -53.62 129.22zm736.04 -255.73l-568.96 325.08 -113.46 -198.57 568.96 -325.08 113.75 0.18 -0.29 198.38zm-113.46 -198.57l56.91 -32.52 56.84 32.7 -113.75 -0.18z"/>
   </g>
   <path class="fil0 str0" d="M9395.48 11468.48l522.33 301.92c-441.32,394.86 -969.45,691 -1556.1,853.7l0 -557.56 1033.77 -598.07z"/>
   <g>
    <path class="fil2" d="M9861.61 11868.25l-522.5 -301.92 114.41 -198.01 522.5 301.92 19.03 184.22 -133.44 13.79zm114.41 -198.01l136.67 78.97 -117.64 105.25 -19.03 -184.22zm-1727.64 952.7l228.67 0 -144.9 -110.18 53.19 -15.19 52.85 -15.91 52.49 -16.68 52.16 -17.42 51.81 -18.16 51.46 -18.88 51.1 -19.62 50.73 -20.29 50.32 -21.03 50 -21.74 49.61 -22.41 49.21 -23.14 48.83 -23.8 48.43 -24.47 48.01 -25.15 47.61 -25.83 47.23 -26.49 46.8 -27.15 46.37 -27.78 45.95 -28.44 45.51 -29.06 45.08 -29.7 44.65 -30.33 44.18 -30.95 43.75 -31.56 43.26 -32.16 42.83 -32.78 42.37 -33.36 41.89 -33.95 41.4 -34.53 40.91 -35.1 40.45 -35.68 152.48 170.43 -42.82 37.77 -43.34 37.19 -43.86 36.56 -44.38 35.97 -44.86 35.33 -45.35 34.71 -45.87 34.1 -46.37 33.44 -46.83 32.79 -47.32 32.15 -47.78 31.49 -48.27 30.84 -48.72 30.13 -49.16 29.47 -49.63 28.78 -50.06 28.09 -50.5 27.4 -50.96 26.69 -51.38 25.98 -51.78 25.24 -52.22 24.52 -52.62 23.8 -53.01 23.06 -53.45 22.32 -53.84 21.55 -54.21 20.79 -54.59 20.05 -54.98 19.26 -55.36 18.49 -55.74 17.7 -56.08 16.9 -56.42 16.11 -144.9 -110.18zm144.9 110.18l-144.9 40.2 0 -150.38 144.9 110.18zm83.77 -667.74l0 557.56 -228.67 0 0 -557.56 57.07 -98.96 171.6 98.96zm-228.67 0l0 -65.94 57.07 -33.02 -57.07 98.96zm1205.2 -499.11l-1033.6 598.07 -114.53 -197.92 1033.6 -598.07 114.47 -0.05 0.06 197.97zm-114.53 -197.92l57.24 -33.11 57.24 33.07 -114.47 0.05z"/>
   </g>
   <path class="fil0 str0" d="M7322.5 11468.48l1039.21 598.07 0 557.56c-331.03,92.93 -679.25,139.39 -1039.21,139.39 -360.14,0 -708.69,-46.46 -1039.72,-139.39l0 -557.56 1039.72 -598.07z"/>
   <g>
    <path class="fil2" d="M8305.69 12164.49l-1039.4 -598.07 114.04 -198.2 1039.4 598.07 57.31 99.1 -171.35 99.1zm114.04 -198.2l57.31 32.98 0 66.12 -57.31 -99.1zm-171.35 656.65l0 -557.56 228.67 0 0 557.56 -83.43 110.09 -145.23 -110.09zm228.67 0l0 86.68 -83.43 23.41 83.43 -110.09zm-1153.73 253.73l0 -228.67 0 0 32.81 -0.14 32.68 -0.38 32.64 -0.68 32.61 -0.92 32.47 -1.18 32.41 -1.46 32.35 -1.72 32.27 -1.98 32.16 -2.24 32.08 -2.52 32.07 -2.78 31.92 -3.03 31.85 -3.31 31.79 -3.57 31.67 -3.83 31.58 -4.09 31.53 -4.37 31.41 -4.61 31.33 -4.9 31.27 -5.13 31.13 -5.41 31.09 -5.67 30.98 -5.93 30.87 -6.2 30.76 -6.47 30.69 -6.73 30.61 -6.98 30.49 -7.26 30.39 -7.52 30.32 -7.78 30.18 -8.03 30.1 -8.32 61.8 220.18 -32.07 8.84 -32.21 8.58 -32.25 8.27 -32.36 8.01 -32.48 7.72 -32.55 7.44 -32.65 7.16 -32.76 6.87 -32.87 6.6 -32.91 6.3 -33.02 6.04 -33.13 5.75 -33.18 5.47 -33.27 5.18 -33.41 4.92 -33.44 4.61 -33.55 4.37 -33.64 4.04 -33.67 3.78 -33.79 3.52 -33.88 3.21 -33.88 2.94 -34.02 2.68 -34.1 2.37 -34.14 2.11 -34.22 1.81 -34.31 1.55 -34.38 1.25 -34.42 0.98 -34.51 0.71 -34.59 0.42 -34.62 0.14 0 0zm-1153.88 -253.73l228.67 0 -83.43 -110.09 30.1 8.32 30.18 8.03 30.32 7.78 30.39 7.52 30.49 7.26 30.61 6.98 30.69 6.73 30.78 6.47 30.85 6.2 30.99 5.93 31.07 5.67 31.13 5.41 31.25 5.13 31.35 4.9 31.42 4.61 31.53 4.37 31.59 4.09 31.67 3.83 31.79 3.57 31.85 3.31 31.93 3.03 32.05 2.78 32.1 2.52 32.18 2.24 32.28 1.98 32.35 1.72 32.42 1.46 32.48 1.18 32.61 0.92 32.65 0.68 32.7 0.38 32.82 0.14 0 228.67 -34.64 -0.14 -34.61 -0.42 -34.53 -0.71 -34.42 -0.98 -34.39 -1.25 -34.33 -1.55 -34.22 -1.81 -34.16 -2.11 -34.08 -2.37 -34.04 -2.68 -33.9 -2.94 -33.9 -3.21 -33.79 -3.52 -33.67 -3.78 -33.64 -4.04 -33.56 -4.37 -33.44 -4.61 -33.39 -4.92 -33.28 -5.18 -33.19 -5.47 -33.13 -5.75 -33.01 -6.04 -32.93 -6.3 -32.85 -6.6 -32.78 -6.87 -32.65 -7.16 -32.55 -7.44 -32.48 -7.72 -32.36 -8.01 -32.25 -8.27 -32.21 -8.58 -32.07 -8.84 -83.43 -110.09zm83.43 110.09l-83.43 -23.41 0 -86.68 83.43 110.09zm145.23 -667.65l0 557.56 -228.67 0 0 -557.56 57.31 -99.11 171.35 99.11zm-228.67 0l0 -66.14 57.31 -32.98 -57.31 99.11zm1210.9 -498.95l-1039.55 598.07 -114.04 -198.23 1039.55 -598.07 114.04 0.02 0 198.21zm-114.04 -198.23l57.01 -32.79 57.04 32.81 -114.04 -0.02z"/>
   </g>
   <path class="fil0 str0" d="M5249.35 11468.48l1033.43 598.07 0 557.56c-586.17,-162.7 -1120.42,-458.84 -1556.1,-853.7l522.67 -301.92z"/>
   <g>
    <path class="fil2" d="M6226.49 12164.35l-1033.6 -598.07 114.53 -197.92 1033.6 598.07 57.07 98.96 -171.6 98.96zm114.53 -197.92l57.07 33.02 0 65.94 -57.07 -98.96zm-171.6 656.52l0 -557.56 228.67 0 0 557.56 -144.91 110.18 -83.76 -110.18zm228.67 0l0 150.4 -144.91 -40.22 144.91 -110.18zm-1727.64 -952.7l114.41 198.01 19.59 -183.72 39.88 35.61 40.39 35.02 40.97 34.47 41.51 33.9 42.02 33.3 42.57 32.73 43.08 32.13 43.57 31.52 44.08 30.92 44.57 30.32 45.04 29.67 45.52 29.06 45.98 28.41 46.44 27.78 46.87 27.13 47.34 26.47 47.77 25.83 48.17 25.15 48.6 24.49 49.01 23.8 49.38 23.12 49.8 22.43 50.16 21.75 50.52 21.03 50.9 20.31 51.27 19.62 51.59 18.89 51.95 18.16 52.26 17.42 52.58 16.68 52.92 15.93 53.21 15.19 -61.16 220.37 -56.41 -16.11 -56.08 -16.88 -55.81 -17.7 -55.42 -18.49 -55.08 -19.26 -54.7 -20.03 -54.35 -20.79 -53.98 -21.54 -53.62 -22.32 -53.18 -23.05 -52.81 -23.78 -52.39 -24.54 -51.96 -25.24 -51.55 -25.97 -51.12 -26.69 -50.66 -27.4 -50.23 -28.1 -49.76 -28.79 -49.27 -29.47 -48.81 -30.16 -48.32 -30.84 -47.81 -31.52 -47.3 -32.16 -46.81 -32.82 -46.27 -33.48 -45.75 -34.13 -45.21 -34.76 -44.66 -35.39 -44.09 -36.02 -43.55 -36.62 -42.97 -37.27 -42.37 -37.85 19.59 -183.72zm-19.59 183.72l-116.13 -105.29 135.72 -78.42 -19.59 183.72zm656.5 -287.63l-522.5 301.92 -114.41 -198.01 522.5 -301.92 114.47 0.05 -0.06 197.97zm-114.41 -198.01l57.24 -33.07 57.24 33.11 -114.47 -0.05z"/>
   </g>
   <path class="fil0" d="M3120.96 1823.47l0 -5.46c0,-96.22 -398.32,-103.17 -458.67,-103.17l-355.5 0c-208.84,0 -342.11,25.31 -400.48,75.07 -58.7,50.43 -87.97,156.26 -87.97,318.3l0 277.46c0,144.34 33.08,242.73 99.38,296.3 65.98,53.58 196.94,80.53 391.55,80.53l353.02 0c175.27,0 295.65,-16.03 362.11,-47.46 66.31,-31.75 99.21,-86.63 99.21,-164.02 0,-10.92 -1.81,-28.76 -5.29,-53.58 0,-2.8 0,-4.95 0,-6.93l-717.61 0 0 -403.79 1352.07 0 0 655.78c0,187.67 -69.46,321.43 -208.84,400.64 -138.56,79.21 -380.97,118.56 -726.22,118.56l-678.93 0c-208.17,0 -362.11,-11.08 -461.15,-33.41 -99.22,-22.49 -183.55,-60.51 -252.16,-114.09 -80.7,-63.66 -139.07,-141.38 -175.77,-233.97 -36.71,-92.43 -55.07,-209.67 -55.07,-350.7l0 -545c0,-286.06 67.8,-485.79 203.22,-598.9 135.75,-113.1 381.62,-169.82 738.12,-169.82l681.73 0c219.92,0 382.62,9.59 486.96,29.27 104.82,19.68 187.17,53.24 247.02,99.38 58.04,45.14 102.19,104.49 132.12,178.58 2.48,5.63 4.63,11.58 6.78,16.86 29.92,70.27 36.7,101.68 44.97,170.8 0.17,2.64 0.17,5.29 0.34,7.95 1.32,24.31 -1.17,45.97 -1.32,60.34 -0.34,15.88 -1,30.76 -2,44.48l-611.62 0zm1843.82 601.22l767.71 0 -387.91 -707.03 -379.81 707.03zm-425.11 812.7l-665.37 0 1090.48 -1997.27 777.97 0 1070.8 1997.27 -669.68 0 -193.29 -332.52 -1216.3 0 -194.61 332.52zm3073.18 0l-592.95 0 0 -1997.27 900.33 0 712.32 1247.23 724.58 -1247.23 887.58 0 0 1997.27 -590.13 0 0 -1423.17 -825.09 1423.17 -398.16 0 -818.48 -1423.17 0 1423.17zm3934.65 -812.7l767.56 0 -387.75 -707.03 -379.81 707.03zm-425.28 812.7l-665.2 0 1090.48 -1997.27 777.97 0 1070.8 1997.27 -669.66 0 -193.29 -332.52 -1216.32 0 -194.78 332.52z"/>
  </g>
 </g>
</svg>
