<?xml version="1.0" encoding="UTF-8"?>
<!DOCTYPE svg PUBLIC "-//W3C//DTD SVG 1.1//EN" "http://www.w3.org/Graphics/SVG/1.1/DTD/svg11.dtd">
<!-- Creator: CorelDRAW 2020 (64 Bit) -->
<svg xmlns="http://www.w3.org/2000/svg" xml:space="preserve" width="62mm" height="62mm" version="1.1" style="shape-rendering:geometricPrecision; text-rendering:geometricPrecision; image-rendering:optimizeQuality; fill-rule:evenodd; clip-rule:evenodd"
viewBox="0 0 278.83 278.83"
 xmlns:xlink="http://www.w3.org/1999/xlink"
 xmlns:xodm="http://www.corel.com/coreldraw/odm/2003">
 <defs>
  <style type="text/css">
   <![CDATA[
    .fil0 {fill:#FEFEFE}
    .fil1 {fill:#373435}
   ]]>
  </style>
 </defs>
 <g id="Camada_x0020_1">
  <metadata id="CorelCorpID_0Corel-Layer"/>
  <g id="_2348454470096">
   <path class="fil0" d="M233.62 45.21c-24.18,-24.18 -57.46,-39.24 -94.21,-39.24 -36.75,0 -70.03,15.07 -94.21,39.24 -24.18,24.18 -39.24,57.46 -39.24,94.21 0,36.75 15.07,70.03 39.24,94.21 24.18,24.18 57.46,39.24 94.21,39.24 36.75,0 70.03,-15.07 94.21,-39.24 24.18,-24.18 39.24,-57.46 39.24,-94.21 0,-36.75 -15.07,-70.03 -39.24,-94.21z"/>
   <path class="fil1" d="M139.42 0c38.38,0 73.18,15.72 98.44,40.98 25.26,25.26 40.98,60.06 40.98,98.44 0,38.38 -15.72,73.18 -40.98,98.44 -25.26,25.26 -60.06,40.98 -98.44,40.98 -38.38,0 -73.18,-15.72 -98.44,-40.98 -25.26,-25.26 -40.98,-60.06 -40.98,-98.44 0,-38.38 15.72,-73.18 40.98,-98.44 25.26,-25.26 60.06,-40.98 98.44,-40.98zm94.21 45.21c-24.18,-24.18 -57.46,-39.24 -94.21,-39.24 -36.75,0 -70.03,15.07 -94.21,39.24 -24.18,24.18 -39.24,57.46 -39.24,94.21 0,36.75 15.07,70.03 39.24,94.21 24.18,24.18 57.46,39.24 94.21,39.24 36.75,0 70.03,-15.07 94.21,-39.24 24.18,-24.18 39.24,-57.46 39.24,-94.21 0,-36.75 -15.07,-70.03 -39.24,-94.21z"/>
   <path class="fil1" d="M271.79 106.46c2.6,10.62 4.01,21.68 4.01,32.96 0,12.9 -1.84,25.37 -5.2,37.29 -38.92,-12.25 -83.69,-19.19 -131.18,-19.19 -47.48,0 -92.26,6.94 -131.18,19.19 -3.36,-11.93 -5.2,-24.39 -5.2,-37.29 0,-11.27 1.41,-22.33 4.01,-32.96 39.24,-12.36 84.45,-19.51 132.37,-19.51 47.92,0 93.12,7.16 132.37,19.51z"/>
   <path class="fil1" d="M74.04 46.62l11.38 0 0 32.85 9.43 0 0 -47.81 -7.7 0c-0.22,3.58 -2.71,8.35 -11.71,8.35l-1.41 0 0 6.61zm36.86 0.87c0,-6.83 4.34,-8.02 6.72,-8.02 4.88,0 7.26,3.36 7.26,8.78 0,5.64 -3.69,8.02 -6.94,8.02 -3.58,0 -7.05,-1.52 -7.05,-8.78zm-8.46 20.92c0.76,7.59 6.61,12.36 14.74,12.36 8.67,0 17.35,-5.96 17.35,-24.5 0,-6.72 -0.22,-24.61 -16.8,-24.61 -9.32,0 -16.26,5.53 -16.26,17.24 0,8.02 5.31,14.85 14.42,14.85 3.25,0 6.94,-0.76 9.11,-4.01l0.11 0.11c0,10.08 -3.9,13.33 -7.81,13.33 -2.93,0 -4.99,-1.41 -5.53,-4.66l0 -0.11 -9.32 0zm48.57 -9.87c4.45,0 10.73,0.33 10.73,6.83 0,5.31 -3.25,7.81 -7.05,7.81 -6.29,0 -7.05,-5.75 -7.05,-8.35l0.11 0 -9.11 0c0,14.96 12.03,15.94 16.48,15.94 9.65,0 16.37,-6.4 16.37,-15.39 0,-8.13 -5.53,-10.63 -7.26,-11.17l0 -0.11c2.71,-1.19 5.74,-4.23 5.74,-9.11 0,-10.08 -8.46,-13.33 -14.85,-13.33 -10.73,0 -15.72,6.4 -15.72,15.39l8.67 0c0,-1.73 0,-7.81 6.5,-7.81 5.2,0 5.96,4.34 5.96,6.07 0,6.29 -5.2,6.5 -8.02,6.5l-1.52 0 0 6.72zm41.85 -7.48c-4.01,0 -6.07,-3.03 -6.07,-5.85 0,-3.58 2.27,-5.96 6.5,-5.96 3.04,0 5.42,2.28 5.42,5.96 0,3.36 -2.06,5.85 -5.85,5.85zm16.59 14.2c0,-6.18 -2.6,-9.22 -7.16,-11.49 3.79,-2.06 5.53,-5.53 5.53,-9.65 0,-6.61 -5.31,-12.47 -15.18,-12.47 -8.35,0 -14.85,4.99 -14.85,13.12 0,4.44 1.95,7.48 5.75,9.32 -7.26,3.36 -7.26,9.65 -7.26,12.14 0,6.5 4.23,14.53 16.59,14.53 12.68,0 16.59,-9.43 16.59,-15.5zm-9.76 0.43c0,3.25 -1.84,7.48 -6.83,7.48 -4.23,0 -6.83,-3.04 -6.83,-7.59 0,-5.2 3.25,-7.37 6.72,-7.37 5.2,0 6.94,4.12 6.94,7.48z"/>
   <path class="fil0" d="M50.63 139.63l8.24 -1.41c-0.11,7.26 -5.42,9 -7.05,9.21 -4.99,0.98 -10.73,-0.43 -12.58,-9.97 -1.84,-9 2.38,-13.66 7.59,-14.63 5.2,-0.98 8.57,2.93 8.89,4.34l7.37 -1.52c-1.41,-4.77 -7.05,-10.95 -17.78,-8.78 -11.93,2.17 -15.5,12.36 -13.66,22.01 2.38,12.25 11.28,16.8 19.84,15.18 6.4,-1.3 8.46,-4.99 9.97,-7.48l1.52 4.23 4.99 -0.98 -3.69 -18.86 -14.74 2.82 1.08 5.85zm21.03 -8.45c1.73,16.69 14.42,17.45 19.19,16.91 4.66,-0.54 16.91,-3.9 15.18,-20.49 -1.84,-16.8 -14.42,-17.56 -19.19,-17.02 -4.77,0.43 -16.91,3.79 -15.18,20.6zm7.48 -0.76c-1.08,-9.97 4.34,-13.12 8.35,-13.55 4.01,-0.43 9.97,1.52 11.06,11.49 0.98,9.97 -4.34,13.01 -8.46,13.44 -4.01,0.32 -9.97,-1.52 -10.95,-11.38zm40.11 -21.47l-7.59 0.33 1.3 35.78 7.48 -0.22 -1.19 -35.88zm25.48 -11.49l-6.07 0 -5.75 7.26 5.64 0 3.04 -4.12 3.25 4.12 5.64 0 -5.75 -7.26zm-9.65 39.35l13.12 0 2.28 7.37 8.24 0 -12.68 -35.88 -8.56 0 -12.79 35.88 7.91 0 2.49 -7.37zm6.5 -20.38l0.11 0 4.44 14.2 -9.11 0 4.55 -14.2zm44.34 18.32l-0.11 0 -12.9 -25.8 -7.91 -0.33 -1.84 35.67 6.94 0.43 1.41 -25.48 0.11 0 13.23 26.24 7.48 0.43 1.95 -35.77 -7.05 -0.43 -1.3 25.04zm24.28 -22.55l-7.48 -0.87 -3.79 35.67 7.48 0.76 3.79 -35.56zm11.93 30.9l13.12 2.06 1.08 7.7 8.02 1.3 -6.83 -37.4 -8.56 -1.3 -18.32 33.39 7.81 1.19 3.69 -6.94zm9.76 -18.97l2.28 14.74 -9.11 -1.41 6.83 -13.33z"/>
   <path class="fil1" d="M119.14 188.63l-31.76 0 0 43.26 32.85 0 0 -7.59 -23.96 0 0 -11.27 21.03 0 0 -7.59 -21.03 0 0 -9.11 22.88 0 0 -7.7zm16.7 34.47l-9 0 0 8.78 9 0 0 -8.78zm44.99 -20.27c-0.43,-6.4 -5.74,-15.29 -18.65,-15.29 -11.17,0 -19.95,7.7 -19.95,22.77 0,14.96 8.35,22.77 19.84,22.77 10.84,0 16.91,-6.61 18.75,-16.04l-9 0c-1.09,5.31 -4.55,8.13 -9.65,8.13 -7.59,0 -10.73,-6.94 -10.73,-14.74 0,-12.25 6.4,-15.07 10.73,-15.07 7.48,0 8.89,4.88 9.65,7.48l9 0zm15.18 20.27l-9 0 0 8.78 9 0 0 -8.78z"/>
  </g>
 </g>
</svg>
