<?xml version="1.0" encoding="UTF-8"?>
<!DOCTYPE svg PUBLIC "-//W3C//DTD SVG 1.1//EN" "http://www.w3.org/Graphics/SVG/1.1/DTD/svg11.dtd">
<!-- Creator: CorelDRAW 2020 (64 Bit) -->
<svg xmlns="http://www.w3.org/2000/svg" xml:space="preserve" width="200.417mm" height="200.417mm" version="1.1" style="shape-rendering:geometricPrecision; text-rendering:geometricPrecision; image-rendering:optimizeQuality; fill-rule:evenodd; clip-rule:evenodd"
viewBox="0 0 3749.07 3749.07"
 xmlns:xlink="http://www.w3.org/1999/xlink"
 xmlns:xodm="http://www.corel.com/coreldraw/odm/2003">
 <defs>
  <style type="text/css">
   <![CDATA[
    .fil1 {fill:#FEFEFE}
    .fil0 {fill:#373435}
    .fil2 {fill:#ED3237}
    .fil3 {fill:#ED3237;fill-rule:nonzero}
   ]]>
  </style>
 </defs>
 <g id="Camada_x0020_1">
  <metadata id="CorelCorpID_0Corel-Layer"/>
  <g id="guarany-sporting-club-sobral-ce-seeklogo.com.cdr">
   <circle class="fil0" cx="1874.53" cy="1874.53" r="1874.53"/>
   <circle class="fil1" cx="1874.53" cy="1874.53" r="1771.07"/>
   <path class="fil2" d="M1339.8 1082.75c-45.15,-1.51 -103.83,4.52 -161.77,35.37 -57.94,30.85 -115.11,86.53 -148.23,136.94 -33.1,50.41 -42.13,95.56 -34.61,133.94 7.52,38.37 31.6,69.97 57.19,94.05 25.58,24.08 52.67,40.63 77.49,51.91 24.83,11.28 47.41,17.31 43.64,23.32 -3.76,6.02 -33.85,12.04 -60.94,20.32 -27.09,8.27 -51.17,18.81 -65.46,47.4 -14.29,28.59 -18.81,75.24 -7.52,120.38 11.29,45.15 38.38,88.79 72.23,126.41 33.86,37.62 74.49,69.22 113.61,89.53 39.13,20.32 76.75,29.35 130.17,30.11 53.43,0.75 122.65,-6.78 188.11,-35.37 65.46,-28.59 127.16,-78.25 164.78,-121.89 37.62,-43.65 51.17,-81.26 57.94,-120.39 6.77,-39.13 6.77,-79.75 6.77,-112.11 0,-32.35 0,-56.44 -20.31,-71.48 -20.31,-15.05 -60.95,-21.07 -104.59,-20.31 -43.64,0.75 -90.29,8.28 -136.94,18.06 -46.65,9.78 -93.29,21.81 -118.88,36.11 -25.58,14.3 -30.09,30.85 -32.35,88.03 -2.26,57.18 -2.26,155 -3.76,203.91 -1.51,48.91 -4.51,48.91 -6.02,48.91 -1.51,0 -1.51,0 -1.51,0 0,0 0,0 -20.32,-12.79 -20.31,-12.79 -60.94,-38.38 -95.56,-82.02 -34.61,-43.64 -63.2,-105.34 -73.73,-165.53 -10.54,-60.2 -3.01,-118.88 16.55,-176.07 19.56,-57.19 51.16,-112.86 79.75,-151.99 28.59,-39.13 54.18,-61.7 66.97,-72.98 12.79,-11.29 12.79,-11.29 12.79,-11.29 0,0 0,0 0,0 0,0 0,0 3.76,41.38 3.76,41.38 11.29,124.15 15.05,165.53 3.76,41.38 3.76,41.38 3.76,41.38 0,0 0,0 39.12,-9.78 39.13,-9.79 117.38,-29.35 179.08,-49.66 61.7,-20.32 106.84,-41.38 142.96,-55.68 36.12,-14.3 63.2,-21.82 112.11,-22.57 48.91,-0.76 119.64,5.27 173.81,21.07 54.17,15.8 91.8,41.38 110.6,54.17 18.81,12.79 18.81,12.79 18.81,12.79 0,0 0,0 0,0 0,0 0,0 -15.05,2.26 -15.05,2.26 -45.14,6.77 -79.76,27.09 -34.61,20.32 -73.73,56.43 -95.55,89.54 -21.82,33.1 -26.34,63.2 -24.83,97.06 1.51,33.86 9.03,71.48 18.06,105.34 9.03,33.86 19.56,63.95 26.33,82.77 6.77,18.81 9.78,26.34 -5.26,49.66 -15.05,23.32 -48.16,62.45 -111.36,106.09 -63.2,43.64 -156.5,91.79 -257.32,119.63 -100.83,27.84 -209.17,35.37 -311.5,22.58 -102.33,-12.79 -198.64,-45.9 -266.36,-95.56 -67.72,-49.66 -106.84,-115.88 -127.16,-168.55 -20.31,-52.67 -21.81,-91.8 -26.33,-115.12 -4.51,-23.32 -12.04,-30.85 -30.85,-42.13 -18.81,-11.28 -48.9,-26.34 -79,-38.37 -30.1,-12.04 -60.19,-21.07 -74.49,-25.58 -14.3,-4.52 -12.79,-4.52 15.05,-18.81 27.84,-14.3 82.02,-42.89 110.61,-64.71 28.59,-21.82 31.6,-36.87 36.11,-78.25 4.52,-41.38 10.54,-109.1 27.84,-174.56 17.31,-65.46 45.89,-128.67 92.55,-182.84 46.65,-54.17 111.36,-99.32 174.56,-129.41 63.2,-30.1 124.91,-45.15 191.11,-51.17 66.21,-6.02 136.94,-3.01 200.89,5.27 63.96,8.28 121.14,21.82 161.02,33.11 39.88,11.29 62.45,20.31 82.77,15.8 20.32,-4.52 38.38,-22.58 51.17,-42.89 12.79,-20.32 20.31,-42.89 26.33,-52.67 6.02,-9.79 10.54,-6.78 11.28,23.32 0.76,30.1 -2.25,87.28 -24.08,135.43 -21.82,48.16 -62.45,87.29 -114.36,116.63 -51.92,29.34 -115.12,48.9 -170.8,54.92 -55.68,6.02 -103.83,-1.51 -123.39,-6.77 -19.56,-5.27 -10.53,-8.27 3.76,-21.06 14.3,-12.8 33.86,-35.37 38.37,-54.93 4.52,-19.56 -6.02,-36.12 -27.09,-48.91 -21.06,-12.79 -52.67,-21.82 -97.81,-23.32z"/>
   <path class="fil2" d="M2038.71 1154.45c-63.37,-13.78 -137.77,-22.05 -220.43,-12.4 -82.66,9.64 -173.59,37.19 -247.3,82.66 -73.71,45.46 -130.19,108.84 -162.57,170.15 -32.37,61.31 -40.64,120.55 -35.13,170.15 5.51,49.59 24.8,89.55 55.11,125.37 30.31,35.82 71.64,67.51 119.86,94.38 48.22,26.86 103.33,48.9 184.62,65.43 81.29,16.53 188.75,27.56 276.23,47.53 87.49,19.98 154.99,48.91 205.28,91.62 50.29,42.71 83.35,99.19 90.23,147.41 6.89,48.22 -12.39,88.18 -42.7,135.02 -30.31,46.84 -71.64,100.57 -104.02,134.33 -32.37,33.75 -55.8,47.53 -116.42,48.9 -60.62,1.38 -158.43,-9.64 -225.25,-22.04 -66.82,-12.4 -102.64,-26.18 -126.75,-59.93 -24.11,-33.75 -36.51,-87.48 -35.14,-120.55 1.38,-33.06 16.53,-45.46 42.02,-62.68 25.49,-17.22 61.31,-39.26 84.73,-51.67 23.43,-12.4 34.44,-15.15 39.95,-16.53 5.51,-1.37 5.51,-1.37 5.51,-1.37 0,0 0,0 -35.14,-8.27 -35.13,-8.27 -105.39,-24.79 -174.27,-21.35 -68.88,3.44 -136.39,26.87 -185.3,63.37 -48.91,36.51 -79.21,86.11 -98.5,132.26 -19.29,46.15 -27.56,88.87 -19.98,137.77 7.58,48.91 31.01,104.02 48.91,136.39 17.91,32.38 30.31,42.02 36.51,46.84 6.2,4.82 6.2,4.82 6.2,4.82 0,0 0,0 0,-21.36 0,-21.35 0,-64.07 12.4,-98.51 12.4,-34.44 37.2,-60.62 57.17,-72.33 19.98,-11.71 35.13,-8.95 49.6,5.51 14.47,14.47 28.24,40.65 55.11,66.82 26.87,26.18 66.83,52.36 117.8,70.95 50.98,18.6 112.97,29.62 179.79,34.44 66.82,4.82 138.46,3.45 211.48,-22.05 73.02,-25.49 147.42,-75.08 205.97,-121.93 58.55,-46.84 101.26,-90.93 126.75,-132.95 25.49,-42.01 33.75,-81.97 35.13,-124.68 1.38,-42.71 -4.13,-88.17 -26.86,-137.08 -22.73,-48.91 -62.68,-101.26 -114.35,-150.17 -51.66,-48.91 -115.03,-94.38 -179.1,-120.55 -64.07,-26.18 -128.82,-33.07 -200.46,-44.78 -71.64,-11.72 -150.16,-28.24 -205.96,-48.22 -55.8,-19.98 -88.86,-43.4 -111.6,-70.95 -22.73,-27.56 -35.13,-59.25 -36.51,-94.38 -1.37,-35.13 8.27,-73.71 28.93,-111.59 20.67,-37.89 52.36,-75.09 89.55,-106.77 37.2,-31.68 79.91,-57.87 130.19,-70.95 50.29,-13.09 108.15,-13.09 168.08,6.89 59.93,19.98 121.93,59.93 163.25,95.75 41.33,35.82 62,67.51 68.2,100.57 6.2,33.06 -2.06,67.51 -17.91,100.57 -15.84,33.06 -39.27,64.75 -58.55,84.72 -19.28,19.98 -34.44,28.24 -19.29,25.49 15.16,-2.76 60.62,-16.53 107.46,-31.68 46.84,-15.16 95.06,-31.69 137.08,-62 42.02,-30.31 77.84,-74.39 101.94,-121.24 24.11,-46.84 36.52,-96.44 28.94,-147.41 -7.58,-50.98 -35.13,-103.33 -58.55,-136.4 -23.42,-33.07 -42.7,-46.84 -52.35,-53.72 -9.64,-6.89 -9.64,-6.89 -3.44,11.02 6.2,17.91 18.6,53.72 13.78,86.79 -4.82,33.07 -26.87,63.37 -42.71,79.22 -15.84,15.85 -25.49,17.22 -35.13,15.16 -9.64,-2.07 -19.29,-7.58 -39.95,-22.73 -20.66,-15.16 -52.36,-39.96 -94.38,-62 -42.02,-22.05 -94.37,-41.33 -157.75,-55.11z"/>
   <path class="fil2" d="M2401.25 1566.99c-65.05,-3.04 -122.13,-3.59 -169.09,1.99 -46.96,5.58 -83.8,17.3 -120.71,49.15 -36.9,31.85 -73.86,83.83 -101.52,138.74 -27.66,54.9 -46.03,112.73 -57.05,167.27 -11.02,54.53 -14.7,105.77 -16.53,141.72 -1.84,35.95 -1.84,56.62 -9.41,73.84 -7.57,17.22 -22.73,31 -38.58,45.46 -15.84,14.47 -32.37,29.62 -42.71,38.58 -10.33,8.95 -14.47,11.71 -4.82,17.91 9.65,6.2 33.07,15.85 48.22,26.86 15.15,11.02 22.05,23.43 25.49,46.84 3.44,23.42 3.44,57.87 8.26,107.46 4.82,49.6 14.47,114.35 35.14,161.19 20.66,46.84 52.35,75.78 85.41,104.7 33.07,28.93 67.51,57.87 108.15,77.15 40.65,19.29 87.49,28.94 146.04,33.07 58.55,4.14 128.82,2.76 194.95,-8.27 66.13,-11.02 128.13,-31.68 185.99,-63.37 57.87,-31.68 111.6,-74.39 152.92,-123.31 41.33,-48.91 70.27,-104.01 86.11,-156.37 15.85,-52.36 18.6,-101.95 19.98,-136.4 1.38,-34.44 1.38,-53.72 8.95,-66.82 7.58,-13.08 22.74,-19.97 43.4,-25.49 20.66,-5.51 46.84,-9.64 59.24,-12.4 12.4,-2.76 11.02,-4.14 -4.14,-15.16 -15.15,-11.02 -44.08,-31.69 -72.33,-39.27 -28.24,-7.57 -55.8,-2.06 -75.09,9.65 -19.29,11.71 -30.31,29.62 -38.57,39.26 -8.27,9.64 -13.78,11.02 -31.69,5.51 -17.91,-5.51 -48.21,-17.91 -76.46,-22.05 -28.24,-4.13 -54.42,0.01 -81.98,11.02 -27.55,11.02 -56.49,28.94 -77.84,46.84 -21.35,17.91 -35.12,35.82 -37.88,44.09 -2.76,8.27 5.5,6.89 28.24,2.06 22.73,-4.82 59.94,-13.08 89.55,-14.47 29.63,-1.37 51.66,4.14 64.06,12.4 12.4,8.27 15.16,19.29 17.23,47.53 2.07,28.24 3.44,73.71 -8.27,115.73 -11.71,42.02 -36.51,80.59 -71.65,112.28 -35.13,31.69 -80.59,56.49 -128.12,72.33 -47.53,15.85 -97.13,22.73 -152.93,17.22 -55.8,-5.51 -117.79,-23.42 -163.25,-44.78 -45.46,-21.35 -74.4,-46.15 -95.06,-71.64 -20.66,-25.49 -33.07,-51.67 -39.27,-91.62 -6.2,-39.95 -6.2,-93.68 -2.76,-123.99 3.44,-30.3 10.34,-37.2 25.49,-45.46 15.15,-8.26 38.58,-17.91 50.29,-23.42 11.71,-5.51 11.71,-6.89 -4.14,-16.53 -15.84,-9.64 -47.53,-27.56 -65.44,-39.95 -17.91,-12.4 -22.05,-19.29 -22.73,-50.29 -0.69,-31 2.07,-86.1 11.02,-140.52 8.95,-54.42 24.11,-108.15 53.73,-150.86 29.62,-42.71 73.71,-74.4 119.9,-96.32 46.19,-21.93 94.48,-34.1 147.51,-38.93 53.04,-4.82 110.84,-2.29 161.78,20.33 50.94,22.61 95.03,65.33 123.96,97.71 28.94,32.37 42.71,54.41 49.6,81.28 6.89,26.86 6.89,58.55 11.02,79.91 4.14,21.35 12.4,32.37 35.13,44.08 22.73,11.71 59.93,24.11 79.21,30.31 19.29,6.2 20.67,6.2 10.34,-6.89 -10.34,-13.09 -32.37,-39.27 -37.89,-79.91 -5.51,-40.65 5.51,-95.75 16.53,-142.6 11.02,-46.84 22.04,-85.41 20.66,-125.37 -1.37,-39.95 -15.15,-81.29 -35.12,-110.9 -19.98,-29.62 -46.16,-47.53 -70.96,-61.31 -24.79,-13.78 -48.22,-23.43 -58.55,-25.49 -10.33,-2.07 -7.57,3.44 7.58,17.91 15.16,14.47 42.71,37.89 53.04,65.45 10.34,27.55 3.44,59.24 -2.76,77.84 -6.2,18.59 -11.71,24.1 -37.89,5.51 -26.18,-18.6 -73.01,-61.31 -132.95,-85.42 -59.93,-24.11 -132.94,-29.62 -198,-32.66z"/>
   <path class="fil3" d="M416.22 1784.27l-39.15 -2.97 7.63 -100.64 92.44 7.01c8.81,10.49 16.09,25.31 21.96,44.46 5.82,19.1 8,38.2 6.56,57.29 -1.84,24.22 -8.5,44.92 -20.06,62.16 -11.56,17.19 -27.2,29.62 -46.81,37.25 -19.63,7.62 -40.62,10.58 -62.9,8.9 -24.16,-1.83 -45.24,-8.54 -63.3,-20.04 -18,-11.57 -31.33,-27.44 -39.88,-47.67 -6.59,-15.46 -9.01,-34.2 -7.34,-56.32 2.18,-28.74 9.92,-50.77 23.23,-66.04 13.36,-15.21 30.81,-24.35 52.52,-27.37l5.2 47.26c-11.62,2.37 -21.1,7.84 -28.41,16.35 -7.26,8.45 -11.4,19.42 -12.42,32.9 -1.55,20.38 3.69,37.11 15.78,50.12 12.08,13.02 30.88,20.51 56.39,22.45 27.55,2.09 48.68,-2.44 63.35,-13.59 14.68,-11.2 22.79,-26.64 24.29,-46.43 0.74,-9.76 -0.46,-19.73 -3.54,-29.83 -3.08,-10.16 -7.14,-18.93 -12.1,-26.41l-29.39 -2.23 -4.05 53.39zm-127.59 -188.2l10.29 -45.91 122.87 27.52c19.53,4.38 32.27,6.62 38.27,6.81 9.72,0.13 18.25,-2.78 25.48,-8.82 7.28,-6.07 12.32,-15.41 15.16,-28.09 2.88,-12.82 2.41,-23.13 -1.45,-30.86 -3.87,-7.74 -9.48,-13.1 -16.95,-16.16 -7.46,-3.06 -20.13,-6.62 -38.08,-10.63l-125.51 -28.12 10.29 -45.92 119.23 26.72c27.23,6.1 46.23,11.63 56.9,16.63 10.69,5.01 19.17,11.67 25.44,20.06 6.27,8.33 10.41,18.57 12.52,30.69 2.09,12.16 1.17,27.14 -2.83,45.03 -4.84,21.59 -10.99,37.4 -18.5,47.41 -7.5,10.01 -15.97,17.37 -25.45,22.06 -9.47,4.7 -18.76,7.05 -28.04,7.13 -13.66,0.1 -33.2,-2.72 -58.58,-8.41l-121.07 -27.13zm369.62 -367.64l-21.41 45.94 -56.42 -4.16 -39.37 84.47 39.79 39.85 -21.02 45.11 -172.5 -179.92 21 -45.06 249.93 13.78zm-119.86 39.01l-91.59 -7.05 64.7 64.76 26.89 -57.71zm132.94 -60.62l-197.41 -122.54 52.12 -83.96c13.09,-21.09 24.41,-35.33 33.88,-42.68 9.5,-7.42 20.53,-11.13 33.16,-11.25 12.66,-0.1 24.8,3.42 36.47,10.67 14.84,9.21 24.38,21.12 28.64,35.8 4.26,14.68 2.27,31.4 -5.92,50.24 10.34,-5.47 20.24,-9.13 29.72,-10.96 9.5,-1.87 24.88,-2.76 46.11,-2.69l53.46 -0.18 -29.58 47.65 -60.85 1.83c-21.66,0.74 -35.68,1.79 -42.05,3.12 -6.29,1.31 -11.53,3.6 -15.63,6.92 -4.12,3.36 -9.02,9.6 -14.73,18.8l-5.02 8.09 82.43 51.17 -24.82 39.98zm-89.05 -110.66l18.31 -29.5c11.87,-19.12 18.43,-31.54 19.79,-37.31 1.33,-5.74 0.87,-11.24 -1.43,-16.36 -2.27,-5.16 -6.41,-9.57 -12.33,-13.25 -6.67,-4.14 -13.1,-5.65 -19.44,-4.68 -6.29,1 -11.97,4.41 -17.02,10.19 -2.49,2.97 -8.74,12.53 -18.75,28.66l-19.31 31.11 50.18 31.15zm361.53 -237.72l-34.69 36.95 -52.3 -21.58 -63.78 67.94 25.36 50.29 -34.06 36.28 -107.66 -224.81 34.02 -36.23 233.11 91.16zm-126.06 -0.37l-84.8 -35.32 41.23 81.72 43.57 -46.41zm144.98 -16.49l-139.63 -185.72 36.4 -27.37 170 67 -93.58 -124.46 34.76 -26.14 139.63 185.72 -37.56 28.25 -167.05 -65.5 91.79 122.08 -34.76 26.14zm243.34 -166.76l-47.2 -85.64 -139.56 -76.73 48.17 -26.56 92.54 54.05 2.44 -106.39 47.27 -26.06 -9.49 159.25 47.04 85.36 -41.22 22.71zm184.39 -168.43l42.58 -17.35c6.99,13.89 15.46,23.06 25.54,27.58 10.08,4.52 21.93,4.73 35.57,0.69 14.42,-4.27 24.41,-10.55 29.9,-18.84 5.5,-8.29 7.07,-16.53 4.64,-24.73 -1.56,-5.29 -4.44,-9.29 -8.61,-12.11 -4.14,-2.78 -10.5,-4.4 -18.97,-4.82 -5.79,-0.31 -18.67,0 -38.72,0.86 -25.79,1.1 -44.83,-1.28 -57.12,-7.17 -17.28,-8.26 -28.5,-21.23 -33.74,-38.91 -3.36,-11.35 -3.31,-22.99 0.13,-34.78 3.5,-11.81 10.51,-22.06 21.05,-30.83 10.55,-8.77 24.31,-15.65 41.41,-20.72 27.86,-8.25 50.68,-8.3 68.41,-0.06 17.78,8.21 30.02,22.53 36.88,43l-44.66 14.91c-5.32,-10.94 -11.87,-17.98 -19.63,-21.14 -7.77,-3.17 -17.96,-2.93 -30.51,0.79 -12.97,3.84 -22.32,9.55 -28.04,17.1 -3.69,4.87 -4.71,10.2 -2.99,16 1.57,5.29 5.14,9.15 10.7,11.55 7.07,3.16 22.29,4.06 45.66,2.79 23.36,-1.33 41.08,-0.72 53.13,1.7 12.12,2.44 22.54,7.54 31.29,15.38 8.75,7.85 15.21,18.79 19.38,32.85 3.78,12.75 3.8,25.78 -0.01,39.03 -3.8,13.26 -11.35,24.52 -22.72,33.75 -11.35,9.29 -26.74,16.77 -46.08,22.5 -28.16,8.34 -51.71,8.26 -70.65,-0.29 -18.93,-8.49 -33.51,-24.77 -43.82,-48.73zm242.8 15.56l-33.5 -229.92 74.45 -10.85c28.21,-4.11 46.73,-5.66 55.62,-4.61 13.67,1.56 25.79,7.44 36.36,17.71 10.57,10.27 17.18,24.56 19.85,42.86 2.06,14.13 1.22,26.33 -2.47,36.7 -3.73,10.39 -9.1,18.88 -16.16,25.53 -7.08,6.6 -14.57,11.42 -22.45,14.37 -10.76,3.81 -26.6,7.26 -47.58,10.32l-30.19 4.4 12.64 86.7 -46.57 6.78zm18.72 -197.86l9.55 65.51 25.31 -3.69c18.25,-2.66 30.22,-5.66 36.02,-8.97 5.81,-3.31 10.08,-7.76 12.8,-13.45 2.73,-5.65 3.63,-11.84 2.63,-18.69 -1.23,-8.4 -4.69,-14.95 -10.36,-19.7 -5.72,-4.74 -12.37,-7.27 -20.12,-7.56 -5.66,-0.21 -16.82,0.86 -33.52,3.3l-22.32 3.25zm195.73 55.71c1.79,-23.62 6.86,-43.2 15.13,-58.74 6.13,-11.42 14.16,-21.5 23.99,-30.19 9.83,-8.69 20.32,-14.9 31.52,-18.66 14.91,-5 31.81,-6.81 50.69,-5.37 34.19,2.59 60.68,15.28 79.63,38.03 18.88,22.8 26.9,53.07 24.04,90.88 -2.84,37.49 -15.26,66.05 -37.19,85.65 -21.94,19.66 -49.97,28.16 -84,25.58 -34.46,-2.61 -61.12,-15.2 -79.85,-37.83 -18.75,-22.57 -26.74,-52.36 -23.94,-89.36zm48.33 2.09c-1.99,26.26 2.6,46.63 13.7,61.14 11.11,14.45 26.02,22.41 44.68,23.83 18.71,1.42 34.54,-4.16 47.59,-16.68 12.99,-12.58 20.5,-32.3 22.54,-59.21 2.02,-26.59 -2.3,-46.88 -13.02,-60.81 -10.65,-13.99 -25.64,-21.69 -44.99,-23.15 -19.31,-1.46 -35.41,3.99 -48.21,16.31 -12.82,12.37 -20.26,31.87 -22.28,58.57zm204.34 135.01l50.83 -226.72 96.43 21.61c24.22,5.43 41.39,11.43 51.45,17.96 10.13,6.54 17.26,15.73 21.53,27.61 4.26,11.92 4.92,24.54 1.92,37.95 -3.82,17.05 -11.93,29.97 -24.39,38.82 -12.46,8.85 -28.9,12.47 -49.39,10.93 8.57,7.97 15.28,16.12 20.12,24.46 4.89,8.36 10.78,22.59 17.71,42.66l17.74 50.43 -54.72 -12.26 -21.73 -56.86c-7.83,-20.22 -13.42,-33.12 -16.77,-38.68 -3.31,-5.51 -7.19,-9.7 -11.67,-12.48 -4.53,-2.79 -12.04,-5.37 -22.6,-7.73l-9.3 -2.09 -21.22 94.68 -45.92 -10.29zm75.24 -120.49l33.88 7.59c21.96,4.92 35.83,7.04 41.74,6.42 5.86,-0.62 10.9,-2.87 14.98,-6.73 4.12,-3.84 6.93,-9.2 8.46,-16.01 1.71,-7.65 1.03,-14.23 -1.97,-19.89 -3.01,-5.61 -8.11,-9.85 -15.22,-12.72 -3.63,-1.37 -14.71,-4.13 -33.23,-8.29l-35.73 -8 -12.91 57.63zm199.9 199.23l67.65 -180.85 -64.43 -24.1 13.75 -36.77 172.64 64.58 -13.75 36.78 -64.13 -23.99 -67.65 180.85 -44.07 -16.49zm130.9 60.46l109.29 -205.04 41.52 22.13 -109.29 205.05 -41.52 -22.13zm82.31 41.45l133.82 -189.95 37.23 26.23 -11.5 182.37 89.67 -127.3 35.55 25.05 -133.82 189.95 -38.42 -27.07 10.98 -179.1 -87.96 124.87 -35.55 -25.05zm327.87 156.76l28.67 -26.84 68.98 73.67 -67.68 63.35c-13.68,-0.6 -29.52,-5.25 -47.6,-13.88 -18.01,-8.63 -33.55,-19.93 -46.64,-33.91 -16.6,-17.73 -27.34,-36.64 -32.22,-56.81 -4.85,-20.14 -3.43,-40.07 4.22,-59.67 7.65,-19.62 19.67,-37.09 35.98,-52.35 17.69,-16.56 36.88,-27.56 57.57,-33.08 20.69,-5.44 41.4,-4.53 62.09,2.85 15.85,5.61 31.3,16.49 46.45,32.68 19.7,21.04 30.7,41.65 32.94,61.77 2.17,20.13 -2.9,39.16 -15.35,57.2l-38.33 -28.12c6.12,-10.17 8.5,-20.84 7.17,-31.98 -1.32,-11.06 -6.6,-21.53 -15.84,-31.4 -13.97,-14.93 -29.83,-22.38 -47.6,-22.27 -17.75,0.11 -35.99,8.87 -54.67,26.36 -20.17,18.89 -31.12,37.52 -32.83,55.87 -1.67,18.38 4.21,34.8 17.78,49.29 6.69,7.14 14.84,13 24.37,17.57 9.57,4.6 18.77,7.54 27.64,8.94l21.52 -20.14 -36.6 -39.08zm239.26 324.24l9.73 46.52c-25.77,6.25 -48.01,5.24 -66.75,-2.95 -18.68,-8.22 -34.05,-23.21 -46.11,-45.04 -14.92,-27.04 -17.94,-54.34 -9.09,-81.96 8.87,-27.57 29.31,-50.21 61.37,-67.9 33.85,-18.69 65.02,-24.46 93.42,-17.34 28.39,7.13 50.47,24.97 66.2,53.47 13.75,24.91 17.52,49.21 11.37,72.87 -3.59,14.08 -12.28,27.9 -26.05,41.55l-32.09 -35.3c9.18,-8.21 14.75,-17.83 16.64,-28.82 1.88,-11.05 -0.22,-22 -6.23,-32.89 -8.34,-15.1 -20.5,-24.39 -36.52,-27.78 -16,-3.47 -36.1,1.51 -60.35,14.9 -25.66,14.16 -41.43,28.92 -47.23,44.16 -5.82,15.31 -4.62,30.35 3.55,45.17 6.04,10.94 14.7,18.46 25.99,22.48 11.3,4.02 25.32,3.69 42.13,-1.13zm-33.2 117.79l212.62 -88.76 18.13 43.42 -176.39 73.64 44.88 107.51 -36.24 15.13 -63.01 -150.94zm297.35 131.53l10.58 45.85 -122.69 28.32c-19.5,4.5 -31.95,7.99 -37.45,10.42 -8.82,4.09 -15.25,10.4 -19.16,18.96 -3.95,8.63 -4.44,19.23 -1.52,31.88 2.96,12.8 7.83,21.89 14.66,27.2 6.82,5.31 14.21,7.71 22.26,7.24 8.06,-0.47 21.02,-2.74 38.93,-6.88l125.32 -28.93 10.58 45.85 -119.05 27.49c-27.19,6.27 -46.71,9.5 -58.5,9.62 -11.8,0.11 -22.33,-2.22 -31.61,-7.08 -9.27,-4.8 -17.42,-12.24 -24.56,-22.25 -7.15,-10.06 -12.8,-23.96 -16.93,-41.83 -4.98,-21.56 -6.27,-38.47 -3.83,-50.74 2.44,-12.28 6.89,-22.57 13.4,-30.9 6.51,-8.33 13.87,-14.47 22.2,-18.56 12.27,-5.99 31.11,-11.9 56.46,-17.75l120.9 -27.91zm51.36 264.47l7.02 92.66c1.39,18.39 1.67,32.09 0.84,41.21 -0.88,9.18 -3.45,17.46 -7.71,24.94 -4.32,7.49 -10.28,13.91 -17.96,19.26 -7.68,5.35 -16.56,8.41 -26.54,9.17 -10.78,0.81 -20.98,-1.34 -30.43,-6.48 -9.5,-5.14 -16.84,-12.56 -22.13,-22.2 -3.09,14.39 -9.28,25.71 -18.63,34.07 -9.35,8.3 -20.71,12.96 -34.14,13.97 -10.57,0.81 -21,-0.85 -31.35,-5 -10.35,-4.15 -18.84,-10.23 -25.47,-18.31 -6.57,-8.02 -11.03,-18.2 -13.38,-30.55 -1.39,-7.7 -3.36,-26.48 -5.84,-56.29l-5.97 -78.91 231.69 -17.54zm-34.95 49.84l-53.39 4.05 2.32 30.64c1.37,18.17 2.5,29.47 3.38,33.85 1.52,7.91 4.75,14.02 9.68,18.25 4.92,4.24 11.09,6.05 18.53,5.49 7.17,-0.54 12.79,-2.97 16.97,-7.25 4.17,-4.28 6.42,-10.36 6.75,-18.2 0.19,-4.68 -0.55,-18.02 -2.21,-39.97l-2.04 -26.86zm-91.89 6.96l-62.13 4.7 3.28 43.36c1.28,16.83 2.58,27.53 3.84,31.99 1.82,6.85 5.32,12.28 10.56,16.28 5.29,4 11.99,5.71 20.24,5.09 7.02,-0.53 12.77,-2.64 17.36,-6.41 4.6,-3.71 7.79,-8.89 9.51,-15.42 1.73,-6.52 1.82,-20.48 0.21,-41.78l-2.86 -37.81z"/>
   <path class="fil3" d="M751.43 3124.87l35.92 -3.57c2.17,12.02 6.5,20.81 13.08,26.45 6.58,5.65 15.46,8.45 26.62,8.45 11.81,0 20.72,-2.5 26.71,-7.52 5.99,-5.01 9,-10.87 9,-17.58 0,-4.33 -1.27,-7.98 -3.78,-11.04 -2.51,-3.02 -6.92,-5.65 -13.21,-7.86 -4.29,-1.53 -14.06,-4.16 -29.34,-7.98 -19.66,-4.93 -33.46,-10.96 -41.4,-18.13 -11.17,-10.06 -16.73,-22.34 -16.73,-36.82 0,-9.3 2.63,-18.05 7.86,-26.16 5.27,-8.11 12.82,-14.27 22.72,-18.51 9.89,-4.25 21.78,-6.37 35.8,-6.37 22.8,0 40,5.05 51.51,15.2 11.55,10.15 17.58,23.65 18.18,40.6l-36.94 1.27c-1.57,-9.43 -4.93,-16.18 -10.06,-20.3 -5.14,-4.12 -12.87,-6.2 -23.14,-6.2 -10.61,0 -18.94,2.21 -24.92,6.62 -3.86,2.85 -5.82,6.62 -5.82,11.38 0,4.33 1.83,8.03 5.48,11.08 4.63,3.95 15.88,8.03 33.76,12.27 17.88,4.21 31.08,8.62 39.62,13.12 8.58,4.54 15.29,10.7 20.13,18.56 4.84,7.85 7.26,17.54 7.26,29.04 0,10.45 -2.89,20.26 -8.71,29.38 -5.82,9.13 -14.01,15.92 -24.63,20.34 -10.62,4.46 -23.86,6.67 -39.7,6.67 -23.06,0 -40.76,-5.31 -53.12,-15.97 -12.36,-10.62 -19.7,-26.11 -22.12,-46.45zm176.84 -31c0,-18.6 2.8,-34.23 8.36,-46.88 4.12,-9.3 9.81,-17.66 16.99,-25.05 7.18,-7.39 15.03,-12.87 23.57,-16.47 11.38,-4.8 24.5,-7.22 39.36,-7.22 26.92,0 48.41,8.37 64.59,25.05 16.14,16.73 24.2,39.96 24.2,69.72 0,29.51 -8.03,52.61 -24.03,69.26 -16.01,16.69 -37.45,25.01 -64.25,25.01 -27.13,0 -48.75,-8.28 -64.76,-24.89 -16.01,-16.56 -24.03,-39.4 -24.03,-68.53zm37.96 -1.23c0,20.68 4.8,36.35 14.35,47.05 9.55,10.66 21.7,16.01 36.39,16.01 14.73,0 26.79,-5.31 36.26,-15.88 9.43,-10.62 14.14,-26.5 14.14,-47.69 0,-20.93 -4.58,-36.56 -13.8,-46.84 -9.17,-10.32 -21.36,-15.46 -36.6,-15.46 -15.2,0 -27.47,5.22 -36.77,15.63 -9.3,10.45 -13.97,26.16 -13.97,47.18zm172.72 -91.08l72.95 0c14.48,0 25.22,0.59 32.31,1.78 7.13,1.23 13.46,3.74 19.07,7.52 5.6,3.82 10.28,8.87 14.01,15.2 3.74,6.33 5.6,13.46 5.6,21.32 0,8.49 -2.29,16.35 -6.88,23.44 -4.59,7.13 -10.83,12.44 -18.68,16.01 11.08,3.27 19.57,8.79 25.56,16.6 5.94,7.81 8.92,16.99 8.92,27.56 0,8.32 -1.91,16.39 -5.77,24.25 -3.86,7.86 -9.13,14.14 -15.84,18.85 -6.67,4.67 -14.91,7.56 -24.71,8.66 -6.11,0.64 -20.93,1.06 -44.42,1.23l-62.12 0 0 -182.42zm36.94 30.32l0 42.04 24.12 0c14.31,0 23.23,-0.21 26.71,-0.64 6.29,-0.72 11.25,-2.89 14.86,-6.5 3.61,-3.61 5.39,-8.32 5.39,-14.18 0,-5.65 -1.57,-10.19 -4.67,-13.72 -3.1,-3.52 -7.73,-5.65 -13.84,-6.37 -3.65,-0.42 -14.14,-0.64 -31.42,-0.64l-21.15 0zm0 72.36l0 48.92 34.14 0c13.25,0 21.7,-0.38 25.26,-1.1 5.48,-1.02 9.94,-3.44 13.38,-7.3 3.44,-3.91 5.18,-9.04 5.18,-15.54 0,-5.52 -1.32,-10.15 -3.99,-13.97 -2.63,-3.82 -6.5,-6.62 -11.51,-8.37 -5.01,-1.74 -15.92,-2.63 -32.7,-2.63l-29.77 0zm151.91 79.75l0 -182.42 77.58 0c19.49,0 33.67,1.66 42.51,4.93 8.87,3.27 15.92,9.09 21.23,17.45 5.31,8.41 7.98,17.96 7.98,28.75 0,13.72 -3.99,25.01 -12.02,33.93 -8.03,8.92 -20,14.52 -35.97,16.86 7.94,4.63 14.48,9.72 19.62,15.29 5.18,5.56 12.14,15.46 20.89,29.64l22.25 35.58 -44.03 0 -26.41 -39.83c-9.47,-14.14 -15.97,-23.06 -19.49,-26.75 -3.48,-3.65 -7.18,-6.2 -11.08,-7.56 -3.95,-1.36 -10.15,-2.04 -18.64,-2.04l-7.48 0 0 76.18 -36.94 0zm36.94 -105.22l27.26 0c17.66,0 28.66,-0.77 33.08,-2.25 4.37,-1.49 7.85,-4.08 10.32,-7.73 2.5,-3.65 3.74,-8.24 3.74,-13.72 0,-6.16 -1.66,-11.08 -4.93,-14.9 -3.27,-3.78 -7.9,-6.16 -13.84,-7.13 -3.02,-0.42 -11.97,-0.64 -26.88,-0.64l-28.75 0 0 46.37zm316.24 105.22l-39.79 0 -15.75 -41.53 -73.16 0 -15.16 41.53 -39.07 0 70.83 -182.42 39.02 0 73.08 182.42zm-67.52 -72.36l-25.35 -67.51 -24.63 67.51 49.98 0zm93.06 72.36l0 -180.89 36.94 0 0 150.06 91.47 0 0 30.83 -128.41 0zm221.34 -48.66l0 -34.9 68.79 0 0 34.9 -68.79 0zm281.51 -18.6l35.67 10.96c-5.48,20.08 -14.61,34.99 -27.35,44.76 -12.74,9.72 -28.88,14.61 -48.45,14.61 -24.25,0 -44.16,-8.28 -59.79,-24.84 -15.58,-16.56 -23.4,-39.19 -23.4,-67.94 0,-30.36 7.86,-53.97 23.53,-70.78 15.67,-16.82 36.31,-25.22 61.87,-25.22 22.34,0 40.47,6.62 54.39,19.83 8.32,7.81 14.52,19.02 18.68,33.67l-36.43 8.66c-2.17,-9.43 -6.67,-16.9 -13.5,-22.38 -6.88,-5.48 -15.2,-8.2 -24.97,-8.2 -13.55,0 -24.54,4.84 -32.95,14.56 -8.45,9.68 -12.65,25.39 -12.65,47.13 0,23.02 4.16,39.45 12.44,49.22 8.32,9.81 19.11,14.69 32.4,14.69 9.81,0 18.26,-3.1 25.31,-9.34 7.05,-6.24 12.14,-16.01 15.2,-29.39zm72.17 67.26l0 -182.42 135.03 0 0 30.83 -98.09 0 0 40.51 91.21 0 0 30.83 -91.21 0 0 49.43 101.66 0 0 30.83 -138.6 0zm339.13 0l-39.79 0 -15.75 -41.53 -73.16 0 -15.16 41.53 -39.07 0 70.83 -182.42 39.02 0 73.08 182.42zm-67.52 -72.36l-25.35 -67.51 -24.63 67.51 49.98 0zm92.04 72.36l0 -182.42 77.58 0c19.49,0 33.67,1.66 42.51,4.93 8.87,3.27 15.92,9.09 21.23,17.45 5.31,8.41 7.98,17.96 7.98,28.75 0,13.72 -3.99,25.01 -12.02,33.93 -8.03,8.92 -20,14.52 -35.97,16.86 7.94,4.63 14.48,9.72 19.62,15.29 5.18,5.56 12.14,15.46 20.89,29.64l22.25 35.58 -44.03 0 -26.41 -39.83c-9.47,-14.14 -15.97,-23.06 -19.49,-26.75 -3.48,-3.65 -7.18,-6.2 -11.08,-7.56 -3.95,-1.36 -10.15,-2.04 -18.64,-2.04l-7.48 0 0 76.18 -36.94 0zm36.94 -105.22l27.26 0c17.66,0 28.66,-0.77 33.08,-2.25 4.37,-1.49 7.85,-4.08 10.32,-7.73 2.5,-3.65 3.74,-8.24 3.74,-13.72 0,-6.16 -1.66,-11.08 -4.93,-14.9 -3.27,-3.78 -7.9,-6.16 -13.84,-7.13 -3.02,-0.42 -11.97,-0.64 -26.88,-0.64l-28.75 0 0 46.37zm316.24 105.22l-39.79 0 -15.75 -41.53 -73.16 0 -15.16 41.53 -39.07 0 70.83 -182.42 39.02 0 73.08 182.42zm-67.52 -72.36l-25.35 -67.51 -24.63 67.51 49.98 0zm-38.47 -126.62l17.33 -37.2 38.98 0 -34.4 37.2 -21.91 0z"/>
   <path class="fil3" d="M1403.36 3310.48l72.95 0c14.48,0 25.22,0.59 32.31,1.78 7.13,1.23 13.46,3.74 19.07,7.52 5.6,3.82 10.28,8.87 14.01,15.2 3.74,6.33 5.6,13.46 5.6,21.32 0,8.49 -2.29,16.35 -6.88,23.44 -4.59,7.13 -10.83,12.44 -18.68,16.01 11.08,3.27 19.57,8.79 25.56,16.6 5.94,7.81 8.92,16.99 8.92,27.56 0,8.32 -1.91,16.39 -5.77,24.25 -3.86,7.86 -9.13,14.14 -15.84,18.85 -6.67,4.67 -14.91,7.56 -24.71,8.66 -6.11,0.64 -20.93,1.06 -44.42,1.23l-62.12 0 0 -182.42zm36.94 30.32l0 42.04 24.12 0c14.31,0 23.23,-0.21 26.71,-0.64 6.29,-0.72 11.25,-2.89 14.86,-6.5 3.61,-3.61 5.39,-8.32 5.39,-14.18 0,-5.65 -1.57,-10.19 -4.67,-13.72 -3.1,-3.52 -7.73,-5.65 -13.84,-6.37 -3.65,-0.42 -14.14,-0.64 -31.42,-0.64l-21.15 0zm0 72.36l0 48.92 34.14 0c13.25,0 21.7,-0.38 25.26,-1.1 5.48,-1.02 9.94,-3.44 13.38,-7.3 3.44,-3.91 5.18,-9.04 5.18,-15.54 0,-5.52 -1.32,-10.15 -3.99,-13.97 -2.63,-3.82 -6.5,-6.62 -11.51,-8.37 -5.01,-1.74 -15.92,-2.63 -32.7,-2.63l-29.77 0zm151.91 79.75l0 -182.42 77.58 0c19.49,0 33.67,1.66 42.51,4.93 8.87,3.27 15.92,9.09 21.23,17.45 5.31,8.41 7.98,17.96 7.98,28.75 0,13.72 -3.99,25.01 -12.02,33.93 -8.03,8.92 -20,14.52 -35.97,16.86 7.94,4.63 14.48,9.72 19.62,15.29 5.18,5.56 12.14,15.46 20.89,29.64l22.25 35.58 -44.03 0 -26.41 -39.83c-9.47,-14.14 -15.97,-23.06 -19.49,-26.75 -3.48,-3.65 -7.18,-6.2 -11.08,-7.56 -3.95,-1.36 -10.15,-2.04 -18.64,-2.04l-7.48 0 0 76.18 -36.94 0zm36.94 -105.22l27.26 0c17.66,0 28.66,-0.77 33.08,-2.25 4.37,-1.49 7.85,-4.08 10.32,-7.73 2.5,-3.65 3.74,-8.24 3.74,-13.72 0,-6.16 -1.66,-11.08 -4.93,-14.9 -3.27,-3.78 -7.9,-6.16 -13.84,-7.13 -3.02,-0.42 -11.97,-0.64 -26.88,-0.64l-28.75 0 0 46.37zm316.24 105.22l-39.79 0 -15.75 -41.53 -73.16 0 -15.16 41.53 -39.07 0 70.83 -182.42 39.02 0 73.08 182.42zm-67.52 -72.36l-25.35 -67.51 -24.63 67.51 49.98 0zm82.36 13.25l35.92 -3.57c2.17,12.02 6.5,20.81 13.08,26.45 6.58,5.65 15.46,8.45 26.62,8.45 11.81,0 20.72,-2.5 26.71,-7.52 5.99,-5.01 9,-10.87 9,-17.58 0,-4.33 -1.27,-7.98 -3.78,-11.04 -2.51,-3.02 -6.92,-5.65 -13.21,-7.86 -4.29,-1.53 -14.06,-4.16 -29.34,-7.98 -19.66,-4.93 -33.46,-10.96 -41.4,-18.13 -11.17,-10.06 -16.73,-22.34 -16.73,-36.82 0,-9.3 2.63,-18.05 7.86,-26.16 5.27,-8.11 12.82,-14.27 22.72,-18.51 9.89,-4.25 21.78,-6.37 35.8,-6.37 22.8,0 40,5.05 51.51,15.2 11.55,10.15 17.58,23.65 18.18,40.6l-36.94 1.27c-1.57,-9.43 -4.93,-16.18 -10.06,-20.3 -5.14,-4.12 -12.87,-6.2 -23.14,-6.2 -10.61,0 -18.94,2.21 -24.92,6.62 -3.86,2.85 -5.82,6.62 -5.82,11.38 0,4.33 1.83,8.03 5.48,11.08 4.63,3.95 15.88,8.03 33.76,12.27 17.88,4.21 31.08,8.62 39.62,13.12 8.58,4.54 15.29,10.7 20.13,18.56 4.84,7.85 7.26,17.54 7.26,29.04 0,10.45 -2.89,20.26 -8.71,29.38 -5.82,9.13 -14.01,15.92 -24.63,20.34 -10.62,4.46 -23.86,6.67 -39.7,6.67 -23.06,0 -40.76,-5.31 -53.12,-15.97 -12.36,-10.62 -19.7,-26.11 -22.12,-46.45zm183.21 59.11l0 -182.42 36.94 0 0 182.42 -36.94 0zm77.94 0l0 -180.89 36.94 0 0 150.06 91.47 0 0 30.83 -128.41 0z"/>
  </g>
 </g>
</svg>
