<?xml version="1.0" encoding="UTF-8"?>
<!DOCTYPE svg PUBLIC "-//W3C//DTD SVG 1.1//EN" "http://www.w3.org/Graphics/SVG/1.1/DTD/svg11.dtd">
<!-- Creator: CorelDRAW 2019 (64 Bit) -->
<svg xmlns="http://www.w3.org/2000/svg" xml:space="preserve" width="98.9876mm" height="115.699mm" version="1.1" style="shape-rendering:geometricPrecision; text-rendering:geometricPrecision; image-rendering:optimizeQuality; fill-rule:evenodd; clip-rule:evenodd"
viewBox="0 0 1047.93 1224.84"
 xmlns:xlink="http://www.w3.org/1999/xlink">
 <defs>
  <style type="text/css">
   <![CDATA[
    .fil3 {fill:#007B33}
    .fil40 {fill:#048A4F}
    .fil2 {fill:#050509}
    .fil6 {fill:#051608}
    .fil18 {fill:#060606}
    .fil4 {fill:#080708}
    .fil32 {fill:#086E6A}
    .fil21 {fill:#090909}
    .fil31 {fill:#095675}
    .fil12 {fill:#0A0204}
    .fil50 {fill:#0B3499}
    .fil22 {fill:#0D0C0D}
    .fil72 {fill:#0E5173}
    .fil10 {fill:#150505}
    .fil58 {fill:#161748}
    .fil20 {fill:#162C99}
    .fil43 {fill:#171618}
    .fil75 {fill:#1A1A57}
    .fil30 {fill:#1B1B1B}
    .fil45 {fill:#202221}
    .fil16 {fill:#270402}
    .fil1 {fill:#292C95}
    .fil23 {fill:#2B2B2C}
    .fil46 {fill:#2E2F2F}
    .fil48 {fill:#343434}
    .fil17 {fill:#434344}
    .fil37 {fill:#474747}
    .fil42 {fill:#4B4B4B}
    .fil66 {fill:#4E3135}
    .fil19 {fill:#545454}
    .fil25 {fill:#575758}
    .fil51 {fill:#5C5C5C}
    .fil36 {fill:#5F6061}
    .fil29 {fill:#646464}
    .fil35 {fill:#676768}
    .fil49 {fill:#6B6B6B}
    .fil15 {fill:#6F050B}
    .fil33 {fill:#6F6F70}
    .fil34 {fill:#737474}
    .fil73 {fill:#761D6F}
    .fil53 {fill:#787878}
    .fil38 {fill:#7B7B7C}
    .fil52 {fill:#7F7E81}
    .fil47 {fill:#848484}
    .fil44 {fill:#878888}
    .fil41 {fill:#8B8C8B}
    .fil70 {fill:#8D1969}
    .fil56 {fill:#8F8F90}
    .fil24 {fill:#90050F}
    .fil71 {fill:#941F62}
    .fil68 {fill:#949494}
    .fil61 {fill:#989798}
    .fil67 {fill:#991A58}
    .fil55 {fill:#9C9C9C}
    .fil28 {fill:#9E9FA0}
    .fil69 {fill:#A4A4A4}
    .fil63 {fill:#A8A7A8}
    .fil54 {fill:#ABACAC}
    .fil65 {fill:#AD1552}
    .fil60 {fill:#B21434}
    .fil62 {fill:#B3B3B3}
    .fil64 {fill:#B71448}
    .fil74 {fill:#BCBCBC}
    .fil39 {fill:#C4C4C4}
    .fil57 {fill:#CB1149}
    .fil59 {fill:#D10E31}
    .fil27 {fill:#E8E8E9}
    .fil13 {fill:#ECECEC}
    .fil26 {fill:#F2F2F2}
    .fil14 {fill:#F50716}
    .fil11 {fill:#F6F6F6}
    .fil7 {fill:#F9F8F7}
    .fil9 {fill:#F9F9F9}
    .fil5 {fill:#FBFBFB}
    .fil8 {fill:#FCFCFC}
    .fil0 {fill:#FF040D}
   ]]>
  </style>
 </defs>
 <g id="Camada_x0020_1">
  <metadata id="CorelCorpID_0Corel-Layer"/>
  <g id="_2645927190368">
   <path class="fil0" d="M513.72 557.64c-4.49,7.66 -2.69,8.61 -12.38,8.88 -8.81,2.78 -20.58,14.06 -31.61,20.53 -3.24,4.85 0.46,3.6 -9.21,8.27l-30.25 19.88c-4.27,8.79 -1.95,6 -12.34,10.01 -8.28,4.28 -14.13,9.2 -22.48,15.62 -7.85,6.03 -13.77,9.55 -21.43,15 -12.71,9.04 -30.31,23.83 -41.58,29.42 -3.35,4.92 -0.45,1.78 -4.95,5.66 -4.7,4.05 2.87,-0.81 -4.77,2.1l-1.66 -2.39c-5.19,7.5 -20.81,18.57 -27.76,22.54 -3.08,4.67 -0.09,2.68 -6.07,7.34 -6.92,5.4 0.71,-0.12 -6.76,3.02l-46.45 31.12c-4.18,6.63 -1.17,4.56 -8.86,8.64 -8.17,3.6 -18.1,11.95 -25.97,17.55 -8.57,6.09 -15.61,10.15 -23.55,16.41 -3.32,4.94 2.84,3.11 -9.49,7.63l-10.2 6.46c-3.15,4.36 -0.32,4.24 -8.89,6.96 -1.86,2.49 -0.71,1.6 -4.28,4.48 -2.72,2.2 -0.33,0.36 -4.47,2.14 -9.3,5.4 -57.15,37.18 -62.84,46.17 5.14,24.84 47.66,67.28 63.79,80.2 16.65,13.33 65.1,47.01 87.62,53.62 6.51,1.99 1.99,0.17 7.41,3.08 0.56,0.3 1.6,2.23 2.02,1.62 0.42,-0.62 1.25,1.21 1.89,1.79l111.88 47.1c11.13,3.5 6.57,1.03 12.44,8.24 17.91,0.5 104.22,50.12 126.69,66.88 6.99,5.21 29.12,25.45 35.73,28.1 11.55,-4.54 31.34,-27.31 47.11,-34.76 0.46,-0.67 1.01,-2.57 1.35,-2.04 0.33,0.53 1.1,-1.53 1.56,-1.9 4.46,-3.53 0.85,-1.36 6.68,-4.17l32.02 -17.81c0.53,-0.57 1.2,-2.32 1.55,-1.76 0.35,0.56 1.26,-1.32 1.74,-1.6 5,-2.97 0.91,-1.13 7.07,-3.23l56.8 -25.69c2.9,-2.95 1.29,-2.68 5.84,-5.22 6.33,-3.52 1.03,-0.68 7.17,-2.63 17.04,-4.61 37.36,-15.2 54.7,-22.1 18.3,-7.28 34.91,-14.83 52.98,-23.06 41.18,-18.75 63.43,-33.02 95.48,-53.95 1.93,-4.55 0.15,-4.31 2.81,-6.68 -6.24,-3.28 -0.22,-0.95 -3.74,-6.03 -19.74,-23.15 -31.71,-25.8 -52.15,-66.54 -11.63,-23.19 -8.01,-21.08 -12.12,-47.44 -2.3,-14.73 -21.1,-17.48 -27.9,-28.69 -19.3,-7.18 -81.93,8.44 -135.96,-30.77 -52.98,-38.44 -11.29,-61.65 -27.72,-86.93 -4.75,-7.31 -13.16,-15.65 -16.13,-24.13 -5.25,-2.83 -4.17,-2.22 -11.8,-3.91 -23.73,3.23 -29.44,4.68 -47.54,-5.93 -7.63,-4.48 -12.23,-5.23 -19.06,-9.13 -7.29,-4.15 -7.9,-7.97 -15.05,-10.41 -8.85,-5.35 -4.55,-1.62 -8.79,-9.52 -5.59,-3.38 -16.13,-11.62 -19.83,-19.34l27.44 0.28 6.7 -23.34c16.16,5.38 34.12,32.06 58.83,32.96l8.58 -10.5c0.22,-0.22 1.16,-0.35 1.32,-1.06 0.16,-0.7 0.85,-0.72 1.34,-0.99 2.82,-6.13 3.22,-5.81 5.79,-12.75 -5.28,-9.91 -20.74,-22.86 -30.21,-31.55 -6.06,-5.56 -10.38,-9.17 -16.25,-14.7 -5.46,-5.15 -9.04,-11.19 -15.9,-12.68l-35.93 25.63z"/>
   <path class="fil1" d="M195.56 636.16l10.11 -10.65c14.59,-6.25 19.12,-15.75 33.28,-23.3 -7.72,-52.11 49.48,-22.96 51.79,-20.87l21.67 25.83c17.43,27.32 -8.8,46.14 -35.72,46.41 -3.38,20.29 -19.01,24.91 -37.11,36.06 -9.52,5.87 -8.83,10.15 -18.76,17.34 -9.05,6.56 -23.78,10.08 -26.8,13.19 -21.64,22.24 22.73,13.84 -26.03,48.8 -19.21,13.77 -17.47,5.18 -32.5,-1.24 -7.65,8.75 -11.81,11.04 -20.16,15.95 -38.72,22.78 -25.55,16.16 -54.29,-17.49 -23.14,-27.1 -23.31,-45.33 14.02,-67.57 20.01,-11.92 16.92,-20.9 38.07,-4.64 6.5,-3.83 12.84,-8.64 19,-14.09 13.33,-11.78 12.68,-6.36 24.44,-12.21 8.89,-4.43 9.04,-12.34 16.9,-19.27 6.32,-5.57 14.2,-6.98 22.09,-12.25zm194.91 -144.62l30.18 -22.17c0.82,-25.04 -10,-16.28 15.57,-34.4 28.69,-20.32 13.9,1.71 42.01,-5.19 22.94,-5.63 7.58,-14.35 31.72,-27.43 39.85,-21.59 92.4,48.1 21.71,72 -15.74,5.32 -5.33,-0.09 -14.77,13.36l-118 86.31c-17.41,9.59 -17.32,18.27 -32.59,26.39 -16.74,8.9 -34.02,7.06 -47.06,-2.69 -28.91,-21.63 -27.67,-59.8 -2.3,-77.59l52.44 -35.09c14.66,-4 10.8,1.9 21.09,6.48zm250.66 -94.27c-2.57,2.74 -1.08,2.39 -5.26,4.94 -6.79,4.15 1.22,-0.28 -7.27,3.25 -6.26,8.13 -32.24,27.4 -44.84,28.59 -21.8,-11.99 -8.31,-23.6 -20.68,-37.8 -11.01,-12.63 -24.15,-2.88 -27.26,-29.42 5.72,-12.55 25.53,-23.23 35.73,-30.52 4.73,-7.51 8.41,-8.35 15.35,-12.45 34.25,-21.47 21.11,-13.9 38.88,-5.29 28.99,-18.55 68.2,-50.68 95.91,-71.59 10.21,-7.71 15.23,-3.82 22.89,-10.74 4.95,-4.48 8.04,-11.33 16.06,-17.72 8.48,-6.75 11.76,-6.2 22.14,-11.37 -2.15,-45.95 3.43,-26.11 26.48,-39.94 5.27,-3.16 10.09,-14.93 19.7,-17.8 12.59,-3.76 8.03,0.08 12.73,1.62 5.91,1.92 -3.57,0.44 6.21,2.01 5.25,0.84 3.62,0.61 6.65,-0.63 3.71,-12.01 1.58,-28.92 9.24,-37.87 19.59,-22.86 29.51,7.65 41.34,15.19 4.22,2.69 11.64,7.06 13.71,7.96 34.86,15.07 28.56,39.43 8.51,51.62 -12.39,7.54 -14.79,12.21 -26.51,18.27 -16.67,8.62 -11.97,12.65 -25.29,19.98 -7.08,3.9 -7.09,1.84 -14.53,7.64l-194.95 144.08c-7.82,4.06 -17.09,11.78 -24.94,17.99zm-531.87 -285.35l-4.61 7.61 7.33 4.98c0.32,-0.58 1.27,1.01 1.91,1.5 6.23,3.84 4.09,3.76 10.62,7.39l58.66 -68.35c24.27,2.39 129.72,93.33 318.02,2.14 2.82,-2.82 12.23,-9.88 13.53,-10.42 3.92,-1.65 5.85,-2.22 10.28,-1.74 7.75,0.83 4.55,0.59 7.62,3.64 7.52,7.01 44.3,21.48 60.45,27.49 53.99,20.1 99.9,24.51 158.81,17.93 29.15,-3.25 47.66,-12.04 74.24,-20.97l11.29 -5.01 27.41 -11.96c-4.84,7.41 -17.84,15.43 -24.35,17.96l-14.3 8.78c-0.38,0.5 -481.73,345.71 -491.78,349.09l-5.7 7.32c-10.82,4.25 -101.57,70.42 -119.77,83.37 -15.59,11.09 -109.87,82.04 -125.55,85.31 14.23,-59.6 56.97,-136.21 55.76,-214.74 -1.17,-75.43 -46.14,-140.97 -79.69,-190.49l33.39 -40.56c-7.47,-4.14 -5.81,-10.19 -16.14,-18.93 -7.32,5.94 -44.06,48.25 -47.11,56.69 0.66,20.66 111.33,115.83 78.7,247.99 -50.61,204.96 -202.53,408.3 107.19,568.63 21.41,11.08 98.4,46.81 118.46,51.05l11.68 5.74c55.59,30.03 82.29,33.24 138.65,77.78 9.16,7.24 31.23,27.75 40.66,32.27 10.77,-4.99 33.44,-27.11 43.72,-34.81 15.65,-11.72 30.31,-21.39 49.23,-32.01 74.75,-41.96 142.2,-64.44 218.6,-101.01 20.93,-10.02 88.58,-48.29 97.85,-65.31l-27.8 -3.47 -9.57 5c-32.05,20.93 -54.29,35.2 -95.48,53.95 -18.07,8.23 -34.68,15.78 -52.98,23.06 -17.34,6.9 -37.66,17.49 -54.7,22.1 -2.88,2.94 -0.38,1.92 -5.18,4.63 -5.13,2.89 -2.87,1.33 -7.83,3.22l-56.8 25.69c-0.58,0.58 -1.34,0.72 -1.7,1.78 -0.36,1.05 -1.34,1.32 -1.83,1.61 -4.86,2.91 -0.58,1 -6.83,3.21l-32.02 17.81c-0.51,0.73 -1.11,1.02 -1.47,2.22 -0.35,1.17 -1.15,1.63 -1.63,2.01 -4.34,3.42 -0.78,1.41 -6.48,3.88 -15.77,7.45 -35.56,30.21 -47.11,34.76 -6.61,-2.64 -28.74,-22.88 -35.73,-28.1 -22.47,-16.76 -108.78,-66.39 -126.69,-66.88 -3.17,-1.6 -3.32,-1.19 -6.88,-3.64 -2.66,-1.83 -3.84,-3.1 -5.55,-4.59l-111.88 -47.1c-14.16,-3.74 -0.61,1.36 -5.55,-1.7 -5.07,-3.15 -2.62,-1.41 -5.77,-4.78 -22.52,-6.61 -70.97,-40.29 -87.62,-53.62 -16.13,-12.92 -58.65,-55.36 -63.79,-80.2 5.69,-8.99 53.54,-40.77 62.84,-46.17 4.3,-6.45 1.05,-4.75 8.75,-6.62 0.39,-0.52 0.9,-2.04 1.14,-1.58 0.26,0.48 1.01,-1.26 1.37,-1.52 4.82,-3.56 0.48,-0.92 6.38,-3.85l10.2 -6.46c0.48,-0.61 1.1,-2.38 1.41,-1.86 0.32,0.53 1.15,-1.42 1.59,-1.75 4.41,-3.36 0.78,-1.17 6.49,-4.02 7.95,-6.27 14.99,-10.32 23.55,-16.41 7.87,-5.6 17.79,-13.94 25.97,-17.55 0.45,-0.67 1,-2.54 1.3,-2.03 0.3,0.5 1.05,-1.54 1.47,-1.93 4.22,-3.91 0.85,-1.36 6.08,-4.68l46.45 -31.12c2.9,-3.93 0.52,-2.31 4.39,-5.47 2.91,-2.38 4.23,-2.71 8.44,-4.89 6.95,-3.97 22.57,-15.04 27.76,-22.54l-6.61 -0.64c5.08,-8.57 0.09,-6.47 11.6,-8.1 3.27,2.86 1.62,-1.56 0.01,4.26l6.39 -0.88c11.27,-5.59 28.87,-20.38 41.58,-29.42 7.66,-5.45 13.58,-8.96 21.43,-15 8.35,-6.42 14.2,-11.34 22.48,-15.62 3.15,-4.01 0.3,-1.78 4.41,-5.11 1.77,-1.44 5.36,-3.38 7.93,-4.9l30.25 -19.88c0.48,-0.66 1.07,-2.52 1.38,-2 0.32,0.52 1.11,-1.51 1.55,-1.88 4.39,-3.74 0.59,-1.15 6.28,-4.39 11.03,-6.47 22.8,-17.75 31.61,-20.53 4.2,-8.27 4.84,-5.97 12.38,-8.88l35.93 -25.63 5.84 -3.41c4,-6.64 15.34,-13.47 22.76,-17.99 4.27,-4.14 7.98,-6.22 13.63,-10.34l25.68 -16.94c0.44,-0.65 0.99,-2.48 1.28,-1.96 0.28,0.51 1.05,-1.49 1.44,-1.84 4.05,-3.55 0.73,-1.26 5.86,-4.16 15.62,-9.43 35.88,-24.77 52.14,-36.24 13.76,-9.71 39.89,-30.71 53.52,-37.36 0.5,-0.67 1.11,-2.57 1.45,-2.03 0.34,0.54 1.15,-1.52 1.63,-1.89 4.58,-3.59 0.74,-1.26 6.62,-4.15l-0.08 -2.48 -6.89 -3.85c16.65,-5.56 0.62,-3.17 15.66,-12.02 5.46,-3.21 11.49,-6.95 18.5,-8.55l0.01 5.38 15.1 -6.3 7.84 -8.48c22.3,-12.35 59.13,-41.63 86.1,-60.86 13.13,-9.36 29.35,-20.87 42.44,-30.24 11.98,-8.58 30.29,-23.16 43.9,-31 2.01,-2.34 1.42,-2.67 5.76,-5.16 5.09,-5.99 -5.64,-1.12 5.79,-5.55 3.68,4.38 1.58,-2.19 2.01,4.54 0.76,11.87 2.56,-2.64 -2.29,3.24 -4.07,10.8 -0.15,2.9 -5.75,6.24 -6.45,21.98 -45.82,63.59 -56.16,133.66 -20.86,141.35 128,327.32 76.33,471.77l-5.09 12.51 -1.91 5.35c-2.06,11.61 0.27,4.17 -4.81,7.22l8.08 30.19c16.71,-12.05 29.17,-55.01 33.55,-76.53 18.59,-91.43 -23.79,-193.43 -51.53,-276.7 -46.27,-138.91 -47.8,-181.87 28.28,-301.93 30.47,-48.08 36.98,-16.36 -49.3,-122.95 -12.17,-15.03 -22.66,-26.65 -37.2,-44.02 -9.92,-11.84 -30.41,-34.48 -35.96,-44.65 -25.01,5.45 -71.2,50.23 -175.24,49.39 -87.87,-0.71 -161.01,-52.02 -171.47,-52.95 -20.24,-1.81 -124.07,87.29 -269.66,39.29 -39.89,-13.15 -61.9,-30.4 -77.12,-35.28 -8.76,4.67 -29.36,31.37 -36.46,39.65 -9.27,10.82 -24.39,31.53 -34.65,39.29z"/>
   <path class="fil0" d="M791.61 357.41c-2.8,4.77 0.55,3.39 -7.84,8.48l-15.1 6.3c-2.51,4.99 -8.26,8.57 -13.47,9.18 -3.68,6.22 0.38,4.1 -9.11,9.45l-4.71 0.41 0.08 2.48c-3.25,4.87 1.08,3.63 -9.69,8.07 -13.64,6.65 -39.76,27.65 -53.52,37.36 -16.26,11.47 -36.52,26.81 -52.14,36.24 -3.93,6.49 -0.54,4.09 -8.57,7.96l-25.68 16.94 4.13 10.17c17.35,13.77 37.95,29.5 52.23,44.04 28.21,28.73 13.74,37.97 8.33,72.32l14.44 25.03c3.02,1.5 8.89,2.1 5.33,9.32 4.13,2.43 3.12,-5.82 4.2,2.18l0.86 6.4c11.98,0.19 23.31,-0.67 35.42,1.41 4.03,0.69 9.84,1.76 13.66,2.7 10,2.47 7.05,0.82 11.91,5.62 17.66,0.42 26.34,10.56 40.75,12.34l10.73 8.09c6.02,7.59 20.68,15.71 19.65,28.18 5.02,4.16 3.48,-3.77 6.19,11.19 3.18,17.54 -10.67,14.9 24.72,39.08l12.16 8.19c0.44,0.33 1.48,2.14 1.8,1.59 0.33,-0.56 1.21,1.11 1.82,1.67 33.35,0.71 35.78,-15.67 66.74,9.95 11.39,9.43 32.9,35.91 39.82,51.52 2.55,2.23 2.48,1.36 4.83,4.68 2.47,3.48 2.06,3.47 3.74,6.75l-0.3 2.45c3.62,-2.2 3.37,-1.34 7.73,-3.23l1.91 -5.35 1.03 -7.78c0.64,-0.96 1.87,-3.61 2.05,-2.73 0.17,0.79 1.4,-1.28 2.01,-2 51.67,-144.45 -97.19,-330.42 -76.33,-471.77 10.34,-70.07 49.7,-111.68 56.16,-133.66 -2.04,-4.32 1.91,-3.45 -5.51,-3.32 -13.61,7.84 -31.92,22.42 -43.9,31 -13.08,9.37 -29.3,20.88 -42.44,30.24 -26.97,19.23 -63.8,48.51 -86.1,60.86z"/>
   <path class="fil2" d="M880.27 858.38c2.49,-3.02 1.94,-2.59 5.02,-5.34 5.37,-4.81 -5.44,2.71 4.01,-2.36 7.29,-4.42 7.82,-8.82 13.82,-17.03 19.21,2.16 27.75,15.86 36.38,27.38 4.79,5.36 -0.25,-4.47 5.49,7.62 0.67,1.41 2.31,7.02 2.55,8.73 1.4,9.7 2.05,12.22 -5.06,15.86 -0.91,18.99 -26.76,19.45 -38.92,8.17 -7.61,-7.06 -22.68,-28.42 -23.31,-43.05zm-574.65 -460.75l-5.39 -9.31c-8.47,-19.16 -11.38,-17.31 -13.66,-41.22 25.28,3.71 16.92,9.84 25.45,28.47 6.63,14.47 17.03,15.07 21.74,26.82 -17.97,7.57 -16.92,4.06 -28.14,-4.76zm-119.64 -168.08l5.59 -16.98c13.5,0.47 6.14,0.98 9.15,3.95 11.39,4.12 18.98,10.95 23.45,21.53 3.13,2.64 3.61,-0.63 6.23,8.77 1.68,6.03 0.61,5.94 1.03,11.26l-6.35 4.71c-13.49,-1.95 -15.62,8.31 -25.11,16.81 -14.81,-3.69 -27.25,-17.37 -33.42,-30.43 0.47,-0.5 1.23,-1.08 1.57,-1.33 14.33,-10.65 18.62,-6.68 17.86,-18.29zm-31.15 21.46c2.82,3.39 -0.34,-1.61 4.29,5.39 2.75,4.16 1.83,3.46 3.3,6.54 4.82,15.25 38.93,37.52 54.67,44.27l6.86 6.39c-5.98,2.96 5.04,1.16 -7.28,2.77 -15.7,2.06 -14.11,-3.39 -14.73,-3.79 -21.73,-1.17 -45.37,-30.92 -55.17,-45.38 -1.98,-2.1 -2.1,-1.96 -4.37,-5.57 -3.08,-4.9 1.42,4.79 -1.86,-4.94l-2.54 -28.07c11.35,5.58 12.58,10.19 16.82,22.39zm-45.57 -139.1c10.26,-7.76 25.37,-28.47 34.65,-39.29 7.1,-8.29 27.7,-34.98 36.46,-39.65 15.22,4.87 37.23,22.12 77.12,35.28 145.59,48 249.42,-41.1 269.66,-39.29 10.46,0.94 83.6,52.24 171.47,52.95 104.04,0.84 150.23,-43.94 175.24,-49.39 5.55,10.17 26.04,32.81 35.96,44.65 14.55,17.36 25.03,28.99 37.2,44.02 86.28,106.59 79.77,74.87 49.3,122.95 -76.08,120.07 -74.56,163.02 -28.28,301.93 27.74,83.27 70.11,185.28 51.53,276.7 -4.38,21.53 -16.84,64.48 -33.55,76.53l-8.08 -30.19c-4.59,0.61 -3.02,1.32 -2.92,-3.99l0.3 -2.45c-5.95,-4.12 -5.6,-0.72 -8.57,-11.43 -6.92,-15.61 -28.43,-42.09 -39.82,-51.52 -30.96,-25.62 -33.39,-9.24 -66.74,-9.95l-4.85 2.93 10.5 6.19c9.73,0.99 1,1.34 8.54,-1.51 0.15,-0.06 1.08,-1.35 5.94,-3.11 25.06,2.96 33.49,4.77 48.19,17.83 10.29,9.14 20.84,21.78 28.77,35.66 17.7,31 21.59,73.36 -12.18,85.82 -5.35,6 -9.06,8.32 -19.5,8.58 -3.16,0.08 -7.86,-0.36 -10.89,-1.25 -7.69,-2.25 -5.66,-2.83 -8.18,-4.8 -21.08,-14.34 -28.2,-24.49 -41.8,-44.93 -3.03,-2.57 -2.04,-1.31 -4.91,-5.13 -4.28,-5.71 2.86,8.01 -2.06,-4.79 -3.16,-8.49 -8.91,-14.4 -8.2,-24.03 -5.04,-4.98 -1.67,3.63 -5.64,-8.53 -1.91,-5.87 -0.38,-4.25 -0.56,-9.05 16.39,-0.81 3.73,-1 8.4,3.24 15.13,15.2 9.12,10.34 18.58,30.42 4.86,10.31 14.76,23.49 20.12,30.01 18.2,22.14 46.66,26.23 63.04,-0.29 4.6,-19.67 3.16,-19.64 0.06,-38.62 -5.67,-19.77 -21.88,-38.48 -35.43,-46.07l-11.09 -5.85c-11.18,-0.94 -19.95,-2.95 -25.99,-5.02l-1.16 2.27c2.23,4.12 3.05,4.53 5.3,7.73 0.53,0.56 7.13,-1.9 3.89,10.82 -2.09,8.19 -4.85,5.71 -6.38,6.88 -12.86,13.46 -27.18,-1.35 -39.56,-10.44 -7,-5.14 -10.81,-8.04 -17.8,-13.11 -7.31,-5.3 -13.21,-7.7 -14.67,-13.01 -0.62,0.69 -1.42,1.63 -1.83,2.1l-2.99 3.45c-0.37,0.43 -1.35,1.55 -1.97,2.24 6.8,11.22 25.6,13.97 27.9,28.69 4.11,26.36 0.49,24.25 12.12,47.44 20.44,40.74 32.41,43.4 52.15,66.54l10.5 7.7 27.8 3.47c-9.26,17.02 -76.91,55.29 -97.85,65.31 -76.4,36.57 -143.85,59.04 -218.6,101.01 -18.92,10.62 -33.58,20.3 -49.23,32.01 -10.28,7.7 -32.96,29.82 -43.72,34.81 -9.43,-4.52 -31.5,-25.03 -40.66,-32.27 -56.36,-44.54 -83.06,-47.76 -138.65,-77.78 -1.07,-0.06 -2.63,-1.34 -3.17,-0.52 -0.51,0.75 -2.25,-0.42 -2.88,-0.76 -5.18,-2.82 -2.61,-0.8 -5.63,-4.45 -20.06,-4.24 -97.05,-39.96 -118.46,-51.05 -309.72,-160.33 -157.8,-363.67 -107.19,-568.63 32.63,-132.16 -78.04,-227.33 -78.7,-247.99 3.05,-8.44 39.79,-50.75 47.11,-56.69 10.33,8.74 8.67,14.79 16.14,18.93 10.43,15.04 21.98,25.21 32.94,37.76 -4.59,35.67 -12.91,31.82 7.42,61.13 19.39,27.95 51.31,66.14 89.49,53.76 25.31,-8.2 32.18,2.36 52.09,14.06 0.12,36.57 -7.87,37.3 13.66,62.7 11.27,13.3 26.44,28.68 40.64,38.93l5.32 1.45 -5.96 -28.39 20.55 -9.97c-3.87,-10.06 -4.43,-6.87 -11.43,-14.73 -38.77,-43.53 -14.98,-29.65 -11.52,-45.1l-3.31 0.61c-17.39,-4.3 -16.16,-0.2 -34.48,-9.82 -10.57,-5.55 -18.58,-10.03 -28.61,-15.08 -2.51,-0.91 -7.23,-2.44 -9.06,-3.29l-5.82 -3.57c-0.33,-0.99 -1.21,-0.99 -1.82,-1.49 -21.14,-9.61 -34.02,-15.76 -20.02,-39.81l16.52 -1.31 5.36 -1.27c0.15,-19.76 -0.58,-13.57 -5.62,-30.59 -0.26,-9.58 -21.19,-30.24 -31.46,-31.06 -3.96,-0.37 -14.12,-2.38 -16.63,-2.27 -9.23,0.4 -10.65,-4.35 -7.76,6.12 2.94,23.7 -11.17,33.64 -24.83,20.98 -7.92,-7.34 -18.49,-21.99 -25.87,-30.38 -53.02,-60.22 -38.11,-41.77 -30.73,-64.4 6.18,-8.49 -2.5,-1.31 5.74,-5.88 5.05,-2.81 5.03,-0.92 9.2,-1.44l-2.99 -3.85c-10.59,-0.39 -5.46,1.06 -12.95,-2.9 3.18,-7.76 0.8,-4.47 8.33,-11.19zm406.08 -106.58l-10 4.84 -16.81 7.92c-4.27,7.32 -2.31,4.76 -11.2,6.13l-18.96 8.36c-2.08,1.93 -1.72,2.34 -5.52,4.38 -5.43,2.92 -1.53,0.7 -7.52,2.07l-25.83 7.86c-9.78,6.62 -23.18,8.51 -34.75,9.53 -19.02,0.1 -34.98,3.4 -55.98,2.11 -18.53,-1.14 -32.45,-5.51 -49.05,-7.79 -11.31,-1.57 -11.04,-0.11 -18.17,-6.98 -12.37,-1.72 -32.65,-12 -43.23,-17.6 -11.3,-5.98 -27.27,-16.78 -37.3,-19.95 -7.91,-0.38 -7.38,-0.31 -13.25,2.25 -11.4,15.89 -28.09,33.3 -41.78,49.02 -13.11,15.06 -29.49,35.28 -42.56,49.95 -12.63,14.17 -80.11,90.45 -83.42,102.16 4.21,3.07 1.76,0.68 5.3,4.85 3.44,4.06 -1.33,-3.67 2.24,4.67 4.75,9.1 19.61,27.59 23.26,37.38 3.52,3.08 2.06,1.37 5.25,5.42 2.7,3.42 -0.53,-1.79 2.12,4.48l7.19 12.22c2.45,2.49 2.34,2.16 4.86,5.68 3.24,4.53 -1.34,-3.59 2.15,4.61l2.48 7.8c6,4.24 6.01,1.39 8.89,11.73 6.4,17.48 15.49,31.63 21.4,52.79 7.7,27.58 4.33,37.76 5.48,65.55 -0.18,4.77 0.2,10.1 -0.83,14.85 -2.25,10.35 -2.61,6.1 -4.29,8.65l-7.94 33.21c-2.02,12.67 -0.32,12.78 -9.13,21.02 2.08,11.3 -25.52,79.59 -30.27,96.94 -2.03,10.47 -2.88,16.71 -9.04,24.25l-5.64 22.85c-0.5,4.25 -0.15,6.29 -1.59,10.79 -4.04,12.63 -1.94,4.22 -4.92,7.98l1.72 1.02c-0.73,4.18 -0.98,9.2 -2.33,13.38 -4.13,12.73 -0.81,2.99 -4.58,7.39l0.5 4.13 -9.32 46.94c2.22,20.22 -0.7,46.1 1.5,69.47 1.39,14.75 11.62,46.44 10.66,52.86 7.7,5.57 0.71,-4.08 6.91,7.47 1.79,3.33 1.01,4.07 1.72,7.7l7.76 17.38c2.75,2.58 1.98,1.45 4.8,5.4 2.33,3.26 -0.14,-0.91 2.02,4.75l3.6 7.74c4.33,2.99 1.79,0.59 5.33,4.75 3.46,4.06 -1.55,-4.4 2.24,4.81 9.01,14.96 27.98,36.97 38.37,46.68 10.47,9.78 36.56,27.4 44.9,37.25 9.09,2.32 5.63,1.3 9.48,5.46 15.71,8.52 51.98,33.9 66.24,36.35 1.94,0.87 5.31,2.14 7.14,3.31 3.5,2.23 3.27,2.43 5.31,4.28l52.79 22.83c10.69,1.76 1.66,-0.7 5.89,1.17 4.71,2.09 4.2,2.13 6.39,3.82l78.27 33.85c5.94,1.54 1.85,-1.14 7.23,2.3 4.11,2.62 2.44,1.89 5.02,4.85l16.22 6.29c10.64,2.72 7.73,2.9 12.15,8.68 23.94,1.11 102.03,73.59 120.04,85.24 14.29,-8.2 30.23,-25.1 44.98,-36.99 14.71,-11.86 28.1,-21.76 46.52,-33.29 0.53,-0.59 1.2,-2.36 1.56,-1.79 0.36,0.57 1.26,-1.34 1.75,-1.62 4.82,-2.79 0.98,-1.18 7.22,-3.15 22.12,-11.14 47.06,-26.69 73.2,-36.09 2.19,-1.95 1.27,-2.08 5.36,-4.19 3.37,-1.74 4.4,-1.79 7.7,-2.99l18.15 -6.22c5.86,-5.26 4.36,-5.44 18.33,-9.28l15.07 -5.05 7.12 -5.24c4.6,-2.28 6.52,-2.42 11.36,-3.67l14.7 -5.65c1.98,-1.69 1.65,-2.14 5.44,-4.11 2.7,-1.4 4.74,-1.96 7.41,-2.96 27.44,-6.11 97.21,-49.78 116.13,-64.03 35.78,-26.96 60.44,-52.36 84.95,-92.7 2.01,-6.14 0.39,-2.4 3.2,-7.12 0.28,-0.48 1.4,-0.58 1.62,-1.71 0.23,-1.12 1.21,-0.99 1.79,-1.51l8.13 -16.76c1.26,-8.03 -0.16,-2.28 2.18,-8.44 0.22,-0.59 1.18,-0.79 1.37,-2.03 0.18,-1.21 1.06,-1.18 1.57,-1.79l4.78 -17.91c1.27,-7.79 3.06,-13.65 4.62,-21.5 1.58,-7.94 1.4,-13.23 6.03,-20.32 -0.39,-14.37 0.99,-32.03 0.4,-47.82 -0.57,-15.14 -4.33,-30.32 -3.93,-43.51 -0.99,-1.58 -1.26,0.05 -3.61,-6.38 -1.1,-3.02 -0.77,-2.3 -1.23,-4.59 -0.79,-3.93 -0.56,-8 -0.78,-11.96 -12.75,-81.23 -62.98,-174.68 -76.47,-260.76 -9.02,-57.57 7.83,-72.39 10.08,-94.81 1.43,-4.37 0.54,-3.31 2.8,-7.89 5.13,-10.4 -0.68,0.11 4.33,-5.59l2.41 -6.26c1.99,-6.03 -0.95,-1.01 2.69,-6.94 2.97,-4.84 1.26,-1.79 5.46,-5.23l5.54 -13.11c2.03,-5.77 0.44,-2.27 3.26,-6.97 0.29,-0.48 1.38,-0.62 1.61,-1.77 0.23,-1.14 1.19,-1.05 1.76,-1.6 11.94,-25.88 36.99,-52.65 46.42,-74.4 -15.34,-24.91 -157.46,-185.03 -165.82,-201.91l-10.12 -1.5c-28.32,14.44 -59.82,36.62 -93.06,43.56 -3.59,2.23 3.91,0.54 -8.84,4.45 -4.58,1.4 -6.53,1.03 -10.48,1.53 -25,2.4 -54.98,7.36 -81.61,4.05 -28.36,-3.52 -48.4,-11.84 -71.66,-17.46 -3.85,-1.12 -5.15,-0.9 -9.25,-3.16 -4.67,-2.58 -2.54,-1.92 -5.72,-5.07 -7.72,-0.37 -30.07,-12.63 -38.9,-17.25 -16.31,-8.52 -22.44,-16.7 -37.13,-9.05z"/>
   <path class="fil3" d="M501.2 67.19c-188.3,91.19 -293.76,0.24 -318.02,-2.14l-58.66 68.35c4.61,11.71 10.74,10.64 14.86,23.24 0.88,6.46 -1.95,2.67 4.21,6.59 4.97,-4.51 -0.82,-3.49 5.25,-0.06l10.74 14.23c47.51,3.35 47.28,-3.34 79.01,27.55 39.34,38.3 27.31,67.24 31.43,75.68 1.14,2.34 25.94,20.24 41.07,16.34 25.11,-6.48 34.38,-31.61 79.45,13.82 9.37,9.45 22.39,16.99 27.4,28.82l-24.43 3.34 6.8 33.42c-22.24,-10.48 -38.04,-31.3 -63.06,-41.42l-11.19 8.86c-3.46,15.45 -27.25,1.56 11.52,45.1 7,7.86 7.56,4.67 11.43,14.73l-20.55 9.97 5.96 28.39c10.05,-3.38 491.4,-348.59 491.78,-349.09l3.48 -8.9 -3.53 -0.87c-26.59,8.93 -45.09,17.72 -74.24,20.97 -58.92,6.57 -104.82,2.16 -158.81,-17.93 -16.15,-6.01 -52.93,-20.48 -60.45,-27.49 -18.25,0.45 -11.95,4.73 -31.44,8.52z"/>
   <path class="fil3" d="M328.71 449.29l0.38 -8.77c-14.19,-10.25 -29.37,-25.63 -40.64,-38.93 -21.53,-25.4 -13.54,-26.13 -13.66,-62.7 -19.91,-11.69 -26.78,-22.26 -52.09,-14.06 -38.19,12.37 -70.11,-25.81 -89.49,-53.76 -20.32,-29.31 -12.01,-25.46 -7.42,-61.13 -10.96,-12.55 -22.51,-22.72 -32.94,-37.76l-33.39 40.56c33.55,49.52 78.52,115.06 79.69,190.49 1.21,78.53 -41.53,155.13 -55.76,214.74 15.68,-3.28 109.97,-74.22 125.55,-85.31 18.2,-12.95 108.95,-79.13 119.77,-83.37z"/>
   <path class="fil2" d="M630.42 366.39c11.31,4.24 9.02,-1.36 17.39,6.04 0.89,11.29 0.89,1.15 -3.19,5.84l-23.84 16.92c-5,-6.62 -4.29,-12.7 -7.85,-20.03l-10.35 -1.95 -8.19 6.8c4.75,8.93 3.47,8.21 12.53,14.12 0.55,0.36 1.37,0.83 1.88,1.15 0.53,0.33 1.5,0.91 1.94,1.18 0.45,0.27 1.37,0.73 1.98,1.19 -4.53,9.38 -16.54,17.02 -26.17,20.72 -0.34,-0.61 -0.48,-2.41 -0.52,-2.02 0,0 2.06,-8.42 -11.15,-26.6 -15.12,-20.82 -7.92,-10.56 -22.86,-17.31 2.7,-9.78 0.42,-5.22 8.99,-11.7 3.8,-2.88 7.82,-5.16 11.3,-6.87 3.84,-3.99 -6.43,-4.62 8.3,-3.39l1.35 13.91 6.75 7.73c3.14,-2.1 4.3,-2.39 6.85,-4.67 6.75,-6.02 2.3,-1.35 5.46,-6.21 -6.11,-10.24 -8.64,-8.06 -17.22,-13.31 5.12,-10.28 16.88,-18.37 27.96,-21.01 8.31,18.66 -14.98,-9.34 18.64,39.48zm125.07 -70.06c-0.55,0.51 -1.36,0.55 -1.62,1.54 -0.33,1.24 -2.62,2.53 -3.19,3.04 -2.89,2.6 -3.65,3.21 -6.63,5.66l-11.28 5.96 -9.93 9.18c-0.39,0.3 -1.23,0.83 -1.84,1.27l-14.63 8.01 -9.3 7.58 -11.6 9.03c-1.91,1.33 -2.02,1.7 -5.77,3.58 -1.12,0.56 -5.47,2.3 -6.53,2.81 -4.43,22.54 -31.33,10.33 -33.42,-7.15 -3.65,-0.94 -5.37,-0.68 -8.22,-2.09 -6.1,-3.02 -1.79,-0.32 -6.06,-4.48 2.28,-6.48 -0.34,-3.14 6.92,-8.86 4.02,-3.17 6.14,-4.16 10.2,-6.51 11.33,9.07 13.69,25.02 28.13,25.11l-0.65 -12.95c-14.04,-12.83 -0.71,-4.19 -19.4,-15.06 4.09,-9.39 11.22,-12.78 20.87,-15.36l15.14 22.75 9.15 0.46 1.04 -9.89c-4.58,-14.38 -6.42,-11.94 -18.21,-17.57 3.78,-11.88 2.36,-3.06 8.76,-12.3 5.76,-4.58 10.22,-5.49 14.99,-7.46 2.99,-8.8 2.32,-6.54 10.82,-10.52 14.07,-6.6 3.29,0.22 13.76,-9.97l8.88 -7.93c17.27,1.75 14.78,10.8 26.67,20.79 9.22,7.75 2.79,-2.56 9.54,7.78l-16.59 13.54zm11.98 -36.43c-0.82,-0.44 -4.15,-2.54 -4.58,-2.84 -0.35,-0.25 -1.51,-0.49 -1.79,-1.45 -0.3,-1.04 -1.25,-1.08 -1.88,-1.62 -5.85,-11.77 3.13,-20.79 12.81,-26.62 15.16,-9.13 21.5,-2.72 28.67,7.97l7.56 -0.79c9.31,2.86 2.84,-4.02 8.6,5.99 8.38,14.57 -12.98,17.41 -19.37,23.38l-7.68 9.23c-7.74,6.03 -10.91,4.4 -19.22,2.02l-3.12 -15.27zm43.11 -64.6l3.28 1.18c10.02,1.75 10.99,7.4 15.78,14.2 12.46,17.69 10.5,5.77 17.87,16.08 -5.18,7.53 -15.66,13.99 -22.82,17.07 -5.44,-9.54 0.45,-5.92 -5.88,-16.93 -2.4,-4.16 -4.74,-5.86 -7.39,-10.99l-11.28 -0.49c-4.08,-16.63 -1.26,-4.92 1.73,-9.32l2.44 -0.69 -7.21 -8.1 -0.42 -12.88 12.17 -0.15 1.72 11.02zm19.07 -29.56c4.88,-4.47 -6.46,-4.07 6.53,-3.87l3.82 5.58 2.11 4.11 10.57 -0.2 5.61 -0.64c-2.26,11.86 0.14,1.05 -3.28,8.1 -0.27,0.55 -0.83,1.51 -1.06,1.96 -0.23,0.46 -0.95,2.4 -1.12,1.97 -0.18,-0.43 -0.86,1.27 -1.16,1.98 5.89,8.72 7.3,15.6 17.98,19.73l-0.15 -17.11c7.81,5.7 8.78,6.93 8.58,20.48 -21.15,18.64 -26.35,7.9 -35.83,-4.24 -5.57,-7.13 -7.7,-6.62 -15.19,-10.45 0.73,-5.98 1.41,-25.22 2.58,-27.4zm49.16 -23.47l5.2 0.47c10.46,1.71 6.11,-4.83 16.43,-0.04 5.66,2.63 6.16,6.89 11.97,11.25 8.96,2.48 -4.09,0.8 3.28,0.28 0.5,-0.03 3.59,-1.09 4.44,-1.48l4.74 3.05c0.26,0.25 5.82,0.82 5.96,9.46 0.15,9.48 -4.7,8.03 -6.27,9.03 -6.89,4.9 -4.1,1.55 -10.24,4.43 -17.59,8.24 -7.41,19.21 -30.69,16.82 -3.38,-4.94 -5.66,-6.81 -5.21,-14.48 -0.63,-0.5 -1.45,-1.15 -1.88,-1.51 -0.44,-0.37 -1.41,-1.15 -1.89,-1.57l-3.8 -3.35c-0.35,-1.17 -1.26,-1.18 -1.89,-1.76 -3.07,-7.43 0.13,-13.04 2.1,-18.67l-2.14 -9.51c0.43,-3.52 1.05,-12.02 1.98,-15.29 3.83,-13.38 -0.31,-1.39 4.49,-7.39l9.11 1.11 -5.68 19.14zm-291.9 181.59c-3.54,6.67 -0.16,3.01 -5.36,7.12 -3.75,2.96 -7.66,4.14 -9.99,5.33 -10.21,7.3 -30.01,17.97 -35.73,30.52 3.11,26.53 16.25,16.79 27.26,29.42 12.37,14.2 -1.12,25.82 20.68,37.8 12.6,-1.18 38.58,-20.46 44.84,-28.59l12.53 -8.19c7.85,-6.21 17.13,-13.93 24.94,-17.99l194.95 -144.08c7.44,-5.8 7.45,-3.74 14.53,-7.64 13.32,-7.33 8.63,-11.36 25.29,-19.98 11.73,-6.07 14.12,-10.73 26.51,-18.27 20.04,-12.19 26.35,-36.56 -8.51,-51.62 -2.07,-0.9 -9.49,-5.26 -13.71,-7.96 -11.83,-7.54 -21.76,-38.05 -41.34,-15.19 -7.67,8.95 -5.53,25.86 -9.24,37.87 -3.03,1.23 -1.4,1.47 -6.65,0.63 -9.78,-1.57 -0.3,-0.09 -6.21,-2.01 -4.71,-1.53 -0.15,-5.37 -12.73,-1.62 -9.61,2.87 -14.43,14.64 -19.7,17.8 -23.05,13.83 -28.63,-6.01 -26.48,39.94 -10.37,5.17 -13.66,4.61 -22.14,11.37 -8.02,6.39 -11.1,13.24 -16.06,17.72 -7.66,6.93 -12.67,3.04 -22.89,10.74 -27.71,20.91 -66.92,53.04 -95.91,71.59 -17.76,-8.61 -4.63,-16.18 -38.88,5.29z"/>
   <path class="fil2" d="M361.13 526.45c0.82,3.86 1.73,6.09 -0.17,12.3 -14.77,2.48 -11.54,-11.47 -29.19,-0.12l2.04 18.67c12.47,11.11 10.34,24.26 31.86,16.5 2.94,-15.99 -3.05,-17.3 5.2,-27.05 10.77,-0.9 1.12,-1.14 5.41,4.01 7.64,19.47 -3.32,29.48 -15.74,36.96 -5.36,4.9 4.66,-0.32 -5.13,4.35 -2.95,1.41 -6.52,2.34 -9.77,2.5 -13.92,0.65 -16.09,-6.19 -17.35,-7.53 -27.68,-20.49 -20.33,-53.36 10.92,-62.28l6.5 -8.82 5.3 -1.18c2.71,-6.73 2.3,-3.49 6.61,-6.09l15.69 -10.21c11.54,9.31 21.24,29.36 28.23,36.45 8.88,9.01 4.24,1.21 13.31,8.39 -4.09,6.95 -14.01,15.37 -24.38,17.56 -0.56,-1.22 -3.58,-25.68 -22.11,-38.29l-9.56 -3.1 2.32 6.97zm96.54 -10.61l-14.44 6.25c-3.36,9.05 -7.28,12.33 -19.14,13.74 -9.16,-5.61 -14.29,-13.95 -20.24,-21.74 -12.06,-0.96 -5.8,-0.07 -10.86,-4.39 1.19,-9.73 -1.17,-0.95 5.87,-5.32 2.74,-4.93 4.03,-5.2 8.06,-7.67 2.84,-4.04 -2.34,-4.62 5.41,-2.49 5.64,1.55 1.66,-0.53 4.75,4.09 5.71,15.54 10.24,20.34 21.03,20.05 7.67,-18.56 -16.87,-24.66 -18.73,-25.47 1.37,-8.14 5.11,-13.18 18.73,-16.2 18.7,25.28 8.64,17.08 28.2,27.41 -3.53,9.76 -2.59,4.15 -8.63,11.75zm-19.26 -66.13l14.56 -8.23 9.66 14.04 7.2 -2.52c7.92,-25.08 45.27,-0.38 37.12,23.99 -7.37,16.45 -12.17,2.15 -24.87,18.12 -0.01,0.01 -3.78,5.58 -4.15,6.06 -19.6,-9.27 -22.15,-40.96 -41.92,-41.31 -4.41,-4.91 -4.47,6.41 -3.8,-6.69l6.2 -3.45zm107.1 -18.92c5.46,-3.01 -6.91,-6.13 6.54,-2 3.47,12.08 3.77,11.7 -4.28,21.63 -10.9,7.56 -11.86,12.9 -31.22,8.71 -36.08,-24.64 7.64,-67.32 28.95,-36.28 -7.09,13.41 -15.94,9.55 -20.39,22.24l11.05 2.84c10.41,-9.84 1.31,-8.01 9.36,-17.14zm-155.03 60.75c-10.3,-4.58 -6.43,-10.48 -21.09,-6.48l-52.44 35.09c-25.37,17.79 -26.6,55.96 2.3,77.59 13.03,9.75 30.32,11.59 47.06,2.69 15.26,-8.12 15.17,-16.8 32.59,-26.39l118 -86.31c9.44,-13.45 -0.97,-8.04 14.77,-13.36 70.69,-23.9 18.14,-93.59 -21.71,-72 -24.14,13.08 -8.78,21.8 -31.72,27.43 -28.11,6.9 -13.32,-15.14 -42.01,5.19 -25.57,18.11 -14.74,9.35 -15.57,34.4l-30.18 22.17z"/>
   <path class="fil2" d="M79.31 723.04l-1.24 10.15c10,1.33 8.14,-0.07 18.27,-4.63 0.03,0 43.01,-9.71 32.7,23.46 -4.29,13.8 -20.05,18.35 -27.87,23.06 -9.52,5.75 0.99,2.1 -10.46,6.88 -6.77,-6.02 -10.89,-9.18 -10.88,-19.83 14.72,-1.09 30.86,9.82 33.32,-11.51 -14.45,-7.08 -47.36,21.11 -52.89,-9.09 -4.09,-22.33 19.02,-26.85 36.05,-40.18 6.89,4.14 11.11,8.97 12.69,17.41 -7.64,4.45 -14.69,0.06 -29.71,4.28zm102.61 -26.42c-4.54,-1.21 -2.71,-1.65 -3.67,3.93 3.33,22.3 -1.92,21.3 -17.5,30.46 3.66,7.65 1.36,8.11 12.04,8.58 5.81,4.25 3.67,-5.8 5.3,5.84l-9.13 6.75 -10.84 5.32c-3.74,4.77 6.47,5.15 -8.51,4.14 -2.48,-16.85 -0.44,-4.79 2.41,-9.4l-23.98 -34.73 -11.58 -0.88c-5.68,-17.17 -1.52,-5.14 1.68,-9.43 4.38,-2.11 7.57,-4.07 11.9,-6.59 9.96,-5.78 3.39,-0.66 11.07,-8.97 11,-11.91 14.12,-10.21 26.99,-3.14 3.59,-7.4 -1.27,-10.95 4.64,-20.81 3.16,-5.27 0.69,-1.59 5.52,-4.72 5.71,-5.37 15.65,-14.21 29.73,-10.9 8.94,2.1 17.12,11.9 17.1,22.9 -0.04,17.36 -25.68,36.82 -43.17,21.64zm92.16 -103.15c4.18,-2.54 -6.73,-6.06 9.34,-1.91 3.79,15.05 1.4,4.04 -2.49,8.36l-5.16 5.02c3.83,7.23 10.45,18.97 18.76,21.34 -0.27,-14.1 -5.97,-6.73 -2.11,-16.33 18.42,5.12 13.22,27.98 -11.21,29.53 -10.42,-6.31 -11.97,-11.46 -18.66,-19.96l-7.81 -1.09c4.44,13.2 6.48,5.39 -0.92,14.48 -0.61,0.66 -1.51,1.36 -2.05,1.76l-5.95 3.89c-9.8,7.17 1.16,-8.54 -3.26,3.67 9.07,18.9 8.13,7.03 18.03,13.13 -3.22,8.96 -14.32,14.16 -20.4,18.95 -0.04,0.03 -1.32,8.9 -8.31,-1.2 3.83,-13.25 -4.33,-17.96 -9.06,-25.48l-10.78 -1.09c-3.68,-16.03 -0.97,-5.03 1.98,-9.09 8.64,-4.74 19.34,-9.88 22.39,-18.71 2.91,-2.41 2.43,-2.17 7.63,-4.42 11.88,-5.15 -1.21,2.2 5.72,-1.02 10.28,-17.23 -2.56,-18.23 3.9,-25.4 6.71,-7.45 9.63,2.86 16.49,8.29l3.94 -2.73zm-68.41 32.05c-3.01,5.71 -0.47,2.62 -3.88,6.52 -3.71,4.23 -0.71,0.96 -6.23,4.13 -7.89,5.27 -15.77,6.68 -22.09,12.25 -7.86,6.93 -8.01,14.84 -16.9,19.27 -11.76,5.85 -11.11,0.43 -24.44,12.21 -6.16,5.45 -12.5,10.26 -19,14.09 -21.16,-16.26 -18.06,-7.28 -38.07,4.64 -37.33,22.24 -37.16,40.47 -14.02,67.57 28.74,33.65 15.56,40.26 54.29,17.49 8.35,-4.91 12.51,-7.19 20.16,-15.95 15.02,6.42 13.29,15.01 32.5,1.24 48.76,-34.97 4.39,-26.56 26.03,-48.8 3.02,-3.11 17.75,-6.63 26.8,-13.19 9.94,-7.2 9.25,-11.48 18.76,-17.34 18.1,-11.15 33.73,-15.77 37.11,-36.06 26.92,-0.27 53.15,-19.09 35.72,-46.41l-21.67 -25.83c-2.31,-2.08 -59.51,-31.23 -51.79,20.87 -14.16,7.54 -18.69,17.05 -33.28,23.3z"/>
   <path class="fil4" d="M760.27 753.98l-2.49 10.52c-6.68,1.2 -2.5,2.08 -11.71,1.06 -1.06,-0.12 -4.41,-0.79 -5.38,-1.08 -4.73,-1.43 -4.31,-2.12 -6.5,-3.6l-1.45 1.99c-10.8,-1.55 -13.85,-0.63 -19.29,-9.44 -9.34,-1.57 -13.98,-7.16 -17.94,-14.02 11.36,-18.28 11.77,-2.53 13.78,-34 30.66,-2.07 57.51,6.87 64.21,31.2 -4.35,7.31 -7.93,8.84 -13.21,17.37zm-28.53 16.27l28.46 3.85 4.96 4.42c3.77,7 3.44,2.34 6.07,11.04l-42.75 -2.54c-3.01,-0.34 -6.09,-0.04 -8.99,-1.02 -8.5,-2.87 -4.31,-1.98 -7.14,-4.83l-8.26 -1.62c-2.36,-0.65 -4.4,-0.71 -7.12,-1.98 -10.88,-5.1 -3.85,-1.98 -7.6,-5.21 -21.71,-5.36 -42.59,-25.83 -37.11,-56.88 9.78,1.82 14.45,20.13 31.69,35.81 7.61,6.92 34.77,23.31 47.78,18.97zm-184.4 -168.61c5.18,7.05 18.78,17.64 29.74,20.82 24.3,7.05 23.65,-1.8 33.63,22.92 -20.08,-0.08 -32.17,-7.39 -43.11,-7.6l-11.91 -8.43c-7.33,-3.71 -7.34,-4.7 -13.39,-9.45 -3.13,-4.22 -2.66,1.22 -3.82,-9.21 -0.15,-1.37 0.96,-8.78 1.17,-10.69 14.86,-6.73 2.69,-2.2 7.69,1.64zm-25.5 24.06c7.91,5.1 4.89,2.9 8.79,9.52 7.15,2.45 7.76,6.26 15.05,10.41 6.83,3.89 11.42,4.65 19.06,9.13 18.1,10.62 23.81,9.16 47.54,5.93 5.77,-2.46 -7.33,-4.53 6.93,-1.28 5.64,1.29 2.33,-2.76 4.86,5.19 2.97,8.48 11.37,16.82 16.13,24.13 16.43,25.28 -25.26,48.49 27.72,86.93 54.03,39.2 116.66,23.58 135.96,30.77 0.62,-0.7 1.6,-1.82 1.97,-2.24l2.99 -3.45c0.41,-0.47 1.21,-1.4 1.83,-2.1 -9.83,-4.11 -23.66,-14.07 -32.32,-21.36 -16.09,-13.55 -11.4,-13.28 -6.87,-29.47 6.39,-5.28 -3.08,-1.71 11.52,-5.56 6.38,-1.68 9.5,4.47 5.28,-2.09 -9.51,-17.83 -4.94,-22.87 -22.72,-34.35 -9.74,-6.3 -30.1,-14.23 -43.2,-13.99 -4.94,0.11 -11.13,-0.38 -15.61,-0.01 -11.37,0.93 -7.19,-1.28 -11.29,4.02 4.96,15.27 3.22,24.92 -13.65,28.66 -24.94,-11.91 -49.7,-71.15 -70.54,-97.58 -0.64,-0.78 -5.14,0.24 -5,-10.87 0.18,-13.88 1.38,-5.75 4.07,-8.46l-2.33 -2 -1.8 -1.88c-0.49,0.27 -1.18,0.29 -1.34,0.99 -0.16,0.71 -1.1,0.84 -1.32,1.06l-8.58 10.5c-24.71,-0.9 -42.67,-27.58 -58.83,-32.96l-6.7 23.34 -27.44 -0.28c3.7,7.73 14.24,15.96 19.83,19.34z"/>
   <path class="fil5" d="M608.02 605.57l2.33 2 0.93 19.33c20.85,26.44 45.6,85.67 70.54,97.58 16.87,-3.74 18.61,-13.38 13.65,-28.66 -2.2,-2.07 -2.23,-1.61 -4.54,-4.63 -0.5,-0.65 -1.78,-2.75 -2.23,-3.47 -1.31,-2.12 -2.85,-5.58 -5.1,-9.41l-2.21 -8.58c-4.6,-2.2 -3.6,6.05 -4.76,-2.15l-0.3 -6.43c-4.46,-2.8 -3.34,6.42 -4.57,-2.46l-0.76 -6.86c-3.62,-1.84 -2.49,-0.21 -6.35,-4.6 -0.22,-0.25 -2.81,-4.38 -3.2,-4.98 -3.4,-5.15 -5.04,-7.45 -7.9,-11.54 -4.91,-8.52 -11.84,-18.73 -17.69,-24.67 -9.81,-9.98 -17.98,-6.09 -27.84,-0.47z"/>
   <path class="fil5" d="M810.67 798.63c1.46,5.31 7.36,7.71 14.67,13.01 6.98,5.06 10.8,7.97 17.8,13.11 12.38,9.09 26.7,23.9 39.56,10.44l2.49 -17.7c-2.25,-3.2 -3.07,-3.61 -5.3,-7.73 -7.18,-3.14 -2.43,0.2 -7.07,-3.31 -5.35,-4.05 -4.35,-4.35 -7,-7.52l-10.5 -6.19c-11.77,-6.29 -33.34,-23.29 -42.67,-32.97 -4.32,-2.36 -7.91,-4.97 -12.85,-8.09 -11.59,-4.09 -14.45,-6.22 -28.33,-3.85 -4.53,16.19 -9.22,15.92 6.87,29.47 8.66,7.29 22.49,17.25 32.32,21.36z"/>
   <path class="fil6" d="M393.03 322.09l5.62 8.94 -15.25 1.3 2.01 12.98 -0.46 1.93c2.56,4.51 4.94,-7.77 2.5,10.41 -7.74,-2.61 -5.52,-2.92 -8.41,-6.08 -6.94,-5.18 -24.13,-21.05 -30.17,-21.52 -0.54,-0.23 -8.08,-3.1 -8.09,-3.11 -7.25,-3.94 -2.82,-1.02 -6.52,-5.32 -4.58,-7.86 -9.02,-10.12 -17.06,-16.42 5.27,-6.09 10.95,-8.43 20.12,-9.08 27.32,-1.94 41.27,23.28 55.72,25.97zm-226.37 -134.54l5.32 3.25c12.24,-7.77 25.15,-7.17 36.71,3.28 22.72,11.86 33.23,24.67 43.97,43.29 0.5,0.55 1.26,1.19 1.57,1.59l6.27 12.69 -2.55 2.11c2.51,2.57 2.94,-0.1 4.31,9.28 0.97,6.64 0.13,4.82 -0.84,10.56 -3.48,3.94 -2.92,5.04 -4.35,7.51 11.51,3.51 30.47,14.72 45.15,22.44 21.45,11.28 36.32,15.46 20.53,40.84l3.31 -0.61 11.19 -8.86c25.02,10.12 40.82,30.94 63.06,41.42l-6.8 -33.42 24.43 -3.34c-5.02,-11.83 -18.03,-19.37 -27.4,-28.82 -45.07,-45.43 -54.34,-20.29 -79.45,-13.82 -15.13,3.9 -39.93,-14 -41.07,-16.34 -4.12,-8.44 7.91,-37.38 -31.43,-75.68 -31.73,-30.89 -31.51,-24.2 -79.01,-27.55l-10.74 -14.23c-6.07,-3.43 -0.28,-4.45 -5.25,0.06 3.63,6.13 17.3,21.66 23.07,24.33z"/>
   <path class="fil7" d="M881.06 807.48c6.04,2.07 14.82,4.08 25.99,5.02 6.98,1.52 2.69,0.2 7.62,2.58 0.52,0.25 1.46,2.12 1.84,1.53 0.37,-0.59 1.07,1.17 1.63,1.74 13.55,7.6 29.75,26.3 35.43,46.07 2.32,2.71 1.88,-1.52 4.74,7.54 3.47,11.02 2.74,22.72 -4.8,31.08 -16.38,26.52 -44.84,22.43 -63.04,0.29 -5.36,-6.52 -15.26,-19.7 -20.12,-30.01 -9.46,-20.09 -3.45,-15.22 -18.58,-30.42 -5.45,4.35 -6.61,-4.47 -2.21,14.34 -0.71,9.63 5.04,15.55 8.2,24.03 3.09,2.7 1.93,1.23 4.91,5.22 2.38,3.18 -0.16,-0.99 2.05,4.7 13.6,20.44 20.72,30.59 41.8,44.93 18.14,3.2 20.82,4.77 38.57,-2.52 33.77,-12.46 29.88,-54.82 12.18,-85.82 -7.92,-13.87 -18.48,-26.51 -28.77,-35.66 -14.7,-13.06 -23.13,-14.87 -48.19,-17.83l-3.95 6.75c8.8,5.93 0.35,-0.47 4.7,6.44z"/>
   <path class="fil5" d="M242.96 311.16c5.02,1.18 5.88,0.78 9.85,2.8 8.73,4.43 3.99,2.76 6.84,5.55 10.04,5.05 18.05,9.53 28.61,15.08 18.33,9.62 17.1,5.51 34.48,9.82 15.79,-25.38 0.92,-29.56 -20.53,-40.84 -14.69,-7.72 -33.64,-18.93 -45.15,-22.44l-14.44 -7.94c-0.41,-0.28 -1.33,-0.56 -1.62,-1.51 -0.29,-0.96 -1.03,-1.08 -1.54,-1.62l-16.52 1.31c-14,24.05 -1.13,30.2 20.02,39.81z"/>
   <path class="fil5" d="M183.37 210.98c-4.66,-4.82 -9.07,-6.98 -16.72,-23.43 -5.77,-2.68 -19.44,-18.21 -23.07,-24.33 -6.16,-3.91 -3.33,-0.12 -4.21,-6.59 -5.47,-3.53 -3.49,-1.98 -8.4,-6.6 -3.71,-3.5 -3.95,-4.21 -6.68,-7.09 -7.17,-7.57 -9.22,-7.95 -22.35,-5.75 -7.38,22.63 -22.3,4.18 30.73,64.4 7.39,8.39 17.96,23.04 25.87,30.38 13.65,12.66 27.77,2.72 24.83,-20.98z"/>
   <path class="fil8" d="M889.31 850.68c-2.44,3.32 -1.24,2.13 -4.62,5.18 -4.25,3.83 3.45,-1.57 -4.41,2.51 0.62,14.63 15.7,35.99 23.31,43.05 12.16,11.28 38.01,10.82 38.92,-8.17 3.85,-16.54 0.57,-17.59 -2.99,-32.22 -8.62,-11.53 -17.16,-25.22 -36.38,-27.38 -6.01,8.2 -6.54,12.61 -13.82,17.03z"/>
   <path class="fil9" d="M581.98 364.37c-3.31,-4.18 -1.41,0.07 -3.33,-6.32 -0.19,-0.64 0.15,-5.22 0.24,-6.11l-6.56 1.92c-3.48,1.71 -7.5,4 -11.3,6.87 -8.57,6.48 -6.29,1.92 -8.99,11.7 14.94,6.75 7.74,-3.51 22.86,17.31 13.21,18.18 11.15,26.61 11.15,26.6 0.05,-0.39 0.18,1.41 0.52,2.02 9.64,-3.7 21.65,-11.34 26.17,-20.72 -0.62,-0.46 -1.54,-0.91 -1.98,-1.19 -0.44,-0.27 -1.41,-0.84 -1.94,-1.18 -0.52,-0.32 -1.33,-0.79 -1.88,-1.15 -9.06,-5.91 -7.78,-5.19 -12.53,-14.12l8.19 -6.8c5.15,-4.61 -6.27,-4.14 6.84,-4.05l3.51 6c3.56,7.33 2.85,13.41 7.85,20.03l23.84 -16.92 0.55 -6.77c-13.62,0.85 -8.16,4.13 -14.75,-5.11 -33.62,-48.82 -10.32,-20.82 -18.64,-39.48 -11.08,2.64 -22.85,10.72 -27.96,21.01 8.57,5.26 11.1,3.07 17.22,13.31 -3.16,4.87 1.29,0.19 -5.46,6.21 -2.55,2.28 -3.71,2.56 -6.85,4.67l-6.75 -7.73z"/>
   <path class="fil10" d="M585.97 543.15l17.83 4.73c-0.03,-0.81 -0.71,-12.65 -0.67,-13.03 0.98,-8.62 -0.42,-1.53 3.62,-6.4l5.09 9.25c6.19,0.66 4.02,0.94 9.93,6.56 4,3.8 6.05,5.94 10.01,9.88 6.28,6.25 12.56,11.82 14.63,20.36 5.14,4.09 0.86,-4.07 6.06,6.44 0.34,0.69 2.59,9.06 2.69,9.88 1.18,9.29 -0.13,15.1 -4.16,22.24 -8.54,-2.44 -1.9,2.11 -6.38,-6.04 -7.33,-9.26 -8.46,-7.25 -17.33,-14.89 -6.4,-5.51 -7.74,-9.54 -14.24,-16.44 -10.48,-11.11 -20.98,-22.52 -32.82,-27.63l-4.31 -7.58c18.11,-3.53 5.12,-0.79 10.05,2.67zm-9.73 -12.38l-20.75 -2.17 -5.84 3.41c6.86,1.49 10.44,7.52 15.9,12.68 5.86,5.53 10.19,9.14 16.25,14.7 9.47,8.69 24.93,21.64 30.21,31.55 -2.57,6.94 -2.97,6.62 -5.79,12.75l1.8 1.88c9.86,-5.62 18.03,-9.5 27.84,0.47 5.85,5.95 12.78,16.16 17.69,24.67l3.01 -3.92c5.42,-34.34 19.89,-43.59 -8.33,-72.32 -14.28,-14.54 -34.88,-30.27 -52.23,-44.04 -7.43,0.84 -2.63,-2.68 -5.95,2.05 1.42,11.38 2.77,10.6 -2.17,20.87 -8.99,2.09 -5.53,3 -11.65,-2.6z"/>
   <path class="fil8" d="M713.44 753.43l19.29 9.44 1.45 -1.99 20.41 2.24c3.69,-10.53 4.38,-7.39 5.67,-9.15 5.28,-8.53 8.87,-10.06 13.21,-17.37 -6.7,-24.33 -33.55,-33.27 -64.21,-31.2 -2.01,31.47 -2.42,15.72 -13.78,34 3.96,6.86 8.61,12.45 17.94,14.02z"/>
   <path class="fil11" d="M727 262.15c-10.46,10.19 0.32,3.37 -13.76,9.97 -8.5,3.99 -7.83,1.72 -10.82,10.52 -4.32,9.17 -3.88,4.92 -14.99,7.46 -6.39,9.23 -4.97,0.41 -8.76,12.3 11.78,5.63 13.63,3.19 18.21,17.57 5.91,4.92 3.86,-3.89 4.85,11.91l4.63 -0.89 14.63 -8.01 0.53 -8.05c-12.01,-3.19 -1.63,0.4 -6.67,-5.47 -6.01,-4.56 -12.83,-12.3 -7.83,-21.47 8.66,2.51 2.97,-2.02 10.27,7.13 4.22,5.28 3.76,5.27 5.68,9.96 4.12,5.02 2.49,-7.15 3.72,8.85l6.08 -1.38 11.28 -5.96 1.8 -7.85c-11.28,-5.76 -3.02,-0.86 -7.64,-6.97 -5.88,-5.67 -10.04,-9.79 -10.45,-19.6 12.42,-1.76 13.64,5.56 17.17,13.34l3.04 3.71c6.28,7.62 -0.12,3.5 7.51,7.13l16.59 -13.54c-6.75,-10.34 -0.32,-0.03 -9.54,-7.78 -11.89,-9.99 -9.4,-19.04 -26.67,-20.79l-8.88 7.93z"/>
   <path class="fil9" d="M96.35 728.55c-2.16,2.78 1.25,4.82 -9.34,7.93 -9.48,2.79 -5.24,0.82 -11.36,-1.62 -1.46,-10.72 -1.88,-5.25 3.67,-11.82 15.02,-4.22 22.07,0.17 29.71,-4.28 -1.58,-8.44 -5.81,-13.27 -12.69,-17.41 -17.03,13.33 -40.13,17.85 -36.05,40.18 5.53,30.2 38.44,2.01 52.89,9.09 -2.46,21.34 -18.6,10.42 -33.32,11.51 -0.02,10.65 4.11,13.81 10.88,19.83 11.44,-4.79 0.94,-1.14 10.46,-6.88 7.82,-4.72 23.58,-9.27 27.87,-23.06 10.3,-33.18 -32.68,-23.46 -32.7,-23.46z"/>
   <path class="fil5" d="M185.99 229.55c0.76,11.61 -3.53,7.64 -17.86,18.29 -0.34,0.25 -1.1,0.83 -1.57,1.33 6.18,13.06 18.61,26.74 33.42,30.43 9.48,-8.5 11.62,-18.76 25.11,-16.81 5.1,-12.14 3.52,-10.78 -0.91,-24.74 -4.47,-10.58 -12.05,-17.41 -23.45,-21.53l-8.48 -2.05c-0.45,5.04 0.46,4.17 -1.3,9.11 -2.79,7.81 1.16,0.46 -4.96,5.97z"/>
   <path class="fil7" d="M158.46 710.96c5.3,5.09 9.83,-0.76 2.31,11.98 -11.64,-0.98 -4.6,0.12 -8.44,-5.59 -7.56,-3.51 -9.75,-8.14 -7.58,-18.8 9.4,0.97 13.06,5.45 13.71,12.4zm-40.32 -3.76l-0.49 7.4c18.29,-1.42 5.71,-0.68 10.39,2.91l23.98 34.73 -0.81 7.45 6.92 -2.19 10.84 -5.32c5.02,-7.32 6.88,-4.16 3.83,-12.59 -10.69,-0.46 -8.38,-0.93 -12.04,-8.58 15.58,-9.16 20.83,-8.16 17.5,-30.46 -1.64,-1.32 -3.54,-2.06 -6.6,-5.72 -4.04,-4.82 0.05,0.74 -3.55,-6.32 -12.88,-7.07 -15.99,-8.78 -26.99,3.14 -7.68,8.31 -1.11,3.18 -11.07,8.97 -4.33,2.52 -7.52,4.48 -11.9,6.59z"/>
   <path class="fil9" d="M339.2 524.77c-31.25,8.92 -38.6,41.79 -10.92,62.28 16.78,6.2 15.51,5.61 32.26,0.68 12.42,-7.48 23.38,-17.5 15.74,-36.96l-5.66 0.75c-3.77,9.68 5.7,11.35 -4.95,22.29 -21.53,7.76 -19.39,-5.39 -31.86,-16.5 -1.8,-2.64 -4.38,-4.95 -5.04,-8.85 -2.73,-15.97 -0.09,-6.81 3,-9.83 17.65,-11.35 14.42,2.6 29.19,0.12 1.89,-6.22 0.98,-8.44 0.17,-12.3 -5.84,-3.56 -0.56,2.59 -7.27,-5.38 -3.77,-4.48 0.11,0.93 -2.85,-6.31l-5.3 1.18c-4.16,13.17 -1.04,5.28 -6.5,8.82z"/>
   <path class="fil11" d="M471.56 458.98c13.74,-0.11 20.18,9.08 19.01,22.02 -13.65,-0.33 -16.53,-8.93 -19.01,-22.02zm-33.16 -9.27c-2.52,5.33 -1.98,3.3 -2.4,10.15 19.77,0.35 22.32,32.04 41.92,41.31 0.37,-0.49 4.14,-6.05 4.15,-6.06 12.7,-15.97 17.5,-1.67 24.87,-18.12 8.15,-24.37 -29.2,-49.06 -37.12,-23.99 -0.78,5.1 2.2,2.82 -2.39,3.77 -6.95,1.44 -0.48,4.16 -4.81,-1.25l-9.66 -14.04 -14.56 8.23z"/>
   <path class="fil9" d="M603.8 547.88l-17.83 -4.73c-7.28,0.19 -5.74,-1.83 -5.74,4.91 11.84,5.11 22.34,16.52 32.82,27.63 6.5,6.9 7.84,10.93 14.24,16.44 8.87,7.64 10,5.63 17.33,14.89l5.31 1.42c3.75,-14.81 1.23,-21.31 -3.52,-33.94 -2.07,-8.54 -8.35,-14.11 -14.63,-20.36 -3.96,-3.94 -6.02,-6.08 -10.01,-9.88 -5.91,-5.62 -3.74,-5.9 -9.93,-6.56l-5.48 -4.04c1.2,8.5 0.8,9.29 -2.57,14.23z"/>
   <path class="fil7" d="M689.39 772.35c9.71,2.17 8.72,1.29 14.72,7.19l8.26 1.62 16.13 5.85 42.75 2.54c-2.63,-8.71 -2.31,-4.04 -6.07,-11.04 -10.17,-3.13 -5.53,-1.31 -16.18,-1.87 -2.64,-0.14 -5.83,0.09 -8.43,-0.66 -12.42,-3.56 -3.73,-0.06 -8.82,-5.74 -13.01,4.34 -40.17,-12.05 -47.78,-18.97 -17.24,-15.68 -21.91,-33.99 -31.69,-35.81 -5.48,31.05 15.41,51.52 37.11,56.88z"/>
   <path class="fil5" d="M334.25 321.62c0.19,0.06 6.77,1.74 6.78,1.74 10.3,5.51 2.68,-0.24 7.84,6.68 6.04,0.47 23.22,16.34 30.17,21.52 10.03,2.66 3.65,2.59 5.91,-4.33l0.46 -1.93c-1,-1.19 -3.39,2.96 -4.71,-7.96 -1.01,-8.38 1.42,-4 2.7,-5.01 12.31,-7.75 7.79,3.91 9.62,-10.23 -14.45,-2.69 -28.4,-27.91 -55.72,-25.97 -9.16,0.65 -14.85,2.98 -20.12,9.08 8.04,6.31 12.48,8.56 17.06,16.42z"/>
   <path class="fil7" d="M417.07 498.31l-10.15 -1.59c-4.02,2.47 -5.32,2.74 -8.06,7.67l-3.03 6.21c14.1,0.19 4.11,-0.69 8.02,3.51 5.95,7.79 11.07,16.13 20.24,21.74 11.86,-1.41 15.78,-4.7 19.14,-13.74 5,-4.56 -0.88,-1 6.19,-4.29 3.48,-1.62 3.96,-0.88 8.24,-1.96 6.04,-7.61 5.1,-1.99 8.63,-11.75 -19.56,-10.32 -9.5,-2.12 -28.2,-27.41 -13.62,3.02 -17.36,8.06 -18.73,16.2 1.86,0.81 26.4,6.91 18.73,25.47 -10.78,0.29 -15.32,-4.51 -21.03,-20.05z"/>
   <path class="fil11" d="M894.48 171.33c4.07,-3.47 -6.53,-6.94 7.27,-2.27 5.72,16.61 0.19,8.54 -1.79,11.19l-4.76 1.09 -0.73 -10.01zm-10.46 -28.6c-6.66,10.4 -3.26,7.28 -12.97,11.46 -1.96,5.63 -5.17,11.23 -2.1,18.67l9.69 1.07c2.95,-4.07 3.59,-3.48 6.45,-5.21 -5.01,-8.92 -3.93,-4.65 -7.62,-12.84 13.88,-4.15 20.92,6.47 8.23,12.87 -1.48,4.69 0.11,2.93 -2.51,7.04 -2.77,4.34 -1.9,2.53 -4.76,5.26 -0.45,7.67 1.83,9.54 5.21,14.48 23.27,2.39 13.1,-8.58 30.69,-16.82 6.14,-2.88 3.35,0.47 10.24,-4.43 4.59,-10.02 3.98,-7.38 0.31,-18.49l-4.74 -3.05 0.48 5.13c0.24,0.69 0.95,1.61 1,1.94 2.46,16.82 2.63,-1.05 -2.59,6.19l-3.83 -6.47 -2.78 -5.6c-5.81,-4.36 -6.31,-8.62 -11.97,-11.25 -10.32,-4.79 -5.97,1.75 -16.43,0.04z"/>
   <path class="fil7" d="M783.55 255.4c1.54,-8.71 3.02,-4.56 4.72,-5.91 6.45,8.19 7.18,9.43 -2.8,12.52 -0.73,-1.23 -3.22,0.7 -1.92,-6.62zm-24.34 -1.42c9.93,-0.26 12.29,-0.25 12.52,-10.99l-6.99 -2.23c-1.47,-6.15 -2.6,-4.53 3.84,-4.53 13.65,-2.98 13.53,5.91 9.76,12.4 -3.95,7.01 1.63,0.86 -5.29,7.79 -2.85,2.85 -1.81,1.17 -5.59,3.47l3.12 15.27c8.31,2.38 11.49,4.01 19.22,-2.02l7.68 -9.23c6.4,-5.97 27.75,-8.82 19.37,-23.38 -5.76,-10.01 0.71,-3.14 -8.6,-5.99l1.69 10.78c-7,-3.5 -4.43,-1.43 -9.25,-9.99 -7.17,-10.69 -13.51,-17.1 -28.67,-7.97 -9.68,5.83 -18.66,14.85 -12.81,26.62z"/>
   <path class="fil7" d="M189.41 664.52c12.84,-0.56 20,10.31 19.29,24.92 -13.34,-0.51 -22.49,-10.03 -19.29,-24.92zm-11.15 -1.53c-3.02,6.5 -5.59,9.39 -4.77,17.62 0.79,7.99 6.4,12.62 8.43,16.01 17.48,15.18 43.13,-4.28 43.17,-21.64 0.02,-11 -8.15,-20.8 -17.1,-22.9 -14.08,-3.3 -24.02,5.53 -29.73,10.9z"/>
   <path class="fil7" d="M140.55 256.68c2.48,2.48 1.88,1.41 4.49,5.52 2.79,4.41 -1.67,-6.16 1.74,5 9.8,14.46 33.44,44.21 55.17,45.38l18.37 0.89 -3.22 -6.27c-15.74,-6.74 -49.85,-29.02 -54.67,-44.27 -5.62,-4.11 -5.7,-1.62 -7.59,-11.93 -4.24,-12.21 -5.48,-16.81 -16.82,-22.39l2.54 28.07z"/>
   <path class="fil11" d="M516.93 434.05c-1.21,-10.44 -1.82,-4.61 2.45,-11.76l8.09 1c-1.09,10.01 -1.17,8.8 -10.54,10.77zm30.84 16.38c0.23,-1.05 2.71,-9.91 2.67,-11.09 -0.44,-13.07 2.09,-4.86 -4.93,-8.54 -8.04,9.13 1.06,7.3 -9.36,17.14l-11.05 -2.84c4.45,-12.69 13.3,-8.83 20.39,-22.24 -21.31,-31.04 -65.02,11.63 -28.95,36.28 19.37,4.2 20.33,-1.14 31.22,-8.71z"/>
   <path class="fil11" d="M249.76 613.31c3.83,1.27 2.95,0.15 6.6,2.01 4.92,2.51 2.99,1.54 6.21,4.2 6.68,8.5 8.23,13.65 18.66,19.96 24.42,-1.55 29.63,-24.41 11.21,-29.53 -3.87,9.6 1.83,2.23 2.11,16.33 -8.31,-2.37 -14.93,-14.12 -18.76,-21.34l5.16 -5.02 0.73 -7.37 -7.57 0.91 -3.94 2.73c-6.86,-5.43 -9.78,-15.74 -16.49,-8.29 -6.46,7.17 6.38,8.17 -3.9,25.4z"/>
   <path class="fil11" d="M722.37 691.81c13.1,-0.24 33.46,7.69 43.2,13.99 17.77,11.49 13.21,16.53 22.72,34.35l13.06 3.03 -1.76 -14.96c-15.28,-28.13 -9.54,-16.9 -33.74,-34.51l-9.81 -2.35c-6.95,-1.32 -2.22,-0.03 -7.71,-2.26 -0.58,-0.24 -1.71,-0.34 -2.14,-1.39 -0.44,-1.06 -1.34,-1.07 -2.03,-1.58l-12.05 -4.37 -8.58 -1.47 -31.31 -1.13c9.52,19.58 12.25,2.71 30.15,12.66z"/>
   <path class="fil11" d="M852.69 171.36l-5.59 4.75c-8.6,-0.32 -2.62,1.39 -4.99,-4.55l-2.11 -4.11 -10.36 -1.71c-1.17,2.18 -1.84,21.42 -2.58,27.4 7.49,3.83 9.62,3.32 15.19,10.45 9.49,12.14 14.69,22.88 35.83,4.24 0.19,-13.55 -0.77,-14.77 -8.58,-20.48l0.15 17.11c-10.68,-4.13 -12.08,-11 -17.98,-19.73 0.3,-0.7 0.98,-2.41 1.16,-1.98 0.17,0.43 0.89,-1.51 1.12,-1.97 0.23,-0.45 0.8,-1.41 1.06,-1.96 3.42,-7.06 1.02,3.75 3.28,-8.1l-5.61 0.64z"/>
   <path class="fil7" d="M357.62 508.68l-1.39 7.43c1.75,0.11 6.27,0.4 7.78,1.07 6.69,2.98 0.25,-1.66 4.35,5.41 18.53,12.62 21.55,37.08 22.11,38.29 10.37,-2.2 20.29,-10.61 24.38,-17.56 -9.08,-7.18 -4.43,0.62 -13.31,-8.39 -6.99,-7.09 -16.69,-27.14 -28.23,-36.45l-15.69 10.21z"/>
   <path class="fil11" d="M207.76 207.13c10.27,0.81 31.2,21.48 31.46,31.06 11.27,9.52 9.42,15.14 8.18,31.33l5.33 1.57c13.3,2.1 3.1,1.21 7.22,-2.31l-1.99 -15.01 2.55 -2.11c-2.99,-2.72 -2.06,-0.29 -4.61,-4.91 -1.98,-3.58 -2.03,-5.25 -3.23,-9.37 -10.75,-18.62 -21.26,-31.43 -43.97,-43.29l-31.75 -5.23c2.49,11.78 -0.11,10.7 11.91,12.08 11.34,1.3 12.52,-2.09 18.92,6.2z"/>
   <path class="fil11" d="M214.02 637.46l-0.81 6.71c17.09,0 4.7,-0.61 9.61,3.47 4.73,7.52 12.89,12.23 9.06,25.48l8.31 1.2c6.07,-4.79 17.18,-9.99 20.4,-18.95 -9.9,-6.1 -8.95,5.77 -18.03,-13.13 -2.88,-2.46 -6.36,3.63 -5.74,-14.69 8.8,3.11 2.13,0.44 10.76,6.84l6.24 -1.48 -3.18 -14.7 -14.24 0.54c-3.05,8.82 -13.75,13.97 -22.39,18.71z"/>
   <path class="fil12" d="M744.16 686.13l11.88 1.66 9.81 5.92c24.21,17.61 18.46,6.38 33.74,34.51 2.75,3.2 2.37,-0.06 4.79,6.83 2.73,7.78 -2.91,13.51 -4.58,16.6 4.95,3.12 8.54,5.74 12.85,8.09 4.14,-3.38 2.4,-0.08 3.8,-6.41 0.5,-2.26 0.57,-5.84 0.43,-8.17 -0.3,-5.04 -2.33,-11.8 -3.38,-17.09 1.04,-12.47 -13.63,-20.59 -19.65,-28.18 -5.78,-1.87 -9.25,0.06 -10.73,-8.09 -14.41,-1.78 -23.09,-11.93 -40.75,-12.34l-10.28 2.3 12.05 4.37z"/>
   <path class="fil9" d="M542.3 619.89c6.04,4.75 6.06,5.74 13.39,9.45 3.67,1.51 3.02,0.67 6.48,2.95 4.54,2.98 2.07,1.59 5.44,5.48 10.94,0.2 23.02,7.52 43.11,7.6 -9.98,-24.72 -9.33,-15.87 -33.63,-22.92 -10.96,-3.18 -24.56,-13.77 -29.74,-20.82 -5.83,4.46 -3.55,-0.16 -5.68,8.81 -0.6,2.55 0.44,6.96 0.64,9.45z"/>
   <path class="fil13" d="M300.24 388.32l5.39 9.31c11.22,8.81 10.17,12.32 28.14,4.76 -4.71,-11.75 -15.11,-12.35 -21.74,-26.82 -8.53,-18.62 -0.17,-24.76 -25.45,-28.47 2.29,23.91 5.2,22.06 13.66,41.22z"/>
   <path class="fil11" d="M804.32 205.41l-2.44 0.69 -0.76 7c18.61,-1.43 5.4,-0.85 10.3,2.81 2.65,5.12 4.99,6.82 7.39,10.99 6.33,11 0.45,7.39 5.88,16.93 7.16,-3.07 17.64,-9.53 22.82,-17.07 -7.37,-10.32 -5.41,1.61 -17.87,-16.08 -4.79,-6.8 -5.76,-12.46 -15.78,-14.2l-9.54 8.94z"/>
   <path class="fil7" d="M625.48 340.27c12.12,2.74 6.23,-0.65 14.28,6.57 2.09,17.47 28.99,29.68 33.42,7.15l-2.45 -3.98c-14.44,-0.1 -16.79,-16.04 -28.13,-25.11 -4.06,2.35 -6.18,3.35 -10.2,6.51 -7.26,5.72 -4.64,2.39 -6.92,8.86z"/>
   <path class="fil9" d="M670.08 337.06c6.04,5.22 3.91,-5.73 5.72,8.72l9.68 1.82 11.6 -9.03c-1.91,-6.72 1,-1.08 -4.22,-5.21 -3.48,-2.75 -2.04,3.62 -4.02,-2.53 -0.35,-1.1 -1.48,-0.89 -2.15,-1.44l-15.14 -22.75c-9.65,2.58 -16.78,5.97 -20.87,15.36 18.69,10.87 5.36,2.23 19.4,15.06z"/>
   <path class="fil14" d="M578.25 510.61c-7.42,4.52 -18.76,11.35 -22.76,17.99l20.75 2.17 11.16 1.64 -0.96 -25.35 -8.19 3.55z"/>
   <path class="fil15" d="M812.66 759.75c9.33,9.68 30.9,26.68 42.67,32.97l4.85 -2.93c-0.61,-0.55 -1.49,-2.23 -1.82,-1.67 -0.32,0.55 -1.36,-1.26 -1.8,-1.59l-12.16 -8.19c-35.39,-24.17 -21.54,-21.54 -24.72,-39.08 -2.72,-14.96 -1.17,-7.04 -6.19,-11.19 1.05,5.29 3.08,12.05 3.38,17.09 0.14,2.33 0.07,5.91 -0.43,8.17 -1.39,6.33 0.34,3.03 -3.8,6.41z"/>
   <path class="fil16" d="M683.6 678.31c16.26,-3.8 25.1,-6.26 39.92,1.98l8.58 1.47 10.28 -2.3c-4.86,-4.8 -1.9,-3.15 -11.91,-5.62 -3.82,-0.94 -9.63,-2.01 -13.66,-2.7 -12.11,-2.08 -23.44,-1.22 -35.42,-1.41l2.21 8.58z"/>
   <path class="fil17" d="M166.65 187.55c7.66,16.45 12.06,18.61 16.72,23.43 -2.9,-10.47 -1.47,-5.72 7.76,-6.12 2.51,-0.11 12.66,1.91 16.63,2.27 -6.4,-8.29 -7.58,-4.91 -18.92,-6.2 -12.02,-1.38 -9.43,-0.3 -11.91,-12.08l31.75 5.23c-11.56,-10.46 -24.47,-11.06 -36.71,-3.28l-5.32 -3.25z"/>
   <path class="fil18" d="M208.71 689.44c0.7,-14.61 -6.45,-25.48 -19.29,-24.92 -3.19,14.89 5.95,24.41 19.29,24.92z"/>
   <path class="fil19" d="M695.47 695.82c4.1,-5.3 -0.08,-3.1 11.29,-4.02 4.48,-0.36 10.67,0.12 15.61,0.01 -17.9,-9.95 -20.63,6.93 -30.15,-12.66l31.31 1.13c-14.82,-8.24 -23.66,-5.78 -39.92,-1.98 2.24,3.83 3.79,7.29 5.1,9.41 0.45,0.72 1.73,2.82 2.23,3.47 2.3,3.02 2.34,2.56 4.54,4.63z"/>
   <path class="fil20" d="M741.4 391.22l4.71 -0.41c3.91,-6.46 0.87,-4.08 9.11,-9.45 5.21,-0.61 10.96,-4.19 13.47,-9.18l-0.01 -5.38c-7.01,1.6 -13.04,5.34 -18.5,8.55 -15.04,8.84 0.99,6.46 -15.66,12.02l6.89 3.85z"/>
   <path class="fil21" d="M471.56 458.98c2.48,13.09 5.37,21.69 19.01,22.02 1.17,-12.94 -5.28,-22.13 -19.01,-22.02z"/>
   <path class="fil21" d="M714.87 309.44l6.16 1.54 1.96 -5.93c-1.91,-4.68 -1.46,-4.67 -5.68,-9.96 -7.3,-9.14 -1.62,-4.62 -10.27,-7.13 -4.99,9.17 1.82,16.91 7.83,21.47z"/>
   <path class="fil22" d="M738.22 291.75l8.03 3.35 -1.31 -9.61c-3.53,-7.79 -4.75,-15.11 -17.17,-13.34 0.41,9.82 4.57,13.94 10.45,19.6z"/>
   <path class="fil23" d="M101.95 137.19c13.13,-2.2 15.18,-1.82 22.35,5.75 2.73,2.88 2.97,3.6 6.68,7.09 4.91,4.63 2.93,3.08 8.4,6.6 -4.12,-12.6 -10.25,-11.53 -14.86,-23.24 -6.52,-3.63 -4.39,-3.54 -10.62,-7.39l2.99 3.85c-4.17,0.52 -4.15,-1.36 -9.2,1.44 -8.24,4.57 0.44,-2.6 -5.74,5.88z"/>
   <path class="fil21" d="M152.32 717.36l8.91 3.75 -2.78 -10.15c-0.65,-6.95 -4.31,-11.44 -13.71,-12.4 -2.17,10.66 0.01,15.29 7.58,18.8z"/>
   <path class="fil17" d="M788.29 740.15c4.22,6.57 1.09,0.41 -5.28,2.09 -14.6,3.85 -5.14,0.28 -11.52,5.56 13.88,-2.37 16.73,-0.24 28.33,3.85 1.67,-3.09 7.3,-8.82 4.58,-16.6 -2.42,-6.9 -2.04,-3.64 -4.79,-6.83l1.76 14.96 -13.06 -3.03z"/>
   <path class="fil17" d="M239.47 270.05c0.51,0.54 1.24,0.66 1.54,1.62 0.29,0.95 1.21,1.23 1.62,1.51l14.44 7.94c1.43,-2.47 0.87,-3.57 4.35,-7.51 -8.84,0.54 -4.07,1.48 -8.7,-2.52l-5.33 -1.57c1.24,-16.19 3.09,-21.81 -8.18,-31.33 5.04,17.02 5.77,10.83 5.62,30.59l-5.36 1.27z"/>
   <path class="fil24" d="M578.25 510.61l8.19 -3.55 0.96 25.35 -11.16 -1.64c6.12,5.6 2.66,4.69 11.65,2.6 4.93,-10.27 3.59,-9.49 2.17,-20.87 3.31,-4.73 -1.49,-1.21 5.95,-2.05l-4.13 -10.17c-5.64,4.12 -9.36,6.2 -13.63,10.34z"/>
   <path class="fil25" d="M168.1 688.51c3.6,7.06 -0.48,1.5 3.55,6.32 3.06,3.65 4.95,4.4 6.6,5.72 0.96,-5.58 -0.87,-5.14 3.67,-3.93 -2.03,-3.39 -7.63,-8.02 -8.43,-16.01 -0.82,-8.24 1.75,-11.12 4.77,-17.62 -4.83,3.12 -2.36,-0.55 -5.52,4.72 -5.91,9.86 -1.05,13.41 -4.64,20.81z"/>
   <path class="fil26" d="M797.11 197.3c7.71,1.3 8.15,0.58 13.46,-2.01l-1.72 -11.02 -12.17 0.15 0.42 12.88z"/>
   <path class="fil27" d="M877.9 143.27l0.91 -1.01 5.68 -19.14 -9.11 -1.11c-0.4,2.8 -1.82,9.5 -1.84,10.44 -0.31,11.86 -3.06,5.36 4.37,10.82z"/>
   <path class="fil28" d="M644.62 607.03c4.48,8.14 -2.16,3.6 6.38,6.04 4.03,-7.14 5.34,-12.95 4.16,-22.24 -0.1,-0.83 -2.35,-9.19 -2.69,-9.88 -5.19,-10.5 -0.91,-2.35 -6.06,-6.44 4.75,12.63 7.27,19.13 3.52,33.94l-5.31 -1.42z"/>
   <path class="fil29" d="M236.41 618.75l14.24 -0.54 3.18 14.7c7.39,-9.09 5.36,-1.28 0.92,-14.48l7.81 1.09c-3.22,-2.67 -1.29,-1.69 -6.21,-4.2 -3.65,-1.86 -2.77,-0.74 -6.6,-2.01 -6.92,3.21 6.17,-4.14 -5.72,1.02 -5.2,2.25 -4.71,2.02 -7.63,4.42z"/>
   <path class="fil30" d="M885.08 168.72l0.61 0.03c12.69,-6.41 5.65,-17.02 -8.23,-12.87 3.69,8.19 2.61,3.92 7.62,12.84z"/>
   <path class="fil31" d="M501.2 67.19c19.49,-3.79 13.18,-8.07 31.44,-8.52 -3.07,-3.05 0.14,-2.81 -7.62,-3.64 -4.43,-0.48 -6.37,0.1 -10.28,1.74 -1.31,0.55 -10.71,7.6 -13.53,10.42z"/>
   <path class="fil32" d="M837.43 78.11c6.47,2.41 7.99,-3.93 3.06,5.99 6.51,-2.53 19.51,-10.55 24.35,-17.96l-27.41 11.96z"/>
   <path class="fil33" d="M1036.53 848.54l5.49 -9.41c0.43,-1.3 1.83,-7.56 2.19,-9.27 1.65,-7.8 2.79,-15.29 2.97,-23.13 -4.63,7.1 -4.46,12.39 -6.03,20.32 -1.56,7.85 -3.35,13.71 -4.62,21.5z"/>
   <path class="fil34" d="M953.51 903.04c7.54,-8.36 8.27,-20.07 4.8,-31.08 -2.86,-9.06 -2.42,-4.83 -4.74,-7.54 3.1,18.99 4.54,18.95 -0.06,38.62z"/>
   <path class="fil17" d="M242.57 642.24c4.42,-12.21 -6.53,3.5 3.26,-3.67l5.95 -3.89c0.54,-0.4 1.44,-1.1 2.05,-1.76l-6.24 1.48c-8.63,-6.4 -1.96,-3.73 -10.76,-6.84 -0.63,18.31 2.85,12.23 5.74,14.69z"/>
   <path class="fil35" d="M759.21 253.99c0.63,0.53 1.59,0.57 1.88,1.62 0.28,0.97 1.43,1.21 1.79,1.45 0.43,0.3 3.76,2.41 4.58,2.84 3.78,-2.3 2.75,-0.61 5.59,-3.47 6.92,-6.94 1.34,-0.78 5.29,-7.79 -4.35,-5.71 -4.17,-4.01 -6.61,-5.64 -0.23,10.74 -2.59,10.73 -12.52,10.99z"/>
   <path class="fil36" d="M686.69 329.39c0.66,0.55 1.8,0.34 2.15,1.44 1.98,6.15 0.53,-0.22 4.02,2.53 5.22,4.12 2.31,-1.52 4.22,5.21l9.3 -7.58 -4.63 0.89c-0.99,-15.8 1.06,-6.99 -4.85,-11.91l-1.04 9.89 -9.15 -0.46z"/>
   <path class="fil37" d="M351.01 514.77c2.96,7.24 -0.93,1.83 2.85,6.31 6.71,7.96 1.43,1.81 7.27,5.38l-2.32 -6.97 9.56 3.1c-4.1,-7.06 2.34,-2.42 -4.35,-5.41 -1.51,-0.67 -6.03,-0.96 -7.78,-1.07l1.39 -7.43c-4.31,2.6 -3.9,-0.64 -6.61,6.09z"/>
   <path class="fil33" d="M945.09 933.61c-17.75,7.29 -20.43,5.72 -38.57,2.52 2.52,1.97 0.48,2.56 8.18,4.8 3.03,0.89 7.73,1.33 10.89,1.25 10.44,-0.25 14.16,-2.58 19.5,-8.58z"/>
   <path class="fil34" d="M765.17 778.51l-4.96 -4.42 -28.46 -3.85c5.09,5.68 -3.59,2.17 8.82,5.74 2.6,0.75 5.78,0.52 8.43,0.66 10.65,0.56 6.01,-1.26 16.18,1.87z"/>
   <path class="fil38" d="M738.22 291.75c4.63,6.1 -3.64,1.2 7.64,6.97l-1.8 7.85c2.98,-2.45 3.74,-3.05 6.63,-5.66 0.56,-0.51 2.86,-1.8 3.19,-3.04 0.26,-0.99 1.07,-1.03 1.62,-1.54 -7.63,-3.63 -1.23,0.5 -7.51,-7.13l-3.04 -3.71 1.31 9.61 -8.03 -3.35z"/>
   <path class="fil39" d="M670.73 350l2.45 3.98c1.06,-0.51 5.41,-2.25 6.53,-2.81 3.76,-1.88 3.87,-2.25 5.77,-3.58l-9.68 -1.82c-1.81,-14.45 0.32,-3.5 -5.72,-8.72l0.65 12.95z"/>
   <path class="fil40" d="M826.14 83.12l3.53 0.87 -3.48 8.9 14.3 -8.78c4.93,-9.93 3.41,-3.59 -3.06,-5.99l-11.29 5.01z"/>
   <path class="fil34" d="M942.5 893.26c7.11,-3.65 6.46,-6.16 5.06,-15.86 -0.25,-1.72 -1.89,-7.32 -2.55,-8.73 -5.75,-12.09 -0.7,-2.26 -5.49,-7.62 3.56,14.63 6.84,15.68 2.99,32.22z"/>
   <path class="fil38" d="M714.87 309.44c5.04,5.87 -5.34,2.28 6.67,5.47l-0.53 8.05c0.6,-0.44 1.44,-0.96 1.84,-1.27l9.93 -9.18 -6.08 1.38c-1.23,-16 0.4,-3.83 -3.72,-8.85l-1.96 5.93 -6.16 -1.54z"/>
   <path class="fil41" d="M365.67 573.81c10.65,-10.94 1.17,-12.6 4.95,-22.29l5.66 -0.75c-4.29,-5.15 5.36,-4.92 -5.41,-4.01 -8.25,9.75 -2.25,11.06 -5.2,27.05z"/>
   <path class="fil42" d="M865.83 798.91c2.65,3.17 1.64,3.47 7,7.52 4.64,3.51 -0.11,0.17 7.07,3.31l1.16 -2.27c-4.34,-6.91 4.1,-0.51 -4.7,-6.44l3.95 -6.75c-4.86,1.76 -5.79,3.05 -5.94,3.11 -7.54,2.85 1.19,2.5 -8.54,1.51z"/>
   <path class="fil43" d="M516.93 434.05c9.37,-1.96 9.46,-0.76 10.54,-10.77l-8.09 -1c-4.27,7.15 -3.66,1.32 -2.45,11.76z"/>
   <path class="fil44" d="M868.9 144.68l2.68 3.84 6.32 -5.26c-7.43,-5.46 -4.68,1.04 -4.37,-10.82 0.02,-0.94 1.44,-7.64 1.84,-10.44 -4.8,6 -0.66,-5.99 -4.49,7.39 -0.94,3.27 -1.56,11.77 -1.98,15.29z"/>
   <path class="fil44" d="M96.35 728.55c-10.13,4.56 -8.27,5.97 -18.27,4.63l1.24 -10.15c-5.55,6.57 -5.13,1.1 -3.67,11.82 6.12,2.44 1.88,4.41 11.36,1.62 10.59,-3.11 7.18,-5.15 9.34,-7.93z"/>
   <path class="fil41" d="M384.75 56.42c11.57,-1.01 24.97,-2.9 34.75,-9.53 -7.63,1.1 -12.5,2.55 -19.89,3.93 -3.32,0.62 -5.32,0.46 -9.06,1.83 -10.38,3.79 -0.85,-0.2 -5.8,3.77z"/>
   <path class="fil45" d="M771.74 243c2.44,1.63 2.26,-0.06 6.61,5.64 3.77,-6.49 3.89,-15.38 -9.76,-12.4 2.04,6.11 -0.92,3.48 3.15,6.76z"/>
   <path class="fil15" d="M653.55 630.72c2.86,4.09 4.5,6.38 7.9,11.54 0.39,0.59 2.98,4.73 3.2,4.98 3.86,4.39 2.74,2.76 6.35,4.6l-14.44 -25.03 -3.01 3.92z"/>
   <path class="fil33" d="M360.54 587.73c-16.75,4.93 -15.48,5.52 -32.26,-0.68 1.27,1.34 3.44,8.18 17.35,7.53 3.25,-0.15 6.82,-1.09 9.77,-2.5 9.79,-4.67 -0.23,0.55 5.13,-4.35z"/>
   <path class="fil46" d="M785.47 262.02c9.98,-3.1 9.25,-4.33 2.8,-12.52 -1.7,1.34 -3.18,-2.8 -4.72,5.91 -1.29,7.32 1.19,5.39 1.92,6.62z"/>
   <path class="fil44" d="M734.18 760.88c2.19,1.48 1.77,2.16 6.5,3.6 0.97,0.29 4.32,0.96 5.38,1.08 9.21,1.02 5.03,0.14 11.71,-1.06l2.49 -10.52c-1.29,1.75 -1.98,-1.38 -5.67,9.15l-20.41 -2.24z"/>
   <path class="fil47" d="M882.7 835.18c1.53,-1.17 4.29,1.31 6.38,-6.88 3.24,-12.72 -3.36,-10.26 -3.89,-10.82l-2.49 17.7z"/>
   <path class="fil48" d="M871.04 154.19c9.72,-4.19 6.31,-1.06 12.97,-11.46l-5.2 -0.47 -0.91 1.01 -6.32 5.26 -2.68 -3.84 2.14 9.51z"/>
   <path class="fil49" d="M542.3 619.89c-0.2,-2.49 -1.24,-6.9 -0.64,-9.45 2.13,-8.97 -0.15,-4.35 5.68,-8.81 -5,-3.84 7.17,-8.37 -7.69,-1.64 -0.21,1.9 -1.33,9.32 -1.17,10.69 1.16,10.43 0.7,4.99 3.82,9.21z"/>
   <path class="fil50" d="M321.06 690.61l1.66 2.39c0.13,-0.22 3.19,-6.52 3.33,-6.87 1.61,-5.81 3.25,-1.4 -0.01,-4.26 -11.5,1.63 -6.51,-0.47 -11.6,8.1l6.61 0.64z"/>
   <path class="fil51" d="M868.94 172.86c0.64,0.58 1.54,0.59 1.89,1.76l3.8 3.35c0.49,0.41 1.45,1.2 1.89,1.57 0.43,0.36 1.25,1.01 1.88,1.51 2.86,-2.73 1.99,-0.91 4.76,-5.26 2.62,-4.11 1.03,-2.35 2.51,-7.04l-0.61 -0.03c-2.86,1.73 -3.49,1.13 -6.45,5.21l-9.69 -1.07z"/>
   <path class="fil33" d="M849.56 857.24c-4.4,-18.8 -3.24,-9.99 2.21,-14.34 -4.67,-4.24 7.99,-4.05 -8.4,-3.24 0.18,4.81 -1.36,3.18 0.56,9.05 3.96,12.16 0.59,3.54 5.64,8.53z"/>
   <path class="fil52" d="M547.76 450.42c8.05,-9.93 7.75,-9.55 4.28,-21.63 -13.45,-4.14 -1.08,-1.02 -6.54,2 7.02,3.68 4.49,-4.53 4.93,8.54 0.04,1.18 -2.44,10.04 -2.67,11.09z"/>
   <path class="fil52" d="M201.95 312.59c0.62,0.4 -0.97,5.84 14.73,3.79 12.32,-1.61 1.3,0.18 7.28,-2.77l-6.86 -6.39 3.22 6.27 -18.37 -0.89z"/>
   <path class="fil53" d="M611.28 626.9l-0.93 -19.33c-2.69,2.71 -3.89,-5.43 -4.07,8.46 -0.14,11.12 4.36,10.09 5,10.87z"/>
   <path class="fil44" d="M225.09 262.79l6.35 -4.71c-0.42,-5.32 0.65,-5.23 -1.03,-11.26 -2.62,-9.4 -3.09,-6.13 -6.23,-8.77 4.43,13.96 6.01,12.6 0.91,24.74z"/>
   <path class="fil19" d="M797.11 197.3l7.21 8.1 9.54 -8.94 -3.28 -1.18c-5.32,2.59 -5.75,3.31 -13.46,2.01z"/>
   <path class="fil49" d="M85.48 450.26c1.68,-2.54 2.04,1.71 4.29,-8.65 1.03,-4.74 0.66,-10.07 0.83,-14.85 -0.85,1.53 -1.19,0.03 -3.31,6.79 -0.29,0.92 -0.98,4.28 -1.05,4.7 -0.69,3.95 -0.53,8.03 -0.77,12.01z"/>
   <path class="fil54" d="M603.8 547.88c3.37,-4.94 3.76,-5.73 2.57,-14.23l5.48 4.04 -5.09 -9.25c-4.04,4.87 -2.64,-2.22 -3.62,6.4 -0.04,0.38 0.64,12.22 0.67,13.03z"/>
   <path class="fil38" d="M644.63 378.26c4.07,-4.68 4.08,5.46 3.19,-5.84 -8.37,-7.4 -6.09,-1.8 -17.39,-6.04 6.59,9.24 1.13,5.96 14.75,5.11l-0.55 6.77z"/>
   <path class="fil55" d="M29.1 625.68c6.16,-7.54 7.01,-13.78 9.04,-24.25 -1.75,2.01 -2.25,1.87 -4.2,5.57 -0.51,0.96 -2.03,5.42 -2.29,6.3 -1.34,4.47 -1.79,7.66 -2.56,12.37z"/>
   <path class="fil44" d="M2.94 740.17l9.32 -46.94c-1.06,1.62 -2,2.33 -3.43,6.11 -0.13,0.34 -0.98,3.6 -1.21,4.48l-4.68 36.35z"/>
   <path class="fil56" d="M1043.65 715.39c-0.38,-4.59 -0.32,-9.7 -1.43,-14.29 -2.06,-8.52 -2.79,-6.44 -4.18,-8.63 0.21,3.95 -0.01,8.03 0.78,11.96 0.46,2.29 0.13,1.57 1.23,4.59 2.34,6.43 2.61,4.8 3.61,6.38z"/>
   <path class="fil54" d="M252.72 271.09c4.63,4 -0.14,3.07 8.7,2.52 0.97,-5.74 1.81,-3.92 0.84,-10.56 -1.38,-9.38 -1.8,-6.71 -4.31,-9.28l1.99 15.01c-4.12,3.52 6.08,4.41 -7.22,2.31z"/>
   <path class="fil28" d="M333.81 557.31l-2.04 -18.67c-3.1,3.02 -5.73,-6.14 -3,9.83 0.67,3.9 3.24,6.2 5.04,8.85z"/>
   <path class="fil57" d="M964.05 235.3c7.42,-0.13 3.47,-1 5.51,3.32 5.61,-3.34 1.69,4.56 5.75,-6.24 -1.93,-4.3 2.9,-4.52 -5.5,-2.24 -4.34,2.49 -3.75,2.81 -5.76,5.16z"/>
   <path class="fil49" d="M11.76 689.09c3.77,-4.4 0.45,5.34 4.58,-7.39 1.36,-4.19 1.61,-9.2 2.33,-13.38 -3.72,4.98 0.46,-4.02 -4.04,6.29 -0.37,0.85 -1.18,3.53 -1.43,4.43 -1.11,4.04 -0.98,6.43 -1.44,10.06z"/>
   <path class="fil56" d="M68.41 504.49c8.81,-8.24 7.11,-8.35 9.13,-21.02 -3.82,5.14 0.84,-3.75 -3.94,6.01 -0.41,0.83 -1.34,3.4 -1.69,4.31 -1.27,3.31 -2.4,7.41 -3.5,10.71z"/>
   <path class="fil58" d="M113.89 126.01c-0.64,-0.49 -1.59,-2.08 -1.91,-1.5l-7.33 -4.98 4.61 -7.61c-7.52,6.72 -5.15,3.43 -8.33,11.19 7.5,3.96 2.36,2.51 12.95,2.9z"/>
   <path class="fil34" d="M185.99 229.55c6.12,-5.51 2.17,1.84 4.96,-5.97 1.76,-4.93 0.85,-4.06 1.3,-9.11l8.48 2.05c-3.01,-2.97 4.35,-3.48 -9.15,-3.95l-5.59 16.98z"/>
   <path class="fil49" d="M924.56 174.28c1.57,-0.99 6.42,0.45 6.27,-9.03 -0.14,-8.64 -5.7,-9.21 -5.96,-9.46 3.67,11.11 4.27,8.47 -0.31,18.49z"/>
   <path class="fil17" d="M808.26 234.55l-7.56 0.79c4.81,8.56 2.24,6.49 9.25,9.99l-1.69 -10.78z"/>
   <path class="fil33" d="M152.32 717.36c3.84,5.71 -3.21,4.61 8.44,5.59 7.52,-12.74 3,-6.9 -2.31,-11.98l2.78 10.15 -8.91 -3.75z"/>
   <path class="fil52" d="M16.95 667.3c2.98,-3.76 0.88,4.64 4.92,-7.98 1.44,-4.5 1.09,-6.54 1.59,-10.79 -3.9,5.3 0.14,-5.78 -4.54,7.86 -1.3,3.77 -1.41,7.52 -1.97,10.91z"/>
   <path class="fil38" d="M759.61 53.27c3.95,-0.5 5.9,-0.12 10.48,-1.53 12.75,-3.91 5.25,-2.21 8.84,-4.45 -3.92,0.41 -7.88,0.36 -11.72,1.45 -10.14,2.88 -5.65,3.04 -7.6,4.53z"/>
   <polygon class="fil43" points="899.96,180.25 900.25,170.14 894.48,171.33 895.2,181.34 "/>
   <path class="fil41" d="M128.04 717.51c-4.69,-3.59 7.9,-4.33 -10.39,-2.91l0.49 -7.4c-3.2,4.29 -7.36,-7.74 -1.68,9.43l11.58 0.88z"/>
   <path class="fil59" d="M501.35 566.52c9.69,-0.27 7.89,-1.22 12.38,-8.88 -7.54,2.91 -8.18,0.61 -12.38,8.88z"/>
   <path class="fil33" d="M899.96 180.25c1.98,-2.66 7.51,5.42 1.79,-11.19 -13.8,-4.67 -3.2,-1.2 -7.27,2.27l5.77 -1.19 -0.29 10.11z"/>
   <path class="fil41" d="M279.72 50.74c-3.82,-2.67 4.01,-0.32 -8.29,-4.73 -3.77,-1.35 -6.57,-1.55 -9.88,-2.26 7.14,6.87 6.86,5.41 18.17,6.98z"/>
   <path class="fil60" d="M896.98 961.8l9.57 -5 -10.5 -7.7c3.52,5.08 -2.5,2.74 3.74,6.03 -2.66,2.37 -0.88,2.13 -2.81,6.68z"/>
   <path class="fil25" d="M912.41 153.93l2.78 5.6c8.8,6.75 2.83,3.38 5.42,-1.67l-0.48 -5.13c-0.85,0.39 -3.94,1.44 -4.44,1.48 -7.38,0.52 5.68,2.2 -3.28,-0.28z"/>
   <path class="fil61" d="M811.42 215.91c-4.9,-3.67 8.31,-4.24 -10.3,-2.81l0.76 -7c-3,4.4 -5.82,-7.31 -1.73,9.32l11.28 0.49z"/>
   <path class="fil58" d="M571.57 336.3c2.33,-1.19 6.24,-2.36 9.99,-5.33 5.2,-4.11 1.82,-0.45 5.36,-7.12 -6.94,4.09 -10.62,4.94 -15.35,12.45z"/>
   <path class="fil56" d="M222.83 647.64c-4.91,-4.08 7.48,-3.47 -9.61,-3.47l0.81 -6.71c-2.94,4.06 -5.66,-6.94 -1.98,9.09l10.78 1.09z"/>
   <path class="fil62" d="M403.86 514.09c-3.91,-4.2 6.08,-3.32 -8.02,-3.51l3.03 -6.21c-7.04,4.37 -4.69,-4.41 -5.87,5.32 5.07,4.32 -1.19,3.44 10.86,4.39z"/>
   <path class="fil33" d="M379.04 351.56c2.89,3.16 0.67,3.47 8.41,6.08 2.44,-18.19 0.06,-5.91 -2.5,-10.41 -2.26,6.93 4.12,6.99 -5.91,4.33z"/>
   <path class="fil36" d="M383.4 332.32l15.25 -1.3 -5.62 -8.94c-1.84,14.14 2.68,2.48 -9.62,10.23z"/>
   <path class="fil63" d="M581.98 364.37l-1.35 -13.91c-14.73,-1.23 -4.46,-0.6 -8.3,3.39l6.56 -1.92c-0.09,0.89 -0.43,5.47 -0.24,6.11 1.92,6.38 0.02,2.14 3.33,6.32z"/>
   <path class="fil38" d="M732.73 762.87l-19.29 -9.44c5.45,8.8 8.49,7.89 19.29,9.44z"/>
   <path class="fil15" d="M676.34 661.15c3.56,-7.21 -2.31,-7.81 -5.33,-9.32l0.76 6.86c1.24,8.88 0.11,-0.34 4.57,2.46z"/>
   <path class="fil54" d="M158.12 757.5l-6.92 2.19 0.81 -7.45c-2.85,4.61 -4.89,-7.45 -2.41,9.4 14.98,1.01 4.77,0.63 8.51,-4.14z"/>
   <path class="fil56" d="M280.93 599.92c3.89,-4.32 6.28,6.69 2.49,-8.36 -16.07,-4.16 -5.15,-0.63 -9.34,1.91l7.57 -0.91 -0.73 7.37z"/>
   <path class="fil51" d="M385.41 345.3l-2.01 -12.98c-1.29,1.01 -3.72,-3.37 -2.7,5.01 1.32,10.92 3.71,6.78 4.71,7.96z"/>
   <path class="fil44" d="M23.73 877.66c-0.71,-3.62 0.07,-4.37 -1.72,-7.7 -6.2,-11.55 0.79,-1.89 -6.91,-7.47 1.43,3.3 2.63,6.81 4.43,9.97 2.23,3.93 2.22,2.96 4.2,5.19z"/>
   <path class="fil29" d="M167.75 8.45c5.87,-2.56 5.34,-2.63 13.25,-2.25 -3.54,-5.29 5.43,-2 -6.24,-5.19l-7.01 7.44z"/>
   <path class="fil52" d="M687.44 290.1c11.11,-2.54 10.66,1.71 14.99,-7.46 -4.76,1.97 -9.23,2.88 -14.99,7.46z"/>
   <path class="fil64" d="M975.01 865.14c-0.09,5.3 -1.67,4.6 2.92,3.99 5.08,-3.05 2.74,4.39 4.81,-7.22 -4.35,1.89 -4.11,1.03 -7.73,3.23z"/>
   <path class="fil49" d="M348.87 330.04c-5.16,-6.92 2.47,-1.17 -7.84,-6.68 -0.01,-0.01 -6.59,-1.69 -6.78,-1.74 3.71,4.3 -0.73,1.38 6.52,5.32 0.02,0.01 7.55,2.88 8.09,3.11z"/>
   <path class="fil65" d="M280.48 723.51c7.46,-3.14 -0.16,2.38 6.76,-3.02 5.98,-4.66 2.99,-2.67 6.07,-7.34 -4.21,2.18 -5.53,2.51 -8.44,4.89 -3.87,3.15 -1.49,1.54 -4.39,5.47z"/>
   <path class="fil56" d="M612.94 375.16l-3.51 -6c-13.11,-0.09 -1.68,-0.56 -6.84,4.05l10.35 1.95z"/>
   <path class="fil66" d="M681.39 669.73l-0.86 -6.4c-1.08,-8 -0.07,0.25 -4.2,-2.18l0.3 6.43c1.16,8.2 0.16,-0.05 4.76,2.15z"/>
   <path class="fil51" d="M580.23 548.06c0,-6.74 -1.54,-4.73 5.74,-4.91 -4.93,-3.46 8.06,-6.2 -10.05,-2.67l4.31 7.58z"/>
   <path class="fil67" d="M417.94 625.21c10.39,-4.01 8.07,-1.22 12.34,-10.01 -2.58,1.52 -6.16,3.46 -7.93,4.9 -4.11,3.34 -1.26,1.1 -4.41,5.11z"/>
   <path class="fil68" d="M259.65 319.51c-2.85,-2.78 1.89,-1.11 -6.84,-5.55 -3.97,-2.02 -4.83,-1.62 -9.85,-2.8 0.61,0.49 1.48,0.5 1.82,1.49l5.82 3.57c1.83,0.86 6.54,2.38 9.06,3.29z"/>
   <path class="fil53" d="M840.01 167.45l-3.82 -5.58c-12.99,-0.2 -1.65,-0.6 -6.53,3.87l10.36 1.71z"/>
   <path class="fil55" d="M704.11 779.54c-6,-5.91 -5.02,-5.03 -14.72,-7.19 3.75,3.23 -3.28,0.11 7.6,5.21 2.72,1.27 4.76,1.33 7.12,1.98z"/>
   <path class="fil44" d="M606.34 39.86c-1.92,-1.88 -1.36,-2.33 -4.87,-4.27 -3.69,-2.04 -6.21,-2.56 -10.1,-3.96 3.19,3.14 1.06,2.49 5.72,5.07 4.1,2.27 5.4,2.04 9.25,3.16z"/>
   <path class="fil41" d="M842.12 171.55c2.36,5.95 -3.61,4.23 4.99,4.55l5.59 -4.75 -10.57 0.2z"/>
   <path class="fil47" d="M639.76 346.84c-8.05,-7.22 -2.16,-3.83 -14.28,-6.57 4.27,4.16 -0.04,1.46 6.06,4.48 2.85,1.41 4.57,1.15 8.22,2.09z"/>
   <path class="fil55" d="M797.96 1069.62c9.25,-1.82 8.72,0.3 12.85,-7.08 -2.67,1.01 -4.71,1.56 -7.41,2.96 -3.79,1.97 -3.46,2.42 -5.44,4.11z"/>
   <path class="fil47" d="M168.96 752.18l9.13 -6.75c-1.62,-11.64 0.51,-1.59 -5.3,-5.84 3.04,8.44 1.18,5.27 -3.83,12.59z"/>
   <path class="fil52" d="M436.01 459.86c0.42,-6.85 -0.13,-4.82 2.4,-10.15l-6.2 3.45c-0.67,13.1 -0.6,1.78 3.8,6.69z"/>
   <path class="fil28" d="M882.11 5.24l-3.88 -5.19c-12.34,-0.08 -1.61,-0.51 -6.24,3.69l10.12 1.5z"/>
   <path class="fil65" d="M322.73 693.01c7.65,-2.91 0.08,1.95 4.77,-2.1 4.5,-3.88 1.6,-0.74 4.95,-5.66l-6.39 0.88c-0.14,0.35 -3.21,6.65 -3.33,6.87z"/>
   <path class="fil24" d="M624.07 664.59c-2.53,-7.95 0.78,-3.9 -4.86,-5.19 -14.26,-3.25 -1.16,-1.18 -6.93,1.28 7.63,1.69 6.55,1.08 11.8,3.91z"/>
   <path class="fil69" d="M756.04 691.36l0 -3.58 -11.88 -1.66c0.69,0.51 1.59,0.53 2.03,1.58 0.43,1.05 1.56,1.15 2.14,1.39 5.49,2.23 0.76,0.94 7.71,2.26z"/>
   <path class="fil70" d="M969.81 230.14c8.4,-2.28 3.57,-2.07 5.5,2.24 4.85,-5.89 3.06,8.62 2.29,-3.24 -0.43,-6.73 1.67,-0.16 -2.01,-4.54 -11.43,4.43 -0.7,-0.44 -5.79,5.55z"/>
   <path class="fil68" d="M404.9 1139.6c-4.41,-5.79 -1.51,-5.97 -12.15,-8.68 2.06,2.14 1.97,2.49 4.99,4.75 4.02,3.01 3.43,2.01 7.16,3.93z"/>
   <path class="fil52" d="M971.64 336.9c3.09,-3.21 2.31,-1.36 4.97,-6 2.98,-5.19 0.64,-1.28 2.16,-7.48 -5.01,5.69 0.8,-4.81 -4.33,5.59 -2.26,4.59 -1.37,3.52 -2.8,7.89z"/>
   <path class="fil15" d="M975.31 862.69c-1.68,-3.28 -1.27,-3.27 -3.74,-6.75 -2.36,-3.32 -2.28,-2.45 -4.83,-4.68 2.97,10.72 2.62,7.31 8.57,11.43z"/>
   <path class="fil35" d="M417.07 498.31c-3.08,-4.62 0.89,-2.54 -4.75,-4.09 -7.75,-2.13 -2.57,-1.55 -5.41,2.49l10.15 1.59z"/>
   <path class="fil61" d="M220.93 1055.82c-2.04,-1.84 -1.82,-2.05 -5.31,-4.28 -1.82,-1.16 -5.19,-2.44 -7.14,-3.31 4.65,5.75 1.15,5.62 12.45,7.58z"/>
   <path class="fil67" d="M680.81 1068.74c4.96,-1.88 2.7,-0.32 7.83,-3.22 4.8,-2.7 2.3,-1.69 5.18,-4.63 -6.14,1.95 -0.85,-0.9 -7.17,2.63 -4.55,2.53 -2.94,2.27 -5.84,5.22z"/>
   <path class="fil47" d="M63.74 308.44c-2.88,-10.34 -2.89,-7.5 -8.89,-11.73 1.9,3.39 1.4,3.1 4,6.66 6.12,8.42 -0.31,-0.05 4.89,5.07z"/>
   <path class="fil69" d="M771.74 243c-4.06,-3.28 -1.1,-0.65 -3.15,-6.76 -6.44,0 -5.3,-1.63 -3.84,4.53l6.99 2.23z"/>
   <path class="fil41" d="M700.17 1111.91c7.48,-1.79 0.75,1.15 7.43,-2.18 4.94,-2.46 2.43,-1.67 5.63,-5 -3.3,1.2 -4.33,1.25 -7.7,2.99 -4.09,2.11 -3.17,2.24 -5.36,4.19z"/>
   <path class="fil49" d="M162.43 262.94c-1.47,-3.08 -0.55,-2.37 -3.3,-6.54 -4.63,-7 -1.47,-2.01 -4.29,-5.39 1.89,10.31 1.97,7.81 7.59,11.93z"/>
   <path class="fil44" d="M376.53 1124.63c-2.58,-2.96 -0.91,-2.23 -5.02,-4.85 -5.38,-3.43 -1.29,-0.75 -7.23,-2.3 2.07,1.92 1.69,2.13 5.19,4.31 4.6,2.85 3.53,1.54 7.06,2.84z"/>
   <path class="fil44" d="M445.33 39.03c6,-1.36 2.09,0.86 7.52,-2.07 3.8,-2.04 3.44,-2.45 5.52,-4.38 -5.59,1.54 -0.99,-1.09 -7.62,2.43 -3.26,1.73 -3.73,2.61 -5.43,4.02z"/>
   <path class="fil52" d="M981.18 317.16c2.19,-2.16 2.22,-1.69 4.57,-5.03 2.03,-2.88 2.25,-4.31 3.59,-7.13 -4.2,3.44 -2.49,0.38 -5.46,5.23 -3.64,5.93 -0.7,0.91 -2.69,6.94z"/>
   <path class="fil56" d="M764.78 1084.19l16.86 -7.44c0.28,-0.93 1.07,-1 1.62,-1.48 -4.84,1.26 -6.76,1.39 -11.36,3.67l-7.12 5.24z"/>
   <path class="fil71" d="M362.52 1066.73c-5.86,-7.21 -1.31,-4.74 -12.44,-8.24 1.71,1.49 2.89,2.76 5.55,4.59 3.56,2.45 3.71,2.04 6.88,3.64z"/>
   <path class="fil33" d="M728.49 787.01l-16.13 -5.85c2.83,2.85 -1.36,1.96 7.14,4.83 2.9,0.98 5.98,0.68 8.99,1.02z"/>
   <path class="fil24" d="M793.85 699.9l-10.73 -8.09c1.48,8.15 4.94,6.22 10.73,8.09z"/>
   <polygon class="fil72" points="328.71,449.29 334.41,441.98 329.09,440.52 "/>
   <path class="fil24" d="M530.63 635.21c-3.9,-6.62 -0.88,-4.42 -8.79,-9.52 4.24,7.9 -0.06,4.17 8.79,9.52z"/>
   <path class="fil73" d="M746.11 390.82c9.49,-5.35 5.43,-3.23 9.11,-9.45 -8.24,5.37 -5.2,2.99 -9.11,9.45z"/>
   <path class="fil33" d="M260.5 251.66l-6.27 -12.69c-0.31,-0.4 -1.07,-1.04 -1.57,-1.59 1.2,4.12 1.25,5.8 3.23,9.37 2.56,4.62 1.62,2.19 4.61,4.91z"/>
   <path class="fil38" d="M731.38 1098.52l18.33 -9.28c-13.97,3.84 -12.47,4.02 -18.33,9.28z"/>
   <path class="fil34" d="M240.2 674.32l-8.31 -1.2c6.98,10.1 8.27,1.24 8.31,1.2z"/>
   <path class="fil65" d="M731.79 401.78c10.77,-4.44 6.44,-3.21 9.69,-8.07 -5.88,2.89 -2.04,0.56 -6.62,4.15 -0.47,0.37 -1.28,2.43 -1.63,1.89 -0.34,-0.54 -0.95,1.37 -1.45,2.03z"/>
   <path class="fil65" d="M166.16 804.87c12.33,-4.52 6.17,-2.69 9.49,-7.63 -5.71,2.85 -2.08,0.66 -6.49,4.02 -0.44,0.33 -1.27,2.27 -1.59,1.75 -0.31,-0.52 -0.93,1.25 -1.41,1.86z"/>
   <path class="fil38" d="M1026.63 878.71c1.77,-2.3 1.7,-1.55 3.93,-6.48 2.18,-4.81 -0.92,6.63 1.19,-5.79 -0.51,0.61 -1.39,0.58 -1.57,1.79 -0.18,1.24 -1.15,1.44 -1.37,2.03 -2.34,6.16 -0.92,0.42 -2.18,8.44z"/>
   <path class="fil67" d="M138.32 824.9c4.14,-1.78 1.75,0.06 4.47,-2.14 3.57,-2.88 2.41,-2 4.28,-4.48 -7.7,1.88 -4.45,0.17 -8.75,6.62z"/>
   <path class="fil71" d="M572.05 1126.95c5.7,-2.47 2.14,-0.46 6.48,-3.88 0.48,-0.38 1.28,-0.84 1.63,-2.01 0.36,-1.2 0.96,-1.49 1.47,-2.22 -5.83,2.8 -2.22,0.63 -6.68,4.17 -0.46,0.37 -1.22,2.43 -1.56,1.9 -0.33,-0.53 -0.88,1.37 -1.35,2.04z"/>
   <path class="fil56" d="M477.33 24.22c8.89,-1.37 6.92,1.2 11.2,-6.13l-11.2 6.13z"/>
   <path class="fil65" d="M460.52 595.33c9.68,-4.67 5.97,-3.42 9.21,-8.27 -5.7,3.23 -1.89,0.65 -6.28,4.39 -0.44,0.37 -1.23,2.4 -1.55,1.88 -0.32,-0.52 -0.91,1.34 -1.38,2z"/>
   <path class="fil69" d="M915.19 159.54l3.83 6.47c5.22,-7.24 5.04,10.63 2.59,-6.19 -0.05,-0.34 -0.75,-1.26 -1,-1.94 -2.59,5.05 3.38,8.42 -5.42,1.67z"/>
   <path class="fil67" d="M238.2 1011.39c-0.64,-0.58 -1.47,-2.42 -1.89,-1.79 -0.42,0.62 -1.45,-1.31 -2.02,-1.62 -5.42,-2.91 -0.89,-1.09 -7.41,-3.08 3.15,3.37 0.7,1.64 5.77,4.78 4.94,3.07 -8.61,-2.04 5.55,1.7z"/>
   <path class="fil74" d="M462.62 455.52c4.33,5.4 -2.13,2.69 4.81,1.25 4.59,-0.95 1.61,1.33 2.39,-3.77l-7.2 2.52z"/>
   <path class="fil53" d="M616.44 1154.56c6.18,-1.98 2.14,-0.26 7.08,-3.13 0.5,-0.29 1.44,-0.58 1.8,-1.63 0.36,-1.05 1.08,-1.21 1.64,-1.8 -6.23,1.96 -2.39,0.35 -7.22,3.15 -0.49,0.28 -1.4,2.19 -1.75,1.62 -0.35,-0.56 -1.02,1.21 -1.56,1.79z"/>
   <path class="fil52" d="M286 1083.64c-2.19,-1.69 -1.68,-1.73 -6.39,-3.82 -4.23,-1.87 4.8,0.59 -5.89,-1.17 1.76,1.28 2.42,1.98 6.49,3.77 0.66,0.29 2.29,1.46 2.81,0.7 0.54,-0.8 1.99,0.35 2.99,0.52z"/>
   <path class="fil67" d="M617.56 483.33c8.03,-3.87 4.64,-1.47 8.57,-7.96 -5.13,2.9 -1.81,0.61 -5.86,4.16 -0.39,0.34 -1.15,2.34 -1.44,1.84 -0.28,-0.51 -0.84,1.32 -1.28,1.96z"/>
   <path class="fil67" d="M225.17 763.27c7.69,-4.09 4.67,-2.01 8.86,-8.64 -5.23,3.31 -1.86,0.77 -6.08,4.68 -0.42,0.39 -1.17,2.44 -1.47,1.93 -0.3,-0.5 -0.85,1.36 -1.3,2.03z"/>
   <path class="fil65" d="M147.07 818.28c8.58,-2.71 5.74,-2.6 8.89,-6.96 -5.9,2.93 -1.56,0.29 -6.38,3.85 -0.36,0.27 -1.12,2 -1.37,1.52 -0.25,-0.45 -0.75,1.07 -1.14,1.58z"/>
   <polygon class="fil25" points="765.85,693.71 756.04,687.79 756.04,691.36 "/>
   <path class="fil38" d="M1011.88 905.81c2.61,-2.53 1.99,-1.51 4.72,-5.52 3.03,-4.45 -1.24,4.17 1.89,-4.82 -0.58,0.52 -1.56,0.39 -1.79,1.51 -0.23,1.13 -1.34,1.24 -1.62,1.71 -2.8,4.72 -1.19,0.97 -3.2,7.12z"/>
   <path class="fil68" d="M38.31 905.19c-2.16,-5.66 0.31,-1.49 -2.02,-4.75 -2.82,-3.95 -2.05,-2.82 -4.8,-5.4 2.33,6.5 0.28,2.07 3.36,6.98 0.29,0.47 1.42,2.13 1.65,1.68 0.23,-0.44 1.22,0.98 1.81,1.49z"/>
   <path class="fil41" d="M52.37 288.91c-3.49,-8.2 1.09,-0.08 -2.15,-4.61 -2.52,-3.52 -2.41,-3.19 -4.86,-5.68 2.32,6.78 0.31,2.29 3.4,7.2 0.3,0.48 1.47,2.11 1.72,1.66 0.24,-0.45 1.27,0.94 1.89,1.43z"/>
   <path class="fil67" d="M613.66 1101.03c6.24,-2.21 1.96,-0.3 6.83,-3.21 0.49,-0.29 1.47,-0.56 1.83,-1.61 0.36,-1.06 1.12,-1.2 1.7,-1.78 -6.16,2.1 -2.07,0.26 -7.07,3.23 -0.48,0.28 -1.39,2.16 -1.74,1.6 -0.34,-0.55 -1.02,1.19 -1.55,1.76z"/>
   <path class="fil58" d="M195.56 636.16c5.52,-3.17 2.52,0.1 6.23,-4.13 3.42,-3.89 0.88,-0.81 3.88,-6.52l-10.11 10.65z"/>
   <path class="fil38" d="M7.54 219.11c-3.57,-8.34 1.2,-0.61 -2.24,-4.67 -3.54,-4.17 -1.09,-1.78 -5.3,-4.85 2.57,5.33 0.59,1.97 3.84,6.31 0.34,0.45 1.51,2.15 1.78,1.67 0.27,-0.49 1.29,1.02 1.92,1.54z"/>
   <path class="fil61" d="M994.88 291.89c2.86,-2.58 1.98,-1.31 4.76,-5.35 3.99,-5.8 -2.79,9.08 1.88,-4.99 -0.57,0.55 -1.53,0.46 -1.76,1.6 -0.23,1.15 -1.32,1.29 -1.61,1.77 -2.82,4.7 -1.23,1.2 -3.26,6.97z"/>
   <path class="fil49" d="M864.72 891.2c-2.21,-5.68 0.33,-1.52 -2.05,-4.7 -2.98,-3.99 -1.83,-2.52 -4.91,-5.22 4.91,12.79 -2.23,-0.93 2.06,4.79 2.87,3.83 1.87,2.56 4.91,5.13z"/>
   <path class="fil34" d="M443.23 522.09l14.44 -6.25c-4.28,1.08 -4.76,0.34 -8.24,1.96 -7.07,3.29 -1.2,-0.27 -6.19,4.29z"/>
   <path class="fil61" d="M146.78 267.2c-3.41,-11.16 1.05,-0.59 -1.74,-5 -2.6,-4.11 -2,-3.04 -4.49,-5.52 3.28,9.73 -1.22,0.05 1.86,4.94 2.27,3.61 2.39,3.48 4.37,5.57z"/>
   <path class="fil53" d="M49.48 922.49c-3.79,-9.21 1.22,-0.75 -2.24,-4.81 -3.54,-4.15 -1,-1.76 -5.33,-4.75 2.69,4.65 0.96,2 4.05,6.04 0.35,0.45 1.44,2.28 1.71,1.79 0.28,-0.49 1.21,1.14 1.81,1.73z"/>
   <path class="fil67" d="M984.65 856.56l5.09 -12.51c-0.61,0.72 -1.84,2.78 -2.01,2 -0.18,-0.88 -1.42,1.78 -2.05,2.73l-1.03 7.78z"/>
   <path class="fil33" d="M339.2 524.77c5.46,-3.54 2.34,4.35 6.5,-8.82l-6.5 8.82z"/>
   <path class="fil75" d="M345.64 1083.35l-11.68 -5.74c3.02,3.65 0.45,1.63 5.63,4.45 0.63,0.34 2.37,1.51 2.88,0.76 0.55,-0.81 2.1,0.47 3.17,0.52z"/>
   <path class="fil34" d="M567.6 637.76c-3.37,-3.89 -0.9,-2.5 -5.44,-5.48 -3.46,-2.27 -2.81,-1.43 -6.48,-2.95l11.91 8.43z"/>
   <path class="fil44" d="M880.27 858.38c7.86,-4.09 0.16,1.32 4.41,-2.51 3.38,-3.05 2.18,-1.86 4.62,-5.18 -9.45,5.06 1.36,-2.45 -4.01,2.36 -3.08,2.75 -2.53,2.32 -5.02,5.34z"/>
   <path class="fil58" d="M628.61 405.46c8.49,-3.53 0.48,0.9 7.27,-3.25 4.18,-2.56 2.68,-2.2 5.26,-4.94l-12.53 8.19z"/>
   <path class="fil52" d="M918.14 818.35c-0.56,-0.56 -1.26,-2.32 -1.63,-1.74 -0.38,0.59 -1.32,-1.28 -1.84,-1.53 -4.92,-2.38 -0.64,-1.06 -7.62,-2.58l11.09 5.85z"/>
   <path class="fil65" d="M783.77 365.89c8.39,-5.09 5.04,-3.71 7.84,-8.48l-7.84 8.48z"/>
   <path class="fil44" d="M142.24 1011.88c-3.85,-4.16 -0.39,-3.13 -9.48,-5.46l9.48 5.46z"/>
   <path class="fil44" d="M38.17 266.39c-2.65,-6.28 0.58,-1.06 -2.12,-4.48 -3.19,-4.05 -1.73,-2.34 -5.25,-5.42l7.37 9.9z"/>
   <polygon class="fil34" points="727,262.15 735.87,254.22 "/>
   <polygon class="fil34" points="305.63,397.63 300.24,388.32 "/>
   <polygon class="fil41" points="505.35,10.17 515.34,5.34 "/>
  </g>
 </g>
</svg>
