<?xml version="1.0" encoding="UTF-8"?>
<!DOCTYPE svg PUBLIC "-//W3C//DTD SVG 1.1//EN" "http://www.w3.org/Graphics/SVG/1.1/DTD/svg11.dtd">
<!-- Creator: CorelDRAW 2020 (64 Bit) -->
<svg xmlns="http://www.w3.org/2000/svg" xml:space="preserve" width="662.644mm" height="870.698mm" version="1.1" style="shape-rendering:geometricPrecision; text-rendering:geometricPrecision; image-rendering:optimizeQuality; fill-rule:evenodd; clip-rule:evenodd"
viewBox="0 0 7052.09 9266.27"
 xmlns:xlink="http://www.w3.org/1999/xlink"
 xmlns:xodm="http://www.corel.com/coreldraw/odm/2003">
 <defs>
  <style type="text/css">
   <![CDATA[
    .fil1 {fill:none}
    .fil0 {fill:#FEFEFE}
    .fil2 {fill:#ED3237}
   ]]>
  </style>
 </defs>
 <g id="Camada_x0020_1">
  <metadata id="CorelCorpID_0Corel-Layer"/>
  <g id="sociedade-imperatriz-de-desportos-seeklogo.com.cdr">
   <polygon class="fil0" points="3443.54,9111.69 3322.83,8981.34 3245.36,8912.82 3159.72,8849.85 3066.44,8791.74 2965.64,8738.06 2858.16,8688.39 2744.57,8642.22 2625.68,8598.99 2502.28,8557.99 2375.06,8518.61 2244.74,8480.23 2112.08,8442 1977.85,8403.18 1842.74,8363.14 1707.48,8320.93 1572.71,8275.78 1439.19,8226.77 1307.51,8173.02 1178.44,8113.67 1052.62,8047.6 931.13,7974.07 814.54,7891.9 704.09,7800.3 600.81,7698.35 505.68,7585.37 420.06,7460.89 344.82,7324.44 281.18,7175.81 229.78,7014.59 191.15,6840.59 165.93,6653.32 154.6,6452.6 155.68,6310.34 167.07,6173.32 187.84,6042.25 217.02,5917.16 253.49,5797.83 296.18,5683.95 343.92,5575.43 395.69,5471.65 450.41,5372.42 507.04,5277.31 564.57,5185.91 622.02,5097.74 678.42,5012.56 732.86,4930.09 784.41,4849.79 832.25,4771.7 875.42,4695.46 913.3,4620.89 945.27,4547.93 970.66,4476.12 989.15,4405.32 1000.54,4334.63 1004.39,4263.35 1000.12,4190.15 986.8,4113.77 963.4,4033.01 928.51,3946.91 880.6,3855.03 818.47,3756.72 740.79,3652.01 646.49,3540.65 435.33,3317.62 1439.59,2170.21 1596.24,2237.04 1649.14,2257.52 1703.95,2276.65 1760.33,2294.34 1818.42,2310.53 1877.82,2325.2 1938.49,2338.38 2000.1,2349.85 2062.74,2359.62 2126.13,2367.68 2190.12,2373.96 2254.67,2378.5 2319.5,2381.1 2384.46,2381.9 2449.44,2380.76 2514.42,2377.71 2579.03,2372.66 2643.17,2365.65 2706.81,2356.61 2769.81,2345.55 2831.84,2332.35 2892.96,2317.1 2952.86,2299.8 3011.54,2280.34 3068.82,2258.82 3124.6,2235.16 3178.71,2209.35 3231.04,2181.36 3281.48,2151.35 3329.96,2119.05 3376.45,2084.74 3422.63,2046.57 3526.21,1956.93 3629.57,2046.63 3675.59,2084.74 3722.03,2119.13 3770.53,2151.35 3821.01,2181.36 3873.36,2209.35 3927.48,2235.16 3983.17,2258.82 4040.5,2280.34 4099.15,2299.8 4159.12,2317.1 4220.18,2332.35 4282.28,2345.55 4345.14,2356.61 4408.82,2365.65 4473.04,2372.66 4537.67,2377.71 4602.6,2380.76 4667.58,2381.9 4732.59,2381.1 4797.37,2378.5 4861.9,2373.96 4925.95,2367.68 4989.31,2359.62 5051.94,2349.85 5113.6,2338.38 5174.25,2325.2 5233.65,2310.53 5291.63,2294.34 5348.07,2276.65 5402.95,2257.52 5455.85,2237.04 5612.51,2170.21 6616.8,3317.62 6405.6,3540.65 6311.3,3652.01 6233.57,3756.72 6171.49,3855.03 6123.58,3946.91 6088.66,4033.01 6065.29,4113.77 6051.92,4190.15 6047.67,4263.35 6051.48,4334.67 6062.89,4405.29 6081.39,4476.12 6106.77,4547.93 6138.72,4620.89 6176.66,4695.46 6219.84,4771.7 6267.63,4849.79 6319.23,4930.09 6373.67,5012.56 6430.1,5097.74 6487.51,5185.91 6545,5277.27 6601.6,5372.42 6656.4,5471.65 6708.09,5575.43 6755.91,5683.95 6798.55,5797.83 6834.98,5917.16 6864.24,6042.25 6885.03,6173.32 6896.41,6310.34 6897.45,6452.6 6886.11,6653.32 6860.9,6840.59 6822.29,7014.59 6770.86,7175.81 6707.17,7324.44 6632.01,7460.89 6546.35,7585.37 6451.28,7698.35 6347.92,7800.3 6237.45,7891.9 6120.88,7974.07 5999.41,8047.6 5873.67,8113.67 5744.52,8173.02 5612.9,8226.77 5479.38,8275.78 5344.53,8320.93 5209.28,8363.14 5074.19,8403.18 4940.01,8442 4807.26,8480.23 4677.03,8518.61 4549.75,8557.99 4426.33,8598.99 4307.44,8642.22 4193.86,8688.39 4086.34,8738.06 3985.67,8791.74 3892.29,8849.85 3806.74,8912.82 3729.26,8981.34 3608.56,9111.69 "/>
   <path class="fil1" d="M3582.89 6926.62c0.6,-2.35 1.37,-4.65 2.16,-7.05"/>
   <path class="fil1" d="M3585.77 6921.05c0.16,0.53 0.16,0.97 0.16,1.48 -0.18,1.66 -1.35,3.4 -3.35,5.23"/>
   <path class="fil0" d="M3585.05 6919.57c0.37,0.5 0.63,0.95 0.72,1.48 -0.1,-0.45 -0.35,-0.93 -0.72,-1.48z"/>
   <path class="fil2" d="M3376.01 9266.27l-161.41 -174.25 -66.5 -58.76 -75.11 -55.35 -83.89 -52.16 -92.27 -49.09 -100.24 -46.33 -107.55 -43.77 -114.18 -41.59 -119.79 -39.75 -124.73 -38.52 -128.91 -38.08 -132.17 -38.09 -134.86 -38.9 -136.72 -40.58 -137.76 -42.99 -138.4 -46.35 -138.16 -50.76 -137.43 -56.07 -135.84 -62.48 -133.5 -70.04 -130.13 -78.84 -125.9 -88.69 -120.31 -99.79 -113.11 -111.61 -104.6 -124.17 -94.26 -137.05 -82.62 -149.91 -69.51 -162.43 -55.84 -174.92 -41.49 -187.29 -26.9 -199.66 -11.92 -211.52 1.08 -153.09 12.37 -148.62 22.57 -142.15 31.58 -135.63 39.45 -128.87 45.89 -122.42 51.01 -116.04 54.81 -109.87 57.5 -104.22 58.88 -99.01 59.21 -94.14 58.45 -89.59 56.55 -85.5 53.9 -81.67 50.09 -78 45.57 -74.37 40.27 -71.02 34.29 -67.39 27.83 -63.89 21.36 -60.29 15.08 -57.35 8.81 -55.23 2.96 -54.41 -3.33 -55.8 -10.23 -59.23 -18.85 -64.9 -29.14 -71.92 -41.51 -79.75 -55.62 -87.81 -71.26 -96.2 -88.35 -104.27 -304.97 -322.19 1170.85 -1337.66 257.29 109.81 48.1 18.62 49.95 17.44 51.82 16.17 53.51 14.96 54.88 13.61 56.2 12.12 57.38 10.66 58.2 9.15 59 7.47 59.71 5.93 60.05 4.11 60.37 2.54 60.43 0.71 60.42 -1.03 60.32 -2.87 59.8 -4.67 59.4 -6.49 58.53 -8.32 57.8 -10.21 56.78 -12 55.67 -13.92 54.33 -15.75 52.98 -17.46 51.33 -19.33 49.63 -21.13 47.97 -22.79 46.05 -24.57 44.02 -26.29 42.1 -27.94 39.93 -29.59 41.72 -34.44 203.52 -176.11 203.14 176.24 41.49 34.31 39.95 29.59 42.01 27.94 44.1 26.29 46.05 24.57 47.84 22.79 49.73 21.1 51.41 19.36 52.87 17.46 54.38 15.75 55.64 13.92 56.78 12 57.76 10.21 58.62 8.32 59.36 6.49 59.84 4.67 60.24 2.87 60.43 1.03 60.44 -0.71 60.43 -2.54 60.05 -4.11 59.67 -5.93 58.99 -7.47 58.28 -9.18 57.31 -10.63 56.15 -12.12 54.98 -13.61 53.51 -14.96 51.77 -16.17 50 -17.44 48.11 -18.62 257.32 -109.81 1170.86 1337.66 -305.07 322.19 -88.32 104.28 -71.26 96.18 -55.67 87.81 -41.49 79.75 -29.14 71.92 -18.82 64.9 -10.34 59.31 -3.19 55.82 2.91 54.42 8.84 55.06 14.98 57.41 21.34 60.29 27.85 63.8 34.29 67.4 40.25 71.1 45.67 74.38 50.03 77.98 53.9 81.67 56.59 85.5 58.44 89.61 59.23 94.12 58.9 99.01 57.51 104.22 54.78 109.87 51.05 116.04 45.86 122.42 39.41 128.87 31.65 135.63 22.55 142.14 12.31 148.61 1.16 153.12 -11.92 211.52 -26.95 199.66 -41.45 187.29 -55.85 174.92 -69.62 162.53 -82.62 149.87 -94.18 137 -104.57 124.17 -113.22 111.61 -120.25 99.79 -125.87 88.69 -130.2 78.84 -133.51 70.04 -135.77 62.48 -137.42 56.07 -138.16 50.76 -138.41 46.35 -137.87 42.99 -136.69 40.58 -134.82 38.9 -132.18 38.09 -128.81 38.08 -124.8 38.52 -119.84 39.75 -114.11 41.59 -107.5 43.77 -100.3 46.33 -92.22 49.09 -83.89 52.16 -75.09 55.35 -66.51 58.76 -161.4 174.25 -300.07 0zm67.53 -154.59l-120.71 -130.34 -77.46 -68.52 -85.65 -62.96 -93.28 -58.12 -100.8 -53.67 -107.47 -49.68 -113.59 -46.16 -118.89 -43.24 -123.4 -41 -127.22 -39.38 -130.31 -38.39 -132.66 -38.22 -134.22 -38.82 -135.11 -40.04 -135.26 -42.21 -134.77 -45.15 -133.52 -49.01 -131.68 -53.75 -129.07 -59.34 -125.82 -66.08 -121.49 -73.53 -116.59 -82.17 -110.45 -91.61 -103.28 -101.95 -95.14 -112.98 -85.61 -124.48 -75.24 -136.45 -63.64 -148.63 -51.4 -161.23 -38.63 -173.99 -25.22 -187.27 -11.32 -200.72 1.08 -142.27 11.39 -137.01 20.76 -131.07 29.18 -125.1 36.47 -119.32 42.68 -113.88 47.75 -108.52 51.77 -103.78 54.72 -99.22 56.63 -95.12 57.52 -91.39 57.46 -88.18 56.39 -85.18 54.45 -82.48 51.54 -80.29 47.84 -78.09 43.17 -76.24 37.88 -74.56 31.97 -72.97 25.39 -71.81 18.49 -70.8 11.39 -70.69 3.85 -71.28 -4.27 -73.2 -13.32 -76.38 -23.41 -80.76 -34.89 -86.1 -47.91 -91.88 -62.13 -98.31 -77.69 -104.72 -94.29 -111.35 -211.16 -223.03 1004.26 -1147.42 156.65 66.84 52.9 20.47 54.81 19.14 56.38 17.69 58.09 16.19 59.4 14.67 60.66 13.17 61.62 11.47 62.64 9.78 63.38 8.05 63.99 6.28 64.55 4.54 64.83 2.59 64.96 0.81 64.98 -1.15 64.98 -3.04 64.61 -5.06 64.14 -7.01 63.64 -9.04 62.99 -11.07 62.04 -13.19 61.11 -15.25 59.91 -17.3 58.68 -19.46 57.28 -21.52 55.78 -23.66 54.11 -25.81 52.34 -28 50.43 -30.01 48.49 -32.3 46.48 -34.31 46.18 -38.18 103.57 -89.64 103.37 89.7 46.02 38.12 46.44 34.39 48.5 32.21 50.49 30.01 52.35 28 54.12 25.81 55.68 23.66 57.33 21.52 58.65 19.46 59.97 17.3 61.06 15.25 62.1 13.19 62.87 11.07 63.67 9.04 64.22 7.01 64.63 5.06 64.93 3.04 64.98 1.15 65.01 -0.81 64.79 -2.59 64.53 -4.54 64.04 -6.28 63.37 -8.05 62.63 -9.78 61.66 -11.47 60.64 -13.17 59.4 -14.67 57.97 -16.19 56.44 -17.69 54.88 -19.14 52.9 -20.47 156.66 -66.84 1004.29 1147.42 -211.21 223.03 -94.29 111.35 -77.73 104.72 -62.08 98.31 -47.9 91.88 -34.92 86.1 -23.37 80.76 -13.37 76.38 -4.25 73.2 3.82 71.32 11.4 70.62 18.51 70.83 25.37 71.81 31.96 72.97 37.94 74.56 43.19 76.24 47.79 78.09 51.59 80.29 54.45 82.48 56.42 85.18 57.41 88.18 57.49 91.36 56.6 95.15 54.8 99.22 51.69 103.78 47.83 108.52 42.64 113.88 36.43 119.32 29.25 125.1 20.8 131.07 11.37 137.01 1.05 142.27 -11.34 200.72 -25.21 187.27 -38.61 173.99 -51.43 161.23 -63.69 148.63 -75.16 136.45 -85.66 124.48 -95.07 112.98 -103.36 101.95 -110.47 91.61 -116.57 82.17 -121.47 73.53 -125.74 66.08 -129.15 59.34 -131.62 53.75 -133.52 49.01 -134.86 45.15 -135.24 42.21 -135.1 40.04 -134.18 38.82 -132.75 38.22 -130.23 38.39 -127.29 39.38 -123.42 41 -118.89 43.24 -113.57 46.16 -107.52 49.68 -100.67 53.67 -93.38 58.12 -85.55 62.96 -77.48 68.52 -120.69 130.34 -165.03 0zm67.53 -154.68c-50.45,-60.42 -106.86,-115.02 -168.46,-164.46 -61.5,-49.68 -128.15,-94.2 -198.93,-134.79 -70.86,-40.71 -145.76,-77.38 -223.88,-111.11 -78.22,-33.86 -159.61,-64.75 -243.23,-93.73 -83.63,-28.9 -169.53,-55.96 -256.81,-82.23 -87.24,-26.26 -175.87,-51.66 -264.74,-77.25 -0.21,-0.05 -0.45,-0.11 -0.7,-0.15 -1699.6,-1492.78 243.31,-2502.79 176.48,-3771.59l2400.96 0c-66.77,1267.53 1872.18,2276.85 181.44,3767.16 -5.38,1.58 -10.75,3.08 -16.06,4.58 -88.93,25.58 -177.46,50.99 -264.83,77.25 -87.23,26.27 -173.14,53.33 -256.78,82.23 -83.7,29.06 -164.99,59.87 -243.23,93.7 -78.05,33.76 -153.08,70.44 -223.84,111.15 -70.82,40.59 -137.48,85.11 -198.98,134.79 -61.55,49.44 -118.01,104.04 -168.44,164.46l-1.92 0 -1.87 0 -1.79 0 -1.93 0 -1.86 0 -1.88 0 -1.88 0 -1.87 0 -1.92 0 -1.85 0 -1.85 0 -1.87 0 -1.93 0 -1.79 0 -1.9 0 -1.87 0zm-1401.71 -676.63c-73.84,-21.24 -147.85,-42.75 -221.55,-65.12 -88.83,-26.95 -177.08,-55.06 -263.85,-85.39 -86.74,-30.25 -172,-62.88 -254.89,-98.64 -82.87,-35.92 -163.29,-74.88 -240.3,-118.26 -77.06,-43.28 -150.74,-90.96 -220.13,-143.83 -69.36,-52.96 -134.42,-111.23 -194.2,-175.73 -59.77,-64.66 -114.32,-135.52 -162.69,-213.78 -48.3,-78.22 -90.5,-163.9 -125.52,-257.87 -35,-94 -62.96,-196.45 -82.68,-308.24 -19.83,-111.77 -31.59,-233.05 -34.29,-364.7 -2.69,-89.74 1.48,-175.16 11.42,-256.84 9.91,-81.75 25.56,-159.82 45.8,-234.57 20.11,-74.76 44.86,-146.3 72.97,-215.07 28.19,-68.86 59.59,-134.9 93.22,-198.77 33.58,-63.85 69.42,-125.54 106.3,-185.5 36.82,-60 74.67,-118.35 112.24,-175.37 37.71,-57.08 75.17,-112.98 111.24,-168.28 36.1,-55.2 70.84,-109.76 102.96,-164.2 32.26,-54.4 61.88,-108.58 87.77,-163.17 25.97,-54.64 48.1,-109.57 65.43,-165.33l825.08 0c-22.1,1316.04 -1810.75,2342.21 165.67,3758.69zm2995.13 -3758.69l829.05 0c17.27,55.77 39.42,110.69 65.37,165.33 25.89,54.59 55.51,108.79 87.77,163.17 32.12,54.44 66.86,109 102.98,164.17 36.05,55.33 73.51,111.23 111.22,168.31 37.57,57.02 75.4,115.37 112.23,175.37 36.84,59.95 72.73,121.65 106.31,185.5 33.61,63.87 65.06,129.91 93.22,198.77 28.11,68.78 52.86,140.31 72.97,215.07 20.23,74.75 35.88,152.76 45.79,234.57 9.95,81.69 14.11,167.11 11.42,256.84 -2.71,131.65 -14.46,252.93 -34.29,364.7 -19.8,111.79 -47.65,214.23 -82.68,308.24 -35,93.98 -77.22,179.65 -125.52,257.87 -48.37,78.27 -102.91,149.13 -162.7,213.78 -59.82,64.51 -124.82,122.77 -194.2,175.73 -69.37,52.85 -143.05,100.55 -220.12,143.83 -77,43.38 -157.42,82.34 -240.3,118.26 -82.81,35.76 -168.15,68.4 -254.88,98.64 -86.79,30.33 -175.03,58.49 -263.86,85.39 -51.48,15.56 -103.04,30.86 -154.75,45.84 1878.84,-1205.22 -18.63,-2370.09 94.96,-3739.41zm-820.36 1166.53c82.31,131.44 122.82,210.62 104.89,340.41 170.53,-42.46 226.09,-356.53 326.36,-443.05 25.6,89.98 167.05,113.17 218.67,171.16 46.63,52.08 -71.35,95.89 13.48,127.77 66.06,34.74 -19.78,74.15 -29.69,111.24 -25.79,42.64 86.2,165.41 150.74,198.96 34.49,-37.97 34.66,-101.38 17.82,-173.29 -65.62,-110.18 62.26,-166.15 -0.72,-281.49 -208.35,-129.83 -292.34,-510.45 -478.69,-366.28 -98.84,125.35 -235.56,216.97 -322.85,314.56zm-1797.49 866.84c-92.12,-149.51 -244.82,-314.25 -492.62,-329.02 67.07,41.61 81.63,59.87 113.11,89.85 -232.42,-105.41 -282.51,17.41 -448.92,26.15 25.05,53.25 153.31,13.01 137.79,49.63 -191.3,120.15 -178.63,201.64 -178.63,421.67l46.16 -110.13c3.14,38.11 13.74,92.35 27.83,155.23 14.74,138.8 18.8,366.39 -0.37,498.87 31.38,-30.94 52.35,-147.63 63.04,-228.73 33.72,153.12 55.08,311.51 -8.59,390.56 221,-59 151.74,-497.54 160.73,-670.1l33.37 167.06c81.62,-109.19 37.37,-160.74 35.62,-195.23 0.58,-126.22 21.39,-237.48 115.3,-288.59 -15.4,38.94 40.4,74.08 -27.4,116.72 113.63,49.11 134.15,-111.53 254.34,-86.28l-69.21 49.32c87.52,-12.29 108.11,8.49 185.12,46.42 6.12,-38.3 23.9,-72.73 53.33,-103.39zm769.6 -859.03c-9.89,100.22 75.5,196.18 -25.24,263.67 26.97,5.23 52.99,11.43 79.23,13.01 -178.78,348.4 -911.77,263.14 -880.73,900.43 -21.74,207.78 221.75,369.16 201.27,561.49 -13.66,128.78 -166.49,22.74 -133.76,176.61 -28.75,104.92 172.18,364.83 -16.49,380.06 -49.9,141.14 -63.08,10.6 -162.43,74.19 -34.84,12.2 3.7,289.56 28.9,267.79 85.16,6.85 92.7,-105.86 148.88,-145.36 69.73,-35.56 142.72,-23.36 185,-89.8 70.25,-138.67 -41.96,-247.55 21.04,-394.44 17.19,-113.58 163.11,-89.85 251.64,-223.51 75.26,-111.18 69.62,-277.36 52.27,-421.16 227.85,-165.84 569.15,-50.98 886.48,-305.32 -37.97,-19.62 -81.41,-11.42 -100.93,-49.07l18.62 -15.82c154.41,123.34 498.29,-134.75 681.3,-108.37 33.93,51.96 -11.5,217.79 -159.98,255.84 -36.87,38.83 28.42,90.49 -16.65,116.83 -29.01,48.4 -77.66,-16.93 -115.72,55.04 -18.41,37.42 7.84,189.02 57.18,226.06 96.95,-16.59 68.02,-175.82 187.17,-181.94 70.89,-68.56 -13.82,-90.93 122.61,-189.36 29.98,-124.51 84.6,-235.53 135.87,-300.89 30.07,-154.38 -51.27,-258.03 -181.95,-240.44 -163.27,17.06 -65.77,-0.64 -226.41,0.18 -28.04,-7.1 -29.24,-13.4 -29.93,-16.5 231.21,-350.59 51.79,-554.5 -114.37,-739.8 -57.05,-72.05 -254.1,-198.64 -278.46,-199.83 -50.38,15.14 -210.24,-31.77 -194.16,-191.54 110.91,314.52 267.9,32.75 537.68,266.61 11.63,10.16 21.91,-12.92 35.7,-2.37 19.44,-7.44 39.85,-17.53 47.49,-38.89l-75.01 -50.23 17.65 -19.36c116.35,104.96 150.71,-5.35 127.19,-114.75 -17.3,-14.35 -34.31,-26.59 -50.93,-37.19 -79.43,-72.94 -111.91,-105.71 -191.28,-178.72 -68.53,-47.78 -47.65,-96.99 -143.85,-172.21 6.49,-31.01 -12.32,-69.46 -4.4,-99.98 10.75,-47.28 38.82,-70.05 40.93,-127.11 -57.23,57.75 -105.62,53.48 -129.7,152.32 -9.75,-37.09 -15.3,-65.42 -11.08,-102.61 11.24,-32.14 40.12,-73.7 18.14,-106.65 -31.11,33.89 -115.79,66.42 -123.84,115.77 -93.86,-14.18 -178.96,17.61 -291.02,98.69 -53.93,7.48 -164.35,64.11 -204.17,80.25 55.41,44.09 115.72,4.22 111.5,10.15 -60.03,84.52 -153.51,-23.46 -282.66,154.29 82.62,-26.69 161.05,-50.17 201.2,-16.62 -103.3,-14.14 -195.95,92.48 -243.97,100.88 54.17,59.86 144.55,-29.83 200.38,20.33 -127.39,11.15 -148.12,143.75 -259.59,189.27 64.11,31.5 134.05,1.03 192.06,-11.91 -121.36,99.22 -40.65,183.21 -145.98,281.99 92.09,-4.85 122.54,-48.58 152.09,-74.98 -16.07,84.37 -0.4,203.67 -54.63,259.79 45.72,-5.59 78.53,-29.62 109.89,-54.82zm-74.93 1925.82c44.91,62.14 84.33,112.88 60.66,155.44 -8.89,11.61 -21.86,23.58 -39.75,36.02 -74.02,15.64 -21.1,45.53 -68.73,79.98 -21.63,15.56 -100.08,-29.78 -135.65,41.63 -38.64,43.49 5.33,203.98 63.46,278.34 182.44,-104.81 96.61,-212.89 200,-287.67 24.87,-27.07 59.53,-52.29 90.5,-78.17 13.5,-8.55 27.99,-16.29 43.68,-23.15 31.29,-13.53 25.43,-48.19 28.62,-75.79 30.09,-101.83 -186.58,-321.34 23.66,-483.31 184.47,-164.19 97.29,-229.78 129.56,-338.56 -85,30.67 -211.8,31.71 -371.95,68.18 -12,116.48 -19.24,342.13 -117.11,388.48 -0.05,21.76 -23.37,60.02 -17.93,80.04 17.45,64.3 67.12,114.4 110.97,158.53zm-364.79 -3885.13c0,207.69 -95.47,371.51 -286.25,491.45 -163.02,101.35 -352.17,151.96 -567.25,151.96 -152.56,0 -302.22,-14.29 -448.87,-42.98 -146.45,-28.8 -280.52,-74.36 -401.91,-136.81l145.65 -521.98 44.28 15.22c22.56,160.45 92.79,300.22 210.77,419.35 117.94,118.99 252.36,178.59 403.26,178.59 123.13,0 226.35,-28.74 309.61,-86.16 97.18,-65.88 145.76,-157.94 145.76,-276.15 0,-84.44 -46.86,-160.45 -140.54,-228.02 -104.04,-74.28 -251.49,-119.91 -442.22,-136.77 -102.41,0 -216.04,-41.4 -340.92,-124.18 -163.08,-108.1 -244.57,-245.77 -244.57,-412.92 0,-199.32 96.26,-348.82 288.77,-448.39 150.98,-77.77 332.22,-116.61 543.85,-116.61 83.24,0 164.83,6.72 244.55,20.3 79.78,13.53 228.09,48.95 444.92,106.39l-135.25 488.96 -41.67 -12.66c-22.55,-141.87 -79.78,-260.92 -171.72,-357.24 -100.63,-104.7 -220.24,-157.07 -359.04,-157.07 -100.63,0 -187.35,29.98 -260.18,89.93 -72.84,59.97 -109.29,142.29 -109.29,247.01 0,82.73 29.91,144.44 89.82,184.97 59.78,40.55 192.07,81.93 396.7,124.08 241.07,49.05 405.9,102.21 494.4,159.7 124.87,81.02 187.37,207.74 187.37,380.03zm-723.37 -1251.65c-215.09,0 -393.79,35.52 -536.02,106.47 -189.01,94.54 -283.53,239.87 -283.53,435.78 0,130.04 55.44,242.36 166.54,336.94 84.96,72.59 189.85,127.53 314.73,164.66 -152.6,-64.22 -261.04,-141.86 -325.3,-233.11 -53.64,-76.03 -80.57,-165.41 -80.57,-268.49 0,-140.24 49.47,-253.3 148.32,-339.5 123.13,-108.09 321.79,-175.72 595.83,-202.75zm424.06 1444.15c-15.58,-81.12 -37.26,-141.86 -65,-182.44 -86.76,-121.63 -238.51,-182.36 -455.32,-182.36 145.66,33.75 257.57,87 335.64,159.56 48.56,43.96 85.84,112.37 111.9,205.23 0,104.7 -39.06,190.01 -117.13,255.86 -71.12,60.77 -159.58,97.13 -265.33,108.97 116.14,1.64 218.52,-28.72 306.97,-91.28 98.92,-69.15 148.28,-160.42 148.28,-273.54zm1397.28 392.73l-871.66 0 0 -50.69c90.17,0 150.9,-47.29 182.18,-142.33 22.54,-69.23 33.83,-186.65 33.83,-352.57l0 -979.19c0,-84.45 -13.92,-143.99 -41.66,-177.8 -17.35,-21.92 -52.04,-41.33 -104.07,-58.28l0 -43.03 751.92 0 0 43.03c-52,13.54 -88.88,36.36 -110.56,68.44 -21.66,32.1 -32.51,84.85 -32.51,157.47l0 989.35c0,174.4 9.57,293.45 28.62,358.06 27.75,91.24 82.42,136.84 163.91,136.84l0 50.69zm-507.35 -547.26l0 -977.96c0,-72.6 -19.99,-130.03 -59.84,-172.26 -39.93,-42.24 -92.82,-63.37 -158.79,-63.37 53.78,18.64 88.53,37.21 104.15,55.77 27.69,33.81 41.61,93.71 41.61,179.86l0 977.96c0,173.98 -12.13,298.49 -36.43,373.7 -24.31,75.16 -72.04,116.06 -143.16,122.87 98.92,0 167.46,-47.29 205.6,-141.9 31.23,-76.04 46.86,-194.21 46.86,-354.67zm2724.13 -347.1c0,295.56 -110.95,526.15 -333.04,691.64 -182.14,135.16 -389.36,202.72 -621.86,202.72l-1056.37 0 0 -43.04c67.73,0 119.75,-47.84 156.15,-143.18 36.44,-95.43 54.64,-210.79 54.64,-345.77l0 -922.27c0,-99.61 -10.37,-172.23 -31.19,-217.88 -20.84,-45.65 -58.13,-75.16 -111.87,-88.7l0 -43.03 988.64 0c230.76,0 437.1,69.22 619.27,207.8 223.79,170.48 335.64,404.53 335.64,701.72zm-1652.15 362.37l0 -922.27c0,-103 -15.68,-179.86 -46.91,-230.52 -31.15,-50.72 -89.3,-76.06 -174.32,-76.06 53.87,13.54 91.56,43.06 113.24,88.7 21.65,45.65 32.49,118.27 32.49,217.88l0 922.27c0,136.74 -18.17,252.39 -54.66,347.04 -36.38,94.57 -89.31,141.91 -158.69,141.91 97.13,0 170.9,-49.92 221.14,-149.55 45.1,-87.85 67.7,-200.92 67.7,-339.4zm1118.79 -362.37c0,-278.71 -39.93,-478.85 -119.71,-600.42 -91.91,-141.89 -256.72,-212.88 -494.38,-212.88l-176.86 0 0 1178.11c0,197.63 16.06,320.55 48.1,368.6 32.13,48.16 109.73,72.22 232.9,72.22 183.87,0 320.01,-92.92 408.48,-278.68 67.64,-141.89 101.48,-317.52 101.48,-526.95zm-3257.06 -1638.68l-16.79 0.01c-23.88,-68.49 -52.13,-134.89 -85.3,-198.94 324.66,-103.56 790.42,-168.63 1306.42,-168.63 506.93,0 965.17,62.83 1289.04,163.19 -34.26,65.43 -63.25,133.29 -87.85,203.51 -260.13,-73.41 -701.76,-121.84 -1201.2,-121.84 -501.42,0 -944.65,48.79 -1204.34,122.71zm-145.49 -276.81c-153.16,-254.83 -393.16,-467.56 -762.31,-617.87 256.85,-99.06 513.78,-133.1 770.65,-23.95 93.65,-166.14 187.27,-332.24 280.94,-498.36l594.05 246.16c3.92,-322.35 182.23,-532.27 455.16,-617.72l1.19 -0.36 1.21 0.36c272.93,85.45 451.21,295.37 455.18,617.72l594.06 -246.16 280.99 498.36c256.84,-109.15 513.71,-75.11 770.61,23.95 -366.54,149.22 -605.69,360.03 -758.97,612.37 -343.03,-109.29 -814.17,-177.06 -1332.94,-177.06 -527.31,0 -1005.51,69.96 -1349.82,182.55zm1340.51 -546.32l-0.84 -0.59c-30.65,-23.02 -58.4,-48.29 -82.74,-75.26 -24.86,-27.51 -46.33,-56.89 -63.85,-87.79 -17.54,-30.72 -31.15,-63.18 -40.32,-96.74 -9.28,-33.63 -14.13,-68.4 -14.13,-103.8 0,-35.6 4.84,-70.33 14.13,-103.94 9.16,-33.5 22.77,-65.93 40.32,-96.86 17.53,-30.75 39,-60.18 63.77,-87.63 24.42,-27.03 52.17,-52.22 82.82,-75.26l0.84 -0.63 0.7 0.63c30.63,23.03 58.39,48.23 82.89,75.26 24.8,27.45 46.26,56.87 63.77,87.63 17.5,30.93 31.02,63.35 40.27,96.86 9.3,33.62 14.14,68.35 14.14,103.94 0,35.4 -4.84,70.17 -14.14,103.8 -9.25,33.56 -22.77,66.03 -40.27,96.74 -17.51,30.89 -38.96,60.28 -63.86,87.79 -24.4,26.97 -52.16,52.24 -82.79,75.26l-0.7 0.59zm3.1 502.37c53.46,0 97.03,32.6 97.03,72.55 0,40.01 -43.57,72.55 -97.03,72.55 -53.48,0 -97.03,-32.54 -97.03,-72.55 0,-39.95 43.55,-72.55 97.03,-72.55zm-527.47 22.08c53.41,0 96.96,32.64 96.96,72.55 0,40.03 -43.55,72.61 -96.96,72.61 -53.46,0 -97.08,-32.59 -97.08,-72.61 0,-39.91 43.62,-72.55 97.08,-72.55zm1030.97 0c-53.38,0 -96.99,32.64 -96.99,72.55 0,40.03 43.6,72.61 96.99,72.61 53.49,0 97.08,-32.59 97.08,-72.61 0,-39.91 -43.59,-72.55 -97.08,-72.55zm-895.62 -243.16l-0.48 -0.33c-19.43,-11.83 -37.36,-25.06 -53.61,-39.47 -16.3,-14.64 -31.07,-30.55 -43.57,-47.5 -12.61,-16.98 -22.95,-34.92 -30.96,-53.77 -7.98,-18.87 -13.48,-38.58 -16.33,-59 -2.91,-20.47 -2.91,-40.51 -0.26,-60.24 2.58,-19.7 7.76,-38.92 15.38,-57.36 7.65,-18.62 17.53,-36.4 29.58,-53.28 11.84,-16.63 25.82,-32.3 41.54,-46.89l0.39 -0.34 0.48 0.28c19.44,11.86 37.38,25.05 53.61,39.48 16.43,14.61 31.09,30.59 43.63,47.49 12.52,16.93 22.95,34.98 30.93,53.73 8.07,18.93 13.55,38.61 16.42,59.04 2.85,20.44 2.85,40.58 0.22,60.26 -2.58,19.68 -7.86,38.95 -15.44,57.38 -7.54,18.6 -17.48,36.37 -29.53,53.24 -11.92,16.62 -25.87,32.3 -41.52,46.97l-0.47 0.33zm770.02 0l0.53 -0.33c19.36,-11.83 37.34,-25.06 53.58,-39.47 16.45,-14.64 31.07,-30.55 43.62,-47.44 12.51,-17.04 22.92,-34.98 30.88,-53.84 7.99,-18.87 13.55,-38.58 16.45,-59 2.87,-20.47 2.87,-40.56 0.18,-60.24 -2.54,-19.65 -7.79,-38.92 -15.36,-57.36 -7.56,-18.62 -17.49,-36.4 -29.58,-53.28 -11.84,-16.58 -25.79,-32.3 -41.57,-46.89l-0.37 -0.34 -0.52 0.28c-19.44,11.86 -37.39,25.05 -53.54,39.48 -16.45,14.61 -31.17,30.59 -43.62,47.49 -12.59,16.93 -22.98,34.98 -30.96,53.73 -7.99,18.93 -13.51,38.61 -16.4,59.04 -2.82,20.44 -2.82,40.58 -0.23,60.26 2.6,19.68 7.81,38.95 15.39,57.38 7.56,18.6 17.56,36.37 29.57,53.24 11.92,16.62 25.84,32.3 41.54,46.97l0.42 0.33zm-1472.84 82.52l-0.63 -0.21c-22.92,-7.65 -44.86,-16.88 -65.45,-27.69 -21.02,-10.93 -40.75,-23.45 -58.7,-37.37 -18.02,-13.9 -34.31,-29.3 -48.63,-45.89 -14.19,-16.63 -26.41,-34.65 -36.32,-53.84 -9.84,-19.1 -16.88,-38.53 -21.18,-58.09 -4.34,-19.47 -5.99,-39.09 -5.16,-58.39 0.91,-19.37 4.24,-38.46 10.1,-57.14 5.62,-18.38 13.67,-36.23 23.73,-53.42l0.19 -0.42 0.61 0.21c22.89,7.65 44.83,16.9 65.51,27.69 21.02,10.92 40.62,23.45 58.65,37.34 17.96,13.9 34.29,29.25 48.58,45.87 14.26,16.58 26.54,34.65 36.35,53.75 9.84,19.2 16.83,38.61 21.23,58.18 4.34,19.57 5.98,39.05 5.09,58.45 -0.87,19.25 -4.27,38.45 -10.04,57.04 -5.68,18.42 -13.64,36.34 -23.74,53.46l-0.21 0.44zm2175.74 0l0.56 -0.21c22.91,-7.65 44.84,-16.88 65.49,-27.69 21.01,-10.93 40.66,-23.45 58.66,-37.3 17.98,-14.08 34.29,-29.37 48.55,-45.95 14.24,-16.65 26.55,-34.65 36.35,-53.84 9.97,-19.1 16.93,-38.53 21.28,-58.09 4.32,-19.47 6.04,-39.09 5.09,-58.39 -0.82,-19.37 -4.27,-38.46 -10.07,-57.14 -5.61,-18.36 -13.61,-36.23 -23.71,-53.42l-0.29 -0.42 -0.61 0.21c-22.84,7.65 -44.81,16.93 -65.47,27.69 -20.98,10.92 -40.66,23.45 -58.61,37.34 -18,13.9 -34.25,29.25 -48.63,45.87 -14.21,16.71 -26.5,34.65 -36.36,53.75 -9.85,19.2 -16.88,38.61 -21.23,58.18 -4.25,19.47 -5.92,39.05 -5.1,58.45 0.87,19.25 4.28,38.45 10.03,57.14 5.72,18.32 13.69,36.25 23.77,53.37l0.28 0.44zm-2121 232.74c53.43,0 97,32.62 97,72.57 0,40.01 -43.57,72.55 -97,72.55 -53.45,0 -97.05,-32.54 -97.05,-72.55 0,-39.95 43.6,-72.57 97.05,-72.57zm2056.49 0c-53.48,0 -97.07,32.62 -97.07,72.57 0,40.01 43.59,72.55 97.07,72.55 53.38,0 97.03,-32.54 97.03,-72.55 0,-39.95 -43.65,-72.57 -97.03,-72.57z"/>
  </g>
 </g>
</svg>
