<?xml version="1.0" encoding="UTF-8"?>
<!DOCTYPE svg PUBLIC "-//W3C//DTD SVG 1.1//EN" "http://www.w3.org/Graphics/SVG/1.1/DTD/svg11.dtd">
<!-- Creator: CorelDRAW 2019 (64 Bit) -->
<svg xmlns="http://www.w3.org/2000/svg" xml:space="preserve" width="155.222mm" height="169.333mm" version="1.1" style="shape-rendering:geometricPrecision; text-rendering:geometricPrecision; image-rendering:optimizeQuality; fill-rule:evenodd; clip-rule:evenodd"
viewBox="0 0 2510.38 2738.59"
 xmlns:xlink="http://www.w3.org/1999/xlink">
 <defs>
  <style type="text/css">
   <![CDATA[
    .fil2 {fill:#157357}
    .fil1 {fill:#B6303F}
    .fil0 {fill:#FEFEFE}
   ]]>
  </style>
 </defs>
 <g id="Camada_x0020_1">
  <metadata id="CorelCorpID_0Corel-Layer"/>
  <g id="_2645968094096">
   <path class="fil0" d="M924.24 1335.4l266.01 2.13 -0.89 382.39c-83.04,3.89 -196.04,-39.1 -265.22,-66.8l0.11 -317.73zm-130.5 0.07l-0.51 234.41c-52.99,-29 -149.44,-145.3 -167.62,-234.4l168.14 -0.01zm-532.18 0l253.33 0.02c32.85,145.07 160.39,310.16 278.07,364.19 2.89,58.62 3.94,136.39 1.29,194.8 -3.54,77.76 -40.06,78.31 -81.91,113.82 20.07,19.64 46.84,20.36 74.42,16.36 23.31,-3.38 56.78,-19.96 69.65,-20.7 21.96,-1.25 106.55,49.01 149.67,4.34 -30.48,-26.9 -65.96,-32.02 -78.37,-83.48 -7.01,-29.07 -4.61,-120.79 -2.93,-155.54 39.74,10.11 76.83,26.03 121.87,36.67 49.32,11.65 92.64,14.03 142.07,23.49 5.07,40.56 10.41,366.26 -8.51,406.22 -19.98,42.18 -54.95,43.27 -73.93,69.71 94.15,36.14 97.78,-9.3 148.89,-9.3 51.33,-0 54.15,45.36 148.88,9.28 -17.98,-25.03 -51.47,-27.35 -72.19,-65.75 -18.95,-35.12 -12.01,-86.65 -12,-128.61 0.01,-78.2 -7.79,-209.94 1.58,-281.68 139.12,-24.74 209.39,-31.08 326.86,-89.7 78.73,-39.29 208.52,-127.85 234.89,-186.51 -30.59,-0.14 -61.21,0.11 -91.8,-0.13 -97.2,-0.76 -30.48,11.37 -183.54,89.06 -65,33 -201.99,80.99 -287.03,78l-0.98 -382.67 928.95 -1.92c-45.21,204.5 -258.33,576.25 -390.47,734.04 -146.07,174.43 -242.58,276.44 -431.56,412.81 -22.51,16.24 -154.87,109.94 -171.6,109.94 -34.25,0 -283.83,-195.8 -324.74,-230.73l-143.77 -135.65c-139.82,-150.5 -252.69,-302.02 -356.36,-493.84 -46.25,-85.58 -149.79,-296.46 -168.76,-396.53zm662.77 -200.88l265.95 2.58 -1.67 109.59 -264.18 -0.09 -0.11 -112.07zm-288.97 112.18c3.81,-57.33 98.58,-176.54 158.12,-215.72 0.61,53.89 4.8,172.75 -2.62,215.84l-155.51 -0.12zm289.55 -298.82c74.21,-29.13 174.21,-66.28 264.99,-65.55l0.3 145.62 -266.61 -0.19 1.32 -79.88zm1.8 -254.91l263.1 1.2 -0.62 78.62c-45.55,10.25 -93.73,12.18 -142.1,23.45 -45.25,10.54 -81.7,25 -123.42,36l3.04 -139.27zm-797.87 -170.54c233.5,-27.03 415.73,-50.42 625.47,-121.98 131.91,-45.01 274.95,-103.17 390.28,-174.43 140.76,-86.97 80.31,-86.67 224.7,2.21 39.18,24.11 79.38,43.27 122.52,65.73 270.82,141.01 584.16,192.73 889.72,228.49 17,107.64 -60.05,648.03 -106.75,724.38l-954.53 -1.12 -0.1 -109.41c48.81,-3.96 164.48,-8.27 197.98,21.31 42.99,37.97 -0.24,31.95 89.42,31.47l-61.39 -188.59c-31.59,14.53 -36.41,25.06 -85.31,27.27l-141.05 -2.03 0.64 -144.88c77.41,-6.51 214.49,32.13 281.58,55.92 91.67,32.51 149.9,72.95 223.69,112.45 19.07,-16.65 47.42,-63.73 56.3,-89.84 -153.01,-86.99 -261.56,-147.8 -452.16,-175.81 -113.36,-16.66 -110.38,5.69 -110.66,-41.33 -0.09,-15.9 0.11,-32.64 2.47,-48.15 39.89,-3.54 338.48,-5.79 381.13,5.12 42.05,10.76 49.04,30.89 71.57,56.17l73.46 -0.38 -67.76 -206.16c-51.06,20.14 -40.47,33.02 -119.8,33.02 -66.44,0.04 -291.16,3.7 -340.41,-2.02 0,-102.21 7.63,-124.48 83.22,-162.54 -52.51,-48.79 -119.24,2.12 -147.9,2.12 -28.8,0 -94.61,-50.82 -147.83,-2.2 72.97,37.5 82.83,58.17 82.89,162.99l-226.04 1.66c-95.02,0 -123.45,-11.13 -205.67,-31.45 47.61,155.69 35.22,153.46 35.22,328.16 0,20.7 -1.95,20.16 -19.54,32.68 -66.25,47.15 -92.66,66.74 -146.55,132.88 -80.66,98.98 -68.7,123.19 -110.39,202.7l-281.7 -0.12c-46.73,-76.48 -123.73,-616.55 -106.74,-724.26zm-73.36 -67.94c0,848.1 316.89,1564.83 944.91,2053.89 27.72,21.59 227.99,165.46 254.81,165.46 27.28,-0 230.26,-146.21 258.02,-167.97 239.16,-187.4 440.27,-404.53 598.61,-685.12 223.82,-396.62 343.08,-829.86 343.08,-1366.26 -355.36,-11.39 -785.89,-118.71 -1083.89,-307.96 -32.5,-20.64 -90.52,-66.02 -115.82,-77.41 -7.72,3.47 -154.83,103.9 -247.96,150.67 -281.5,141.37 -625.76,224.25 -951.75,234.7z"/>
   <path class="fil1" d="M128.84 522.51c-16.98,107.72 60.01,647.79 106.74,724.26l281.7 0.12c41.69,-79.51 29.73,-103.72 110.39,-202.7 53.9,-66.14 80.3,-85.73 146.55,-132.88 17.58,-12.51 19.54,-11.98 19.54,-32.68 -0,-174.7 12.39,-172.47 -35.22,-328.16 82.22,20.31 110.65,31.45 205.67,31.45l226.04 -1.66c-0.06,-104.82 -9.92,-125.49 -82.89,-162.99 53.21,-48.62 119.03,2.2 147.83,2.2 28.66,0 95.39,-50.9 147.9,-2.12 -75.59,38.06 -83.22,60.33 -83.22,162.54 49.25,5.72 273.97,2.06 340.41,2.02 79.33,0 68.74,-12.88 119.8,-33.02l67.76 206.16 -73.46 0.38c-22.53,-25.29 -29.52,-45.41 -71.57,-56.17 -42.65,-10.91 -341.24,-8.66 -381.13,-5.12 -2.36,15.51 -2.56,32.25 -2.47,48.15 0.28,47.03 -2.7,24.67 110.66,41.33 190.6,28.02 299.15,88.82 452.16,175.81 -8.88,26.11 -37.23,73.19 -56.3,89.84 -73.79,-39.5 -132.02,-79.93 -223.69,-112.45 -67.09,-23.79 -204.18,-62.43 -281.58,-55.92l-0.64 144.88 141.05 2.03c48.9,-2.22 53.72,-12.75 85.31,-27.27l61.39 188.59c-89.66,0.48 -46.43,6.5 -89.42,-31.47 -33.5,-29.59 -149.17,-25.28 -197.98,-21.31l0.1 109.41 954.53 1.12c46.7,-76.35 123.75,-616.74 106.75,-724.38 -305.56,-35.75 -618.9,-87.48 -889.72,-228.49 -43.14,-22.46 -83.34,-41.62 -122.52,-65.73 -144.4,-88.87 -83.94,-89.18 -224.7,-2.21 -115.33,71.26 -258.37,129.41 -390.28,174.43 -209.74,71.57 -391.97,94.96 -625.47,121.98z"/>
   <path class="fil2" d="M514.89 1335.49l-253.33 -0.02c18.97,100.07 122.5,310.94 168.76,396.53 103.67,191.82 216.53,343.34 356.36,493.84l143.77 135.65c40.91,34.93 290.49,230.73 324.74,230.73 16.73,0 149.09,-93.7 171.6,-109.94 188.98,-136.37 285.49,-238.38 431.56,-412.81 132.14,-157.79 345.26,-529.54 390.47,-734.04l-928.95 1.92 0.98 382.67c85.03,3 222.02,-45 287.03,-78 153.06,-77.7 86.34,-89.83 183.54,-89.06 30.59,0.24 61.2,-0 91.8,0.13 -26.37,58.67 -156.16,147.22 -234.89,186.51 -117.47,58.62 -187.74,64.97 -326.86,89.7 -9.37,71.74 -1.57,203.48 -1.58,281.68 -0,41.96 -6.95,93.49 12,128.61 20.72,38.39 54.21,40.72 72.19,65.75 -94.73,36.08 -97.55,-9.28 -148.88,-9.28 -51.12,0 -54.75,45.44 -148.89,9.3 18.98,-26.44 53.95,-27.52 73.93,-69.71 18.93,-39.96 13.59,-365.67 8.51,-406.22 -49.43,-9.46 -92.76,-11.84 -142.07,-23.49 -45.05,-10.64 -82.14,-26.56 -121.87,-36.67 -1.68,34.75 -4.08,126.47 2.93,155.54 12.41,51.46 47.88,56.58 78.37,83.48 -43.13,44.66 -127.71,-5.59 -149.67,-4.34 -12.88,0.73 -46.34,17.31 -69.65,20.7 -27.59,4 -54.35,3.28 -74.42,-16.36 41.85,-35.51 78.38,-36.06 81.91,-113.82 2.65,-58.41 1.6,-136.19 -1.29,-194.8 -117.67,-54.03 -245.22,-219.11 -278.07,-364.19z"/>
   <path class="fil1" d="M55.48 454.57c325.99,-10.45 670.25,-93.33 951.75,-234.7 93.14,-46.77 240.25,-147.2 247.96,-150.67 25.3,11.39 83.32,56.77 115.82,77.41 297.99,189.25 728.53,296.57 1083.89,307.96 0,536.4 -119.26,969.63 -343.08,1366.26 -158.34,280.59 -359.45,497.73 -598.61,685.12 -27.76,21.75 -230.74,167.96 -258.02,167.97 -26.82,0 -227.09,-143.87 -254.81,-165.46 -628.02,-489.05 -944.91,-1205.79 -944.91,-2053.89zm-55.48 -38.08c0,597.47 131.26,1064.91 364.83,1455.19 61.93,103.48 104.04,166.52 177.09,262.23l98.45 118.36c63.17,68.3 67.04,75.33 136.96,136.9l85.64 79.82c62.97,58.56 358.78,269.59 392.23,269.59 11.27,0 121.71,-69.67 136.99,-79.82 68.07,-45.19 187.66,-129.37 252.31,-187l170.68 -160.24c19.59,-24.56 30.62,-34.11 52.04,-56.36l101.26 -121.25c363.61,-476.45 541.91,-1008.08 541.91,-1717.43 0,-28.67 -59.03,-16.15 -85.77,-16.93l-95.97 -6.72c-58.59,-6.25 -125.74,-14.28 -185.88,-25.22 -285.84,-52.03 -622.4,-159.95 -854.16,-343.97 -16.79,-13.33 -12.81,-12.74 -33.41,-23.64 -43.36,22.94 -117.32,92.91 -254.84,161.65 -264.24,132.08 -567.62,217.74 -863.41,232.03 -24.77,1.2 -20.81,4.39 -45.63,5.72 -27.32,1.47 -91.31,-12.23 -91.31,17.09z"/>
   <path class="fil2" d="M924.13 1653.13c69.19,27.7 182.18,70.69 265.22,66.8l0.89 -382.39 -266.01 -2.13 -0.11 317.73z"/>
   <path class="fil1" d="M924.91 947.96l-1.32 79.88 266.61 0.19 -0.3 -145.62c-90.78,-0.73 -190.78,36.42 -264.99,65.55z"/>
   <polygon class="fil1" points="924.44,1246.66 1188.62,1246.76 1190.29,1137.17 924.33,1134.59 "/>
   <path class="fil1" d="M923.67 832.32c41.72,-10.99 78.17,-25.45 123.42,-36 48.37,-11.27 96.55,-13.21 142.1,-23.45l0.62 -78.62 -263.1 -1.2 -3.04 139.27z"/>
   <path class="fil2" d="M793.22 1569.88l0.51 -234.41 -168.14 0.01c18.18,89.1 114.63,205.4 167.62,234.4z"/>
   <path class="fil1" d="M635.36 1246.78l155.51 0.12c7.42,-43.1 3.23,-161.95 2.62,-215.84 -59.54,39.19 -154.32,158.39 -158.12,215.72z"/>
  </g>
 </g>
</svg>
