<?xml version="1.0" encoding="UTF-8"?>
<!DOCTYPE svg PUBLIC "-//W3C//DTD SVG 1.1//EN" "http://www.w3.org/Graphics/SVG/1.1/DTD/svg11.dtd">
<!-- Creator: CorelDRAW 2020 (64 Bit) -->
<svg xmlns="http://www.w3.org/2000/svg" xml:space="preserve" width="453.95mm" height="453.95mm" version="1.1" style="shape-rendering:geometricPrecision; text-rendering:geometricPrecision; image-rendering:optimizeQuality; fill-rule:evenodd; clip-rule:evenodd"
viewBox="0 0 24225.08 24225.08"
 xmlns:xlink="http://www.w3.org/1999/xlink"
 xmlns:xodm="http://www.corel.com/coreldraw/odm/2003">
 <defs>
  <style type="text/css">
   <![CDATA[
    .str0 {stroke:#0706FF;stroke-width:80.05;stroke-miterlimit:22.9256}
    .fil1 {fill:#FEFEFE}
    .fil0 {fill:#261867}
    .fil3 {fill:red}
    .fil2 {fill:#FEFEFE;fill-rule:nonzero}
    .fil5 {fill:#006633;fill-rule:nonzero}
    .fil4 {fill:#006633;fill-rule:nonzero}
   ]]>
  </style>
 </defs>
 <g id="Camada_x0020_1">
  <metadata id="CorelCorpID_0Corel-Layer"/>
  <g id="independente-atletico-clube-pa-seeklogo.com.cdr">
   <path class="fil0 str0" d="M12112.54 40.02c6667.46,0 12072.52,5405.06 12072.52,12072.51 0,6667.47 -5405.06,12072.52 -12072.52,12072.52 -6667.46,0 -12072.52,-5405.06 -12072.52,-12072.52 0,-6667.46 5405.06,-12072.51 12072.52,-12072.51zm0 3368.4c4807.14,0 8704.11,3896.96 8704.11,8704.11 0,4807.15 -3896.96,8704.12 -8704.11,8704.12 -4807.14,0 -8704.11,-3896.96 -8704.11,-8704.12 0,-4807.14 3896.96,-8704.11 8704.11,-8704.11z"/>
   <circle class="fil1 str0" cx="12112.54" cy="12112.54" r="8704.11"/>
   <path class="fil2" d="M3366.61 8974.98l-1985.77 -749.72 151.83 -402.15 1985.77 749.72 -151.83 402.15zm279.27 -796.29l-1823.75 -1085.97 212.84 -357.44 1669.13 -22.79 -1222.2 -727.77 203.24 -341.31 1823.75 1085.97 -219.67 368.91 -1638.95 25.23 1198.85 713.86 -203.24 341.32zm-403.32 -3314.88l545.33 -559.98c123.07,-126.37 226.39,-213.34 310.31,-260.57 112.72,-63.33 233.9,-94.29 362.86,-92.16 128.95,1.44 257.95,33.27 387.69,94.79 129.05,61.54 265.25,161.75 407.54,300.33 125.3,122.03 217.74,242.39 278.03,361.79 73.91,145.77 110.72,287.14 110.44,424.11 0.33,103.77 -29.3,214.92 -88.17,333.45 -44.25,88.63 -121.53,189.24 -231.84,302.51l-561.53 576.62 -1520.65 -1480.88zm556.88 -57.69l1006.69 980.35 222.33 -228.31c83.08,-85.3 138.1,-151.72 165.43,-198.9 36.21,-61.98 54.96,-123.72 56.94,-185.24 2.33,-61.88 -20.67,-136 -68.64,-222.71 -47.63,-87.07 -130.72,-187.99 -248.24,-302.44 -117.52,-114.44 -217.42,-191.74 -300.76,-232.21 -83,-40.83 -160.12,-59.37 -231.71,-56.68 -71.24,3.04 -141.15,26.68 -209.38,71.96 -50.92,33.17 -137.58,112.23 -258.91,236.83l-133.75 137.35zm2473.8 10.49l-1137.47 -1792.08 1326.54 -841.98 192.23 302.85 -963.62 611.63 252.59 397.96 896.04 -568.74 192.23 302.85 -896.04 568.74 308.2 485.56 998.66 -633.87 192.23 302.85 -1361.58 864.23zm1681.44 -1045.42l-810.66 -1961.69 635.17 -262.48c240.64,-99.45 401.23,-154.58 482.41,-165.13 124.6,-16.74 245.08,8.31 361.64,75.62 116.56,67.31 207.11,179.05 271.64,335.22 49.82,120.55 69.6,230.53 60.19,330.64 -9.87,100.31 -38.51,187.52 -86.2,262.3 -47.88,74.31 -103.54,133.67 -166.72,177.42 -86.79,57.78 -219.36,123.79 -398.35,197.76l-257.55 106.43 305.7 739.74 -397.27 164.17zm-276.39 -1794.34l230.97 558.92 215.98 -89.25c155.71,-64.35 255.03,-117.69 299.05,-159.94 44.03,-42.25 71.91,-91.2 83.29,-147.76 11.56,-56.1 5.68,-113.02 -18.47,-171.47 -29.63,-71.69 -74.97,-121.91 -135.77,-151.32 -61.26,-29.22 -125.85,-36.74 -195.14,-22 -50.62,10.75 -147.03,45.25 -289.49,104.13l-190.42 78.69zm2129.67 1099.9l-340.19 -2095.16 1550.88 -251.81 57.49 354.07 -1126.59 182.92 75.54 465.26 1047.58 -170.1 57.49 354.07 -1047.58 170.1 92.18 567.68 1167.54 -189.58 57.49 354.07 -1591.84 258.47zm1962 -309.21l160.36 -2116.52 414.83 31.43 763.57 1484.41 107.47 -1418.41 396.11 30.01 -160.36 2116.53 -428.13 -32.44 -752.33 -1456.3 -105.42 1391.31 -396.11 -30.01zm2686.1 -1852.05l754.72 203.36c170.32,45.89 296.61,93.74 378.75,144.02 110.23,67.57 196.31,158.31 257.28,271.96 61.57,113.3 96.63,241.47 106.13,384.75 9.15,142.68 -12.01,310.44 -63.69,502.22 -45.51,168.88 -105.58,308.25 -180.47,419.07 -91.28,135.56 -196.8,236.6 -316.54,303.09 -90.46,50.85 -201.96,79.14 -334.15,85.48 -98.96,4.54 -224.47,-13.92 -377.14,-55.06l-777.15 -209.4 552.25 -2049.49zm321.72 458.19l-365.59 1356.79 307.71 82.91c114.98,30.98 199.78,46.67 254.3,47.54 71.77,1.42 134.82,-12.28 189.5,-40.53 55.17,-28.12 108.69,-84.31 161.05,-168.46 52.82,-84.01 100.47,-205.75 143.15,-364.14 42.68,-158.38 61.49,-283.29 56.23,-375.79 -4.79,-92.38 -26.17,-168.75 -63.41,-229.96 -37.36,-60.72 -92.07,-110.26 -164.86,-147.78 -53.77,-28.31 -165.04,-65.45 -332.97,-110.7l-185.11 -49.88zm1170.23 2234.26l1048.57 -1845.51 1366.09 776.17 -177.2 311.88 -992.35 -563.82 -232.85 409.82 922.76 524.29 -177.2 311.88 -922.76 -524.29 -284.11 500.04 1028.44 584.33 -177.2 311.88 -1402.17 -796.68zm1711.47 998.48l1412.56 -1584.32 310.52 276.86 -294.62 1643.08 946.64 -1061.75 296.51 264.36 -1412.56 1584.32 -320.48 -285.73 286.49 -1613.91 -928.55 1041.46 -296.51 -264.36zm1843.64 1852.89l1449.24 -1005.48 -358.26 -516.37 294.72 -204.48 959.85 1383.48 -294.72 204.48 -356.56 -513.93 -1449.24 1005.48 -245.03 -353.18zm762.53 1100.14l1934.63 -873.27 646.42 1432.05 -326.94 147.58 -469.57 -1040.27 -429.61 193.92 436.63 967.32 -326.94 147.58 -436.64 -967.32 -524.19 236.62 486.65 1078.1 -326.94 147.58 -663.49 -1469.88z"/>
   <path class="fil2" d="M1848.56 17820.55l-189.68 -478.26 424.09 -387.34 -348.78 -879.45 -571.45 15.75 -186.23 -469.58 2530.4 -18.26 186.03 469.07 -1844.37 1748.05zm547.89 -1156.5l690.7 -626.58 -928.96 25.82 238.26 600.76zm-182.07 1580.56l1649.17 -1059.64 -377.55 -587.6 335.37 -215.49 1011.56 1574.33 -335.38 215.49 -375.77 -584.83 -1649.17 1059.64 -258.23 -401.9zm954.64 1359.4l1690.96 -1616.23 330.07 345.34 -1402.78 1340.79 817.22 855 -288.18 275.44 -1147.29 -1200.34zm1400.11 1433.51l1362.88 -1925.34 1425.19 1008.84 -230.32 325.37 -1035.27 -732.84 -302.65 427.56 962.67 681.44 -230.32 325.37 -962.67 -681.44 -369.28 521.67 1072.93 759.48 -230.32 325.38 -1462.83 -1035.49zm2016.35 -1725.15l460.76 -263.16 411.42 291.23 -640.92 135.63 -231.26 -163.7zm423.61 3271.45l809.56 -1785.28 -636.1 -288.45 164.63 -363.05 1704.27 772.83 -164.64 363.05 -633.1 -287.09 -809.56 1785.28 -435.07 -197.29zm1509.29 614.64l640.61 -2270.25 459.76 129.73 -640.61 2270.25 -459.76 -129.73zm2496.95 -365.86l439.32 199.48c-103.46,248.53 -245.19,424.58 -424.71,528.77 -179.46,103.65 -394.47,139.59 -645.53,107.22 -310.96,-40.09 -552.68,-179.22 -725.7,-417.44 -172.48,-238.16 -235.25,-541.34 -187.72,-910.02 50.21,-389.38 190,-679.18 418.75,-868.92 228.76,-189.74 507.33,-263.45 835.17,-221.18 286.45,36.93 508.03,151.87 664.82,344.27 93.82,113.97 154.79,267.98 183.94,462.75l-481.58 50.85c-12.19,-124.48 -57.55,-227.77 -136.17,-309.33 -79.17,-81.63 -181.41,-130.24 -306.67,-146.39 -173.72,-22.4 -322.77,21.49 -446.68,132.3 -124.38,110.19 -204.28,304.74 -240.23,583.57 -38.05,295.16 -11.86,512.8 78.19,651.74 90.52,139.57 220.77,220.03 391.22,242.01 125.8,16.22 239.29,-9.56 340.02,-77.96 100.72,-68.4 182.22,-185.22 243.55,-351.71zm572.76 -173.16c-18.22,-239.81 2.59,-444.04 61.92,-612.65 43.99,-123.95 109.16,-237.38 194.45,-339.68 85.29,-102.3 181.21,-180.62 287.72,-235.53 142.03,-73.02 308.84,-117.09 500.47,-131.65 347.13,-26.38 632.37,60.42 857.32,259.74 224.45,199.91 351.24,491.49 380.41,875.3 28.92,380.52 -51.92,686.23 -242.02,916.54 -190.06,230.87 -458.4,359.2 -803.88,385.45 -349.86,26.59 -636.66,-59 -859.34,-257.39 -222.64,-197.84 -348.51,-484.54 -377.05,-860.13zm488.26 -53.08c20.27,266.63 97.49,463.97 231.17,592.58 133.64,128.06 295.47,185.15 484.91,170.75 189.99,-14.44 340.28,-94.7 452.01,-240.31 111.14,-146.12 156.36,-355.51 135.6,-628.72 -20.51,-269.92 -94.96,-466.91 -223.85,-590.38 -128.38,-124.06 -290.54,-178.36 -487.1,-163.43 -196.01,14.89 -349.13,94.26 -458.83,237.52 -109.67,143.8 -154.5,350.96 -133.9,621.98zm4241.86 -569.03l481.01 -37.84c29.62,267.57 -9.31,490.21 -116.06,668.22 -106.96,177.5 -277.79,312.94 -513.19,406 -291.57,115.27 -570.42,110.38 -837.07,-14.47 -266.14,-125.06 -467.69,-360.08 -604.36,-705.79 -144.34,-365.1 -162.12,-686.36 -53.64,-963.06 108.48,-276.7 316.67,-475.92 624.08,-597.45 268.59,-106.19 518.12,-112.73 748.4,-20.14 137.23,54.4 265.08,159.72 384.77,316.11l-396.95 277.38c-70.86,-103.06 -160.52,-171.54 -268.77,-204.91 -108.77,-33.16 -221.77,-26.28 -339.22,20.16 -162.89,64.4 -272.13,174.89 -327.01,331.8 -55.59,156.6 -31.45,365.52 71.91,626.97 109.42,276.76 237.59,454.6 383.59,532.67 146.72,78.39 299.63,85.84 459.46,22.65 117.96,-46.64 204.83,-124.08 259.93,-232.66 55.09,-108.57 69.93,-250.24 43.11,-425.63zm1123.42 440.84l-1162.43 -2029.85 414.55 -237.39 964.32 1683.91 1026.37 -587.76 198.1 345.93 -1440.91 825.16zm158.13 -2836.65l361.32 -312.5 836.21 966.83c132.9,153.66 223.32,248.97 271.19,286.7 78.59,59.8 165.73,87.52 261.11,81.98 96.17,-5.49 193.69,-51.36 293.37,-137.58 100.92,-87.28 159.37,-174.14 174.59,-260.62 15.22,-86.49 1.77,-164.15 -40.65,-234.18 -42.42,-70.04 -124.31,-175.62 -246.43,-316.83l-854.17 -987.6 361.32 -312.51 811.42 938.18c185.34,214.3 306.9,374.15 363.89,479.49 56.99,105.34 85.93,210.99 86.4,317.3 0.89,105.95 -27.22,214.47 -83.19,326.03 -56.38,111.92 -154.36,228.62 -295.16,350.38 -169.86,146.91 -315.48,238.74 -437.24,275.08 -121.75,36.34 -235.29,45.24 -340.97,26.29 -105.68,-18.94 -195.66,-55.83 -271.84,-111.17 -112.03,-81.69 -254.41,-222.8 -427.19,-422.57l-823.99 -952.71zm1392.35 -1180.89l546.36 -769.01c108.44,-152.64 195.17,-261.44 260.81,-327.29 66.41,-65.98 140.21,-113.91 222.02,-144.69 82.26,-30.46 170.51,-41.86 265.19,-33.86 94.68,7.99 183.87,41.72 266.69,100.56 89.52,63.6 155.16,146.6 195.57,248.06 40.85,101.77 50.06,207.32 28.82,316.85 117.47,-92.35 239.26,-140.53 366.46,-145.13 126.89,-4.15 245.84,33.2 357.3,112.39 87.73,62.34 158.47,142.9 212.34,242.47 53.87,99.56 80.69,202.14 80.12,308.16 -0.69,105.26 -31.94,213.72 -93.77,325.39 -39.08,69.23 -145.59,228.62 -319.66,477.43l-465.26 654.87 -1922.98 -1366.21zm596.27 -162.37l443.15 314.84 180.64 -254.25c107.17,-150.85 171.72,-246.44 193.32,-286.32 39.45,-71.66 53.83,-140.25 42.82,-205.33 -11.02,-65.08 -47.35,-119.18 -109.12,-163.07 -59.54,-42.3 -119.2,-59.76 -179.57,-53.48 -60.37,6.28 -117.41,39.17 -170.82,98.22 -31.83,35.31 -112.62,144.29 -242.05,326.47l-158.38 222.92zm762.75 541.91l515.66 366.36 255.69 -359.89c99.22,-139.66 158.48,-231.6 177.59,-274.6 30.28,-65.38 38.16,-130.5 23.18,-195.7 -15.42,-65.52 -56.55,-122.35 -125.03,-171.01 -58.19,-41.34 -116.84,-62.13 -177.16,-62.55 -60,-0.87 -118.49,18.88 -174.37,58.65 -55.87,39.78 -147,148.14 -272.63,324.96l-222.93 313.78zm1935.13 -964.34l-2148.33 -974.22 721.14 -1590.24 363.05 164.63 -523.85 1155.18 477.07 216.34 487.11 -1074.16 363.05 164.63 -487.11 1074.16 582.09 263.97 542.89 -1197.18 363.05 164.64 -740.18 1632.25z"/>
   <path class="fil3" d="M7147.66 8998.68c1125.5,1407.89 2350.95,2544.48 4016.94,2485.31 216.46,-1562.66 -803.68,-2993.78 -2398.61,-4363.73l6776.79 0c-1618.91,921.94 -2494.38,2401.44 -2572.01,4479.33 1733.55,61.4 3097.51,-1038.76 4291.49,-2673.15l-28.9 6704.54c-1469.03,-1819.73 -2938.06,-2978.46 -4407.09,-2485.31 -116.22,1829.53 804.97,3285.58 2615.35,4421.54l-6861.62 6.63c1382.85,-906.98 2639.47,-1999.11 2860.99,-4609.38 -1773.87,139.27 -3020.71,1370.26 -4250,2637.62l-43.35 -6603.4z"/>
   <path class="fil4" d="M6978.96 13733.53l-569.16 0 -225.35 -617.49 -1046.6 0 -216.85 617.49 -558.84 0 1013.19 -2712.39 558.23 0 1045.38 2712.39zm-965.81 -1075.87l-362.63 -1003.88 -352.31 1003.88 714.94 0z"/>
   <path class="fil4" d="M19390.32 12576.48l416.1 140.97c-63.9,258.45 -170.41,450.25 -319.02,575.92 -148.61,125.13 -336.85,187.97 -565.21,187.97 -282.85,0 -515.18,-106.55 -697.47,-319.65 -181.8,-213.1 -272.95,-504.34 -272.95,-874.27 0,-390.69 91.64,-694.5 274.43,-910.88 182.79,-216.38 423.53,-324.57 721.74,-324.57 260.56,0 472.08,85.24 634.55,255.18 97.09,100.54 169.41,244.8 217.96,433.31l-425.02 111.47c-25.26,-121.3 -77.77,-217.47 -157.53,-287.96 -80.25,-70.49 -177.34,-105.46 -291.27,-105.46 -158.02,0 -286.32,62.29 -384.4,187.42 -98.58,124.59 -147.62,326.76 -147.62,606.53 0,296.16 48.55,507.62 145.14,633.3 97.09,126.22 222.91,189.06 377.96,189.06 114.43,0 213,-39.89 295.24,-120.21 82.22,-80.33 141.67,-206 177.34,-378.12z"/>
   <polygon class="fil5" points="11848.2,6408.92 11848.2,4274.16 12545.59,4274.16 12545.59,6408.92 "/>
  </g>
 </g>
</svg>
