<?xml version="1.0" encoding="UTF-8"?>
<!DOCTYPE svg PUBLIC "-//W3C//DTD SVG 1.1//EN" "http://www.w3.org/Graphics/SVG/1.1/DTD/svg11.dtd">
<!-- Creator: CorelDRAW 2020 (64 Bit) -->
<svg xmlns="http://www.w3.org/2000/svg" xml:space="preserve" width="193.061mm" height="218.424mm" version="1.1" style="shape-rendering:geometricPrecision; text-rendering:geometricPrecision; image-rendering:optimizeQuality; fill-rule:evenodd; clip-rule:evenodd"
viewBox="0 0 10490.62 11868.79"
 xmlns:xlink="http://www.w3.org/1999/xlink"
 xmlns:xodm="http://www.corel.com/coreldraw/odm/2003">
 <defs>
  <style type="text/css">
   <![CDATA[
    .fil1 {fill:#FEFEFE;fill-rule:nonzero}
    .fil0 {fill:#3E4095;fill-rule:nonzero}
   ]]>
  </style>
 </defs>
 <g id="Camada_x0020_1">
  <metadata id="CorelCorpID_0Corel-Layer"/>
  <g id="_2561257698960">
   <path class="fil0" d="M10472.38 1610.1l-10.47 -157.35 -157.34 10.53c-1090.87,62.88 -2092.61,47.17 -2942.26,-141.64 -833.94,-183.53 -1515.78,-534.94 -1987.77,-1153.83l-131.13 -167.81 -125.87 167.81c-472.03,618.89 -1159.09,970.3 -1992.98,1153.83 -844.39,188.8 -1851.4,204.52 -2937.04,141.64l-162.62 -10.53 -5.24 157.35c-110.14,2066.44 241.27,3912.56 1085.65,5601.4 839.16,1678.31 2176.59,3194.01 4043.7,4583.87l94.4 73.42 99.66 -73.42c1867.13,-1389.85 3199.23,-2905.56 4043.62,-4583.87 844.47,-1688.84 1190.62,-3534.96 1085.69,-5601.4z"/>
   <path class="fil1" d="M9098.31 7075.12c-807.68,1604.84 -2076.89,3057.66 -3854.9,4400.28 -1772.71,-1342.62 -3047.19,-2795.44 -3849.64,-4400.28 -802.42,-1594.44 -1143.34,-3340.9 -1064.67,-5291.95 1048.94,52.43 2024.47,26.26 2868.86,-157.35 833.93,-188.79 1531.45,-529.69 2045.44,-1117.12 513.99,587.43 1216.74,928.33 2045.48,1117.12 844.39,183.6 1819.89,209.77 2868.79,157.35 78.66,1951.05 -262.21,3697.52 -1059.37,5291.95z"/>
   <polygon class="fil0" points="3003.91,4463.22 3003.91,4017.42 4304.63,4017.42 4304.63,3335.65 2322.1,3335.65 2322.1,6241.2 3003.91,6241.2 3003.91,5145.07 4304.63,5145.07 4304.63,4463.22 "/>
   <polygon class="fil0" points="6869.34,5559.37 6869.34,4017.42 8169.98,4017.42 8169.98,3335.65 6187.42,3335.65 6187.42,6241.2 8169.98,6241.2 8169.98,5559.37 "/>
   <polygon class="fil0" points="5584.34,7353.06 2322.1,7353.06 2322.1,6671.3 4907.76,6671.3 4907.76,2957.98 2322.1,2957.98 2322.1,2276.22 8169.98,2276.22 8169.98,2957.98 5589.6,2957.98 "/>
   <polygon class="fil0" points="7086.94,8485.98 7275.73,8485.98 7438.28,9220.16 7291.45,9220.16 7254.74,9036.63 7097.4,9036.63 7055.43,9220.16 6913.87,9220.16 "/>
   <polygon class="fil0" points="6698.81,8485.98 6835.19,8485.98 6835.19,9220.16 6698.81,9220.16 "/>
   <path class="fil0" d="M6100.91 8485.98l141.56 0 141.64 356.6 68.22 215.04c-10.52,-120.63 -15.78,-204.57 -20.99,-251.75 -5.26,-52.41 -5.26,-104.92 -5.26,-157.34l0 -162.55 136.37 0 0 734.19 -141.56 0 -146.9 -361.86 -57.7 -194.07c5.26,68.23 10.52,141.63 15.73,204.59 0,68.16 5.26,125.84 5.26,162.55l0 188.79 -136.38 0 0 -734.19z"/>
   <polygon class="fil0" points="5670.82,8286.65 5796.73,8286.65 5912.12,8428.29 5796.73,8428.29 5738.98,8344.34 5670.82,8428.29 5560.71,8428.29 "/>
   <path class="fil0" d="M5975.01 8921.26c0,68.14 -5.26,125.84 -15.65,167.81 -5.26,41.97 -31.51,78.68 -63.03,110.19 -36.69,26.19 -89.13,41.89 -157.34,41.89 -104.85,0 -173.01,-26.17 -199.26,-78.66 -26.25,-52.44 -41.97,-131.12 -41.97,-230.79l0 -15.7 0 -89.15c0,-5.26 0,-5.26 0,-5.26 0,0 -5.18,-5.26 -5.18,-10.46 0,-15.79 5.18,-31.51 5.18,-52.5 0,-15.72 0,-41.89 5.26,-73.42 5.21,-31.43 10.47,-62.96 20.99,-83.87 5.26,-26.25 15.72,-47.23 20.91,-57.7 31.52,-36.77 57.77,-57.68 89.22,-68.22 31.43,-10.44 62.96,-15.73 104.85,-15.73 68.22,0 125.91,15.73 157.34,52.44 36.71,36.71 57.77,78.68 68.23,125.91 10.45,47.16 10.45,99.6 10.45,162.55l0 120.65z"/>
   <path class="fil0" d="M4910.36 8485.98l262.24 0c73.45,0 131.15,26.17 162.58,83.87 36.71,57.7 47.19,152.08 41.97,288.46 0,57.7 -5.27,110.11 -10.48,146.9 -5.24,36.71 -10.5,68.14 -26.23,104.85 -10.49,31.51 -31.47,57.7 -57.68,78.68 -26.25,20.99 -62.96,31.43 -110.16,31.43l-262.24 0 0 -734.19z"/>
   <path class="fil0" d="M4307.22 8485.98l141.59 0 141.64 356.6 68.15 215.04c-10.47,-120.63 -15.73,-204.57 -20.96,-251.75 0,-52.41 -5.26,-104.92 -5.26,-157.34l0 -162.55 141.6 0 0 734.19 -141.6 0 -146.86 -361.86 -62.92 -194.07c5.22,68.23 10.49,141.63 15.71,204.59 5.27,68.16 5.27,125.84 5.27,162.55l0 188.79 -136.37 0 0 -734.19z"/>
   <path class="fil0" d="M4186.58 8921.26c-5.23,68.14 -10.49,125.84 -20.95,167.81 -5.27,41.97 -31.48,78.68 -62.96,110.19 -36.71,26.19 -89.17,41.89 -157.36,41.89 -104.89,0 -173.06,-26.17 -199.28,-78.66 -26.22,-52.44 -41.97,-131.12 -41.97,-230.79l0 -15.7 0 -89.15c0,-5.26 0,-5.26 0,-5.26 0,0 0,-5.26 -5.23,-10.46 5.23,-15.79 5.23,-31.51 5.23,-52.5 0,-15.72 5.26,-41.89 5.26,-73.42 5.23,-31.43 10.49,-62.96 20.99,-83.87 5.23,-26.25 15.73,-47.23 20.99,-57.7 31.45,-36.77 62.92,-57.68 89.13,-68.22 31.48,-10.44 62.96,-15.73 104.89,-15.73 73.45,0 125.89,15.73 157.36,52.44 36.7,36.71 57.69,78.68 68.18,125.91 10.49,47.16 15.73,99.6 15.73,162.55l0 120.65z"/>
   <path class="fil0" d="M3111.42 8485.98l262.25 0c131.11,0 199.29,57.68 204.56,167.81 0,52.41 -5.27,99.66 -26.26,131.09 -20.99,31.45 -52.43,52.44 -89.16,52.44 26.25,5.26 47.23,15.73 62.96,26.25 15.71,10.47 26.21,26.25 31.48,41.97 5.22,15.73 10.49,31.45 10.49,47.15 0,20.99 5.22,36.71 5.22,57.7 0,52.51 0,94.41 5.27,136.38 5.22,41.97 15.71,57.69 26.21,57.69l0 15.71 -157.35 0c-5.23,-15.71 -5.23,-41.89 -5.23,-78.61 0,-31.51 -5.26,-62.96 -10.49,-83.94l0 -47.23c0,-36.71 -5.26,-62.88 -20.99,-78.68 -10.49,-15.7 -41.97,-26.17 -89.16,-26.17l-73.41 0 0 314.63 -136.37 0 0 -734.19z"/>
   <polygon class="fil0" points="7149.89,7337.34 7301.97,7337.34 7155.15,7484.16 7055.43,7484.16 "/>
   <polygon class="fil0" points="7050.15,7541.86 7239.02,7541.86 7401.56,8281.39 7254.74,8281.39 7223.31,8092.6 7060.69,8092.6 7023.98,8281.39 6877.16,8281.39 "/>
   <path class="fil0" d="M6336.96 7541.86l141.56 0 141.62 361.93 68.24 209.79c-10.54,-115.39 -15.8,-199.33 -21.06,-251.77 0,-47.23 -5.2,-99.65 -5.2,-152.08l0 -167.88 141.63 0 0 739.53 -141.63 0 -146.9 -361.88 -62.88 -199.31c5.26,73.4 10.46,141.62 15.73,209.78 5.18,68.22 5.18,120.65 5.18,162.62l0 188.79 -136.28 0 0 -739.53z"/>
   <polygon class="fil0" points="5912.12,7541.86 6095.65,7541.86 6258.28,8281.39 6111.46,8281.39 6079.93,8092.6 5917.39,8092.6 5880.68,8281.39 5733.78,8281.39 "/>
   <path class="fil0" d="M5193.58 7541.86l267.47 0c125.83,0 194.07,57.7 199.33,173.07 5.18,52.51 -5.26,94.48 -26.25,131.19 -20.99,31.43 -52.44,47.15 -89.22,52.41 26.32,5.26 47.25,10.47 63.03,26.25 15.65,10.47 26.19,26.19 31.45,41.92 10.52,15.78 10.52,31.51 10.52,47.23 5.21,15.73 5.21,36.71 5.21,57.69 0,52.42 0,94.39 5.26,136.36 5.18,36.71 15.73,57.7 26.25,57.7l0 15.73 -157.36 0c-5.26,-20.99 -5.26,-47.17 -5.26,-78.68 0,-36.71 -5.27,-62.96 -10.53,-83.87l0 -47.23c0,-36.71 -5.26,-62.95 -20.91,-78.68 -10.54,-20.99 -41.97,-26.25 -89.22,-26.25l-73.41 0 0 314.7 -136.37 0 0 -739.53z"/>
   <polygon class="fil0" points="4768.76,7541.86 4952.32,7541.86 5120.17,8281.39 4968.05,8281.39 4936.6,8092.6 4773.99,8092.6 4737.28,8281.39 4590.46,8281.39 "/>
   <path class="fil0" d="M4139.38 7541.86l283.23 0c57.69,0 99.66,20.99 125.87,62.96 31.48,41.97 47.19,89.2 41.97,146.89 0,146.82 -68.19,220.24 -209.82,220.24l-104.89 0 0 309.44 -136.37 0 0 -739.53z"/>
   <polygon class="fil0" points="3793.23,7919.51 4029.26,7919.51 4029.26,8029.64 3793.23,8029.64 "/>
   <polygon class="fil0" points="3546.75,7541.86 3683.12,7541.86 3683.12,8281.39 3546.75,8281.39 "/>
   <path class="fil0" d="M3284.5 7541.86l136.37 0 0 576.99c0,62.89 -15.75,110.11 -41.97,136.3 -31.48,26.25 -83.91,41.97 -152.08,41.97 -41.98,0 -78.68,-5.21 -104.9,-20.99 -26.21,-15.73 -41.97,-36.71 -52.46,-62.9 -5.22,-20.98 -10.49,-52.49 -15.71,-83.94l0 -83.94 136.37 0 0 73.49c0,26.17 5.23,41.9 10.49,52.42 5.23,10.47 20.98,15.73 36.71,15.73 20.99,0 31.48,-5.26 36.71,-20.99 5.27,-15.73 10.49,-36.71 10.49,-73.4l0 -550.75z"/>
   <polygon class="fil1" points="7233.76,8926.52 7186.6,8679.96 7176.07,8564.58 7165.55,8679.96 7113.18,8926.52 "/>
   <path class="fil1" d="M5634.13 8721.92l0 262.29c0,94.39 36.69,141.56 104.85,141.56 63.03,0 94.46,-47.18 94.46,-141.56l0 -251.75c0,-31.52 -5.26,-68.23 -15.78,-99.67 -15.65,-36.71 -41.92,-52.43 -78.68,-52.43 -31.45,0 -57.62,10.47 -78.61,36.71 -15.73,20.98 -26.25,57.69 -26.25,104.85z"/>
   <path class="fil1" d="M5046.72 8590.83l0 524.48 73.45 0c36.71,0 62.92,-10.52 78.64,-31.43 15.75,-20.99 26.25,-47.25 31.48,-83.94 5.26,-36.71 5.26,-89.22 5.26,-157.36 0,-89.13 -10.49,-157.36 -20.99,-194.05 -10.49,-36.71 -36.7,-57.69 -73.45,-57.69l-94.4 0z"/>
   <path class="fil1" d="M3845.7 8721.92l0 262.29c0,94.39 31.48,141.56 99.62,141.56 62.96,0 94.43,-47.18 94.43,-141.56l0 -251.75c0,-31.52 -5.26,-68.23 -15.75,-99.67 -15.73,-36.71 -41.93,-52.43 -78.68,-52.43 -31.44,0 -57.69,10.47 -73.41,36.71 -20.98,20.98 -26.21,57.69 -26.21,104.85z"/>
   <path class="fil1" d="M3347.42 8590.83l-99.62 0 0 204.51 94.4 0c31.48,0 52.46,-10.47 68.18,-26.19 15.73,-20.99 26.22,-47.24 26.22,-73.41 0,-36.71 -10.49,-62.96 -20.99,-78.68 -10.49,-15.73 -36.71,-26.25 -68.18,-26.25z"/>
   <polygon class="fil1" points="7197.05,7987.67 7155.15,7741.18 7144.63,7625.79 7139.37,7625.79 7128.83,7741.18 7081.68,7987.67 "/>
   <polygon class="fil1" points="6053.68,7987.67 6011.72,7741.18 6001.25,7625.79 5996.06,7625.79 5985.54,7741.18 5938.3,7987.67 "/>
   <path class="fil1" d="M5429.58 7652.04l-99.63 0 0 204.52 94.39 0c31.52,0 52.43,-10.44 68.23,-31.43 15.65,-15.73 26.17,-41.97 26.17,-68.23 0,-36.69 -5.26,-62.89 -20.99,-78.67 -10.47,-15.73 -36.71,-26.19 -68.18,-26.19z"/>
   <polygon class="fil1" points="4915.62,7987.67 4868.42,7741.18 4857.93,7625.79 4847.43,7741.18 4794.98,7987.67 "/>
   <path class="fil1" d="M4275.75 7652.04l0 215.06 83.91 0c62.96,0 89.16,-41.97 89.16,-125.91 0,-31.45 -5.22,-52.44 -15.71,-68.16 -10.49,-10.53 -31.48,-20.99 -68.18,-20.99l-89.17 0z"/>
  </g>
 </g>
</svg>
