<?xml version="1.0" encoding="UTF-8"?>
<!DOCTYPE svg PUBLIC "-//W3C//DTD SVG 1.1//EN" "http://www.w3.org/Graphics/SVG/1.1/DTD/svg11.dtd">
<!-- Creator: CorelDRAW 2020 (64 Bit) -->
<svg xmlns="http://www.w3.org/2000/svg" xml:space="preserve" width="52.318mm" height="61.6884mm" version="1.1" style="shape-rendering:geometricPrecision; text-rendering:geometricPrecision; image-rendering:optimizeQuality; fill-rule:evenodd; clip-rule:evenodd"
viewBox="0 0 2023.69 2386.14"
 xmlns:xlink="http://www.w3.org/1999/xlink"
 xmlns:xodm="http://www.corel.com/coreldraw/odm/2003">
 <defs>
  <style type="text/css">
   <![CDATA[
    .fil4 {fill:none}
    .fil1 {fill:#FEFEFE}
    .fil5 {fill:#ED3237}
    .fil2 {fill:#EA4340}
    .fil3 {fill:#E9393C}
    .fil0 {fill:#3D3B38}
   ]]>
  </style>
 </defs>
 <g id="Camada_x0020_1">
  <metadata id="CorelCorpID_0Corel-Layer"/>
  <g id="_2351573344592">
   <g>
    <polygon class="fil0" points="2016.8,375.09 2015.27,371.26 2013.35,367.43 2011.82,363.6 2009.51,359.76 2007.61,356.31 2005.3,352.86 2003.01,349.42 2000.31,346.35 1998.02,342.9 1995.35,340.22 1992.27,337.16 1989.22,334.09 1986.52,331.41 1983.46,329.11 1980.02,326.43 1976.57,324.13 1973.12,321.83 1969.67,319.92 1966.22,318 1962.39,316.08 1958.57,314.55 1954.73,313.02 1950.89,311.49 1946.68,310.34 1942.85,309.19 1938.63,308.04 1934.42,307.27 1930.21,306.51 1925.61,306.12 1921.4,305.74 1916.79,305.36 1912.19,305.36 1549,305.36 1538.27,288.5 1527.16,272.03 1515.65,255.55 1503.78,239.84 1491.14,224.13 1478.12,209.19 1464.7,194.63 1450.91,180.46 1436.36,166.67 1421.79,153.26 1406.46,140.62 1390.77,128.35 1374.67,116.47 1358.57,104.98 1341.72,94.25 1324.47,83.91 1307.24,74.33 1289.22,65.14 1271.22,56.32 1252.83,48.27 1234.06,41 1214.89,34.1 1195.74,27.59 1175.82,21.84 1156.29,16.86 1135.98,12.65 1115.67,8.82 1094.99,5.75 1074.29,3.07 1053.23,1.53 1032.14,0.39 1010.69,0 990.01,0.39 968.56,1.53 947.86,3.07 927.18,5.75 906.49,8.82 886.18,12.65 866.26,16.86 846.33,21.84 826.41,27.59 807.26,34.1 788.1,41 769.33,48.27 750.94,56.32 732.93,65.14 715.3,74.33 697.68,83.91 680.44,94.25 663.58,104.98 647.49,116.47 631.4,128.35 615.69,140.62 600.37,153.26 585.81,166.67 571.25,180.46 557.45,194.63 544.05,209.19 531.02,224.13 518.37,239.84 506.5,255.55 494.62,272.03 483.89,288.5 473.16,305.36 111.49,305.36 106.89,305.36 102.29,305.74 98.08,306.12 93.48,306.51 89.27,307.27 85.05,308.04 80.84,309.19 77.01,310.34 72.8,311.49 68.96,313.02 65.13,314.55 61.3,316.08 57.47,318 54.02,319.92 50.57,321.83 47.12,324.13 43.67,326.43 40.23,329.11 37.16,331.41 34.48,334.09 31.41,337.16 28.35,340.22 25.67,342.9 23.37,346.35 20.69,349.42 18.39,352.86 16.09,356.31 14.18,359.76 11.88,363.6 9.96,367.43 8.43,371.26 6.9,375.09 5.75,379.3 4.6,383.13 3.45,387.35 2.68,391.56 1.91,396.16 1.14,400.75 0.77,405.35 0.38,409.95 -0,414.93 -0,419.91 -0,424.89 0.38,429.88 0.77,435.23 1.14,440.22 1.91,445.58 2.68,450.57 3.45,455.93 4.6,460.91 5.75,466.27 6.9,471.26 8.43,476.23 9.96,481.22 11.88,486.2 13.79,490.79 15.71,495.77 18,499.98 20.31,504.58 22.99,508.8 25.67,513.02 28.35,516.85 31.03,520.68 34.48,524.13 34.87,525.28 37.54,527.95 41,531.79 44.83,536.38 49.04,540.98 53.26,545.2 56.32,549.03 58.62,551.71 59.39,553.24 60.53,555.16 61.3,557.46 62.45,559.75 63.22,562.44 63.98,564.74 64.75,567.03 64.75,568.57 64.75,663.97 64.75,752.09 64.75,832.93 64.75,906.88 64.75,974.31 64.75,1034.83 64.75,1088.86 64.75,1136.37 64.75,1178.12 64.75,1212.99 64.75,1242.49 64.75,1266.63 64.75,1284.63 64.75,1297.66 64.75,1305.33 64.75,1307.63 64.75,1312.6 65.13,1317.58 65.52,1322.18 65.9,1327.16 66.66,1332.15 67.05,1337.12 67.81,1342.1 68.96,1347.09 70.11,1352.07 71.27,1357.04 72.41,1362.03 73.56,1367.01 75.09,1371.99 76.62,1377.35 78.54,1381.95 80.07,1386.93 81.99,1391.92 84.28,1396.51 86.2,1401.49 88.12,1406.1 90.42,1410.68 92.71,1415.27 95.01,1419.5 97.7,1424.1 100.38,1428.31 103.06,1432.52 105.74,1436.36 108.43,1440.57 111.11,1444.39 114.17,1448.23 117.24,1451.68 119.92,1455.12 917.22,2342.85 919.51,2345.52 921.81,2348.2 924.49,2350.51 926.8,2352.81 929.47,2355.1 932.15,2357.4 934.84,2359.32 937.52,2361.62 940.2,2363.53 942.88,2365.45 945.57,2367.37 948.63,2368.9 951.7,2370.82 954.38,2372.35 957.44,2373.88 960.51,2375.03 963.58,2376.56 966.64,2377.71 969.71,2378.85 972.77,2380.01 975.84,2380.77 978.9,2381.93 982.34,2382.69 985.41,2383.45 988.86,2384.22 991.92,2384.61 995.37,2385.37 998.82,2385.75 1001.88,2385.75 1004.95,2386.14 1008.4,2386.14 1011.84,2386.14 1014.9,2386.14 1018.35,2386.14 1021.8,2385.75 1025.26,2385.75 1028.32,2385.37 1031.76,2384.61 1034.83,2384.22 1038.27,2383.45 1041.34,2382.69 1044.79,2381.93 1047.85,2380.77 1050.92,2380.01 1053.98,2378.85 1057.05,2377.71 1060.11,2376.56 1063.18,2375.03 1066.24,2373.88 1069.31,2372.35 1071.99,2370.82 1075.06,2368.9 1078.13,2367.37 1080.81,2365.45 1083.48,2363.53 1086.17,2361.62 1088.86,2359.32 1091.53,2357.4 1094.21,2355.1 1096.89,2352.81 1099.2,2350.51 1101.88,2348.2 1104.18,2345.52 1106.47,2342.85 1903.77,1455.12 1906.84,1451.68 1909.9,1448.23 1912.58,1444.39 1915.27,1440.57 1918.33,1436.36 1921.02,1432.52 1923.31,1428.31 1925.99,1424.1 1928.68,1419.5 1930.97,1415.27 1933.27,1410.68 1935.57,1406.1 1937.49,1401.49 1939.4,1396.51 1941.7,1391.92 1943.62,1386.93 1945.15,1381.95 1947.07,1377.35 1948.21,1371.99 1949.75,1367.01 1951.28,1362.03 1952.42,1357.04 1953.58,1352.07 1954.73,1347.09 1955.87,1342.1 1956.26,1337.12 1957.03,1332.15 1957.79,1327.16 1958.18,1322.18 1958.57,1317.58 1958.57,1312.6 1958.94,1307.63 1958.94,1299.58 1958.94,1276.97 1958.94,1241.72 1958.94,1195.75 1958.94,1141.73 1958.94,1080.82 1958.94,1015.68 1958.94,947.87 1958.94,880.06 1958.94,813.77 1958.94,751.32 1958.94,694.62 1958.94,646.34 1958.94,607.64 1958.94,581.21 1958.94,568.57 1958.94,567.03 1959.71,564.74 1960.47,562.44 1961.24,559.75 1962.39,557.46 1963.17,555.16 1964.31,553.24 1965.07,551.71 1989.59,524.13 1992.67,520.68 1995.35,516.85 1998.02,513.02 2000.7,508.8 2003.38,504.58 2005.69,499.98 2007.98,495.77 2009.9,490.79 2011.82,486.2 2013.72,481.22 2015.27,476.23 2016.8,471.26 2017.95,466.27 2019.09,460.91 2020.24,455.93 2021.01,450.57 2021.77,445.58 2022.54,440.22 2022.93,435.23 2023.3,429.88 2023.69,424.89 2023.69,419.91 2023.69,414.93 2023.3,409.95 2022.93,405.35 2022.54,400.75 2021.77,396.16 2021.01,391.56 2020.24,387.35 2019.09,383.13 2017.95,379.3 "/>
    <polygon class="fil1" points="1962.39,404.21 1961.24,401.91 1960.09,399.22 1958.94,396.92 1957.79,394.63 1956.26,392.33 1955.12,390.03 1953.2,387.73 1951.67,385.82 1950.13,383.9 1948.21,381.99 1946.68,380.07 1944.77,378.15 1942.85,376.62 1940.94,374.7 1938.63,373.17 1936.73,372.03 1934.42,370.49 1932.13,368.96 1929.82,367.81 1927.52,366.66 1924.84,365.89 1922.55,364.74 1919.87,363.6 1917.17,363.21 1914.5,362.44 1911.82,361.68 1909.14,361.29 1906.45,360.91 1903.38,360.53 1900.32,360.14 1897.64,360.14 1894.58,359.76 1519.11,359.76 1509.91,343.29 1499.95,326.81 1489.22,311.1 1478.12,295.4 1466.62,280.07 1454.74,265.51 1442.1,250.95 1429.08,237.16 1415.66,223.37 1401.87,210.34 1387.69,197.7 1373.14,185.44 1357.81,173.94 1342.49,162.83 1326.77,152.1 1310.68,141.76 1293.82,132.18 1276.98,122.98 1259.72,114.18 1242.11,106.51 1224.49,98.85 1206.08,91.96 1187.69,85.83 1168.92,80.08 1150.15,75.1 1130.62,70.88 1111.46,67.05 1091.53,63.99 1071.99,61.69 1051.69,59.77 1031.38,58.62 1010.69,58.23 990.77,58.62 970.47,59.77 950.55,61.69 930.63,63.99 910.71,67.05 891.54,70.88 872.01,75.1 853.23,80.08 834.46,85.83 816.07,91.96 798.06,98.85 780.05,106.51 762.43,114.18 745.19,122.98 728.34,132.18 711.86,141.76 695.38,152.1 679.68,162.83 664.35,173.94 649.02,185.44 634.47,197.7 620.29,210.34 606.5,223.37 593.09,237.16 580.06,250.95 567.41,265.51 555.54,280.07 544.05,295.4 532.93,311.1 522.59,326.81 512.24,343.29 503.05,359.76 129.11,359.76 126.05,360.14 122.98,360.14 120.3,360.53 117.24,360.91 114.55,361.29 111.88,361.68 109.19,362.44 106.51,363.21 103.83,363.6 101.14,364.74 98.85,365.89 96.16,366.66 93.87,367.81 91.57,368.96 89.27,370.49 86.97,372.03 85.05,373.17 82.76,374.7 80.84,376.62 78.92,378.15 77.01,380.07 75.48,381.99 73.56,383.9 72.03,385.82 70.11,387.73 68.58,390.03 67.43,392.33 65.9,394.63 64.75,396.92 63.6,399.22 62.45,401.91 61.3,404.21 60.53,406.89 59.77,409.95 59,413.02 58.23,416.08 57.85,419.14 57.47,422.6 57.09,426.04 57.09,429.49 56.71,433.32 56.71,436.77 57.09,440.61 57.09,444.43 57.47,447.88 57.85,452.09 58.23,455.54 59,459.37 59.39,463.59 60.53,467.04 61.3,470.87 62.06,474.7 63.22,478.15 64.37,481.98 65.52,485.82 67.05,489.26 68.58,492.32 70.11,495.77 71.64,498.84 73.18,501.9 75.09,504.97 77.01,507.65 78.92,510.33 81.23,512.63 105.74,540.22 106.89,541.75 108.43,543.66 109.57,545.58 110.72,547.88 112.25,550.56 113.41,553.24 114.55,555.93 115.71,558.99 116.85,562.06 117.62,564.74 118.39,567.8 119.15,570.48 119.92,573.17 120.3,575.85 120.68,578.15 120.68,580.45 120.68,1305.7 120.68,1309.53 121.07,1313.37 121.07,1317.2 121.45,1321.04 121.84,1325.25 122.6,1329.46 123.37,1333.3 124.14,1337.51 124.9,1341.34 126.05,1345.55 126.81,1349.38 127.97,1353.59 129.11,1357.82 130.64,1361.64 131.8,1365.86 133.33,1369.69 134.86,1373.9 136.4,1377.74 137.93,1381.56 139.84,1385.4 141.37,1389.24 143.67,1392.67 145.2,1396.51 147.5,1399.95 149.42,1403.4 151.72,1406.85 153.63,1410.3 155.94,1413.37 158.23,1416.44 160.53,1419.5 162.83,1422.57 165.13,1425.24 946.72,2295.71 949.78,2299.16 953.61,2302.61 957.06,2305.68 960.9,2308.36 964.34,2311.04 968.56,2313.73 972.38,2316.02 976.6,2317.94 980.81,2319.85 985.03,2321.39 989.62,2322.92 993.83,2323.68 998.43,2324.83 1003.03,2325.22 1007.25,2325.6 1011.84,2325.6 1016.44,2325.6 1020.66,2325.22 1025.64,2324.83 1029.85,2323.68 1034.06,2322.92 1038.66,2321.39 1042.88,2319.85 1047.09,2317.94 1050.92,2316.02 1055.13,2313.73 1059.36,2311.04 1062.79,2308.36 1066.63,2305.68 1070.08,2302.61 1073.53,2299.16 1076.97,2295.71 1858.57,1425.24 1860.86,1422.57 1863.15,1419.5 1865.46,1416.44 1867.75,1413.37 1870.06,1410.3 1872.36,1406.85 1874.27,1403.4 1876.18,1399.95 1878.49,1396.51 1880.4,1392.67 1882.32,1389.24 1883.85,1385.4 1885.77,1381.56 1887.3,1377.74 1888.83,1373.9 1890.37,1369.69 1891.9,1365.86 1893.05,1361.64 1894.58,1357.82 1895.72,1353.59 1896.88,1349.38 1898.03,1345.55 1898.79,1341.34 1899.93,1337.51 1900.32,1333.3 1901.09,1329.46 1901.85,1325.25 1902.24,1321.04 1902.62,1317.2 1903.01,1313.37 1903.01,1309.53 1903.01,1305.7 1903.01,580.45 1903.01,578.15 1903.38,575.85 1903.77,573.17 1904.55,570.48 1905.3,567.8 1906.08,564.74 1906.84,562.06 1908,558.99 1909.14,555.93 1910.29,553.24 1911.43,550.56 1912.97,547.88 1914.11,545.58 1915.27,543.66 1916.79,541.75 1917.95,540.22 1942.85,512.63 1944.77,510.33 1946.68,507.65 1948.6,504.97 1950.52,501.9 1952.05,498.84 1953.58,495.77 1955.12,492.32 1956.65,489.26 1958.18,485.82 1959.32,481.98 1960.47,478.15 1961.62,474.7 1962.39,470.87 1963.17,467.04 1964.31,463.59 1964.68,459.37 1965.46,455.54 1965.84,452.09 1966.22,447.88 1966.6,444.43 1966.6,440.61 1966.99,436.77 1966.99,433.32 1966.6,429.49 1966.6,426.04 1966.22,422.6 1965.84,419.14 1965.07,416.08 1964.68,413.02 1963.92,409.95 1963.17,406.89 "/>
    <polygon class="fil0" points="420.67,626.42 420.67,619.14 420.67,611.86 421.06,604.58 421.44,597.69 421.83,590.41 422.21,583.12 422.59,576.23 423.36,568.95 424.12,562.06 424.89,555.16 425.66,547.88 426.81,540.98 427.96,534.09 428.72,527.19 430.26,520.3 431.4,513.4 432.55,506.5 434.09,499.98 435.62,493.09 437.54,486.2 439.07,479.69 440.6,472.79 442.52,466.27 444.43,459.37 446.35,452.86 448.64,446.35 450.56,439.84 452.86,433.32 455.16,427.2 457.46,420.68 459.75,414.17 462.44,407.65 121.84,407.65 119.92,408.04 118,408.04 115.71,408.42 114.17,408.42 112.25,408.8 110.72,409.18 109.19,409.95 107.66,410.33 106.51,411.1 105.36,411.87 104.21,412.64 103.45,413.78 102.67,414.55 101.91,415.7 101.53,416.47 100.76,417.61 100.38,418.76 100.38,419.91 100,421.44 100,422.6 100.38,424.13 100.38,425.28 100.76,426.81 101.14,428.34 101.91,429.88 102.67,431.41 103.45,432.94 104.21,434.47 105.74,436.39 106.89,437.92 108.05,439.45 109.57,441.37 134.48,468.96 137.54,472.79 140.61,477 143.29,481.22 145.97,485.82 148.65,490.79 150.95,495.77 153.63,501.14 155.55,506.5 157.46,512.25 159,517.61 160.91,523.36 162.06,528.72 163.21,534.46 163.6,539.84 164.37,545.2 164.37,549.8 164.37,1308 164.37,1312.98 165.13,1318.36 165.89,1323.71 166.66,1329.07 167.81,1334.83 169.34,1340.18 171.26,1345.93 173.17,1351.3 175.09,1357.04 177.39,1362.41 180.07,1367.4 182.76,1372.37 185.43,1376.96 188.12,1381.19 189.65,1383.48 191.18,1385.4 192.71,1387.32 194.25,1388.84 630.25,1876.95 630.25,1077.36 617.99,1067.01 606.5,1056.3 595.38,1045.57 584.28,1034.07 573.55,1022.57 563.2,1010.7 553.24,998.82 543.28,986.56 533.7,973.92 524.89,960.89 516.08,948.25 507.64,934.84 499.61,921.05 491.56,907.26 484.28,893.08 477.38,878.91 470.49,864.73 464.36,849.79 458.61,834.84 453.24,819.91 448.27,804.58 443.28,789.26 439.07,773.55 435.23,757.83 432.17,741.74 429.1,725.65 426.43,709.56 424.51,693.08 422.59,676.61 421.44,660.14 420.67,643.28 "/>
    <polygon class="fil2" points="1899.93,407.65 1559.72,407.65 1562.4,414.17 1564.69,420.68 1567,427.2 1569.29,433.32 1571.6,439.84 1573.52,446.35 1575.81,452.86 1577.73,459.37 1579.63,466.27 1581.55,472.79 1583.08,479.69 1585.01,486.2 1586.54,493.09 1588.07,499.98 1589.6,506.5 1590.75,513.4 1592.28,520.3 1593.44,527.19 1594.59,534.09 1595.34,540.98 1596.49,547.88 1597.26,555.16 1598.04,562.06 1598.79,568.95 1599.57,576.23 1599.94,583.12 1600.33,590.41 1601.1,597.69 1601.1,604.58 1601.48,611.86 1601.48,619.14 1601.48,626.42 1601.48,643.28 1600.71,660.14 1599.57,676.61 1597.65,693.47 1595.73,709.56 1593.05,726.03 1590.37,742.13 1586.92,758.22 1583.08,773.92 1578.87,789.64 1574.28,804.96 1568.92,820.29 1563.55,835.23 1557.81,850.17 1551.29,864.73 1544.77,879.29 1537.88,893.46 1530.22,907.64 1522.56,921.44 1514.51,935.23 1506.09,948.25 1497.27,961.66 1488.07,974.31 1478.49,986.95 1468.91,999.59 1458.96,1011.47 1448.23,1023.34 1437.5,1034.83 1426.39,1045.95 1415.27,1056.68 1403.79,1067.4 1391.53,1077.75 1391.53,1876.95 1827.52,1388.84 1829.05,1387.32 1830.21,1385.4 1831.74,1383.48 1833.28,1381.19 1836.34,1376.96 1839.02,1372.37 1841.71,1367.4 1844,1362.41 1846.68,1357.04 1848.6,1351.3 1850.52,1345.93 1852.05,1340.18 1853.59,1334.83 1855.12,1329.07 1855.88,1323.71 1856.65,1318.36 1857.41,1312.98 1857.41,1308 1857.41,549.8 1857.41,545.2 1857.8,539.84 1858.57,534.46 1859.7,528.72 1860.86,523.36 1862.4,517.99 1864.31,512.25 1866.22,506.5 1868.14,501.14 1870.82,495.77 1873.12,490.79 1875.8,485.82 1878.49,481.22 1881.17,477 1882.7,474.7 1884.23,472.79 1885.77,470.87 1887.3,468.96 1912.19,441.37 1913.72,439.45 1914.88,437.92 1916.03,436.39 1917.17,434.47 1918.33,432.94 1919.1,431.41 1919.87,429.88 1920.24,428.34 1920.63,426.81 1921.4,425.28 1921.4,424.13 1921.4,422.6 1921.4,421.44 1921.4,419.91 1921.4,418.76 1920.63,417.61 1920.24,416.47 1919.87,415.7 1919.1,414.55 1918.33,413.78 1917.17,412.64 1916.03,411.87 1915.27,411.1 1913.72,410.33 1912.58,409.95 1911.05,409.18 1909.14,408.8 1907.6,408.42 1905.69,408.42 1903.77,408.04 1901.85,408.04 "/>
    <polygon class="fil0" points="915.3,419.53 915.3,751.32 916.07,751.32 916.07,751.7 915.3,751.7 915.3,754.77 915.3,757.83 914.91,760.9 914.15,763.59 913.77,766.65 912.62,769.71 911.85,772.39 910.71,775.08 909.55,777.76 908.41,780.44 906.87,783.12 905.34,785.42 903.42,787.72 901.89,790.02 899.97,792.31 897.68,794.23 895.76,796.53 893.46,798.45 891.16,799.98 888.86,801.89 886.18,803.43 883.88,804.58 881.2,806.11 878.52,807.26 875.84,808.41 873.15,809.17 870.1,809.94 867.41,810.71 864.34,811.48 861.28,811.85 858.22,811.85 855.15,811.85 852.09,811.85 849.01,811.85 845.96,811.48 842.89,810.71 839.82,809.94 837.14,809.17 834.46,808.41 831.4,807.26 828.71,806.11 826.41,804.58 823.73,803.43 821.05,801.89 818.75,799.98 816.45,798.45 814.15,796.53 812.24,794.23 810.32,792.31 808.4,790.02 806.49,787.72 804.96,785.42 803.43,783.12 801.89,780.44 800.74,777.76 799.21,775.08 798.06,772.39 797.3,769.71 796.53,766.65 795.76,763.59 795.38,760.9 795,757.83 794.62,754.77 794.62,751.7 794.62,673.55 703.82,673.55 703.82,755.54 704.19,763.2 704.96,770.86 706.11,778.14 707.64,785.42 709.56,792.31 711.48,799.6 714.16,806.49 716.84,813.01 719.91,819.52 723.35,826.03 727.18,832.17 731.01,837.91 735.23,843.66 739.83,849.4 744.43,854.77 749.4,859.75 754.77,864.73 760.13,869.32 765.88,873.54 771.62,877.75 777.75,881.59 783.88,885.03 790.4,888.48 796.91,891.17 803.81,893.84 810.71,896.15 817.99,898.45 824.88,899.98 832.54,901.13 839.82,902.28 847.49,902.66 855.15,903.04 862.81,902.66 870.47,901.89 878.14,901.13 885.8,899.59 893.08,898.06 899.97,896.15 907.25,893.46 914.15,890.78 920.67,888.1 927.18,884.65 933.69,880.83 939.43,876.99 945.57,872.78 951.32,868.18 956.68,863.58 962.04,858.6 967.02,853.23 972,847.87 976.22,842.13 980.43,836 984.64,829.86 988.09,823.74 991.55,817.22 994.61,810.32 997.29,803.43 999.59,796.53 1001.5,789.26 1003.42,781.97 1004.56,774.69 1005.33,767.03 1005.72,759.37 1006.1,751.32 1006.1,419.53 "/>
    <polygon class="fil0" points="960.9,406.89 963.58,406.51 966.25,406.51 968.56,406.12 971.24,405.74 973.54,404.97 975.84,404.59 978.52,403.44 980.81,402.67 982.73,401.52 985.03,400.75 987.32,399.61 989.24,398.08 991.15,396.92 993.08,395.01 994.98,393.48 996.9,391.95 998.43,390.03 999.97,388.12 1001.5,386.59 1003.03,384.28 1004.19,382.36 1005.33,380.07 1006.1,378.15 1007.25,375.86 1008.02,373.56 1008.78,371.26 1009.55,368.96 1010.32,366.27 1010.69,363.6 1011.08,361.29 1011.08,358.61 1011.47,356.31 1011.08,353.63 1011.08,350.95 1010.69,348.27 1010.32,345.97 1009.55,343.67 1008.78,340.99 1008.02,338.69 1007.25,336.39 1006.1,334.09 1005.33,332.18 1004.19,329.88 1003.03,327.96 1001.5,326.05 999.97,324.13 998.43,322.21 996.9,320.3 994.98,318.77 993.08,317.23 991.15,315.7 989.24,314.17 987.32,313.02 985.03,311.87 982.73,310.34 980.81,309.57 978.52,308.81 975.84,307.65 973.54,307.27 971.24,306.51 968.56,306.12 966.25,305.74 963.58,305.74 960.9,305.74 958.59,305.74 955.91,305.74 953.24,306.12 950.93,306.51 948.25,307.27 945.95,307.65 943.65,308.81 941.35,309.57 939.06,310.34 936.76,311.87 934.84,313.02 932.93,314.17 930.63,315.7 928.71,317.23 926.8,318.77 925.26,320.3 923.34,322.21 922.2,324.13 920.28,326.05 919.14,327.96 917.6,329.88 916.45,332.18 915.3,334.09 914.54,336.39 913.38,338.69 912.62,340.99 911.85,343.67 911.47,345.97 911.09,348.27 910.71,350.95 910.71,353.63 910.32,356.31 910.71,358.61 910.71,361.29 911.09,363.6 911.47,366.27 911.85,368.96 912.62,371.26 913.38,373.56 914.54,375.86 915.3,378.15 916.45,380.07 917.6,382.36 919.14,384.28 920.28,386.59 922.2,388.12 923.34,390.03 925.26,391.95 926.8,393.48 928.71,395.01 930.63,396.92 932.93,398.08 934.84,399.61 936.76,400.75 939.06,401.52 941.35,402.67 943.65,403.44 945.95,404.59 948.25,404.97 950.93,405.74 953.24,406.12 955.91,406.51 958.59,406.51 "/>
    <path class="fil2" d="M1221.79 555.16l-1.53 3.06 -1.92 3.45 -1.91 3.06 -2.31 3.06 -2.31 3.07 -2.68 2.68 -2.29 2.68 -3.06 2.68 -2.68 2.3 -3.08 2.3 -3.44 2.3 -3.07 1.91 -3.45 1.92 -3.45 1.91 -3.83 1.53 -3.06 1.16 -3.07 1.14 -3.06 0.77 -3.45 0.77 -3.07 0.77 -3.45 0.38 -3.06 0.39 -3.07 0 -3.45 0.38 -3.05 0 -3.08 -0.38 -3.05 -0.39 -1.16 0 -1.91 -0.38 -3.08 -0.39 -3.44 -0.77 -2.68 -0.77 -3.08 -0.77 -3.07 -1.15 -2.68 -1.14 -3.06 -1.53 -2.68 -1.14 -3.06 -1.54 -2.68 -1.53 -2.31 -1.91 -2.68 -1.53 -2.31 -1.92 -2.68 -2.3 -2.31 -1.91 -2.29 -2.3 -1.91 -2.3 -2.31 -2.68 -1.92 -2.3 52.11 -21.07 44.06 -17.63 43.3 -17.62 47.89 -19.16 -1.16 -4.97 -1.53 -4.99 -1.54 -4.6 -1.92 -4.97 -2.29 -6.13 -3.07 -5.75 -3.06 -5.74 -3.45 -5.36 -3.45 -5.37 -4.21 -4.98 -4.21 -4.98 -4.21 -4.21 -4.22 -4.6 -4.98 -3.83 -4.58 -3.83 -5.37 -3.83 -4.98 -3.06 -5.37 -3.07 -5.74 -3.06 -5.36 -2.3 -5.76 -2.3 -5.74 -2.3 -6.13 -1.53 -6.12 -1.53 -5.76 -1.15 -6.51 -0.77 -6.13 -0.38 -6.13 -0.39 -6.13 0 -6.13 0.39 -0.39 0 -6.13 0.77 -6.5 0.77 -6.13 1.54 -6.14 1.53 -6.51 1.91 -6.13 2.3 -6.13 2.69 -5.74 2.68 -5.76 3.44 -5.36 3.45 -5.37 3.45 -4.99 3.83 -4.6 4.22 -4.6 4.21 -4.21 4.6 -4.21 4.6 -3.84 4.98 -3.45 4.98 -3.44 5.36 -3.06 5.36 -2.68 5.36 -2.69 5.36 -2.29 6.13 -1.92 5.75 -1.91 5.74 -1.54 6.13 -1.15 6.13 -0.76 6.13 -0.39 6.13 -0.39 6.13 0 6.52 0.39 6.13 0.76 6.52 1.16 6.12 1.15 6.14 1.53 6.51 1.92 6.13 2.29 6.13 2.68 6.13 3.06 5.75 3.07 5.74 3.45 5.36 3.45 5.36 4.21 4.98 3.84 4.99 4.21 4.21 4.6 4.6 4.99 3.83 4.6 3.83 4.97 3.83 5.37 3.45 5.37 2.68 5.36 3.06 5.74 2.3 5.76 2.3 5.74 2.3 6.13 1.53 5.74 1.54 6.13 1.15 6.13 0.77 4.6 0.38 1.53 0.39 6.13 0 6.52 0 6.13 0 6.51 -0.77 6.13 -1.15 6.52 -1.14 6.12 -1.92 6.14 -1.91 6.51 -2.3 3.06 -1.53 3.45 -1.54 3.07 -1.53 3.45 -1.53 3.06 -1.53 3.07 -1.92 3.06 -1.91 2.68 -1.92 3.06 -2.3 2.69 -1.91 3.05 -2.31 2.31 -2.3 2.68 -2.29 2.69 -2.3 2.29 -2.68 2.29 -2.3 2.68 -2.68 1.92 -2.69 2.31 -2.68 1.92 -2.68 1.92 -2.68 1.91 -2.68 2.31 -3.06 1.53 -2.69 1.52 -3.06 1.93 -3.06 1.52 -3.07 1.53 -3.06 1.16 -3.06 1.14 -3.45 1.14 -3.06 1.16 -3.07 -50.2 -9.58 -1.53 3.45zm-147.89 -32.57l0 0 0 -3.06 0 -2.68 0 -3.07 0.38 -3.06 0.39 -2.68 0.76 -3.06 0.77 -2.68 0.38 -3.07 1.16 -2.68 0.77 -2.69 1.13 -2.68 1.16 -2.68 1.14 -2.68 1.53 -2.69 1.15 -2.3 1.53 -2.68 1.92 -2.3 1.53 -2.3 1.92 -2.3 1.91 -2.3 1.92 -1.92 2.31 -2.3 1.91 -1.91 2.31 -1.92 2.31 -1.91 2.29 -1.92 2.68 -1.53 2.68 -1.53 2.69 -1.92 2.68 -1.15 2.68 -1.53 2.69 -1.14 3.06 -1.15 3.07 -0.77 2.68 -1.15 3.07 -0.38 3.06 -0.77 3.06 -0.77 1.15 0 1.53 0 3.06 -0.39 3.06 -0.38 2.68 0 3.08 0 3.06 0.38 2.68 0.39 3.05 0.38 3.08 0.38 2.68 0.77 2.68 0.77 3.07 0.77 2.68 1.15 2.69 0.77 2.68 1.14 2.68 1.15 2.31 1.53 2.68 1.15 2.68 1.53 2.31 1.92 2.29 1.53 2.3 1.91 2.29 1.92 2.31 1.91 2.29 1.92 1.92 2.3 -67.81 27.2 -67.81 27.2z"/>
    <polygon class="fil2" points="1157.43,867.02 1153.22,866.65 1149.01,866.65 1145.17,865.88 1141.34,865.11 1137.12,864.35 1133.3,863.2 1129.85,862.05 1126.02,860.51 1122.57,858.98 1119.12,857.06 1115.67,855.15 1112.6,853.23 1109.15,850.93 1106.09,848.64 1103.41,845.96 1100.35,843.27 1097.67,840.59 1095.36,837.53 1093.07,834.46 1090.76,831.4 1088.47,828.33 1086.55,824.88 1084.63,821.44 1083.1,817.99 1081.95,814.16 1080.42,810.32 1079.28,806.49 1078.52,802.66 1077.74,798.83 1077.36,794.62 1076.97,790.78 1076.97,786.57 1076.97,782.35 1077.36,778.14 1077.74,774.31 1078.52,770.48 1079.28,766.26 1080.42,762.82 1081.95,758.99 1083.1,755.16 1084.63,751.7 1086.55,748.26 1088.47,744.81 1090.76,741.74 1093.07,738.68 1095.36,735.23 1097.67,732.55 1100.35,729.87 1103.41,727.18 1106.09,724.51 1109.15,722.21 1112.6,719.9 1115.67,717.6 1119.12,715.69 1122.57,714.16 1126.02,712.24 1129.85,711.09 1133.3,709.56 1137.12,708.79 1141.34,707.64 1145.17,706.88 1149.01,706.5 1153.22,706.12 1157.43,706.12 1162.03,706.12 1166.62,706.5 1171.22,707.26 1175.44,708.03 1179.66,709.17 1183.87,710.7 1188.08,712.24 1191.92,713.78 1195.74,716.08 1199.57,717.99 1203.02,720.29 1206.86,722.97 1209.92,725.65 1212.99,728.72 1216.05,731.78 1219.12,735.23 1254.36,699.6 1252.06,697.3 1249.76,695 1247.09,692.7 1244.79,690.41 1242.49,688.11 1239.81,685.81 1237.12,683.89 1234.44,681.98 1231.76,680.06 1229.09,677.76 1226.01,676.23 1223.33,674.31 1220.26,672.78 1217.2,671.25 1214.13,669.72 1211.46,668.18 1208,666.65 1204.94,665.5 1201.87,664.35 1198.81,663.2 1195.36,662.06 1191.92,660.9 1188.47,660.52 1185.4,659.37 1181.95,658.99 1178.51,658.22 1175.06,657.84 1171.61,657.07 1168.16,657.07 1164.32,656.69 1160.88,656.3 1157.43,656.3 1150.53,656.69 1144.03,657.07 1137.51,657.84 1130.99,658.99 1124.87,660.52 1118.73,662.44 1112.6,664.35 1106.86,666.65 1101.12,669.33 1095.36,672.02 1090,675.08 1084.63,678.53 1079.28,682.36 1074.68,686.19 1070.08,690.41 1065.48,694.62 1061.26,699.21 1057.05,703.82 1053.23,708.79 1049.38,713.78 1045.95,719.14 1042.88,724.51 1040.19,730.25 1037.51,736 1035.21,741.74 1032.91,747.87 1031.38,754 1029.85,760.13 1028.69,766.65 1027.93,773.17 1027.56,779.68 1027.17,786.57 1027.56,793.08 1027.93,799.98 1028.69,806.49 1029.85,812.62 1031.38,819.14 1032.91,825.27 1035.21,831.4 1037.51,837.14 1040.19,842.89 1042.88,848.64 1045.95,854 1049.38,859.36 1053.23,864.35 1057.05,869.32 1061.26,873.92 1065.48,878.52 1070.08,882.74 1074.68,886.95 1079.28,890.78 1084.63,894.23 1090,897.68 1095.36,900.74 1101.12,903.81 1106.86,906.49 1112.6,908.79 1118.73,910.7 1124.87,912.62 1130.99,913.77 1137.51,915.31 1144.03,915.68 1150.53,916.45 1157.43,916.45 1160.88,916.45 1164.71,916.45 1168.16,916.07 1171.61,915.68 1175.06,915.31 1178.89,914.92 1182.34,914.15 1185.79,913.39 1189.23,912.62 1192.68,911.85 1195.74,910.7 1199.19,909.94 1202.26,908.41 1205.32,907.26 1208.77,906.11 1211.83,904.58 1214.89,903.04 1217.97,901.5 1221.04,899.98 1224.1,898.45 1226.78,896.53 1229.84,894.62 1232.52,892.7 1235.2,890.78 1237.89,888.48 1240.57,886.57 1243.25,884.27 1245.56,881.97 1247.85,879.67 1250.53,877.37 1252.83,874.69 1255.14,872.39 1219.88,836.76 1216.81,840.21 1214.13,843.66 1210.69,846.34 1207.62,849.4 1203.79,852.09 1200.34,854.38 1196.51,856.69 1192.68,858.6 1188.47,860.51 1184.24,862.43 1180.03,863.58 1175.82,864.73 1171.22,865.88 1166.62,866.26 1162.03,866.65 "/>
    <path class="fil0" d="M1433.66 604.58l-1.54 -21.46 -2.68 -21.07 -3.83 -21.08 -4.6 -20.3 -5.76 -20.31 -6.89 -19.54 -7.28 -19.15 -8.44 -19.16 -9.58 -18 -9.96 -17.62 -11.11 -17.24 -11.87 -16.48 -12.64 -16.09 -13.41 -15.33 -13.79 -14.95 -14.56 -13.79 -15.33 -13.41 -16.08 -12.64 -16.87 -11.5 -17.23 -11.11 -17.63 -10.35 -18 -9.2 -18.78 -8.43 -19.53 -7.66 -19.55 -6.9 -19.92 -5.75 -20.68 -4.6 -20.69 -3.45 -21.07 -2.68 -21.84 -1.91 -21.45 -0.39 -0.39 0 -21.07 0.39 -21.84 1.91 -21.07 2.68 -20.69 3.45 -20.69 4.6 -19.92 5.75 -19.55 6.9 -19.15 7.66 -19.15 8.43 -18.01 9.2 -17.63 10.35 -17.24 11.11 -16.86 11.5 -15.71 12.64 -15.71 13.41 -14.56 13.79 -13.79 14.95 -13.41 15.33 -12.64 16.09 -11.88 16.48 -11.11 17.24 -9.96 17.62 -9.58 18 -8.43 19.16 -7.28 19.15 -6.9 19.54 -5.74 20.31 -4.6 20.3 -3.83 21.08 -2.68 21.07 -1.54 21.46 -0.77 21.84 0.77 21.84 1.54 21.45 2.68 21.07 3.83 20.69 4.6 20.69 5.74 19.92 6.9 19.92 7.28 19.15 8.43 18.77 9.58 18.4 9.96 17.62 11.11 17.24 11.88 16.48 12.64 16.09 13.41 15.33 13.79 14.56 14.56 14.18 15.71 13.02 15.71 12.64 16.86 11.88 17.24 11.12 17.63 10.34 18.01 9.19 19.15 8.42 19.15 7.66 19.55 6.52 19.92 5.74 20.69 4.6 20.69 3.83 21.07 2.69 21.84 1.53 21.07 0.77 0.39 0 21.45 -0.77 21.84 -1.53 21.07 -2.69 20.69 -3.83 20.68 -4.6 19.92 -5.74 19.55 -6.52 19.53 -7.66 18.78 -8.42 18 -9.19 17.63 -10.34 17.23 -11.12 16.87 -11.88 16.08 -12.64 15.33 -13.02 14.56 -14.18 13.79 -14.56 13.41 -15.33 12.64 -16.09 11.87 -16.48 11.11 -17.24 9.96 -17.62 9.58 -18.4 8.44 -18.77 7.28 -19.15 6.89 -19.92 5.76 -19.92 4.6 -20.69 3.83 -20.69 2.68 -21.07 1.54 -21.45 0.77 -21.84 -0.77 -21.84zm-29.12 42.15l0 0 -1.53 19.92 -2.29 19.54 -3.45 19.54 -4.6 19.15 -5.35 18.78 -6.13 18.01 -6.9 18.01 -8.05 17.62 -8.81 16.86 -9.19 16.48 -10.34 16.09 -11.12 15.32 -11.5 14.94 -12.63 14.56 -13.04 13.41 -13.79 13.02 -14.16 12.65 -14.95 11.49 -15.33 11.11 -16.1 10.35 -16.47 9.58 -16.86 8.43 -17.63 8.04 -18.01 6.9 -18.39 6.13 -18.39 5.36 -19.15 4.6 -19.55 3.45 -19.54 2.3 -20.31 1.53 -19.92 0.77 -0.39 0 -19.92 -0.77 -19.91 -1.53 -19.54 -2.3 -19.55 -3.45 -19.15 -4.6 -18.39 -5.36 -18.39 -6.13 -18.01 -6.9 -17.24 -8.04 -17.24 -8.43 -16.47 -9.58 -16.09 -10.35 -15.33 -11.11 -14.94 -11.49 -14.18 -12.65 -13.79 -13.02 -13.03 -13.41 -12.65 -14.56 -11.49 -14.94 -11.11 -15.32 -9.96 -16.09 -9.58 -16.48 -8.81 -16.86 -7.66 -17.62 -7.28 -18.01 -6.13 -18.01 -5.36 -18.78 -4.22 -19.15 -3.45 -19.54 -2.68 -19.54 -1.54 -19.92 -0.38 -20.31 0.38 -20.3 1.54 -20.31 2.68 -19.54 3.45 -19.53 4.22 -19.16 5.36 -18.39 6.13 -18.39 7.28 -18 7.66 -17.24 8.81 -17.24 9.58 -16.47 9.96 -16.09 11.11 -15.33 11.49 -14.95 12.65 -14.18 13.03 -13.79 13.79 -13.03 14.18 -12.64 14.94 -11.5 15.33 -11.11 16.09 -10.34 16.47 -9.19 17.24 -8.82 17.24 -7.66 18.01 -7.28 18.39 -6.13 18.39 -5.37 19.15 -4.21 19.55 -3.83 19.54 -2.3 19.91 -1.53 19.92 -0.39 0.39 0 19.92 0.39 20.31 1.53 19.54 2.3 19.55 3.83 19.15 4.21 18.39 5.37 18.39 6.13 18.01 7.28 17.63 7.66 16.86 8.82 16.47 9.19 16.1 10.34 15.33 11.11 14.95 11.5 14.16 12.64 13.79 13.03 13.04 13.79 12.63 14.18 11.5 14.95 11.12 15.33 10.34 16.09 9.19 16.47 8.81 17.24 8.05 17.24 6.9 18 6.13 18.39 5.35 18.39 4.6 19.16 3.45 19.53 2.29 19.54 1.53 20.31 0.77 20.3 -0.77 20.31z"/>
    <path class="fil0" d="M813.77 1839.41l0 -12.64 4.98 0 6.9 0.39 6.89 0.76 6.13 0.77 6.52 0.76 5.74 1.16 5.75 1.53 5.75 1.15 5.36 1.53 4.98 1.53 4.99 1.91 4.97 1.55 4.6 1.9 9.19 3.84 8.05 3.45 1.52 -1.16 4.22 -3.44 3.06 -2.31 3.83 -2.68 4.22 -2.68 4.98 -2.68 5.36 -3.08 5.75 -3.06 3.44 -1.54 3.07 -1.14 3.45 -1.53 3.45 -1.14 3.45 -1.54 3.83 -1.16 3.83 -1.15 3.83 -0.76 4.22 -1.14 3.83 -0.77 4.22 -0.76 4.21 -0.39 1.54 0 3.44 -0.39 6.12 0 7.67 0.39 3.83 0.39 4.99 0 4.97 0.76 5.37 0.77 5.37 0.76 5.36 1.14 5.74 1.55 5.76 1.52 2.29 0.39 5.37 0.77 4.21 0 4.6 0.38 2.29 0 2.68 -0.38 2.7 -0.38 3.06 0 3.06 -0.39 2.68 -0.77 3.45 -0.76 3.06 -0.77 3.07 -0.76 3.45 -1.14 3.45 -1.14 3.44 -1.53 3.07 -1.54 3.45 -1.92 3.45 -1.92 3.45 -2.31 3.45 -2.68 3.05 -2.68 3.45 -3.06 3.06 -3.07 0.39 -0.38 1.53 -1.54 0.76 -0.76 1.55 -1.16 1.52 -0.76 1.92 -1.14 2.68 -1.15 2.69 -1.16 3.07 -1.15 3.44 -1.14 3.84 -0.77 4.21 -0.76 4.99 -0.77 5.36 -0.37 5.76 -0.39 6.13 0 7.28 0.39 7.28 0.37 8.05 0.77 8.81 1.14 9.19 1.53 9.97 2.31 10.34 2.29 11.5 2.68 11.87 3.45 12.65 3.83 13.4 4.6 14.18 4.98 15.33 5.76 15.32 6.5 -0.38 -1.92 -1.92 -4.97 -1.91 -3.06 -1.92 -3.84 -1.15 -1.92 -1.53 -1.91 -1.92 -2.3 -1.53 -2.29 -2.29 -1.92 -1.92 -1.92 -2.3 -2.29 -2.68 -2.31 -2.68 -1.91 -3.08 -2.3 -3.44 -1.92 -3.45 -1.92 -3.83 -1.52 -3.84 -1.92 -4.21 -1.54 -4.22 -1.53 -4.97 -1.16 -4.99 -1.53 -5.37 -0.76 -5.36 -0.77 -0.76 0 -1.92 -0.39 -3.45 0 -4.6 0.39 -5.74 0.39 -6.52 0.39 -3.82 0.39 -3.84 0.37 -3.84 0.77 -4.6 0.76 -0.76 0 -2.69 0.39 -2.29 0.39 -2.29 0 -3.45 -0.39 -3.06 -0.39 -4.22 -0.37 -4.21 -1.16 -4.97 -1.14 -5.37 -1.53 -5.74 -1.92 -6.13 -1.91 -3.07 -1.53 -3.45 -1.53 -3.45 -1.92 -3.83 -1.54 -0.39 0.76 -0.76 2.31 -1.16 1.14 -1.14 1.53 -1.53 1.15 -1.92 1.53 -1.14 0.77 -1.54 0.77 -1.14 0.38 -1.53 0.39 -1.53 0.37 -1.92 0.39 -1.92 0.39 -1.92 0 -2.29 0.39 -2.31 0 -2.29 -0.39 -2.68 0 -3.07 -0.77 -3.06 -0.37 -3.06 -0.76 -3.45 -0.77 0.76 -0.77 1.92 -1.91 3.06 -3.45 3.45 -4.21 1.92 -2.69 1.92 -2.68 1.9 -3.07 1.92 -3.06 1.92 -3.45 1.91 -3.44 1.92 -3.84 1.92 -3.44 -1.14 -0.39 -2.69 0 -4.21 0.39 -5.36 0.37 -6.52 0.39 -7.29 0.77 -3.82 0.76 -3.83 0.77 -4.22 0.76 -3.83 1.14 -2.68 -2.68 -7.68 -6.51 -5.36 -4.6 -5.74 -4.97 -6.9 -5.37 -6.89 -6.13 -7.66 -5.74 -7.66 -5.76 -7.66 -5.74 -8.05 -4.98 -3.45 -2.68 -3.83 -2.29 -3.45 -1.92 -3.84 -1.92 -3.45 -1.53 -3.06 -1.53 -3.06 -1.14 -2.69 -1.15 -4.97 3.83 -4.98 3.83 -4.99 3.06 -4.59 3.08 -3.83 2.68 -3.83 2.68 -3.45 1.92 -2.3 1.91 -2.3 1.92 -2.68 1.92 -2.69 2.68 -2.68 2.69 -5.36 6.51 -5.75 6.51 -4.97 6.52 -4.22 5.36 -2.68 3.84 -1.53 1.91 3.45 3.06 3.06 3.08 3.45 2.68 3.44 2.68 3.08 1.92 2.68 1.92 2.3 1.14 1.91 1.14 4.6 -3.06 4.6 -3.06 2.3 -1.15 2.3 -1.53 2.68 -1.14 2.3 -1.16 2.3 -1.14 2.68 -0.76 2.3 -0.77 2.68 -0.77 2.69 -0.76 2.29 -0.38 2.68 -0.39 2.31 -0.39 -0.39 0 -1.53 0.77 -2.29 0.76 -3.06 1.14 -4.22 2.31 -4.59 2.68 -2.69 1.53 -3.06 2.31 -3.06 1.9 -3.06 2.69 -3.07 2.68 -3.45 2.68 -3.83 3.45 -3.83 3.45 -3.83 3.83 -3.83 4.21 -4.22 4.6 -4.21 4.99 -4.22 5.37 -4.22 5.74 -4.59 6.13 -4.6 6.13 -4.6 6.89 -4.99 7.66 -4.6 7.66 -4.98 8.05 -2.31 -1.14 -6.51 -3.84 -4.6 -2.68 -5.36 -2.68 -6.13 -3.06 -6.9 -3.45 -6.9 -3.07 -7.66 -3.06 -3.83 -1.54 -3.83 -1.53 -4.22 -1.14 -4.22 -1.14 -3.83 -1.16 -4.22 -1.14 -4.21 -1.15 -4.22 -0.77 -3.83 -0.76 -4.22 -0.39 -3.06 -0.38 0 -11.87 4.98 0.76 3.83 0.39 4.6 0.77 4.98 1.14 5.75 1.53 6.13 1.92 6.9 1.92 7.28 2.68 8.04 3.06 3.84 1.91 4.21 1.55 4.6 2.29 4.21 1.92 4.6 2.29 4.59 2.31 4.6 2.68 4.99 2.68 0.77 -1.53 3.06 -4.6 1.91 -3.06 2.31 -4.21 3.06 -3.84 3.06 -4.97 3.83 -4.6 3.83 -5.37 4.21 -4.97 4.21 -5.37 4.98 -5.37 4.99 -5.36 2.68 -2.68 2.68 -2.31 2.68 -2.68 3.08 -2.31 -3.45 -2.29 -3.45 -2.31 -3.06 -2.29 -3.06 -2.68 -4.98 -4.22 -3.83 -3.83 -2.68 2.68 -3.06 2.68 -2.68 2.31 -2.68 1.92 -3.06 1.92 -2.68 1.52 -2.3 1.16 -2.68 1.52 -2.68 0.77 -2.29 1.14 -2.68 0.39 -2.3 0.77 -2.3 0.38 -2.3 0.39 -1.91 0 -1.92 0 -2.3 0 -1.53 0 -1.91 0 -1.54 -0.39 -3.07 -0.38 -2.68 -0.77 -3.45 -1.14 -1.15 -0.77 0 -1.53 0 -1.91 0 -1.92 0.38 -1.92 0.39 -3.06 1.14 -3.07 1.53 -4.21 0.77 -1.92 1.14 -3.83 1.91 -4.22 1.92 -3.83 1.91 -3.45 2.31 -3.84 2.68 -3.44 2.68 -3.45 2.68 -3.45 -6.13 -5.36 -1.91 0.76 -4.22 1.92 -6.89 2.68 -8.43 2.68 -4.6 1.92 -4.99 1.53 -4.6 1.16 -4.6 1.53 -4.6 1.14 -4.6 0.76 -4.21 0.77 -3.83 0 6.51 8.42 -16.09 8.43 -1.91 -0.76 -4.99 -3.08 -1.14 -0.76 0 -10.35 1.14 0.77 5.36 3.06 3.83 -1.14 -9.57 -11.87 1.53 0 3.84 -0.39 3.06 0 3.83 -0.39 4.21 -0.77 4.6 -0.76 5.36 -1.14 5.75 -1.53 6.13 -1.92 6.9 -1.92 3.44 -1.53 3.45 -1.15 3.83 -1.53 3.83 -1.92 3.83 -1.53 4.21 -1.92 3.83 -1.91 4.22 -2.31 10.73 11.5 2.3 -2.31 2.68 -2.29 2.69 -2.69 2.68 -1.91 5.36 -4.61 5.75 -4.21 5.36 -3.44 5.36 -3.45 4.98 -3.45 4.98 -2.68 4.6 -2.31 4.22 -2.29 3.83 -1.92 3.45 -1.53 4.6 -1.92 1.54 -0.76 -1.15 -0.39 -1.15 -0.76 -1.53 -0.39 -1.53 -0.39 -3.07 -0.76 -3.44 -0.77 -3.83 -0.39 -3.45 -0.37 -3.83 0 -3.45 -0.39 -6.9 0 -5.74 0.39 -3.83 0.37 -1.53 0 1.53 -1.14 1.91 -1.15 1.92 -0.76 1.92 -0.77 1.91 -0.39 2.3 -0.76 2.3 -0.39 2.68 -0.39 4.98 -0.39 4.98 -0.37 5.36 0 4.98 0 4.98 0.37 4.6 0.39 4.21 0.39 3.45 0.39 5.74 1.14 1.92 0.39 20.3 -9.58 -1.53 1.53 -1.14 1.53 -1.92 1.54 -1.92 1.53 -4.21 3.06 -4.98 3.45 -4.59 3.06 -5.36 3.06 -5.36 3.44 -4.98 2.69 -9.96 5.74 -8.04 4.21 -5.75 3.06 -1.91 0.77 -4.98 3.44 -4.98 3.08 -4.22 3.44 -4.21 3.06 -3.83 3.07 -3.84 3.06 -3.45 3.07 -3.06 3.06 -2.69 2.68 -2.68 3.08 -2.68 2.68 -2.31 3.06 -1.91 2.68 -1.91 2.31 -1.54 2.68 -1.54 2.29 -1.53 2.31 -1.14 2.29 -1.14 2.31 -0.77 1.92 -1.53 3.44 -1.16 3.07 -1.15 4.61 0 1.14 2.68 0.39 2.3 0.37 2.3 0 2.68 -0.37 2.3 -0.39 2.29 -0.39 1.92 -0.39 2.3 -0.37 1.92 -0.77 1.91 -0.77 1.91 -0.76 1.54 -1.14 3.45 -1.53 3.06 -2.31 2.69 -1.92 2.3 -1.91 1.91 -1.92 1.91 -1.92 2.31 -2.68 0.77 -0.77 4.59 -6.13 4.6 -5.74 4.6 -4.98 4.21 -4.6 3.45 -4.21 3.45 -3.83 3.45 -3.45 2.68 -2.69 4.98 -4.58 3.45 -3.07 2.3 -1.92 0.77 -0.39 7.66 -4.6 6.89 -4.21 6.12 -4.22 5.74 -4.21 4.99 -3.82 4.22 -3.45 3.83 -3.45 3.45 -3.07 3.06 -2.68 2.29 -2.31 1.92 -2.29 1.53 -1.53 1.92 -2.68 0.76 -0.77 -4.21 -1.53 -5.74 -1.91 -6.51 -1.53 -7.66 -1.92 -4.21 -1.16 -4.99 -0.76 -5.74 -1.14 -5.74 -0.77 -6.13 -1.14 -6.89 -0.77 -7.28 -0.76 -8.04 -1.16 -3.83 -0.38 -3.83 0 -3.83 0 -3.83 0 -3.45 0.38 -3.44 0.77 -3.45 0.39 -3.07 0.76 -3.06 1.16 -3.07 0.76 -2.68 1.14 -3.06 0.77 -2.3 1.53 -2.68 1.14 -2.3 1.16 -2.3 1.13 -3.83 2.69 -3.45 2.68 -3.06 2.31 -2.68 2.29 -3.45 3.45 -1.14 1.14 1.53 -5.36 2.3 -3.45 2.3 -2.68 2.3 -2.68 2.3 -2.69 2.3 -2.29 2.3 -1.92 2.3 -1.92 1.92 -1.53 2.3 -1.53 1.91 -1.14 1.91 -1.16 1.92 -0.76 3.45 -1.53 3.06 -1.15 -8.43 0 -8.04 0.38 -8.05 -0.38 -6.9 -0.39 -6.51 0 -6.52 -0.76 -5.74 -0.77 -4.98 -0.76 -8.44 -1.16 -6.51 -1.14 -3.45 -0.76 -1.53 -0.38 14.94 0.38 14.56 0 14.17 -0.38 13.79 -0.39 13.41 -1.15 12.65 -1.16 12.64 -1.53 11.88 -1.91 11.49 -1.92 11.11 -2.29 10.73 -2.31 10.34 -2.68 9.58 -2.69 8.81 -2.68 8.8 -2.68 8.44 -2.69 8.05 -3.05 7.28 -3.06 6.89 -2.69 6.51 -2.68 6.13 -2.68 5.37 -2.68 4.98 -2.69 4.21 -2.29 7.66 -3.84 4.98 -3.44 3.44 -1.92 0.77 -0.77 -14.57 0 -14.55 0.39 -14.18 0.39 -13.41 0.76 -13.42 1.16 -12.64 1.52 -11.87 1.16 -11.87 1.92 -11.49 1.9 -11.11 1.92 -10.73 1.92 -9.96 2.29 -9.57 2.31 -9.19 2.29 -8.82 2.31 -8.43 2.29 -7.66 2.69 -7.28 2.29 -6.9 2.29 -6.51 2.31 -5.75 2.31 -5.36 2.29 -4.99 1.92 -4.6 1.92 -7.28 3.45 -4.99 2.29 -3.06 1.53 -1.15 0.76 7.28 -6.13 9.57 -4.97 9.2 -4.6 9.57 -4.22 9.19 -3.83 9.19 -3.84 9.2 -3.83 8.81 -3.06 8.82 -3.07 8.43 -3.06 8.81 -2.68 8.43 -2.31 8.43 -2.29 8.04 -2.31 8.05 -1.53 7.66 -1.91 8.05 -1.53 4.21 -4.99 5.74 -6.9 6.13 -7.66 6.9 -8.81 7.28 -8.81 6.13 -8.43 3.06 -3.45 2.31 -3.82 1.91 -3.07 1.53 -2.69 -1.91 0.38 -5.37 1.54 -4.21 1.14 -4.6 1.16 -5.37 1.92 -6.13 1.9 -6.52 2.31 -7.28 2.68 -8.04 3.06 -8.04 3.45 -9.19 3.83 -9.19 4.21 -9.58 4.98 -9.96 4.99 -10.35 5.74 -10.73 6.13 -10.73 6.52 -10.73 7.28 -11.11 7.66 -11.5 8.05 -11.11 8.81 -11.11 9.21 -11.11 9.95 -11.11 10.34 -11.11 11.5 -6.9 7.67 0 -16.47 1.14 -1.16 6.13 -6.13 7.66 -7.66 9.58 -8.44 5.36 -4.58 5.74 -4.98 6.13 -4.99 6.52 -4.98 6.9 -5.36 7.28 -5.37 7.66 -5.36 8.05 -5.74 8.42 -5.37 8.43 -5.37 9.19 -5.74 9.19 -5.36 9.58 -5.36 10.34 -4.98 10.35 -5.37 10.34 -4.98 11.11 -4.6 11.11 -4.6 11.49 -4.21 11.87 -3.84 0.77 -0.39 2.68 -1.13 4.22 -1.16 5.36 -1.54 6.51 -1.53 7.66 -1.92 8.42 -1.53 8.82 -1.15 -1.16 1.54 -2.68 5.37 -1.92 3.44 -2.29 3.84 -3.06 4.98 -3.06 4.97 -3.45 5.37 -3.82 5.74 -4.23 6.13 -4.58 5.74 -4.98 6.15 -5.37 6.12 -2.68 2.69 -2.69 3.06 -2.68 3.07 -3.06 2.68 7.28 -1.14 6.9 -0.77 6.52 -0.76 6.51 -0.77 6.51 -0.39 6.14 -0.38 5.74 -0.38 6.13 -0.39 11.1 -0.37 10.35 0.37 9.19 0.39 8.81 0.38 7.66 0.38 6.89 0.77 5.76 0.77 4.98 0.76 3.83 0.77 2.69 0.76 1.53 0 0.76 0.39 -6.9 4.21 -7.28 4.21 -6.89 3.84 -6.52 4.21 -6.9 3.45 -6.89 3.44 -6.52 3.45 -6.9 3.07 -6.5 3.45 -6.52 2.68 -6.52 2.68 -6.51 2.69 -6.51 2.68 -6.13 2.31 -6.52 2.29 -5.74 1.92 -6.13 1.92 -6.14 1.92 -6.12 1.91 -5.37 1.53 -5.74 1.53 -5.75 1.54 -5.74 1.14 -5.74 1.16 -5.36 1.15 -5.36 1.14 -5.36 0.77 -4.98 0.76 -10.34 1.53 -9.96 1.16 6.13 0 6.13 0 5.74 0.38 5.37 0.38 5.35 0.39 5.36 0.38 4.99 0.39 4.6 0.77 9.57 1.15 8.05 1.53 7.28 1.92 7.28 1.53 6.14 1.92 4.97 1.54 4.61 1.53 3.82 1.53 4.99 1.92 1.91 0.76 -3.07 4.21 -3.06 3.84 -3.05 4.21 -3.45 3.84 -3.84 3.83 -3.82 3.45 -4.22 3.83 -3.82 3.45 2.31 0.76 4.97 2.31 3.45 1.53 3.83 2.29 4.61 2.69 5.36 3.06 5.74 3.83 6.13 4.22 6.9 4.58 7.28 5.76 8.05 6.13 8.44 6.89 8.79 7.66 9.58 8.44 1.54 -0.38 3.84 -0.78 6.13 -0.37 7.28 -1.16 8.81 -0.76 8.82 -0.39 4.6 -0.37 4.21 0 4.21 0 4.21 0 0 1.14 0 1.9 0 1.92 -0.38 1.92 0 2.31 -0.77 2.68 -0.77 2.68 -1.15 3.45 -1.14 3.06 -1.9 3.84 -1.92 3.82 -2.31 3.83 -1.53 1.92 -1.53 2.31 -1.92 2.29 -1.53 1.92 0.77 0 1.92 -0.39 1.14 -0.38 1.53 -0.39 1.53 -0.38 1.92 -0.77 1.92 -1.14 1.9 -1.54 0.39 -0.76 1.14 -0.77 0.76 -0.77 0.77 -1.14 0.77 -1.14 0.76 -1.14 0.39 -1.54 0.76 -1.53 0.39 -1.53 0.39 -1.53 0.39 -1.92 0.37 -1.92 1.16 0.77 3.45 2.29 4.6 3.08 6.5 3.83 3.45 1.92 3.84 1.9 3.83 1.92 3.83 1.54 4.22 1.53 4.21 1.53 1.92 0.39 1.91 0.39 2.3 0.38 1.92 0.38 0.76 0 2.31 0 3.45 0.39 4.21 0 4.98 0 5.36 -0.39 2.69 -0.38 2.68 -0.38 2.68 -0.39 2.29 -0.76 2.69 -0.77 3.06 -0.39 3.82 -0.76 4.6 0 4.6 0 4.98 0 5.36 0.38 5.37 0.77 3.07 0.38 3.06 0.39 2.69 0.76 2.68 0.77 3.06 0.76 3.05 1.14 2.69 0.77 3.06 1.14 3.06 1.15 2.68 1.16 2.68 1.52 2.69 1.53 2.68 1.53 2.68 1.92 2.68 1.92 2.31 1.92 2.68 1.9 1.92 2.31 2.29 1.92 1.92 2.29 1.92 1.92 1.53 1.92 1.92 2.29 1.14 1.92 1.54 1.92 1.14 1.92 1.14 2.29 1.16 1.92 1.91 3.82 1.16 3.45 1.53 3.84 0.37 3.44 0.77 3.45 0.39 3.45 0 2.68 0 3.06 -0.39 2.69 -0.39 2.29 -0.39 0 -1.9 -0.76 -2.69 -1.16 -3.83 -1.92 -4.99 -1.9 -5.74 -2.31 -6.9 -2.68 -7.66 -2.68 -8.42 -3.07 -9.58 -3.45 -10.34 -3.06 -11.5 -3.84 -11.87 -3.44 -12.65 -3.45 -13.79 -3.45 -14.17 -3.45 -5.76 -1.53 -5.74 -0.76 -5.37 -1.14 -5.36 -0.77 -4.6 -0.39 -4.98 -0.39 -4.6 0 -3.82 0 -4.22 0 -3.83 0.39 -3.45 0.39 -3.45 0.39 -3.45 0.76 -2.68 0.77 -2.68 0.76 -2.68 0.77 -2.69 0.76 -1.91 0.77 -1.92 0.76 -2.31 1.15 -3.06 1.54 -2.29 1.91 -3.45 2.68 -0.76 1.16 -1.92 1.14 -4.98 3.84 -3.83 2.29 -4.22 2.68 -4.97 2.68 -4.99 2.69 -3.06 1.53 -2.68 1.14 -3.45 1.53 -3.06 1.15 -3.06 1.16 -3.45 1.15 -3.43 0.76 -3.45 1.16 -3.45 0.39 -3.45 0.76 -3.45 0.39 -3.83 0 -3.84 0.37 -3.45 -0.37 -3.83 -0.39 -3.45 -0.76 -9.58 -1.55 -8.42 -1.53 -8.05 -1.14 -8.05 -1.15 -7.28 -0.39 -6.52 -0.76 -3.45 0 -3.43 0 -3.08 0 -3.44 0.38 -3.07 0.38 -3.44 0 -3.07 0.39 -2.68 0.76 -3.45 0.77 -3.07 0.76 -3.06 0.77 -3.06 1.14 -3.07 0.77 -3.06 1.14 -3.06 1.53 -3.07 1.53 -3.44 1.53 -3.45 1.54 -3.06 1.92 -3.44 2.29 -0.77 0.39 -2.3 0.76 -3.06 1.92 -3.84 2.31 -4.59 3.06 -4.6 3.05 -2.29 1.92 -2.3 1.92 -2.3 1.92 -1.92 1.92 -2.68 -1.16 -1.15 -1.15 -3.83 -2.29 -2.68 -1.55 -3.84 -1.9 -3.83 -1.92 -4.97 -1.91 -5.74 -1.92 -6.14 -2.31 -3.44 -0.76 -3.45 -1.16 -3.44 -0.76 -3.83 -1.14 -4.22 -0.77 -4.22 -0.76 -4.21 -0.77 -4.6 -0.39 -4.6 -0.76 -4.98 -0.39 -4.98 -0.39 -5.36 -0.37 -5.74 -0.39 -0.77 0zm0 -157.47l0 0 17.62 1.16 -1.53 -12.65 -9.58 3.05 -6.51 2.31 0 6.13zm-32.57 -33.33l0 0 11.87 -12.26 -2.68 0.77 -7.28 2.29 -1.91 0.76 0 -10.34 2.68 -1.14 4.6 -1.53 5.75 -1.92 6.13 -1.92 6.13 -1.92 1.15 -1.14 2.68 -3.07 3.45 -3.44 0 16.47 -3.83 3.82 -10.74 12.65 -10.34 13.03 -7.66 10.73 0 -21.84zm32.57 27.2l0 0 0 6.13 -18.01 -1.14 0.39 0 1.14 -0.39 1.91 -0.39 3.08 -0.76 4.59 -1.53 6.13 -1.92 0.77 0zm0 47.12l0 0 0 10.35 -2.68 -1.53 -4.22 -2.31 -4.59 -3.07 -4.99 -3.06 -4.98 -3.83 -5.36 -3.84 -5.37 -3.83 -0.38 -0.39 0 -12.64 2.68 2.69 3.84 3.06 3.83 3.05 4.22 3.07 4.6 3.45 4.6 3.06 4.99 3.45 3.83 2.29zm0 68.59l0 0 0 11.87 -0.77 0 -4.22 0 -3.83 0 -3.83 0 -3.83 0.38 -3.45 0.77 -3.45 0.76 -3.44 0.76 -3.45 1.16 -2.3 0.76 0 -12.26 0.77 -0.38 5.75 -1.16 5.74 -1.14 5.74 -1.14 6.52 -0.39 6.52 -0.39 1.53 0.39zm0 35.25l0 0 0 12.64 -4.98 0 -5.36 0 -5.75 0 -4.97 0.39 -5.36 0.37 -4.98 0.39 -1.15 0 0 -11.49 2.68 -0.39 6.9 -0.77 6.89 -0.38 6.9 -0.39 6.9 -0.39 2.3 0zm-34.48 -176.23l0 0 1.91 -1.92 0 21.84 -2.3 3.05 -9.58 14.57 1.15 1.16 2.68 2.68 4.6 4.21 3.45 2.68 0 12.64 -4.6 -3.84 -5.36 -4.58 -4.6 -4.22 0 -26.82 1.15 -1.52 1.15 -2.31 1.53 -1.92 1.53 -1.9 1.15 -1.54 -0.38 0 -1.53 1.15 -2.68 1.53 -1.91 1.14 0 -11.49 1.15 -0.39 3.06 -1.53 2.68 -1.14 3.07 -1.16 2.68 -0.37zm1.91 -10.35l0 0 -3.06 1.16 -5.75 1.9 -5.74 2.31 0 -9.97 6.51 -3.06 0.76 0 2.3 -1.14 3.07 -1.14 1.91 -0.39 0 10.34zm0 155.55l0 0 0 12.26 -0.77 0.39 -3.06 1.14 -3.07 1.16 -2.68 1.53 -2.68 1.53 -2.3 1.15 0 -13.42 0.38 -0.38 4.6 -1.92 5.36 -1.92 4.22 -1.53zm0 33.34l0 0 0 11.49 -3.45 0.39 -9.19 1.14 -1.91 0.39 0 -11.11 4.6 -0.76 6.13 -1.16 3.83 -0.38zm-14.56 -183.52l0 0 -0.38 0.39 -6.9 3.06 -7.28 3.07 -7.28 3.44 -7.66 3.84 -7.28 4.21 -3.84 1.92 -3.45 2.31 -3.83 2.29 -3.45 2.29 -3.44 2.69 -3.06 2.29 -3.07 2.68 -3.06 2.69 -0.77 0.76 -2.3 2.31 -3.44 3.45 -3.84 4.21 -1.91 1.91 -1.92 2.31 -1.52 2.31 -1.54 2.29 -1.53 2.31 -1.15 1.91 -0.38 1.14 -0.38 0.77 0 1.14 0 0.77 0.77 0 2.3 0.38 1.92 0 1.91 0 2.68 -0.38 2.68 -0.39 2.68 -0.77 3.45 -1.14 3.45 -1.53 3.45 -1.53 1.91 -1.53 1.92 -1.15 1.92 -1.14 2.29 -1.53 1.92 -1.53 2.3 -1.92 1.92 -1.92 2.29 -1.92 8.43 -8.42 7.67 -6.9 3.45 -3.45 3.45 -3.05 3.45 -2.68 3.06 -2.69 3.06 -2.68 3.07 -2.31 3.06 -1.9 2.68 -1.92 1.53 -1.14 0 11.49 -1.53 1.16 -2.3 1.91 -2.3 1.53 -2.68 2.29 -2.68 2.31 -3.06 2.68 -3.07 3.45 -3.45 3.06 -3.45 3.83 -1.54 1.93 -3.44 4.21 -2.68 2.68 -3.45 3.06 -3.83 3.45 -4.21 3.44 -2.3 1.53 -2.31 1.54 -2.68 1.53 -2.68 1.54 -2.68 1.54 -2.68 1.14 -2.68 1.14 -3.06 1.14 -3.07 0.77 -3.45 0.76 -3.06 0.39 -3.45 0.39 -3.45 0 -3.45 0 -3.45 -0.39 -3.44 -0.39 -0.77 -0.38 -1.53 -0.76 -0.77 -0.39 -0.77 -0.76 -0.77 -1.14 -0.39 -1.16 -0.38 -0.76 -0.39 -0.77 0 -0.76 0 -0.77 0 -1.15 0 -0.77 0.39 -1.15 0.38 -1.53 0.39 -1.14 0.77 -1.53 0.77 -1.15 1.14 -1.53 0.77 -1.92 1.53 -1.92 1.15 -1.53 1.91 -2.29 6.13 -7.66 6.52 -7.29 3.06 -3.44 3.83 -3.45 4.22 -3.45 4.21 -3.45 5.36 -3.44 5.75 -3.45 6.51 -3.84 7.66 -3.83 8.43 -4.6 9.96 -4.21 10.73 -4.99 5.75 -2.31 0 9.97zm0 26.43l0 0 -1.53 2.31 -2.3 4.6 -2.3 3.84 -1.53 3.06 -1.15 1.92 -0.38 0.76 2.3 2.68 1.91 2.31 2.3 2.68 2.3 2.3 0.38 0.38 0 -26.82zm0 129.5l0 0 0 13.42 -0.38 0.39 -2.68 1.53 -2.3 1.53 -2.3 1.52 -4.22 3.45 -3.83 3.06 -3.07 3.07 -2.3 2.31 -3.83 4.21 -1.16 1.53 1.92 -0.76 4.98 -1.16 8.04 -1.9 9.96 -1.92 1.15 -0.39 0 11.11 -6.51 1.14 -8.04 1.53 -6.9 1.15 -6.52 1.92 -5.75 1.53 -4.59 1.53 -4.22 1.16 -5.36 2.29 -1.92 0.76 0.38 -0.76 0.77 -2.29 1.53 -3.08 2.3 -3.83 1.54 -2.68 1.14 -2.31 1.92 -2.68 1.92 -2.68 1.91 -3.07 2.3 -2.69 2.68 -3.07 2.68 -3.06 2.68 -3.05 3.08 -3.08 3.44 -2.68 3.45 -3.07 3.83 -2.68 3.83 -2.69 4.6 -2.29 3.83 -2.3z"/>
    <polygon class="fil0" points="901.13,2098.41 880.81,2098.41 880.81,2022.16 878.14,2024.47 875.07,2026.76 872.01,2029.06 868.94,2030.98 865.49,2032.89 862.05,2034.42 858.6,2035.95 854.76,2037.49 854.76,2019.09 856.68,2018.34 858.98,2017.56 860.89,2016.42 863.19,2015.27 865.49,2014.11 867.41,2012.58 869.71,2011.05 872.01,2009.14 874.31,2007.59 876.22,2005.3 878.14,2003.38 880.05,2001.48 881.58,1999.17 882.73,1996.88 883.88,1994.57 885.03,1992.27 901.13,1992.27 "/>
    <path class="fil0" d="M963.95 2083.46l0.77 0 1.53 -0.37 1.54 -0.39 1.53 -0.39 1.15 -1.15 1.14 -0.77 1.15 -1.15 1.15 -1.53 1.15 -1.53 0.77 -1.92 0.77 -2.68 0.77 -2.68 0.77 -3.06 0.39 -3.84 0.77 -3.82 0.38 -4.22 -1.91 1.92 -2.31 1.92 -0.77 0.76 -1.54 0.77 -1.14 0.76 -1.14 0.39 -1.15 0.77 -1.14 0.39 -1.15 0.37 -1.54 0 -1.92 0.39 0 -14.55 1.54 0 1.15 0 1.53 -0.77 1.14 -0.38 1.15 -0.76 1.14 -0.77 1.15 -0.76 1.15 -1.16 0.77 -1.14 0.77 -1.53 0.77 -1.53 0.38 -1.53 0.77 -1.91 0 -1.92 0.39 -1.92 0 -1.92 0 -2.68 -0.39 -2.31 0 -1.9 -0.77 -1.92 -0.77 -1.92 -0.39 -1.53 -1.15 -1.53 -1.15 -1.53 -1.14 -1.15 -1.14 -1.14 -1.15 -1.16 -1.14 -0.76 -1.54 -0.39 -1.15 -0.39 -1.53 -0.37 -0.39 0 0 -16.87 1.92 0 1.91 0.39 1.92 0 1.91 0.39 1.53 0.39 1.92 0.37 1.54 0.77 1.92 0.77 1.52 0.76 1.53 1.15 1.54 0.77 1.53 1.14 1.54 1.53 1.14 1.14 1.53 1.53 1.15 1.54 1.54 1.53 1.14 1.53 1.14 1.92 0.77 2.31 1.14 1.91 0.76 2.31 0.77 2.29 0.77 2.31 0.37 2.68 0.77 2.68 0.39 3.07 0.38 3.06 0.39 3.08 0 3.05 0 3.45 0 3.45 0 3.84 0 3.05 0 3.45 -0.39 3.45 -0.38 2.68 -0.77 3.07 -0.39 3.06 -0.76 2.69 -0.39 2.29 -1.14 2.29 -0.77 2.31 -0.76 2.31 -1.16 2.29 -1.14 1.92 -1.15 1.53 -1.53 1.92 -1.15 1.15 -1.52 1.53 -1.54 1.53 -1.53 1.14 -1.54 1.14 -1.53 1.16 -1.52 0.76 -1.92 1.14 -1.92 0.39 -1.53 0.77 -1.91 0.76 -1.91 0.39 -2.31 0.39 -1.91 0 -1.92 0.37 0 -16.86zm-31.8 -9.57l0 0 19.54 -1.92 0 1.54 0.39 1.14 0.38 1.14 0.39 1.16 0.39 1.14 0.76 0.76 0.77 1.16 0.39 0.76 1.15 0.77 0.76 0.37 0.77 0.39 1.15 0.77 0.77 0 1.15 0.37 1.14 0 1.14 0 0.77 0 0 16.86 -2.3 0 -2.68 -0.37 -3.06 0 -2.68 -0.77 -2.68 -0.76 -2.3 -0.77 -2.3 -1.15 -2.3 -1.14 -1.92 -1.53 -1.91 -1.92 -1.53 -1.92 -1.53 -2.29 -1.15 -2.31 -1.14 -2.29 -1.15 -3.07 -0.77 -3.06 -0.38 -3.07zm31.8 -11.5l0 0 -0.77 0.39 -2.68 0 -1.54 0 -1.53 0 -1.53 -0.39 -1.53 -0.39 -1.14 0 -1.54 -0.76 -1.54 -0.39 -1.14 -0.39 -1.53 -0.76 -1.15 -0.77 -1.53 -0.76 -1.14 -0.77 -2.3 -1.92 -2.3 -2.29 -1.15 -1.14 -1.14 -1.53 -0.77 -1.14 -1.15 -1.54 -0.77 -1.16 -0.38 -1.54 -0.76 -1.53 -0.77 -1.53 -0.38 -1.53 -0.38 -1.53 -0.77 -1.91 0 -1.53 -0.39 -3.84 -0.38 -3.84 0.38 -1.9 0 -1.92 0 -1.92 0.39 -1.91 0 -1.55 0.77 -1.9 0.38 -1.54 0.38 -1.92 0.77 -1.53 0.76 -1.53 0.77 -1.53 0.77 -1.16 1.14 -1.53 0.77 -1.14 1.15 -1.54 1.14 -1.14 1.15 -1.14 1.15 -1.14 1.53 -1.16 1.15 -0.76 1.53 -1.15 1.53 -0.77 1.53 -0.76 1.54 -0.77 1.14 -0.39 1.92 -0.39 1.53 -0.37 1.53 -0.77 1.91 0 1.53 -0.39 1.92 0 1.91 0 0 16.87 -1.14 0 -1.15 0 -1.53 0.37 -1.15 0.39 -1.15 0.39 -1.15 0.39 -1.15 0.76 -1.14 1.15 -0.77 0.77 -1.15 1.54 -0.77 1.14 -0.38 1.53 -0.77 1.92 0 1.91 -0.39 1.92 -0.38 2.31 0 2.29 0 2.69 0.38 2.29 0.39 2.31 0.38 1.92 0.39 1.52 0.77 1.92 0.77 1.14 1.14 1.53 1.15 1.16 0.77 0.76 1.14 0.77 1.54 0.76 1.15 0.38 1.53 0.77 1.15 0 1.52 0 0 14.55z"/>
    <polygon class="fil0" points="1013.37,2012.97 1013.37,1994.19 1082.34,1994.19 1082.34,2008.75 1080.42,2011.05 1078.13,2013.35 1076.21,2016.03 1073.91,2019.09 1071.61,2022.16 1069.31,2025.61 1067.39,2029.06 1065.1,2032.89 1062.79,2037.11 1060.89,2041.32 1058.97,2045.15 1057.05,2049.37 1055.51,2053.58 1053.98,2058.18 1052.84,2062.39 1051.69,2066.6 1050.53,2071.2 1049.38,2075.41 1048.63,2079.63 1048.24,2083.46 1047.47,2087.3 1047.09,2091.12 1047.09,2094.96 1047.09,2098.41 1027.56,2098.41 1027.56,2093.04 1028.32,2087.3 1029.09,2081.93 1029.85,2076.18 1031.38,2070.83 1032.91,2065.07 1034.45,2059.33 1036.37,2053.58 1038.66,2048.21 1040.96,2042.47 1043.64,2037.11 1046.32,2032.13 1049.38,2027.14 1052.45,2022.16 1055.9,2017.56 1059.36,2012.97 "/>
    <path class="fil0" d="M1163.93 2018.71l-19.52 1.92 -0.39 -1.14 0 -1.53 -0.39 -1.14 -0.39 -1.16 -0.76 -1.14 -0.39 -1.15 -0.77 -0.77 -0.76 -0.76 -0.76 -0.77 -0.77 -0.38 -1.14 -0.39 -0.77 -0.77 -1.14 0 -0.77 -0.37 -1.14 0 -1.53 -0.39 -0.39 0.39 0 -16.87 1.92 0 2.68 0 3.08 0.39 2.68 0.77 2.29 0.37 2.68 1.16 2.31 1.14 1.92 1.53 2.29 1.54 1.92 1.53 1.53 1.92 1.54 2.29 1.53 2.31 1.14 2.68 0.77 2.68 0.76 3.06 0.76 3.06zm-31.79 11.11l0 0 0.39 0 2.68 0 1.53 0 1.53 0 1.55 0.39 1.52 0 1.54 0.38 1.15 0.39 1.53 0.76 1.14 0.39 1.53 0.76 1.14 0.77 1.54 0.76 1.14 0.77 2.31 1.92 2.68 2.29 0.77 1.14 1.15 1.14 0.76 1.53 1.16 1.16 0.76 1.53 0.77 1.53 0.39 1.53 0.76 1.54 0.76 1.53 0.38 1.53 0.39 1.52 0.39 1.93 0.39 3.83 0 3.45 0 1.92 0 1.9 -0.39 1.92 0 1.92 -0.39 1.92 -0.39 1.52 -0.77 1.92 -0.37 1.54 -0.76 1.92 -0.39 1.53 -0.77 1.14 -1.14 1.55 -0.77 1.52 -1.14 1.16 -1.15 1.53 -1.14 1.15 -1.14 1.14 -1.16 1.14 -1.14 1.16 -1.53 0.76 -1.53 1.14 -1.16 0.77 -1.52 0.76 -1.53 0.39 -1.53 0.77 -1.53 0.38 -1.92 0.39 -1.53 0.39 -1.53 0.39 -1.92 0 -1.92 0.37 -1.53 0 0 -16.86 0.77 0 1.54 0 1.14 -0.37 1.14 -0.39 1.16 -0.39 1.53 -0.76 0.76 -0.77 1.15 -0.76 1.16 -1.16 0.76 -1.15 0.77 -1.14 0.76 -1.92 0.39 -1.53 0.39 -1.92 0.37 -1.92 0 -2.29 0 -2.29 0 -2.69 0 -2.29 -0.37 -1.92 -0.39 -1.92 -0.76 -1.92 -0.39 -1.54 -1.15 -1.52 -0.77 -1.53 -1.14 -0.77 -1.14 -1.15 -1.16 -0.77 -1.14 -0.76 -1.53 -0.39 -1.15 -0.39 -1.53 -0.38 -1.16 0 0 -14.94zm0 -20.68l0 0 -0.76 0 -1.53 0.37 -1.53 0.39 -1.53 0.39 -1.15 0.76 -1.53 1.16 -1.16 1.14 -1.14 1.54 -1.14 1.53 -0.77 1.92 -0.76 2.68 -0.77 2.68 -0.76 3.06 -0.39 3.45 -0.77 4.21 0 4.21 1.92 -1.91 1.92 -1.92 2.31 -1.53 2.29 -1.14 2.31 -1.15 2.68 -0.77 2.29 -0.39 0 14.94 -1.52 0 -1.53 0.38 -1.16 0 -1.53 0.77 -1.14 0.76 -1.15 0.38 -0.77 1.15 -1.15 1.16 -1.14 1.14 -0.77 1.53 -0.76 1.14 -0.39 1.91 -0.39 1.55 -0.39 1.9 -0.38 2.31 0 1.92 0 2.29 0.38 2.31 0.39 2.31 0.39 1.91 0.76 1.92 0.77 1.53 0.76 1.53 1.16 1.53 1.14 1.14 1.15 1.15 1.16 1.16 1.52 0.76 1.16 0.39 1.52 0.39 1.16 0.37 0.76 0 0 16.86 -2.29 0 -1.92 -0.37 -1.91 0 -1.55 -0.39 -1.9 -0.39 -1.92 -0.76 -1.53 -0.77 -1.92 -0.39 -1.53 -0.76 -1.53 -1.14 -1.53 -0.77 -1.53 -1.53 -1.15 -1.14 -1.53 -1.16 -1.53 -1.52 -1.14 -1.53 -1.53 -1.53 -1.16 -1.92 -0.76 -1.53 -1.15 -2.31 -0.77 -1.91 -1.15 -2.31 -0.77 -2.29 -0.39 -2.3 -0.76 -2.68 -0.39 -2.68 -0.76 -3.07 -0.39 -3.08 0 -3.05 -0.39 -3.08 0 -3.44 0 -3.45 0 -3.45 0 -3.45 0.39 -3.44 0.39 -3.06 0 -3.45 0.76 -2.68 0.39 -2.69 0.76 -2.68 0.77 -2.68 0.76 -2.68 0.77 -1.92 1.14 -2.31 0.77 -1.91 1.53 -1.92 1.14 -1.92 1.14 -1.53 1.54 -1.92 1.16 -1.14 1.54 -1.53 1.52 -1.14 1.53 -1.14 1.92 -1.16 1.54 -0.76 1.53 -1.15 1.92 -0.77 1.53 -0.77 1.92 -0.37 2.31 -0.39 1.91 -0.39 1.92 0 1.92 -0.39 0.38 0 0 16.87z"/>
    <polygon class="fil3" points="470.87,627.57 470.49,607.64 531.78,606.89 537.54,606.89 542.51,607.27 544.81,607.27 546.73,607.64 548.64,608.03 550.17,608.42 552.47,609.18 554.39,610.33 556.31,611.48 558.22,612.63 559.75,613.78 561.29,615.31 562.82,617.23 563.97,619.14 565.5,621.06 566.26,622.98 567.41,625.27 568.19,627.96 568.57,630.25 568.95,632.94 569.33,636 569.33,639.07 569.33,642.51 568.95,645.97 568.57,649.03 567.8,652.09 567.03,653.62 566.65,654.77 565.88,656.3 565.12,657.46 564.35,658.6 563.59,659.75 562.82,660.9 561.67,661.67 560.9,662.82 559.75,663.59 558.61,664.35 557.45,665.5 555.92,666.26 554.77,666.65 553.24,667.42 552.1,667.8 549.02,668.95 545.58,669.72 542.13,670.1 538.3,670.1 536,651.33 539.83,650.94 543.28,650.17 544.43,650.17 545.58,649.41 546.73,649.03 547.88,648.64 549.02,647.88 549.79,646.73 550.94,645.58 551.71,644.43 552.1,643.28 552.47,641.75 552.47,640.21 552.86,638.68 552.47,637.15 552.47,635.61 552.1,634.08 551.71,632.94 551.33,631.78 550.56,630.64 549.79,629.87 549.02,629.1 547.88,628.72 546.73,627.96 544.81,627.57 543.28,627.19 540.98,626.8 538.68,626.8 536.38,626.8 533.32,626.8 "/>
    <path class="fil3" d="M537.54 508.42l1.14 0 1.54 0 1.91 0.38 1.92 0.38 1.92 0.39 1.91 0.38 1.91 0.77 1.54 0.77 1.91 0.38 1.53 0.77 1.54 1.14 1.53 0.77 1.53 1.14 1.53 1.15 1.15 1.14 1.53 1.15 1.14 1.15 1.15 1.53 1.15 1.15 1.15 1.53 0.77 1.52 1.14 1.92 0.77 1.54 0.77 1.53 0.39 1.92 0.77 1.52 0.38 1.54 0.39 1.92 0.38 1.92 0 1.53 0.38 1.91 0 1.92 -0.38 1.91 0 1.92 -0.38 1.91 0 1.92 -0.77 2.3 -0.39 2.3 -1.14 2.29 -0.77 2.31 -1.15 1.91 -1.14 2.3 -1.15 2.3 -1.53 1.92 -1.54 1.91 -1.53 1.53 -1.91 1.53 -1.92 1.53 -1.91 1.54 -1.92 0.77 -2.3 1.15 -1.92 0.77 -2.68 0.77 -2.3 0.38 -2.3 0.39 -2.68 0 -2.68 0 -0.38 0 0 -19.54 1.53 0.39 2.29 0 1.92 -0.39 1.92 0 1.91 -0.77 1.91 -0.38 1.53 -1.15 1.54 -1.16 1.53 -0.76 1.14 -1.15 1.15 -1.53 0.77 -1.53 0.76 -1.53 0.77 -1.53 0.39 -1.91 0 -1.92 0 -1.53 0 -1.92 0 -1.53 -0.77 -1.91 -0.39 -1.53 -1.14 -1.53 -0.77 -1.54 -1.53 -1.53 -1.14 -1.14 -1.53 -1.15 -1.92 -1.14 -1.91 -1.15 -2.3 -0.77 -2.31 -0.77 -2.3 -0.39 -2.68 -0.38 -0.38 0 0 -19.53zm-8.05 73.17l0 0 -2.3 -0.38 -2.3 -0.39 -1.92 -1.14 -2.29 -0.77 -1.92 -1.15 -1.92 -1.15 -2.3 -1.53 -1.52 -1.53 -2.31 -1.53 -1.53 -1.54 -1.54 -1.92 -1.14 -1.91 -1.53 -1.92 -0.77 -2.3 -1.15 -1.91 -0.77 -2.68 -0.77 -1.91 -0.38 -2.68 -0.39 -2.3 0 -2.68 0 -2.3 0 -2.31 0.39 -2.68 0.38 -2.68 0.39 -1.92 0.38 -1.92 0.39 -1.91 0.77 -1.53 0.77 -1.92 0.77 -1.53 0.77 -1.54 1.15 -1.91 0.76 -1.14 1.16 -1.54 1.14 -1.14 1.15 -1.54 1.14 -1.15 1.53 -1.14 1.15 -1.14 1.53 -1.15 1.54 -0.77 1.53 -1.15 1.53 -0.77 1.91 -0.77 1.53 -0.77 1.53 -0.38 1.53 -0.39 1.92 -0.38 1.53 0 1.91 -0.38 1.92 0 1.53 0 1.15 0 0 19.53 -1.92 -0.38 -2.3 0 -1.91 0 -1.92 0.77 -1.92 0.39 -1.91 0.77 -1.53 0.77 -1.54 0.77 -1.53 1.15 -1.15 1.53 -0.77 1.14 -1.14 1.53 -0.77 1.54 -0.39 1.53 -0.77 1.92 0 1.53 0 1.92 0 1.92 0 1.53 0.77 1.53 0.77 1.91 0.77 1.53 1.15 1.53 1.15 1.53 1.14 1.15 1.91 1.14 1.54 1.14 1.92 0.77 1.92 1.15 2.68 0.77 2.3 0.39 2.3 0.38 1.15 0 0 19.54 -2.31 0 -2.68 -0.39 -3.06 -0.77z"/>
    <path class="fil3" d="M506.11 476.23l-16.09 -5.36 5.36 -18.01 16.48 5.36 -5.75 18zm75.48 25.29l0 0 -66.66 -22.22 6.13 -18.01 66.66 22.23 -6.13 18z"/>
    <polygon class="fil3" points="617.99,404.97 610.33,422.22 577.76,407.27 572.78,404.97 568.95,403.44 567.41,403.06 565.88,402.67 564.73,402.29 563.97,402.29 562.06,402.29 560.52,402.29 558.99,402.67 557.45,403.44 556.31,404.59 555.16,405.74 554.01,407.27 553.24,408.8 552.47,409.95 552.47,411.1 552.1,412.25 552.1,413.4 551.71,414.55 551.71,415.7 552.1,416.85 552.1,418 552.47,419.14 552.47,420.3 553.24,421.44 553.63,422.22 554.01,423.36 554.77,424.52 555.54,425.28 556.31,426.04 557.45,426.81 558.61,427.57 559.75,428.34 561.29,429.49 565.5,431.79 570.48,434.09 599.22,447.5 591.94,464.74 527.95,435.23 534.85,419.14 544.43,423.36 543.28,421.83 542.51,420.3 542.13,418.38 541.36,416.85 540.98,414.93 540.6,413.4 540.6,411.87 540.6,409.95 540.22,408.42 540.6,406.89 540.6,404.97 540.98,403.44 541.36,401.91 541.75,399.99 542.13,398.46 542.89,396.92 544.05,394.24 545.96,391.56 546.73,390.41 547.5,389.26 548.64,388.12 549.41,387.35 551.33,385.43 553.63,384.28 554.77,383.52 555.54,383.13 556.69,382.75 557.84,382.36 559.75,381.99 562.06,381.99 563.97,381.99 566.26,382.36 568.95,383.13 571.63,383.9 574.7,385.05 578.15,386.59 "/>
    <polygon class="fil3" points="639.44,372.4 566.26,352.1 578.15,336.01 614.54,347.5 626.42,351.71 625.27,349.8 624.12,348.27 623.35,347.12 622.59,346.35 621.82,345.2 621.05,343.67 619.9,342.52 619.14,340.99 598.84,308.04 610.33,292.33 649.4,358.61 "/>
    <path class="fil3" d="M626.81 252.87l3.06 3.07 -3.06 3.06 0 -6.13zm0 26.44l0 0 0 -6.13 9.96 -10.73 50.19 50.19 -13.03 13.79 -47.12 -47.12zm-9.97 -9.96l0 0 -12.26 -12.26 12.65 -13.41 9.58 9.19 0 6.13 -9.97 10.34zm9.97 3.83l0 0 0 6.13 -3.07 -3.07 3.07 -3.06z"/>
    <polygon class="fil3" points="701.51,299.23 639.44,223.37 653.62,211.11 715.69,287.35 "/>
    <polygon class="fil3" points="730.25,275.47 676.23,192.72 691.55,182.37 745.57,264.75 "/>
    <path class="fil3" d="M785.42 212.64l18.01 -5.75 0.39 2.68 0 2.68 0 2.3 -0.39 2.68 -0.38 2.3 -0.77 2.3 -0.77 2.3 -0.77 1.91 -1.14 2.3 -1.54 1.92 -1.53 1.91 -1.53 1.92 -1.92 1.53 -2.3 1.54 -2.3 1.92 -2.3 1.14 -1.91 1.15 -2.3 0.77 -1.92 0.76 -1.91 0.77 -1.92 0.77 -1.91 0.38 -1.92 0.38 -1.53 0 -1.91 0 -1.92 0 -1.91 0 -0.77 -0.38 0 -18.39 1.14 0.77 1.15 0.77 1.54 0.77 1.53 0.38 1.53 0.39 1.53 0 1.14 0 1.54 -0.39 1.53 -0.38 1.53 -0.39 1.15 -0.77 1.14 -0.38 0.77 -0.77 0.77 -0.77 0.76 -0.38 0.77 -0.77 0.39 -0.76 0.38 -0.77 0.39 -1.14 0.38 -0.77 0.39 -1.15 0 -1.15 0.38 -0.77 0 -1.15 -0.38 -1.53 0 -1.14 -0.39 -1.53zm-21.07 -42.53l0 0 0 15.33 1.14 0 1.54 0.38 1.15 0.38 1.53 0.38 1.14 0.76 1.53 1.15 1.15 0.77 1.15 1.53 1.15 1.15 0.77 1.53 1.14 1.91 -13.41 7.28 0 13.03 34.86 -18.78 -1.14 -2.3 -1.15 -2.68 -1.14 -1.92 -1.53 -2.3 -1.15 -1.91 -1.53 -1.53 -1.15 -1.92 -1.53 -1.53 -1.53 -1.53 -1.15 -1.15 -1.53 -1.15 -1.54 -1.14 -1.53 -1.15 -1.53 -1.14 -1.53 -0.77 -1.53 -0.39 -1.91 -0.77 -1.54 -0.38 -1.53 -0.39 -1.53 -0.39 -1.53 -0.38 -1.92 0 -1.54 0 -1.14 0zm0 74.71l0 0 -0.77 0 -1.92 -0.38 -1.53 -0.77 -1.91 -0.38 -1.53 -0.77 -2.68 -1.53 -2.3 -1.91 -2.3 -1.92 -2.3 -1.92 -2.3 -2.68 -1.91 -2.68 -1.92 -3.06 -1.91 -3.06 -0.77 -1.92 -0.77 -1.92 -0.77 -1.91 -0.77 -1.92 -0.77 -1.91 -0.39 -1.92 -0.38 -1.53 -0.39 -1.91 -0.39 -1.92 -0.38 -1.91 0 -1.53 0 -1.92 0.38 -1.54 0 -1.91 0.39 -1.53 0.39 -1.92 0.38 -1.54 0.77 -1.53 0.39 -1.53 0.77 -1.53 0.77 -1.53 0.77 -1.15 0.77 -1.53 1.14 -1.15 1.15 -1.53 0.77 -0.77 1.15 -1.15 1.53 -1.14 1.15 -1.15 1.53 -0.77 1.14 -1.15 1.54 -0.77 1.92 -0.77 1.53 -1.14 1.91 -0.39 1.54 -0.77 1.92 -0.38 1.53 -0.39 1.53 -0.39 1.53 -0.38 0.77 0 0 15.33 -1.53 0 -1.15 0.38 -1.14 0 -1.53 0.77 -1.15 0.38 -1.15 0.77 -1.15 0.77 -1.14 1.15 -0.77 1.14 -0.77 1.15 -0.77 1.14 -0.39 1.54 -0.77 1.15 0 1.53 -0.38 1.53 0 1.53 0.38 1.53 0.39 1.54 0.38 1.91 0.77 1.53 0.77 1.92 11.11 -6.13 0 13.03 -6.13 3.45 1.15 1.53 1.15 1.92 1.14 1.15 1.15 1.53 1.14 0.76 0.39 0.39 0 18.39z"/>
    <polygon class="fil3" points="861.66,203.83 840.2,106.89 909.94,90.42 913.77,106.89 862.81,118.77 867.41,140.23 914.91,129.12 918.75,145.21 871.24,156.7 876.98,182.76 929.86,170.49 933.69,186.59 "/>
    <polygon class="fil3" points="943.27,162.83 961.66,159 962.04,160.53 962.43,161.68 963.19,162.83 963.58,163.98 964.34,164.75 965.11,165.9 965.87,166.67 966.64,167.43 967.79,167.81 968.94,168.58 970.09,168.96 971.24,169.35 972.77,169.73 973.92,169.73 975.45,169.73 976.98,169.73 978.9,169.73 980.43,169.35 981.96,168.96 983.5,168.58 984.64,168.19 985.79,167.81 986.95,167.05 987.71,166.28 988.09,165.9 988.86,165.51 989.24,164.75 989.62,163.98 989.62,163.6 990.01,162.83 990.01,162.06 990.01,161.3 990.01,160.15 989.62,159.38 989.24,158.24 988.47,157.47 987.32,157.09 986.18,156.7 984.27,155.94 981.96,155.55 976.6,154.4 972,153.64 967.41,152.49 963.58,151.72 960.12,150.58 957.44,149.81 955.15,148.66 953.24,147.89 951.32,146.36 949.4,144.83 948.63,144.06 947.86,142.91 947.48,142.15 946.72,140.99 946.33,140.23 945.57,139.08 945.19,137.93 944.8,136.78 944.42,134.48 944.42,131.8 944.42,129.88 944.42,127.58 944.8,125.29 945.57,123.37 946.33,121.45 947.86,119.54 949.02,117.62 950.55,115.71 951.32,114.94 952.46,114.18 953.61,113.79 954.38,113.02 957.06,111.49 959.36,110.73 962.43,109.96 965.49,109.19 968.94,108.81 972.77,108.43 975.84,108.43 979.29,108.43 982.34,108.43 985.03,108.81 987.71,109.58 990.01,110.34 992.3,111.11 994.22,112.26 995.75,113.41 997.67,114.56 998.82,116.09 1000.35,117.62 1001.5,119.54 1002.64,121.45 1003.8,123.75 1004.56,125.67 987.32,129.88 986.95,129.12 986.56,127.97 985.79,127.2 985.41,126.44 984.64,125.67 983.88,124.9 983.5,124.52 982.73,123.75 981.58,123.37 980.81,122.98 979.67,122.61 978.52,122.61 977.37,122.22 976.22,122.22 975.07,121.84 973.54,122.22 970.09,122.61 967.41,122.98 965.87,123.37 965.11,123.75 963.95,124.14 963.19,124.52 962.43,125.67 961.66,126.44 961.28,127.58 961.28,128.74 961.28,129.5 961.66,130.65 962.43,131.41 963.19,131.8 963.95,132.57 965.49,132.95 967.02,133.33 968.94,134.1 973.92,135.25 980.81,136.4 984.27,137.17 987.71,137.93 990.77,138.7 993.45,139.84 996.14,140.62 998.06,141.76 1000.35,142.53 1001.88,144.06 1003.42,145.21 1004.56,146.36 1005.33,147.89 1006.1,149.81 1006.87,151.34 1007.25,153.26 1008.02,155.55 1008.02,157.47 1008.02,160.15 1007.63,162.45 1007.25,164.75 1006.48,167.05 1005.33,168.96 1004.56,171.27 1003.03,173.18 1001.12,175.1 1000.35,175.86 999.2,177.01 998.06,177.78 996.9,178.54 994.22,179.69 991.55,180.84 988.47,181.99 985.03,182.37 981.58,183.14 977.76,183.52 974.3,183.52 970.86,183.52 967.79,183.14 964.72,182.37 962.04,181.99 959.36,181.23 957.06,179.69 954.76,178.54 952.85,177.01 950.93,175.47 949.02,173.94 947.86,172.02 946.33,170.11 944.8,167.81 944.03,165.51 "/>
    <path class="fil3" d="M1062.79 108.81l1.14 -0.39 1.55 0 1.91 -0.38 1.53 0 1.53 0 1.92 0.38 1.54 0 1.53 0.39 1.14 0.38 1.55 0.39 1.14 0.77 1.53 0.38 1.14 0.77 1.53 0.77 1.15 0.77 0.77 0.77 1.53 1.15 0.76 0.77 2.31 2.3 1.92 2.68 0.76 1.15 0.76 1.53 0.77 1.53 0.77 1.53 0.37 1.53 0.77 1.54 0 1.91 0.76 1.53 0 1.92 0.39 1.91 0 1.92 0.39 1.92 -0.39 4.21 -0.39 3.83 -0.76 4.6 -0.39 3.83 -0.76 1.92 -0.77 1.91 -0.38 1.91 -0.77 1.53 -0.77 1.92 -0.76 1.15 -1.14 1.53 -0.77 1.53 -1.14 1.53 -1.16 1.15 -0.76 1.15 -1.14 1.14 -2.68 2.3 -2.69 1.53 -1.14 0.77 -1.14 0.77 -1.54 0.39 -1.14 0.38 -1.53 0.77 -1.54 0 -1.15 0.39 -1.53 0.38 -1.53 0 -1.14 0 -1.54 0 -1.53 0 -0.77 -0.38 0 -15.33 1.14 0 1.16 -0.39 1.54 -0.38 1.53 -0.39 1.14 -0.77 1.53 -1.15 1.15 -0.76 1.16 -1.54 1.14 -1.53 0.77 -1.53 1.14 -2.31 0.38 -1.91 0.77 -2.68 0.39 -2.68 0.39 -2.68 0.39 -2.68 0 -2.68 0 -2.3 -0.39 -2.3 0 -2.3 -0.77 -1.91 -0.77 -1.53 -0.76 -1.53 -1.15 -1.54 -0.77 -1.15 -1.15 -1.15 -1.53 -0.77 -1.14 -1.15 -1.53 -0.38 -1.16 -0.39 -1.91 -0.38 -1.55 0 -1.14 0 0 -13.79zm-29.49 -3.83l0 0 17.23 2.3 -1.15 10.34 0.78 -1.14 1.14 -1.15 1.15 -1.14 1.53 -0.77 1.14 -1.15 1.16 -0.77 1.53 -0.77 1.54 -0.77 1.53 -0.38 1.53 -0.77 0.37 0 0 13.79 -0.37 0 -1.53 0 -1.53 0.38 -1.54 0.77 -1.16 0.77 -1.53 0.77 -1.14 1.14 -1.53 1.53 -1.15 1.15 -0.77 1.92 -0.76 1.91 -0.77 1.92 -0.76 2.3 -0.39 2.3 -0.39 2.3 -0.37 3.07 0 2.68 0 2.68 0.37 2.3 0.39 2.3 0.39 1.91 0.76 1.92 1.16 1.53 0.76 1.54 1.14 1.14 1.16 1.53 1.53 0.77 1.14 0.77 1.54 0.77 1.53 0.38 1.53 0.39 1.92 0 0.37 0 0 15.33 -0.76 0 -1.53 -0.39 -1.14 -0.38 -1.54 -0.39 -1.16 -0.38 -1.14 -0.77 -1.14 -0.39 -1.14 -0.77 -1.16 -0.77 -1.14 -0.77 -1.15 -1.15 -0.77 -1.15 -2.29 -2.68 -2.29 -2.68 -4.23 36.01 -18.39 -2.3 11.5 -98.84z"/>
    <path class="fil3" d="M1144.79 122.61l2.68 0 2.31 0.38 2.68 0.39 1.92 0.38 1.92 0.39 1.53 0.77 1.91 0.77 1.53 0.77 1.55 0.77 1.52 0.77 1.54 1.15 1.52 0.77 1.53 1.15 1.16 1.14 1.14 1.15 1.14 1.53 1.53 1.15 0.77 1.53 1.14 1.53 0.77 1.54 1.15 1.91 0.77 1.53 0.38 1.54 0.77 1.91 0.37 1.53 0.39 1.54 0.39 1.91 0.39 1.91 0 1.92 0 1.53 0 1.91 0 1.92 0 1.92 -0.39 1.91 -0.39 1.92 -0.39 2.29 -0.76 1.54 -0.39 1.91 -0.77 1.92 -0.76 1.53 -0.76 1.92 -0.77 1.53 -1.14 1.53 -0.77 1.53 -1.14 1.15 -1.14 1.53 -1.14 1.15 -1.55 1.53 -1.14 1.15 -1.53 1.14 -1.15 1.15 -1.92 0.77 -1.53 1.14 -1.53 0.77 -1.53 0.77 -1.53 0.39 -1.91 0.77 -1.55 0.38 -1.53 0.39 -1.91 0.38 -1.92 0 -1.53 0 -1.92 0 0 -15.7 0.77 0 1.9 -0.39 1.55 -0.38 1.52 -0.77 1.53 -0.77 1.53 -1.14 1.16 -1.15 1.53 -1.15 1.14 -1.91 1.15 -1.53 1.14 -2.31 0.39 -1.91 0.77 -2.3 0.76 -2.68 0.39 -2.68 0.39 -2.3 0 -2.3 0 -2.3 -0.39 -1.92 -0.39 -1.91 -0.76 -1.91 -0.77 -1.54 -1.14 -1.53 -0.76 -1.54 -1.16 -1.14 -1.54 -1.15 -1.14 -1.14 -1.53 -0.77 -1.92 -0.39 -1.54 -0.38 -1.92 -0.39 -1.53 -0.38 -1.14 0.38 0 -15.7zm-34.86 28.73l0 0 0.39 -2.3 0.76 -2.3 0.76 -1.91 0.77 -2.3 1.14 -1.91 1.16 -2.31 1.52 -1.91 1.54 -1.92 1.54 -1.91 1.53 -1.53 1.9 -1.92 1.92 -1.15 1.92 -1.15 1.92 -1.15 2.29 -1.15 2.31 -0.77 2.29 -0.38 2.31 -0.39 2.29 -0.38 2.31 0 2.29 0 0 15.7 -0.76 0 -1.53 0.39 -1.54 0.38 -1.53 0.39 -1.53 1.15 -1.53 0.76 -1.54 1.15 -1.53 1.53 -1.16 1.54 -0.76 1.91 -1.16 1.92 -0.76 2.3 -0.76 2.3 -0.77 2.3 -0.39 2.68 0 2.68 -0.37 1.92 0.37 2.3 0.39 2.29 0.39 1.92 0.39 1.53 1.14 1.92 0.77 1.53 1.14 1.53 1.14 1.15 1.15 1.15 1.53 0.76 1.53 0.77 1.53 0.77 1.92 0.38 1.53 0.39 1.92 0 0.76 0 0 15.7 -1.91 0 -1.54 0 -1.91 -0.38 -1.92 -0.39 -2.31 -0.77 -2.29 -0.38 -2.29 -1.15 -2.31 -0.77 -1.92 -1.14 -1.92 -1.15 -2.29 -1.53 -1.92 -1.53 -1.92 -1.53 -1.53 -1.53 -1.54 -1.91 -1.53 -1.92 -1.14 -1.92 -0.77 -2.29 -1.14 -2.3 -0.76 -2.3 -0.38 -2.31 -0.39 -2.3 -0.38 -2.68 -0.39 -2.68 0 -2.68 0.39 -2.68 0.38 -3.07 0.77 -3.06z"/>
    <polygon class="fil3" points="1202.26,218 1185.02,210.72 1212.21,144.83 1228.31,151.34 1224.49,160.92 1227.55,158.62 1230.62,157.09 1231.76,156.32 1232.91,155.94 1234.44,155.55 1235.2,155.17 1236.36,155.17 1237.51,155.17 1238.65,155.17 1239.43,155.17 1241.34,155.55 1243.64,156.32 1245.17,157.09 1246.31,157.85 1247.85,158.62 1248.99,159.76 1250.15,160.92 1251.3,162.06 1252.45,163.22 1253.59,164.36 1241.72,177.39 1240.18,175.47 1238.65,173.56 1237.89,172.8 1236.73,172.41 1235.98,171.64 1235.2,171.27 1233.29,170.49 1231.38,170.11 1230.62,170.11 1229.84,170.11 1229.09,170.11 1228.31,170.49 1227.16,170.88 1226.39,171.27 1225.63,171.64 1224.86,172.41 1222.94,173.94 1221.04,176.24 1220.26,177.78 1219.12,179.31 1217.97,181.61 1216.81,183.9 1213.76,190.03 1210.69,197.7 "/>
    <polygon class="fil3" points="1295.74,185.82 1288.85,199.23 1277.74,192.72 1263.93,218 1262.03,221.84 1260.88,224.51 1260.11,226.05 1259.35,227.58 1259.35,228.35 1259.35,229.11 1259.72,229.5 1259.72,230.27 1260.11,231.03 1260.88,231.8 1261.25,232.18 1262.03,232.56 1263.56,233.33 1265.09,233.72 1267.01,234.47 1269.3,234.86 1263.93,248.65 1262.03,248.27 1260.49,247.89 1258.58,247.5 1257.04,247.12 1255.14,246.36 1253.22,245.59 1251.68,244.82 1249.76,243.67 1247.85,242.52 1245.93,240.99 1244.02,239.46 1242.49,237.54 1241.34,236.01 1240.57,234.47 1239.81,232.56 1239.81,231.03 1239.43,229.11 1239.81,227.2 1240.18,225.29 1240.96,222.98 1241.72,221.07 1242.88,218.38 1244.4,215.32 1246.7,211.11 1261.25,183.52 1253.98,179.31 1261.25,166.28 1268.54,170.11 1275.44,157.85 1296.89,157.47 1285.01,179.69 "/>
    <path class="fil3" d="M1321.03 264.75l11.48 11.11 -2.29 1.53 -2.31 1.53 -2.29 0.77 -2.31 1.14 -1.92 0.77 -0.37 0 0 -16.86zm0 -57.85l0 0 0 16.09 1.14 0 1.14 0 1.53 0.39 1.16 0.39 1.54 0.76 1.14 0.77 1.14 0.76 1.14 1.15 0.77 1.15 0.76 1.15 0.39 1.14 0.76 1.15 0.39 1.15 0 1.52 0.39 1.54 0 1.53 -0.39 1.54 -0.39 1.53 -0.38 1.53 -0.77 1.53 -0.76 1.92 -1.16 1.53 -9.57 -6.51 0 14.17 18.39 13.02 1.53 -2.3 1.15 -2.3 1.53 -1.92 1.14 -2.29 0.77 -1.92 1.14 -2.3 0.76 -1.92 0.77 -1.91 0.77 -1.91 0.38 -1.92 0.38 -1.92 0.39 -1.91 0.38 -1.91 0 -1.92 0 -1.92 0 -1.53 -0.38 -1.91 -0.39 -1.53 -0.38 -1.53 -0.38 -1.92 -0.77 -1.53 -0.77 -1.54 -0.76 -1.53 -0.77 -1.53 -0.76 -1.14 -1.14 -1.54 -1.15 -1.53 -1.16 -1.15 -1.53 -1.15 -1.15 -1.53 -1.53 -1.15 -1.53 -1.14 -1.53 -0.77 -1.53 -1.15 -1.54 -0.77 -1.14 -0.38 -1.53 -0.77 -1.53 -0.77 -1.53 -0.39 -1.54 -0.38 -1.53 0 -1.53 -0.39zm-1.92 55.56l0 0 1.92 2.3 0 16.86 -1.92 0.39 -2.31 0.38 -2.29 0 -2.69 0 -2.29 -0.38 -2.29 -0.77 -2.31 -0.77 -2.29 -0.77 -2.31 -1.15 -2.68 -1.54 -1.92 -1.53 -1.92 -1.53 -1.91 -1.14 -1.53 -1.53 -1.53 -1.54 -1.16 -1.54 -1.53 -1.52 -1.14 -1.53 -0.77 -1.53 -1.14 -1.54 -0.76 -1.91 -0.39 -1.54 -0.76 -1.91 -0.39 -1.54 -0.39 -1.91 0 -1.92 0 -1.91 0 -3.06 0 -2.68 0.77 -3.45 1.14 -2.68 0.76 -3.07 1.53 -3.06 1.53 -3.07 2.31 -3.06 1.14 -1.92 1.16 -1.92 1.52 -1.15 1.16 -1.53 1.53 -1.53 1.14 -1.53 1.53 -1.15 1.53 -1.14 1.14 -1.15 1.54 -0.77 1.53 -0.77 1.53 -1.15 1.53 -0.39 1.54 -0.77 1.92 -0.38 1.53 -0.39 1.53 -0.38 1.53 -0.39 1.53 0 1.92 -0.38 1.53 0.38 1.54 0 0 16.09 -0.39 0 -1.15 0 -1.53 0.39 -1.16 0 -1.53 0.77 -1.52 0.77 -1.16 0.77 -1.14 1.15 -1.15 1.53 -1.16 1.15 -1.14 1.53 13.03 9.58 0 14.17 -19.92 -14.56 -1.16 1.92 -0.76 1.53 -0.77 1.92 -0.38 1.53 -0.38 1.92 -0.39 1.53 0 1.53 0.39 1.92 0 1.14 0.38 1.54 0.77 1.53 0.76 1.14 0.77 1.15 0.77 1.53 1.15 0.77 1.53 1.15 0.76 0.77 0.77 0.39 1.14 0.38 0.77 0.39 0.76 0 1.14 0.38 0.77 0 1.14 0 0.76 -0.38 1.16 0 1.14 -0.39 0.77 -0.38 1.14 -0.39 0.76 -0.77 1.16 -0.77 1.15 -0.77z"/>
    <polygon class="fil3" points="1421.79,363.21 1427.92,382.75 1424.48,383.9 1420.64,385.05 1417.19,385.82 1413.37,385.82 1411.82,386.2 1410.3,386.2 1408.38,386.2 1406.85,385.82 1405.32,385.82 1403.79,385.43 1402.26,385.05 1400.34,384.67 1398.8,384.28 1397.66,383.52 1396.12,383.13 1394.59,382.36 1391.91,380.45 1389.22,378.54 1386.54,376.62 1383.86,373.94 1381.56,371.26 1379.27,368.19 1377.74,365.89 1376.59,363.98 1375.44,362.06 1374.28,359.76 1373.52,357.85 1372.75,355.55 1371.99,353.63 1371.6,351.71 1371.22,349.42 1370.83,347.12 1370.46,344.82 1370.46,342.9 1370.46,340.61 1370.46,338.3 1370.83,336.01 1371.22,333.71 1371.6,331.41 1372.36,329.5 1372.75,327.19 1373.9,324.9 1374.67,322.98 1375.82,320.68 1376.97,318.77 1378.12,316.47 1379.65,314.55 1381.19,312.64 1382.71,310.72 1384.62,309.19 1386.54,307.27 1388.46,305.36 1390.77,303.44 1392.67,301.91 1395.35,299.99 1397.66,298.46 1400.34,296.93 1402.64,295.78 1404.93,294.25 1407.24,293.09 1409.53,292.33 1412.22,291.56 1414.51,290.8 1416.81,290.03 1419.11,289.65 1421.42,289.26 1423.71,289.26 1426.01,289.26 1428.31,289.26 1430.6,289.65 1432.9,289.65 1435.2,290.42 1437.11,290.8 1439.42,291.56 1441.34,292.33 1443.24,293.09 1445.55,294.25 1447.08,295.4 1448.99,296.55 1450.91,298.08 1452.83,299.61 1454.36,301.14 1455.89,302.68 1457.42,304.59 1459.34,306.51 1460.88,308.42 1462.02,310.34 1463.17,312.25 1464.33,314.17 1465.08,316.08 1466.23,318 1467,319.92 1467.39,321.45 1468.15,323.37 1468.54,325.28 1468.91,327.19 1469.3,329.11 1469.3,331.03 1469.68,332.95 1469.68,334.86 1469.3,336.77 1469.3,338.69 1468.91,340.99 1468.54,343.67 1467.39,345.97 1466.62,348.27 1465.47,350.57 1463.94,352.86 1462.41,355.55 1460.88,357.85 1445.55,344.43 1446.7,342.9 1447.84,341.38 1448.61,339.84 1449.37,338.3 1450.15,336.77 1450.52,334.86 1450.91,333.33 1450.91,331.41 1450.91,329.5 1450.91,327.96 1450.52,326.05 1450.15,324.51 1449.37,322.6 1448.61,321.07 1447.84,319.53 1446.7,318 1445.16,315.7 1443.24,313.78 1441.34,312.25 1439.42,311.1 1437.11,309.96 1434.82,309.19 1432.52,308.42 1430.23,308.04 1428.68,308.04 1427.54,308.04 1426.01,308.04 1424.85,308.42 1423.32,308.42 1421.79,309.19 1420.64,309.57 1419.11,309.96 1416.04,311.49 1412.59,313.02 1409.53,315.32 1406.09,317.61 1402.26,320.3 1399.19,322.98 1396.5,325.66 1394.21,328.34 1393.06,329.88 1392.29,331.03 1391.53,332.56 1390.77,333.71 1389.99,334.86 1389.61,336.39 1389.22,337.54 1388.85,338.69 1388.07,341.38 1388.07,344.05 1388.07,346.35 1388.46,348.65 1389.22,350.95 1389.99,353.25 1391.14,355.55 1392.67,357.85 1393.82,359.38 1394.96,360.91 1396.5,362.06 1397.66,363.21 1399.19,363.98 1401.11,364.74 1402.64,365.51 1404.55,365.89 1406.46,366.27 1408.38,366.27 1410.3,366.27 1412.22,365.89 1414.51,365.51 1416.81,365.13 1419.11,364.36 "/>
    <polygon class="fil3" points="1409.14,417.61 1498.04,378.54 1505.32,396.16 1416.43,435.23 "/>
    <polygon class="fil3" points="1437.89,498.07 1448.23,495.01 1446.31,494.62 1444.79,493.85 1443.24,493.09 1442.1,492.32 1440.56,491.18 1439.42,490.41 1437.89,489.26 1436.74,487.73 1435.58,486.58 1434.44,485.05 1433.29,483.89 1432.52,482.36 1431.76,480.45 1430.98,478.92 1430.6,477.38 1429.84,475.85 1429.45,473.93 1429.08,472.4 1429.08,470.49 1428.68,468.96 1428.68,467.42 1429.08,465.5 1429.08,463.97 1429.45,462.44 1429.84,460.91 1430.23,459.37 1430.98,457.84 1431.76,456.7 1432.52,455.17 1433.29,454.01 1434.44,452.86 1435.58,452.09 1436.74,450.95 1438.27,449.8 1439.81,449.03 1441.34,447.88 1443.24,447.5 1445.16,446.35 1447.47,445.58 1449.76,444.82 1492.28,432.56 1497.27,450.57 1466.62,459.76 1460.11,461.68 1455.13,463.59 1453.21,464.36 1451.68,464.74 1450.15,465.5 1449.37,465.89 1448.23,467.04 1447.08,468.19 1445.92,469.73 1445.55,471.26 1444.79,472.79 1444.79,474.7 1444.79,476.62 1445.55,478.53 1445.92,479.69 1446.31,480.83 1446.7,481.6 1447.47,482.75 1447.84,483.89 1448.61,484.66 1449.37,485.43 1450.15,486.2 1451.29,486.96 1452.06,487.35 1452.83,488.11 1453.97,488.49 1454.74,488.88 1455.89,489.26 1457.03,489.26 1457.81,489.26 1458.96,489.26 1460.49,489.26 1462.41,488.88 1464.7,488.49 1469.68,487.35 1476.57,485.43 1504.93,477 1509.91,495.01 1442.86,515.32 "/>
    <path class="fil3" d="M1486.54 526.42l54.41 -9.96 3.44 18.77 -34.48 6.51 2.68 1.53 2.31 1.92 1.14 1.15 0.76 1.15 1.16 1.14 0.76 1.15 0.77 1.14 0.76 1.15 0.77 1.54 0.39 1.14 0.76 1.15 0.39 1.53 0.39 1.53 0 1.53 0.76 3.07 0 3.06 0 1.53 -0.39 1.53 -0.37 1.54 0 1.53 -0.39 1.14 -0.39 1.53 -0.76 1.15 -0.39 1.54 -0.77 1.14 -0.76 1.53 -0.77 1.15 -1.14 1.53 -0.77 1.14 -1.15 1.15 -1.14 1.15 -1.16 1.15 -1.52 0.77 -1.16 1.15 -1.52 0.76 -1.54 1.15 -1.52 0.77 -1.55 0.77 -1.91 0.77 -1.92 0.38 -3.45 1.15 -4.21 0.77 -4.6 0.77 -1.92 0.39 0 -19.54 1.92 -0.39 3.06 -0.77 2.68 -0.77 2.29 -0.77 2.31 -0.77 1.92 -1.14 1.54 -0.77 1.53 -1.53 1.14 -1.15 1.16 -1.54 0.76 -1.14 0.76 -1.53 0.38 -1.53 0.39 -1.53 0 -1.54 0 -1.54 0 -1.91 -0.39 -1.53 -0.38 -1.53 -0.76 -1.53 -0.76 -1.15 -1.16 -1.15 -1.14 -1.14 -1.15 -1.15 -1.53 -0.77 -1.54 -1.14 -1.52 -0.39 -1.92 -0.77 -1.92 0 -2.29 -0.38 -1.92 0.38 -2.68 0 -0.77 0.39 0 -19.55zm-40.99 7.66l0 0 40.99 -7.66 0 19.55 -1.53 0 -2.68 0.38 -2.31 0.77 -2.29 0.77 -1.92 0.77 -1.92 0.77 -1.54 1.15 -1.53 0.76 -1.14 1.15 -1.53 1.54 -1.15 1.53 -1.14 1.53 -0.77 1.92 -0.38 1.91 -0.38 1.92 0 1.91 0.38 1.92 0.38 1.53 0.39 1.53 0.76 1.15 0.77 1.15 0.76 1.53 1.14 0.77 1.55 1.14 1.14 0.77 1.53 0.77 1.92 0.77 1.92 0.39 1.91 0 2.29 0.38 2.3 -0.38 2.31 0 0.76 0 0 19.54 -1.92 0 -2.29 0 -1.92 0 -1.53 0 -1.91 -0.39 -1.92 -0.39 -1.53 0 -1.92 -0.77 -1.53 -0.38 -1.53 -0.39 -1.54 -0.77 -1.53 -0.77 -1.14 -0.77 -1.55 -0.77 -1.13 -1.14 -1.16 -0.77 -1.14 -1.15 -1.15 -1.14 -1.16 -1.15 -0.76 -0.77 -0.77 -1.53 -0.76 -1.14 -0.77 -1.15 -0.76 -1.53 -0.39 -1.14 -0.76 -1.53 -0.38 -1.54 -0.39 -1.15 -0.38 -1.53 0 -1.53 0 -1.53 0 -1.53 0 -1.54 0 -1.91 0.38 -1.15 0.39 -1.91 0.38 -1.54 0.38 -1.54 0.77 -1.52 0.39 -1.53 1.14 -1.53 0.76 -1.53 1.16 -1.16 0.76 -1.53 1.54 -1.53 -10.34 1.91 -3.06 -17.24z"/>
    <path class="fil3" d="M1506.46 616.85l1.15 0.38 1.92 0.77 1.53 0.38 1.53 0.77 1.53 1.15 1.53 0.77 1.15 1.15 1.53 1.14 1.16 1.15 1.14 1.14 1.14 1.15 0.77 1.15 1.14 1.53 0.76 1.15 0.77 1.53 0.77 1.53 0.76 1.53 0.39 1.53 0.38 1.15 0.38 1.92 0.39 1.53 0.39 1.52 0 1.92 0.37 1.54 0 1.92 -0.37 1.91 0 1.92 -0.39 1.91 0 1.53 -0.76 1.92 -0.38 1.91 -0.39 1.53 -0.76 1.54 -0.77 1.53 -0.77 1.53 -0.76 1.53 -0.76 1.53 -1.16 1.15 -1.14 1.15 -1.14 1.15 -1.16 1.15 -1.53 1.14 -1.54 1.14 -1.52 1.15 -1.53 0.77 -1.55 0.77 -1.91 0.77 -1.92 0.38 -0.39 0.39 0 -18.01 0.39 -0.38 1.14 -0.77 1.16 -0.77 1.15 -0.76 1.14 -1.15 0.77 -1.14 0.76 -1.15 0.37 -1.14 0.77 -1.15 0.39 -1.54 0 -1.14 0.39 -1.53 -0.39 -1.53 0 -1.15 -0.39 -1.54 -0.37 -1.53 -0.77 -1.14 -0.76 -1.15 -0.77 -1.14 -1.14 -1.15 -1.15 -0.77 -1.16 -1.15 -1.14 -0.76 -0.39 0 0 -19.15zm-27.2 44.82l0 0 -3.45 18.78 -2.29 -1.15 -2.31 -0.77 -2.31 -1.54 -1.91 -1.14 -1.92 -1.92 -1.53 -1.53 -1.53 -1.91 -1.53 -1.92 -1.14 -1.91 -1.15 -2.3 -0.77 -2.3 -0.76 -2.31 -0.39 -2.68 -0.39 -2.68 -0.39 -2.69 0 -2.68 0 -2.3 0.39 -2.3 0.39 -2.29 0.39 -1.92 0.37 -2.3 0.39 -1.91 0.77 -1.54 0.76 -1.91 0.76 -1.53 0.77 -1.53 1.16 -1.53 1.13 -1.54 1.16 -1.53 1.14 -1.14 1.54 -1.15 1.53 -1.53 2.31 -1.15 2.68 -1.54 2.68 -1.14 3.06 -1.14 3.06 -0.77 3.07 -0.39 3.45 -0.38 3.83 0 2.31 0 1.9 0.38 1.92 0 1.92 0.39 1.92 0.38 1.92 0.39 1.92 0.38 0.37 0.39 0 19.15 -1.14 -0.39 -1.53 -0.38 -1.92 -0.38 -1.53 0 -1.92 -0.39 -0.38 28.74 1.91 -0.38 1.92 0 1.53 -0.38 1.92 -0.38 1.14 -0.39 0 18.01 -1.53 0.38 -1.92 0.39 -2.29 0.39 -1.92 0.38 -2.31 0.38 -2.68 0 -2.29 0 -2.31 0.39 -2.68 -0.39 0.77 -47.51 -2.31 0 -1.92 0.38 -1.54 0.39 -1.9 0.38 -1.53 0.38 -1.15 0.77 -1.53 1.15 -1.16 0.77 -1.14 1.14 -0.77 1.15 -1.14 1.53 -0.39 1.14 -0.76 1.53 -0.39 1.54 0 1.15 0 1.91 0 0.77 0 1.53 0 0.77 0.39 1.15 0.39 0.77 0.37 0.77 0.39 1.14 0.39 0.77 0.76 0.77 0.77 0.39 0.76 0.77 0.77 0.76 1.15 0.39 1.16 0.38 1.15 0.77 1.14 0.38z"/>
    <polygon class="fil0" points="541.75,832.93 544.43,832.54 547.11,832.17 549.41,831.4 552.1,830.63 554.39,829.48 556.69,828.33 558.61,826.8 560.52,824.88 562.06,822.97 563.97,820.67 565.12,818.75 566.26,816.45 567.03,813.77 567.8,811.48 568.19,808.79 568.19,806.11 568.19,803.43 567.8,800.36 567.03,798.06 566.26,795.38 565.12,793.08 563.97,790.78 562.06,788.87 560.52,786.96 558.61,785.04 556.69,783.88 554.39,782.35 552.1,781.21 549.41,780.44 547.11,779.68 544.43,779.29 541.75,778.91 538.68,779.29 536,779.68 533.7,780.44 531.02,781.21 528.72,782.35 526.42,783.88 524.5,785.04 522.59,786.96 521.06,788.87 519.14,790.78 517.99,793.08 516.84,795.38 516.08,798.06 515.31,800.36 514.93,803.43 514.93,806.11 514.93,808.79 515.31,811.48 516.08,813.77 516.84,816.45 517.99,818.75 519.14,820.67 521.06,822.97 522.59,824.88 524.5,826.8 526.42,828.33 528.72,829.48 531.02,830.63 533.7,831.4 536,832.17 538.68,832.54 "/>
    <g>
     <polygon class="fil4" points="541.75,832.93 544.43,832.54 547.11,832.17 549.41,831.4 552.1,830.63 554.39,829.48 556.69,828.33 558.61,826.8 560.52,824.88 562.06,822.97 563.97,820.67 565.12,818.75 566.26,816.45 567.03,813.77 567.8,811.48 568.19,808.79 568.19,806.11 568.19,803.43 567.8,800.36 567.03,798.06 566.26,795.38 565.12,793.08 563.97,790.78 562.06,788.87 560.52,786.96 558.61,785.04 556.69,783.88 554.39,782.35 552.1,781.21 549.41,780.44 547.11,779.68 544.43,779.29 541.75,778.91 538.68,779.29 536,779.68 533.7,780.44 531.02,781.21 528.72,782.35 526.42,783.88 524.5,785.04 522.59,786.96 521.06,788.87 519.14,790.78 517.99,793.08 516.84,795.38 516.08,798.06 515.31,800.36 514.93,803.43 514.93,806.11 514.93,808.79 515.31,811.48 516.08,813.77 516.84,816.45 517.99,818.75 519.14,820.67 521.06,822.97 522.59,824.88 524.5,826.8 526.42,828.33 528.72,829.48 531.02,830.63 533.7,831.4 536,832.17 538.68,832.54 "/>
    </g>
    <polygon class="fil0" points="1466.23,832.93 1468.91,832.54 1471.6,832.17 1474.28,831.4 1476.97,830.63 1479.26,829.48 1481.55,828.33 1483.47,826.8 1485.4,824.88 1487.31,822.97 1488.46,820.67 1489.99,818.75 1491.14,816.45 1491.91,813.77 1492.67,811.48 1493.06,808.79 1493.44,806.11 1493.06,803.43 1492.67,800.36 1491.91,798.06 1491.14,795.38 1489.99,793.08 1488.46,790.78 1487.31,788.87 1485.4,786.96 1483.47,785.04 1481.55,783.88 1479.26,782.35 1476.97,781.21 1474.28,780.44 1471.6,779.68 1468.91,779.29 1466.23,778.91 1463.55,779.29 1460.88,779.68 1458.57,780.44 1455.89,781.21 1453.6,782.35 1451.68,783.88 1449.37,785.04 1447.47,786.96 1445.55,788.87 1444.01,790.78 1442.86,793.08 1441.71,795.38 1440.56,798.06 1440.18,800.36 1439.81,803.43 1439.42,806.11 1439.81,808.79 1440.18,811.48 1440.56,813.77 1441.71,816.45 1442.86,818.75 1444.01,820.67 1445.55,822.97 1447.47,824.88 1449.37,826.8 1451.68,828.33 1453.6,829.48 1455.89,830.63 1458.57,831.4 1460.88,832.17 1463.55,832.54 "/>
    <g>
     <polygon class="fil4" points="1466.23,832.93 1468.91,832.54 1471.6,832.17 1474.28,831.4 1476.97,830.63 1479.26,829.48 1481.55,828.33 1483.47,826.8 1485.4,824.88 1487.31,822.97 1488.46,820.67 1489.99,818.75 1491.14,816.45 1491.91,813.77 1492.67,811.48 1493.06,808.79 1493.44,806.11 1493.06,803.43 1492.67,800.36 1491.91,798.06 1491.14,795.38 1489.99,793.08 1488.46,790.78 1487.31,788.87 1485.4,786.96 1483.47,785.04 1481.55,783.88 1479.26,782.35 1476.97,781.21 1474.28,780.44 1471.6,779.68 1468.91,779.29 1466.23,778.91 1463.55,779.29 1460.88,779.68 1458.57,780.44 1455.89,781.21 1453.6,782.35 1451.68,783.88 1449.37,785.04 1447.47,786.96 1445.55,788.87 1444.01,790.78 1442.86,793.08 1441.71,795.38 1440.56,798.06 1440.18,800.36 1439.81,803.43 1439.42,806.11 1439.81,808.79 1440.18,811.48 1440.56,813.77 1441.71,816.45 1442.86,818.75 1444.01,820.67 1445.55,822.97 1447.47,824.88 1449.37,826.8 1451.68,828.33 1453.6,829.48 1455.89,830.63 1458.57,831.4 1460.88,832.17 1463.55,832.54 "/>
    </g>
    <path class="fil5" d="M1375.44 1031l0 -16.47c1.91,0 3.83,-1.15 5.36,-2.68 2.29,-1.91 3.83,-4.98 4.6,-8.43 0.39,-2.68 0,-4.98 -1.16,-7.28 -0.76,-1.54 -2.29,-3.45 -5.36,-6.9l-2.29 -2.3c-0.39,0.38 -0.77,1.14 -1.14,1.91l0 -27.97c1.91,1.54 4.21,3.84 6.5,6.13l14.18 15.33c3.82,4.61 7.28,7.28 9.58,9.19 2.29,1.54 4.99,3.07 8.42,4.22l-13.02 12.26c-1.16,-0.77 -2.69,-1.53 -4.61,-2.68 -1.14,-0.77 -1.53,-1.15 -1.9,-1.15 -0.39,4.22 -1.14,8.05 -2.68,11.49 -1.53,3.45 -3.84,6.52 -6.52,9.19 -3.45,3.07 -6.51,4.99 -9.95,6.13zm0 -70.11l0 0 0 27.97c-1.16,1.92 -2.69,4.22 -4.98,7.28 -2.69,4.21 -4.6,7.28 -4.99,8.81 -0.39,3.06 0,5.36 1.91,6.9 1.53,1.92 3.84,3.06 6.14,3.06 0.76,0 1.14,0 1.92,-0.38l0 16.47c-1.92,0.39 -3.84,0.77 -5.76,0.77 -5.74,0 -10.34,-2.3 -14.18,-6.13 -2.68,-3.06 -4.21,-6.13 -4.98,-9.57 -0.76,-3.45 -0.38,-6.51 0.77,-9.96 1.53,-3.45 3.84,-7.66 7.66,-12.65 4.99,-6.9 8.42,-11.87 9.59,-14.94l-1.16 -1.54c-2.29,-2.3 -4.58,-3.44 -6.89,-3.44 -2.29,0 -4.99,1.53 -8.44,4.98 -2.29,1.92 -3.44,4.22 -4.21,6.13 -0.38,2.31 0,4.99 1.54,7.66l-4.99 3.45 0 -28.74c5.37,-4.97 10.35,-8.43 14.18,-9.57 4.22,-1.14 7.66,-1.14 11.11,-0.39 1.53,0.77 3.45,1.92 5.76,3.83zm-31.05 93.87l0 0 12.27 -8.82 -12.27 -16.86 0 25.68zm0 -87.74l0 0 0 28.74 -8.81 5.74c-3.07,-6.13 -4.21,-11.87 -3.07,-17.24 1.15,-4.98 4.99,-10.73 11.12,-16.86 0.39,0 0.39,-0.39 0.76,-0.39zm0 62.07l0 0 -12.26 -16.85c-3.05,-4.22 -5.74,-7.28 -7.66,-9.19 -2.29,-1.92 -4.6,-3.06 -7.28,-3.83 -2.68,-0.77 -5.74,-0.77 -9.19,0 -3.45,0.77 -6.89,2.29 -9.97,4.6 -7.26,4.98 -10.71,12.64 -11.1,22.22l-5.74 -8.05 -1.53 1.15 0 24.9 27.58 37.93 14.16 -10.34 -17.62 -24.52c-4.6,-6.14 -7.29,-10.74 -8.05,-13.41 -0.76,-2.68 -0.76,-5.75 0,-8.43 1.14,-2.68 2.68,-4.99 5.37,-6.9 1.91,-1.53 3.83,-2.3 6.13,-2.3 1.91,0 3.83,0.77 5.74,1.91 1.92,1.15 4.98,4.99 9.19,10.73l20.31 27.59 1.91 -1.53 0 -25.68zm-64.74 67.43l0 0 0 -28.74 11.87 22.23 -11.87 6.51zm0 -77.39l0 0 0 24.9 -11.89 -16.47 11.89 -8.43zm0 48.65l0 0 -19.55 -36.78 -14.55 7.66 0 2.68 30.26 57.09 3.84 -1.92 0 -28.74zm-34.1 46.75l0 0 0 -2.68 0.76 2.3 -0.76 0.39zm0 -86.21l0 0 0 -18.77 2.68 -1.14 7.66 14.56 -10.34 5.36zm0 -18.77l0 0 0 18.77 -5.37 2.68 -7.66 -14.17 13.04 -7.28zm0 29.11l0 0 0 2.68 -1.16 -2.3 1.16 -0.39zm0 73.18l0 0 0 2.68 -15.33 6.89 -19.16 -43.3 0 -21.45 6.9 -3.45 3.83 8.81c0.77,-5.36 1.92,-8.81 3.45,-11.12 1.54,-2.3 3.44,-3.82 6.13,-5.36 3.83,-1.54 7.66,-1.92 11.87,-1.54l1.54 16.47c-3.45,-0.77 -6.53,-0.38 -8.82,0.77 -2.31,0.77 -3.84,2.3 -4.99,4.21 -1.14,1.92 -1.14,4.99 -0.76,8.43 0.76,3.84 3.06,10.73 7.66,21.46l7.66 16.47zm-34.49 19.15l0 0 8.05 -2.68c-2.68,-2.68 -4.6,-4.98 -5.76,-7.66 -0.76,-1.15 -1.53,-3.06 -2.29,-5.36l0 15.7zm0 -74.32l0 0 0 21.45 -8.05 -18.01 8.05 -3.45zm0 58.62l0 0c-0.76,-1.92 -1.53,-4.22 -2.29,-6.9l-6.14 -19.92c-1.91,-7.28 -4.21,-11.88 -6.89,-14.18 -2.29,-2.68 -5.36,-3.83 -9.58,-4.6 -1.53,-0.38 -3.44,-0.38 -5.36,0l0 15.33c1.92,0.77 3.44,2.68 4.6,6.13l0.38 1.53c-1.16,1.15 -2.69,2.3 -4.98,3.45l0 12.64c3.83,-1.91 6.5,-3.83 8.42,-4.98l1.16 3.45c1.14,4.22 1.91,6.9 1.53,8.43 0.38,2.3 -0.39,4.6 -2.31,6.9 -1.92,2.68 -4.6,4.6 -7.66,5.75 -0.39,0 -0.76,0 -1.14,0.39l0 13.02c3.44,-1.14 6.89,-3.06 9.58,-5.36 3.06,-2.3 5.36,-5.36 7.28,-9.2 0.38,0.39 0.76,0.77 1.53,1.92 1.15,1.91 2.29,3.44 3.07,4.6l8.81 -2.68 0 -15.7zm-30.26 -45.6l0 0 0 15.33c0,-0.39 0,-0.39 0,-0.39 -1.92,-0.76 -5.37,-0.38 -9.97,0.77 -3.06,1.15 -4.97,2.3 -6.51,4.21 -1.15,1.53 -1.91,4.22 -1.91,7.28l-13.81 1.53 0 -13.03c0.77,-1.15 1.16,-1.92 1.92,-3.07 3.45,-4.21 9.19,-7.66 17.63,-10.34 4.98,-1.53 9.19,-2.3 12.64,-2.3zm0 26.44l0 0c-2.69,1.91 -6.13,3.83 -10.34,5.74 -5.37,3.07 -9.58,5.75 -12.26,8.05 -2.69,2.68 -4.22,5.36 -5.37,8.81 -0.77,3.45 -0.39,6.9 0.39,10.73 1.92,5.36 4.98,9.2 9.95,11.88 4.99,2.3 10.73,2.3 17.24,0.38 0.39,0 0.39,0 0.39,0l0 -13.02c-2.29,0.38 -4.6,0 -6.52,-1.15 -2.29,-1.15 -3.82,-2.68 -4.6,-5.36 -0.77,-2.3 0,-4.6 1.53,-6.9 1.14,-1.15 4.21,-3.07 8.44,-5.75 0.37,0 0.76,-0.38 1.14,-0.77l0 -12.64zm-32.19 52.49l0 0 0 -9.57 2.69 7.66c-0.77,0.77 -1.53,1.15 -2.69,1.91zm0 -63.21l0 0 0 13.03 -2.68 0.38c0,-4.98 0.77,-9.58 2.68,-13.41zm0 53.64l0 0 -1.91 -5.36c-2.68,1.91 -4.98,3.06 -6.52,3.45 -1.14,0 -2.29,0 -3.06,-0.38 -0.76,-0.38 -1.53,-0.77 -1.92,-1.92 -0.38,-0.77 -1.53,-3.83 -2.68,-9.19l-6.13 -26.43 11.87 -2.68 -3.06 -13.79 -11.87 2.68 -5.36 -22.99 -14.95 14.17 3.06 13.03 -3.06 0.77 0 14.56 6.13 -1.54 6.51 28.35c1.53,6.14 2.68,10.35 3.45,12.26 1.14,2.69 2.29,4.6 3.82,6.13 1.53,1.53 3.84,2.3 6.52,2.68 2.68,0.39 5.74,0.39 8.81,-0.38 3.84,-0.77 7.29,-2.3 10.34,-3.83l0 -9.57zm-45.59 20.69l0 0 0 -11.87c0,1.15 0.39,1.91 0.77,2.68 0.76,2.68 1.92,5.75 3.83,8.81l-4.6 0.39zm0 -69.35l0 0 0 14.56 -1.91 0.38 -3.08 -13.79 4.99 -1.15zm0 57.47l0 0c-0.76,-2.68 -1.14,-6.13 -1.53,-9.96l-1.92 -20.7c-0.76,-7.66 -2.29,-13.02 -4.21,-15.7 -1.92,-2.68 -4.97,-4.6 -8.81,-6.13 -3.45,-1.16 -8.03,-1.92 -14.18,-1.54l0 13.79c2.69,0 4.99,0.77 6.15,1.53 1.9,1.14 3.05,3.45 3.43,6.9l0 1.91c-1.92,1.15 -5.37,2.3 -9.58,3.83l0 11.49c0,0 0,0 0.39,0 4.6,-1.53 8.44,-3.06 10.34,-3.83l0.38 3.45c0.39,4.21 0.76,7.28 0.39,8.81 -0.39,2.3 -1.54,4.22 -3.84,6.13 -2.29,2.29 -4.97,3.45 -7.66,4.21l0 11.88c1.92,-0.38 3.84,-1.15 5.76,-2.3 3.43,-1.92 6.5,-4.22 9.18,-7.66 0,0.38 0.39,1.14 0.77,1.91 0.77,2.3 1.53,4.21 2.31,5.36l12.63 -1.54 0 -11.87zm-30.65 -54.02l0 0 0 13.79c-1.14,0 -2.29,0.38 -3.45,0.38 -3.44,0.39 -5.74,1.15 -7.28,2.68 -1.53,1.15 -2.68,3.83 -3.44,6.9l-16.48 -1.15c1.16,-6.9 3.82,-11.87 7.66,-15.33 4.21,-3.44 10.73,-5.74 19.17,-6.9 1.14,0 2.68,0 3.82,-0.38zm0 27.97l0 0 0 11.49c-4.6,1.53 -7.66,3.07 -8.81,4.22 -2.31,1.54 -3.06,3.83 -3.06,6.51 0.39,2.31 1.53,4.6 3.43,6.13 2.31,1.53 4.61,2.3 7.29,1.92 0.39,0 0.76,0 1.14,0l0 11.88c-1.53,0.77 -3.45,0.77 -4.98,1.15 -6.89,0.77 -12.63,-0.77 -16.86,-3.83 -4.21,-3.45 -6.89,-8.05 -7.28,-13.79 -0.38,-3.45 0,-6.9 1.53,-10.35 1.53,-3.07 3.84,-5.74 6.9,-7.66 3.06,-1.53 7.66,-3.45 13.4,-5.36 2.68,-0.77 4.99,-1.53 7.28,-2.3zm-191.17 28.74l0 0 0 -10.73c1.53,-0.38 2.68,-0.77 4.22,-1.15 2.68,-1.15 4.21,-2.68 5.36,-4.98 0.76,-1.15 1.92,-4.22 2.68,-8.05l0.77 -3.44c-2.3,0 -6.13,0 -11.11,0 -0.77,0 -1.15,0 -1.91,0l0 -11.12c7.28,0.39 12.64,0.39 15.7,-0.38l0.39 -1.53c0.77,-3.45 0.38,-6.13 -0.77,-7.66 -1.14,-1.92 -4.22,-3.45 -8.81,-4.6 -2.68,-0.39 -4.6,-0.39 -6.52,0l0 -14.18c3.06,0 6.9,0.38 10.73,1.53 7.66,1.53 13.41,3.83 16.86,6.52 3.06,2.68 5.36,5.74 6.13,8.81 0.77,3.07 0.38,8.43 -1.14,16.09l-4.98 20.31c-1.16,5.74 -1.92,9.96 -1.92,12.64 -0.38,3.06 0,6.13 1.15,9.58l-17.24 -3.83c-0.38,-1.15 -0.38,-3.07 -0.38,-5.75 -0.39,-0.76 -0.39,-1.52 -0.39,-1.91 -3.06,1.53 -5.74,3.06 -8.81,3.83zm135.24 -17.24l0 0 18.01 6.14c-3.07,10.34 -8.05,17.62 -14.57,22.22 -6.51,4.98 -14.55,7.28 -24.13,7.28 -12.26,-0.38 -22.6,-4.6 -30.26,-13.4 -7.66,-8.43 -11.5,-19.93 -11.11,-34.48 0,-15.71 4.21,-27.59 12.64,-36.02 8.05,-8.05 18.39,-12.26 31.41,-12.26 11.12,0.39 20.31,3.83 27.21,10.73 4.21,3.83 7.28,9.58 9.19,17.24l-18.78 4.21c-0.77,-4.98 -3.06,-8.81 -6.51,-11.5 -3.45,-3.06 -7.28,-4.6 -12.26,-4.6 -6.9,0 -12.64,2.3 -16.85,7.28 -4.21,4.6 -6.51,12.64 -6.9,23.75 0,11.87 1.91,19.92 5.75,25.29 4.21,4.97 9.57,7.66 16.47,7.66 4.99,0 8.81,-1.53 12.64,-4.6 3.44,-3.06 6.13,-8.05 8.05,-14.95zm-135.24 -50.57l0 0 0 14.18c-0.39,0 -0.77,0 -1.15,0.38 -1.91,0.77 -3.83,2.68 -5.74,5.36l-14.95 -6.51c3.07,-5.75 7.28,-9.96 12.26,-11.88 2.69,-1.15 5.75,-1.53 9.58,-1.53zm0 28.35l0 0 0 11.12c-3.83,0 -6.51,0.38 -8.05,0.77 -2.68,1.14 -4.21,3.06 -4.97,5.36 -0.39,2.68 0,4.98 1.53,6.9 1.15,2.3 3.44,3.83 6.13,4.22 1.92,0.38 3.45,0.76 5.36,0.38l0 10.73c-0.77,0 -1.53,0.38 -1.91,0.38 -3.84,0.77 -7.67,0.39 -11.5,-0.38 -5.36,-1.15 -9.57,-3.44 -12.64,-6.52l0 -26.82c0,0 0.38,0 0.38,-0.38 2.3,-2.3 5.36,-4.22 8.82,-4.98 3.45,-0.77 8.43,-0.77 14.95,-0.77 0.38,0 1.14,0 1.91,0zm-26.05 -20.69l0 0 0.77 0.39 4.21 -13.41 -4.98 -1.53 0 14.56zm0 -36.4l0 0 0 -2.68 0.77 -0.39 -0.77 3.07zm0 -2.68l0 0 0 2.68 -6.52 19.54 6.52 2.3 0 14.56 -10.73 -3.45 -8.43 25.67c-1.54,5.36 -2.68,8.43 -2.68,9.19 0,1.15 0.39,1.92 0.77,2.68 0.77,0.77 1.53,1.53 2.68,1.91 1.53,0.39 3.83,0.77 7.28,0.39l-2.68 13.79c-4.59,0.38 -9.19,-0.39 -14.17,-1.91 -3.07,-0.76 -5.74,-2.3 -7.66,-4.22 -1.91,-1.53 -3.07,-3.06 -3.83,-4.6l0 -11.12c0.38,-2.3 1.53,-5.36 2.68,-9.57l9.2 -27.58 -8.05 -2.69 4.6 -13.41 7.67 2.68 4.22 -12.64 19.15 -4.22zm0 65.9l0 0c-2.3,2.68 -3.83,5.36 -4.6,8.82 -1.15,5.74 -0.38,10.73 2.68,15.33 0.39,0.77 1.15,1.91 1.92,2.68l0 -26.82zm-39.46 -40.99l0 0c0,-0.77 0,-1.15 0.38,-1.54 0.38,-2.68 0.38,-5.36 0,-8.04 0,-0.77 -0.38,-1.53 -0.38,-1.91l0 11.49zm0 -11.49l0 0 0 11.49c-0.77,2.3 -2.3,5.74 -4.21,9.57l-18.01 37.55 -16.09 -7.66 14.94 -31.04c3.07,-6.51 4.98,-10.73 5.36,-13.02 0,-2.3 -0.38,-4.22 -1.14,-6.13 -1.14,-1.91 -2.68,-3.06 -4.98,-4.21 -2.68,-1.53 -5.74,-1.92 -8.43,-1.53 -3.06,0.77 -5.36,1.91 -7.66,3.83 -1.91,2.3 -4.6,6.51 -8.04,13.4l-13.03 27.21 -7.66 -3.45 0 -21.45 21.07 -42.92 14.94 6.9 -4.6 9.19c8.82,-4.59 16.86,-4.59 24.91,-0.77 3.44,1.92 6.51,3.84 8.81,6.52 1.92,2.3 3.06,4.22 3.83,6.52zm0 54.01l0 0c-0.39,1.15 -0.77,1.92 -0.77,2.68 -0.38,3.07 -0.38,5.36 0.38,7.28 0,0.38 0,0.76 0.39,1.15l0 -11.12zm-68.96 -64.75l0 0 1.14 -1.54c4.22,-6.13 6.9,-11.11 7.28,-14.17 0,-3.45 -0.77,-6.9 -2.68,-10.73 -1.14,-1.92 -3.07,-4.22 -5.74,-6.51l0 32.95zm-33.33 -84.67l0 0c1.15,2.68 1.91,5.36 2.3,8.05 0.38,4.6 -0.39,9.19 -2.3,13.41l0 -21.46zm33.33 51.72l0 0 0 32.95 -11.11 15.33c-3.45,4.98 -5.36,8.81 -6.51,11.5 -1.15,2.29 -2.3,5.74 -2.68,9.19l-13.03 -9.19 0 -5.37c0,-0.38 0,-0.77 0.39,-0.77 0.38,-1.14 0.38,-1.91 0.38,-2.29 0,0 -0.38,0 -0.77,0.38l0 -9.57c2.68,0 4.6,-0.77 6.52,-2.3 1.14,-1.15 3.06,-3.45 5.36,-6.9l2.31 -2.68c-2.31,-0.77 -5.75,-1.92 -10.73,-4.21 -1.15,-0.39 -2.3,-0.77 -3.45,-1.15l0 -12.26c1.15,0.38 2.68,1.14 4.22,1.91 7.65,3.45 13.02,5.36 16.47,6.13l1.15 -1.53c1.91,-2.68 2.68,-4.98 1.91,-7.28 -0.38,-2.3 -2.68,-4.6 -6.51,-7.28 -2.68,-1.91 -4.98,-2.68 -7.28,-2.68 -1.91,0 -4.6,0.77 -7.28,2.68l-2.68 -2.68 0 -13.8c2.3,-1.14 4.6,-1.52 7.28,-1.52 5.36,0 11.49,2.68 18.77,7.66 2.68,1.91 5.36,3.83 7.28,5.74zm0 58.24l0 0 -8.43 17.24 8.43 4.22 0 -21.45zm-48.28 -127.97l0 0c1.15,0.77 2.3,1.53 3.06,2.3 5.75,5.36 9.58,10.35 11.88,15.71l0 21.46c-1.14,2.68 -3.06,5.36 -4.98,7.66l-9.96 -8.43 0 -38.7zm14.94 57.85l0 0 0 13.8 -8.81 -8.82c3.06,-2.29 5.74,-3.83 8.81,-4.98zm0 24.52l0 0 0 12.26c-2.68,-1.16 -4.6,-1.54 -6.13,-1.54 -2.68,0 -4.98,0.77 -6.52,3.07 -1.15,1.91 -1.91,4.21 -1.15,6.9 0.38,2.3 1.91,4.6 4.22,6.13 2.68,1.92 5.74,2.69 9.19,2.69l0.38 0 0 9.57c-3.83,0.39 -7.66,0.39 -10.73,-0.38 -1.53,-0.39 -2.68,-0.77 -4.22,-1.15l0 -40.61c1.92,-0.39 3.45,0 4.98,0 2.68,0.38 6.13,1.53 9.96,3.06zm0 41.76l0 0 0 5.37 -1.53 -1.15c0.39,-0.77 0.77,-2.3 1.53,-4.22zm-82.75 -100.37l0 0 14.56 11.11c-3.45,5.36 -4.99,10.35 -4.22,14.57 0.38,4.21 2.69,8.42 6.9,12.26 4.22,4.21 8.43,6.51 12.65,6.51 3.83,0.39 6.89,-0.77 9.19,-3.44 1.53,-1.53 2.3,-3.06 2.68,-5.36 0,-1.92 -0.77,-4.22 -2.3,-7.28 -1.14,-2.3 -3.83,-6.51 -8.04,-13.41 -5.75,-8.43 -8.82,-15.71 -9.19,-21.08 -0.77,-7.66 1.14,-14.17 6.13,-19.54 3.44,-3.44 7.28,-5.74 12.26,-6.9 4.6,-1.14 9.57,-0.77 14.56,1.15 4.21,1.53 8.43,3.83 12.64,7.66l0 38.7 -4.21 -3.84c2.68,-3.83 3.44,-7.66 3.06,-10.73 -0.39,-3.44 -2.68,-6.9 -6.52,-10.72 -3.82,-3.45 -7.66,-5.75 -11.48,-6.14 -2.68,-0.38 -4.61,0.39 -6.14,2.3 -1.53,1.54 -2.3,3.45 -1.91,6.13 0.38,2.68 3.06,8.43 8.43,16.09 4.98,7.67 8.43,14.18 10.34,18.78 1.53,4.6 1.92,9.19 0.76,13.79 -0.76,4.6 -3.06,8.82 -7.28,13.41 -3.45,3.83 -8.05,6.51 -13.41,7.67 -5.36,1.53 -10.73,1.15 -16.09,-0.77 -5.36,-2.3 -11.11,-5.75 -17.24,-11.49 -8.43,-8.05 -13.03,-16.09 -14.18,-24.14 -0.77,-8.43 1.91,-16.86 8.05,-25.29zm67.81 55.55l0 0c-1.54,0 -3.45,0.77 -4.98,1.14 -3.45,1.53 -6.13,3.83 -8.05,6.9 -3.45,4.6 -4.6,9.96 -3.45,14.94 1.15,5.36 4.6,10.35 10.34,14.17 1.92,1.54 4.22,2.69 6.13,3.45l0 -40.61z"/>
   </g>
  </g>
 </g>
</svg>
