<?xml version="1.0" encoding="UTF-8"?>
<!DOCTYPE svg PUBLIC "-//W3C//DTD SVG 1.1//EN" "http://www.w3.org/Graphics/SVG/1.1/DTD/svg11.dtd">
<!-- Creator: CorelDRAW 2020 (64 Bit) -->
<svg xmlns="http://www.w3.org/2000/svg" xml:space="preserve" width="162.673mm" height="162.673mm" version="1.1" style="shape-rendering:geometricPrecision; text-rendering:geometricPrecision; image-rendering:optimizeQuality; fill-rule:evenodd; clip-rule:evenodd"
viewBox="0 0 5182.1 5182.11"
 xmlns:xlink="http://www.w3.org/1999/xlink"
 xmlns:xodm="http://www.corel.com/coreldraw/odm/2003">
 <defs>
  <style type="text/css">
   <![CDATA[
    .fil1 {fill:#833630;fill-rule:nonzero}
    .fil0 {fill:#201E1E;fill-rule:nonzero}
    .fil2 {fill:white;fill-rule:nonzero}
   ]]>
  </style>
 </defs>
 <g id="Camada_x0020_1">
  <metadata id="CorelCorpID_0Corel-Layer"/>
  <g id="_2237389242192">
   <path class="fil0" d="M2591.07 0c-1427.11,0 -2591.07,1163.94 -2591.07,2591.05 0,1427.1 1163.96,2591.06 2591.07,2591.06 1427.12,0 2591.03,-1163.95 2591.03,-2591.06 0,-1427.11 -1163.92,-2591.05 -2591.03,-2591.05z"/>
   <path class="fil1" d="M2591.06 73.33c-1386.71,0 -2517.72,1131.01 -2517.72,2517.72 0,1386.71 1131.02,2517.71 2517.72,2517.71 1386.71,0 2517.72,-1131 2517.72,-2517.71 0,-1386.71 -1131,-2517.72 -2517.72,-2517.72z"/>
   <path class="fil2" d="M2591.07 850.3c-958.78,0 -1740.76,781.97 -1740.76,1740.73 0,958.79 781.98,1740.76 1740.76,1740.76 958.78,0 1740.73,-781.97 1740.73,-1740.76 0,-958.75 -781.95,-1740.73 -1740.73,-1740.73z"/>
   <path class="fil0" d="M2591.07 949.09c-904.37,0 -1641.95,737.59 -1641.97,1641.97 0.02,904.35 737.61,1641.95 1641.97,1641.95 904.35,0 1641.94,-737.6 1641.94,-1641.95 0,-904.38 -737.59,-1641.97 -1641.94,-1641.97z"/>
   <path class="fil2" d="M3500.35 1700l2.07 -0.14 -0.97 -1.84c-40.84,-76.31 -87.59,-117.5 -188.33,-147.41 -17.63,-4.91 -47.11,-9.02 -80.26,-9.02 -58.96,0.05 -129.55,12.99 -164.08,58.81 -24.46,-99.87 -59.88,-210.13 -138.35,-277.79 -98.22,-79.12 -231.69,-106.31 -356.88,-106.31 -100.63,-0.03 -182.46,10.9 -304.89,62.6l-3.85 1.63 4.08 0.92c133.15,29.91 195.27,51.52 273.92,116.58 78.66,65.11 135.39,140.92 135.37,227.26 0,0.26 0,105.67 0,264.5 0,476.45 0,1431.08 0,1444.86 0.19,74.99 -105.46,189.2 -235.46,226.97 -51.31,15.47 -98.37,23.12 -142.57,23.12 -56.33,0 -108.04,-12.33 -158.12,-36.63 -116.27,-59.5 -191.63,-107.92 -224.37,-214.99 68.22,-6.21 154.23,-57.53 200.33,-108.98 48.62,-51.22 87.77,-117.02 87.8,-195.11 0,-5 -0.17,-10.05 -0.5,-15.15 -5.4,-106.04 -21.84,-177.27 -95.51,-250.89 -73.7,-73.72 -166.54,-92.78 -250.96,-92.78 -125.4,0 -231.74,54.52 -305.31,128.12 -73.6,79.02 -114.55,169.07 -114.55,275.42 -0.07,3.82 -0.12,7.74 -0.12,11.68 0,156.32 53.76,357.45 236.98,527.41 203.1,184.81 513.21,327.3 816.21,327.32 13.64,0 27.24,-0.26 40.83,-0.84 304.63,-10.88 574.21,-122.48 742.96,-378.35l0.83 -1.3 -1.35 -0.66c-59.09,-29.49 -69.94,-91.39 -83.55,-151.31l0.04 -1564.63c51.35,-78.02 189.51,-135.01 308.55,-143.07z"/>
   <path class="fil2" d="M1230.85 1216.35c-5.68,19.28 -15.21,43.12 -28.64,71.53 -13.42,28.41 -29.81,54.23 -49.17,77.45 -44.86,53.81 -96.21,82.39 -154.08,85.74 -57.86,3.36 -115.42,-18.83 -172.68,-66.57 -54.59,-45.51 -85.79,-97.57 -93.61,-156.16 -7.81,-58.59 11.18,-115.36 56.98,-170.29 17.35,-20.81 35.97,-38.9 55.83,-54.25 19.87,-15.35 45.64,-29.39 77.3,-42.1l82.36 68.66 -7.62 9.13c-6.61,1.21 -16.13,3.12 -28.56,5.71 -12.42,2.6 -23.72,5.66 -33.87,9.2 -11.88,4.02 -24.2,10.01 -36.97,17.96 -12.77,7.95 -24.28,18.09 -34.55,30.41 -12.04,14.45 -20.6,29.51 -25.68,45.2 -5.08,15.68 -6.63,32.27 -4.67,49.74 2,16.78 8.13,33.83 18.37,51.13 10.24,17.3 24.88,33.89 43.91,49.75 38.86,32.4 76.32,47.91 112.4,46.54 36.07,-1.36 69.21,-20.17 99.43,-56.42 2.6,-3.12 5.38,-6.61 8.36,-10.5 2.96,-3.88 5.59,-7.51 7.87,-10.89l-68.9 -57.45 -52.58 63.08 -66.3 -55.28 121.64 -145.9 173.44 144.6z"/>
   <polygon class="fil2" points="1343.88,1158.23 1267.79,1228.26 1186.02,1139.42 1262.11,1069.39 "/>
   <polygon class="fil2" points="1603.75,960.83 1362.91,1135.99 1093.83,766.04 1334.66,590.87 1386.71,662.43 1231.3,775.47 1277.74,839.32 1421.97,734.42 1474.02,805.97 1329.79,910.88 1396.29,1002.31 1551.7,889.28 "/>
   <polygon class="fil2" points="1707.78,908.33 1617.68,959.09 1558.42,853.9 1648.51,803.14 "/>
   <path class="fil2" d="M2010.13 637.83c6.78,18.9 10.1,37.67 9.94,56.33 -0.15,18.66 -4.18,35.83 -12.06,51.5 -8.3,16.69 -20.2,31.57 -35.68,44.64 -15.49,13.07 -36.41,24.33 -62.78,33.8 -17.87,6.42 -34.96,11.74 -51.26,15.97 -16.31,4.22 -30.93,7.14 -43.87,8.75l-31.26 -87.06 9.37 -3.36c9.57,0.48 19.4,0.6 29.5,0.34 10.09,-0.25 22.17,-2.9 36.22,-7.94 18.21,-6.54 31.25,-14.28 39.12,-23.19 7.85,-8.92 12.14,-18.95 12.84,-30.1 0.59,-10.89 -0.87,-22.07 -4.41,-33.55 -3.53,-11.47 -8.45,-25.99 -14.75,-43.55l-61.64 -171.65 -88.73 31.87 -28.45 -79.23 188.67 -67.74 109.22 304.18z"/>
   <path class="fil2" d="M2393.14 526.16c10.34,55.58 3.05,101 -21.88,136.26 -24.93,35.27 -67.03,58.42 -126.29,69.45 -59.26,11.03 -106.83,4.58 -142.69,-19.37 -35.87,-23.95 -58.95,-63.6 -69.26,-118.98l-53.47 -287.24 104.92 -19.53 52.24 280.59c5.81,31.22 16.03,53.37 30.66,66.48 14.63,13.12 35.18,17.21 61.63,12.28 26.1,-4.86 43.79,-15.76 53.12,-32.71 9.31,-16.93 10.95,-41.62 4.92,-74.04l-52.23 -280.59 104.93 -19.53 53.41 286.94z"/>
   <polygon class="fil2" points="2810.57,236.52 2653,691.46 2534.12,689.52 2391.46,229.68 2502.99,231.49 2597.25,554.21 2701.98,234.74 "/>
   <polygon class="fil2" points="3072.2,745.63 2778.82,694.47 2857.42,243.81 3150.78,294.97 3135.59,382.13 2946.27,349.12 2932.7,426.9 3108.39,457.54 3093.19,544.71 2917.51,514.07 2898.08,625.45 3087.39,658.46 "/>
   <polygon class="fil2" points="3423.97,873.14 3328.05,837.57 3273.38,482.41 3164.2,776.81 3072.95,742.96 3232.01,314.05 3351,358.18 3400.65,656.1 3491.78,410.39 3583.04,444.23 "/>
   <polygon class="fil2" points="3902.44,731.58 3791.93,665.87 3603.38,983.04 3512.11,928.78 3700.66,611.62 3590.13,545.92 3635.35,469.86 3947.66,655.52 "/>
   <path class="fil2" d="M4075.94 1145.3c-36.91,42.83 -76.91,65.54 -120.02,68.14 -43.11,2.6 -87.51,-15.77 -133.18,-55.11 -45.67,-39.35 -70.37,-80.5 -74.11,-123.46 -3.74,-42.96 12.77,-85.78 49.54,-128.45l190.7 -221.36 80.86 69.67 -186.3 216.24c-20.71,24.05 -31.62,45.89 -32.69,65.5 -1.09,19.61 8.57,38.2 28.95,55.77 20.12,17.32 39.7,24.33 58.74,21 19.05,-3.33 39.32,-17.48 60.85,-42.46l186.28 -216.24 80.87 69.66 -190.5 221.12z"/>
   <path class="fil2" d="M4292.9 1446.41c-34.99,28.39 -74.24,38.12 -117.77,29.16 -43.55,-8.95 -83.89,-36.33 -121.05,-82.13 -21.49,-26.48 -37.63,-51.66 -48.43,-75.53 -10.81,-23.88 -19.21,-47.63 -25.19,-71.26l85.17 -69.11 7.32 9.02c-1.29,29.3 2.58,57.79 11.59,85.48 9.02,27.7 21.43,51.28 37.24,70.74 4.06,5.01 9.88,11.21 17.45,18.6 7.57,7.38 14.56,12.75 20.98,16.09 7.97,3.98 15.76,6.26 23.35,6.86 7.6,0.59 15.63,-2.53 24.06,-9.37 7.79,-6.32 12.1,-14.74 12.93,-25.26 0.82,-10.53 -1.9,-22.74 -8.16,-36.65 -6.58,-14.59 -13.91,-29.72 -21.98,-45.37 -8.08,-15.64 -14.72,-31.07 -19.95,-46.29 -12.14,-34.78 -14.69,-64.82 -7.65,-90.12 7.05,-25.3 22.88,-47.94 47.54,-67.95 33.07,-26.84 70.91,-35.4 113.49,-25.68 42.57,9.73 80.87,35.56 114.9,77.5 17.07,21.04 31.67,43.67 43.81,67.89 12.14,24.22 20.87,46.63 26.23,67.21l-81.82 66.39 -7.14 -8.8c1,-22.18 -2.23,-45.74 -9.67,-70.68 -7.45,-24.93 -19.08,-47.14 -34.86,-66.6 -5.59,-6.87 -11.64,-13.29 -18.2,-19.24 -6.55,-5.97 -13.82,-10.93 -21.79,-14.91 -6.91,-3.65 -14.43,-5.51 -22.53,-5.58 -8.11,-0.07 -15.26,2.41 -21.47,7.44 -9.37,7.62 -13.95,16.67 -13.74,27.18 0.22,10.51 5.52,26.38 15.89,47.63 6.83,13.93 13.35,27.34 19.58,40.21 6.22,12.87 12.16,27.34 17.81,43.4 10.94,31.71 13.49,59.62 7.61,83.74 -5.89,24.12 -21.08,46.12 -45.58,65.99z"/>
   <path class="fil2" d="M681.52 3733.81c-17.69,9.49 -35.78,15.51 -54.26,18.1 -18.49,2.59 -36.05,1.13 -52.72,-4.38 -17.73,-5.75 -34.19,-15.33 -49.39,-28.73 -15.2,-13.4 -29.42,-32.44 -42.65,-57.13 -8.97,-16.75 -16.74,-32.86 -23.32,-48.37 -6.57,-15.52 -11.61,-29.54 -15.09,-42.1l81.53 -43.7 4.7 8.78c0.93,9.52 2.26,19.27 3.99,29.22 1.73,9.95 6.12,21.5 13.18,34.66 9.15,17.07 18.71,28.83 28.69,35.29 9.98,6.46 20.53,9.22 31.66,8.28 10.85,-1.01 21.7,-4.09 32.53,-9.27 10.83,-5.17 24.47,-12.17 40.92,-21l160.75 -86.15 -44.54 -83.11 74.2 -39.76 94.7 176.69 -284.86 152.68z"/>
   <path class="fil2" d="M827.17 4167.71l-65.53 -87.91 57 -78.26 -91.06 -122.15 -91.28 32.27 -63.95 -85.78 457.66 -151.48 73.04 97.98 -275.87 395.33zm43.45 -236.76l0 0 101.12 -138.55 -161.67 57.33 60.55 81.22z"/>
   <path class="fil2" d="M1146.91 4466.84l-94.65 -88.66 32.94 -198.99 -35.9 -33.63 -114.68 122.42 -77.09 -72.21 312.74 -333.87 129.96 121.74c17.76,16.64 31.97,32.06 42.66,46.27 10.67,14.22 18.1,30.29 22.27,48.22 4.3,18.07 4.21,36.15 -0.26,54.27 -4.48,18.13 -15.11,36.15 -31.91,54.09 -23.1,24.67 -47.08,39.95 -71.93,45.85 -24.86,5.91 -51.67,5.07 -80.43,-2.51l-33.71 237.01zm96.09 -344.86l0 0c7.84,-8.37 13.01,-16.99 15.52,-25.87 2.5,-8.88 1.6,-18.57 -2.71,-29.07 -3.01,-7.29 -7.77,-14.49 -14.27,-21.57 -6.51,-7.08 -14.41,-14.96 -23.68,-23.66l-28.05 -26.26 -84.22 89.9 23.81 22.31c12.38,11.58 23.37,20.61 32.97,27.08 9.6,6.46 19.46,9.96 29.6,10.47 9.72,0.4 18.45,-1.03 26.2,-4.3 7.73,-3.28 16.02,-9.62 24.84,-19.04z"/>
   <path class="fil2" d="M1491.96 4687.13l-92.02 -59.61 26.22 -93.21 -127.86 -82.85 -74.36 62.01 -89.79 -58.19 376.39 -301.2 102.57 66.45 -121.15 466.6zm-41.6 -237.08l0 0 46.61 -165.08 -131.64 109.99 85.03 55.09z"/>
   <path class="fil2" d="M1877.87 4819c-20.09,0.35 -45.69,-1.63 -76.81,-5.96 -31.12,-4.32 -60.65,-12.25 -88.59,-23.78 -64.75,-26.74 -107.37,-67.22 -127.85,-121.43 -20.49,-54.23 -16.5,-115.78 11.95,-184.7 27.12,-65.68 67.48,-111.01 121.07,-135.97 53.57,-24.96 113.42,-23.79 179.54,3.51 25.04,10.35 47.86,22.7 68.45,37.07 20.58,14.38 41.67,34.79 63.28,61.2l-40.93 99.1 -10.99 -4.54c-3.13,-5.95 -7.79,-14.45 -13.98,-25.54 -6.19,-11.1 -12.49,-20.95 -18.9,-29.59 -7.38,-10.14 -16.78,-20.1 -28.18,-29.92 -11.41,-9.8 -24.52,-17.77 -39.35,-23.89 -17.37,-7.18 -34.31,-10.84 -50.8,-11 -16.49,-0.17 -32.77,3.29 -48.86,10.39 -15.42,6.93 -29.87,17.87 -43.31,32.81 -13.46,14.94 -24.91,33.87 -34.37,56.78 -19.31,46.75 -22.92,87.14 -10.84,121.15 12.07,34.03 39.92,60.03 83.54,78.05 3.75,1.55 7.92,3.16 12.52,4.84 4.59,1.68 8.84,3.1 12.74,4.27l34.25 -82.92 -75.91 -31.34 32.95 -79.8 175.58 72.5 -86.19 208.71z"/>
   <path class="fil2" d="M2331.29 4775.81c-11.34,55.38 -35.2,94.71 -71.58,118 -36.38,23.28 -84.09,28.87 -143.15,16.79 -59.05,-12.1 -100.69,-35.99 -124.89,-71.67 -24.21,-35.7 -30.67,-81.12 -19.37,-136.31l58.6 -286.23 104.57 21.4 -57.25 279.63c-6.36,31.1 -5.25,55.48 3.37,73.12 8.61,17.66 26.11,29.18 52.48,34.58 26,5.32 46.5,1.9 61.52,-10.3 15.01,-12.19 25.82,-34.44 32.43,-66.75l57.25 -279.61 104.56 21.4 -58.54 285.95z"/>
   <path class="fil2" d="M2760.59 4952.51l-109.64 -2.01 -26.99 -92.99 -152.32 -2.79 -30.37 91.95 -106.98 -1.96 160.43 -454.61 122.19 2.24 143.68 460.17zm-160.61 -179.31l0 0 -47.64 -164.78 -53.65 162.93 101.29 1.86z"/>
   <polygon class="fil2" points="2828.3,4456.64 2829.96,4638.35 2767.8,4644.62 2733.12,4466.25 "/>
   <path class="fil2" d="M3399.09 4572.02c12.24,40.79 14.83,79.85 7.75,117.14 -7.09,37.33 -20.83,68.45 -41.24,93.4 -15.37,18.72 -33.75,34.09 -55.17,46.07 -21.41,12.01 -47.84,22.71 -79.26,32.15l-139.04 41.75 -131.57 -438.13 143 -42.93c32.13,-9.66 60.76,-14.98 85.85,-16 25.1,-1.01 47.25,1.58 66.43,7.8 32.73,10.27 61.6,28.7 86.62,55.3 25.01,26.59 43.89,61.09 56.62,103.46zm-105.4 30.67l0 0c-8.66,-28.83 -20.8,-52.07 -36.4,-69.74 -15.6,-17.66 -35.37,-29.21 -59.33,-34.63 -12.12,-2.57 -23.93,-3.25 -35.4,-2.04 -11.48,1.19 -28.15,5.08 -50.05,11.65l-25.69 7.73 82.35 274.24 25.68 -7.72c24.19,-7.27 41.57,-13.82 52.13,-19.67 10.56,-5.85 20.26,-13.62 29.08,-23.33 15,-17.33 23.86,-37.16 26.59,-59.46 2.73,-22.32 -0.25,-47.99 -8.97,-77.03z"/>
   <path class="fil2" d="M3772.9 4373.51c34.22,64.39 44.76,124.36 31.69,179.9 -13.08,55.53 -48.91,98.87 -107.52,130.01 -58.45,31.05 -114.33,36.45 -167.68,16.19 -53.34,-20.25 -97.1,-62.58 -131.31,-126.97 -34.5,-64.94 -45.17,-125.08 -31.99,-180.44 13.18,-55.36 48.98,-98.56 107.43,-129.6 58.27,-30.97 114.11,-36.46 167.53,-16.47 53.4,20 97.36,62.46 131.85,127.38zm-69.95 168.31l0 0c2.59,-17.13 1.63,-35.24 -2.87,-54.31 -4.49,-19.05 -12.74,-39.89 -24.76,-62.51 -12.87,-24.23 -26.35,-43.52 -40.43,-57.82 -14.08,-14.32 -27.97,-24.57 -41.68,-30.74 -14.07,-6.44 -27.82,-9.23 -41.23,-8.36 -13.42,0.87 -26,4.41 -37.72,10.63 -11.88,6.32 -21.82,14.62 -29.82,24.9 -8.01,10.27 -13.52,23.18 -16.55,38.7 -2.76,14.46 -1.97,31.96 2.37,52.49 4.34,20.54 12.75,42.57 25.25,66.09 12.76,24.06 26.13,43.22 40.09,57.5 13.95,14.27 27.82,24.58 41.63,30.93 13.82,6.36 27.52,9.16 41.11,8.43 13.6,-0.72 26.43,-4.29 38.48,-10.69 12.04,-6.4 22.15,-15.08 30.31,-26.02 8.16,-10.95 13.45,-24.01 15.82,-39.2z"/>
   <path class="fil2" d="M4199.6 4120.77c30.04,33.59 41.62,72.34 34.77,116.26 -6.86,43.91 -32.29,85.51 -76.25,124.84 -25.43,22.73 -49.8,40.06 -73.13,51.99 -23.33,11.93 -46.65,21.45 -69.97,28.56l-73.1 -81.76 8.66 -7.74c29.31,-0.11 57.6,-5.35 84.82,-15.68 27.24,-10.32 50.2,-23.85 68.89,-40.56 4.81,-4.3 10.72,-10.41 17.73,-18.33 7.02,-7.92 12.04,-15.16 15.07,-21.72 3.59,-8.16 5.5,-16.05 5.74,-23.67 0.23,-7.63 -3.27,-15.49 -10.51,-23.56 -6.68,-7.48 -15.3,-11.39 -25.86,-11.71 -10.54,-0.32 -22.62,2.99 -36.19,9.91 -14.28,7.27 -29.04,15.3 -44.27,24.11 -15.24,8.82 -30.35,16.21 -45.29,22.16 -34.17,13.79 -64.04,17.77 -89.65,11.95 -25.59,-5.81 -48.98,-20.56 -70.14,-44.24 -28.39,-31.75 -38.75,-69.13 -31.08,-112.11 7.68,-43 31.65,-82.5 71.92,-118.49 20.19,-18.07 42.11,-33.74 65.72,-47.01 23.61,-13.28 45.57,-23.09 65.87,-29.43l70.24 78.57 -8.46 7.56c-22.19,0.06 -45.57,4.41 -70.13,13.03 -24.54,8.63 -46.17,21.3 -64.85,38.02 -6.61,5.89 -12.72,12.25 -18.36,19.08 -5.64,6.83 -10.26,14.32 -13.85,22.47 -3.31,7.08 -4.81,14.67 -4.5,22.76 0.32,8.1 3.14,15.13 8.46,21.09 8.07,9.01 17.33,13.16 27.82,12.43 10.47,-0.71 26.08,-6.77 46.82,-18.16 13.57,-7.47 26.66,-14.63 39.21,-21.46 12.57,-6.83 26.72,-13.46 42.51,-19.87 31.15,-12.47 58.9,-16.33 83.28,-11.61 24.37,4.72 47.08,18.84 68.1,42.35z"/>
   <path class="fil2" d="M4425.53 3803.08c44.36,35.05 68.75,74.05 73.18,117.01 4.43,42.97 -12.03,88.1 -49.4,135.41 -37.36,47.3 -77.42,73.73 -120.19,79.29 -42.76,5.58 -86.25,-9.1 -130.44,-44.01l-229.27 -181.1 66.15 -83.76 223.98 176.92c24.91,19.67 47.18,29.63 66.82,29.87 19.65,0.25 37.81,-10.18 54.49,-31.3 16.45,-20.84 22.61,-40.69 18.47,-59.58 -4.14,-18.89 -19.13,-38.54 -45.02,-58.99l-223.97 -176.91 66.16 -83.75 229.04 180.89z"/>
   <polygon class="fil2" points="4738.43,3578.41 4594.87,3838.37 4194.41,3617.21 4245.74,3524.26 4568.74,3702.63 4660.97,3535.63 "/>
  </g>
 </g>
</svg>
