<?xml version="1.0" encoding="UTF-8"?>
<!DOCTYPE svg PUBLIC "-//W3C//DTD SVG 1.1//EN" "http://www.w3.org/Graphics/SVG/1.1/DTD/svg11.dtd">
<!-- Creator: CorelDRAW 2020 (64 Bit) -->
<svg xmlns="http://www.w3.org/2000/svg" xml:space="preserve" width="86.4558mm" height="124.38mm" version="1.1" style="shape-rendering:geometricPrecision; text-rendering:geometricPrecision; image-rendering:optimizeQuality; fill-rule:evenodd; clip-rule:evenodd"
viewBox="0 0 1496.81 2153.38"
 xmlns:xlink="http://www.w3.org/1999/xlink"
 xmlns:xodm="http://www.corel.com/coreldraw/odm/2003">
 <defs>
  <style type="text/css">
   <![CDATA[
    .str1 {stroke:#8FC74A;stroke-width:25.32;stroke-miterlimit:4}
    .str0 {stroke:#4E7341;stroke-width:25.32;stroke-miterlimit:4}
    .fil3 {fill:none;fill-rule:nonzero}
    .fil0 {fill:#FEFEFE}
    .fil1 {fill:#FEFEFE;fill-rule:nonzero}
    .fil2 {fill:#8FC74A;fill-rule:nonzero}
    .fil4 {fill:#4E7341;fill-rule:nonzero}
   ]]>
  </style>
 </defs>
 <g id="Camada_x0020_1">
  <metadata id="CorelCorpID_0Corel-Layer"/>
  <g id="_2005457039488">
   <polygon class="fil0" points="290.78,817.76 596.16,1258.99 1337.1,978.42 1404.24,862.23 1485.12,600.39 1466.64,450.7 "/>
   <path class="fil1 str0" d="M1294.59 450.32c64.33,0 127.55,3.78 189.34,10.96 0.03,-4.79 0.24,-9.48 0.22,-14.31 -1.53,-75.62 -11.35,-155.8 -30.79,-240.84 -231.25,-35.19 -384.42,-212.31 -627.07,-191.88 -207.68,17.47 -347.05,176.41 -561.04,191.88 -61.56,245.76 -44.78,454.23 22.25,628.21 234.76,-233.87 598.62,-384.02 1007.1,-384.02z"/>
   <path class="fil2" d="M234.1 2146.94c-4.61,-23.06 -64.59,-158.97 -67.09,-290.53 -5.08,-265.68 131.02,-507.37 344.99,-687.37 222.76,-187.39 535.46,-307.87 884.08,-318.98 20.08,-42.28 37.13,-86.62 50.74,-133.04 -16.38,-0.49 -32.8,-0.82 -49.33,-0.82 -390.37,0 -739.96,137.15 -975.08,353.44 -191.28,175.96 -306.84,404.29 -306.84,653.83 0,53.62 5.38,106.24 15.65,157.6 -12.49,-21.16 -24.07,-42.72 -34.72,-64.64 13.29,45.59 125.12,309.35 137.61,330.5z"/>
   <path class="fil3 str1" d="M234.1 2146.94c-4.61,-23.06 -64.59,-158.97 -67.09,-290.53 -5.08,-265.68 131.02,-507.37 344.99,-687.37 222.76,-187.39 535.46,-307.87 884.08,-318.98 20.08,-42.28 37.13,-86.62 50.74,-133.04 -16.38,-0.49 -32.8,-0.82 -49.33,-0.82 -390.37,0 -739.96,137.15 -975.08,353.44 -191.28,175.96 -306.84,404.29 -306.84,653.83 0,53.62 5.38,106.24 15.65,157.6 -12.49,-21.16 -24.07,-42.72 -34.72,-64.64 13.29,45.59 125.12,309.35 137.61,330.5z"/>
   <path class="fil4" d="M1346.04 583.27c43.39,0 86.25,1.71 128.51,5.02 5.79,-40.91 8.97,-83.24 9.37,-127.01 -61.78,-7.18 -125,-10.96 -189.34,-10.96 -408.48,0 -772.33,150.14 -1007.1,384.02 -172.1,171.48 -274.83,387.94 -274.83,623.26 0,126.42 29.73,247.36 83.84,358.84 -21.19,-72.63 -32.39,-148.24 -32.39,-225.9 0,-239.13 106.12,-458.74 283.28,-631.49 234.98,-229.14 594.99,-375.78 998.65,-375.78z"/>
   <path class="fil3 str0" d="M1346.04 583.27c43.39,0 86.25,1.71 128.51,5.02 5.79,-40.91 8.97,-83.24 9.37,-127.01 -61.78,-7.18 -125,-10.96 -189.34,-10.96 -408.48,0 -772.33,150.14 -1007.1,384.02 -172.1,171.48 -274.83,387.94 -274.83,623.26 0,126.42 29.73,247.36 83.84,358.84 -21.19,-72.63 -32.39,-148.24 -32.39,-225.9 0,-239.13 106.12,-458.74 283.28,-631.49 234.98,-229.14 594.99,-375.78 998.65,-375.78z"/>
   <path class="fil4" d="M826.28 1389.34c184.3,-91.13 361.67,-221.96 485.75,-396.41 -267.46,30.95 -508.04,126.76 -694.99,266.48 65.9,50.2 136.54,93.51 209.25,129.93z"/>
   <path class="fil3 str0" d="M826.28 1389.34c184.3,-91.13 361.67,-221.96 485.75,-396.41 -267.46,30.95 -508.04,126.76 -694.99,266.48 65.9,50.2 136.54,93.51 209.25,129.93z"/>
   <path class="fil4" d="M702.22 397.33c-0.3,0 -3.52,0.08 -9.66,0.22 -6.19,0.15 -13.84,-0.29 -23.09,-1.32 -9.24,-1.05 -19.15,-3.13 -29.71,-6.26 -10.55,-3.12 -20.36,-7.88 -29.44,-14.29 -9.13,-6.41 -16.67,-14.88 -22.68,-25.46 -5.99,-10.56 -9.01,-23.89 -9.01,-39.96l0 -156.36 56.75 0 0 155.9c0,18.46 5.64,31.56 16.94,39.3 11.26,7.75 27.91,11.91 49.9,12.5l0 35.72z"/>
   <path class="fil4" d="M918.76 232.98c0,10.72 -2.21,20.17 -6.59,28.36 -4.38,8.2 -10.1,15.18 -17.15,20.99 -7.05,5.81 -15.1,10.64 -24.19,14.52 -9.1,3.87 -18.32,6.99 -27.71,9.39 -22.27,5.66 -47.36,8.62 -75.2,8.92 1.18,10.73 4.91,19.21 11.21,25.46 6.3,6.26 13.19,10.87 20.67,13.85 7.48,2.98 14.45,4.84 20.88,5.58 6.44,0.74 10.55,1.12 12.33,1.12l42.22 0 0 25.46c-3.22,2.08 -7.32,3.87 -12.32,5.35 -4.1,1.5 -9.23,2.77 -15.4,3.8 -6.16,1.05 -13.49,1.56 -21.97,1.56 -19.97,0 -36.66,-2.23 -50.17,-6.69 -13.47,-4.47 -24.47,-10.12 -32.99,-16.97 -8.49,-6.85 -14.93,-14.22 -19.34,-22.11 -4.4,-7.88 -7.46,-15.41 -9.22,-22.56 -1.78,-7.15 -2.72,-13.17 -2.85,-18.08 -0.16,-4.92 -0.21,-7.82 -0.21,-8.7l0 -46.45c0,-1.19 0.12,-4.54 0.42,-10.05 0.3,-5.5 1.39,-12.06 3.27,-19.66 1.94,-7.58 5,-15.69 9.27,-24.32 4.25,-8.64 10.25,-16.53 18.05,-23.67 7.75,-7.15 17.65,-13.11 29.67,-17.87 12.03,-4.76 26.81,-7.15 44.42,-7.15 11.43,0 23.24,1.4 35.41,4.24 12.15,2.83 23.22,7.36 33.19,13.62 9.96,6.25 18.17,14.45 24.63,24.56 6.44,10.13 9.67,22.62 9.67,37.51zm-151.27 45.11c17.57,-0.59 33.42,-2.67 47.47,-6.25 5.88,-1.48 11.67,-3.42 17.38,-5.82 5.72,-2.38 10.77,-5.28 15.17,-8.7 4.39,-3.43 7.98,-7.43 10.79,-12.05 2.77,-4.62 4.16,-10.05 4.16,-16.31 0,-2.38 -0.21,-5.21 -0.65,-8.48 -0.43,-3.27 -1.55,-6.71 -3.29,-10.27 -2.64,-5.37 -7.11,-10.27 -13.42,-14.75 -6.3,-4.47 -16.08,-6.71 -29.24,-6.71 -10.58,0 -19.07,1.95 -25.52,5.81 -6.44,3.89 -11.37,8.56 -14.73,14.07 -3.4,5.51 -5.56,11.17 -6.59,16.97 -1.04,5.81 -1.53,10.51 -1.53,14.07l0 38.41z"/>
   <path class="fil4" d="M940.41 237.89c0,-9.22 1.16,-17.64 3.51,-25.23 2.36,-7.59 5.56,-14.36 9.67,-20.33 4.1,-5.95 8.96,-11.01 14.5,-15.18 5.58,-4.17 11.31,-7.59 17.15,-10.27 12.34,-5.95 24.71,-9.66 37.19,-11.16 12.45,-1.49 23.38,-2.23 32.77,-2.23l22.41 -0.44c5.89,0 10.92,0.22 15.16,0.66 4.28,0.44 8.31,0.96 12.12,1.56 3.5,0.6 6.74,1.42 9.66,2.45 2.93,1.05 5.56,2.17 7.91,3.36l4.85 2.24 0 25.89 -60.71 0c-3.81,0 -7.91,0.16 -12.29,0.45 -4.42,0.3 -8.81,0.89 -13.19,1.79 -4.73,0.89 -9.19,2.08 -13.42,3.58 -4.26,1.49 -8.15,3.43 -11.67,5.8 -4.97,3.28 -8.94,7.31 -11.87,12.06 -4.7,6.55 -7.01,15.48 -7.01,26.8l0 71.02c0,4.46 0.34,8.48 1.06,12.05 0.74,3.57 1.7,6.71 2.87,9.38 2.66,5.67 6.17,10.27 10.56,13.85 4.12,3.87 9.01,6.85 14.73,8.94 5.73,2.09 11.67,3.57 17.82,4.47 4.1,0.59 8.04,1.05 11.87,1.33 3.81,0.31 7.34,0.46 10.55,0.46l60.71 0 0 25.45 -4.85 2.68c-2.35,1.19 -4.98,2.31 -7.91,3.36 -2.92,1.05 -6.16,1.85 -9.66,2.45 -3.8,0.61 -7.84,1.13 -12.12,1.57 -4.25,0.44 -9.28,0.66 -15.16,0.66l-22.41 -0.44c-5.3,0 -11.15,-0.15 -17.61,-0.44 -6.46,-0.3 -13.05,-1.19 -19.78,-2.69 -7.06,-1.49 -14.07,-3.35 -21.13,-5.57 -7.02,-2.24 -13.77,-5.29 -20.23,-9.17 -9.08,-5.64 -16.71,-12.65 -22.87,-20.99 -4.1,-5.95 -7.31,-12.73 -9.67,-20.33 -2.34,-7.59 -3.51,-16 -3.51,-25.23l0 -74.59z"/>
   <path class="fil1" d="M1345.44 703.23c42.08,0 77.16,-0.58 118.15,2.73 5.62,-40.91 20.53,-61.1 20.92,-104.87 -59.92,-7.18 -123.37,-1.79 -185.76,-1.79 -387,3.67 -705.06,153.81 -950.16,375.77 -166.91,171.48 -239.97,309.16 -268.37,549.97 -7.33,123.67 -3.84,161.54 26.65,278.52 -5.28,-77.59 -3.55,-6.23 -3.55,-83.9 0,-239.13 104.07,-449.58 275.88,-622.33 227.89,-229.14 574.76,-381.13 966.24,-394.11z"/>
  </g>
 </g>
</svg>
