<?xml version="1.0" encoding="UTF-8"?>
<!DOCTYPE svg PUBLIC "-//W3C//DTD SVG 1.1//EN" "http://www.w3.org/Graphics/SVG/1.1/DTD/svg11.dtd">
<!-- Creator: CorelDRAW 2020 (64 Bit) -->
<svg xmlns="http://www.w3.org/2000/svg" xml:space="preserve" width="206.048mm" height="303.036mm" version="1.1" style="shape-rendering:geometricPrecision; text-rendering:geometricPrecision; image-rendering:optimizeQuality; fill-rule:evenodd; clip-rule:evenodd"
viewBox="0 0 845.36 1243.28"
 xmlns:xlink="http://www.w3.org/1999/xlink"
 xmlns:xodm="http://www.corel.com/coreldraw/odm/2003">
 <defs>
  <style type="text/css">
   <![CDATA[
    .fil1 {fill:#040608}
    .fil7 {fill:#050809}
    .fil11 {fill:#060A0A}
    .fil15 {fill:#182D22}
    .fil3 {fill:#231F20}
    .fil4 {fill:#232324}
    .fil0 {fill:#3EA44F}
    .fil6 {fill:#3FA550}
    .fil18 {fill:#688374}
    .fil20 {fill:#728C7D}
    .fil13 {fill:#817D7F}
    .fil19 {fill:#819C8D}
    .fil17 {fill:#878788}
    .fil14 {fill:#979898}
    .fil16 {fill:#A19E9F}
    .fil12 {fill:#E7E9E8}
    .fil5 {fill:#F4B716}
    .fil9 {fill:#F5F9F7}
    .fil10 {fill:#F7FBF9}
    .fil8 {fill:#FCFCFC}
    .fil2 {fill:#FEFEFE}
   ]]>
  </style>
 </defs>
 <g id="Camada_x0020_1">
  <metadata id="CorelCorpID_0Corel-Layer"/>
  <g id="_2346485228912">
   <path class="fil0" d="M336.23 1053.9c13.52,-10.22 33.13,-13.55 45.19,4.88 5.33,-12.47 28.98,-20.33 45.56,-2.37 16.57,-6.98 6.43,-9.35 31.28,-9.35l0.75 38.58c5.97,-2.24 0.94,1.09 4.15,-5.07l11.55 -0.14 -0.15 -10.61 -11.53 0 0.03 -16.57c9.72,-4.55 16.04,-10.09 31.41,-6.24 12.74,3.19 14.65,12.7 12.06,25.21 -1.37,6.61 9.17,19.5 -5.82,29.14 -8.53,5.49 -25.66,4.99 -33.03,-1.19 -4.73,4.13 -0.21,4 -16.06,3.84 -7.2,-0.07 -14.41,-0.02 -21.61,-0.02l-0.52 -14.74c-4.77,8.04 -9.57,15.04 -22.7,15.86 -13.16,0.82 -21.08,-4.82 -25.65,-12.43l-0.39 11.32 -44.46 -0.03c-1.22,-17.27 1.4,-25.26 16.34,-33.7l-16.4 -0.71 0.01 -15.66zm-285.54 -404.08c12.51,6.41 45.83,31.23 63.15,28.46 -4.08,-4.18 -18.02,-11.96 -23.35,-16.14 -17.77,-13.94 -46.97,-53.88 -47.79,-72.37 5.21,11.39 37.83,31.1 53.58,39.11 49.1,24.99 111.21,13.79 164.62,20.39 18.28,2.26 54.9,12.88 63.03,29.46 -9.72,6.68 -19.96,11.51 -17.16,30.37 1.69,11.39 10.06,23.6 16.68,29.77 6.99,6.51 22.14,13.86 34.81,7.24 9.77,-5.1 15.53,-16.2 17.38,-29.69 -7.24,1.81 -5.06,2.55 -10.24,5.13 1.6,-9.18 9.18,-28.3 8.79,-35.26 -0.36,-6.39 -3.15,-12.38 -0.47,-18.8 2.93,-7.01 6.68,-6.3 9.25,-15.33 -13.21,-4.29 -25.29,-14.34 -27.74,-29.19 16.32,-7.75 28.21,0.98 41.33,3.61l-6.29 -12.78c6.53,1.39 8.5,3.53 13.71,6.36 -3.39,-8.26 -10.16,-13.6 -12.1,-23.22 13.06,0.52 23.5,5.4 32.23,13.8 4.5,4.32 1.85,4.54 7.2,7.43 2.36,-4.86 1.43,-15.51 1.47,-22.41 18.12,2.1 18.88,16.23 23.18,32.27 2.93,-3.6 4.92,-9.77 8.23,-13.37 2.68,-2.92 0.19,-0.98 3.59,-2.91 0.87,10.19 -0.84,15.94 -1.86,25.52 16.22,3.99 12.58,7.05 18.37,18.9 8.89,3.62 20.14,0.31 24.61,8.79 4.02,7.61 -0.81,18.51 -5.23,22.12 -7.9,-5.71 -5.77,-10.03 -19.43,-6.12 -7.87,2.25 -13.38,4.22 -16.57,9.49 14.87,9.29 12.61,6.95 31.79,4.55 -1.23,17.59 -11.34,15.44 -26.94,17.78 3.63,6.49 5.82,9.65 10.66,14.05 1.8,1.64 11.93,8.38 11.81,9.92 -5.7,2.88 -9.7,0.59 -15.8,-0.03 7.57,17.7 37.07,15.72 51.84,-6 26.38,-38.78 -1.67,-44.47 -7.15,-53.93 5.35,-3.5 6.65,-6.55 12.28,-10.34 39.39,-26.61 93.63,-17.37 138.72,-20.27 39.67,-2.56 73.55,-11.28 103.97,-33.76 7.15,-5.29 16.88,-16.57 25.96,-19.42 -4.63,14.24 -20.47,40.49 -28.42,50.26 -16.59,20.37 -29.24,23.31 -40.98,35.11 30.62,-2.66 41.75,-21.82 61.71,-28.61 -3.99,8.48 -9.58,17.48 -14.82,24 -32.64,40.63 -52.36,38.05 -64.77,49.97 14.44,1.2 28.78,-1.26 40.88,-5.84 12.53,-4.74 19.96,-10.78 30.18,-16.04 -4.33,9.93 -25.43,30.64 -34.16,36.64 -19.15,13.17 -27.51,12.67 -50.81,20.11 13.68,10.4 39.15,0.41 55.14,-1.43 -16.84,26.88 -71.9,34.29 -76.37,36.62 14.32,9.19 29.3,4.23 45.1,7.18 -24.14,16.18 -42.74,18.84 -76.64,20.69 2.04,9.73 24.94,10.21 33.17,14.04 4.68,2.17 2.1,0.92 4.07,2.75 -31.16,8.28 -35.25,6.58 -67.54,2.46 4.95,8.43 16.42,13.86 26.74,17.29l-6.56 2.25c-16.29,2.15 -34.08,-0.98 -49.26,-5.05l4.57 18.72c-9.79,-4.7 -20.4,-15.64 -35.44,-16.8 5.6,28.55 14.38,46.52 -1.95,74.98l-5.75 -8.96c-1.99,-2.51 -4.26,-4 -7.51,-5.38 -5.67,6.18 -4.42,8.48 -15.01,13.32 -8.92,4.08 -7.68,9.65 -10.3,18.73 -4.23,14.63 -10.64,28.5 -18.75,37.68 -54.33,61.57 -151.05,38.55 -172.45,-38.58 -3.14,-11.31 0.32,-14.21 -9.01,-19.94 -6.35,-3.9 -9.85,-9.26 -15.96,-11.43 -10.96,4.58 -6.42,8.67 -14.52,15.37 -4.09,-7.74 -10.22,-26.48 -10.23,-37.21 -0.01,-13.72 6.34,-25.48 7.83,-38.87 -13.32,2.26 -24.95,10.98 -35.42,16.46l4.52 -18.09c-9.32,2.74 -16.11,4.21 -26.5,4.97 -8.25,0.6 -18.83,1.76 -26.81,-1.12l-2.16 -1.13c10.29,-3.05 22.95,-9.59 26.36,-17.23 -28.74,3.93 -39.93,6.5 -66.8,-2.57 1.05,-0.87 1.08,-0.97 2.99,-1.95 10.43,-5.34 27.4,-4.92 34.33,-15 -16.48,-0.29 -29.15,-0.12 -44.33,-4.84 -10.55,-3.28 -27.15,-9.47 -33.06,-15.99 19.74,-1.64 28.28,0.49 46.58,-6.02l-23.02 -6.19c-7.71,-1.95 -14.53,-4.02 -21.72,-7.24 -11.52,-5.16 -28.56,-16.27 -33.18,-23.62 14,1 29.58,6.7 44.1,4.97 1.95,-0.23 5.15,-0.71 7.13,-1.44 4.17,-1.55 2.18,-0.5 4.78,-2.91 -24.04,-7.42 -30.85,-5.47 -51.08,-19.67 -9.78,-6.86 -30.25,-24.64 -34.06,-36.12 20.9,8.7 39.75,27.14 71.68,21.09 -1.61,-1.56 -28.92,-13.08 -48.16,-29.43 -6.95,-5.91 -28.23,-32.24 -32.53,-44.18zm301.94 -188.81l62.91 -0.07 0.69 10.21c9.22,-11.51 50.39,-19.64 60.76,-0.76l0.06 20.4 -29.07 -0 -0.74 -8.68c-15.77,0.17 -11.91,25.04 -9.93,30.08 5.17,13.22 21.18,6.32 30.2,0.9 7.15,6.34 0.11,4.93 25.31,4.93l0 22.25c-7.87,0 -14.32,0.21 -21.8,-0.79 -6.44,-0.86 -9.62,1.75 -17.92,2.24 -14.49,0.86 -26.39,-2.73 -34.25,-9.79l-0.42 8.4 -23.14 -0.53 -0 -21.58 14.1 -0.33c-2.51,-12.95 -2.8,-15.15 -1.5,-29.07l-8.3 -0.08 -0.66 23 -11.44 0c0.28,8.21 -1.86,6.12 6.44,6.27l0 22.2 -41.85 -0.48 0 -20.14c7.55,-5.51 6.48,9.6 6.48,-34.74 -5.76,-4.59 -3.81,1.85 -6.56,-4.34l0.65 -19.52zm-315.61 126.94c1.92,70.63 14.78,157.49 37.15,213.54 22.67,56.79 57.79,114.78 91.78,157.17l42.88 51.14c5.02,6 9.41,9.88 14.66,15.73l46.92 47.23c41.56,37.01 71.02,65.16 116.82,100.22 7.51,5.75 28.73,23.53 35.4,26.52 19.02,-13.03 107.5,-84.33 129.72,-105.91l99.41 -101.7c49.07,-58.83 88.83,-115.81 119.34,-191.92 19.98,-49.84 37.11,-148.45 36.53,-212.32l-82.39 -56.59c-31.49,-19.74 -37.82,-31.33 -81.92,-55.57 -142.73,-78.46 -353.92,-71.66 -484.61,27.67 -13.64,10.37 -23.61,18.75 -39.32,28.69l-82.38 56.09z"/>
   <path class="fil1" d="M169.51 374.59c5.38,3.68 7.47,10.19 12.94,14.64l18.16 -4 -9.68 15.68c2,6.55 6.33,10.57 9.02,17.33l-19.39 -4.65 -8.89 11.49c-0.23,0.22 -0.67,0.59 -0.87,0.77 -0.2,0.18 -0.77,1.03 -0.92,0.76 -0.15,-0.27 -0.61,0.53 -0.95,0.76l-1.12 -19.02 -16.43 -8.04 16.87 -6.24 1.27 -19.48zm493.69 14.62c1.61,-2.69 3.52,-5.22 5.86,-8.24 2.23,-2.88 2.93,-4.62 5.98,-5.55l1.48 17.76c3.98,2.31 14.63,5.12 16.88,7.99l-16.53 7.98 -0.68 18.37c-2.45,-1.57 -0.79,-0.37 -2.76,-2.24l-10.57 -11.7 -17.82 4.65c1.94,-4.74 8.62,-14 8.34,-17.07 -0.21,-2.33 -7.39,-11.99 -9.16,-16.09l18.98 4.13zm-216.36 -8.56c1.17,-8.37 -0.73,-1.2 2.88,-4.88 6.95,-7.09 8,-14.1 13.37,-27.04 4.14,-9.98 11.45,-23.15 14.01,-32.74l17.92 1.87c4.46,6.77 11.63,47.19 13.15,55.56 2.42,13.34 7.02,5.22 5.27,15.54 -7.42,-0.62 -28.49,-1.49 -27.89,-6.69 0.6,-5.17 1.78,-1.77 6.55,-4.51l-1.63 -10.01 -22.05 -1.93 -0.91 10.62c5.62,3.74 3.95,0.14 3.55,6.39 -4.77,1.07 -8.37,0.33 -13.38,0.04 -1.22,-0.07 -5.26,-0.3 -6.18,-0.49l-4.65 -1.71zm154.43 20.61c10.45,-22.84 -28.21,-22.9 -20.8,-49.25 5.79,-20.6 42.14,-9.59 50,1.16l-5.37 14.22 -8.6 -2.49 0.54 -13.51c-4.74,-1.99 -10.22,-5.03 -16.36,-2.81 -16.74,15.35 25.62,23.18 20.1,47.65 -6.67,29.57 -51.75,2.6 -52.75,2.29l4.87 -16.87 8.69 2.18c-0.01,3.69 -4.71,23.61 19.68,17.44zm-83.87 -59.24c3.19,-18.76 -3.57,-10.82 -3.47,-19.26 2.65,-2.02 -2.05,-1.41 5.54,-1.35l17.46 2.99c5.27,0.89 10.07,0.19 8.93,5.33 -1.44,6.47 -7.07,1.21 -9.28,4.61 -3.15,16.68 -15.39,52.65 6.55,54.42 16.51,1.33 20.18,-31.1 23.86,-49.75 -6.26,-2.99 -8.24,-1.12 -7.1,-7.56 2.26,-1.46 -0.34,-2.6 10.23,0.1 9.22,2.36 17.66,2.56 15.25,7.6 -2.92,6.11 -1.3,0.33 -7.89,3.88 -6.25,26.5 -8.35,61.46 -44.4,50.24 -25.73,-8.01 -19.33,-29.78 -15.69,-51.24zm-114.11 -27.4c17.07,20.47 27.94,41.99 32.19,47.4l0.62 -39.26c-7.57,-4.29 -7.92,1.74 -8.3,-8.78 9.95,0.04 22.52,-1.49 25.98,2.99 -1.71,8.62 0.37,1.82 -7.84,5.78l-2.11 59.16 -13.44 -0.31c-4.43,-6.23 -28.45,-45.08 -34.67,-49.57l1.89 41.95c7.34,3.56 9.6,-1.39 9.89,7.45 -6.73,1.38 -18.36,1.56 -25.41,2.02 -3.36,0.22 -22.86,2.81 -23.85,0.66 -0.22,-0.48 -0.79,-0.3 -1.13,-0.55 0.83,-8.76 -0.77,-1.04 5.28,-6.62l-3.4 -9.5 -22.44 3.86 -0.97 9.36c2.34,1.05 15.12,3.64 3.73,7.69l-31.95 5.9c-5.76,1.3 -9.95,3.25 -13.61,0.89 -0.08,-8.43 -1.5,-1.64 5.94,-7.24 -2.03,-9.67 -13.04,-42.56 -16.84,-49.38l-1.75 59.53 -12.08 2.82c-8.34,-16.05 -26.18,-38.01 -32.83,-49.74l11.03 51.92c1.31,-0.2 4.84,-0.86 5.98,-0.8l3.46 1.01c0.19,-0.33 0.71,0.32 1,0.57 -0.23,6.31 3.58,2.26 -11.51,7.33 -4.85,1.63 -9.47,4.66 -13.41,2.81 -1.76,-5.7 -0.86,-4.76 5.59,-6.69l-9.67 -53.07c-8.72,1.14 -9.15,4.16 -12.66,-2.19 2.95,-4.65 26.44,-11.25 32.96,-12.08 6.44,7.6 18.92,29.97 24.17,40.13l0.93 -47.04c5.19,-2.51 29.08,-9.56 34.22,-5.9 0.11,4.86 4.04,4.26 -9.45,7.05 1.62,7.03 15.37,47.11 18.16,50.68 8.61,-0.2 6.74,-4.02 8.16,-13.53 0.87,-5.84 1.8,-11.45 2.86,-17.1 2.2,-11.69 4.45,-22.25 6.92,-34.11l18.24 -1.71c5.37,8.9 11.17,21.18 15.4,30.97 12.04,27.83 8.69,27.58 20.27,26.65l-3 -51.8c-6.76,-5.15 -7.08,2.85 -8.28,-7.24l25.72 -2.35zm-366.82 135.94l-0.03 36.76c15.3,-8.66 78.3,-49.53 90.12,-59.77 5.03,-4.35 7.91,-7.17 13.31,-11.3 9.84,-7.55 25.63,0.84 11.97,10.59 -2.71,1.94 -5.28,3.57 -7.62,5.4 -19.04,14.85 -20.97,17.81 -45.01,33.1 -8.77,5.58 -60.4,36.96 -62.9,42.69l0.38 42.58 0.35 37.34 82.38 -56.09c15.71,-9.94 25.68,-18.32 39.32,-28.69 130.69,-99.33 341.88,-106.13 484.61,-27.67 44.09,24.24 50.42,35.83 81.92,55.57l82.39 56.59 1.84 -83.57 -63.29 -40.3c-25.84,-16.54 -24.01,-16.86 -44.07,-32.62 -3.12,-2.45 -4.01,-2.64 -7.69,-5.32 -5.04,-3.66 -3.9,-1.82 -3.78,-9.16 7.82,-3.59 9.3,-6.26 16.6,-0.86 18.25,13.52 16.06,14.86 42.08,31.82l60.02 38.08c-0.81,-23.08 2.95,-48.55 -11.34,-62.18 -7.82,-7.45 -16.22,-7.11 -24.93,-12.7 -7.89,-5.07 -14.18,-9.46 -21.71,-14.49 -13.97,-9.32 -32.02,-19.73 -43.76,-30.02 -12.33,-10.79 -25.41,-21.69 -40.85,-31.52 -130.61,-83.16 -335.87,-88.19 -466.71,-13.19 -27.78,15.92 -42.03,26.27 -63.91,46.03l-65.83 44.17c-7.77,4.48 -35.4,7.3 -33.86,38.71z"/>
   <path class="fil1" d="M389.8 976.97c3.65,-7.45 9.12,-10.31 13.99,-15.94 8.63,-9.97 3.51,-8.64 21.74,-8.56 14.44,0.06 16.47,-1.95 23.39,6.89 4.94,6.31 10.35,10.92 14.3,16.17 -3.18,12.75 -12.95,18.23 -17.24,29.14l7.48 6.18c-14.39,4.31 -40.99,8.25 -55.06,-0.32l6.24 -3.81c1.94,-1.6 1.01,-0.67 2.22,-2.24 -4.92,-9.53 -12.91,-16.81 -17.06,-27.5zm115.85 -9.47c-5.04,-2.47 -1.39,-3.73 -6.3,-6.44l-28.85 10.48c-3.83,-3.07 -11.63,-11.82 -15.06,-15.78 -8.2,-9.48 -8.33,-7.34 -3.64,-22.04 3.69,-11.57 1.86,-13.86 14.04,-17.77 7.45,-2.39 16.8,-5.83 24.97,-7.13 2.86,6.19 6.47,10.03 10.47,15.58 7.17,9.94 3.07,10.91 14.65,8.73 -1.58,15.64 -5.92,23.02 -10.28,34.37zm-171.74 -35.5c7.03,0.45 5.54,0.91 11.13,3.22 1.84,-4.87 14.55,-22.54 18.25,-26.57 8.01,1.78 15.77,4.47 23.58,7.1 9.72,3.26 9.77,7.65 12.79,17.6 4.17,13.75 6.42,11.39 -1.26,20.82 -4.61,5.66 -9.78,12.49 -14.85,16.8l-31.64 -10.57 -3.01 10.96c-8.77,-5.08 -14.6,-26.86 -15,-39.34zm190.48 -4.13l-3.37 1.53 1.22 -3.61c2.9,-6.61 7.5,-22.24 18.83,-22.82 1.73,13.67 -5.12,22.89 -16.68,24.9zm-212.71 -27.06c4.49,2.49 9.54,5.09 11.7,8.96 0.9,1.62 6.71,15.83 7.2,17.39 -11.46,-2.46 -25.72,-12.07 -18.89,-26.35zm198.79 9.91c2.4,-5.99 2.7,-4.52 5.87,-9.37 2.21,-3.39 10.75,-22.41 19.43,-25.67 12.79,16.22 -7.52,33.01 -25.3,35.04zm-194.02 -36.44c9.39,3.54 16.04,20.62 18.65,25.26 2.57,4.57 4.33,5.25 6.57,9.59 -11.1,-0.6 -18.42,-5.85 -23.63,-11.42 -8.4,-8.99 -8.62,-13.68 -1.59,-23.44zm190.26 14.93c1.98,-5.87 4.29,-6.31 4.83,-13.67 0.68,-9.12 -0.18,-10.67 3.12,-17.66 6.31,-1.53 7.59,-1.1 12.63,1.16 4.73,15.85 -5.26,28.38 -20.58,30.17zm-182.65 -31.34c23.46,-10.32 11.18,14.84 21.63,29.26 -14.81,1.5 -25.66,-14.21 -21.63,-29.26zm133.74 -23.82c13.27,1.14 36.63,21.39 42.34,33.7l-12.37 -1.17 -0.29 32.21c-2.8,6.23 -23.34,12.65 -31.25,11.32 -3.61,-0.61 -23.02,-15.8 -26.2,-18.38l-0.28 -37.02 30.57 -10.45 -2.52 -10.21zm-66.83 9.66c6.59,4.6 22.01,5.33 31.22,11.97l0.07 36.83c-2.72,2.15 -23.21,16.31 -25.15,16.93 -5.25,1.69 -27.35,-6.8 -31.83,-9.71l-0.29 -32.76 -15.92 2.05c4.67,-12.48 29.09,-33.28 46.13,-36.76l-4.23 11.45zm-87.61 -84.26c15.7,2.53 42.51,2.49 49.92,10.53 -9.79,7.29 -15.78,4.79 -22.91,14.83 -4.15,5.84 -10.96,16.1 -11.43,25.1 2.92,-3.85 5.2,-5.28 11.51,-7.21 -1.34,21.49 1.62,22.02 8.11,37.15 3.69,-5.26 1.18,-8.78 5.92,-15.15 2.91,3.49 3.06,7.13 4.68,11.52 1.26,3.41 3.64,7.63 5.27,9.96 -2.52,6.62 -5.19,6.01 -8.09,12.46 -4.56,-2.98 -6.42,-12.27 -23.74,-6.28 2.38,-10.39 5.81,-11.77 4.4,-25.51l-24.05 33.34c-5.91,9.34 -15.02,31.77 -11.65,45.47 7.25,-13.12 16.62,-39.65 26.69,-45.7l-0.12 8.1c-26.24,15.08 7.82,33.15 -28.53,51.01 -9.55,-28.75 3.66,-46.11 7.63,-71.45 -22.3,2.29 -28.37,12.16 -35.75,11.5 5.08,-6.92 8.27,-12.36 14.18,-19.22 5.26,-6.1 13.12,-10.69 17.44,-18.25l-20.14 -1.98c3.47,-9.33 22.19,-14.6 32.17,-20.73 -8.47,-7.35 -23.2,-4.58 -30.33,-19.02 19.8,2.36 33.35,7.55 49.2,-4.35 -9.74,-8.03 -8.33,-0.27 -20.4,-16.11zm221.97 16.32c11.67,12.93 34.05,3.98 48.8,4.76 -4.4,3.63 -5.96,7.51 -12.79,10.91 -5.81,2.89 -13.77,3.78 -18.49,7.46 10.25,4.11 31.69,12.33 32.92,21.13l-20.05 1.5c9.02,12.44 22.98,18.52 31.38,37.8 -10.53,-1.27 -18.89,-11.09 -35.28,-11.43 5.52,31.23 15.24,33.45 8.09,71.46 -6.51,-3.77 -4.02,-5.11 -12.48,-7.88 -1.09,-13.13 -5.42,-10.2 -1.71,-24.6l9.25 18.55c2.44,-26.24 -9.94,-44.19 -23.03,-60.98l-10.22 -14.57c-2.03,-2.11 -0.29,-0.6 -2.84,-2.35 -0.27,10.93 0.73,13.02 3.66,22.06 -6.48,4.42 -9.8,2.53 -17.41,9.85 -3.08,-3.53 -5.3,-7.77 -10.19,-10.59 1.24,-6.76 5.18,-20.79 10.68,-24.56l4.07 15.07c7.75,-8.68 9.28,-22.76 8.61,-36.6 7.3,1.63 5.91,3.32 11.72,6.82 -2.06,-9.76 -6.81,-19.43 -11.89,-25.11 -11.93,-13.34 -16.72,-10.19 -22.97,-14.55 10.34,-7.94 34.32,-7.85 50.55,-10.09 -3.79,8.67 -11.92,10.77 -16.95,13.54 -0.38,0.21 -1.5,0.91 -1.81,1.12l-1.64 1.31zm-55.68 -78.89c10.24,4.64 17.47,2.29 22.98,6.64 -13.64,4 -34.9,3.51 -42.49,-7.8 13.3,-7.36 7.02,-4.5 19.51,1.16zm-6.93 -15.14c4.45,-6.58 8.36,-7.29 10.18,-16.72 29.15,3.24 33.81,-5.13 31.48,11.84 -7.24,1.01 -7.42,-5.39 -21.62,-1.57 -7.12,1.91 -12.83,5.21 -20.03,6.45zm-5.57 -7.73c-7.96,-0.48 -10.67,-4.29 -12.78,-11.42l8.87 3.31c-1.31,5.8 -1.47,3.29 -0.2,5.63 9.7,-0.66 2.12,-3.67 8.04,-5.11 -0.64,5.46 -0.98,4.92 -3.92,7.59zm84.92 1.21c0.24,-0.19 0.59,-0.46 0.83,-0.65 0.07,-0.05 2.47,-1.72 2.56,-1.78 35.28,-23.87 71.61,-14.78 120.37,-17.37 80.43,-4.28 87.22,-24.1 114.78,-32.98 -27.13,55.7 -97.45,55.88 -108.28,66.92 39.63,3.15 56.07,-3.79 91.76,-8.38 -4.03,10.67 -25.5,22.48 -40.35,28.23 -17.25,6.68 -35.28,8.73 -54,12.43 1.59,1.71 0.39,0.8 2.66,2.48 2.77,2.05 -2.31,-1.11 1.88,1.23 20.8,11.63 59.28,5.8 80.13,3.85l-8.3 6.73c-33.51,18.74 -52.97,12.15 -86.53,8.96 2.73,5.69 6.57,7.7 12.81,11.22 17.57,9.91 38.63,11.48 49.36,16.34 -31.17,18.91 -57.48,7.6 -80.18,7.58 11.35,15.05 47.11,21.57 55.44,27.56 -12.99,11.58 -57.33,1.12 -74.85,-0.44 6.36,13.35 29.92,23.25 38.64,30.33 -31.83,3.16 -38.04,-6.02 -63.33,-14.18 2.78,9.25 17.73,24.93 22.76,29.9 -17.06,1.88 -45.77,-16.54 -49.65,-27.22l16.85 0.33c-3.27,-9.21 -17.94,-21 -25.76,-25.68 7.65,-11.19 20.91,-11.95 24.73,-33.04 -16.09,5.58 -30.23,17.3 -48.96,7.75 7.54,-6.94 17.28,-13.08 20.28,-25.9 -4.59,1.52 -28.86,13.59 -42.34,4.88 14.7,-8.71 23.7,-15.66 31.59,-30.89 11.81,-22.79 -0.02,-29.97 -7.31,-46.11l2.41 -2.13zm-457.97 5.52c38.63,7.53 55.88,12.23 93.83,8.04 -12.83,-7.52 -73.41,-15.34 -100.08,-50.19 -21.52,-28.12 -3.85,-12.84 9.12,-6.28 6.51,3.29 13.25,6.11 20.23,8.79 82.95,31.8 155.73,-4.68 201.85,35.85 -11.12,20.57 -23.99,37.03 7.14,64.91 2.79,2.5 4.8,4.79 8.42,7.5 3.51,2.63 6.6,3.23 7.46,6.59 -37.8,0.08 -13.14,3.13 -41.46,-6.42 3.99,15.18 16.24,17.96 20.56,26.48 -28.32,8 -27.92,-2.6 -48.95,-7.94 4.4,19.36 20.98,25.62 24.6,32.31 -12.74,10.99 -17.04,9.83 -25.69,25.69l16.85 0.17c-4.49,13.05 -30.42,25.37 -49.46,27.55 6.74,-10.26 17.88,-16.57 22.38,-30.2 -24.82,6.77 -30,16.2 -62.88,14.23 11.25,-9.63 33.14,-17.88 38.4,-30.71 -21.87,2.08 -55.48,11.88 -74.91,0.51 9.81,-6.81 41.82,-11.5 53.78,-27.15 -19.1,-0.09 -53.71,9.54 -78,-7.59 4.94,-2.91 26.2,-6.71 34.68,-10.27 10.64,-4.47 20.48,-8.63 26.9,-17.56 -21.25,2.34 -30.25,6.64 -53.57,2.49 -20.78,-3.7 -27.73,-10.17 -41.9,-16.13 7.02,-5.18 51.61,9.47 80.52,-6.01l3.43 -2.45c0.12,-0.45 0.53,-0.46 0.77,-0.72 -6.97,-3.17 -20.88,-4.3 -28.93,-5.95 -8.91,-1.83 -17.65,-4.34 -25.71,-7.51 -12.7,-5 -37,-17.49 -39.38,-28.01zm290.46 113.68l-3.21 1.7 2.59 -3.03c6.97,-11.57 19.58,-21.71 22.3,-38.68 -11.46,4.59 -8.3,10.23 -27.11,12.17 3.34,-7.18 20.67,-16.28 23.2,-36.27 -6.97,3.35 -7.23,5.98 -16,9.12 2.32,-5.42 4.99,-9.62 6.48,-16.48 1.14,-5.24 4.08,-12.65 4.33,-15.9l-10.19 3.57c1.49,-7.19 3.71,-10.73 6.1,-16.56 3.78,-9.2 -1.07,-7.39 -2.12,-15.56 -1.42,-11.06 10.58,-19.13 14.44,-27.2 -8.4,-8.01 -21.39,-7.88 -25.07,-20.6 22.73,-0.93 32.08,11.7 43.42,10.27 -3.49,-7.64 -7.95,-6.91 -11.2,-14.48 13.56,4.15 6.95,12.99 22.86,11.76 -4.77,-8.81 -17.44,-20.68 -19.8,-29.95 25.43,8.94 19.61,25.69 36.2,27.57l-2.74 -28.35c13.11,4.67 5.87,27.44 14.64,30.33 5.17,1.71 7.06,-2.08 7.58,-4.91 0.11,-0.62 0.32,-0.81 0.55,-1.18 -0.48,12.55 0.29,7.37 7.82,13.1 4.21,3.2 6.09,7.54 4.26,12.74 -8.91,10.17 -24.95,1.65 -35.28,-0.51 3.19,9.81 1.01,16.91 10.53,19.39 -5.41,7.09 -5.75,1.29 -12.64,14.79 -3.27,6.4 -5.27,11.82 -6.38,19.66l9.39 -4.84c-1.12,16.01 -0.03,18.54 4.71,30.96 0.24,-0.29 0.51,-0.72 0.64,-0.94 0.12,-0.22 0.46,-0.68 0.6,-0.96l2.01 -5.45c0.88,-2.63 1.41,-3.83 2.63,-5.94 5.66,4.77 1.75,6.23 15.55,16.73l3.31 -9.54c1.24,0.98 1.14,0.65 2.96,2.8 1.78,2.1 0.39,0.33 1.8,2.53 4.14,6.48 6.54,14.23 6.93,22.07 0.71,14.38 1.67,22.67 3.53,36.38 -11.74,-3.37 -21.7,-12.73 -26.36,-20.33 -13.26,5.3 -12.16,28.86 -19.25,39.91 -8.91,-7.35 -19.71,-29.74 -24.09,-43.24 -4.37,2.25 -22.74,20.45 -39.91,23.36zm-260.72 -116.16c-17.31,2.77 -50.63,-22.06 -63.15,-28.46 4.3,11.94 25.58,38.27 32.53,44.18 19.24,16.35 46.55,27.88 48.16,29.43 -31.93,6.05 -50.78,-12.39 -71.68,-21.09 3.81,11.48 24.28,29.25 34.06,36.12 20.23,14.2 27.03,12.26 51.08,19.67 -2.6,2.41 -0.61,1.36 -4.78,2.91 -1.98,0.73 -5.17,1.21 -7.13,1.44 -14.51,1.73 -30.09,-3.97 -44.1,-4.97 4.62,7.36 21.67,18.47 33.18,23.62 7.19,3.22 14,5.29 21.72,7.24l23.02 6.19c-18.3,6.51 -26.84,4.37 -46.58,6.02 5.91,6.52 22.51,12.71 33.06,15.99 15.17,4.71 27.85,4.55 44.33,4.84 -6.93,10.09 -23.9,9.66 -34.33,15 -1.91,0.98 -1.93,1.08 -2.99,1.95 26.87,9.07 38.06,6.5 66.8,2.57 -3.41,7.64 -16.07,14.18 -26.36,17.23l2.16 1.13c7.98,2.88 18.56,1.72 26.81,1.12 10.39,-0.75 17.18,-2.23 26.5,-4.97l-4.52 18.09c10.47,-5.48 22.1,-14.19 35.42,-16.46 -1.49,13.39 -7.84,25.15 -7.83,38.87 0.01,10.73 6.14,29.47 10.23,37.21 8.1,-6.71 3.56,-10.79 14.52,-15.37 6.11,2.18 9.61,7.53 15.96,11.43 9.33,5.73 5.87,8.63 9.01,19.94 21.4,77.13 118.12,100.15 172.45,38.58 8.1,-9.18 14.51,-23.04 18.75,-37.68 2.63,-9.08 1.38,-14.66 10.3,-18.73 10.59,-4.84 9.33,-7.14 15.01,-13.32 3.25,1.38 5.51,2.87 7.51,5.38l5.75 8.96c16.33,-28.46 7.55,-46.43 1.95,-74.98 15.04,1.16 25.65,12.1 35.44,16.8l-4.57 -18.72c15.18,4.06 32.97,7.2 49.26,5.05l6.56 -2.25c-10.32,-3.43 -21.78,-8.86 -26.74,-17.29 32.29,4.12 36.38,5.82 67.54,-2.46 -1.97,-1.83 0.61,-0.58 -4.07,-2.75 -8.23,-3.83 -31.13,-4.31 -33.17,-14.04 33.9,-1.85 52.5,-4.51 76.64,-20.69 -15.81,-2.95 -30.78,2.01 -45.1,-7.18 4.47,-2.33 59.53,-9.74 76.37,-36.62 -16,1.84 -41.47,11.83 -55.14,1.43 23.3,-7.43 31.67,-6.94 50.81,-20.11 8.72,-6 29.82,-26.71 34.16,-36.64 -10.22,5.26 -17.65,11.31 -30.18,16.04 -12.1,4.57 -26.45,7.04 -40.88,5.84 12.41,-11.92 32.13,-9.34 64.77,-49.97 5.24,-6.52 10.83,-15.52 14.82,-24 -19.96,6.8 -31.1,25.95 -61.71,28.61 11.75,-11.81 24.39,-14.74 40.98,-35.11 7.96,-9.77 23.8,-36.02 28.42,-50.26 -9.08,2.85 -18.81,14.13 -25.96,19.42 -30.42,22.48 -64.3,31.2 -103.97,33.76 -45.09,2.91 -99.33,-6.33 -138.72,20.27 -5.62,3.8 -6.93,6.84 -12.28,10.34 5.48,9.46 33.53,15.14 7.15,53.93 -14.78,21.72 -44.27,23.7 -51.84,6 6.1,0.61 10.1,2.9 15.8,0.03 0.12,-1.54 -10.01,-8.29 -11.81,-9.92 -4.84,-4.4 -7.02,-7.56 -10.66,-14.05 15.61,-2.33 25.71,-0.18 26.94,-17.78 -19.18,2.41 -16.92,4.74 -31.79,-4.55 3.19,-5.27 8.7,-7.24 16.57,-9.49 13.67,-3.91 11.53,0.41 19.43,6.12 4.42,-3.61 9.25,-14.51 5.23,-22.12 -4.47,-8.48 -15.72,-5.17 -24.61,-8.79 -5.79,-11.85 -2.15,-14.92 -18.37,-18.9 1.02,-9.58 2.73,-15.32 1.86,-25.52 -3.4,1.93 -0.9,-0 -3.59,2.91 -3.31,3.6 -5.3,9.77 -8.23,13.37 -4.29,-16.04 -5.05,-30.17 -23.18,-32.27 -0.04,6.9 0.89,17.55 -1.47,22.41 -5.36,-2.89 -2.7,-3.11 -7.2,-7.43 -8.74,-8.39 -19.17,-13.28 -32.23,-13.8 1.94,9.62 8.72,14.96 12.1,23.22 -5.21,-2.83 -7.18,-4.97 -13.71,-6.36l6.29 12.78c-13.13,-2.63 -25.02,-11.36 -41.33,-3.61 2.45,14.85 14.53,24.9 27.74,29.19 -2.57,9.03 -6.32,8.32 -9.25,15.33 -2.68,6.42 0.11,12.41 0.47,18.8 0.39,6.95 -7.19,26.08 -8.79,35.26 5.18,-2.58 3,-3.32 10.24,-5.13 -1.86,13.48 -7.61,24.58 -17.38,29.69 -12.67,6.62 -27.82,-0.73 -34.81,-7.24 -6.62,-6.17 -14.99,-18.38 -16.68,-29.77 -2.8,-18.85 7.44,-23.69 17.16,-30.37 -8.13,-16.59 -44.74,-27.21 -63.03,-29.46 -53.42,-6.6 -115.52,4.6 -164.62,-20.39 -15.75,-8.02 -48.37,-27.72 -53.58,-39.11 0.82,18.49 30.01,58.42 47.79,72.37 5.33,4.18 19.27,11.96 23.35,16.14z"/>
   <path class="fil1" d="M360.25 1169.65c-18.21,-13.73 -29.05,-24.27 -45.22,-37.32l-44.46 -39.49c-10.02,-10.83 -18.4,-17.29 -28.16,-26.82 -55.72,-54.41 -107,-117.99 -145.94,-185.5 -65.97,-114.37 -75.05,-233.13 -75.57,-366.7 -0.12,-29.94 -4.85,-79.38 12.4,-98.43 13.87,-15.32 18.79,-10.54 33.98,-20.99 10.35,-7.12 22.06,-14.51 33.39,-21.63 33.43,-21 32.29,-25.95 63.13,-48.33 116.27,-84.38 318.16,-90.33 448.73,-38.13 30.27,12.1 83.1,41.67 102.47,63.99 7.44,8.58 53.32,37.14 66.21,45.22 16.45,10.32 20.86,4.91 33.62,21.4 15.91,20.55 11.42,68.37 11.27,98.34 -0.92,183.11 -16.97,288.25 -119.95,434.02 -25.7,36.39 -47.36,58.6 -75.96,90.5 -17.08,19.05 -71.97,70.83 -92.34,87.16 -3,2.4 -4.55,4.45 -7.56,6.86 -25.53,20.46 -48.24,40.67 -75.87,61.64 -7.98,6.05 -23.81,19.84 -32.28,23.24l-61.88 -49.03zm-103.88 -945.33c28.86,-11.91 32.43,-15.1 65.76,-25.24 16.75,-5.1 25.25,-10.34 33.26,-4.51l23.26 17.31c1.83,1.74 1.03,0.85 2.25,2.71l-113.12 53.01c-7.69,-9.06 -11.03,-29.22 -11.4,-43.3zm206.78 -9.75c3.7,-4.47 8.21,-7.21 12.99,-10.53 20.62,-14.38 14.18,-14.37 30.06,-9.69 5.67,1.67 10.78,3.1 16.8,4.92 31.25,9.44 45.55,18.04 64.98,24.63 -0.55,22.5 -5.06,26.86 -10.67,44.57l-114.15 -53.89zm-84.65 -35.38c-59.86,1.18 -138.86,37.25 -184.51,74.16 -19.01,15.38 -16.28,14.06 -30.08,27.79 -6.94,6.91 -5.01,2.69 -14.47,14.49 -16.41,20.48 -21.69,24.25 -37.85,49.01 -4.56,6.98 -8.55,8.13 -15.92,12.98 -11.36,7.46 -22.85,14.92 -34.09,22.39 -12.92,8.59 -26.87,10.94 -36.54,21.32 -21.76,23.37 -18.97,58.21 -18.97,96.56 -0.01,71.76 2.48,147.18 14.87,216.46 19.1,106.77 65.56,193.4 130.35,273.42l19.52 23.95c35.28,39.38 67.9,73.11 107.08,108.5l31.15 26.8c15.85,14.44 99.36,81.2 113.59,89.61 13.44,-7.95 97.87,-75.17 112.86,-88.91l23.13 -20.26c2.96,-2.9 4.89,-3.93 7.97,-6.57l73.34 -71.37c4.61,-5.2 9.79,-9.45 14.17,-14.74 27.09,-32.72 34.37,-38.66 64.26,-79.07 15.1,-20.41 31.97,-45.95 45.15,-70.61 29.59,-55.37 47.97,-99.81 60.77,-170.69 12.38,-68.6 14.94,-143.97 14.92,-215.08 -0.01,-38.79 3.03,-72.62 -18.31,-97.23 -9.79,-11.29 -23.44,-12.94 -36.33,-21.51 -8.75,-5.82 -45.57,-27.97 -50.32,-35.07l-24.41 -33.51c-4.76,-5.7 -9.01,-10.16 -13.35,-15.58 -7.39,-9.21 -11.6,-12.03 -21.09,-22.32l-39.91 -32.49c-43.96,-30.49 -112.75,-61.26 -168.7,-62.44 -14.09,-0.17 -29.55,-2.28 -44.16,-2.29 -14.39,-0.01 -30.13,2.15 -44.1,2.29z"/>
   <path class="fil2" d="M36.46 450.56c-1.54,-31.4 26.09,-34.22 33.86,-38.71l65.83 -44.17c21.88,-19.76 36.13,-30.11 63.91,-46.03 130.84,-75 336.1,-69.96 466.71,13.19 15.44,9.83 28.52,20.73 40.85,31.52 11.74,10.28 29.79,20.7 43.76,30.02 7.53,5.02 13.81,9.42 21.71,14.49 8.71,5.59 17.11,5.25 24.93,12.7 14.3,13.63 10.54,39.1 11.34,62.18l0.14 18.36 -1.84 83.57c0.58,63.87 -16.56,162.48 -36.53,212.32 -30.51,76.1 -70.27,133.09 -119.34,191.92l-99.41 101.7c-22.22,21.58 -110.7,92.87 -129.72,105.91 -6.67,-2.98 -27.89,-20.77 -35.4,-26.52 -45.81,-35.06 -75.26,-63.21 -116.82,-100.22l-46.92 -47.23c-5.24,-5.86 -9.64,-9.73 -14.66,-15.73l-42.88 -51.14c-33.99,-42.39 -69.11,-100.38 -91.78,-157.17 -22.38,-56.06 -35.24,-142.91 -37.15,-213.54l-0.35 -37.34c-2.83,-5.13 -2.91,-94.33 -0.22,-100.05zm385.68 768.12c8.47,-3.4 24.31,-17.19 32.28,-23.24 27.63,-20.97 50.34,-41.17 75.87,-61.64 3.01,-2.41 4.57,-4.46 7.56,-6.86 20.37,-16.33 75.26,-68.11 92.34,-87.16 28.6,-31.9 50.26,-54.11 75.96,-90.5 102.98,-145.77 119.04,-250.91 119.95,-434.02 0.15,-29.97 4.63,-77.79 -11.27,-98.34 -12.77,-16.49 -17.18,-11.09 -33.62,-21.4 -12.88,-8.08 -58.76,-36.64 -66.21,-45.22 -19.37,-22.32 -72.2,-51.89 -102.47,-63.99 -130.57,-52.21 -332.46,-46.25 -448.73,38.13 -30.84,22.38 -29.7,27.33 -63.13,48.33 -11.33,7.11 -23.04,14.5 -33.39,21.63 -15.18,10.45 -20.1,5.68 -33.98,20.99 -17.25,19.05 -12.52,68.49 -12.4,98.43 0.52,133.57 9.6,252.33 75.57,366.7 38.94,67.51 90.23,131.09 145.94,185.5 9.76,9.53 18.14,16 28.16,26.82l44.46 39.49c16.18,13.05 27.02,23.59 45.22,37.32l61.88 49.03z"/>
   <path class="fil2" d="M448.74 146.72c2.88,14.33 10.77,24.71 18.03,32.47 55.96,1.17 124.75,31.95 168.7,62.44l39.91 32.49c9.49,10.29 13.7,13.11 21.09,22.32 4.34,5.42 8.6,9.88 13.35,15.58l24.41 33.51c4.76,7.1 41.57,29.25 50.32,35.07 12.9,8.57 26.54,10.22 36.33,21.51 21.34,24.61 18.3,58.45 18.31,97.23 0.02,71.11 -2.54,146.48 -14.92,215.08 -12.8,70.88 -31.18,115.32 -60.77,170.69 -13.17,24.66 -30.04,50.2 -45.15,70.61 -29.89,40.41 -37.17,46.35 -64.26,79.07 -4.38,5.29 -9.56,9.54 -14.17,14.74l-73.34 71.37c-3.08,2.64 -5.01,3.66 -7.97,6.57l-23.13 20.26c-14.99,13.75 -99.42,80.96 -112.86,88.91 -14.23,-8.42 -97.74,-75.18 -113.59,-89.61l-31.15 -26.8c-39.18,-35.39 -71.81,-69.12 -107.08,-108.5l-19.52 -23.95c-64.79,-80.03 -111.24,-166.66 -130.35,-273.42 -12.39,-69.28 -14.88,-144.7 -14.87,-216.46 0,-38.34 -2.79,-73.18 18.97,-96.56 9.66,-10.38 23.61,-12.74 36.54,-21.32 11.24,-7.47 22.73,-14.94 34.09,-22.39 7.38,-4.84 11.37,-6 15.92,-12.98 16.16,-24.76 21.44,-28.53 37.85,-49.01 9.46,-11.8 7.52,-7.58 14.47,-14.49 13.8,-13.73 11.07,-12.41 30.08,-27.79 45.64,-36.92 124.65,-72.98 184.51,-74.16 7.17,-7.68 15.6,-18.11 18,-32.38 -4.04,-22.07 -6.9,-43.33 7.25,-64.34 5.24,-7.78 5.64,-5.59 12.64,-11.55 0.21,-11.7 -0.12,-23.02 0.53,-34.79 0.37,-6.7 0.75,-24.07 5.72,-29.28 3.36,3.54 3.62,8.12 4.32,13.46 0.7,5.37 1.11,10.37 1.42,15.82 0.66,11.8 0.32,23.08 0.5,34.79 7.67,6.52 7.63,3.89 13.24,12.4 13.64,20.69 10.7,41.8 6.63,63.4zm-24.77 1096.56l-2.23 0c-4,-0.68 -9.61,-4.96 -21.81,-14.92l-162.77 -136.83c-11.07,-8.83 -26.98,-28.21 -34.14,-35.33 -18.12,-18.03 -26.05,-28.41 -41.98,-46.31l-73.2 -101.93c-90.98,-152.54 -87.83,-274.42 -87.83,-456.38 0,-25.84 11.76,-48.69 26.86,-59.99 18.38,-13.76 19.03,-9.2 28.47,-14.95 8.02,-4.89 47.23,-30.43 50.97,-35.87 29.25,-42.44 63.39,-80.68 106.46,-109.2l40.99 -24.14c5.42,-2.69 9.49,-4.09 14.97,-6.74 20.7,-9.98 58.24,-20.76 83.59,-24.97 6.59,-1.09 12.86,-1.21 19.11,-2.6 11.32,-2.51 17.92,-23.19 17.92,-24.06 0,-17.06 -8.54,-30.04 3.48,-60.21 4.1,-10.3 8.55,-15.33 16.79,-20.84 0,-6.77 -0.06,-13.55 -0.05,-20.31 0.01,-7.83 1.32,-11.19 1.5,-18.77 0.24,-10.27 1.42,-28.95 11.58,-28.95 14.9,0 13.03,55.18 13.03,68.03 4.95,3.32 6.3,3.88 9.98,8.84 21.03,28.31 10.28,56.81 10.28,73.66 0,0.24 6.63,20.98 20.42,23 43.49,6.38 77.97,15.28 117.1,34.88 5.31,2.66 8.45,4.94 13.97,7.74 24.31,12.33 43.27,28.68 63.15,45.4 4.67,3.93 6.4,5.04 10.79,9.47 14.89,15.02 27.92,29.16 40.68,46.17 22.99,30.65 10.42,21.07 42.76,42.63l26.04 17.38c4.94,2.8 10.4,3.76 15.4,6.31 23.14,11.83 39.03,36.44 39.03,68.07 0,82.05 1.59,139.73 -8.42,221.71 -14.72,120.55 -48.81,199.61 -122.88,298.3 -15.98,21.29 -29.61,38.25 -47.83,57.83l-96.94 97.01c-13.56,13.75 -88.82,74.51 -105.2,87.3 -6.97,5.44 -12.97,10.09 -19.65,15.08 -3.35,2.5 -6.43,4.79 -9.93,7.44 -4.96,3.75 -7.5,6.49 -10.45,7.04z"/>
   <path class="fil2" d="M557.1 678.81c2.95,-1.92 3.92,-2.07 8.44,-3.28l24.56 -5.86c12.36,-1.64 28.11,-1.04 40.97,-0.75 49.31,1.12 52.13,-5.31 76.88,-5.82 -31.98,27.6 -77.77,14.74 -90.06,28.6 20.54,-0.35 31.4,5 49.68,7.02 18.23,2.01 36.19,-2.46 54.55,-0.66 -11,6.06 -34.45,11.32 -49,12.6 -24.3,2.14 -34.93,-1.5 -56.27,-5.25 31.07,25.78 57.13,23.45 72.36,34.25 -59.35,1.78 -67.86,-30.5 -95.51,-27.42 3.01,2.52 17.72,8.57 37.43,28.77 19.56,20.05 32.1,22.32 37.95,28.89 -51.91,2.05 -48.69,-18.08 -75.71,-31.59l22.21 38.45c8.25,11.53 20.7,16.72 33.64,25.83 -19.74,1.87 -35.82,-9.59 -51.14,-14.99 7.04,21.95 29.25,36.66 30.81,39.52 -15.53,1.36 -32.1,-14.08 -41.86,-20.35 -4.61,-2.96 -7.88,-4.12 -12.2,-7.85 1.37,-3.84 2.46,-4.02 5.91,-8.34 8.43,-10.54 9.51,-17.28 11.17,-32.15 -12.65,2.64 -20.13,8.64 -35.02,10.46 3.68,-11.17 9.35,-13.49 13.38,-35.34 -5.95,2.67 -9.66,5.59 -17.51,6.94 3.45,-11.41 9.89,-15.01 11.11,-30.29 1.27,-15.85 -4.51,-19.1 -6.79,-31.4zm-17.44 -1.45c7.29,16.15 19.12,23.33 7.31,46.11 -7.89,15.23 -16.89,22.18 -31.59,30.89 13.48,8.71 37.75,-3.36 42.34,-4.88 -3,12.82 -12.74,18.96 -20.28,25.9 18.73,9.55 32.86,-2.17 48.96,-7.75 -3.82,21.09 -17.08,21.85 -24.73,33.04 7.81,4.68 22.49,16.47 25.76,25.68l-16.85 -0.33c3.88,10.69 32.59,29.1 49.65,27.22 -5.03,-4.96 -19.99,-20.64 -22.76,-29.9 25.28,8.16 31.5,17.34 63.33,14.18 -8.72,-7.08 -32.28,-16.98 -38.64,-30.33 17.53,1.55 61.86,12.02 74.85,0.44 -8.33,-5.99 -44.09,-12.51 -55.44,-27.56 22.7,0.03 49.01,11.34 80.18,-7.58 -10.73,-4.86 -31.79,-6.43 -49.36,-16.34 -6.24,-3.52 -10.07,-5.54 -12.81,-11.22 33.56,3.19 53.02,9.78 86.53,-8.96l8.3 -6.73c-20.85,1.95 -59.33,7.77 -80.13,-3.85 -4.2,-2.35 0.88,0.82 -1.88,-1.23 -2.27,-1.68 -1.07,-0.77 -2.66,-2.48 18.72,-3.7 36.74,-5.76 54,-12.43 14.85,-5.74 36.32,-17.56 40.35,-28.23 -35.7,4.59 -52.13,11.53 -91.76,8.38 10.83,-11.04 81.15,-11.23 108.28,-66.92 -27.55,8.88 -34.34,28.69 -114.78,32.98 -48.76,2.6 -85.09,-6.5 -120.37,17.37 -0.09,0.06 -2.49,1.73 -2.56,1.78 -0.25,0.19 -0.6,0.46 -0.83,0.65l-2.41 2.13z"/>
   <path class="fil2" d="M228.64 691.64c-13.89,-13.16 -66.6,-3.13 -90.2,-28.63 15.86,1.27 31.41,4.97 48.31,5.94 26.22,1.51 80.56,-4.75 102.32,9.87 -2.41,10.79 -8.52,19.26 -6.82,33.21 1.42,11.7 9.52,18.93 11.25,28.64 -7.35,-1.25 -11.25,-4.64 -17.37,-6.93 3.16,15.8 9.35,23.18 13.33,34.99 -13.72,-0.92 -23.16,-6.87 -34.97,-10.27 0.53,8.54 2.14,17.01 5.36,23.86 3.78,8.06 9.8,11.08 12.11,16.78 -8.61,4.64 -16.97,10.55 -25.15,16.48 -7.64,5.54 -17.31,10.72 -29.62,12.64 2.74,-5.54 4.86,-5.71 9.4,-9.73 2.87,-2.54 5.45,-5.56 8.55,-8.73 5.06,-5.19 9.43,-14.4 13.08,-21.63 -9.29,0.92 -38.87,19.78 -51.1,13.75 14.42,-9.99 22.96,-10.73 33.24,-24.47l19.74 -36.23c-16.07,4.22 -26.62,35.29 -72.92,28.33 5.61,-4.72 14.35,-9.03 20.51,-13.19 12.46,-8.42 18.8,-16.95 26.63,-23.96 15.94,-14.25 16.87,-11.79 28.86,-20.01 -18.78,-2.75 -29.24,11.26 -44.09,17.74 -11.73,5.12 -37.65,11.63 -52.6,9.27 14.76,-6.77 54.75,-16.4 72.02,-32.62 -8.58,-0.03 -17.41,2.68 -26,3.64 -20.8,2.33 -63.25,-0.54 -77.97,-12.52 18.31,-0.48 35.77,3.06 54.62,0.81 18.41,-2.19 28.63,-6.92 49.49,-7.04zm-50.71 -2.84c-37.95,4.19 -55.2,-0.51 -93.83,-8.04 2.38,10.51 26.68,23.01 39.38,28.01 8.06,3.17 16.8,5.68 25.71,7.51 8.05,1.66 21.96,2.78 28.93,5.95 -0.24,0.26 -0.64,0.28 -0.77,0.72l-3.43 2.45c-28.91,15.49 -73.5,0.83 -80.52,6.01 14.16,5.96 21.12,12.43 41.9,16.13 23.31,4.15 32.31,-0.15 53.57,-2.49 -6.42,8.94 -16.25,13.09 -26.9,17.56 -8.48,3.56 -29.74,7.36 -34.68,10.27 24.28,17.13 58.9,7.5 78,7.59 -11.96,15.65 -43.97,20.34 -53.78,27.15 19.44,11.37 53.05,1.58 74.91,-0.51 -5.26,12.82 -27.15,21.07 -38.4,30.71 32.87,1.97 38.05,-7.45 62.88,-14.23 -4.51,13.63 -15.64,19.93 -22.38,30.2 19.04,-2.18 44.97,-14.49 49.46,-27.55l-16.85 -0.17c8.64,-15.87 12.95,-14.7 25.69,-25.69 -3.62,-6.69 -20.19,-12.95 -24.6,-32.31 21.03,5.34 20.63,15.94 48.95,7.94 -4.32,-8.53 -16.57,-11.3 -20.56,-26.48 28.32,9.55 3.66,6.5 41.46,6.42 -0.86,-3.37 -3.95,-3.97 -7.46,-6.59 -3.62,-2.71 -5.63,-5 -8.42,-7.5 -31.13,-27.88 -18.27,-44.34 -7.14,-64.91 -46.12,-40.53 -118.9,-4.04 -201.85,-35.85 -6.98,-2.68 -13.72,-5.5 -20.23,-8.79 -12.97,-6.56 -30.64,-21.84 -9.12,6.28 26.67,34.85 87.25,42.68 100.08,50.19z"/>
   <path class="fil2" d="M373.94 793.11l0.62 1.33c17.17,-2.91 35.54,-21.12 39.91,-23.36 4.38,13.5 15.18,35.89 24.09,43.24 7.09,-11.05 5.99,-34.61 19.25,-39.91 4.66,7.6 14.61,16.96 26.36,20.33 -1.86,-13.71 -2.81,-22.01 -3.53,-36.38 -0.39,-7.84 -2.79,-15.59 -6.93,-22.07 -1.41,-2.2 -0.02,-0.43 -1.8,-2.53 -1.82,-2.15 -1.71,-1.82 -2.96,-2.8l-3.31 9.54c-13.8,-10.5 -9.89,-11.96 -15.55,-16.73 -1.22,2.11 -1.75,3.32 -2.63,5.94l-2.01 5.45c-0.14,0.28 -0.48,0.74 -0.6,0.96 -0.13,0.22 -0.4,0.65 -0.64,0.94 -4.74,-12.41 -5.82,-14.95 -4.71,-30.96l-9.39 4.84c1.11,-7.84 3.11,-13.26 6.38,-19.66 6.9,-13.5 7.24,-7.7 12.64,-14.79 -9.53,-2.48 -7.35,-9.58 -10.53,-19.39 10.34,2.16 26.37,10.68 35.28,0.51 1.83,-5.19 -0.05,-9.53 -4.26,-12.74 -7.53,-5.73 -8.31,-0.55 -7.82,-13.1 -0.24,0.36 -0.44,0.55 -0.55,1.18 -0.51,2.82 -2.4,6.62 -7.58,4.91 -8.76,-2.9 -1.53,-25.67 -14.64,-30.33l2.74 28.35c-16.59,-1.88 -10.77,-18.63 -36.2,-27.57 2.36,9.27 15.03,21.14 19.8,29.95 -15.9,1.23 -9.3,-7.61 -22.86,-11.76 3.24,7.57 7.71,6.84 11.2,14.48 -11.33,1.43 -20.69,-11.2 -43.42,-10.27 3.67,12.72 16.66,12.58 25.07,20.6 -3.87,8.07 -15.87,16.14 -14.44,27.2 1.05,8.17 5.9,6.36 2.12,15.56 -2.4,5.84 -4.62,9.38 -6.1,16.56l10.19 -3.57c-0.25,3.24 -3.19,10.65 -4.33,15.9 -1.49,6.85 -4.17,11.05 -6.48,16.48 8.77,-3.14 9.03,-5.77 16,-9.12 -2.53,19.99 -19.86,29.09 -23.2,36.27 18.81,-1.94 15.65,-7.58 27.11,-12.17 -2.72,16.97 -15.33,27.11 -22.3,38.68z"/>
   <path class="fil1" d="M228.64 691.64c-20.87,0.13 -31.08,4.85 -49.49,7.04 -18.85,2.25 -36.31,-1.29 -54.62,-0.81 14.72,11.98 57.17,14.84 77.97,12.52 8.59,-0.96 17.42,-3.68 26,-3.64 -17.28,16.22 -57.27,25.85 -72.02,32.62 14.94,2.36 40.87,-4.15 52.6,-9.27 14.85,-6.48 25.31,-20.49 44.09,-17.74 -11.99,8.21 -12.92,5.76 -28.86,20.01 -7.83,7 -14.18,15.54 -26.63,23.96 -6.16,4.16 -14.9,8.48 -20.51,13.19 46.3,6.95 56.85,-24.11 72.92,-28.33l-19.74 36.23c-10.28,13.74 -18.82,14.48 -33.24,24.47 12.22,6.03 41.81,-12.83 51.1,-13.75 -3.65,7.23 -8.02,16.43 -13.08,21.63 -3.1,3.18 -5.68,6.19 -8.55,8.73 -4.54,4.02 -6.66,4.19 -9.4,9.73 12.3,-1.92 21.98,-7.09 29.62,-12.64 8.18,-5.93 16.53,-11.84 25.15,-16.48 -2.31,-5.7 -8.33,-8.73 -12.11,-16.78 -3.21,-6.85 -4.82,-15.32 -5.36,-23.86 11.81,3.4 21.24,9.35 34.97,10.27 -3.98,-11.81 -10.16,-19.19 -13.33,-34.99 6.13,2.29 10.03,5.68 17.37,6.93 -1.73,-9.71 -9.82,-16.94 -11.25,-28.64 -1.7,-13.95 4.41,-22.41 6.82,-33.21 -21.76,-14.62 -76.1,-8.36 -102.32,-9.87 -16.89,-0.97 -32.45,-4.68 -48.31,-5.94 23.6,25.5 76.32,15.48 90.2,28.63z"/>
   <path class="fil1" d="M557.1 678.81c2.28,12.3 8.06,15.56 6.79,31.4 -1.22,15.28 -7.66,18.88 -11.11,30.29 7.85,-1.35 11.55,-4.27 17.51,-6.94 -4.03,21.85 -9.7,24.18 -13.38,35.34 14.89,-1.82 22.37,-7.82 35.02,-10.46 -1.66,14.87 -2.74,21.61 -11.17,32.15 -3.45,4.32 -4.55,4.5 -5.91,8.34 4.32,3.72 7.59,4.88 12.2,7.85 9.76,6.28 26.32,21.71 41.86,20.35 -1.56,-2.86 -23.77,-17.57 -30.81,-39.52 15.32,5.41 31.39,16.86 51.14,14.99 -12.94,-9.11 -25.38,-14.3 -33.64,-25.83l-22.21 -38.45c27.02,13.51 23.8,33.63 75.71,31.59 -5.85,-6.58 -18.39,-8.85 -37.95,-28.89 -19.71,-20.2 -34.43,-26.25 -37.43,-28.77 27.65,-3.08 36.16,29.2 95.51,27.42 -15.23,-10.79 -41.29,-8.47 -72.36,-34.25 21.34,3.75 31.97,7.39 56.27,5.25 14.56,-1.28 38.01,-6.54 49,-12.6 -18.36,-1.79 -36.32,2.67 -54.55,0.66 -18.28,-2.02 -29.13,-7.37 -49.68,-7.02 12.29,-13.87 58.08,-1 90.06,-28.6 -24.76,0.5 -27.57,6.93 -76.88,5.82 -12.86,-0.29 -28.61,-0.89 -40.97,0.75l-24.56 5.86c-4.51,1.21 -5.48,1.36 -8.44,3.28z"/>
   <path class="fil2" d="M339.01 356.65l3.18 -26.25c2.61,4.72 12.9,26.27 12.84,30.53l-9.75 0.57c-3.51,2.93 -3.84,2.13 -8.98,2.33l2.72 -7.19zm38.55 -39.67c1.2,10.08 1.52,2.09 8.28,7.24l3 51.8c-11.57,0.92 -8.23,1.18 -20.27,-26.65 -4.24,-9.79 -10.03,-22.06 -15.4,-30.97l-18.24 1.71c-2.47,11.85 -4.72,22.42 -6.92,34.11 -1.07,5.65 -1.99,11.25 -2.86,17.1 -1.42,9.52 0.45,13.33 -8.16,13.53 -2.79,-3.57 -16.54,-43.66 -18.16,-50.68 13.48,-2.79 9.56,-2.19 9.45,-7.05 -5.14,-3.66 -29.02,3.39 -34.22,5.9l-0.93 47.04c-5.25,-10.16 -17.73,-32.53 -24.17,-40.13 -6.52,0.83 -30.01,7.43 -32.96,12.08 3.5,6.35 3.94,3.32 12.66,2.19l9.67 53.07c-6.44,1.93 -7.35,0.99 -5.59,6.69 3.94,1.85 8.56,-1.18 13.41,-2.81 15.09,-5.06 11.29,-1.01 11.51,-7.33 -0.29,-0.25 -0.81,-0.91 -1,-0.57l-3.46 -1.01c-1.14,-0.06 -4.67,0.59 -5.98,0.8l-11.03 -51.92c6.65,11.73 24.49,33.69 32.83,49.74l12.08 -2.82 1.75 -59.53c3.8,6.83 14.81,39.71 16.84,49.38 -7.44,5.6 -6.02,-1.19 -5.94,7.24 3.66,2.36 7.85,0.42 13.61,-0.89l31.95 -5.9c11.39,-4.05 -1.39,-6.64 -3.73,-7.69l0.97 -9.36 22.44 -3.86 3.4 9.5c-6.05,5.58 -4.45,-2.14 -5.28,6.62 0.34,0.25 0.91,0.07 1.13,0.55 0.99,2.15 20.48,-0.44 23.85,-0.66 7.05,-0.46 18.68,-0.65 25.41,-2.02 -0.29,-8.85 -2.55,-3.9 -9.89,-7.45l-1.89 -41.95c6.22,4.5 30.24,43.34 34.67,49.57l13.44 0.31 2.11 -59.16c8.22,-3.96 6.14,2.84 7.84,-5.78 -3.46,-4.48 -16.03,-2.95 -25.98,-2.99 0.38,10.53 0.73,4.49 8.3,8.78l-0.62 39.26c-4.25,-5.41 -15.12,-26.93 -32.19,-47.4l-25.72 2.35z"/>
   <path class="fil3" d="M396.51 146.81c9.16,-0.92 15.49,-4.33 26.14,-4.33 10.64,0 17.05,3.54 26.1,4.24 4.08,-21.6 7.01,-42.71 -6.63,-63.4 -5.61,-8.51 -5.57,-5.88 -13.24,-12.4 -0.18,-11.72 0.16,-22.99 -0.5,-34.79 -0.31,-5.44 -0.72,-10.45 -1.42,-15.82 -0.7,-5.34 -0.96,-9.92 -4.32,-13.46 -4.96,5.21 -5.35,22.58 -5.72,29.28 -0.65,11.78 -0.31,23.1 -0.53,34.79 -7,5.96 -7.4,3.77 -12.64,11.55 -14.15,21.01 -11.29,42.27 -7.25,64.34z"/>
   <path class="fil2" d="M277.94 846.57l-3.5 1.68c0.38,-6.66 -0.28,-1.48 1.81,-3.55 4.39,-5.08 8.35,-8.15 14.23,-12.91 4.02,-3.25 11.58,-7.63 14.4,-11.44l-0.53 -2.8 -20.13 -1.82c5.74,-6.18 20.54,-10.91 31.16,-12.45l-3.69 15.04 10.29 -2.12c-5.43,11.52 -26.59,28.63 -44.03,30.36zm46.91 -62.24l-6.42 9.04 -28.03 -5.37 34.45 -3.67zm-21.48 -24.86c12.07,15.84 10.66,8.08 20.4,16.11 -15.85,11.9 -29.4,6.71 -49.2,4.35 7.12,14.44 21.86,11.67 30.33,19.02 -9.98,6.13 -28.7,11.41 -32.17,20.73l20.14 1.98c-4.31,7.55 -12.18,12.14 -17.44,18.25 -5.91,6.86 -9.11,12.3 -14.18,19.22 7.38,0.67 13.46,-9.21 35.75,-11.5 -3.97,25.35 -17.18,42.7 -7.63,71.45 36.35,-17.86 2.29,-35.93 28.53,-51.01l0.12 -8.1c-10.07,6.05 -19.45,32.58 -26.69,45.7 -3.37,-13.7 5.74,-36.13 11.65,-45.47l24.05 -33.34c1.41,13.75 -2.02,15.12 -4.4,25.51 17.32,-5.99 19.18,3.29 23.74,6.28 2.9,-6.45 5.57,-5.84 8.09,-12.46 -1.63,-2.33 -4.01,-6.55 -5.27,-9.96 -1.63,-4.39 -1.78,-8.03 -4.68,-11.52 -4.74,6.37 -2.23,9.89 -5.92,15.15 -6.49,-15.14 -9.45,-15.67 -8.11,-37.15 -6.31,1.93 -8.6,3.35 -11.51,7.21 0.47,-9 7.28,-19.26 11.43,-25.1 7.13,-10.03 13.11,-7.53 22.91,-14.83 -7.4,-8.04 -34.22,-8 -49.92,-10.53z"/>
   <path class="fil4" d="M384.1 1085.52c-10.03,-40.86 34.88,-43.51 40.9,-19.71 10.03,39.65 -34.83,44.44 -40.9,19.71zm46.57 -15.23c0.36,0.3 0.85,0.61 1.13,0.85 0.27,0.23 0.77,0.55 1.07,0.84 4.44,4.22 3.41,4.44 3.41,13.78 -9.53,-0.25 -5.44,3.67 -5.61,-15.47zm-64.52 15.18c2.41,-2.36 9.39,-6.93 11.81,-8.48l1.02 8.61 -5.56 0.16 -1.45 0.06 -5.83 -0.35zm65.68 -25.59c10.8,-7.32 9.32,-8.36 22.28,-7.57l-0.01 34.66c3.38,8.49 0.6,-0.35 4.56,4.41 1.92,2.31 2.05,2.06 2.05,7.71l-26.3 -0.19c0,-16.09 2.4,-2 6.6,-11.92l0 -20.26c-7,-3.66 -1.61,6.99 -9.18,-6.83zm48.29 18.83c-0.18,-0.35 -0.46,-0.78 -0.53,-1.05 -0.07,-0.27 -0.37,-0.76 -0.44,-1.1 -0.61,-3.08 -0.19,0.83 -0.28,-2.49 -0.08,-2.79 0.32,-1.88 0.83,-4.01l8.58 -0.35c3.12,-3.12 4.02,-7.87 -1.12,-9.86 -6.73,-2.61 -5.38,1.93 -8.07,5.06l-11.12 -0.24 -0.18 -8.23c17.49,-10.24 46.92,-5.61 30.83,17.96 3.97,4.61 6.73,6.97 4.86,15.08 -2.95,12.73 -20.39,11.74 -28.89,9.15 -7.84,-2.39 -7.62,-4.8 -7.62,-13.29 23.05,0 8.22,10.05 20.44,6 4.58,-1.52 9.38,-13.26 -7.29,-12.64zm-138.56 -13.83c-2.75,-19.86 29.95,-16.3 34.01,-6.01 8.36,21.15 -21.29,18.76 -20.64,31.78l21.19 0.3 0 8.08 -35.45 0.05c0.11,-12.6 2.75,-17.04 10.09,-21.74 0.98,-0.62 20,-8.45 11.06,-16.55 -8.26,-4.68 -6.32,0.9 -8.92,2.81 -2.89,2.11 -6.46,1.28 -11.35,1.28zm164.96 7.34c2.6,-12.51 0.68,-22.02 -12.06,-25.21 -15.37,-3.85 -21.68,1.69 -31.41,6.24l-0.03 16.57 11.53 -0 0.15 10.61 -11.55 0.14c-3.2,6.16 1.82,2.83 -4.15,5.07l-0.75 -38.58c-24.85,0 -14.71,2.37 -31.28,9.35 -16.58,-17.96 -40.23,-10.1 -45.56,2.37 -12.06,-18.43 -31.67,-15.1 -45.19,-4.88l-0.01 15.66 16.4 0.71c-14.95,8.44 -17.56,16.43 -16.34,33.7l44.46 0.03 0.39 -11.32c4.57,7.6 12.49,13.25 25.65,12.43 13.13,-0.82 17.93,-7.82 22.7,-15.86l0.52 14.74c7.2,0 14.42,-0.05 21.61,0.02 15.85,0.16 11.34,0.29 16.06,-3.84 7.36,6.18 24.5,6.68 33.03,1.19 14.99,-9.64 4.45,-22.53 5.82,-29.14z"/>
   <path class="fil2" d="M533.65 818.74c0.72,-6.22 -1.49,-10.11 -2.7,-15.57 12.02,2.05 24.54,5.82 31.25,12.28 -9.16,0.61 -14.96,0.25 -22.04,3.63 8.57,9.91 24.22,15.78 31.12,28.59 -20.41,-4.03 -41.28,-17.82 -47.06,-31.45l9.42 2.51zm-7.46 -25.45c-1.67,-3.52 -3.68,-5.67 -4.68,-9.57 11.82,2.93 21.58,2.92 34.55,3.72 -7.14,5.33 -19.37,5.91 -29.86,5.85zm0.79 -18.82c0.31,-0.21 1.43,-0.91 1.81,-1.12 5.02,-2.77 13.15,-4.88 16.95,-13.54 -16.23,2.25 -40.21,2.15 -50.55,10.09 6.26,4.37 11.04,1.22 22.97,14.55 5.08,5.68 9.83,15.36 11.89,25.11 -5.81,-3.49 -4.42,-5.18 -11.72,-6.82 0.67,13.84 -0.86,27.92 -8.61,36.6l-4.07 -15.07c-5.51,3.78 -9.44,17.8 -10.68,24.56 4.89,2.82 7.11,7.06 10.19,10.59 7.62,-7.32 10.93,-5.43 17.41,-9.85 -2.93,-9.04 -3.93,-11.13 -3.66,-22.06 2.54,1.75 0.8,0.25 2.84,2.35l10.22 14.57c13.09,16.79 25.47,34.74 23.03,60.98l-9.25 -18.55c-3.71,14.4 0.62,11.47 1.71,24.6 8.46,2.77 5.97,4.11 12.48,7.88 7.15,-38.01 -2.57,-40.23 -8.09,-71.46 16.39,0.34 24.75,10.16 35.28,11.43 -8.4,-19.28 -22.36,-25.36 -31.38,-37.8l20.05 -1.5c-1.23,-8.81 -22.68,-17.02 -32.92,-21.13 4.72,-3.67 12.67,-4.57 18.49,-7.46 6.83,-3.4 8.39,-7.28 12.79,-10.91 -14.75,-0.79 -37.13,8.16 -48.8,-4.76l1.64 -1.31z"/>
   <path class="fil5" d="M506.71 215.66c2.59,-4.76 5.98,-7.51 10.01,-11.14 13.72,4.15 28.47,13.13 40.64,16.84 -0.3,6.71 -0.84,12.22 -4.71,17.95l-45.93 -23.65zm-43.55 -1.09l114.15 53.89c5.62,-17.72 10.12,-22.07 10.67,-44.57 -19.42,-6.59 -33.73,-15.19 -64.98,-24.63 -6.03,-1.82 -11.13,-3.25 -16.8,-4.92 -15.89,-4.68 -9.44,-4.69 -30.06,9.69 -4.77,3.33 -9.29,6.06 -12.99,10.53z"/>
   <path class="fil5" d="M328.57 204.3l9.09 11.36c-5.09,4.62 -39.1,21.37 -47.22,23.62l-3.61 -17.88 41.74 -17.1zm-72.19 20.02c0.37,14.07 3.71,34.23 11.4,43.3l113.12 -53.01c-1.21,-1.86 -0.42,-0.98 -2.25,-2.71l-23.26 -17.31c-8.01,-5.83 -16.51,-0.59 -33.26,4.51 -33.33,10.14 -36.9,13.33 -65.76,25.24z"/>
   <path class="fil4" d="M475.16 522.97l12.66 -0.01 0 12.37 -13.13 -0 0.48 -12.36zm-62.5 1.03l0.86 11.23 -11.73 -0.03c-2.23,-1.9 -1.63,2.27 -2.16,-5.4 -0.12,-1.74 0.34,-4.85 0.54,-6.61 4.18,-1.35 9.75,-2.39 12.49,0.81zm-20.39 -44.05l-8.71 -1.1 0 14.92c1.53,0 6.1,-0.23 7.28,-0.05 6.77,1.03 1.24,-0.55 3.92,2.04l0.09 10.73 -12.01 0.81c-0.92,29.15 6.56,1.16 6.07,28.03l-32.08 -0.65 0.01 -10.97 6.53 -2.38 -0.44 -40.81c-8.08,-6.46 -6.15,0.11 -5.97,-14.73l54.26 0c0,19.84 2.78,17.97 -16.09,17.97l-2.87 -3.82zm77.16 51.71c-15.98,10.64 -58.93,8.47 -57.72,-32.35 1.06,-35.62 30.74,-41 60.38,-28.87l-0.52 15.4 -18.24 0c-1.09,-7.09 1.65,-8.91 -5.96,-9.22 -14.7,-0.61 -17.59,15.97 -16.51,28.58 2.09,24.44 19.31,20.06 36.25,14.79 2.39,4.72 3.16,5.43 2.33,11.67zm-117.45 -51.13c2.76,6.19 0.81,-0.25 6.56,4.34 0,44.33 1.07,29.23 -6.48,34.74l0 20.14 41.85 0.48 0 -22.2c-8.3,-0.16 -6.16,1.94 -6.44,-6.27l11.44 0 0.66 -23 8.3 0.08c-1.3,13.92 -1.01,16.12 1.5,29.07l-14.1 0.33 0 21.58 23.14 0.53 0.42 -8.4c7.86,7.06 19.76,10.66 34.25,9.79 8.3,-0.5 11.48,-3.1 17.92,-2.24 7.48,1 13.93,0.79 21.8,0.79l0 -22.25c-25.2,0 -18.16,1.41 -25.31,-4.93 -9.02,5.41 -25.02,12.31 -30.2,-0.9 -1.97,-5.04 -5.84,-29.91 9.93,-30.08l0.74 8.68 29.07 0 -0.06 -20.4c-10.37,-18.87 -51.54,-10.75 -60.76,0.76l-0.69 -10.21 -62.91 0.07 -0.65 19.52z"/>
   <path class="fil2" d="M395.21 832.28c-17.04,3.48 -41.46,24.28 -46.13,36.76l15.92 -2.05 0.29 32.76c4.48,2.91 26.58,11.4 31.83,9.71 1.94,-0.62 22.43,-14.78 25.15,-16.93l-0.07 -36.83c-9.21,-6.64 -24.63,-7.37 -31.22,-11.97l4.23 -11.45z"/>
   <path class="fil2" d="M457.81 834.07l2.52 10.21 -30.57 10.45 0.28 37.02c3.18,2.58 22.59,17.77 26.2,18.38 7.91,1.33 28.45,-5.08 31.25,-11.32l0.29 -32.21 12.37 1.17c-5.72,-12.31 -29.08,-32.57 -42.34,-33.7z"/>
   <path class="fil2" d="M389.8 976.97c4.15,10.69 12.15,17.97 17.06,27.5 -1.22,1.57 -0.29,0.64 -2.22,2.24l-6.24 3.81c14.07,8.57 40.68,4.63 55.06,0.32l-7.48 -6.18c4.29,-10.91 14.06,-16.4 17.24,-29.14 -3.95,-5.25 -9.36,-9.86 -14.3,-16.17 -6.93,-8.84 -8.95,-6.83 -23.39,-6.89 -18.23,-0.07 -13.11,-1.4 -21.74,8.56 -4.87,5.63 -10.35,8.49 -13.99,15.94z"/>
   <path class="fil2" d="M333.92 932c0.4,12.48 6.22,34.26 15,39.34l3.01 -10.96 31.64 10.57c5.07,-4.31 10.24,-11.14 14.85,-16.8 7.68,-9.42 5.43,-7.06 1.26,-20.82 -3.01,-9.95 -3.06,-14.34 -12.79,-17.6 -7.82,-2.62 -15.57,-5.32 -23.58,-7.1 -3.7,4.03 -16.41,21.7 -18.25,26.57 -5.59,-2.31 -4.1,-2.77 -11.13,-3.22z"/>
   <path class="fil2" d="M505.65 967.5c4.36,-11.35 8.7,-18.73 10.28,-34.37 -11.58,2.19 -7.48,1.22 -14.65,-8.73 -4,-5.55 -7.6,-9.39 -10.47,-15.58 -8.17,1.3 -17.52,4.74 -24.97,7.13 -12.19,3.92 -10.36,6.2 -14.04,17.77 -4.68,14.7 -4.56,12.56 3.64,22.04 3.42,3.96 11.23,12.71 15.06,15.78l28.85 -10.48c4.91,2.71 1.27,3.97 6.3,6.44z"/>
   <path class="fil6" d="M36.46 450.56c-2.69,5.71 -2.61,94.91 0.22,100.05l-0.38 -42.58c2.49,-5.73 54.13,-37.11 62.9,-42.69 24.04,-15.29 25.97,-18.25 45.01,-33.1 2.34,-1.82 4.91,-3.46 7.62,-5.4 13.66,-9.75 -2.13,-18.14 -11.97,-10.59 -5.4,4.14 -8.28,6.95 -13.31,11.3 -11.82,10.24 -74.82,51.11 -90.12,59.77l0.03 -36.76z"/>
   <path class="fil2" d="M482.94 327.68l6.16 32.68 -18.3 -1.69 12.14 -30.99zm-36.1 52.98l4.65 1.71c0.92,0.19 4.96,0.42 6.18,0.49 5.02,0.29 8.61,1.03 13.38,-0.04 0.4,-6.25 2.07,-2.66 -3.55,-6.39l0.91 -10.62 22.05 1.93 1.63 10.01c-4.77,2.75 -5.95,-0.66 -6.55,4.51 -0.6,5.19 20.47,6.06 27.89,6.69 1.75,-10.31 -2.85,-2.2 -5.27,-15.54 -1.52,-8.37 -8.69,-48.78 -13.15,-55.56l-17.92 -1.87c-2.56,9.6 -9.87,22.76 -14.01,32.74 -5.37,12.94 -6.41,19.95 -13.37,27.04 -3.61,3.68 -1.71,-3.49 -2.88,4.88z"/>
   <path class="fil2" d="M394.77 495.76l-12.09 -1.08 -0.39 -16.48c6.51,-1.22 6.01,-1.75 9.99,1.75l2.87 3.82c18.87,0 16.09,1.87 16.09,-17.97l-54.26 0c-0.18,14.84 -2.11,8.27 5.97,14.73l0.44 40.81 -6.53 2.38 -0.01 10.97 32.08 0.65c0.49,-26.87 -6.99,1.12 -6.07,-28.03l12.01 -0.81 -0.09 -10.73z"/>
   <path class="fil6" d="M396.51 146.81c-2.4,14.27 -10.82,24.7 -18,32.38 13.97,-0.15 29.71,-2.3 44.1,-2.29 14.61,0.01 30.07,2.12 44.16,2.29 -7.26,-7.76 -15.15,-18.14 -18.03,-32.47 -9.05,-0.7 -15.46,-4.24 -26.1,-4.24 -10.64,-0 -16.98,3.41 -26.14,4.33z"/>
   <path class="fil2" d="M469.43 531.66c0.83,-6.24 0.06,-6.94 -2.33,-11.67 -16.94,5.27 -34.17,9.65 -36.25,-14.79 -1.07,-12.6 1.81,-29.19 16.51,-28.58 7.61,0.32 4.88,2.13 5.96,9.22l18.24 0 0.52 -15.4c-29.64,-12.13 -59.32,-6.76 -60.38,28.87 -1.21,40.82 41.74,42.98 57.72,32.35z"/>
   <path class="fil0" d="M809.49 504.1l-0.14 -18.36 -60.02 -38.08c-26.02,-16.96 -23.83,-18.3 -42.08,-31.82 -7.29,-5.4 -8.78,-2.73 -16.6,0.86 -0.13,7.34 -1.27,5.5 3.78,9.16 3.68,2.67 4.57,2.86 7.69,5.32 20.07,15.77 18.23,16.08 44.07,32.62l63.29 40.3z"/>
   <path class="fil2" d="M513.92 322.76c-0.1,8.45 6.66,0.5 3.47,19.26 -3.65,21.46 -10.05,43.22 15.69,51.24 36.05,11.23 38.16,-23.74 44.4,-50.24 6.58,-3.55 4.96,2.23 7.89,-3.88 2.41,-5.03 -6.03,-5.24 -15.25,-7.6 -10.57,-2.71 -7.97,-1.56 -10.23,-0.1 -1.14,6.44 0.84,4.57 7.1,7.56 -3.68,18.65 -7.35,51.08 -23.86,49.75 -21.94,-1.77 -9.7,-37.74 -6.55,-54.42 2.21,-3.4 7.84,1.86 9.28,-4.61 1.14,-5.14 -3.66,-4.44 -8.93,-5.33l-17.46 -2.99c-7.59,-0.07 -2.88,-0.67 -5.54,1.35z"/>
   <path class="fil2" d="M601.27 401.26c-24.4,6.16 -19.7,-13.75 -19.68,-17.44l-8.69 -2.18 -4.87 16.87c0.99,0.31 46.08,27.28 52.75,-2.29 5.52,-24.47 -36.84,-32.3 -20.1,-47.65 6.14,-2.22 11.62,0.83 16.36,2.81l-0.54 13.51 8.6 2.49 5.37 -14.22c-7.86,-10.75 -44.21,-21.76 -50,-1.16 -7.4,26.35 31.25,26.41 20.8,49.25z"/>
   <path class="fil2" d="M408.49 1091.21c-10.63,1.03 -11.89,-1.84 -12.48,-12.86 -0.38,-7.11 0.04,-16.2 5.7,-18.23 14.29,-5.11 13.16,23.24 6.77,31.09zm-24.39 -5.69c6.07,24.73 50.93,19.94 40.9,-19.71 -6.02,-23.8 -50.93,-21.16 -40.9,19.71z"/>
   <path class="fil2" d="M488.28 1069.72c-2.73,1.51 2.84,0.42 -3.44,1.4 -1.56,0.24 -3.14,0.14 -4.71,0.15l0 7.44c16.67,-0.61 11.87,11.13 7.29,12.64 -12.22,4.05 2.61,-6 -20.44,-6 0,8.49 -0.22,10.9 7.62,13.29 8.49,2.59 25.94,3.58 28.89,-9.15 1.88,-8.11 -0.88,-10.46 -4.86,-15.08 16.09,-23.57 -13.34,-28.2 -30.83,-17.96l0.18 8.23 11.12 0.24c2.69,-3.13 1.35,-7.68 8.07,-5.06 5.14,2 4.24,6.74 1.12,9.86z"/>
   <path class="fil0" d="M663.2 389.22l-18.98 -4.13c1.77,4.1 8.96,13.76 9.16,16.09 0.27,3.07 -6.4,12.33 -8.34,17.07l17.82 -4.65 10.57 11.7c1.98,1.87 0.31,0.67 2.76,2.24l0.68 -18.37 16.53 -7.98c-2.24,-2.87 -12.9,-5.68 -16.88,-7.99l-1.48 -17.76c-3.06,0.93 -3.75,2.67 -5.98,5.55 -2.34,3.02 -4.25,5.55 -5.86,8.24z"/>
   <path class="fil2" d="M341.56 1064.88c4.89,0 8.47,0.83 11.35,-1.28 2.61,-1.91 0.67,-7.49 8.92,-2.81 8.93,8.1 -10.09,15.93 -11.06,16.55 -7.34,4.7 -9.98,9.14 -10.09,21.74l35.45 -0.05 -0 -8.08 -21.19 -0.3c-0.65,-13.02 28.99,-10.63 20.64,-31.78 -4.07,-10.29 -36.76,-13.86 -34.01,6.01z"/>
   <path class="fil0" d="M168.24 394.07l-16.87 6.24 16.43 8.04 1.12 19.02c0.34,-0.22 0.8,-1.03 0.95,-0.76 0.15,0.27 0.72,-0.58 0.92,-0.76 0.19,-0.18 0.64,-0.55 0.87,-0.77l8.89 -11.49 19.39 4.65c-2.68,-6.76 -7.01,-10.78 -9.02,-17.33l9.68 -15.68 -18.16 4c-5.47,-4.45 -7.55,-10.96 -12.94,-14.64l-1.27 19.48z"/>
   <path class="fil3" d="M286.82 221.4l3.61 17.88c8.12,-2.25 42.13,-19 47.22,-23.62l-9.09 -11.36 -41.74 17.1z"/>
   <path class="fil3" d="M506.71 215.66l45.93 23.65c3.88,-5.73 4.41,-11.24 4.71,-17.95 -12.17,-3.71 -26.92,-12.69 -40.64,-16.84 -4.03,3.63 -7.43,6.38 -10.01,11.14z"/>
   <path class="fil2" d="M441.01 1086.97c-4.21,9.92 -6.6,-4.17 -6.6,11.92l26.3 0.19c0,-5.65 -0.12,-5.4 -2.05,-7.71 -3.96,-4.75 -1.18,4.08 -4.56,-4.41l0.01 -34.66c-12.96,-0.79 -11.48,0.25 -22.28,7.57 7.57,13.82 2.18,3.17 9.18,6.83l-0 20.26z"/>
   <path class="fil7" d="M533.65 818.74l-9.42 -2.51c5.78,13.64 26.65,27.42 47.06,31.45 -6.9,-12.81 -22.55,-18.69 -31.12,-28.59 7.08,-3.37 12.87,-3.02 22.04,-3.63 -6.71,-6.46 -19.22,-10.23 -31.25,-12.28 1.21,5.46 3.42,9.35 2.7,15.57z"/>
   <path class="fil7" d="M304.35 817.56l2.43 2.04 -1.9 0.76c-2.81,3.81 -10.38,8.18 -14.4,11.44 -5.88,4.76 -9.84,7.83 -14.23,12.91 -0.39,2.17 -0.73,1.39 1.69,1.87 17.45,-1.74 38.6,-18.84 44.03,-30.36l-10.29 2.12 3.69 -15.04c-10.62,1.54 -25.41,6.27 -31.16,12.45l20.13 1.82z"/>
   <path class="fil8" d="M498.5 668.68c-1.26,1.81 0.78,4.67 -9.3,0.33 1.69,-0.8 3.31,-1.66 4.66,-1.79 9.24,-0.88 1.62,-0.42 4.65,1.46zm-35.78 13.08c7.21,-1.24 12.91,-4.54 20.03,-6.45 14.21,-3.82 14.39,2.58 21.62,1.57 2.33,-16.97 -2.33,-8.6 -31.48,-11.84 -1.81,9.44 -5.72,10.15 -10.18,16.72z"/>
   <path class="fil8" d="M324.02 887.45c1.7,4.62 3.32,7.64 4.53,11.91 -8.16,-2.87 -13.54,-8.89 -12.83,-19.41 6.97,0.15 6.11,1.54 8.31,7.49zm-7.57 -13.15c-7.03,9.76 -6.81,14.45 1.59,23.44 5.21,5.57 12.53,10.82 23.63,11.42 -2.24,-4.34 -4,-5.02 -6.57,-9.59 -2.61,-4.64 -9.26,-21.72 -18.65,-25.26z"/>
   <path class="fil8" d="M325.77 868.14c-0.95,-6.01 0.85,-7.7 5.9,-8.42 2.6,5.78 1.81,11.06 2.1,18.44 -4.79,-2.33 -7.06,-4.07 -8,-10.02zm-1.7 -10.25c-4.04,15.04 6.82,30.76 21.63,29.26 -10.44,-14.42 1.84,-39.57 -21.63,-29.26z"/>
   <path class="fil3" d="M403.83 1086.67c-4.49,-4.72 -5.36,-19.3 1.31,-22.33 3.88,3.96 5.64,19.32 -1.31,22.33zm4.66 4.53c6.39,-7.84 7.52,-36.19 -6.77,-31.09 -5.67,2.03 -6.08,11.12 -5.7,18.23 0.59,11.02 1.85,13.89 12.48,12.86z"/>
   <path class="fil8" d="M522.35 901.72c1.57,-4.79 3.33,-6.63 5.29,-12.24 2.34,-6.69 1.5,-7.76 7.85,-9.29 2.63,11.26 -4.76,18.55 -13.14,21.53zm-11.87 9.01c17.78,-2.03 38.09,-18.82 25.3,-35.04 -8.68,3.25 -17.22,22.28 -19.43,25.67 -3.17,4.86 -3.47,3.39 -5.87,9.37z"/>
   <path class="fil2" d="M517.81 880.13c0.48,-4.71 0.21,-8.95 0.58,-13.22 0.48,-5.44 0.71,-5.18 5.57,-5.75 5.07,6.3 2.13,15.38 -6.15,18.97zm-11.09 9.1c15.32,-1.78 25.31,-14.32 20.58,-30.17 -5.05,-2.27 -6.32,-2.7 -12.63,-1.16 -3.3,6.99 -2.44,8.54 -3.12,17.66 -0.55,7.36 -2.85,7.8 -4.83,13.67z"/>
   <polygon class="fil1" points="470.8,358.67 489.1,360.36 482.94,327.68 "/>
   <path class="fil2" d="M450.15 695.73c7.59,11.31 28.84,11.79 42.49,7.8 -5.51,-4.35 -12.73,-2 -22.98,-6.64 -12.49,-5.66 -6.21,-8.52 -19.51,-1.16z"/>
   <path class="fil7" d="M339.01 356.65l-0.77 6.06 7.03 -1.2 9.75 -0.57c0.06,-4.26 -10.23,-25.81 -12.84,-30.53l-3.18 26.25z"/>
   <path class="fil9" d="M321.15 917.93l1.95 2.79 -2.51 -2.3c-5.37,-3.18 -8.23,-6.18 -7.47,-14.69 5.68,1.89 6.71,6.72 8.02,14.2zm-9.46 -17.11c-6.83,14.28 7.43,23.89 18.89,26.35 -0.49,-1.56 -6.29,-15.77 -7.2,-17.39 -2.16,-3.87 -7.21,-6.47 -11.7,-8.96z"/>
   <path class="fil10" d="M530.36 921.31c0.44,-3.45 1.23,-6.12 2.4,-9.29 2.14,-5.8 1.46,-4.7 6.6,-6.61 -1.12,10.49 -2.69,12.06 -9.01,15.9zm-8.11 4.48c-0.09,2.57 -0.64,1.74 2.15,2.08 11.56,-2.01 18.42,-11.23 16.68,-24.9 -11.33,0.58 -15.93,16.2 -18.83,22.82z"/>
   <path class="fil1" d="M526.19 793.3c10.5,0.06 22.72,-0.52 29.86,-5.85 -12.97,-0.79 -22.73,-0.79 -34.55,-3.72 1.01,3.9 3.02,6.05 4.68,9.57z"/>
   <polygon class="fil2" points="474.68,535.33 487.82,535.33 487.81,522.96 475.16,522.97 "/>
   <polygon class="fil7" points="290.41,788 318.43,793.37 324.85,784.33 "/>
   <path class="fil0" d="M403.83 1086.67c6.95,-3.01 5.19,-18.37 1.31,-22.33 -6.67,3.03 -5.8,17.61 -1.31,22.33z"/>
   <polygon class="fil2" points="401.79,535.2 413.52,535.23 412.66,524 401.11,523.46 "/>
   <path class="fil11" d="M522.35 901.72c8.38,-2.98 15.77,-10.27 13.14,-21.53 -6.34,1.53 -5.51,2.6 -7.85,9.29 -1.96,5.61 -3.73,7.45 -5.29,12.24z"/>
   <path class="fil7" d="M328.55 899.36c-1.21,-4.27 -2.82,-7.29 -4.53,-11.91 -2.19,-5.96 -1.33,-7.34 -8.31,-7.49 -0.71,10.52 4.67,16.53 12.83,19.41z"/>
   <path class="fil11" d="M517.81 880.13c8.28,-3.59 11.23,-12.67 6.15,-18.97 -4.85,0.58 -5.09,0.32 -5.57,5.75 -0.37,4.27 -0.1,8.51 -0.58,13.22z"/>
   <path class="fil1" d="M333.77 878.16c-0.29,-7.38 0.5,-12.66 -2.1,-18.44 -5.05,0.72 -6.85,2.41 -5.9,8.42 0.94,5.96 3.21,7.7 8,10.02z"/>
   <path class="fil0" d="M436.29 1085.76c0,-9.34 1.03,-9.56 -3.41,-13.78 -0.31,-0.29 -0.81,-0.61 -1.07,-0.84 -0.28,-0.24 -0.76,-0.55 -1.13,-0.85 0.17,19.14 -3.92,15.22 5.61,15.47z"/>
   <path class="fil12" d="M457.15 674.02c2.94,-2.67 3.29,-2.13 3.92,-7.59 -5.91,1.44 1.66,4.46 -8.04,5.11 -1.27,-2.35 -1.1,0.16 0.2,-5.63l-8.87 -3.31c2.11,7.13 4.82,10.94 12.78,11.42z"/>
   <path class="fil11" d="M530.36 921.31c6.31,-3.84 7.89,-5.41 9.01,-15.9 -5.14,1.91 -4.46,0.81 -6.6,6.61 -1.17,3.17 -1.97,5.84 -2.4,9.29z"/>
   <path class="fil11" d="M320.6 918.41l0.55 -0.49c-1.31,-7.48 -2.34,-12.31 -8.02,-14.2 -0.76,8.5 2.1,11.5 7.47,14.69z"/>
   <path class="fil0" d="M366.15 1085.47l5.83 0.35 1.45 -0.06 5.56 -0.16 -1.02 -8.61c-2.42,1.55 -9.4,6.12 -11.81,8.48z"/>
   <path class="fil13" d="M394.77 495.76c-2.69,-2.59 2.85,-1.01 -3.92,-2.04 -1.17,-0.18 -5.75,0.05 -7.28,0.05l0 -14.92 8.71 1.1c-3.98,-3.5 -3.48,-2.97 -9.99,-1.75l0.39 16.48 12.09 1.08z"/>
   <path class="fil14" d="M401.79 535.2l-0.68 -11.74 11.55 0.54c-2.74,-3.21 -8.31,-2.16 -12.49,-0.81 -0.2,1.77 -0.66,4.88 -0.54,6.61 0.52,7.67 -0.07,3.5 2.16,5.4z"/>
   <path class="fil15" d="M489.2 669.01c10.08,4.34 8.05,1.48 9.3,-0.33 -3.03,-1.88 4.59,-2.34 -4.65,-1.46 -1.35,0.13 -2.97,0.99 -4.66,1.79z"/>
   <path class="fil16" d="M480.13 1078.71l0 -7.44c1.57,-0.01 3.15,0.1 4.71,-0.15 6.28,-0.98 0.71,0.11 3.44,-1.4l-8.58 0.35c-0.51,2.13 -0.91,1.21 -0.83,4.01 0.09,3.32 -0.33,-0.6 0.28,2.49 0.07,0.33 0.36,0.83 0.44,1.1 0.07,0.27 0.36,0.7 0.53,1.05z"/>
   <path class="fil17" d="M345.27 361.5l-7.03 1.2 0.77 -6.06 -2.72 7.19c5.14,-0.2 5.47,0.6 8.98,-2.33z"/>
   <path class="fil18" d="M277.94 846.57c-2.43,-0.48 -2.08,0.3 -1.69,-1.87 -2.09,2.07 -1.43,-3.11 -1.81,3.55l3.5 -1.68z"/>
   <path class="fil19" d="M524.4 927.87c-2.8,-0.35 -2.24,0.49 -2.15,-2.08l-1.22 3.61 3.37 -1.53z"/>
   <polygon class="fil19" points="304.88,820.35 306.78,819.59 304.35,817.56 "/>
   <polygon class="fil18" points="374.56,794.44 373.94,793.11 371.35,796.14 "/>
   <polygon class="fil20" points="320.6,918.41 323.11,920.71 321.15,917.93 "/>
  </g>
 </g>
</svg>
