<?xml version="1.0" encoding="UTF-8"?>
<!DOCTYPE svg PUBLIC "-//W3C//DTD SVG 1.1//EN" "http://www.w3.org/Graphics/SVG/1.1/DTD/svg11.dtd">
<!-- Creator: CorelDRAW 2020 (64 Bit) -->
<svg xmlns="http://www.w3.org/2000/svg" xml:space="preserve" width="229.116mm" height="334.135mm" version="1.1" style="shape-rendering:geometricPrecision; text-rendering:geometricPrecision; image-rendering:optimizeQuality; fill-rule:evenodd; clip-rule:evenodd"
viewBox="0 0 5399.88 7874.98"
 xmlns:xlink="http://www.w3.org/1999/xlink"
 xmlns:xodm="http://www.corel.com/coreldraw/odm/2003">
 <defs>
  <style type="text/css">
   <![CDATA[
    .fil1 {fill:#FEFEFE}
    .fil4 {fill:#FFF212;fill-rule:nonzero}
    .fil3 {fill:#ED3237;fill-rule:nonzero}
    .fil0 {fill:#3E4095;fill-rule:nonzero}
    .fil2 {fill:#201E1E;fill-rule:nonzero}
   ]]>
  </style>
 </defs>
 <g id="Camada_x0020_1">
  <metadata id="CorelCorpID_0Corel-Layer"/>
  <g id="_2005505651104">
   <path class="fil0" d="M2699.94 94.27c-443.96,0 -703.42,151.82 -990.59,319.85 -361.94,211.78 -766.45,448.42 -1615.07,456.88l0 5422.1c328.45,382.48 727.16,673.41 1168.89,908.26 444.65,236.41 932.79,416.04 1436.78,574.95 504,-158.91 992.14,-338.54 1436.78,-574.95 441.72,-234.86 840.44,-525.78 1168.89,-908.26l0 -5422.1c-848.62,-8.46 -1253.13,-245.1 -1615.07,-456.88 -287.17,-168.03 -546.63,-319.85 -990.59,-319.85zm-1038.1 238.83c299.07,-174.99 569.28,-333.1 1038.1,-333.1 468.82,0 739.02,158.11 1038.1,333.1 357.9,209.41 758.61,443.88 1614.71,443.88l47.14 0 0 5550.54 -11.23 13.22c-339.32,399.26 -751.37,701.21 -1207.74,943.85 -454.37,241.58 -952.77,424.35 -1466.98,585.99l-14 4.4 -13.99 -4.4c-514.21,-161.65 -1012.61,-344.42 -1466.98,-585.99 -456.36,-242.64 -868.41,-544.59 -1207.74,-943.85l-11.23 -13.22 0 -5550.54 47.14 -0c856.09,0 1256.81,-234.47 1614.71,-443.88z"/>
   <path class="fil1" d="M5305.61 6293.1l0 -5422.1c-848.62,-8.46 -1253.13,-245.1 -1615.07,-456.88 -287.17,-168.03 -546.63,-319.85 -990.59,-319.85 -443.96,0 -703.42,151.82 -990.59,319.85 -361.94,211.78 -766.45,448.42 -1615.07,456.88l0 5422.1c328.45,382.48 727.16,673.41 1168.89,908.26 444.65,236.41 932.79,416.04 1436.78,574.95 504,-158.91 992.14,-338.54 1436.78,-574.95 441.72,-234.86 840.44,-525.78 1168.89,-908.26z"/>
   <g>
    <path class="fil0" d="M4553.42 4811.7c-83.89,326.93 -221,494.22 -394.5,552.3 37.57,37.56 75.14,75.14 112.71,112.71 -154.75,661.44 -1413.88,1000.75 -1413.88,124.01l0 -2640.58 220.54 -281.21 176.16 0 0 -336.07 -396.71 0 0 -77.2c181.88,-70.5 312.08,-259.31 312.08,-481.26 0,-282.14 -210.37,-510.86 -469.88,-510.86 -259.51,0 -469.88,228.72 -469.88,510.86 0,221.95 130.21,410.76 312.08,481.26l0 77.2 -396.71 0 0 336.07 176.17 0 220.55 281.21 0 2640.58c0,876.74 -1259.14,537.43 -1413.89,-124.01 37.56,-37.57 75.14,-75.15 112.7,-112.71 -173.5,-58.08 -310.6,-225.37 -394.49,-552.3 -63.46,371.76 -44.77,702.42 11.28,1014.42 45.08,-48.85 90.17,-97.68 135.24,-146.54 151.38,345.04 445.04,565.52 1003.15,721.36 299.34,83.58 511.91,293.24 703.8,484.69 191.89,-191.45 404.47,-401.11 703.81,-484.69 558.09,-155.83 851.76,-376.32 1003.14,-721.36 45.06,48.86 90.16,97.69 135.24,146.54 56.05,-312 74.73,-642.66 11.28,-1014.42zm-2105.27 -3027.31l0 0c0,-151.18 112.74,-273.75 251.79,-273.75 139.07,0 251.8,122.57 251.8,273.75 0,151.2 -112.73,273.77 -251.8,273.77 -139.06,0 -251.79,-122.57 -251.79,-273.77z"/>
    <path class="fil2" d="M2860.57 4770.25c170.95,-170.93 341.9,-341.89 512.85,-512.84 528.3,-610.77 1327.54,-715.67 1498.2,-1645.84 0.28,-1.62 -0.15,-3.28 -1.18,-4.56 -1.06,-1.25 -2.63,-1.98 -4.25,-1.98 -258.87,0 -517.66,0 -776.47,0 -2.66,0 -4.93,1.86 -5.46,4.46 -88.96,446.76 -238.9,828.76 -504.89,1099.99l-879.41 896.94 -879.42 -896.94c-266.02,-271.23 -415.94,-653.21 -504.92,-1099.99 -0.53,-2.6 -2.79,-4.46 -5.44,-4.46 -258.8,0 -517.63,0 -776.44,0 -1.65,0 -3.21,0.73 -4.26,1.98 -1.05,1.28 -1.5,2.93 -1.2,4.56 170.63,930.21 969.9,1035.1 1497.93,1645.57 171.08,171.08 342.07,342.07 513.11,513.12l-1784.47 1820.04c-1.91,1.9 -2.13,4.88 -0.56,7.08l112.51 157.55c0.96,1.32 2.46,2.18 4.06,2.3 0.15,0.01 0.29,0.01 0.43,0.01 1.48,0 2.9,-0.58 3.95,-1.62 608.23,-608.25 1216.46,-1216.48 1824.7,-1824.73 608.28,608.28 1216.54,1216.55 1824.71,1824.73 1.05,1.05 2.46,1.62 3.94,1.62 0.15,0 0.3,0 0.44,-0.01 1.61,-0.13 3.11,-0.98 4.03,-2.3l112.52 -157.55c1.58,-2.2 1.33,-5.17 -0.54,-7.08l-1784.48 -1820.05z"/>
    <path class="fil3" d="M2703.85 4926.98c608.23,608.25 1216.47,1216.49 1824.72,1824.73l112.54 -157.55 -1784.46 -1820c-50.94,50.94 -101.88,101.88 -152.8,152.82z"/>
    <path class="fil3" d="M1816.58 3713.37c-267.11,-272.42 -417.3,-655.49 -506.39,-1102.8 -258.82,0 -517.64,0 -776.46,0 169.52,926.54 966.17,1030.65 1496.67,1642.95 170.93,170.93 341.86,341.87 512.79,512.8l152.89 -155.94 -879.49 -897.01z"/>
    <path class="fil3" d="M4089.7 2610.57c-89.07,447.3 -239.28,830.38 -506.39,1102.8l-2824.52 2880.8 112.52 157.55c832.74,-832.74 1665.47,-1665.46 2498.18,-2498.2 530.5,-612.31 1327.15,-716.42 1496.68,-1642.95 -258.84,0 -517.65,0 -776.49,0z"/>
    <path class="fil0" d="M1969.85 3154.68l164.7 49.85c-11.04,46.17 -28.47,84.69 -52.25,115.7 -23.8,31.01 -53.4,54.38 -88.66,70.09 -35.26,15.86 -80.15,23.65 -134.52,23.65 -66.14,0 -120.24,-9.62 -162.01,-28.75 -41.92,-19.25 -78.17,-53.1 -108.61,-101.53 -30.31,-48.43 -45.6,-110.32 -45.6,-185.8 0,-100.69 26.76,-178.15 80.29,-232.1 53.54,-54.1 129.3,-81.14 227.15,-81.14 76.62,0 136.8,15.43 180.7,46.45 43.9,31.01 76.47,78.6 97.71,142.74l-165.97 36.96c-5.8,-18.55 -11.89,-32.15 -18.27,-40.79 -10.48,-14.3 -23.37,-25.34 -38.51,-33.13 -15.3,-7.79 -32.29,-11.62 -51.12,-11.62 -42.49,0 -75.19,17.13 -97.86,51.41 -17.13,25.48 -25.77,65.42 -25.77,119.94 0,67.55 10.34,113.71 30.73,138.78 20.53,25.06 49.28,37.52 86.23,37.52 35.98,0 63.17,-10.05 81.58,-30.3 18.4,-20.11 31.72,-49.42 40.07,-87.95z"/>
    <polygon class="fil0" points="3275.29,2795.26 3450.87,2795.26 3679.87,3131.74 3679.87,2795.26 3857.03,2795.26 3857.03,3403.49 3679.87,3403.49 3452.01,3069.57 3452.01,3403.49 3275.29,3403.49 "/>
    <polygon class="fil0" points="1458.91,4451.87 1706.17,4451.87 1801.62,4821.92 1896.64,4451.87 2143.05,4451.87 2143.05,5060.09 1989.54,5060.09 1989.54,4596.32 1870.44,5060.09 1731.52,5060.09 1612.85,4596.32 1612.85,5060.09 1458.91,5060.09 "/>
    <path class="fil0" d="M3381.35 4451.82l279.27 0c54.94,0 99.41,7.51 133.39,22.38 33.84,15.01 61.89,36.39 83.98,64.29 22.09,28.03 38.09,60.47 48.15,97.56 9.92,37.1 14.86,76.33 14.86,117.81 0,65.01 -7.36,115.41 -22.22,151.26 -14.73,35.82 -35.27,65.85 -61.6,89.92 -26.19,24.2 -54.38,40.35 -84.56,48.42 -41.19,11.06 -78.58,16.56 -112.01,16.56l-279.27 0 0 -608.22zm187.92 137.78l0 0 0 332.23 46.03 0c39.36,0 67.26,-4.24 83.83,-13.03 16.56,-8.64 29.59,-23.94 39.08,-45.59 9.35,-21.68 14.03,-56.93 14.03,-105.66 0,-64.42 -10.49,-108.47 -31.45,-132.25 -21.1,-23.8 -55.93,-35.7 -104.66,-35.7l-46.87 0z"/>
    <path class="fil3" d="M3135.75 4369.43c-15.21,-0.99 -30.26,0.49 -44.37,4.38 -32.81,8.98 -60.58,30.35 -73.42,60.3l-75.74 176.64c-4.53,10.59 -6.89,21.48 -7.23,32.29l0 5.53c0.3,9.86 2.33,19.59 5.77,28.93l42.46 -70.74c9.89,-16.47 27.64,-24.82 45.5,-24.8 7.97,0 16.01,1.74 23.53,5.07l26.39 -59.85c-3.27,-7.35 -5.02,-15.32 -5.01,-23.42 0,-9.81 2.37,-19.8 7.22,-29l54.9 -105.31z"/>
    <polygon class="fil4" points="2699.96,237.93 2819.63,608.66 3209.2,607.91 2893.59,836.29 3014.68,1206.56 2699.96,976.98 2385.22,1206.56 2506.32,836.29 2190.7,607.91 2580.28,608.66 "/>
   </g>
  </g>
 </g>
</svg>
