<?xml version="1.0" encoding="UTF-8"?>
<!DOCTYPE svg PUBLIC "-//W3C//DTD SVG 1.1//EN" "http://www.w3.org/Graphics/SVG/1.1/DTD/svg11.dtd">
<!-- Creator: CorelDRAW 2020 (64 Bit) -->
<svg xmlns="http://www.w3.org/2000/svg" xml:space="preserve" width="192.385mm" height="223.814mm" version="1.1" style="shape-rendering:geometricPrecision; text-rendering:geometricPrecision; image-rendering:optimizeQuality; fill-rule:evenodd; clip-rule:evenodd"
viewBox="0 0 1898.57 2208.73"
 xmlns:xlink="http://www.w3.org/1999/xlink"
 xmlns:xodm="http://www.corel.com/coreldraw/odm/2003">
 <defs>
  <style type="text/css">
   <![CDATA[
    .fil2 {fill:#FEFEFE}
    .fil0 {fill:#373435}
    .fil1 {fill:#ED3237}
   ]]>
  </style>
 </defs>
 <g id="Camada_x0020_1">
  <metadata id="CorelCorpID_0Corel-Layer"/>
  <g id="_2005462546528">
   <path class="fil0" d="M949.29 2208.73c-656.79,-252.87 -1055.95,-815.16 -924.22,-1650.82 274.64,16.21 395.23,-113.5 361.78,-389.14 298.6,-225.01 826.28,-225.02 1124.88,0 -33.44,275.64 87.15,405.35 361.78,389.14 131.73,835.66 -267.43,1397.96 -924.22,1650.82z"/>
   <path class="fil1" d="M1310.26 1232.95l439.55 179.61c-8.21,19.98 -16.97,39.79 -26.25,59.43l-430.22 -198.96c6.37,-12.96 12.02,-26.34 16.92,-40.07zm-9.63 -281.52l543.5 -251.35c2.24,24.86 4.01,49.7 5.27,74.49l-533.58 218.03c-4.3,-14.09 -9.38,-27.82 -15.2,-41.17zm-1246.18 -251.35c-2.24,24.86 -4.01,49.7 -5.28,74.49l533.58 218.03c4.29,-14.09 9.38,-27.82 15.2,-41.17l-543.49 -251.35zm533.87 532.88l-439.54 179.61c8.21,19.98 16.97,39.79 26.25,59.43l430.21 -198.96c-6.37,-12.96 -12.02,-26.34 -16.92,-40.07zm-541.1 -404.36c-3.9,185.04 21.18,366.72 83.53,537.41l444.83 -176.97c-6.16,-27.24 -9.42,-55.57 -9.42,-84.67 0,-22.85 2.01,-45.23 5.86,-66.98l-524.79 -208.78zm517.52 1116.84c18.54,14.01 37.41,27.58 56.61,40.69l211.18 -516.79c-13.83,-4.43 -27.33,-9.6 -40.43,-15.5l-227.35 491.6zm501.32 -476.1l211.18 516.79c19.19,-13.12 38.07,-26.68 56.6,-40.69l-227.35 -491.6c-13.1,5.9 -26.6,11.08 -40.43,15.5zm-401.52 545.23c89.61,56.86 185.35,104.64 284.75,144.01 99.4,-39.37 195.14,-87.15 284.75,-144.01l-212.42 -533.92c-23.42,4.49 -47.61,6.86 -72.34,6.86 -24.74,0 -48.91,-2.37 -72.34,-6.86l-212.42 533.93zm1103.3 -648.56c62.35,-170.69 87.43,-352.38 83.52,-537.41l-524.8 208.78c3.84,21.75 5.86,44.13 5.86,66.98 0,29.1 -3.27,57.43 -9.42,84.67l444.84 176.97zm-372.75 -1216.05c-21.7,-11.53 -44.21,-22.1 -67.4,-31.71l-0.23 0.57 -254.51 622.83c13.99,4.77 27.61,10.33 40.82,16.62l281.33 -608.32zm-569.45 591.69l-254.51 -622.83 -0.23 -0.57c-23.19,9.61 -45.7,20.18 -67.4,31.71l281.33 608.32c13.21,-6.29 26.83,-11.86 40.82,-16.62zm453.52 -641.78c-205.63,-70.79 -454.1,-70.79 -659.73,0l21.37 53.71 229.12 575.91c25.61,-5.4 52.16,-8.26 79.38,-8.26 27.22,0 53.77,2.86 79.38,8.26l229.12 -575.91 21.37 -53.71z"/>
   <path class="fil2" d="M672.95 1257.6l63.03 -43.5 13.34 18.78 -35 40.95 50.91 -18.54 13.37 18.82 -63.03 43.51 -8.27 -11.64 49.62 -34.25 -58.38 21.91 -8.58 -12.08 40.88 -46.54 -49.61 34.25 -8.27 -11.65zm75.96 43.93c4.94,-6.01 9.98,-10.32 15.15,-12.95 3.82,-1.9 7.9,-3.12 12.21,-3.64 4.3,-0.49 8.34,-0.21 12.08,0.88 5.01,1.41 9.93,4.06 14.8,7.96 8.81,7.03 13.65,15.35 14.51,24.97 0.87,9.6 -2.64,19.21 -10.52,28.8 -7.83,9.53 -16.57,14.87 -26.23,16.05 -9.66,1.18 -18.89,-1.73 -27.66,-8.73 -8.9,-7.1 -13.77,-15.43 -14.63,-24.95 -0.85,-9.54 2.58,-19 10.28,-28.37zm12.76 9.53c-5.48,6.67 -8.07,12.99 -7.78,18.92 0.3,5.95 2.86,10.83 7.68,14.67 4.8,3.83 10.15,5.29 16.07,4.33 5.88,-0.96 11.63,-4.85 17.25,-11.69 5.54,-6.75 8.18,-12.99 7.92,-18.71 -0.27,-5.72 -2.91,-10.57 -7.87,-14.54 -4.99,-3.98 -10.39,-5.49 -16.19,-4.56 -5.8,0.94 -11.49,4.79 -17.07,11.58zm52.97 82.25l27.02 -57.11 -20.69 -9.51 5.5 -11.64 55.41 25.47 -5.5 11.63 -20.63 -9.48 -27.02 57.11 -14.09 -6.48zm59.46 -15.83c1.36,-7.61 3.65,-13.8 6.89,-18.56 2.41,-3.49 5.37,-6.51 8.89,-9.02 3.52,-2.49 7.19,-4.17 10.99,-5.01 5.08,-1.17 10.69,-1.19 16.86,-0.12 11.17,1.94 19.48,6.9 24.97,14.9 5.49,7.98 7.14,18.06 4.96,30.22 -2.16,12.07 -7.18,20.92 -15.05,26.58 -7.87,5.64 -17.37,7.51 -28.49,5.57 -11.27,-1.96 -19.63,-6.91 -25.07,-14.83 -5.43,-7.94 -7.08,-17.86 -4.96,-29.74zm15.85 2.24c-1.52,8.45 -0.67,15.21 2.5,20.27 3.19,5.06 7.83,8.1 13.93,9.16 6.09,1.06 11.49,-0.23 16.18,-3.9 4.68,-3.66 7.79,-9.79 9.34,-18.45 1.53,-8.56 0.76,-15.27 -2.28,-20.16 -3.06,-4.87 -7.74,-7.85 -14.04,-8.95 -6.32,-1.1 -11.78,0.16 -16.4,3.75 -4.61,3.6 -7.7,9.67 -9.23,18.28zm141.17 0.61l15.75 0.97c-0.21,8.58 -2.42,15.46 -6.65,20.65 -4.21,5.17 -10.34,8.75 -18.35,10.72 -9.91,2.43 -18.9,1.09 -26.97,-4 -8.07,-5.12 -13.58,-13.46 -16.51,-25.03 -3.1,-12.25 -2.29,-22.55 2.41,-30.91 4.7,-8.34 12.27,-13.81 22.74,-16.38 9.13,-2.25 17.22,-1.41 24.27,2.51 4.2,2.3 7.88,6.2 11.09,11.67l-14.05 7.18c-1.84,-3.61 -4.44,-6.17 -7.82,-7.69 -3.36,-1.52 -7.05,-1.78 -11.04,-0.8 -5.52,1.36 -9.53,4.42 -11.98,9.19 -2.45,4.76 -2.57,11.52 -0.35,20.29 2.35,9.3 5.71,15.52 10.12,18.62 4.39,3.13 9.31,4.01 14.73,2.68 4.01,-0.99 7.14,-3.08 9.39,-6.31 2.25,-3.21 3.32,-7.67 3.23,-13.37zm40.47 16.71l-35.83 -66.42 13.71 -7.19 29.74 55.13 34.1 -17.87 6.09 11.29 -47.82 25.06zm12.42 -88.37l11.54 -10.25 27.88 30.52c4.42,4.84 7.45,7.86 9.03,9.04 2.6,1.87 5.48,2.67 8.59,2.42 3.15,-0.25 6.33,-1.81 9.55,-4.67 3.28,-2.91 5.16,-5.76 5.61,-8.57 0.47,-2.78 -0.02,-5.3 -1.44,-7.51 -1.41,-2.23 -4.17,-5.57 -8.24,-10.03l-28.48 -31.18 11.54 -10.25 27.04 29.61c6.19,6.77 10.25,11.82 12.17,15.17 1.92,3.35 2.92,6.71 3,10.13 0.08,3.41 -0.77,6.94 -2.52,10.56 -1.77,3.63 -4.93,7.46 -9.46,11.47 -5.46,4.85 -10.16,7.91 -14.12,9.16 -3.96,1.26 -7.66,1.61 -11.11,1.09 -3.44,-0.53 -6.43,-1.66 -8.94,-3.38 -3.71,-2.56 -8.43,-6.99 -14.2,-13.3l-27.47 -30.07zm49.6 -44.56l17.64 -24.84c3.49,-4.92 6.31,-8.45 8.45,-10.57 2.12,-2.13 4.52,-3.69 7.2,-4.69 2.68,-1 5.55,-1.37 8.65,-1.13 3.09,0.24 6.01,1.3 8.73,3.18 2.95,2.03 5.1,4.69 6.46,7.95 1.34,3.28 1.68,6.68 1.01,10.21 3.8,-3 7.78,-4.61 11.91,-4.78 4.15,-0.17 8.03,1 11.67,3.51 2.87,1.97 5.19,4.55 6.97,7.74 1.77,3.18 2.66,6.47 2.66,9.86 0.01,3.38 -0.99,6.88 -2.98,10.49 -1.26,2.23 -4.7,7.38 -10.33,15.43l-15.02 21.15 -63.02 -43.5zm19.41 -5.31l14.57 10.05 5.84 -8.22c3.47,-4.89 5.56,-7.98 6.25,-9.26 1.27,-2.31 1.72,-4.52 1.35,-6.61 -0.38,-2.09 -1.58,-3.83 -3.63,-5.24 -1.95,-1.35 -3.9,-1.92 -5.87,-1.71 -1.97,0.23 -3.83,1.29 -5.56,3.21 -1.03,1.14 -3.64,4.67 -7.83,10.57l-5.11 7.2zm25.06 17.3l16.85 11.63 8.24 -11.6c3.22,-4.53 5.14,-7.48 5.73,-8.87 0.99,-2.1 1.22,-4.2 0.73,-6.29 -0.51,-2.09 -1.87,-3.92 -4.1,-5.46 -1.89,-1.31 -3.82,-1.95 -5.78,-1.96 -1.97,0 -3.86,0.63 -5.67,1.92 -1.81,1.3 -4.75,4.81 -8.8,10.51l-7.19 10.12zm-273.3 -248.04c20.11,14.57 35.11,71.11 35.11,138.61 0,66.27 -14.46,121.97 -34.02,137.76l-21 1.23c20.39,-13.9 35.68,-70.85 35.68,-138.99 0,-68.13 -15.28,-125.09 -35.68,-139l19.9 0.39zm27.51 0c20.11,14.57 35.11,71.11 35.11,138.61 0,66.27 -14.46,121.97 -34.02,137.76l-20.99 1.23c20.39,-13.9 35.67,-70.85 35.67,-138.99 0,-68.13 -15.28,-125.09 -35.67,-139l19.9 0.39zm27.51 0c20.12,14.57 35.11,71.11 35.11,138.61 0,66.27 -14.46,121.97 -34.02,137.76l-21 1.23c20.39,-13.9 35.67,-70.85 35.67,-138.99 0,-68.13 -15.28,-125.09 -35.67,-139l19.9 0.39zm249.4 69.54c3.82,2.06 7.7,3.53 11.61,4.39 -5.87,5.34 -12.86,9.16 -20.64,9.16l-6.52 0 -2.63 5.97c-2.97,6.73 -1,12.5 3.16,16.9 -11.66,4.23 -27.8,5.11 -36.44,4.13l-10.8 -1.24 -0.35 10.86c-0.28,8.48 2.65,11.45 5.71,14.75 -7.18,3.99 -16.81,5.73 -23.19,1.83l-8.02 -4.9 -5.39 7.7c-4.03,5.75 -4.28,12.16 -2.01,18.28 -32.24,8.75 -83.29,9.2 -104.17,-7.43 1.37,-15.58 1.52,-31.17 0.45,-46.74l12.09 -11.38c52.03,-109.6 141.26,-60.96 211,-113.25 -3.88,13.35 -11.28,25.56 -21.05,36.1l-7.45 8.04 8.68 6.69c7.12,5.49 14.95,6.38 22.92,5.68 -12.74,16.42 -32.44,17.53 -51.23,21.38l24.28 13.08zm-57.38 -28.01c-26.6,3.56 -81.84,46.07 -103.89,49.91 -15.65,2.73 53.12,-41.03 58.33,-44.37 28.16,-18.03 115.09,-14.86 45.56,-5.55zm0 28.96c-26.6,3.57 -81.84,46.07 -103.89,49.92 -15.65,2.72 53.12,-41.03 58.33,-44.37 28.16,-18.03 115.09,-14.86 45.56,-5.55zm-341.32 116.76c6.38,46.48 21.31,81.78 39.59,92.06l22.25 -0.41c23.95,-14.01 41.89,-70.91 41.89,-138.94 0,-70.57 -19.29,-129.15 -44.59,-140.33l-17.58 0c-13.3,4.73 -24.85,22.36 -32.64,47.42 7.88,4.38 15.12,9.7 21.93,15.67 3,-8.34 7.86,-13.96 13.74,-14.75 3.84,-1.33 7.67,-1.33 11.5,0 16.55,7.31 29.18,45.65 29.18,91.82 0,44.52 -11.73,81.74 -27.41,90.91 -5.12,3.29 -9.98,3.38 -14.56,0.27 -9.61,-5.11 -17.71,-20.85 -22.49,-42.36l-20.82 -1.35zm72.11 -63.66c-99.89,-131.12 -159.28,-50.04 -230.89,-123.81 2.52,19.82 16.27,39.74 35.03,59.82 -14.64,5.57 -23.28,3.14 -31.09,-0.43 4.23,10.24 14.52,17.78 28.96,23.47 -4.39,7.69 -11.77,10.4 -19.59,12.37 6.68,5.33 16.89,7.47 34.92,2.56 -0.99,10.74 -4.11,19.71 -11.92,24.75 9.51,5.55 23.57,6.54 42.15,2.99 4.58,9.15 8.31,18.41 0.44,27.53 10.81,9.84 26.11,11.86 44.27,10.44 2.43,4.69 -0.13,7.39 -3.41,9.81 33.92,5.83 69.26,8.11 107.72,2.56 4.92,-15.47 7.15,-35.34 3.41,-52.05zm-145.91 -22.38c26.61,3.57 81.85,46.07 103.89,49.91 15.65,2.73 -53.12,-41.03 -58.33,-44.37 -28.16,-18.03 -115.09,-14.86 -45.56,-5.55zm0 -28.96c26.61,3.56 81.85,46.07 103.89,49.92 15.65,2.72 -53.12,-41.04 -58.33,-44.37 -28.16,-18.03 -115.09,-14.86 -45.56,-5.55zm114.66 -3.56c18.44,-19.98 25.07,7.67 31.67,37.13 -9.21,-16.66 -19.77,-29.03 -31.67,-37.13zm-9.26 121.1c18.74,63.96 36.34,21.01 38.71,-3.05 -12.01,3.84 -24.84,5.26 -38.71,3.05zm107.19 -445.73c183.46,0 332.25,148.78 332.25,332.25 0,183.47 -148.79,332.26 -332.25,332.26 -183.47,0 -332.25,-148.78 -332.25,-332.26 0,-183.47 148.78,-332.25 332.25,-332.25zm7.61 23.85l0.02 0 0 0.03c23.3,0.01 44.42,9.47 59.69,24.74 3.91,3.91 7.42,8.19 10.51,12.8 5.95,-1.34 12.15,-2.03 18.5,-2.04l0 -0.03 0.07 0 0 0.03c23.3,0.01 44.42,9.47 59.69,24.74 15.24,15.24 24.68,36.32 24.69,59.61l0.03 0 0 0.07 -0.03 0c-0.01,23.3 -9.47,44.41 -24.74,59.69 -15.24,15.24 -36.32,24.67 -59.61,24.69l0 0.03 -0.07 0 0 -0.03c-23.31,-0.01 -44.42,-9.47 -59.69,-24.74 -3.91,-3.91 -7.44,-8.21 -10.52,-12.82 -5.95,1.34 -12.13,2.05 -18.48,2.05l0 0.03 -0.07 0 0 -0.03c-8.71,-0 -17.1,-1.33 -25.01,-3.78 -3.35,5.29 -7.29,10.19 -11.69,14.6 -15.24,15.24 -36.32,24.67 -59.61,24.69l0 0.03 -0.07 0 0 -0.03c-23.31,-0.01 -44.42,-9.47 -59.69,-24.74 -15.24,-15.25 -24.68,-36.32 -24.69,-59.61l-0.03 0 0 -0.07 0.03 0c0.01,-23.31 9.47,-44.42 24.74,-59.69 15.25,-15.24 36.33,-24.68 59.61,-24.69l0 -0.03 0.08 0 0 0.03c8.71,0 17.12,1.32 25.02,3.77 3.35,-5.29 7.27,-10.18 11.68,-14.59 15.25,-15.24 36.32,-24.68 59.61,-24.69l0 -0.03 0.05 0zm-40.59 158.43c-7.05,-3.87 -13.48,-8.7 -19.12,-14.34 -15.24,-15.25 -24.68,-36.33 -24.69,-59.61l-0.03 0 0 -0.08 0.03 0c0,-10.55 1.95,-20.66 5.49,-29.97 -5.57,-1.49 -11.42,-2.27 -17.45,-2.27l0 0.03 -0.08 0 0 -0.03c-18.67,0.01 -35.61,7.6 -47.87,19.87 -12.26,12.25 -19.85,29.19 -19.85,47.89l0.04 0 0 0.07 -0.04 0c0.01,18.67 7.61,35.61 19.87,47.88 12.25,12.25 29.19,19.85 47.88,19.85l0 -0.03 0.07 0 0 0.03c18.67,-0.01 35.61,-7.61 47.88,-19.87 2.89,-2.89 5.53,-6.05 7.86,-9.42zm-15.17 -112.51c7.04,3.87 13.46,8.72 19.09,14.36 15.23,15.24 24.68,36.32 24.69,59.61l0.03 0 0 0.07 -0.03 0c-0,10.55 -1.94,20.65 -5.48,29.96 5.57,1.48 11.41,2.28 17.44,2.28l0 -0.03 0.07 0 0 0.03c3.53,-0 6.99,-0.28 10.37,-0.81 -3.9,-9.71 -6.05,-20.3 -6.05,-31.41l-0.03 0 0 -0.07 0.03 0c0.01,-23.31 9.47,-44.42 24.74,-59.69 7.07,-7.07 15.39,-12.89 24.61,-17.11 -1.8,-2.33 -3.73,-4.54 -5.81,-6.62 -12.25,-12.26 -29.2,-19.85 -47.89,-19.85l0 0.04 -0.07 0 0 -0.04c-18.67,0.01 -35.61,7.61 -47.88,19.87 -2.89,2.89 -5.51,6.03 -7.84,9.4zm22.88 97.77c2.77,-7.39 4.28,-15.38 4.28,-23.73l-0.03 0 0 -0.07 0.03 0c-0.01,-18.67 -7.61,-35.61 -19.87,-47.87 -4.44,-4.44 -9.48,-8.28 -15.01,-11.35 -2.77,7.39 -4.29,15.39 -4.3,23.74l0.03 0 0 0.08 -0.03 0c0.01,18.67 7.6,35.61 19.87,47.88 4.44,4.43 9.49,8.26 15.02,11.33zm111.21 -90.74c3.91,9.71 6.07,20.32 6.07,31.43l0.03 0 0 0.07 -0.03 0c-0.01,23.3 -9.47,44.41 -24.74,59.68 -7.07,7.07 -15.4,12.88 -24.63,17.09 1.79,2.33 3.75,4.55 5.82,6.64 12.25,12.25 29.19,19.85 47.89,19.85l0 -0.03 0.07 0 0 0.03c18.67,-0.01 35.61,-7.61 47.88,-19.87 12.25,-12.25 19.85,-29.19 19.85,-47.89l-0.03 0 0 -0.07 0.03 0c-0.01,-18.67 -7.61,-35.61 -19.87,-47.87 -12.25,-12.26 -29.2,-19.85 -47.89,-19.85l0 0.03 -0.07 0 0 -0.03c-3.53,0 -7,0.27 -10.39,0.79zm-16.1 4.6c-8.04,3.43 -15.29,8.38 -21.39,14.47 -12.26,12.25 -19.85,29.19 -19.85,47.89l0.03 0 0 0.07 -0.03 0c0,9.52 1.98,18.59 5.54,26.81 8.05,-3.43 15.3,-8.37 21.4,-14.46 12.26,-12.25 19.85,-29.19 19.85,-47.89l-0.03 0 0 -0.07 0.03 0c-0,-9.52 -1.98,-18.59 -5.55,-26.82zm-372.66 149.85c34.92,62.42 108.93,46.47 160.74,61.77 7.96,-19.77 14.04,-38.58 36.47,-50.61 41.91,0.33 82.19,0.65 124.11,0.98 24.15,29.79 35.18,65.21 39.69,100.97 61.02,-126.27 165.68,-55.49 235.1,-134.7 1.36,24.9 -8.13,48.71 -26.61,68.65 9.17,7.08 23.93,2.35 33.12,0.74 -2.13,16.41 -19.01,34.53 -38.52,38.52 9.67,5.21 19.35,5.46 29.02,0.74 -11.16,19.85 -26.67,31.63 -42.79,31.63 -2.79,6.33 7.5,10.91 13.26,11.92 -10.29,12.9 -39.1,17.04 -56.83,15.01 -0.25,7.69 5.8,8.84 9.28,16.53 -13.85,14.67 -33.89,13.2 -41.98,8.26 -5.07,7.24 3.04,14.87 5.13,19.04 -32.43,10.01 -81.27,12.26 -116.76,-1.18 -8.23,50.17 -7.91,93.44 -45.3,125.77 -37,1.24 -73.99,2.48 -110.98,3.72 -32.95,-17.06 -45.48,-45.5 -58.05,-107.91 -13.72,-2.66 -23.44,-3.69 -28.38,-7.4 -4.21,-2.26 -5.69,0.12 -1.02,-6.08 -17.55,-0.28 -35.8,-8.04 -50.14,-18.95 3.54,-4.77 10.15,-8.28 8.1,-16.4 -17.36,2.77 -40.19,1.49 -57.54,-11.74 8.61,-3.97 15.69,-9.33 16.62,-16.08 -15.22,0.84 -29.46,-2.24 -40.19,-19.35 9.1,-1.44 15.47,-3.78 17.86,-7.44 -16.62,-6.46 -23.32,-25.84 -20.09,-44.19 8.44,8.18 15.82,16.82 28.56,12.61 -21.09,-15.38 -32.54,-45.57 -21.87,-74.84z"/>
  </g>
 </g>
</svg>
