<?xml version="1.0" encoding="UTF-8"?>
<!DOCTYPE svg PUBLIC "-//W3C//DTD SVG 1.1//EN" "http://www.w3.org/Graphics/SVG/1.1/DTD/svg11.dtd">
<!-- Creator: CorelDRAW 2020 (64 Bit) -->
<svg xmlns="http://www.w3.org/2000/svg" xml:space="preserve" width="190.771mm" height="203.546mm" version="1.1" style="shape-rendering:geometricPrecision; text-rendering:geometricPrecision; image-rendering:optimizeQuality; fill-rule:evenodd; clip-rule:evenodd"
viewBox="0 0 13562.62 14470.79"
 xmlns:xlink="http://www.w3.org/1999/xlink"
 xmlns:xodm="http://www.corel.com/coreldraw/odm/2003">
 <defs>
  <style type="text/css">
   <![CDATA[
    .fil2 {fill:#004282}
    .fil0 {fill:#006635}
    .fil4 {fill:#157358}
    .fil1 {fill:#FBD816}
    .fil3 {fill:#FEFEFE}
   ]]>
  </style>
 </defs>
 <g id="Camada_x0020_1">
  <metadata id="CorelCorpID_0Corel-Layer"/>
  <g id="Nacional_Manaus_AM.cdr">
   <path class="fil0" d="M7782.57 4794c166.21,63.73 491.53,67.33 842.18,62.32 167.69,-267.89 357.62,-482.22 631.03,-723.33 134.94,-113.19 86.55,-381.04 -64.08,-573.66 -439.51,-495.17 -455.67,-767.27 -317.06,-1209.17 211.08,-325.76 424.09,-690.24 587.82,-1079.13 122.99,-397.74 189,-802.75 194.47,-1271.02 396.52,404.93 530.97,932.14 574.64,1501.75 180.9,-351.24 267.82,-771.18 244.99,-1271.32 832.27,375.12 788.68,1151.94 576.06,2006.29 384.03,-353.88 695.61,-748.01 655.52,-1337.53 890.51,948.33 441.86,1819.92 -178.78,2681.67 521.9,-0.92 1008.98,-242.54 1436.84,-893.9 648.69,1420.55 -300.76,2259.9 -1410.35,2655.19 630.53,181.05 1272,154.44 1920.2,0 139.39,898.84 -605.1,1663.65 -2158.57,1794.4 690.43,435.72 1466.28,556.78 2245.14,603.34 -85.79,1050.62 -892.65,1516.53 -2320.37,1437.09 493.02,317.2 1111.06,313.47 1770.29,303.55 -658.77,690 -1386.01,1099.04 -2588.97,562.82 67.22,195.4 209.39,349.13 350.94,503.23 -512.19,-36.01 -880.86,-282.83 -1132.26,-701.87l-205.27 211.88c246.77,280.07 534.06,519.6 878.61,701.87 1474.58,-373.63 1689.64,128.06 1748.05,971.31 211.92,255.99 159.8,747.9 -130.73,1177.22 -181.3,-406.34 -394.81,-748.25 -714.77,-877.22 269.96,819.13 9.18,1294.61 -715.11,1469.95 110.45,-555.23 167.93,-1075.52 -105.94,-1377.25 -146.54,-245.25 -463.8,-157.75 -549.58,119.18l-185.39 476.75c-530.37,-485.09 -694.27,-983.84 -132.43,-1509.68l-622.41 -324.45c-464.63,1164.67 293.25,1912.3 1377.25,2251.28 -984.19,520.69 -2092.36,592.61 -2721.39,-516.47 123.47,640.5 645.55,1131.19 1801.02,1383.87 -1047.99,270.14 -1887.61,186.04 -2343.98,-549.57 42.55,250.52 260.29,507.53 809.22,843.53 -321.22,178.65 -595.25,188.66 -808.75,153.06 -77.39,-11.06 -154.93,-30.56 -233.22,-58.63 -226.99,74.78 -591.71,167.13 -1054.2,-90.1 548.92,-336 766.67,-593.01 809.22,-843.53 -456.36,735.61 -1295.99,819.71 -2343.98,549.57 1155.47,-252.68 1677.55,-743.38 1801.02,-1383.87 -629.03,1109.08 -1737.2,1037.16 -2721.39,516.47 1084,-338.97 1841.87,-1086.6 1377.25,-2251.27l-622.41 324.44c561.84,525.84 397.93,1024.59 -132.43,1509.68l-185.39 -476.74c-85.78,-276.94 -403.04,-364.44 -549.58,-119.18 -273.87,301.74 -216.39,822.02 -105.94,1377.25 -724.29,-175.34 -985.07,-650.81 -715.11,-1469.95 -319.96,128.97 -533.48,470.89 -714.77,877.22 -290.53,-429.33 -342.64,-921.24 -130.73,-1177.22 58.41,-843.26 273.47,-1344.94 1748.05,-971.31 344.56,-182.27 631.84,-421.8 878.61,-701.87l-205.27 -211.89c-251.4,419.04 -620.06,665.87 -1132.26,701.87 141.55,-154.09 283.72,-307.83 350.94,-503.22 -1202.95,536.21 -1930.19,127.18 -2588.97,-562.82 659.23,9.91 1277.27,13.65 1770.29,-303.55 -1427.72,79.45 -2234.58,-386.47 -2320.37,-1437.09 778.87,-46.56 1554.72,-167.63 2245.14,-603.35 -1553.47,-130.74 -2297.97,-895.56 -2158.57,-1794.4 648.2,154.45 1289.67,181.05 1920.2,0 -1109.59,-395.28 -2059.04,-1234.63 -1410.35,-2655.18 427.86,651.35 914.95,892.97 1436.84,893.89 -620.64,-861.74 -1069.29,-1733.33 -178.78,-2681.66 -40.09,589.52 271.49,983.64 655.52,1337.52 -212.61,-854.35 -256.21,-1631.17 576.06,-2006.28 -22.83,500.13 64.09,920.07 244.99,1271.31 43.67,-569.59 178.12,-1096.82 574.64,-1501.75 5.47,468.27 71.48,873.28 194.48,1271.03 163.71,388.89 376.73,753.36 587.81,1079.12 138.61,441.9 122.45,714 -317.06,1209.18 -150.63,192.62 -199.02,460.47 -64.08,573.65 273.41,241.12 463.35,455.45 631.03,723.34 329.73,4.71 647.07,4.34 818.05,-57.96 46.35,-16.9 146.77,-73.61 174.26,-113.34 45.51,-65.78 35.55,-162.23 -122.44,-212.81 -235.01,-48.45 -498.5,-1.93 -771.98,77.84 -137.96,-754.35 30.92,-1270.04 700.16,-1396.56 131.7,-346.09 503.35,-487.6 1081.35,-453.16 333.27,-15.26 661.88,-52.35 981.07,-133.39 54.84,224.26 66.96,527.84 22.66,742.62 105.26,-53.01 223.91,-189 340.84,-347.04 50.6,264.45 86.19,534.92 -41,850.65l144.34 -82.43c0.61,203.42 -39.91,383.61 -117.8,542.67 -101.46,148 -219.9,302.5 -380.03,416.76 -61.65,52.53 -87.76,60.01 15.21,99.49z"/>
   <path class="fil1" d="M7668.34 4635.75c-95.39,88.28 -99.13,170.7 46.3,243.59 285.57,80.01 613.49,82.19 985.63,61.2 168.44,-277.74 364.52,-504.85 661.63,-783.96 117.5,-131.44 99.71,-291.86 30.36,-463.34 -166.05,-343.62 -529.7,-544.67 -498.13,-1030.87 3.07,-195.23 112.85,-439.72 354.37,-745.02 322.1,-518.89 462.44,-1083.22 491.04,-1675.5 282.63,441.36 387.89,977.32 395.36,1565.42 271.27,-335.69 421.32,-801.94 454.13,-1394.45 641.84,422.99 572.31,1193.75 266.42,2087.41 433.06,-272.96 804.86,-629.71 946.38,-1302.03 586.05,774.81 204.28,1617.78 -512.9,2484.36 615.46,21.27 1184.58,-137.63 1634.88,-758.67 483.37,1262.22 -386.5,1950.35 -1720.36,2441.62 703.73,255.47 1437.09,283.97 2195.86,117.55 -29.8,882.15 -825.24,1478.1 -2377.51,1576.1 675.71,494.73 1484.7,733.18 2398.88,769.35 -163.25,1070.32 -1137.77,1353.25 -2548.48,1212.8 257.84,341.42 875.36,526.04 1848.58,555.64 -676.36,683.19 -1478.74,755.58 -2393.54,283.17 -37.15,199.7 62.43,307.55 183.24,504.8 -404.09,-86.64 -663.6,-403.79 -862.07,-743.49l-336.29 431.03c273.8,310.27 590.72,585.27 968.8,810.23 1403.71,-395.27 1639.64,103.11 1654.48,621.61 -283.24,-233.75 -453.73,-260.76 -566.33,-181.65 777.71,370.15 855.75,834.01 571.67,1346.36 -195.72,-410.1 -454.05,-725.02 -886.89,-774.69 373.94,902.45 70.38,1249.21 -400.7,1458.56 10.11,-265.28 32.43,-540.74 13.5,-781.83 -19.72,-251.18 -84.21,-465.06 -253.92,-591.24 -456.67,-339.78 -659.7,204.66 -801.4,560.99 -367.21,-396.92 -561.68,-817.61 106.85,-1357.05l-865.52 -438.11c-356.96,882.34 -302.67,1723.54 1143.34,2425.59 -1179.88,433.58 -2091.84,257.18 -2527.11,-1004.43 -172.27,941.63 437.23,1476.75 1453.22,1800.49 -933.7,269.49 -1624.65,-27.41 -2035.58,-977.71 -66.56,459.56 58.5,902.1 705.24,1298.28 -264.87,84.49 -533.37,89.68 -805.92,5.25 -272.56,84.44 -541.06,79.24 -805.92,-5.25 646.74,-396.18 771.79,-838.71 705.23,-1298.28 -410.93,950.3 -1101.88,1247.21 -2035.57,977.71 1015.99,-323.75 1625.5,-858.86 1453.22,-1800.49 -435.26,1261.61 -1347.22,1438.01 -2527.1,1004.43 1446.01,-702.05 1500.3,-1543.26 1143.34,-2425.59l-865.52 438.11c668.53,539.44 474.06,960.13 106.85,1357.05 -141.71,-356.32 -344.73,-900.77 -801.41,-560.99 -169.71,126.18 -234.2,340.06 -253.92,591.24 -18.93,241.09 3.39,516.55 13.5,781.83 -471.08,-209.35 -774.64,-556.11 -400.7,-1458.56 -432.84,49.67 -691.17,364.59 -886.89,774.69 -284.07,-512.36 -206.04,-976.21 571.68,-1346.36 -112.61,-79.11 -283.09,-52.1 -566.33,181.65 14.84,-518.51 250.77,-1016.88 1654.48,-621.61 378.08,-224.96 695,-499.96 968.8,-810.23l-336.29 -431.03c-198.46,339.7 -457.98,656.85 -862.07,743.49 120.82,-197.25 220.4,-305.1 183.24,-504.8 -914.8,472.41 -1717.18,400.02 -2393.54,-283.17 973.22,-29.6 1590.74,-214.22 1848.58,-555.64 -1410.71,140.45 -2385.23,-142.48 -2548.48,-1212.8 914.19,-36.17 1723.17,-274.61 2398.88,-769.35 -1552.26,-98 -2347.71,-693.94 -2377.51,-1576.1 758.77,166.42 1492.13,137.93 2195.86,-117.55 -1333.86,-491.27 -2203.73,-1179.39 -1720.36,-2441.62 450.29,621.04 1019.43,779.94 1634.88,758.67 -717.18,-866.58 -1098.95,-1709.55 -512.9,-2484.36 141.52,672.32 513.32,1029.07 946.38,1302.03 -305.89,-893.66 -375.42,-1664.43 266.42,-2087.41 32.81,592.51 182.86,1058.76 454.13,1394.45 7.47,-588.1 112.73,-1124.06 395.37,-1565.42 28.6,592.27 168.95,1156.61 491.04,1675.5 241.52,305.3 351.29,549.79 354.36,745.02 31.57,486.2 -332.09,687.25 -498.12,1030.87 -69.36,171.48 -87.14,331.9 30.36,463.34 297.11,279.11 493.19,506.21 661.63,783.96 372.13,20.99 700.05,18.8 985.63,-61.2 186.45,-96.31 289.66,-218.24 139.95,-417.98 -144.19,-137.85 -568.56,-97.46 -878.58,-11.25 -55.16,-547.21 -21.04,-1044.46 650.13,-1185.27 136.89,-317.18 428,-454.38 888.92,-464.75 356.68,4.12 709.98,-22.07 1058.05,-95.49 57.14,230.34 45.07,538.93 -35.58,780.02 183.34,-59.92 321.53,-146.91 418.75,-258.51 44.1,358.29 -53.19,590.92 -241.63,742.52 90.61,31.73 188.21,7.54 287.45,-29.75 -33.64,271.39 -166.91,511.63 -476.16,696.87z"/>
   <path class="fil2" d="M6782.02 4890.26c1.66,1.27 3.34,2.52 5,3.79 1.66,-1.27 3.35,-2.52 5,-3.79 234.23,158.75 485.74,267.86 751.13,337.02 426.19,95.72 957.87,107.49 1601.47,30.17l3.09 2.5 16.56 -2.5 289.89 246.4 -8.4 7.39c-341.27,761.6 -128.89,1763.58 457.39,2306.89 -20.88,1328.26 -789.87,2095.23 -1711.86,2825.17 -467.97,356.19 -935.94,673.77 -1403.92,1068.54l-0.34 0.29 -0.33 -0.29c-467.98,-394.78 -935.95,-712.35 -1403.92,-1068.54 -922,-729.95 -1690.99,-1496.92 -1711.87,-2825.17 586.29,-543.31 798.67,-1545.29 457.4,-2306.89l-8.4 -7.39 289.88 -246.4 16.56 2.5 3.09 -2.5c643.6,77.32 1175.27,65.56 1601.46,-30.17 265.39,-69.16 516.89,-178.27 751.13,-337.02zm-2308.19 559.1c8.69,1.44 17.33,2.8 25.98,4.19 309.43,26.88 623.95,68 952.38,58.5 313.35,-16.71 598.92,-73.08 857.74,-167.69 151.65,-59.06 307.11,-136.85 467.08,-238.48 2.24,1.44 4.51,2.86 6.75,4.29l6.75 -4.29c159.97,101.63 315.43,179.43 467.08,238.48 258.83,94.59 544.39,150.99 857.74,167.69 328.43,9.48 642.95,-31.62 952.38,-58.5 8.65,-1.39 17.3,-2.76 25.98,-4.19l1.96 1.81 21.63 -1.81 104.39 101.02c-1.54,4.11 -3.04,8.28 -4.53,12.43l1.14 1.04 -2.52 2.78c-243.32,668.41 -167.85,1698.87 497.54,2324.01 -35.89,1071.76 -597.23,1817.74 -1394.06,2417.71l-1535.48 1165.08 -0.01 -0.01 -0.02 0.01 -1535.48 -1165.08c-796.83,-599.97 -1358.16,-1345.95 -1394.05,-2417.71 665.39,-625.14 740.85,-1655.6 497.54,-2324.01l-2.52 -2.78 1.13 -1.04c-1.49,-4.15 -2.99,-8.32 -4.53,-12.43l104.39 -101.02 21.63 1.81 1.96 -1.81z"/>
   <path class="fil3" d="M4473.83 5449.37c8.69,1.43 17.33,2.8 25.99,4.19 309.43,26.88 623.95,67.99 952.38,58.51 313.34,-16.72 598.92,-73.09 857.75,-167.7 151.65,-59.05 307.11,-136.86 467.08,-238.48 2.24,1.44 4.51,2.87 6.75,4.29l6.75 -4.29c159.96,101.62 315.42,179.43 467.08,238.48 258.83,94.59 544.39,150.99 857.74,167.7 328.42,9.47 642.94,-31.63 952.38,-58.51 8.66,-1.4 17.3,-2.77 25.99,-4.19l1.96 1.81 21.64 -1.81 104.39 101.02c-1.55,4.11 -3.04,8.28 -4.53,12.42l1.13 1.05 -2.53 2.78c-243.31,668.41 -167.84,1698.87 497.55,2324.01 -35.89,1071.76 -597.23,1817.74 -1394.06,2417.71l-1535.49 1165.08 0 -0.01 -0.03 0.01 -1535.47 -1165.08c-796.83,-599.97 -1358.17,-1345.95 -1394.05,-2417.71 665.38,-625.14 740.86,-1655.6 497.53,-2324.01l-2.52 -2.78 1.12 -1.05c-1.49,-4.14 -2.98,-8.31 -4.53,-12.42l104.39 -101.02 21.64 1.81 1.96 -1.81zm28.54 153.57c6.13,0.74 12.2,1.43 18.31,2.14 -0.86,-2.4 -1.71,-4.86 -2.57,-7.24 74.04,11.21 147.1,20.77 219.18,28.73 846.48,68.14 1514.21,-68.79 2049.49,-357.62l0.22 0.13 0.22 -0.13c535.28,288.83 1203,425.77 2049.49,357.62 72.08,-7.96 145.14,-17.52 219.18,-28.73 -0.87,2.37 -1.71,4.84 -2.57,7.24 6.11,-0.71 12.18,-1.4 18.31,-2.14l-19.29 4.9c-187.44,524.57 -225.02,1519.06 516.02,2338.14 -114.42,1152.12 -773.75,1876.69 -1606.22,2465.43l-1174.81 874.09 -0.1 0.41 -0.22 -0.16 -0.22 0.16 -0.1 -0.41 -1174.81 -874.09c-832.46,-588.74 -1491.8,-1313.3 -1606.22,-2465.43 741.04,-819.08 703.46,-1813.57 516.02,-2338.14l-19.29 -4.9z"/>
   <path class="fil2" d="M4502.37 5602.94c6.13,0.74 12.2,1.43 18.31,2.14 -0.86,-2.4 -1.71,-4.86 -2.57,-7.24 74.04,11.21 147.1,20.77 219.18,28.73 846.48,68.14 1514.21,-68.79 2049.49,-357.62l0.22 0.13 0.22 -0.13c535.28,288.83 1203,425.77 2049.49,357.62 72.08,-7.96 145.14,-17.52 219.18,-28.73 -0.87,2.37 -1.71,4.84 -2.57,7.24 6.11,-0.71 12.18,-1.4 18.31,-2.14l-19.29 4.9c-187.44,524.57 -225.02,1519.06 516.02,2338.14 -114.42,1152.12 -773.75,1876.69 -1606.22,2465.43l-1174.81 874.09 -0.1 0.41 -0.22 -0.16 -0.22 0.16 -0.1 -0.41 -1174.81 -874.09c-832.46,-588.74 -1491.8,-1313.3 -1606.22,-2465.43 741.04,-819.08 703.46,-1813.57 516.02,-2338.14l-19.29 -4.9z"/>
   <path class="fil3" d="M6783.25 5980.27c1150.23,0 2082.67,932.39 2082.67,2082.66 0,1150.26 -932.44,2082.66 -2082.67,2082.66 -1150.22,0 -2082.66,-932.4 -2082.66,-2082.66 0,-1150.27 932.44,-2082.66 2082.66,-2082.66zm0 202.71c1038.27,0 1879.96,841.64 1879.96,1879.95 0,1038.31 -841.68,1879.96 -1879.96,1879.96 -1038.27,0 -1879.96,-841.64 -1879.96,-1879.96 0,-1038.31 841.68,-1879.95 1879.96,-1879.95zm0 104.43c980.6,0 1775.53,794.89 1775.53,1775.52 0,980.63 -794.93,1775.52 -1775.53,1775.52 -980.59,0 -1775.52,-794.89 -1775.52,-1775.52 0,-980.63 794.93,-1775.52 1775.52,-1775.52z"/>
   <path class="fil2" d="M6783.25 6182.98c1038.27,0 1879.96,841.64 1879.96,1879.95 0,1038.31 -841.68,1879.96 -1879.96,1879.96 -1038.27,0 -1879.96,-841.64 -1879.96,-1879.96 0,-1038.31 841.68,-1879.95 1879.96,-1879.95zm0 104.43c980.6,0 1775.53,794.89 1775.53,1775.52 0,980.63 -794.93,1775.52 -1775.53,1775.52 -980.59,0 -1775.52,-794.89 -1775.52,-1775.52 0,-980.63 794.93,-1775.52 1775.52,-1775.52z"/>
   <circle class="fil3" cx="6783.25" cy="8062.93" r="1775.52"/>
   <polygon class="fil2" points="5718.03,6918.32 6436,6918.32 7263.87,8073.09 7263.87,7096.46 7067.32,7049.67 7067.32,6918.32 7633.26,6918.32 7820.37,6918.32 7848.6,6918.32 7848.6,7067.84 7674.22,7103.82 7674.22,9206.16 7258.24,9206.16 6302.64,7941.39 6302.64,9008.12 6493.76,9058.71 6493.76,9206.16 5718.03,9206.16 5718.03,9061.3 5903.53,9020.66 5903.53,7085.98 5718.03,7043.92 "/>
   <path class="fil4" d="M6290.04 3559.95c176.66,70.06 317.05,33.39 432.28,-77.24 69.76,-69.87 63.96,-131.58 0,-187.01 -56.91,-48.78 -143.64,-13.54 -174.81,44.72 -77.8,97.24 -161.6,176.49 -257.47,219.53z"/>
  </g>
 </g>
</svg>
