<?xml version="1.0" encoding="UTF-8"?>
<!DOCTYPE svg PUBLIC "-//W3C//DTD SVG 1.1//EN" "http://www.w3.org/Graphics/SVG/1.1/DTD/svg11.dtd">
<!-- Creator: CorelDRAW 2020 (64 Bit) -->
<svg xmlns="http://www.w3.org/2000/svg" xml:space="preserve" width="441.91mm" height="451.091mm" version="1.1" style="shape-rendering:geometricPrecision; text-rendering:geometricPrecision; image-rendering:optimizeQuality; fill-rule:evenodd; clip-rule:evenodd"
viewBox="0 0 4712.76 4810.66"
 xmlns:xlink="http://www.w3.org/1999/xlink"
 xmlns:xodm="http://www.corel.com/coreldraw/odm/2003">
 <defs>
  <style type="text/css">
   <![CDATA[
    .fil0 {fill:#26176C}
    .fil3 {fill:#918AB0}
    .fil4 {fill:#9589C8}
    .fil5 {fill:#9D93CE}
    .fil2 {fill:#FEFEFE}
    .fil1 {fill:#FFFFFD}
   ]]>
  </style>
 </defs>
 <g id="Camada_x0020_1">
  <metadata id="CorelCorpID_0Corel-Layer"/>
  <g id="_2005467590224">
   <path class="fil0" d="M1922.37 4319.48l766.99 -12.05 -344.34 242.58c-10.08,6.65 -11.58,7.33 -23.69,0.11 -131.64,-78.46 -265.87,-152.32 -398.96,-230.64zm-1118.26 -1352.4c44.51,-27 272.07,-95.7 333.65,-113.83 638.19,-187.93 1357.56,-175.39 2007.5,-52.84 188.33,35.51 364.29,77.56 545.87,127.65 57.71,15.92 118.27,37.03 175.54,50.14 -12.94,25.06 -35.42,57.07 -51.06,81.1 -17.9,27.5 -34.29,52.73 -52.12,79.65l-259.97 398.37c-11.12,17.38 -41.32,68.43 -54.78,79.85 -404.55,-100.73 -694.91,-144.47 -1121.14,-142.67 -199.29,0.84 -396.2,16.06 -592.05,40.47 -138.16,17.22 -273.38,39.01 -409.91,63.97 -44.88,8.21 -94.69,20.76 -139.47,25.94 -7.81,-24.93 -312.77,-518.21 -359.25,-596.65 -4.65,-7.85 -19.48,-36.8 -22.81,-41.15zm-522.93 -2444.68c35.33,-8.55 178.13,-60.02 238.82,-77.69 649.31,-189.06 1230.76,-277.21 1924.22,-275.21 636.61,1.84 1269.21,105.33 1839.86,359.57 54.15,24.13 187.16,96.85 208.64,104.99l-0.8 150.24c-32.73,-10 -73.15,-31.04 -108.43,-46.19 -417.67,-179.33 -893.3,-301.95 -1348.57,-341.03 -73.67,-6.32 -561.96,-31.69 -592.62,-9.23 -6.63,6.48 -3.49,86.46 -3.49,96.18 0,104.31 -3.82,643.53 0.7,689.41l286.89 21.48c514.47,45.66 1139.66,162.4 1594.28,411.36 26.05,14.27 76.22,47.9 98.39,54.85l-210.36 589.38c-29.32,-7.93 -68.87,-25.82 -100.43,-36.98 -34.29,-12.13 -64.79,-22.76 -99.98,-35.48 -68.19,-24.65 -137.98,-45.07 -208.93,-65.95 -143.79,-42.31 -291.94,-77.55 -442.26,-106.54 -326.66,-62.99 -669.99,-91.06 -1014.45,-84.48 -614.07,11.72 -1178.14,126.84 -1751.9,309.68 -32.45,10.34 -71.41,26.39 -102.8,32.96 -9.94,-31.45 -24.74,-59.84 -36.61,-91.52 -39.26,-104.84 -64.71,-173.77 -98.17,-285.35 -133.75,-446.03 -155.79,-906.17 -71.99,-1364.46zm-252.27 -91.05c-16.04,66.7 -26.26,316.25 -27.95,395.03 -8.14,380.64 36.06,782.66 122.56,1146.75 109.16,459.44 266.25,847.06 470.68,1218.6 111.94,203.44 201.56,326.7 335.04,507.8l141.87 174.17c11.66,13.03 14.84,17.06 24.43,28.32l346.2 342.26c86.3,81.22 260.36,208.55 360.51,275.18 41.63,27.7 84.43,54.99 129.14,81.6 63.91,38.03 387.85,216.8 425.75,209.38 17.67,-3.46 236.63,-136.18 266.46,-155.34 176.47,-113.38 331.55,-218.99 491.67,-351.04 20.88,-17.22 36.69,-30.72 57.12,-48.17l168.77 -150.98c19.68,-17.85 35.77,-31.96 55.02,-50.36l53.19 -52.24c16.78,-14.44 36.44,-36.66 51.86,-53.5l51.43 -53.83c76.2,-83.52 172.28,-197.3 240.2,-286.69 615.72,-810.32 877.57,-1753.6 913.98,-2782.06 2.49,-70.28 4.27,-140.21 4.65,-210.54 0.36,-66.34 3.72,-149.99 -2.27,-214.05l-260.97 -82.24c-250.68,-79.75 -571.72,-152.87 -832.07,-202.31 -812.77,-154.35 -1707.37,-159.98 -2518,6.15 -195.24,40.01 -368.98,84.09 -553.71,135.32 -88.27,24.48 -171.95,52.81 -261.1,81.12 -38.74,12.3 -232.29,78.1 -254.46,91.66z"/>
   <path class="fil1" d="M2200.72 1801.36c-509.03,-3.03 -950.3,60.07 -1424.54,216.34l-169.52 58.46c-8.36,-43.07 -25.54,-92.94 -37.62,-138.53 -93.16,-351.55 -146.51,-755.6 -143.27,-1118.77l3.25 -182.24c55.93,-28 337.71,-107.28 397.27,-122.62 472.69,-121.77 909.16,-153.18 1404.46,-166.7l-30.04 1454.06zm-1919.55 -1278.97c-83.8,458.29 -61.76,918.43 71.99,1364.46 33.46,111.58 58.91,180.51 98.17,285.35 11.86,31.68 26.66,60.07 36.61,91.52 31.39,-6.57 70.34,-22.62 102.8,-32.96 573.76,-182.84 1137.83,-297.96 1751.9,-309.68 344.46,-6.58 687.8,21.5 1014.45,84.48 150.33,28.99 298.47,64.23 442.26,106.54 70.95,20.88 140.74,41.3 208.93,65.95 35.18,12.71 65.68,23.35 99.98,35.48 31.56,11.16 71.11,29.05 100.43,36.98l210.36 -589.38c-22.16,-6.96 -72.34,-40.58 -98.39,-54.85 -454.62,-248.97 -1079.81,-365.71 -1594.28,-411.36l-286.89 -21.48c-4.52,-45.88 -0.7,-585.11 -0.7,-689.41 0,-9.72 -3.14,-89.7 3.49,-96.18 30.66,-22.47 518.95,2.91 592.62,9.23 455.26,39.08 930.89,161.7 1348.57,341.03 35.28,15.15 75.7,36.19 108.43,46.19l0.8 -150.24c-21.48,-8.14 -154.48,-80.86 -208.64,-104.99 -570.65,-254.24 -1203.25,-357.74 -1839.86,-359.57 -693.46,-2 -1274.91,86.15 -1924.22,275.21 -60.7,17.67 -203.49,69.14 -238.82,77.69z"/>
   <path class="fil2" d="M804.1 2967.08c3.33,4.35 18.16,33.29 22.81,41.15 46.48,78.44 351.44,571.72 359.25,596.65 44.78,-5.18 94.6,-17.74 139.47,-25.94 136.53,-24.96 271.74,-46.75 409.91,-63.97 195.85,-24.4 392.76,-39.62 592.05,-40.47 426.23,-1.8 716.58,41.93 1121.14,142.67 13.46,-11.42 43.66,-62.47 54.78,-79.85l259.97 -398.37c17.83,-26.92 34.22,-52.15 52.12,-79.65 15.64,-24.03 38.11,-56.04 51.06,-81.1 -57.27,-13.11 -117.82,-34.22 -175.54,-50.14 -181.58,-50.09 -357.54,-92.14 -545.87,-127.65 -649.94,-122.56 -1369.31,-135.1 -2007.5,52.84 -61.58,18.13 -289.14,86.83 -333.65,113.83z"/>
   <path class="fil0" d="M1912.09 1524.52c7.08,8.46 8.59,95.15 4.56,110.26l-13.97 0.67 -316.85 26.17 -366.17 -317.83c-21.58,-18.43 -69.48,-55.93 -83.68,-75.95l-72.47 5.9 14.5 377.12c17.45,7.27 55.16,36.28 72.16,48.28 22.43,15.83 47.36,34.88 70.47,49.18l5.5 7.08 -11.86 0.05c-85.98,3.54 -530.07,79.58 -562.73,70.35 8.83,-9.74 141.25,-79.75 161.17,-87.58l-32.74 -662.12c-7.65,-158.43 17.15,-121.19 -80.42,-194.33 -21.71,-16.27 -60.78,-41.46 -75.65,-59.49 46.71,-24.55 291.67,-171.51 316.15,-177.03l568.79 533.28c36.47,37.77 51.91,35.14 122.77,33.74 -1.64,-123.25 -0.17,-247.48 -0.17,-370.84 0,-31.34 -0.19,-62.75 0.03,-94.09 0.3,-40.89 2.1,-31.46 -14.59,-52.91 -4.32,-5.55 -5.47,-7.76 -9.79,-12.93l-81.83 -103.16 421.28 -22.51 21.75 1.6c-7.28,18.21 -43.23,60.67 -56.93,78.55 -27.58,36.01 -19.08,40.68 -17.05,115.15 2.33,85.33 3.85,170.66 6.38,255.83 2.35,79.19 16.89,472.56 11.35,517.55zm318.67 -1177.22c-495.3,13.52 -931.77,44.93 -1404.46,166.7 -59.56,15.34 -341.34,94.62 -397.27,122.62l-3.25 182.24c-3.24,363.18 50.11,767.23 143.27,1118.77 12.08,45.58 29.26,95.46 37.62,138.53l169.52 -58.46c474.23,-156.27 915.5,-219.36 1424.54,-216.34l30.04 -1454.06z"/>
   <path class="fil2" d="M1214.3 1755.44l6.36 -7.13c-23.11,-14.3 -48.04,-33.36 -70.47,-49.18 -17,-12 -54.72,-41 -72.16,-48.28l-14.5 -377.12 72.47 -5.9c14.2,20.02 62.1,57.52 83.68,75.95l366.17 317.83 316.85 -26.17 12.93 -7.71 -3.52 -103.22c5.54,-44.98 -9,-438.36 -11.35,-517.55 -2.53,-85.16 -4.05,-170.5 -6.38,-255.83 -2.03,-74.46 -10.54,-79.14 17.05,-115.15 13.7,-17.88 49.65,-60.34 56.93,-78.55l-21.75 -1.6 -421.28 22.51 81.83 103.16c4.31,5.18 5.47,7.38 9.79,12.93 16.68,21.44 14.88,12.02 14.59,52.91 -0.23,31.34 -0.03,62.74 -0.03,94.09 -0,123.36 -1.47,247.59 0.17,370.84 -70.85,1.39 -86.29,4.02 -122.77,-33.74l-568.79 -533.28c-24.48,5.51 -269.44,152.48 -316.15,177.03 14.87,18.04 53.94,43.22 75.65,59.49 97.57,73.14 72.77,35.89 80.42,194.33l32.74 662.12c-19.91,7.84 -152.34,77.85 -161.17,87.58 32.66,9.23 476.75,-66.81 562.73,-70.35z"/>
   <path class="fil2" d="M1922.37 4319.48c133.08,78.32 267.31,152.18 398.96,230.64 12.12,7.22 13.61,6.54 23.69,-0.11l344.34 -242.58 -766.99 12.05z"/>
   <path class="fil3" d="M1902.68 1635.44l13.97 -0.67c4.03,-15.11 2.51,-101.8 -4.56,-110.26l3.52 103.22 -12.93 7.71z"/>
   <polygon class="fil4" points="1214.3,1755.44 1226.16,1755.39 1220.66,1748.31 "/>
   <polygon class="fil5" points="1968.33,557.44 1946.58,555.84 "/>
  </g>
 </g>
</svg>
