<?xml version="1.0" encoding="UTF-8"?>
<!DOCTYPE svg PUBLIC "-//W3C//DTD SVG 1.1//EN" "http://www.w3.org/Graphics/SVG/1.1/DTD/svg11.dtd">
<!-- Creator: CorelDRAW 2019 (64 Bit) -->
<svg xmlns="http://www.w3.org/2000/svg" xml:space="preserve" width="219.936mm" height="205.843mm" version="1.1" style="shape-rendering:geometricPrecision; text-rendering:geometricPrecision; image-rendering:optimizeQuality; fill-rule:evenodd; clip-rule:evenodd"
viewBox="0 0 6879.74 6438.92"
 xmlns:xlink="http://www.w3.org/1999/xlink">
 <defs>
  <style type="text/css">
   <![CDATA[
    .fil0 {fill:#006D34}
    .fil1 {fill:#FDF107}
    .fil2 {fill:white}
    .fil3 {fill:#006D34;fill-rule:nonzero}
   ]]>
  </style>
 </defs>
 <g id="Camada_x0020_1">
  <metadata id="CorelCorpID_0Corel-Layer"/>
  <g id="_2646116883616">
   <path class="fil0" d="M341.38 2228.38c192.75,1582.83 1862.3,2967.64 3098.49,3821.85 1236.19,-854.21 2905.74,-2240.76 3098.49,-3821.85 -330.73,-5.32 -657.93,-141.5 -878.97,-397.95 -219.31,-254.65 -293.59,-581.85 -228.16,-910.78 42.46,-215.78 141.5,-415.59 270.56,-596.03 -753.37,0 -1508.55,0 -2261.99,0 -753.37,0 -1508.55,0 -2261.99,0 129.12,180.37 228.16,380.25 270.56,596.03 65.43,328.93 -8.85,654.34 -228.16,910.78 -221.04,256.45 -546.51,394.36 -878.97,397.95l0.13 0z"/>
   <path class="fil1" d="M2016.19 4927.18l3825.38 -2930.5c-65.43,-49.52 -127.32,-104.36 -182.17,-167.99 -219.31,-254.65 -293.59,-581.85 -228.16,-910.78 42.46,-215.78 141.5,-415.59 270.56,-596.03 -38.94,0 -76.08,0 -114.95,0l-4568.17 3499.97c282.94,396.15 629.58,767.55 997.44,1105.34l0.07 0zm-122 -401.41l-419.12 -544.72 84.86 -65.43 459.85 226.37 -281.21 -364.34 81.33 -63.7 419.12 544.71 -88.46 67.23 -452.73 -221.04 275.88 357.22 -81.33 63.7 1.8 0zm832.98 -642.02l-95.51 74.28 -132.65 -95.51 -175.11 134.38 58.37 152.08 -93.71 72.48 -249.39 -673.84 93.71 -72.48 594.23 408.54 0.07 0.07zm-327.2 -91.92l-215.78 -153.88 95.51 247.6 120.27 -91.98 0 -1.73zm-44.19 -488.14l88.46 -67.23 226.36 295.32c35.34,45.99 60.1,76.07 72.48,88.46 21.23,19.43 44.19,30.08 67.23,33.61 24.76,3.53 49.52,-5.32 72.48,-24.76 24.76,-19.43 38.94,-40.67 40.67,-61.9 3.53,-22.96 -1.8,-44.19 -14.18,-63.7 -12.38,-21.23 -33.61,-53.05 -67.23,-95.51l-231.69 -300.65 88.46 -67.22 221.04 286.53c49.52,65.43 83.13,113.22 99.04,143.23 15.91,30.09 24.76,60.1 26.56,88.46 1.8,28.29 -3.53,56.57 -17.7,83.13 -12.38,28.29 -37.14,54.84 -70.75,81.34 -42.46,31.81 -77.81,49.52 -107.89,54.84 -30.08,5.32 -60.1,1.8 -86.66,-7.06 -26.56,-8.85 -51.32,-22.96 -70.75,-40.67 -30.09,-26.55 -67.23,-70.75 -114.95,-130.85l-222.84 -290.06 1.86 -5.32zm1252.09 -97.31l-95.51 72.48 -132.65 -95.51 -175.12 134.38 58.37 152.09 -93.71 72.48 -249.39 -673.84 93.71 -72.48 594.23 408.54 0.07 1.86zm-327.13 -91.92l-215.78 -153.88 95.51 247.6 120.27 -91.98 0 -1.73zm-383.78 -305.97l-44.19 -143.23 93.71 -72.48 3.53 175.11 -53.05 40.67 0 -0.07zm599.49 203.4l77.81 -76.08c33.61,31.82 63.7,49.52 91.98,54.84 28.29,5.32 56.57,-3.53 83.13,-24.76 28.29,-21.23 44.19,-45.99 45.99,-72.48 3.53,-26.55 -3.53,-49.52 -19.44,-68.95 -10.58,-12.38 -21.23,-21.23 -33.61,-26.56 -12.38,-5.32 -30.08,-3.53 -49.52,0 -14.18,3.53 -42.47,14.18 -88.46,30.08 -58.37,21.23 -104.36,28.29 -141.5,22.96 -49.52,-8.85 -91.98,-35.34 -123.8,-79.6 -21.23,-28.29 -35.34,-58.37 -40.67,-91.98 -5.32,-33.61 -1.8,-65.43 12.38,-97.24 14.18,-30.08 37.14,-58.37 70.75,-84.86 54.84,-42.46 107.89,-58.37 157.41,-49.52 51.32,8.85 95.51,38.94 136.18,86.66l-84.86 72.48c-24.76,-24.76 -49.52,-38.94 -70.75,-42.47 -21.23,-3.53 -44.19,5.33 -68.96,24.76 -24.76,19.43 -40.66,40.66 -44.19,65.43 -3.53,15.91 1.8,30.08 12.38,44.19 10.58,12.38 22.96,21.23 38.94,22.96 19.43,3.53 56.57,-5.32 109.62,-24.76 53.05,-21.23 93.71,-31.82 125.6,-33.61 30.08,-1.8 61.9,3.53 90.19,17.7 30.09,14.18 58.37,38.94 84.86,72.48 24.76,31.82 38.94,65.43 45.99,104.36 7.06,37.14 3.53,72.48 -12.38,106.09 -15.91,33.61 -42.47,63.7 -79.61,93.71 -54.84,42.46 -109.62,60.1 -164.46,49.52 -53.05,-8.85 -107.89,-42.46 -159.14,-97.24l-1.86 1.86zm733.94 -284.74l-419.12 -544.71 323.67 -249.39 70.75 91.98 -235.22 180.37 93.72 120.27 217.51 -167.99 70.75 91.98 -217.51 167.99 113.21 146.76 244.07 -187.49 70.75 91.98 -332.46 254.65 -0.13 3.59zm405.01 -313.09l-79.6 -104.36 83.13 -63.7 79.6 104.36 -83.13 63.7zm465.18 -677.3l109.62 -33.61c33.61,70.75 45.99,130.85 37.14,183.9 -8.85,53.05 -35.34,97.24 -83.13,132.65 -58.37,44.19 -123.8,56.57 -199.87,35.34 -76.07,-21.23 -146.76,-74.28 -212.26,-159.14 -68.95,-90.19 -104.36,-175.11 -106.09,-254.65 -1.8,-79.61 28.29,-141.5 90.19,-189.23 53.05,-40.67 111.42,-54.84 175.12,-40.67 37.14,7.06 77.8,30.09 122,65.43l-67.23 93.71c-26.55,-24.76 -54.84,-38.94 -83.13,-42.46 -28.29,-3.53 -54.84,3.53 -77.8,21.23 -31.82,24.76 -47.72,60.1 -45.99,104.36 1.8,44.2 28.29,99.04 77.8,164.47 53.05,68.95 100.84,109.62 143.23,123.8 42.46,14.18 79.6,8.85 111.42,-15.91 22.96,-17.7 37.14,-42.46 38.94,-74.28 1.8,-31.82 -7.06,-70.75 -31.82,-114.95l1.86 0zm314.75 77.81l-79.6 -104.36 83.13 -63.69 79.6 104.36 -83.13 63.7z"/>
   <path class="fil2" d="M2016.19 4927.18c-367.87,-337.78 -714.5,-709.18 -997.44,-1105.34 -355.49,-496.99 -608.41,-1032.85 -677.36,-1595.2 330.73,-5.33 657.93,-141.5 878.97,-397.95 219.31,-254.65 293.59,-581.85 228.16,-910.78 -42.46,-215.78 -141.5,-415.59 -270.56,-596.03 753.37,0 1508.55,0 2261.99,0 716.23,0 1432.54,0 2147.04,0 38.94,0 76.07,0 114.94,0 -129.12,180.37 -228.16,380.25 -270.56,596.03 -65.43,328.93 8.85,654.34 228.16,910.78 54.84,63.7 114.95,120.27 182.17,167.99 201.6,148.56 447.47,226.37 696.8,229.89 -192.75,1582.83 -1862.3,2967.64 -3098.49,3821.85 -447.47,-309.49 -953.25,-687.95 -1423.69,-1121.24l-0.13 0zm4805.12 -3001.18c-847.15,244.07 -1812.78,-739.26 -516.43,-1867.56l-5730.08 0c1296.36,1128.36 330.73,2111.63 -516.43,1867.56l0 1.8c0,1531.58 1296.36,3031.27 3381.5,4440.84 2085.14,-1409.51 3379.7,-2911.06 3381.5,-4440.84l0 -1.8 -0.07 0z"/>
   <path class="fil3" d="M3439.87 116.74l-2714.72 0c343.11,329.93 502.05,647.68 533.8,925.5 21.63,189.22 -15.44,360.01 -93.51,504.11 -77.87,143.63 -196.81,260.44 -338.98,342.37 -204.93,118.01 -458.98,163.34 -708.65,111.68 19.63,700.33 314.82,1395.53 835.04,2078.95 576.19,756.9 1428.01,1499.49 2487.02,2218.72 1059.01,-719.23 1910.83,-1461.82 2487.02,-2218.72 520.22,-683.42 815.41,-1378.63 835.04,-2078.95 -249.66,51.65 -503.71,6.32 -708.65,-111.68 -142.24,-81.93 -261.18,-198.81 -338.98,-342.24 -78.07,-144.3 -115.14,-315.09 -93.51,-504.31 31.82,-277.75 190.76,-595.5 533.8,-925.43l-2714.72 0zm-2865.07 -116.74l5886.16 0 -117.67 102.37c-396.62,345.17 -574.73,673.37 -606.68,952.98 -18.77,163.94 13.11,311.49 80.27,435.56 67.62,124.53 170.86,225.97 294.32,297.05 199.61,114.95 452.07,151.89 694.21,82.13l74.34 -21.37 0 77.21c0,752.18 -306.03,1495.97 -860.34,2224.11 -590.24,775.4 -1462.82,1533.97 -2546.92,2266.78l-32.61 22.1 -32.61 -22.1c-1084.1,-732.81 -1956.68,-1491.37 -2546.92,-2266.78 -554.3,-728.15 -860.34,-1471.87 -860.34,-2224.11l0 -77.21 74.34 21.37c242.14,69.75 494.59,32.81 694.21,-82.13 123.4,-71.09 226.7,-172.45 294.25,-297.05 67.22,-124 99.1,-271.56 80.34,-435.49 -31.95,-279.61 -210.06,-607.81 -606.68,-953.05l-117.54 -102.37 155.88 0z"/>
  </g>
 </g>
</svg>
