<?xml version="1.0" encoding="utf-8"?>
<!-- Generator: Adobe Illustrator 23.0.1, SVG Export Plug-In . SVG Version: 6.00 Build 0)  -->
<svg version="1.1" id="Layer_1" xmlns="http://www.w3.org/2000/svg" xmlns:xlink="http://www.w3.org/1999/xlink" x="0px" y="0px"
	 viewBox="0 0 850.4 850.4" style="enable-background:new 0 0 850.4 850.4;" xml:space="preserve">
<style type="text/css">
	.st0{fill:#FFFFFF;}
	.st1{fill:#1C9ED9;}
</style>
<g>
	<path class="st0" d="M77.7,164.4C200.7,164.4,318,102,424.2,6c93.2,100.5,211.1,160.6,348.2,158.4c5.1,348.2-35.9,490.2-348.2,680
		C123.7,654.6,77.7,512.5,77.7,164.4L77.7,164.4z"/>
	<g>
		<path class="st0" d="M101.5,182.1c115.2-9.9,223.3-58.7,323.2-148.1c85.6,93.8,196.4,141.6,323.7,148.1
			c4.4,323.7-34,457-323.7,633.7C144.9,639.7,101.5,506.9,101.5,182.1L101.5,182.1z"/>
		<path class="st1" d="M93.4,176.1c118,0,229.3-59.8,331.4-152c88.3,96.6,201.9,155.3,331.9,152c4.4,332.5-34.6,469.1-331.9,650.2
			C137.8,645.8,93.4,509.7,93.4,176.1L93.4,176.1z M112.6,305h626.6c1.6-35.7,1.6-72.4,1.1-114.1c-124,1.6-232.1-55.4-315.5-146.5
			c-97.1,87.2-202.5,144.3-314.4,146.5C109.8,232.6,110.9,268.8,112.6,305L112.6,305z M738.6,319.3h-64.2v252.9
			C708.4,528.3,735.3,426.8,738.6,319.3L738.6,319.3z M604.2,668.3c0-144.9,0-205.8,0-349h-71.3c0,159.1,0,254,0,413.7
			C559.7,712.2,583.3,688.6,604.2,668.3L604.2,668.3z M462.1,784V319.3h-71.3c0,144.3,0,319.9,0,464.7c11,7.7,22.5,14.8,34,21.9
			C437.9,798.3,450,791.7,462.1,784L462.1,784z M319.4,733V319.3H247c0,142.7,0,205.2,0,349C267.8,689.7,292,711.6,319.4,733
			L319.4,733z M175.7,572.2V319.3h-62C120.3,421.9,137.3,502,175.7,572.2L175.7,572.2z"/>
		<path class="st1" d="M228.3,265.5c0,2.2-1.1,5.5-1.6,9.3c-1.1,3.8-3.3,7.7-4.4,10.4c-2.2,2.7-4.4,4.9-6.6,4.9
			c-1.1,0-3.8-0.5-7.1-0.5c-3.3-0.5-6-0.5-7.7-0.5h-56c-2.2,0-4.4-1.1-4.9-1.6c-1.1-1.1-2.2-2.7-2.2-4.4c0-0.6,0.5-2.2,1.1-2.2
			c0.5-0.6,1.6-1.6,2.7-2.2c1.1-0.5,2.7-1.6,3.3-1.6c0.5-1.1,1.6-2.7,1.6-4.4c1.6-7.1,2.7-16.5,2.7-26.9c0-17-1.6-28.5-3.8-33.5
			c0,0-0.5-1.6-1.1-1.6c-0.5,0-2.2-0.5-3.3-0.5c-2.2-1.1-3.8-3.3-3.8-4.9c0-3.3,1.1-4.9,2.7-6c1.6-0.5,5.5-1.1,11.5-1.1h34
			c7.7,0,13.2,0,15.4,0c2.7,0,6-1.1,9.3-2.2c0,0,1.6-0.6,2.2-0.6c1.1,0,2.7,0.6,3.3,1.6c1.1,1.1,2.7,2.2,3.8,3.8
			c1.1,2.2,2.2,4.4,2.2,6c0.5,2.2,0.5,4.4,0.5,6.6c0,6-2.2,9.3-6.6,9.3c-2.2,0-3.8-0.5-3.8-1.6c-1.6-1.1-2.7-3.3-3.8-4.9
			c-1.1-1.1-3.3-2.7-6.6-3.8c-2.7-1.1-8.2-1.6-14.3-1.6c-2.2,0-4.9,0-6.6,0c-1.1,0.6-2.7,1.6-2.7,2.7c-0.5,1.1-1.1,3.8-1.1,5.5
			l-0.5,11.5c0,1.6,0.5,3.3,0.5,3.8c0,0,1.1,1.1,2.2,1.1c1.1,0,3.3,0,6,0c1.6,0,3.8,0,4.4-1.1c0.5-1.1,1.6-3.8,1.6-5.5
			c0.5-2.2,1.1-4.4,2.2-4.9c0-1.1,1.6-1.6,3.3-1.6c4.9,0,8.2,6.6,8.2,19.8c0,5.5-1.1,11-2.2,14.8c-1.6,3.8-3.8,5.5-6.6,5.5
			c-1.1,0-2.7-0.5-2.7-1.1c-1.1-0.5-1.6-3.3-1.6-4.9c-0.5-2.2-1.6-4.9-2.7-6c-0.5-1.1-3.3-2.2-6.6-2.2c-1.6,0-2.7,1.1-3.3,2.2
			c-0.5,1.1-1.1,3.8-1.1,7.7c0,6,0.5,10.4,0.5,12.6c0,1.6,1.6,3.8,3.3,4.4c1.1,0.6,3.8,1.1,8.2,1.1c7.1,0,13.2-1.1,15.9-2.7
			c3.8-1.1,6.6-4.9,8.8-9.3c1.1-2.7,2.2-4.9,3.3-4.9c1.1-1.1,2.7-1.6,4.4-1.6c1.1,0,2.7,0.5,3.8,2.2c1.1,1.6,2.2,4.4,2.2,6.6V265.5z
			 M268.9,277.1c0,3.3-0.5,6-1.6,8.2c-1.6,2.2-3.8,4.9-6,6c-2.2,1.1-5.5,1.6-7.7,1.6c-4.4,0-8.2-1.1-11-3.8
			c-2.7-3.3-4.4-7.1-4.4-11.5c0-3.8,1.6-8.2,3.8-11c3.3-2.7,7.1-4.9,11.5-4.9c2.2,0,5.5,1.1,7.7,2.2c2.2,1.6,4.4,3.8,5.5,5.5
			c1.6,2.7,2.2,5.5,2.2,8.2V277.1z M368.7,223.8c0,3.8-1.6,7.7-3.3,9.9c-2.7,2.2-6,3.8-9.3,3.8c-2.2,0-4.9-1.1-5.5-2.2
			c-1.1-1.1-3.3-3.8-6-7.7c-2.7-3.8-5.5-7.7-8.2-9.9c-2.7-1.6-7.1-3.3-12.1-3.3c-3.3,0-5.5,1.1-7.1,1.6c-2.2,1.6-4.4,4.4-4.9,6.6
			c-1.6,3.3-2.2,6.6-2.2,11c0,5.5,0.5,11,2.7,15.9c2.2,4.9,5.5,9.3,9.9,12.1c3.8,2.7,9.3,4.9,14.8,4.9c3.8,0,8.2-0.5,10.4-1.1
			c3.3-1.1,6-3.3,8.2-4.9c1.6-1.6,4.4-2.7,4.4-2.7c1.6,0,3.3,1.1,3.8,1.6c1.1,1.6,1.6,3.3,1.6,6c0,3.3-0.5,7.1-3.3,10.4
			c-1.6,4.4-4.9,6.6-8.2,6.6c-2.2,0.6-4.9,1.6-7.1,2.7c-2.7,1.1-5.5,2.2-7.1,2.2c-2.2,1.6-4.9,2.2-6.6,2.2c-2.2,0.5-4.9,1.1-8.8,1.1
			c-6,0-12.6-1.6-18.7-3.3c-6-2.7-11-6.6-15.4-10.4c-4.9-4.4-8.8-9.9-10.4-15.4c-2.7-5.5-4.4-11.5-4.4-17.6c0-6,1.6-12.6,3.8-18.1
			s6-11,10.4-15.4c4.9-4.4,9.9-8.2,15.4-10.4c6.6-2.7,12.6-4.4,18.7-4.4c4.4,0,8.2,0.5,11,1.6c3.3,1.1,6.6,1.6,9.9,2.7
			c2.7,1.1,4.9,2.2,5.5,2.2c0.5,0,1.6-0.5,3.3-0.5c0.5,0,2.2-0.5,2.2-0.5c3.3,0,6.6,2.7,8.2,6.6
			C367.1,212.3,368.7,217.8,368.7,223.8L368.7,223.8z M406,276c0,3.3-1.6,6.6-2.2,8.2c-1.6,2.7-4.4,4.9-6,6
			c-2.2,1.1-4.9,2.2-8.2,2.2c-3.8,0-7.1-1.6-10.4-4.9c-3.3-2.7-4.4-6.6-4.4-10.4c0-4.4,1.1-8.2,3.8-11.5c2.7-2.7,7.1-4.9,11-4.9
			c3.3,0,6,1.1,8.2,2.2c1.6,1.6,4.4,3.8,5.5,6c1.1,2.2,2.7,4.9,2.7,8.2V276z M524.6,205.7c0,3.3-2.7,5.5-6,6.6
			c-1.6,1.1-3.8,3.8-4.4,6.6c-0.5,2.2-1.1,7.1-1.1,14.3v34.6c0,9.3-0.5,15.4-1.6,18.7c-1.1,3.3-3.8,5.5-6.6,5.5
			c-1.1,0-2.2-0.5-2.2-0.5c-1.6,0-2.7-1.1-2.7-1.6c-1.6-0.5-2.2-1.6-3.3-2.2l-40.1-35.7c-2.2-2.7-4.9-4.4-6.6-4.4
			c-2.2,0-3.8,4.4-3.8,11.5c0,6.6,0,10.4,0,13.2c1.1,1.6,2.7,3.8,4.9,4.9c1.6,0.5,3.3,1.6,3.3,2.2c0.5,1.1,1.1,2.7,1.1,3.3
			c0,3.3-2.2,5.5-4.9,6.6c-3.3,1.6-9.3,2.7-15.9,2.7c-5.5,0-9.9-1.1-13.2-2.2c-2.7-1.6-4.9-3.8-4.9-7.1c0-1.6,1.6-4.4,4.9-6.6
			c1.6,0,2.7-1.6,3.3-3.8c0.5-1.6,1.6-5.5,1.6-9.3c0-3.8,0.5-10.4,0.5-17.6c0-6-0.5-12.1-1.1-17.6c-0.5-4.9-1.6-8.2-2.7-10.4
			c0-1.1-0.5-1.6-1.6-2.2c-0.5-1.1-2.2-2.2-3.3-2.7c-1.6-1.1-2.7-1.6-3.3-2.2c-0.5-0.5-1.1-2.2-1.1-3.3c0-1.6,1.1-3.8,2.2-4.9
			c1.6-1.1,4.4-2.7,7.1-2.7c3.8-0.5,8.8-1.1,14.3-1.1c3.8,0,6.6,0.6,8.2,0.6c1.6,0.5,3.8,1.6,6,3.8l32.9,29.1
			c3.3,2.7,5.5,3.8,6.6,3.8c2.2,0,3.8-2.2,3.8-6.6c0-6-0.5-9.9-0.5-11.5c-1.1-2.2-2.2-3.8-4.4-4.9c-2.7-1.1-4.9-3.3-4.9-6
			c0-2.2,0.5-3.3,1.6-4.4c1.1-1.1,3.3-2.7,6-2.7c2.2-0.5,6.6-1.1,10.4-1.1c7.7,0,13.2,1.1,15.9,2.2c3.3,0.5,4.4,3.3,4.4,6
			L524.6,205.7z M556.9,274.9c0,2.7-1.1,6-2.2,7.7c-1.6,2.7-3.8,4.9-6,6.6c-2.2,0.5-4.9,1.6-7.7,1.6c-4.4,0-7.7-1.6-11-4.4
			c-2.7-3.3-4.4-7.1-4.4-11c0-4.4,1.6-8.2,3.8-11c3.3-3.3,7.1-5.5,11.5-5.5c2.7,0,5.5,1.6,7.7,2.2c2.2,1.6,4.4,4.4,6,6
			c1.1,2.2,2.2,4.9,2.2,8.2V274.9z M674.9,205.7c0,1.1-1.1,2.7-1.1,3.3c-0.5,1.1-1.6,1.6-1.6,1.6c-1.6,0.6-2.2,1.6-3.3,2.2
			c-1.1,0.5-2.2,1.6-2.2,2.7c-1.1,2.2-1.1,8.2-1.1,17L665,254l0,0c0,7.1,0.5,12.1,0.5,15.4c0,2.7,1.6,4.9,2.7,5.5
			c0.5,0.6,1.6,1.1,2.2,1.1c1.1,1.1,1.6,1.6,1.6,2.2c1.1,0.5,1.1,1.6,1.1,2.7c0,1.6-1.1,4.4-2.7,5.5c-1.1,1.1-3.8,2.7-7.7,2.7
			c-3.8,0.5-8.8,1.1-14.3,1.1c-7.1,0-13.2-1.1-17-2.2c-3.3-0.6-5.5-3.3-5.5-6c0-2.2,0.5-3.8,1.1-4.4c1.1-0.5,2.7-1.6,3.3-2.7
			c1.1-1.1,2.7-3.8,3.3-6c1.1-2.7,1.6-7.1,1.6-12.6c0-2.2-0.5-3.8-0.5-4.4c0-1.1-1.1-2.2-2.2-2.2c-1.1,0-2.7-0.5-6-0.5
			c-3.8,0-8.2,0.5-11,0.5c-2.7,0.6-4.9,1.6-4.9,1.6c-0.5,1.1-1.1,4.4-1.1,9.9c0,4.4,0.5,7.1,0.5,9.3c0.5,1.6,1.6,3.3,3.3,4.4
			c3.3,1.1,4.9,3.8,4.9,6c0,2.7-2.7,5.5-6.6,6.6c-3.8,1.6-10.4,2.7-18.7,2.7c-7.7,0-13.7-1.1-17.6-2.2c-3.8-1.1-6.6-3.8-6.6-6.6
			c0-1.6,0.5-3.3,1.1-3.8c1.6-0.5,2.7-1.6,4.9-2.7c1.1-0.5,1.6-2.2,2.7-3.8c0-1.6,1.1-4.4,1.1-8.2c0-3.8,0.5-8.8,0.5-15.4v-23.6
			c0-4.9-0.5-7.7-1.6-8.8c-1.1-1.1-2.7-2.7-4.9-2.7c-1.6-1.6-2.7-2.7-2.7-4.9c0-3.3,1.6-5.5,4.9-7.1c3.3-1.1,7.7-2.7,11.5-2.7
			c3.8-0.5,8.2-1.1,12.1-1.1c13.2,0,20.3,2.7,20.3,9.3c0,0.6-0.5,2.2-0.5,3.3c-0.5,1.1-2.2,1.6-4.4,3.3c-0.5,0-2.2,1.1-2.2,2.2
			c-0.5,1.1-1.1,2.7-1.1,4.4c0,1.1-0.5,3.8-0.5,7.7c0,2.2,0,3.8,0,3.8c0,1.1,1.1,2.2,1.6,2.2c1.1,0,2.2,0.5,3.8,0.5l8.2,0.5
			c3.3,0,6,0,7.7,0c1.1,0,2.7-1.1,2.7-1.6c0.5-0.6,1.1-2.7,1.1-4.4c0-4.9-0.5-8.8-0.5-10.4c-0.5-2.2-2.2-4.4-3.3-4.9
			c-2.7-1.6-3.8-2.2-4.4-2.7c-0.5-0.5-1.1-2.2-1.1-3.3c0-2.7,2.2-6,6-7.1c4.4-1.6,11-2.7,19.2-2.7c7.7,0,14.3,1.1,17.6,2.2
			c3.3,1.6,5.5,4.4,5.5,7.1H674.9z M713.3,274.9c0,2.7-1.1,6-2.2,7.7c-1.6,2.7-3.8,4.9-6,6.6c-1.6,0.5-4.9,1.6-8.2,1.6
			c-3.8,0-7.7-1.6-10.4-4.4c-2.7-3.3-4.4-7.1-4.4-11c0-4.4,1.6-8.2,3.8-11c2.7-3.3,7.1-5.5,11-5.5c3.3,0,6.6,1.6,8.2,2.2
			c2.2,1.6,4.4,4.4,5.5,6c1.6,2.2,2.7,4.9,2.7,8.2V274.9z"/>
	</g>
</g>
</svg>
