<?xml version="1.0" encoding="UTF-8"?>
<!DOCTYPE svg PUBLIC "-//W3C//DTD SVG 1.1//EN" "http://www.w3.org/Graphics/SVG/1.1/DTD/svg11.dtd">
<!-- Creator: CorelDRAW 2020 (64 Bit) -->
<svg xmlns="http://www.w3.org/2000/svg" xml:space="preserve" width="61.9445mm" height="62.0001mm" version="1.1" style="shape-rendering:geometricPrecision; text-rendering:geometricPrecision; image-rendering:optimizeQuality; fill-rule:evenodd; clip-rule:evenodd"
viewBox="0 0 81.83 81.91"
 xmlns:xlink="http://www.w3.org/1999/xlink"
 xmlns:xodm="http://www.corel.com/coreldraw/odm/2003">
 <defs>
  <style type="text/css">
   <![CDATA[
    .fil1 {fill:#FEFEFE}
    .fil3 {fill:#373435}
    .fil2 {fill:#FFF212}
    .fil0 {fill:#2957A4}
   ]]>
  </style>
 </defs>
 <g id="Camada_x0020_1">
  <metadata id="CorelCorpID_0Corel-Layer"/>
  <g id="_2005505656672">
   <path class="fil0" d="M58.68 26.06c1.53,1.82 2.84,3.93 3.71,6.19 0.87,2.04 1.46,4.3 1.68,6.62l17.76 2.11 -17.76 2.04c-0.44,4.88 -2.4,9.32 -5.31,12.81l11.72 14.63 -14.49 -11.79c-1.82,1.53 -3.86,2.77 -5.97,3.64l4.73 12.01 -1.31 0.65 -4.88 -12.08c-1.75,0.66 -3.64,1.02 -5.61,1.17l-2.04 17.84 -2.04 -17.84c-1.97,-0.15 -3.86,-0.58 -5.61,-1.17l-4.95 12.08 -1.31 -0.65 4.81 -12.01c-2.18,-0.95 -4.15,-2.18 -5.9,-3.64l-14.49 11.79 15.95 -19.88 -6.99 2.4 5.46 -5.75 -7.79 -0.07 6.99 -3.35 -25.04 -2.84 25.04 -2.91 -6.99 -3.35 7.79 -0.07 -5.46 -5.75 6.99 2.4 -15.95 -19.88 19.88 16.24 -2.4 -7.21 3.93 3.71c-0.73,-1.6 -1.89,-2.84 -3.35,-4.37 -2.18,-2.4 -5.1,-5.46 -8.23,-11.5l-0.07 -0.15 0.15 -0.15 8.45 -4.22 0.15 -0.07 0.15 0.22c2.69,6.26 3.06,10.7 3.42,14.2 0.15,2.11 0.36,3.93 1.02,5.61l0 0 0.15 0.36 0.07 -5.97 3.28 6.99 2.91 -25.12 2.91 25.12 3.35 -6.99 0.07 5.75 0 -0.15c0.65,-1.67 0.87,-3.42 1.02,-5.61 0.36,-3.49 0.73,-7.94 3.49,-14.2l0.07 -0.22 0.15 0.15 8.45 4.22 0.22 0.07 -0.15 0.15c-3.06,6.04 -5.97,9.1 -8.23,11.5 -1.46,1.6 -2.69,2.84 -3.42,4.51l4.15 -3.86 -2.48 7.21 19.95 -16.24 -11.79 14.63z"/>
   <path class="fil1" d="M34.66 25.12l-0.51 -1.24 0 0c-0.73,-1.67 -0.87,-3.57 -1.09,-5.75 0,-0.29 -0.07,-0.58 -0.07,-0.95 -1.46,-1.09 -2.84,-3.2 -4.15,-5.39l5.75 14.05 0 0 0.07 -0.73z"/>
   <path class="fil1" d="M48.78 17.26c0,0.29 -0.07,0.58 -0.07,0.87 -0.22,2.26 -0.36,4.08 -1.09,5.75l0 0 -0.36 1.09 0 0.66 5.46 -13.4c-1.24,2.11 -2.55,3.93 -3.93,5.02z"/>
   <path class="fil1" d="M48.2 24.97l0.22 -0.58 0 0c0.73,-1.82 1.97,-3.2 3.57,-4.88 0.22,-0.15 0.36,-0.36 0.51,-0.51 -0.15,-2.33 -0.07,-4.08 0.58,-6.63l-5.24 12.96 0.37 -0.36z"/>
   <path class="fil1" d="M48.92 62.76l4.73 11.65 0.44 -0.22 -0.15 0.07 -4.73 -11.58c-0.07,0 -0.22,0.07 -0.29,0.07z"/>
   <path class="fil1" d="M27.67 74.19l0.44 0.29 4.73 -11.72c-0.07,-0.07 -0.15,-0.07 -0.29,-0.15l-4.73 11.65 -0.15 -0.07z"/>
   <path class="fil1" d="M29.27 19c0.22,0.15 0.36,0.36 0.51,0.51 1.6,1.67 2.84,3.06 3.57,4.81l0 0 0.22 0.51 0.29 0.29 -5.39 -13.11c0.65,2.48 1.02,4.66 0.8,6.99z"/>
   <path class="fil2" d="M78.34 40.99l-14.27 -1.67c0.07,0.51 0.07,1.09 0.07,1.67 0,0.58 0,1.09 -0.07,1.6l14.27 -1.6z"/>
   <path class="fil2" d="M24.32 57.23l32.98 -32.62 0.14 0.15c0.36,0.29 0.65,0.66 0.95,1.02l9.39 -11.58 -18.06 14.63 2.33 -6.99 -5.24 4.95 -0.07 -6.92 -3.13 6.7 -2.69 -23.08 -2.62 23.08 -3.2 -6.7 -0.07 6.92 -5.24 -4.95 2.4 6.99 -18.06 -14.63 14.49 17.98 -6.77 -2.4 4.88 5.24 -6.92 0.07 6.7 3.2 -23.01 2.69 23.01 2.62 -6.7 3.2 6.92 0.07 -4.88 5.24 6.77 -2.4 -14.49 18.06 11.43 -9.39c-0.36,-0.29 -0.73,-0.65 -1.09,-1.02l-0.15 -0.15z"/>
   <path class="fil2" d="M58.46 56.21c-0.36,0.36 -0.73,0.8 -1.09,1.16 -0.36,0.36 -0.73,0.73 -1.09,1.02l11.5 9.39 -9.32 -11.58z"/>
   <path class="fil2" d="M39.24 64.14l1.67 14.27 1.67 -14.27c-0.58,0 -1.09,0.07 -1.67,0.07 -0.51,0 -1.09,-0.07 -1.67,-0.07z"/>
   <path class="fil1" d="M57.3 25.19l-5.46 5.39c1.31,1.31 2.4,2.91 3.13,4.73 0.73,1.75 1.09,3.71 1.09,5.68 0,4.22 -1.68,7.94 -4.44,10.7 -2.77,2.77 -6.48,4.44 -10.7,4.44 -2.04,0 -4,-0.44 -5.82,-1.16 -1.75,-0.73 -3.42,-1.82 -4.73,-3.13l-5.46 5.39c2.04,2.04 4.51,3.71 7.28,4.81 2.69,1.17 5.68,1.75 8.74,1.75 6.33,0 12.01,-2.55 16.16,-6.7 4.08,-4.08 6.63,-9.83 6.63,-16.09 0,-3.06 -0.58,-5.97 -1.68,-8.59 -1.09,-2.69 -2.69,-5.17 -4.73,-7.21z"/>
   <path class="fil1" d="M33.34 48.85l-2.69 2.69c1.31,1.31 2.91,2.33 4.66,3.06 1.67,0.73 3.64,1.09 5.61,1.09 4.08,0 7.79,-1.6 10.41,-4.3 0.8,-0.73 1.46,-1.6 2.04,-2.55l-20.02 0z"/>
   <path class="fil1" d="M41.35 40.99l-5.17 5.02 18.57 0c0.58,-1.53 0.87,-3.28 0.87,-5.02l-14.27 0z"/>
   <path class="fil1" d="M51.55 30.87l-7.35 7.28 11.21 0c-0.22,-0.95 -0.51,-1.82 -0.87,-2.69 -0.66,-1.75 -1.67,-3.28 -2.98,-4.59z"/>
   <path class="fil3" d="M37.87 51.63l-0 0.05c-0.01,0.11 -0.09,0.38 -0.7,0.38l-0.14 0 0 0.44c0,0 0.64,0 0.73,0 0,0.09 0,1.68 0,1.68l0.7 0 0 -2.54 -0.59 0z"/>
   <path class="fil3" d="M40.39 51.63c-0.68,0 -1.09,0.35 -1.09,0.93 0,0.4 0.34,0.81 0.98,0.81 0.22,0 0.4,-0.05 0.52,-0.14 -0.03,0.33 -0.18,0.52 -0.44,0.52 -0.17,0 -0.28,-0.07 -0.3,-0.2l-0.01 -0.04 -0.04 -0 -0.66 0 0.01 0.06c0.05,0.41 0.44,0.67 1,0.67 0.73,0 1.16,-0.49 1.16,-1.3 0,-1.31 -0.85,-1.31 -1.12,-1.31l0 0zm0.01 1.26c-0.28,0 -0.4,-0.12 -0.4,-0.4 0,-0.33 0.27,-0.36 0.38,-0.36 0.27,0 0.41,0.14 0.41,0.4 0,0.25 -0.2,0.36 -0.39,0.36z"/>
   <path class="fil3" d="M42.82 51.63c-0.68,0 -1.09,0.35 -1.09,0.93 0,0.4 0.33,0.81 0.97,0.81 0.23,0 0.4,-0.05 0.53,-0.14 -0.03,0.33 -0.18,0.52 -0.44,0.52 -0.17,0 -0.28,-0.07 -0.3,-0.2l-0.01 -0.04 -0.04 -0 -0.65 0 0.01 0.06c0.05,0.41 0.45,0.67 1,0.67 0.72,0 1.16,-0.49 1.16,-1.3 0,-1.31 -0.85,-1.31 -1.13,-1.31l0 0zm0.01 1.26c-0.28,0 -0.4,-0.12 -0.4,-0.4 0,-0.33 0.27,-0.36 0.38,-0.36 0.27,0 0.41,0.14 0.41,0.4 0,0.25 -0.2,0.36 -0.39,0.36z"/>
   <path class="fil3" d="M46.35 51.67l-2.2 0 -0.02 0.53c0,0 1.22,0 1.44,0 -0.27,0.25 -0.94,0.99 -1.01,1.92l-0 0.05 0.72 0 0 -0.05c0.07,-0.96 0.71,-1.66 1.1,-1.99l0.02 -0.01 0 -0.45 -0.05 0z"/>
   <path class="fil3" d="M29.55 57.24c0.35,-0.05 0.57,-0.31 0.62,-0.37 0.17,-0.22 0.24,-0.46 0.21,-0.68 -0.03,-0.22 -0.16,-0.42 -0.37,-0.58l-1.02 -0.79 -0.03 0.04 -1.67 2.17 0.53 0.41c0,0 0.54,-0.7 0.59,-0.77 0.07,0.05 0.47,0.37 0.47,0.37 0.22,0.17 0.44,0.24 0.66,0.21l0 0zm-0.06 -1.32c0.15,0.11 0.23,0.21 0.24,0.31 0,0.01 0,0.02 0,0.03 0,0.06 -0.03,0.12 -0.08,0.19 -0.04,0.05 -0.12,0.15 -0.24,0.17 -0.08,0.01 -0.18,-0.02 -0.29,-0.1 0,0 -0.31,-0.24 -0.38,-0.29 0.05,-0.07 0.37,-0.48 0.42,-0.55 0.06,0.05 0.32,0.24 0.32,0.24z"/>
   <path class="fil3" d="M31.29 56.47l-0.03 0.02 -2.26 1.86 0.61 0.36c0,0 0.4,-0.34 0.44,-0.38 0.06,0.03 0.74,0.44 0.8,0.47 -0.01,0.06 -0.13,0.56 -0.13,0.56l0.62 0.37 0.57 -2.9 -0.62 -0.37 0 0zm-0.11 0.88c-0.05,0.2 -0.18,0.78 -0.21,0.88 -0.08,-0.05 -0.39,-0.23 -0.47,-0.28 0.08,-0.07 0.53,-0.46 0.68,-0.6z"/>
   <path class="fil3" d="M33.52 57.65l-0.62 -0.26 -0.02 0.05 -1.08 2.52 1.85 0.79 0.23 -0.54c0,0 -1.15,-0.49 -1.24,-0.53 0.04,-0.09 0.87,-2.02 0.87,-2.02z"/>
   <path class="fil3" d="M36.67 58.71c0,0 -0.78,1.48 -0.94,1.78 0.01,-0.33 0.07,-2.01 0.07,-2.01l-0.89 -0.24 -0.01 0.05 -0.71 2.64 0.61 0.16c0,0 0.34,-1.26 0.48,-1.8 -0.03,0.57 -0.08,1.91 -0.08,1.91l0.61 0.16c0,0 0.63,-1.2 0.89,-1.7 -0.14,0.54 -0.48,1.81 -0.48,1.81l0.61 0.16 0.72 -2.69 -0.88 -0.24z"/>
   <path class="fil3" d="M38.63 59.07l-0.02 0.03 -1.29 2.63 0.7 0.08c0,0 0.22,-0.47 0.25,-0.53 0.06,0.01 0.86,0.09 0.92,0.1 0.01,0.06 0.11,0.57 0.11,0.57l0.72 0.08 -0.68 -2.88 -0.72 -0.08 0 0zm0.44 1.73c-0.1,-0.01 -0.45,-0.05 -0.55,-0.06 0.04,-0.1 0.29,-0.64 0.37,-0.82 0.04,0.2 0.16,0.78 0.18,0.88z"/>
   <path class="fil3" d="M41.91 60.36l-0.67 -0.14c-0.13,-0.03 -0.25,-0.06 -0.25,-0.22 -0.01,-0.26 0.34,-0.28 0.41,-0.28 0.46,-0.01 0.5,0.24 0.52,0.34l0.01 0.04 0.64 -0.02 -0 -0.05c-0.01,-0.34 -0.27,-0.91 -1.13,-0.89 -1.01,0.03 -1.07,0.7 -1.07,0.91 0.02,0.63 0.48,0.72 0.93,0.81l0.29 0.06c0.31,0.06 0.46,0.11 0.46,0.27 0,0.07 -0.02,0.13 -0.06,0.18 -0.08,0.08 -0.23,0.13 -0.45,0.14 -0.45,0.01 -0.53,-0.23 -0.53,-0.37l-0 -0.05 -0.64 0.02 0 0.05c0.01,0.28 0.15,0.94 1.24,0.91 0.13,-0 0.59,-0.04 0.87,-0.34 0.15,-0.16 0.23,-0.37 0.22,-0.63 -0.02,-0.52 -0.4,-0.67 -0.77,-0.75z"/>
   <path class="fil3" d="M45.93 59.67c0,0 -1.08,0.23 -1.17,0.25 -0.02,-0.08 -0.09,-0.42 -0.11,-0.49 0.09,-0.02 1.33,-0.29 1.33,-0.29l-0.12 -0.56 -0.05 0.01 -1.94 0.42 0.59 2.72 0.65 -0.14c0,0 -0.22,-1.02 -0.24,-1.1 0.09,-0.02 1.17,-0.25 1.17,-0.25l-0.12 -0.56z"/>
   <path class="fil3" d="M48.18 57.75l-0.05 0.02 -0.59 0.21 0.62 1.71c0.11,0.3 0.01,0.49 -0.31,0.6 -0.12,0.04 -0.23,0.04 -0.33,-0 -0.11,-0.05 -0.19,-0.15 -0.25,-0.31l-0.61 -1.69 -0.64 0.23 0.62 1.72c0.11,0.29 0.25,0.47 0.44,0.57 0.36,0.19 0.75,0.09 0.96,0.02 0.37,-0.13 0.62,-0.33 0.74,-0.58 0.11,-0.23 0.11,-0.5 -0.01,-0.81l-0.61 -1.69z"/>
   <path class="fil3" d="M50.6 57.15l-0.27 -0.51 -0.04 0.02 -2 1.04 0.27 0.51c0,0 0.65,-0.34 0.73,-0.38 0.04,0.09 1.02,1.96 1.02,1.96l0.59 -0.31c0,0 -0.98,-1.87 -1.02,-1.96 0.08,-0.04 0.73,-0.38 0.73,-0.38z"/>
   <path class="fil3" d="M52.26 58c-0.05,-0.07 -0.29,-0.42 -0.34,-0.49 0.08,-0.05 1.09,-0.76 1.09,-0.76l-0.33 -0.47c0,0 -1.01,0.7 -1.09,0.76 -0.04,-0.06 -0.22,-0.32 -0.27,-0.38 0.08,-0.05 1.18,-0.82 1.18,-0.82l-0.33 -0.47 -0.04 0.03 -1.68 1.17 1.59 2.29 1.77 -1.24 -0.33 -0.47c0,0 -1.15,0.81 -1.23,0.86z"/>
   <path class="fil3" d="M54.76 54.76c0.01,-0.04 0.02,-0.09 0.02,-0.15 0,-0.12 -0.04,-0.27 -0.19,-0.43 -0.13,-0.14 -0.31,-0.23 -0.49,-0.23 -0.22,-0.01 -0.44,0.09 -0.66,0.29l-1.01 0.93 1.89 2.05 0.88 -0.81c0.43,-0.39 0.47,-0.58 0.48,-0.79 0.01,-0.22 -0.07,-0.44 -0.22,-0.6 -0.21,-0.23 -0.45,-0.31 -0.71,-0.24l0 0zm-0.54 0.05c0,0.11 -0.09,0.21 -0.15,0.27 0,0 -0.39,0.36 -0.45,0.42 -0.05,-0.06 -0.28,-0.3 -0.33,-0.36 0.06,-0.06 0.44,-0.41 0.44,-0.41 0.11,-0.11 0.21,-0.16 0.28,-0.15 0.05,0 0.1,0.03 0.15,0.08 0.05,0.05 0.06,0.1 0.06,0.15l0 0zm0.19 1.55c-0.05,-0.06 -0.36,-0.39 -0.42,-0.45 0.07,-0.06 0.49,-0.46 0.49,-0.46 0.06,-0.06 0.28,-0.23 0.45,-0.04 0.07,0.08 0.11,0.15 0.11,0.23 0,0 0,0.01 -0,0.01 -0,0.09 -0.06,0.18 -0.16,0.27 0,0 -0.41,0.38 -0.47,0.44z"/>
   <path class="fil3" d="M57.05 52.23c-1.08,-0.88 -1.85,-0.04 -1.99,0.13 -0.1,0.13 -0.33,0.45 -0.33,0.87 0,0.04 0,0.08 0.01,0.12 0.04,0.36 0.24,0.69 0.61,0.98 0.37,0.3 0.73,0.43 1.09,0.39 0.48,-0.05 0.79,-0.38 0.9,-0.52 0.11,-0.14 0.37,-0.52 0.32,-0.99 -0.04,-0.36 -0.24,-0.69 -0.61,-0.98l0 0zm-1.54 0.49c0.06,-0.08 0.21,-0.22 0.43,-0.24 0.22,-0.02 0.45,0.07 0.7,0.27 0.25,0.2 0.38,0.41 0.41,0.62 0.02,0.22 -0.08,0.39 -0.15,0.47 -0.07,0.08 -0.21,0.22 -0.43,0.24 -0.22,0.02 -0.45,-0.07 -0.7,-0.27 -0.64,-0.52 -0.36,-0.97 -0.26,-1.09z"/>
   <path class="fil3" d="M58.98 50.58c0,0 -0.62,1.03 -0.67,1.11 -0.08,-0.05 -1.89,-1.13 -1.89,-1.13l-0.34 0.57 2.39 1.44 1.04 -1.73 -0.5 -0.3 -0.03 0.04z"/>
   <path class="fil3" d="M59.95 48.45c-0.08,-0.03 -0.48,-0.18 -0.56,-0.21 0.03,-0.09 0.46,-1.24 0.46,-1.24l-0.54 -0.2c0,0 -0.43,1.15 -0.46,1.24 -0.07,-0.03 -0.36,-0.13 -0.44,-0.16 0.03,-0.09 0.5,-1.35 0.5,-1.35l-0.54 -0.2 -0.02 0.05 -0.71 1.92 2.61 0.97 0.75 -2.03 -0.54 -0.2c0,0 -0.49,1.32 -0.52,1.41z"/>
   <path class="fil3" d="M61.68 43.12c-0.04,0.08 -0.1,0.07 -0.49,0.01 -0.44,-0.07 -0.59,0 -0.72,0.17 -0.08,-0.24 -0.29,-0.41 -0.57,-0.46 -0.08,-0.01 -0.35,-0.04 -0.6,0.14 -0.18,0.13 -0.3,0.34 -0.34,0.63l-0.22 1.4 2.75 0.44 0.1 -0.65c0,0 -0.95,-0.15 -1.04,-0.17 0.01,-0.08 0.08,-0.53 0.08,-0.53 0.06,-0.37 0.16,-0.37 0.51,-0.32 0.28,0.05 0.43,0.04 0.56,0.03l0.04 -0.01 0.11 -0.71 -0.16 -0.02 -0.02 0.03 0 0zm-2.29 1.34c0.01,-0.09 0.1,-0.65 0.1,-0.65 0.05,-0.28 0.22,-0.32 0.35,-0.3 0.18,0.03 0.26,0.12 0.26,0.3 0,0.04 -0,0.09 -0.01,0.14 0,0 -0.08,0.52 -0.1,0.61 -0.08,-0.01 -0.53,-0.08 -0.61,-0.1z"/>
   <path class="fil3" d="M61.37 40.31l0 0.05c0,0 -0.03,1.36 -0.03,1.45 -0.08,-0 -0.51,-0.01 -0.59,-0.01 0,-0.09 0.03,-1.32 0.03,-1.32l-0.58 -0.01c0,0 -0.03,1.23 -0.03,1.32 -0.08,-0 -0.39,-0.01 -0.46,-0.01 0,-0.09 0.03,-1.44 0.03,-1.44l-0.58 -0.01 -0.04 2.1 2.79 0.06 0.05 -2.16 -0.58 -0.01z"/>
   <path class="fil3" d="M60.23 38.59l0.55 -0.07c0,0 -0.06,-0.5 -0.07,-0.61 0.46,0.07 0.54,0.42 0.56,0.53 0,0.04 0.01,0.08 0.01,0.12 0,0.31 -0.15,0.64 -0.79,0.72 -0.31,0.04 -0.57,-0.02 -0.75,-0.15 -0.14,-0.11 -0.22,-0.27 -0.25,-0.46 -0.02,-0.2 0.05,-0.35 0.12,-0.43 0.08,-0.11 0.18,-0.15 0.2,-0.15l0.05 -0.01 -0.08 -0.67 -0.05 0.01c-0.32,0.07 -0.91,0.43 -0.8,1.34 0.05,0.39 0.21,0.7 0.47,0.91 0.3,0.23 0.7,0.33 1.15,0.28 0.92,-0.11 1.3,-0.71 1.3,-1.3 0,-0.05 -0,-0.11 -0.01,-0.16 -0.05,-0.44 -0.26,-0.64 -0.44,-0.77 0.1,-0.03 0.27,-0.08 0.27,-0.08l-0.06 -0.47 -0.05 0.01 -1.49 0.18 0.15 1.23z"/>
   <path class="fil3" d="M58.58 36.47l2.95 0.23 -0.19 -0.68c0,0 -0.52,-0.03 -0.58,-0.04 -0.02,-0.06 -0.23,-0.83 -0.25,-0.9 0.06,-0.04 0.49,-0.31 0.49,-0.31l-0.19 -0.7 -0.06 0.04 -2.37 1.65 0.19 0.7 0 0zm0.69 -0.56c0.17,-0.11 0.67,-0.43 0.76,-0.49 0.03,0.1 0.12,0.44 0.15,0.53 -0.11,-0.01 -0.7,-0.03 -0.9,-0.04z"/>
   <path class="fil3" d="M57.91 32.86l-0.53 0.22 0.89 2.13 0.53 -0.22c0,0 -0.28,-0.68 -0.31,-0.76 0.09,-0.04 2.04,-0.85 2.04,-0.85l-0.26 -0.62 -0.05 0.02c0,0 -1.91,0.79 -1.99,0.83 -0.03,-0.08 -0.31,-0.76 -0.31,-0.76z"/>
   <path class="fil3" d="M57.09 32.57l2.92 -0.47 -0.34 -0.62c0,0 -0.51,0.09 -0.58,0.1 -0.03,-0.06 -0.42,-0.75 -0.45,-0.81 0.04,-0.05 0.4,-0.42 0.4,-0.42l-0.35 -0.63 -0.05 0.05 -1.91 2.16 0.35 0.63 0 0zm0.54 -0.7c0.14,-0.15 0.55,-0.58 0.62,-0.65 0.05,0.09 0.22,0.4 0.27,0.48 -0.1,0.02 -0.69,0.13 -0.89,0.17z"/>
   <path class="fil3" d="M56.87 30.56c0.5,-0.38 0.31,-0.81 0.12,-1.23l-0.12 -0.27c-0.13,-0.29 -0.18,-0.43 -0.05,-0.53 0.06,-0.04 0.12,-0.06 0.18,-0.05 0.11,0.01 0.24,0.11 0.37,0.28 0.27,0.36 0.12,0.56 0.01,0.65l-0.04 0.03 0.39 0.51 0.04 -0.03c0.12,-0.09 0.31,-0.28 0.35,-0.58 0.04,-0.29 -0.08,-0.61 -0.34,-0.95 -0.08,-0.11 -0.38,-0.46 -0.78,-0.51 -0.22,-0.03 -0.43,0.03 -0.63,0.19 -0.41,0.32 -0.31,0.71 -0.16,1.06l0.27 0.62c0.06,0.12 0.1,0.24 -0.03,0.34 -0.21,0.16 -0.43,-0.11 -0.47,-0.17 -0.28,-0.37 -0.1,-0.54 -0.02,-0.62l0.03 -0.03 -0.39 -0.51 -0.04 0.03c-0.27,0.21 -0.58,0.75 -0.06,1.44 0.62,0.81 1.2,0.46 1.36,0.34z"/>
  </g>
 </g>
</svg>
