<?xml version="1.0" encoding="UTF-8"?>
<!DOCTYPE svg PUBLIC "-//W3C//DTD SVG 1.1//EN" "http://www.w3.org/Graphics/SVG/1.1/DTD/svg11.dtd">
<!-- Creator: CorelDRAW 2020 (64 Bit) -->
<svg xmlns="http://www.w3.org/2000/svg" xml:space="preserve" width="283.142mm" height="342.835mm" version="1.1" style="shape-rendering:geometricPrecision; text-rendering:geometricPrecision; image-rendering:optimizeQuality; fill-rule:evenodd; clip-rule:evenodd"
viewBox="0 0 10786.68 13060.76"
 xmlns:xlink="http://www.w3.org/1999/xlink"
 xmlns:xodm="http://www.corel.com/coreldraw/odm/2003">
 <defs>
  <style type="text/css">
   <![CDATA[
    .fil2 {fill:#79121D}
    .fil0 {fill:#7A121D}
    .fil4 {fill:#AD6C73}
    .fil3 {fill:#FFFEFE}
    .fil1 {fill:white}
   ]]>
  </style>
 </defs>
 <g id="Camada_x0020_1">
  <metadata id="CorelCorpID_0Corel-Layer"/>
  <g id="_2004216537280">
   <path class="fil0" d="M4450.5 4615.82c2.62,-70.4 277.28,-765.69 325.08,-890.63 57.2,-149.5 108.19,-290.27 165.29,-439.56 29.46,-77 56.27,-149.89 84.54,-224.52 101.88,-268.9 -31.06,-205.68 670.59,-202.65l654.09 1757.41 -563.87 -3.41 -83.36 -286.96 -621.2 0.9 -88.28 289.31 -542.9 0.12zm3447.33 -3.27l-75.41 17.36c-106.53,2.01 -417.19,12.93 -477.8,-15.31 -4.61,-30.63 -17.68,-1582.23 -5.15,-1714.31l13.17 -42.9c283.16,-11.35 600.62,-4.98 885.91,-1.17 793.15,10.56 666.53,785.11 411.03,980.15 -242.7,185.26 -456.02,94.46 -756.47,131.1l4.74 645.09zm-4508.97 -246.77c-76.49,133.74 -262.92,231.17 -425.98,262.97 -185,36.08 -440.38,19.61 -612,-33.36 -357.7,-110.41 -520.16,-476.33 -526.2,-834.32 -17.46,-1035.07 984.22,-1044.3 1367.15,-826.75 78.89,44.81 118.83,95.42 183.35,150.87 -24.44,61.84 -109.97,111.79 -170.37,171.03l-180.82 156.39 -42.09 -53.38c-37.22,-46.31 -81.51,-84.66 -136.39,-104.94 -90.84,-33.57 -205.53,-24.48 -284.36,17.17 -259.76,137.24 -267.26,822.47 -0.65,939.15 82.91,36.28 208.74,39.29 295.26,0.83 97.51,-43.34 102.99,-77.1 157.78,-163.39 62.26,48.13 122.43,101.68 188.52,153.09l186.8 164.64zm-2747.51 -1870.23c-51.85,885.65 -26.39,1616.26 109.2,2474.16l7004.15 9.84c280.67,0 2244.47,27.04 2330.85,-6.52 76.16,-304.6 105.64,-893.49 111.63,-1227.53 8.12,-452.29 -26.12,-846.97 -67.88,-1288.79 -105.69,-5.9 -689.8,163.88 -1484.45,101.1 -916.9,-72.44 -1635.71,-353.13 -2361.16,-833.29 -299.48,-198.22 -419.48,-317.46 -659.41,-536.84 -53.07,-48.52 -159.06,-171.2 -210.88,-195.24 -169.26,227.8 -638.17,600.12 -855.88,740.81 -951.36,614.82 -2024.74,885.82 -3180.33,837.6 -262.26,-10.94 -485.37,-49.14 -735.85,-75.32z"/>
   <path class="fil1" d="M4634.14 5278.81l1519.16 2.4c14.18,306.72 1.64,643.19 1.64,952.67l0 4838.23c0,161.16 -1.52,323.07 0.34,484.14 1.58,137.1 -22.95,145.64 -198.41,285l-395.76 329.91c-46.18,36.71 -89.71,69.82 -130.07,109.18 -68.37,-23.62 -775.06,-623.93 -795.2,-656.72 -35.35,-57.57 -10.47,-2263.41 -10.12,-2446.5 2.51,-1299.37 2.46,-2598.76 8.41,-3898.32zm1827.35 2.75l1519.38 2.54c19.39,113.49 6.57,352.41 6.99,479.38 4.18,1259.54 -3.8,2551.61 11.79,3803.54 1.47,117.88 -2.22,116.95 -57.04,187.89l-762.98 903.33c-45.6,54.78 -62.18,70.51 -117.92,123.78 -134.06,128.11 -430.7,492.14 -602.87,595.09l2.64 -6095.57zm-3663.84 -2.78l1532.57 -0.22 -12.97 6039c-54.25,-25.44 -295.23,-290.55 -363.87,-355.2 -52.98,-49.91 -77.47,-67.64 -123.07,-118.49 -40.84,-45.55 -72.15,-83.43 -114,-128.46 -282.27,-303.71 -513.28,-563.79 -774.35,-905.3 -275.01,-359.73 -199.33,-168.54 -191.75,-729.93 17.11,-1267.24 32.99,-2534.1 47.43,-3801.41zm5497.67 5.44l1726.32 2.57c18.79,126.7 -231.39,969.75 -284.08,1128.98 -118.62,358.41 -248.05,698.56 -398.95,1025.27 -150.08,324.94 -307.65,652.16 -481.19,943.9 -61.7,103.73 -451.37,766.9 -555.13,861.8l-6.96 -3962.52zm-5894.67 3777.01c-305.81,-445.48 -741.3,-1248.15 -935.77,-1711.69 -138.54,-330.23 -256.75,-641 -376.39,-994.51 -95.47,-282.08 -239.56,-775.05 -279.1,-1079.22l50.84 -2.39c498.12,-11.15 1121.94,1.89 1633.59,2.69l-48.2 3839.58 -44.98 -54.47zm-1759.29 -6565.69c250.48,26.18 473.6,64.38 735.85,75.32 1155.59,48.22 2228.97,-222.78 3180.33,-837.6 217.71,-140.69 686.62,-513.01 855.88,-740.81 51.82,24.04 157.81,146.72 210.88,195.24 239.93,219.38 359.93,338.62 659.41,536.84 725.45,480.16 1444.26,760.84 2361.16,833.29 794.65,62.78 1378.76,-107 1484.45,-101.1 41.76,441.83 76,836.51 67.88,1288.79 -6,334.04 -35.48,922.93 -111.63,1227.53 -86.39,33.57 -2050.18,6.52 -2330.85,6.52l-7004.15 -9.84c-135.59,-857.9 -161.04,-1588.51 -109.2,-2474.16zm-272.75 -356.15c-107.69,1299.46 -66,2352.26 225.64,3580.66 241.45,1016.97 661.93,2007.77 1120.49,2804.29 463.85,805.71 860.36,1344.34 1430.31,2009.68l954.47 1007.99 1318.97 1123.76c359.98,-236.17 971.37,-802.86 1330.41,-1134.52 189.19,-174.76 616.81,-609.41 792.08,-820.98 22.36,-26.99 35.51,-35.03 59.47,-60.89 346.36,-373.88 892.95,-1112 1166.06,-1535.95 705.58,-1095.3 1182.22,-2138.97 1493.62,-3438.87 308.67,-1288.53 281.84,-2301.09 123.01,-3590.73 -63.43,-5.57 -280.1,59.06 -359.14,75.15 -1374.75,279.84 -2596.26,16.6 -3720.17,-790.98 -92.45,-66.44 -157.53,-125 -239.39,-190.52 -265.7,-212.64 -500.67,-513.16 -648.2,-642.3 -61.25,46.15 -143.85,166.98 -208.55,235.18 -73.69,77.69 -127.47,144.94 -208.1,222.02 -1019.61,974.78 -2467.22,1395.04 -3887.27,1256.29l-743.71 -109.27z"/>
   <path class="fil2" d="M368.6 2139.39l743.71 109.27c1420.05,138.75 2867.66,-281.51 3887.27,-1256.29 80.63,-77.08 134.41,-144.34 208.1,-222.02 64.7,-68.2 147.3,-189.02 208.55,-235.18 147.53,129.14 382.5,429.66 648.2,642.3 81.86,65.51 146.94,124.08 239.39,190.52 1123.91,807.58 2345.42,1070.82 3720.17,790.98 79.04,-16.09 295.71,-80.71 359.14,-75.15 158.83,1289.64 185.67,2302.2 -123.01,3590.73 -311.4,1299.9 -788.04,2343.56 -1493.62,3438.87 -273.1,423.95 -819.7,1162.07 -1166.06,1535.95 -23.96,25.87 -37.11,33.91 -59.47,60.89 -175.27,211.57 -602.89,646.22 -792.08,820.98 -359.05,331.66 -970.43,898.35 -1330.41,1134.52l-1318.97 -1123.76 -954.47 -1007.99c-569.95,-665.35 -966.46,-1203.97 -1430.31,-2009.68 -458.55,-796.52 -879.04,-1787.32 -1120.49,-2804.29 -291.64,-1228.4 -333.34,-2281.2 -225.64,-3580.66zm-269.99 -443.64c-86.67,661.97 -98.62,1094.24 -98.62,1756.14 0,1090.73 238.61,2328.63 536.92,3226.94 536.45,1615.44 1337.18,2914.62 2417.19,4153.58 218.28,250.41 561.73,617.61 802.41,838.05l360.43 338.41c42.28,37.65 85.43,77.03 127.87,114.13 350.65,306.55 650.36,557.82 1028.68,838.72 48.84,36.26 80.71,67.45 129.28,99.03 313.92,-182.9 1300.07,-1030.03 1542.2,-1266.31 917,-894.87 1327.09,-1374.98 2109.59,-2553.74 126.11,-189.98 227.07,-385.73 348.64,-593.03 60,-102.32 110.42,-196.11 164.19,-304.96 970.81,-1965.44 1342.35,-3657.4 1184.01,-5898.62 -18.85,-266.89 -80.31,-535.38 -93.94,-785.13 -117.41,17.68 -264.89,71.59 -375.55,99.72 -426.1,108.29 -769.16,152.26 -1223.57,171.84 -543.68,23.43 -1133.9,-106.89 -1572.06,-279.69 -484.63,-191.14 -780.12,-399.71 -1162.81,-705.28l-538.86 -509.08 -368.4 -436.46c-64.73,65.1 -213.04,283.04 -307.94,388.74 -112.95,125.79 -219.4,246.89 -341.53,357.88 -258.08,234.56 -476.41,405.28 -798.24,599.12 -1058.12,637.31 -2307.51,760.3 -3508.99,450.68 -105.8,-27.26 -260.89,-86.17 -360.92,-100.67z"/>
   <path class="fil0" d="M4634.14 5278.81c-5.95,1299.56 -5.9,2598.95 -8.41,3898.32 -0.35,183.09 -25.23,2388.93 10.12,2446.5 20.14,32.79 726.83,633.1 795.2,656.72 40.36,-39.36 83.89,-72.48 130.07,-109.18l395.76 -329.91c175.46,-139.36 199.99,-147.91 198.41,-285 -1.86,-161.07 -0.34,-322.98 -0.34,-484.14l0 -4838.23c0,-309.48 12.53,-645.95 -1.64,-952.67l-1519.16 -2.4z"/>
   <path class="fil0" d="M2797.64 5278.78c-14.44,1267.32 -30.31,2534.17 -47.43,3801.41 -7.58,561.39 -83.26,370.2 191.75,729.93 261.07,341.5 492.07,601.59 774.35,905.3 41.85,45.03 73.16,82.91 114,128.46 45.6,50.85 70.09,68.58 123.07,118.49 68.63,64.66 309.62,329.77 363.87,355.2l12.97 -6039 -1532.57 0.22z"/>
   <path class="fil0" d="M6458.84 11377.13c172.17,-102.95 468.81,-466.98 602.87,-595.09 55.74,-53.27 72.33,-69 117.92,-123.78l762.98 -903.33c54.82,-70.94 58.51,-70.01 57.04,-187.89 -15.6,-1251.93 -7.62,-2544 -11.79,-3803.54 -0.42,-126.97 12.4,-365.89 -6.99,-479.38l-1519.38 -2.54 -2.64 6095.57z"/>
   <path class="fil0" d="M8302.28 9246.74c103.76,-94.89 493.42,-758.07 555.13,-861.8 173.54,-291.74 331.11,-618.96 481.19,-943.9 150.9,-326.71 280.33,-666.86 398.95,-1025.27 52.7,-159.22 302.87,-1002.27 284.08,-1128.98l-1726.32 -2.57 6.96 3962.52z"/>
   <path class="fil0" d="M2445.63 9115.7l48.2 -3839.58c-511.65,-0.8 -1135.47,-13.84 -1633.59,-2.69l-50.84 2.39c39.54,304.16 183.63,797.14 279.1,1079.22 119.64,353.51 237.85,664.29 376.39,994.51 194.47,463.54 629.96,1266.21 935.77,1711.69l44.98 54.47z"/>
   <path class="fil3" d="M5387.77 3327.21c32.47,44.52 86.14,248.78 103.23,305.11 25.54,84.17 82.48,234.46 88.8,313.21l-375.31 -0.03 183.28 -618.28zm-937.28 1288.6l542.9 -0.12 88.28 -289.31 621.2 -0.9 83.36 286.96 563.87 3.41 -654.09 -1757.41c-701.65,-3.03 -568.72,-66.24 -670.59,202.65 -28.28,74.63 -55.09,147.52 -84.54,224.52 -57.11,149.29 -108.09,290.06 -165.29,439.56 -47.8,124.94 -322.47,820.23 -325.08,890.63z"/>
   <path class="fil3" d="M8107.69 3593.08c-9.53,34.18 -177.49,18.54 -213.32,14.82l-6.59 -394.51c74.46,-8.96 181.43,-14.02 234.27,10.33 251.2,-3.01 251.27,379.25 -14.36,369.36zm-209.86 1019.47l-4.74 -645.09c300.45,-36.64 513.77,54.15 756.47,-131.1 255.5,-195.03 382.13,-969.58 -411.03,-980.15 -285.29,-3.8 -602.74,-10.18 -885.91,1.17l0 1755.17 545.2 0z"/>
   <path class="fil3" d="M3388.86 4365.78l-186.8 -164.64c-66.09,-51.42 -126.25,-104.96 -188.52,-153.09 -54.79,86.28 -60.28,120.05 -157.78,163.39 -86.51,38.45 -212.35,35.45 -295.26,-0.83 -266.62,-116.68 -259.12,-801.91 0.65,-939.15 78.83,-41.65 193.52,-50.74 284.36,-17.17 54.87,20.28 99.17,58.63 136.39,104.94l42.09 53.38 180.82 -156.39c60.4,-59.24 145.93,-109.19 170.37,-171.03 -64.52,-55.46 -104.46,-106.06 -183.35,-150.87 -382.93,-217.55 -1384.6,-208.32 -1367.15,826.75 6.03,357.99 168.5,723.91 526.2,834.32 171.62,52.97 427,69.44 612,33.36 163.06,-31.8 349.49,-129.23 425.98,-262.97z"/>
   <path class="fil0" d="M8107.69 3593.08c265.63,9.89 265.55,-372.36 14.36,-369.36l-222.26 -3.07 -0.02 376.03 207.92 -3.6z"/>
   <path class="fil0" d="M5204.49 3945.5l375.31 0.03c-6.32,-78.74 -63.27,-229.04 -88.8,-313.21 -17.09,-56.34 -70.76,-260.6 -103.23,-305.11l-183.28 618.28z"/>
   <path class="fil4" d="M7897.83 4612.55l-545.2 0 0 -1755.17 -13.17 42.9c-12.52,132.08 0.54,1683.68 5.15,1714.31 60.61,28.25 371.27,17.32 477.8,15.31l75.41 -17.36z"/>
   <path class="fil4" d="M8107.69 3593.08l-207.92 3.6 0.02 -376.03 222.26 3.07c-52.84,-24.35 -159.81,-19.29 -234.27,-10.33l6.59 394.51c35.83,3.72 203.79,19.36 213.32,-14.82z"/>
  </g>
 </g>
</svg>
