<?xml version="1.0" encoding="UTF-8"?>
<!DOCTYPE svg PUBLIC "-//W3C//DTD SVG 1.1//EN" "http://www.w3.org/Graphics/SVG/1.1/DTD/svg11.dtd">
<!-- Creator: CorelDRAW 2020 (64 Bit) -->
<svg xmlns="http://www.w3.org/2000/svg" xml:space="preserve" width="158.326mm" height="191.351mm" version="1.1" style="shape-rendering:geometricPrecision; text-rendering:geometricPrecision; image-rendering:optimizeQuality; fill-rule:evenodd; clip-rule:evenodd"
viewBox="0 0 556 671.97"
 xmlns:xlink="http://www.w3.org/1999/xlink"
 xmlns:xodm="http://www.corel.com/coreldraw/odm/2003">
 <defs>
  <style type="text/css">
   <![CDATA[
    .str0 {stroke:#FFCC29;stroke-width:0.27;stroke-miterlimit:22.9256}
    .fil0 {fill:#FFDD21}
    .fil1 {fill:#0F62AC}
    .fil9 {fill:#0F62AC;fill-rule:nonzero}
    .fil2 {fill:url(#id0)}
    .fil8 {fill:url(#id1)}
    .fil4 {fill:url(#id2)}
    .fil3 {fill:url(#id3)}
    .fil7 {fill:url(#id4)}
    .fil6 {fill:url(#id5)}
    .fil5 {fill:url(#id6)}
   ]]>
  </style>
  <radialGradient id="id0" gradientUnits="userSpaceOnUse" gradientTransform="matrix(1.89063 -0 -0 1.84514 -66 -135)" cx="74.54" cy="160.14" r="82.73" fx="74.54" fy="160.14">
   <stop offset="0" style="stop-opacity:1; stop-color:#FFCC29"/>
   <stop offset="1" style="stop-opacity:1; stop-color:#FFF212"/>
  </radialGradient>
  <radialGradient id="id1" gradientUnits="userSpaceOnUse" gradientTransform="matrix(1.32606 -0 -0 1.29416 -29 -114)" cx="89.94" cy="386.01" r="100.55" fx="89.94" fy="386.01">
   <stop offset="0" style="stop-opacity:1; stop-color:#FFCC29"/>
   <stop offset="1" style="stop-opacity:1; stop-color:#FFE51D"/>
  </radialGradient>
  <radialGradient id="id2" gradientUnits="userSpaceOnUse" gradientTransform="matrix(1.61593 -0 -0 1.57706 -153 -99)" xlink:href="#id1" cx="249.07" cy="170.85" r="155.03" fx="249.07" fy="170.85">
  </radialGradient>
  <radialGradient id="id3" gradientUnits="userSpaceOnUse" gradientTransform="matrix(1.68126 -0 -0 1.64081 -161 -69)" xlink:href="#id1" cx="236.16" cy="107.74" r="84.99" fx="236.16" fy="107.74">
  </radialGradient>
  <radialGradient id="id4" gradientUnits="userSpaceOnUse" gradientTransform="matrix(1.674 -0 -0 1.63373 -101 -269)" xlink:href="#id1" cx="149.74" cy="424.5" r="153.51" fx="149.74" fy="424.5">
  </radialGradient>
  <radialGradient id="id5" gradientUnits="userSpaceOnUse" gradientTransform="matrix(1.85055 -0 -0 1.80603 -162 -297)" xlink:href="#id1" cx="190.97" cy="368.51" r="148.9" fx="190.97" fy="368.51">
  </radialGradient>
  <radialGradient id="id6" gradientUnits="userSpaceOnUse" gradientTransform="matrix(1.66116 -0 -0 1.62121 -148 -178)" xlink:href="#id1" cx="223.75" cy="286.48" r="160.25" fx="223.75" fy="286.48">
  </radialGradient>
 </defs>
 <g id="Camada_x0020_1">
  <metadata id="CorelCorpID_0Corel-Layer"/>
  <g id="_2004213372256">
   <g>
    <polygon class="fil0" points="1.67,109.63 24.45,109.16 35.17,108.75 45.71,108.17 56.06,107.41 66.24,106.48 76.23,105.36 86.04,104.07 95.66,102.59 105.1,100.94 114.35,99.1 123.41,97.08 132.28,94.88 140.96,92.5 149.45,89.93 157.75,87.18 165.86,84.25 173.77,81.13 181.49,77.83 189.02,74.34 196.35,70.67 203.49,66.81 210.43,62.76 217.19,58.53 223.74,54.1 230.11,49.48 236.29,44.67 242.27,39.67 248.06,34.47 253.66,29.07 259.07,23.48 264.29,17.68 279.09,0 293.84,17.75 299.05,23.56 304.45,29.16 310.05,34.54 315.84,39.71 321.82,44.68 328,49.44 334.36,54 340.92,58.36 347.67,62.53 354.62,66.5 361.75,70.28 369.07,73.87 376.58,77.27 384.27,80.48 392.16,83.51 400.22,86.36 408.47,89.02 416.9,91.5 425.51,93.8 434.3,95.92 443.27,97.87 452.4,99.64 461.71,101.24 471.19,102.66 480.84,103.92 490.65,105.01 500.63,105.93 510.76,106.68 521.05,107.28 531.5,107.71 553.82,108.28 555.49,143 556,165.9 555.88,188.43 555.14,210.58 553.78,232.35 551.79,253.75 549.19,274.77 545.96,295.4 542.11,315.65 537.64,335.52 532.55,354.99 526.84,374.08 520.5,392.76 513.55,411.05 505.97,428.93 497.78,446.42 488.97,463.49 479.54,480.14 469.5,496.39 458.84,512.21 447.57,527.61 435.7,542.59 423.22,557.13 410.13,571.25 396.44,584.93 382.16,598.18 367.27,610.98 351.8,623.35 335.73,635.28 319.08,646.76 301.84,657.79 277.98,671.97 253.7,658.37 236.16,647.68 219.26,636.49 202.99,624.8 187.37,612.61 172.38,599.94 158.03,586.78 144.32,573.15 131.24,559.05 118.8,544.49 106.99,529.47 95.81,514.01 85.27,498.1 75.35,481.76 66.07,465 57.4,447.81 49.36,430.22 41.94,412.22 35.14,393.82 28.95,375.03 23.37,355.85 18.39,336.3 14.02,316.38 10.25,296.09 7.07,275.44 4.49,254.43 2.49,233.08 1.08,211.38 0.25,189.35 -0,166.98 0.32,144.28 "/>
   </g>
   <path class="fil1" d="M13.72 121.9c119.31,-1.52 209.74,-33.53 265.34,-102.36 55.54,69.41 146.92,98.85 262.82,100.96 15.1,246.78 -74.62,428.59 -264.08,537.03 -193.11,-103.58 -276.49,-291.55 -264.08,-535.62z"/>
   <path class="fil2 str0" d="M190.49 101.87c1.16,12.07 1.14,24.39 -0.01,36.73 -10.05,82.21 -73.73,147.36 -154.01,157.51 -10.12,-47.61 -14.43,-107.45 -10.64,-164.5 59.13,0.26 109.72,-5.23 164.65,-29.74z"/>
   <path class="fil3 str0" d="M201.29 129.5l126.81 -55.28c15.71,14.36 36.8,25.75 63.85,32.88l-194.74 50.92c2.03,-9.27 3.41,-18.79 4.08,-28.52z"/>
   <path class="fil4 str0" d="M188.42 187.06l338.94 -46.21c9.49,31.49 6.83,56.15 -3.12,74.99l-346.21 -6.5c3.91,-7.16 7.39,-14.59 10.39,-22.28z"/>
   <path class="fil5 str0" d="M164.42 230.79l352.31 52.36c2.96,28.51 -2.7,58.37 -17.56,86.89l-348.85 -122.15c5.01,-5.41 9.72,-11.12 14.1,-17.09z"/>
   <path class="fil6 str0" d="M134.87 262.76l329.05 185.21c-9.39,33.1 -29.37,58.69 -56.59,79.15l-284.59 -254.74c4.18,-3.04 8.22,-6.25 12.13,-9.62z"/>
   <path class="fil7 str0" d="M110.83 280.34l238.69 307.89c-14.78,22.02 -37.66,39.52 -68.64,52.51l-181.08 -354.11c3.76,-1.97 7.43,-4.08 11.04,-6.3z"/>
   <path class="fil8 str0" d="M89.61 291.58l57.53 236.06c-20.24,-14.58 -39.91,-38.38 -56.15,-76.68l-15.35 -153.78c4.75,-1.68 9.4,-3.55 13.96,-5.6z"/>
   <path class="fil9" d="M103.23 175.47c1.34,0 2.35,0.28 3.02,0.84 0.67,0.56 1,1.42 1,2.55 0,1.11 -0.34,1.96 -1.02,2.53 -0.68,0.57 -1.68,0.87 -3.01,0.87l-19.08 0c-1.7,0 -2.88,-0.4 -3.53,-1.22 -0.65,-0.81 -0.98,-2.34 -0.98,-4.59l0 -25.38c0,-2.26 0.33,-3.8 0.98,-4.62 0.65,-0.82 1.83,-1.22 3.53,-1.22l18.13 0c1.32,0 2.33,0.28 3.01,0.83 0.68,0.55 1.02,1.36 1.02,2.44 0,1.04 -0.35,1.82 -1.02,2.36 -0.68,0.54 -1.68,0.81 -3.01,0.81l-15.3 0 0 7.89 13.76 0c1.33,0 2.32,0.26 2.98,0.79 0.66,0.53 1,1.33 1,2.4 0,1.02 -0.35,1.8 -1.02,2.33 -0.68,0.54 -1.66,0.81 -2.96,0.81l-13.76 0 0 9.57 16.26 0zm-55.92 48.24c0,-6.33 1.53,-11.27 4.59,-14.81 3.06,-3.53 7.33,-5.3 12.8,-5.3 2.16,0 4.15,0.3 5.95,0.9 1.81,0.6 3.51,1.56 5.14,2.84 1.1,0.86 1.98,1.84 2.62,2.93 0.64,1.1 0.95,2.14 0.95,3.15 0,1.11 -0.32,1.99 -0.95,2.65 -0.64,0.66 -1.5,1 -2.58,1 -0.6,0 -1.18,-0.13 -1.72,-0.38 -0.55,-0.25 -1.1,-0.64 -1.63,-1.16 -0.27,-0.27 -0.59,-0.68 -0.92,-1.23 -0.33,-0.55 -0.58,-0.91 -0.72,-1.08 -0.79,-0.94 -1.72,-1.64 -2.8,-2.09 -1.08,-0.46 -2.32,-0.69 -3.71,-0.69 -2.93,0 -5.23,1.13 -6.92,3.37 -1.68,2.24 -2.53,5.34 -2.53,9.29 0,4.04 0.85,7.16 2.54,9.37 1.69,2.2 4.1,3.3 7.23,3.3 1.37,0 2.61,-0.23 3.71,-0.67 1.09,-0.44 1.99,-1.08 2.67,-1.92 0.28,-0.35 0.56,-0.79 0.84,-1.31 0.28,-0.53 0.46,-0.87 0.56,-1 0.62,-0.82 1.2,-1.39 1.72,-1.7 0.53,-0.31 1.12,-0.46 1.79,-0.46 1,0 1.84,0.33 2.54,1 0.69,0.67 1.05,1.48 1.05,2.44 0,0.94 -0.31,1.97 -0.92,3.1 -0.61,1.12 -1.42,2.16 -2.44,3.09 -1.67,1.52 -3.45,2.61 -5.34,3.29 -1.88,0.68 -4.08,1.03 -6.58,1.03 -5.25,0 -9.39,-1.69 -12.4,-5.06 -3.02,-3.38 -4.53,-8.01 -4.53,-13.89zm65.62 -12.66l0 10.71 7.18 0c1.95,0 3.36,-0.42 4.24,-1.27 0.88,-0.85 1.32,-2.2 1.32,-4.08 0,-1.74 -0.44,-3.07 -1.31,-3.98 -0.87,-0.91 -2.16,-1.37 -3.86,-1.37l-7.58 0zm-0.05 26.99c0,1.35 -0.3,2.37 -0.92,3.05 -0.61,0.67 -1.55,1 -2.8,1 -1.25,0 -2.18,-0.34 -2.79,-1.02 -0.61,-0.68 -0.92,-1.68 -0.92,-3.03l0 -27.59c0,-2.26 0.33,-3.8 0.98,-4.62 0.65,-0.82 1.83,-1.22 3.53,-1.22l11.55 0c3.79,0 6.67,1.01 8.62,3.03 1.95,2.01 2.93,4.98 2.93,8.89 0,3.82 -0.96,6.76 -2.87,8.83 -1.91,2.06 -4.64,3.11 -8.19,3.11l-9.13 0 0 9.57z"/>
  </g>
 </g>
</svg>
