<?xml version="1.0" encoding="UTF-8"?>
<!DOCTYPE svg PUBLIC "-//W3C//DTD SVG 1.1//EN" "http://www.w3.org/Graphics/SVG/1.1/DTD/svg11.dtd">
<!-- Creator: CorelDRAW 2019 (64 Bit) -->
<svg xmlns="http://www.w3.org/2000/svg" xml:space="preserve" width="198.062mm" height="198.062mm" version="1.1" style="shape-rendering:geometricPrecision; text-rendering:geometricPrecision; image-rendering:optimizeQuality; fill-rule:evenodd; clip-rule:evenodd"
viewBox="0 0 4705.39 4705.4"
 xmlns:xlink="http://www.w3.org/1999/xlink">
 <defs>
  <style type="text/css">
   <![CDATA[
    .str0 {stroke:black;stroke-width:5.94;stroke-miterlimit:22.9256}
    .fil2 {fill:#FEFEFE}
    .fil0 {fill:black}
    .fil1 {fill:yellow}
    .fil3 {fill:#ED3237;fill-rule:nonzero}
    .fil4 {fill:black;fill-rule:nonzero}
   ]]>
  </style>
 </defs>
 <g id="Camada_x0020_1">
  <metadata id="CorelCorpID_0Corel-Layer"/>
  <g id="placido-de-castro-futebol-club-ac-seeklogo.com.cdr">
   <path class="fil0" d="M2352.7 4705.4c1299.36,0 2352.69,-1053.33 2352.69,-2352.7 0,-1299.37 -1053.34,-2352.7 -2352.69,-2352.7 -1299.36,0 -2352.7,1053.33 -2352.7,2352.7 0,1299.36 1053.34,2352.7 2352.7,2352.7zm0 -64.67c1263.64,0 2288.02,-1024.38 2288.02,-2288.03 0,-1263.65 -1024.38,-2288.03 -2288.02,-2288.03 -1263.64,0 -2288.03,1024.38 -2288.03,2288.03 0,1263.65 1024.38,2288.03 2288.03,2288.03z"/>
   <path class="fil1" d="M2352.7 4640.73c1263.64,0 2288.02,-1024.38 2288.02,-2288.03 0,-1263.65 -1024.38,-2288.03 -2288.02,-2288.03 -1263.64,0 -2288.03,1024.38 -2288.03,2288.03 0,1263.65 1024.38,2288.03 2288.03,2288.03zm0 -634.55c913.19,0 1653.47,-740.28 1653.47,-1653.47 0,-913.2 -740.29,-1653.48 -1653.47,-1653.48 -913.19,0 -1653.48,740.28 -1653.48,1653.48 0,913.19 740.29,1653.47 1653.48,1653.47z"/>
   <path class="fil0" d="M2352.7 4006.17c913.19,0 1653.47,-740.28 1653.47,-1653.47 0,-913.2 -740.29,-1653.48 -1653.47,-1653.48 -913.19,0 -1653.48,740.28 -1653.48,1653.48 0,913.19 740.29,1653.47 1653.48,1653.47zm0 -62.09c878.9,0 1591.38,-712.49 1591.38,-1591.38 0,-878.9 -712.49,-1591.39 -1591.38,-1591.39 -878.9,0 -1591.39,712.48 -1591.39,1591.39 0,878.9 712.49,1591.38 1591.39,1591.38z"/>
   <path class="fil1" d="M2352.7 3944.08c878.9,0 1591.38,-712.49 1591.38,-1591.38 0,-878.9 -712.49,-1591.39 -1591.38,-1591.39 -878.9,0 -1591.39,712.48 -1591.39,1591.39 0,878.9 712.49,1591.38 1591.39,1591.38z"/>
   <polygon class="fil2 str0" points="2373.03,937.27 2501.82,1309.53 2900.17,1308 2581.44,1538.12 2711.68,1909.95 2385.87,1679.87 2068.05,1911.21 2185.41,1538.9 1858.74,1310.05 2257.12,1310.01 "/>
   <g>
    <polygon class="fil0" points="4228.56,2738.37 4254.48,2881.51 4353.26,2779.77 4293.07,2910.06 4431.7,2888.7 4308.39,2956.38 4433.91,3023.54 4294.6,3002.76 4359.06,3132.78 4256.95,3031.46 4235.73,3174.7 4209.81,3031.56 4111.04,3133.3 4171.22,3003.01 4032.6,3024.37 4155.9,2956.69 4030.38,2889.53 4169.7,2910.31 4105.24,2780.29 4207.35,2881.6 "/>
    <polygon class="fil0" points="519.73,2738.37 545.65,2881.51 644.42,2779.77 584.24,2910.06 722.86,2888.7 599.56,2956.38 725.08,3023.54 585.76,3002.76 650.23,3132.78 548.11,3031.46 526.9,3174.7 500.98,3031.56 402.2,3133.3 462.39,3003.01 323.77,3024.37 447.07,2956.69 321.55,2889.53 460.86,2910.31 396.4,2780.29 498.51,2881.6 "/>
   </g>
   <path class="fil3" d="M473.32 2092.57l-9.44 66.38 95.95 13.65c13.73,1.95 23.58,6.84 29.71,14.68 6.13,7.84 8.45,17.01 6.98,27.34 -1.55,10.91 -6.28,19.25 -14.25,24.91 -7.97,5.66 -18.78,7.52 -32.27,5.6l-261.26 -37.16c-15.07,-2.14 -25.36,-7.35 -30.79,-15.59 -5.43,-8.25 -7.02,-20.29 -4.74,-36.28l13.22 -92.95c3.91,-27.48 8.89,-48.36 15.02,-62.61 5.95,-14.11 14.14,-25.86 24.58,-35.25 10.51,-9.38 22.55,-15.91 36.27,-19.57 13.73,-3.74 28.72,-4.41 44.9,-2.11 34.56,4.92 59.08,19.88 73.73,44.82 14.55,25.01 18.72,59.68 12.4,104.16zm-157.79 -4.51l-6.94 48.81 103.68 14.75 6.94 -48.81c2.43,-17.07 2.73,-31.65 0.97,-43.62 -1.77,-11.9 -6.05,-21.42 -12.92,-28.6 -6.8,-7.09 -16.55,-11.53 -29.02,-13.3 -14.99,-2.13 -27.81,0.8 -38.51,8.71 -11.5,8.99 -19.59,29.68 -24.2,62.07zm53.42 -328.43l238.23 73.2 43.59 -141.86c3.46,-11.26 8.72,-19.15 15.75,-23.59 7.13,-4.5 14.6,-5.46 22.45,-3.05 8,2.46 13.64,7.45 16.76,14.92 3.12,7.47 2.95,17.01 -0.56,28.43l-51.91 168.96c-4.67,15.2 -11.23,25.15 -19.68,29.86 -8.45,4.71 -19.85,4.9 -34.1,0.53l-252.03 -77.44c-13.33,-4.1 -22.4,-10.4 -27.15,-18.82 -4.75,-8.41 -5.54,-17.81 -2.35,-28.18 3.21,-10.45 9.11,-17.97 17.74,-22.45 8.63,-4.48 19.78,-4.66 33.26,-0.52zm447.44 -351.73l-45.93 -5.81 -71.4 128.37 29.93 36.38c11.7,14.21 19.02,24.83 21.92,31.92 2.93,7.02 1.78,15.33 -3.5,24.81 -4.46,8.02 -11.21,13.6 -20.22,16.68 -9.01,3.08 -17.06,2.64 -24.09,-1.27 -4.11,-2.29 -7.95,-5.38 -11.49,-9.18 -3.57,-3.91 -8.25,-9.59 -14.21,-17.24l-149.29 -188.73c-4.26,-5.45 -9.44,-11.89 -15.44,-19.47 -6.07,-7.61 -10.63,-14.67 -13.74,-21.21 -3.11,-6.54 -4.63,-13.64 -4.52,-21.38 0.11,-7.74 2.59,-15.98 7.46,-24.73 4.99,-8.97 10.72,-15.51 17.24,-19.68 6.51,-4.17 13.28,-6.67 20.34,-7.55 7.06,-0.89 14.21,-0.95 21.38,-0.24 7.17,0.71 16.7,1.78 28.44,3.3l238.89 24.85c18.3,1.7 30.75,4.4 37.44,8.12 6.9,3.83 11.63,10.41 14.01,19.73 2.39,9.32 1.11,18.33 -3.67,26.93 -2.78,5 -6.02,8.87 -9.77,11.51 -3.63,2.6 -7.61,4.34 -11.93,5.21 -4.27,0.8 -10.23,0.85 -17.78,0.32 -7.66,-0.5 -14.33,-1.13 -20.07,-1.63zm-153.51 80.39l52.46 -94.33 -149.75 -21 97.28 115.33zm-229.57 -199.2l16.19 -29.11c4.09,-7.35 7.18,-10.45 9.2,-9.32 1.05,0.58 3.25,7.11 6.53,19.42 3.23,12.39 6.12,24.58 8.64,36.77 2.49,12.07 3.62,20.21 3.33,24.18 -0.57,10.37 -3.53,20.27 -8.72,29.61 -3.44,6.17 -6.82,8.33 -10.24,6.44 -2.3,-1.28 -5.32,-5.36 -8.94,-12.29l-11.67 -19.2c-6.81,-11.2 -10.45,-19.58 -10.84,-25.28 -0.38,-5.7 1.81,-12.76 6.51,-21.21zm608.4 -278.59c8.17,7.25 15.15,17.16 20.83,29.85 5.73,12.63 9.11,27.55 10.13,44.77 1.14,17.21 -1.81,35.41 -8.59,54.58 -6.9,19.18 -18.68,38.2 -35.38,57.01 -12.62,14.22 -25.38,26.07 -38.33,35.49 -12.89,9.37 -26.33,16.45 -40.19,21.14 -13.8,4.74 -28.77,7.19 -44.68,7.35 -14.36,-0.03 -28.72,-1.87 -43.14,-5.67 -14.42,-3.8 -28.44,-9.5 -41.94,-16.98 -13.56,-7.54 -26.66,-16.92 -39.35,-28.19 -20.56,-18.26 -36.25,-37.8 -46.88,-58.6 -10.75,-20.79 -16.59,-42.3 -17.71,-64.32 -1.06,-22.09 2.35,-43.7 10.34,-64.95 8.05,-21.2 20.04,-40.82 35.95,-58.75 19.44,-21.89 40.81,-37.68 64.29,-47.44 23.36,-9.75 45.23,-13.73 65.49,-12.06 20.2,1.73 35.72,7.3 46.57,16.93 5.96,5.29 9.14,12.16 9.82,20.64 0.62,8.43 -1.86,15.79 -7.45,22.08 -6.2,6.98 -12.5,10.84 -18.67,11.55 -6.29,0.72 -15.17,-0.2 -26.66,-2.74 -19.06,-4.1 -35.97,-4.15 -50.83,-0.13 -14.86,4.13 -28.52,13.16 -41.09,27.31 -20,22.52 -27.75,47.59 -23.44,75.27 4.37,27.73 21.46,54.82 51.26,81.28 19.91,17.68 39.1,29.43 57.59,35.26 18.42,5.89 35.69,6.26 51.85,1.26 16.1,-5.05 30.61,-14.79 43.51,-29.32 13.96,-15.73 22.05,-32.28 24.32,-49.73 2.27,-17.44 -1.31,-35.25 -10.76,-53.54 -4.67,-8.31 -7.58,-16.07 -8.8,-23.34 -1.22,-7.15 1.55,-14.59 8.31,-22.21 5.81,-6.54 12.92,-10.24 21.41,-11.03 8.43,-0.85 15.86,1.59 22.23,7.25zm111.1 0.94l-175.78 -204.46c-9.14,-10.64 -13.4,-20.75 -12.87,-30.45 0.53,-9.7 4.88,-18.07 12.98,-25.04 8.29,-7.13 17.29,-10.34 26.98,-9.53 9.69,0.82 19.16,6.55 28.41,17.3l175.78 204.46c9.25,10.75 13.49,20.98 12.9,30.74 -0.6,9.76 -5.07,18.23 -13.37,25.36 -7.98,6.86 -16.83,9.84 -26.62,8.91 -9.79,-0.94 -19.27,-6.67 -28.41,-17.3zm-2.94 -390.23l80.92 -50.53c21.05,-13.14 40.24,-22.59 57.62,-28.28 17.45,-5.73 35.43,-7.28 54.03,-4.8 48.07,5.97 88.66,35.4 121.63,88.2 10.89,17.44 19.24,34.31 25.03,50.71 5.78,16.41 8.89,32.5 9.47,48.21 0.51,15.75 -1.59,31.44 -6.38,47.12 -3.86,12.09 -9.35,23.31 -16.51,33.61 -7.12,10.36 -15.74,19.89 -25.89,28.57 -10.15,8.69 -22.3,17.5 -36.36,26.28l-80.92 50.53c-11.28,7.04 -20.78,10.72 -28.58,11.09 -7.74,0.32 -14.28,-1.89 -19.66,-6.7 -5.46,-4.77 -11.08,-11.87 -16.91,-21.2l-133.02 -213.01c-7.9,-12.64 -10.64,-23.7 -8.2,-33.13 2.45,-9.42 10.38,-18.32 23.73,-26.65zm53.18 31.63l123.11 197.13 47.1 -29.41c10.27,-6.42 18.24,-11.77 23.75,-15.96 5.51,-4.19 10.78,-9.27 15.75,-15.29 4.93,-6.08 8.49,-12.44 10.7,-19.08 10.38,-29.6 2.9,-64.77 -22.52,-105.47 -17.9,-28.66 -35.89,-47.31 -53.93,-55.87 -18.04,-8.56 -34.97,-10.58 -50.76,-6.16 -15.82,4.52 -33.24,12.68 -52.15,24.49l-41.03 25.62zm446.05 -291.6c35.43,-12.35 68.14,-16.16 98.22,-11.37 30.06,4.71 56.03,17.35 77.8,37.87 21.76,20.52 38.53,47.68 50.32,81.47 8.71,24.99 13.06,48.96 13.02,71.85 -0.01,22.96 -4.49,44.36 -13.57,64.32 -9.08,19.96 -22.57,37.49 -40.6,52.73 -18.06,15.15 -40.42,27.43 -67.27,36.78 -26.69,9.31 -52.02,13.58 -75.93,12.71 -23.96,-0.76 -45.53,-6.16 -64.84,-16.06 -19.31,-9.89 -36.17,-24.02 -50.69,-42.42 -14.5,-18.33 -25.95,-39.66 -34.39,-63.89 -8.66,-24.84 -12.85,-48.87 -12.54,-72.27 0.33,-23.33 5.08,-44.73 14.29,-64.32 9.16,-19.48 22.67,-36.68 40.49,-51.51 17.71,-14.87 39.65,-26.82 65.71,-35.9zm156.11 131.95c-8.24,-23.63 -19.45,-42.77 -33.54,-57.35 -14.14,-14.48 -30.22,-23.56 -48.27,-27.32 -18.03,-3.67 -36.82,-2.1 -56.2,4.65 -13.74,4.79 -25.67,11.73 -35.64,20.69 -10.03,9.07 -17.62,19.73 -22.76,32.08 -5.14,12.34 -7.62,26.71 -7.45,43.03 0.27,16.36 3.53,33.63 9.88,51.84 6.43,18.44 14.66,34.14 24.7,47.35 10.09,13.11 21.31,23.04 33.61,29.72 12.31,6.69 25.1,10.41 38.3,11.21 13.3,0.85 26.77,-1.15 40.6,-5.97 17.71,-6.17 32.45,-16.04 44.39,-29.57 11.86,-13.51 19.11,-30.55 21.81,-51.16 2.65,-20.51 -0.51,-43.63 -9.43,-69.22zm355.45 -244.23l95.4 -1c24.81,-0.26 46.12,1.67 63.92,5.87 17.88,4.2 34.03,12.24 48.63,24.04 37.93,30.13 57.25,76.4 57.91,138.64 0.22,20.56 -1.43,39.31 -5.04,56.32 -3.61,17.02 -9.34,32.38 -17.02,46.09 -7.77,13.71 -17.73,26.01 -29.98,36.9 -9.59,8.31 -20.12,15.04 -31.59,20.1 -11.47,5.14 -23.8,8.78 -36.99,10.91 -13.19,2.13 -28.15,3.32 -44.72,3.5l-95.4 1c-13.29,0.14 -23.32,-1.67 -30.17,-5.42 -6.77,-3.76 -11.2,-9.05 -13.29,-15.96 -2.18,-6.91 -3.28,-15.91 -3.39,-26.91l-2.63 -251.12c-0.16,-14.91 3.26,-25.78 10.26,-32.55 6.99,-6.77 18.4,-10.24 34.13,-10.4zm28.92 54.69l2.44 232.4 55.52 -0.58c12.11,-0.13 21.7,-0.55 28.59,-1.26 6.89,-0.71 14.03,-2.3 21.41,-4.85 7.38,-2.63 13.73,-6.2 19.07,-10.72 24.28,-19.86 36.2,-53.78 35.7,-101.76 -0.36,-33.79 -6,-59.08 -16.95,-75.78 -10.94,-16.7 -24.34,-27.24 -40.13,-31.7 -15.86,-4.38 -34.98,-6.49 -57.28,-6.25l-48.37 0.51zm579.45 35.21l-163.25 -23.22 -11.85 83.33 150.34 21.38c11.08,1.58 18.99,5.11 23.74,10.54 4.83,5.44 6.61,12.05 5.53,19.7 -1.09,7.65 -4.65,13.59 -10.67,17.64 -6.1,4.04 -14.69,5.32 -25.94,3.72l-150.34 -21.38 -13.73 96.58 168.83 24.01c11.41,1.62 19.63,5.37 24.67,11.16 5.12,5.8 7.08,12.92 5.91,21.21 -1.14,7.97 -4.98,14.1 -11.52,18.25 -6.45,4.15 -15.39,5.46 -26.81,3.83l-196.89 -28c-15.74,-2.24 -26.6,-7.16 -32.57,-14.77 -5.97,-7.61 -7.94,-18.84 -5.84,-33.6l36.25 -254.87c1.4,-9.86 4.13,-17.69 8.09,-23.48 3.97,-5.79 9.45,-9.69 16.44,-11.59 6.98,-1.91 15.6,-2.13 25.84,-0.67l191.31 27.21c11.58,1.65 19.81,5.31 24.71,10.92 4.89,5.69 6.81,12.48 5.69,20.29 -1.14,8.05 -4.89,14.12 -11.17,18.21 -6.26,4.02 -15.19,5.25 -26.77,3.6zm502.18 373.55c-4.49,9.95 -11.88,19.56 -22.3,28.76 -10.35,9.23 -23.6,16.9 -39.73,22.99 -16.09,6.2 -34.34,8.81 -54.67,8.03 -20.37,-0.89 -42.03,-6.47 -64.96,-16.82 -17.33,-7.82 -32.44,-16.48 -45.29,-26.04 -12.78,-9.52 -23.54,-20.24 -32.13,-32.08 -8.62,-11.76 -15.43,-25.33 -20.31,-40.47 -4.24,-13.72 -6.75,-27.97 -7.41,-42.87 -0.66,-14.9 0.61,-29.98 3.74,-45.09 3.16,-15.19 8.22,-30.48 15.2,-45.96 11.31,-25.06 25.31,-45.85 42.01,-62.18 16.65,-16.44 35.44,-28.43 56.14,-36.04 20.78,-7.59 42.42,-10.76 65.09,-9.45 22.63,1.39 44.93,6.99 66.78,16.85 26.68,12.04 48.12,27.75 64.41,47.26 16.25,19.4 26.57,39.1 30.99,58.94 4.35,19.8 3.66,36.28 -2.31,49.5 -3.28,7.26 -8.89,12.34 -16.78,15.51 -7.86,3.1 -15.63,2.92 -23.29,-0.54 -8.51,-3.84 -14.07,-8.71 -16.58,-14.39 -2.56,-5.79 -4.33,-14.54 -5.31,-26.27 -1.76,-19.42 -6.74,-35.57 -15,-48.57 -8.36,-12.96 -21.04,-23.32 -38.29,-31.1 -27.45,-12.39 -53.69,-12.34 -78.83,0.01 -25.17,12.43 -45.96,36.8 -62.36,73.12 -10.95,24.27 -16.46,46.09 -16.54,65.47 -0.15,19.34 4.64,35.94 14.22,49.88 9.61,13.87 23.22,24.82 40.93,32.82 19.17,8.65 37.38,11.45 54.72,8.43 17.33,-3.02 33.27,-11.74 47.92,-26.2 6.54,-6.93 13.09,-12.02 19.67,-15.35 6.47,-3.29 14.39,-2.86 23.67,1.33 7.98,3.6 13.62,9.29 16.9,17.16 3.32,7.79 3.2,15.61 -0.31,23.38zm221.4 237.98l10.32 -45.13 -120.68 -83.74 -39.16 26.18c-15.3,10.24 -26.59,16.47 -33.94,18.65 -7.27,2.23 -15.43,0.25 -24.35,-5.94 -7.53,-5.23 -12.42,-12.5 -14.59,-21.76 -2.17,-9.27 -0.94,-17.24 3.65,-23.85 2.68,-3.86 6.15,-7.38 10.28,-10.53 4.25,-3.17 10.37,-7.26 18.56,-12.44l202.57 -129.89c5.85,-3.7 12.77,-8.22 20.9,-13.44 8.17,-5.29 15.65,-9.12 22.47,-11.57 6.82,-2.44 14.04,-3.26 21.72,-2.38 7.69,0.87 15.64,4.16 23.87,9.87 8.43,5.85 14.37,12.2 17.88,19.1 3.5,6.89 5.32,13.88 5.5,20.99 0.19,7.11 -0.46,14.24 -1.88,21.3 -1.42,7.06 -3.43,16.44 -6.1,27.97l-48.36 235.26c-3.51,18.04 -7.42,30.16 -11.78,36.45 -4.5,6.48 -11.51,10.54 -21.02,11.99 -9.51,1.46 -18.35,-0.71 -26.44,-6.32 -4.7,-3.26 -8.23,-6.88 -10.48,-10.86 -2.23,-3.87 -3.56,-8 -4,-12.38 -0.37,-4.33 0.16,-10.27 1.44,-17.72 1.26,-7.57 2.54,-14.15 3.61,-19.81zm-64.81 -160.71l88.68 61.54 35.71 -146.93 -124.39 85.4zm403.25 411.44c-15.03,14.15 -32.41,22.77 -52.15,25.87 -19.68,3.16 -40.38,0 -62.05,-9.41 -21.67,-9.41 -42.68,-24.99 -63.03,-46.62 -24.45,-25.97 -39.99,-51.78 -46.62,-77.31 -4.57,-18.23 -4.74,-36.32 -0.64,-54.28 4.11,-17.96 11.44,-31.92 22.01,-41.86 6.09,-5.74 13.45,-8.39 22.07,-8.07 8.56,0.38 16.07,4.05 22.59,10.97 5.3,5.63 8.06,11.94 8.27,19.02 0.32,7.09 -1.61,15.15 -5.75,24.24 -4.78,10.74 -7.99,20.7 -9.64,29.53 -1.65,8.95 -0.93,18.55 2.22,28.87 3.26,10.33 10.23,21.22 21.07,32.74 14.82,15.74 30.41,25.33 46.66,28.63 16.25,3.3 29.62,0.07 40.07,-9.76 8.3,-7.81 12.55,-16.78 12.64,-26.92 0.15,-10.19 -2.42,-20.83 -7.65,-31.85 -5.17,-10.96 -12.94,-25.02 -23.13,-42.01 -13.58,-22.8 -23.58,-43.31 -29.95,-61.24 -6.36,-18.04 -8.22,-35.36 -5.56,-51.95 2.66,-16.6 11.15,-31.64 25.6,-45.25 13.7,-12.89 29.58,-20.44 47.69,-22.59 18.06,-2.09 37.03,1.66 56.84,11.2 19.82,9.54 39.21,24.44 58.24,44.66 15.17,16.11 26.4,31.88 33.75,47.25 7.24,15.37 11.42,29.92 12.47,43.6 1,13.62 -0.26,25.54 -3.76,35.66 -3.56,10.05 -8.62,18.28 -15.18,24.46 -5.98,5.63 -13.57,8.5 -22.6,8.56 -9.03,0.06 -16.71,-3.33 -23,-10.01 -5.77,-6.12 -8.64,-12.09 -8.79,-17.95 -0.1,-5.92 1.43,-13.83 4.53,-23.68 4.85,-13.69 6.86,-26.33 5.79,-38.04 -1,-11.65 -8.54,-24.89 -22.56,-39.77 -12.92,-13.72 -26.25,-22.19 -39.9,-25.18 -13.7,-3.05 -24.53,-0.82 -32.6,6.77 -4.99,4.7 -7.96,10.15 -8.9,16.47 -0.89,6.26 -0.28,13.2 1.84,20.68 2.12,7.48 4.87,14.48 8.21,21.04 3.39,6.51 9.26,17.05 17.55,31.55 10.64,17.94 19.73,34.8 27.03,50.58 7.36,15.72 12.17,30.49 14.44,44.29 2.33,13.75 1.3,27.08 -2.9,39.94 -4.27,12.91 -12.64,25.3 -25.23,37.15zm324.84 171.93l-42.29 -67.72 -210.78 131.63c-12.17,7.6 -22.94,10.36 -32.43,8.25 -9.45,-2.04 -16.99,-7.64 -22.64,-16.7 -5.75,-9.21 -7.5,-18.63 -5.16,-28.12 2.34,-9.49 9.44,-17.99 21.47,-25.51l210.78 -131.63 -42.29 -67.72c-6.64,-10.63 -9.31,-19.87 -8.12,-27.76 1.25,-7.92 5.49,-14.24 12.79,-18.8 7.5,-4.68 15.15,-5.69 22.88,-3.08 7.74,2.61 14.76,9.03 21.13,19.24l123.35 197.51c6.73,10.78 9.44,20.09 8.21,28.2 -1.28,8.04 -5.51,14.35 -12.74,18.87 -7.3,4.56 -14.88,5.52 -22.64,3.03 -7.69,-2.53 -14.87,-9.06 -21.51,-19.69zm-31.78 263.05l-9.06 -24.01 -102.75 38.8c-13.57,5.12 -24.68,5.72 -33.47,1.85 -8.79,-3.87 -15.12,-10.93 -18.92,-21 -4.13,-10.94 -3.99,-20.7 0.47,-29.22 4.45,-8.52 13.09,-15.2 26.06,-20.1l246.43 -93.06c13.94,-5.27 25.33,-5.79 34.09,-1.55 8.76,4.25 15.93,13.77 21.49,28.49l42.05 111.36c5.8,15.35 10.16,28.72 13.03,40.14 2.87,11.42 4.12,22.19 3.62,32.36 -0.24,12.23 -2.74,23.88 -7.48,35.02 -4.84,11.09 -11.66,20.77 -20.45,28.86 -8.83,8.19 -19.07,14.48 -30.77,18.9 -23.86,9.01 -45.62,9.14 -65.32,0.3 -19.62,-8.87 -37.9,-26.6 -54.78,-53.24 -1.54,14.43 -6.16,29.49 -13.9,45.09 -7.77,15.52 -16.77,30.25 -26.92,43.98 -10.23,13.75 -19.75,25.09 -28.79,34.08 -9,8.88 -15.53,14.14 -19.64,15.69 -4.17,1.58 -8.88,1.74 -14.13,0.48 -5.24,-1.25 -9.98,-3.87 -14.24,-7.93 -4.23,-3.98 -7.59,-9.27 -10.03,-15.73 -2.88,-7.63 -3.61,-14.73 -2.17,-21.3 1.47,-6.49 4.1,-12.61 7.89,-18.36 3.79,-5.75 9.61,-13.79 17.32,-24.08l32.87 -43.8c12.09,-15.81 20.84,-29.18 26.21,-40.02 5.4,-10.95 8.1,-20.95 8.12,-30.14 0.06,-9.11 -2.26,-19.74 -6.83,-31.86zm149.46 -11.66l-23.87 -63.2 -88.13 33.28 23.16 61.31c6.21,16.45 12.79,29.79 19.72,40.03 6.9,10.16 14.77,17 23.48,20.45 8.72,3.45 18.79,3.06 30.13,-1.22 8.95,-3.38 15.88,-8.7 20.86,-16.06 5,-7.28 7.57,-15.81 7.72,-25.58 0.2,-9.16 -4.18,-25.49 -13.06,-49.02zm168.83 422.16c5.28,37.15 2.71,69.97 -7.79,98.58 -10.43,28.59 -27.84,51.63 -52.18,69.02 -24.33,17.4 -54.21,28.61 -89.64,33.65 -26.2,3.73 -50.56,3.37 -73.01,-1.09 -22.53,-4.44 -42.66,-12.97 -60.5,-25.72 -17.83,-12.76 -32.44,-29.38 -43.9,-50.01 -11.39,-20.64 -19.11,-44.95 -23.12,-73.1 -3.98,-27.99 -3.29,-53.66 2.18,-76.96 5.37,-23.37 14.83,-43.49 28.26,-60.52 13.44,-17.04 30.55,-30.86 51.41,-41.56 20.78,-10.69 43.92,-17.8 69.33,-21.42 26.04,-3.7 50.43,-3.18 73.33,1.64 22.83,4.83 42.91,13.61 60.35,26.43 17.35,12.74 31.62,29.32 42.73,49.67 11.17,20.25 18.66,44.08 22.55,71.4zm-159.59 127.73c24.78,-3.52 45.71,-10.84 62.75,-21.84 16.94,-11.08 28.95,-25.1 36.11,-42.1 7.08,-16.98 9.17,-35.72 6.28,-56.04 -2.05,-14.41 -6.56,-27.45 -13.43,-38.96 -6.96,-11.59 -15.96,-21.1 -27.08,-28.52 -11.12,-7.43 -24.74,-12.63 -40.78,-15.62 -16.11,-2.89 -33.68,-3.02 -52.78,-0.31 -19.33,2.75 -36.32,7.8 -51.22,15.1 -14.81,7.38 -26.72,16.46 -35.65,27.25 -8.93,10.79 -15.06,22.62 -18.39,35.42 -3.4,12.89 -4.04,26.49 -1.98,40.98 2.64,18.57 9.48,34.94 20.45,49.27 10.96,14.24 26.29,24.64 45.99,31.27 19.61,6.56 42.91,7.92 69.74,4.11z"/>
   <path class="fil4" d="M1396.56 2455.19l-101.61 0 0 205.16c0,29.35 -5.22,51.46 -15.68,66.64 -10.45,15.18 -23.71,22.78 -39.52,22.78 -16.7,0 -30.21,-7.42 -40.41,-22.44 -10.2,-15.01 -15.3,-37.12 -15.3,-65.97l0 -558.61c0,-32.22 5.61,-55.34 16.83,-69.17 11.22,-13.83 28.94,-20.75 53.42,-20.75l142.27 0c42.07,0 74.45,4.22 97.14,12.82 22.44,8.27 41.82,21.94 58.13,41 16.32,19.23 28.68,42.52 37.1,70.19 8.54,27.67 12.75,58.88 12.75,93.47 0,73.9 -17.21,129.74 -51.51,167.87 -34.42,37.96 -85.54,57.02 -153.62,57.02zm-26.9 -332.03l-74.71 0 0 221.69 74.71 0c26.13,0 48.06,-3.71 65.65,-10.97 17.47,-7.26 30.85,-19.07 40.16,-35.6 9.18,-16.36 13.77,-38.13 13.77,-64.79 0,-32.06 -7.14,-58.04 -21.29,-78.11 -15.93,-21.43 -48.7,-32.22 -98.29,-32.22z"/>
   <path class="fil4" d="M1589.11 2769.34c-14.51,0 -26.99,-6.58 -37.54,-19.74 -10.56,-13.16 -15.83,-31.72 -15.83,-55.34 0,-20.25 5.04,-37.46 15.11,-51.96 10.08,-14.51 22.55,-21.76 37.3,-21.76 14.76,0 27.35,7.09 37.79,21.43 10.43,14.34 15.59,31.72 15.59,52.3 0,23.28 -5.16,41.67 -15.59,55 -10.44,13.33 -22.67,20.08 -36.83,20.08z"/>
   <path class="fil4" d="M2228.27 2508.67c0,23.11 -4.15,48.08 -12.69,74.91 -8.42,26.83 -21.74,53.14 -39.96,78.96 -18.09,25.98 -41.34,46.9 -69.49,63.1 -28.27,16.03 -61.2,24.13 -98.77,24.13 -28.4,0 -54.29,-3.54 -77.66,-10.8 -23.25,-7.26 -44.49,-18.56 -63.46,-33.91 -18.97,-15.19 -36.57,-35.43 -52.53,-60.4 -14.2,-22.78 -26.39,-48.08 -36.44,-76.26 -10.05,-28.18 -17.59,-58.38 -22.62,-90.26 -5.03,-32.06 -7.54,-65.97 -7.54,-101.9 0,-58.21 6.28,-110.51 18.97,-156.57 12.57,-46.23 30.79,-85.71 54.29,-118.44 23.62,-32.73 51.15,-57.7 82.81,-74.91 31.67,-17.04 65.47,-25.65 101.28,-25.65 43.73,0 82.56,11.64 116.74,35.09 34.06,23.28 60.19,52.3 78.41,86.72 18.1,34.42 27.27,66.81 27.27,97.52 0,16.87 -4.53,31.55 -13.32,44.54 -8.8,12.82 -19.48,19.23 -32.04,19.23 -13.95,0 -24.51,-4.55 -31.42,-13.33 -7.04,-8.94 -14.83,-24.3 -23.37,-46.06 -14.33,-35.94 -31.04,-62.76 -50.27,-80.64 -19.35,-17.72 -42.98,-26.66 -71.25,-26.66 -44.99,0 -80.68,22.94 -107.32,68.67 -26.64,45.89 -39.96,111.01 -39.96,195.37 0,56.35 5.91,103.25 17.72,140.71 11.69,37.45 28.4,65.29 50.01,83.85 21.61,18.39 46.87,27.67 75.9,27.67 31.41,0 57.93,-10.46 79.67,-31.38 21.74,-20.92 38.08,-51.63 49.13,-92.29 4.65,-19.06 10.43,-34.58 17.34,-46.73 6.79,-11.98 17.84,-18.05 33.05,-18.05 13.07,0 24.25,6.07 33.55,18.39 9.3,12.15 13.95,27.33 13.95,45.38z"/>
   <path class="fil4" d="M2369.73 2766.73c-14.51,0 -26.99,-6.58 -37.54,-19.74 -10.56,-13.16 -15.83,-31.72 -15.83,-55.34 0,-20.25 5.04,-37.46 15.11,-51.96 10.08,-14.51 22.55,-21.76 37.3,-21.76 14.76,0 27.35,7.09 37.79,21.43 10.43,14.34 15.59,31.72 15.59,52.3 0,23.28 -5.16,41.67 -15.59,55 -10.44,13.33 -22.67,20.08 -36.83,20.08z"/>
   <path class="fil4" d="M2861.24 2126.2l-213.43 0 0 185.25 178.44 0c16.44,0 28.89,5.06 36.98,15.01 8.09,10.12 12.2,23.62 12.2,40.32 0,16.87 -4.11,30.2 -12.33,40.15 -8.34,9.95 -20.67,14.85 -36.86,14.85l-178.44 0 0 238.56c0,30.37 -5.11,52.81 -15.19,67.48 -10.09,14.68 -23.04,21.93 -38.73,21.93 -16.06,0 -29.14,-7.42 -39.23,-22.27 -10.08,-14.85 -15.19,-37.28 -15.19,-67.15l0 -557.6c0,-21.09 2.37,-38.3 6.98,-51.63 4.61,-13.33 11.83,-23.11 21.67,-29.19 9.84,-6.07 22.41,-9.11 37.73,-9.11l255.4 0c17.31,0 30.13,5.23 38.47,15.52 8.35,10.46 12.58,24.13 12.58,40.83 0,17.21 -4.23,31.04 -12.58,41.5 -8.34,10.29 -21.17,15.52 -38.47,15.52z"/>
   <path class="fil4" d="M2939.74 2765.43c-14.51,0 -26.99,-6.58 -37.54,-19.74 -10.56,-13.16 -15.83,-31.72 -15.83,-55.34 0,-20.25 5.04,-37.46 15.11,-51.96 10.08,-14.51 22.55,-21.76 37.3,-21.76 14.76,0 27.35,7.09 37.79,21.43 10.43,14.34 15.59,31.72 15.59,52.3 0,23.28 -5.16,41.67 -15.59,55 -10.44,13.33 -22.67,20.08 -36.83,20.08z"/>
   <path class="fil4" d="M3551.93 2508.67c0,23.11 -4.15,48.08 -12.71,74.91 -8.43,26.83 -21.77,53.14 -40.01,78.96 -18.12,25.98 -41.4,46.9 -69.59,63.1 -28.31,16.03 -61.28,24.13 -98.91,24.13 -28.44,0 -54.36,-3.54 -77.77,-10.8 -23.28,-7.26 -44.55,-18.56 -63.55,-33.91 -19,-15.19 -36.62,-35.43 -52.6,-60.4 -14.22,-22.78 -26.43,-48.08 -36.49,-76.26 -10.07,-28.18 -17.62,-58.38 -22.65,-90.26 -5.03,-32.06 -7.55,-65.97 -7.55,-101.9 0,-58.21 6.29,-110.51 19,-156.57 12.58,-46.23 30.83,-85.71 54.36,-118.44 23.66,-32.73 51.22,-57.7 82.93,-74.91 31.71,-17.04 65.56,-25.65 101.42,-25.65 43.79,0 82.68,11.64 116.9,35.09 34.1,23.28 60.27,52.3 78.52,86.72 18.12,34.42 27.31,66.81 27.31,97.52 0,16.87 -4.53,31.55 -13.34,44.54 -8.81,12.82 -19.5,19.23 -32.09,19.23 -13.97,0 -24.54,-4.55 -31.46,-13.33 -7.05,-8.94 -14.85,-24.3 -23.41,-46.06 -14.34,-35.94 -31.08,-62.76 -50.33,-80.64 -19.38,-17.72 -43.04,-26.66 -71.35,-26.66 -45.05,0 -80.79,22.94 -107.47,68.67 -26.68,45.89 -40.02,111.01 -40.02,195.37 0,56.35 5.92,103.25 17.74,140.71 11.7,37.45 28.44,65.29 50.08,83.85 21.64,18.39 46.94,27.67 76,27.67 31.46,0 58.01,-10.46 79.78,-31.38 21.77,-20.92 38.13,-51.63 49.2,-92.29 4.65,-19.06 10.44,-34.58 17.36,-46.73 6.8,-11.98 17.87,-18.05 33.1,-18.05 13.09,0 24.28,6.07 33.6,18.39 9.31,12.15 13.97,27.33 13.97,45.38z"/>
   <path class="fil4" d="M3724.84 2768.77c-14.51,0 -26.99,-6.58 -37.54,-19.74 -10.56,-13.16 -15.83,-31.72 -15.83,-55.34 0,-20.25 5.04,-37.46 15.11,-51.96 10.08,-14.51 22.55,-21.76 37.3,-21.76 14.76,0 27.35,7.09 37.79,21.43 10.43,14.34 15.59,31.72 15.59,52.3 0,23.28 -5.16,41.67 -15.59,55 -10.44,13.33 -22.67,20.08 -36.83,20.08z"/>
   <path class="fil4" d="M1185.34 3785.42l-93.25 -80.46 -49.45 57.31 77.96 67.27c7.18,6.2 11.27,12.46 12.15,18.59 0.83,6.18 -0.97,11.9 -5.43,17.07 -4.5,5.22 -9.86,7.79 -16.1,7.77 -6.3,-0.06 -12.99,-3.2 -20.06,-9.3l-77.96 -67.27 -63.68 73.8c-8.11,9.39 -16.33,14.41 -24.65,15.15 -8.32,0.74 -15.92,-1.9 -22.77,-7.82 -7.02,-6.06 -10.75,-13.28 -11.19,-21.68 -0.44,-8.39 3.31,-17.26 11.28,-26.5l148.84 -172.49c5.63,-6.52 11.26,-10.95 16.83,-13.34 5.57,-2.39 11.34,-2.69 17.25,-0.86 5.92,1.83 12.23,5.63 18.92,11.41l111.58 96.28c7.56,6.53 11.77,12.98 12.66,19.31 0.86,6.38 -0.94,12.2 -5.4,17.37 -4.59,5.32 -10.13,8.01 -16.57,8.1 -6.39,0.04 -13.39,-3.18 -20.95,-9.7zm-39.97 138.21l77.13 -119.64c6.57,-10.2 13.88,-16.23 21.94,-18.25 8.06,-2.02 15.98,-0.52 23.77,4.5 8.09,5.22 12.91,11.93 14.4,20.11 1.48,8.17 -1.03,17.38 -7.57,27.52l-78.92 122.42c-8.97,13.91 -14.84,26.6 -17.6,38.03 -2.81,11.39 -1.68,22.37 3.2,32.82 4.95,10.49 14.84,20.48 29.7,30.06 20.53,13.24 38.39,17.37 53.67,12.37 15.27,-5 29.74,-18.15 43.44,-39.41l79.56 -123.41c6.61,-10.25 13.94,-16.44 21.9,-18.45 7.96,-2 15.91,-0.41 23.82,4.69 7.85,5.06 12.65,11.68 14.29,19.88 1.64,8.2 -0.85,17.5 -7.46,27.75l-77.13 119.64c-12.55,19.47 -25.04,34.46 -37.33,44.91 -12.39,10.47 -27.18,17.09 -44.52,19.86 -14.8,2.27 -29.72,1.26 -44.72,-2.91 -14.97,-4.23 -30.82,-11.75 -47.54,-22.53 -19.93,-12.85 -35.74,-25.99 -47.52,-39.41 -11.72,-13.38 -19.29,-27.36 -22.79,-41.84 -3.56,-14.51 -3.03,-29.92 1.39,-46.18 4.47,-16.23 12.78,-33.75 24.88,-52.52zm493.58 137.95l-62.14 -28.08 -88.51 195.87c-5.11,11.31 -11.5,18.48 -19.28,21.55 -7.71,3.1 -15.74,2.72 -24.06,-1.04 -8.45,-3.82 -14.14,-9.72 -16.94,-17.64 -2.81,-7.92 -1.75,-17.43 3.31,-28.61l88.51 -195.87 -62.14 -28.08c-9.76,-4.41 -16.02,-9.74 -18.89,-15.95 -2.84,-6.28 -2.79,-12.84 0.27,-19.62 3.15,-6.98 8.13,-11.38 14.89,-13.24 6.76,-1.86 14.8,-0.65 24.17,3.58l181.25 81.9c9.89,4.47 16.22,9.83 19.16,16.22 2.88,6.37 2.83,12.93 -0.21,19.65 -3.06,6.79 -8.02,11.13 -14.74,13.08 -6.69,1.89 -14.89,0.68 -24.65,-3.73zm233 78.26l-133.8 -43.98 -22.73 69.15 123.22 40.5c9.08,2.98 15.19,7.17 18.36,12.49 3.24,5.35 3.72,11.24 1.63,17.59 -2.09,6.35 -6,10.87 -11.68,13.43 -5.75,2.54 -13.18,2.34 -22.39,-0.68l-123.21 -40.5 -26.35 80.16 138.37 45.49c9.35,3.07 15.7,7.48 19.05,13.15 3.42,5.7 3.98,12.05 1.72,18.93 -2.17,6.61 -6.35,11.26 -12.48,13.82 -6.07,2.58 -13.79,2.36 -23.14,-0.71l-161.38 -53.05c-12.9,-4.24 -21.28,-10.04 -25.14,-17.41 -3.86,-7.36 -3.8,-17.21 0.23,-29.46l69.53 -211.52c2.69,-8.19 6.19,-14.44 10.41,-18.78 4.23,-4.34 9.44,-6.84 15.6,-7.43 6.17,-0.58 13.45,0.5 21.85,3.26l156.8 51.54c9.49,3.12 15.85,7.46 19.11,12.96 3.24,5.56 3.82,11.63 1.68,18.11 -2.2,6.68 -6.28,11.29 -12.19,13.84 -5.89,2.49 -13.59,2.21 -23.07,-0.91zm133.64 281.15l-92.96 -16.14c-13.45,-2.34 -22.51,-6.85 -27.24,-13.62 -4.73,-6.77 -6.03,-16.51 -3.85,-29.08l38.1 -219.37c2.23,-12.84 6.81,-21.55 13.66,-26.17 6.86,-4.62 16.84,-5.82 30.01,-3.54l98.55 17.11c14.52,2.52 26.96,5.59 37.29,9.13 10.38,3.62 19.37,8.54 26.94,14.96 6.51,5.33 11.9,11.65 16.4,18.94 4.43,7.27 7.4,14.93 8.98,23.04 1.57,8.18 1.67,16.45 0.19,24.94 -5.07,29.2 -24.01,47.95 -56.8,56.18 37.88,19.17 53.73,46.34 47.59,81.66 -2.83,16.3 -9.78,30.28 -20.75,41.81 -10.98,11.6 -24.41,19.2 -40.28,22.81 -9.92,2.12 -21,2.93 -33.3,2.33 -12.31,-0.53 -26.52,-2.23 -42.53,-5.01zm17.9 -130.39l-64.14 -11.14 -14.79 85.17 66.19 11.5c41.7,7.24 65.01,-3.54 70.01,-32.34 2.56,-14.74 -0.97,-26.33 -10.64,-34.87 -9.62,-8.46 -25.18,-14.59 -46.63,-18.31zm-43.69 -128.91l-13.09 75.39 56.49 9.81c15.37,2.67 27.43,3.3 36.27,1.96 8.91,-1.32 16.2,-5.51 22.02,-12.55 4.44,-4.97 7.22,-10.92 8.41,-17.78 2.56,-14.74 -1.19,-25.46 -11.33,-32.19 -10.07,-6.72 -26.35,-12.06 -48.72,-15.95l-50.05 -8.69zm344.38 -13.53c32.04,0.66 59.35,7.43 82.01,20.38 22.66,12.88 39.68,30.95 50.99,54.15 11.31,23.19 16.64,50.26 16,81.21 -0.47,22.88 -4.14,43.63 -10.99,62.17 -6.85,18.61 -16.81,34.61 -30.03,48.06 -13.21,13.45 -29.24,23.6 -48.21,30.51 -18.97,6.84 -40.53,10.05 -64.81,9.55 -24.14,-0.5 -45.69,-4.67 -64.57,-12.57 -18.96,-7.84 -34.62,-18.71 -47.12,-32.55 -12.51,-13.84 -21.79,-30.37 -27.94,-49.67 -6.14,-19.23 -8.95,-39.97 -8.49,-62.16 0.47,-22.74 4.28,-43.49 11.5,-62.37 7.22,-18.81 17.39,-34.74 30.6,-47.84 13.14,-13.04 29.08,-22.91 47.76,-29.56 18.61,-6.72 39.73,-9.8 63.3,-9.31zm85.65 154.01c0.45,-21.64 -2.83,-40.53 -9.75,-56.6 -7,-16 -17.17,-28.21 -30.51,-36.69 -13.33,-8.41 -28.84,-12.8 -46.37,-13.16 -12.43,-0.26 -24.04,1.78 -34.7,6.04 -10.72,4.33 -19.98,10.69 -27.78,19.14 -7.8,8.46 -14.06,19.36 -18.79,32.64 -4.66,13.35 -7.2,28.33 -7.55,45.01 -0.35,16.88 1.57,32.09 5.67,45.83 4.17,13.67 10.19,25.1 18.05,34.23 7.86,9.13 16.99,16 27.32,20.63 10.4,4.7 21.77,7.14 34.27,7.4 16.02,0.33 30.76,-3.23 44.35,-10.6 13.52,-7.37 24.4,-19.01 32.71,-34.9 8.23,-15.83 12.59,-35.52 13.08,-58.96zm139.94 -127.33l28.15 213.71 125.67 -16.55c9.98,-1.31 17.97,-0 23.93,3.94 6.03,4 9.45,9.54 10.37,16.57 0.95,7.18 -0.92,13.4 -5.6,18.54 -4.69,5.14 -12.15,8.41 -22.27,9.75l-149.68 19.71c-13.46,1.77 -23.53,0.18 -30.2,-4.78 -6.67,-4.96 -10.88,-13.86 -12.57,-26.64l-29.77 -226.08c-1.58,-11.96 0.09,-21.36 4.92,-28.11 4.84,-6.75 11.85,-10.74 21.04,-11.95 9.26,-1.22 17.2,0.72 23.75,5.91 6.55,5.19 10.67,13.89 12.26,25.99zm555.58 37.85c3.11,8.92 4.24,19.33 3.24,31.29 -0.93,11.94 -4.58,24.6 -10.94,37.99 -6.27,13.43 -16,25.88 -29.02,37.44 -13.11,11.51 -29.79,20.84 -50.08,27.92 -15.33,5.35 -29.78,8.86 -43.38,10.47 -13.53,1.58 -26.52,1.23 -38.83,-1.12 -12.29,-2.28 -24.51,-6.78 -36.49,-13.4 -10.73,-6.11 -20.72,-13.57 -29.94,-22.55 -9.22,-8.98 -17.36,-19.2 -24.37,-30.56 -7.03,-11.42 -12.95,-24.03 -17.79,-37.89 -7.84,-22.45 -11.49,-43.81 -10.84,-63.97 0.56,-20.2 5.08,-38.86 13.36,-55.92 8.35,-17.08 19.84,-31.9 34.62,-44.5 14.8,-12.54 31.89,-22.23 51.23,-28.98 23.61,-8.24 46.14,-11.07 67.75,-8.47 21.52,2.57 39.54,8.83 54.01,18.68 14.41,9.87 23.72,20.63 27.86,32.48 2.27,6.51 1.81,13.02 -1.19,19.69 -3.02,6.6 -7.92,11.09 -14.71,13.46 -7.53,2.63 -13.84,2.86 -18.76,0.78 -5,-2.12 -11.28,-6.58 -18.82,-13.36 -12.57,-11.16 -25.21,-18.36 -38,-21.63 -12.83,-3.19 -26.79,-2.19 -42.05,3.14 -24.29,8.48 -40.47,24.06 -48.69,46.72 -8.2,22.72 -6.63,50.35 4.74,82.9 7.59,21.74 17.09,38.72 28.51,50.94 11.35,12.24 24.13,19.83 38.29,22.92 14.15,3.02 29.03,1.84 44.7,-3.63 16.96,-5.92 29.87,-14.95 38.79,-27.12 8.92,-12.17 13.6,-27.09 14.1,-44.86 -0.06,-8.23 0.97,-15.31 3.07,-21.3 2.05,-5.9 7.2,-10.33 15.41,-13.19 7.06,-2.46 13.91,-2.23 20.59,0.77 6.66,2.93 11.21,7.92 13.64,14.88zm16.31 -194.87l99.05 191.45 112.58 -58.25c8.94,-4.62 16.9,-6.11 23.85,-4.42 7.03,1.72 12.12,5.76 15.38,12.06 3.33,6.43 3.69,12.92 1.03,19.34 -2.67,6.42 -8.58,12.04 -17.64,16.73l-134.09 69.37c-12.06,6.24 -22.07,8.16 -30.03,5.76 -7.96,-2.4 -14.95,-9.34 -20.87,-20.79l-104.78 -202.53c-5.54,-10.71 -7.17,-20.12 -4.92,-28.11 2.26,-8 7.5,-14.12 15.73,-18.38 8.3,-4.29 16.42,-5.16 24.35,-2.51 7.93,2.65 14.76,9.44 20.36,20.28zm214.14 49.73l-76.39 -120.12c-6.51,-10.24 -8.93,-19.4 -7.4,-27.57 1.54,-8.17 6.21,-14.73 14.04,-19.71 8.13,-5.17 16.24,-6.73 24.28,-4.66 8.05,2.07 15.36,8.21 21.83,18.39l78.16 122.91c8.88,13.96 17.95,24.61 27.18,31.9 9.17,7.32 19.61,10.89 31.15,10.82 11.6,-0.11 24.81,-4.91 39.72,-14.4 20.61,-13.11 31.84,-27.6 33.69,-43.56 1.85,-15.96 -4.04,-34.6 -17.62,-55.95l-78.79 -123.9c-6.55,-10.3 -9.1,-19.54 -7.59,-27.61 1.51,-8.07 6.29,-14.62 14.23,-19.67 7.88,-5.01 15.9,-6.6 24.03,-4.66 8.13,1.94 15.54,8.09 22.08,18.39l76.39 120.12c12.43,19.54 20.82,37.16 25.17,52.7 4.32,15.63 4.15,31.83 -0.6,48.74 -4.13,14.39 -11.28,27.52 -21.36,39.4 -10.11,11.82 -23.56,23.07 -40.36,33.75 -20.01,12.72 -38.56,21.58 -55.68,26.67 -17.06,5.05 -32.93,6.07 -47.53,3.19 -14.67,-2.84 -28.44,-9.77 -41.36,-20.59 -12.86,-10.85 -25.3,-25.73 -37.29,-44.58zm434.36 -168.83l-71.04 62.09c-10.28,8.98 -19.49,13.19 -27.73,12.61 -8.24,-0.58 -16.63,-5.7 -25.02,-15.31l-146.52 -167.65c-8.57,-9.81 -12.47,-18.86 -11.75,-27.09 0.73,-8.23 6.07,-16.75 16.13,-25.55l75.32 -65.82c11.09,-9.69 21.31,-17.44 30.56,-23.23 9.35,-5.79 18.83,-9.68 28.58,-11.52 8.24,-1.71 16.55,-1.92 25.04,-0.83 8.44,1.14 16.26,3.64 23.56,7.52 7.35,3.93 13.84,9.06 19.5,15.55 19.5,22.32 22.16,48.83 7.93,79.5 38.73,-17.38 69.82,-12.6 93.41,14.39 10.89,12.46 17.38,26.65 19.43,42.44 2.1,15.83 -0.44,31.05 -7.62,45.66 -4.59,9.05 -10.94,18.16 -19.14,27.35 -8.15,9.23 -18.42,19.21 -30.65,29.9zm-90.07 -95.96l-49.02 42.84 56.89 65.09 50.59 -44.21c31.87,-27.85 38.16,-52.76 18.92,-74.77 -9.84,-11.26 -21.08,-15.82 -33.8,-13.67 -12.62,2.15 -27.18,10.39 -43.58,24.72zm-127.68 -47.16l50.35 57.61 43.18 -37.74c11.74,-10.26 19.83,-19.25 24.35,-26.95 4.58,-7.75 5.91,-16.06 4.1,-25 -1.07,-6.58 -3.94,-12.49 -8.53,-17.73 -9.84,-11.26 -20.54,-15.09 -32.15,-11.45 -11.55,3.6 -25.95,12.89 -43.05,27.83l-38.25 33.43z"/>
   <path class="fil4" d="M1668.24 3298.72c0,16.82 -1.05,31.23 -3.09,43.28 -2.05,12.1 -5.82,23.06 -11.37,32.86 -6.97,12.05 -15.93,21.38 -26.99,27.93 -11.06,6.55 -23.37,9.8 -36.89,9.8 -15.51,0 -29.5,-4.4 -41.82,-13.21 -12.31,-8.8 -21.59,-20.96 -27.88,-36.47 -3.14,-8.49 -5.45,-17.92 -6.97,-28.19 -1.47,-10.27 -2.2,-21.38 -2.2,-33.38 0,-15.46 0.84,-29.34 2.46,-41.71 1.62,-12.42 4.19,-23.06 7.65,-31.96 6.03,-14.72 14.83,-25.94 26.31,-33.64 11.53,-7.7 25.26,-11.58 41.24,-11.58 10.53,0 20.12,1.73 28.72,5.14 8.59,3.46 16.14,8.44 22.64,15.04 6.5,6.6 12,14.78 16.51,24.47 7.81,16.87 11.69,40.77 11.69,71.63zm-42.13 -3.04c0,-18.71 -1.1,-34.06 -3.35,-45.96 -2.25,-11.95 -6.08,-20.96 -11.37,-27.04 -5.35,-6.08 -12.73,-9.12 -22.11,-9.12 -13.52,0 -22.9,6.81 -28.19,20.44 -5.29,13.57 -7.91,34.53 -7.91,62.88 0,19.23 1.1,35 3.35,47.26 2.25,12.32 6.08,21.59 11.37,27.88 5.35,6.29 12.58,9.43 21.7,9.43 9.38,0 16.77,-3.25 22.11,-9.8 5.29,-6.55 9.01,-15.93 11.16,-28.09 2.15,-12.21 3.25,-28.14 3.25,-47.89zm143.06 -22.38c9.43,0 17.55,-2.78 24.37,-8.28 6.81,-5.55 10.22,-13.47 10.22,-23.84 0,-7.86 -2.72,-14.67 -8.17,-20.33 -5.4,-5.71 -12.73,-8.54 -21.96,-8.54 -6.23,0 -11.37,0.89 -15.4,2.62 -4.04,1.73 -7.23,4.03 -9.59,6.92 -2.36,2.83 -4.61,6.55 -6.71,11.06 -2.1,4.51 -3.98,8.75 -5.76,12.73 -1,2.15 -2.83,3.88 -5.5,5.08 -2.67,1.26 -5.71,1.83 -9.22,1.83 -4.09,0 -7.86,-1.62 -11.27,-4.98 -3.46,-3.3 -5.13,-7.75 -5.13,-13.26 0,-5.35 1.57,-10.9 4.82,-16.82 3.25,-5.87 7.91,-11.48 14.15,-16.77 6.18,-5.35 13.89,-9.59 23.06,-12.84 9.22,-3.2 19.55,-4.82 30.86,-4.82 9.96,0 19.02,1.36 27.2,4.09 8.17,2.67 15.3,6.6 21.38,11.74 6.03,5.08 10.59,11 13.68,17.77 3.04,6.76 4.61,14.04 4.61,21.8 0,10.22 -2.25,19.02 -6.71,26.31 -4.45,7.34 -10.85,14.46 -19.13,21.43 7.96,4.3 14.72,9.17 20.23,14.72 5.45,5.5 9.59,11.63 12.37,18.34 2.78,6.71 4.14,13.94 4.14,21.7 0,9.33 -1.89,18.29 -5.61,26.99 -3.77,8.7 -9.27,16.45 -16.56,23.27 -7.23,6.81 -15.88,12.1 -25.89,15.93 -9.95,3.82 -21.01,5.76 -33.06,5.76 -12.32,0 -23.32,-2.2 -33.01,-6.6 -9.75,-4.4 -17.71,-9.9 -24.05,-16.51 -6.29,-6.55 -11,-13.42 -14.25,-20.44 -3.25,-7.07 -4.82,-12.89 -4.82,-17.5 0,-5.92 1.89,-10.69 5.76,-14.36 3.82,-3.62 8.59,-5.45 14.36,-5.45 2.83,0 5.61,0.84 8.28,2.57 2.62,1.68 4.4,3.67 5.19,6.03 5.35,14.25 11.06,24.78 17.14,31.7 6.08,6.92 14.67,10.37 25.73,10.37 6.34,0 12.42,-1.57 18.34,-4.66 5.87,-3.14 10.74,-7.75 14.57,-13.89 3.82,-6.18 5.76,-13.26 5.76,-21.38 0,-11.95 -3.25,-21.33 -9.8,-28.14 -6.55,-6.81 -15.67,-10.22 -27.35,-10.22 -2.05,0 -5.24,0.21 -9.54,0.63 -4.3,0.42 -7.02,0.57 -8.28,0.57 -5.61,0 -9.96,-1.36 -13.05,-4.19 -3.09,-2.83 -4.61,-6.71 -4.61,-11.74 0,-4.92 1.83,-8.86 5.55,-11.9 3.67,-2.99 9.12,-4.51 16.4,-4.51l6.29 0zm177.48 72.63l-48.52 0c-7.39,0 -13,-1.73 -16.82,-5.13 -3.82,-3.46 -5.76,-7.91 -5.76,-13.36 0,-5.5 1.89,-10.01 5.61,-13.47 3.72,-3.4 9.38,-5.13 16.98,-5.13l48.52 0c7.6,0 13.26,1.73 16.98,5.13 3.72,3.46 5.61,7.97 5.61,13.47 0,5.45 -1.83,9.9 -5.55,13.36 -3.67,3.4 -9.33,5.13 -17.03,5.13zm116.59 42.13l0 -139.6c-25.99,19.91 -43.49,29.87 -52.51,29.87 -4.3,0 -8.12,-1.73 -11.42,-5.14 -3.35,-3.41 -4.98,-7.39 -4.98,-11.9 0,-5.24 1.62,-9.07 4.87,-11.53 3.3,-2.41 9.07,-5.61 17.35,-9.49 12.42,-5.82 22.32,-11.95 29.71,-18.39 7.44,-6.45 13.99,-13.68 19.75,-21.64 5.71,-8.02 9.49,-12.89 11.22,-14.72 1.73,-1.83 5.03,-2.78 9.85,-2.78 5.4,0 9.8,2.1 13.05,6.29 3.3,4.19 4.92,9.95 4.92,17.34l0 175.65c0,20.59 -7.02,30.86 -21.07,30.86 -6.24,0 -11.27,-2.1 -15.04,-6.29 -3.83,-4.19 -5.71,-10.37 -5.71,-18.55zm186.81 0l0 -139.6c-25.99,19.91 -43.49,29.87 -52.51,29.87 -4.3,0 -8.12,-1.73 -11.42,-5.14 -3.35,-3.41 -4.98,-7.39 -4.98,-11.9 0,-5.24 1.62,-9.07 4.87,-11.53 3.3,-2.41 9.07,-5.61 17.35,-9.49 12.42,-5.82 22.32,-11.95 29.71,-18.39 7.44,-6.45 13.99,-13.68 19.75,-21.64 5.71,-8.02 9.49,-12.89 11.22,-14.72 1.73,-1.83 5.03,-2.78 9.85,-2.78 5.4,0 9.8,2.1 13.05,6.29 3.3,4.19 4.92,9.95 4.92,17.34l0 175.65c0,20.59 -7.02,30.86 -21.07,30.86 -6.24,0 -11.27,-2.1 -15.04,-6.29 -3.83,-4.19 -5.71,-10.37 -5.71,-18.55zm174.92 -42.13l-48.52 0c-7.39,0 -13,-1.73 -16.82,-5.13 -3.82,-3.46 -5.76,-7.91 -5.76,-13.36 0,-5.5 1.89,-10.01 5.61,-13.47 3.72,-3.4 9.38,-5.13 16.98,-5.13l48.52 0c7.6,0 13.26,1.73 16.98,5.13 3.72,3.46 5.61,7.97 5.61,13.47 0,5.45 -1.83,9.9 -5.55,13.36 -3.67,3.4 -9.33,5.13 -17.03,5.13zm116.59 42.13l0 -139.6c-25.99,19.91 -43.49,29.87 -52.5,29.87 -4.3,0 -8.12,-1.73 -11.42,-5.14 -3.35,-3.41 -4.98,-7.39 -4.98,-11.9 0,-5.24 1.62,-9.07 4.87,-11.53 3.3,-2.41 9.07,-5.61 17.34,-9.49 12.42,-5.82 22.32,-11.95 29.71,-18.39 7.44,-6.45 13.99,-13.68 19.75,-21.64 5.71,-8.02 9.49,-12.89 11.22,-14.72 1.73,-1.83 5.03,-2.78 9.85,-2.78 5.4,0 9.8,2.1 13.05,6.29 3.3,4.19 4.92,9.95 4.92,17.34l0 175.65c0,20.59 -7.02,30.86 -21.07,30.86 -6.24,0 -11.27,-2.1 -15.04,-6.29 -3.83,-4.19 -5.71,-10.37 -5.71,-18.55zm226.16 -79.81c-6.76,8.02 -14.3,14.05 -22.64,18.08 -8.33,4.03 -17.61,6.08 -27.72,6.08 -9.64,0 -18.6,-1.89 -26.99,-5.61 -8.33,-3.72 -15.56,-8.96 -21.64,-15.67 -6.08,-6.71 -10.8,-14.51 -14.05,-23.47 -3.3,-8.96 -4.92,-18.34 -4.92,-28.14 0,-10.58 1.83,-20.54 5.55,-30.02 3.67,-9.49 8.96,-17.66 15.77,-24.63 6.87,-6.97 15.04,-12.37 24.52,-16.3 9.48,-3.88 19.97,-5.82 31.39,-5.82 13.2,0 24.99,2.41 35.37,7.23 10.32,4.77 19.02,11.79 26.1,20.91 7.07,9.17 12.47,20.7 16.3,34.64 3.77,13.89 5.66,29.66 5.66,47.21 0,19.65 -1.99,36.94 -5.97,51.93 -4.03,14.99 -9.8,27.56 -17.45,37.78 -7.65,10.17 -16.77,17.71 -27.41,22.69 -10.64,4.98 -22.74,7.44 -36.26,7.44 -13.31,0 -24.89,-2.52 -34.69,-7.6 -9.85,-5.03 -17.35,-11.32 -22.43,-18.81 -5.14,-7.55 -7.7,-14.78 -7.7,-21.7 0,-4.3 1.57,-8.12 4.77,-11.53 3.2,-3.35 7.23,-5.03 12.16,-5.03 4.51,0 8.54,1.26 12.1,3.78 3.62,2.46 6.29,6.23 8.17,11.27 2.25,6.13 5.97,11.06 11.21,14.78 5.19,3.72 11.11,5.61 17.66,5.61 5.82,0 11.37,-1.47 16.56,-4.45 5.24,-2.93 9.7,-7.18 13.36,-12.58 7.39,-10.95 11.79,-30.29 13.2,-58.06zm-3.51 -47c0,-6.92 -0.94,-13.36 -2.83,-19.23 -1.89,-5.87 -4.56,-10.95 -8.02,-15.25 -3.41,-4.3 -7.5,-7.7 -12.26,-10.17 -4.77,-2.46 -9.96,-3.67 -15.62,-3.67 -9.69,0 -17.97,4.19 -24.73,12.52 -6.76,8.33 -10.11,19.34 -10.11,33.07 0,13.57 3.35,24.42 10.11,32.54 6.76,8.07 15.35,12.1 25.68,12.1 6.34,0 12.42,-1.68 18.18,-4.98 5.82,-3.35 10.53,-8.17 14.15,-14.51 3.61,-6.34 5.45,-13.84 5.45,-22.43zm111.25 -75.04l102.29 0c9.85,0 16.98,1.52 21.38,4.61 4.4,3.04 6.6,8.12 6.6,15.2 0,4.3 -2.57,9.96 -7.75,17.03 -5.19,7.07 -11.06,14.88 -17.66,23.42 -6.6,8.54 -13.41,19.13 -20.44,31.81 -7.02,12.68 -13.47,28.19 -19.28,46.53 -2.46,8.07 -4.19,14.78 -5.24,20.07 -1,5.35 -2.15,12.26 -3.35,20.75 -1.26,8.49 -2.31,14.99 -3.25,19.49 -2.15,10.43 -5.19,17.66 -9.12,21.69 -3.98,4.04 -9.22,6.08 -15.77,6.08 -6.24,0 -11.27,-2.15 -15.04,-6.5 -3.82,-4.35 -5.71,-10.8 -5.71,-19.28 0,-6.55 1.41,-15.46 4.14,-26.67 2.78,-11.27 7.28,-24.73 13.52,-40.45 6.29,-15.67 14.1,-31.81 23.47,-48.31 9.33,-16.5 20.49,-32.96 33.38,-49.31l-82.17 0c-8.65,0 -15.04,-1.57 -19.28,-4.72 -4.24,-3.09 -6.39,-8.02 -6.39,-14.67 0,-7.07 2.25,-11.63 6.76,-13.68 4.51,-2.04 10.79,-3.09 18.92,-3.09zm265.88 122.04c-6.76,8.02 -14.3,14.05 -22.64,18.08 -8.33,4.03 -17.61,6.08 -27.72,6.08 -9.64,0 -18.6,-1.89 -26.99,-5.61 -8.33,-3.72 -15.56,-8.96 -21.64,-15.67 -6.08,-6.71 -10.8,-14.51 -14.05,-23.47 -3.3,-8.96 -4.92,-18.34 -4.92,-28.14 0,-10.58 1.83,-20.54 5.55,-30.02 3.67,-9.49 8.96,-17.66 15.77,-24.63 6.87,-6.97 15.04,-12.37 24.52,-16.3 9.48,-3.88 19.97,-5.82 31.39,-5.82 13.2,0 24.99,2.41 35.37,7.23 10.32,4.77 19.02,11.79 26.1,20.91 7.07,9.17 12.47,20.7 16.3,34.64 3.77,13.89 5.66,29.66 5.66,47.21 0,19.65 -1.99,36.94 -5.97,51.93 -4.03,14.99 -9.8,27.56 -17.45,37.78 -7.65,10.17 -16.77,17.71 -27.41,22.69 -10.64,4.98 -22.74,7.44 -36.26,7.44 -13.31,0 -24.89,-2.52 -34.69,-7.6 -9.85,-5.03 -17.35,-11.32 -22.43,-18.81 -5.14,-7.55 -7.7,-14.78 -7.7,-21.7 0,-4.3 1.57,-8.12 4.77,-11.53 3.2,-3.35 7.23,-5.03 12.16,-5.03 4.51,0 8.54,1.26 12.1,3.78 3.62,2.46 6.29,6.23 8.17,11.27 2.25,6.13 5.97,11.06 11.21,14.78 5.19,3.72 11.11,5.61 17.66,5.61 5.82,0 11.37,-1.47 16.56,-4.45 5.24,-2.93 9.7,-7.18 13.36,-12.58 7.39,-10.95 11.79,-30.29 13.2,-58.06zm-3.51 -47c0,-6.92 -0.94,-13.36 -2.83,-19.23 -1.89,-5.87 -4.56,-10.95 -8.02,-15.25 -3.41,-4.3 -7.5,-7.7 -12.26,-10.17 -4.77,-2.46 -9.96,-3.67 -15.62,-3.67 -9.69,0 -17.97,4.19 -24.73,12.52 -6.76,8.33 -10.11,19.34 -10.11,33.07 0,13.57 3.35,24.42 10.11,32.54 6.76,8.07 15.35,12.1 25.68,12.1 6.34,0 12.42,-1.68 18.18,-4.98 5.82,-3.35 10.53,-8.17 14.15,-14.51 3.61,-6.34 5.45,-13.84 5.45,-22.43z"/>
  </g>
 </g>
</svg>
