<?xml version="1.0" encoding="UTF-8"?>
<!DOCTYPE svg PUBLIC "-//W3C//DTD SVG 1.1//EN" "http://www.w3.org/Graphics/SVG/1.1/DTD/svg11.dtd">
<!-- Creator: CorelDRAW 2020 (64 Bit) -->
<svg xmlns="http://www.w3.org/2000/svg" xml:space="preserve" width="357.074mm" height="407.43mm" version="1.1" style="shape-rendering:geometricPrecision; text-rendering:geometricPrecision; image-rendering:optimizeQuality; fill-rule:evenodd; clip-rule:evenodd"
viewBox="0 0 6345.33 7240.17"
 xmlns:xlink="http://www.w3.org/1999/xlink"
 xmlns:xodm="http://www.corel.com/coreldraw/odm/2003">
 <defs>
  <style type="text/css">
   <![CDATA[
    .fil3 {fill:#001781}
    .fil1 {fill:#E0030A}
    .fil2 {fill:#FED403}
    .fil4 {fill:#FEFEFE}
    .fil0 {fill:#001781;fill-rule:nonzero}
   ]]>
  </style>
 </defs>
 <g id="Camada_x0020_1">
  <metadata id="CorelCorpID_0Corel-Layer"/>
  <g id="_1928770104864">
   <path class="fil0" d="M-0 3156.37l645.11 0c140.53,0 245.72,42.16 315.84,126.85 69.83,84.69 104.89,205.25 104.89,361.69 0,160.5 -38.27,286.24 -114.53,376.48 -76.26,90.61 -192.83,135.72 -349.44,135.72l-212.7 0 0 588.01 -389.17 0 0 -1588.75zm389.17 678.99l95.54 0c75.38,0 128.26,-16.64 158.65,-49.56 30.39,-32.91 45.58,-75.07 45.58,-126.48 0,-49.93 -13.15,-92.09 -39.74,-126.85 -26.29,-34.76 -75.96,-52.15 -149.01,-52.15l-111.02 0 0 355.03zm811.94 384.24l368.14 -29.21c7.89,75.44 24.25,133.13 48.79,172.33 40.03,63.98 97,96.15 171.21,96.15 55.22,0 97.88,-16.27 127.68,-49.19 30.1,-32.91 44.99,-71 44.99,-114.27 0,-41.05 -14.02,-78.03 -42.36,-110.58 -28.34,-32.54 -94.37,-62.87 -198.09,-92.09 -170.04,-48.08 -291,-112.43 -363.46,-192.68 -73.04,-79.88 -109.56,-181.95 -109.56,-306.21 0,-81.36 18.7,-158.28 56.1,-230.77 37.4,-72.85 93.49,-129.81 168.58,-171.23 75.09,-41.42 177.93,-62.13 308.53,-62.13 160.4,0 282.53,37.72 366.67,113.53 84.14,75.44 134.11,195.64 150.18,360.57l-364.63 27.37c-9.64,-72.12 -30.09,-124.63 -61.06,-157.17 -31.26,-32.91 -74.21,-49.19 -128.85,-49.19 -44.99,0 -79.18,12.2 -101.97,36.24 -22.79,24.04 -34.18,53.62 -34.18,88.39 0,25.15 9.35,47.71 27.76,68.05 17.82,21.08 61.06,40.31 129.43,58.43 169.46,46.23 290.71,93.19 363.75,140.53 73.33,47.34 126.8,105.77 160.11,176.03 33.31,69.9 49.96,148.3 49.96,235.21 0,101.7 -22.21,195.63 -66.62,281.8 -44.7,85.8 -106.64,151.26 -186.7,195.64 -79.76,44.38 -180.27,66.57 -301.81,66.57 -213.28,0 -361.13,-52.15 -443.22,-156.06 -82.1,-103.92 -128.56,-235.95 -139.37,-396.08z"/>
   <path class="fil0" d="M3875.32 3156.37l1179.79 0 0 392.75 -396.18 0 0 1196 -387.42 0 0 -1196 -396.18 0 0 -392.75zm2129.92 938.6l340.09 129.81c-22.79,120.56 -58.73,221.52 -108.1,302.14 -49.08,80.99 -109.86,142.01 -182.9,183.06 -72.75,41.05 -165.37,61.76 -277.86,61.76 -136.74,0 -248.05,-25.15 -334.83,-75.07 -86.48,-50.3 -160.99,-138.68 -223.8,-264.79 -62.82,-126.11 -94.37,-288.09 -94.37,-484.84 0,-262.57 55.22,-464.49 165.66,-605.76 110.73,-140.9 267.05,-211.54 469.23,-211.54 158.07,0 282.53,40.31 373.1,121.3 90.28,80.99 157.77,205.25 201.6,373.15l-341.84 95.78c-11.98,-48.08 -24.54,-83.21 -37.69,-105.4 -21.91,-37.35 -48.5,-66.2 -79.76,-86.17 -31.55,-20.34 -66.61,-30.33 -105.47,-30.33 -88.24,0 -155.73,44.75 -202.47,133.87 -35.35,66.2 -53.18,170.49 -53.18,312.13 0,176.03 21.04,296.22 63.4,361.68 42.36,65.09 101.68,97.63 178.23,97.63 74.21,0 130.31,-26.26 168.29,-79.14 37.98,-52.51 65.45,-129.07 82.68,-229.29z"/>
   <ellipse class="fil1" cx="3075.97" cy="2319.81" rx="384.55" ry="399.04"/>
   <path class="fil2" d="M3043.16 4379.59c-8.6,18.64 -25.05,57.3 -38.38,94.65 -13.32,37.35 -23.51,73.4 -32,103.96 -8.49,30.56 -15.28,55.64 -28.47,106.05 -13.19,50.41 -32.79,126.16 -50.16,194.34 -17.37,68.18 -32.52,128.78 -54.07,215.5 -21.55,86.72 -49.5,199.56 -75.36,290.46 -25.86,90.9 -49.63,159.86 -63.22,197.34 -13.58,37.48 -16.98,43.49 -22.34,47.54 -5.35,4.05 -12.67,6.14 -28.34,8.23 -15.67,2.09 -39.7,4.18 -146.93,4.57 -107.23,0.39 -297.65,-0.91 -392.86,-1.7 -95.21,-0.78 -95.21,-1.04 -93.51,-6.79 1.7,-5.75 5.09,-16.98 12.93,-34.35 7.84,-17.37 20.11,-40.88 34.48,-65.43 14.37,-24.55 30.82,-50.15 46.5,-75.75 15.67,-25.6 30.56,-51.2 59.42,-104.88 28.86,-53.68 71.7,-135.44 106.7,-208.97 35,-73.53 62.17,-138.83 92.46,-226.08 30.3,-87.24 63.73,-196.43 86.45,-282.62 22.72,-86.2 34.74,-149.41 45.45,-243.18 10.71,-93.77 20.11,-218.11 22.2,-323.64 2.09,-105.53 -3.14,-192.25 -22.47,-311.36 -19.33,-119.11 -52.76,-270.61 -79.4,-375.62 -26.64,-105.01 -46.5,-163.52 -71.05,-225.69 -24.56,-62.17 -53.81,-127.99 -84.11,-182.85 -30.3,-54.85 -61.65,-98.74 -92.99,-152.02 -31.35,-53.29 -62.69,-115.98 -89.33,-188.07 -26.64,-72.09 -48.58,-153.59 -62.69,-223.07 -14.1,-69.48 -20.37,-126.95 -18.82,-196.43 1.56,-69.48 10.95,-150.98 28.7,-227.77 17.75,-76.79 43.88,-148.89 71.56,-213.67 27.69,-64.78 56.94,-122.25 90.9,-176.58 33.96,-54.33 72.61,-105.53 106.57,-141.05 33.96,-35.52 63.21,-55.38 101.87,-82.54 38.66,-27.17 86.72,-61.65 155.15,-90.9 68.44,-29.26 157.25,-53.29 299.87,-62.69 142.62,-9.4 339.05,-4.18 490.03,17.76 150.98,21.94 256.51,60.6 322.85,91.42 66.35,30.82 93.51,53.81 129.56,89.86 36.05,36.05 80.98,85.15 124.34,141.57 43.36,56.42 85.15,120.15 117.02,187.55 31.87,67.39 53.81,138.44 68.96,203.74 15.15,65.3 23.51,124.86 28.73,170.83 5.22,45.97 7.31,78.36 6.27,120.15 -1.04,41.79 -5.22,92.99 -10.44,141.58 -5.22,48.58 -11.48,94.56 -21.4,140.53 -9.92,45.97 -23.5,91.95 -44.92,137.92 -21.42,45.97 -50.67,91.95 -82.02,141.05 -31.35,49.11 -64.78,101.35 -97.17,144.19 -32.39,42.84 -63.73,76.27 -83.06,102.92 -19.33,26.64 -26.64,46.5 -36.83,72.36 -10.19,25.86 -23.25,57.73 -38.4,101.87 -15.15,44.14 -32.39,100.57 -48.32,154.37 -15.93,53.81 -30.56,105.01 -44.93,167.7 -14.37,62.69 -28.48,136.87 -37.62,213.14 -9.14,76.27 -13.32,154.64 -13.32,238.22 0,83.59 4.18,172.4 15.15,267.74 10.97,95.34 28.73,197.22 46.49,277.93 17.76,80.71 35.52,140.27 56.16,202.18 20.63,61.9 44.14,126.16 72.35,194.08 28.21,67.91 61.12,139.48 95.08,209.23 33.96,69.74 68.96,137.66 105.79,202.18 36.83,64.52 75.49,125.64 103.44,173.44 27.95,47.8 45.19,82.28 53.81,99.52 8.62,17.24 8.62,17.24 -8.62,16.72 -17.24,-0.52 -51.72,-1.57 -113.1,-1.83 -61.38,-0.26 -149.67,0.26 -241.1,0.26 -91.42,0 -185.98,-0.52 -242.66,-1.04 -56.68,-0.52 -75.49,-1.04 -84.89,-1.31 -9.4,-0.26 -9.4,-0.26 -16.46,-21.68 -7.05,-21.42 -21.16,-64.26 -38.92,-127.21 -17.76,-62.95 -39.18,-146.02 -57.2,-211.84 -18.02,-65.82 -32.65,-114.41 -46.23,-157.51 -13.58,-43.1 -26.12,-80.71 -44.67,-138.18 -18.55,-57.47 -43.11,-134.78 -68.19,-216.28 -25.08,-81.5 -50.68,-167.18 -67.93,-226.47 -17.24,-59.29 -26.12,-92.21 -33.44,-116.73 -7.31,-24.52 -13.06,-40.65 -16.3,-49.41 -3.24,-8.75 -3.98,-10.13 -12.57,8.51zm32.17 -2763.87c343.2,0 621.42,278.22 621.42,621.42 0,343.2 -278.22,621.42 -621.42,621.42 -343.2,0 -621.42,-278.22 -621.42,-621.42 0,-343.2 278.22,-621.42 621.42,-621.42z"/>
   <g>
    <path class="fil3" d="M2645.7 1665.1c39.9,-19.36 99.88,-40.44 142.82,-57.07 72.17,-27.96 23.35,-6.97 157.81,18.65 33.37,6.36 150.47,19.5 170.8,29.58 2.51,1.25 85.19,91.91 91.47,117.48 -169.93,22.73 -288.49,34.84 -454.5,-39.51 -21.25,-9.52 -94.85,-46.75 -108.4,-69.14zm467.08 -30.51c-48.36,-9.63 -96.13,-19.24 -145.45,-28.8 -36,-6.98 -108.77,-15.89 -123.77,-49.94 -14.72,-33.42 -83.4,-242.08 -68.78,-269.21l88.01 -85.33c16.22,-16.38 30.47,-27.58 43.84,-45.19 13.98,-18.42 28.99,-36.79 47.59,-32.7 175.27,38.6 130.91,20.49 305.75,38.64 9.94,51.46 23.27,101.78 37.93,153.15 25.02,87.68 40.68,105.7 7.85,137.61 -44.21,42.97 -110.31,88.82 -149.24,131.29 -13.5,14.73 -29.13,36.22 -43.73,50.47zm433.08 -59.95c-0.78,-80.97 77.73,-197.84 117.77,-267.18 10.96,-18.98 32.61,-63.33 44.4,-76.74 2.18,40.61 -42.75,161.07 -60.01,194.83 -15.47,30.26 -28.62,56.47 -46.68,82.37 -8.78,12.59 -17.2,22.88 -26.84,35.42 -10.78,14.03 -18.65,19.52 -28.65,31.31zm-1108.45 -184.18c-4.52,-4.19 -3.03,-2.3 -7.3,-8.52l-8.78 -18.69c-68.87,-179.51 -39.62,-296.99 -2.53,-468.61 77.35,16.92 45.02,49.1 58.88,153.3 21.6,162.43 13.54,109.09 -11.99,237.3 -8.31,41.73 -16.68,69.06 -28.28,105.22zm1212.27 -298.26c8.81,9.21 9.46,18.76 12.61,34.01 6.83,7.15 20.08,70.52 19.81,89.47 -0.45,32.29 -98.88,171.4 -113.25,219.07 -73.14,-9.62 -144.7,-12.28 -217.74,-21.52 -9.38,-17.28 -45.29,-157.25 -44.91,-177.96 -10.99,-12.07 -12.19,-38.94 -12.55,-57.33 -8.52,-25.46 12.87,-47.16 25.52,-67.92 13.49,-22.13 23.91,-38.85 37.29,-60.85l72.52 -128.91c27,5.43 54.23,17.57 84.09,23.86 27.01,5.69 66.64,7.86 92.05,14.89 10.35,31.58 44.86,106.07 44.56,133.2zm-1031.25 141.03c-27.6,-7.96 -68.97,-20.66 -91.99,-37.25 -5.68,-4.1 -4.09,-2.92 -9.54,-6.71l-9.74 -125.36c-3.57,-30.24 -5.53,-62.88 -6.91,-93.52 -2.5,-55.28 5.12,-44.85 30.13,-74.72 10.55,-12.6 12.72,-14.06 25.96,-27.46 28.36,-28.7 81.92,-100.22 127.77,-135.42 12.94,-9.94 15.2,-10.1 30.94,-2.24 55.26,27.62 132.25,45.62 192.14,65.66 5.93,67.19 9.34,135.17 18.18,200.92 3.1,23.04 15.23,79.83 6.33,99.08l-109.05 109.46c-93.18,73.66 -49.59,81.96 -128.58,54.29 -15.16,-5.31 -66.18,-19.71 -75.63,-26.72zm994.32 -297.62c-60.23,-6.93 -112.93,-21.46 -167.41,-39.59 -25.07,-8.34 -21.56,-4.28 -32.25,-21.03 -34.85,-54.57 -55.3,-65.6 -100.38,-104.6 -117.98,-102.05 -89.73,-88.49 -79.55,-147.06 5.08,-29.23 7.06,-61.28 10.68,-91.87 35.17,-4.58 147.84,9.7 171.31,25.14 9.59,6.31 19.44,15.85 29.74,23.67 64.54,48.94 136.56,100.93 166.94,180.4 22.68,59.33 8.98,115.37 0.92,174.93zm-896.56 -236.91c2.91,-23.85 24.98,-165.87 33.86,-175.57 5.59,-6.11 130.98,-50.51 148.87,-56.09 76.51,-23.88 100.13,-23.56 177.01,-2.92 51,13.69 108.51,33.53 142.78,60.18 1.89,50.17 -8.4,102.34 -15.97,149.44l-248.12 80.55c-28.41,11.08 -32.35,20.96 -64.17,11.29 -45.09,-13.7 -144.28,-42.91 -174.25,-66.88zm-71.51 1009.26c87.3,42.71 172.01,92.8 286.56,103.21 228.97,20.81 429.69,-40.41 592.99,-180.21 66.09,-56.58 85.88,-83.37 130.15,-163.36 10.83,-19.57 20.11,-46.58 30.45,-63.6 54.32,-131.95 70.26,-282.86 46.56,-437.44 -24.51,-159.88 -132.65,-309.07 -239.14,-389.08 -25.71,-19.32 -43.37,-36.84 -70.47,-54.21 -55.02,-35.27 -110.57,-50.41 -179.71,-69.53 -168.33,-46.55 -259.81,-56.73 -420.75,11.43 -148.69,62.97 -190.97,85.34 -298.78,200.09 -72.12,76.77 -141.46,203.54 -158.77,344.97 -10.85,88.64 -23.18,135.63 -7.21,230.94 19.6,116.97 102.35,301.03 186.24,379.27 27.81,25.93 70.16,68.82 101.88,87.52z"/>
    <path class="fil4" d="M3112.79 1634.59c14.6,-14.26 30.23,-35.75 43.73,-50.47 38.93,-42.47 105.04,-88.31 149.24,-131.29 32.83,-31.91 17.17,-49.93 -7.85,-137.61 -14.66,-51.37 -27.99,-101.7 -37.93,-153.15 -174.84,-18.15 -130.48,-0.04 -305.75,-38.64 -18.6,-4.1 -33.61,14.28 -47.59,32.7 -13.37,17.61 -27.62,28.82 -43.84,45.19l-88.01 85.33c-14.62,27.12 54.05,235.79 68.78,269.21 15.01,34.05 87.78,42.96 123.77,49.94 49.32,9.56 97.09,19.17 145.45,28.8z"/>
    <path class="fil4" d="M2618.43 1233.23c9.45,7.01 60.47,21.41 75.63,26.72 79,27.67 35.4,19.37 128.58,-54.29l109.05 -109.46c8.91,-19.25 -3.23,-76.04 -6.33,-99.08 -8.84,-65.74 -12.24,-133.73 -18.18,-200.92 -59.89,-20.05 -136.88,-38.04 -192.14,-65.66 -15.73,-7.86 -17.99,-7.7 -30.94,2.24 -45.85,35.2 -99.42,106.72 -127.77,135.42 -13.24,13.4 -15.41,14.87 -25.96,27.46 -25.02,29.88 -32.63,19.44 -30.13,74.72 1.38,30.64 3.34,63.28 6.91,93.52l9.74 125.36c5.46,3.79 3.86,2.62 9.54,6.71 23.02,16.6 64.4,29.29 91.99,37.25z"/>
    <path class="fil4" d="M2716.19 698.7c29.97,23.97 129.16,53.17 174.25,66.88 31.82,9.67 35.77,-0.21 64.17,-11.29l248.12 -80.55c7.56,-47.11 17.86,-99.27 15.97,-149.44 -34.27,-26.65 -91.78,-46.49 -142.78,-60.18 -76.88,-20.63 -100.5,-20.95 -177.01,2.92 -17.89,5.58 -143.27,49.98 -148.87,56.09 -8.88,9.7 -30.95,151.72 -33.86,175.57z"/>
    <path class="fil4" d="M3306.19 1235.26c-0.37,20.71 35.53,160.68 44.91,177.96 73.05,9.24 144.6,11.91 217.74,21.52 14.37,-47.67 112.8,-186.78 113.25,-219.07 0.26,-18.94 -12.98,-82.31 -19.81,-89.47 -3.15,-15.25 -3.8,-24.8 -12.61,-34.01 0.3,-27.12 -34.21,-101.62 -44.56,-133.2 -25.4,-7.03 -65.04,-9.19 -92.05,-14.89 -29.85,-6.29 -57.09,-18.43 -84.09,-23.86l-72.52 128.91c-13.38,22 -23.81,38.72 -37.29,60.85 -12.65,20.76 -34.05,42.46 -25.52,67.92 0.36,18.39 1.55,45.26 12.55,57.33z"/>
    <path class="fil4" d="M3612.75 935.61c8.05,-59.56 21.76,-115.6 -0.92,-174.93 -30.38,-79.47 -102.4,-131.46 -166.94,-180.4 -10.31,-7.82 -20.15,-17.35 -29.74,-23.67 -23.47,-15.44 -136.14,-29.72 -171.31,-25.14 -3.62,30.59 -5.6,62.63 -10.68,91.87 -10.18,58.57 -38.43,45.01 79.55,147.06 45.09,39 65.54,50.03 100.38,104.6 10.69,16.75 7.19,12.69 32.25,21.03 54.48,18.12 107.18,32.66 167.41,39.59z"/>
    <path class="fil4" d="M2645.7 1665.1c13.55,22.39 87.15,59.62 108.4,69.14 166.01,74.35 284.57,62.24 454.5,39.51 -6.27,-25.57 -88.96,-116.24 -91.47,-117.48 -20.32,-10.08 -137.42,-23.23 -170.8,-29.58 -134.46,-25.62 -85.64,-46.61 -157.81,-18.65 -42.93,16.63 -102.92,37.71 -142.82,57.07z"/>
    <path class="fil4" d="M2437.41 1390.46c11.59,-36.17 19.97,-63.49 28.28,-105.22 25.54,-128.21 33.59,-74.88 11.99,-237.3 -13.86,-104.2 18.47,-136.38 -58.88,-153.3 -37.09,171.62 -66.34,289.1 2.53,468.61l8.78 18.69c4.27,6.23 2.78,4.33 7.3,8.52z"/>
    <path class="fil4" d="M3545.86 1574.64c10,-11.78 17.87,-17.28 28.65,-31.31 9.64,-12.54 18.06,-22.83 26.84,-35.42 18.06,-25.9 31.21,-52.11 46.68,-82.37 17.26,-33.77 62.2,-154.23 60.01,-194.83 -11.79,13.41 -33.45,57.77 -44.4,76.74 -40.04,69.35 -118.55,186.21 -117.77,267.18z"/>
   </g>
   <rect class="fil3" x="4.15" y="6067.51" width="6339.11" height="56.42"/>
   <path class="fil0" d="M49.96 6446.69l181.05 0c61.09,0 106.91,16.39 137.46,49.17 30.55,32.78 45.82,80.84 45.82,144.17l0 77.11c0,63.33 -15.27,111.38 -45.82,144.17 -30.55,32.78 -76.37,49.17 -137.46,49.17l-58.11 0 0 318.51 -122.93 0 0 -782.3zm181.05 352.04c20.12,0 35.2,-5.59 45.26,-16.76 10.06,-11.18 15.09,-30.17 15.09,-57l0 -92.76c0,-26.82 -5.03,-45.82 -15.09,-56.99 -10.06,-11.18 -25.15,-16.76 -45.26,-16.76l-58.11 0 0 240.28 58.11 0zm475.08 -352.04l182.17 0c63.33,0 109.52,14.72 138.58,44.15 29.06,29.43 43.59,74.69 43.59,135.78l0 48.06c0,81.21 -26.82,132.62 -80.47,154.23l0 2.24c29.8,8.94 50.85,27.19 63.14,54.76 12.29,27.57 18.44,64.45 18.44,110.64l0 137.46c0,22.35 0.74,40.42 2.24,54.2 1.49,13.78 5.22,27.38 11.18,40.79l-125.17 0c-4.47,-12.67 -7.45,-24.59 -8.94,-35.76 -1.49,-11.18 -2.24,-31.29 -2.24,-60.35l0 -143.05c0,-35.76 -5.77,-60.72 -17.32,-74.88 -11.55,-14.16 -31.48,-21.23 -59.79,-21.23l-42.47 0 0 335.27 -122.93 0 0 -782.3zm167.64 335.27c24.59,0 43.03,-6.33 55.32,-19 12.29,-12.67 18.44,-33.9 18.44,-63.7l0 -60.35c0,-28.31 -5.03,-48.8 -15.09,-61.47 -10.06,-12.66 -25.89,-19 -47.5,-19l-55.88 0 0 223.52 44.7 0zm685.19 458.21c-60.35,0 -106.54,-17.14 -138.58,-51.41 -32.04,-34.27 -48.05,-82.7 -48.05,-145.28l0 -411.27c0,-62.58 16.02,-111.01 48.05,-145.28 32.04,-34.27 78.23,-51.41 138.58,-51.41 60.35,0 106.54,17.14 138.58,51.41 32.04,34.27 48.05,82.7 48.05,145.28l0 411.27c0,62.58 -16.02,111.01 -48.05,145.28 -32.04,34.27 -78.23,51.41 -138.58,51.41zm0 -111.76c42.47,0 63.7,-25.7 63.7,-77.11l0 -426.91c0,-51.41 -21.23,-77.11 -63.7,-77.11 -42.47,0 -63.7,25.7 -63.7,77.11l0 426.91c0,51.41 21.23,77.11 63.7,77.11zm667.3 111.76c-58.86,0 -103.75,-16.76 -134.67,-50.29 -30.92,-33.53 -46.38,-80.84 -46.38,-141.93l0 -420.21c0,-61.09 15.46,-108.4 46.38,-141.93 30.92,-33.53 75.81,-50.29 134.67,-50.29 58.86,0 103.75,16.76 134.67,50.29 30.92,33.53 46.38,80.84 46.38,141.93l0 82.7 -116.23 0 0 -90.52c0,-48.43 -20.49,-72.64 -61.47,-72.64 -40.98,0 -61.47,24.21 -61.47,72.64l0 436.97c0,47.68 20.49,71.53 61.47,71.53 40.98,0 61.47,-23.84 61.47,-71.53l0 -119.58 116.23 0 0 110.64c0,61.09 -15.46,108.41 -46.38,141.93 -30.92,33.53 -75.81,50.29 -134.67,50.29zm659.48 0c-60.35,0 -106.54,-17.14 -138.58,-51.41 -32.04,-34.27 -48.05,-82.7 -48.05,-145.28l0 -411.27c0,-62.58 16.02,-111.01 48.05,-145.28 32.04,-34.27 78.23,-51.41 138.58,-51.41 60.35,0 106.54,17.14 138.58,51.41 32.04,34.27 48.05,82.7 48.05,145.28l0 411.27c0,62.58 -16.02,111.01 -48.05,145.28 -32.04,34.27 -78.23,51.41 -138.58,51.41zm0 -111.76c42.47,0 63.7,-25.7 63.7,-77.11l0 -426.91c0,-51.41 -21.23,-77.11 -63.7,-77.11 -42.47,0 -63.7,25.7 -63.7,77.11l0 426.91c0,51.41 21.23,77.11 63.7,77.11zm494.08 -681.72l181.05 0c61.09,0 106.91,16.39 137.46,49.17 30.55,32.78 45.82,80.84 45.82,144.17l0 77.11c0,63.33 -15.27,111.38 -45.82,144.17 -30.55,32.78 -76.37,49.17 -137.46,49.17l-58.11 0 0 318.51 -122.93 0 0 -782.3zm181.05 352.04c20.12,0 35.2,-5.59 45.26,-16.76 10.06,-11.18 15.09,-30.17 15.09,-57l0 -92.76c0,-26.82 -5.03,-45.82 -15.09,-56.99 -10.06,-11.18 -25.15,-16.76 -45.26,-16.76l-58.11 0 0 240.28 58.11 0zm475.08 -352.04l335.27 0 0 111.76 -212.34 0 0 206.75 168.75 0 0 111.76 -168.75 0 0 240.28 212.34 0 0 111.76 -335.27 0 0 -782.3zm630.42 0l154.23 0 119.58 468.26 2.24 0 0 -468.26 109.52 0 0 782.3 -126.28 0 -147.52 -571.08 -2.24 0 0 571.08 -109.52 0 0 -782.3zm861.76 793.48c-59.61,0 -104.68,-16.95 -135.23,-50.85 -30.55,-33.9 -45.82,-82.51 -45.82,-145.84l0 -44.7 116.23 0 0 53.64c0,50.66 21.23,75.99 63.7,75.99 20.86,0 36.69,-6.15 47.5,-18.44 10.8,-12.29 16.2,-32.22 16.2,-59.79 0,-32.78 -7.45,-61.65 -22.35,-86.61 -14.9,-24.96 -42.47,-54.95 -82.7,-89.96 -50.66,-44.7 -86.05,-85.12 -106.17,-121.26 -20.12,-36.13 -30.17,-76.93 -30.17,-122.37 0,-61.84 15.65,-109.71 46.94,-143.61 31.29,-33.9 76.74,-50.85 136.34,-50.85 58.86,0 103.38,16.95 133.55,50.85 30.17,33.9 45.26,82.51 45.26,145.84l0 32.41 -116.23 0 0 -40.23c0,-26.82 -5.22,-46.38 -15.65,-58.67 -10.43,-12.29 -25.7,-18.44 -45.82,-18.44 -40.98,0 -61.47,24.96 -61.47,74.88 0,28.31 7.64,54.76 22.91,79.35 15.27,24.59 43.03,54.39 83.26,89.41 51.41,44.7 86.8,85.31 106.17,121.82 19.37,36.51 29.06,79.35 29.06,128.52 0,64.07 -15.83,113.25 -47.5,147.52 -31.66,34.27 -77.67,51.41 -138.02,51.41zm480.67 -793.48l335.27 0 0 111.76 -212.34 0 0 206.75 168.75 0 0 111.76 -168.75 0 0 240.28 212.34 0 0 111.76 -335.27 0 0 -782.3z"/>
   <path class="fil0" d="M2030.37 1428.53l0.37 -22.03c12.29,-0.18 22.24,2.55 29.88,8.18 7.6,5.63 13.02,13.99 16.23,25.09 3.98,13.75 2.54,26.41 -4.29,37.99 -6.84,11.56 -18.4,19.7 -34.71,24.41 -17.22,4.98 -31.9,4.39 -44.01,-1.74 -12.11,-6.13 -20.26,-16.46 -24.45,-30.96 -3.66,-12.67 -2.88,-24.04 2.33,-34.11 3.07,-6 8.41,-11.36 16.04,-16.12l10.89 19.25c-4.99,2.77 -8.5,6.55 -10.48,11.33 -1.98,4.8 -2.16,9.97 -0.56,15.51 2.22,7.68 6.77,13.13 13.67,16.31 6.88,3.21 16.48,3.02 28.81,-0.55 13.06,-3.77 21.7,-8.83 25.88,-15.13 4.2,-6.33 5.2,-13.25 3.02,-20.79 -1.61,-5.57 -4.75,-9.85 -9.45,-12.83 -4.7,-2.98 -11.07,-4.26 -19.16,-3.81zm27.82 -49.45l-106.1 18.67 -13.82 -78.53 17.93 -3.16 10.04 57.05 23.56 -4.14 -9.33 -53.05 17.93 -3.15 9.33 53.05 28.75 -5.06 -10.4 -59.13 17.93 -3.15 14.18 80.61zm-17.38 -98.9l-107.42 8.18 -1.6 -21.05 68.62 -49.69 -71.99 5.48 -1.53 -20.1 107.42 -8.18 1.65 21.73 -67.29 48.91 70.61 -5.38 1.53 20.1zm-6.98 -132.64l-89.48 -2.73 -0.97 31.88 -18.2 -0.55 2.61 -85.42 18.2 0.56 -0.97 31.73 89.48 2.73 -0.66 21.81zm0.52 -67.83l-106.83 -13.87 5.9 -45.43c1.48,-11.41 3.53,-19.59 6.12,-24.52 2.59,-4.95 6.53,-8.63 11.84,-11.11 5.33,-2.47 11.13,-3.31 17.44,-2.49 8.03,1.04 14.34,4.24 18.96,9.62 4.61,5.38 6.98,12.82 7.14,22.34 3.31,-4.3 6.8,-7.74 10.44,-10.32 3.65,-2.61 9.98,-5.94 18.95,-9.98l22.53 -10.32 -3.35 25.79 -25.33 12.44c-9,4.47 -14.72,7.6 -17.15,9.38 -2.4,1.76 -4.18,3.73 -5.27,5.92 -1.1,2.21 -1.97,5.79 -2.61,10.76l-0.57 4.38 44.61 5.79 -2.81 21.63zm-58.81 -29.63l2.07 -15.97c1.34,-10.34 1.73,-16.84 1.2,-19.54 -0.54,-2.67 -1.79,-4.91 -3.74,-6.63 -1.95,-1.75 -4.54,-2.81 -7.75,-3.23 -3.61,-0.47 -6.62,0.13 -9.1,1.75 -2.46,1.63 -4.21,4.15 -5.23,7.56 -0.48,1.73 -1.28,6.96 -2.42,15.69l-2.19 16.84 27.16 3.53zm19.72 -85.45c-10.72,-2.4 -19.36,-6.04 -25.93,-10.88 -4.83,-3.57 -8.91,-7.93 -12.24,-13.03 -3.33,-5.09 -5.47,-10.32 -6.45,-15.71 -1.29,-7.18 -0.99,-15.05 0.93,-23.62 3.48,-15.51 11.08,-26.81 22.79,-33.98 11.73,-7.13 26.15,-8.78 43.31,-4.93 17,3.82 29.28,11.43 36.8,22.8 7.55,11.38 9.57,24.81 6.11,40.25 -3.51,15.64 -11.07,27.02 -22.71,34.1 -11.61,7.08 -25.81,8.75 -42.6,4.99zm4.2 -22.03c11.92,2.67 21.56,1.94 28.97,-2.19 7.38,-4.13 12.03,-10.43 13.93,-18.9 1.9,-8.49 0.41,-16.12 -4.46,-22.95 -4.9,-6.81 -13.44,-11.57 -25.65,-14.31 -12.06,-2.71 -21.66,-2.08 -28.77,1.9 -7.13,3.95 -11.67,10.31 -13.64,19.09 -1.97,8.76 -0.54,16.51 4.25,23.21 4.82,6.71 13.27,11.43 25.38,14.15zm-12.77 -163.99l14.46 -36.94c3.26,-8.34 6.38,-14.44 9.37,-18.31 4.02,-5.19 9.08,-9.02 15.15,-11.47 6.06,-2.48 12.72,-3.53 20,-3.21 7.25,0.33 15.59,2.33 24.98,6.01 8.26,3.23 14.96,7.04 20.14,11.43 6.33,5.36 10.84,11.24 13.53,17.65 2.06,4.85 2.87,10.63 2.45,17.33 -0.32,5.02 -1.95,11.25 -4.87,18.72l-14.89 38.04 -100.32 -39.25zm24.9 -13.68l66.41 25.99 5.89 -15.06c2.2,-5.63 3.47,-9.82 3.81,-12.57 0.47,-3.61 0.13,-6.87 -0.99,-9.78 -1.11,-2.94 -3.65,-5.95 -7.6,-9.06 -3.95,-3.13 -9.82,-6.21 -17.57,-9.25 -7.75,-3.04 -13.95,-4.68 -18.65,-4.93 -4.68,-0.27 -8.66,0.38 -11.95,1.92 -3.27,1.55 -6.07,4.03 -8.37,7.5 -1.73,2.56 -4.22,7.96 -7.44,16.18l-3.55 9.06zm115.38 -48.16l-95.75 -49.36 36.54 -70.88 16.18 8.34 -26.54 51.49 21.26 10.96 24.68 -47.88 16.18 8.34 -24.68 47.88 25.94 13.37 27.51 -53.36 16.18 8.34 -37.51 72.75zm81.75 -144.79l-72.89 -51.97 -18.51 25.97 -14.82 -10.57 49.61 -69.59 14.82 10.57 -18.43 25.85 72.89 51.97 -12.66 17.77zm37.97 -56.23l-80.89 -71.15 30.26 -34.4c7.6,-8.64 13.87,-14.28 18.76,-16.93 4.91,-2.66 10.24,-3.52 16.02,-2.61 5.8,0.92 11.08,3.47 15.86,7.67 6.08,5.35 9.53,11.53 10.36,18.56 0.82,7.04 -1.36,14.53 -6.55,22.52 5.15,-1.71 9.96,-2.63 14.43,-2.73 4.49,-0.13 11.59,0.64 21.29,2.3l24.46 4.01 -17.17 19.53 -27.96 -3.82c-9.96,-1.32 -16.45,-1.91 -19.46,-1.79 -2.98,0.12 -5.55,0.76 -7.67,1.97 -2.14,1.22 -4.86,3.71 -8.17,7.47l-2.92 3.31 33.78 29.71 -14.41 16.38zm-32.25 -57.42l10.63 -12.09c6.89,-7.83 10.84,-13.01 11.9,-15.54 1.05,-2.52 1.26,-5.08 0.6,-7.59 -0.64,-2.53 -2.19,-4.87 -4.62,-7.01 -2.73,-2.4 -5.56,-3.59 -8.53,-3.63 -2.95,-0.02 -5.81,1.1 -8.56,3.36 -1.36,1.17 -4.95,5.06 -10.77,11.67l-11.21 12.75 20.56 18.08zm103.94 -24.29l-74.98 -77.35 57.25 -55.5 12.67 13.07 -41.59 40.32 16.65 17.18 38.68 -37.49 12.67 13.07 -38.68 37.49 20.32 20.96 43.11 -41.79 12.67 13.07 -58.77 56.97zm72.39 -68.36l-70.19 -81.72 16.55 -14.22 70.19 81.72 -16.55 14.22zm31.59 -28.7l-62.36 -87.84 17.22 -12.22 77.94 33.2 -41.79 -58.87 16.44 -11.67 62.36 87.84 -17.77 12.62 -76.59 -32.47 41 57.74 -16.44 11.67zm172.4 -111.94l-20.26 11.89 -20.44 -16.44 -37.26 21.87 4.69 25.68 -19.9 11.68 -18.47 -114.08 19.87 -11.67 91.75 71.06zm-56.02 -16.67l-33.09 -26.81 7.64 41.75 25.45 -14.94zm66.39 12l-44.4 -98.15 29.77 -13.47 47.88 58.98 -12.9 -74.81 29.84 -13.5 44.4 98.15 -18.37 8.31 -35.02 -77.24 15.6 86.02 -19.1 8.64 -54.21 -68.56 34.88 77.3 -18.37 8.31zm115.7 -48.83l-35.26 -101.79 75.35 -26.1 5.96 17.2 -54.73 18.96 7.83 22.6 50.9 -17.63 5.96 17.2 -50.9 17.63 9.56 27.58 56.73 -19.65 5.96 17.2 -77.34 26.79zm95.81 -29.68l-24.23 -104.97 20.57 -4.75 59.43 60.37 -16.24 -70.34 19.65 -4.53 24.23 104.97 -21.23 4.9 -58.47 -59.18 15.93 69 -19.64 4.53zm130.52 -24.37l-10.83 -88.86 -31.66 3.86 -2.2 -18.07 84.83 -10.34 2.2 18.07 -31.51 3.84 10.83 88.86 -21.65 2.64zm58.52 -59.38c-0.34,-10.98 1.03,-20.25 4.09,-27.82 2.26,-5.56 5.47,-10.6 9.57,-15.09 4.1,-4.49 8.64,-7.87 13.61,-10.15 6.63,-3.04 14.33,-4.71 23.1,-4.98 15.89,-0.49 28.73,4.06 38.58,13.61 9.83,9.58 15.01,23.15 15.55,40.72 0.53,17.42 -3.78,31.2 -12.93,41.32 -9.15,10.14 -21.65,15.44 -37.47,15.93 -16.02,0.49 -28.92,-4 -38.67,-13.51 -9.75,-9.49 -14.9,-22.82 -15.43,-40.02zm22.39 -1.41c0.37,12.21 3.49,21.37 9.33,27.51 5.83,6.12 13.1,9.06 21.77,8.79 8.7,-0.27 15.72,-3.62 21.12,-10.03 5.37,-6.44 7.87,-15.9 7.48,-28.4 -0.38,-12.36 -3.37,-21.5 -9,-27.4 -5.6,-5.92 -12.89,-8.74 -21.89,-8.46 -8.97,0.28 -16.12,3.58 -21.42,9.89 -5.3,6.34 -7.77,15.69 -7.39,28.1zm155.49 -50l39.38 4.8c8.89,1.08 15.57,2.58 20.06,4.52 6.02,2.6 11,6.54 14.88,11.82 3.91,5.25 6.59,11.44 8.1,18.57 1.48,7.1 1.62,15.68 0.41,25.69 -1.08,8.81 -3.09,16.24 -6.06,22.35 -3.61,7.47 -8.19,13.3 -13.73,17.5 -4.18,3.2 -9.58,5.43 -16.17,6.69 -4.94,0.94 -11.38,0.91 -19.34,-0.06l-40.55 -4.94 13.03 -106.94zm19.45 20.71l-8.63 70.79 16.06 1.96c6,0.73 10.37,0.91 13.12,0.56 3.62,-0.44 6.69,-1.59 9.23,-3.4 2.57,-1.81 4.86,-5.02 6.88,-9.62 2.05,-4.6 3.57,-11.06 4.58,-19.32 1.01,-8.26 1.06,-14.67 0.13,-19.28 -0.9,-4.61 -2.53,-8.29 -4.84,-11.1 -2.31,-2.78 -5.42,-4.88 -9.35,-6.24 -2.9,-1.04 -8.76,-2.1 -17.52,-3.17l-9.66 -1.18zm75.02 101.82l24.42 -104.92 77.67 18.07 -4.13 17.73 -56.42 -13.13 -5.42 23.3 52.46 12.21 -4.13 17.73 -52.46 -12.21 -6.62 28.43 58.47 13.61 -4.13 17.73 -79.72 -18.55zm137.37 36.59l40.02 -100.02 68.73 27.5 -6.76 16.9 -48.47 -19.4 -9.5 23.75 41.91 16.77 -6.76 16.9 -41.91 -16.77 -16.99 42.47 -20.25 -8.11zm134.57 -62.2l19.43 9.92 -26.55 51.99c-4.22,8.26 -6.7,13.73 -7.48,16.4 -1.18,4.35 -0.86,8.52 1.01,12.46 1.88,3.98 5.5,7.31 10.86,10.05 5.43,2.77 10.11,3.75 14.03,2.91 3.92,-0.84 6.98,-2.74 9.21,-5.74 2.24,-3 5.3,-8.28 9.17,-15.87l27.13 -53.1 19.43 9.92 -25.77 50.45c-5.89,11.52 -10.56,19.41 -14.04,23.63 -3.48,4.22 -7.45,7.26 -11.94,9.11 -4.47,1.86 -9.54,2.53 -15.23,2.08 -5.71,-0.46 -12.33,-2.61 -19.9,-6.47 -9.13,-4.67 -15.52,-9.25 -19.15,-13.78 -3.63,-4.53 -5.95,-9.18 -6.97,-13.98 -1.01,-4.8 -1,-9.24 0.04,-13.41 1.53,-6.14 5.06,-14.59 10.55,-25.33l26.17 -51.23zm68.06 158.72l48.62 -75.16 -26.78 -17.32 9.89 -15.29 71.75 46.42 -9.89 15.29 -26.66 -17.24 -48.62 75.16 -18.32 -11.85zm56.81 36.86l66.09 -85.08 62.97 48.92 -11.17 14.38 -45.75 -35.53 -14.68 18.89 42.54 33.04 -11.17 14.38 -42.54 -33.04 -17.91 23.05 47.41 36.83 -11.17 14.38 -64.64 -50.21zm154.09 -16.51l31.11 29.8c6.18,5.91 10.51,10.56 13.05,13.96 2.54,3.44 4.22,7.09 5.06,10.99 0.83,3.92 0.76,7.98 -0.23,12.21 -0.99,4.22 -3.11,8.03 -6.31,11.38 -3.47,3.62 -7.66,6.03 -12.51,7.19 -4.87,1.17 -9.7,0.88 -14.51,-0.8 3.39,5.92 4.76,11.74 4.12,17.52 -0.66,5.76 -3.14,10.89 -7.45,15.4 -3.4,3.55 -7.51,6.21 -12.37,7.98 -4.86,1.77 -9.67,2.3 -14.46,1.57 -4.75,-0.73 -9.44,-2.86 -14.08,-6.4 -2.87,-2.23 -9.36,-8.1 -19.45,-17.62l-26.49 -25.37 74.51 -77.8zm3.37 28.02l-17.17 17.93 10.29 9.85c6.1,5.84 9.99,9.4 11.65,10.64 2.98,2.26 5.98,3.37 8.99,3.3 3.01,-0.06 5.7,-1.35 8.09,-3.85 2.31,-2.41 3.49,-4.99 3.61,-7.76 0.12,-2.77 -0.99,-5.57 -3.3,-8.37 -1.38,-1.67 -5.77,-6.05 -13.14,-13.11l-9.02 -8.64zm-29.55 30.86l-19.98 20.86 14.56 13.95c5.65,5.41 9.41,8.7 11.23,9.85 2.75,1.8 5.64,2.59 8.69,2.35 3.06,-0.26 5.9,-1.74 8.56,-4.51 2.26,-2.36 3.58,-4.87 4,-7.59 0.44,-2.7 -0.07,-5.48 -1.49,-8.27 -1.43,-2.79 -5.71,-7.63 -12.87,-14.48l-12.7 -12.16zm67.71 56.4c8.38,-7.1 16.48,-11.81 24.31,-14.14 5.76,-1.7 11.7,-2.33 17.77,-1.92 6.07,0.41 11.54,1.86 16.42,4.32 6.51,3.29 12.61,8.28 18.29,14.97 10.28,12.12 14.72,25 13.38,38.66 -1.37,13.66 -8.75,26.16 -22.16,37.53 -13.29,11.27 -26.76,16.48 -40.37,15.63 -13.63,-0.84 -25.57,-7.31 -35.8,-19.38 -10.36,-12.22 -14.89,-25.12 -13.53,-38.67 1.35,-13.54 8.57,-25.88 21.69,-37zm15.05 16.63c-9.31,7.9 -14.54,16.04 -15.71,24.43 -1.15,8.38 1.08,15.89 6.69,22.5 5.63,6.64 12.62,10.04 21,10.27 8.38,0.19 17.33,-3.75 26.88,-11.84 9.43,-8 14.72,-16.03 15.83,-24.11 1.14,-8.07 -1.2,-15.52 -7.02,-22.39 -5.81,-6.85 -12.85,-10.38 -21.08,-10.59 -8.26,-0.2 -17.12,3.7 -26.58,11.73zm22.03 112.04l86.38 -62.85 12.84 17.64 -71.66 52.14 31.78 43.68 -14.72 10.71 -44.62 -61.32zm168.79 60.06l17.79 35.46c4.01,8 6.46,14.4 7.33,19.21 1.16,6.46 0.63,12.78 -1.61,18.93 -2.21,6.16 -5.88,11.82 -10.99,17.02 -5.09,5.16 -12.17,10.03 -21.18,14.55 -7.93,3.98 -15.24,6.41 -21.97,7.32 -8.22,1.12 -15.61,0.54 -22.17,-1.75 -4.98,-1.71 -9.82,-4.98 -14.52,-9.77 -3.51,-3.59 -7.05,-8.97 -10.65,-16.15l-18.32 -36.51 96.29 -48.3zm-6.49 27.66l-63.75 31.97 7.25 14.46c2.71,5.4 4.98,9.14 6.79,11.24 2.37,2.77 5.02,4.69 7.94,5.81 2.93,1.14 6.87,1.27 11.82,0.41 4.97,-0.84 11.19,-3.14 18.63,-6.88 7.44,-3.73 12.81,-7.24 16.14,-10.56 3.34,-3.3 5.51,-6.69 6.57,-10.17 1.04,-3.47 1.07,-7.21 0.03,-11.24 -0.74,-2.99 -3.09,-8.46 -7.05,-16.35l-4.36 -8.7zm6.6 94.5c10.24,-3.97 19.44,-5.76 27.6,-5.4 6,0.28 11.82,1.63 17.42,4 5.6,2.37 10.29,5.53 14.1,9.46 5.07,5.24 9.21,11.95 12.38,20.13 5.75,14.82 5.73,28.44 0,40.91 -5.77,12.46 -16.83,21.86 -33.22,28.21 -16.25,6.3 -30.68,6.82 -43.26,1.56 -12.61,-5.25 -21.77,-15.28 -27.49,-30.03 -5.79,-14.94 -5.85,-28.61 -0.13,-40.97 5.7,-12.35 16.56,-21.65 32.6,-27.87zm8.78 20.64c-11.39,4.42 -18.99,10.4 -22.84,17.95 -3.83,7.54 -4.18,15.36 -1.04,23.45 3.15,8.11 8.65,13.62 16.49,16.57 7.86,2.92 17.61,2.13 29.27,-2.4 11.53,-4.47 19.15,-10.33 22.84,-17.6 3.72,-7.25 3.95,-15.06 0.69,-23.46 -3.25,-8.37 -8.74,-14.01 -16.46,-16.91 -7.74,-2.89 -17.38,-2.11 -28.96,2.38zm-4.55 152.75l104.97 -24.23 7.84 33.99c2.97,12.88 4.39,21.38 4.24,25.53 -0.2,6.38 -2.46,12.2 -6.8,17.48 -4.34,5.27 -10.69,8.87 -19.05,10.8 -6.45,1.49 -12.12,1.56 -17.06,0.26 -4.94,-1.33 -9.07,-3.49 -12.41,-6.5 -3.32,-3.02 -5.83,-6.3 -7.49,-9.83 -2.17,-4.83 -4.37,-12.01 -6.58,-21.59l-3.18 -13.78 -39.58 9.14 -4.91 -21.26zm92.13 1.12l-29.91 6.9 2.67 11.56c1.92,8.33 3.76,13.75 5.51,16.3 1.75,2.56 3.97,4.36 6.7,5.4 2.71,1.05 5.61,1.23 8.74,0.5 3.84,-0.88 6.73,-2.74 8.71,-5.53 1.97,-2.83 2.89,-6 2.73,-9.59 -0.12,-2.62 -1.04,-7.74 -2.8,-15.36l-2.35 -10.19zm-60.09 182.18l-3.03 -23.3 23.12 -12.38 -5.56 -42.85 -25.47 -5.72 -2.97 -22.88 112.22 27.6 2.97 22.85 -101.27 56.67zm37.24 -45.04l37.61 -19.98 -41.41 -9.29 3.8 29.27zm-36.46 56.69l107.7 -2.47 1.05 45.8c0.26,11.51 -0.52,19.9 -2.33,25.16 -1.81,5.28 -5.15,9.52 -10.02,12.77 -4.89,3.25 -10.5,4.96 -16.86,5.1 -8.1,0.19 -14.82,-2.02 -20.19,-6.64 -5.37,-4.62 -8.84,-11.61 -10.44,-21 -2.63,4.75 -5.55,8.68 -8.76,11.79 -3.21,3.13 -8.96,7.38 -17.22,12.74l-20.71 13.62 -0.6 -26 23.16 -16.13c8.22,-5.78 13.4,-9.74 15.53,-11.87 2.11,-2.1 3.56,-4.32 4.31,-6.64 0.75,-2.35 1.07,-6.02 0.95,-11.03l-0.1 -4.41 -44.97 1.03 -0.5 -21.81zm62.62 20.39l0.37 16.1c0.24,10.43 0.84,16.91 1.78,19.5 0.94,2.56 2.51,4.58 4.7,5.99 2.19,1.43 4.91,2.1 8.15,2.02 3.63,-0.08 6.52,-1.13 8.73,-3.11 2.19,-1.98 3.53,-4.75 4.02,-8.27 0.21,-1.79 0.22,-7.08 0.01,-15.88l-0.39 -16.97 -27.38 0.63zm-67.99 185.09l1.6 -23.44 25.1 -7.61 2.94 -43.11 -23.86 -10.6 1.57 -23.02 104.63 49.07 -1.57 22.99 -110.42 35.72zm45.34 -36.87l40.8 -12.22 -38.79 -17.23 -2.01 29.45zm-47.69 48.34l105.95 19.5 -3.82 20.76 -79.03 30.53 71 13.07 -3.65 19.83 -105.95 -19.5 3.94 -21.43 77.55 -30.12 -69.65 -12.82 3.65 -19.83zm-47.45 199.96l6.47 -22.59 26.14 -2.19 11.9 -41.53 -21.11 -15.36 6.35 -22.18 92.04 69.88 -6.35 22.15 -115.45 11.81zm52.06 -26.56l42.45 -3.41 -34.32 -24.97 -8.13 28.37zm78.14 -1.24l18.3 15.89 -6.34 22.13 -15.52 -25.58 3.56 -12.44z"/>
  </g>
 </g>
</svg>
