<?xml version="1.0" encoding="UTF-8"?>
<!DOCTYPE svg PUBLIC "-//W3C//DTD SVG 1.1//EN" "http://www.w3.org/Graphics/SVG/1.1/DTD/svg11.dtd">
<!-- Creator: CorelDRAW 2019 (64 Bit) -->
<svg xmlns="http://www.w3.org/2000/svg" xml:space="preserve" width="261.379mm" height="361.307mm" version="1.1" style="shape-rendering:geometricPrecision; text-rendering:geometricPrecision; image-rendering:optimizeQuality; fill-rule:evenodd; clip-rule:evenodd"
viewBox="0 0 2612.16 3610.82"
 xmlns:xlink="http://www.w3.org/1999/xlink">
 <defs>
  <style type="text/css">
   <![CDATA[
    .fil0 {fill:#050506}
    .fil5 {fill:#060409}
    .fil3 {fill:#083D86}
    .fil32 {fill:#0A3979}
    .fil10 {fill:#0A408B}
    .fil27 {fill:#0F4279}
    .fil30 {fill:#122F57}
    .fil14 {fill:#13386E}
    .fil26 {fill:#263964}
    .fil25 {fill:#304B6F}
    .fil13 {fill:#32495A}
    .fil31 {fill:#556991}
    .fil47 {fill:#585758}
    .fil48 {fill:#676768}
    .fil33 {fill:#696E74}
    .fil45 {fill:#748BAE}
    .fil52 {fill:#7F7F7F}
    .fil54 {fill:#828282}
    .fil18 {fill:#838383}
    .fil50 {fill:#848285}
    .fil49 {fill:#888789}
    .fil55 {fill:#919191}
    .fil51 {fill:#A3A2A3}
    .fil44 {fill:#A5585C}
    .fil19 {fill:#B5232A}
    .fil41 {fill:#B5CBEA}
    .fil24 {fill:#B83D44}
    .fil43 {fill:#C1C1C1}
    .fil35 {fill:#C47B85}
    .fil6 {fill:#C99A56}
    .fil11 {fill:#C9A36A}
    .fil36 {fill:#CB1B27}
    .fil12 {fill:#CF2A2C}
    .fil42 {fill:#D0B48A}
    .fil40 {fill:#D7EAF9}
    .fil4 {fill:#DA1B25}
    .fil9 {fill:#E21B22}
    .fil46 {fill:#E9BCC4}
    .fil23 {fill:#EED4AA}
    .fil37 {fill:#EFF1F8}
    .fil39 {fill:#F1D7B4}
    .fil22 {fill:#F4F2F4}
    .fil38 {fill:#F5F4F7}
    .fil17 {fill:whitesmoke}
    .fil28 {fill:#F6A0A3}
    .fil16 {fill:#F6F6F6}
    .fil29 {fill:#F7F9FA}
    .fil20 {fill:#FBF6FA}
    .fil15 {fill:#FBFBFB}
    .fil34 {fill:#FCEBD0}
    .fil7 {fill:#FCFCF4}
    .fil8 {fill:#FDFBFE}
    .fil2 {fill:#FDFDFD}
    .fil21 {fill:#FEE8EA}
    .fil53 {fill:#FEFAEA}
    .fil1 {fill:#FEFEFE}
   ]]>
  </style>
 </defs>
 <g id="Camada_x0020_1">
  <metadata id="CorelCorpID_0Corel-Layer"/>
  <g id="_1846987966064">
   <path class="fil0" d="M835.54 1826.36l217.11 -164.09c37.49,-27.65 71.24,-54.27 108.75,-81.62 9.71,-7.08 16.66,-12.33 26.16,-19.59 59.42,-45.4 36.64,-17.1 120.95,-20.1 89.57,-3.19 44.65,-31.27 137.92,38.07l327.65 247.34c-0.56,0.66 -1.5,0.75 -1.78,1.88 -0.28,1.12 -1.41,1.48 -1.81,1.84 -1.58,1.44 -4.4,3.9 -5.76,4.98 -46.42,36.67 -139.44,79.64 -194.43,98.05 -233.44,78.15 -512.74,49.75 -713.04,-89.25l-21.73 -17.5zm117.85 -181.53l4.5 1.75 161.21 -122.32c23.16,-18.11 19.72,-18.99 64.4,0.39l-271.72 204.77c-10.73,8.37 -29,23.58 -39.34,28.83l60.55 -180.46c19.97,-60.19 40.57,-122.49 62.18,-181.35 30.77,29.39 32.07,28.98 24.79,49.57 -15.01,42.44 -60.46,169.73 -66.57,198.82zm625.27 -231.91c12.03,-8.01 13,-14.23 25.72,-27.71 0.47,-0.5 1.45,-1.48 1.84,-1.88 0.39,-0.41 1.21,-1.29 1.86,-1.89l130.19 376.61 -78.64 -57.28c-27.67,-20.93 -52.6,-39.56 -80.65,-60.39l-139.13 -104.08c-5.86,-4.19 -3.82,-1.93 -10,-7.53l-8.91 -9.93 42.13 -15.4c29.6,21.63 171.69,131.92 194.65,145.02l-79.05 -235.55zm212.75 401.79c-10.11,-16.79 -127.73,-370.09 -145.35,-421.17 -28.58,-82.87 -7.63,-31.68 19.23,-137.33 3.48,-13.71 5,-24.74 7.73,-38.47 3.92,-19.67 7.74,-16.29 22.87,-26.34 20.55,-13.65 36.89,-25.61 55.86,-39.27 20.47,-14.73 36.97,-24.84 56.32,-38.95l278.92 -195.38c25.41,61.84 41.4,200.84 35.48,277.51 -8.27,107.13 -22.14,170.22 -55.23,261.62 -12.33,34.05 -34.22,77.49 -51.58,107.17 -33.5,57.25 -91,136.61 -137.84,179.49 -15.25,13.96 -68.74,63.19 -86.42,71.12zm-1305.58 -658.21c0,-74.25 14.12,-177.38 36.72,-238.89l333.6 232.85c78.55,52.72 44.81,23.12 72.39,114.37 7.29,24.1 16.11,47.03 27.09,68.12 18.61,35.76 21.24,23.11 6.23,65.69 -16.69,47.37 -31.49,92.67 -47.61,139.38 -13.2,38.24 -86.17,260.25 -95.91,276.71 -21.78,-9.23 -48.82,-38.8 -67.55,-54.8 -56.72,-48.46 -125.03,-137.8 -163.22,-206.97 -60.62,-109.79 -101.75,-247.63 -101.75,-396.46zm770.23 -353.79c208.28,-22.03 376.96,129.14 396,314.72 21.77,212.15 -130.06,374.48 -314.38,396.45 -208.61,24.86 -377.41,-129.7 -397.92,-313.71 -23.72,-212.82 130.77,-377.84 316.3,-397.46zm371.43 168.27c-4.75,-14.91 -13.12,-21.8 -19.75,-37.1l395.37 1.12 -162.28 115.83c-15.65,10.44 -26.91,19.1 -41.23,29.32l-121.32 84.97 -1.33 -47.41c23.53,-23.26 189.96,-130.78 200.09,-147.56l-249.56 0.83zm-714.64 180.91c-16.1,-6 -59.98,-42.05 -77.92,-54.31l-227.82 -162.42 377.27 -0.37 -20.32 36.38c-39.52,-0.25 -186.77,-3 -231.96,0.29l161.35 117c24.73,17.72 25.52,8.13 19.4,63.43zm388.11 -718.3l5.18 -7.12 2.49 7.61 108.52 353 5.06 10.39 -8.52 -4.29c-35.09,-10.64 -35.36,-6.54 -41.8,-24.59 -1,-2.81 -2.64,-9.13 -4.01,-13.36 -12.69,-39.2 -52.32,-176.3 -63,-191.68 -9.25,13.86 -65.23,193.12 -70.01,216.3l-44.18 8.86 110.27 -355.11zm779.3 468.3c-108.04,-3.37 -226.25,-1.02 -334.69,1.1 -219.88,4.3 -146.25,4.29 -208.59,-42.06 -96.04,-71.41 -67.54,-10.74 -107.36,-142.76 -14.12,-46.81 -115.95,-360.87 -116.76,-378.57 197.76,4.57 374.44,73.6 493.17,171.19 71.68,58.92 106.5,92.58 164.2,170.73 23.68,32.07 107.84,171.12 110.03,220.36zm-1550.77 0.02c1.04,-25.25 36.08,-95.97 48.25,-120.02 20.03,-39.61 40.52,-70.31 63.1,-102.49 40.84,-58.2 86.96,-107.3 141.2,-151.46 134.73,-109.69 297.44,-185 514.95,-188.36 -1.39,20.22 -102.54,330.35 -117.67,381.28 -30.97,104.2 -15.41,73.61 -64.97,100.53 -107.06,58.14 -70.49,82.81 -130.21,81.87 -144.09,-2.28 -316.27,-4.82 -454.65,-1.34zm891.38 -612.49c-16.83,-6.23 -90.83,-8.52 -115.21,-7.82l-32.5 1.18 -78.17 4.38 -5.71 2.45c-91.09,10.37 -180.94,39.5 -261.17,77.55l-75.37 38.64 0.04 -173.39c-82.33,-11.3 -540.09,69.26 -637.6,96.71l0.2 2223.49c17.45,17.76 55.94,42.9 78.55,59.03l318.69 231.3c25.58,19.29 228.9,169.31 240.06,171.98l0 -1104.95c20.41,6.73 51.78,27.79 75.7,38.98 76.09,35.6 173.95,68.61 260.44,76.8l25.22 4.48 84.83 3.56 7.26 0.42 115.47 -7.97c68.83,-13.98 117.82,-21.34 180.11,-44.06 84.13,-30.68 108.3,-53.3 155.33,-72.67l0.99 1106.42 636.61 -463.33 -0.89 -2223.92c-162.73,-35.61 -306.5,-62.19 -472.54,-81.6 -47.6,-5.57 -117.21,-16.46 -164.12,-15.86l-0.1 174.73c-19.2,-6.67 -53.13,-28.06 -75.34,-38.79 -26.29,-12.7 -50.49,-22.43 -79.3,-33.46 -56.28,-21.56 -119.61,-35.17 -181.48,-44.29z"/>
   <path class="fil1" d="M1047.58 3080.42l-10.33 -8.75c-5.35,-18.15 -14.68,-22.25 -17.88,-50.13l-0.79 -215.07c0,-88.73 -6.33,-203.56 0.91,-289.12l570.76 -0.41c5.68,70.22 1.08,377.89 0.99,472.86 -0.17,183.25 -158.09,49.77 -269.37,172.07l-17 16.35c-19.98,-11.88 -32.18,-49.27 -108.56,-69.29 -24.97,-6.55 -51.1,-9.08 -78.39,-10.35 -55.25,-2.58 -44.48,-9.93 -70.35,-18.16zm395.91 -671.34c13.94,-1.13 13.37,-4.45 11.9,38.06 -0.62,17.83 1.81,9.17 -5.97,15.16 -9.53,-6.62 -6.45,-5.95 -6.18,-22.38 0.17,-10.32 0.25,-20.52 0.25,-30.84zm-119.52 -2.15c11.89,2.27 8.48,3.7 8.44,18.55 -0.03,10.4 -0.53,17.03 0.59,27.64l21.87 -0.06 2.28 6.8 -34.4 1.5 1.21 -54.43zm-29.01 0.47l0.35 43.46c-1.66,11.96 1.47,7.18 -8.07,11.53 -6.41,-10.88 -3.74,-11.83 -3.93,-29.67 -0.26,-23.19 -5.72,-23.12 11.66,-25.31zm253.71 10.53c30.42,-28.93 51.36,3.63 39.49,30.28 -9.15,20.55 -49.13,21.61 -39.49,-30.28zm-391.64 38.83c-4.51,4.39 6.49,3.8 -10.94,4.91l3.47 -8.13c2.8,-12.92 10.72,-39.07 21.34,-46.38 6.53,4.9 2.29,-5.56 11.59,21.13 3.61,10.36 6.67,15.69 8.55,26.31l4.79 6.4c-20.34,0.59 -6.24,0.12 -11.65,-4l-3.78 -8.58 -19.79 -0.39 -3.58 8.73zm363.89 3.71c-22.92,-6.75 -3.75,-15.66 -25.68,-20.33 -9.16,16.24 5.19,15.19 -10.58,19.54l-2.16 -50.36c57.55,-14.91 31.31,30.26 31.3,30.52 -0.23,5.5 4.97,9.66 7.11,20.63zm-399.02 -7.59l3.67 8.12c-16.34,-0.05 -6.72,-0.52 -11.46,-3.82 -7.83,-13.9 -2.38,-15.15 -17.26,-16.78 -2.55,6.77 -0.75,5.67 -2.02,10.05 -3.55,12.26 9.23,-5.59 -5.03,10.04 -8.4,-10.64 -3.62,-28.12 -4.76,-53.24 26.55,-0.25 51.35,2.64 30.23,32.54l6.62 13.08zm-101.46 6.88l-0.9 -51.76c13.03,-1.07 24.83,-0.23 34.19,4.04 4.19,17.83 -1.13,13.33 -0.55,20.53 0.54,6.71 6.92,4.04 3.8,16.64 -3.56,14.38 -24.83,10.96 -36.55,10.55zm370.94 -37.59c8.33,14.62 8.58,1.81 21.82,10.58 -6.96,5.4 1.57,0.96 -9.68,3.86l-11.5 13.78c9.47,3.65 1.99,0.64 11.73,2.24 15.25,2.5 6.12,-1.63 13.44,4.81 -9.07,4.82 -21.47,3.07 -33.91,2.32l-1.58 -52.16c5.81,-0.25 13.02,-0.88 18.69,-0.78 2.23,0.04 7.95,0.2 9.91,0.72 7.92,2.11 2.47,0.45 6.5,4.07 -14.02,8.48 -8.55,-5.74 -25.41,10.58zm-169.8 31.18c-5.14,-3.97 -4.32,6.96 -5.35,-10.15 19.14,0.24 5,-0.76 10.69,6.17 8.77,5.82 7.6,5.95 18.86,1.01 -1.73,-16.4 2.86,-7.31 -14.38,-14.59 -36.06,-15.22 15.76,-51.03 25.06,-13.3 -20.26,-4 -1.48,-1.71 -13.58,-6.04 -11.49,-4.11 -2.02,-3.62 -13.68,0.52 -0.13,20.06 23.38,9.11 26.78,26.88 3.87,20.24 -23.23,22.2 -34.39,9.51zm195.77 -165.26l0.16 63.68c0.02,12.05 1.17,13.21 -3.36,21.52 -3.36,-4.16 -4.6,1.08 -5,-17.9l-0.01 -49.84c0.2,-22.5 -2.08,-13.9 8.21,-17.46zm-274.79 75.19l5.45 9.82 -9.35 -3.91 -7.83 -20.86 -38.15 -0.02c-2.73,10.92 -2.8,18.63 -13.1,23.43 0.63,-12.18 23.54,-72.88 31.38,-83.21 4.49,2.49 3.55,-2.33 10.24,14.36l21.36 60.39zm385.7 -22.19c-6.85,-71.6 58.99,-65.71 63.97,-21.35 7.76,69.01 -59.74,65.59 -63.97,21.35zm-40.85 -3.52c4.74,8.19 5.45,9.92 11.04,18.18 12.47,18.44 5.42,13.35 2.72,16.51 -27.81,-28.16 -1,-33.52 -47.37,-34.33 -0.44,13.92 2.46,25.63 -4.4,33.41 -6.22,-10.85 -3.06,-65.43 -2.22,-82.04 26.78,-3.64 38.93,-3.49 54.15,13.12 3.64,26.98 -0.3,21.77 -13.93,35.15zm-281.66 0c8.6,19.41 16.06,19.57 17.24,34 -13.33,-3.91 -15.33,-21.92 -27.43,-33.16l-23.22 -0.35c-1.01,24.98 3.53,24.55 -4.98,33.3l-2.23 -81.83c45.76,-7.73 75.78,10.3 40.62,48.03zm-182.23 33.17l-6.05 0.75 -0.72 -82.18c13.16,-3.22 32.56,-5.1 40.16,4.19l9.76 -0.26c16.46,40.51 -6.1,42.79 -42.49,45.29l-0.67 32.21zm317.1 -45.18c19.92,-0.34 29.68,-3.48 38.65,4.95l-39.68 1.96 0.51 32.47c8.69,0.26 16.4,0.02 24.82,-0.03 26.08,-0.16 16.93,1.32 20.79,4.39 -11.59,5.45 -36.07,2.97 -51.4,2.05l-1.15 -82.37c10.31,-0.91 18.38,-0.83 28.15,-0.91 16.43,-0.12 16.48,-1.64 24.31,3.66 -10.15,5.67 -31.41,3.17 -45.66,3.01l0.65 30.82zm-35.77 19.14c0.03,0.05 12.35,1.2 -5.06,19.51 -6.22,6.54 -15.4,9.53 -26.19,8.35 -19.73,-2.15 -27.14,-21.1 -27.19,-42.04 -0.11,-51.48 39.81,-47.48 52.35,-36.19 2.54,2.28 5.9,6.33 7.36,10.72 5.21,15.72 -0.59,9.36 -1.28,10.49l-12.64 -20.05c-38.44,-5.87 -45.68,18.11 -38.06,50.52 3.15,13.4 10.38,20.91 26.03,20.32 19.42,-0.73 15.95,-10.13 24.66,-21.64zm-120.48 1100.31c7.32,-11.37 3.66,-157.4 3.29,-168.5 0.83,-14.23 -1.08,-4.51 5.02,-8.06l5.1 8.53c18.44,5.6 83.46,61.43 106.8,75.65 18,-8.89 98.42,-76.11 116.25,-83.56 3.66,39.66 -5.87,163 6.18,176.02 42.96,-35.76 89.31,-67.78 135.78,-102.16l832.61 -619.94c32.59,-25.97 116.8,-83.61 138.49,-103.76l0.08 -2420.56c-22.99,-9.53 -97.18,-21.24 -125.48,-26.15 -44.32,-7.68 -88.25,-15.31 -133.16,-22.24 -90.76,-14 -180.85,-25.96 -273.04,-36.09 -93.29,-10.25 -187.6,-19.59 -281.4,-24.97 -98.78,-5.66 -200.26,-6.97 -298.13,-13.69 -7.9,47.19 -2.48,160.36 -1.9,213.9 61.87,9.12 125.2,22.73 181.48,44.29 28.81,11.04 53.01,20.76 79.3,33.46 22.21,10.73 56.14,32.13 75.34,38.79l0.1 -174.73c46.92,-0.6 116.52,10.29 164.12,15.86 166.04,19.42 309.81,45.99 472.54,81.6l0.89 2223.92 -636.61 463.33 -0.99 -1106.42c-47.03,19.37 -71.2,41.98 -155.33,72.67 -62.29,22.72 -111.28,30.08 -180.11,44.06l-0.81 152.25 -115.11 0.53 -116.74 0.48 -0.12 -153.76c-86.48,-8.19 -184.34,-41.2 -260.44,-76.8 -23.92,-11.19 -55.29,-32.26 -75.7,-38.98l0 1104.95c-11.16,-2.67 -214.48,-152.69 -240.06,-171.98l-318.69 -231.3c-22.61,-16.13 -61.1,-41.27 -78.55,-59.03l-0.2 -2223.49c97.5,-27.46 555.27,-108.01 637.6,-96.71l-0.04 173.39 75.37 -38.64c80.23,-38.05 170.08,-67.18 261.17,-77.55l-1.48 -215.08c-97.74,5.97 -197.25,5.71 -295.44,11.32 -188.23,10.76 -644.69,59.06 -815.52,110.61l-1.08 2422.64c20.13,17.63 44.96,34.13 67.78,51.26 22.8,17.12 43.45,32.81 68.5,51.31l901.72 670.77c22.63,16.64 48.36,39.13 70.63,52.54z"/>
   <path class="fil0" d="M1187.8 74.54l117.96 0.14 117.01 0.85c97.88,6.73 199.35,8.03 298.13,13.69 93.8,5.38 188.11,14.72 281.4,24.97 92.2,10.13 182.28,22.09 273.04,36.09 44.91,6.93 88.84,14.56 133.16,22.24 28.3,4.9 102.49,16.61 125.48,26.15l-0.08 2420.56c-21.69,20.15 -105.9,77.79 -138.49,103.76l-832.61 619.94c-46.47,34.38 -92.82,66.4 -135.78,102.16 -26.31,20.74 -104.45,80.38 -122.36,88.72 -18.35,-9.07 -106.42,-75.11 -120.27,-88.81 -22.26,-13.41 -48,-35.9 -70.63,-52.54l-901.72 -670.77c-25.05,-18.5 -45.7,-34.19 -68.5,-51.31 -22.81,-17.13 -47.65,-33.63 -67.78,-51.26l1.08 -2422.64c170.83,-51.56 627.29,-99.86 815.52,-110.61 98.18,-5.61 197.7,-5.35 295.44,-11.32zm-465.91 -54.82c-11.04,8.95 -67.44,9.42 -86.9,11.26 -29.31,2.77 -57.5,6.07 -86.45,9.42 -86.25,9.97 -425.72,58.41 -490.99,83.29 -16.82,4.91 -28.15,13.7 -37.48,22.93 -13.75,13.61 -10.4,20.07 -18.68,35.16l-1.09 2395.47c-1.44,74 0.69,81.27 48.57,117.25l679.53 506.19c65.52,44.32 173.32,128.84 240.29,178.16 21,15.47 39.8,29.72 60.82,44.98 12.08,8.77 20.53,15.12 30.29,22.62l135.61 100.44c1.96,1.43 6.43,4.82 8.03,6.29l5.82 6.15c0.46,0.51 1.32,1.47 1.92,2.26 30.4,13.71 52.77,53.1 100.48,48.94 30.94,-2.7 74.7,-41.67 95.17,-56.89l1050.62 -782.78c29.26,-21.52 57.09,-41.43 86.98,-64.58 28.91,-22.4 63.84,-37.49 65.3,-90.01 5.55,-200.04 -0.04,-409.04 -0.04,-610.09 0,-204.48 0.05,-408.97 0.05,-613.45l0.1 -1068.25c0.01,-48.91 -3.24,-108.61 -1.94,-153.67 -33.81,-25.89 7.32,-35.01 -102.36,-56.43 -139.21,-27.19 -262.39,-46.27 -404.04,-64.94 -124.93,-16.47 -458.49,-48.25 -575.3,-45.99 -137.62,-0.28 -272.88,-4.84 -411.7,-2.98 -62.76,0.84 -137.73,2.98 -198.65,8.36 -38.44,3.39 -163.06,15.07 -193.94,10.91z"/>
   <path class="fil2" d="M2080.26 901.89c-2.19,-49.24 -86.35,-188.29 -110.03,-220.36 -57.7,-78.16 -92.52,-111.81 -164.2,-170.73 -118.73,-97.59 -295.42,-166.63 -493.17,-171.19 0.81,17.7 102.64,331.75 116.76,378.57 39.82,132.02 11.32,71.34 107.36,142.76 62.34,46.36 -11.29,46.37 208.59,42.06 108.44,-2.12 226.65,-4.47 334.69,-1.1z"/>
   <path class="fil2" d="M1791.4 1814.7c17.68,-7.93 71.16,-57.16 86.42,-71.12 46.84,-42.88 104.34,-122.24 137.84,-179.49 17.36,-29.68 39.26,-73.12 51.58,-107.17 33.09,-91.4 46.96,-154.49 55.23,-261.62 5.92,-76.67 -10.07,-215.67 -35.48,-277.51l-278.92 195.38c-19.35,14.11 -35.85,24.22 -56.32,38.95 -18.97,13.65 -35.31,25.62 -55.86,39.27 -15.13,10.05 -18.95,6.66 -22.87,26.34 -2.73,13.73 -4.25,24.76 -7.73,38.47 -26.86,105.66 -47.81,54.46 -19.23,137.33 17.62,51.09 135.24,404.38 145.35,421.17z"/>
   <path class="fil1" d="M529.49 901.91c138.38,-3.49 310.56,-0.94 454.65,1.34 59.72,0.94 23.15,-23.73 130.21,-81.87 49.56,-26.92 33.99,3.67 64.97,-100.53 15.14,-50.93 116.29,-361.06 117.67,-381.28 -217.51,3.37 -380.22,78.67 -514.95,188.36 -54.24,44.16 -100.36,93.25 -141.2,151.46 -22.58,32.18 -43.07,62.88 -63.1,102.49 -12.16,24.05 -47.21,94.77 -48.25,120.02z"/>
   <path class="fil1" d="M485.82 1156.49c0,148.83 41.13,286.67 101.75,396.46 38.19,69.17 106.5,158.51 163.22,206.97 18.73,16.01 45.77,45.58 67.55,54.8 9.74,-16.46 82.72,-238.47 95.91,-276.71 16.12,-46.71 30.92,-92.01 47.61,-139.38 15,-42.57 12.38,-29.93 -6.23,-65.69 -10.98,-21.09 -19.81,-44.02 -27.09,-68.12 -27.59,-91.25 6.15,-61.65 -72.39,-114.37l-333.6 -232.85c-22.61,61.51 -36.72,164.64 -36.72,238.89z"/>
   <path class="fil1" d="M857.27 1843.85c200.3,139 479.6,167.4 713.04,89.25 54.99,-18.41 148.01,-61.39 194.43,-98.05 1.36,-1.07 4.18,-3.54 5.76,-4.98 0.39,-0.36 1.53,-0.72 1.81,-1.84 0.28,-1.13 1.23,-1.22 1.78,-1.88l-327.65 -247.34c-93.27,-69.33 -48.34,-41.26 -137.92,-38.07 -84.32,3.01 -61.53,-25.3 -120.95,20.1 -9.5,7.26 -16.46,12.51 -26.16,19.59 -37.51,27.35 -71.26,53.98 -108.75,81.62l-217.11 164.09 21.73 17.5z"/>
   <path class="fil2" d="M1177.65 1427.65c5.84,8.28 3.65,1.63 4.68,14.42l-6.97 -4.64c-12.56,-1.85 -47.97,-18.83 -54.26,-26.65 -7.87,-9.79 -42.14,-189.08 -45.66,-208.57l-29.22 -5.93 -0.03 146.72c-6.91,-3.9 -45.06,-59.39 -49.19,-69.1 -5.15,-12.11 -9.36,-217.54 2.42,-239.57 13.19,-24.68 32.42,-54.42 48.75,-74.63 113.78,-140.82 133.09,59.12 117.39,146.06 -7.35,40.68 -18.79,61.06 -40.49,82.47l52.59 239.43zm382.58 -348.11l-11.12 2.7 -1.33 -11.03c-6.09,-30.59 -15.15,-69.22 -48.79,-68.87 -40.48,14.19 -45.15,310.18 6.84,308.3 25.67,-0.93 44.61,-72.88 49.67,-83.88l30.64 10.81c-4.55,52.67 -67.49,205.15 -124.04,160.1 -68.61,-54.66 -66.26,-439 1.4,-484.51 57.42,-38.62 112.48,97.09 119.01,157.98l-22.29 8.39zm-343.44 -219.2c45.46,-20.8 138.84,-6.79 186.96,4.25l0.15 106.49c-35.73,-4.64 -90.65,-14 -126.07,-8.42l-0.01 123.46 94.84 2.05 -1.01 109.76 -93.81 2.52 -0.21 262.59 -61.93 -10.04 1.11 -592.66zm39.27 -57.64c-185.52,19.62 -340.02,184.64 -316.3,397.46 20.51,184 189.31,338.57 397.92,313.71 184.32,-21.97 336.15,-184.3 314.38,-396.45 -19.04,-185.58 -187.72,-336.75 -396,-314.72z"/>
   <path class="fil3" d="M1541.51 3044.84l-4.63 -3.32c-9.88,9.5 -143.55,3.43 -167.83,3.77 -9.62,-9.69 -6.52,-20.3 -5.68,-34.33 3.12,-52.19 -5.45,-205.99 2.79,-236.22 18.27,-2.23 88.02,-7.64 99.71,0.78 8.39,9.2 2.75,68.91 2.62,87.36 -0.17,23.91 -2.51,68.64 1.49,90.13 28.39,3.54 42.78,-1.94 72.51,5.06l4.03 67.19c-0.37,16.25 -1.68,15.45 -5.01,19.58zm-362.93 -271.02c81.82,-14.73 146.78,46.36 158.8,113.18 15.01,83.5 -45.36,148.9 -110.81,161.43 -179.27,34.33 -239.17,-240.18 -47.99,-274.61zm-140.2 254.6c-1.12,25.53 20.67,44.72 45.98,50.92 41.97,10.28 97.1,-1.12 164.91,32.9 37.12,18.62 39.25,30.34 55.6,40.37 9.77,-5.52 17.67,-15.78 27.15,-22.87 102.35,-76.59 231.51,-14.82 238.46,-96.67l0.7 -289.83 -532.53 1.19 -0.26 284z"/>
   <path class="fil4" d="M1474.1 2704.8c-9.23,-4.11 -6.76,7.23 -7.89,-14.3 -3.34,-63.51 1.69,-52.51 11.41,-53.69 4.72,9.97 2.89,21.95 3.05,35.68 0.49,42.63 1.38,28.16 -6.57,32.3zm-406.66 0.35c-0.18,-13.25 -0.06,-26.49 -0.28,-39.74 -0.64,-38.1 -0.48,-25.25 8.55,-29.09 12.54,8.93 3.11,23.82 7.17,56.67 4.2,-0.01 14.07,-0.58 17.63,-0.12 12.1,1.59 6.08,0.76 11.46,4.3 -4.57,10.7 5.56,9.68 -44.52,7.98zm325.22 -0.41c3.35,-12.1 17.76,-59.18 28.55,-68.21 10.27,3.3 6.43,-2.15 12.52,12.87l19.88 55.37c-33.74,-0.99 4.97,-11.51 -39.45,-11.71 -0.68,0.6 -1.4,1.62 -1.79,2.04 -10.87,11.67 -9.15,9.26 -19.71,9.64zm-178.31 -0.5c-21.9,2.86 -36.02,-1.02 -38.88,-21.65 -8.5,-61.42 46.75,-56.12 51.85,-24.14 4.13,25.9 -1.26,32.17 -12.97,45.79zm118.73 0.59c-12.01,-4.62 -6.67,8.39 -9.08,-14.28l0.91 -53.76c16.74,0.88 16.42,5.19 23.47,16.9l16.68 20.1c-0.55,-48.07 -2.13,-32.8 6.81,-37.06 9.76,4.72 5.7,-6.64 7.52,14.22l-0.16 53.48c-17.65,0.1 -15.23,-1.98 -23.83,-15.46l-14.31 -18.66c-0.34,-1.31 -1.49,-1.26 -2.27,-1.84 -1.35,36.33 4.07,29.34 -5.73,36.36zm-85.11 -68.03c23.45,0.51 15.99,11.89 35.65,32.81 0.41,0.44 1.77,2.47 2.08,1.85 0.31,-0.62 1.41,1.25 2.16,1.82 0.8,-42.07 -2.79,-31 6.44,-36.69 11.56,4.81 6.07,-8.51 8.35,14.32l-0.55 53.77c-26.49,-1.08 -13.91,-10 -35.78,-32.93 -0.42,-0.44 -1.79,-0.6 -2.11,-1.85 -0.32,-1.27 -1.44,-1.24 -2.18,-1.82 -0.2,6.39 0.4,16.97 -0.04,22.47 -1.5,19.13 1.99,9.22 -6.47,14.31 -10.5,-4.52 -6.06,7.72 -8.34,-14.31l0.79 -53.74zm286.56 49.79c-9.41,-23.84 4.63,-1.75 -23.3,-12.58 -19.15,-7.42 -15.84,-34.98 8.75,-38.03 23.6,-2.93 24.91,8.19 24.99,8.29 -12.37,14.68 -9.21,-2.77 -31.38,7.2 2.67,18.29 16.43,8.57 34.34,23.67 1.62,18.22 -1.48,26.73 -17.54,29.8 -29.26,5.6 -30.34,-6.85 -32.66,-12.39 20.03,-7.49 22.05,10.75 36.8,-5.97zm-423.83 -49.64c21.19,-0.27 15.41,5.43 25.93,24.07 16.5,-15.84 2,-23.85 27.76,-24.29 -12.1,29.79 -18.21,26.55 -19.84,50.17 -1.51,22.01 3.46,13.06 -8.9,18.11 -11.01,-13.62 -0.02,-16.79 -9.68,-36.93 -5.03,-10.49 -10.04,-21.57 -15.27,-31.14zm254.16 -77.46l0.18 57.95c-5.95,6.22 9.93,6.63 -10.81,5.22 -5.83,-10.82 -6.49,-59.15 0,-69.03 19.12,-0.44 5.27,-1.17 10.63,5.87zm-237.71 61.83c-2.32,-13.14 -1.61,-23.74 -1.68,-36.98 -0.21,-38.62 -0.9,-24.66 6.65,-30.23 10.29,6.8 4.75,-6.95 7.38,12.27l0.03 42.84 26.82 3.34 -0.34 8.65 -38.87 0.11zm311.25 -63.69c6.48,-4.9 -9.25,-5.33 11.03,-3.93 6.39,11.73 3.24,35.42 3.29,49.7 9.65,15.21 21.37,7.57 22.24,-11.7 1.67,-36.8 -6.77,-28.32 6.2,-37.46 10.06,6.69 4.32,-6.6 7.09,12.17 0.71,4.79 0.57,37.52 -4.36,45.32 -10.58,16.73 -30.8,9.59 -42.6,2.38 -3.98,-16.25 -3.64,-37.5 -2.89,-56.48zm-14.08 65c-15.72,-3.02 -37.52,2.49 -45.01,-13.91 -5.64,-12.34 -4.41,-38.86 4.53,-47.67 10.37,-10.23 31.43,-8.84 38.84,4.28 6.54,11.59 2.54,43.25 1.65,57.3zm-360.56 -34.76c-3.62,-42.59 45.74,-44.93 49.68,-10.23 4.74,41.84 -17.54,57.46 -48.14,32.34l-1.53 -22.11zm215.62 -32.79c6.73,10.82 4.38,21.16 4.42,36.33 0.03,12.55 1.85,20.41 -3.59,32.29l-10.59 -0.72c-5.72,-12.87 1.98,-29.54 -8.63,-29.54l-8.99 14.65c-12.63,-4.68 -8.25,-9.04 -16.99,-19.66 -2.86,20.42 5.37,31.52 -11.22,33.33 -5.36,-7.99 -3.57,-21.83 -3.65,-33.87 -0.03,-4.95 -0.41,-13.21 -0.05,-17.81l2.58 -12.54c0.13,-1.54 0.68,-1.89 1.12,-2.79 23.93,2.87 8.49,13.89 28.51,33.36l14.45 -32.35 12.64 -0.68zm30.85 44.2c-2.31,13.01 0.89,14.02 -5.35,23.46 -19.69,0.37 -5.47,0.91 -10.76,-5.3l1.98 -62.97c21.03,-0.44 41.76,-3.27 46.02,17.31 4.24,20.5 -13.34,26.58 -31.89,27.5zm202.69 -20.27c16.93,3.34 21.71,-2.61 28.52,8.86 -6.72,11.33 -12.02,5.96 -28.68,8.24l0.38 11.09c8.38,1.4 15.19,0.58 21.12,1.52 17.21,2.73 5.05,-2.52 12.3,7.35 -7.54,10.39 -6.15,7.37 -23.02,7.14 -9.55,-0.13 -13.85,0.07 -24.81,-1.73l1.32 -67.22c25.19,-3.38 38.34,-4.84 46.49,5.4 -8.3,13.45 8.22,3.84 -32.99,9.51l-0.62 9.83zm-333.27 -4.72l9.41 2.3c4.1,-14.75 3.38,-20.71 21.15,-21.78 -8.87,29.57 -18.24,23.71 -18.34,62.76 -5.89,6.14 9.25,5.32 -10.38,5.31 -7.4,-10.03 -5.15,-14.34 -3.82,-28.12l-17.17 -39.76c17.18,0.12 16.99,3.07 19.15,19.3zm-140.57 145.74c39.35,6.55 517.61,5.01 531.8,-1.71l-0.17 -179.82 -529.75 -0.02 -1.87 181.56z"/>
   <path class="fil0" d="M1216.78 860.35l-1.11 592.66 61.93 10.04 0.21 -262.59 93.81 -2.52 1.01 -109.76 -94.84 -2.05 0.01 -123.46c35.42,-5.57 90.34,3.78 126.07,8.42l-0.15 -106.49c-48.11,-11.04 -141.5,-25.05 -186.96,-4.25z"/>
   <path class="fil0" d="M1046.49 1121.22c-0.89,-24.51 -5.68,-61.58 7.33,-78.28 8.38,-10.77 27.35,-32.78 46.17,-33.36 14.34,17.39 18,51.53 10.51,79.3 -8.51,31.52 -27.66,33.27 -64,32.35zm128.87 316.22c4.76,-4.46 4.92,4.69 2.29,-9.79l-52.59 -239.43c21.7,-21.41 33.15,-41.79 40.49,-82.47 15.7,-86.94 -3.61,-286.88 -117.39,-146.06 -16.33,20.21 -35.56,49.95 -48.75,74.63 -11.78,22.03 -7.57,227.46 -2.42,239.57 4.13,9.71 42.28,65.2 49.19,69.1l0.03 -146.72 29.22 5.93c3.51,19.49 37.78,198.78 45.66,208.57 6.3,7.83 41.7,24.8 54.26,26.65z"/>
   <path class="fil5" d="M1547.78 1071.22c5.23,7.37 2.54,5.42 12.45,8.33l22.29 -8.39c-6.53,-60.9 -61.59,-196.61 -119.01,-157.98 -67.66,45.51 -70.01,429.84 -1.4,484.51 56.54,45.05 119.49,-107.42 124.04,-160.1l-30.64 -10.81c-5.06,11 -24,82.96 -49.67,83.88 -51.99,1.87 -47.32,-294.11 -6.84,-308.3 33.64,-0.36 42.7,38.28 48.79,68.87z"/>
   <path class="fil6" d="M1570.48 3033.06c-6.95,81.85 -136.11,20.08 -238.46,96.67 -9.49,7.1 -17.38,17.35 -27.15,22.87 -16.35,-10.03 -18.47,-21.74 -55.6,-40.37 -67.81,-34.02 -122.94,-22.61 -164.91,-32.9 -25.31,-6.2 -47.1,-25.39 -45.98,-50.92 -0.53,-0.73 -1.24,-2.79 -1.4,-2.32l-3.81 -286.18 543.63 -0.74c1.23,31.07 5.8,285.48 -6.32,293.88zm-537.77 -501.22l543.31 -0.54 1.04 193.53 -543.76 1.04 -0.59 -194.04zm4.54 539.83l10.33 8.75c25.87,8.23 15.09,15.58 70.35,18.16 27.29,1.27 53.42,3.8 78.39,10.35 76.38,20.03 88.58,57.41 108.56,69.29l17 -16.35c111.28,-122.3 269.2,11.18 269.37,-172.07 0.09,-94.97 4.69,-402.65 -0.99,-472.86l-570.76 0.41c-7.24,85.56 -0.91,200.39 -0.91,289.12l0.79 215.07c3.21,27.88 12.53,31.99 17.88,50.13z"/>
   <path class="fil7" d="M1116.92 2817.66c7.9,4.17 3.56,0.39 8.57,2.26 10.44,3.88 2.8,-2.97 10.13,5.32 -6.83,28.98 42.73,48.16 59.18,41.17 -1.38,-8.22 4.21,-3.35 -4.9,-6.75l-12.91 -6.51c-2.93,-0.78 -11.79,-1.72 -15.76,-2.55 9.82,-9.08 7.18,-7.62 26.54,-8.41 -6.41,0.98 -0.34,0.72 -3.86,-4.16l-3.12 -14.14 11.15 -3.85c29.93,-18.35 55.31,5.58 47.43,40.84 -2.44,10.93 -12.05,29.32 -11.23,40.09 0.96,12.61 11.84,23.41 14.46,36.05l14.76 -1.28c0.78,-23.34 -16.16,-27.58 -13.27,-51.7 12.95,-23.73 60.13,-22.95 39.62,-44.38 -17.01,3.55 -4.33,4.14 -11.96,7.86 -6.31,3.08 -9.8,2.37 -18.66,2.54l5.73 -20.72c14.68,3.03 27.75,-1.52 35.22,5.83 9.6,9.44 2.54,15.74 0.22,27.47l-2.86 8.24c4.9,9.46 -0.9,16.35 -9.96,21.89 -14.98,9.16 -13.73,-0.2 -19.48,15.85 8.51,-3.88 17.01,-8.04 27.44,-9.95 -2.99,11.9 0.16,9.27 -10.84,13.6 0.93,1.35 1.35,2.3 1.83,4.56 0.34,1.62 3.69,5.47 4.74,5.99 -3.91,14.19 0.69,1.44 -7.1,7.07 -4.75,2.45 -5.87,3.6 -9.26,6.03l-12.18 7.7 -9.92 6.47c-0.44,-0.81 -1.81,1.33 -2.5,1.87l28.69 16.65c-2.61,4.2 -8.54,9.78 -10.58,14.04 -10.13,21.27 7.24,4.66 -7.51,20.41 -8.85,9.44 -10.33,10.83 -20.32,13.02l-7.67 6.62c-4.19,-11.09 -9.04,-11.07 -5.6,-22.31 2.78,-11.23 6.89,-0.45 19.09,-10.59 -0.12,-15.1 2.68,-13.44 -9.52,-17.74l-21.07 -3.96c-1.05,-3.35 7,-17.09 -9.55,-15.77 -18.31,1.45 -9.04,12.6 -9.6,26.54 6.24,4 4.9,-6.08 5.13,6.9 -15.15,-0.55 -1.52,0.8 -7.46,-4.62l-52.82 7.95c-3.41,5.93 5.92,3.24 -7.73,5.49l0.43 -15.55c-0.33,-17.04 -0.23,-5.82 4.04,-10.82 19.43,0.91 6.33,0.83 11.36,4.82l23.17 -5.07c-1.85,-19.47 -6.43,-11.59 -23.24,-20.07 14.56,-6.04 43.37,-12.52 47.46,-28.61 -8.96,-5.23 -8.44,-3.7 -19.22,-1.17 -4.4,12.15 -0.06,5.94 -8.59,9.78 -6.72,-4.96 -17.81,-5.82 -29.77,-3.63 -1.09,0.2 -6.76,1.86 -7.09,1.9 -12.66,1.49 2.16,-4.15 -17.78,-3.42l-7.68 6.01 -5.18 -10.94c-6.01,-16.03 -2.73,-1.23 1.49,-4.77l1.61 -11.13c6.37,0.03 4.48,-1.03 8.67,0.21 5.93,1.76 4.62,1.6 7.82,3.76 23.41,-0.09 30.67,-3.27 49.18,-12.31l-8.06 -4.3 -15.03 0.9 -5.41 -13.06c-0.51,-10.8 -3.86,-12.96 -11.04,-17.66 -1.91,-1.25 -3.75,0.55 -4.76,-2.48 -0.37,-1.1 -1.67,-0.68 -2.44,-1.14 6.3,-12.53 4.41,-15.36 -5.09,-22.14 -8.43,-2.93 -0.23,-3.66 -12.08,0.97 -15.48,8.83 -59.74,99 13.47,169.92 49.81,48.25 136.92,40.77 178.71,-5.87 44.15,-49.28 44.76,-129.1 -1.43,-174.92 -72.63,-72.05 -164.17,-27.61 -174.24,-6.13z"/>
   <path class="fil8" d="M1429.84 1528.77c6.19,5.6 4.14,3.33 10,7.53l139.13 104.08c28.05,20.83 52.98,39.46 80.65,60.39l78.64 57.28 -130.19 -376.61c-0.65,0.6 -1.47,1.48 -1.86,1.89 -0.39,0.4 -1.37,1.39 -1.84,1.88 -12.73,13.48 -13.7,19.7 -25.72,27.71l79.05 235.55c-22.96,-13.1 -165.04,-123.39 -194.65,-145.02l-42.13 15.4 8.91 9.93z"/>
   <path class="fil8" d="M1627.49 970.98l249.56 -0.83c-10.13,16.78 -176.56,124.3 -200.09,147.56l1.33 47.41 121.32 -84.97c14.32,-10.22 25.58,-18.88 41.23,-29.32l162.28 -115.83 -395.37 -1.12c6.63,15.29 15,22.19 19.75,37.1z"/>
   <path class="fil2" d="M957.88 1646.58c-7.49,5.53 9.44,6.01 -9.44,4.08l4.94 -5.84c6.11,-29.08 51.56,-156.38 66.57,-198.82 7.28,-20.59 5.98,-20.18 -24.79,-49.57 -21.61,58.85 -42.21,121.15 -62.18,181.35l-60.55 180.46c10.34,-5.26 28.62,-20.46 39.34,-28.83l271.72 -204.77c-44.68,-19.38 -41.24,-18.51 -64.4,-0.39l-161.21 122.32z"/>
   <path class="fil8" d="M1413.69 793.17c6.36,-2.8 7.19,4.51 3.46,-6.1l-108.52 -353 -7.67 -0.48 -110.27 355.11 44.18 -8.86c4.78,-23.18 60.76,-202.44 70.01,-216.3 10.68,15.38 50.31,152.49 63,191.68 1.37,4.23 3.01,10.56 4.01,13.36 6.45,18.05 6.71,13.95 41.8,24.59z"/>
   <path class="fil3" d="M1305.66 281.61c24.39,-0.71 98.38,1.59 115.21,7.82 -0.58,-53.54 -6,-166.71 1.9,-213.9l-117.01 -0.85 -0.11 206.93z"/>
   <path class="fil2" d="M912.85 1151.89c6.12,-55.3 5.32,-45.71 -19.4,-63.43l-161.35 -117c45.19,-3.29 192.45,-0.54 231.96,-0.29l20.32 -36.38 -377.27 0.37 227.82 162.42c17.94,12.27 61.83,48.32 77.92,54.31z"/>
   <path class="fil9" d="M1194.99 287.17l78.17 -4.38c9.82,-9.46 9.02,-7.43 26.4,-6.99 7.89,-25.22 2.64,-161.85 2.5,-198.78 -23.41,-0.18 -90.14,-2.43 -108.34,3.73l1.28 206.42z"/>
   <path class="fil10" d="M1304.6 3352.63l0.07 181.19c17.91,-8.34 96.05,-67.98 122.36,-88.72 -12.05,-13.02 -2.52,-136.37 -6.18,-176.02 -17.82,7.45 -98.25,74.67 -116.25,83.56z"/>
   <path class="fil9" d="M1184.39 3445c13.85,13.7 101.92,79.74 120.27,88.81l-0.07 -181.19c-23.33,-14.22 -88.35,-70.05 -106.8,-75.65l-10.12 -0.47c0.37,11.1 4.04,157.13 -3.29,168.5z"/>
   <path class="fil2" d="M1384.85 3031.7l141.96 -0.2 -0.77 -55.82c-23.58,-2.87 -54.14,4.65 -76,-5.07l-0.54 -179.11 -65.82 1.09 1.18 239.1z"/>
   <polygon class="fil10" points="1306.13,2034.23 1305.68,2179.05 1420.79,2178.52 1421.6,2026.27 "/>
   <path class="fil9" d="M1298.87 2033.81l-84.83 -3.56 -20.49 1.92 1.34 142.5 106.3 0.83c4.15,-23.82 4.48,-120.64 -2.32,-141.69z"/>
   <path class="fil6" d="M1191.96 2820.03c20.15,2.3 7.65,-3.12 10.34,6.79 -10.59,-1.93 -5.4,0.79 -10.34,-6.79zm0 0l-11.15 3.85 3.12 14.14c18.6,1.64 7.2,0.05 11.85,4.74l2.68 1.9 4.49 8.6 -16.18 -1.1 3.15 7.5c9.11,3.4 3.53,-1.47 4.9,6.75 -16.45,6.99 -66.02,-12.18 -59.18,-41.17 -18.32,5.16 6.42,-2.03 -9.42,1.7 -6.04,1.42 -0.82,-0.47 -5.64,1.8 -0,0 -7.39,4.62 -8.08,4.95 9.5,6.78 11.39,9.61 5.09,22.14 0.77,0.46 2.08,0.03 2.44,1.14 1,3.02 2.84,1.22 4.76,2.48 7.18,4.7 10.53,6.86 11.04,17.66 0.98,0.64 5.06,3.08 6.05,3.6l14.39 8.56 8.06 4.3c-18.51,9.04 -25.77,12.22 -49.18,12.31 -8.31,0.15 -4.46,-0.26 -8.81,1.62 -5.2,2.25 2.85,0.24 -9.28,5.54l11.37 9.7c19.94,-0.72 5.12,4.91 17.78,3.42 0.33,-0.04 6,-1.7 7.09,-1.9 11.96,-2.19 23.05,-1.33 29.77,3.63l1 -8.51 7.59 -1.27c10.78,-2.53 10.26,-4.06 19.22,1.17 -4.09,16.09 -32.9,22.58 -47.46,28.61 16.81,8.48 21.39,0.6 23.24,20.07l-23.17 5.07 -15.39 5.99c2.23,3.34 4.45,6.69 7.3,10.06l52.82 -7.95 2.34 -2.27c0.56,-13.95 -8.72,-25.09 9.6,-26.54 16.55,-1.31 8.5,12.42 9.55,15.77l21.07 3.96c12.2,4.31 9.4,2.65 9.52,17.74 -12.2,10.15 -16.31,-0.63 -19.09,10.59l13.27 15.69c9.99,-2.19 11.47,-3.58 20.32,-13.02 14.75,-15.75 -2.62,0.86 7.51,-20.41 2.03,-4.27 7.97,-9.84 10.58,-14.04l-28.69 -16.65c0.68,-0.54 2.06,-2.68 2.5,-1.87l9.92 -6.47c-24.65,2.94 -10.45,-1.39 -13.98,-6.6 -2.61,-12.64 -13.5,-23.44 -14.46,-36.05 -0.82,-10.77 8.79,-29.16 11.23,-40.09 7.88,-35.26 -17.5,-59.2 -47.43,-40.84z"/>
   <path class="fil11" d="M1100.41 2834.65c3.86,-5.56 2.47,-4.81 7.54,-10.15 7.91,-8.34 3.04,-2.81 8.96,-6.84 10.07,-21.48 101.61,-65.92 174.24,6.13 46.19,45.82 45.58,125.64 1.43,174.92 -41.79,46.64 -128.9,54.12 -178.71,5.87 -73.21,-70.92 -28.94,-161.1 -13.47,-169.92zm78.17 -60.83c-191.18,34.43 -131.28,308.94 47.99,274.61 65.44,-12.53 125.82,-77.93 110.81,-161.43 -12.01,-66.82 -76.98,-127.91 -158.8,-113.18z"/>
   <path class="fil11" d="M1526.04 2975.68l0.77 55.82 -141.96 0.2c-5.53,-3.21 -4.72,4.45 -4.17,-24.16 0.2,-10.61 0.16,-21.23 0.09,-31.84 -0.23,-38.58 -2.62,-163.97 1.66,-186.37 17.08,-3.46 52.35,-4.37 68.85,0.78l1.73 180.59c12.78,1.13 25.73,0.72 38.72,0.5 5.57,-0.09 12.49,-0.58 17.9,-0.32 13.43,0.65 9.53,-0.7 16.4,4.81zm10.84 65.84l-0.07 -79.51c-27.92,-5.28 -63.7,2.84 -72.89,-4.69 -7.17,-10.52 -3.79,-154.45 -3.42,-177.08l-90.32 0.82 1.42 259.35 165.29 1.1z"/>
   <path class="fil12" d="M1040.93 2538.49l529.75 0.02 0.17 179.82c-14.18,6.72 -492.45,8.26 -531.8,1.71l1.87 -181.56zm-7.63 187.4l543.76 -1.04 -1.04 -193.53 -543.31 0.54 0.59 194.04z"/>
   <path class="fil2" d="M1046.49 1121.22c36.34,0.92 55.5,-0.83 64,-32.35 7.49,-27.76 3.84,-61.91 -10.51,-79.3 -18.82,0.59 -37.79,22.59 -46.17,33.36 -13,16.71 -8.22,53.77 -7.33,78.28z"/>
   <path class="fil13" d="M1038.38 3028.42l0.26 -284 532.53 -1.19 -0.7 289.83c12.12,-8.4 7.55,-262.81 6.32,-293.88l-543.63 0.74 3.81 286.18c0.16,-0.47 0.87,1.59 1.4,2.32z"/>
   <path class="fil14" d="M1369.05 3045.29l-0.02 -268.85 95.31 1.2 -0.42 179.7c23.75,0.5 53.44,-3.96 76.65,2.36l0.95 85.15c3.33,-4.13 4.63,-3.33 5.01,-19.58l-4.03 -67.19c-29.73,-7 -44.12,-1.52 -72.51,-5.06 -4,-21.49 -1.66,-66.22 -1.49,-90.13 0.13,-18.45 5.77,-78.16 -2.62,-87.36 -11.69,-8.43 -81.44,-3.01 -99.71,-0.78 -8.24,30.22 0.33,184.03 -2.79,236.22 -0.84,14.03 -3.94,24.65 5.68,34.33z"/>
   <path class="fil15" d="M1584.06 2348.14c17.76,-54.02 -37.86,-72.28 -48.02,-37.11 -16.48,57.08 36.21,73.01 48.02,37.11z"/>
   <path class="fil11" d="M1242.61 2937.01c3.52,5.21 -10.67,9.54 13.98,6.6l12.18 -7.7c3.4,-2.43 4.51,-3.58 9.26,-6.03l-11.15 -7.07c7.15,-13.58 -2.47,-4.27 11.69,-10.56 11,-4.32 7.85,-1.7 10.84,-13.6 -10.43,1.91 -18.93,6.07 -27.44,9.95 5.75,-16.05 4.5,-6.68 19.48,-15.85 9.06,-5.54 14.86,-12.43 9.96,-21.89 -2.77,3.37 2.48,1.41 -7.11,6.67 -12.33,6.76 -22.92,3.63 -30.86,19.33 -9.65,-18.33 21.17,-27.55 40.83,-34.24 2.32,-11.73 9.38,-18.03 -0.22,-27.47 -7.47,-7.34 -20.54,-2.8 -35.22,-5.83l-5.73 20.72c8.86,-0.17 12.35,0.54 18.66,-2.54 7.62,-3.72 -5.05,-4.31 11.96,-7.86 20.51,21.43 -26.67,20.65 -39.62,44.38 -2.88,24.12 14.05,28.37 13.27,51.7l-14.76 1.28z"/>
   <path class="fil16" d="M1333.08 2704.83c9.8,-7.02 4.38,-0.03 5.73,-36.36 0.78,0.58 1.94,0.53 2.27,1.84l14.31 18.66c8.6,13.49 6.18,15.56 23.83,15.46l0.16 -53.48c-1.82,-20.86 2.24,-9.5 -7.52,-14.22 -8.94,4.26 -7.36,-11.01 -6.81,37.06l-16.68 -20.1c-7.04,-11.71 -6.73,-16.02 -23.47,-16.9l-0.91 53.76c2.41,22.67 -2.93,9.66 9.08,14.28z"/>
   <path class="fil17" d="M1255.51 2704.86c8.47,-5.1 4.97,4.82 6.47,-14.31 0.43,-5.5 -0.17,-16.08 0.04,-22.47 0.75,0.58 1.86,0.55 2.18,1.82 0.32,1.25 1.68,1.41 2.11,1.85 21.87,22.93 9.3,31.85 35.78,32.93l0.55 -53.77c-2.28,-22.83 3.21,-9.5 -8.35,-14.32 -9.23,5.68 -5.64,-5.38 -6.44,36.69 -0.75,-0.57 -1.84,-2.44 -2.16,-1.82 -0.31,0.62 -1.66,-1.41 -2.08,-1.85 -19.66,-20.92 -12.2,-32.3 -35.65,-32.81l-0.79 53.74c2.27,22.03 -2.16,9.79 8.34,14.31z"/>
   <path class="fil16" d="M1260.98 2593.44l7.21 -8.2c7.32,37.15 -6.52,26.48 8.47,35.84 0.45,-0.89 1.21,-3.13 1.34,-2.67 0.14,0.47 0.99,-2.03 1.14,-2.8l0.22 -60.52 -12.64 0.68 -14.45 32.35c-20.02,-19.48 -4.58,-30.5 -28.51,-33.36 -0.45,0.9 -0.99,1.25 -1.12,2.79l-2.58 12.54c-0.36,4.6 0.02,12.87 0.05,17.81 0.08,12.05 -1.71,25.89 3.65,33.87 16.59,-1.81 8.36,-12.91 11.22,-33.33 8.74,10.62 4.36,14.98 16.99,19.66l8.99 -14.65z"/>
   <path class="fil18" d="M1369.05 3045.29c24.28,-0.34 157.95,5.73 167.83,-3.77l-165.29 -1.1 -1.42 -259.35 90.32 -0.82c-0.37,22.64 -3.75,166.56 3.42,177.08l0.42 -179.7 -95.31 -1.2 0.02 268.85z"/>
   <path class="fil19" d="M1189.28 289.61l5.71 -2.45 -1.28 -206.42c18.2,-6.16 84.94,-3.91 108.34,-3.73 0.14,36.93 5.38,173.56 -2.5,198.78 -17.38,-0.45 -16.57,-2.47 -26.4,6.99l32.5 -1.18 0.11 -206.93 -117.96 -0.14 1.48 215.08z"/>
   <path class="fil20" d="M1390.3 2594.95l3.34 -27.98 13.48 0.41c8.43,10.62 6.04,15.78 5.77,31.06l-9.33 -1.66c-3.21,15.1 5.18,9.05 -8.46,13.11l-4.79 -14.93zm34.02 27.69c0.89,-14.04 4.89,-45.71 -1.65,-57.3 -7.4,-13.12 -28.46,-14.51 -38.84,-4.28 -8.94,8.81 -10.17,35.33 -4.53,47.67 7.5,16.4 29.3,10.89 45.01,13.91z"/>
   <path class="fil21" d="M1211.03 2649.98c2.48,12.86 4.95,26.11 -1.35,39.95 -10.47,4.88 -7.49,3.41 -18.36,1.02 -4.05,-24.6 -8.25,-45.94 19.71,-40.97zm3.31 54.26c11.72,-13.62 17.11,-19.89 12.97,-45.79 -5.1,-31.98 -60.35,-37.29 -51.85,24.14 2.86,20.63 16.97,24.51 38.88,21.65z"/>
   <path class="fil22" d="M1081.62 2568.72c15.85,-6.03 18.96,1.39 19.06,19.15 0.17,32.27 -24.08,27.73 -23.9,0l4.84 -19.15zm-17.87 19.16l1.53 22.11c30.61,25.11 52.88,9.5 48.14,-32.34 -3.93,-34.7 -53.3,-32.36 -49.68,10.23z"/>
   <path class="fil17" d="M1417.61 2675.13l3.3 -14.39c3.65,3.37 2.25,0.81 5.8,6.12 2.81,4.2 0.82,1.13 2.29,7l3.02 8.84 -17.37 0.16 2.96 -7.74zm-24.95 29.61c10.55,-0.38 8.84,2.03 19.71,-9.64 0.4,-0.43 1.12,-1.44 1.79,-2.04 44.42,0.2 5.71,10.72 39.45,11.71l-19.88 -55.37c-6.09,-15.02 -2.25,-9.57 -12.52,-12.87 -10.8,9.03 -25.21,56.11 -28.55,68.21z"/>
   <path class="fil23" d="M1384.85 3031.7l-1.18 -239.1 65.82 -1.09 0.54 179.11c21.86,9.72 52.42,2.2 76,5.07 -6.87,-5.51 -2.97,-4.16 -16.4,-4.81 -5.41,-0.26 -12.33,0.23 -17.9,0.32 -12.99,0.22 -25.94,0.63 -38.72,-0.5l-1.73 -180.59c-16.5,-5.15 -51.77,-4.24 -68.85,-0.78 -4.28,22.4 -1.89,147.79 -1.66,186.37 0.06,10.61 0.11,21.24 -0.09,31.84 -0.55,28.61 -1.36,20.95 4.17,24.16z"/>
   <path class="fil21" d="M1534.52 2686.6c-14.75,16.72 -16.77,-1.52 -36.8,5.97 2.32,5.54 3.4,17.99 32.66,12.39 16.06,-3.07 19.16,-11.58 17.54,-29.8 -17.91,-15.11 -31.67,-5.39 -34.34,-23.67 22.18,-9.97 19.01,7.48 31.38,-7.2 -0.09,-0.1 -1.39,-11.22 -24.99,-8.29 -24.59,3.05 -27.9,30.6 -8.75,38.03 27.93,10.83 13.89,-11.26 23.3,12.58z"/>
   <path class="fil24" d="M1305.68 2179.05l0.44 -144.82 -7.26 -0.42c6.81,21.05 6.47,117.87 2.32,141.69l-106.3 -0.83 -1.34 -142.5 20.49 -1.92 -25.22 -4.48 0.12 153.76 116.74 -0.48z"/>
   <path class="fil20" d="M1452.71 2603.41l-3.89 -11.8c-0.19,-1.49 -0.11,-8.84 -0.1,-10.75 0.03,-8.55 0.4,-14.81 -0.2,-23.37l-10.13 0.15c-0.75,18.98 -1.1,40.23 2.89,56.48 11.81,7.22 32.03,14.36 42.6,-2.38 4.93,-7.8 5.07,-40.54 4.36,-45.32 -2.77,-18.77 2.96,-5.48 -7.09,-12.17 -12.97,9.14 -4.53,0.66 -6.2,37.46 -0.87,19.27 -12.59,26.92 -22.24,11.7z"/>
   <path class="fil25" d="M1453.57 2295.14c25.46,-1.61 47.08,-1.73 40.45,28.3 -12.97,9.77 -19.53,8.91 -40.36,6.8l-0.09 -35.1zm33.86 42.43c13.62,-13.38 17.57,-8.17 13.93,-35.15 -15.22,-16.61 -27.37,-16.76 -54.15,-13.12 -0.84,16.61 -4,71.19 2.22,82.04 6.86,-7.79 3.96,-19.49 4.4,-33.41 46.36,0.81 19.55,6.17 47.37,34.33 2.7,-3.15 9.76,1.93 -2.72,-16.51 -5.59,-8.26 -6.3,-9.99 -11.04,-18.18z"/>
   <path class="fil22" d="M1309.61 2566.65c15.99,-0.58 22.41,2.37 17.31,17.16 -13.36,11.69 -13.42,5.25 -18.52,4.09 -2.32,-5.26 -3.23,-1.81 -3.08,-10.71 0.3,-17.66 0.87,-5.78 4.29,-10.54zm-15.5 50.8l10.53 2.5c0.41,-15.62 -2.38,-12.44 5.58,-20.66 18.55,-0.92 36.12,-6.99 31.89,-27.5 -4.25,-20.58 -24.98,-17.75 -46.02,-17.31l-1.98 62.97z"/>
   <path class="fil25" d="M1172.04 2295.32c26.02,-1.84 46.87,-2.14 40.3,28.55 -12.85,9.26 -19.96,8.14 -40.3,6.59l0.01 -35.15zm33.73 42.24c35.15,-37.73 5.14,-55.76 -40.62,-48.03l2.23 81.83c8.51,-8.76 3.97,-8.32 4.98,-33.3l23.22 0.35c12.1,11.24 14.1,29.24 27.43,33.16 -1.18,-14.44 -8.64,-14.59 -17.24,-34z"/>
   <path class="fil22" d="M1110.69 2636.96c5.23,9.57 10.24,20.65 15.27,31.14 9.65,20.13 -1.33,23.31 9.68,36.93 12.36,-5.06 7.39,3.9 8.9,-18.11 1.62,-23.62 7.73,-20.39 19.84,-50.17 -25.76,0.44 -11.26,8.45 -27.76,24.29 -10.51,-18.63 -4.74,-24.34 -25.93,-24.07z"/>
   <path class="fil15" d="M1453.66 2330.24c20.83,2.11 27.39,2.97 40.36,-6.8 6.64,-30.03 -14.99,-29.91 -40.45,-28.3l0.09 35.1z"/>
   <path class="fil15" d="M1172.03 2330.47c20.34,1.54 27.45,2.66 40.3,-6.59 6.57,-30.7 -14.28,-30.39 -40.3,-28.55l-0.01 35.15z"/>
   <path class="fil21" d="M1067.44 2705.15c50.08,1.7 39.95,2.73 44.52,-7.98 -5.38,-3.54 0.65,-2.72 -11.46,-4.3 -3.55,-0.47 -13.43,0.1 -17.63,0.12 -4.06,-32.85 5.37,-47.74 -7.17,-56.67 -9.03,3.84 -9.19,-9.01 -8.55,29.09 0.22,13.25 0.1,26.49 0.28,39.74z"/>
   <path class="fil25" d="M1339.99 2294.74c14.24,0.16 35.51,2.66 45.66,-3.01 -7.83,-5.3 -7.88,-3.78 -24.31,-3.66 -9.77,0.07 -17.84,-0 -28.15,0.91l1.15 82.37c15.33,0.92 39.81,3.4 51.4,-2.05 -3.87,-3.07 5.29,-4.55 -20.79,-4.39 -8.42,0.05 -16.13,0.29 -24.82,0.03l-0.51 -32.47 39.68 -1.96c-8.98,-8.43 -18.73,-5.29 -38.65,-4.95l-0.65 -30.82z"/>
   <path class="fil15" d="M1049.13 2296.1l-24.73 0.4 -0.82 34.69c13.5,0.89 32.41,2.95 39.04,-6.92 10.9,-16.24 -0.83,-24.91 -13.49,-28.17z"/>
   <path class="fil25" d="M1110.05 2301.43c4.09,4.04 2.36,0.17 6.66,8.98 0.62,1.26 2.7,7.97 3.63,10.43 2.67,7.09 5.17,12.66 7.17,20.21l-31.16 -0.02 13.7 -39.61zm28.62 67.77c7.17,-2.63 8.72,4.57 3.9,-5.91l-21.36 -60.39c-6.69,-16.7 -5.75,-11.87 -10.24,-14.36 -7.84,10.34 -30.75,71.04 -31.38,83.21 10.29,-4.8 10.37,-12.51 13.1,-23.43l38.15 0.02 7.83 20.86z"/>
   <path class="fil26" d="M1584.06 2348.14c-11.8,35.9 -64.49,19.97 -48.02,-37.11 10.15,-35.17 65.77,-16.9 48.02,37.11zm-55.78 -7.05c4.23,44.24 71.73,47.65 63.97,-21.35 -4.99,-44.36 -70.82,-50.25 -63.97,21.35z"/>
   <path class="fil14" d="M1028.74 2439.81c4.59,-2.27 2.4,-5.36 16.59,-1.42 8.73,22.79 -11.14,13.23 -16.42,12l-0.17 -10.58zm-0.18 -17.63c1.79,-1.91 -4.17,-14.93 18.57,-4.48 -1.41,8.07 0.97,10 -7.26,12.03 -17.15,4.25 -9.45,-3.63 -11.3,-7.56zm-8.12 37.59c11.72,0.41 33,3.83 36.55,-10.55 3.12,-12.6 -3.26,-9.92 -3.8,-16.64 -0.58,-7.21 4.74,-2.71 0.55,-20.53 -9.37,-4.27 -21.17,-5.1 -34.19,-4.04l0.9 51.76z"/>
   <path class="fil22" d="M1177.66 2594.76c0.35,0.74 0.94,1.01 1.02,2.22l2.11 22.81 11.06 -2.21c0.1,-39.05 9.47,-33.18 18.34,-62.76 -17.77,1.06 -17.05,7.03 -21.15,21.78 -4.15,6.76 6.8,4.91 -5.32,6.09l-4.09 -8.39c-2.16,-16.23 -1.97,-19.18 -19.15,-19.3l17.17 39.76z"/>
   <path class="fil14" d="M1099.66 2414.59l14.89 3.57 -3.57 9.81c-4.57,4.15 0.34,2.29 -7.27,4.7 -5.61,1.77 -5.03,0.17 -9.55,-0.34 -0.02,-3.33 -0.46,-6.73 0.37,-10.01 2.54,-10.04 -0.96,-1.08 5.12,-7.74zm14.45 42.6c14.26,4.3 5.02,3.33 7.79,-4.3l-6.62 -13.08c21.12,-29.9 -3.68,-32.79 -30.23,-32.54 1.14,25.12 -3.64,42.6 4.76,53.24 14.26,-15.63 1.48,2.22 5.03,-10.04 1.27,-4.39 -0.53,-3.29 2.02,-10.05 14.88,1.63 9.43,2.88 17.26,16.78z"/>
   <path class="fil21" d="M1127.15 2621.33l38.87 -0.11 0.34 -8.65 -26.82 -3.34 -0.03 -42.84c-2.64,-19.22 2.91,-5.47 -7.38,-12.27 -7.55,5.57 -6.86,-8.4 -6.65,30.23 0.07,13.24 -0.64,23.84 1.68,36.98z"/>
   <path class="fil14" d="M1491.88 2414.78c15.05,-0.39 10.07,-2.28 19.35,5.13 -1.31,12.05 -5.74,12.52 -19.11,12.58l-0.24 -17.71zm29.04 45.7c-2.14,-10.98 -7.34,-15.14 -7.11,-20.63 0.01,-0.27 26.25,-45.43 -31.3,-30.52l2.16 50.36c15.77,-4.35 1.42,-3.3 10.58,-19.54 21.92,4.67 2.75,13.59 25.68,20.33z"/>
   <path class="fil26" d="M1304.87 2344.7c-8.71,11.51 -5.24,20.9 -24.66,21.64 -15.65,0.59 -22.88,-6.91 -26.03,-20.32 -7.62,-32.4 -0.38,-56.39 38.06,-50.52l12.64 20.05c0.69,-1.14 6.49,5.23 1.28,-10.49 -1.46,-4.39 -4.82,-8.44 -7.36,-10.72 -12.55,-11.29 -52.46,-15.29 -52.35,36.19 0.04,20.94 7.46,39.89 27.19,42.04 10.79,1.18 19.97,-1.81 26.19,-8.35 17.41,-18.32 5.09,-19.46 5.06,-19.51z"/>
   <path class="fil14" d="M1576.34 2450.44c-25.15,11.31 -23.25,-21.2 -14.84,-36.02l14.69 1.18c5.36,9.64 7.83,22.34 0.14,34.84zm-27.67 -32.51c-9.64,51.88 30.34,50.82 39.49,30.28 11.87,-26.64 -9.07,-59.21 -39.49,-30.28z"/>
   <path class="fil20" d="M1513.13 2607.21l-0.38 -11.09c7.29,-5.89 11.12,-4.16 14.14,-4.75l10.67 -3.49c-11.67,-6.48 -25.01,1.38 -24.65,-8.86l0.62 -9.83c6.04,-7.45 -4.89,-2.46 13.38,-5.55 3.7,-0.63 5.42,-0.29 10.26,-1.32l-13.64 -5.58c-6.77,-0 -13.59,0.57 -21.16,1.11l0.66 61.54 39.42 0.18c-4.78,-8.81 5.84,-1.25 -5.34,-5.81 -13.7,-5.59 -16.84,6.53 -23.99,-6.55z"/>
   <path class="fil27" d="M1391.39 2422.18c16.87,-16.31 11.39,-2.1 25.41,-10.58 -4.02,-3.61 1.42,-1.95 -6.5,-4.07 -1.96,-0.52 -7.68,-0.68 -9.91,-0.72 -5.67,-0.1 -12.87,0.52 -18.69,0.78l1.58 52.16c12.44,0.75 24.84,2.51 33.91,-2.32 -7.32,-6.44 1.81,-2.31 -13.44,-4.81 -9.74,-1.6 -2.26,1.41 -11.73,-2.24l11.5 -13.78c11.25,-2.9 2.73,1.54 9.68,-3.86 -13.24,-8.77 -13.49,4.04 -21.82,-10.58z"/>
   <path class="fil14" d="M1226.93 2449.37l-10.05 -5.04 4.71 9.03c11.16,12.69 38.26,10.72 34.39,-9.51 -3.4,-17.76 -26.91,-6.82 -26.78,-26.88 11.66,-4.14 2.19,-4.62 13.68,-0.52 12.1,4.33 -6.68,2.04 13.58,6.04 -9.3,-37.73 -61.11,-1.93 -25.06,13.3 17.24,7.28 12.65,-1.81 14.38,14.59 -11.25,4.94 -10.09,4.81 -18.86,-1.01z"/>
   <path class="fil7" d="M1474.1 2704.8c7.95,-4.14 7.07,10.33 6.57,-32.3 -0.16,-13.73 1.66,-25.72 -3.05,-35.68 -9.73,1.17 -14.75,-9.82 -11.41,53.69 1.13,21.53 -1.34,10.19 7.89,14.3z"/>
   <path class="fil4" d="M1211.03 2649.98c-27.96,-4.97 -23.77,16.37 -19.71,40.97 10.87,2.39 7.89,3.86 18.36,-1.02 6.3,-13.84 3.84,-27.09 1.35,-39.95z"/>
   <path class="fil14" d="M1168.03 2422.76c2.13,-4.08 2.7,-14.85 7.46,2.12 0.03,0.43 0.69,9.04 0.68,9.25 -0.17,4.72 -0.88,4.56 -1.75,6.77l-12.11 0.18 5.72 -18.32zm-18.47 30.79c2.99,6.37 -4.93,7.52 7.47,3.22l3.58 -8.73 19.79 0.39 3.78 8.58c8.39,2.02 4.18,2.7 6.85,-2.41 -1.89,-10.63 -4.94,-15.95 -8.55,-26.31 -9.31,-26.69 -5.07,-16.23 -11.59,-21.13 -10.62,7.31 -18.54,33.46 -21.34,46.38z"/>
   <path class="fil28" d="M1513.13 2607.21c7.15,13.08 10.29,0.96 23.99,6.55 11.19,4.56 0.56,-3 5.34,5.81l-39.42 -0.18 -0.66 -61.54c7.57,-0.54 14.39,-1.11 21.16,-1.11l13.64 5.58c-4.84,1.03 -6.55,0.69 -10.26,1.32 -18.27,3.1 -7.35,-1.9 -13.38,5.55 41.2,-5.67 24.69,3.95 32.99,-9.51 -8.15,-10.24 -21.3,-8.78 -46.49,-5.4l-1.32 67.22c10.96,1.8 15.26,1.61 24.81,1.73 16.87,0.22 15.48,3.24 23.02,-7.14 -7.24,-9.87 4.91,-4.62 -12.3,-7.35 -5.92,-0.94 -12.73,-0.12 -21.12,-1.52z"/>
   <path class="fil4" d="M1081.62 2568.72l-4.84 19.15c-0.18,27.72 24.07,32.27 23.9,-0 -0.1,-17.76 -3.21,-25.18 -19.06,-19.15z"/>
   <path class="fil29" d="M1576.34 2450.44c7.69,-12.49 5.21,-25.2 -0.14,-34.84l-14.69 -1.18c-8.41,14.81 -10.31,47.32 14.84,36.02z"/>
   <path class="fil26" d="M1023.53 2370.74l0.67 -32.21c36.39,-2.5 58.95,-4.79 42.49,-45.29l-9.76 0.26 -7.8 2.61c12.66,3.25 24.39,11.93 13.49,28.17 -6.63,9.87 -25.54,7.81 -39.04,6.92l0.82 -34.69c-4.31,-7.51 -3.15,6.83 -3.17,12.41 -0.03,7.13 0.23,14.44 0.23,21.61 0,13.84 -2,29.71 2.08,40.22z"/>
   <path class="fil29" d="M1096.34 2341.03l31.16 0.02c-2,-7.55 -4.5,-13.13 -7.17,-20.21 -0.93,-2.47 -3.02,-9.17 -3.63,-10.43 -4.3,-8.81 -2.57,-4.93 -6.66,-8.98l-13.7 39.61z"/>
   <path class="fil30" d="M1417.36 2288.1c-10.29,3.56 -8.01,-5.04 -8.21,17.46l0.01 49.84c0.4,18.97 1.64,13.74 5,17.9 4.53,-8.3 3.38,-9.47 3.36,-21.52l-0.16 -63.68z"/>
   <path class="fil14" d="M1443.49 2409.09c-0,10.32 -0.08,20.52 -0.25,30.84 -0.27,16.43 -3.35,15.76 6.18,22.38 7.77,-5.99 5.35,2.67 5.97,-15.16 1.48,-42.51 2.04,-39.2 -11.9,-38.06z"/>
   <polygon class="fil20" points="1365.04,2617.44 1364.85,2559.49 1354.6,2556.65 1354.21,2619.53 "/>
   <path class="fil31" d="M1023.53 2370.74c-4.09,-10.51 -2.08,-26.39 -2.08,-40.22 -0,-7.17 -0.26,-14.48 -0.23,-21.61 0.02,-5.58 -1.14,-19.91 3.17,-12.41l24.73 -0.4 7.8 -2.61c-7.6,-9.29 -27,-7.41 -40.16,-4.19l0.72 82.18 6.05 -0.75z"/>
   <path class="fil32" d="M1294.96 2407.4c-17.37,2.19 -11.91,2.12 -11.66,25.31 0.2,17.85 -2.47,18.8 3.93,29.67 9.54,-4.34 6.41,0.43 8.07,-11.53l-0.35 -43.46z"/>
   <path class="fil4" d="M1390.3 2594.95c10.88,4.45 0.48,3.53 13.26,1.83l9.33 1.66c0.27,-15.28 2.66,-20.44 -5.77,-31.06l-13.48 -0.41 -3.34 27.98z"/>
   <path class="fil33" d="M1536.88 3041.52l4.63 3.32 -0.95 -85.15c-23.21,-6.32 -52.91,-1.86 -76.65,-2.36 9.19,7.52 44.97,-0.6 72.89,4.69l0.07 79.51z"/>
   <path class="fil14" d="M1354.88 2453.06l-21.87 0.06c-1.12,-10.62 -0.62,-17.24 -0.59,-27.64 0.04,-14.85 3.44,-16.28 -8.44,-18.55l0.37 51.21c3.49,-0.22 12.43,0.21 16.16,-0.06 23.29,-1.72 6.96,1.87 14.37,-5.01z"/>
   <path class="fil34" d="M1291.41 2870.87l2.86 -8.24c-19.66,6.69 -50.48,15.92 -40.83,34.24 7.94,-15.71 18.53,-12.57 30.86,-19.33 9.59,-5.26 4.34,-3.29 7.11,-6.67z"/>
   <path class="fil35" d="M1260.98 2593.44c10.62,0 2.91,16.67 8.63,29.54l10.59 0.72c5.44,-11.88 3.62,-19.74 3.59,-32.29 -0.04,-15.17 2.32,-25.51 -4.42,-36.33l-0.22 60.52c-0.16,0.77 -1.01,3.27 -1.14,2.8 -0.14,-0.46 -0.89,1.78 -1.34,2.67 -14.99,-9.36 -1.16,1.31 -8.47,-35.84l-7.21 8.2z"/>
   <path class="fil23" d="M1189.9 2859.65l-3.15 -7.5 16.18 1.1 -4.49 -8.6c-5.99,6.5 7.17,4.25 -8.61,5.21l5.92 -7.11c-4.65,-4.69 6.75,-3.1 -11.85,-4.74 3.51,4.88 -2.56,5.14 3.86,4.16 -19.37,0.79 -16.72,-0.67 -26.54,8.41 3.97,0.83 12.83,1.77 15.76,2.55l12.91 6.51z"/>
   <path class="fil28" d="M1365.04 2617.44l-10.83 2.08 0.39 -62.88 10.25 2.85c-5.35,-7.04 8.49,-6.31 -10.63,-5.87 -6.49,9.88 -5.83,58.21 0,69.03 20.73,1.42 4.85,1 10.81,-5.22z"/>
   <path class="fil36" d="M1326.92 2583.81c5.1,-14.79 -1.32,-17.74 -17.31,-17.16l2.36 19.17 14.94 -2.01z"/>
   <path class="fil37" d="M1492.12 2432.49c13.36,-0.05 17.8,-0.53 19.11,-12.58 -9.28,-7.42 -4.3,-5.52 -19.35,-5.13l0.24 17.71z"/>
   <path class="fil29" d="M1028.74 2439.81l0.17 10.58c5.28,1.23 25.15,10.8 16.42,-12 -14.19,-3.94 -12.01,-0.85 -16.59,1.42z"/>
   <path class="fil34" d="M1100.41 2834.65c11.85,-4.63 3.65,-3.9 12.08,-0.97 0.7,-0.33 8.08,-4.95 8.08,-4.95 4.82,-2.27 -0.41,-0.37 5.64,-1.8 15.84,-3.73 -8.9,3.46 9.42,-1.7 -7.33,-8.28 0.31,-1.44 -10.13,-5.32 -5.01,-1.86 -0.67,1.92 -8.57,-2.26 -5.92,4.04 -1.05,-1.5 -8.96,6.84 -5.07,5.34 -3.69,4.59 -7.54,10.15z"/>
   <path class="fil38" d="M1028.56 2422.18c1.85,3.93 -5.85,11.8 11.3,7.56 8.23,-2.04 5.85,-3.96 7.26,-12.03 -22.73,-10.46 -16.77,2.56 -18.57,4.48z"/>
   <path class="fil28" d="M1512.75 2596.13c16.66,-2.29 21.96,3.08 28.68,-8.24 -6.81,-11.48 -11.59,-5.52 -28.52,-8.86 -0.36,10.24 12.98,2.38 24.65,8.86l-10.67 3.49c-3.02,0.59 -6.85,-1.14 -14.14,4.75z"/>
   <path class="fil28" d="M1452.71 2603.41c-0.05,-14.28 3.1,-37.97 -3.29,-49.7 -20.28,-1.4 -4.54,-0.97 -11.03,3.93l10.13 -0.15c0.6,8.55 0.23,14.82 0.2,23.37 -0.01,1.91 -0.09,9.26 0.1,10.75l3.89 11.8z"/>
   <path class="fil39" d="M1278.04 2929.88c7.79,-5.63 3.19,7.12 7.1,-7.07 -1.05,-0.52 -4.4,-4.38 -4.74,-5.99 -0.48,-2.26 -0.9,-3.21 -1.83,-4.56 -14.15,6.29 -4.54,-3.03 -11.69,10.56l11.15 7.07z"/>
   <path class="fil40" d="M1175.49 2424.88l-7.46 -2.12 -5.72 18.32 12.11 -0.18c0.86,-2.21 1.58,-2.05 1.75,-6.77 0.01,-0.21 -0.65,-8.83 -0.68,-9.25z"/>
   <polygon class="fil38" points="1110.99,2427.98 1114.56,2418.16 1099.66,2414.59 1098.1,2430.83 "/>
   <path class="fil28" d="M1326.92 2583.81l-14.94 2.01 -2.36 -19.17c-3.42,4.76 -3.99,-7.13 -4.29,10.54 -0.15,8.9 0.76,5.45 3.08,10.71 5.1,1.16 5.16,7.6 18.52,-4.09z"/>
   <path class="fil19" d="M1417.61 2675.13c8.34,12.99 7.6,5.32 11.39,-1.26 -1.47,-5.87 0.53,-2.8 -2.29,-7 -3.55,-5.31 -2.15,-2.75 -5.8,-6.12l-3.3 14.39z"/>
   <path class="fil23" d="M1234.46 3016.08l-13.27 -15.69c-3.43,11.25 1.41,11.22 5.6,22.31l7.67 -6.62z"/>
   <path class="fil31" d="M1354.88 2453.06c-7.41,6.88 8.92,3.3 -14.37,5.01 -3.73,0.27 -12.67,-0.16 -16.16,0.06l-0.37 -51.21 -1.21 54.43 34.4 -1.5 -2.28 -6.8z"/>
   <path class="fil12" d="M1403.55 2596.78c-12.77,1.7 -2.38,2.62 -13.26,-1.83l4.79 14.93c13.64,-4.05 5.25,2 8.46,-13.11z"/>
   <path class="fil28" d="M1294.11 2617.45c5.29,6.21 -8.94,5.67 10.76,5.3 6.25,-9.44 3.04,-10.45 5.35,-23.46 -7.96,8.22 -5.16,5.04 -5.58,20.66l-10.53 -2.5z"/>
   <path class="fil39" d="M1128.08 2979.03l15.39 -5.99c-5.03,-3.99 8.07,-3.91 -11.36,-4.82 -4.27,5 -4.37,-6.22 -4.04,10.82z"/>
   <path class="fil28" d="M1191.85 2617.58l-11.06 2.21 -2.11 -22.81c-0.09,-1.21 -0.67,-1.49 -1.02,-2.22 -1.33,13.79 -3.58,18.09 3.82,28.12 19.63,0.01 4.49,0.83 10.38,-5.31z"/>
   <path class="fil41" d="M1110.99 2427.98l-12.89 2.85 1.56 -16.24c-6.08,6.66 -2.59,-2.3 -5.12,7.74 -0.83,3.28 -0.39,6.69 -0.37,10.01 4.52,0.5 3.94,2.11 9.55,0.34 7.61,-2.41 2.7,-0.55 7.27,-4.7z"/>
   <path class="fil39" d="M1156.26 2889.26l-14.39 -8.56c-0.99,-0.52 -5.07,-2.96 -6.05,-3.6l5.41 13.06 15.03 -0.9z"/>
   <path class="fil23" d="M1108.42 2922.73l-11.37 -9.7c-4.22,3.53 -7.49,-11.26 -1.49,4.77l5.18 10.94 7.68 -6.01z"/>
   <path class="fil42" d="M1097.05 2913.03c12.14,-5.3 4.08,-3.29 9.28,-5.54 4.35,-1.88 0.5,-1.47 8.81,-1.62 -3.2,-2.16 -1.88,-2 -7.82,-3.76 -4.19,-1.24 -2.29,-0.18 -8.67,-0.21l-1.61 11.13z"/>
   <path class="fil43" d="M1135.38 2989.09c-2.85,-3.37 -5.06,-6.72 -7.3,-10.06l-0.43 15.55c13.65,-2.25 4.32,0.44 7.73,-5.49z"/>
   <path class="fil35" d="M1429 2673.87c-3.78,6.58 -3.04,14.26 -11.39,1.26l-2.96 7.74 17.37 -0.16 -3.02 -8.84z"/>
   <path class="fil44" d="M1187.68 3276.5l10.12 0.47 -5.1 -8.53c-6.11,3.55 -4.19,-6.17 -5.02,8.06z"/>
   <path class="fil34" d="M1163.06 2927.89c8.53,-3.84 4.18,2.37 8.59,-9.78l-7.59 1.27 -1 8.51z"/>
   <path class="fil45" d="M1221.58 2453.36l-4.71 -9.03 10.05 5.04c-5.69,-6.93 8.45,-5.92 -10.69,-6.17 1.02,17.11 0.2,6.18 5.35,10.15z"/>
   <path class="fil23" d="M1191.96 2820.03c4.94,7.59 -0.25,4.86 10.34,6.79 -2.69,-9.91 9.81,-4.49 -10.34,-6.79z"/>
   <path class="fil46" d="M1189.04 2576.6l-9.41 -2.3 4.09 8.39c12.12,-1.17 1.17,0.67 5.32,-6.09z"/>
   <path class="fil47" d="M1560.23 1079.55c-9.91,-2.91 -7.22,-0.96 -12.45,-8.33l1.33 11.03 11.12 -2.7z"/>
   <path class="fil48" d="M1175.35 1437.44l6.97 4.64c-1.03,-12.8 1.16,-6.14 -4.68,-14.42 2.63,14.48 2.47,5.33 -2.29,9.79z"/>
   <path class="fil42" d="M1188.2 2981.14c5.95,5.42 -7.69,4.08 7.46,4.62 -0.23,-12.98 1.11,-2.9 -5.13,-6.9l-2.34 2.27z"/>
   <path class="fil49" d="M1184.2 2457.01c5.41,4.12 -8.69,4.59 11.65,4l-4.79 -6.4c-2.68,5.11 1.54,4.42 -6.85,2.41z"/>
   <path class="fil31" d="M1175.49 2424.88c-4.77,-16.98 -5.33,-6.2 -7.46,-2.12l7.46 2.12z"/>
   <path class="fil50" d="M1157.03 2456.77c-12.4,4.3 -4.48,3.15 -7.47,-3.22l-3.47 8.13c17.43,-1.11 6.43,-0.52 10.94,-4.91z"/>
   <path class="fil51" d="M957.88 1646.58l-4.5 -1.75 -4.94 5.84c18.88,1.93 1.95,1.44 9.44,-4.08z"/>
   <path class="fil52" d="M1114.12 2457.19c4.74,3.3 -4.88,3.77 11.46,3.82l-3.67 -8.12c-2.77,7.63 6.47,8.6 -7.79,4.3z"/>
   <path class="fil53" d="M1198.45 2844.65l-2.68 -1.9 -5.92 7.11c15.78,-0.97 2.62,1.29 8.61,-5.21z"/>
   <polygon class="fil49" points="1300.95,433.59 1308.63,434.07 1306.14,426.47 "/>
   <path class="fil54" d="M1413.69 793.17l8.52 4.29 -5.06 -10.39c3.72,10.61 2.9,3.3 -3.46,6.1z"/>
   <path class="fil55" d="M1138.67 2369.2l9.35 3.91 -5.45 -9.82c4.81,10.48 3.26,3.28 -3.9,5.91z"/>
   <polygon class="fil23" points="1047.58,3080.42 1037.25,3071.67 "/>
  </g>
 </g>
</svg>
