<?xml version="1.0" encoding="UTF-8"?>
<!DOCTYPE svg PUBLIC "-//W3C//DTD SVG 1.1//EN" "http://www.w3.org/Graphics/SVG/1.1/DTD/svg11.dtd">
<!-- Creator: CorelDRAW 2019 (64 Bit) -->
<svg xmlns="http://www.w3.org/2000/svg" xml:space="preserve" width="44.2448mm" height="62.0001mm" version="1.1" style="shape-rendering:geometricPrecision; text-rendering:geometricPrecision; image-rendering:optimizeQuality; fill-rule:evenodd; clip-rule:evenodd"
viewBox="0 0 635.95 891.15"
 xmlns:xlink="http://www.w3.org/1999/xlink">
 <defs>
  <style type="text/css">
   <![CDATA[
    .fil1 {fill:#EE4039}
    .fil2 {fill:white}
    .fil0 {fill:#ED3237;fill-rule:nonzero}
   ]]>
  </style>
 </defs>
 <g id="Camada_x0020_1">
  <metadata id="CorelCorpID_0Corel-Layer"/>
  <g id="_2645919186096">
   <path class="fil0" d="M322.4 7.35c35.91,59.69 79.24,107.61 130.58,144.84 51.36,37.24 110.78,63.82 178.85,80.81l4.11 1.02 -0.16 4.19c-0,0.02 -0,0.03 -0,0.04l0 0.01c-1.5,38.41 -4.91,75.73 -10.19,111.98 -5.28,36.19 -12.43,71.23 -21.43,105.14 -46.33,174.44 -141.64,318.47 -282.94,433.11l-3.27 2.65 -3.24 -2.65 -0.04 -0.03c-27.47,-22.29 -53.19,-45.69 -77.16,-70.2 -23.98,-24.53 -46.19,-50.17 -66.61,-76.93 -105.09,-137.68 -163,-305.06 -170.74,-503.15l-0.16 -4.17 4.09 -1.02c67.89,-17 127.21,-43.57 178.56,-80.81 51.33,-37.22 94.76,-85.15 130.89,-144.86l4.44 -7.33 4.42 7.35zm124.52 153.21c-50.37,-36.52 -93.17,-83.09 -128.95,-140.69 -35.97,57.59 -78.87,104.16 -129.25,140.69 -51.41,37.28 -110.55,64.07 -178.02,81.42 8.29,194.07 65.4,358.11 168.42,493.09 20.18,26.45 42.13,51.78 65.81,76 22.75,23.27 47.1,45.52 73.04,66.76 137.78,-112.81 230.82,-254.17 276.21,-425.07 8.89,-33.51 15.97,-68.16 21.19,-103.97 5.02,-34.46 8.33,-70.06 9.9,-106.81 -67.69,-17.36 -126.94,-44.15 -178.34,-81.42zm188.86 77.65l0 0c0,0.01 0,0.02 0,0.04l0 -0.04zm0 0c0.01,-0.22 0.03,-0.61 0,0l0 0zm-10.35 -0.3c0,-0 0,-0 0,-0 0,0 0,0 0,0zm0 -0c0,-0.02 0.01,-0.05 0.01,-0.1l-0.01 0.1zm0 0l0 0 0 0z"/>
   <polygon class="fil0" points="46.05,485.41 631.24,233.26 635.32,242.77 50.14,494.92 "/>
   <polygon class="fil0" points="94.17,608.81 609.88,388.84 613.92,398.35 98.21,618.31 "/>
   <path class="fil1" d="M114.21 605.49l57.58 -25.3 0 154.85c-20.28,-27.17 -39.59,-56.29 -57.58,-88.05l0 -41.5z"/>
   <path class="fil1" d="M231.16 554.89l57.58 -23.28 0 327.91c-20.64,-17.1 -40.03,-35.46 -57.58,-55.66l0 -248.97z"/>
   <path class="fil1" d="M346.32 505.3l59.38 -24.29 0 321.84c-18.94,20.95 -38.89,39.85 -59.38,57.69l0 -355.24z"/>
   <path class="fil1" d="M463.27 456.72l59.38 -26.31 0 213.55c-17.24,31.64 -37.47,61.79 -59.38,91.09l0 -278.32z"/>
   <polygon class="fil1" points="224.96,176.47 281.91,168.46 306.26,117.36 331.1,168.46 387.56,176.47 343.49,217.1 360.37,271.32 306.51,243.8 252.64,271.32 269.53,217.1 "/>
   <path class="fil1" d="M144.18 509.77l12.72 -5.41c7.64,-3.25 12.93,-7.23 15.84,-11.89 2.91,-4.66 3.14,-9.56 0.68,-14.66 -1.4,-2.9 -3.37,-4.61 -5.91,-5.11 -2.54,-0.5 -5.89,0.13 -10.04,1.89l-17.45 7.42 4.16 27.75zm-13.9 65.2l-12.33 -99.15 37.98 -16.15c9.28,-3.95 16.77,-5.39 22.43,-4.38 5.67,1.04 9.99,4.6 12.92,10.67 3.5,7.25 3.95,13.99 1.36,20.19 -2.59,6.22 -8.2,11.9 -16.8,17.03 5.72,-1.49 9.93,-1.66 12.61,-0.52 2.69,1.15 5.42,4.57 8.15,10.22 1.1,2.26 2.54,5.53 4.35,9.75 1.82,4.24 3.16,7.28 4.05,9.12 1.02,2.11 2.02,3.83 2.96,5.15 0.95,1.31 2,2.56 3.08,3.74l-20.15 8.57c-0.78,-0.65 -1.53,-1.44 -2.19,-2.38 -0.67,-0.94 -1.4,-2.25 -2.2,-3.89 -0.94,-1.95 -2.19,-4.98 -3.77,-9.03 -1.57,-4.08 -2.83,-7.14 -3.81,-9.17 -2.02,-4.19 -4.26,-6.66 -6.66,-7.41 -2.4,-0.75 -6.15,-0.04 -11.19,2.1l-14.91 6.34 5.63 40.07 -21.49 9.14zm93.24 -39.65l-2.29 -17.99 17.59 -7.48 1.88 18.16 -17.18 7.31zm56.69 -40.17l11.01 -4.68c8.78,-3.74 14.9,-8.03 18.35,-12.85 3.45,-4.84 3.94,-9.81 1.48,-14.9 -1.47,-3.05 -3.86,-4.74 -7.13,-5.07 -3.27,-0.34 -7.69,0.67 -13.21,3.02l-14.5 6.17 4 28.31zm-5.79 -42.92l8.41 -3.58c8.93,-3.8 15.01,-7.85 18.22,-12.15 3.22,-4.31 3.64,-8.93 1.28,-13.82 -1.32,-2.73 -3.28,-4.41 -5.86,-5 -2.59,-0.59 -5.76,-0.11 -9.46,1.47l-16.3 6.93 3.71 26.16zm-13.44 67.16l-12.47 -99.09 36.26 -15.42c9.28,-3.95 16.95,-5.44 22.98,-4.5 6.03,0.94 10.47,4.36 13.3,10.24 2.93,6.06 3.32,11.97 1.15,17.7 -2.17,5.72 -6.86,11.24 -14.05,16.52 6.56,-0.5 11.83,0.11 15.73,1.8 3.92,1.69 6.92,4.68 9,8.98 1.56,3.22 2.26,6.97 2.14,11.2 -0.13,4.25 -1.1,8.28 -2.89,12.06 -2.15,4.49 -5.3,8.45 -9.41,11.81 -4.11,3.37 -9.76,6.6 -16.91,9.64l-44.83 19.06zm90.71 -38.58l-2.29 -17.99 17.58 -7.48 1.89 18.16 -17.19 7.31zm37.46 -15.93l-13.46 -98.67 63.86 -27.16 2.01 15.42 -42.64 18.13 3.49 25.06 41.23 -17.53 2.14 15.15 -41.44 17.62 6.32 42.83 -21.51 9.14zm59.69 -25.38l-2.29 -17.99 17.59 -7.48 1.89 18.16 -17.18 7.31zm112.82 -80.02c1.81,10.27 0.24,19.42 -4.74,27.42 -4.97,8.01 -13.05,14.4 -24.24,19.15 -11.58,4.92 -21.76,6.13 -30.52,3.6 -8.79,-2.51 -15.5,-8.57 -20.13,-18.14 -3.7,-7.67 -5.92,-16.22 -6.67,-25.62 -0.74,-9.4 0.16,-18.2 2.66,-26.34 2.28,-7.52 5.9,-13.88 10.88,-19.09 4.97,-5.2 11.54,-9.56 19.71,-13.04 11.08,-4.71 20.49,-6.13 28.18,-4.26 7.71,1.86 13.59,6.99 17.63,15.36 0.24,0.5 0.5,1.09 0.77,1.69 0.27,0.6 0.65,1.61 1.13,2.95l-20.19 8.66c-0.23,-0.92 -0.52,-1.87 -0.86,-2.8 -0.36,-0.94 -0.76,-1.92 -1.23,-2.88 -1.95,-4.03 -4.52,-6.63 -7.68,-7.8 -3.18,-1.17 -6.93,-0.86 -11.16,0.94 -4.5,1.92 -8.29,5.03 -11.34,9.32 -3.07,4.3 -5.18,9.49 -6.3,15.53 -1.22,6.35 -1.45,13.11 -0.64,20.23 0.8,7.12 2.43,13.22 4.89,18.31 2.61,5.41 6.21,8.96 10.74,10.65 4.53,1.68 9.55,1.38 15.02,-0.95 4.77,-2.03 8.34,-5.11 10.66,-9.2 2.33,-4.1 3.33,-9.12 3,-15l20.43 -8.69zm20.66 23.26l-2.29 -17.99 17.6 -7.47 1.88 18.16 -17.18 7.31z"/>
  </g>
  <path class="fil2" d="M50.56 483.47l565.86 -243.82c-64.02,-17.39 -120.35,-43.45 -169.49,-79.09 -50.37,-36.52 -93.17,-83.09 -128.95,-140.69 -72.89,116.69 -174.09,187.86 -307.27,222.11 3.68,86.15 16.99,166.65 39.86,241.49zm202.08 -212.15l16.89 -54.22 -44.57 -40.63 56.95 -8.01 24.35 -51.1 24.84 51.1 56.46 8.01 -44.06 40.63 16.88 54.22 -53.87 -27.52 -53.87 27.52z"/>
  <path class="fil2" d="M130.29 574.98l-12.33 -99.15 37.98 -16.15c9.28,-3.95 16.77,-5.39 22.43,-4.38 5.67,1.04 9.99,4.6 12.92,10.67 3.5,7.25 3.95,13.99 1.36,20.19 -2.59,6.22 -8.2,11.9 -16.8,17.03 5.72,-1.49 9.93,-1.66 12.61,-0.52 2.69,1.15 5.42,4.57 8.15,10.22 1.1,2.26 2.54,5.53 4.35,9.75 1.82,4.24 3.16,7.28 4.05,9.12 1.02,2.11 2.02,3.83 2.96,5.15 0.95,1.31 2,2.56 3.08,3.74l-20.15 8.57c-0.78,-0.65 -1.53,-1.44 -2.19,-2.38 -0.67,-0.94 -1.4,-2.25 -2.2,-3.89 -0.94,-1.95 -2.19,-4.98 -3.77,-9.03 -1.57,-4.08 -2.83,-7.14 -3.81,-9.17 -2.02,-4.19 -4.26,-6.66 -6.66,-7.41 -2.4,-0.75 -6.15,-0.04 -11.19,2.1l-14.91 6.34 5.63 40.07 -21.49 9.14zm130.7 -55.57l-12.47 -99.09 36.26 -15.42c9.28,-3.95 16.95,-5.44 22.98,-4.5 6.03,0.94 10.47,4.36 13.3,10.24 2.93,6.06 3.32,11.97 1.15,17.7 -2.17,5.72 -6.86,11.24 -14.05,16.52 6.56,-0.5 11.83,0.11 15.73,1.8 3.92,1.69 6.92,4.68 9,8.98 1.56,3.22 2.26,6.97 2.14,11.2 -0.13,4.25 -1.1,8.28 -2.89,12.06 -2.15,4.49 -5.3,8.45 -9.41,11.81 -4.11,3.37 -9.76,6.6 -16.91,9.64l-44.83 19.06zm364.04 -272.2l-571.36 246.2c12.55,39.32 27.77,77.06 45.66,113.22l509.23 -217.2c8.73,-45.99 14.17,-93.44 16.47,-142.21zm-401.5 288.13l-2.29 -17.99 17.59 -7.48 1.88 18.16 -17.18 7.31zm128.17 -54.5l-2.29 -17.99 17.58 -7.48 1.89 18.16 -17.19 7.31zm37.46 -15.93l-13.46 -98.67 63.86 -27.16 2.01 15.42 -42.64 18.13 3.49 25.06 41.23 -17.53 2.14 15.15 -41.44 17.62 6.32 42.83 -21.51 9.14zm59.69 -25.38l-2.29 -17.99 17.59 -7.48 1.89 18.16 -17.18 7.31zm53.32 -29.85c-8.79,-2.51 -15.5,-8.57 -20.13,-18.14 -3.7,-7.67 -5.92,-16.22 -6.67,-25.62 -0.74,-9.4 0.16,-18.2 2.66,-26.34 2.28,-7.52 5.9,-13.88 10.88,-19.09 4.97,-5.2 11.54,-9.56 19.71,-13.04 11.08,-4.71 20.49,-6.13 28.18,-4.26 7.71,1.86 13.59,6.99 17.63,15.36 0.24,0.5 0.5,1.09 0.77,1.69 0.27,0.6 0.65,1.61 1.13,2.95l-20.19 8.66c-0.23,-0.92 -0.52,-1.87 -0.86,-2.8 -0.36,-0.94 -0.76,-1.92 -1.23,-2.88 -1.95,-4.03 -4.52,-6.63 -7.68,-7.8 -3.18,-1.17 -6.93,-0.86 -11.16,0.94 -4.5,1.92 -8.29,5.03 -11.34,9.32 -3.07,4.3 -5.18,9.49 -6.3,15.53 -1.22,6.35 -1.45,13.11 -0.64,20.23 0.8,7.12 2.43,13.22 4.89,18.31 2.61,5.41 6.21,8.96 10.74,10.65 4.53,1.68 9.55,1.38 15.02,-0.95 4.77,-2.03 8.34,-5.11 10.66,-9.2 2.33,-4.1 3.33,-9.12 3,-15l20.43 -8.69c1.81,10.27 0.24,19.42 -4.74,27.42 -4.97,8.01 -13.05,14.4 -24.24,19.15 -11.58,4.92 -21.76,6.13 -30.52,3.6zm80.16 -26.91l-2.29 -17.99 17.6 -7.47 1.88 18.16 -17.18 7.31z"/>
  <path class="fil2" d="M171.79 586.93l0 138.38c18.26,24.7 38.05,48.49 59.38,71.35l0 -235.06 -59.38 25.33z"/>
  <path class="fil2" d="M288.74 537.05l0 315.83c9.5,8.46 19.24,16.78 29.23,24.95 9.7,-7.94 19.15,-16 28.35,-24.18l0 -341.16 -57.58 24.56z"/>
  <path class="fil2" d="M405.7 487.16l0 308.51c20.75,-22.32 39.93,-45.38 57.58,-69.16l0 -263.91 -57.58 24.56z"/>
  <path class="fil2" d="M522.65 437.28l0 196.29c39.22,-72.12 66.72,-149.65 83.49,-231.9l-83.49 35.61z"/>
  <path class="fil2" d="M114.21 635.23l0 -23.74 -10.24 4.37c3.33,6.51 6.74,12.96 10.24,19.37z"/>
  <path class="fil2" d="M156.9 504.36c7.64,-3.25 12.93,-7.23 15.84,-11.89 2.91,-4.66 3.14,-9.56 0.68,-14.66 -1.4,-2.9 -3.37,-4.61 -5.91,-5.11 -2.54,-0.5 -5.89,0.13 -10.04,1.89l-17.45 7.42 4.16 27.75 12.72 -5.41z"/>
  <path class="fil2" d="M270.71 426.08l3.71 26.16 8.41 -3.58c8.93,-3.8 15.01,-7.85 18.22,-12.15 3.22,-4.31 3.64,-8.93 1.28,-13.82 -1.32,-2.73 -3.28,-4.41 -5.86,-5 -2.59,-0.59 -5.76,-0.11 -9.46,1.47l-16.3 6.93z"/>
  <path class="fil2" d="M290.71 460.68l-14.5 6.17 4 28.31 11.01 -4.68c8.78,-3.74 14.9,-8.03 18.35,-12.85 3.45,-4.84 3.94,-9.81 1.48,-14.9 -1.47,-3.05 -3.86,-4.74 -7.13,-5.07 -3.27,-0.34 -7.69,0.67 -13.21,3.02z"/>
 </g>
</svg>
