<?xml version="1.0" encoding="UTF-8"?>
<!DOCTYPE svg PUBLIC "-//W3C//DTD SVG 1.1//EN" "http://www.w3.org/Graphics/SVG/1.1/DTD/svg11.dtd">
<!-- Creator: CorelDRAW 2020 (64 Bit) -->
<svg xmlns="http://www.w3.org/2000/svg" xml:space="preserve" width="146.27mm" height="178.246mm" version="1.1" style="shape-rendering:geometricPrecision; text-rendering:geometricPrecision; image-rendering:optimizeQuality; fill-rule:evenodd; clip-rule:evenodd"
viewBox="0 0 4302.72 5243.33"
 xmlns:xlink="http://www.w3.org/1999/xlink"
 xmlns:xodm="http://www.corel.com/coreldraw/odm/2003">
 <defs>
  <style type="text/css">
   <![CDATA[
    .fil0 {fill:#FEFEFE}
    .fil1 {fill:#ED3237}
    .fil3 {fill:#FEFEFE;fill-rule:nonzero}
    .fil2 {fill:#ED3237;fill-rule:nonzero}
   ]]>
  </style>
 </defs>
 <g id="Camada_x0020_1">
  <metadata id="CorelCorpID_0Corel-Layer"/>
  <g id="_1928944850848">
   <g>
    <g>
     <path class="fil0" d="M2149.26 5076.43c-860.01,-605.16 -1880.62,-1010.76 -2003.58,-1818.69 -71.94,-649.21 306.1,-1214.87 332.2,-1705.84 3.71,-426.26 -454.75,-948.05 -183.52,-1254.71 368.87,-306.48 907.05,372.3 1860.1,-141.9 951.96,516.21 1491.57,-161.43 1859.8,145.83 270.59,307.23 -188.98,828.05 -186.17,1254.32 25.05,491.03 401.9,1057.47 328.59,1706.54 -124.67,807.68 -1146.13,1211.11 -2007.42,1814.45z"/>
     <path class="fil1" d="M3964.67 1551.61c13.22,243.38 122.72,524.26 195.05,757.35 98.82,318.38 170.62,632.44 132.69,968.35l-0.31 2.76 -0.43 2.75c-15.53,100.58 -43.89,198.12 -84.27,291.53 -161.87,374.43 -503.72,651.9 -832.12,876.89 -375.03,256.95 -774.8,475.87 -1147.66,737.07l-78.54 55.02 -78.42 -55.19c-372.31,-261.99 -771.62,-481.75 -1146.1,-739.49 -327.93,-225.68 -669.19,-503.88 -830.27,-878.65 -40.18,-93.49 -68.34,-191.09 -83.65,-291.71l-0.42 -2.74 -0.3 -2.77c-37.22,-335.99 35.25,-649.89 134.74,-968.07 72.82,-232.94 182.91,-513.58 196.65,-756.94 0.32,-137.18 -60.07,-296.9 -108.59,-423.57 -108.28,-282.71 -276.32,-651.07 -40.68,-917.52l6.96 -7.85 8.07 -6.7c54.73,-45.47 116.41,-78.13 185.19,-96.54 121.8,-32.62 247.39,-15.96 368.6,10.04 125.4,26.92 247.93,62.65 374.45,85.66 349.1,63.52 640.66,13 954.29,-156.21l65.03 -35.08 64.95 35.22c313.27,169.88 604.73,221.01 953.96,158.23 126.57,-22.74 249.18,-58.21 374.63,-84.87 121.26,-25.75 246.89,-42.15 368.62,-9.27 68.73,18.56 130.35,51.35 184.98,96.94l8.05 6.72 6.95 7.87c45.03,51.15 78.06,109.81 97.72,175.08 72.29,239.97 -54.76,520.32 -140.34,742.35 -48.79,126.57 -109.52,286.16 -109.48,423.34zm-2196.72 3121.72l2087.97 -1011.87c-161.77,231.01 -407.56,418.97 -630.2,571.51 -351.16,240.59 -723.86,447.92 -1076.3,687.81 -125.21,-85.61 -253,-167.11 -381.47,-247.45zm-1495.33 -1432.3c9.69,62.45 25.73,123.3 47.81,182.29l611.54 -296.36c-122.16,-169.63 -209.85,-365.72 -252.76,-578.03l-374.81 181.64c-34.42,167.09 -50.69,336.58 -31.77,510.46zm3324.56 -1405.69l130.23 -63.11c-13.88,-70.43 -23.62,-140.72 -27.17,-210.27l-0.14 -2.84 -0.02 -2.84c-1.18,-178.13 63.82,-358.85 127.17,-523.18 1.51,-3.91 3.08,-7.94 4.68,-12.05l-532.43 258.02c135.62,160.16 238.36,349.03 297.68,556.26zm-2950.45 2055.33c133.27,129.22 285.3,241.91 427.85,340.02 43.81,30.15 87.95,59.78 132.35,89.02l1223.65 -593c-90.72,16.99 -184.27,25.94 -279.94,25.84 -283.29,-0.3 -548.18,-78.99 -774.19,-215.51l-729.72 353.64zm2491.7 -507l893.1 -432.81c-17.31,-190.96 -66.91,-377.87 -124.52,-563.48 -6.83,-22 -13.87,-44.18 -21.04,-66.5l-242.69 117.61c-47.12,375.93 -233.06,708.61 -504.85,945.18zm747.85 -3014.45c-12.14,-5.97 -24.91,-10.8 -38.5,-14.47 -74.94,-20.25 -170.21,-3.16 -244.63,12.65 -128.31,27.25 -253.14,63.17 -382.8,86.48 -299.95,53.91 -569.65,35.35 -836.77,-56.94l-1818.68 881.36c25.04,90.55 41.78,183 40.98,274.71l-0.03 2.84 -0.15 2.84c-7.76,145.98 -42.77,295.13 -86.18,442.13l166.2 -80.54c150.33,-672.15 750.72,-1174.17 1468.1,-1173.42 232.37,0.25 452.36,53.22 648.66,147.6l1083.81 -525.23zm-2874.68 67.11c-102.72,-22.25 -203.37,-49.9 -306.27,-71.99 -74.39,-15.96 -169.62,-33.25 -244.61,-13.16 -28.61,7.66 -53.62,20.47 -76.77,38.25 -16.71,20.61 -29,43.27 -36.81,68.99 -22.89,75.43 -3.89,181.39 27.75,286.48l636.72 -308.57zm1137.66 4640.1c-860.01,-605.16 -1880.62,-1010.76 -2003.58,-1818.69 -71.94,-649.21 306.1,-1214.87 332.2,-1705.84 3.71,-426.26 -454.75,-948.05 -183.52,-1254.71 368.87,-306.48 907.05,372.3 1860.1,-141.9 951.96,516.21 1491.57,-161.43 1859.8,145.83 270.59,307.23 -188.98,828.05 -186.17,1254.32 25.05,491.03 401.9,1057.47 328.59,1706.54 -124.67,807.68 -1146.13,1211.11 -2007.42,1814.45z"/>
    </g>
    <path class="fil2" d="M2237.99 1373.87c11.92,-6.94 23.51,-13.81 35.31,-20.51 2.39,14.04 6.78,23.09 13.28,27.14 6.55,4.08 15.33,3.53 26.23,-1.42 11.69,-5.3 20.27,-12.43 26.12,-21.3 5.85,-8.87 8.7,-17.52 8.63,-25.88 -0.04,-5.44 -1.36,-9.47 -3.86,-12.15 -2.49,-2.68 -6.93,-3.87 -13.05,-3.87 -4.2,0 -13.97,1.04 -29.07,3.08 -19.3,2.61 -33.08,1.16 -40.88,-4.26 -11.16,-7.76 -16.64,-20.59 -16.92,-38.74 -0.18,-11.68 2.32,-23.81 7.38,-36.29 5.04,-12.45 12.37,-23.52 21.92,-33.14 9.64,-9.71 21.46,-17.52 35.08,-23.59 22.36,-9.95 39.27,-11.02 50.76,-3.32 11.34,7.6 17.71,21.69 18.51,42.52 -12.04,5.92 -24.3,11.83 -36.34,17.67 -1.59,-11.12 -4.98,-18.01 -10.11,-20.9 -5.09,-2.87 -12.59,-2.01 -22.82,2.52 -10.43,4.62 -18.59,10.99 -24.42,19.09 -3.82,5.31 -5.62,10.89 -5.56,16.8 0.05,5.44 1.93,9.16 5.68,11.44 4.54,2.76 15.79,3.1 33.27,0.55 17.6,-2.57 30.66,-3.01 39.06,-1.18 8.63,1.88 15.05,6.66 20.1,14.36 4.94,7.52 7.54,18.39 7.72,32.66 0.16,12.94 -2.62,26.5 -8.17,40.47 -5.58,14.04 -13.61,25.94 -24.07,36.21 -10.43,10.24 -23.29,19 -38.84,26.11 -22.72,10.4 -40.06,11.88 -52.58,4.1 -12.24,-7.61 -19.64,-23.75 -22.37,-48.2zm-153.41 29.98c0.23,26.27 5.19,43.91 14.76,53.09 9.5,9.11 21.42,10.17 35.99,3.39 14.61,-6.79 26.45,-19.02 35.54,-36.6 4.53,-8.76 8.05,-18.78 10.22,-29.9 2.15,-11.04 3.18,-23.27 3.07,-36.52 -0.22,-26.43 -4.98,-44.05 -14.19,-52.94 -9.18,-8.85 -21.24,-9.95 -36.11,-3.08 -14.99,6.93 -27.1,19.04 -36.11,36.45 -9.03,17.46 -13.4,39.45 -13.17,66.11zm-37.47 19.01c-0.19,-23.58 2.39,-44.81 7.72,-63.43 4.09,-13.65 9.5,-27.01 16.46,-39.61 6.99,-12.65 14.7,-23.15 23.17,-31.56 11.06,-10.99 23.95,-20.05 38.49,-26.66 26.56,-12.08 47.72,-11.15 63.82,2.76 8.09,6.99 14.27,16.94 18.28,29.67 4.05,12.83 6.3,28.48 6.47,47.26 0.17,18.46 -1.65,35.96 -5.34,52.23 -3.69,16.32 -9.49,31.59 -17.26,45.68 -15.62,28.35 -36.7,48.71 -63.02,61.06 -26.82,12.58 -48.24,12.13 -64.15,-1.34 -8.04,-6.8 -14.23,-16.56 -18.28,-29.11 -4.12,-12.77 -6.21,-28.4 -6.36,-46.94zm-170.33 197.15c-0.23,-39.13 -0.4,-78.26 -0.68,-117.47 -0.28,-39.13 -0.57,-78.26 -0.79,-117.47 11.58,-5.44 23.39,-10.88 35.2,-16.64 12.38,20.43 24.98,40.94 37.47,61.22 12.49,20.27 25.21,40.47 37.7,60.59 -0.11,-25.95 -0.34,-51.99 -0.57,-78.02 -0.22,-25.96 -0.46,-51.99 -0.68,-78.11 11.13,-5.29 22.48,-10.49 33.61,-15.54 0.34,38.74 0.69,77.47 1.02,116.21 0.34,38.74 0.57,77.4 1.02,116.13 -12.26,5.84 -24.41,11.68 -36.45,17.36 -12.49,-19.57 -24.92,-39.26 -37.24,-59.17 -12.2,-19.69 -24.53,-39.53 -36.91,-59.57 0.23,25.8 0.34,51.37 0.57,77.08 0.23,25.64 0.34,51.36 0.46,77 -11.24,5.45 -22.48,10.89 -33.72,16.41zm-83.92 -52.93c-4.31,-12.47 -8.66,-25.05 -12.83,-37.56 -4.22,-12.65 -8.63,-25.16 -12.72,-37.79 -4.2,16.72 -8.22,33.23 -12.15,49.78 -3.91,16.51 -7.83,33.21 -11.81,49.7 16.35,-8.05 32.93,-16.09 49.51,-24.14zm67.22 60.98c-13.06,6.39 -26.12,12.78 -39.18,19.25 -5.45,-15.31 -10.79,-30.61 -16.12,-46.15 -23.96,11.83 -48.14,23.67 -72.33,35.5 -5,20.67 -9.77,40.94 -14.65,61.53 -12.95,6.4 -25.89,12.78 -38.72,19.25 11.47,-45.44 22.92,-90.92 34.29,-136.17 11.34,-45.16 23.17,-90.41 34.63,-135.77 12.83,-6 25.66,-12.31 38.61,-18.22 12.04,33.69 24.31,67.1 36.56,100.74 12.16,33.41 24.64,66.74 36.91,100.04zm-299.55 -54.44c-4.16,1.98 -7.8,5.7 -11.01,10.89 -3.14,5.07 -5.73,12.78 -7.49,22.8 -2.32,13.16 -3.46,33.84 -3.41,62.09 0.05,28.32 1.2,47.16 3.41,56.64 2.22,9.53 4.9,15.12 8.06,17.04 3.2,1.94 6.83,1.99 11.01,-0.16 4.1,-2.1 7.72,-5.83 10.9,-11.04 3.18,-5.2 5.87,-12.69 7.61,-22.8 2.23,-12.93 3.24,-33.53 3.18,-61.85 -0.05,-28.08 -1.12,-46.95 -3.29,-56.49 -2.14,-9.39 -4.89,-15.15 -8.07,-17.12 -3.17,-1.97 -6.77,-1.97 -10.9,0zm-0.11 -38.26c17.36,-8.52 31.11,-6.94 41.11,4.81 5.9,6.94 10.21,17.93 13.17,32.82 2.94,14.78 4.66,33.46 4.77,56.09 0.11,22.64 -1.47,42.98 -4.31,60.75 -2.83,17.65 -7.22,33.11 -13.06,45.92 -9.72,21.34 -23.49,36.49 -40.88,45.28 -17.69,8.95 -31.91,7.1 -42.81,-5.37 -5.44,-6.23 -9.42,-16.81 -12.15,-31.56 -2.72,-14.75 -4.04,-33.61 -4.09,-56.8 -0.06,-22.64 1.24,-43.08 4.09,-60.91 2.82,-17.67 7.27,-33.27 13.17,-46.15 9.76,-21.28 23.5,-36.3 40.99,-44.89zm-137.62 106.74c-4.23,2.14 -7.69,5.86 -10.9,11.12 -3.15,5.15 -5.77,12.87 -7.49,23.04 -2.25,13.33 -3.52,34.16 -3.52,62.64 0,28.56 1.19,47.67 3.29,57.2 2.1,9.56 4.77,15.31 8.06,17.28 3.18,1.9 6.81,1.79 10.9,-0.31 4.19,-2.15 7.9,-5.88 11.13,-11.2 3.13,-5.17 5.56,-12.86 7.38,-22.96 2.38,-13.18 3.58,-33.93 3.52,-62.48 -0.05,-28.4 -1.19,-47.4 -3.29,-56.96 -2.09,-9.53 -4.82,-15.46 -7.95,-17.36 -3.23,-1.96 -6.96,-2.11 -11.13,0zm0 -38.58c17.46,-8.72 31.24,-7.18 41.22,4.73 5.8,6.93 10.28,17.9 13.17,32.9 2.9,15.06 4.49,33.85 4.54,56.72 0.06,22.88 -1.48,43.47 -4.31,61.3 -2.84,17.91 -7.28,33.45 -13.17,46.47 -9.78,21.61 -23.52,36.82 -41.11,45.92 -17.5,9.05 -31.66,7.31 -42.47,-5.29 -5.43,-6.33 -9.69,-16.8 -12.38,-31.79 -2.65,-14.83 -4.09,-33.93 -4.09,-57.28 0,-22.88 1.47,-43.47 4.32,-61.46 2.83,-17.91 7.5,-33.61 13.29,-46.62 9.88,-21.54 23.37,-36.81 40.99,-45.6zm-87.43 292.37c-11.58,6 -23.17,12.07 -34.63,18.15 -0.11,-29.43 -0.11,-58.86 -0.11,-88.36 0,-29.43 0,-58.93 0,-88.36 -12.72,22.49 -27.59,42.05 -44.62,58.54 0,-14.2 0,-28.48 0,-42.76 8.85,-8.45 18.69,-21.1 29.29,-37.71 10.63,-16.67 17.83,-33.37 21.69,-50.18 9.43,-4.66 18.74,-9.47 28.28,-14.28 0,40.87 -0.06,81.74 0,122.44 0.05,40.94 0.11,81.65 0.11,122.52z"/>
    <path class="fil2" d="M1963.89 3313.03c-12.28,5.89 -24.43,11.69 -36.58,17.49 0,-29.96 0,-59.84 0,-89.71 0,-29.88 0,-59.83 0,-89.71 -13.43,22.69 -29.16,42.26 -47.32,58.71 0,-14.37 0,-28.75 0,-43.21 9.46,-8.57 19.95,-21.31 31.08,-37.93 11.25,-16.8 18.93,-33.6 23.15,-50.74 9.85,-4.76 19.7,-9.44 29.68,-14.2 0,41.57 0,83.13 0,124.69 0,41.48 0,83.04 0,124.61zm1021.43 -550.82c11.77,-7.45 23.66,-14.98 35.56,-22.51 1.15,11.17 4.26,18.68 9.21,22.6 4.87,3.85 10.88,4.14 17.91,0.78 7.41,-3.54 13.79,-10.42 18.93,-20.35 5.07,-9.8 7.8,-21.13 7.8,-33.86 0,-11.95 -2.42,-20.39 -7.42,-24.94 -4.95,-4.52 -11,-5.15 -18.16,-1.73 -4.58,2.19 -10.23,6.06 -16.75,11.52 1.28,-13.42 2.68,-26.93 4.09,-40.44 9.85,-4.42 17.4,-10.92 22.64,-19.31 5.24,-8.4 7.8,-17.49 7.8,-27.36 0,-8.4 -1.91,-14.15 -5.76,-17.32 -3.81,-3.13 -8.95,-3.08 -15.22,-0.09 -6.37,3.04 -11.69,8.39 -16.11,16.11 -4.51,7.85 -7.17,17.4 -8.06,28.66 -11.26,2.94 -22.51,5.8 -33.77,8.75 2.43,-16.28 5.97,-30.03 10.75,-41.39 4.67,-11.13 11.28,-21.47 19.82,-30.74 8.45,-9.15 17.91,-16.39 28.52,-21.47 17.89,-8.57 32.36,-7.95 43.23,1.73 8.94,7.96 13.56,19.57 13.56,35.07 0,21.74 -9.21,43.64 -27.63,65.46 11,-2.25 19.63,0.51 26.22,7.97 6.57,7.42 9.98,18.62 9.98,33.6 0,21.74 -6.23,43.34 -18.42,64.51 -12.22,21.23 -27.53,36.08 -45.79,44.85 -17.4,8.35 -31.71,8.79 -43.1,1.3 -11.35,-7.47 -17.91,-21.22 -19.82,-41.39zm-36.32 90.14c-12.28,5.89 -24.43,11.69 -36.58,17.49 0,-29.96 0,-59.84 0,-89.71 0,-29.96 0,-59.83 0,-89.79 -13.43,22.77 -29.16,42.34 -47.45,58.88 0,-14.46 0,-28.83 0,-43.3 9.59,-8.57 20.05,-21.34 31.21,-38.01 11.2,-16.73 18.93,-33.6 23.15,-50.74 9.85,-4.68 19.7,-9.44 29.67,-14.21 0,41.65 0,83.13 0,124.7 0,41.57 0,83.13 0,124.69zm-148.43 -94.34c0,-15.24 -2.77,-25.83 -8.19,-31.61 -5.43,-5.81 -11.63,-7.05 -18.8,-3.64 -6.75,3.23 -12.42,9.27 -16.88,18.36 -4.47,9.08 -6.65,21.48 -6.65,37.15 0,16.02 2.42,26.53 7.29,31.69 4.83,5.12 10.89,6.06 18.29,2.52 7.02,-3.36 12.98,-9.77 17.78,-19.31 4.77,-9.49 7.16,-21.22 7.16,-35.16zm-82.62 143.57c11.77,-7.36 23.66,-14.72 35.56,-22.08 0.9,9 3.14,14.81 6.78,17.58 3.64,2.77 8.47,2.79 14.33,0 7.55,-3.59 13.97,-11.26 19.19,-22.77 5.25,-11.59 8.57,-32.04 9.98,-61.13 -9.21,18.27 -20.71,30.71 -34.53,37.32 -14.93,7.14 -28.07,5.94 -39.01,-3.89 -10.91,-9.8 -16.24,-26.85 -16.24,-51 0,-25.2 5.78,-48.15 17.26,-69.01 11.52,-20.94 26.25,-35.66 44,-44.16 19.44,-9.31 35.49,-7.22 47.84,6.32 6.18,6.78 10.87,17.51 13.94,32.04 3.05,14.45 4.73,32.91 4.73,55.25 0,22.69 -1.8,43.05 -4.99,60.96 -3.19,17.91 -8.07,33.43 -14.45,46.5 -12.9,26.4 -29.68,44.34 -50.52,54.29 -14.83,7.09 -27.02,7.9 -36.2,1.91 -9.09,-5.93 -15.09,-18.71 -17.65,-38.1zm-53.21 83.04c-12.28,5.89 -24.56,11.78 -36.71,17.58 0,-29.96 0,-59.84 0,-89.71 0,-29.96 0,-59.84 0,-89.8 -13.3,22.69 -29.16,42.35 -47.32,58.8 0,-14.38 0,-28.84 0,-43.3 9.59,-8.57 19.99,-21.21 31.21,-37.93 11.27,-16.78 18.93,-33.6 23.02,-50.74 9.85,-4.68 19.83,-9.44 29.8,-14.2 0,83.06 0,166.16 0,249.3zm-139.8 63.66c0,-15.85 0,-31.69 0,-47.45 12.15,-5.89 24.3,-11.69 36.58,-17.58 0,15.85 0,31.61 0,47.45 -12.28,5.89 -24.43,11.69 -36.58,17.58zm-91.33 -166.17c-4.35,2.08 -8.34,5.87 -11.77,11.17 -3.35,5.18 -6.02,13.08 -7.93,23.56 -2.44,13.41 -3.71,34.81 -3.71,63.99 0,29.18 1.11,48.73 3.33,58.45 2.25,9.85 5,15.82 8.44,17.84 3.34,1.97 7.29,1.9 11.64,-0.17 4.34,-2.08 8.27,-5.83 11.64,-11.08 3.41,-5.31 6.03,-13.18 7.93,-23.55 2.45,-13.35 3.84,-34.72 3.84,-63.9 0,-29.18 -1.08,-48.6 -3.32,-58.45 -2.23,-9.8 -5.1,-15.87 -8.44,-17.84 -3.44,-2.02 -7.3,-2.08 -11.64,0zm0 -39.49c18.56,-8.88 33.04,-7.22 43.49,5.02 6.18,7.24 10.86,18.45 13.94,33.86 3.06,15.33 4.73,34.81 4.73,58.36 0,23.55 -1.66,44.51 -4.73,62.86 -3.07,18.36 -7.78,34.22 -14.07,47.54 -10.34,21.92 -24.84,37.19 -43.36,46.07 -18.69,8.96 -33.67,6.86 -45.15,-6.15 -5.78,-6.55 -9.98,-17.49 -12.79,-32.64 -2.82,-15.24 -4.22,-34.81 -4.22,-58.63 0,-23.38 1.54,-44.33 4.61,-62.6 3.07,-18.27 7.93,-34.21 14.2,-47.45 10.36,-21.9 24.83,-37.37 43.36,-46.24zm-114.09 303.94c-12.28,5.89 -24.56,11.78 -36.71,17.58 0,-29.96 0,-59.83 0,-89.71 0,-29.88 0,-59.83 0,-89.71 -13.3,22.6 -29.03,42.17 -47.32,58.71 0,-14.46 0,-28.83 0,-43.29 9.59,-8.57 19.97,-21.21 31.21,-37.93 11.27,-16.78 18.93,-33.6 23.02,-50.74 9.85,-4.67 19.82,-9.44 29.8,-14.2 0,41.56 0,83.13 0,124.69 0,41.48 0,83.04 0,124.61zm-157.45 75.34c0,-15.85 0,-31.61 0,-47.45 12.15,-5.8 24.3,-11.6 36.59,-17.49 0,15.84 0,31.6 0,47.45 -12.28,5.89 -24.43,11.69 -36.59,17.49zm-154.64 8.31c11.77,-7.54 23.66,-15.07 35.56,-22.69 1.15,11.25 4.24,18.76 9.21,22.69 4.88,3.86 10.89,4.11 17.91,0.78 7.57,-3.59 13.82,-10.39 18.93,-20.26 5.12,-9.87 7.8,-21.22 7.8,-33.94 0,-11.95 -2.47,-20.31 -7.42,-24.85 -5.03,-4.63 -11.01,-5.29 -18.16,-1.82 -4.61,2.24 -10.23,6.15 -16.76,11.6 1.28,-13.42 2.69,-27.02 4.09,-40.52 9.85,-4.33 17.4,-10.83 22.64,-19.23 5.24,-8.4 7.8,-17.58 7.8,-27.45 0,-8.31 -1.92,-14.11 -5.76,-17.23 -3.84,-3.12 -8.94,-3.17 -15.22,-0.17 -6.38,3.06 -11.66,8.39 -16.11,16.19 -4.49,7.87 -7.16,17.31 -8.06,28.57 -11.25,3.03 -22.51,5.89 -33.77,8.75 2.43,-16.28 5.92,-29.95 10.74,-41.31 4.77,-11.24 11.27,-21.55 19.83,-30.83 8.45,-9.17 17.9,-16.38 28.52,-21.48 17.9,-8.58 32.36,-7.96 43.23,1.73 8.95,7.97 13.56,19.57 13.56,35.07 0,21.74 -9.21,43.64 -27.63,65.47 11,-2.25 19.73,0.4 26.35,7.88 6.55,7.41 9.85,18.7 9.85,33.68 0,21.74 -6.22,43.32 -18.42,64.51 -12.23,21.24 -27.51,36.08 -45.79,44.85 -17.28,8.29 -31.68,8.77 -43.1,1.21 -11.34,-7.51 -17.91,-21.22 -19.83,-41.22z"/>
    <path class="fil1" d="M2153.02 868.97c762.84,0 1381.24,618.4 1381.24,1381.24 0,762.84 -618.4,1381.24 -1381.24,1381.24 -762.84,0 -1381.24,-618.4 -1381.24,-1381.24 0,-762.84 618.4,-1381.24 1381.24,-1381.24zm1181.69 1378.45l-1915.26 929.26c201.54,159.79 456.39,255.25 733.57,255.25 652.65,0 1181.73,-529.08 1181.73,-1181.73 0,-0.93 -0.03,-1.86 -0.04,-2.79zm-2362.87 -32.2l1884.79 -914.48c-196.57,-145.91 -440,-232.27 -703.62,-232.27 -640.95,0 -1162.66,510.28 -1181.17,1146.75z"/>
    <path class="fil3" d="M1106.81 2658.26c0,-46.81 0,-93.63 0,-140.44 0,-46.82 0,-93.8 0,-140.79 32.83,-15.78 65.67,-31.55 98.49,-47.34 24.84,-11.95 42.93,-18.03 54.08,-18.38 11.15,-0.34 20.24,4.3 26.94,13.87 6.77,9.67 10.1,22.89 10.1,39.53 0,21.15 -4.98,40.99 -15.15,59.64 -10.24,18.79 -25.46,34.68 -45.67,48.03 9.89,2.25 18.28,6.13 24.83,11.62 6.49,5.43 15.44,16.22 26.51,32.77 9.34,13.96 18.73,27.57 28.2,41.27 -18.73,9.02 -37.25,18.04 -55.77,26.88 -11.36,-14.91 -22.43,-30.28 -33.67,-45.26 -11.91,-15.88 -20.26,-25.71 -24.62,-29.13 -4.48,-3.51 -9.26,-5.36 -14.1,-5.03 -5.05,0.36 -12.84,2.94 -23.78,8.32 -3.16,1.56 -6.31,2.95 -9.47,4.51 0,39.19 0,78.37 0,117.38 -15.78,7.63 -31.35,15.08 -46.93,22.54zm46.93 -184.65c11.58,-5.55 23.16,-11.08 34.73,-16.64 22.31,-10.73 36.37,-18.79 41.88,-23.75 5.64,-5.09 9.94,-11.21 13.05,-18.2 3.21,-7.22 4.84,-14.91 4.84,-23.41 0,-9.53 -2.08,-16 -6.32,-20.11 -3.97,-3.86 -9.89,-4.5 -17.46,-2.43 -3.79,1.04 -15.17,6.2 -34.09,15.26 -12.22,5.85 -24.41,11.79 -36.62,17.69 0,23.92 0,47.68 0,71.61zm182.46 74.38c0,-46.82 0,-93.63 0,-140.45 0,-46.81 0,-93.8 0,-140.79 15.57,-7.45 31.15,-15.08 46.93,-22.54 0,46.99 0,93.98 0,140.79 0,46.81 0,93.63 0,140.44 -15.78,7.62 -31.35,15.08 -46.93,22.54zm79.13 -177.03c0,-28.6 3.53,-54.47 10.53,-77.33 5.21,-17.01 12.49,-33.06 21.68,-48.9 9.11,-15.71 19,-29.04 29.88,-39.88 14.37,-14.3 31.16,-26.14 49.88,-35.2 34.31,-16.6 61.45,-16.64 82.07,-0.69 20.41,15.78 30.73,46.82 30.73,92.76 0,45.43 -10.28,86.03 -30.52,121.37 -20.38,35.57 -47.55,61.43 -81.65,77.85 -34.29,16.52 -61.84,16.93 -82.07,1.21 -20.38,-15.83 -30.52,-46.3 -30.52,-91.2zm48.19 -24.97c0,31.9 6.04,53.18 18.1,63.81 12.14,10.7 27.57,11.44 46.3,2.43 18.73,-9.02 33.99,-24.35 46.09,-46.64 11.89,-21.92 17.89,-49.59 17.89,-82.18 0,-32.25 -5.86,-53.64 -17.47,-63.81 -11.75,-10.29 -27.15,-10.74 -46.51,-1.38 -19.36,9.36 -34.97,24.77 -46.72,46.46 -11.82,21.82 -17.68,48.9 -17.68,81.32zm266.85 -268.92c30.93,-14.91 61.89,-29.76 92.81,-44.56 18.33,-8.78 31.99,-14.56 41.04,-16.99 9.05,-2.43 17.04,-2.55 24.2,0 6.93,2.47 12.92,7.42 17.68,14.91 4.71,7.41 7.16,17.34 7.16,29.48 0,13 -3.06,26.45 -8.84,40.22 -5.79,13.8 -13.68,25.83 -23.57,36.07 14.1,-1.56 24.87,1.68 32.41,10.05 7.61,8.45 11.36,20.64 11.36,37.1 0,12.83 -2.5,26.37 -7.37,40.92 -4.82,14.4 -11.56,27.41 -20.2,38.84 -8.4,11.11 -18.9,20.74 -31.36,28.44 -7.75,4.79 -26.5,14.46 -56.4,28.95 -26.28,12.73 -52.61,25.14 -78.92,37.8 0,-46.82 0,-93.63 0,-140.44 0,-46.82 0,-93.8 0,-140.79zm46.93 24.27c0,21.67 0,43.18 0,64.67 10.1,-4.85 20.4,-9.76 30.73,-14.74 18.08,-8.72 29.46,-14.39 33.88,-17.16 8,-5.02 14.35,-11.41 18.94,-19.24 4.45,-7.59 6.74,-16.13 6.74,-25.14 0,-8.67 -1.9,-14.74 -5.9,-18.2 -4,-3.47 -9.88,-3.93 -17.68,-1.21 -4.62,1.61 -17.89,7.48 -39.77,18.03 -9.04,4.36 -18.1,8.67 -26.94,13zm0 111.49c0,25.14 0,50.45 0,75.59 14.31,-6.93 28.85,-13.83 43.35,-20.81 16.85,-8.1 27.58,-14.02 32.2,-17.34 6.96,-5 12.65,-11.43 16.83,-19.25 4.44,-8.3 6.73,-17.34 6.73,-27.39 0,-8.5 -1.65,-14.79 -5.05,-19.08 -3.33,-4.2 -8.42,-5.98 -14.73,-5.72 -6.31,0.26 -20.2,5.55 -41.46,15.78 -12.62,6.07 -25.25,12.14 -37.88,18.21zm184.14 34.33c0,-46.81 0,-93.63 0,-140.44 0,-46.81 0,-93.8 0,-140.79 32.83,-15.78 65.68,-31.49 98.49,-47.33 24.64,-11.9 42.72,-18.04 53.87,-18.38 11.36,-0.35 20.21,4.33 26.94,14.04 6.73,9.71 10.1,22.89 10.1,39.53 0,21.15 -4.95,41.01 -15.16,59.64 -10.21,18.64 -25.46,34.5 -45.67,47.85 10.1,2.25 18.28,6.13 24.83,11.61 6.49,5.43 15.41,16.43 26.51,32.94 9.3,13.83 18.73,27.57 28.2,41.27 -18.73,9.02 -37.25,17.86 -55.77,26.87 -11.15,-15.08 -22.2,-30.3 -33.46,-45.25 -12.1,-16.07 -20.45,-25.77 -24.83,-29.3 -4.45,-3.58 -9.05,-5.37 -14.1,-5.03 -5.05,0.35 -12.81,3.22 -23.57,8.32 -3.13,1.49 -6.32,2.95 -9.47,4.51 0,39.18 0,78.37 0,117.38 -15.78,7.63 -31.36,15.09 -46.93,22.54zm46.93 -184.65c11.36,-5.54 22.94,-11.11 34.51,-16.64 22.51,-10.76 36.41,-18.73 42.09,-23.75 5.47,-4.85 9.86,-10.95 13.05,-18.21 3.13,-7.13 4.63,-14.91 4.63,-23.41 0,-9.54 -2.04,-16.07 -6.1,-19.94 -4.14,-3.93 -10.13,-4.79 -17.68,-2.6 -3.81,1.11 -15.15,6.26 -34.09,15.43 -12.2,5.91 -24.41,11.79 -36.41,17.51 0,23.93 0,47.68 0,71.61zm392.48 -26.7c-16.84,8.15 -33.67,16.3 -50.51,24.45 -6.73,-18.04 -13.47,-36.24 -19.99,-54.45 -30.94,14.91 -61.87,29.83 -92.81,44.74 -6.52,24.44 -13.05,48.9 -19.36,73.16 -16.63,7.98 -33.04,15.95 -49.45,23.75 14.94,-53.92 29.9,-108.01 44.82,-161.94 14.96,-54.08 29.88,-108.19 45.04,-162.46 16.41,-7.97 32.83,-15.95 49.45,-23.93 15.36,39.71 30.94,79.24 46.3,118.6 15.36,39.36 30.94,78.89 46.51,118.07zm-85.65 -70.39c-10.73,-29.48 -21.47,-58.95 -32.2,-88.6 -10.52,39.88 -21.05,79.58 -31.35,119.29 21.04,-10.23 42.3,-20.46 63.55,-30.69zm107.96 59.82c0,-46.81 0,-93.8 0,-140.62 0,-46.82 0,-93.8 0,-140.79 15.15,-7.29 30.3,-14.56 45.46,-21.85 15.78,23.93 31.78,47.68 47.56,71.44 15.78,23.75 31.78,47.68 47.77,71.26 0,-31.38 0,-62.94 0,-94.32 0,-31.38 0,-62.76 0,-94.32 14.31,-6.76 28.83,-13.87 43.35,-20.81 0,46.99 0,93.98 0,140.79 0,46.81 0,93.8 0,140.61 -15.78,7.63 -31.35,15.09 -46.93,22.54 -15.78,-23.23 -31.6,-46.43 -47.14,-69.7 -15.61,-23.37 -31.15,-46.81 -46.72,-70.04 0,30.86 0,61.72 0,92.41 0,30.86 0,61.73 0,92.41 -14.52,7.11 -29.04,14.04 -43.35,20.98zm379.02 -286.09c14.94,-1.56 30.09,-3.12 45.24,-4.85 -6.94,34.33 -18.52,62.76 -34.72,85.65 -16.2,22.88 -36.61,40.25 -61.45,52.19 -30.71,14.76 -55.98,14.21 -75.97,-1.9 -19.78,-15.95 -29.67,-46.12 -29.67,-90.34 0,-46.81 10.06,-88.11 29.88,-123.62 19.95,-35.75 46.09,-61.2 78.49,-76.81 28.41,-13.69 51.31,-14.1 69.03,-2.43 10.69,7.05 18.52,20.29 23.78,40.57 -15.57,11.96 -30.94,23.58 -46.3,35.54 -2.74,-13.18 -8.41,-22.24 -17.05,-26.35 -8.82,-4.2 -19.39,-3.38 -31.78,2.6 -17.07,8.24 -31.14,22.55 -41.67,42.48 -10.73,20.29 -16.21,46.99 -16.21,80.62 0,35.37 5.26,58.26 15.78,68.31 10.52,10.06 24.42,10.95 41.25,2.78 12.43,-6.04 23.09,-16.02 31.99,-29.83 8.99,-13.93 15.57,-32.08 19.36,-54.62zm73.02 -70.39c0,-28.61 3.59,-54.44 10.73,-77.5 5.27,-16.98 12.42,-33.12 21.47,-48.9 9.05,-15.77 19.13,-29.17 29.88,-39.88 14.49,-14.43 31.17,-26.11 50.08,-35.2 34.11,-16.39 61.39,-16.52 81.87,-0.69 20.56,15.89 30.73,46.81 30.73,92.76 0,45.43 -10.14,85.97 -30.52,121.54 -20.24,35.33 -47.57,61.37 -81.44,77.68 -34.52,16.63 -61.9,17.05 -82.28,1.21 -20.23,-15.72 -30.52,-46.12 -30.52,-91.03zm48.19 -24.97c0,31.73 6.17,52.94 18.31,63.63 12.06,10.63 27.56,11.4 46.09,2.43 18.71,-9.06 34.06,-24.47 46.09,-46.64 11.96,-22.04 17.89,-49.41 17.89,-82.01 0,-32.25 -5.75,-53.63 -17.47,-63.98 -11.64,-10.28 -27.16,-10.62 -46.5,-1.39 -19.16,9.14 -34.72,24.8 -46.51,46.47 -11.99,22.03 -17.89,48.9 -17.89,81.49zm-1765.86 1329.34c15.15,-9.19 30.3,-18.55 45.67,-27.57 2.73,17.16 8.19,28.14 16.41,32.77 8.4,4.73 19.77,3.44 33.88,-3.29 14.93,-7.13 26.34,-16.44 33.88,-27.75 7.61,-11.4 11.36,-22.19 11.36,-32.59 0,-6.59 -1.51,-11.57 -4.63,-14.74 -3.19,-3.24 -8.84,-4.67 -16.83,-4.16 -5.47,0.35 -17.89,2.32 -37.25,5.72 -25.04,4.4 -42.53,3.69 -52.61,-2.6 -14.11,-8.8 -21.25,-24.27 -21.25,-46.47 0,-14.39 3.48,-29.58 10.1,-45.25 6.63,-15.71 16.25,-29.76 28.83,-42.48 12.45,-12.59 27.59,-23.18 45.45,-31.73 28.85,-13.81 50.7,-16.59 65.24,-7.98 14.71,8.72 22.31,25.84 23.15,51.49 -15.78,8.15 -31.35,16.3 -46.93,24.62 -1.89,-13.7 -6.34,-21.95 -12.84,-25.14 -6.55,-3.22 -16.22,-1.97 -29.25,4.34 -13.49,6.52 -24.11,14.96 -31.78,25.49 -4.95,6.8 -7.37,13.87 -7.37,21.15 0,6.76 2.29,11.35 6.95,13.87 5.87,3.19 20.21,2.68 42.93,-1.73 22.74,-4.42 39.57,-5.7 50.3,-3.99 10.94,1.75 19.43,7.05 25.68,16.3 6.16,9.12 9.05,22.71 9.05,40.4 0,16.12 -3.61,32.93 -10.94,50.45 -7.39,17.66 -17.92,33.24 -31.35,46.46 -13.5,13.29 -30.29,24.85 -50.3,34.5 -29.24,14.1 -51.84,16.83 -67.55,7.98 -15.64,-8.82 -25.05,-28.44 -27.99,-58.09zm225.38 -17.51c0,-46.81 0,-93.63 0,-140.44 0,-46.99 0,-93.8 0,-140.79 24.84,-11.96 49.85,-24.03 74.92,-36.06 28.38,-13.63 46.93,-21.17 55.56,-22.54 13.25,-2.1 24.37,1.8 33.25,11.62 9,9.94 13.47,26.01 13.47,48.38 0,17.34 -2.61,32.89 -7.78,47.16 -5.14,14.17 -11.58,26.7 -19.57,37.28 -8,10.57 -15.98,18.93 -24.2,24.97 -11.14,8.18 -27.33,17.26 -48.4,27.4 -10.28,4.94 -20.41,9.88 -30.52,14.73 0,35.2 0,70.57 0,105.94 -15.57,7.45 -31.14,14.91 -46.72,22.37zm46.72 -256.09c0,26.7 0,53.4 0,80.1 8.42,-4.16 17.03,-8.37 25.67,-12.48 18.29,-8.72 30.49,-15.99 36.83,-22.19 6.07,-5.93 11.02,-12.6 14.52,-20.64 3.45,-7.91 5.26,-16.29 5.26,-24.62 0,-10.23 -2.52,-17.52 -7.37,-21.67 -5.05,-4.34 -11.15,-5.52 -18.73,-3.64 -5.68,1.41 -16.85,6.21 -33.67,14.22 -7.58,3.61 -15.15,7.28 -22.52,10.93zm156.57 19.41c0,-28.6 3.51,-54.48 10.53,-77.33 5.18,-16.86 12.49,-33.23 21.68,-49.07 9.11,-15.71 18.96,-28.93 29.88,-39.71 14.54,-14.36 31.14,-26.2 49.88,-35.2 34.29,-16.48 61.51,-16.76 82.07,-0.87 20.47,15.83 30.73,46.99 30.73,92.76 0,45.6 -10.18,85.93 -30.52,121.54 -20.27,35.48 -47.55,61.25 -81.65,77.68 -34.29,16.51 -61.81,17.04 -82.07,1.21 -20.35,-15.89 -30.52,-46.12 -30.52,-91.03zm48.2 -24.97c0,31.9 6.1,53.07 18.1,63.64 12.2,10.75 27.57,11.61 46.3,2.6 18.73,-9.02 34.07,-24.65 46.09,-46.81 11.96,-22.05 17.89,-49.24 17.89,-82.01 0,-32.25 -5.86,-53.64 -17.46,-63.81 -11.75,-10.29 -27.15,-10.92 -46.51,-1.56 -19.36,9.36 -34.94,24.97 -46.72,46.64 -11.78,21.67 -17.68,48.9 -17.68,81.32zm210.44 39.53c0,-46.81 0,-93.63 0,-140.44 0,-46.99 0,-93.8 0,-140.79 32.83,-15.78 65.68,-31.49 98.49,-47.33 24.64,-11.9 42.72,-17.95 53.87,-18.38 11.36,-0.44 20.24,4.13 26.94,13.87 6.77,9.84 10.1,22.89 10.1,39.53 0,20.98 -5.04,40.92 -15.16,59.47 -10.3,18.91 -25.46,34.68 -45.67,48.03 10.1,2.25 18.31,6.24 24.83,11.62 6.73,5.54 15.39,16.67 26.52,33.11 9.29,13.73 18.94,27.4 28.41,41.09 -18.73,9.01 -37.46,18.03 -55.98,26.87 -11.15,-14.91 -22.2,-30.29 -33.46,-45.25 -12.1,-16.08 -20.39,-25.73 -24.84,-29.3 -4.39,-3.52 -9.05,-5.19 -14.1,-4.85 -5.05,0.34 -12.85,3.06 -23.57,8.15 -3.17,1.5 -6.31,3.12 -9.47,4.68 0,39.19 0,78.37 0,117.38 -15.78,7.46 -31.36,15.08 -46.93,22.54zm46.93 -184.83c11.37,-5.55 22.96,-11.06 34.51,-16.64 22.53,-10.88 36.38,-18.61 42.09,-23.75 5.44,-4.9 9.93,-10.9 13.05,-18.03 3.18,-7.26 4.63,-15.09 4.63,-23.41 0,-9.53 -2.03,-16.25 -6.1,-20.11 -4.14,-3.93 -10.11,-4.73 -17.67,-2.43 -3.8,1.16 -15.15,6.25 -34.1,15.43 -12.2,5.9 -24.41,11.62 -36.41,17.51 0,23.75 0,47.68 0,71.43zm235.91 48.72c0,-38.84 0,-77.85 0,-116.86 0,-39.01 0,-77.85 0,-116.86 -22.94,11.09 -45.88,22.19 -68.61,33.11 0,-15.95 0,-31.73 0,-47.51 61.24,-29.48 122.48,-58.95 183.72,-88.43 0,15.78 0,31.56 0,47.51 -22.73,10.93 -45.46,21.85 -68.19,32.77 0,39.01 0,77.85 0,116.86 0,39.01 0,78.02 0,116.86 -15.78,7.63 -31.35,15.09 -46.93,22.54zm347.66 -270.83c14.94,-1.56 30.09,-3.29 45.25,-4.86 -6.95,34.33 -18.49,62.98 -34.72,85.82 -16.17,22.75 -36.62,39.91 -61.45,51.84 -30.72,14.76 -56.16,14.33 -75.97,-1.74 -19.75,-16.01 -29.67,-46.12 -29.67,-90.51 0,-46.81 9.96,-87.85 29.88,-123.45 19.85,-35.48 46.07,-61.28 78.5,-76.81 28.39,-13.6 51.31,-14.3 69.03,-2.43 10.48,7.02 18.52,20.46 23.78,40.4 -15.57,11.96 -30.94,23.92 -46.3,35.54 -2.74,-13.18 -8.38,-21.97 -17.05,-26.18 -8.8,-4.28 -19.35,-3.42 -31.78,2.6 -17.24,8.36 -31.11,22.39 -41.88,42.65 -10.7,20.13 -15.99,46.81 -15.99,80.27 0,35.55 5.23,58.49 15.78,68.49 10.48,9.94 24.2,10.9 41.04,2.77 12.62,-6.09 23.33,-15.98 32.2,-29.82 9.02,-14.08 15.36,-32.08 19.36,-54.62zm83.97 63.29c0,-46.47 0,-92.93 0,-139.4 0,-46.47 0,-93.11 0,-139.57 15.57,-7.45 31.15,-15.08 46.93,-22.54 0,38.67 0,77.16 0,115.82 0,38.49 0,77.16 0,115.65 38.72,-18.72 77.44,-37.28 116.16,-56.01 0,15.95 0,31.73 0,47.51 -54.51,26.36 -108.8,52.37 -163.1,78.55zm193.61 -374.34c15.57,-7.45 31.14,-15.08 46.93,-22.54 0,50.8 0,101.6 0,152.4 0,24.27 0.47,39.58 1.68,46.12 1.94,10.45 6.73,17.56 14.1,20.98 7.56,3.51 17.68,1.91 30.73,-4.33 13.05,-6.24 22.84,-14.33 29.67,-24.27 6.63,-9.65 10.75,-19.76 12,-29.82 1.28,-10.4 2.11,-26.7 2.11,-48.9 0,-52.01 0,-103.86 0,-155.7 15.57,-7.46 31.14,-14.91 46.93,-22.54 0,49.24 0,98.48 0,147.9 0,33.81 -1.26,58.26 -3.79,73.34 -2.52,15.08 -7.17,29.29 -14.11,42.3 -6.74,12.65 -15.77,24.64 -26.93,35.72 -11.35,11.28 -26.31,21.15 -44.62,30 -21.89,10.57 -38.72,15.6 -50.09,14.91 -11.36,-0.69 -20.34,-4.46 -26.94,-11.27 -6.66,-6.87 -10.93,-15.09 -13.05,-24.97 -3.14,-14.57 -4.63,-37.63 -4.63,-69.18 0,-50.11 0,-100.04 0,-150.15zm230.86 -111.14c30.72,-14.74 61.65,-29.7 92.59,-44.56 18.5,-8.89 32.2,-14.6 41.04,-16.99 9.04,-2.46 17.29,-2.55 24.2,-0.17 7.18,2.47 13.15,7.36 17.89,14.91 4.73,7.53 7.16,17.34 7.16,29.48 0,13.18 -2.94,26.54 -8.84,40.57 -5.68,13.53 -13.68,25.49 -23.78,36.06 14.1,-1.91 25.08,1.34 32.62,9.71 7.61,8.45 11.37,20.81 11.37,37.11 0,12.83 -2.49,26.72 -7.37,40.92 -5.01,14.58 -11.6,27.37 -20.2,38.84 -8.44,11.24 -18.97,20.89 -31.36,28.43 -7.82,4.77 -26.51,14.57 -56.4,28.95 -26.3,12.66 -52.61,25.31 -78.92,37.97 0,-46.82 0,-93.63 0,-140.62 0,-46.81 0,-93.8 0,-140.61zm46.93 24.1c0,21.67 0,43.34 0,64.84 10.1,-4.85 20.4,-9.76 30.73,-14.73 18.08,-8.72 29.44,-14.61 33.88,-17.34 7.97,-4.9 14.31,-11.28 18.73,-18.89 4.63,-7.98 6.95,-16.13 6.95,-25.32 0,-8.67 -1.86,-14.8 -5.9,-18.38 -3.96,-3.52 -9.89,-3.82 -17.67,-1.21 -4.63,1.55 -17.93,7.51 -39.78,18.04 -9.09,4.38 -18.1,8.84 -26.94,13zm0 111.66c0,25.14 0,50.28 0,75.42 14.31,-6.93 28.85,-13.83 43.35,-20.81 16.85,-8.1 27.58,-13.85 32.2,-17.17 6.96,-5 12.39,-11.3 16.84,-19.42 4.39,-8 6.52,-16.99 6.52,-27.05 0,-8.5 -1.61,-14.74 -5.05,-19.08 -3.29,-4.16 -8.22,-6.41 -14.52,-6.07 -6.32,0.34 -20.2,5.73 -41.46,15.95 -12.63,6.07 -25.26,12.14 -37.88,18.2z"/>
   </g>
   <path class="fil0" d="M1248.4 2470.35c5.67,2.28 11.01,5.3 15.73,9.25 10.14,8.49 20.28,23.03 27.6,33.98 9.25,13.82 18.69,27.51 28.15,41.19l3.82 5.53 -6.06 2.92c-18.59,8.96 -37.16,17.99 -55.79,26.89l-4.21 2.01 -2.83 -3.71c-11.41,-14.97 -22.41,-30.24 -33.7,-45.29 -5.55,-7.4 -16.4,-22.43 -23.57,-28.05 -2.87,-2.25 -6.41,-4.08 -10.15,-3.82 -6.32,0.44 -16.03,4.98 -21.64,7.75 -2.07,1.02 -4.18,1.99 -6.27,2.97 0,37.92 0,75.84 0,113.77l0 3.6 -3.24 1.57c-15.63,7.55 -31.29,15.05 -46.95,22.54l-8.22 3.94 0 -9.12c0,-46.81 0,-93.63 0,-140.44 0,-46.93 0,-93.86 0,-140.79l0 -3.61 3.26 -1.56c32.83,-15.77 65.66,-31.55 98.49,-47.33 14.99,-7.21 39.58,-18.42 56.4,-18.94 13.34,-0.41 24.2,5.43 31.82,16.32 8.64,12.35 11.14,28.06 11.14,42.82 0,22.14 -5.26,42.94 -15.86,62.39 -9.42,17.28 -22.48,31.48 -37.91,43.24zm82.05 77.64c0,-46.81 0,-93.63 0,-140.45 0,-46.93 0,-93.86 0,-140.79l0 -3.62 3.27 -1.56c15.66,-7.5 31.25,-15.14 46.96,-22.55l8.2 -3.87 0 9.07c0,46.93 0,93.86 0,140.79 0,46.82 0,93.63 0,140.44l0 3.6 -3.24 1.57c-15.63,7.55 -31.29,15.05 -46.95,22.55l-8.22 3.94 0 -9.12zm79.13 -177.03c0,-26.58 2.98,-53.53 10.78,-79.01 5.38,-17.59 12.98,-34.2 22.2,-50.1 8.58,-14.79 18.65,-28.97 30.8,-41.07 14.99,-14.92 32.4,-27.09 51.43,-36.3 28.32,-13.71 61.14,-20.9 88.09,-0.07 27.95,21.61 32.96,64.57 32.96,97.3 0,43.78 -9.42,86.07 -31.28,124.22 -20.1,35.09 -47.64,62.59 -84.15,80.17 -27.97,13.47 -61.51,21.23 -88.09,0.57 -27.67,-21.49 -32.73,-63.2 -32.73,-95.73zm483.84 -240.54c9.09,1.05 17.47,4.63 24.09,11.98 10.06,11.17 12.84,26.37 12.84,40.95 0,14.57 -3.06,28.97 -7.66,42.74 -4.86,14.54 -11.81,28.24 -21.07,40.49 -9.03,11.95 -20.18,21.99 -32.92,29.86 -17.26,10.66 -38.62,20.37 -56.92,29.23 -26.25,12.72 -52.64,25.16 -78.93,37.81l-8.23 3.96 0 -9.14c0,-46.81 0,-93.62 0,-140.44 0,-46.93 0,-93.86 0,-140.79l0 -3.61 3.25 -1.57c30.92,-14.9 61.86,-29.74 92.81,-44.56 12.81,-6.13 28.32,-13.68 42.04,-17.36 9.14,-2.45 18.58,-3.09 27.62,0.14 8.84,3.15 15.62,9.4 20.6,17.24 6.09,9.58 8.05,21.37 8.05,32.56 0,14.66 -3.64,29 -9.29,42.45 -4.23,10.08 -9.65,19.5 -16.28,28.07zm209.43 -71.19c5.64,2.27 10.93,5.29 15.69,9.27 10.04,8.4 20.31,23.32 27.59,34.14 6.83,10.15 13.72,20.25 20.65,30.32 13.76,-49.65 27.49,-99.32 41.23,-148.97 14.98,-54.17 29.93,-108.34 45.04,-162.47l0.69 -2.49 2.33 -1.13c16.48,-8.01 32.96,-16.02 49.48,-23.94l5.6 -2.69 2.24 5.79c15.31,39.57 30.86,79.06 46.29,118.58 15.38,39.4 30.88,78.74 46.5,118.04l1.97 4.96 -4.81 2.33c-16.84,8.15 -33.67,16.3 -50.51,24.45l-5.68 2.75 -2.21 -5.91c-6.03,-16.15 -12.01,-32.3 -17.86,-48.52 -28.23,13.61 -56.46,27.22 -84.69,40.82 -6.27,23.52 -12.55,47.03 -18.67,70.58l-0.67 2.58 -2.41 1.15c-14.19,6.81 -28.35,13.68 -42.56,20.47l0.01 0.02 -6.06 2.92c-18.58,8.95 -37.2,17.84 -55.75,26.87l-4.29 2.09 -2.84 -3.84c-11.14,-15.08 -22.15,-30.24 -33.43,-45.22 -5.82,-7.74 -16.35,-22.26 -23.84,-28.27 -2.96,-2.38 -6.23,-4.04 -10.11,-3.78 -5.92,0.4 -16.16,5.24 -21.5,7.78 -2.06,0.98 -4.13,1.94 -6.19,2.92 0,37.93 0,75.86 0,113.78l0 3.6 -3.24 1.57c-15.63,7.55 -31.29,15.05 -46.95,22.55l-8.22 3.94 0 -9.12c0,-46.82 0,-93.63 0,-140.44 0,-46.93 0,-93.86 0,-140.79l0 -3.61 3.26 -1.56c32.83,-15.77 65.68,-31.49 98.48,-47.32 14.92,-7.2 39.44,-18.44 56.19,-18.95 13.53,-0.41 24.17,5.45 31.83,16.51 8.59,12.39 11.13,28.02 11.13,42.81 0,22.14 -5.22,42.97 -15.86,62.4 -9.41,17.18 -22.5,31.33 -37.88,43.04zm455.36 -213.31c0,-25.19 0,-50.38 0,-75.57 0,-31.44 0,-62.88 0,-94.32l0 -3.64 3.29 -1.55c14.48,-6.85 28.88,-13.89 43.33,-20.8l8.22 -3.93 0 9.11c0,46.93 0,93.86 0,140.8 0,46.87 0,93.74 0,140.61l0 3.6 -3.24 1.57c-15.63,7.55 -31.29,15.05 -46.95,22.55l-4.45 2.13 -2.78 -4.08c-15.77,-23.22 -31.58,-46.4 -47.16,-69.74 -12.08,-18.09 -24.12,-36.22 -36.21,-54.32 0,24.5 0,49 0,73.5 0,30.8 0,61.61 0,92.41l0 3.58 -3.22 1.57c-14.43,7.06 -28.92,13.99 -43.37,20.99l-8.25 4 0 -9.17c0,-46.87 0,-93.74 0,-140.61 0,-46.93 0,-93.86 0,-140.79l0 -3.61 3.25 -1.56c15.15,-7.29 30.3,-14.57 45.46,-21.85l4.52 -2.17 2.76 4.19c15.75,23.87 31.72,47.6 47.55,71.42 12.36,18.6 24.76,37.17 37.24,55.69zm243.38 -112.49c15.07,-1.57 30.14,-3.12 45.19,-4.85l7.85 -0.9 -1.57 7.74c-6.3,31.14 -17.2,61.74 -35.67,87.83 -16.61,23.46 -37.74,41.59 -63.65,54.05 -27.37,13.15 -57.04,17.57 -82.07,-2.61 -26.82,-21.63 -31.81,-62.69 -31.81,-94.81 0,-44.3 8.9,-87.52 30.61,-126.42 19.15,-34.32 45.41,-62.03 81.02,-79.19 23.71,-11.42 51.28,-17.47 74.68,-2.05 14.63,9.64 21.95,27.63 26.18,43.93l0.95 3.68 -3.02 2.32c-15.42,11.84 -30.93,23.57 -46.27,35.52l-7.27 5.67 -1.87 -9.03c-1.77,-8.52 -5.5,-18.34 -13.89,-22.33 -8.72,-4.15 -18.58,-1.39 -26.81,2.58 -17.48,8.43 -30.13,23.05 -39.09,40 -12.28,23.24 -15.54,52.02 -15.54,77.94 0,16.43 1.08,51.8 14.01,64.16 10.18,9.73 23.01,7.48 34.77,1.76 12.55,-6.1 22.18,-16.16 29.67,-27.77 10.01,-15.52 15.49,-34.38 18.53,-52.46l0.72 -4.31 4.34 -0.45zm67.88 -64.68c0,-26.7 3.07,-53.63 10.99,-79.2 5.43,-17.5 12.86,-34.16 21.97,-50.05 8.5,-14.82 18.68,-29.02 30.81,-41.09 15.1,-15.02 32.45,-27.07 51.65,-36.3 28.22,-13.56 61.16,-20.71 87.86,-0.06 28.05,21.68 32.96,64.47 32.96,97.31 0,43.92 -9.36,86.13 -31.28,124.39 -19.96,34.86 -47.66,62.53 -83.94,80 -28.16,13.56 -61.55,21.36 -88.3,0.57 -27.58,-21.43 -32.73,-63.12 -32.73,-95.56zm-1527.88 1112.86c-15.67,8.09 -31.3,16.27 -46.86,24.59l-7.27 3.88 -1.13 -8.16c-0.87,-6.32 -3.21,-17.6 -9.68,-20.78 -6.72,-3.3 -18.16,1.42 -24.22,4.35 -11.6,5.61 -21.99,13.21 -29.63,23.7 -3.85,5.28 -6.27,11.17 -6.27,17.77 0,3.52 0.63,7.02 3.94,8.82 6.69,3.64 31.9,-0.93 39.09,-2.32 15.37,-2.99 36.71,-6.51 52.3,-4.02 12.55,2 22.41,8.21 29.53,18.75 8.25,12.21 10.03,29.25 10.03,43.61 0,18.21 -4.38,35.94 -11.39,52.68 -7.62,18.21 -18.57,34.49 -32.63,48.34 -15.03,14.8 -32.88,26.45 -51.83,35.58 -21.13,10.19 -50.58,20.37 -72.87,7.81 -21.59,-12.17 -28.61,-39.65 -30.89,-62.52l-0.36 -3.6 3.09 -1.88c15.23,-9.23 30.38,-18.59 45.74,-27.61l7.25 -4.26 1.32 8.31c1.44,9 4.83,23.75 13.56,28.67 8.49,4.78 20.6,0.34 28.59,-3.47 12.39,-5.92 23.88,-14.2 31.58,-25.75 5.82,-8.71 10.4,-18.75 10.4,-29.41 0,-3.39 -0.46,-8.15 -2.98,-10.71 -2.63,-2.67 -8.98,-2.68 -12.37,-2.46 -11.48,0.74 -25.24,3.64 -36.62,5.64 -16.47,2.89 -41.65,5.97 -56.64,-3.38 -18.14,-11.3 -23.96,-30.88 -23.96,-51.34 0,-16.36 4.22,-32.49 10.55,-47.48 7.06,-16.71 17.29,-31.4 30.04,-44.29 13.61,-13.75 29.65,-24.54 47.06,-32.87 20.11,-9.63 49.52,-20.26 70.65,-7.74 19.77,11.72 25.26,34.77 25.96,56.25l0.12 3.62 -3.22 1.66zm93.81 49.31c0,34.11 0,68.22 0,102.33l0 3.62 -3.26 1.56c-15.58,7.45 -31.15,14.91 -46.72,22.37l-8.22 3.94 0 -9.12c0,-46.81 0,-93.63 0,-140.44 0,-46.93 0,-93.86 0,-140.79l0 -3.61 3.25 -1.56c24.97,-12.03 49.94,-24.07 74.93,-36.06 14.22,-6.83 41.72,-20.59 57.14,-23.04 15.06,-2.38 28.17,2.12 38.41,13.43 12.33,13.63 14.95,34.6 14.95,52.23 0,16.79 -2.39,33.3 -8.13,49.12 -4.98,13.75 -11.55,27.09 -20.39,38.79 -7.27,9.6 -15.64,18.97 -25.38,26.13 -14.8,10.87 -32.79,20 -49.31,27.95 -9.1,4.37 -18.17,8.79 -27.26,13.17zm145.09 -111.98c0,-26.56 2.95,-53.56 10.78,-79.01 5.4,-17.57 12.98,-34.37 22.2,-50.26 8.57,-14.78 18.63,-28.88 30.82,-40.92 15.08,-14.89 32.3,-27.1 51.42,-36.29 28.29,-13.59 61.27,-20.96 88.08,-0.23 27.94,21.6 32.96,64.58 32.96,97.31 0,44.02 -9.36,86.04 -31.27,124.39 -20.04,35.08 -47.7,62.45 -84.15,80 -27.99,13.48 -61.53,21.32 -88.1,0.56 -27.63,-21.59 -32.72,-62.96 -32.72,-95.56zm405.77 -173.52c5.63,2.28 10.92,5.3 15.68,9.23 10,8.24 20.36,23.6 27.62,34.33 9.32,13.78 18.92,27.36 28.37,41.05l3.82 5.53 -6.05 2.91c-18.66,8.98 -37.31,17.96 -55.99,26.88l-4.25 2.03 -2.82 -3.77c-11.24,-15.02 -22.17,-30.25 -33.45,-45.24 -5.84,-7.76 -16.33,-22.24 -23.84,-28.28 -2.97,-2.39 -6.24,-3.87 -10.11,-3.6 -6.1,0.41 -16.02,5 -21.5,7.6 -2.08,0.99 -4.13,2.02 -6.18,3.04 0,37.94 0,75.89 0,113.83l0 3.64 -3.29 1.55c-15.68,7.41 -31.26,15.03 -46.91,22.52l-8.22 3.94 0 -9.12c0,-46.81 0,-93.63 0,-140.44 0,-46.93 0,-93.86 0,-140.79l0 -3.61 3.26 -1.56c32.83,-15.77 65.69,-31.49 98.48,-47.32 15.01,-7.25 39.3,-18.3 56.15,-18.95 13.5,-0.52 24.27,5.27 31.89,16.36 8.58,12.48 11.11,27.91 11.11,42.78 0,21.99 -5.33,42.9 -15.86,62.22 -9.44,17.32 -22.45,31.48 -37.9,43.24zm135.71 -172.59c-20.12,9.73 -40.24,19.45 -60.38,29.13l-8.23 3.95 0 -9.13c0,-15.84 0,-31.67 0,-47.51l0 -3.61 3.25 -1.56c61.24,-29.48 122.48,-58.95 183.73,-88.43l8.23 -3.96 0 9.14c0,15.83 0,31.67 0,47.5l0 3.61 -3.26 1.57c-21.64,10.4 -43.29,20.8 -64.93,31.21 0,37.75 0,75.49 0,113.24 0,38.95 0,77.91 0,116.87l0 3.6 -3.24 1.57c-15.63,7.55 -31.29,15.05 -46.95,22.55l-8.22 3.94 0 -9.12c0,-38.95 0,-77.91 0,-116.86 0,-35.9 0,-71.8 0,-107.7zm401.51 -163.42c-15.44,11.86 -30.8,23.82 -46.33,35.56l-7.24 5.48 -1.84 -8.89c-1.8,-8.67 -5.49,-18.08 -13.93,-22.18 -8.68,-4.22 -18.56,-1.38 -26.76,2.61 -17.72,8.59 -30.18,22.98 -39.31,40.18 -12.22,23 -15.32,51.92 -15.32,77.58 0,16.37 1.04,52.05 13.99,64.32 10.22,9.68 22.8,7.46 34.59,1.77 12.67,-6.11 22.33,-16 29.86,-27.75 9.98,-15.57 15.34,-34.47 18.54,-52.52l0.76 -4.26 4.3 -0.45c15.09,-1.58 30.16,-3.3 45.25,-4.86l7.77 -0.8 -1.55 7.65c-6.29,31.11 -17.16,61.98 -35.67,88.01 -16.62,23.39 -37.8,41.27 -63.65,53.7 -27.22,13.08 -57.16,17.75 -82.07,-2.45 -26.82,-21.74 -31.8,-62.77 -31.8,-94.97 0,-44.36 8.83,-87.31 30.61,-126.25 19.1,-34.14 45.49,-62.17 81.02,-79.19 23.65,-11.33 51.43,-17.62 74.71,-2.02 14.34,9.61 21.89,27.62 26.13,43.7l0.97 3.69 -3.03 2.33zm88.53 101.24c35.96,-17.37 71.97,-34.63 107.92,-52.02l8.25 -3.98 0 9.16c0,15.83 0,31.67 0,47.5l0 3.6 -3.24 1.57c-54.33,26.27 -108.75,52.33 -163.1,78.54l-8.24 3.97 0 -9.14c0,-46.47 0,-92.94 0,-139.4 0,-46.52 0,-93.05 0,-139.58l0 -3.62 3.27 -1.56c15.66,-7.5 31.25,-15.13 46.95,-22.55l8.2 -3.87 0 9.07c0,38.61 0,77.21 0,115.82 0,35.5 0,71 0,106.5zm272.41 -205.5c0,-51.9 0,-103.8 0,-155.69l0 -3.62 3.26 -1.56c15.65,-7.49 31.29,-14.98 46.91,-22.53l8.25 -3.98 0 9.15c0,49.3 0,98.6 0,147.9 0,23.54 0.02,51.05 -3.87,74.29 -2.57,15.38 -7.35,30.28 -14.7,44.06 -7.32,13.74 -16.93,26.13 -27.96,37.09 -13.14,13.06 -29.57,23.07 -46.17,31.09 -14.51,7.01 -36.49,16.47 -52.93,15.47 -11.68,-0.71 -22.47,-4.49 -30.71,-13.01 -7.58,-7.83 -12.25,-17.11 -14.54,-27.75 -4.62,-21.48 -4.76,-48.44 -4.76,-70.38 0,-50.05 0,-100.1 0,-150.15l0 -3.62 3.26 -1.56c15.66,-7.5 31.26,-15.14 46.96,-22.55l8.2 -3.87 0 9.07c0,50.8 0,101.6 0,152.4 0,12.69 -0.7,32.74 1.59,45.07 1.28,6.87 4.21,13.72 10.87,16.81 7.62,3.54 18.9,-0.99 25.83,-4.3 10.88,-5.2 20.54,-12.33 27.42,-22.34 5.59,-8.12 9.81,-17.42 11.03,-27.27 1.92,-15.6 2.07,-32.49 2.07,-48.2zm262.41 -147.48c9.1,0.95 17.5,4.51 24.12,11.86 10.02,11.12 12.85,26.43 12.85,40.95 0,14.5 -2.98,29.11 -7.68,42.78 -5,14.54 -11.8,28.11 -21.04,40.42 -9,11.99 -20.16,22.09 -32.97,29.89 -17.52,10.67 -38.4,20.32 -56.89,29.22 -26.3,12.66 -52.61,25.31 -78.92,37.97l-8.23 3.96 0 -9.14c0,-46.87 0,-93.75 0,-140.62 0,-46.87 0,-93.74 0,-140.61l0 -3.62 3.26 -1.56c30.88,-14.82 61.72,-29.73 92.59,-44.56 12.82,-6.16 28.29,-13.63 42.02,-17.36 8.96,-2.43 18.67,-3.12 27.57,-0.06 9.03,3.11 15.83,9.25 20.88,17.29 6.07,9.66 8.04,21.27 8.04,32.53 0,14.87 -3.55,29.14 -9.28,42.79 -4.22,10.06 -9.7,19.34 -16.32,27.84zm-1987.32 506.8c8.83,-4.23 17.67,-8.45 26.49,-12.7 10.65,-5.12 31.82,-15 40.52,-22.84 5.06,-4.56 8.88,-10.05 11.64,-16.27 2.99,-6.73 4.34,-13.71 4.34,-21.08 0,-5.19 -0.61,-12.14 -4.57,-15.99 -3.01,-2.92 -8.33,-2 -11.94,-1.01 -3.24,0.89 -7.45,2.94 -10.54,4.32 -7.58,3.4 -15.1,6.99 -22.6,10.58 -11.14,5.33 -22.24,10.73 -33.35,16.11 0,19.63 0,39.26 0,58.89zm309.78 -118.49c0,17.61 1.8,46.84 16.15,59.5 12.08,10.65 26.57,8.03 40.01,1.56 19.53,-9.4 33.32,-25.39 43.53,-44.2 13,-23.97 17.19,-52.49 17.19,-79.45 0,-16.93 -1.6,-47.3 -15.51,-59.49 -12.01,-10.53 -27.03,-6.91 -40.22,-0.53 -19.63,9.49 -33.86,24.99 -44.17,44.03 -12.91,23.84 -16.99,51.77 -16.99,78.58zm313.78 -241.06c0,17.32 0,34.64 0,51.96 7.5,-3.59 15,-7.18 22.49,-10.79 10.4,-5.01 23.61,-10.76 33.32,-16.86 7.04,-4.42 12.83,-10.1 17.04,-17.28 3.99,-6.8 5.95,-14.36 5.95,-22.24 0,-4.17 -0.47,-10.88 -3.91,-13.86 -3.13,-2.72 -8.58,-1.33 -12.03,-0.13 -12.5,4.36 -27.2,12.01 -39.17,17.78 -7.9,3.81 -15.81,7.58 -23.69,11.42zm0 111.51c0,20.94 0,41.89 0,62.83 11.7,-5.63 23.42,-11.2 35.12,-16.83 9.54,-4.59 22.76,-10.66 31.34,-16.82 6.35,-4.57 11.43,-10.39 15.13,-17.29 4.13,-7.73 6.05,-15.92 6.05,-24.69 0,-4.96 -0.6,-11.45 -3.81,-15.51 -2.43,-3.06 -6.28,-3.7 -10,-3.55 -8.46,0.35 -31.43,11.48 -39.2,15.22 -11.54,5.55 -23.09,11.1 -34.63,16.64zm231.07 -221.92c0,19.6 0,39.2 0,58.81 8.75,-4.24 17.52,-8.45 26.3,-12.65 10.96,-5.24 31.71,-14.86 40.75,-22.87 5.07,-4.49 8.88,-10.03 11.6,-16.21 2.94,-6.7 4.15,-13.81 4.15,-21.1 0,-4.83 -0.55,-12.2 -4.32,-15.77 -3.23,-3.07 -8.22,-2.38 -12.12,-1.25 -9.29,2.69 -24.3,10.78 -33.19,15.08 -11.04,5.35 -22.09,10.68 -33.17,15.97zm293.91 -32.03c-8.06,-22.14 -16.12,-44.29 -24.16,-66.44 -7.87,29.81 -15.75,59.62 -23.52,89.45 15.88,-7.7 31.78,-15.36 47.68,-23.01zm621.11 -318.7c0,17.74 1.91,46.59 16.36,59.32 11.98,10.55 26.46,8.02 39.79,1.57 19.47,-9.42 33.35,-25.43 43.54,-44.21 13.04,-24.04 17.19,-52.23 17.19,-79.27 0,-17.09 -1.54,-47.33 -15.53,-59.67 -11.9,-10.5 -27.16,-6.74 -40.23,-0.51 -19.52,9.32 -33.71,25.23 -43.94,44.02 -13.08,24.02 -17.19,51.7 -17.19,78.75zm-1493.76 1059.31c0,22.44 0,44.87 0,67.3 5.81,-2.84 11.63,-5.66 17.46,-8.44 10.44,-4.98 26.97,-12.99 35.28,-21.12 5.61,-5.49 10.12,-11.6 13.26,-18.82 3.07,-7.03 4.79,-14.63 4.79,-22.32 0,-5.55 -0.83,-13.42 -5.37,-17.32 -4.04,-3.47 -8.56,-3.68 -13.6,-2.43 -9.58,2.38 -23.6,9.55 -32.59,13.83 -6.43,3.06 -12.85,6.17 -19.24,9.31zm204.77 -9.12c0,17.57 1.82,46.7 16.15,59.32 12.09,10.65 26.38,8.3 40.01,1.74 19.46,-9.37 33.37,-25.65 43.53,-44.38 13.08,-24.1 17.19,-52.16 17.19,-79.27 0,-16.93 -1.59,-47.3 -15.5,-59.49 -12.03,-10.54 -26.97,-7.12 -40.23,-0.71 -19.62,9.49 -33.85,25.22 -44.17,44.21 -12.9,23.73 -16.98,51.87 -16.98,78.57zm257.37 -154.47c8.75,-4.23 17.52,-8.42 26.27,-12.65 10.67,-5.15 32.03,-15 40.74,-22.84 5,-4.51 8.93,-9.9 11.63,-16.07 2.93,-6.69 4.15,-13.82 4.15,-21.1 0,-4.79 -0.57,-12.39 -4.32,-15.95 -3.21,-3.05 -8.2,-2.27 -12.05,-1.1 -9.7,2.96 -24,10.62 -33.27,15.11 -11.04,5.34 -22.14,10.55 -33.16,15.92 0,19.56 0,39.12 0,58.68zm1138.94 -607.39c0,17.36 0,34.72 0,52.09 7.5,-3.59 15,-7.17 22.49,-10.78 10.7,-5.16 23.26,-10.86 33.37,-17.06 6.9,-4.24 12.69,-9.86 16.76,-16.88 4.1,-7.07 6.17,-14.25 6.17,-22.44 0,-4.3 -0.48,-10.99 -3.96,-14.09 -3,-2.66 -8.73,-1.17 -12.04,-0.06 -12.17,4.08 -27.46,12.15 -39.11,17.76 -7.9,3.8 -15.77,7.69 -23.69,11.46zm0 111.64c0,20.89 0,41.77 0,62.66 11.7,-5.63 23.42,-11.2 35.12,-16.83 9.39,-4.52 22.92,-10.6 31.33,-16.66 6.5,-4.67 11.31,-10.5 15.16,-17.51 4.12,-7.53 5.82,-15.74 5.82,-24.29 0,-5 -0.58,-11.43 -3.81,-15.51 -2.44,-3.07 -5.86,-4.11 -9.71,-3.9 -8.54,0.46 -31.41,11.61 -39.28,15.39 -11.54,5.55 -23.08,11.1 -34.63,16.64z"/>
  </g>
 </g>
</svg>
