<?xml version="1.0" encoding="UTF-8"?>
<!DOCTYPE svg PUBLIC "-//W3C//DTD SVG 1.1//EN" "http://www.w3.org/Graphics/SVG/1.1/DTD/svg11.dtd">
<!-- Creator: CorelDRAW 2020 (64 Bit) -->
<svg xmlns="http://www.w3.org/2000/svg" xml:space="preserve" width="101.23mm" height="104.904mm" version="1.1" style="shape-rendering:geometricPrecision; text-rendering:geometricPrecision; image-rendering:optimizeQuality; fill-rule:evenodd; clip-rule:evenodd"
viewBox="0 0 229.82 238.16"
 xmlns:xlink="http://www.w3.org/1999/xlink"
 xmlns:xodm="http://www.corel.com/coreldraw/odm/2003">
 <defs>
  <style type="text/css">
   <![CDATA[
    .str0 {stroke:#373435;stroke-width:9.97;stroke-miterlimit:2.6131}
    .str1 {stroke:#373435;stroke-width:3.24;stroke-linecap:round;stroke-linejoin:round;stroke-miterlimit:2.6131}
    .fil1 {fill:none}
    .fil0 {fill:#FEFEFE}
    .fil2 {fill:#373435}
   ]]>
  </style>
 </defs>
 <g id="Camada_x0020_1">
  <metadata id="CorelCorpID_0Corel-Layer"/>
  <g id="_2004213366736">
   <path class="fil0" d="M114.91 231.17c-24.27,-23.92 -43.82,-29.31 -63.7,-37.42 -42.61,-17.38 -56.38,-44.6 -38.74,-76.85 19.56,-35.57 28.52,-47.03 6.87,-69.38l30.9 -40.81c23.72,15.3 45.75,14.62 64.67,2.92 18.92,11.7 40.95,12.38 64.67,-2.92l30.9 40.81c-21.66,22.35 -12.69,33.81 6.87,69.38 17.64,32.25 3.87,59.47 -38.74,76.85 -19.88,8.11 -39.43,13.51 -63.7,37.42z"/>
   <path class="fil1 str0" d="M114.91 231.17c-24.27,-23.92 -43.82,-29.31 -63.7,-37.42 -42.61,-17.38 -56.38,-44.6 -38.74,-76.85 19.56,-35.57 28.52,-47.03 6.87,-69.38l30.9 -40.81c23.72,15.3 45.74,14.62 64.67,2.92 18.92,11.71 40.95,12.38 64.67,-2.92l30.9 40.81c-21.66,22.35 -12.69,33.81 6.87,69.38 17.64,32.25 3.87,59.47 -38.74,76.85 -19.88,8.11 -39.43,13.51 -63.7,37.42z"/>
   <path class="fil2" d="M5.01 141.75l176.43 -132.61 28.98 38.27 -180.23 135.47c-17.14,-11.34 -25.67,-25.3 -25.18,-41.13z"/>
   <path class="fil2" d="M114.91 231.17c-7.27,-7.17 -14.12,-12.67 -20.67,-17.08l0 -124.6 44.31 0 0 122.67c-7.46,4.71 -15.27,10.76 -23.64,19.01zm-31.75 -23.73c-11.05,-5.89 -21.45,-9.42 -31.95,-13.7 -9.71,-3.96 -17.92,-8.44 -24.61,-13.36l0 -46.58 56.56 0 0 73.64zm107.38 -20.74c-4.45,2.5 -6.56,4.85 -11.93,7.04 -9.74,3.97 -19.4,7.29 -29.57,12.46l0 -158.11 41.5 0 0 138.61z"/>
   <path class="fil0" d="M42.52 150.9l6.78 -4.09c0,1.7 0.6,3.09 2.59,3.59 1.7,0.5 8.08,-3.69 9.48,-6.38 2,-3.59 1.4,-9.78 -1,-9.78 -2.89,0 -9.38,7.08 -13.57,7.08 -0.5,0 -3.09,0.8 -4.09,-3.19 -0.2,-1 -0.2,-11.07 -0.2,-12.97 0,-8.18 3.09,-9.88 9.78,-14.17 2.29,-1.5 8.08,-4.19 11.97,-4.99l1.2 -4.19 4.29 -2.39 0 15.07 -6.49 2.49c0,-1.5 -1.2,-1.9 -1.7,-1.9 -2.59,0.5 -7.08,3.19 -9.68,6.29 0,0 -1.8,6.79 0.4,8.48 1.2,1 11.07,-8.08 14.97,-7.08 0,0 3.09,1.1 3.39,2 1.2,3.39 1,16.56 0,18.76 -2,4.69 -10.68,10.18 -14.97,12.17 -0.2,0 -6.29,1.7 -7.58,3.39l0 3.49 -5.69 3.29 0.1 -14.97zm50.38 -67.15l30.83 -22.75 0 13.17 -6.09 3.99 0 -1.8c0,-1 -0.4,-2.89 -0.4,-3.09 0,-0.3 -0.5,-0.4 -1,-0.4 -0.7,0 -8.58,6.39 -10.68,8.58l0 12.17 6.88 -4.99 0 7.68 -6.98 4.79 0.1 5.99c0,0.8 -0.4,3.79 1.7,3.59 0.4,0 2.89,-2.39 4.49,-3.29l0.2 5.79 -18.76 13.77 0 -5.69c2.39,-1.6 3.79,-2.39 3.79,-6.29l0 -24.54c0,-2.89 -1.2,-3.49 -3.99,-2.49l-0.1 -4.19zm70.84 -39.61l0.3 -2.89c0.3,-2.1 -1,-2.69 -2.79,-1.7 -1.6,0.9 -4.49,2.1 -7.68,4.69 -1.6,1.4 -1.9,4.99 -1.9,7.88l0 17.46c0,4.69 2.2,4.49 2.2,4.49 3.89,-0.3 9.98,-4.99 9.88,-6.88l-0.2 -7.78 7.78 -5.49 -0.4 12.07c-0.1,4.99 -7.18,9.58 -12.27,13.27 -3.69,2.69 -7.38,4.79 -9.18,5.79 -4.39,2.2 -7.58,0.7 -7.58,-7.58l-0.1 -18.66c0,-16.46 4.29,-19.26 15.27,-25.04 1.3,-0.9 4.79,-2.1 7.08,-1.9 0.5,-1 0.2,-4.39 1.3,-5.89l5.89 -3.19 -0.2 15.66 -7.38 5.69z"/>
   <path class="fil2" d="M67.71 28.27c14.29,0 25.95,11.65 25.95,25.95 0,14.29 -11.65,25.95 -25.95,25.95 -14.29,0 -25.95,-11.66 -25.95,-25.95 0,-14.29 11.65,-25.95 25.95,-25.95z"/>
   <path class="fil1 str1" d="M67.71 28.27c14.29,0 25.95,11.65 25.95,25.95 0,14.29 -11.65,25.95 -25.95,25.95 -14.29,0 -25.95,-11.66 -25.95,-25.95 0,-14.29 11.65,-25.95 25.95,-25.95z"/>
   <path class="fil0" d="M184.03 48.67c2.57,0 4.67,2.09 4.67,4.66 0,2.57 -2.1,4.66 -4.67,4.66 -2.57,0 -4.66,-2.1 -4.66,-4.66 0,-2.57 2.09,-4.66 4.66,-4.66z"/>
   <path class="fil0" d="M132.72 87.74c2.57,0 4.67,2.09 4.67,4.66 0,2.57 -2.1,4.66 -4.67,4.66 -2.57,0 -4.66,-2.1 -4.66,-4.66 0,-2.57 2.09,-4.66 4.66,-4.66z"/>
   <path class="fil0" d="M82.58 125.05c2.57,0 4.66,2.09 4.66,4.66 0,2.57 -2.1,4.66 -4.66,4.66 -2.57,0 -4.66,-2.1 -4.66,-4.66 0,-2.57 2.09,-4.66 4.66,-4.66z"/>
   <path class="fil0" d="M80.24 31.51c7.74,4.3 13.08,12.45 13.39,21.83l-13.39 0 0 -21.83zm8.7 37.57c-4.44,6.32 -11.62,10.58 -19.78,11.03l0 -11.03 19.78 0zm-34.36 7.5c-6.63,-3.91 -11.38,-10.67 -12.55,-18.58l12.55 0 0 18.58zm-10.19 -33.74c3.94,-8.04 11.92,-13.76 21.27,-14.5l0 14.5 -21.27 0z"/>
  </g>
 </g>
</svg>
