<?xml version="1.0" encoding="UTF-8"?>
<!DOCTYPE svg PUBLIC "-//W3C//DTD SVG 1.1//EN" "http://www.w3.org/Graphics/SVG/1.1/DTD/svg11.dtd">
<!-- Creator: CorelDRAW 2020 (64 Bit) -->
<svg xmlns="http://www.w3.org/2000/svg" xml:space="preserve" width="281.394mm" height="338.883mm" version="1.1" style="shape-rendering:geometricPrecision; text-rendering:geometricPrecision; image-rendering:optimizeQuality; fill-rule:evenodd; clip-rule:evenodd"
viewBox="0 0 4318.97 5201.36"
 xmlns:xlink="http://www.w3.org/1999/xlink"
 xmlns:xodm="http://www.corel.com/coreldraw/odm/2003">
 <defs>
  <style type="text/css">
   <![CDATA[
    .fil2 {fill:#FEFEFE}
    .fil0 {fill:#0D328B}
    .fil1 {fill:#FDF402}
   ]]>
  </style>
 </defs>
 <g id="Camada_x0020_1">
  <metadata id="CorelCorpID_0Corel-Layer"/>
  <g id="_2004215196656">
   <path class="fil0" d="M2217.24 2307.27l17.16 28.89c8.63,11.06 11.65,14.74 19.09,24.42 46.21,60.12 253.19,337.33 281.12,364.7l281.29 -212.89c17.1,-13.43 77.69,-61.45 93.06,-67.95 -9.56,-24.41 -27.19,-41.12 -43.03,-62.57 -13.75,-18.62 -28.66,-40.83 -44.35,-53.7 -19.37,10.92 -45.15,33.16 -62.68,45.95 -33.6,24.52 -152.29,121.8 -177.05,132.89 -10.95,-19.13 -28.11,-34.11 -37.17,-53.88 17.17,-17.05 75.59,-55.53 84.69,-70.92 18.77,-7.95 106.1,-75.68 120.62,-91.51 -8.28,-14.58 -14.87,-20.28 -25.34,-35.32 -16.86,-23.26 -33.73,-50.02 -54.68,-67.43 -29.01,16.38 -77.54,56.76 -105.16,78.74 -20.17,16.06 -87.82,70.74 -107.16,77.8 -11.49,-19.03 -24.78,-32.25 -36.93,-53.79 37.86,-34.83 137.9,-106.8 189.63,-146.45 4.03,-3.09 8.32,-6.16 11.87,-9.46l8.36 -9.78 16.68 -8.62c-4.83,-15.34 -61.89,-91.56 -76.27,-100.18 -4.33,-12.82 4.64,-4.2 -9.32,-14.4l-232.62 175.41c-10.71,8.46 -64.03,46.15 -69.08,57.05 -22.36,9.81 -54.75,34.12 -65.42,51.96l18.86 18.41c0.84,0.65 2.55,1.74 3.8,2.63zm1230.06 -1314.86c14.43,-5.6 10.4,-2.77 23.58,-12.61 12.61,-9.42 7.89,-3.97 16.01,-18.26 19.74,-4.13 58.93,-37.31 73.44,-51.56 -10.09,-47.29 -18.92,-68.48 -19.96,-124.51 -0.96,-52.02 10.3,-89.29 12,-134.71 -63.64,-24.95 -192.96,-94.55 -292.96,-135.56 -739.37,-303.17 -1415.37,-292.26 -2154,-0.4 -48.34,19.1 -104.46,41.89 -151.23,65.43 -40.72,20.5 -106.41,55.04 -147.62,70.08 -17.36,283.47 -0.43,483.81 -120.63,755.65 -23.57,53.31 -48.85,94.75 -80.65,141.06 -8.8,12.82 -25.24,29.58 -28.57,44.58l-32.04 30.27c-11.05,12.17 -17.22,19.67 -28.7,30.85l-62.22 59.57c-24.06,10.57 -54.19,37.51 -83.22,54.91 -20.18,12.1 -75.79,39.45 -89.55,52.44 1.25,164.8 55.12,530.54 88.18,697.91 43.55,220.49 99.82,414.76 173.59,611.76l10.1 17.21c13.56,-7.16 8.73,-3.94 20.33,-14.62l19.97 -18.06c24.08,-9.61 38.97,-24.99 60.03,-40.4 18.47,-13.51 34.86,-23.87 51.06,-40.94 13.66,-5.34 0.6,0.99 14.28,-7.48 3.59,-2.22 12.39,-8.68 15.96,-11.26 12.59,-9.08 18.67,-11.62 28.04,-23.5l116.88 -89.45c18.31,-4.3 248.11,-180.94 286.12,-208.56 34.46,-25.04 261.55,-198.36 291.53,-212.32 4,-13.58 10.48,-7.55 31.22,-30.11 0.78,-0.85 2.03,-2.51 3.05,-3.76 18.85,-5.06 503.74,-370.4 562.45,-414.08 93.19,-69.33 186.44,-138.2 279.65,-207.65 264.78,-196.64 491.15,-365.27 754.66,-560.96 58.51,-46.81 121.65,-88.69 180.64,-133.73l170.58 -126.98c8.17,-7.82 5.86,-6.37 7.98,-10.26zm217.12 2967.57c8.81,-5.48 4.23,-0.88 11.2,-8.1 1.78,-1.84 5.93,-7.58 7.15,-9.33 5.61,-8.01 7.67,-11.26 12.58,-23.73 0.89,-0.52 2.2,-2.62 2.48,-1.86l9.39 -9.68c5.07,-6.57 6.61,-10.02 10.79,-16.37l153.36 -247.26c21.66,-37.93 146.07,-274.08 145.62,-304.92 1.11,-1.23 2.7,-4.74 3.18,-3.82 0.46,0.89 2.41,-2.75 3.01,-3.73l15.82 -34.45c6.26,-14.92 11.34,-29.08 16.92,-42.85 12.96,-31.96 27.29,-60.84 33.68,-94.62 19.65,-19.43 90.22,-270.95 104.19,-325.1 115.53,-447.75 119.49,-715.31 125.18,-1168.85 -12.86,-10.54 -111.87,-60.1 -125.04,-60.93l-39.7 -29.1c-373.69,-237.96 -335.38,-695.26 -319.43,-1089.1 -250.99,-110.52 -376.61,-206.45 -672.05,-312.94 -114.79,-41.38 -225.75,-71.28 -349.11,-100.39 -648.24,-152.99 -1293.26,-54.45 -1892.96,197.36 -153.79,75.21 -302.94,149.95 -455.03,226.74l8.64 43.95c26.52,113.98 47.15,220.43 51.84,347.44 2.28,61.67 0.12,127.55 -9.2,186.44 -42.14,266.15 -266.7,487.27 -516.95,571.13l4.58 134.53c4.6,474.63 117.55,1064.68 302.83,1497.34l81.73 175.24c9.49,56.98 290.65,532.7 354.39,584.04 2.12,12.21 76.11,106.03 86.6,114.4 9.28,7.41 0.12,2.24 8.74,5.27 8.93,19.78 28.14,40.82 42.45,57.51l19.95 16.66c2.29,11.07 -1.64,1.24 5.64,12.29l30.58 33.81c8.73,7.2 1.69,2.67 7.78,5.13 17.3,27.25 117.67,131.63 140.94,146 15.2,28.41 55.48,58.36 79.33,81.74 16.17,15.85 24.83,20.15 42.63,38.29 14.71,15 29.16,30.41 50.48,39.84 2.48,10.15 -1.45,2.22 6.69,11.69 3.28,3.82 7.43,6.94 11.38,10.34 14.86,12.8 12.95,14.79 28.24,17.38 10.4,20.64 1.38,7.62 19.28,21.86 9.9,7.88 11.47,10.03 20.34,17.62 17.53,14.98 23.56,24.69 43.55,26.7 1.57,15.56 1.38,10.06 16.9,21.34 31.45,22.86 39.15,39.99 65.2,42.46 7.84,24.59 134.81,106.92 152.43,116.35 9.98,12.56 33.81,29.55 48.51,31l22.26 19.67c23.61,14.18 35.35,27.94 63.36,36.79 7.78,12.47 26.3,21.33 38.85,28.76 32.09,18.99 110.75,75.16 135.42,77.27l223.55 127.24c32.97,17.63 40.76,-2.11 76.19,-18.55 13.21,-7.45 25.55,-9.65 33.85,-20.53 53.56,-21.67 342.14,-194.52 386.2,-231.97 35,-19.74 219.2,-148.61 261.68,-186.2 18.84,-16.67 6.67,-1.55 10.73,-16.64 24.44,-2.06 22.05,-8.95 41.45,-23.5l28.96 -26.89c0.49,-2.17 1.74,-2.62 2.6,-3.93 9.21,-2.37 -1.42,5.53 16.34,-7.92 1.6,-1.21 6.64,-6.28 7.59,-7.39 6.3,-7.36 3.66,-4.34 5.38,-8.09 21.59,-10.75 66.07,-50.08 78.88,-66.98 8.18,-0.7 11.21,4.96 4.12,-4.21l22.89 -16.33c7.4,-5.83 10.29,-8.87 18.61,-15.57l0 -5.54 2.12 -6.86 0 0 -2.12 6.86c16.47,-8.77 58.24,-46.09 67.58,-63.59 16.33,-0.51 12.67,3.13 13.72,-11.89 23.79,-11.57 60.46,-55.7 77.77,-75.88 10.51,-3.26 7.28,-2.7 19.67,-14.55 3.45,-3.3 7.57,-7.26 10.45,-11.06 8.53,-11.3 4.22,-4.5 6.95,-12.38 14.28,-7.77 4.85,-0.73 17.18,-12.52 6.54,-6.25 6.81,-7.31 12.76,-14.12 11.18,-12.79 17.09,-18.37 27.42,-33.37 11.94,-12.57 22.89,-21.33 36.77,-38.27 18.01,-22 25.37,-21.33 37.11,-46.95l2.66 -2.96c9.24,-5.76 6.4,-2.25 16.36,-12.94 6.2,-6.65 8.46,-10.82 14.35,-18.09 13.77,-17 17.37,-16.96 25.95,-36.65 17.5,-8.69 126.24,-152.46 127.64,-169zm-2015.48 588.89c9.95,12.36 14.11,13.49 26.04,19.86l28.1 -64.63c2.08,-2.31 54.47,-79.15 57.43,-85.44l-277.99 -339.39c-29.51,-36.29 -60.92,-75.08 -89.96,-109.25l-130.55 96.46c-12.17,9.28 -33.03,21.19 -38.16,32.76 -17.04,8.84 -45.22,25.21 -54.97,44.98 10.75,6.62 13.06,8.66 25.5,14.31 7.22,13.71 90.43,85.03 108.65,100.08l226.83 195.72c20.57,18.57 38.92,32.11 59.64,48.65 23.01,18.38 34.39,32.24 59.44,45.9zm-546.01 -259.11c-12.71,-17.8 -27.46,-31.08 -42.24,-48.66 -7.64,-9.09 -12.17,-15.34 -19.92,-23.59 -9.21,-9.81 -15.15,-13.49 -25.41,-19.62 -5.3,-21.13 -27.17,-35.12 -44.12,-56.68l-140.06 -173.89c-330.36,-438.57 -526.83,-927.3 -635.66,-1476.23 -43.97,-221.8 -81.41,-534.4 -77.28,-768.92 23.63,-20.52 166.65,-84.34 201.14,-124.78 19.32,-8.27 84.75,-59.82 95.35,-82.39 32,-15.42 109.99,-123.89 133.73,-170.87 134.76,-266.71 101.47,-506.85 49.09,-786.49 150.38,-98.36 511.01,-244.08 693.46,-300.96 709.88,-221.33 1416.64,-175.98 2089.23,127.14 58.57,26.39 114.39,51.22 169.63,79.71 54.02,27.86 113.11,64.09 164.41,88.03 -3.29,359.32 -34.72,730.03 241.23,1011.48 30.77,31.38 73.63,66.84 115.22,95.87l132.48 79.52c15.37,230.4 -21.91,573.42 -62.16,793.8 -44.63,244.34 -106.9,456.95 -189.75,671.93 -38.9,100.93 -86.42,201.56 -134.26,293.22 -48.04,92.06 -104.06,194.37 -158.79,274.65 -95.03,139.39 -170.63,241.92 -276.81,367.36l-207.52 220.09c-19.39,18.46 -35.81,34.39 -56.34,51.86l-114.23 102.49c-164.21,151.32 -503.98,379.33 -697.17,488.37 -148.62,83.88 -105.02,95.34 -277.61,-7.27 -273.33,-162.49 -395.12,-243.34 -637.07,-440.34l-116.56 -96.48c-8.83,-17.94 -0.65,-6.91 -15.81,-20.42l-98.83 -95.59c-13.29,-11.72 -3.27,-5.06 -19,-11.92 -2.41,-12.85 3.29,1.96 -3.83,-9.59 -3.29,-5.33 -5.27,-7.35 -9.25,-11.42 -7.84,-8.04 -12.83,-12.21 -25.31,-19.42zm455.35 -443.32l-45.59 33.06c-19.79,10.55 -27.92,15.19 -38.59,30.19 12.5,17.54 21.55,31.2 39.65,43.35 4.18,20.38 122.43,155.78 135.18,170.84 31.15,36.8 113.23,140.63 138.95,163.71 10,20.58 28.68,35.72 40.86,57.55 18.28,-6.55 16.4,-5.11 29.51,-18.53 -2.97,-21.99 -11.61,-25.67 -19.21,-46.69 -25.73,-45.23 -167.16,-346.08 -180.51,-355.15l-52.74 -114.41c-13.44,6.46 -17.31,8.58 -26.69,15.63l-20.81 20.45zm140.89 -71.95l251.43 498.73 31.29 -17.14 -148.35 -599.89 -4.12 -18.87 -20.78 18.53c-26.7,9.3 -67.18,49.29 -93.18,66.29 -13.77,13.66 -18.38,13.84 -31.04,24.1l14.76 28.25zm379.09 456.59l43.13 -5.71 -0.34 -807.25c-34.7,22.98 -68.71,48.78 -101.36,73.85 -27.25,20.92 -74.54,61.31 -103.45,76.19l162.03 662.91zm1393.45 -568.13c-20.84,8.67 -275.88,264.89 -285.25,280.7 -14.75,8.39 -19.83,15.6 -32.4,27.76 -14.04,13.57 -19.89,15.85 -28.91,33.15l-290.11 281.35c-26.52,25.71 -75.55,68.16 -94.91,94.75 -16.24,10.99 -27.36,24.68 -42.16,38.9 -8.79,8.44 -13.43,12.91 -21.97,21.3 -13.14,12.91 -9.77,7.23 -17.52,23.21 -8.57,2.16 -3.92,0.62 -12.71,6.15 -8.52,5.35 0.42,0.17 -10.21,7.72l27.88 50.33 11.21 35.89 20.2 -15.17c27.32,-14.7 64.58,-46.07 89.03,-65.01 27.67,-21.43 55.59,-43.61 81.02,-65.31 53.37,-45.55 109.45,-90.83 157.36,-138.18 10.18,-9.24 14.63,-13.4 23.94,-21.78 4.74,-4.27 8,-6.25 11.38,-9.98 10.36,-11.43 3.84,-3.26 9.95,-15.58l1.83 -1.23c32.81,-24.19 37.34,-39.21 66.55,-62.06 6.27,-4.91 7.12,-3.53 11.34,-10.3 8.39,-13.47 1.27,9.08 3.17,-13.42 16.29,-3.45 0.66,6.64 17.75,-8.89l35.37 -40.74c18.95,-21.37 32.71,-29.02 44.72,-54.33 32.4,-18.36 154.32,-183.75 175.5,-212.63 21.94,-29.91 145.62,-206.4 149.94,-232.51l21.12 -29.78c6.07,-10.61 10.53,-16.81 12.34,-30.99 -20.34,2.83 -44,30.13 -53.25,46.43l-43.45 40.72c-15.7,10.13 -29.47,22.88 -38.75,39.53zm-1012.76 -498.16c-19.78,2.6 -45.32,29.87 -63.16,42.88 -19.83,14.46 -40.08,29.22 -58.82,43.99l-115.22 89.49 0.73 881.47 30.58 4.16 35.75 -135.26c10.24,-44.81 20.33,-87.65 30.7,-131.83 58.35,-248.58 122.57,-561.43 185.42,-794.44l7.44 -44.47c-17.36,9.99 -41.21,26.65 -53.43,44.01zm-740.83 -348.86c36.34,-35.92 124.03,-114.76 166.16,-53.53 42.12,61.22 -91.37,134.89 -103.37,139.69 -17.55,-28.18 -47.03,-57.12 -62.79,-86.16zm-189.35 487.32c9.07,21.56 70.43,96.12 90.78,120.08 20.81,-6.6 117.64,-82.59 128.58,-98.42 -14.74,-19.14 -28.66,-39.34 -45.78,-60.84 -14.34,-18.02 -31.75,-40.65 -42.49,-58.44 -19.62,7.7 -49.44,32.27 -68.95,47.18 -15.59,11.92 -50.89,36.61 -62.15,50.45zm-264.4 -162.27c-32.8,-56.8 -157.45,-38.22 -238.87,17.53 -217.94,149.22 -112.29,370.51 47.12,350.33 62.99,-7.97 200.53,-86.31 245.78,-66.8 54.13,33.31 -29.25,127.49 -92.65,114.73 -26.76,-5.38 -26.96,-18.18 -44.78,-29.49 -25.06,17 -123.54,86.31 -135.03,107.38 80.26,77.04 145.49,99.36 265.76,37.79 266.2,-136.29 195.52,-400.8 26.32,-402.08 -98.73,-0.75 -214.37,97.05 -282.41,72.16 -20.92,-59.27 64.2,-119.76 119.94,-70.57 12,-5.97 22.77,-12.84 30.68,-22.49 27.71,-19.69 68.29,-56.11 96.12,-68.3 -7.67,-24.5 -17.66,-31.46 -37.98,-40.21zm769.77 -353.22l-6.08 -1.48c38.67,-194.07 -130.51,-261.66 -247.03,-187.99 -26.21,16.57 -47.74,35.58 -71.73,52.89l-207.45 161.53c-0.43,-0.91 -1.8,2.08 -2.57,3.21l253.3 332.5c15.42,19.94 27.39,35.13 42.21,55.33 11.85,16.14 32.49,39.53 40.86,55.58l139.41 -104.38 -115.82 -154.94c14.24,-15.99 44.43,-36.7 62.27,-49.93 98.17,-72.78 129.68,56.28 202.62,92.46l112.38 -88.67 21.65 -15.73 -25.73 -13.96c-4.72,-13.78 -41.82,-43.71 -41.85,-43.82 -0.35,-1.38 -1.79,-1.34 -2.78,-1.86 -6.71,-18.19 -12.5,-23.17 -26.24,-35.98 -8.31,-7.76 -9.99,-7.77 -18.5,-14.68 -11.53,-9.36 -6.57,-2.57 -9.15,-11.4 -43.45,-18.08 -42.33,-25.36 -99.77,-28.7zm955.97 -840.26l39.21 59.45c5.74,7.19 1.52,3.66 7.05,9.28 12.89,13.09 0.19,2.98 14.77,10.58 2.11,11.16 -2.77,3.07 7.9,15.37 4.77,5.51 11.57,9.91 17.93,14.81 109.64,84.4 220.85,94.3 337.04,14.1 83.75,-57.81 137.6,-148.14 117.8,-257.72 -8,-44.29 -26.56,-62.31 -37.42,-92.68 -32.8,12.69 -106.39,83.97 -137.98,97.98 6.47,29.41 23.41,55.5 14.66,90.44 -5.82,23.25 -33.98,49.5 -55.15,57.75 -99.96,38.95 -234.08,-133.82 -192.5,-224.57 23.95,-52.27 95.09,-74.72 146.4,-25.79 19.48,-7.66 122.89,-82.52 136.7,-104.68 -217.93,-226.94 -566.74,82.29 -416.41,335.69zm665.57 -165.52c12.31,14.79 28.66,41.93 43.08,53 15.96,-7.66 14.93,-8.35 26.26,-21.17 17.76,-6.4 88.61,-62.19 101.69,-76.19 -23.23,-32.54 -65.97,-94.18 -95.11,-122.01 -33.48,24.85 -93.24,77.47 -126.34,93.66 7.87,22.94 35.49,53.81 50.42,72.7zm-729.32 515.56c21.53,23.09 44.22,56.95 60.72,80.05l59.62 -41.25c19.99,-15.89 55.06,-38.85 70.56,-56.46l-18.34 -27.99c-8.88,-8.99 -4.98,-5.43 -10.18,-8.13 -15.43,-29.45 -44.16,-63.12 -65.19,-86.42 -17.32,13.86 -58.17,40.62 -70.99,56.64 -13.7,6.71 -17.69,10.62 -30.31,20.37l-24.45 23.87c9.1,12.38 20.59,27.09 28.58,39.32zm-646.1 434.25c-24.71,4.6 -23.25,18.66 -55.77,33.75 6.21,22.17 77.09,111.84 93.55,126.05 17.51,-8.16 113.6,-83.32 126.84,-97.83l-18.99 -24.39c-17.95,-25.97 -60.99,-79.09 -67.85,-96.69 -20.08,5.96 -30.89,16.93 -43.11,26.41 -8.28,6.42 -12.22,8.73 -18.53,13.91 -12.1,9.94 -9.99,9.3 -16.13,18.78zm878.92 -98.54c-20.39,6.19 -384.92,285.18 -431.01,322.08 -116.79,93.52 -80.88,30.83 -116.16,181.57 -9.46,40.4 -18.76,79.12 -27.89,118.61 -37.67,162.84 -75.55,325.46 -113.48,487.71 -36.97,158.12 -82.04,325.48 -112.07,483.92l-3.74 25.69 37.66 9.46 7.37 -19.86 779.21 -1558.25c11.07,-13.64 43.29,-74.15 42.82,-94.66 -18.4,1.04 -21.98,7.77 -34.74,17.97 -12.46,9.95 -19.58,12.23 -27.97,25.77zm-551.2 1742.7c88.47,-90.02 176.63,-169.36 264.77,-258.05 44.79,-45.07 78.83,-76.52 129.83,-130.06 28.64,-30.07 111.68,-99.44 126.01,-127.11 14.74,-8.23 15.43,-10.5 27.58,-22.59 4.77,-4.75 9.87,-8.89 13.65,-13.37 8.81,-10.44 3.79,-3.97 9.29,-15.05 22.97,-6.36 294.91,-287.25 296.81,-290.71 14.11,-8.15 14.61,-10.61 26.48,-22.17 13.8,-13.43 14.76,-10.77 23.54,-28.1 9.38,-2.89 -0.17,1.71 9.3,-4.63 1.15,-0.77 4.55,-3.46 5.71,-4.43l176.28 -175.82c54.72,-53.58 41.22,-35.5 73.94,-116.02 117.17,-288.26 142.33,-435.23 205.41,-734.86 -0.42,-19.58 2.68,-7.64 -5.41,-17.11l-12.31 11.57 -346.06 479.65c-29.76,42.61 -56.39,80.91 -85.92,119.77 -80.22,105.54 -178.64,251.12 -257.26,360.11 -115.67,160.34 -230.08,320.99 -343.19,479.85l-339.2 480.64c-13.74,9.88 -35.35,31.55 -32.6,52.79 18.8,-0.03 24.44,-10.27 33.38,-24.3zm1373.47 -2364.92c-26.23,6.91 -346.39,257.22 -378.26,281.32l-120.49 94.15c-15.68,9.28 -18.17,11.4 -33.23,23.01 -15.99,12.32 -20.89,13 -32.94,29.59 -8.28,4.02 -2.91,-2.14 -12.04,12.08 -2.74,4.27 -4.97,9.94 -7.2,14.53 -144.06,296.6 -302.57,596.14 -448.29,894.4 -154.14,315.48 -314.53,622.33 -465.19,930.83l-8.75 19.43c11.68,11.37 10.14,11.57 25.66,19.75l29.25 -46.79c9.39,-3.08 20.6,-23.28 26.76,-32.02l275.43 -385.39c32.54,-43.9 68.6,-92.18 98.72,-137.67 12.35,-19.46 23.83,-27.64 30.52,-48.62 15.91,-10.05 390.04,-540.43 437.68,-605.65 49.23,-67.4 97.28,-132.77 144.63,-201.89 23.67,-34.55 48.07,-68.87 72.31,-100.97 107.45,-142.32 253.24,-355.26 361.24,-505.18 77,-106.88 52.07,-99.73 69.21,-273.05l1.63 -27.05c-1.09,-0.44 -2.97,-2.56 -3.45,-1.28l-63.23 46.48z"/>
   <polygon class="fil1" points="2110.48,654.4 2215.23,978.93 2556.26,978.28 2279.98,1178.2 2385.98,1502.33 2110.48,1301.35 1834.97,1502.33 1940.97,1178.2 1664.69,978.28 2005.72,978.93 "/>
   <path class="fil2" d="M1457.07 2479.94c-29.98,13.95 -257.08,187.28 -291.53,212.32 -38,27.61 -267.81,204.26 -286.12,208.56l-116.88 89.45c-9.37,11.88 -15.46,14.42 -28.04,23.5 -3.58,2.58 -12.38,9.04 -15.96,11.26 -13.68,8.47 -0.62,2.14 -14.28,7.48 -16.2,17.07 -32.59,27.43 -51.06,40.94 -21.06,15.41 -35.95,30.78 -60.03,40.4l-19.97 18.06c-11.6,10.68 -6.77,7.46 -20.33,14.62l-10.1 -17.21c-73.78,-197 -130.04,-391.27 -173.59,-611.76 -33.06,-167.37 -86.93,-533.11 -88.18,-697.91 13.76,-12.98 69.37,-40.34 89.55,-52.44 29.03,-17.4 59.16,-44.35 83.22,-54.91l62.22 -59.57c11.48,-11.18 17.65,-18.68 28.7,-30.85l32.04 -30.27c3.33,-15 19.76,-31.76 28.57,-44.58 31.8,-46.31 57.08,-87.75 80.65,-141.06 120.19,-271.84 103.26,-472.18 120.63,-755.65 41.21,-15.03 106.9,-49.58 147.62,-70.08 46.77,-23.54 102.89,-46.33 151.23,-65.43 738.64,-291.87 1414.63,-302.77 2154,0.4 100,41.01 229.32,110.6 292.96,135.56 -1.7,45.42 -12.97,82.69 -12,134.71 1.04,56.03 9.87,77.23 19.96,124.51 -14.51,14.25 -53.7,47.43 -73.44,51.56 -8.13,14.28 -3.41,8.83 -16.01,18.26 -13.18,9.85 -9.15,7.01 -23.58,12.61 -2.12,3.9 0.19,2.44 -7.98,10.26l-170.58 126.98c-58.99,45.03 -122.13,86.92 -180.64,133.73 -263.5,195.69 -489.88,364.32 -754.66,560.96 -93.22,69.44 -186.46,138.32 -279.65,207.65 -58.71,43.67 -543.6,409.01 -562.45,414.08 -1.01,1.26 -2.26,2.92 -3.05,3.76 -20.74,22.56 -27.21,16.53 -31.22,30.11zm427.2 282.46c-42.13,-61.23 -129.82,17.6 -166.16,53.53 15.77,29.04 45.24,57.98 62.79,86.16 12,-4.8 145.49,-78.47 103.37,-139.69zm-811.67 746.44c-159.41,20.17 -265.05,-201.12 -47.12,-350.33 81.43,-55.75 206.07,-74.33 238.87,-17.53 20.32,8.75 30.31,15.71 37.98,40.21 -27.83,12.19 -68.41,48.61 -96.12,68.3 -7.91,9.65 -18.68,16.52 -30.68,22.49 -55.74,-49.19 -140.87,11.29 -119.94,70.57 68.04,24.89 183.68,-72.91 282.41,-72.16 169.2,1.28 239.88,265.79 -26.32,402.08 -120.27,61.58 -185.5,39.25 -265.76,-37.79 11.49,-21.07 109.97,-90.38 135.03,-107.38 17.82,11.3 18.02,24.1 44.78,29.49 63.4,12.76 146.77,-81.42 92.65,-114.73 -45.26,-19.51 -182.8,58.82 -245.78,66.8zm679.97 -360.41l-253.3 -332.5c0.77,-1.13 2.14,-4.12 2.57,-3.21l207.45 -161.53c23.99,-17.31 45.52,-36.32 71.73,-52.89 116.51,-73.67 285.69,-6.08 247.03,187.99l6.08 1.48c57.45,3.34 56.33,10.62 99.77,28.7 2.58,8.83 -2.38,2.04 9.15,11.4 8.51,6.91 10.19,6.93 18.5,14.68 13.74,12.82 19.52,17.79 26.24,35.98 0.99,0.51 2.44,0.47 2.78,1.86 0.03,0.1 37.13,30.03 41.85,43.82l25.73 13.96 -21.65 15.73 -112.38 88.67c-72.93,-36.18 -104.44,-165.25 -202.62,-92.46 -17.84,13.23 -48.03,33.94 -62.27,49.93l115.82 154.94 -139.41 104.38c-8.37,-16.04 -29.01,-39.43 -40.86,-55.58 -14.83,-20.2 -26.79,-35.39 -42.21,-55.33zm481.83 -812.26l-17.16 -28.89c-1.26,-0.89 -2.97,-1.98 -3.8,-2.63l-18.86 -18.41c10.67,-17.85 43.05,-42.16 65.42,-51.96 5.05,-10.9 58.37,-48.6 69.08,-57.05l232.62 -175.41c13.96,10.2 4.99,1.58 9.32,14.4 14.38,8.62 71.44,84.84 76.27,100.18l-16.68 8.62 -8.36 9.78c-3.55,3.3 -7.83,6.37 -11.87,9.46 -51.73,39.65 -151.77,111.63 -189.63,146.45 12.15,21.54 25.44,34.76 36.93,53.79 19.34,-7.06 86.99,-61.74 107.16,-77.8 27.61,-21.98 76.15,-62.36 105.16,-78.74 20.95,17.4 37.82,44.17 54.68,67.43 10.47,15.05 17.06,20.75 25.34,35.32 -14.52,15.84 -101.85,83.56 -120.62,91.51 -9.1,15.39 -67.52,53.88 -84.69,70.92 9.06,19.77 26.22,34.75 37.17,53.88 24.76,-11.09 143.46,-108.38 177.05,-132.89 17.53,-12.79 43.31,-35.03 62.68,-45.95 15.7,12.87 30.6,35.08 44.35,53.7 15.84,21.45 33.48,38.16 43.03,62.57 -15.37,6.5 -75.96,54.53 -93.06,67.95l-281.29 212.89c-27.93,-27.38 -234.91,-304.58 -281.12,-364.7 -7.44,-9.68 -10.45,-13.35 -19.09,-24.42zm-518.95 1385.97c26,-17 66.48,-57 93.18,-66.29l20.78 -18.53 4.12 18.87 148.35 599.89 -31.29 17.14 -251.43 -498.73 -14.76 -28.25c12.66,-10.27 17.27,-10.44 31.04,-24.1zm362.8 508.94l-162.03 -662.91c28.91,-14.89 76.2,-55.27 103.45,-76.19 32.65,-25.07 66.66,-50.86 101.36,-73.85l0.34 807.25 -43.13 5.71zm144.22 -8.47l-0.73 -881.47 115.22 -89.49c18.74,-14.77 38.98,-29.53 58.82,-43.99 17.84,-13.01 43.38,-40.28 63.16,-42.88 12.22,-17.35 36.06,-34.02 53.43,-44.01l-7.44 44.47c-62.85,233.01 -127.07,545.86 -185.42,794.44 -10.37,44.18 -20.46,87.02 -30.7,131.83l-35.75 135.26 -30.58 -4.16zm136.09 4.53c30.04,-158.44 75.1,-325.8 112.07,-483.92 37.93,-162.24 75.81,-324.87 113.48,-487.71 9.14,-39.49 18.44,-78.22 27.89,-118.61 35.28,-150.74 -0.63,-88.05 116.16,-181.57 46.09,-36.9 410.62,-315.89 431.01,-322.08 8.39,-13.54 15.52,-15.82 27.97,-25.77 12.76,-10.19 16.34,-16.93 34.74,-17.97 0.47,20.52 -31.75,81.02 -42.82,94.66l-779.21 1558.25 -7.37 19.86 -37.66 -9.46 3.74 -25.69zm125.24 63.79c150.66,-308.49 311.05,-615.35 465.19,-930.83 145.72,-298.26 304.24,-597.79 448.29,-894.4 2.23,-4.59 4.46,-10.26 7.2,-14.53 9.13,-14.22 3.76,-8.06 12.04,-12.08 12.05,-16.59 16.95,-17.27 32.94,-29.59 15.06,-11.61 17.54,-13.73 33.23,-23.01l120.49 -94.15c31.87,-24.1 352.03,-274.41 378.26,-281.32l63.23 -46.48c0.47,-1.29 2.35,0.83 3.45,1.28l-1.63 27.05c-17.15,173.32 7.78,166.17 -69.21,273.05 -108,149.92 -253.79,362.86 -361.24,505.18 -24.24,32.11 -48.64,66.42 -72.31,100.97 -47.35,69.11 -95.4,134.48 -144.63,201.89 -47.64,65.22 -421.78,595.6 -437.68,605.65 -6.69,20.98 -18.17,29.16 -30.52,48.62 -30.12,45.49 -66.18,93.77 -98.72,137.67l-275.43 385.39c-6.16,8.74 -17.37,28.94 -26.76,32.02l-29.25 46.79c-15.52,-8.18 -13.99,-8.38 -25.66,-19.75l8.75 -19.43zm1046.74 -823.22c0.02,0.02 -0.01,0.04 0,0zm-584.14 399.12c113.12,-158.85 227.53,-319.5 343.19,-479.85 78.62,-108.99 177.04,-254.57 257.26,-360.11 29.54,-38.86 56.16,-77.16 85.92,-119.77l346.06 -479.65 12.31 -11.57c8.09,9.47 5,-2.47 5.41,17.11 -63.07,299.63 -88.24,446.6 -205.41,734.86 -32.73,80.52 -19.22,62.44 -73.94,116.02l-176.28 175.82c-1.16,0.97 -4.56,3.66 -5.71,4.43 -4.19,2.81 -4.65,3.47 -4.68,3.59 -0.07,-0.06 -0.66,-0.17 -4.61,1.04 -8.78,17.32 -9.74,14.67 -23.54,28.1 -11.88,11.56 -12.37,14.02 -26.48,22.17 -1.9,3.46 -273.84,284.35 -296.81,290.71 -5.49,11.08 -0.47,4.61 -9.29,15.05 -3.79,4.49 -8.88,8.62 -13.65,13.37 -12.15,12.09 -12.84,14.36 -27.58,22.59 -14.33,27.66 -97.37,97.04 -126.01,127.11 -50.99,53.53 -85.03,84.99 -129.83,130.06 -88.14,88.68 -176.3,168.03 -264.77,258.05 -8.94,14.03 -14.58,24.27 -33.38,24.3 -2.75,-21.23 18.86,-42.91 32.6,-52.79l339.2 -480.64zm203.82 288.64c2.41,-2.33 0.57,3.72 0,0zm36.23 -211.82c9.37,-15.81 264.42,-272.03 285.25,-280.7 9.28,-16.65 23.05,-29.41 38.75,-39.53l43.45 -40.72c9.25,-16.29 32.91,-43.59 53.25,-46.43 -1.81,14.18 -6.27,20.38 -12.34,30.99l-21.12 29.78c-4.32,26.11 -128,202.59 -149.94,232.51 -21.18,28.88 -143.1,194.27 -175.5,212.63 -12.01,25.31 -25.77,32.95 -44.72,54.33l-35.37 40.74c-17.1,15.53 -1.46,5.44 -17.75,8.89 -0.43,5.15 -0.4,7.94 -0.18,9.34 -0.65,0.63 -1.61,1.87 -2.99,4.08 -4.22,6.77 -5.07,5.4 -11.34,10.3 -29.21,22.85 -33.74,37.87 -66.55,62.06l-1.83 1.23c-6.12,12.33 0.41,4.15 -9.95,15.58 -3.37,3.72 -6.64,5.71 -11.38,9.98 -9.31,8.38 -13.76,12.54 -23.94,21.78 -47.92,47.35 -104,92.63 -157.36,138.18 -25.42,21.7 -53.35,43.88 -81.02,65.31 -24.45,18.94 -61.71,50.31 -89.03,65.01l-20.2 15.17 -11.21 -35.89 -27.88 -50.33c10.63,-7.54 1.69,-2.36 10.21,-7.72 8.79,-5.52 4.14,-3.98 12.71,-6.15 7.75,-15.97 4.38,-10.29 17.52,-23.21 8.54,-8.39 13.18,-12.86 21.97,-21.3 14.8,-14.22 25.92,-27.91 42.16,-38.9 19.36,-26.59 68.4,-69.04 94.91,-94.75l290.11 -281.35c9.02,-17.3 14.87,-19.57 28.91,-33.15 12.57,-12.15 17.66,-19.37 32.4,-27.76zm-2045.76 381.45c0.09,-1.69 1.17,1.09 0,0zm2240.77 -185.72c106.18,-125.44 181.78,-227.97 276.81,-367.36 54.73,-80.29 110.75,-182.59 158.79,-274.65 47.83,-91.67 95.36,-192.29 134.26,-293.22 82.85,-214.98 145.12,-427.59 189.75,-671.93 40.25,-220.38 77.53,-563.39 62.16,-793.8l-132.48 -79.52c-41.59,-29.03 -84.45,-64.49 -115.22,-95.87 -275.95,-281.45 -244.52,-652.15 -241.23,-1011.48 -51.3,-23.94 -110.39,-60.17 -164.41,-88.03 -55.24,-28.49 -111.07,-53.31 -169.63,-79.71 -672.6,-303.12 -1379.36,-348.47 -2089.23,-127.14 -182.45,56.88 -543.08,202.6 -693.46,300.96 52.38,279.65 85.67,519.78 -49.09,786.49 -23.74,46.99 -101.73,155.46 -133.73,170.87 -10.6,22.57 -76.03,74.13 -95.35,82.39 -34.49,40.44 -177.51,104.26 -201.14,124.78 -4.13,234.52 33.31,547.12 77.28,768.92 108.83,548.93 305.3,1037.65 635.66,1476.23l140.06 173.89c16.95,21.56 38.82,35.55 44.12,56.68 10.27,6.13 16.21,9.81 25.41,19.62 7.74,8.25 12.27,14.5 19.92,23.59 14.78,17.58 29.52,30.86 42.24,48.66 12.48,7.21 17.47,11.38 25.31,19.42 3.98,4.07 5.96,6.09 9.25,11.42 1.7,2.76 2.67,4.02 3.2,4.5 -0.04,0.71 0.09,2.2 0.63,5.08 15.72,6.86 5.7,0.2 19,11.92l98.83 95.59c15.16,13.51 6.98,2.48 15.81,20.42l116.56 96.48c241.95,196.99 363.74,277.84 637.07,440.34 172.59,102.61 128.99,91.15 277.61,7.27 193.2,-109.04 532.97,-337.05 697.17,-488.37l114.23 -102.49c20.53,-17.48 36.95,-33.41 56.34,-51.86l207.52 -220.09zm-2119.44 -72.91l130.55 -96.46c29.04,34.17 60.44,72.96 89.96,109.25l277.99 339.39c-2.96,6.29 -55.35,83.13 -57.43,85.44l-28.1 64.63c-11.94,-6.37 -16.09,-7.5 -26.04,-19.86 -25.05,-13.65 -36.43,-27.52 -59.44,-45.9 -20.71,-16.54 -39.06,-30.08 -59.64,-48.65l-226.83 -195.72c-18.22,-15.05 -101.43,-86.37 -108.65,-100.08 -12.44,-5.65 -14.75,-7.69 -25.5,-14.31 9.75,-19.77 37.93,-36.14 54.97,-44.98 5.12,-11.57 25.99,-23.48 38.16,-32.76zm250.68 -186.98l45.59 -33.06 20.81 -20.45c9.38,-7.05 13.25,-9.17 26.69,-15.63l52.74 114.41c13.35,9.06 154.78,309.92 180.51,355.15 7.61,21.02 16.25,24.7 19.21,46.69 -13.11,13.42 -11.23,11.98 -29.51,18.53 -12.19,-21.83 -30.86,-36.96 -40.86,-57.55 -25.71,-23.09 -107.79,-126.92 -138.95,-163.71 -12.75,-15.07 -131,-150.46 -135.18,-170.84 -18.09,-12.15 -27.14,-25.81 -39.65,-43.35 10.67,-15 18.81,-19.64 38.59,-30.19zm106.85 -456.17c-20.36,-23.96 -81.72,-98.52 -90.78,-120.08 11.26,-13.84 46.56,-38.53 62.15,-50.45 19.5,-14.91 49.33,-39.48 68.95,-47.18 10.74,17.79 28.15,40.43 42.49,58.44 17.12,21.51 31.04,41.7 45.78,60.84 -10.94,15.83 -107.77,91.81 -128.58,98.42zm1409.77 -1416.37l-39.21 -59.45c-150.33,-253.4 198.48,-562.63 416.41,-335.69 -13.81,22.15 -117.22,97.01 -136.7,104.68 -51.31,-48.94 -122.45,-26.48 -146.4,25.79 -41.58,90.76 92.54,263.52 192.5,224.57 21.17,-8.25 49.33,-34.51 55.15,-57.75 8.75,-34.93 -8.19,-61.03 -14.66,-90.44 31.59,-14.01 105.18,-85.29 137.98,-97.98 10.86,30.37 29.42,48.4 37.42,92.68 19.8,109.58 -34.05,199.91 -117.8,257.72 -116.19,80.2 -227.4,70.31 -337.04,-14.1 -6.36,-4.9 -13.16,-9.3 -17.93,-14.81 -10.66,-12.3 -5.79,-4.21 -7.9,-15.37 -14.58,-7.6 -1.88,2.52 -14.77,-10.58 -5.53,-5.62 -1.31,-2.09 -7.05,-9.28zm-102.96 290.59c-7.98,-12.23 -19.48,-26.94 -28.58,-39.32l24.45 -23.87c12.62,-9.75 16.61,-13.66 30.31,-20.37 12.82,-16.02 53.67,-42.78 70.99,-56.64 21.03,23.29 49.76,56.97 65.19,86.42 5.2,2.7 1.3,-0.86 10.18,8.13l18.34 27.99c-15.5,17.61 -50.56,40.58 -70.56,56.46l-59.62 41.25c-16.5,-23.1 -39.18,-56.96 -60.72,-80.05zm772.41 -462.56c-14.42,-11.07 -30.78,-38.21 -43.08,-53 -14.93,-18.89 -42.54,-49.77 -50.42,-72.7 33.1,-16.2 92.86,-68.81 126.34,-93.66 29.15,27.83 71.88,89.47 95.11,122.01 -13.08,13.99 -83.93,69.79 -101.69,76.19 -11.33,12.83 -10.3,13.52 -26.26,21.17zm-1474.28 930.57c32.53,-15.09 31.07,-29.15 55.77,-33.75 6.13,-9.48 4.03,-8.84 16.13,-18.78 6.31,-5.18 10.26,-7.5 18.53,-13.91 12.23,-9.48 23.03,-20.45 43.11,-26.41 6.87,17.6 49.9,70.72 67.85,96.69l18.99 24.39c-13.24,14.52 -109.33,89.67 -126.84,97.83 -16.46,-14.21 -87.34,-103.88 -93.55,-126.05z"/>
  </g>
 </g>
</svg>
