<?xml version="1.0" encoding="UTF-8"?>
<!DOCTYPE svg PUBLIC "-//W3C//DTD SVG 1.1//EN" "http://www.w3.org/Graphics/SVG/1.1/DTD/svg11.dtd">
<!-- Creator: CorelDRAW 2019 (64 Bit) -->
<svg xmlns="http://www.w3.org/2000/svg" xml:space="preserve" width="88.6837mm" height="107.04mm" version="1.1" style="shape-rendering:geometricPrecision; text-rendering:geometricPrecision; image-rendering:optimizeQuality; fill-rule:evenodd; clip-rule:evenodd"
viewBox="0 0 912.92 1101.87"
 xmlns:xlink="http://www.w3.org/1999/xlink">
 <defs>
  <style type="text/css">
   <![CDATA[
    .str0 {stroke:#0082C2;stroke-width:10.9;stroke-miterlimit:22.9256}
    .fil4 {fill:none}
    .fil6 {fill:black}
    .fil3 {fill:#0082C2}
    .fil2 {fill:#C30303}
    .fil0 {fill:white}
    .fil1 {fill:#0082C2;fill-rule:nonzero}
    .fil5 {fill:#C30303;fill-rule:nonzero}
   ]]>
  </style>
    <clipPath id="id0">
     <path d="M456.46 47.8c-114.99,105.07 -253.52,156.57 -409.21,163.42 -3.53,23.56 -7.07,47.12 -10.6,70.68 9.4,9.82 18.53,19.89 26.85,30.67 32.57,42.19 45.29,87.66 51.9,139.93 12.52,98.96 -46.49,148.75 -58.29,238.3 -11.67,88.59 5.3,203.23 97.39,243.51 24.19,10.58 49.17,19.42 74.24,27.67 73.48,24.19 163.93,46.37 227.71,94.49 63.78,-48.12 154.23,-70.3 227.71,-94.49 25.07,-8.25 50.05,-17.09 74.24,-27.67 92.1,-40.27 109.06,-154.91 97.39,-243.51 -11.8,-89.55 -70.81,-139.35 -58.29,-238.3 6.61,-52.27 19.33,-97.74 51.9,-139.93 8.32,-10.78 17.45,-20.85 26.85,-30.67 -3.53,-23.56 -7.07,-47.12 -10.6,-70.68 -155.69,-6.85 -294.22,-58.34 -409.21,-163.42l0 0z"/>
    </clipPath>
 </defs>
 <g id="Camada_x0020_1">
  <metadata id="CorelCorpID_0Corel-Layer"/>
  <g id="_2645923474512">
   <path class="fil0" d="M57.12 690.81c11.8,-89.55 70.81,-139.35 58.29,-238.3 -6.61,-52.27 -19.33,-97.74 -51.9,-139.93 -8.32,-10.78 -17.45,-20.85 -26.85,-30.67 3.53,-23.56 7.07,-47.12 10.6,-70.68 155.69,-6.85 294.22,-58.34 409.21,-163.42 114.99,105.07 253.52,156.57 409.21,163.42 3.53,23.56 7.07,47.12 10.6,70.68 -9.4,9.82 -18.53,19.89 -26.85,30.67 -32.57,42.19 -45.29,87.66 -51.9,139.93 -12.52,98.96 46.49,148.75 58.29,238.3 11.67,88.59 -5.3,203.23 -97.39,243.51 -24.19,10.58 -49.17,19.42 -74.24,27.67 -73.48,24.19 -163.93,46.37 -227.71,94.49 -63.78,-48.12 -154.23,-70.3 -227.71,-94.49 -25.07,-8.25 -50.05,-17.09 -74.24,-27.67 -92.1,-40.27 -109.06,-154.91 -97.39,-243.51l-0 0zm-51.33 -398.99c41.41,42.17 69.36,73.9 80.8,164.33 11.44,90.43 -45.71,135.56 -58.27,230.86 -12.56,95.31 5.55,226.26 114.56,273.92 109,47.67 240.09,64.15 313.59,133.46 73.51,-69.3 204.59,-85.79 313.59,-133.46 109,-47.67 127.11,-178.61 114.56,-273.92 -12.56,-95.31 -69.71,-140.44 -58.27,-230.86 11.44,-90.43 39.39,-122.16 80.8,-164.33 -5.45,-36.32 -10.9,-72.63 -16.34,-108.94 -173.69,-2.4 -318.76,-60.24 -434.34,-175.22 -115.58,114.98 -260.65,172.82 -434.34,175.22 -5.45,36.32 -10.9,72.63 -16.34,108.94z"/>
   <path class="fil1" d="M456.46 15.29c-57.36,56.13 -121.85,98.48 -193.36,127.24 -71.75,28.86 -150.54,44.02 -236.28,45.7l-15.26 101.73c20.15,20.58 37.1,38.95 50.6,63.29 13.92,25.09 23.98,56.24 29.8,102.22 6.72,53.13 -9.39,90.64 -26.81,131.2 -12.73,29.64 -26.18,60.96 -31.46,101.04 -6.95,52.74 -4.39,116.52 18.19,170.5 17.42,41.66 46.84,77.49 93.15,97.74 37.79,16.52 78.47,29.34 118.45,41.93 73.33,23.1 144.31,45.46 192.97,89.13 48.66,-43.67 119.65,-66.03 192.97,-89.13 39.98,-12.59 80.66,-25.41 118.45,-41.93 46.31,-20.25 75.73,-56.08 93.15,-97.74 22.58,-53.99 25.14,-117.76 18.19,-170.5 -5.28,-40.08 -18.73,-71.4 -31.46,-101.04 -17.42,-40.56 -33.53,-78.07 -26.81,-131.2 5.82,-45.98 15.88,-77.13 29.8,-102.22 13.5,-24.34 30.45,-42.71 50.6,-63.29l-15.26 -101.73c-85.74,-1.68 -164.54,-16.84 -236.28,-45.7 -71.51,-28.76 -136,-71.11 -193.35,-127.24zm-197.4 117.16c71.74,-28.86 136.3,-71.67 193.57,-128.64l3.83 -3.81 3.83 3.81c57.27,56.97 121.83,99.78 193.57,128.64 71.81,28.89 150.85,43.82 237,45.01l4.63 0.06 17.43 116.17 -1.91 1.94c-20.42,20.79 -37.5,38.99 -50.76,62.9 -13.27,23.93 -22.9,53.86 -28.52,98.3 -6.34,50.14 9.22,86.36 26.04,125.54 13,30.27 26.74,62.25 32.23,103.94 7.16,54.34 4.47,120.16 -18.91,176.08 -18.43,44.07 -49.64,82 -98.86,103.52 -38.42,16.8 -79.34,29.69 -119.56,42.36 -74,23.31 -145.58,45.86 -192.48,90.08l-3.72 3.51 -3.72 -3.51c-46.9,-44.22 -118.49,-66.77 -192.48,-90.08 -40.21,-12.67 -81.14,-25.56 -119.56,-42.36 -49.22,-21.52 -80.43,-59.46 -98.85,-103.53 -23.39,-55.92 -26.07,-121.74 -18.91,-176.08 5.49,-41.69 19.23,-73.67 32.23,-103.94 16.83,-39.18 32.38,-75.41 26.04,-125.54 -5.62,-44.45 -15.25,-74.38 -28.52,-98.3 -13.26,-23.9 -30.35,-42.1 -50.77,-62.9l-1.91 -1.94 17.43 -116.17 4.63 -0.06c86.15,-1.19 165.19,-16.13 237,-45.01z"/>
   <path class="fil0" d="M456.46 47.8c-114.99,105.07 -253.52,156.57 -409.21,163.42 -3.53,23.56 -7.07,47.12 -10.6,70.68 9.4,9.82 18.53,19.89 26.85,30.67 32.57,42.19 45.29,87.66 51.9,139.93 12.52,98.96 -46.49,148.75 -58.29,238.3 -11.67,88.59 5.3,203.23 97.39,243.51 24.19,10.58 49.17,19.42 74.24,27.67 73.48,24.19 163.93,46.37 227.71,94.49 63.78,-48.12 154.23,-70.3 227.71,-94.49 25.07,-8.25 50.05,-17.09 74.24,-27.67 92.1,-40.27 109.06,-154.91 97.39,-243.51 -11.8,-89.55 -70.81,-139.35 -58.29,-238.3 6.61,-52.27 19.33,-97.74 51.9,-139.93 8.32,-10.78 17.45,-20.85 26.85,-30.67 -3.53,-23.56 -7.07,-47.12 -10.6,-70.68 -155.69,-6.85 -294.22,-58.34 -409.21,-163.42l0 0z"/>
   <g>
   </g>
   <g style="clip-path:url(#id0)">
    <g id="_2645923475088">
     <rect class="fil2" x="35.74" y="-17.07" width="85.34" height="1149.59"/>
     <rect class="fil3" x="173.47" y="-17.07" width="85.34" height="1149.59"/>
     <rect class="fil2" x="312.42" y="-17.07" width="85.34" height="1149.59"/>
     <rect class="fil3" x="452.58" y="-17.29" width="85.34" height="1149.59"/>
     <rect class="fil2" x="583.31" y="-17.07" width="85.34" height="1149.59"/>
     <rect class="fil3" x="710.64" y="-17.07" width="85.34" height="1149.59"/>
     <path class="fil0" d="M189.95 948.53l684.55 -678.45c-2.94,-19.62 -5.89,-39.24 -8.83,-58.86 -55.68,-2.45 -109.18,-10.61 -160.18,-24.89l-641.33 635.12c13.41,48.64 41.17,91.36 90.35,112.87 11.66,5.1 23.5,9.79 35.44,14.21l0 -0z"/>
     <line class="fil4 str0" x1="64.16" y1="821.45" x2="705.49" y2= "186.33" />
     <line class="fil4 str0" x1="188.48" y1="949.99" x2="885.76" y2= "258.92" />
     <path class="fil5" d="M258.49 799.98l12.77 -17.16c8.3,6.49 15.51,10.1 21.73,10.83 6.22,0.73 11.64,-1.24 16.29,-5.89 4.92,-4.92 7.09,-10.17 6.5,-15.75 -0.59,-5.58 -2.94,-10.44 -7.07,-14.57 -2.67,-2.67 -5.44,-4.38 -8.37,-5.22 -2.9,-0.81 -6.36,-0.59 -10.34,0.67 -2.73,0.85 -8.42,3.29 -17.13,7.31 -11.22,5.16 -20.68,7.19 -28.4,6.09 -10.85,-1.54 -20.71,-6.78 -29.63,-15.69 -5.72,-5.72 -10.01,-12.2 -12.83,-19.37 -2.8,-7.18 -3.44,-14.12 -1.93,-20.86 1.51,-6.73 5.15,-12.99 10.99,-18.83 9.5,-9.5 19.77,-13.55 30.81,-12.1 11.06,1.43 21.88,7.23 32.55,17.41l-14.6 16.17c-6.46,-5.15 -12.01,-7.9 -16.68,-8.3 -4.68,-0.4 -9.17,1.54 -13.45,5.82 -4.42,4.42 -6.53,9.25 -6.31,14.46 0.14,3.36 1.65,6.5 4.58,9.43 2.67,2.67 5.7,4.18 9.1,4.54 4.36,0.5 11.55,-1.67 21.61,-6.51 10.03,-4.86 18.25,-7.64 24.58,-8.43 6.37,-0.78 12.95,0.22 19.8,3.04 6.85,2.82 13.82,7.77 20.9,14.85 6.43,6.43 11.26,13.67 14.46,21.71 3.2,8.04 3.96,15.63 2.26,22.77 -1.68,7.16 -5.84,14.04 -12.43,20.64 -9.6,9.6 -20.24,13.71 -31.95,12.3 -11.68,-1.39 -24.28,-7.86 -37.8,-19.37zm143.97 -71.22l-112.26 -112.26 52.21 -52.21 18.97 18.97 -36.82 36.82 26.65 26.65 31.83 -31.83 18.97 18.97 -31.83 31.84 47.66 47.66 -15.39 15.39zm97.6 -97.6l-112.26 -112.26 52.21 -52.21 18.97 18.97 -36.82 36.82 26.65 26.65 31.83 -31.83 18.97 18.97 -31.83 31.83 47.66 47.66 -15.39 15.39zm104.81 -187.6l21.6 -8.11c10.08,14.64 15.45,27.62 16.15,38.93 0.68,11.29 -3.04,21.02 -11.19,29.17 -10.1,10.1 -23.49,13.3 -40.19,9.62 -16.68,-3.7 -33.86,-14.37 -51.56,-32.07 -18.68,-18.68 -29.94,-36.49 -33.76,-53.36 -3.82,-16.87 -0.4,-30.64 10.25,-41.29 9.3,-9.3 20.93,-12.78 34.86,-10.45 8.27,1.34 17.76,5.66 28.5,12.94l-9.84 20.51c-6.7,-4.9 -13.18,-7.62 -19.4,-8.15 -6.24,-0.51 -11.37,1.29 -15.44,5.36 -5.64,5.64 -7.24,13.2 -4.76,22.69 2.44,9.48 10.36,20.9 23.74,34.28 14.16,14.16 26.01,22.54 35.47,25.1 9.5,2.57 17,1.08 22.54,-4.45 4.09,-4.09 5.7,-9.51 4.79,-16.29 -0.9,-6.78 -4.79,-14.91 -11.75,-24.42z"/>
     <path class="fil6" d="M719.3 398.86c3.13,-4.06 4.97,-5.92 8.67,-9.29 1.25,-1.14 14.18,-11.72 15.55,-12.72 1.33,-0.97 2.03,-1.19 3.64,-2.54 1.51,-1.26 4.35,-2.82 6.15,-3.42l0.99 -0.21c-2.69,3.49 -2.68,4.05 -6.46,8.55 -6.19,7.36 -14.63,13.75 -23.53,17.92 -1.69,0.79 -3.52,2.11 -5.01,1.72l-0 0zm26.71 -27.57l-23.18 18.97c-1.7,1.39 -4.94,0.14 -6.74,-0.38l-13.44 -3.54c-9.94,-2.41 -6.82,-0.85 -8.16,-16.09l-0.64 -10.47c-0.03,-1.15 -0,-2.56 1.16,-3.51l22.66 -18.54c1.23,-1 2.22,-0.72 3.42,-0.35 1.29,0.39 2.02,0.57 3.3,0.88l13.2 3.49c8.64,2.55 7.28,0.26 7.8,8.67l1.12 17.29c0.09,0.93 0.33,2.9 -0.51,3.58l-0.01 0zm-114.3 5.99l2.36 0.62c4.35,1.35 3.08,0.82 7.39,3.56l19.1 12.19c3.28,2.05 6.43,4.16 9.6,8.04 -5.04,0.48 -15.07,-5.25 -19.52,-8.06 -3.32,-2.1 -6.2,-4.07 -9.5,-6.65 -3.78,-2.97 -5.86,-5.33 -9.43,-9.69l0 -0zm135.14 -54.71c-2.15,-4.38 -2.43,-2.85 -5.55,-10.47l-8.17 -21.14c-1.24,-3.25 -2.27,-6.89 -2.17,-10.38 3.27,3.99 5.14,6.78 7.34,10.65 5.24,9.2 7.76,18.53 8.96,28.72 0.06,0.48 0.16,0.79 0.15,1.22 -0.03,0.98 0.33,0.49 -0.56,1.39l0 0zm-126.42 54.61c-1.29,-1.57 -1.36,-11.03 -1.47,-13.94 -0.09,-2.33 -0.26,-4.36 -0.35,-6.57 -0.04,-1.12 -0.06,-2.29 -0.15,-3.4l-0.14 -3.4c2.17,-1.07 4.45,-1.65 6.8,-2.67 2.49,-1.08 4.41,-1.77 6.8,-2.68 2.21,-0.84 4.38,-1.79 6.81,-2.72 2.77,-1.06 4.11,-2.23 6.6,-0.68 1.63,1.02 23.88,15.04 24.76,16.11 1.02,1.25 0.91,4.73 1.04,6.88 0.14,2.4 0.19,4.48 0.4,6.82l0.53 10.21c0.2,4.21 0.49,3.23 -7.17,6.36l-13.59 5.29c-2.78,1.06 -3.8,2.06 -6.57,0.33l-18.18 -11.7c-1.53,-1.08 -5.01,-2.9 -6.11,-4.24l-0 0zm105.51 -36.62l-12.99 -3.19c-1.59,-0.46 -12.85,-3.12 -13.19,-3.54 -1.52,-1.86 -8.75,-22.19 -10.94,-27.22 -1.44,-3.3 -0.65,-3.52 1.18,-6.42l12.06 -18.39c1.3,-1.06 2.59,-0.4 4.82,0.2l19.33 5.11c3.41,0.9 3.82,3.54 5.83,8.82l8.07 20.89c0.4,2.11 -0.85,3.14 -1.95,4.89 -1.99,3.16 -4.09,6.28 -6.01,9.32l-6.21 9.54 -0 -0zm-74.54 -38.42l-14.87 -18.18c-1.23,-1.5 4.83,-9.86 5.93,-11.5 2.03,-3.04 6.05,-10.17 8.54,-12.21 0.51,-0.41 3.28,-0.43 4.16,-0.5l24.82 -1.41c1.74,-0.09 2.75,-0.16 4.2,1.6l15.09 18.44c1.18,1.45 -4.82,9.33 -6.31,11.71 -9.62,15.26 -4.73,11.44 -20.33,12.82 -1.51,0.13 -2.85,0.23 -4.38,0.3 -2.94,0.13 -5.6,0.3 -8.51,0.42 -3.45,0.14 -6.22,1.07 -8.32,-1.49l0 -0zm-9.56 35.09c-1.32,1.08 -16.57,6.58 -19.4,7.67 -4.85,1.88 -5.09,3.64 -9.18,-2.3 -3.79,-5.51 -8.07,-10.1 -12.09,-15.24 -1.9,-2.43 -0.44,-4.59 0.73,-9.36 0.69,-2.81 5.19,-21.84 6.66,-23.04 1.57,-1.29 22.39,-9.33 24.94,-9.85 1.87,2.28 3.74,4.57 5.61,6.85 2.38,2.92 9.64,10.48 11.02,13.68 0.54,1.25 -0.68,4.97 -1.04,6.43l-5.75 21.92c-0.29,1.14 -0.37,2.31 -1.5,3.24l0 0.01zm-48.02 -6.01c-1.58,-3.23 1.15,-19.47 1.97,-22.54 1.05,-3.9 2.05,-7.29 3.71,-11 2.08,-4.63 3.95,-7.45 5.52,-10.82 1.1,1.59 0.38,6.54 -0.01,8.47 -0.21,1.05 -0.41,1.75 -0.67,2.83l-5.81 22.16c-0.73,2.64 -2.74,8.98 -4.72,10.9l-0 0zm49.37 -75.14c7.24,-4.98 25.73,-5.77 34.6,-4.89 6.19,0.62 5.64,0.53 11.15,2.21 -2.21,1.09 -6.18,2.04 -8.68,2.14 -6.95,0.26 -25.77,2.11 -31.36,1.49 -1.23,-0.14 -1.68,-0.39 -2.85,-0.55 -1.14,-0.15 -1.79,-0.08 -2.86,-0.4l0 0zm-35.14 121.56c19.22,23.49 43.24,31.04 68.37,29.96 3.77,-0.16 10.93,-1.3 14.26,-2.3 5.35,-1.61 9.02,-2.8 14.57,-5.4 17.02,-7.97 28.15,-20.36 36.86,-36.43 2.32,-4.28 3.91,-9.08 5.25,-13.51 2.49,-8.18 3.57,-19.31 2.94,-28.01 -0.08,-1.17 -0.09,-2.14 -0.24,-3.41 -2.87,-24.38 -16.07,-45.25 -37.11,-58.57 -10.53,-6.66 -22.11,-10.38 -34.4,-11.6 -1.23,-0.12 -2.12,-0.21 -3.35,-0.34 -1.51,-0.16 -2.16,-0.09 -3.61,-0.13 -30.02,-0.94 -60.06,17.46 -72.77,44.63 -0.61,1.3 -1.09,1.91 -1.55,3.23 -1.41,4.05 -1.95,4.79 -3.65,10.28 -6.82,22.13 -2.39,51.05 14.42,71.6l0 0.01z"/>
    </g>
   </g>
   <path class="fil4" d="M456.46 47.8c-114.99,105.07 -253.52,156.57 -409.21,163.42 -3.53,23.56 -7.07,47.12 -10.6,70.68 9.4,9.82 18.53,19.89 26.85,30.67 32.57,42.19 45.29,87.66 51.9,139.93 12.52,98.96 -46.49,148.75 -58.29,238.3 -11.67,88.59 5.3,203.23 97.39,243.51 24.19,10.58 49.17,19.42 74.24,27.67 73.48,24.19 163.93,46.37 227.71,94.49 63.78,-48.12 154.23,-70.3 227.71,-94.49 25.07,-8.25 50.05,-17.09 74.24,-27.67 92.1,-40.27 109.06,-154.91 97.39,-243.51 -11.8,-89.55 -70.81,-139.35 -58.29,-238.3 6.61,-52.27 19.33,-97.74 51.9,-139.93 8.32,-10.78 17.45,-20.85 26.85,-30.67 -3.53,-23.56 -7.07,-47.12 -10.6,-70.68 -155.69,-6.85 -294.22,-58.34 -409.21,-163.42l0 0z"/>
   <path class="fil1" d="M51.97 216.45l-9.54 63.64c4.06,4.28 8.11,8.65 12.12,13.2 4.6,5.21 9.05,10.52 13.26,15.97 16.67,21.59 28.25,44.01 36.52,67.72 8.21,23.56 13.12,48.36 16.47,74.85 7.58,59.9 -10.25,101.85 -28.58,144.98 -12.37,29.12 -24.98,58.79 -29.71,94.71 -6.39,48.5 -4.08,104.88 14.79,152.05 14.85,37.13 40.02,68.55 79.39,85.77 11.91,5.21 24.12,10.03 36.49,14.58 12.25,4.51 24.72,8.77 37.28,12.9 13.2,4.35 26.46,8.48 40,12.7 63.48,19.79 133.07,41.49 186.02,80.2 52.94,-38.7 122.52,-60.4 186.01,-80.19 13.54,-4.22 26.8,-8.36 40,-12.7 12.55,-4.13 25.03,-8.39 37.28,-12.9 12.38,-4.55 24.58,-9.37 36.49,-14.58 39.37,-17.22 64.54,-48.64 79.39,-85.77 18.87,-47.18 21.17,-103.55 14.78,-152.06 -4.73,-35.92 -17.34,-65.59 -29.71,-94.71 -18.33,-43.13 -36.15,-85.08 -28.58,-144.98 3.35,-26.49 8.26,-51.29 16.47,-74.85 8.26,-23.71 19.85,-46.13 36.52,-67.72 4.21,-5.45 8.66,-10.76 13.26,-15.97 4.01,-4.54 8.06,-8.92 12.12,-13.2l-9.55 -63.65c-78.08,-3.87 -151.87,-18.97 -220.58,-46.41 -66.36,-26.5 -127.94,-64.5 -184.02,-115.01 -175.1,149.1 -341.68,158.65 -404.38,161.43zm-20.7 64.67l11.27 -75.12 6.05 -0.27c59.73,-2.62 227.96,-9.99 404.32,-162.03l3.65 -3.15 3.56 3.25c56.03,51.2 117.7,89.57 184.25,116.14 68.86,27.5 142.98,42.4 221.53,45.85l4.48 0.2 11.66 77.74 -1.86 1.94c-4.72,4.92 -9.32,9.86 -13.68,14.81 -4.39,4.97 -8.68,10.09 -12.79,15.42 -15.9,20.6 -26.96,42.01 -34.86,64.65 -7.94,22.78 -12.7,46.86 -15.96,72.64 -7.2,56.96 10.06,97.59 27.81,139.36 12.65,29.78 25.55,60.12 30.48,97.56 6.6,50.08 4.16,108.43 -15.47,157.5 -15.84,39.6 -42.81,73.17 -85.14,91.68 -12.28,5.37 -24.66,10.26 -37.09,14.84 -12.56,4.62 -25.11,8.91 -37.62,13.03 -12.63,4.16 -26.26,8.41 -40.17,12.75 -63.94,19.93 -134.15,41.82 -185.96,80.92l-3.28 2.47 -3.28 -2.47c-51.82,-39.1 -122.03,-60.99 -185.97,-80.92 -13.91,-4.34 -27.54,-8.59 -40.17,-12.74 -12.51,-4.12 -25.06,-8.41 -37.62,-13.03 -12.43,-4.57 -24.81,-9.47 -37.09,-14.84 -42.32,-18.51 -69.3,-52.08 -85.14,-91.69 -19.63,-49.07 -22.06,-107.42 -15.47,-157.5 4.93,-37.44 17.83,-67.78 30.48,-97.56 17.75,-41.77 35.02,-82.4 27.81,-139.36 -3.26,-25.78 -8.02,-49.85 -15.96,-72.64 -7.89,-22.64 -18.95,-44.05 -34.86,-64.65 -4.11,-5.33 -8.39,-10.45 -12.79,-15.42 -4.37,-4.95 -8.97,-9.88 -13.68,-14.81l-1.86 -1.94 0.39 -2.61z"/>
  </g>
 </g>
</svg>
