<?xml version="1.0" encoding="UTF-8"?>
<!DOCTYPE svg PUBLIC "-//W3C//DTD SVG 1.1//EN" "http://www.w3.org/Graphics/SVG/1.1/DTD/svg11.dtd">
<!-- Creator: CorelDRAW 2020 (64 Bit) -->
<svg xmlns="http://www.w3.org/2000/svg" xml:space="preserve" width="62mm" height="62mm" version="1.1" style="shape-rendering:geometricPrecision; text-rendering:geometricPrecision; image-rendering:optimizeQuality; fill-rule:evenodd; clip-rule:evenodd"
viewBox="0 0 129.63 129.63"
 xmlns:xlink="http://www.w3.org/1999/xlink"
 xmlns:xodm="http://www.corel.com/coreldraw/odm/2003">
 <defs>
  <style type="text/css">
   <![CDATA[
    .fil0 {fill:#FEFEFE}
    .fil1 {fill:#00A859}
   ]]>
  </style>
 </defs>
 <g id="Camada_x0020_1">
  <metadata id="CorelCorpID_0Corel-Layer"/>
  <g id="_2560854838976">
   <path class="fil0" d="M64.81 128.31c34.97,0 63.49,-28.52 63.49,-63.49 0,-34.97 -28.52,-63.49 -63.49,-63.49 -34.97,0 -63.49,28.52 -63.49,63.49 0,34.97 28.52,63.49 63.49,63.49z"/>
   <path class="fil1" d="M64.81 0c17.84,0 34.06,7.27 45.8,19.01 11.74,11.74 19.01,27.96 19.01,45.8 0,17.84 -7.27,34.06 -19.01,45.8 -11.74,11.74 -27.96,19.01 -45.8,19.01 -17.84,0 -34.06,-7.27 -45.8,-19.01 -11.74,-11.74 -19.01,-27.96 -19.01,-45.8 0,-17.84 7.27,-34.06 19.01,-45.8 11.74,-11.74 27.96,-19.01 45.8,-19.01zm43.92 20.89c-11.29,-11.29 -26.84,-18.25 -43.92,-18.25 -17.08,0 -32.64,6.96 -43.92,18.25 -11.29,11.29 -18.25,26.84 -18.25,43.92 0,17.08 6.96,32.64 18.25,43.92 11.29,11.29 26.84,18.25 43.92,18.25 17.08,0 32.64,-6.96 43.92,-18.25 11.29,-11.29 18.25,-26.84 18.25,-43.92 0,-17.08 -6.96,-32.64 -18.25,-43.92z"/>
   <path class="fil1" d="M64.81 110.62c25.21,0 45.8,-20.59 45.8,-45.8 0,-25.21 -20.59,-45.8 -45.8,-45.8 -25.21,0 -45.8,20.59 -45.8,45.8 0,25.21 20.59,45.8 45.8,45.8z"/>
   <path class="fil0" d="M88.25 43.46c3.2,3.51 5.59,7.73 7.02,12.35l10.01 0c-3.15,-14.18 -13.57,-25.62 -27.15,-30.3l0 78.54c13.93,-4.73 24.55,-16.67 27.4,-31.31l-10.01 0c-1.27,5.08 -3.81,9.66 -7.27,13.42l0 -42.7z"/>
   <path class="fil0" d="M66.24 33.09c3.25,0.15 6.41,0.81 9.35,1.88l0 -10.22c-3.41,-0.91 -7.07,-1.42 -10.78,-1.42 -2.95,0 -5.85,0.3 -8.64,0.91l0 81.13c2.8,0.61 5.69,0.91 8.64,0.91 3.71,0 7.37,-0.51 10.78,-1.42l0 -10.22c-2.95,1.07 -6.1,1.73 -9.35,1.88l0 -27.4 8.29 0 0 -9.35 -8.29 0 0 -26.69z"/>
   <path class="fil0" d="M46.77 38.74l0 63.39c-3.66,-1.78 -7.07,-4.12 -10.07,-6.91l0 -45.04c-0.05,0 -0.05,0.05 -0.05,0.05 -0.05,0.1 -0.1,0.2 -0.15,0.3 -0.1,0.15 -0.15,0.31 -0.25,0.46 0,0.1 -0.05,0.2 -0.1,0.25 -0.05,0.15 -0.1,0.25 -0.15,0.36 -0.05,0.1 -0.1,0.25 -0.15,0.36 -0.05,0.1 -0.15,0.25 -0.2,0.41 -0.05,0.1 -0.05,0.2 -0.1,0.3 -0.05,0.15 -0.15,0.25 -0.2,0.41 -0.05,0.1 -0.05,0.2 -0.1,0.3 -0.05,0.15 -0.1,0.25 -0.15,0.36 -0.05,0.1 -0.05,0.2 -0.1,0.31 -0.05,0.15 -0.1,0.31 -0.15,0.51 -0.05,0.1 -0.1,0.2 -0.1,0.31 -0.05,0.1 -0.1,0.25 -0.15,0.36 -0.05,0.15 -0.1,0.3 -0.1,0.41 -0.05,0.1 -0.1,0.25 -0.1,0.36 -0.05,0.1 -0.1,0.2 -0.1,0.3 -0.05,0.15 -0.1,0.36 -0.15,0.51 0,0.1 -0.05,0.2 -0.05,0.3 -0.05,0.15 -0.1,0.25 -0.1,0.41 -0.05,0.1 -0.1,0.25 -0.1,0.41 -0.05,0.1 -0.05,0.25 -0.1,0.36 0,0.1 -0.05,0.2 -0.05,0.3 -0.05,0.2 -0.05,0.36 -0.1,0.56 0,0.1 -0.05,0.2 -0.05,0.3 -0.05,0.1 -0.05,0.25 -0.05,0.41 -0.05,0.1 -0.05,0.2 -0.1,0.36 0,0.15 0,0.31 -0.05,0.46 0,0.1 0,0.2 -0.05,0.3 0,0.15 0,0.31 -0.05,0.46 0,0.15 0,0.31 0,0.41 -0.05,0.15 -0.05,0.25 -0.05,0.36 0,0.1 0,0.2 -0.05,0.31 0,0.2 0,0.41 0,0.56 0,0.1 -0.05,0.25 -0.05,0.36 0,0.15 0,0.3 0,0.46 0,0.1 0,0.25 0,0.36 0,0.1 0,0.2 0,0.25l-9.76 0c0.15,-18.81 12.96,-34.72 30.3,-39.6l0 10.22c-2.44,0.97 -4.68,2.19 -6.86,3.66z"/>
   <path class="fil1" d="M28.82 111.12l-6.41 -5.54 1.47 -1.68 2.13 1.83 4.47 -5.08 2.08 1.83 -4.47 5.08 2.19 1.88 -1.47 1.68zm-4.22 -10.07c0.81,-0.66 1.37,-1.37 1.68,-2.13 0.31,-0.76 0.36,-1.47 0.2,-2.19 -0.15,-0.76 -0.51,-1.53 -1.17,-2.29 -0.61,-0.81 -1.27,-1.37 -1.98,-1.68 -0.71,-0.25 -1.42,-0.36 -2.19,-0.2 -0.71,0.1 -1.53,0.51 -2.34,1.17 -1.17,0.86 -1.78,1.88 -1.93,3.05 -0.15,1.12 0.25,2.29 1.17,3.46 0.91,1.17 1.93,1.83 3.1,1.93 1.12,0.15 2.29,-0.2 3.46,-1.12zm-1.73 -2.24c-0.71,0.61 -1.32,0.86 -1.83,0.81 -0.56,0 -0.97,-0.25 -1.32,-0.66 -0.36,-0.46 -0.51,-0.97 -0.41,-1.47 0.1,-0.51 0.51,-1.02 1.17,-1.58 0.76,-0.61 1.42,-0.92 1.93,-0.86 0.51,0 0.97,0.25 1.32,0.71 0.36,0.46 0.51,0.97 0.41,1.47 -0.1,0.51 -0.51,1.02 -1.27,1.58zm-7.07 -13.22l-0.3 -2.54c0.66,-0.15 1.32,-0.15 1.88,0 0.56,0.15 1.07,0.41 1.47,0.76 0.41,0.41 0.81,0.97 1.12,1.68 0.41,0.92 0.61,1.73 0.61,2.39 0,0.66 -0.25,1.37 -0.71,2.08 -0.51,0.71 -1.22,1.27 -2.24,1.73 -1.37,0.61 -2.59,0.71 -3.66,0.31 -1.07,-0.41 -1.88,-1.27 -2.44,-2.59 -0.46,-1.02 -0.61,-1.93 -0.46,-2.69 0.15,-0.81 0.56,-1.53 1.32,-2.19l1.53 2.03c-0.25,0.15 -0.41,0.36 -0.46,0.46 -0.15,0.25 -0.2,0.51 -0.2,0.76 -0.05,0.25 0,0.46 0.15,0.76 0.25,0.56 0.66,0.91 1.27,0.97 0.46,0.1 1.02,0 1.78,-0.36 0.92,-0.41 1.47,-0.81 1.68,-1.27 0.2,-0.41 0.2,-0.86 0,-1.37 -0.2,-0.51 -0.51,-0.81 -0.91,-0.92 -0.36,-0.15 -0.86,-0.15 -1.42,0zm-0.91 -10.12l0.71 3.1 1.58 0.1 0.61 2.8 -9.51 -1.32 -0.71 -2.95 8.03 -5.34 0.66 2.85 -1.37 0.76zm-1.78 1.02l-2.9 1.73 3.36 0.2 -0.46 -1.93zm-6.76 -5.39l-0.05 -2.59 4.93 -3.51 -4.98 0.1 -0.05 -2.54 9 -0.2 0.05 2.59 -4.88 3.46 4.93 -0.05 0.05 2.59 -9 0.15zm-0.1 -11.59l1.63 -8.34 2.19 0.41 -0.56 2.8 6.66 1.32 -0.51 2.74 -6.66 -1.32 -0.56 2.8 -2.19 -0.41zm2.19 -10.42l8.69 2.49 0.76 -2.69 -8.64 -2.49 -0.81 2.69zm1.93 -6.41l1.17 -2.29 6 -0.76 -4.47 -2.29 1.22 -2.34 8.03 4.12 -1.22 2.34 -5.95 0.76 4.42 2.24 -1.17 2.34 -8.03 -4.12zm9.15 -7.78c0.81,0.66 1.63,1.07 2.44,1.17 0.81,0.15 1.53,0.05 2.19,-0.25 0.71,-0.36 1.37,-0.86 1.98,-1.68 0.66,-0.76 1.02,-1.53 1.17,-2.29 0.1,-0.76 0,-1.47 -0.25,-2.19 -0.31,-0.71 -0.86,-1.37 -1.73,-2.03 -1.12,-0.92 -2.24,-1.32 -3.36,-1.22 -1.17,0.15 -2.19,0.76 -3.15,1.93 -0.92,1.17 -1.32,2.29 -1.17,3.46 0.1,1.17 0.71,2.19 1.88,3.1zm1.78 -2.14c-0.71,-0.61 -1.12,-1.12 -1.22,-1.63 -0.1,-0.56 0.05,-1.02 0.36,-1.42 0.41,-0.46 0.81,-0.71 1.37,-0.76 0.51,0 1.07,0.25 1.73,0.81 0.81,0.61 1.22,1.17 1.32,1.68 0.1,0.51 0,0.97 -0.41,1.47 -0.36,0.46 -0.81,0.66 -1.32,0.66 -0.51,0.05 -1.12,-0.25 -1.83,-0.81zm-4.22 -5.8l1.32 -1.68 0.2 2.74 -0.76 0.92 -0.76 -1.98zm7.07 -4.47l3.56 -2.95c0.76,-0.66 1.47,-0.97 2.19,-0.91 0.71,0.05 1.32,0.41 1.88,1.07 0.61,0.71 0.86,1.42 0.76,2.19 -0.1,0.76 -0.56,1.47 -1.42,2.19l-1.17 0.97 2.13 2.59 -2.13 1.78 -5.8 -6.91zm4.63 1.17l0.51 -0.46c0.41,-0.36 0.66,-0.66 0.71,-0.92 0,-0.3 -0.05,-0.56 -0.25,-0.76 -0.15,-0.2 -0.41,-0.36 -0.66,-0.36 -0.25,-0.05 -0.61,0.1 -1.02,0.46l-0.61 0.51 1.32 1.52zm5.64 -3.76c-0.71,-1.27 -0.91,-2.49 -0.61,-3.61 0.3,-1.12 1.07,-2.03 2.34,-2.74 1.27,-0.76 2.49,-1.02 3.61,-0.71 1.12,0.31 2.03,1.07 2.75,2.34 0.51,0.92 0.81,1.73 0.81,2.49 0.05,0.76 -0.15,1.47 -0.51,2.14 -0.41,0.66 -1.02,1.27 -1.93,1.73 -0.86,0.51 -1.68,0.81 -2.39,0.86 -0.76,0.05 -1.47,-0.1 -2.19,-0.51 -0.71,-0.41 -1.32,-1.07 -1.88,-1.98zm2.44 -1.37c0.46,0.76 0.92,1.27 1.42,1.42 0.51,0.2 0.97,0.15 1.47,-0.15 0.56,-0.3 0.86,-0.71 0.91,-1.22 0.1,-0.51 -0.1,-1.17 -0.61,-2.03 -0.41,-0.76 -0.86,-1.22 -1.37,-1.37 -0.51,-0.15 -0.97,-0.1 -1.47,0.2 -0.51,0.25 -0.81,0.66 -0.92,1.17 -0.1,0.51 0.1,1.17 0.56,1.98zm6.51 -8.29l2.64 -0.92 2.19 6.41 4.12 -1.42 0.71 2.14 -6.71 2.29 -2.95 -8.49zm9.4 -2.75l1.58 8.85 2.75 -0.46 -1.58 -8.9 -2.75 0.51zm5.85 4.93l2.64 -0.25c0.05,0.46 0.2,0.76 0.36,1.02 0.3,0.36 0.71,0.51 1.27,0.51 0.36,0 0.66,-0.1 0.92,-0.31 0.2,-0.2 0.3,-0.41 0.3,-0.66 0,-0.2 -0.15,-0.41 -0.36,-0.61 -0.2,-0.2 -0.66,-0.36 -1.42,-0.51 -1.22,-0.25 -2.08,-0.61 -2.64,-1.02 -0.51,-0.46 -0.76,-1.02 -0.81,-1.73 0,-0.46 0.15,-0.91 0.41,-1.32 0.25,-0.41 0.66,-0.76 1.17,-1.02 0.56,-0.25 1.27,-0.36 2.24,-0.41 1.12,0 2.03,0.2 2.59,0.61 0.61,0.41 0.97,1.12 1.12,2.03l-2.59 0.2c-0.05,-0.41 -0.2,-0.71 -0.46,-0.86 -0.2,-0.2 -0.51,-0.3 -0.92,-0.25 -0.36,0 -0.56,0.05 -0.71,0.2 -0.2,0.15 -0.25,0.3 -0.25,0.51 0,0.15 0.05,0.25 0.2,0.36 0.15,0.15 0.46,0.25 0.97,0.36 1.22,0.2 2.08,0.46 2.54,0.71 0.56,0.25 0.91,0.61 1.17,1.02 0.25,0.36 0.41,0.81 0.41,1.32 0,0.56 -0.15,1.12 -0.46,1.58 -0.3,0.51 -0.76,0.86 -1.32,1.17 -0.51,0.25 -1.27,0.36 -2.13,0.41 -1.53,0 -2.59,-0.25 -3.2,-0.86 -0.56,-0.56 -0.91,-1.32 -1.02,-2.19zm15.76 -5.49l7.27 1.68 -0.41 1.88 -4.58 -1.07 -0.3 1.42 4.22 0.97 -0.41 1.78 -4.22 -0.97 -0.41 1.73 4.68 1.07 -0.46 2.03 -7.42 -1.73 2.03 -8.79zm7.52 8.03c-0.25,0.86 -0.25,1.68 0,2.49 0.31,0.76 1.17,1.47 2.59,2.08 0.76,0.36 1.47,0.56 2.14,0.56 0.61,0 1.17,-0.15 1.68,-0.46 0.46,-0.36 0.81,-0.76 1.07,-1.27 0.2,-0.46 0.25,-0.91 0.2,-1.37 -0.05,-0.46 -0.25,-0.91 -0.66,-1.37 -0.36,-0.46 -1.02,-1.07 -2.03,-1.83 -0.41,-0.25 -0.66,-0.51 -0.71,-0.66 -0.1,-0.15 -0.1,-0.31 -0.05,-0.46 0.1,-0.15 0.25,-0.25 0.46,-0.36 0.2,-0.05 0.46,0 0.71,0.15 0.36,0.15 0.61,0.36 0.76,0.61 0.1,0.25 0.15,0.56 0.05,0.97l2.44 0.97c0.25,-0.92 0.2,-1.68 -0.15,-2.34 -0.36,-0.61 -1.12,-1.17 -2.14,-1.63 -0.86,-0.41 -1.58,-0.61 -2.19,-0.61 -0.56,0 -1.07,0.15 -1.47,0.41 -0.46,0.25 -0.71,0.61 -0.91,1.02 -0.31,0.66 -0.31,1.32 0,1.93 0.3,0.61 0.97,1.32 1.93,2.03 0.61,0.46 1.02,0.81 1.12,1.07 0.1,0.25 0.1,0.51 0,0.71 -0.1,0.2 -0.25,0.36 -0.56,0.46 -0.25,0.1 -0.56,0.05 -0.92,-0.1 -0.51,-0.25 -0.81,-0.56 -0.92,-1.02 -0.1,-0.25 -0.05,-0.61 0.05,-1.02l-2.49 -0.97zm12.3 -0.81l3.91 2.44c0.86,0.56 1.37,1.17 1.53,1.83 0.2,0.66 0.05,1.37 -0.41,2.14 -0.51,0.76 -1.12,1.22 -1.83,1.37 -0.76,0.15 -1.58,-0.1 -2.54,-0.66l-1.32 -0.81 -1.73 2.8 -2.39 -1.47 4.78 -7.63zm0.31 4.73l0.61 0.36c0.46,0.3 0.81,0.41 1.12,0.36 0.25,0 0.51,-0.15 0.66,-0.41 0.1,-0.25 0.15,-0.51 0.1,-0.76 -0.05,-0.25 -0.31,-0.56 -0.71,-0.81l-0.71 -0.41 -1.07 1.68zm5.49 4.63c-0.76,0.71 -1.27,1.47 -1.47,2.29 -0.2,0.76 -0.2,1.52 0,2.24 0.25,0.71 0.71,1.42 1.42,2.14 0.71,0.71 1.42,1.17 2.14,1.42 0.76,0.2 1.47,0.2 2.24,0 0.71,-0.2 1.47,-0.66 2.24,-1.42 1.02,-1.02 1.53,-2.08 1.58,-3.2 0,-1.17 -0.51,-2.29 -1.58,-3.36 -1.02,-1.07 -2.08,-1.58 -3.25,-1.63 -1.12,0 -2.24,0.51 -3.3,1.53zm1.93 2.03c0.66,-0.66 1.22,-1.02 1.78,-1.02 0.51,-0.05 0.97,0.15 1.37,0.56 0.41,0.41 0.56,0.86 0.51,1.42 -0.05,0.51 -0.36,1.07 -0.97,1.63 -0.71,0.71 -1.32,1.07 -1.83,1.12 -0.51,0.05 -0.97,-0.15 -1.42,-0.61 -0.41,-0.41 -0.56,-0.86 -0.51,-1.37 0.05,-0.56 0.41,-1.12 1.07,-1.73zm2.29 9.05l7.57 -4.93 2.49 3.91c0.51,0.71 0.81,1.32 0.92,1.78 0.1,0.46 0.1,0.91 -0.1,1.37 -0.15,0.46 -0.51,0.81 -0.97,1.12 -0.46,0.3 -0.86,0.41 -1.27,0.46 -0.41,0 -0.81,-0.05 -1.22,-0.25 -0.25,-0.15 -0.56,-0.36 -0.81,-0.66 0.05,0.36 0.1,0.61 0.1,0.81 0,0.1 -0.05,0.36 -0.15,0.61 -0.1,0.3 -0.2,0.51 -0.25,0.66l-1.47 2.54 -1.73 -2.64 1.52 -2.75c0.2,-0.36 0.31,-0.61 0.31,-0.81 0,-0.2 -0.05,-0.46 -0.2,-0.66l-0.15 -0.2 -3.05 1.98 -1.53 -2.34zm6 -0.56l0.66 0.97c0.05,0.1 0.25,0.31 0.51,0.56 0.15,0.1 0.31,0.2 0.46,0.2 0.2,0 0.41,0 0.56,-0.15 0.25,-0.15 0.36,-0.36 0.41,-0.56 0.05,-0.25 -0.1,-0.61 -0.36,-1.02l-0.66 -1.02 -1.58 1.02zm7.22 4.68l-2.08 0.86 1.07 2.64 -6.25 2.54 1.02 2.54 6.3 -2.54 1.07 2.64 2.03 -0.81 -3.15 -7.88zm3.81 10.42l1.78 7.22 -1.83 0.46 -1.17 -4.52 -1.37 0.36 1.07 4.22 -1.78 0.41 -1.07 -4.17 -1.73 0.41 1.17 4.68 -1.98 0.51 -1.83 -7.42 8.74 -2.13zm-3.46 21.45l-0.91 2.39c-0.66,-0.2 -1.22,-0.51 -1.63,-0.86 -0.46,-0.41 -0.76,-0.86 -0.97,-1.37 -0.2,-0.56 -0.25,-1.22 -0.2,-2.03 0.05,-0.97 0.25,-1.78 0.61,-2.39 0.31,-0.56 0.86,-1.07 1.58,-1.47 0.76,-0.36 1.68,-0.51 2.8,-0.46 1.53,0.15 2.64,0.56 3.36,1.42 0.76,0.81 1.07,1.98 0.97,3.41 -0.05,1.17 -0.36,2.03 -0.86,2.64 -0.51,0.61 -1.22,1.02 -2.19,1.27l-0.41 -2.49c0.31,-0.05 0.51,-0.1 0.61,-0.2 0.25,-0.15 0.41,-0.31 0.56,-0.56 0.1,-0.2 0.2,-0.46 0.2,-0.71 0.05,-0.66 -0.15,-1.17 -0.66,-1.53 -0.36,-0.25 -0.91,-0.46 -1.73,-0.51 -1.02,-0.05 -1.68,0.05 -2.08,0.31 -0.41,0.3 -0.61,0.71 -0.66,1.27 0,0.51 0.1,0.91 0.36,1.22 0.31,0.31 0.71,0.51 1.27,0.66zm4.47 5.49l-0.61 2.69 -6.61 -1.53 -0.97 4.22 -2.19 -0.46 1.63 -6.96 8.74 2.03zm-4.98 14.84l-1.12 2.54 -4.88 -2.19c-0.51,-0.2 -0.91,-0.46 -1.32,-0.81 -0.36,-0.36 -0.61,-0.76 -0.81,-1.22 -0.15,-0.46 -0.25,-0.92 -0.2,-1.32 0.05,-0.61 0.2,-1.22 0.51,-1.93 0.2,-0.36 0.41,-0.81 0.66,-1.27 0.25,-0.46 0.56,-0.76 0.86,-1.02 0.3,-0.25 0.66,-0.46 1.12,-0.56 0.41,-0.15 0.81,-0.15 1.17,-0.1 0.61,0.05 1.12,0.2 1.53,0.36l4.88 2.19 -1.12 2.54 -5.03 -2.24c-0.46,-0.2 -0.86,-0.2 -1.22,-0.1 -0.36,0.15 -0.61,0.46 -0.81,0.86 -0.2,0.46 -0.25,0.86 -0.1,1.22 0.15,0.36 0.46,0.61 0.92,0.81l4.98 2.24zm-3.3 6l-7.07 -5.54 -3 3.76c-0.1,0.2 -0.36,0.56 -0.66,1.07 -0.25,0.41 -0.36,0.76 -0.41,1.02 -0.05,0.46 0,0.86 0.15,1.27 0.15,0.41 0.41,0.76 0.76,1.02 0.46,0.36 0.97,0.56 1.42,0.51 0.51,0 1.02,-0.2 1.53,-0.61 -0.15,0.41 -0.2,0.81 -0.15,1.12 0.1,0.51 0.36,0.92 0.81,1.27 0.46,0.36 1.07,0.51 1.68,0.41 0.61,-0.1 1.22,-0.51 1.73,-1.17l3.2 -4.12zm-4.52 0.05l1.37 1.07 -0.76 0.97c-0.25,0.31 -0.51,0.51 -0.71,0.56 -0.25,0.05 -0.46,-0.05 -0.66,-0.2 -0.2,-0.15 -0.31,-0.36 -0.36,-0.61 0,-0.2 0.1,-0.51 0.41,-0.81l0.71 -0.97zm-2.74 -2.19l1.42 1.12 -0.86 1.12c-0.31,0.41 -0.61,0.61 -0.81,0.66 -0.25,0.05 -0.51,0 -0.71,-0.15 -0.2,-0.2 -0.36,-0.41 -0.36,-0.66 0,-0.25 0.15,-0.61 0.41,-0.97l0.92 -1.12zm0.05 11.08l-5.64 4.88 -1.27 -1.42 3.51 -3.1 -0.92 -1.07 -3.3 2.85 -1.17 -1.37 3.25 -2.85 -1.17 -1.37 -3.61 3.15 -1.37 -1.53 5.74 -4.98 5.95 6.81z"/>
   <path class="fil1" d="M45.6 110.36l6.35 2.59 -0.71 1.78 -3.76 -1.52 -0.61 1.47 3.25 1.27 -0.71 1.73 -3.2 -1.32 -1.42 3.41 -2.59 -1.07 3.41 -8.34zm3.2 8.08l-0.76 2.44 2.54 0.76 0.76 -2.39 -2.54 -0.81zm13.62 -4.27l-0.81 9.15 -2.49 -0.2 0.51 -6c-0.46,0.25 -0.86,0.46 -1.27,0.66 -0.41,0.15 -0.86,0.31 -1.47,0.41l0.2 -2.03c0.86,-0.2 1.53,-0.51 2.03,-0.81 0.51,-0.36 0.91,-0.81 1.22,-1.32l2.08 0.15zm1.88 7.42l2.39 -0.56c0.1,0.36 0.25,0.61 0.41,0.71 0.15,0.15 0.36,0.2 0.61,0.2 0.36,-0.05 0.66,-0.31 0.86,-0.71 0.15,-0.31 0.2,-0.97 0.2,-1.93 -0.25,0.36 -0.56,0.61 -0.86,0.76 -0.31,0.15 -0.66,0.25 -1.07,0.3 -0.81,0.05 -1.53,-0.15 -2.08,-0.66 -0.61,-0.56 -0.91,-1.22 -1.02,-2.08 -0.05,-0.61 0.05,-1.17 0.3,-1.68 0.25,-0.51 0.56,-0.92 1.02,-1.22 0.46,-0.31 1.07,-0.46 1.83,-0.56 0.86,-0.05 1.63,0.05 2.19,0.31 0.56,0.25 1.07,0.71 1.42,1.32 0.41,0.66 0.66,1.53 0.71,2.64 0.15,1.63 -0.05,2.85 -0.71,3.66 -0.61,0.81 -1.53,1.27 -2.69,1.37 -0.71,0.05 -1.32,0 -1.73,-0.1 -0.41,-0.15 -0.81,-0.36 -1.12,-0.66 -0.25,-0.31 -0.46,-0.66 -0.66,-1.12zm4.17 -4.42c0,-0.46 -0.15,-0.86 -0.46,-1.12 -0.25,-0.25 -0.56,-0.36 -0.92,-0.31 -0.36,0 -0.61,0.15 -0.81,0.46 -0.2,0.25 -0.25,0.61 -0.2,1.12 0.05,0.51 0.2,0.86 0.41,1.12 0.25,0.25 0.56,0.36 0.92,0.36 0.36,-0.05 0.61,-0.2 0.81,-0.51 0.25,-0.25 0.3,-0.61 0.25,-1.12zm4.88 0.61c-0.41,-0.15 -0.76,-0.31 -0.97,-0.56 -0.3,-0.3 -0.51,-0.66 -0.56,-1.12 -0.15,-0.76 0.1,-1.42 0.71,-2.03 0.46,-0.46 1.17,-0.76 2.08,-0.91 1.17,-0.2 2.08,-0.1 2.75,0.25 0.61,0.31 1.02,0.86 1.12,1.53 0.1,0.41 0.05,0.81 -0.15,1.17 -0.1,0.31 -0.31,0.61 -0.66,0.92 0.56,0.15 0.97,0.41 1.27,0.71 0.31,0.36 0.46,0.76 0.56,1.22 0.1,0.41 0.05,0.86 -0.1,1.27 -0.1,0.46 -0.3,0.76 -0.56,1.02 -0.25,0.3 -0.61,0.51 -1.07,0.66 -0.41,0.2 -0.86,0.31 -1.37,0.41 -0.92,0.15 -1.68,0.2 -2.19,0.05 -0.56,-0.15 -0.97,-0.41 -1.32,-0.76 -0.36,-0.41 -0.56,-0.86 -0.66,-1.37 -0.1,-0.56 -0.05,-1.02 0.15,-1.42 0.15,-0.41 0.51,-0.71 0.97,-1.02zm0.81 -1.93c0.05,0.3 0.2,0.51 0.41,0.66 0.2,0.15 0.51,0.2 0.81,0.15 0.31,-0.05 0.51,-0.15 0.66,-0.41 0.15,-0.2 0.2,-0.46 0.15,-0.76 -0.05,-0.3 -0.2,-0.51 -0.46,-0.66 -0.2,-0.2 -0.46,-0.25 -0.76,-0.2 -0.31,0.05 -0.51,0.2 -0.66,0.46 -0.15,0.2 -0.2,0.46 -0.15,0.76zm0.51 3.81c0.1,0.41 0.25,0.71 0.56,0.92 0.25,0.2 0.56,0.3 0.86,0.25 0.31,-0.05 0.56,-0.25 0.71,-0.56 0.2,-0.25 0.25,-0.61 0.2,-1.02 -0.05,-0.36 -0.25,-0.66 -0.51,-0.86 -0.31,-0.25 -0.61,-0.31 -0.92,-0.25 -0.31,0.05 -0.56,0.2 -0.71,0.51 -0.2,0.31 -0.25,0.61 -0.2,1.02zm5.75 -0.51c0.3,0.41 0.61,0.71 0.97,0.92 0.36,0.2 0.76,0.36 1.22,0.36 0.46,0.05 1.02,-0.1 1.68,-0.31 1.17,-0.41 1.93,-1.07 2.34,-1.98 0.41,-0.97 0.36,-2.19 -0.2,-3.76 -0.36,-1.02 -0.81,-1.83 -1.32,-2.34 -0.51,-0.56 -1.12,-0.86 -1.73,-0.97 -0.61,-0.1 -1.32,-0.05 -2.19,0.25 -0.71,0.25 -1.27,0.56 -1.63,0.97 -0.41,0.41 -0.66,0.86 -0.76,1.42 -0.1,0.56 -0.05,1.12 0.15,1.68 0.25,0.86 0.76,1.42 1.47,1.83 0.71,0.36 1.42,0.41 2.19,0.1 0.41,-0.1 0.76,-0.3 0.97,-0.56 0.25,-0.2 0.51,-0.51 0.66,-0.91 0.25,0.97 0.36,1.58 0.31,1.93 -0.1,0.46 -0.36,0.71 -0.71,0.86 -0.2,0.05 -0.41,0.05 -0.61,0 -0.2,-0.1 -0.36,-0.31 -0.56,-0.61l-2.24 1.12zm3.05 -5.29c0.15,0.46 0.15,0.81 0,1.12 -0.1,0.36 -0.36,0.56 -0.71,0.66 -0.31,0.1 -0.61,0.1 -0.92,-0.1 -0.3,-0.15 -0.51,-0.51 -0.71,-0.97 -0.15,-0.46 -0.15,-0.86 -0.05,-1.17 0.15,-0.3 0.36,-0.51 0.66,-0.61 0.36,-0.15 0.66,-0.1 1.02,0.1 0.3,0.15 0.56,0.51 0.71,0.97z"/>
   <path class="fil1" d="M37.77 114.58c1.02,0 1.83,-0.81 1.83,-1.78 0,-1.02 -0.81,-1.83 -1.83,-1.83 -1.02,0 -1.78,0.81 -1.78,1.83 0,0.97 0.76,1.78 1.78,1.78z"/>
   <path class="fil1" d="M91.5 114.58c0.97,0 1.78,-0.81 1.78,-1.78 0,-1.02 -0.81,-1.83 -1.78,-1.83 -1.02,0 -1.83,0.81 -1.83,1.83 0,0.97 0.81,1.78 1.83,1.78z"/>
  </g>
 </g>
</svg>
