<?xml version="1.0" encoding="utf-8"?>
<!-- Generator: Adobe Illustrator 23.0.1, SVG Export Plug-In . SVG Version: 6.00 Build 0)  -->
<svg version="1.1" id="Layer_1" xmlns="http://www.w3.org/2000/svg" xmlns:xlink="http://www.w3.org/1999/xlink" x="0px" y="0px"
	 viewBox="0 0 600 600" style="enable-background:new 0 0 600 600;" xml:space="preserve">
<style type="text/css">
	.st0{fill:#FEC019;}
	.st1{fill:#1E194C;}
	.st2{fill:#A41E25;}
	.st3{fill:#FEFEFE;}
</style>
<g>
	<path class="st0" d="M299.97,6.36c69.95,0,139.91,0.01,209.86-0.04c1.71,0,2.23,0.29,2.23,2.14c-0.05,84.41,0,168.82-0.11,253.23
		c-0.01,11.34-0.93,22.66-2.05,33.95c-1.59,16.14-4.05,32.13-7.46,47.98c-5.93,27.58-14.67,54.22-26.65,79.79
		c-11.81,25.2-26.37,48.68-43.69,70.44c-5.85,7.35-12.01,14.43-18.43,21.3c-19.3,20.66-40.83,38.64-64.48,54.1
		c-14.31,9.36-29.33,17.36-45.3,23.56c-2.82,1.09-5.02,1.17-7.89,0.04c-20.65-8.11-39.61-19.19-57.57-32.1
		c-13.13-9.44-25.54-19.74-37.29-30.86c-23.8-22.53-44-47.91-60.72-76.07c-12.29-20.7-22.31-42.45-30.23-65.18
		c-8.36-24.03-14.14-48.67-17.75-73.84c-1.86-12.94-3.12-25.93-3.81-38.98c-0.43-8.22-0.71-16.44-0.7-24.66
		c0-80.78,0-161.56,0-242.35c0-2.46,0-2.46,2.55-2.46C160.31,6.36,230.14,6.36,299.97,6.36z M300.01,14.12
		c-67.24,0-134.49,0-201.73,0c-2.77,0-2.44-0.34-2.44,2.46c0,77.58,0,155.16-0.01,232.74c0,7.62,0.27,15.22,0.59,22.83
		c0.45,10.61,1.39,21.17,2.59,31.72c1.76,15.51,4.44,30.86,8.08,46.03c7.8,32.55,19.58,63.56,35.94,92.8
		c13.72,24.52,30.26,46.98,49.43,67.48c9.99,10.69,20.65,20.7,32,29.96c22.58,18.44,46.62,34.5,73.99,45.11
		c0.9,0.35,1.64,0.56,2.62,0.17c8.93-3.67,17.81-7.41,26.27-12.11c23.65-13.16,45.15-29.23,64.88-47.69
		c11.36-10.63,21.93-22.02,31.76-34.1c14.68-18.03,27.35-37.37,38.12-57.95c10.05-19.21,18.17-39.23,24.52-59.96
		c6.13-19.98,10.54-40.34,13.41-61.05c2.63-18.99,4.16-38.08,4.2-57.22c0.14-79.61,0.06-159.22,0.06-238.83
		c0-2.66,0.33-2.38-2.34-2.38C434.62,14.11,367.31,14.12,300.01,14.12z"/>
	<path class="st1" d="M300.01,14.12c67.3,0,134.61,0,201.91,0c2.67,0,2.34-0.27,2.34,2.38c0.01,79.61,0.09,159.22-0.06,238.83
		c-0.03,19.15-1.57,38.23-4.2,57.22c-2.87,20.71-7.28,41.07-13.41,61.05c-6.36,20.72-14.48,40.75-24.52,59.96
		c-10.77,20.58-23.44,39.92-38.12,57.95c-9.83,12.08-20.4,23.48-31.76,34.1c-19.73,18.46-41.23,34.53-64.88,47.69
		c-8.46,4.71-17.34,8.45-26.27,12.11c-0.97,0.4-1.72,0.18-2.62-0.17c-27.36-10.61-51.4-26.67-73.99-45.11
		c-11.34-9.26-22-19.27-32-29.96c-19.17-20.51-35.7-42.96-49.43-67.48c-16.37-29.24-28.14-60.25-35.94-92.8
		c-3.64-15.17-6.32-30.52-8.08-46.03c-1.2-10.55-2.14-21.11-2.59-31.72c-0.32-7.61-0.59-15.22-0.59-22.83
		c0-77.58,0-155.16,0.01-232.74c0-2.8-0.33-2.46,2.44-2.46C165.52,14.11,232.76,14.12,300.01,14.12z M299.93,24.02
		c-63.92,0-127.85,0-191.77,0c-2.5,0-2.51,0-2.5,2.45c0.23,79.91-0.47,159.82,0.36,239.73c0.05,4.79,0.42,9.55,0.7,14.33
		c0.58,9.98,1.69,19.9,2.99,29.8c1.35,10.27,3.19,20.46,5.39,30.58c3.38,15.55,7.76,30.82,13.18,45.79
		c4.96,13.7,10.67,27.07,17.35,40.03c6.77,13.13,14.23,25.82,22.61,37.98c10.87,15.77,23.08,30.43,36.42,44.15
		c6.43,6.61,13.21,12.85,20.19,18.87c10.8,9.33,22.08,18.01,34.05,25.79c12.54,8.15,25.46,15.6,39.45,21.03
		c0.77,0.3,1.48,0.73,2.44,0.33c5.32-2.24,10.7-4.34,15.83-7.01c15.64-8.11,30.38-17.62,44.3-28.41
		c13.71-10.64,26.59-22.18,38.51-34.8c10.35-10.96,19.95-22.52,28.78-34.73c13.84-19.15,25.39-39.61,34.9-61.21
		c8.55-19.43,15.17-39.54,20.13-60.18c2.47-10.25,4.44-20.6,6.06-31.03c1.43-9.2,2.48-18.45,3.35-27.72
		c0.93-9.96,1.63-19.94,1.64-29.92c0.11-77.71,0.06-155.41,0.06-233.12c0-2.72,0-2.72-2.65-2.72
		C427.78,24.02,363.86,24.02,299.93,24.02z"/>
	<path class="st2" d="M299.93,24.02c63.92,0,127.85,0,191.77,0c2.65,0,2.65,0,2.65,2.72c0,77.71,0.05,155.41-0.06,233.12
		c-0.01,9.98-0.72,19.96-1.64,29.92c-0.86,9.28-1.92,18.52-3.35,27.72c-1.62,10.42-3.59,20.77-6.06,31.03
		c-4.97,20.64-11.58,40.74-20.13,60.18c-9.51,21.61-21.06,42.07-34.9,61.21c-8.83,12.21-18.42,23.77-28.78,34.73
		c-11.93,12.62-24.8,24.16-38.51,34.8c-13.92,10.8-28.66,20.3-44.3,28.41c-5.14,2.66-10.51,4.77-15.83,7.01
		c-0.97,0.41-1.67-0.03-2.44-0.33c-13.99-5.43-26.91-12.88-39.45-21.03c-11.97-7.78-23.25-16.46-34.05-25.79
		c-6.98-6.03-13.76-12.27-20.19-18.87c-13.34-13.72-25.55-28.38-36.42-44.15c-8.38-12.16-15.85-24.85-22.61-37.98
		c-6.68-12.96-12.39-26.33-17.35-40.03c-5.42-14.97-9.8-30.25-13.18-45.79c-2.2-10.11-4.04-20.31-5.39-30.58
		c-1.3-9.9-2.42-19.82-2.99-29.8c-0.28-4.77-0.65-9.54-0.7-14.33c-0.83-79.91-0.12-159.82-0.36-239.73c-0.01-2.45,0-2.45,2.5-2.45
		C172.08,24.02,236.01,24.02,299.93,24.02z M263.75,282.6c1.29-1.05,2.22-1.82,3.16-2.57c14.84-11.8,31.42-14.55,49.42-9.26
		c6.8,2,12.75,5.71,18.16,10.28c0.4,0.33,0.72,1.07,1.32,0.75c0.54-0.29,0.18-1.01,0.25-1.53c0.03-0.24,0.01-0.49,0.01-0.74
		c0-27.93,0.02-55.86-0.04-83.8c0-1.8,0.35-2.37,2.29-2.37c22.39,0.08,44.79,0.05,67.18,0.06c2.88,0,2.52-0.34,2.52,2.58
		c0.01,91.55,0,183.1,0.01,274.65c0,0.65-0.17,1.32,0.15,1.97c0.61-0.04,0.82-0.56,1.09-0.92c3.93-5.19,7.84-10.39,11.52-15.78
		c11.6-17,21.53-34.92,29.7-53.81c6.86-15.86,12.57-32.12,16.95-48.83c5.03-19.2,8.45-38.69,10.47-58.44
		c1.15-11.29,2.11-22.6,2.12-33.95c0.07-73.4,0.04-146.8,0.04-220.2c0-2.37,0-2.37-2.37-2.37c-118.5,0-236.99,0-355.49,0
		c-2.44,0-2.44,0-2.44,2.51c0,68.29,0,136.58,0,204.88c0,8.41,0.25,16.82,0.62,25.22c0.31,7.05,0.85,14.07,1.49,21.09
		c0.94,10.26,2.39,20.45,4.13,30.61c2.97,17.39,7.18,34.48,12.79,51.21c6.71,20.02,15.05,39.33,25.44,57.74
		c7.65,13.56,16.18,26.53,25.69,38.86c0.59,0.77,1.04,1.75,2.17,2.32c0-0.89,0-1.56,0-2.24c0-91.61,0.01-183.22-0.04-274.83
		c0-1.86,0.45-2.33,2.32-2.33c22.39,0.07,44.79,0.07,67.18,0c1.75,0,2.26,0.39,2.26,2.21c-0.06,28.18-0.04,56.36-0.04,84.53
		C263.75,280.78,263.75,281.45,263.75,282.6z M336.06,359.15c-0.47,0.19-0.66,0.21-0.79,0.32c-11.21,9.96-24.26,14.51-39.26,13.41
		c-11.61-0.85-21.75-5.17-30.53-12.78c-0.43-0.37-0.75-1.19-1.46-0.8c-0.54,0.29-0.27,1.01-0.27,1.54
		c-0.01,59.11-0.01,118.22-0.03,177.33c0,1.17,0.35,1.94,1.34,2.59c9.69,6.31,19.6,12.2,30.08,17.13c3.21,1.51,6.13,2.28,9.27,0.1
		c0.69-0.48,1.56-0.7,2.34-1.07c9.52-4.5,18.51-9.92,27.38-15.58c1.38-0.88,1.97-1.82,1.97-3.54c-0.05-58.8-0.04-117.6-0.04-176.4
		C336.06,360.72,336.06,360.05,336.06,359.15z M300.14,368.02c25.82,0.19,47.24-20.68,47.37-47.27
		c0.13-26.07-21.23-47.58-47.19-47.6c-26.41-0.01-47.72,21.08-47.73,47.41C252.59,347.14,273.97,368.28,300.14,368.02z"/>
	<path class="st1" d="M263.75,282.6c0-1.16,0-1.82,0-2.49c0-28.18-0.02-56.36,0.04-84.53c0-1.82-0.5-2.21-2.26-2.21
		c-22.39,0.06-44.79,0.07-67.18,0c-1.87-0.01-2.32,0.46-2.32,2.33c0.05,91.61,0.04,183.22,0.04,274.83c0,0.67,0,1.34,0,2.24
		c-1.13-0.57-1.58-1.55-2.17-2.32c-9.51-12.33-18.04-25.3-25.69-38.86c-10.39-18.41-18.74-37.72-25.44-57.74
		c-5.6-16.72-9.82-33.81-12.79-51.21c-1.73-10.15-3.19-20.34-4.13-30.61c-0.64-7.02-1.17-14.04-1.49-21.09
		c-0.38-8.41-0.62-16.81-0.62-25.22c0.01-68.29,0-136.58,0-204.88c0-2.51,0-2.51,2.44-2.51c118.5,0,236.99,0,355.49,0
		c2.37,0,2.37,0,2.37,2.37c0,73.4,0.04,146.8-0.04,220.2c-0.01,11.34-0.97,22.65-2.12,33.95c-2.02,19.75-5.44,39.24-10.47,58.44
		c-4.38,16.72-10.09,32.97-16.95,48.83c-8.17,18.9-18.1,36.81-29.7,53.81c-3.67,5.38-7.58,10.59-11.52,15.78
		c-0.27,0.35-0.47,0.87-1.09,0.92c-0.32-0.65-0.15-1.32-0.15-1.97c-0.01-91.55-0.01-183.1-0.01-274.65c0-2.93,0.36-2.58-2.52-2.58
		c-22.39-0.01-44.79,0.02-67.18-0.06c-1.94-0.01-2.3,0.56-2.29,2.37c0.06,27.93,0.04,55.86,0.04,83.8c0,0.25,0.03,0.5-0.01,0.74
		c-0.07,0.52,0.29,1.25-0.25,1.53c-0.6,0.32-0.93-0.41-1.32-0.75c-5.41-4.57-11.36-8.28-18.16-10.28c-18-5.3-34.58-2.54-49.42,9.26
		C265.96,280.78,265.03,281.55,263.75,282.6z M352.29,106.9c0,16.67,0.04,33.33-0.05,50c-0.01,1.86,0.53,2.17,2.24,2.16
		c8.86-0.09,17.71-0.04,26.57-0.05c1.59,0,3.17-0.04,4.77-0.21c7.87-0.8,14.13-7.64,14.13-15.56c0-24.11,0-48.22,0-72.32
		c0-8.77-7.13-15.89-15.93-15.9c-9.96-0.01-19.93,0.04-29.89-0.04c-1.57-0.01-1.89,0.41-1.88,1.92
		C352.31,73.57,352.29,90.24,352.29,106.9z M410.95,106.84c0,11.87,0,23.74,0,35.61c0,9.41,7.12,16.54,16.55,16.57
		c4.8,0.02,9.59,0.01,14.39,0c9.76-0.01,16.9-7.08,16.9-16.82c0.02-23.55,0.02-47.11,0-70.66c-0.01-9.42-7.17-16.51-16.59-16.51
		c-4.92,0-9.84,0-14.76,0c-9.43,0-16.49,7.09-16.49,16.57C410.94,83.34,410.95,95.09,410.95,106.84z M196.63,106.95
		c0,12.17-0.02,24.35,0.01,36.52c0.01,7.58,6.48,14.62,14.02,15.3c5.95,0.54,11.92,0.38,17.87,0.18c8.96-0.3,15.79-7.3,15.81-15.96
		c0.05-24.04,0.06-48.08-0.01-72.13c-0.03-8.71-7.4-15.83-16.09-15.84c-5.29,0-10.58-0.02-15.86,0c-8.5,0.03-15.75,7.3-15.75,15.76
		C196.63,82.84,196.63,94.89,196.63,106.95z M301.33,107.02c0,16.73,0.02,33.47-0.03,50.2c0,1.44,0.35,1.83,1.81,1.83
		c12.18-0.06,24.36-0.05,36.55-0.01c1.19,0,1.75-0.16,1.72-1.56c-0.09-4.74-0.09-9.48,0-14.21c0.03-1.36-0.43-1.59-1.66-1.58
		c-6.46,0.06-12.92-0.01-19.38,0.06c-1.35,0.02-1.76-0.29-1.75-1.71c0.08-7.57,0.08-15.14,0-22.7c-0.01-1.44,0.45-1.73,1.78-1.72
		c6.46,0.06,12.92-0.01,19.38,0.06c1.31,0.01,1.64-0.36,1.62-1.64c-0.08-4.61-0.08-9.23,0-13.84c0.03-1.41-0.3-1.87-1.79-1.85
		c-6.4,0.09-12.8,0.01-19.2,0.06c-1.29,0.01-1.82-0.2-1.8-1.68c0.08-7.57,0.08-15.14,0-22.7c-0.01-1.41,0.39-1.75,1.76-1.73
		c6.46,0.07,12.92,0,19.38,0.06c1.29,0.01,1.66-0.34,1.64-1.64c-0.07-4.67-0.09-9.35,0.01-14.03c0.03-1.43-0.4-1.71-1.75-1.71
		c-12.18,0.05-24.36,0.06-36.55-0.01c-1.49-0.01-1.79,0.43-1.78,1.83C301.35,73.55,301.33,90.29,301.33,107.02z M173.69,115.77
		c0-13.9,0.02-27.81-0.03-41.71c-0.01-1.38,0.34-1.79,1.74-1.75c4.06,0.1,8.12,0,12.18,0.06c1.14,0.02,1.47-0.34,1.46-1.47
		c-0.06-4.8-0.07-9.6,0.01-14.4c0.02-1.27-0.43-1.5-1.59-1.5c-14.89,0.04-29.78,0.04-44.67-0.01c-1.27,0-1.53,0.4-1.52,1.56
		c0.05,4.74,0.07,9.48-0.01,14.21c-0.02,1.37,0.48,1.62,1.7,1.59c3.75-0.07,7.51,0.08,11.26-0.07c1.77-0.07,2.22,0.39,2.21,2.19
		c-0.06,27.44-0.03,54.88-0.08,82.32c0,1.71,0.28,2.33,2.16,2.27c4.42-0.16,8.86-0.12,13.29-0.01c1.55,0.04,1.93-0.42,1.93-1.94
		C173.66,143.33,173.69,129.55,173.69,115.77z M255.12,106.91c0,16.79,0.01,33.58-0.02,50.37c0,1.11,0.01,1.77,1.5,1.76
		c12.42-0.06,24.85-0.05,37.27-0.02c1.1,0,1.5-0.28,1.48-1.44c-0.06-4.8-0.07-9.6,0-14.39c0.02-1.25-0.38-1.52-1.56-1.51
		c-6.4,0.06-12.79-0.03-19.19,0.07c-1.65,0.03-2.11-0.36-2.1-2.07c0.06-27.62,0.03-55.23,0.07-82.85c0-1.36-0.22-1.89-1.76-1.86
		c-4.61,0.12-9.23,0.12-13.84,0c-1.57-0.04-1.9,0.41-1.9,1.93C255.14,73.58,255.12,90.24,255.12,106.91z M404,176.28
		c0,1.96,0.05,3.93-0.02,5.89c-0.05,1.22,0.44,1.62,1.62,1.59c3.55-0.09,7.1,0.01,10.66-0.22c3.76-0.25,5.65-3.41,3.76-6.72
		c-0.41-0.73-0.41-1.23-0.22-2c0.75-3.03-0.49-5.22-2.93-5.47c-3.79-0.38-7.58-0.26-11.38-0.31c-1.13-0.01-1.52,0.45-1.49,1.53
		C404.04,172.47,404,174.37,404,176.28z M187.65,175.19c-1.14,0.03-2.79,0.03-4.43-0.27c-0.86-0.16-1.55-0.36-1.53-1.44
		c0.02-1.06,0.71-1.4,1.56-1.43c2.15-0.05,4.3-0.04,6.45-0.02c0.56,0,1.25,0.14,1.24,0.83c-0.01,1.92,1.42,1.49,2.33,1.29
		c1.33-0.28,0.72-1.54,0.58-2.29c-0.26-1.43-1.46-2.06-2.77-2.37c-3.16-0.75-6.34-0.49-9.47,0.16c-2.4,0.5-3.11,1.84-2.9,4.75
		c0.14,1.83,1.3,2.9,3.4,3.23c2.51,0.4,5.02,0.22,7.54,0.25c0.94,0.01,1.72,0.09,1.72,1.34c0,1.12-0.6,1.55-1.6,1.57
		c-2.27,0.04-4.54,0.06-6.82,0.05c-0.75,0-1.33-0.31-1.27-1.21c0.1-1.48-0.94-1.27-1.86-1.3c-1.28-0.05-1.12,0.83-1.11,1.63
		c0.01,2.1,0.92,3.17,3.02,3.51c3.12,0.5,6.25,0.29,9.35-0.11c2.36-0.3,3.67-2.07,3.48-4.4c-0.22-2.64-1.36-3.72-4-3.76
		C189.76,175.18,188.96,175.19,187.65,175.19z M428.67,176.36c0,1.97,0.06,3.94-0.02,5.9c-0.04,1.12,0.32,1.51,1.46,1.49
		c3.75-0.05,7.51-0.05,11.26,0c1.11,0.01,1.49-0.35,1.5-1.49c0.01-1.24-0.57-1.41-1.59-1.39c-2.64,0.04-5.29-0.07-7.93,0.05
		c-1.42,0.06-1.76-0.42-1.75-1.77c0.01-1.29,0.37-1.71,1.67-1.66c2.52,0.1,5.04-0.01,7.57,0.04c1.04,0.02,1.57-0.18,1.56-1.4
		c-0.02-1.17-0.48-1.49-1.54-1.47c-2.58,0.04-5.17-0.03-7.75,0.03c-1.14,0.03-1.48-0.37-1.48-1.49c0-1.16,0.56-1.29,1.49-1.28
		c2.77,0.03,5.54-0.03,8.3,0.03c1.17,0.03,1.46-0.47,1.46-1.54c0-1.06-0.4-1.39-1.42-1.38c-3.81,0.04-7.63,0.04-11.44,0
		c-1.09-0.01-1.37,0.43-1.34,1.43C428.71,172.43,428.67,174.4,428.67,176.36z M299.15,176.35c0,1.97,0.04,3.93-0.02,5.9
		c-0.03,1.12,0.4,1.52,1.51,1.51c3.81-0.04,7.62-0.03,11.43,0c0.99,0.01,1.43-0.32,1.44-1.39c0.01-1.13-0.42-1.51-1.52-1.49
		c-2.76,0.05-5.53-0.05-8.29,0.04c-1.53,0.05-1.25-0.92-1.29-1.81c-0.04-0.95-0.02-1.66,1.31-1.61c2.58,0.09,5.16,0,7.74,0.04
		c0.98,0.02,1.45-0.24,1.44-1.34c-0.01-1.04-0.36-1.4-1.39-1.38c-2.52,0.05-5.04-0.02-7.56,0.03c-1.01,0.02-1.58-0.12-1.58-1.37
		c0.01-1.22,0.4-1.59,1.6-1.56c2.64,0.07,5.28,0,7.92,0.03c1.01,0.01,1.63-0.19,1.62-1.4c-0.01-1.1-0.38-1.53-1.51-1.52
		c-3.81,0.05-7.62,0.04-11.43,0.01c-1.02-0.01-1.45,0.39-1.43,1.41C299.18,172.41,299.15,174.38,299.15,176.35z M251.85,176.32
		c0,1.91,0.04,3.81-0.02,5.72c-0.03,1.09,0.18,1.74,1.48,1.73c1.24,0,1.64-0.5,1.52-1.67c-0.07-0.73,0.03-1.48-0.02-2.21
		c-0.07-0.95,0.26-1.32,1.25-1.29c1.6,0.06,3.2,0.02,4.79,0.02c3.97,0,3.97,0,4.3,3.9c0.01,0.06,0,0.12,0,0.18
		c-0.04,1,0.66,1.04,1.37,1.03c0.73-0.01,1.58,0.12,1.59-1.01c0.01-1.53,0.17-3.08-0.39-4.56c-0.14-0.38-0.55-0.73-0.2-1.18
		c0.96-1.25,0.67-2.7,0.66-4.1c-0.01-2.16-1.08-3.35-3.19-3.54c-3.92-0.34-7.84-0.35-11.77-0.33c-1.03,0-1.43,0.34-1.4,1.39
		C251.89,172.38,251.85,174.35,251.85,176.32z M226.01,176.45c0,0.98-0.07,1.97,0.01,2.95c0.18,2.25,1.44,3.88,3.34,4.03
		c3.66,0.28,7.34,0.58,11.01,0c1.72-0.27,2.75-1.27,3.05-2.99c0.46-2.68,0.47-5.36,0.01-8.04c-0.3-1.72-1.32-2.72-3.03-3
		c-3.72-0.61-7.45-0.39-11.17,0.02c-1.58,0.17-2.65,1.09-2.96,2.82C226.02,173.65,225.99,175.04,226.01,176.45z M157.26,176.43
		c0,1.9,0.06,3.81-0.02,5.71c-0.05,1.18,0.3,1.64,1.54,1.62c3.62-0.06,7.25-0.04,10.87-0.01c1.08,0.01,1.73-0.18,1.71-1.5
		c-0.01-1.41-0.85-1.38-1.83-1.37c-2.7,0.02-5.41-0.07-8.11,0.04c-1.45,0.06-1.38-0.74-1.38-1.72c-0.01-1-0.04-1.77,1.39-1.71
		c2.51,0.11,5.04,0.01,7.55,0.04c1.01,0.01,1.74,0.02,1.74-1.4c0-1.51-0.9-1.3-1.81-1.3c-2.46,0-4.92-0.04-7.37,0.02
		c-1.1,0.03-1.52-0.31-1.52-1.46c0-1.12,0.33-1.5,1.47-1.47c2.82,0.07,5.65,0,8.48,0.03c1.06,0.01,1.38-0.48,1.38-1.46
		c0-0.99-0.34-1.46-1.39-1.45c-3.81,0.03-7.62,0.03-11.43,0c-0.96-0.01-1.3,0.38-1.29,1.31
		C157.29,172.38,157.26,174.4,157.26,176.43z M342.14,180.77C342.14,180.77,342.14,180.77,342.14,180.77
		c-1.23-0.01-2.46,0.04-3.68-0.02c-0.92-0.04-1.72-0.36-1.69-1.51c0.04-1.71-0.34-3.37-0.08-5.12c0.22-1.48,0.82-2.08,2.2-2.09
		c2.09-0.01,4.17-0.02,6.26,0.01c1.11,0.01,2.06,0.2,2.08,1.7c0.02,1.29,1.19,1.04,1.96,1.08c0.85,0.05,0.85-0.67,0.88-1.31
		c0.13-2.53-1.12-3.85-3.59-4.18c-3.01-0.4-5.98-0.22-8.97,0.04c-2.39,0.21-3.56,1.29-3.71,3.73c-0.13,2.14-0.13,4.3-0.03,6.44
		c0.12,2.68,1.36,3.78,4.08,3.98c2.82,0.2,5.62,0.3,8.44,0.03c2.91-0.29,3.91-1.26,3.85-4.2c-0.02-0.74,0.12-1.52-1.05-1.5
		c-0.91,0.01-1.89-0.02-1.85,1.19c0.05,1.51-0.86,1.71-1.98,1.75C344.23,180.8,343.19,180.77,342.14,180.77z M202.48,176.4
		c0,1.84,0.01,3.68,0,5.53c-0.01,0.97-0.07,1.83,1.36,1.84c1.33,0.01,1.75-0.54,1.62-1.78c-0.06-0.61,0.04-1.23-0.02-1.84
		c-0.13-1.2,0.31-1.61,1.54-1.56c2.58,0.09,5.16,0.06,7.74,0.01c1.68-0.03,3.2-0.72,3.44-2.46c0.29-2.11,0.94-4.44-1.06-6.2
		c-0.46-0.4-1.05-0.57-1.69-0.62c-3.73-0.3-7.47-0.26-11.2-0.31c-1.26-0.02-1.78,0.37-1.73,1.67
		C202.54,172.59,202.48,174.5,202.48,176.4z M381.86,174.64c0-1.42-0.05-2.83,0.02-4.24c0.05-1.07-0.38-1.41-1.4-1.36
		c-0.88,0.04-1.6,0.09-1.59,1.25c0.03,3.08-0.11,6.16,0.06,9.23c0.16,2.81,1.47,3.72,4.28,4.03c2.78,0.31,5.51,0.07,8.27-0.04
		c2.73-0.11,4.13-1.32,4.25-4.06c0.13-3.01,0.01-6.03,0.05-9.04c0.02-1.23-0.66-1.36-1.65-1.38c-1.08-0.02-1.37,0.45-1.35,1.45
		c0.04,2.71-0.02,5.41,0.03,8.12c0.03,1.36-0.52,2.08-1.88,2.17c-2.46,0.16-4.91,0.2-7.37,0c-1.16-0.09-1.79-0.61-1.73-1.88
		C381.91,177.47,381.86,176.05,381.86,174.64z M283.66,169.05c-2.27,0-4.54,0.04-6.81-0.02c-1.07-0.03-1.39,0.4-1.37,1.42
		c0.02,0.96,0.26,1.53,1.35,1.5c1.35-0.04,2.7,0.04,4.05-0.02c1.06-0.05,1.38,0.39,1.36,1.4c-0.05,2.95,0.01,5.89-0.03,8.84
		c-0.01,1.02,0.21,1.61,1.41,1.6c1.19-0.01,1.61-0.43,1.59-1.63c-0.07-2.95,0.01-5.89-0.04-8.84c-0.02-1.04,0.33-1.43,1.38-1.37
		c1.22,0.07,2.46-0.02,3.68,0.03c1.05,0.04,1.57-0.29,1.58-1.46c0.01-1.15-0.43-1.49-1.52-1.46
		C288.08,169.09,285.87,169.05,283.66,169.05z M358.17,176.26c0,2.03,0.04,4.05-0.02,6.08c-0.03,1.05,0.41,1.42,1.41,1.42
		c3.5-0.02,7-0.03,10.5,0c1.11,0.01,1.47-0.42,1.5-1.53c0.03-1.29-0.66-1.35-1.62-1.34c-2.45,0.03-4.91-0.04-7.36,0.03
		c-1.15,0.04-1.47-0.36-1.45-1.47c0.07-3.01-0.01-6.02,0.04-9.02c0.02-1.03-0.33-1.42-1.38-1.39c-0.95,0.03-1.68,0.05-1.63,1.34
		C358.23,172.33,358.17,174.29,358.17,176.26z"/>
	<path class="st1" d="M336.06,359.15c0,0.91,0,1.58,0,2.25c0,58.8-0.01,117.6,0.04,176.4c0,1.72-0.59,2.66-1.97,3.54
		c-8.87,5.65-17.86,11.07-27.38,15.58c-0.78,0.37-1.65,0.59-2.34,1.07c-3.14,2.18-6.06,1.41-9.27-0.1
		c-10.48-4.93-20.39-10.82-30.08-17.13c-0.99-0.65-1.34-1.42-1.34-2.59c0.02-59.11,0.02-118.22,0.03-177.33
		c0-0.53-0.28-1.25,0.27-1.54c0.71-0.38,1.04,0.43,1.46,0.8c8.77,7.62,18.91,11.94,30.53,12.78c15,1.09,28.05-3.45,39.26-13.41
		C335.4,359.36,335.59,359.33,336.06,359.15z M287.34,460.59c0,1.84,0.08,3.69-0.01,5.52c-0.32,6.26,1.22,7.37,7.16,7.11
		c2.89-0.13,4.55-1.48,4.59-4.35c0.09-5.58,0.09-11.17,0-16.75c-0.04-2.82-1.76-4.31-4.62-4.32c-0.92-0.01-1.84-0.01-2.76,0
		c-2.71,0.02-4.33,1.6-4.35,4.32C287.32,454.94,287.34,457.77,287.34,460.59z M312.5,460.69c0-2.95,0.01-5.9,0-8.86
		c-0.01-2.54-1.44-3.97-3.99-4.03c-1.17-0.02-2.34-0.03-3.51,0c-2.36,0.07-3.98,1.58-4,3.93c-0.06,5.84-0.05,11.69,0,17.53
		c0.02,2.29,1.56,3.81,3.81,3.93c1.35,0.07,2.71,0.07,4.06,0c2.2-0.11,3.6-1.61,3.62-3.84C312.52,466.47,312.5,463.58,312.5,460.69z
		 M279.49,473.21c1.41,0,2.84-0.09,4.24,0.03c1.42,0.12,1.69-0.45,1.77-1.78c0.1-1.84-0.4-2.62-2.33-2.34
		c-1.02,0.15-2.09,0.08-3.13,0.01c-0.67-0.05-1.64,0.45-1.92-0.52c-0.24-0.8-0.2-1.67,0.47-2.42c1.15-1.28,2.06-2.8,3.33-3.93
		c3.22-2.88,3.93-6.48,3.54-10.53c-0.22-2.2-1.75-3.82-3.93-3.89c-1.84-0.07-3.69-0.02-5.54-0.01c-0.46,0-0.97-0.11-1.24,0.52
		c-0.84,1.95,0.17,3.55,2.27,3.55c0.98,0,1.97,0,2.95,0.01c0.6,0.01,1.21,0.2,1.23,0.86c0.06,1.68,0.54,3.45-0.9,4.89
		c-0.78,0.78-1.39,1.73-2.17,2.5c-3.28,3.21-5.21,6.89-4.49,11.66c0.15,0.98,0.38,1.46,1.42,1.42
		C276.53,473.17,278.01,473.21,279.49,473.21z M326.14,465.94c0-1.72,0-3.44,0-5.17c0-2.38-0.01-2.25-2.39-2.38
		c-2.31-0.13-1.56,1.44-1.68,2.57c-0.05,0.46,0.12,1.09-0.58,1.16c-0.6,0.06-1.31,0.15-1.79-0.12c-0.54-0.3-0.01-0.87,0.16-1.28
		c1.55-3.74,3.14-7.47,4.66-11.22c0.19-0.48,0.93-1.06,0.13-1.6c-1.13-0.77-3.98,0.12-4.52,1.39c-1.56,3.67-3,7.4-4.67,11.02
		c-0.71,1.53-0.79,3.05-0.81,4.65c-0.01,0.94,0.29,1.33,1.27,1.3c1.66-0.06,3.32,0.02,4.98-0.03c0.86-0.02,1.22,0.27,1.19,1.16
		c-0.05,1.47,0.02,2.95-0.02,4.43c-0.05,1.92,1.37,1.29,2.35,1.38c0.97,0.09,1.83,0.09,1.75-1.36
		C326.06,469.88,326.14,467.91,326.14,465.94z"/>
	<path class="st1" d="M300.14,368.02c-26.17,0.26-47.56-20.89-47.55-47.46c0.01-26.33,21.32-47.42,47.73-47.41
		c25.96,0.01,47.32,21.53,47.19,47.6C347.38,347.34,325.96,368.21,300.14,368.02z M300.23,301.6c0,1.03,0.07,1.54-0.01,2.02
		c-0.33,2,0.43,3.31,2.17,4.39c2.24,1.39,4.31,3.03,6.43,4.6c5.17,3.83,5.17,3.83,11.25,1.73c0.17-0.06,0.35-0.13,0.52-0.17
		c0.68-0.15,0.97-0.58,1.18-1.24c1.58-4.9,3.2-9.79,4.83-14.67c0.27-0.79,0.14-1.36-0.44-1.98c-2.88-3.09-6.2-5.57-9.91-7.56
		c-1.04-0.56-1.88-0.57-2.87,0.15c-3.19,2.29-6.34,4.66-9.71,6.67C301.03,297.12,299.33,298.87,300.23,301.6z M298.02,302.23
		c0-1.41-0.05-2.83,0.02-4.24c0.04-0.89-0.22-1.48-0.97-2c-3.54-2.44-7.07-4.89-10.55-7.41c-0.77-0.56-1.35-0.54-2.16-0.14
		c-4.13,2.04-7.66,4.86-10.8,8.21c-0.54,0.57-0.63,1.08-0.38,1.82c1.52,4.53,3.01,9.08,4.48,13.63c0.23,0.7,0.56,1.15,1.31,1.37
		c2.23,0.68,4.45,1.4,6.65,2.16c0.79,0.27,1.37,0.12,2.02-0.37c1.96-1.48,3.86-3.09,5.98-4.29
		C297.14,309,299.18,306.47,298.02,302.23z M277.01,338.87c0.37,0,0.75-0.07,1.1,0.01c5.19,1.1,8.59-1.23,11.05-5.59
		c0.44-0.78,0.6-1.34,0.32-2.17c-1.05-3.14-2.23-6.26-2.99-9.47c-0.76-3.2-2.27-5.24-5.71-5.63c-1.19-0.14-2.36-0.68-3.49-1.13
		c-0.9-0.36-1.6-0.25-2.38,0.33c-3.1,2.31-6.21,4.6-9.37,6.82c-0.93,0.66-1.23,1.4-1.07,2.47c0.69,4.65,2.01,9.08,4.2,13.26
		c0.43,0.82,0.96,1.15,1.88,1.12C272.71,338.83,274.86,338.87,277.01,338.87z M322.25,339.52c2.21,0,4.42-0.03,6.63,0.01
		c0.95,0.02,1.58-0.28,2.09-1.14c2.44-4.12,3.84-8.58,4.58-13.29c0.11-0.7-0.25-1-0.71-1.34c-3.56-2.61-7.12-5.22-10.67-7.84
		c-0.56-0.41-1.07-0.66-1.84-0.38c-2.02,0.71-4.07,1.35-6.14,1.92c-1.01,0.28-1.49,0.89-1.79,1.86c-0.88,2.87-1.81,5.73-2.75,8.58
		c-1.75,5.31-1.72,5.29,1.36,10c0.75,1.15,1.56,1.72,2.98,1.64C318.07,339.44,320.16,339.52,322.25,339.52z M299.62,334.83
		c-1.29,0-2.62,0.19-3.87-0.04c-4-0.73-6.84,0.73-8.74,4.24c-0.03,0.05-0.08,0.1-0.12,0.14c-0.67,0.7-0.71,1.43-0.39,2.35
		c1.41,4.06,2.77,8.14,4.08,12.24c0.35,1.09,0.97,1.56,2.06,1.78c4.25,0.86,8.5,0.94,12.8,0.38c1.38-0.18,2.09-0.69,2.48-1.97
		c0.94-3.05,1.94-6.08,2.94-9.11c1.57-4.76,1.56-4.74-1.37-8.92c-0.56-0.81-1.18-1.12-2.14-1.1
		C304.78,334.86,302.2,334.83,299.62,334.83z M333.59,346.69c5.87-7.77,8.82-16.29,8.9-26.02c-1.4,0.45-2.26,1.47-3.34,2.11
		c-1.11,0.66-1.73,1.54-1.89,2.9c-0.63,5.25-2.44,10.11-5.23,14.6c-0.22,0.36-0.5,0.74-0.33,1.2
		C332.33,343.13,332.61,344.9,333.59,346.69z M285.72,360.5c8.29,3.75,22.05,3.24,26.59,0.39c-1.07-0.77-2.19-1.43-3.13-2.29
		c-1-0.92-1.99-1.16-3.33-0.93c-3.77,0.67-7.55,0.56-11.36,0.1c-1.39-0.17-2.85-1.15-4.1-0.57
		C288.74,357.98,287.34,359.32,285.72,360.5z M312.63,280.08c0.44,1.37,0.83,2.38,1.07,3.43c0.38,1.68,1.32,2.64,2.93,3.4
		c4.48,2.11,8.42,5.01,11.67,8.79c0.24,0.28,0.42,0.67,0.82,0.68c1.84,0.03,3.69,0.01,5.8,0.01
		C329.14,288.47,321.99,283.12,312.63,280.08z M265.73,295.62c1.85,0,3.24-0.05,4.63,0.02c1.01,0.05,1.74-0.31,2.42-1.03
		c3.3-3.45,7.18-6.1,11.48-8.17c0.54-0.26,1.22-0.38,1.44-1.05c0.54-1.66,1.04-3.33,1.65-5.3
		C278.47,283.06,271.47,288.03,265.73,295.62z M265.25,345c0.58-1.85,0.97-3.32,1.51-4.74c0.37-0.95,0.28-1.76-0.19-2.63
		c-2.21-4.1-3.44-8.51-3.93-13.13c-0.06-0.58-0.19-1.06-0.69-1.42c-1.1-0.78-2.17-1.61-3.28-2.38c-0.32-0.22-0.66-0.76-1.09-0.37
		c-0.2,0.19-0.19,0.7-0.15,1.05c0.2,2.01,0.37,4.02,0.67,6.01C259.08,333.67,261.39,339.42,265.25,345z"/>
	<path class="st3" d="M352.29,106.9c0-16.67,0.02-33.33-0.04-50c-0.01-1.51,0.32-1.93,1.88-1.92c9.96,0.08,19.93,0.04,29.89,0.04
		c8.8,0.01,15.93,7.13,15.93,15.9c0,24.11,0,48.22,0,72.32c0,7.92-6.27,14.76-14.13,15.56c-1.59,0.16-3.18,0.2-4.77,0.21
		c-8.86,0.01-17.71-0.04-26.57,0.05c-1.71,0.02-2.25-0.3-2.24-2.16C352.32,140.24,352.29,123.57,352.29,106.9z M369.6,107.03
		c0,11.01,0,22.03,0,33.04c0,0.81-0.29,1.72,1.17,1.68c3.26-0.09,6.52-0.03,9.78-0.03c1.22,0,1.98-0.59,2.18-1.79
		c0.12-0.72,0.16-1.46,0.16-2.19c0.01-17.96,0.01-35.93,0.01-53.89c0-2.95,0.03-5.91-0.01-8.86c-0.02-2-0.68-2.63-2.67-2.64
		c-2.95-0.01-5.91,0.09-8.86-0.04c-1.53-0.07-1.81,0.48-1.8,1.88C369.62,85.12,369.6,96.07,369.6,107.03z"/>
	<path class="st3" d="M410.95,106.84c0-11.75,0-23.49,0-35.24c0-9.48,7.06-16.57,16.49-16.57c4.92,0,9.84,0,14.76,0
		c9.42,0,16.58,7.09,16.59,16.51c0.02,23.55,0.02,47.11,0,70.66c-0.01,9.74-7.14,16.81-16.9,16.82c-4.8,0.01-9.59,0.01-14.39,0
		c-9.43-0.03-16.55-7.16-16.55-16.57C410.94,130.57,410.95,118.7,410.95,106.84z M428.23,107.04c0,10.64,0,21.27,0,31.91
		c0,2.11,0.64,2.75,2.73,2.76c2.21,0.02,4.43,0,6.64,0c3.45,0,3.94-0.48,3.94-3.87c0-20.66,0-41.32,0-61.98c0-0.37,0.02-0.74,0-1.11
		c-0.12-1.56-0.76-2.5-2.53-2.45c-2.52,0.07-5.04,0.02-7.56,0.02c-2.85,0-3.21,0.35-3.22,3.16
		C428.22,86.01,428.22,96.52,428.23,107.04z"/>
	<path class="st3" d="M196.63,106.95c0-12.05,0-24.1,0-36.16c0-8.46,7.25-15.73,15.75-15.76c5.29-0.02,10.58-0.01,15.86,0
		c8.69,0.01,16.06,7.13,16.09,15.84c0.07,24.04,0.06,48.08,0.01,72.13c-0.02,8.66-6.86,15.67-15.81,15.96
		c-5.94,0.2-11.92,0.36-17.87-0.18c-7.55-0.69-14.01-7.72-14.02-15.3C196.61,131.29,196.63,119.12,196.63,106.95z M227.08,106.88
		c0-10.52,0-21.04,0-31.56c0-2.49-0.5-2.98-3.03-2.99c-2.4,0-4.8,0-7.2,0c-2.62,0-3.08,0.46-3.08,3.14c0,7.94,0,15.87,0,23.81
		c0,13.1,0,26.2,0,39.31c0,2.57,0.57,3.13,3.12,3.13c2.28,0,4.55,0,6.83,0c2.78,0,3.36-0.57,3.36-3.28
		C227.08,127.92,227.08,117.4,227.08,106.88z"/>
	<path class="st3" d="M301.33,107.02c0-16.73,0.02-33.47-0.03-50.2c0-1.4,0.29-1.84,1.78-1.83c12.18,0.07,24.36,0.06,36.55,0.01
		c1.35-0.01,1.78,0.28,1.75,1.71c-0.1,4.67-0.08,9.35-0.01,14.03c0.02,1.29-0.35,1.65-1.64,1.64c-6.46-0.06-12.92,0.01-19.38-0.06
		c-1.36-0.01-1.77,0.33-1.76,1.73c0.07,7.57,0.08,15.14,0,22.7c-0.02,1.48,0.51,1.69,1.8,1.68c6.4-0.06,12.8,0.02,19.2-0.06
		c1.49-0.02,1.82,0.44,1.79,1.85c-0.09,4.61-0.08,9.23,0,13.84c0.02,1.28-0.31,1.65-1.62,1.64c-6.46-0.07-12.92,0-19.38-0.06
		c-1.33-0.01-1.79,0.28-1.78,1.72c0.08,7.57,0.08,15.14,0,22.7c-0.01,1.42,0.39,1.72,1.75,1.71c6.46-0.07,12.92,0,19.38-0.06
		c1.23-0.01,1.69,0.22,1.66,1.58c-0.09,4.74-0.09,9.48,0,14.21c0.03,1.41-0.54,1.57-1.72,1.56c-12.18-0.04-24.36-0.05-36.55,0.01
		c-1.47,0.01-1.82-0.39-1.81-1.83C301.35,140.49,301.33,123.75,301.33,107.02z"/>
	<path class="st3" d="M173.69,115.77c0,13.78-0.02,27.56,0.03,41.35c0.01,1.52-0.38,1.98-1.93,1.94c-4.43-0.11-8.86-0.14-13.29,0.01
		c-1.87,0.07-2.16-0.56-2.16-2.27c0.06-27.44,0.02-54.88,0.08-82.32c0-1.8-0.44-2.26-2.21-2.19c-3.75,0.15-7.51,0-11.26,0.07
		c-1.22,0.02-1.73-0.23-1.7-1.59c0.08-4.74,0.06-9.47,0.01-14.21c-0.01-1.16,0.25-1.57,1.52-1.56c14.89,0.05,29.78,0.04,44.67,0.01
		c1.16,0,1.61,0.22,1.59,1.5c-0.07,4.8-0.06,9.6-0.01,14.4c0.01,1.13-0.32,1.48-1.46,1.47c-4.06-0.06-8.12,0.04-12.18-0.06
		c-1.4-0.03-1.75,0.38-1.74,1.75C173.71,87.96,173.69,101.86,173.69,115.77z"/>
	<path class="st3" d="M255.12,106.91c0-16.67,0.02-33.34-0.04-50.01c-0.01-1.52,0.33-1.97,1.9-1.93c4.61,0.12,9.23,0.12,13.84,0
		c1.54-0.04,1.76,0.5,1.76,1.86c-0.04,27.62-0.01,55.23-0.07,82.85c0,1.71,0.45,2.1,2.1,2.07c6.4-0.1,12.79-0.01,19.19-0.07
		c1.18-0.01,1.58,0.26,1.56,1.51c-0.07,4.8-0.07,9.6,0,14.39c0.01,1.16-0.38,1.44-1.48,1.44c-12.42-0.03-24.85-0.05-37.27,0.02
		c-1.49,0.01-1.5-0.66-1.5-1.76C255.13,140.5,255.12,123.71,255.12,106.91z"/>
	<path class="st0" d="M404,176.28c0-1.9,0.03-3.81-0.01-5.71c-0.03-1.09,0.36-1.55,1.49-1.53c3.8,0.05,7.59-0.08,11.38,0.31
		c2.44,0.25,3.69,2.44,2.93,5.47c-0.19,0.77-0.19,1.28,0.22,2c1.89,3.31-0.01,6.47-3.76,6.72c-3.56,0.24-7.11,0.14-10.66,0.22
		c-1.17,0.03-1.66-0.37-1.62-1.59C404.06,180.21,404,178.24,404,176.28z M412.05,177.63c-1.35,0-2.69,0.04-4.04-0.01
		c-1.36-0.05-1.01,0.93-1.02,1.65c0,0.73-0.33,1.67,1.03,1.63c2.57-0.08,5.14-0.1,7.71-0.11c1.18-0.01,1.85-0.42,1.84-1.71
		c-0.01-1.47-1.02-1.44-2.03-1.44C414.38,177.63,413.21,177.63,412.05,177.63z M411.72,174.91c0-0.02,0-0.04,0-0.06
		c1.35,0,2.71,0.05,4.05-0.02c0.85-0.04,1.34-0.6,1.3-1.48c-0.03-0.86-0.45-1.25-1.38-1.35c-2.45-0.26-4.91-0.17-7.36-0.24
		c-1.01-0.03-1.35,0.27-1.4,1.34c-0.07,1.44,0.35,2.02,1.84,1.84C409.74,174.82,410.74,174.91,411.72,174.91z"/>
	<path class="st0" d="M187.65,175.19c1.32,0,2.12-0.01,2.91,0c2.64,0.04,3.78,1.12,4,3.76c0.19,2.33-1.12,4.1-3.48,4.4
		c-3.1,0.4-6.23,0.61-9.35,0.11c-2.1-0.34-3.01-1.41-3.02-3.51c0-0.8-0.16-1.68,1.11-1.63c0.92,0.04,1.96-0.17,1.86,1.3
		c-0.06,0.9,0.52,1.21,1.27,1.21c2.27,0.01,4.54-0.02,6.82-0.05c1-0.02,1.6-0.44,1.6-1.57c0-1.25-0.78-1.33-1.72-1.34
		c-2.51-0.03-5.03,0.15-7.54-0.25c-2.1-0.34-3.27-1.4-3.4-3.23c-0.22-2.9,0.49-4.24,2.9-4.75c3.13-0.66,6.3-0.91,9.47-0.16
		c1.31,0.31,2.51,0.95,2.77,2.37c0.14,0.75,0.75,2.01-0.58,2.29c-0.91,0.2-2.34,0.63-2.33-1.29c0-0.69-0.68-0.82-1.24-0.83
		c-2.15-0.02-4.3-0.03-6.45,0.02c-0.85,0.02-1.55,0.36-1.56,1.43c-0.02,1.08,0.66,1.28,1.53,1.44
		C184.86,175.22,186.51,175.22,187.65,175.19z"/>
	<path class="st0" d="M428.67,176.36c0-1.97,0.04-3.94-0.02-5.91c-0.03-1,0.25-1.44,1.34-1.43c3.81,0.05,7.63,0.04,11.44,0
		c1.02-0.01,1.42,0.33,1.42,1.38c0,1.07-0.29,1.57-1.46,1.54c-2.77-0.06-5.54,0-8.3-0.03c-0.93-0.01-1.49,0.12-1.49,1.28
		c0,1.12,0.35,1.51,1.48,1.49c2.58-0.07,5.17,0.01,7.75-0.03c1.06-0.02,1.53,0.31,1.54,1.47c0.02,1.22-0.52,1.42-1.56,1.4
		c-2.52-0.05-5.05,0.05-7.57-0.04c-1.3-0.05-1.66,0.37-1.67,1.66c-0.01,1.35,0.33,1.83,1.75,1.77c2.64-0.11,5.29,0,7.93-0.05
		c1.02-0.02,1.6,0.16,1.59,1.39c-0.01,1.14-0.39,1.5-1.5,1.49c-3.75-0.05-7.51-0.05-11.26,0c-1.13,0.02-1.5-0.37-1.46-1.49
		C428.73,180.3,428.67,178.33,428.67,176.36z"/>
	<path class="st0" d="M299.15,176.35c0-1.97,0.03-3.93-0.01-5.9c-0.02-1.02,0.41-1.42,1.43-1.41c3.81,0.03,7.62,0.04,11.43-0.01
		c1.13-0.01,1.5,0.42,1.51,1.52c0.01,1.21-0.6,1.42-1.62,1.4c-2.64-0.04-5.28,0.04-7.92-0.03c-1.2-0.03-1.59,0.34-1.6,1.56
		c-0.01,1.25,0.57,1.39,1.58,1.37c2.52-0.05,5.04,0.02,7.56-0.03c1.04-0.02,1.39,0.35,1.39,1.38c0.01,1.1-0.46,1.35-1.44,1.34
		c-2.58-0.04-5.16,0.05-7.74-0.04c-1.33-0.05-1.35,0.66-1.31,1.61c0.04,0.89-0.24,1.86,1.29,1.81c2.76-0.09,5.53,0.01,8.29-0.04
		c1.1-0.02,1.53,0.36,1.52,1.49c-0.01,1.06-0.44,1.39-1.44,1.39c-3.81-0.03-7.62-0.03-11.43,0c-1.1,0.01-1.54-0.39-1.51-1.51
		C299.2,180.28,299.15,178.31,299.15,176.35z"/>
	<path class="st0" d="M251.85,176.32c0-1.97,0.04-3.94-0.02-5.9c-0.03-1.05,0.37-1.38,1.4-1.39c3.93-0.02,7.85-0.01,11.77,0.33
		c2.11,0.18,3.18,1.37,3.19,3.54c0.01,1.39,0.29,2.85-0.66,4.1c-0.34,0.45,0.06,0.79,0.2,1.18c0.56,1.48,0.4,3.03,0.39,4.56
		c-0.01,1.12-0.87,0.99-1.59,1.01c-0.71,0.01-1.4-0.04-1.37-1.03c0-0.06,0-0.12,0-0.18c-0.34-3.9-0.34-3.9-4.3-3.9
		c-1.6,0-3.2,0.05-4.79-0.02c-0.99-0.04-1.32,0.34-1.25,1.29c0.06,0.73-0.05,1.48,0.02,2.21c0.12,1.17-0.28,1.66-1.52,1.67
		c-1.31,0-1.52-0.64-1.48-1.73C251.89,180.13,251.85,178.22,251.85,176.32z M259.41,175.92c1.2-0.13,2.73,0.08,4.27-0.19
		c1.25-0.22,1.74-0.82,1.7-1.94c-0.04-1.1-0.52-1.69-1.81-1.82c-2.21-0.22-4.42-0.07-6.62-0.22c-1.61-0.12-2.24,0.29-2.19,2.07
		c0.04,1.63,0.37,2.4,2.12,2.12C257.6,175.83,258.36,175.92,259.41,175.92z"/>
	<path class="st0" d="M226.01,176.45c-0.02-1.41,0.01-2.8,0.26-4.21c0.31-1.72,1.38-2.65,2.96-2.82c3.71-0.41,7.45-0.64,11.17-0.02
		c1.72,0.28,2.74,1.28,3.03,3c0.46,2.68,0.46,5.36-0.01,8.04c-0.3,1.71-1.33,2.72-3.05,2.99c-3.67,0.58-7.35,0.28-11.01,0
		c-1.9-0.15-3.16-1.78-3.34-4.03C225.95,178.42,226.01,177.43,226.01,176.45z M234.76,180.93c0-0.05,0-0.11,0-0.16
		c1.29,0,2.58,0.03,3.86-0.01c0.99-0.03,1.82-0.33,1.97-1.51c0.25-1.96,0.27-3.92,0-5.88c-0.11-0.82-0.57-1.31-1.47-1.35
		c-1.65-0.06-3.33-0.38-4.95-0.21c-5.23,0.55-5.22-0.79-5.2,5.15c0.02,3.66,0,3.66,3.58,3.81
		C233.3,180.81,234.03,180.88,234.76,180.93z"/>
	<path class="st0" d="M157.26,176.43c0-2.03,0.03-4.05-0.01-6.08c-0.02-0.94,0.33-1.32,1.29-1.31c3.81,0.03,7.62,0.03,11.43,0
		c1.05-0.01,1.39,0.46,1.39,1.45c0,0.99-0.31,1.48-1.38,1.46c-2.83-0.04-5.65,0.04-8.48-0.03c-1.14-0.03-1.47,0.36-1.47,1.47
		c0,1.15,0.42,1.48,1.52,1.46c2.46-0.06,4.91-0.02,7.37-0.02c0.91,0,1.81-0.21,1.81,1.3c0,1.42-0.73,1.41-1.74,1.4
		c-2.52-0.03-5.04,0.07-7.55-0.04c-1.44-0.06-1.4,0.71-1.39,1.71c0.01,0.98-0.07,1.78,1.38,1.72c2.7-0.11,5.4-0.02,8.11-0.04
		c0.98-0.01,1.82-0.04,1.83,1.37c0.01,1.32-0.63,1.51-1.71,1.5c-3.62-0.04-7.25-0.05-10.87,0.01c-1.24,0.02-1.59-0.44-1.54-1.62
		C157.32,180.24,157.26,178.34,157.26,176.43z"/>
	<path class="st0" d="M342.14,180.77c1.04,0,2.09,0.03,3.13-0.01c1.12-0.03,2.03-0.24,1.98-1.75c-0.04-1.21,0.94-1.17,1.85-1.19
		c1.17-0.02,1.04,0.76,1.05,1.5c0.06,2.94-0.94,3.91-3.85,4.2c-2.83,0.28-5.63,0.18-8.44-0.03c-2.72-0.2-3.96-1.29-4.08-3.98
		c-0.1-2.14-0.1-4.3,0.03-6.44c0.15-2.44,1.32-3.51,3.71-3.73c2.99-0.27,5.96-0.44,8.97-0.04c2.47,0.33,3.72,1.65,3.59,4.18
		c-0.03,0.64-0.03,1.36-0.88,1.31c-0.78-0.04-1.94,0.21-1.96-1.08c-0.03-1.5-0.97-1.68-2.08-1.7c-2.09-0.03-4.17-0.01-6.26-0.01
		c-1.38,0.01-1.98,0.6-2.2,2.09c-0.26,1.75,0.12,3.42,0.08,5.12c-0.03,1.15,0.77,1.47,1.69,1.51
		C339.69,180.81,340.92,180.76,342.14,180.77C342.14,180.77,342.14,180.77,342.14,180.77z"/>
	<path class="st0" d="M202.48,176.4c0-1.9,0.06-3.81-0.02-5.71c-0.05-1.3,0.47-1.69,1.73-1.67c3.74,0.05,7.47,0,11.2,0.31
		c0.64,0.05,1.24,0.22,1.69,0.62c2,1.76,1.35,4.09,1.06,6.2c-0.24,1.74-1.76,2.43-3.44,2.46c-2.58,0.05-5.16,0.08-7.74-0.01
		c-1.24-0.04-1.68,0.37-1.54,1.56c0.07,0.61-0.04,1.23,0.02,1.84c0.13,1.24-0.3,1.78-1.62,1.78c-1.43-0.01-1.37-0.87-1.36-1.84
		C202.49,180.09,202.48,178.25,202.48,176.4z M210.16,175.92C210.16,175.92,210.16,175.91,210.16,175.92
		c1.35-0.01,2.71,0.04,4.06-0.02c1.28-0.06,1.36-1.01,1.33-2c-0.02-0.89-0.01-1.77-1.24-1.88c-2.57-0.22-5.15-0.32-7.72-0.25
		c-0.41,0.01-1.01-0.12-1.06,0.45c-0.08,1.1-0.26,2.28,0.07,3.28c0.28,0.87,1.41,0.32,2.16,0.39
		C208.55,175.98,209.36,175.92,210.16,175.92z"/>
	<path class="st0" d="M381.86,174.64c0,1.42,0.05,2.83-0.02,4.24c-0.06,1.28,0.57,1.79,1.73,1.88c2.46,0.2,4.91,0.16,7.37,0
		c1.37-0.09,1.91-0.8,1.88-2.17c-0.05-2.71,0.01-5.41-0.03-8.12c-0.02-1,0.27-1.47,1.35-1.45c0.99,0.02,1.67,0.14,1.65,1.38
		c-0.05,3.01,0.08,6.03-0.05,9.04c-0.12,2.74-1.52,3.95-4.25,4.06c-2.76,0.11-5.49,0.35-8.27,0.04c-2.8-0.31-4.11-1.23-4.28-4.03
		c-0.18-3.07-0.04-6.15-0.06-9.23c-0.01-1.16,0.71-1.21,1.59-1.25c1.02-0.04,1.46,0.29,1.4,1.36
		C381.81,171.8,381.86,173.22,381.86,174.64z"/>
	<path class="st0" d="M283.66,169.05c2.21,0,4.42,0.04,6.63-0.02c1.09-0.03,1.54,0.3,1.52,1.46c-0.01,1.17-0.53,1.5-1.58,1.46
		c-1.23-0.04-2.46,0.04-3.68-0.03c-1.05-0.06-1.4,0.33-1.38,1.37c0.05,2.95-0.03,5.89,0.04,8.84c0.03,1.21-0.4,1.63-1.59,1.63
		c-1.2,0.01-1.43-0.58-1.41-1.6c0.04-2.95-0.02-5.89,0.03-8.84c0.02-1.01-0.3-1.45-1.36-1.4c-1.35,0.07-2.7-0.02-4.05,0.02
		c-1.09,0.03-1.32-0.54-1.35-1.5c-0.02-1.01,0.3-1.44,1.37-1.42C279.12,169.09,281.39,169.05,283.66,169.05z"/>
	<path class="st0" d="M358.17,176.26c0-1.96,0.06-3.93-0.02-5.89c-0.05-1.29,0.68-1.31,1.63-1.34c1.04-0.03,1.4,0.36,1.38,1.39
		c-0.05,3.01,0.03,6.02-0.04,9.02c-0.02,1.11,0.3,1.51,1.45,1.47c2.45-0.08,4.91,0,7.36-0.03c0.96-0.01,1.65,0.05,1.62,1.34
		c-0.03,1.11-0.39,1.54-1.5,1.53c-3.5-0.03-7-0.03-10.5,0c-1,0.01-1.44-0.37-1.41-1.42C358.21,180.31,358.17,178.28,358.17,176.26z"
		/>
	<path class="st0" d="M287.34,460.59c0-2.82-0.02-5.65,0.01-8.47c0.03-2.72,1.65-4.31,4.35-4.32c0.92-0.01,1.84-0.01,2.76,0
		c2.86,0.02,4.58,1.5,4.62,4.32c0.09,5.58,0.09,11.17,0,16.75c-0.04,2.88-1.7,4.23-4.59,4.35c-5.95,0.26-7.49-0.86-7.16-7.11
		C287.42,464.28,287.34,462.43,287.34,460.59z M291.5,460.5c0,2.34,0.06,4.68-0.02,7.01c-0.05,1.35,0.54,1.68,1.76,1.66
		c1.12-0.02,1.71-0.26,1.7-1.54c-0.05-4.74-0.05-9.47,0-14.21c0.01-1.25-0.52-1.57-1.67-1.57c-1.18,0.01-1.85,0.25-1.79,1.64
		C291.56,455.82,291.5,458.16,291.5,460.5z"/>
	<path class="st0" d="M312.5,460.69c0,2.89,0.02,5.78-0.01,8.67c-0.02,2.23-1.42,3.73-3.62,3.84c-1.35,0.07-2.71,0.07-4.06,0
		c-2.25-0.11-3.79-1.64-3.81-3.93c-0.05-5.84-0.06-11.69,0-17.53c0.02-2.35,1.64-3.86,4-3.93c1.17-0.04,2.34-0.03,3.51,0
		c2.55,0.05,3.98,1.49,3.99,4.03C312.51,454.78,312.5,457.73,312.5,460.69z M308.59,460.52c0-2.33-0.05-4.67,0.02-6.99
		c0.04-1.34-0.55-1.69-1.77-1.68c-1.18,0.01-1.82,0.28-1.81,1.65c0.06,4.66,0.06,9.33,0,13.99c-0.02,1.34,0.56,1.68,1.77,1.67
		c1.18-0.01,1.85-0.27,1.8-1.64C308.54,465.19,308.59,462.85,308.59,460.52z"/>
	<path class="st0" d="M279.49,473.21c-1.48,0-2.95-0.03-4.43,0.01c-1.04,0.03-1.27-0.45-1.42-1.42c-0.72-4.77,1.21-8.45,4.49-11.66
		c0.79-0.77,1.4-1.72,2.17-2.5c1.43-1.44,0.96-3.21,0.9-4.89c-0.03-0.66-0.64-0.85-1.23-0.86c-0.98-0.01-1.97-0.01-2.95-0.01
		c-2.1,0-3.11-1.6-2.27-3.55c0.27-0.62,0.77-0.51,1.24-0.52c1.85-0.02,3.69-0.06,5.54,0.01c2.18,0.08,3.71,1.7,3.93,3.89
		c0.4,4.05-0.32,7.65-3.54,10.53c-1.27,1.13-2.18,2.65-3.33,3.93c-0.67,0.75-0.71,1.62-0.47,2.42c0.29,0.98,1.26,0.47,1.92,0.52
		c1.04,0.08,2.11,0.14,3.13-0.01c1.93-0.28,2.43,0.5,2.33,2.34c-0.07,1.33-0.34,1.9-1.77,1.78
		C282.32,473.12,280.9,473.21,279.49,473.21z"/>
	<path class="st0" d="M326.14,465.94c0,1.97-0.08,3.94,0.03,5.9c0.08,1.45-0.78,1.45-1.75,1.36c-0.98-0.09-2.4,0.54-2.35-1.38
		c0.04-1.48-0.03-2.95,0.02-4.43c0.03-0.89-0.33-1.18-1.19-1.16c-1.66,0.04-3.32-0.03-4.98,0.03c-0.98,0.03-1.28-0.36-1.27-1.3
		c0.02-1.6,0.11-3.11,0.81-4.65c1.67-3.62,3.12-7.34,4.67-11.02c0.54-1.27,3.39-2.16,4.52-1.39c0.8,0.54,0.06,1.12-0.13,1.6
		c-1.53,3.75-3.11,7.48-4.66,11.22c-0.17,0.41-0.71,0.99-0.16,1.28c0.48,0.26,1.19,0.17,1.79,0.12c0.7-0.07,0.53-0.69,0.58-1.16
		c0.12-1.13-0.63-2.71,1.68-2.57c2.38,0.14,2.38,0,2.39,2.38C326.14,462.49,326.14,464.22,326.14,465.94z"/>
	<path class="st2" d="M300.23,301.6c-0.9-2.73,0.8-4.48,3.44-6.06c3.36-2.01,6.52-4.38,9.71-6.67c1-0.71,1.83-0.71,2.87-0.15
		c3.71,1.99,7.04,4.47,9.91,7.56c0.58,0.63,0.71,1.19,0.44,1.98c-1.64,4.88-3.25,9.77-4.83,14.67c-0.21,0.66-0.5,1.09-1.18,1.24
		c-0.18,0.04-0.35,0.11-0.52,0.17c-6.08,2.1-6.08,2.09-11.25-1.73c-2.12-1.57-4.2-3.21-6.43-4.6c-1.73-1.08-2.49-2.39-2.17-4.39
		C300.3,303.14,300.23,302.64,300.23,301.6z"/>
	<path class="st2" d="M298.02,302.23c1.16,4.24-0.88,6.77-4.4,8.75c-2.13,1.2-4.02,2.81-5.98,4.29c-0.65,0.49-1.23,0.64-2.02,0.37
		c-2.2-0.76-4.42-1.48-6.65-2.16c-0.74-0.23-1.08-0.67-1.31-1.37c-1.47-4.55-2.96-9.1-4.48-13.63c-0.25-0.74-0.16-1.25,0.38-1.82
		c3.14-3.35,6.66-6.17,10.8-8.21c0.81-0.4,1.39-0.42,2.16,0.14c3.49,2.51,7.01,4.97,10.55,7.41c0.75,0.52,1.01,1.11,0.97,2
		C297.98,299.4,298.02,300.81,298.02,302.23z"/>
	<path class="st2" d="M277.01,338.87c-2.15,0-4.3-0.04-6.45,0.02c-0.92,0.02-1.46-0.31-1.88-1.12c-2.19-4.18-3.52-8.61-4.2-13.26
		c-0.16-1.07,0.14-1.82,1.07-2.47c3.16-2.22,6.27-4.51,9.37-6.82c0.77-0.58,1.48-0.69,2.38-0.33c1.14,0.46,2.3,0.99,3.49,1.13
		c3.44,0.4,4.95,2.43,5.71,5.63c0.76,3.21,1.94,6.33,2.99,9.47c0.28,0.83,0.12,1.39-0.32,2.17c-2.46,4.37-5.86,6.7-11.05,5.59
		C277.77,338.8,277.38,338.87,277.01,338.87z"/>
	<path class="st2" d="M322.25,339.52c-2.09,0-4.18-0.08-6.26,0.03c-1.42,0.08-2.23-0.49-2.98-1.64c-3.08-4.71-3.11-4.68-1.36-10
		c0.94-2.85,1.87-5.71,2.75-8.58c0.3-0.96,0.77-1.57,1.79-1.86c2.06-0.58,4.12-1.21,6.14-1.92c0.77-0.27,1.28-0.03,1.84,0.38
		c3.55,2.62,7.11,5.23,10.67,7.84c0.46,0.34,0.82,0.63,0.71,1.34c-0.74,4.7-2.13,9.17-4.58,13.29c-0.51,0.87-1.14,1.16-2.09,1.14
		C326.67,339.5,324.46,339.52,322.25,339.52z"/>
	<path class="st2" d="M299.62,334.83c2.58,0,5.16,0.03,7.75-0.02c0.96-0.02,1.57,0.3,2.14,1.1c2.92,4.18,2.94,4.16,1.37,8.92
		c-1,3.03-2.01,6.06-2.94,9.11c-0.39,1.29-1.11,1.79-2.48,1.97c-4.3,0.56-8.55,0.48-12.8-0.38c-1.09-0.22-1.71-0.69-2.06-1.78
		c-1.31-4.1-2.67-8.18-4.08-12.24c-0.32-0.93-0.28-1.66,0.39-2.35c0.04-0.04,0.09-0.09,0.12-0.14c1.9-3.5,4.74-4.96,8.74-4.24
		C297,335.02,298.32,334.83,299.62,334.83z"/>
	<path class="st2" d="M333.59,346.69c-0.98-1.79-1.26-3.56-1.88-5.2c-0.17-0.46,0.11-0.84,0.33-1.2c2.79-4.49,4.59-9.35,5.23-14.6
		c0.16-1.36,0.78-2.25,1.89-2.9c1.08-0.64,1.93-1.66,3.34-2.11C342.41,330.4,339.47,338.92,333.59,346.69z"/>
	<path class="st2" d="M285.72,360.5c1.62-1.18,3.02-2.52,4.69-3.29c1.25-0.58,2.71,0.4,4.1,0.57c3.8,0.46,7.59,0.57,11.36-0.1
		c1.34-0.24,2.33,0.01,3.33,0.93c0.94,0.86,2.06,1.52,3.13,2.29C307.76,363.74,294.01,364.24,285.72,360.5z"/>
	<path class="st2" d="M312.63,280.08c9.36,3.04,16.52,8.39,22.28,16.31c-2.11,0-3.96,0.01-5.8-0.01c-0.4-0.01-0.58-0.4-0.82-0.68
		c-3.24-3.79-7.19-6.68-11.67-8.79c-1.61-0.76-2.55-1.72-2.93-3.4C313.46,282.46,313.06,281.45,312.63,280.08z"/>
	<path class="st2" d="M265.73,295.62c5.74-7.59,12.74-12.56,21.62-15.53c-0.61,1.97-1.12,3.64-1.65,5.3
		c-0.22,0.67-0.9,0.79-1.44,1.05c-4.29,2.07-8.17,4.72-11.48,8.17c-0.69,0.72-1.41,1.08-2.42,1.03
		C268.97,295.57,267.57,295.62,265.73,295.62z"/>
	<path class="st2" d="M265.25,345c-3.86-5.58-6.17-11.32-7.14-17.6c-0.31-1.99-0.47-4.01-0.67-6.01c-0.04-0.35-0.05-0.86,0.15-1.05
		c0.43-0.39,0.77,0.14,1.09,0.37c1.11,0.77,2.17,1.6,3.28,2.38c0.51,0.36,0.63,0.84,0.69,1.42c0.49,4.62,1.72,9.03,3.93,13.13
		c0.47,0.87,0.55,1.68,0.19,2.63C266.22,341.67,265.83,343.15,265.25,345z"/>
	<path class="st1" d="M369.6,107.03c0-10.95,0.02-21.9-0.03-32.85c-0.01-1.4,0.27-1.95,1.8-1.88c2.95,0.13,5.9,0.03,8.86,0.04
		c1.98,0.01,2.64,0.64,2.67,2.64c0.04,2.95,0.01,5.91,0.01,8.86c0,17.96,0,35.93-0.01,53.89c0,0.73-0.05,1.47-0.16,2.19
		c-0.2,1.2-0.96,1.79-2.18,1.79c-3.26,0-6.52-0.06-9.78,0.03c-1.46,0.04-1.17-0.87-1.17-1.68
		C369.6,129.05,369.6,118.04,369.6,107.03z"/>
	<path class="st1" d="M428.23,107.04c0-10.51,0-21.03,0-31.54c0-2.81,0.36-3.16,3.22-3.16c2.52,0,5.04,0.06,7.56-0.02
		c1.77-0.05,2.41,0.89,2.53,2.45c0.03,0.37,0,0.74,0,1.11c0,20.66,0,41.32,0,61.98c0,3.38-0.49,3.87-3.94,3.87
		c-2.21,0-4.43,0.01-6.64,0c-2.08-0.02-2.73-0.66-2.73-2.76C428.22,128.31,428.23,117.67,428.23,107.04z"/>
	<path class="st1" d="M227.08,106.88c0,10.52,0,21.04,0,31.56c0,2.72-0.58,3.28-3.36,3.28c-2.28,0-4.55,0-6.83,0
		c-2.56,0-3.12-0.56-3.12-3.13c-0.01-13.1,0-26.2,0-39.31c0-7.94,0-15.87,0-23.81c0-2.68,0.46-3.14,3.08-3.14c2.4,0,4.8,0,7.2,0
		c2.53,0,3.03,0.5,3.03,2.99C227.08,85.84,227.08,96.36,227.08,106.88z"/>
	<path class="st1" d="M412.05,177.63c1.16,0,2.33,0,3.49,0c1.01,0,2.02-0.03,2.03,1.44c0.01,1.29-0.66,1.71-1.84,1.71
		c-2.57,0.01-5.14,0.03-7.71,0.11c-1.36,0.04-1.04-0.9-1.03-1.63c0-0.72-0.34-1.69,1.02-1.65
		C409.35,177.67,410.7,177.63,412.05,177.63z"/>
	<path class="st1" d="M411.72,174.91c-0.98,0-1.98-0.09-2.95,0.02c-1.49,0.18-1.91-0.4-1.84-1.84c0.05-1.07,0.39-1.36,1.4-1.34
		c2.45,0.07,4.91-0.02,7.36,0.24c0.93,0.1,1.35,0.5,1.38,1.35c0.04,0.88-0.45,1.44-1.3,1.48c-1.35,0.07-2.7,0.02-4.05,0.02
		C411.72,174.87,411.72,174.89,411.72,174.91z"/>
	<path class="st1" d="M259.41,175.92c-1.06,0-1.81-0.09-2.53,0.02c-1.75,0.27-2.08-0.5-2.12-2.12c-0.05-1.78,0.58-2.18,2.19-2.07
		c2.2,0.16,4.4,0,6.62,0.22c1.29,0.13,1.77,0.72,1.81,1.82c0.04,1.12-0.45,1.73-1.7,1.94C262.14,176,260.62,175.79,259.41,175.92z"
		/>
	<path class="st1" d="M234.76,180.93c-0.73-0.05-1.47-0.11-2.2-0.15c-3.58-0.16-3.57-0.15-3.58-3.81c-0.02-5.95-0.03-4.61,5.2-5.15
		c1.62-0.17,3.3,0.15,4.95,0.21c0.9,0.03,1.36,0.53,1.47,1.35c0.27,1.96,0.25,3.92,0,5.88c-0.15,1.17-0.98,1.48-1.97,1.51
		c-1.29,0.04-2.58,0.01-3.86,0.01C234.77,180.82,234.77,180.87,234.76,180.93z"/>
	<path class="st1" d="M210.16,175.92c-0.8,0-1.6,0.06-2.4-0.02c-0.75-0.07-1.88,0.47-2.16-0.39c-0.32-1-0.15-2.18-0.07-3.28
		c0.04-0.57,0.65-0.44,1.06-0.45c2.58-0.07,5.15,0.03,7.72,0.25c1.23,0.11,1.22,0.99,1.24,1.88c0.02,0.98-0.05,1.94-1.33,2
		C212.87,175.96,211.51,175.91,210.16,175.92C210.16,175.91,210.16,175.92,210.16,175.92z"/>
	<path class="st1" d="M291.5,460.5c0-2.34,0.06-4.68-0.02-7.01c-0.05-1.39,0.61-1.63,1.79-1.64c1.15-0.01,1.68,0.32,1.67,1.57
		c-0.05,4.74-0.05,9.47,0,14.21c0.01,1.28-0.58,1.52-1.7,1.54c-1.22,0.02-1.81-0.3-1.76-1.66
		C291.56,465.17,291.5,462.83,291.5,460.5z"/>
	<path class="st1" d="M308.59,460.52c0,2.33-0.05,4.67,0.02,6.99c0.04,1.37-0.62,1.64-1.8,1.64c-1.22,0.01-1.79-0.33-1.77-1.67
		c0.06-4.66,0.06-9.33,0-13.99c-0.02-1.37,0.63-1.64,1.81-1.65c1.22-0.01,1.81,0.34,1.77,1.68
		C308.54,455.86,308.59,458.19,308.59,460.52z"/>
</g>
</svg>
