<?xml version="1.0" encoding="UTF-8"?>
<!DOCTYPE svg PUBLIC "-//W3C//DTD SVG 1.1//EN" "http://www.w3.org/Graphics/SVG/1.1/DTD/svg11.dtd">
<!-- Creator: CorelDRAW 2020 (64 Bit) -->
<svg xmlns="http://www.w3.org/2000/svg" xml:space="preserve" width="102.644mm" height="127.109mm" version="1.1" style="shape-rendering:geometricPrecision; text-rendering:geometricPrecision; image-rendering:optimizeQuality; fill-rule:evenodd; clip-rule:evenodd"
viewBox="0 0 212.83 263.56"
 xmlns:xlink="http://www.w3.org/1999/xlink"
 xmlns:xodm="http://www.corel.com/coreldraw/odm/2003">
 <defs>
  <style type="text/css">
   <![CDATA[
    .fil0 {fill:black}
    .fil1 {fill:white}
   ]]>
  </style>
 </defs>
 <g id="Camada_x0020_1">
  <metadata id="CorelCorpID_0Corel-Layer"/>
  <g id="Treze_de_Campina_Grande.cdr">
   <path class="fil0" d="M32.28 0l-32.28 58.55 9.31 4.21c6.84,3.1 16.37,9.24 16.76,15.29 0.71,11.09 -6.55,25.31 -15.17,42.34 -17.66,34.88 -11.01,71.68 16.52,91.57 19,13.72 37.18,19.31 49.28,22.78 22.74,6.51 29.71,28.82 29.71,28.82 0,0 6.98,-22.31 29.71,-28.82 12.1,-3.47 30.29,-9.05 49.28,-22.78 27.54,-19.89 34.18,-56.69 16.52,-91.57 -8.62,-17.03 -15.88,-31.25 -15.17,-42.34 0.39,-6.06 9.92,-12.2 16.76,-15.29l9.31 -4.21 -32.28 -58.55 -148.26 0z"/>
   <path class="fil1" d="M175.01 9.3l24.68 44.75c0,0 -22.27,9.95 -22.32,23.85 -0.05,13.9 7.59,29.65 16.19,46.63 14.82,29.28 11.26,61.69 -13.64,79.68 -26.98,19.49 -51.77,20.91 -60.86,26.77 -8.13,5.24 -12.65,13.41 -12.65,13.41 0,0 -4.52,-8.18 -12.65,-13.41 -9.09,-5.85 -33.88,-7.28 -60.86,-26.77 -24.9,-17.98 -28.46,-50.4 -13.64,-79.68 8.59,-16.98 16.24,-32.73 16.19,-46.63 -0.05,-13.9 -22.32,-23.85 -22.32,-23.85l24.68 -44.75 137.19 0z"/>
   <g>
    <g>
     <path class="fil0" d="M169.08 16.41l-126.78 0 -18.97 34.41 1.66 1.28c3.81,2.94 10.91,8.41 14.83,15.27l1.06 1.86 1.98 -0.82c40.39,-16.65 86.71,-16.65 127.1,0l1.98 0.82 1.06 -1.86c3.92,-6.86 11.01,-12.33 14.83,-15.27l1.66 -1.28 -18.97 -34.41 -1.44 0zm-1.44 4.88c1.21,2.19 13.97,25.33 15.57,28.23 -3.87,3.03 -9.41,7.74 -13.3,13.65 -20.26,-8.07 -41.6,-12.2 -63.5,-12.2 -21.89,0 -43.24,4.13 -63.5,12.2 -3.88,-5.91 -9.43,-10.62 -13.3,-13.65 1.71,-3.1 14.36,-26.04 15.57,-28.23 2.78,0 119.67,0 122.45,0z"/>
     <path class="fil0" d="M41.01 63.91l-2.56 1.06 1.37 2.41c1.92,3.37 2.9,6.77 2.9,10.1 0,10.87 -3.87,21.4 -7.24,29.36l-2.41 5.69 5.65 -2.51c43.03,-19.12 92.38,-19.12 135.41,0l5.65 2.51 -2.41 -5.69c-3.37,-7.96 -7.24,-18.49 -7.24,-29.36 0,-3.33 0.98,-6.73 2.9,-10.1l1.37 -2.41 -2.56 -1.06c-20.82,-8.58 -42.83,-12.93 -65.41,-12.93 -22.58,0 -44.59,4.35 -65.41,12.93zm126.51 3.57c-1.49,3.31 -2.28,6.66 -2.28,9.99 0,9.38 2.6,18.34 5.46,25.85 -41.18,-16.63 -87.38,-16.63 -128.56,-0 2.86,-7.51 5.46,-16.47 5.46,-25.85 0,-3.34 -0.79,-6.69 -2.28,-9.99 38.99,-15.34 83.21,-15.34 122.21,0z"/>
     <path class="fil0" d="M36.73 105.56l-0.88 0.39 -0.38 0.89c-1.83,4.31 -3.85,8.62 -5.82,12.8 -5.93,12.6 -11.52,24.51 -11.79,36.11 -0.43,18.45 5.96,32.65 18.99,42.18 16.71,12.22 32.73,16.95 44.43,20.41 6.8,2.01 12.16,3.59 16.09,6.13 2.48,1.6 4.89,3.77 7.18,6.46l1.86 2.19 1.86 -2.19c2.28,-2.69 4.7,-4.86 7.17,-6.46 3.93,-2.53 9.29,-4.12 16.07,-6.12 11.72,-3.46 27.74,-8.19 44.45,-20.42 13.04,-9.53 19.43,-23.73 19,-42.18 -0.27,-11.6 -5.87,-23.5 -11.79,-36.11 -1.96,-4.17 -3.99,-8.48 -5.81,-12.79l-0.38 -0.89 -0.88 -0.39c-44.29,-19.68 -95.09,-19.68 -139.37,-0zm136.55 4.11c1.75,4.08 3.64,8.12 5.48,12.04 5.7,12.13 11.09,23.58 11.33,34.15 0.01,0.57 0.02,1.13 0.02,1.68 0,16.14 -5.58,28.08 -17.02,36.44 -16.02,11.72 -31.58,16.31 -42.93,19.67 -7.18,2.12 -12.83,3.79 -17.35,6.7 -2.21,1.42 -4.35,3.22 -6.39,5.35 -2.05,-2.13 -4.19,-3.93 -6.4,-5.35 -4.52,-2.91 -10.17,-4.58 -17.32,-6.7 -11.38,-3.36 -26.94,-7.95 -42.96,-19.68 -11.44,-8.37 -17.02,-20.3 -17.02,-36.44 0,-0.56 0.01,-1.12 0.02,-1.69 0.25,-10.57 5.63,-22.02 11.33,-34.15 1.84,-3.92 3.73,-7.96 5.48,-12.04 42.55,-18.63 91.17,-18.63 133.72,0z"/>
    </g>
    <g>
     <path class="fil0" d="M99.15 114.12l0 37.04 16.33 0c3.68,0 6.38,-0.87 8.09,-2.61 1.71,-1.74 2.85,-5.17 3.41,-10.28l2.53 0 0 31.98 -2.53 0c-0.04,-3.72 -0.49,-6.45 -1.33,-8.18 -0.84,-1.74 -2.01,-3.04 -3.51,-3.89 -1.49,-0.85 -3.72,-1.27 -6.66,-1.27l-16.33 0 0 29.45c0,4.75 0.28,7.88 0.85,9.4 0.44,1.15 1.36,2.15 2.76,2.97 1.93,1.11 3.94,1.66 6.05,1.66l3.22 0 0 2.53 -38.42 0 0 -2.53 3.19 0c3.72,0 6.42,-1.13 8.1,-3.39 1.06,-1.47 1.59,-5.03 1.59,-10.65l0 -60.73c0,-4.74 -0.29,-7.88 -0.86,-9.4 -0.45,-1.15 -1.35,-2.14 -2.73,-2.97 -1.9,-1.11 -3.94,-1.66 -6.11,-1.66l-3.19 0 0 -2.53 66.25 0 0.92 20.7 -2.3 0c-1.12,-4.42 -2.43,-7.67 -3.91,-9.74 -1.49,-2.07 -3.34,-3.57 -5.54,-4.5 -2.21,-0.93 -5.63,-1.4 -10.27,-1.4l-19.61 0z"/>
     <path class="fil0" d="M152.16 130.36l2.76 19.32 -2.76 0c-3.6,-5.79 -8.73,-9.96 -15.4,-12.51 -6.67,-2.54 -14.67,-3.82 -24.01,-3.82 -7.83,0 -14.9,0.94 -21.22,2.82 -6.32,1.88 -11.29,4.88 -14.92,8.99 -3.62,4.12 -5.44,9.23 -5.44,15.35 0,5.05 1.71,9.42 5.14,13.13 3.43,3.7 8.58,6.54 15.46,8.52 6.88,1.98 14.73,2.96 23.56,2.96 7.66,0 14.43,-0.77 20.29,-2.31 5.87,-1.54 12.31,-4.6 19.34,-9.19l2.7 0.69c-5.93,5.01 -12.85,8.68 -20.76,11.01 -7.91,2.33 -17.3,3.49 -28.18,3.49 -19.6,0 -34.78,-3.43 -45.53,-10.3 -8.03,-5.11 -12.04,-11.12 -12.04,-18.05 0,-5.58 2.64,-10.7 7.92,-15.37 5.28,-4.67 12.54,-8.29 21.79,-10.86 9.25,-2.57 19.35,-3.85 30.32,-3.85 8.52,0 16.93,1 25.22,2.99 2.44,0.61 4.18,0.92 5.22,0.92 1.57,0 2.93,-0.26 4.09,-0.79 1.51,-0.75 2.58,-1.79 3.22,-3.12l3.22 0z"/>
    </g>
    <g>
     <path class="fil0" d="M70.15 66.76l1.39 5.64 -0.53 0.13c-0.65,-1.22 -1.24,-2.06 -1.78,-2.53 -0.54,-0.47 -1.2,-0.79 -1.98,-0.95 -0.44,-0.09 -1.14,-0.01 -2.12,0.23l-1.55 0.38 3.97 16.11c0.26,1.07 0.49,1.73 0.67,1.97 0.18,0.24 0.47,0.42 0.86,0.54 0.39,0.12 0.88,0.1 1.46,-0.04l0.68 -0.17 0.13 0.53 -10.88 2.68 -0.13 -0.53 0.69 -0.17c0.6,-0.15 1.06,-0.38 1.37,-0.68 0.23,-0.21 0.38,-0.51 0.44,-0.9 0.05,-0.27 -0.05,-0.94 -0.31,-1.99l-3.97 -16.11 -1.55 0.38c-1.42,0.35 -2.37,0.9 -2.87,1.65 -0.7,1.05 -0.97,2.38 -0.83,3.97l-0.53 0.13 -1.39 -5.64 18.78 -4.62z"/>
     <path class="fil0" d="M83.15 76.73l0.68 6c0.13,1.16 0.29,1.88 0.46,2.17 0.18,0.29 0.46,0.5 0.84,0.63 0.38,0.14 1.07,0.15 2.06,0.04l0.06 0.55 -10.99 1.25 -0.06 -0.55c1,-0.11 1.67,-0.28 2,-0.51 0.34,-0.22 0.56,-0.49 0.67,-0.8 0.11,-0.31 0.1,-1.05 -0.03,-2.21l-1.58 -13.9c-0.13,-1.16 -0.29,-1.88 -0.46,-2.17 -0.18,-0.28 -0.46,-0.5 -0.84,-0.63 -0.38,-0.14 -1.07,-0.15 -2.06,-0.04l-0.06 -0.55 9.93 -1.13c2.59,-0.29 4.5,-0.33 5.74,-0.11 1.24,0.22 2.29,0.77 3.16,1.65 0.87,0.87 1.37,1.96 1.52,3.25 0.18,1.58 -0.24,2.94 -1.26,4.1 -0.65,0.73 -1.61,1.34 -2.87,1.81l5.94 6.65c0.78,0.85 1.32,1.37 1.63,1.57 0.47,0.27 0.99,0.39 1.56,0.36l0.07 0.59 -6.72 0.76 -7.98 -8.94 -1.4 0.16zm-1.18 -10.45l1.06 9.31 0.9 -0.1c1.46,-0.17 2.53,-0.42 3.23,-0.77 0.69,-0.35 1.21,-0.89 1.54,-1.64 0.34,-0.74 0.44,-1.67 0.31,-2.79 -0.18,-1.62 -0.7,-2.77 -1.55,-3.46 -0.85,-0.69 -2.12,-0.94 -3.8,-0.74l-1.68 0.19z"/>
     <path class="fil0" d="M107.33 64.77l-0.13 8.73 0.43 0.01c1.38,0.02 2.38,-0.39 3.02,-1.24 0.63,-0.85 1.05,-2.1 1.24,-3.77l0.55 0.01 -0.17 11.24 -0.55 -0.01c-0.11,-1.22 -0.36,-2.23 -0.76,-3.02 -0.4,-0.79 -0.87,-1.32 -1.41,-1.6 -0.54,-0.28 -1.33,-0.42 -2.37,-0.44l-0.09 6.06c-0.02,1.19 0.02,1.91 0.12,2.18 0.1,0.27 0.28,0.49 0.55,0.66 0.27,0.17 0.71,0.26 1.33,0.27l1.28 0.02c2.01,0.03 3.62,-0.41 4.84,-1.32 1.22,-0.91 2.11,-2.31 2.67,-4.2l0.59 0.01 -1.07 6.81 -18.55 -0.28 0.01 -0.55 0.71 0.01c0.62,0.01 1.12,-0.09 1.51,-0.31 0.28,-0.14 0.49,-0.4 0.64,-0.76 0.12,-0.25 0.19,-0.92 0.2,-2.01l0.22 -14.17c0.01,-0.98 -0,-1.58 -0.05,-1.8 -0.1,-0.37 -0.29,-0.66 -0.57,-0.87 -0.4,-0.3 -0.94,-0.46 -1.64,-0.47l-0.71 -0.01 0.01 -0.55 17.96 0.27 -0.1 6.31 -0.55 -0.01c-0.28,-1.54 -0.7,-2.66 -1.25,-3.33 -0.55,-0.68 -1.33,-1.18 -2.34,-1.51 -0.59,-0.2 -1.7,-0.31 -3.33,-0.33l-2.24 -0.03z"/>
     <path class="fil0" d="M141.74 66.62l-15.34 18.36 4.06 0.57c1.92,0.27 3.28,0.33 4.08,0.2 1.3,-0.2 2.47,-0.75 3.52,-1.64 1.04,-0.89 1.86,-2.16 2.44,-3.81l0.61 0.08 -1.94 7.58 -19.51 -2.72 15.34 -18.36 -3.16 -0.44c-1.22,-0.17 -2.04,-0.25 -2.43,-0.23 -0.75,0.03 -1.48,0.21 -2.18,0.52 -0.7,0.31 -1.31,0.77 -1.83,1.38 -0.52,0.61 -0.97,1.41 -1.35,2.4l-0.58 -0.08 1.46 -6.16 16.8 2.34z"/>
     <path class="fil0" d="M153.61 70.73l-2.26 8.43 0.42 0.11c1.33,0.36 2.41,0.2 3.23,-0.46 0.82,-0.67 1.53,-1.78 2.13,-3.35l0.53 0.14 -2.91 10.86 -0.53 -0.14c0.19,-1.21 0.19,-2.25 -0,-3.11 -0.2,-0.86 -0.52,-1.49 -0.98,-1.89 -0.46,-0.4 -1.19,-0.74 -2.19,-1l-1.57 5.86c-0.31,1.15 -0.45,1.86 -0.42,2.14 0.03,0.28 0.15,0.54 0.37,0.77 0.22,0.23 0.63,0.43 1.22,0.59l1.24 0.33c1.94,0.52 3.61,0.49 5.02,-0.1 1.41,-0.58 2.61,-1.72 3.61,-3.42l0.57 0.15 -2.7 6.34 -17.92 -4.8 0.14 -0.53 0.69 0.18c0.6,0.16 1.11,0.18 1.54,0.07 0.3,-0.07 0.57,-0.26 0.81,-0.57 0.18,-0.22 0.41,-0.85 0.69,-1.9l3.67 -13.69c0.25,-0.94 0.38,-1.53 0.39,-1.76 -0.01,-0.39 -0.12,-0.71 -0.34,-0.98 -0.31,-0.39 -0.8,-0.68 -1.47,-0.86l-0.69 -0.18 0.14 -0.53 17.35 4.65 -1.63 6.09 -0.53 -0.14c0.1,-1.57 -0.03,-2.75 -0.39,-3.54 -0.36,-0.79 -1,-1.47 -1.9,-2.04 -0.52,-0.34 -1.57,-0.72 -3.15,-1.14l-2.16 -0.58z"/>
    </g>
   </g>
  </g>
 </g>
</svg>
