<?xml version="1.0" encoding="UTF-8"?>
<!DOCTYPE svg PUBLIC "-//W3C//DTD SVG 1.1//EN" "http://www.w3.org/Graphics/SVG/1.1/DTD/svg11.dtd">
<!-- Creator: CorelDRAW 2020 (64 Bit) -->
<svg xmlns="http://www.w3.org/2000/svg" xml:space="preserve" width="203.269mm" height="203.269mm" version="1.1" style="shape-rendering:geometricPrecision; text-rendering:geometricPrecision; image-rendering:optimizeQuality; fill-rule:evenodd; clip-rule:evenodd"
viewBox="0 0 7391.36 7391.36"
 xmlns:xlink="http://www.w3.org/1999/xlink"
 xmlns:xodm="http://www.corel.com/coreldraw/odm/2003">
 <defs>
  <style type="text/css">
   <![CDATA[
    .str0 {stroke:black;stroke-width:2.77;stroke-miterlimit:22.9256}
    .str1 {stroke:#FEFEFE;stroke-width:2.77;stroke-miterlimit:22.9256}
    .str2 {stroke:#0E2C60;stroke-width:9.05;stroke-linecap:round;stroke-linejoin:round;stroke-miterlimit:22.9256}
    .fil4 {fill:none}
    .fil0 {fill:#FEFEFE}
    .fil1 {fill:black}
    .fil3 {fill:#0251C8}
    .fil2 {fill:#FEFEFE}
    .fil5 {fill:#FEFEFE;fill-rule:nonzero}
   ]]>
  </style>
     <clipPath id="id0">
      <path d="M1519.29 4014.82c300.14,140.08 802.25,219.01 1300.03,167.39l2.2 -119.53 97.84 106.49 121.73 -17.37c138.53,261.49 327.62,428.15 569.54,495.67 -65.8,-197.24 -73.06,-368.71 -29.19,-517.6 58.06,-197.48 232.71,-379.88 413.31,-476.18 337.56,-179.95 835.84,-71.83 878.97,472.02 -25.93,205.64 -73.06,313.59 -369.53,519.56 -552.41,-110.89 -946.81,66.29 -1158.73,595.63 248.36,-185.34 569.54,-365.86 876.12,-308.7 261.08,113.75 356.89,431.49 367.41,815.21 295.57,-351.51 341.48,-709.54 145.62,-1073.93 559.02,-333.41 685.24,-688.91 642.11,-1185.23 165.27,26.99 341.48,101.68 525.35,209.14 -216.24,-355.01 -476.83,-662.16 -847.83,-850.03 -289.21,-354.61 -665.75,-550.21 -1128.23,-589.11 0.57,-264.1 11.25,-517.19 73.95,-713.05 -392.69,147.34 -677.17,426.52 -871.72,815.21 -797.11,263.77 -1371.62,866.99 -1608.73,1654.39l-0.24 0zm1085.83 -858.26l11.09 199.68c-87.82,44.85 -167.31,139.59 -230.18,238.5 17.12,-160.55 76.24,-321.99 219.09,-438.18z"/>
     </clipPath>
 </defs>
 <g id="Camada_x0020_1">
  <metadata id="CorelCorpID_0Corel-Layer"/>
  <path class="fil0" d="M1406.36 3695.68c0,1264.32 1024.92,2289.32 2289.32,2289.32 1264.32,0 2289.32,-1024.92 2289.32,-2289.32 0,-1264.32 -1024.92,-2289.32 -2289.32,-2289.32 -1264.32,0 -2289.32,1024.92 -2289.32,2289.32z"/>
  <g id="_2894325249264">
   <g id="clube-atletico-tubarao-sc-seeklogo.com.cdr">
    <path class="fil1" d="M3695.68 0c2041.04,0 3695.68,1654.56 3695.68,3695.68 0,2041.04 -1654.64,3695.68 -3695.68,3695.68 -2041.04,0 -3695.68,-1654.56 -3695.68,-3695.68 0,-2041.04 1654.64,-3695.68 3695.68,-3695.68zm0 186.48c1938.06,0 3509.21,1571.06 3509.21,3509.21 0,1938.06 -1571.14,3509.21 -3509.21,3509.21 -1938.06,0 -3509.21,-1571.06 -3509.21,-3509.21 0,-1938.06 1571.14,-3509.21 3509.21,-3509.21z"/>
    <path class="fil2" d="M3695.68 186.48c1938.06,0 3509.21,1571.06 3509.21,3509.21 0,1938.06 -1571.14,3509.21 -3509.21,3509.21 -1938.06,0 -3509.21,-1571.06 -3509.21,-3509.21 0,-1938.06 1571.14,-3509.21 3509.21,-3509.21zm0 172.94c1842.58,0 3336.26,1493.68 3336.26,3336.26 0,1842.58 -1493.68,3336.26 -3336.26,3336.26 -1842.58,0 -3336.26,-1493.68 -3336.26,-3336.26 0,-1842.58 1493.68,-3336.26 3336.26,-3336.26z"/>
    <path class="fil3" d="M3695.68 359.42c1842.58,0 3336.26,1493.68 3336.26,3336.26 0,1842.58 -1493.68,3336.26 -3336.26,3336.26 -1842.58,0 -3336.26,-1493.68 -3336.26,-3336.26 0,-1842.58 1493.68,-3336.26 3336.26,-3336.26zm0 1046.94c1264.4,0 2289.32,1025.01 2289.32,2289.32 0,1264.4 -1025.01,2289.32 -2289.32,2289.32 -1264.4,0 -2289.32,-1025.01 -2289.32,-2289.32 0,-1264.4 1025.01,-2289.32 2289.32,-2289.32z"/>
    <circle class="fil4" cx="3695.68" cy="3695.68" r="2289.32"/>
    <path class="fil1" d="M1519.29 4014.82c300.14,140.08 802.25,219.01 1300.03,167.39l2.2 -119.53 97.84 106.49 121.73 -17.37c138.53,261.49 327.62,428.15 569.54,495.67 -65.8,-197.24 -73.06,-368.71 -29.19,-517.6 58.06,-197.48 232.71,-379.88 413.31,-476.18 337.56,-179.95 835.84,-71.83 878.97,472.02 -25.93,205.64 -73.06,313.59 -369.53,519.56 -552.41,-110.89 -946.81,66.29 -1158.73,595.63 248.36,-185.34 569.54,-365.86 876.12,-308.7 261.08,113.75 356.89,431.49 367.41,815.21 295.57,-351.51 341.48,-709.54 145.62,-1073.93 559.02,-333.41 685.24,-688.91 642.11,-1185.23 165.27,26.99 341.48,101.68 525.35,209.14 -216.24,-355.01 -476.83,-662.16 -847.83,-850.03 -289.21,-354.61 -665.75,-550.21 -1128.23,-589.11 0.57,-264.1 11.25,-517.19 73.95,-713.05 -392.69,147.34 -677.17,426.52 -871.72,815.21 -797.11,263.77 -1371.62,866.99 -1608.73,1654.39l-0.24 0zm1085.83 -858.26l11.09 199.68c-87.82,44.85 -167.31,139.59 -230.18,238.5 17.12,-160.55 76.24,-321.99 219.09,-438.18z"/>
    <g>
    </g>
    <g style="clip-path:url(#id0)">
     <g>
      <path id="_1" class="fil3" d="M3898.22 1681.38c-60.91,198.87 -93.93,395.13 -91.16,588.13 -115.54,13.62 -207.84,42.81 -271.27,91.16 669.66,-71.75 1187.43,169.43 1464.98,642.43 -1101.57,-877.26 -2424.76,-516.21 -3103.56,865.93 97.19,75.59 208.41,127.85 312.61,191.86 -154.19,-25.44 -306.99,-68.33 -458.08,-131.03 316.45,-1003.4 989.45,-1308.92 1530.05,-1543.09 111.95,-334.96 338.71,-554.21 616.34,-705.38l0.08 0z"/>
     </g>
    </g>
    <path class="fil4" d="M1519.29 4014.82c300.14,140.08 802.25,219.01 1300.03,167.39l2.2 -119.53 97.84 106.49 121.73 -17.37c138.53,261.49 327.62,428.15 569.54,495.67 -65.8,-197.24 -73.06,-368.71 -29.19,-517.6 58.06,-197.48 232.71,-379.88 413.31,-476.18 337.56,-179.95 835.84,-71.83 878.97,472.02 -25.93,205.64 -73.06,313.59 -369.53,519.56 -552.41,-110.89 -946.81,66.29 -1158.73,595.63 248.36,-185.34 569.54,-365.86 876.12,-308.7 261.08,113.75 356.89,431.49 367.41,815.21 295.57,-351.51 341.48,-709.54 145.62,-1073.93 559.02,-333.41 685.24,-688.91 642.11,-1185.23 165.27,26.99 341.48,101.68 525.35,209.14 -216.24,-355.01 -476.83,-662.16 -847.83,-850.03 -289.21,-354.61 -665.75,-550.21 -1128.23,-589.11 0.57,-264.1 11.25,-517.19 73.95,-713.05 -392.69,147.34 -677.17,426.52 -871.72,815.21 -797.11,263.77 -1371.62,866.99 -1608.73,1654.39l-0.24 0zm1085.83 -858.26l11.09 199.68c-87.82,44.85 -167.31,139.59 -230.18,238.5 17.12,-160.55 76.24,-321.99 219.09,-438.18z"/>
    <path class="fil4 str0" d="M1519.29 4014.82c300.14,140.08 802.25,219.01 1300.03,167.39l2.2 -119.53 97.84 106.49 121.73 -17.37c138.53,261.49 327.62,428.15 569.54,495.67 -65.8,-197.24 -73.06,-368.71 -29.19,-517.6 58.06,-197.48 232.71,-379.88 413.31,-476.18 337.56,-179.95 835.84,-71.83 878.97,472.02 -25.93,205.64 -73.06,313.59 -369.53,519.56 -552.41,-110.89 -946.81,66.29 -1158.73,595.63 248.36,-185.34 569.54,-365.86 876.12,-308.7 261.08,113.75 356.89,431.49 367.41,815.21 295.57,-351.51 341.48,-709.54 145.62,-1073.93 559.02,-333.41 685.24,-688.91 642.11,-1185.23 165.27,26.99 341.48,101.68 525.35,209.14 -216.24,-355.01 -476.83,-662.16 -847.83,-850.03 -289.21,-354.61 -665.75,-550.21 -1128.23,-589.11 0.57,-264.1 11.25,-517.19 73.95,-713.05 -392.69,147.34 -677.17,426.52 -871.72,815.21 -797.11,263.77 -1371.62,866.99 -1608.73,1654.39l-0.24 0zm1085.83 -858.26l11.09 199.68c-87.82,44.85 -167.31,139.59 -230.18,238.5 17.12,-160.55 76.24,-321.99 219.09,-438.18z"/>
    <path class="fil2" d="M3511.08 3978.62c-75.42,122.8 -95.89,262.47 -75.75,414.62 -105.27,-53.41 -186.23,-138.53 -254.81,-239.64 -24.22,-33.68 -13.94,-38.16 16.55,-41.34 114.89,-13.94 217.54,-64.58 314,-133.64z"/>
    <path class="fil2 str1" d="M2278.97 4070.83c116.27,24.62 236.46,32.45 361.37,19.73 137.8,-272.17 297.45,-485.55 509.77,-620.17l1.14 30.58c-38.73,31.56 -72.81,69.47 -104.53,110.81 -8.4,158.67 -33.76,289.13 -76.07,433.7 76.32,-6.28 152.23,-15.82 226.43,-31.64 74.12,-15.82 146.52,-38.08 215.75,-69.71 90.1,-41.18 128.83,-71.1 197.16,-137.55 419.75,-407.6 730.49,-327.53 879.71,-323.05 360.64,125.16 498.68,413.23 437.61,847.01 186.96,-291.9 170.98,-574.6 26.58,-851.41 103.15,-15.57 206.21,-17.45 309.35,-11.17 -136.33,-84.23 -519.56,-88.63 -897.4,-78.36 136.82,-45.09 289.13,-62.95 426.03,-64.17 -262.06,-251.05 -592.53,-441.28 -1242.3,-347.27l-25.44 223.09c-26.91,-163.15 -59.85,-320.36 -104.45,-465.9 -8.15,-45.5 -45.5,15.9 -53.65,45.17 30.66,146.2 50.8,286.77 53.65,417.88l-129.89 -429.13c-13.21,-12.48 -41.5,26.25 -42.32,53.65 41.42,137.72 80.31,275.19 91.16,410.38 -51.7,-162.59 -106.65,-303.56 -163.4,-433.29 -17.77,-5.79 -59.36,26.66 -50.23,52.92 57.4,131.68 101.19,279.02 133.72,439.08l-100.62 -159.24c-12.15,-17.12 -21.77,-29.27 -41.66,-19.16 -461.17,235.56 -668.93,579.57 -837.47,957.25l0 -0.01z"/>
    <ellipse class="fil1" cx="4332.98" cy="4109.64" rx="424.89" ry="418.37"/>
    <ellipse class="fil2" cx="4332.98" cy="4109.64" rx="335.69" ry="330.47"/>
    <path class="fil1" d="M4112.99 3919.99l75.1 68.74c34.9,-20.3 73.87,-31.39 121.41,-23.48 -5.05,-45.09 3.91,-87.9 32.7,-107.63 -9.79,-32.45 -13.45,-53.33 -77.71,-39.71 -63.52,14.51 -110.56,53.65 -151.5,102.08z"/>
    <path class="fil1" d="M4472.65 3846.77c57.32,21.36 99.96,59.36 122.55,120.11 -31.06,-11.33 -62.13,-20.3 -93.2,-14.27 -0.08,-34.16 -14.68,-71.59 -29.35,-105.75l-0 -0.08z"/>
    <path class="fil1" d="M4043.52 4109.97c8.15,81.95 39.38,144.97 83.66,197.4l69.47 -21.53c6.52,-41.66 21.36,-80.72 44.27,-117.41 -37.26,-14.02 -69.55,-38.08 -95.32,-75.02l-102.08 16.63 -0 -0.08z"/>
    <path class="fil1" d="M4464.74 4367.63c-74.69,29.76 -168.86,30.25 -248.44,4.32 60.01,-21.12 125.81,-36.85 177.1,-66.37 16.47,26.42 40.12,47.21 71.35,62.13l-0 -0.08z"/>
    <polygon class="fil1" points="4492.3,3995.5 4577.26,4089.1 4545.95,4210.26 4436.45,4228.04 4345.45,4143.24 4378.64,4033.73 "/>
    <path class="fil3 str2" d="M3785.37 4858.4c570.36,-171.39 818.39,36.85 894.79,447.4 86.67,-165.11 67.19,-335.69 -25.93,-569.94 -25.68,-64.82 -189,-20.79 -282.37,-14.68l33.27 -53.49c-245.76,-51.7 -457.1,-2.12 -619.76,190.72l0 -0z"/>
    <path class="fil5" d="M622.05 3152.23c3.1,-4.57 7.01,-7.83 11.58,-9.79 4.57,-1.96 9.79,-1.14 15.65,2.45l94.1 79.09c4.48,3.43 6.85,6.93 7.26,10.52 0.41,3.59 -0.98,7.91 -4.4,12.72 -11.25,13.05 -20.3,27.72 -27.07,43.95 -6.77,16.22 -10.93,33.68 -12.31,52.26 -1.71,23.16 0.9,44.77 7.99,64.9 7.09,20.14 17.53,37.84 31.39,53.08 13.86,15.25 30.41,27.56 49.74,36.94 19.32,9.38 40.28,15 62.95,16.72 22.67,1.71 44.11,-0.65 64.5,-7.01 20.38,-6.44 38.49,-16.14 54.3,-29.11 15.9,-12.96 28.86,-28.86 38.89,-47.7 10.03,-18.84 15.98,-39.79 17.69,-62.95 1.39,-18.59 -0.16,-36.61 -4.48,-53.98 -4.4,-17.37 -11.09,-33.35 -20.3,-47.94 -2.69,-5.3 -3.59,-9.62 -2.77,-12.96 0.81,-3.34 3.59,-6.52 8.24,-9.62l107.63 -64.66c6.44,-2.61 11.58,-2.69 15.57,-0.08 4,2.61 7.17,6.36 9.54,11.33 15.41,27.89 26.82,57.4 34,88.71 7.26,31.31 9.62,64.01 7.01,97.93 -2.28,29.92 -8.15,58.3 -17.69,85.21 -9.54,26.99 -22.18,51.94 -37.75,74.93 -15.65,23.08 -33.92,43.54 -54.63,61.89 -20.71,18.18 -43.3,33.51 -67.68,45.82 -24.46,12.31 -50.55,21.44 -78.11,26.99 -27.56,5.55 -55.85,7.26 -85.29,5.05 -29.27,-2.2 -57.07,-8.15 -83.41,-17.77 -26.5,-9.7 -50.96,-22.58 -73.55,-38.49 -22.58,-15.9 -42.73,-34.49 -60.75,-55.53 -17.86,-21.2 -32.7,-44.19 -44.52,-69.39 -11.91,-25.03 -20.55,-51.7 -26.09,-79.74 -5.55,-28.13 -7.26,-56.99 -4.97,-86.92 2.53,-33.84 9.54,-65.56 21.12,-94.91 11.5,-29.35 27.07,-56.59 46.47,-81.78l0.16 -0.17zm46.47 -305.6c-4.65,-1.79 -8.07,-4.89 -10.27,-9.29 -2.2,-4.48 -2.2,-9.46 -0.16,-15l44.44 -117.99c1.71,-4.48 4.81,-7.99 9.29,-10.6 4.48,-2.53 9.38,-2.93 14.68,-1.31l423.42 159.49 82.27 -218.52c1.79,-4.73 4.89,-8.32 9.29,-10.6 4.4,-2.28 9.38,-2.36 14.76,-0.33l102.33 38.57c4.4,1.63 7.91,4.65 10.36,9.05 2.45,4.4 2.77,9.54 0.98,15.17l-133.8 355.18c-4.4,11.66 -12.31,15.33 -23.73,11.01l-544.02 -204.9 0.16 0.08zm639.58 -571.9c17.37,10.84 33.84,17.53 49.01,20.22 15.17,2.61 29.11,2.28 41.75,-0.98 12.64,-3.26 24.13,-9.13 34.33,-17.61 10.19,-8.48 18.84,-18.43 26.01,-30.01 7.5,-11.99 12.48,-24.7 15,-38 2.53,-13.29 2.28,-26.42 -0.81,-39.54 -3.1,-13.13 -9.21,-25.77 -18.34,-37.92 -9.05,-12.15 -21.44,-22.99 -36.94,-32.7l-299.81 -186.88c-4.24,-2.61 -6.93,-6.44 -8.07,-11.41 -1.14,-4.89 -0.24,-9.79 2.93,-14.84l65.8 -105.59c3.43,-5.55 7.83,-8.81 12.88,-9.95 5.14,-1.14 9.62,-0.49 13.62,1.96l297.94 185.74c41.18,25.68 71.83,53.49 92.3,83.33 20.3,29.84 32.53,60.5 36.61,91.98 3.91,31.64 1.14,63.44 -8.56,95.56 -9.79,32.21 -23.97,63.44 -42.89,93.69 -18.92,30.41 -40.85,56.91 -65.72,79.74 -24.87,22.83 -52.43,39.3 -82.84,49.58 -30.33,10.11 -63.35,12.56 -98.91,7.5 -35.63,-4.97 -73.71,-20.06 -114.15,-45.33l-297.94 -185.74c-4,-2.53 -6.6,-6.12 -8.07,-10.84 -1.47,-4.73 -0.98,-9.13 1.55,-13.21l67.35 -108.12c2.28,-3.59 6.2,-6.52 11.58,-8.64 5.38,-2.12 10.27,-1.79 14.76,0.98l299.81 186.88 -0.17 0.16zm124.26 -764.33c-3.75,-4.4 -5.46,-8.97 -5.22,-13.78 0.24,-4.73 2.53,-9.05 7.01,-12.88l214.52 -183.3c18.92,-16.14 39.87,-27.89 62.7,-35.14 22.83,-7.26 45.82,-10.19 68.98,-8.64 23.16,1.55 45.5,7.5 66.94,17.77 21.44,10.27 40.36,24.95 56.51,43.95 13.53,15.82 23.65,32.7 30.17,50.55 6.52,17.94 9.7,36.2 9.62,54.87 27.4,0.65 53.98,6.77 79.58,18.02 25.6,11.25 47.62,27.64 66.05,49.17 16.39,19.16 28.21,40.61 35.3,64.25 7.17,23.65 9.79,47.45 8.07,71.35 -1.79,23.97 -7.99,47.13 -18.67,69.39 -10.6,22.18 -25.44,41.42 -44.44,57.65l-234.01 199.93c-4.32,3.67 -8.72,5.46 -13.21,5.46 -4.48,0 -8.64,-2.28 -12.64,-6.93l-377.35 -441.69 0.09 0.01zm524.69 86.02c-5.38,-6.36 -12.07,-11.58 -19.98,-15.74 -7.91,-4.24 -16.14,-6.93 -24.79,-8.15 -8.64,-1.14 -17.45,-0.57 -26.25,1.47 -8.81,2.12 -16.88,6.2 -23.97,12.23l-85.62 73.14 90.26 105.59 85.62 -73.14c7.09,-6.03 12.39,-13.13 15.98,-21.36 3.51,-8.07 5.38,-16.63 5.63,-25.44 0.41,-8.89 -0.9,-17.45 -3.83,-25.85 -2.93,-8.48 -7.26,-16.06 -12.96,-22.83l-0.08 0.08zm-174.65 -169.11c-5.38,-6.36 -11.66,-11.25 -18.67,-14.68 -7.01,-3.43 -14.51,-5.46 -22.42,-6.03 -7.91,-0.57 -16.06,0.57 -24.13,3.34 -8.07,2.69 -15.65,7.17 -22.75,13.21l-69.31 59.19 78.36 91.65 68.33 -58.38c7.34,-6.28 13.13,-13.21 17.37,-20.63 4.24,-7.42 6.85,-15.08 7.58,-22.91 0.81,-7.75 0,-15.49 -2.28,-23.16 -2.28,-7.67 -6.2,-14.92 -11.99,-21.69l-0.08 0.08zm246.73 -387.79c-2.77,-5.14 -3.51,-9.95 -2.28,-14.51 1.22,-4.57 4.32,-8.32 9.54,-11.17l370.02 -202.05c5.46,-3.02 10.52,-3.67 15.25,-2.2 4.73,1.55 8.56,4.97 11.41,10.36l49.41 90.51c2.28,4.16 2.85,8.81 1.96,14.27 -0.9,5.38 -4.24,9.7 -9.95,12.8l-241.51 131.85 49.41 90.51 186.31 -101.76c4.73,-2.61 9.29,-3.67 13.62,-3.18 4.32,0.49 7.75,3.34 10.6,8.48l43.21 79.17c1.88,3.43 2.28,7.42 1.31,12.07 -0.98,4.65 -4.16,8.4 -9.38,11.25l-186.72 101.92 50.63 92.71 250.4 -136.74c11.17,-6.12 19.81,-3.59 25.93,7.67l50.23 91.98c1.31,2.45 1.55,5.14 0.57,8.24 2.69,7.34 -0.49,13.53 -9.7,18.59l-377.11 205.88c-4.97,2.69 -9.7,3.51 -14.02,2.61 -4.4,-0.9 -7.99,-4 -10.93,-9.38l-278.37 -509.94 0.16 0.08zm1146.58 -434.84c0,-1.71 0.73,-3.59 2.04,-5.79 1.31,-2.12 2.85,-4.16 4.81,-6.12 2.04,-1.96 4.16,-3.67 6.6,-4.97 2.36,-1.31 4.73,-2.04 6.93,-2.36l107.63 -15.41c4.73,-0.65 9.05,0.08 12.8,2.53 3.75,2.36 6.69,4.65 8.64,6.6l13.86 21.93 300.55 526.16c3.02,5.14 3.26,9.62 0.65,13.45 -2.61,3.83 -7.67,6.44 -15.25,7.5l-120.59 17.29c-6.44,0.9 -11.5,0.41 -15.33,-1.47 -3.83,-1.79 -7.17,-5.3 -9.95,-10.44 -7.58,-13.21 -15.08,-26.42 -22.42,-39.46 -7.34,-13.13 -14.6,-26.17 -21.93,-39.46l-223.17 31.96c-3.34,14.76 -6.69,29.35 -10.11,44.03 -3.51,14.68 -6.93,29.44 -10.27,44.19 -2.2,10.68 -8.64,16.8 -19.24,18.26l-124.02 17.77c-5.3,0.73 -9.87,0 -13.78,-2.2 -3.91,-2.2 -5.22,-6.28 -3.75,-12.07l145.22 -611.86 0.08 -0.08zm101.76 165.19c-3.34,14.76 -6.44,30.58 -9.62,47.62 -3.18,16.96 -6.28,34.08 -9.21,51.29 -2.93,17.2 -5.95,34.16 -9.13,51.04 -3.18,16.8 -6.44,32.7 -9.79,47.45l128.99 -18.51 -91.24 -178.89 0 0zm540.84 -220.48c0.81,-5.46 3.34,-9.62 7.67,-12.31 4.24,-2.77 9.13,-3.75 14.68,-2.93l452.61 64.82c5.05,0.73 9.29,2.85 12.8,6.44 3.51,3.59 5.05,8.4 4.81,14.51l-14.68 102.49c-0.73,4.97 -3.02,9.38 -7.17,13.37 -4.16,4 -9.54,5.63 -15.98,4.73l-144.97 -20.79 -64.58 450.74c-0.73,4.97 -3.18,9.05 -7.34,12.56 -4.24,3.43 -9.29,4.81 -15.17,4l-123.53 -17.69c-4.73,-0.65 -8.97,-3.26 -12.64,-7.58 -3.67,-4.32 -5.14,-9.13 -4.32,-14.6l64.58 -450.74 -144.57 -20.71c-5.63,-0.81 -9.95,-3.26 -13.21,-7.34 -3.26,-4.08 -4.48,-9.62 -3.51,-16.47l14.68 -102.49 -0.16 0zm721.6 124.59c1.63,-4.73 4.57,-8.24 8.97,-10.6 4.4,-2.28 9.38,-2.53 15,-0.57l119.37 40.61c4.57,1.55 8.15,4.57 10.84,8.97 2.69,4.4 3.26,9.29 1.71,14.68l-145.62 428.4 221.05 75.18c4.81,1.63 8.48,4.65 10.84,8.97 2.45,4.32 2.69,9.29 0.81,14.76l-35.22 103.55c-1.55,4.48 -4.4,8.07 -8.72,10.68 -4.32,2.61 -9.46,3.1 -15.17,1.47l-359.33 -122.14c-11.82,-4 -15.74,-11.82 -11.82,-23.32l187.13 -550.38 0.16 -0.25zm648.79 259.04c3.18,-4.89 7.09,-7.83 11.66,-8.97 4.65,-1.14 9.38,-0.24 14.43,3.02l354.69 227.9c5.22,3.34 8.32,7.5 9.21,12.31 0.9,4.89 -0.33,9.87 -3.59,15l-55.77 86.76c-2.53,4 -6.36,6.77 -11.58,8.56 -5.22,1.79 -10.52,0.98 -16.06,-2.53l-231.48 -148.73 -55.77 86.76 178.57 114.8c4.48,2.93 7.67,6.44 9.29,10.44 1.63,4 0.81,8.4 -2.36,13.29l-48.76 75.91c-2.12,3.26 -5.46,5.55 -10.03,6.93 -4.57,1.39 -9.38,0.41 -14.35,-2.77l-178.98 -114.97 -57.07 88.88 240.05 154.27c10.68,6.85 12.64,15.65 5.71,26.42l-56.67 88.14c-1.47,2.36 -3.83,3.83 -6.93,4.48 -5.14,5.95 -12.15,6.03 -20.96,0.41l-361.45 -232.3c-4.73,-3.1 -7.75,-6.77 -9.05,-11.09 -1.31,-4.32 -0.33,-8.97 3.02,-14.02l314.08 -488.74 0.16 -0.16zm237.03 -68.08c4.65,-4.57 9.54,-6.69 14.68,-6.6 5.14,0.16 9.7,1.47 13.7,4.08l92.14 59.19c3.59,2.28 5.87,4.73 6.77,7.34 0.9,2.53 0.98,5.05 0.16,7.5 -0.73,2.45 -2.36,4.89 -4.57,7.34 -2.2,2.36 -4.65,4.4 -7.58,6.36l-83.5 52.92c-6.12,3.26 -11.25,5.3 -15.49,5.87 -4.24,0.57 -8.64,-0.65 -13.21,-3.51l-78.19 -50.31c-3.59,-2.28 -5.38,-4.73 -5.46,-7.5 -0.08,-2.69 0.57,-5.38 2.28,-7.91 1.63,-2.53 3.83,-5.14 6.44,-7.75 2.77,-2.69 4.97,-4.89 6.77,-6.69l65.07 -60.34zm359.25 478.7c4.08,-3.83 8.64,-5.38 13.7,-4.89 5.05,0.49 9.46,2.77 13.29,6.93l312.94 333.41c3.51,3.75 5.46,8.07 5.95,13.05 0.49,4.97 -1.31,9.79 -5.38,14.35l-75.5 70.86c-3.67,3.43 -8.24,5.38 -14.02,5.95 -5.79,0.57 -10.93,-1.55 -15.41,-6.28l-100.21 -106.81 -332.02 311.64c-3.67,3.43 -8.15,5.14 -13.62,5.14 -5.46,0.08 -10.27,-2.04 -14.35,-6.36l-85.45 -91c-3.26,-3.51 -4.97,-8.15 -5.14,-13.78 -0.16,-5.63 1.71,-10.36 5.79,-14.1l332.02 -311.64 -99.96 -106.49c-3.83,-4.16 -5.79,-8.81 -5.71,-14.02 0,-5.22 2.53,-10.27 7.58,-15l75.5 -70.86 0.01 -0.08zm483.84 561.88c4.16,-2.69 8.64,-3.75 13.37,-3.18 4.73,0.65 8.81,3.59 12.23,8.81l68.49 104.86c2.28,3.59 3.43,8.24 3.26,14.1 -0.16,5.87 -2.53,10.27 -7.17,13.29l-486.62 318c-10.19,6.69 -19.08,4.24 -26.66,-7.42l-68.49 -104.86c-6.85,-10.44 -5.14,-19 5.14,-25.68l486.62 -318 -0.17 0.08zm397.41 851.74c-0.81,5.46 -2.93,10.11 -6.28,13.78 -3.34,3.75 -8.4,5.22 -15.17,4.48l-118.96 -30.9c-5.55,-1.22 -9.13,-3.26 -11.09,-6.36 -1.96,-3.02 -2.45,-7.5 -1.47,-13.37 4.57,-16.63 6.44,-33.76 5.55,-51.29 -0.9,-17.61 -4.65,-35.06 -11.41,-52.51 -8.4,-21.61 -20.06,-40.04 -35.14,-55.12 -15.08,-15.08 -32.13,-26.58 -51.21,-34.33 -19.08,-7.83 -39.3,-11.82 -60.83,-11.99 -21.44,-0.16 -42.81,3.83 -64.01,11.99 -21.2,8.24 -39.54,19.57 -55.2,34.08 -15.65,14.51 -27.8,31.06 -36.53,49.66 -8.72,18.59 -13.62,38.49 -14.6,59.85 -0.98,21.28 2.77,42.81 11.09,64.42 6.77,17.45 15.9,33.02 27.32,46.8 11.41,13.78 24.38,25.36 38.97,34.57 4.65,3.67 7.34,7.17 8.07,10.52 0.73,3.34 -0.41,7.42 -3.34,12.23l-69.31 104.69c-4.73,5.14 -9.29,7.42 -14.02,6.77 -4.73,-0.57 -9.21,-2.69 -13.53,-6.12 -25.93,-18.51 -48.84,-40.28 -68.9,-65.47 -19.98,-25.2 -36.2,-53.65 -48.51,-85.37 -10.84,-27.97 -17.69,-56.1 -20.71,-84.55 -3.02,-28.46 -2.36,-56.42 1.88,-83.9 4.24,-27.56 11.82,-53.9 22.67,-79.34 10.84,-25.28 24.62,-48.84 41.42,-70.53 16.72,-21.69 36.45,-41.09 58.87,-57.97 22.42,-16.88 47.29,-30.58 74.85,-41.26 27.4,-10.6 55.04,-17.2 83,-19.81 28.13,-2.69 55.77,-1.55 82.92,3.1 27.23,4.65 53.41,12.72 78.68,24.05 25.28,11.5 48.51,25.85 70.04,43.46 21.44,17.53 40.77,37.75 57.81,60.75 17.04,22.99 31.06,48.35 41.91,76.4 12.23,31.64 19.57,63.27 21.77,94.75 2.2,31.47 -0.08,62.7 -6.77,93.85l0.16 -0.01zm-168.29 446.74c-22.75,3.26 -43.46,10.19 -62.13,20.87 -18.67,10.68 -34.25,24.05 -46.89,40.28 -12.64,16.22 -21.77,34.57 -27.4,55.12 -5.63,20.55 -6.77,42.4 -3.51,65.72 3.34,23.08 10.6,43.95 21.77,62.05 11.17,18.26 25.11,33.43 41.83,45.5 16.72,12.07 35.39,20.55 56.34,25.52 20.87,4.97 42.73,5.87 65.47,2.61 22.5,-3.26 43.21,-10.19 61.97,-20.87 18.75,-10.68 34.49,-24.13 47.29,-40.36 12.8,-16.31 22.01,-34.73 27.72,-55.45 5.71,-20.55 6.93,-42.56 3.59,-65.72 -3.34,-23.24 -10.6,-43.95 -21.93,-62.05 -11.25,-18.1 -25.36,-33.1 -42.15,-45.17 -16.88,-12.07 -35.72,-20.46 -56.75,-25.44 -21.04,-4.97 -42.89,-5.87 -65.31,-2.61l0.08 0zm-23.89 -162.99c29.11,-4.16 57.49,-4.4 85.29,-0.65 27.97,3.67 54.63,10.93 80.15,21.69 25.44,10.68 49.17,24.38 71.26,41.09 22.01,16.72 41.42,36.12 58.46,57.97 17.04,22.01 31.23,45.99 42.73,72.4 11.5,26.25 19.41,54.3 23.65,84.15 4.24,29.44 4.48,58.38 0.81,87.08 -3.59,28.54 -10.52,55.69 -20.63,81.62 -10.19,25.77 -23.4,49.82 -39.79,72.32 -16.55,22.42 -35.39,42.23 -56.91,59.44 -21.44,17.2 -45.01,31.64 -70.86,43.13 -25.68,11.5 -52.92,19.49 -82.03,23.65 -29.19,4.16 -57.65,4.24 -85.53,0.41 -27.89,-3.83 -54.55,-11.09 -79.66,-21.61 -25.2,-10.52 -48.68,-24.3 -70.61,-41.18 -21.93,-17.04 -41.5,-36.37 -58.63,-58.22 -17.12,-22.01 -31.39,-46.15 -42.73,-72.49 -11.33,-26.5 -19.16,-54.47 -23.32,-83.9 -4.24,-29.84 -4.65,-58.95 -1.14,-87.33 3.51,-28.54 10.36,-55.53 20.71,-81.46 10.27,-25.77 23.65,-49.82 39.96,-72.08 16.31,-22.18 34.98,-42.07 56.18,-59.36 21.2,-17.45 44.77,-31.88 70.37,-43.3 25.68,-11.41 53,-19.16 82.19,-23.32l0.08 -0.08z"/>
    <path class="fil5" d="M1856.28 5542.91c3.59,-4.08 7.83,-6.12 12.8,-6.2 4.89,-0.08 9.38,1.63 13.45,5.22l331.61 288.56c3.67,3.18 6.03,7.17 6.93,11.99 0.9,4.73 -0.41,9.54 -3.91,14.43l-66.7 76.64c-3.18,3.67 -7.5,6.12 -12.96,7.26 -5.55,1.14 -10.76,-0.33 -15.41,-4.4l-106.24 -92.46 -293.37 337.16c-3.18,3.67 -7.42,5.79 -12.64,6.44 -5.22,0.65 -10.11,-0.81 -14.43,-4.57l-90.51 -78.76c-3.51,-3.02 -5.55,-7.34 -6.2,-12.8 -0.65,-5.46 0.73,-10.19 4.32,-14.27l293.37 -337.16 -105.92 -92.14c-4.08,-3.59 -6.36,-7.83 -6.77,-12.96 -0.49,-5.05 1.55,-10.19 5.95,-15.33l66.7 -76.64 -0.08 0zm441.28 748.92c-9.21,17.94 -14.51,34.49 -15.98,49.49 -1.47,15 -0.16,28.54 3.91,40.61 4.08,12.07 10.52,22.67 19.41,31.88 8.89,9.13 19.08,16.72 30.74,22.67 12.07,6.2 24.7,9.95 37.67,11.25 12.96,1.31 25.6,-0.16 38,-4.32 12.39,-4.16 24.13,-11.25 35.22,-21.2 11.09,-9.95 20.63,-22.91 28.86,-38.81l158.75 -308.38c2.28,-4.32 5.79,-7.34 10.36,-8.89 4.65,-1.55 9.46,-1.14 14.51,1.55l106.32 54.71c5.55,2.85 9.05,6.77 10.52,11.66 1.47,4.89 1.14,9.29 -0.98,13.45l-157.78 306.42c-21.77,42.32 -46.39,74.69 -73.71,97.19 -27.32,22.34 -55.94,37.02 -86.02,43.7 -30.17,6.6 -60.99,6.69 -92.63,0.08 -31.72,-6.69 -62.78,-17.77 -93.28,-33.43 -30.58,-15.74 -57.73,-34.73 -81.46,-56.91 -23.81,-22.18 -41.58,-47.62 -53.65,-76.24 -11.91,-28.62 -16.55,-60.58 -14.27,-95.64 2.28,-35.06 14.1,-73.55 35.55,-115.13l157.78 -306.42c2.12,-4.08 5.46,-7.01 9.87,-8.81 4.48,-1.79 8.72,-1.79 12.8,0.33l108.85 56.02c3.59,1.88 6.69,5.46 9.13,10.52 2.45,5.05 2.45,9.87 0.08,14.43l-158.75 308.38 0.17 -0.16zm601.09 -108.93c1.31,-5.55 3.91,-9.54 7.67,-12.23 3.83,-2.61 8.48,-3.34 14.02,-2.12l264.42 60.83c23.32,5.38 44.27,14.92 62.95,28.62 18.67,13.62 34,30.01 45.99,49.09 11.99,19.08 20.14,40.12 24.3,62.95 4.24,22.91 3.59,46.31 -1.88,70.2 -4.57,19.89 -11.91,37.75 -22.1,53.41 -10.19,15.65 -22.58,28.86 -37.1,39.79 15.08,21.93 25.52,46.31 31.39,73.14 5.87,26.74 5.71,53.65 -0.57,80.72 -5.55,24.13 -15.49,45.99 -29.68,65.47 -14.27,19.49 -31.23,35.55 -50.71,48.19 -19.65,12.64 -41.09,21.44 -64.5,26.09 -23.32,4.73 -46.64,4.32 -69.96,-0.98l-288.4 -66.29c-5.3,-1.22 -9.21,-3.67 -11.74,-7.17 -2.53,-3.51 -3.18,-8.15 -1.79,-13.94l127.77 -555.76 -0.08 -0zm232.06 462.56c1.79,-7.99 2.04,-16.31 0.81,-24.95 -1.22,-8.64 -3.83,-16.8 -7.83,-24.3 -4,-7.5 -9.46,-14.02 -16.14,-19.73 -6.69,-5.71 -14.43,-9.62 -23.16,-11.58l-105.51 -24.3 -30.58 132.9 105.51 24.3c8.72,2.04 17.29,2.04 25.68,0 8.32,-2.04 15.9,-5.55 22.91,-10.52 7.09,-4.89 12.96,-11.01 17.86,-18.26 4.89,-7.26 8.32,-15.08 10.27,-23.56l0.17 0zm31.8 -236.46c1.79,-7.99 2.04,-15.74 0.73,-23.32 -1.31,-7.58 -4.08,-14.6 -8.15,-21.12 -4.08,-6.52 -9.62,-12.23 -16.31,-17.04 -6.69,-4.73 -14.51,-8.07 -23.24,-10.11l-85.37 -19.65 -26.5 115.37 84.23 19.32c9.05,2.04 17.69,2.53 25.93,1.47 8.24,-1.06 15.57,-3.51 22.1,-7.5 6.52,-3.91 11.99,-9.13 16.63,-15.41 4.65,-6.36 7.99,-13.62 9.95,-22.18l-0 0.17zm484.01 -112.85c0.24,-1.63 1.14,-3.43 2.61,-5.38 1.47,-1.96 3.18,-3.75 5.3,-5.46 2.12,-1.71 4.4,-3.1 6.85,-4.08 2.45,-0.98 4.73,-1.47 6.93,-1.55l104.45 -2.36c4.65,-0.08 8.56,1.14 11.91,3.91 3.34,2.77 5.87,5.3 7.5,7.42l10.76 22.99 226.92 548.01c2.28,5.38 1.96,9.79 -0.9,13.21 -2.93,3.51 -8.07,5.38 -15.41,5.55l-117.09 2.69c-6.28,0.16 -11.01,-0.98 -14.51,-3.18 -3.43,-2.2 -6.28,-5.95 -8.32,-11.41 -5.79,-13.78 -11.41,-27.48 -16.88,-41.09 -5.46,-13.62 -10.93,-27.23 -16.47,-41.01l-216.73 4.97c-4.89,14.02 -9.7,27.89 -14.68,41.75 -4.97,13.86 -9.95,27.89 -14.84,41.83 -3.34,10.11 -10.11,15.33 -20.46,15.57l-120.35 2.77c-5.14,0.08 -9.46,-1.14 -12.88,-3.75 -3.51,-2.61 -4.24,-6.69 -2.2,-12.23l208.41 -579.24 0.07 0.08zm78.27 172.94c-4.81,14.02 -9.7,29.11 -14.6,45.25 -4.97,16.14 -9.87,32.45 -14.68,48.92 -4.81,16.47 -9.62,32.61 -14.51,48.68 -4.97,16.06 -9.87,31.15 -14.76,45.09l125.24 -2.85 -66.7 -185.09 -0 0zm408.75 -203.44c-1.31,-5.55 -0.81,-10.27 1.31,-14.27 2.12,-4 6.12,-6.69 11.99,-8.07l256.93 -59.28c27.32,-6.28 54.06,-7.01 80.31,-2.36 26.25,4.73 50.23,13.7 72,27.07 21.77,13.37 40.61,30.74 56.26,51.78 15.65,21.12 26.42,45.01 32.53,71.51 4.16,18.02 5.79,35.8 4.65,53.25 -1.14,17.45 -4.48,34.25 -10.03,50.47 -5.46,16.22 -12.88,31.47 -22.26,45.74 -9.38,14.35 -20.38,27.32 -32.78,38.81l147.09 168.95c2.69,3.26 6.12,7.09 10.19,11.5 4.08,4.4 6.52,8.4 7.42,12.15 0.98,4.24 0.41,7.75 -1.88,10.6 -2.28,2.93 -5.87,4.97 -10.6,6.12l-136.82 31.56c-4.48,1.06 -8.81,0.65 -12.96,-1.22 -4.16,-1.79 -7.42,-4.81 -9.54,-9.13l-138.37 -159.49 -64.33 14.84 41.42 179.38c2.61,11.41 -2.12,18.51 -14.35,21.36l-118.56 27.4c-5.3,1.22 -9.87,0.73 -13.7,-1.31 -3.83,-2.04 -6.36,-5.95 -7.75,-11.74l-128.26 -555.6 0.08 -0.01zm351.83 105.19c-1.88,-7.99 -5.14,-15.57 -9.87,-22.83 -4.73,-7.26 -10.52,-13.62 -17.2,-19.08 -6.85,-5.38 -14.51,-9.54 -22.91,-12.31 -8.32,-2.85 -17.2,-3.83 -26.58,-3.1 -7.42,1.14 -14.6,2.28 -21.04,3.34 -6.6,1.14 -13.62,2.61 -21.36,4.4l-54.63 12.64 33.68 145.95 72.81 -16.8c4.81,-1.14 8.97,-2.2 12.64,-3.34 3.67,-1.14 7.5,-2.45 11.91,-4 9.05,-3.18 16.72,-7.91 22.99,-13.94 6.44,-6.12 11.41,-12.96 14.92,-20.63 3.43,-7.67 5.55,-15.82 6.36,-24.54 0.81,-8.72 0.24,-17.2 -1.71,-25.68l-0 -0.09zm361.29 -343.76c-0.49,-1.55 -0.49,-3.59 0,-5.95 0.49,-2.36 1.22,-4.73 2.36,-7.17 1.14,-2.45 2.61,-4.73 4.32,-6.69 1.71,-1.96 3.59,-3.43 5.55,-4.4l92.79 -47.94c4.08,-2.12 8.24,-2.69 12.48,-1.71 4.24,1.06 7.58,2.2 10.03,3.43l19.73 15.98 444.38 392.93c4.4,3.83 6.03,7.91 4.97,12.31 -1.06,4.4 -4.89,8.32 -11.41,11.74l-104.04 53.82c-5.55,2.85 -10.36,4 -14.43,3.51 -4.08,-0.49 -8.24,-2.61 -12.48,-6.6 -11.17,-9.87 -22.26,-19.73 -33.18,-29.6 -10.93,-9.87 -21.77,-19.65 -32.78,-29.6l-192.51 99.56c1.79,14.68 3.51,29.27 5.05,43.95 1.63,14.68 3.26,29.44 5.05,44.11 1.47,10.6 -2.36,18.26 -11.58,22.99l-106.98 55.28c-4.57,2.36 -8.97,3.1 -13.21,2.28 -4.24,-0.81 -6.77,-4.16 -7.34,-10.03l-66.86 -611.94 0.08 -0.24zm146.2 121.08c1.79,14.68 4.08,30.33 6.69,47.05 2.69,16.72 5.38,33.51 8.32,50.39 2.93,16.88 5.71,33.51 8.32,50.06 2.61,16.55 4.73,32.29 6.52,47.05l111.3 -57.57 -141.14 -137.06 0 0.08zm-273.31 -218.52c1.22,-8.89 3.59,-17.61 7.17,-26.17 3.51,-8.56 7.91,-16.63 13.21,-24.13 5.3,-7.5 11.33,-14.19 18.1,-20.06 6.77,-5.95 13.94,-10.93 21.69,-14.92 4.32,-2.28 9.29,-4.24 14.92,-5.87 5.55,-1.63 11.99,-2.85 19.32,-3.51 7.26,-0.73 15.65,-1.06 25.28,-0.98 9.54,0.08 20.55,0.9 32.86,2.2 3.51,0.33 6.85,0.24 9.95,-0.08 3.02,-0.33 6.03,-1.31 9.21,-2.93 5.05,-2.61 8.72,-5.87 11.09,-9.7 2.28,-3.83 4.16,-7.99 5.46,-12.64l4.48 -20.71c0.57,-4.24 2.12,-7.17 4.57,-8.64 2.45,-1.47 5.3,-1.55 8.64,-0.49l54.22 13.29c4,1.31 7.01,2.61 8.89,4.16 1.88,1.47 2.28,4.48 1.55,8.89l-3.59 19.73c-2.77,18.26 -9.38,34.9 -19.81,49.74 -10.36,14.84 -23.56,26.42 -39.54,34.65 -9.46,4.89 -19.81,8.15 -31.23,9.87 -11.33,1.71 -22.91,2.2 -34.73,1.22l-26.5 -2.36c-3.51,-0.33 -6.77,-0.33 -9.7,-0.08 -2.93,0.24 -6.03,1.31 -9.46,3.02 -4.81,2.53 -8.48,5.63 -10.93,9.38 -2.53,3.75 -4.32,7.91 -5.38,12.39l-3.75 20.3c-0.16,3.18 -2.04,5.79 -5.46,8.07 -3.43,2.2 -6.77,2.85 -10.11,1.88l-53.65 -12.23c-1.79,-0.57 -3.43,-1.31 -4.81,-1.96 -1.39,-0.65 -2.69,-1.96 -3.83,-4.16 -0.16,-0.24 -0.24,-0.81 -0.49,-1.55 -0.24,-0.81 -0.33,-2.12 -0.24,-4 0.08,-1.88 0.24,-4.57 0.65,-7.99 0.41,-3.43 1.14,-7.91 2.12,-13.7l-0.17 0.09zm809.67 6.77c15.57,16.31 32.94,28.94 52.02,37.84 19.08,8.89 38.49,13.86 58.46,14.84 19.98,1.06 39.63,-1.88 58.87,-8.89 19.32,-7.01 37.18,-18.26 53.49,-33.84 16.22,-15.49 28.37,-32.94 36.2,-51.94 7.91,-19.08 11.82,-38.65 11.66,-58.63 -0.16,-20.06 -4.24,-39.63 -12.23,-59.03 -8.07,-19.41 -19.89,-37.26 -35.47,-53.65 -15.41,-16.14 -32.78,-28.7 -51.86,-37.75 -19.16,-8.97 -38.65,-14.02 -58.79,-15.17 -20.06,-1.14 -39.87,1.79 -59.36,8.81 -19.41,6.85 -37.34,18.26 -53.57,33.76 -16.31,15.57 -28.37,32.94 -36.12,52.02 -7.75,19.08 -11.41,38.65 -11.25,58.71 0.24,20.14 4.4,39.87 12.56,59.36 8.15,19.49 19.98,37.42 35.39,53.49l-0.01 0.09zm-114.07 109.83c-19.89,-20.87 -36.37,-43.38 -49.41,-67.59 -13.13,-24.38 -22.75,-49.58 -28.94,-75.91 -6.28,-26.25 -9.05,-52.75 -8.64,-79.66 0.49,-26.82 4.57,-53.08 11.99,-78.85 7.5,-25.85 18.18,-50.47 32.29,-74.36 14.02,-23.73 31.39,-45.66 52.35,-65.72 20.63,-19.73 43.21,-36.12 67.76,-49.17 24.46,-13.05 49.66,-22.67 75.83,-29.03 26.01,-6.28 52.43,-9.13 79.5,-8.64 26.99,0.73 53.41,4.65 79.26,12.15 25.85,7.5 50.63,18.26 74.44,32.37 23.73,14.02 45.58,31.31 65.56,52.18 20.06,20.96 36.37,43.54 49.33,67.92 12.96,24.38 22.58,49.58 28.7,75.5 6.2,25.93 8.81,52.35 8.15,79.17 -0.81,26.91 -4.73,53.33 -12.07,79.09 -7.42,25.93 -18.18,50.71 -32.37,74.44 -14.27,23.81 -31.72,45.58 -52.35,65.31 -20.96,20.06 -43.54,36.53 -67.76,49.58 -24.38,13.13 -49.49,22.67 -75.67,28.94 -26.09,6.12 -52.67,8.97 -79.42,8.32 -26.74,-0.57 -53,-4.48 -78.76,-11.66 -25.85,-7.09 -50.63,-17.86 -74.28,-31.96 -23.65,-14.1 -45.42,-31.56 -65.39,-52.43l-0.08 0z"/>
   </g>
  </g>
 </g>
</svg>
