<?xml version="1.0" encoding="UTF-8"?>
<!DOCTYPE svg PUBLIC "-//W3C//DTD SVG 1.1//EN" "http://www.w3.org/Graphics/SVG/1.1/DTD/svg11.dtd">
<!-- Creator: CorelDRAW 2020 (64 Bit) -->
<svg xmlns="http://www.w3.org/2000/svg" xml:space="preserve" width="237.997mm" height="249.767mm" version="1.1" style="shape-rendering:geometricPrecision; text-rendering:geometricPrecision; image-rendering:optimizeQuality; fill-rule:evenodd; clip-rule:evenodd"
viewBox="0 0 2098.45 2202.23"
 xmlns:xlink="http://www.w3.org/1999/xlink"
 xmlns:xodm="http://www.corel.com/coreldraw/odm/2003">
 <defs>
  <style type="text/css">
   <![CDATA[
    .fil2 {fill:none}
    .fil0 {fill:#0E4679}
    .fil1 {fill:white}
    .fil3 {fill:white;fill-rule:nonzero}
   ]]>
  </style>
    <clipPath id="id0">
     <path d="M162.15 513.26c29.59,252.53 111.76,509.91 229.88,732.94 102.45,193.43 229.49,379.57 376.45,541.95 75.12,83.01 179.77,186.5 280.74,245.47 100.97,-58.98 205.62,-162.46 280.74,-245.47 146.96,-162.38 274,-348.52 376.45,-541.95 118.12,-223.03 200.29,-480.4 229.88,-732.94 -314.31,-51.73 -619.93,-152.17 -887.07,-328.09 -267.14,175.92 -572.77,276.37 -887.07,328.09z"/>
    </clipPath>
 </defs>
 <g id="Camada_x0020_1">
  <metadata id="CorelCorpID_0Corel-Layer"/>
  <g id="_1928843109184">
   <path class="fil0" d="M1049.23 0c-283.09,212.66 -637.57,334.34 -1049.23,383.17 11.92,299.58 101.13,637.48 258.14,933.93 230.99,436.13 566.66,796.03 791.08,885.13 224.42,-89.1 560.09,-448.99 791.08,-885.13 157.01,-296.45 246.22,-634.35 258.14,-933.93 -411.65,-48.84 -766.14,-170.52 -1049.23,-383.17z"/>
   <path class="fil1" d="M1049.23 2096.39c116.04,-59.26 240.75,-181.98 321.57,-271.29 149.16,-164.82 280.32,-356.84 384.29,-553.13 128.55,-242.71 216.72,-528.11 241.35,-805.07 -336.96,-49.64 -665.42,-154.04 -947.21,-348.13 -281.79,194.08 -610.25,298.48 -947.21,348.13 24.63,276.96 112.8,562.36 241.35,805.07 103.96,196.29 235.12,388.31 384.29,553.13 80.82,89.31 205.54,212.03 321.57,271.29z"/>
   <path class="fil0" d="M162.15 513.26c29.59,252.53 111.76,509.91 229.88,732.94 102.45,193.43 229.49,379.57 376.45,541.95 75.12,83.01 179.77,186.5 280.74,245.47 100.97,-58.98 205.62,-162.46 280.74,-245.47 146.96,-162.38 274,-348.52 376.45,-541.95 118.12,-223.03 200.29,-480.4 229.88,-732.94 -314.31,-51.73 -619.93,-152.17 -887.07,-328.09 -267.14,175.92 -572.77,276.37 -887.07,328.09z"/>
   <g style="clip-path:url(#id0)">
    <g>
     <g>
      <rect class="fil1" x="327.98" y="361.75" width="206.07" height="206.07"/>
      <rect class="fil1" x="740.12" y="361.75" width="206.07" height="206.07"/>
      <rect class="fil1" x="1152.26" y="361.75" width="206.07" height="206.07"/>
      <rect class="fil1" x="1564.4" y="361.75" width="206.07" height="206.07"/>
      <rect class="fil1" x="534.05" y="155.68" width="206.07" height="206.07"/>
      <rect class="fil1" x="946.19" y="155.68" width="206.07" height="206.07"/>
      <rect class="fil1" x="1358.33" y="155.68" width="206.07" height="206.07"/>
     </g>
     <rect class="fil1" x="946.19" y="1795.51" width="206.07" height="206.07"/>
     <rect class="fil1" x="740.12" y="1589.44" width="206.07" height="206.07"/>
     <rect class="fil1" x="1152.26" y="1589.44" width="206.07" height="206.07"/>
    </g>
   </g>
   <path class="fil2" d="M162.15 513.26c29.59,252.53 111.76,509.91 229.88,732.94 102.45,193.43 229.49,379.57 376.45,541.95 75.12,83.01 179.77,186.5 280.74,245.47 100.97,-58.98 205.62,-162.46 280.74,-245.47 146.96,-162.38 274,-348.52 376.45,-541.95 118.12,-223.03 200.29,-480.4 229.88,-732.94 -314.31,-51.73 -619.93,-152.17 -887.07,-328.09 -267.14,175.92 -572.77,276.37 -887.07,328.09z"/>
   <path class="fil3" d="M617.53 1423.94l0 -95.76 46.88 0 0 16.18 -33.06 0 0 22.74 28.59 0 0 16.18 -28.59 0 0 40.66 -13.82 0zm96.44 0l0 -95.76 29.01 0c7.29,0 12.59,0.87 15.9,2.59 3.32,1.72 5.96,4.77 7.94,9.16 1.98,4.41 2.99,9.43 2.99,15.09 0,7.2 -1.49,13.13 -4.49,17.81 -3,4.68 -7.48,7.62 -13.45,8.85 2.97,2.43 5.42,5.1 7.34,8.02 1.94,2.92 4.54,8.11 7.81,15.56l8.32 18.68 -16.47 0 -9.88 -20.91c-3.54,-7.42 -5.97,-12.1 -7.29,-14.04 -1.3,-1.92 -2.68,-3.25 -4.14,-3.97 -1.48,-0.71 -3.8,-1.07 -6.97,-1.07l-2.8 0 0 39.99 -13.82 0zm13.82 -55.24l10.2 0c6.61,0 10.72,-0.4 12.37,-1.18 1.64,-0.78 2.94,-2.14 3.86,-4.06 0.94,-1.92 1.4,-4.32 1.4,-7.2 0,-3.23 -0.62,-5.82 -1.84,-7.82 -1.22,-1.98 -2.95,-3.23 -5.18,-3.75 -1.13,-0.22 -4.48,-0.33 -10.05,-0.33l-10.75 0 0 24.34zm154.69 55.24l-14.88 0 -5.89 -21.8 -27.36 0 -5.67 21.8 -14.61 0 26.49 -95.76 14.6 0 27.33 95.76zm-25.25 -37.98l-9.48 -35.44 -9.21 35.44 18.69 0zm70.84 37.98l0 -95.76 13.37 0 28.08 64.18 0 -64.18 12.77 0 0 95.76 -13.8 0 -27.65 -62.95 0 62.95 -12.77 0zm150.69 -35.31l13.34 5.75c-2.05,10.54 -5.46,18.37 -10.23,23.5 -4.76,5.1 -10.8,7.67 -18.12,7.67 -9.07,0 -16.52,-4.35 -22.36,-13.04 -5.83,-8.69 -8.75,-20.57 -8.75,-35.67 0,-15.94 2.94,-28.33 8.8,-37.16 5.86,-8.83 13.58,-13.24 23.14,-13.24 8.35,0 15.13,3.48 20.34,10.41 3.11,4.1 5.43,9.99 6.99,17.68l-13.63 4.55c-0.81,-4.95 -2.49,-8.87 -5.05,-11.75 -2.57,-2.88 -5.69,-4.3 -9.34,-4.3 -5.07,0 -9.18,2.54 -12.32,7.65 -3.16,5.08 -4.73,13.33 -4.73,24.74 0,12.08 1.56,20.71 4.65,25.84 3.11,5.15 7.15,7.71 12.12,7.71 3.67,0 6.83,-1.63 9.47,-4.9 2.64,-3.28 4.54,-8.4 5.69,-15.42zm62.93 35.31l0 -95.76 13.82 0 0 95.76 -13.82 0zm61.57 -31.03l13.44 -1.87c0.81,6.31 2.43,10.92 4.89,13.89 2.46,2.97 5.78,4.44 9.96,4.44 4.41,0 7.75,-1.31 9.99,-3.95 2.24,-2.63 3.37,-5.71 3.37,-9.23 0,-2.27 -0.48,-4.19 -1.41,-5.8 -0.94,-1.58 -2.59,-2.97 -4.94,-4.12 -1.6,-0.8 -5.26,-2.18 -10.97,-4.19 -7.35,-2.59 -12.51,-5.75 -15.48,-9.52 -4.18,-5.28 -6.26,-11.73 -6.26,-19.33 0,-4.88 0.98,-9.47 2.94,-13.73 1.97,-4.26 4.8,-7.49 8.5,-9.72 3.7,-2.23 8.15,-3.34 13.39,-3.34 8.53,0 14.96,2.65 19.26,7.98 4.32,5.33 6.58,12.42 6.8,21.31l-13.82 0.67c-0.59,-4.95 -1.84,-8.49 -3.76,-10.65 -1.92,-2.16 -4.81,-3.25 -8.65,-3.25 -3.97,0 -7.08,1.16 -9.32,3.48 -1.45,1.49 -2.18,3.48 -2.18,5.97 0,2.27 0.68,4.21 2.05,5.82 1.73,2.07 5.94,4.21 12.62,6.44 6.69,2.21 11.63,4.53 14.82,6.89 3.21,2.39 5.72,5.62 7.53,9.74 1.81,4.12 2.72,9.21 2.72,15.25 0,5.48 -1.08,10.63 -3.26,15.42 -2.18,4.79 -5.24,8.36 -9.21,10.68 -3.97,2.34 -8.93,3.5 -14.85,3.5 -8.62,0 -15.25,-2.79 -19.87,-8.38 -4.62,-5.57 -7.37,-13.71 -8.27,-24.39zm149.06 -4.28l13.34 5.75c-2.05,10.54 -5.46,18.37 -10.23,23.5 -4.76,5.1 -10.8,7.67 -18.12,7.67 -9.07,0 -16.52,-4.35 -22.36,-13.04 -5.83,-8.69 -8.75,-20.57 -8.75,-35.67 0,-15.94 2.94,-28.33 8.8,-37.16 5.86,-8.83 13.58,-13.24 23.14,-13.24 8.35,0 15.13,3.48 20.34,10.41 3.11,4.1 5.43,9.99 6.99,17.68l-13.63 4.55c-0.81,-4.95 -2.49,-8.87 -5.05,-11.75 -2.57,-2.88 -5.69,-4.3 -9.34,-4.3 -5.07,0 -9.18,2.54 -12.32,7.65 -3.16,5.08 -4.73,13.33 -4.73,24.74 0,12.08 1.56,20.71 4.65,25.84 3.11,5.15 7.15,7.71 12.12,7.71 3.67,0 6.83,-1.63 9.47,-4.9 2.64,-3.28 4.54,-8.4 5.69,-15.42zm60.55 -11.99c0,-9.76 1.05,-17.97 3.13,-24.61 1.54,-4.88 3.67,-9.27 6.35,-13.15 2.68,-3.88 5.62,-6.75 8.81,-8.65 4.26,-2.52 9.16,-3.79 14.72,-3.79 10.07,0 18.1,4.39 24.16,13.15 6.03,8.78 9.05,20.98 9.05,36.6 0,15.49 -3,27.62 -8.99,36.36 -5.99,8.76 -14.01,13.13 -24.03,13.13 -10.15,0 -18.23,-4.35 -24.22,-13.06 -5.99,-8.69 -8.99,-20.69 -8.99,-35.98zm14.2 -0.65c0,10.86 1.79,19.08 5.37,24.7 3.57,5.59 8.12,8.4 13.61,8.4 5.51,0 10.02,-2.79 13.56,-8.34 3.53,-5.57 5.29,-13.91 5.29,-25.03 0,-10.99 -1.72,-19.19 -5.16,-24.59 -3.43,-5.42 -7.99,-8.11 -13.69,-8.11 -5.69,0 -10.28,2.74 -13.75,8.2 -3.48,5.48 -5.22,13.73 -5.22,24.76z"/>
   <path class="fil3" d="M710.84 1446.37l29.51 0c5.86,0 10.2,0.31 13.07,0.94 2.89,0.65 5.45,1.96 7.71,3.95 2.27,2.01 4.16,4.66 5.67,7.98 1.51,3.32 2.27,7.07 2.27,11.19 0,4.46 -0.93,8.58 -2.78,12.31 -1.86,3.74 -4.38,6.53 -7.56,8.4 4.48,1.72 7.92,4.61 10.34,8.72 2.41,4.1 3.61,8.92 3.61,14.47 0,4.37 -0.77,8.6 -2.34,12.73 -1.56,4.12 -3.69,7.42 -6.41,9.9 -2.7,2.45 -6.03,3.97 -10,4.55 -2.47,0.33 -8.47,0.56 -17.97,0.65l-25.13 0 0 -95.76zm14.95 15.92l0 22.07 9.76 0c5.79,0 9.4,-0.11 10.81,-0.33 2.54,-0.38 4.55,-1.52 6.01,-3.41 1.46,-1.89 2.18,-4.37 2.18,-7.45 0,-2.96 -0.64,-5.35 -1.89,-7.2 -1.25,-1.85 -3.13,-2.96 -5.6,-3.34 -1.48,-0.22 -5.72,-0.33 -12.71,-0.33l-8.56 0zm0 37.98l0 25.68 13.81 0c5.36,0 8.78,-0.2 10.22,-0.58 2.22,-0.54 4.02,-1.81 5.41,-3.83 1.39,-2.05 2.09,-4.75 2.09,-8.16 0,-2.9 -0.53,-5.33 -1.61,-7.33 -1.07,-2.01 -2.63,-3.48 -4.66,-4.39 -2.03,-0.91 -6.44,-1.38 -13.23,-1.38l-12.04 0zm92.55 41.86l0 -95.76 54.63 0 0 16.18 -39.68 0 0 21.27 36.9 0 0 16.18 -36.9 0 0 25.95 41.12 0 0 16.18 -56.07 0zm102.23 0l0 -94.96 14.95 0 0 78.78 37 0 0 16.18 -51.95 0zm104.56 0l0 -79.58 -21.85 0 0 -16.18 58.54 0 0 16.18 -21.75 0 0 79.58 -14.94 0zm79.43 0l0 -95.76 31.38 0c7.89,0 13.62,0.87 17.2,2.59 3.59,1.72 6.44,4.77 8.59,9.16 2.15,4.41 3.23,9.43 3.23,15.09 0,7.2 -1.62,13.13 -4.86,17.81 -3.25,4.68 -8.09,7.62 -14.55,8.85 3.21,2.43 5.86,5.1 7.94,8.02 2.1,2.92 4.91,8.11 8.45,15.56l9 18.68 -17.81 0 -10.68 -20.91c-3.83,-7.42 -6.46,-12.1 -7.89,-14.04 -1.41,-1.92 -2.9,-3.25 -4.48,-3.97 -1.6,-0.71 -4.11,-1.07 -7.54,-1.07l-3.02 0 0 39.99 -14.95 0zm14.95 -55.24l11.03 0c7.15,0 11.6,-0.4 13.38,-1.18 1.77,-0.78 3.18,-2.14 4.17,-4.06 1.01,-1.92 1.51,-4.32 1.51,-7.2 0,-3.23 -0.67,-5.82 -1.99,-7.82 -1.32,-1.98 -3.2,-3.23 -5.6,-3.75 -1.22,-0.22 -4.84,-0.33 -10.87,-0.33l-11.63 0 0 24.34zm159.03 55.24l-16.1 0 -6.37 -21.8 -29.6 0 -6.13 21.8 -15.8 0 28.65 -95.76 15.79 0 29.56 95.76zm-27.31 -37.98l-10.26 -35.44 -9.96 35.44 20.22 0zm-20.3 -66.34l-6.49 0c-0.03,-1 -0.05,-1.78 -0.05,-2.34 0,-4.57 0.86,-8.09 2.58,-10.54 1.7,-2.47 3.92,-3.7 6.6,-3.7 1.19,0 2.27,0.16 3.28,0.49 1.01,0.33 2.85,1.27 5.51,2.81 2.68,1.54 4.76,2.32 6.29,2.32 1.06,0 1.96,-0.45 2.68,-1.32 0.74,-0.89 1.19,-2.36 1.39,-4.44l6.49 0c-0.04,5.95 -0.88,10.19 -2.53,12.75 -1.67,2.56 -3.8,3.83 -6.41,3.83 -1.15,0 -2.27,-0.16 -3.37,-0.47 -0.77,-0.27 -2.7,-1.2 -5.77,-2.79 -3.09,-1.58 -5.33,-2.36 -6.73,-2.36 -1.08,0 -1.91,0.42 -2.51,1.29 -0.62,0.85 -0.93,2.34 -0.96,4.46zm85.55 57.02c0,-9.76 1.13,-17.97 3.38,-24.61 1.67,-4.88 3.97,-9.27 6.87,-13.15 2.9,-3.88 6.08,-6.75 9.53,-8.65 4.6,-2.52 9.91,-3.79 15.92,-3.79 10.89,0 19.58,4.39 26.13,13.15 6.53,8.78 9.79,20.98 9.79,36.6 0,15.49 -3.25,27.62 -9.72,36.36 -6.48,8.76 -15.15,13.13 -25.99,13.13 -10.98,0 -19.72,-4.35 -26.2,-13.06 -6.48,-8.69 -9.72,-20.69 -9.72,-35.98zm15.36 -0.65c0,10.86 1.94,19.08 5.81,24.7 3.87,5.59 8.78,8.4 14.72,8.4 5.96,0 10.84,-2.79 14.67,-8.34 3.81,-5.57 5.72,-13.91 5.72,-25.03 0,-10.99 -1.86,-19.19 -5.58,-24.59 -3.71,-5.42 -8.64,-8.11 -14.81,-8.11 -6.15,0 -11.11,2.74 -14.88,8.2 -3.76,5.48 -5.65,13.73 -5.65,24.76z"/>
   <path class="fil1" d="M450.73 643.4c55.88,-0.39 162.54,-0.65 216.01,-0.84 53.46,-0.19 53.72,-0.32 54.89,0 1.17,0.32 3.24,1.1 5.12,2.07 1.88,0.97 3.56,2.14 4.79,3.89 1.23,1.75 2.01,4.08 3.76,22.42 1.75,18.34 4.47,52.68 5.64,70.83 1.17,18.14 0.78,20.09 -0.26,21.84 -1.04,1.75 -2.72,3.3 -5.05,4.47 -2.33,1.17 -5.31,1.94 -7.97,2.27 -2.66,0.32 -4.99,0.19 -50.16,0.06 -45.17,-0.13 -133.17,-0.26 -177.43,-0.32 -44.26,-0.07 -44.78,-0.07 -45.43,0.65 -0.65,0.71 -1.43,2.14 -1.49,4.15 -0.06,2.01 0.58,4.6 22.57,65.25 21.98,60.65 65.3,179.37 87.28,239.57 21.98,60.2 22.63,61.89 23.41,63.28 0.78,1.39 1.68,2.5 3.24,3.34 1.56,0.84 3.76,1.43 37.68,1.56 33.92,0.13 99.57,-0.19 132.94,-0.32 33.37,-0.13 34.48,-0.06 36.16,0.49 1.68,0.55 3.95,1.59 5.83,2.98 1.88,1.39 3.37,3.14 4.54,5.67 1.17,2.53 2.01,5.83 5.67,23.26 3.66,17.43 10.14,48.99 13.48,65.16 3.34,16.17 3.53,16.95 3.4,18.66 -0.13,1.72 -0.58,4.37 -1.65,6.25 -1.07,1.88 -2.75,2.98 -5.38,3.6 -2.62,0.62 -6.19,0.75 -9.17,0.75 -2.98,0 -5.38,-0.13 -6.58,-0.19 -1.2,-0.07 -1.2,-0.07 -38.52,-0.1 -37.33,-0.03 -111.98,-0.1 -152.29,0 -40.31,0.1 -46.27,0.36 -54.95,-0.42 -8.68,-0.78 -20.09,-2.59 -32.08,-5.77 -11.99,-3.18 -24.56,-7.71 -36.81,-14.19 -12.25,-6.48 -24.17,-14.91 -33.37,-23.46 -9.2,-8.55 -15.68,-17.24 -21.71,-27.09 -6.03,-9.85 -11.6,-20.87 -16.85,-32.85 -5.25,-11.99 -10.17,-24.95 -30.85,-81.52 -20.67,-56.57 -57.1,-156.75 -78.74,-215.98 -21.65,-59.23 -28.51,-77.5 -32.21,-93.38 -3.69,-15.88 -4.21,-29.35 -2.79,-41.15 1.43,-11.79 4.79,-21.9 11.02,-32.01 6.22,-10.11 15.29,-20.22 26.05,-28.77 10.76,-8.55 23.2,-15.55 35.51,-20.74 12.31,-5.18 24.5,-8.55 33.13,-10.5 8.64,-1.95 13.73,-2.46 69.61,-2.85z"/>
   <path class="fil1" d="M835.02 642.01c11.15,-0.42 28.65,-0.16 98.96,-0.03 70.31,0.13 193.43,0.13 256.16,0.13 62.73,0 65.06,0 67.59,0.97 2.53,0.97 5.25,2.92 7,5.12 1.75,2.2 2.53,4.67 1.36,22.29 -1.17,17.63 -4.27,50.42 -6.28,68.37 -2.01,17.95 -2.91,21.06 -4.54,23.72 -1.62,2.66 -3.95,4.86 -8.17,6.09 -4.21,1.23 -10.3,1.49 -52.42,1.42 -42.12,-0.07 -120.27,-0.45 -159.87,-0.32 -39.59,0.13 -40.63,0.78 -41.15,2.66 -0.52,1.88 -0.52,4.99 -0.2,24.37 0.32,19.38 0.97,55.02 1.42,73.68 0.45,18.66 0.71,20.35 1.75,21.71 1.04,1.36 2.85,2.4 36.68,2.79 33.83,0.39 99.67,0.13 133.23,0 33.57,-0.13 34.86,-0.13 36.42,0.39 1.56,0.52 3.37,1.56 4.73,3.5 1.36,1.94 2.27,4.79 1.69,23.62 -0.58,18.82 -2.65,53.62 -4.21,72.25 -1.55,18.63 -2.59,21.09 -4.86,22.97 -2.27,1.88 -5.77,3.17 -9.01,3.76 -3.24,0.58 -6.22,0.45 -37.84,0.45 -31.62,0 -91.89,0.13 -122.02,0.19 -30.13,0.06 -30.13,0.06 -29.49,13.9 0.65,13.83 1.94,41.51 3.04,57.55 1.1,16.04 2.01,20.44 3.95,24.79 1.94,4.34 4.93,8.62 8.49,12.51 3.56,3.89 7.71,7.39 11.99,9.85 4.28,2.46 8.68,3.89 20.61,4.67 11.92,0.78 31.36,0.91 61.95,1.04 30.59,0.13 72.32,0.26 93.71,0.26 21.39,0 22.42,-0.13 23.72,0.26 1.3,0.39 2.85,1.3 4.21,3.05 1.36,1.75 2.53,4.34 2.92,7.13 0.39,2.79 0,5.77 -0.97,15.1 -0.97,9.33 -2.53,25.01 -3.82,39.92 -1.3,14.9 -2.33,29.03 -3.24,38.23 -0.91,9.2 -1.68,13.48 -3.56,16.65 -1.88,3.18 -4.86,5.25 -9.85,6.54 -4.99,1.3 -11.99,1.81 -51.71,1.75 -39.72,-0.07 -112.17,-0.71 -152.22,-1.49 -40.05,-0.78 -47.69,-1.68 -58.39,-4.8 -10.69,-3.11 -24.43,-8.42 -35.51,-14.84 -11.08,-6.42 -19.51,-13.93 -26.54,-22.58 -7.03,-8.65 -12.67,-18.44 -17.56,-27.7 -4.89,-9.27 -9.04,-18.02 -11.7,-26.25 -2.66,-8.23 -3.82,-15.94 -5.28,-26.6 -1.46,-10.66 -3.21,-24.27 -4.8,-41.18 -1.59,-16.91 -3.01,-37.13 -5.87,-67.91 -2.85,-30.78 -7.13,-72.12 -10.3,-106.92 -3.18,-34.8 -5.25,-63.05 -7.71,-88.32 -2.46,-25.27 -5.31,-47.56 -8.17,-74.39 -2.85,-26.83 -5.7,-58.19 -7.26,-76.21 -1.56,-18.02 -1.81,-22.68 -2.07,-27.35 -0.26,-4.67 -0.52,-9.33 0.19,-13.35 0.71,-4.02 2.4,-7.39 5.64,-9.62 3.24,-2.24 8.04,-3.34 19.19,-3.76z"/>
   <path class="fil1" d="M1406.31 643.13c27.04,-0.18 78.88,-0.31 105.65,-0.24 26.76,0.06 28.45,0.32 30.13,1.3 1.68,0.97 3.37,2.66 4.15,4.6 0.78,1.94 0.65,4.15 -0.19,10.3 -0.84,6.16 -2.4,16.27 -4.21,25.79 -1.81,9.53 -3.89,18.47 -5.83,27.86 -1.94,9.4 -3.76,19.25 -6.09,32.14 -2.33,12.9 -5.18,28.84 -16.46,85.34 -11.28,56.51 -30.97,153.58 -41.86,207.62 -10.89,54.04 -12.96,65.06 -14.19,73.49 -1.23,8.42 -1.62,14.26 -1.23,18.4 0.39,4.15 1.56,6.61 4.02,8.94 2.46,2.33 6.22,4.54 15.16,5.96 8.94,1.43 23.07,2.07 34.8,1.94 11.73,-0.13 21.06,-1.04 27.61,-2.33 6.54,-1.3 10.3,-2.98 13.35,-5.51 3.05,-2.53 5.38,-5.9 8.1,-10.76 2.72,-4.86 5.83,-11.21 26.02,-88.81 20.19,-77.6 57.45,-226.45 76.86,-302.82 19.41,-76.37 20.96,-80.26 23.49,-83.5 2.53,-3.24 6.03,-5.83 10.56,-7.52 4.54,-1.68 10.11,-2.46 36.16,-2.85 26.05,-0.39 72.58,-0.39 97.66,-0.13 25.08,0.26 28.71,0.78 31.2,2.07 2.5,1.3 3.86,3.37 4.47,5.9 0.62,2.53 0.49,5.51 -24.59,85.57 -25.08,80.06 -75.11,237.21 -101.29,318.76 -26.18,81.55 -28.51,87.51 -34.22,97.62 -5.7,10.11 -14.77,24.37 -25.08,37.39 -10.3,13.02 -21.84,24.82 -34.8,35.77 -12.96,10.95 -27.35,21.06 -40.24,28.64 -12.9,7.58 -24.3,12.63 -33.05,15.75 -8.75,3.11 -14.84,4.28 -44.71,4.79 -29.87,0.52 -83.53,0.39 -110.36,0.32 -26.83,-0.07 -26.83,-0.07 -32.6,-1.75 -5.77,-1.68 -17.3,-5.05 -27.61,-10.11 -10.3,-5.05 -19.38,-11.79 -27.87,-20.87 -8.49,-9.07 -16.39,-20.48 -22.1,-31.1 -5.7,-10.63 -9.2,-20.48 -11.66,-31.82 -2.46,-11.34 -3.89,-24.17 -3.11,-38.49 0.78,-14.32 3.76,-30.13 15.49,-109.39 11.73,-79.25 32.2,-221.95 42.9,-295.45 10.69,-73.5 11.6,-77.81 12.7,-80.92 1.1,-3.11 2.4,-5.02 4.33,-6.71 1.93,-1.68 4.49,-3.14 6.89,-3.98 2.4,-0.84 4.64,-1.07 31.68,-1.25z"/>
  </g>
 </g>
</svg>
