<?xml version="1.0" encoding="UTF-8"?>
<!DOCTYPE svg PUBLIC "-//W3C//DTD SVG 1.1//EN" "http://www.w3.org/Graphics/SVG/1.1/DTD/svg11.dtd">
<!-- Creator: CorelDRAW 2020 (64 Bit) -->
<svg xmlns="http://www.w3.org/2000/svg" xml:space="preserve" width="102.573mm" height="125.898mm" version="1.1" style="shape-rendering:geometricPrecision; text-rendering:geometricPrecision; image-rendering:optimizeQuality; fill-rule:evenodd; clip-rule:evenodd"
viewBox="0 0 611.01 749.95"
 xmlns:xlink="http://www.w3.org/1999/xlink"
 xmlns:xodm="http://www.corel.com/coreldraw/odm/2003">
 <defs>
  <style type="text/css">
   <![CDATA[
    .fil0 {fill:#FEFEFE}
    .fil1 {fill:#E0191E}
    .fil2 {fill:#E0191E}
    .fil3 {fill:#FEFEFE;fill-rule:nonzero}
   ]]>
  </style>
 </defs>
 <g id="Camada_x0020_1">
  <metadata id="CorelCorpID_0Corel-Layer"/>
  <g id="_2894439245120">
   <path class="fil0" d="M305.51 0c-78.95,107.01 -178.04,145.38 -305.51,132.26 21.32,55.71 36.47,113.02 38.87,173.63 -0.96,72.28 -41.2,127.29 -33.1,192.81 11.12,89.87 90.63,127.44 125.3,134.61 53.38,11.03 125.76,19.11 174.43,116.64 48.68,-97.54 121.05,-105.61 174.43,-116.64 34.66,-7.16 114.18,-44.74 125.3,-134.61 8.1,-65.52 -32.14,-120.52 -33.1,-192.81 2.41,-60.61 17.55,-117.92 38.87,-173.63 -127.46,13.12 -226.55,-25.25 -305.51,-132.26z"/>
   <path class="fil1" d="M305.51 21.71c-74.57,93.39 -167.86,132.51 -285.95,125.41 18.06,51.16 30.36,103.61 32.53,158.25l0.01 0.35 -0 0.35c-0.38,28.15 -6.45,54.44 -14.22,81.31 -6.67,23.07 -14.6,46.42 -18.13,70.22 -1.95,13.14 -2.48,26.26 -0.84,39.47 4.47,36.1 21.47,66.5 49.21,89.82 17.64,14.83 42.85,28.75 65.65,33.46 32.59,6.73 62.03,11.75 92.27,27.03 34.44,17.4 59.97,43.44 79.49,75.27 19.52,-31.83 45.05,-57.87 79.49,-75.27 30.23,-15.28 59.68,-20.29 92.27,-27.03 22.79,-4.71 48,-18.63 65.65,-33.46 27.74,-23.32 44.74,-53.72 49.21,-89.82 1.63,-13.21 1.11,-26.33 -0.84,-39.47 -3.54,-23.8 -11.46,-47.15 -18.13,-70.22 -7.77,-26.87 -13.84,-53.17 -14.22,-81.31l-0 -0.35 0.01 -0.35c2.17,-54.64 14.47,-107.09 32.53,-158.25 -118.09,7.1 -211.39,-32.02 -285.95,-125.41z"/>
   <path class="fil0" d="M568.53 164.22c-105.98,0.85 -192.73,-36.8 -263.03,-117.09 -70.3,80.29 -157.05,117.94 -263.03,117.09 14.45,45.64 24.02,92.39 25.9,140.51l0.03 0.78 -0.01 0.78c-0.4,29.53 -6.7,57.4 -14.86,85.62 -6.47,22.36 -14.24,45.02 -17.67,68.09 -1.73,11.64 -2.24,23.37 -0.79,35.08 3.95,31.97 18.91,58.66 43.52,79.34 15.64,13.14 38.34,25.82 58.45,29.98 33.93,7.01 64.96,12.6 96.32,28.44 29.25,14.78 52.91,35.47 72.14,60.89 19.22,-25.41 42.89,-46.11 72.14,-60.89 31.36,-15.85 62.39,-21.43 96.32,-28.44 20.11,-4.16 42.82,-16.83 58.45,-29.98 24.6,-20.68 39.56,-47.37 43.52,-79.34 1.45,-11.71 0.94,-23.43 -0.79,-35.08 -3.43,-23.06 -11.2,-45.73 -17.67,-68.09 -8.16,-28.22 -14.46,-56.1 -14.86,-85.62l-0.01 -0.78 0.03 -0.78c1.88,-48.12 11.45,-94.87 25.9,-140.51z"/>
   <path class="fil2" d="M548.84 178.64c-96.18,-3.58 -176.86,-39.43 -243.34,-109.66 -66.47,70.24 -147.16,106.08 -243.34,109.66 11.66,40.95 19.24,82.82 20.9,125.52l0.05 1.17 -0.02 1.17c-0.42,30.77 -6.93,60.08 -15.44,89.51 -6.29,21.73 -13.92,43.75 -17.25,66.16 -1.53,10.3 -2.02,20.75 -0.74,31.11 3.5,28.28 16.63,51.6 38.38,69.89 13.78,11.59 34.24,23.17 51.97,26.83 35.07,7.25 67.61,13.36 99.98,29.72 25.3,12.78 47.03,29.89 65.5,50.79 18.47,-20.9 40.21,-38.01 65.5,-50.79 32.37,-16.36 64.91,-22.47 99.98,-29.72 17.73,-3.66 38.19,-15.25 51.97,-26.83 21.76,-18.29 34.89,-41.61 38.38,-69.89 1.28,-10.36 0.79,-20.81 -0.74,-31.11 -3.33,-22.42 -10.96,-44.43 -17.25,-66.16 -8.51,-29.42 -15.01,-58.73 -15.44,-89.51l-0.02 -1.17 0.05 -1.17c1.66,-42.69 9.24,-84.57 20.9,-125.52z"/>
   <path class="fil0" d="M85.64 228.93c2.2,0.4 6.4,1.19 11.18,1.41 4.77,0.22 10.11,-0.13 15.06,-0.74 4.95,-0.61 9.5,-1.49 14.08,-2.96 4.57,-1.47 9.17,-3.52 13.05,-5.34 3.87,-1.82 7.03,-3.39 10.49,-4.53 3.46,-1.14 7.22,-1.84 11.27,-1.86 4.05,-0.02 8.38,0.63 12.02,1.53 3.63,0.9 6.57,2.04 9.92,3.98 3.35,1.95 7.11,4.71 9,6.09 1.88,1.38 1.88,1.38 1.88,1.38 0,0 0,0 -1.73,0.04 -1.73,0.04 -5.19,0.13 -8.89,0.68 -3.7,0.55 -7.64,1.55 -10.9,3.13 -3.26,1.58 -5.84,3.72 -7.81,5.82 -1.97,2.1 -3.33,4.16 -4.16,6.02 -0.83,1.86 -1.14,3.52 -1.29,6.08 -0.15,2.56 -0.15,6.02 -0.18,17.12 -0.02,11.1 -0.07,29.84 -0.09,43.21 -0.02,13.37 -0.02,21.39 -0.04,34.44 -0.02,13.06 -0.07,31.16 0.04,42.39 0.11,11.23 0.37,15.59 1.09,19.78 0.72,4.19 1.9,8.22 3.68,12.33 1.77,4.12 4.14,8.32 6.74,11.71 2.6,3.39 5.45,5.98 8.8,8.52 3.35,2.54 7.2,5.04 11.47,6.92 4.27,1.88 8.95,3.15 13.57,3.85 4.62,0.7 9.17,0.83 14.38,0.85 5.21,0.02 11.08,-0.07 16.2,-0.61 5.12,-0.55 9.5,-1.55 13.81,-3.17 4.31,-1.62 8.56,-3.85 12.37,-6.44 3.81,-2.58 7.18,-5.52 10.07,-8.84 2.89,-3.33 5.3,-7.05 7.27,-10.68 1.97,-3.63 3.5,-7.18 4.7,-10.39 1.19,-3.21 2.05,-6.07 2.69,-8.76 0.65,-2.68 1.08,-5.18 1.41,-8.46 0.33,-3.28 0.55,-7.35 0.55,-14.27 0,-6.92 -0.22,-16.68 -0.28,-26.77 -0.06,-10.09 0.02,-20.51 0.02,-27.74 0,-7.22 -0.09,-11.25 -0.13,-13.27 -0.04,-2.01 -0.04,-2.01 3.02,-2.06 3.06,-0.04 9.19,-0.13 12.26,-0.18 3.06,-0.04 3.06,-0.04 3.06,5.87 0,5.91 0,17.73 0,28.94 0,11.21 0,21.8 0.09,30.08 0.09,8.27 0.26,14.23 0.04,18.91 -0.22,4.69 -0.83,8.1 -1.84,12.57 -1.01,4.47 -2.41,9.98 -4.16,15.1 -1.75,5.12 -3.85,9.85 -6.22,13.88 -2.36,4.03 -4.99,7.36 -8.25,10.88 -3.26,3.52 -7.16,7.25 -11.27,10.4 -4.11,3.15 -8.45,5.74 -13.81,7.92 -5.36,2.19 -11.76,3.98 -17.84,5.41 -6.08,1.42 -11.86,2.47 -18.41,2.95 -6.54,0.48 -13.86,0.39 -20.82,0 -6.96,-0.39 -13.57,-1.09 -20.25,-2.45 -6.68,-1.36 -13.42,-3.37 -19.5,-5.89 -6.08,-2.52 -11.51,-5.54 -16.26,-9.08 -4.75,-3.55 -8.82,-7.62 -12.26,-12.02 -3.44,-4.4 -6.24,-9.13 -8.65,-14.08 -2.41,-4.95 -4.42,-10.11 -5.71,-16.05 -1.29,-5.93 -1.86,-12.63 -2.1,-19.24 -0.24,-6.61 -0.15,-13.13 -0.05,-19.81 0.11,-6.68 0.24,-13.51 0.28,-22 0.04,-8.49 -0,-18.65 -0.07,-25.55 -0.07,-6.9 -0.15,-10.53 -0.28,-17.4 -0.13,-6.87 -0.31,-16.99 -0.26,-24.8 0.04,-7.82 0.31,-13.33 0.33,-17.16 0.02,-3.83 -0.2,-5.98 -0.85,-8.01 -0.66,-2.04 -1.75,-3.96 -3.15,-5.54 -1.4,-1.58 -3.11,-2.8 -5.41,-3.79 -2.3,-0.99 -5.19,-1.73 -7.62,-2.58 -2.43,-0.85 -4.4,-1.82 -6.35,-3.35 -1.95,-1.53 -3.87,-3.63 -5.63,-5.84 -1.75,-2.21 -3.33,-4.53 -4.22,-5.89 -0.89,-1.36 -1.1,-1.77 -1.28,-2.11 -0.18,-0.34 -0.32,-0.63 -0.29,-0.77 0.03,-0.14 0.22,-0.13 2.42,0.27zm305.43 -59.91c-0.31,1 -1.32,3.06 -3.18,5.6 -1.86,2.54 -4.58,5.56 -8.34,8.62 -3.77,3.06 -8.58,6.17 -14.05,8.73 -5.47,2.56 -11.6,4.57 -18.02,6.02 -6.41,1.44 -13.11,2.32 -20.01,2.36 -6.9,0.04 -13.99,-0.74 -21.04,-1.36 -7.05,-0.61 -14.05,-1.05 -20.25,-1.25 -6.19,-0.2 -11.58,-0.15 -15.83,0.24 -4.25,0.39 -7.36,1.14 -8.91,1.51 -1.55,0.37 -1.55,0.37 -1.64,2.15 -0.09,1.77 -0.26,5.32 -0.29,9.74 -0.02,4.42 0.11,9.72 0.17,12.37 0.07,2.65 0.07,2.65 -2.78,2.21 -2.85,-0.44 -8.54,-1.31 -12.52,-2.45 -3.98,-1.14 -6.26,-2.54 -8.71,-4.2 -2.45,-1.66 -5.08,-3.59 -6.39,-4.57 -1.31,-0.99 -1.31,-1.03 -0.77,0.83 0.55,1.86 1.64,5.63 2.87,9.33 1.23,3.7 2.58,7.33 4.38,10.64 1.79,3.3 4.02,6.28 6.63,8.71 2.6,2.43 5.58,4.31 8.82,5.71 3.24,1.4 6.74,2.32 8.49,2.78 1.75,0.46 1.75,0.46 1.69,9.43 -0.07,8.97 -0.2,26.92 -0.26,35.9 -0.07,8.97 -0.07,8.97 -0.59,10.01 -0.53,1.04 -1.58,3.12 -2.28,5.23 -0.7,2.11 -1.05,4.26 -1.23,5.33 -0.18,1.07 -0.18,1.07 0.57,0.77 0.74,-0.31 2.23,-0.92 2.98,-1.23 0.74,-0.31 0.74,-0.31 0.77,3.17 0.02,3.48 0.06,10.44 0.06,23.12 -0,12.67 -0.05,31.06 -0.07,40.26 -0.02,9.19 -0.02,9.19 3.48,9.15 3.5,-0.04 10.51,-0.13 14.01,-0.18 3.5,-0.04 3.5,-0.04 2.96,2.23 -0.55,2.28 -1.64,6.83 -2.98,11.1 -1.34,4.27 -2.91,8.25 -4.29,11.43 -1.38,3.17 -2.56,5.54 -3.15,6.72 -0.59,1.18 -0.59,1.18 -3.44,1.2 -2.85,0.02 -8.54,0.07 -14.58,0.48 -6.04,0.42 -12.43,1.2 -19.48,2.74 -7.05,1.53 -14.75,3.81 -21.15,6.13 -6.39,2.32 -11.47,4.68 -14.01,5.91 -2.54,1.23 -2.54,1.31 -2.23,-0.79 0.31,-2.1 0.92,-6.39 2.36,-11.21 1.45,-4.82 3.72,-10.16 6.7,-14.84 2.98,-4.68 6.65,-8.71 9.5,-11.6 2.85,-2.89 4.86,-4.64 5.87,-5.52 1.01,-0.88 1.01,-0.88 0.83,-11.91 -0.18,-11.03 -0.53,-33.1 -0.61,-59.89 -0.09,-26.79 0.09,-58.32 0.24,-79.69 0.15,-21.38 0.28,-32.61 0.35,-38.22 0.07,-5.61 0.07,-5.61 -0.72,-5.55 -0.79,0.07 -2.37,0.2 -5.08,1.09 -2.71,0.9 -6.57,2.56 -9.92,4.33 -3.35,1.77 -6.2,3.66 -7.64,4.53 -1.45,0.88 -1.49,0.74 -1.03,-1.23 0.46,-1.97 1.42,-5.78 2.95,-9.7 1.53,-3.92 3.63,-7.95 6.39,-11.75 2.76,-3.81 6.17,-7.4 10.67,-10.83 4.5,-3.43 10.08,-6.69 15.91,-9.08 5.83,-2.4 11.92,-3.93 19.01,-4.76 7.09,-0.83 15.19,-0.96 22.61,-0.48 7.42,0.48 14.16,1.58 21.39,2.91 7.22,1.33 14.93,2.91 22.55,4.09 7.62,1.18 15.15,1.97 23.03,2.17 7.88,0.2 16.11,-0.2 23.29,-0.92 7.18,-0.72 13.31,-1.77 17.38,-2.61 4.07,-0.84 6.09,-1.46 7.29,-1.8 1.2,-0.34 1.58,-0.39 1.27,0.61zm115.93 254.06c-0.12,5.86 -0.38,17.59 -0.51,23.46 -0.13,5.87 -0.13,5.87 -2.5,6.9 -2.36,1.03 -7.09,3.09 -13.59,5.17 -6.5,2.08 -14.78,4.18 -23.18,5.56 -8.41,1.38 -16.94,2.04 -24.82,2.1 -7.88,0.07 -15.1,-0.46 -22.37,-1.6 -7.27,-1.14 -14.58,-2.89 -21.39,-5.34 -6.81,-2.45 -13.11,-5.6 -19.07,-9.5 -5.95,-3.9 -11.56,-8.54 -16.15,-13.05 -4.6,-4.51 -8.19,-8.89 -11.73,-14.23 -3.55,-5.34 -7.05,-11.65 -10.29,-19.04 -3.24,-7.4 -6.22,-15.89 -8.36,-24.21 -2.15,-8.32 -3.46,-16.46 -4.33,-24.43 -0.88,-7.97 -1.31,-15.76 -1.23,-21.85 0.09,-6.09 0.7,-10.46 1.15,-13.55 0.45,-3.09 0.75,-4.88 0.9,-5.78 0.15,-0.9 0.15,-0.9 1.28,-1.01 1.13,-0.11 3.4,-0.33 5.87,-0.7 2.47,-0.37 5.14,-0.9 7.81,-1.82 2.67,-0.92 5.34,-2.23 7.86,-3.81 2.52,-1.58 4.88,-3.41 6.79,-5.21 1.9,-1.8 3.35,-3.55 4.68,-5.25 1.34,-1.71 2.56,-3.37 3.59,-5.17 1.03,-1.8 1.86,-3.72 2.78,-6.04 0.92,-2.32 1.93,-5.03 2.43,-6.39 0.5,-1.36 0.5,-1.36 -0.61,-0.81 -1.12,0.55 -3.35,1.64 -6.5,2.82 -3.15,1.18 -7.22,2.45 -10.7,3.33 -3.48,0.88 -6.37,1.36 -9.22,1.6 -2.85,0.24 -5.65,0.24 -7.05,0.24 -1.4,0 -1.4,0 -0.61,-1.73 0.79,-1.73 2.36,-5.19 4.18,-8.69 1.82,-3.5 3.87,-7.05 6.09,-10.07 2.21,-3.02 4.57,-5.52 7.64,-8.43 3.06,-2.91 6.83,-6.24 10.99,-9.72 4.16,-3.48 8.71,-7.11 13.35,-10.03 4.64,-2.91 9.37,-5.1 14.14,-7.05 4.77,-1.95 9.59,-3.66 14.16,-4.88 4.58,-1.23 8.91,-1.97 13.29,-2.47 4.38,-0.5 8.8,-0.77 13.79,-0.92 4.99,-0.15 10.55,-0.2 15.61,0.22 5.06,0.42 9.61,1.29 14.91,2.1 5.3,0.81 11.34,1.55 16.57,2.06 5.23,0.5 9.65,0.77 14.34,0.33 4.69,-0.44 9.63,-1.58 13.29,-2.63 3.66,-1.05 6.02,-2.01 8.71,-2.82 2.69,-0.81 5.71,-1.47 7.27,-1.8 1.55,-0.33 1.64,-0.33 1.58,-0.31 -0.07,0.02 -0.28,0.07 -2.12,1.82 -1.84,1.75 -5.3,5.21 -7.75,8.58 -2.45,3.37 -3.9,6.65 -5.06,10.57 -1.16,3.92 -2.04,8.47 -2.32,12.56 -0.28,4.09 0.02,7.73 0.57,11.01 0.55,3.28 1.34,6.22 1.88,9.39 0.55,3.17 0.85,6.59 0.99,10.66 0.13,4.07 0.09,8.8 -0.76,12.5 -0.85,3.7 -2.52,6.37 -4.66,9.13 -2.15,2.76 -4.77,5.6 -7.42,7.73 -2.65,2.12 -5.32,3.52 -6.68,4.22 -1.36,0.7 -1.4,0.7 -1.12,-0.85 0.28,-1.55 0.9,-4.66 1.18,-8.76 0.28,-4.09 0.24,-9.17 0.02,-13.57 -0.22,-4.4 -0.61,-8.12 -1.38,-11.6 -0.77,-3.48 -1.9,-6.72 -3.17,-10.07 -1.27,-3.35 -2.67,-6.81 -4.6,-9.96 -1.93,-3.15 -4.38,-6 -6.85,-8.58 -2.47,-2.58 -4.97,-4.9 -8.15,-6.85 -3.18,-1.95 -7.06,-3.52 -11.85,-4.53 -4.79,-1.01 -10.51,-1.45 -15.1,-1.47 -4.6,-0.02 -8.08,0.37 -11.89,1.49 -3.81,1.12 -7.95,2.96 -11.67,4.73 -3.72,1.77 -7.03,3.48 -10.53,6.12 -3.5,2.64 -7.2,6.21 -10.78,10.33 -3.58,4.13 -7.04,8.81 -9.75,13.47 -2.71,4.66 -4.68,9.3 -6.5,14.48 -1.82,5.18 -3.48,10.89 -4.59,15.52 -1.11,4.63 -1.65,8.18 -2.19,12.51 -0.54,4.33 -1.06,9.46 -1.19,14.23 -0.13,4.77 0.13,9.19 0.72,15.5 0.59,6.3 1.51,14.49 2.41,20.51 0.9,6.02 1.77,9.87 3.15,14.34 1.38,4.47 3.26,9.54 5.62,14.73 2.36,5.19 5.21,10.49 8.86,15.67 3.66,5.19 8.12,10.27 11.97,14.07 3.85,3.81 7.09,6.35 10.35,8.54 3.26,2.19 6.55,4.03 9.92,5.47 3.37,1.45 6.83,2.5 11.01,3.28 4.18,0.79 9.08,1.31 13.68,1.2 4.6,-0.11 8.89,-0.85 13.11,-2.19 4.23,-1.34 8.38,-3.26 12.54,-5.38 4.16,-2.12 8.32,-4.44 12,-6.92 3.68,-2.47 6.87,-5.1 9.46,-7.42 2.59,-2.31 4.57,-4.32 5.73,-5.48 1.16,-1.16 1.48,-1.48 1.71,-1.69 0.22,-0.21 0.35,-0.32 0.42,-0.39 0.08,-0.06 0.1,-0.09 -0.01,5.77zm-117.38 -29.32c-0.09,1.18 0.57,3.15 0.96,4.09 0.39,0.94 0.53,0.85 1.12,0.2 0.59,-0.66 1.64,-1.88 2.43,-3.3 0.79,-1.42 1.31,-3.04 1.58,-3.85 0.26,-0.81 0.26,-0.81 -0.5,-0.53 -0.77,0.28 -2.3,0.85 -3.48,1.33 -1.18,0.48 -2.01,0.88 -2.1,2.06zm-80.52 2.25c-0,0.81 0.02,2.45 -0.23,4.83 -0.25,2.37 -0.78,5.48 -1.43,8.5 -0.66,3.02 -1.44,5.95 -2.41,8.93 -0.96,2.98 -2.1,6 -2.67,7.51 -0.57,1.51 -0.57,1.51 0.44,1.73 1.01,0.22 3.02,0.66 6.04,1.12 3.02,0.46 7.05,0.94 10.92,1.16 3.87,0.22 7.6,0.18 11.73,-0.2 4.14,-0.37 8.69,-1.07 11.62,-1.66 2.93,-0.59 4.25,-1.07 4.9,-1.31 0.66,-0.24 0.66,-0.24 -0.46,-1.9 -1.12,-1.66 -3.35,-4.99 -5.25,-8.08 -1.9,-3.09 -3.48,-5.93 -4.75,-8.71 -1.27,-2.78 -2.23,-5.49 -2.71,-6.85 -0.48,-1.36 -0.48,-1.36 -2.39,-1.49 -1.9,-0.13 -5.71,-0.39 -9.13,-0.9 -3.41,-0.5 -6.44,-1.25 -8.7,-1.85 -2.26,-0.6 -3.77,-1.05 -4.55,-1.29 -0.78,-0.24 -0.85,-0.27 -0.89,-0.29 -0.05,-0.02 -0.07,-0.05 -0.08,0.76zm-22.55 -112.45c0.02,0.07 0.06,0.07 0.9,-0.12 0.83,-0.19 2.45,-0.56 4.15,-0.91 1.7,-0.35 3.47,-0.68 5.87,-0.72 2.4,-0.04 5.42,0.2 6.93,0.32 1.51,0.12 1.51,0.12 1.5,-2.16 -0.01,-2.28 -0.03,-6.83 -0.04,-11.58 -0.01,-4.75 -0.01,-9.7 0.34,-13.88 0.35,-4.18 1.05,-7.6 2.17,-10.49 1.12,-2.89 2.65,-5.25 5.23,-7.36 2.58,-2.1 6.22,-3.94 10.04,-5.3 3.83,-1.36 7.84,-2.23 11.1,-2.65 3.26,-0.42 5.75,-0.37 7.96,-0.2 2.21,0.18 4.14,0.48 5.03,0.61 0.9,0.13 0.77,0.09 0.18,-0.61 -0.59,-0.7 -1.64,-2.06 -3.28,-3.59 -1.64,-1.53 -3.87,-3.24 -6.41,-4.73 -2.54,-1.49 -5.38,-2.76 -8.76,-3.74 -3.37,-0.99 -7.27,-1.69 -11.08,-1.88 -3.81,-0.2 -7.53,0.11 -11.54,1.23 -4.01,1.12 -8.3,3.04 -12.26,5.03 -3.96,1.99 -7.6,4.05 -11.65,5.69 -4.05,1.64 -8.51,2.87 -13.2,3.17 -4.68,0.31 -9.59,-0.31 -13.35,-0.72 -3.77,-0.42 -6.39,-0.63 -9.11,-1.29 -2.71,-0.66 -5.52,-1.75 -7.75,-2.75 -2.23,-1 -3.9,-1.89 -4.72,-2.33 -0.82,-0.44 -0.8,-0.42 -0.43,0.8 0.37,1.21 1.09,3.62 2.22,6.16 1.13,2.54 2.66,5.21 4.37,7.68 1.71,2.47 3.59,4.75 6.2,6.65 2.6,1.9 5.93,3.44 9.57,4.49 3.63,1.05 7.57,1.62 11.43,2.39 3.85,0.77 7.62,1.73 10.42,3.3 2.8,1.58 4.64,3.76 5.87,5.73 1.23,1.97 1.84,3.72 2.12,6.17 0.28,2.45 0.24,5.6 0.18,8.59 -0.06,2.99 -0.13,5.81 -0.17,7.29 -0.04,1.48 -0.04,1.61 -0.02,1.68zm-23.33 29.95c0.91,-0.49 2.67,-1.45 4.77,-2.41 2.1,-0.96 4.55,-1.93 7.27,-2.91 2.71,-0.99 5.69,-1.99 8.82,-2.65 3.13,-0.66 6.41,-0.96 10.03,-0.85 3.61,0.11 7.55,0.63 11.08,1.44 3.52,0.81 6.63,1.9 9.5,2.63 2.87,0.72 5.49,1.07 8.73,1.16 3.24,0.09 7.09,-0.09 10.59,-0.61 3.5,-0.53 6.65,-1.4 9.52,-2.56 2.87,-1.16 5.45,-2.61 7.92,-4.31 2.47,-1.71 4.84,-3.68 6.9,-5.89 2.06,-2.21 3.81,-4.66 5.08,-6.52 1.27,-1.86 2.06,-3.13 2.58,-4.16 0.53,-1.03 0.79,-1.82 0.92,-2.21 0.13,-0.39 0.13,-0.39 -0.85,0 -0.98,0.39 -2.96,1.18 -6.2,2.08 -3.24,0.9 -7.75,1.9 -12.11,2.5 -4.36,0.59 -8.56,0.77 -12.72,0.55 -4.16,-0.22 -8.27,-0.83 -12.37,-1.42 -4.09,-0.59 -8.17,-1.16 -12.48,-1.58 -4.31,-0.42 -8.87,-0.68 -13.51,-0.37 -4.64,0.31 -9.37,1.18 -13.33,2.69 -3.96,1.51 -7.16,3.66 -9.79,5.82 -2.63,2.17 -4.68,4.36 -6.28,6.72 -1.6,2.36 -2.74,4.9 -3.48,6.81 -0.75,1.9 -1.1,3.16 -1.32,4.11 -0.21,0.95 -0.28,1.58 -0.31,1.93 -0.04,0.35 -0.04,0.42 -0.04,0.47 -0,0.04 -0,0.06 0.04,0.06 0.04,0 0.12,-0.01 1.03,-0.49z"/>
   <path class="fil3" d="M83.97 497.5c5.65,0.01 11.34,0.03 17.03,0.05 0,0.35 0,0.7 0,1.03 -0.31,0 -0.58,-0.01 -0.85,-0.01 -1.29,-0.01 -2.18,0.14 -2.67,0.47 -0.49,0.32 -0.82,0.75 -1.02,1.33 -0.2,0.56 -0.31,2 -0.31,4.28 0,3.23 0,6.47 0,9.69 0,3.24 0,6.47 0,9.69 0,3.55 0.23,5.89 0.67,7.06 0.45,1.21 1.2,2.25 2.22,3.14 1.02,0.89 2.31,1.43 3.87,1.63 1.78,0.23 3.3,-0.06 4.58,-0.92 1.25,-0.84 2.18,-2.12 2.8,-3.82 0.62,-1.7 0.93,-4.74 0.93,-9.14 0,-2.81 0,-5.63 0,-8.45 0,-2.81 0,-5.64 0,-8.47 0,-1.86 -0.16,-3.22 -0.44,-4.01 -0.29,-0.82 -0.72,-1.36 -1.2,-1.68 -0.72,-0.47 -1.73,-0.72 -3.11,-0.74 0,-0.35 0,-0.7 0,-1.05 3.78,0.03 7.61,0.05 11.43,0.09 0,0.37 0,0.74 0,1.1 -0.22,0 -0.44,-0.01 -0.67,-0.01 -0.93,-0.02 -1.69,0.22 -2.31,0.68 -0.63,0.47 -1.05,1.18 -1.33,2.13 -0.2,0.68 -0.31,1.86 -0.31,3.59 0,2.65 0,5.31 0,7.95 0,2.66 0,5.3 0,7.95 0,4.93 -0.24,8.43 -0.76,10.53 -0.51,2.08 -1.77,3.87 -3.74,5.41 -1.99,1.56 -4.67,2.06 -8.1,1.6 -2.89,-0.39 -5.07,-1.03 -6.63,-2.01 -2.13,-1.34 -3.63,-3.01 -4.49,-4.97 -0.87,-1.97 -1.33,-4.57 -1.33,-7.83 0,-3.2 0,-6.4 0,-9.62 0,-3.2 0,-6.4 0,-9.61 0,-2.28 -0.09,-3.69 -0.31,-4.25 -0.22,-0.55 -0.58,-1.01 -1.11,-1.34 -0.53,-0.33 -1.47,-0.49 -2.85,-0.47 0,-0.34 0,-0.67 0,-1.01zm45.9 14.44c0,1.36 0,2.71 0,4.05 1.16,-1.61 2.27,-2.74 3.34,-3.45 1.07,-0.7 2.22,-1.01 3.47,-0.9 1.47,0.13 2.67,0.84 3.65,2.14 0.98,1.31 1.63,2.91 1.96,4.75 0.25,1.41 0.4,4.07 0.4,7.95 0,4.39 0,8.78 0,13.15 0,2.59 0.12,4.26 0.44,4.98 0.34,0.76 0.98,1.34 2,1.83 0,0.43 0,0.85 0,1.27 -3.87,-1.21 -7.69,-2.39 -11.52,-3.42 0,-0.4 0,-0.79 0,-1.19 0.84,0.06 1.45,-0.29 1.82,-1.05 0.25,-0.51 0.4,-1.9 0.4,-4.18 0,-4.8 0,-9.61 0,-14.43 0,-2.65 -0.09,-4.35 -0.22,-5.05 -0.13,-0.71 -0.39,-1.29 -0.71,-1.7 -0.34,-0.43 -0.76,-0.64 -1.16,-0.68 -1.42,-0.16 -2.71,1.05 -3.87,3.61 0,2.81 0,5.63 0,8.44 0,2.81 0,5.63 0,8.43 0,2.35 0.14,3.87 0.44,4.57 0.31,0.71 0.93,1.26 1.78,1.64 0,0.4 0,0.79 0,1.19 -3.87,-1.05 -7.69,-2.05 -11.52,-2.84 0,-0.36 0,-0.74 0,-1.11 0.93,0.05 1.65,-0.2 2.05,-0.81 0.27,-0.41 0.4,-1.79 0.4,-4.12 0,-2.85 0,-5.7 0,-8.56 0,-2.85 0,-5.7 0,-8.57 0,-2.3 -0.18,-3.77 -0.49,-4.35 -0.31,-0.59 -0.98,-1.01 -1.96,-1.25 0,-0.37 0,-0.74 0,-1.11 3.07,0.22 6.18,0.48 9.3,0.76zm23.84 -14.99c1.07,0.01 1.95,0.61 2.67,1.79 0.75,1.23 1.11,2.67 1.11,4.36 0,1.7 -0.37,3.09 -1.11,4.23 -0.72,1.11 -1.6,1.63 -2.67,1.54 -1.02,-0.09 -1.93,-0.72 -2.67,-1.92 -0.73,-1.18 -1.07,-2.57 -1.07,-4.19 0,-1.6 0.34,-2.98 1.07,-4.12 0.74,-1.15 1.65,-1.7 2.67,-1.69zm3.42 17.88c0,4.88 0,9.76 0,14.62 0,4.87 0,9.74 0,14.61 0,2.63 0.2,4.4 0.58,5.25 0.38,0.87 1.11,1.54 2.22,2.03 0,0.47 0,0.93 0,1.39 -4.14,-1.47 -8.27,-2.93 -12.41,-4.25 0,-0.43 0,-0.85 0,-1.29 1.02,0.27 1.77,0.04 2.27,-0.67 0.34,-0.49 0.53,-1.99 0.53,-4.5 0,-3.43 0,-6.88 0,-10.33 0,-3.43 0,-6.88 0,-10.32 0,-2.53 -0.21,-4.17 -0.58,-4.9 -0.38,-0.76 -1.16,-1.23 -2.22,-1.46 0,-0.43 0,-0.85 0,-1.29 3.2,0.35 6.4,0.72 9.61,1.11zm17.57 37.26c-2.8,3.41 -5.29,4.62 -7.47,3.78 -1.33,-0.51 -2.41,-1.61 -3.29,-3.37 -0.85,-1.71 -1.24,-3.65 -1.24,-5.79 0,-2.92 0.71,-5.33 2.22,-7.28 1.52,-1.96 4.76,-4.32 9.79,-7.23 0,-1.38 0,-2.76 0,-4.13 0,-3.1 -0.11,-5.05 -0.31,-5.91 -0.2,-0.82 -0.52,-1.6 -1.02,-2.25 -0.52,-0.68 -1.16,-1.06 -1.78,-1.15 -1.07,-0.15 -1.94,0.13 -2.62,0.85 -0.43,0.46 -0.62,0.99 -0.62,1.68 0,0.59 0.22,1.36 0.67,2.31 0.62,1.33 0.93,2.57 0.93,3.7 0,1.39 -0.31,2.52 -0.89,3.37 -0.58,0.84 -1.38,1.14 -2.31,0.93 -1.02,-0.24 -1.9,-0.97 -2.58,-2.13 -0.7,-1.2 -1.02,-2.46 -1.02,-3.85 0,-1.97 0.45,-3.77 1.38,-5.42 0.94,-1.66 2.23,-2.87 3.87,-3.64 1.65,-0.77 3.38,-1.06 5.16,-0.84 2.18,0.27 3.89,1.3 5.16,3.18 1.26,1.87 2.06,3.84 2.45,5.94 0.24,1.31 0.31,4.27 0.31,8.87 0,5.54 0,11.06 0,16.59 0,1.95 0.04,3.19 0.13,3.73 0.09,0.53 0.21,0.96 0.36,1.25 0.16,0.32 0.36,0.49 0.58,0.57 0.44,0.16 0.84,-0.25 1.29,-1.2 0.22,0.45 0.49,0.9 0.76,1.34 -0.8,2.01 -1.66,3.36 -2.54,4.06 -0.86,0.69 -1.87,0.8 -2.98,0.37 -1.29,-0.49 -2.31,-1.46 -3.02,-2.81 -0.75,-1.42 -1.16,-3.23 -1.33,-5.52zm0 -3.25c0,-4.56 0,-9.11 0,-13.68 -1.96,1.59 -3.44,3.39 -4.4,5.43 -0.64,1.35 -0.93,2.83 -0.93,4.38 0,1.3 0.28,2.54 0.8,3.7 0.41,0.91 0.98,1.49 1.69,1.73 0.84,0.29 1.78,-0.22 2.85,-1.56zm4.67 -48.59c0.4,0.01 0.8,0.03 1.24,0.04 0.04,0.61 0.04,1.12 0.04,1.54 0,3.33 -0.5,5.97 -1.51,7.9 -0.99,1.9 -2.22,2.78 -3.65,2.63 -1.02,-0.11 -2.35,-0.92 -3.96,-2.43 -1.59,-1.49 -2.67,-2.24 -3.2,-2.29 -0.49,-0.04 -0.91,0.21 -1.25,0.75 -0.33,0.52 -0.53,1.52 -0.67,2.97 -0.49,-0.05 -0.98,-0.1 -1.47,-0.15 0,-3.57 0.5,-6.33 1.51,-8.31 1.03,-2.02 2.31,-3.02 3.82,-2.98 0.49,0.01 0.89,0.11 1.2,0.28 0.45,0.24 1.25,0.85 2.36,1.81 1.65,1.43 2.85,2.18 3.56,2.22 0.4,0.02 0.7,-0.24 1.02,-0.75 0.34,-0.54 0.67,-1.6 0.93,-3.23zm18.41 18.55c2,0.25 3.83,1.55 5.52,3.96 1.7,2.43 3.01,5.8 3.87,10.02 0.87,4.28 1.33,8.85 1.33,13.73 0,7.06 -0.8,12.71 -2.45,16.87 -1.95,4.92 -4.72,6.62 -8.18,5.23 -3.43,-1.38 -6.01,-4.83 -7.87,-10.27 -1.83,-5.37 -2.8,-11.07 -2.8,-17.23 0,-6.34 0.97,-11.66 2.85,-16.09 1.9,-4.5 4.45,-6.62 7.74,-6.21zm0.13 3.52c-0.84,-0.12 -1.55,0.43 -2.13,1.61 -0.57,1.16 -0.98,3.61 -1.16,7.3 -0.18,3.7 -0.27,8.87 -0.27,15.5 0,3.52 0.08,6.83 0.31,9.98 0.17,2.4 0.58,4.34 1.16,5.77 0.58,1.43 1.25,2.31 2,2.59 0.71,0.27 1.35,0.1 1.82,-0.57 0.64,-0.91 1.04,-2.39 1.24,-4.39 0.33,-3.13 0.49,-9.64 0.49,-19.52 0,-5.79 -0.16,-9.82 -0.44,-12.04 -0.29,-2.22 -0.81,-3.87 -1.38,-4.94 -0.41,-0.77 -0.98,-1.21 -1.65,-1.3zm38.43 -18.04c0,5.56 0,11.13 0,16.69 0,5.56 0,11.13 0,16.7 0.22,0.03 0.44,0.07 0.67,0.1 2.09,0.33 3.63,-1.09 4.58,-4.27 0.96,-3.19 1.51,-8.05 1.78,-14.53 0.31,0.03 0.62,0.05 0.93,0.08 0,7.37 0,14.73 0,22.08 0,7.37 0,14.73 0,22.08 -0.31,-0.08 -0.62,-0.15 -0.93,-0.23 -0.18,-4.83 -0.62,-8.85 -1.25,-12.02 -0.62,-3.17 -1.35,-5.33 -2.18,-6.53 -0.81,-1.18 -2,-1.91 -3.6,-2.19 0,7.69 0,15.37 0,23.04 0,4.52 0.07,7.28 0.22,8.32 0.16,1.07 0.46,1.97 0.89,2.75 0.41,0.75 1.11,1.31 2.05,1.59 0.62,0.19 1.29,0.38 1.96,0.58 3.07,0.92 5.58,-0.15 7.43,-3.34 1.89,-3.25 3.2,-8.63 4,-16.13 0.31,0.05 0.62,0.12 0.93,0.17 -0.53,9.1 -1.02,18.17 -1.51,27.21 -9.52,-2.81 -19.04,-5.87 -28.55,-9.27 0,-0.66 0,-1.32 0,-1.99 0.36,0.12 0.71,0.25 1.11,0.39 0.93,0.33 1.74,0.18 2.31,-0.43 0.4,-0.42 0.74,-1.24 0.98,-2.5 0.16,-0.88 0.27,-3.32 0.27,-7.33 0,-8.71 0,-17.44 0,-26.15 0,-8.71 0,-17.44 0,-26.16 0,-3.61 -0.03,-5.84 -0.13,-6.67 -0.17,-1.38 -0.45,-2.44 -0.89,-3.2 -0.63,-1.1 -1.47,-1.68 -2.54,-1.7 -0.4,-0.01 -0.76,-0.03 -1.11,-0.03 0,-0.67 0,-1.33 0,-2 9.21,0.15 18.41,0.3 27.67,0.41 0,8.52 0,17.04 0,25.54 -0.36,-0.03 -0.67,-0.05 -0.98,-0.09 -0.44,-6.26 -1.11,-10.75 -1.96,-13.49 -0.85,-2.74 -2.05,-4.75 -3.6,-6.08 -0.9,-0.76 -2.62,-1.21 -5.11,-1.29 -1.16,-0.04 -2.31,-0.06 -3.42,-0.1zm35.76 22.39c0.09,7.15 0.22,14.31 0.36,21.46 -0.31,-0.03 -0.58,-0.06 -0.84,-0.09 -0.98,-6.44 -2.01,-10.82 -3.07,-13.25 -1.03,-2.37 -2.09,-3.61 -3.11,-3.69 -0.67,-0.05 -1.23,0.51 -1.69,1.65 -0.47,1.18 -0.71,2.56 -0.71,4.14 0,1.16 0.18,2.31 0.49,3.45 0.5,1.84 1.95,5.08 4.31,9.73 2.39,4.71 3.98,8.68 4.71,11.87 0.73,3.19 1.11,6.76 1.11,10.6 0,3.5 -0.31,6.85 -0.93,10.09 -0.62,3.21 -1.52,5.61 -2.67,7.15 -1.16,1.55 -2.4,2.16 -3.82,1.86 -1.07,-0.23 -2.49,-1.44 -4.31,-3.68 -0.49,-0.6 -0.8,-0.92 -0.98,-0.97 -0.53,-0.13 -0.98,0.86 -1.33,2.99 -0.31,-0.09 -0.58,-0.17 -0.85,-0.23 -0.13,-7.32 -0.27,-14.61 -0.4,-21.93 0.27,0.06 0.53,0.12 0.85,0.18 0.71,5.85 1.7,10.36 2.98,13.51 1.26,3.12 2.45,4.79 3.6,5.02 0.76,0.15 1.36,-0.38 1.87,-1.57 0.52,-1.22 0.76,-2.74 0.76,-4.61 0,-2.13 -0.22,-3.99 -0.71,-5.64 -0.49,-1.63 -1.56,-4.13 -3.25,-7.52 -2.49,-5.02 -4.08,-8.82 -4.8,-11.37 -1.06,-3.73 -1.6,-7.72 -1.6,-11.99 0,-4.69 0.56,-8.82 1.78,-12.47 1.23,-3.7 2.98,-5.45 5.25,-5.3 1.24,0.08 2.42,0.98 3.56,2.75 0.46,0.71 0.8,1.09 1.07,1.11 0.31,0.02 0.54,-0.14 0.71,-0.46 0.18,-0.33 0.45,-1.28 0.85,-2.85 0.27,0.03 0.53,0.04 0.85,0.07zm13.88 59.93c0,8 0,16 0,24.01 0,3.33 0.07,5.63 0.27,6.83 0.2,1.24 0.5,2.16 0.89,2.78 0.41,0.63 1.16,1.06 2.27,1.25 0,0.79 0,1.59 0,2.37 -4.36,-0.76 -8.72,-1.52 -13.03,-2.27 0,-0.77 0,-1.56 0,-2.34 1.02,0.08 1.77,-0.59 2.27,-2.03 0.34,-0.99 0.49,-3.7 0.49,-8.09 0,-11.19 0,-22.39 0,-33.57 0,-11.19 0,-22.39 0,-33.6 0,-4.54 -0.16,-7.44 -0.53,-8.72 -0.38,-1.29 -1.16,-2.01 -2.22,-2.26 0,-0.79 0,-1.56 0,-2.36 3.2,0.15 6.41,0.3 9.61,0.44 0,2.81 0,5.61 0,8.43 0.8,-3.24 1.62,-5.57 2.45,-7 1.18,-2.04 2.45,-3.08 3.87,-3.06 1.65,0.03 3.18,1.53 4.54,4.54 1.36,3.03 2.45,7.18 3.16,12.45 0.71,5.29 1.07,10.97 1.07,17.08 0,6.54 -0.36,12.51 -1.11,17.89 -0.76,5.38 -1.8,9.45 -3.2,12.21 -1.4,2.77 -2.98,4.1 -4.71,4.03 -1.24,-0.05 -2.42,-0.87 -3.51,-2.58 -0.82,-1.28 -1.65,-3.43 -2.53,-6.43zm0 -6.92c1.38,5.7 2.89,8.7 4.49,8.8 0.89,0.05 1.61,-1.23 2.18,-3.81 0.85,-3.83 1.24,-11.14 1.24,-21.95 0,-11.1 -0.44,-18.7 -1.38,-22.79 -0.62,-2.72 -1.42,-4.06 -2.49,-4.09 -1.65,-0.05 -2.98,3.19 -4.05,9.77 0,5.68 0,11.36 0,17.04 0,5.68 0,11.36 0,17.04zm29.67 -52.3c1.96,-0.03 3.79,1.31 5.52,4.12 1.7,2.78 2.98,6.8 3.87,12 0.89,5.19 1.33,10.89 1.33,17.13 0,9.02 -0.86,16.67 -2.49,22.93 -1.98,7.61 -4.66,11.75 -8.18,12 -3.38,0.24 -6.03,-3.12 -7.87,-9.86 -1.84,-6.73 -2.76,-14.61 -2.76,-23.61 0,-9.25 0.91,-17.36 2.8,-24.28 1.89,-6.91 4.49,-10.39 7.78,-10.44zm0.09 4.8c-0.8,0.01 -1.49,0.94 -2.09,2.7 -0.6,1.78 -1,5.28 -1.2,10.48 -0.2,5.24 -0.27,12.48 -0.27,21.76 0,4.93 0.13,9.51 0.36,13.8 0.17,3.24 0.53,5.73 1.11,7.4 0.58,1.66 1.25,2.49 2,2.45 0.71,-0.03 1.35,-0.61 1.82,-1.82 0.64,-1.62 1.02,-3.86 1.25,-6.67 0.35,-4.39 0.49,-13.19 0.49,-26.41 0,-7.77 -0.13,-13.1 -0.44,-15.99 -0.31,-2.9 -0.78,-4.97 -1.38,-6.29 -0.43,-0.94 -0.93,-1.42 -1.65,-1.41zm23.53 -4.18c0,4.72 0,9.44 0,14.16 1.51,-6.56 2.83,-10.92 3.96,-13.06 1.14,-2.18 2.22,-3.28 3.29,-3.37 0.89,-0.08 1.62,0.61 2.18,2.05 0.55,1.44 0.8,3.51 0.8,6.22 0,2.89 -0.27,5.18 -0.8,6.84 -0.53,1.66 -1.16,2.56 -1.91,2.66 -0.84,0.11 -1.61,-0.54 -2.22,-1.95 -0.63,-1.43 -1,-2.21 -1.11,-2.37 -0.16,-0.24 -0.31,-0.38 -0.53,-0.36 -0.49,0.04 -0.92,0.56 -1.33,1.57 -0.65,1.58 -1.18,3.77 -1.51,6.6 -0.51,4.33 -0.76,9.1 -0.76,14.3 0,4.75 0,9.51 0,14.26 0,1.25 0,2.5 0,3.74 0,2.54 0.06,4.15 0.18,4.87 0.19,1.16 0.51,1.97 0.89,2.45 0.38,0.48 1.02,0.7 1.91,0.66 0,0.77 0,1.54 0,2.3 -4.14,0.84 -8.27,1.68 -12.36,2.43 0,-0.79 0,-1.57 0,-2.36 1.02,-0.36 1.69,-1.24 2.05,-2.57 0.36,-1.35 0.53,-4.79 0.53,-10.27 0,-5.81 0,-11.65 0,-17.46 0,-5.81 0,-11.64 0,-17.46 0,-3.67 -0.08,-5.98 -0.22,-6.98 -0.17,-1.27 -0.4,-2.17 -0.71,-2.75 -0.31,-0.57 -0.85,-0.97 -1.65,-1.15 0,-0.79 0,-1.56 0,-2.36 3.11,-0.18 6.23,-0.4 9.34,-0.62zm21.75 -23.4c0,7.18 0,14.35 0,21.54 1.78,-0.19 3.56,-0.39 5.38,-0.58 0,2.01 0,4.03 0,6.04 -1.82,0.23 -3.6,0.46 -5.38,0.7 0,6.03 0,12.07 0,18.1 0,6.03 0,12.05 0,18.08 0,3.39 0.04,5.56 0.18,6.5 0.13,0.94 0.32,1.67 0.62,2.18 0.32,0.54 0.62,0.75 0.85,0.68 1.07,-0.31 2.05,-2.62 3.02,-6.92 0.22,0.39 0.44,0.77 0.71,1.15 -1.33,8.21 -3.46,12.84 -6.41,13.75 -1.42,0.44 -2.65,-0.31 -3.65,-2.14 -1.01,-1.86 -1.63,-4.04 -1.91,-6.57 -0.16,-1.42 -0.27,-5.33 -0.27,-11.73 0,-5.37 0,-10.76 0,-16.15 0,-5.38 0,-10.78 0,-16.16 -1.02,0.1 -2,0.21 -2.98,0.32 0,-0.76 0,-1.52 0,-2.27 2.05,-4.01 3.8,-8.16 5.25,-12.44 1.44,-4.24 2.71,-8.93 3.78,-14.06 0.27,-0.01 0.53,-0.03 0.8,-0.03zm26.86 42.97c-4.18,0.94 -8.36,1.88 -12.5,2.81 0.13,7.33 0.93,12.92 2.4,16.76 1.11,2.91 2.49,4.08 4.05,3.59 0.98,-0.31 1.87,-1.24 2.67,-2.75 0.8,-1.52 1.65,-4.06 2.58,-7.6 0.27,0.36 0.53,0.7 0.8,1.03 -1.2,6.18 -2.6,10.75 -4.09,13.72 -1.48,2.95 -3.2,4.81 -5.16,5.5 -3.38,1.19 -5.98,-1.12 -7.7,-7.02 -1.4,-4.82 -2.09,-11.13 -2.09,-18.88 0,-9.47 1.01,-17.18 3.07,-23.04 2.03,-5.79 4.49,-8.8 7.25,-9.11 2.27,-0.26 4.31,1.73 6,5.94 1.68,4.16 2.58,10.49 2.71,19.05zm-5.96 -2.44c0,-6.21 -0.16,-10.44 -0.44,-12.7 -0.29,-2.28 -0.74,-3.97 -1.33,-5.09 -0.34,-0.64 -0.8,-0.95 -1.38,-0.88 -0.8,0.1 -1.5,1.2 -2.05,3.27 -0.97,3.67 -1.42,8.56 -1.42,14.7 0,0.7 0,1.39 0,2.08 2.18,-0.45 4.4,-0.92 6.63,-1.38zm52.84 -47.97c0,3.45 0,6.9 0,10.35 0,3.45 0,6.91 0,10.35 -0.31,0.04 -0.62,0.08 -0.93,0.12 -0.71,-5.39 -2.05,-9.5 -3.96,-12.33 -1.96,-2.9 -4.18,-4.33 -6.63,-4.25 -2.05,0.07 -3.96,1.29 -5.65,3.72 -1.73,2.49 -2.98,5.72 -3.78,9.69 -1.03,5.14 -1.51,10.8 -1.51,16.97 0,6.08 0.37,11.52 1.11,16.29 0.73,4.72 1.89,8.11 3.47,10.05 1.57,1.94 3.65,2.4 6.18,1.47 2.09,-0.76 4,-2.33 5.69,-4.61 1.73,-2.32 3.56,-5.77 5.47,-10.39 0,1.7 0,3.42 0,5.14 -1.82,4.13 -3.79,7.39 -5.78,9.76 -2.01,2.39 -4.31,4.12 -7.03,5.18 -3.51,1.37 -6.64,1.18 -9.34,-0.7 -2.77,-1.92 -4.88,-5.49 -6.36,-10.61 -1.5,-5.21 -2.22,-11.09 -2.22,-17.51 0,-6.76 0.84,-13.31 2.49,-19.51 1.64,-6.13 3.86,-10.87 6.67,-14.2 2.75,-3.25 5.74,-4.84 8.9,-4.87 2.31,-0.02 4.76,0.92 7.34,2.75 1.51,1.07 2.45,1.58 2.85,1.56 0.53,-0.02 0.97,-0.41 1.33,-1.1 0.39,-0.72 0.62,-1.82 0.76,-3.33 0.31,0 0.62,0 0.93,0zm13.39 1.12c0,7.86 0,15.73 0,23.59 0,7.86 0,15.72 0,23.57 0,2.71 0.19,4.37 0.58,5.01 0.37,0.61 1.11,0.8 2.22,0.53 0,0.46 0,0.93 0,1.39 -4.14,1.43 -8.27,2.88 -12.41,4.4 0,-0.49 0,-0.98 0,-1.48 1.02,-0.43 1.76,-1.21 2.27,-2.37 0.34,-0.77 0.49,-2.56 0.49,-5.37 0,-6.83 0,-13.64 0,-20.47 0,-6.82 0,-13.63 0,-20.46 0,-2.83 -0.16,-4.61 -0.53,-5.38 -0.38,-0.8 -1.16,-1.21 -2.22,-1.3 0,-0.49 0,-0.99 0,-1.5 3.2,-0.05 6.4,-0.1 9.61,-0.15zm26.95 14.17c0,4.22 0,8.44 0,12.66 0,4.22 0,8.43 0,12.65 0,2.48 0.12,4 0.44,4.52 0.34,0.54 0.98,0.75 2,0.66 0,0.4 0,0.79 0,1.19 -3.11,0.81 -6.23,1.66 -9.3,2.62 0,-1.5 0,-2.99 0,-4.49 -1.11,2.25 -2.18,3.96 -3.29,5.19 -1.07,1.19 -2.27,2.02 -3.65,2.46 -1.29,0.41 -2.41,0.15 -3.42,-0.77 -0.98,-0.9 -1.65,-2.16 -2,-3.7 -0.36,-1.56 -0.49,-4.47 -0.49,-8.65 0,-4.79 0,-9.59 0,-14.39 0,-2.76 -0.18,-4.48 -0.49,-5.11 -0.31,-0.64 -0.98,-1.01 -1.96,-1.1 0,-0.45 0,-0.9 0,-1.37 3.07,-0.36 6.14,-0.71 9.25,-1.04 0,3.98 0,7.95 0,11.91 0,3.97 0,7.94 0,11.9 0,2.48 0.07,4.07 0.22,4.75 0.16,0.68 0.41,1.14 0.76,1.42 0.32,0.26 0.71,0.35 1.16,0.22 0.58,-0.17 1.1,-0.56 1.56,-1.14 0.66,-0.83 1.47,-2.31 2.36,-4.45 0,-3 0,-5.99 0,-8.98 0,-2.99 0,-5.99 0,-8.98 0,-2.57 -0.18,-4.15 -0.49,-4.74 -0.32,-0.6 -0.98,-0.94 -1.96,-1.02 0,-0.43 0,-0.84 0,-1.26 3.07,-0.34 6.18,-0.67 9.3,-0.94zm14.5 -14.74c0,2.76 0,5.52 0,8.27 0,2.76 0,5.52 0,8.27 1.91,-2.74 4,-4.16 6.32,-4.31 1.56,-0.1 3.03,0.37 4.4,1.43 1.38,1.07 2.46,2.64 3.25,4.69 0.77,2.02 1.16,4.41 1.16,7.12 0,3.07 -0.51,5.89 -1.51,8.52 -1,2.61 -2.3,4.67 -3.96,6.3 -1.68,1.64 -3.56,2.75 -5.69,3.19 -1.2,0.25 -2.32,0.24 -3.29,-0.06 -0.94,-0.3 -1.87,-0.95 -2.8,-1.92 -1.29,1.34 -2.54,2.75 -3.78,4.17 -0.27,0.08 -0.53,0.14 -0.8,0.21 0,-6.56 0,-13.11 0,-19.67 0,-6.56 0,-13.13 0,-19.68 0,-1.82 -0.07,-2.95 -0.18,-3.37 -0.16,-0.63 -0.44,-1.09 -0.76,-1.38 -0.35,-0.32 -0.93,-0.47 -1.78,-0.49 0,-0.39 0,-0.77 0,-1.16 3.11,-0.04 6.27,-0.08 9.43,-0.12zm0 19.41c0,4.43 0,8.85 0,13.28 0,2.7 0.03,4.42 0.13,5.15 0.17,1.22 0.59,2.15 1.2,2.81 0.59,0.64 1.38,0.88 2.36,0.68 0.8,-0.16 1.52,-0.59 2.13,-1.33 0.58,-0.69 1.07,-1.98 1.47,-3.82 0.4,-1.83 0.58,-5.05 0.58,-9.65 0,-4.4 -0.44,-7.4 -1.29,-8.97 -0.62,-1.15 -1.47,-1.67 -2.58,-1.57 -1.38,0.11 -2.71,1.24 -4,3.42zm38.3 5.01c-4.18,0.13 -8.36,0.26 -12.54,0.39 0.13,3.61 0.92,6.45 2.4,8.48 1.14,1.57 2.49,2.3 4.05,2.23 0.98,-0.04 1.87,-0.4 2.67,-1.07 0.8,-0.67 1.65,-1.87 2.58,-3.58 0.27,0.22 0.53,0.43 0.85,0.62 -1.25,3.01 -2.62,5.19 -4.09,6.48 -1.5,1.32 -3.25,2 -5.2,2.09 -3.38,0.16 -5.97,-1.15 -7.69,-4.08 -1.39,-2.37 -2.09,-5.46 -2.09,-9.24 0,-4.63 1,-8.4 3.07,-11.22 2.07,-2.82 4.49,-4.19 7.25,-4.23 2.31,-0.04 4.31,1.06 6,3.26 1.69,2.2 2.62,5.49 2.76,9.86zm-6.01 -1.72c0,-3.1 -0.15,-5.22 -0.44,-6.39 -0.29,-1.14 -0.73,-2.01 -1.33,-2.61 -0.32,-0.32 -0.76,-0.5 -1.33,-0.49 -0.84,0.01 -1.56,0.51 -2.09,1.51 -0.94,1.75 -1.42,4.13 -1.42,7.15 0,0.34 0,0.68 0,1.02 2.18,-0.06 4.4,-0.13 6.63,-0.19z"/>
  </g>
 </g>
</svg>
