<?xml version="1.0" encoding="utf-8"?>
<!-- Generator: Adobe Illustrator 23.0.1, SVG Export Plug-In . SVG Version: 6.00 Build 0)  -->
<svg version="1.1" id="Layer_1" xmlns="http://www.w3.org/2000/svg" xmlns:xlink="http://www.w3.org/1999/xlink" x="0px" y="0px"
	 viewBox="0 0 148 148" style="enable-background:new 0 0 148 148;" xml:space="preserve">
<style type="text/css">
	.st0{fill-rule:evenodd;clip-rule:evenodd;fill:#2C286D;}
	.st1{fill-rule:evenodd;clip-rule:evenodd;fill:#FFFFFF;}
	.st2{fill:#FFFFFF;}
	.st3{fill-rule:evenodd;clip-rule:evenodd;fill:#4F4B6A;}
	.st4{fill:#2C286D;}
	.st5{fill:#231F20;}
</style>
<g>
	<g>
		<path class="st0" d="M74.4,147.5c0.7-0.6,1.4-1.4,2.1-1.9c7.5-5.9,15.1-9.7,22.6-13.2c9.6-4.6,19.9-9.1,28-16.2
			c14.6-12.9,19.7-30.9,7-50.9c-10.7-13.7-8.6-32.4,2-44.9c-6.4-6.5-12.8-13.2-19.2-19.7c-13.3,4.5-26.8,8.8-41.7,8.6v0
			c-0.4,0-0.7,0-1.1,0c-0.4,0-0.8,0-1.1,0C58,9.4,44.6,5,31.3,0.5C24.8,7.1,18.4,13.7,12,20.2c10.6,12.4,12.7,31.2,1.9,44.9
			c-12.7,20-7.7,38,7,50.9c8,7.1,18.3,11.7,27.9,16.3c7.7,3.7,15.5,7.7,23.3,13.4C73,146.2,73.7,146.9,74.4,147.5L74.4,147.5z"/>
	</g>
	<g>
		<path class="st1" d="M115.5,4.7c-9.8,3.4-20,6.2-30.3,7.5c-2.8,0.3-5.7,0.5-8.6,0.6c-1.7,0-3.4-0.1-5.1-0.1
			c-6.2-0.1-12.1-0.8-18.1-2.1c-7.1-1.4-13.9-3.7-20.7-5.9l-0.4-0.1c-4.5,4.7-9.1,9.3-13.5,13.8c-0.7,0.6-1.4,1.4-2.1,2.1
			c2.7,3.4,4.5,7.8,6,11.8l0.9,3.2l0.6,3.2l0.4,3.2l0.1,3.3l-0.3,3.3l-0.5,3.2L23.1,55l-1.1,3.2l-1.5,3.1l-1.7,3
			c-2.2,3-4.1,6.1-5.6,9.5c-1.1,2.7-1.9,5.3-2.4,7.9L115.5,4.7L115.5,4.7z"/>
		<path class="st2" d="M10.8,81.8l-0.1-0.1c0.5-2.4,1.2-4.8,2.4-7.9c1.4-3.2,3.2-6.2,5.6-9.5l1.7-3l1.5-3.1L23,55l0.8-3.2l0.5-3.2
			l0.3-3.3L24.4,42l-0.4-3.2l-0.6-3.2l-0.9-3.2c-1.4-3.9-3.2-8.3-6-11.8l0,0l0,0c0.2-0.2,0.5-0.5,0.7-0.7c0.5-0.5,1-1,1.4-1.4
			c1.8-1.9,3.7-3.7,5.5-5.6c2.6-2.7,5.4-5.5,8-8.3l0,0l0.4,0.1c0.6,0.2,1.1,0.4,1.7,0.5c6.2,2,12.6,4.1,19.1,5.4
			c6,1.3,11.9,2,18.1,2.1c0.9,0,1.7,0,2.5,0c0.8,0,1.7,0,2.5,0c2.6,0,5.4-0.2,8.6-0.6c9.1-1.1,18.7-3.5,30.3-7.5l0.1,0.1L10.8,81.8z
			 M16.7,20.5c2.8,3.5,4.6,7.9,6,11.8l0.9,3.2l0.6,3.3l0.4,3.3l0.1,3.3l-0.3,3.3l-0.5,3.3l-0.8,3.3L22,58.3l-1.5,3.1l-1.7,3
			c-2.4,3.3-4.1,6.3-5.6,9.5c-1.2,3-1.9,5.4-2.4,7.7L115.1,4.9c-11.5,3.9-21,6.3-30,7.3c-3.2,0.3-6,0.5-8.6,0.6c-0.9,0-1.7,0-2.5,0
			c-0.8,0-1.7,0-2.5,0c-6.2-0.1-12.2-0.8-18.1-2.1c-6.5-1.3-12.9-3.4-19.1-5.4c-0.6-0.2-1.1-0.4-1.7-0.5l-0.3-0.1
			c-2.7,2.8-5.4,5.5-8,8.2c-1.8,1.8-3.7,3.7-5.5,5.6c-0.5,0.4-0.9,0.9-1.4,1.4C17.2,20,16.9,20.3,16.7,20.5z"/>
	</g>
	<g>
		<path class="st3" d="M34.1,8.9c6.1-1,11.9,3.2,13,9.4c1,6.2-3,12.1-9.1,13.1c-6.1,1-11.9-3.2-13-9.4C23.9,15.9,28.1,10,34.1,8.9
			L34.1,8.9z"/>
	</g>
	<g>
		<path class="st3" d="M41.2,33.9c0.4-0.7,0.6-1.2,0.8-1.6l0,0c0.2-0.4,0.4-0.8,0.7-1.4c-0.4-1.3-1-0.2-2,0.9
			c-0.2,0.3-1.2,0.4-0.9,0.9c-2.4-2.3-5.9,3.6-1.3,5c1.4,1.1,2.1,2.5,2.3,3.4c-1.7-0.9-5.3,1.7-7.2,5.1c-1.9,2.7-1.8,3.8-4.3,6.5
			c1.4-0.1,2.2-0.7,3.2-0.3c6.8,1.9,8.8-1.4,12-4.5c2.8-1.8,5.8-7.1,1.5-9.7C44,37.3,41,35.7,41.2,33.9L41.2,33.9z"/>
	</g>
	<g>
		<path class="st3" d="M49.6,27.9c-1.5,0.3-1.8,0.4-3.2,0.8c-1.2-0.7,0.1-1,1.3-1.7c0.3-0.2,0.6-1.1,1.1-0.7c-1.7-2.9,4.9-5,5.2-0.2
			c0.8,1.6,2,2.6,2.8,3c-0.5-1.9,2.8-4.7,6.6-5.9c3.1-1.2,4.1-0.9,7.2-2.7c-0.4,1.3-1.2,2-0.9,3.1c0.3,7.1-3.3,8.2-7.1,10.7
			c-2.4,2.4-8.2,4.1-9.8-0.6C52.2,31.3,51.3,28.1,49.6,27.9L49.6,27.9z"/>
	</g>
	<g>
		<path class="st0" d="M34.1,8.9c6.1-1,11.9,3.2,13,9.4c1,6.2-3,12.1-9.1,13.1c-6.1,1-11.9-3.2-13-9.4C23.9,15.9,28.1,10,34.1,8.9
			L34.1,8.9z"/>
	</g>
	<g>
		<path class="st1" d="M30.6,10.5l2.6,0.2l1.2,4.7l-2.9,3.3l-4.4,0.1L26,16.7C26.6,14.3,28.1,12.3,30.6,10.5L30.6,10.5z"/>
	</g>
	<g>
		<path class="st1" d="M25.6,20.6l1.6-1.3l4.3-0.1l1.5,3.9l-2.9,4.1l-1.7-0.2C26.7,25.4,25.6,23.4,25.6,20.6L25.6,20.6z"/>
	</g>
	<g>
		<path class="st1" d="M44.9,26.1l-3,0.4l-2.8-3.2l0.6-5.3l4.7-2.4l1.9,1.7C46.9,20,46.7,23.2,44.9,26.1L44.9,26.1z"/>
	</g>
	<g>
		<path class="st1" d="M43.3,12.4l0.4,2.8l-4.6,2.3l-4-2.2l-1.2-4.5l1.9-1.4C38.7,9.3,40.9,10.2,43.3,12.4L43.3,12.4z"/>
	</g>
	<g>
		<path class="st1" d="M32.2,30l-1.6-2.4l3.1-4.2l5.1,0.3l2.8,3.4l-0.9,2.6C38,30.9,35.4,31.1,32.2,30L32.2,30z"/>
	</g>
	<g>
		<path class="st1" d="M41.2,33.9c0.7-1.4,0.8-1.6,1.5-2.9c-0.4-1.3-1-0.2-2,0.9c-0.2,0.3-1.2,0.4-0.9,0.9c-2.4-2.3-5.9,3.6-1.3,5
			c1.4,1.1,2.1,2.5,2.3,3.4c-1.7-0.9-5.3,1.7-7.2,5.1c-1.9,2.7-1.8,3.8-4.3,6.5c1.4-0.1,2.2-0.7,3.2-0.3c6.8,1.9,8.8-1.4,12-4.5
			c2.8-1.8,5.8-7.1,1.5-9.7C44,37.3,41,35.7,41.2,33.9L41.2,33.9z"/>
		<path class="st4" d="M36.2,53.4c-1.1,0-2.3-0.2-3.7-0.6c-0.6-0.3-1.1-0.2-1.8,0c-0.4,0.1-0.8,0.2-1.3,0.2l-0.2-0.4
			c1.5-1.6,2.1-2.6,2.7-3.8c0.4-0.7,0.8-1.5,1.6-2.6c1.8-3.3,5.1-5.7,7-5.4c-0.3-0.9-1-1.9-2-2.8c-1.9-0.6-2.3-1.9-2.4-2.7
			c-0.1-1.3,0.7-2.7,1.8-3.2c0.6-0.3,1.3-0.3,1.8,0.1c0.1-0.2,0.4-0.3,0.6-0.4c0.1,0,0.3-0.1,0.3-0.2c0.2-0.2,0.3-0.4,0.5-0.6
			c0.5-0.6,0.9-1,1.3-0.9c0.4,0.1,0.5,0.5,0.6,0.8l0,0.1l-0.1,0.1c-0.4,0.7-0.6,1.1-0.8,1.5C42,33,41.8,33.3,41.5,34
			c-0.1,1.7,3.3,3.4,4.7,4.1c1.5,0.9,2.2,2.2,2.3,3.8c0,2.5-1.9,5.2-3.8,6.4c-0.4,0.4-0.8,0.8-1.2,1.2
			C41.5,51.5,39.7,53.4,36.2,53.4z M31.8,52.1c0.3,0,0.6,0.1,0.9,0.2c5.7,1.6,7.9-0.6,10.5-3.2c0.4-0.4,0.8-0.8,1.2-1.2
			c1.8-1.2,3.6-3.7,3.6-6c0-1.4-0.7-2.5-2-3.3c-2.6-1.3-5.2-2.8-5-4.6l0-0.1c0.3-0.6,0.5-1,0.7-1.4c0.2-0.4,0.4-0.8,0.7-1.4
			c-0.1-0.3-0.2-0.3-0.2-0.3c-0.2,0-0.5,0.5-0.8,0.8c-0.2,0.2-0.3,0.4-0.5,0.6c-0.1,0.1-0.3,0.2-0.5,0.3c-0.1,0.1-0.4,0.2-0.4,0.3
			c0,0,0,0.1,0,0.1l-0.4,0.3c-0.6-0.6-1.3-0.5-1.7-0.3c-0.9,0.4-1.5,1.6-1.5,2.7c0.1,1.1,0.8,1.8,2.1,2.2l0.1,0
			c1.8,1.4,2.3,3.1,2.4,3.6l0.1,0.5l-0.5-0.3c-1.6-0.8-5,1.7-6.8,5c-0.7,1.1-1.1,1.8-1.5,2.6c-0.6,1.1-1.1,2-2.3,3.4
			c0.2,0,0.4-0.1,0.5-0.1C31,52.2,31.4,52.1,31.8,52.1z"/>
	</g>
	<g>
		<path class="st5" d="M40.4,34.3c-0.3-0.3-1.1-1.1-0.7-1.8l0.4,0.3c-0.1,0.2,0.1,0.6,0.6,1.1L40.4,34.3z"/>
	</g>
	<g>
		<path class="st4" d="M31.4,51.9l-0.2-0.5l0.4-0.2c1.5-0.7,1.5-0.7,3.4-3.9l0.9-1.5l0.4,0.3l-0.9,1.5c-0.7,1.2-1.2,2-1.6,2.5
			c0.2,0.2,0.3,0.3,0.5,0.3c0,0,0,0,0,0c1.1,0,2.8-3,4-5l0.4-0.7l0.4,0.3l-0.4,0.7c-0.8,1.5-1.8,3.2-2.7,4.2c3.2,0.7,4.6-2.7,5.6-6
			l0.1-0.2l0.5,0.2l-0.1,0.2c-0.8,2.6-2.4,7.4-6.5,6.2c-0.4,0.4-0.8,0.6-1.2,0.6c-0.3,0-0.6-0.1-0.9-0.4c-0.5,0.5-0.9,0.7-1.7,1.1
			L31.4,51.9z"/>
	</g>
	<g>
		<rect x="40.5" y="32.2" transform="matrix(0.8139 -0.581 0.581 0.8139 -11.2699 29.6464)" class="st5" width="0.4" height="0.5"/>
	</g>
	<g>
		<path class="st1" d="M38.4,34.2c-0.1,0-0.1,0.1,0,0.2c0,0,0.1,0.1,0.2,0c0,0,0-0.1,0-0.2C38.5,34.2,38.4,34.2,38.4,34.2L38.4,34.2
			z"/>
		<path class="st5" d="M38.5,34.8c-0.1,0-0.2,0-0.3-0.1c-0.1-0.1-0.2-0.2-0.1-0.4c0-0.1,0.1-0.2,0.2-0.2c0.1-0.1,0.3-0.1,0.5,0
			l0.1,0l0,0.1c0.1,0.2,0.1,0.4,0,0.5C38.7,34.7,38.6,34.8,38.5,34.8L38.5,34.8z M38.6,34.3l-0.1,0.2c0,0,0,0,0,0
			C38.6,34.4,38.6,34.4,38.6,34.3C38.6,34.3,38.6,34.3,38.6,34.3z M38.5,34.2L38.5,34.2C38.5,34.2,38.4,34.3,38.5,34.2
			c-0.1,0.1-0.1,0.1-0.1,0.1L38.5,34.2C38.6,34.2,38.5,34.2,38.5,34.2z"/>
	</g>
	<g>
		<path class="st4" d="M27.7,63.8c-0.2,0-0.5,0-0.7-0.1l0.5-1.2c0,0,0.3,0.1,1.1-0.2c1.8-0.8,4.7-3.4,5.5-5.2l0.2-0.4l0.4,0
			c3,0,7-4.5,7.1-5.4l0.1-0.4l0.4-0.1c4-1,7.1-3.8,7.6-5.8l0.2-0.6l0.6,0.1c0.6,0.1,1.7-0.2,2.9-1.1c2.5-1.6,4.8-4.2,5-5.2l0.1-0.4
			l0.4-0.1c4.3-0.8,6.7-3.9,7.9-6.3l0.2-0.4h0.4c3.2,0,6.8-4.5,7-5.6l0.2-0.8l0.7,0.3c0.3,0.1,1.3,0,3-1.2c2.4-1.7,4.1-3.8,4.1-4.4
			l1.3-0.1c0.1,1.6-2.7,4.2-4.7,5.6c-1.1,0.8-2.5,1.5-3.6,1.5c-0.9,1.9-4.3,5.7-7.7,6c-1.8,3.6-4.7,5.8-8.2,6.6
			c-0.7,1.7-3.3,4.3-5.5,5.6c-1.3,0.8-2.4,1.3-3.3,1.3c-0.9,2.2-3.8,5-8,6.2c-0.8,1.9-4.6,5.8-7.9,6.1c-1.1,2.2-4,4.7-6,5.6
			C28.6,63.7,28.1,63.8,27.7,63.8z M37.2,59.9c-0.3,0-0.5,0-0.7-0.1l0.5-1.2c0.1,0.1,0.5,0,1-0.2c2-0.8,4.8-3.5,5.5-5.3l0.2-0.4
			l0.4,0c3.1,0,7-4.5,7.1-5.4l0.1-0.4l0.4-0.1c4.1-1,7.1-3.9,7.6-5.9l0.2-0.6l0.6,0.1c0.6,0.1,1.7-0.3,3-1.1c2.5-1.6,4.8-4.1,5-5.2
			l1.3,0.3c-0.4,1.7-3.2,4.5-5.6,6c-1.3,0.8-2.5,1.3-3.4,1.3c-0.9,2.3-3.8,5-8,6.2c-0.8,1.9-4.6,5.7-7.9,6.1
			c-1.1,2.2-4.1,4.8-6.1,5.6C38.1,59.8,37.6,59.9,37.2,59.9z"/>
	</g>
	<g>
		<path class="st1" d="M49.6,27.9c-1.5,0.3-1.8,0.4-3.2,0.8c-1.2-0.7,0.1-1,1.3-1.7c0.3-0.2,0.6-1.1,1.1-0.7c-1.7-2.9,4.9-5,5.2-0.2
			c0.8,1.6,2,2.6,2.8,3c-0.5-1.9,2.8-4.7,6.6-5.9c3.1-1.2,4.1-0.9,7.2-2.7c-0.4,1.3-1.2,2-0.9,3.1c0.3,7.1-3.3,8.2-7.1,10.7
			c-2.4,2.4-8.2,4.1-9.8-0.6C52.2,31.3,51.3,28.1,49.6,27.9L49.6,27.9z"/>
		<path class="st4" d="M57,36.8c-0.4,0-0.9,0-1.3-0.1c-1.5-0.4-2.6-1.4-3.2-3c-0.5-1.9-1.3-5.3-2.9-5.5l-0.9,0.2
			c-0.8,0.2-1.2,0.3-2.3,0.6l-0.1,0l-0.1-0.1c-0.3-0.2-0.6-0.4-0.6-0.7c0-0.4,0.5-0.7,1.2-1c0.2-0.1,0.4-0.2,0.7-0.4
			c0.1,0,0.2-0.2,0.3-0.3c0.1-0.2,0.3-0.4,0.5-0.5c-0.2-0.6-0.1-1.3,0.3-1.8c0.8-1,2.3-1.4,3.5-1c0.7,0.2,1.9,0.9,2.1,2.9
			c0.7,1.4,1.6,2.2,2.3,2.6c0.1-2,3.1-4.6,6.8-5.7c1.1-0.4,2-0.7,2.8-0.9c1.3-0.4,2.4-0.7,4.3-1.8l0.4,0.3c-0.1,0.5-0.3,0.9-0.5,1.2
			c-0.3,0.6-0.5,1.1-0.4,1.7c0.3,6.3-2.5,8-5.7,10c-0.5,0.3-1,0.6-1.5,0.9C61.5,35.7,59.1,36.8,57,36.8z M49.5,27.6L49.5,27.6
			c1.9,0.2,2.8,3.1,3.5,5.9c0.5,1.4,1.4,2.3,2.8,2.7c2.2,0.5,5.1-0.7,6.6-2.1c0.5-0.4,1-0.7,1.5-1c3.1-1.9,5.7-3.6,5.4-9.5
			c-0.2-0.7,0.1-1.4,0.4-2c0.1-0.2,0.2-0.3,0.2-0.5c-1.6,0.9-2.7,1.2-3.8,1.5c-0.8,0.2-1.6,0.5-2.8,0.9c-3.7,1.1-6.9,3.9-6.5,5.6
			l0.1,0.6l-0.5-0.3c-0.6-0.3-2-1.2-2.9-3.1l0-0.1c-0.1-1.3-0.7-2.2-1.7-2.5c-1-0.3-2.3,0-3,0.8c-0.3,0.4-0.5,0.9-0.1,1.7l-0.4,0.3
			c0,0-0.1,0-0.1,0h0c-0.1,0-0.2,0.2-0.3,0.3c-0.1,0.2-0.3,0.3-0.4,0.4c-0.2,0.1-0.5,0.3-0.7,0.4c-0.3,0.2-0.9,0.5-0.9,0.6
			c0,0,0,0.1,0.3,0.2c1.1-0.3,1.5-0.4,2.2-0.5L49.5,27.6z"/>
	</g>
	<g>
		<path class="st4" d="M59.2,31.1l-0.1-0.5l0.1,0c2.5-0.2,7.1-0.6,7.2-4.2c-1.2,0.6-2.9,1.2-4.5,1.7c-0.3,0.1-0.7,0.2-1,0.3
			l-0.2-0.5c0.3-0.1,0.6-0.2,1-0.3c2.1-0.6,5.3-1.6,5.6-2.7c0-0.2,0-0.4-0.2-0.6c-0.5,0.2-1.3,0.5-2.5,0.9c-0.5,0.2-1.2,0.4-1.9,0.7
			l-0.2-0.5c0.7-0.3,1.4-0.5,1.9-0.7c3.2-1.1,3.2-1.1,4.3-2.4l0.3-0.3l0.4,0.3l-0.3,0.3c-0.6,0.8-0.9,1.1-1.6,1.5
			c0.2,0.3,0.3,0.6,0.2,0.9c-0.1,0.4-0.4,0.7-0.9,1.1C67,30.5,61.7,30.9,59.2,31.1z M49.7,27.4c-0.3-0.3-0.7-0.9-1-0.8l-0.2-0.5
			c0.6-0.3,1.2,0.5,1.6,1L49.7,27.4z M48.3,27.3L47.9,27l0.3-0.3l0.4,0.4L48.3,27.3z"/>
	</g>
	<g>
		<path class="st1" d="M50.5,25.2c0,0,0.2,0,0.2,0c0,0.1,0,0.2,0,0.2c0,0-0.2,0-0.2,0C50.4,25.3,50.4,25.2,50.5,25.2L50.5,25.2z"/>
		<path class="st4" d="M50.6,25.7C50.6,25.7,50.5,25.7,50.6,25.7c-0.2,0-0.3-0.1-0.4-0.2c0-0.1-0.1-0.2-0.1-0.3
			c0-0.1,0.1-0.2,0.2-0.3c0.2-0.1,0.4,0,0.5,0.1l0,0.1c0.1,0.1,0.1,0.3,0,0.3c0,0.1-0.1,0.2-0.2,0.2C50.7,25.7,50.7,25.7,50.6,25.7z
			 M50.7,25.2l-0.1,0.1c0,0,0.1,0,0.1,0C50.7,25.4,50.7,25.3,50.7,25.2C50.7,25.3,50.7,25.3,50.7,25.2z M50.5,25.2
			c0,0-0.1,0.1,0,0.1l0.2-0.1C50.6,25.2,50.6,25.2,50.5,25.2C50.6,25.2,50.5,25.2,50.5,25.2z"/>
	</g>
	<g>
		<path class="st1" d="M120.1,22.1c0.9-0.7,1.7-1,2.4-1.1c0.7-0.1,1.2,0.2,1.6,0.7c0.4,0.5,0.4,1.1,0.2,1.7
			c-0.3,0.6-0.9,1.2-1.8,1.9c-0.9,0.6-1.7,1-2.4,1.1c-0.6,0-1.2-0.2-1.6-0.7c-0.3-0.5-0.4-1.1-0.1-1.7
			C118.7,23.4,119.3,22.7,120.1,22.1L120.1,22.1z M102.1,35.7l-6.6-9.1L94,27.7c-1.5,1-2.3,2-2.6,2.7c-0.3,0.7,0,1.6,0.6,2.8
			l0.9,1.2l-2.5,1.8l-2-2.8l-2-2.7l10.3-7.5l10.3-7.5l2,2.8l2,2.7l-2.5,1.8l-0.9-1.2c-0.9-1-1.7-1.5-2.5-1.5c-0.8,0-1.9,0.6-3.3,1.6
			l-1.5,1.1l6.5,9c0.4,0.5,0.8,0.8,1.2,0.7c0.4,0,1.1-0.3,2-1l1.4-1l1.2,1.6l-6,4.4l-6,4.4l-1.1-1.6l1.3-1c0.9-0.6,1.4-1.1,1.5-1.5
			C102.6,36.7,102.5,36.2,102.1,35.7L102.1,35.7z M88.8,44.9c0.9-0.7,1.7-1,2.4-1.1c0.7-0.1,1.2,0.1,1.6,0.6
			c0.4,0.6,0.4,1.1,0.1,1.7c-0.3,0.6-0.9,1.3-1.7,1.9c-0.9,0.6-1.7,1-2.4,1.1c-0.6,0-1.2-0.2-1.6-0.7c-0.4-0.5-0.4-1.1-0.1-1.7
			C87.3,46.2,87.9,45.5,88.8,44.9L88.8,44.9z M65.7,54.5l3.2-2.4c1.2-0.9,2.1-1.8,2.5-2.6c0.4-0.9,0.4-1.6,0-2.2
			c-0.6-0.8-1.2-1.1-2.1-1c-0.9,0.1-2,0.7-3.4,1.8l-3.2,2.4L65.7,54.5L65.7,54.5z M64.5,63l-5.6-7.8c-0.4-0.5-0.8-0.7-1.2-0.7
			c-0.4,0-1.1,0.4-1.9,1l-1.4,1l-1.2-1.5l5.9-4.4l8.2-6c2-1.4,3.7-2.2,5.3-2.4c1.5-0.2,2.6,0.3,3.4,1.3c0.8,1.1,0.9,2.4,0.2,3.7
			c-0.5,1-1.3,2-2.4,3.1c0.6-0.3,1.1-0.5,1.5-0.6c1.8-0.6,3.1-0.4,3.8,0.6l1.2,1.7c0.3,0.4,0.6,0.7,0.8,0.8c0.2,0.1,0.5,0.1,0.7,0
			c0.3-0.3,0.5-0.5,0.6-0.8c0-0.3,0-0.6-0.3-0.9l-1.2-1.6l2.1-1.5l1.2,1.6c0.7,0.9,0.8,1.8,0.4,2.7C84.3,53,83.4,54,81.9,55
			c-1.5,1.2-2.8,1.7-3.8,1.7c-1-0.1-2-0.7-2.9-2c-0.3-0.4-0.7-0.9-1.2-1.4c-0.4-0.4-0.9-0.6-1.5-0.6c-0.6,0-1.2,0.4-2,0.9L67,56.2
			l2.4,3.2c0.3,0.5,0.8,0.8,1.3,0.7c0.5-0.1,1.2-0.5,2.2-1.2l1.6-1.2l1.2,1.6l-6.2,4.6l-6.3,4.5L62,66.8l1.3-1
			c0.9-0.6,1.4-1.2,1.5-1.5C65,63.9,64.9,63.5,64.5,63L64.5,63z M55.4,69.1c0.9-0.6,1.6-1,2.4-1c0.7-0.1,1.2,0.1,1.5,0.6
			c0.4,0.5,0.4,1.1,0.2,1.7c-0.3,0.6-0.9,1.3-1.8,1.9c-0.9,0.7-1.7,1-2.3,1.1c-0.7,0.1-1.2-0.1-1.6-0.6c-0.3-0.5-0.4-1.1-0.1-1.7
			C54,70.4,54.5,69.7,55.4,69.1L55.4,69.1z M46,73.8c1.1,1.6,1.2,3.3,0.3,5.3c-0.9,1.9-2.7,3.9-5.6,6c-3.2,2.3-5.7,3.5-7.6,3.8
			c-1.9,0.3-3.5-0.5-4.7-2.3l-4.4-6.1c-0.4-0.6-0.8-0.8-1.2-0.8c-0.4,0-1,0.3-1.8,0.9l-1.2,0.9l-1.2-1.6l5.6-4.1l5.6-4.1l1.2,1.6
			l-1.2,0.9c-0.8,0.6-1.2,1-1.4,1.4c-0.1,0.3,0,0.8,0.4,1.3l3.8,5.2c1,1.5,2.2,2.2,3.4,2.2c1.2,0,2.8-0.6,4.5-1.8
			c1.8-1.3,2.8-2.6,3.1-3.8c0.3-1.2-0.1-2.7-1.1-4.1l-3.6-5c-0.4-0.6-0.8-0.8-1.2-0.8c-0.4,0-1.1,0.3-1.9,1l-1.4,1l-1.1-1.6l4.4-3.1
			l4.3-3.2l1.2,1.6l-1,0.7c-0.6,0.5-1,0.8-1,1.2c-0.1,0.3,0,0.8,0.5,1.3L46,73.8L46,73.8z"/>
		<path class="st2" d="M32.4,89c-1.6,0-3-0.8-4.1-2.3l-4.4-6.1c-0.4-0.5-0.7-0.8-1.1-0.8c-0.4,0-1,0.3-1.8,0.9l-1.3,0.9l-1.2-1.7
			l0.1,0l5.6-4.1l5.7-4.1l1.2,1.7l-0.1,0l-1.2,0.9c-0.7,0.5-1.2,1-1.3,1.4c-0.1,0.4,0,0.8,0.4,1.3l3.8,5.2c1,1.4,2.1,2.2,3.4,2.2
			c0,0,0.1,0,0.1,0c1.2,0,2.7-0.6,4.4-1.8c1.7-1.3,2.8-2.5,3.1-3.8c0.3-1.2,0-2.5-1.1-4l-3.6-5c-0.4-0.5-0.8-0.8-1.1-0.7
			c-0.3,0-0.9,0.2-1.9,1L34.4,71l0-0.1l-1.1-1.7l4.4-3.2l4.4-3.2l0,0.1l1.2,1.6l-1,0.8c-0.5,0.4-1,0.8-1,1.1
			c-0.1,0.3,0.1,0.8,0.5,1.3l4.4,6c1.1,1.6,1.2,3.4,0.3,5.4c-0.9,2-2.8,4-5.6,6c-3.3,2.3-5.8,3.6-7.6,3.8C32.9,88.9,32.6,89,32.4,89
			z M22.8,79.6c0.4,0,0.8,0.3,1.2,0.8l4.4,6.1c1.3,1.7,2.8,2.5,4.7,2.2c1.9-0.2,4.3-1.4,7.6-3.7c2.8-2,4.6-4,5.5-6
			c0.9-1.9,0.8-3.6-0.3-5.2l-4.4-6c-0.4-0.5-0.6-1-0.5-1.4c0-0.4,0.5-0.7,1-1.2l0.9-0.7l-1.1-1.5l-4.3,3.1l-4.3,3.1l1,1.5l1.4-1
			c0.8-0.6,1.5-0.9,2-1c0.4-0.1,0.9,0.2,1.3,0.8l3.6,5c1.1,1.5,1.5,2.9,1.1,4.2c-0.4,1.3-1.4,2.6-3.1,3.8c-1.7,1.2-3.2,1.9-4.4,1.9
			c0,0-0.1,0-0.1,0c-1.3,0-2.4-0.8-3.5-2.2L28.8,77c-0.4-0.5-0.5-1-0.4-1.4c0.2-0.4,0.7-0.9,1.4-1.4l1.2-0.8l-1.1-1.5l-5.6,4.1
			l-5.5,4l1.1,1.5l1.2-0.9C21.8,80,22.4,79.7,22.8,79.6L22.8,79.6z M55.1,73.5c-0.6,0-1-0.2-1.4-0.7c-0.4-0.5-0.4-1.2-0.1-1.8
			c0.3-0.7,0.9-1.3,1.8-1.9c0.9-0.7,1.7-1,2.4-1c0.7-0.1,1.2,0.1,1.6,0.7c0.4,0.5,0.5,1.1,0.2,1.8c-0.3,0.7-0.9,1.3-1.8,1.9
			c-1,0.8-1.8,1-2.3,1.1C55.3,73.5,55.2,73.5,55.1,73.5z M58,68.1c-0.1,0-0.2,0-0.3,0c-0.7,0-1.4,0.3-2.3,1l0,0
			c-0.9,0.6-1.4,1.2-1.7,1.9c-0.2,0.6-0.2,1.2,0.1,1.6c0.4,0.5,0.9,0.7,1.6,0.6c0.5-0.1,1.3-0.3,2.3-1.1c0.9-0.6,1.5-1.2,1.7-1.9
			c0.3-0.6,0.2-1.2-0.2-1.6C59,68.3,58.6,68.1,58,68.1z M63.1,68.5L63.1,68.5l-1.2-1.6l1.4-1c1.1-0.8,1.4-1.2,1.5-1.5
			c0.1-0.4,0-0.8-0.4-1.3l-5.6-7.8c-0.4-0.5-0.8-0.7-1.1-0.7c-0.4,0-1,0.4-1.9,1l-1.4,1l-1.2-1.6l0.1,0l5.9-4.4l8.2-6
			c2-1.4,3.7-2.2,5.3-2.4c1.5-0.2,2.7,0.2,3.5,1.3c0.8,1.2,0.9,2.4,0.2,3.8c-0.4,0.9-1.1,1.8-2.1,2.8c0.4-0.2,0.8-0.4,1.2-0.5
			c1.8-0.6,3.1-0.4,3.9,0.6l1.2,1.7c0.3,0.3,0.5,0.7,0.8,0.7c0.2,0.1,0.4,0.1,0.6,0c0.3-0.3,0.5-0.5,0.5-0.7c0-0.2,0-0.5-0.2-0.9
			l-1.3-1.6l0.1,0l2.1-1.6l0,0.1l1.2,1.6c0.7,1,0.8,1.9,0.4,2.8c-0.3,1-1.3,2-2.8,3c-1.5,1.1-2.7,1.7-3.7,1.7c0,0-0.1,0-0.1,0
			c-1.1-0.1-2.1-0.8-3-2c-0.3-0.4-0.7-0.9-1.2-1.4c-0.4-0.4-0.9-0.6-1.4-0.6c-0.5,0-1.2,0.4-2,0.9l-3.5,2.5l2.3,3.2
			c0.3,0.5,0.8,0.8,1.2,0.7c0.5-0.1,1.2-0.5,2.2-1.2l1.6-1.3l0,0.1l1.2,1.6l-0.1,0l-6.2,4.6L63.1,68.5z M62.1,66.9l1.1,1.4l6.2-4.5
			l6.1-4.5l-1.1-1.5L72.9,59c-1,0.7-1.8,1.1-2.3,1.2c-0.5,0-1-0.2-1.3-0.8l-2.4-3.3l0.1,0l3.5-2.5c0.8-0.6,1.5-0.9,2-1
			c0.6,0,1.1,0.2,1.5,0.6c0.5,0.5,0.9,0.9,1.2,1.4c0.9,1.2,1.8,1.9,2.9,1.9c0,0,0.1,0,0.1,0c1,0,2.2-0.6,3.7-1.7
			c1.5-1,2.4-2,2.7-2.9c0.4-0.9,0.2-1.8-0.4-2.7L83,47.8l-2,1.5l1.2,1.5c0.2,0.4,0.3,0.7,0.3,0.9c0,0.2-0.2,0.5-0.6,0.8
			c-0.3,0.2-0.5,0.2-0.8,0c-0.3-0.1-0.5-0.4-0.8-0.8l-1.2-1.7c-0.7-1-1.9-1.2-3.7-0.6c-0.5,0.1-0.9,0.3-1.5,0.6l-0.1-0.1
			c1.1-1.1,2-2.1,2.4-3.1c0.7-1.3,0.6-2.5-0.2-3.7c-0.8-1-1.9-1.5-3.4-1.3c-1.6,0.2-3.3,1-5.3,2.4l-8.2,6l-5.9,4.3l1.1,1.4l1.3-0.9
			c0.9-0.6,1.5-1,2-1h0c0.4,0,0.8,0.2,1.3,0.7l5.6,7.8c0.4,0.6,0.5,1,0.4,1.5c-0.2,0.4-0.8,1-1.6,1.5L62.1,66.9z M65.7,54.6
			L65.7,54.6l-3-4.2l0.1,0L66,48c1.5-1.1,2.6-1.6,3.4-1.8c0.8-0.1,1.5,0.2,2.1,1c0.5,0.6,0.5,1.4,0,2.3c-0.4,0.9-1.3,1.8-2.5,2.7
			L65.7,54.6z M62.9,50.4l2.9,4l3.2-2.3c1.2-0.9,2.1-1.8,2.5-2.6c0.4-0.8,0.4-1.6,0-2.2c-0.5-0.8-1.2-1.1-2-1
			c-0.8,0.1-1.9,0.7-3.4,1.7L62.9,50.4z M88.6,49.2c-0.6,0-1.1-0.2-1.5-0.7c-0.4-0.5-0.4-1.1-0.1-1.8c0.3-0.7,0.9-1.4,1.7-1.9
			c0.8-0.6,1.6-1,2.4-1.1c0.7-0.1,1.2,0.1,1.6,0.7c0.4,0.5,0.4,1.1,0.1,1.8c-0.2,0.6-0.8,1.3-1.7,1.9c-1,0.7-1.7,1-2.4,1.1
			C88.7,49.2,88.7,49.2,88.6,49.2z M91.4,43.9c-0.1,0-0.2,0-0.3,0c-0.8,0.1-1.6,0.5-2.3,1.1l0,0c-0.8,0.5-1.4,1.2-1.7,1.9
			c-0.3,0.6-0.2,1.2,0.1,1.6c0.4,0.5,0.9,0.7,1.5,0.7c0.6,0,1.4-0.4,2.3-1.1c0.9-0.7,1.4-1.3,1.7-1.9c0.3-0.6,0.2-1.1-0.1-1.6
			C92.3,44.1,91.9,43.9,91.4,43.9z M100.7,41.2L100.7,41.2l-1.2-1.7l0,0l1.3-1c0.9-0.6,1.4-1.1,1.5-1.5c0.2-0.3,0.1-0.8-0.3-1.3
			l-6.5-9L94,27.8c-1.4,1-2.3,1.9-2.5,2.7c-0.2,0.7,0,1.5,0.6,2.8l0.9,1.2l-0.1,0l-2.5,1.8l-4-5.6l10.3-7.5l10.4-7.5l2,2.8l2,2.8
			l-0.1,0l-2.5,1.8l0-0.1l-0.9-1.2c-0.8-1-1.7-1.5-2.4-1.5c-0.7,0-1.8,0.5-3.3,1.6l-1.4,1.1l6.5,9c0.4,0.5,0.8,0.7,1.1,0.7
			c0.5,0,1.2-0.4,1.9-1l1.5-1.1l1.2,1.7l-6,4.4L100.7,41.2z M99.6,39.5l1,1.5l6-4.3l5.9-4.3l-1.1-1.5l-1.4,1c-0.8,0.6-1.5,0.9-2,1
			c-0.4,0-0.8-0.2-1.3-0.8l-6.6-9.1l1.5-1.1c1.5-1.1,2.6-1.6,3.4-1.6c0.8,0,1.7,0.5,2.5,1.5l0.8,1.1l2.4-1.7l-2-2.7l-2-2.7
			l-10.2,7.4l-10.2,7.4l1.9,2.7l2,2.7l2.4-1.7L92,33.3c-0.7-1.3-0.9-2.2-0.6-2.9c0.3-0.8,1.2-1.7,2.6-2.7l1.6-1.1l0,0.1l6.6,9.1
			c0.4,0.6,0.5,1,0.3,1.4c-0.1,0.4-0.6,1-1.6,1.6L99.6,39.5z M120,26.5c-0.6,0-1.1-0.2-1.5-0.7c-0.4-0.6-0.4-1.2-0.1-1.8
			c0.3-0.6,0.9-1.3,1.7-1.9c0.8-0.6,1.6-1,2.4-1.1c0.1,0,0.2,0,0.3,0c0.6,0,1.1,0.3,1.4,0.7c0.4,0.5,0.5,1.1,0.2,1.8
			c-0.3,0.7-0.9,1.3-1.8,1.9c-0.9,0.6-1.7,1-2.4,1.1C120.1,26.5,120,26.5,120,26.5z M122.7,21.1c-0.1,0-0.2,0-0.2,0
			c-0.8,0.1-1.5,0.4-2.3,1.1l0,0c-0.8,0.6-1.4,1.2-1.7,1.9c-0.3,0.6-0.2,1.1,0.1,1.6c0.4,0.5,0.9,0.7,1.5,0.7
			c0.7-0.1,1.4-0.4,2.3-1.1c0.8-0.6,1.4-1.2,1.7-1.9c0.3-0.6,0.2-1.2-0.2-1.6C123.7,21.3,123.3,21.1,122.7,21.1z"/>
	</g>
	<g>
		<path class="st1" d="M16.6,106c3.6,5,8.2,9,13.5,12.5c0.1,0.1,0.2,0.1,0.3,0.2V95.8C25.8,99.2,21.2,102.6,16.6,106L16.6,106z
			 M46.4,127.2c6.5,3.1,13,6.1,19.1,9.7l0-67.1c-6.3,4.7-12.7,9.4-19.1,14.1L46.4,127.2L46.4,127.2z M82.5,137
			c5.6-3.4,11.6-6.3,17.5-9.1l0-83.7c-5.9,4.3-11.7,8.6-17.5,13L82.5,137L82.5,137z M137.6,85.2c-0.6-6.7-3.1-12.5-6.5-18.1
			l-1.9-2.6l-1.7-3l-1.5-3.1l-1.1-3.2l-0.8-3.2l-0.5-3.3l-0.2-3.2l0-3.3l0.4-3.2l0.6-3.2l0.9-3.2c1.4-3.5,2.9-7.4,5.2-10.6
			c-4.5,3.2-8.8,6.5-13.2,9.7l-0.1,87.4c2.4-1.5,4.6-3.1,6.8-4.9c5.5-4.5,9.9-10.3,12.3-17.1C137.4,93,137.9,89.4,137.6,85.2
			L137.6,85.2z"/>
		<path class="st2" d="M82.5,137.1V137l0.1-79.9l0,0c5.7-4.2,11.5-8.5,17.1-12.7l0.4-0.3v0.1l0,83.7l0,0
			C94.7,130.5,88.4,133.5,82.5,137.1L82.5,137.1z M82.7,57.2l-0.1,79.7c5.8-3.5,12-6.5,17.4-9l0-83.5l-0.2,0.2
			C94.2,48.7,88.3,53,82.7,57.2z M65.5,137.1L65.5,137.1c-5.5-3.3-11.4-6.1-17-8.8c-0.7-0.3-1.4-0.7-2.1-1l0,0v0l0-43.3l0,0
			c6.3-4.6,12.7-9.4,19.1-14.1l0.1-0.1v0.1L65.5,137.1z M46.5,127.2c0.7,0.3,1.4,0.7,2.1,1c5.6,2.7,11.4,5.4,16.8,8.7l0-66.9
			c-6.3,4.6-12.7,9.4-18.9,14L46.5,127.2z M117.1,119.1v-0.1l0.1-87.4l0,0c4.3-3.2,8.7-6.5,13.2-9.7l0.1,0.1
			c-2.2,3.1-3.7,6.8-5.2,10.6l-0.9,3.2l-0.6,3.2l-0.4,3.2l0,3.3l0.2,3.2l0.5,3.3l0.8,3.2l1.1,3.2l1.5,3.1l1.7,3l1.9,2.6
			c3.9,6.3,6,12.1,6.6,18.2l0,0c0.3,4.1-0.2,7.7-1.4,11.7c-2.2,6.4-6.5,12.3-12.3,17.1C122,115.8,119.8,117.4,117.1,119.1
			L117.1,119.1z M117.4,31.6l-0.1,87.3c2.5-1.6,4.7-3.1,6.6-4.8c5.8-4.8,10-10.7,12.2-17.1c1.2-4,1.7-7.6,1.4-11.7
			c-0.6-6-2.7-11.8-6.5-18.1l-1.9-2.6l-1.7-3l-1.5-3.1l-1.1-3.2l-0.8-3.3l-0.5-3.3l-0.2-3.3l0-3.3l0.4-3.3l0.6-3.3l0.9-3.2
			c1.4-3.7,2.9-7.3,5-10.3C125.9,25.2,121.5,28.5,117.4,31.6z M30.5,118.8L30.5,118.8c-0.2-0.1-0.3-0.1-0.4-0.2
			c-5.8-3.8-10.2-7.9-13.5-12.5l0-0.1l0.1,0c3.1-2.3,6.2-4.6,9.2-6.8c1.6-1.1,3.1-2.3,4.7-3.4l0.1-0.1V118.8z M16.6,106
			c3.3,4.6,7.7,8.6,13.5,12.4c0.1,0.1,0.2,0.1,0.2,0.1V95.9c-1.5,1.1-3,2.2-4.6,3.4C22.8,101.5,19.7,103.8,16.6,106z"/>
	</g>
</g>
</svg>
