<?xml version="1.0" encoding="UTF-8"?>
<!DOCTYPE svg PUBLIC "-//W3C//DTD SVG 1.1//EN" "http://www.w3.org/Graphics/SVG/1.1/DTD/svg11.dtd">
<!-- Creator: CorelDRAW 2019 (64 Bit) -->
<svg xmlns="http://www.w3.org/2000/svg" xml:space="preserve" width="160.646mm" height="223.362mm" version="1.1" style="shape-rendering:geometricPrecision; text-rendering:geometricPrecision; image-rendering:optimizeQuality; fill-rule:evenodd; clip-rule:evenodd"
viewBox="0 0 1430.56 1989.06"
 xmlns:xlink="http://www.w3.org/1999/xlink">
 <defs>
  <style type="text/css">
   <![CDATA[
    .fil1 {fill:#FEFEFE;fill-rule:nonzero}
    .fil0 {fill:black;fill-rule:nonzero}
    .fil3 {fill:red;fill-rule:nonzero}
    .fil4 {fill:white;fill-rule:nonzero}
    .fil2 {fill:black;fill-rule:nonzero}
   ]]>
  </style>
 </defs>
 <g id="Camada_x0020_1">
  <metadata id="CorelCorpID_0Corel-Layer"/>
  <path class="fil0" d="M349.38 41.66c163.09,233.09 38.59,745.7 -341.91,357.49 -6.26,62.79 -7.47,178.08 -7.47,237.72 0,222.34 40.12,429.83 119.24,616.7 117.83,278.3 312.54,567.04 590.16,735.49 277.61,-168.45 484.1,-457.19 601.93,-735.49 79.12,-186.88 119.23,-394.36 119.23,-616.7 0,-59.64 -5.72,-156.91 -11.98,-219.71 -298.01,249.12 -483.71,-18.51 -332.68,-375.5 -85.66,-25.93 -222.36,-41.66 -368.26,-41.66 -145.9,0 -282.61,15.73 -368.26,41.66z"/>
  <path class="fil1" d="M1385.93 666.18c0,-47.26 -2.31,-97.37 -6.62,-149.04 -148.62,92.24 -272.7,79.45 -364.05,-57.47l-892.05 726.75c7.04,18.88 14.45,37.57 22.27,56.04 43.76,103.36 99.32,199.41 166.25,287.91l1074.1 -848.23c0.05,-5.32 0.09,-10.63 0.09,-15.97z"/>
  <path class="fil1" d="M281.43 1183.6c3.02,0 -13.41,24.57 -10.87,20.62 44.6,5.05 84.35,35.8 130.09,14.44 -38.21,-12.72 -78.44,-46.82 -119.22,-35.06z"/>
  <path class="fil2" d="M552 1234.08c-52.69,-14.19 -108.73,-14.76 -160.89,-30.14 -40.26,-11.87 -75.53,-39.45 -118.18,-18.08 45.83,-12.75 85.8,16.99 127.72,29.78 -19.56,8.4 -42.15,8.88 -62.76,4.66 -26.26,-5.37 -54.84,-27.24 -81.51,-11.28 34.31,0 63.53,18.34 96.91,21.74 24.11,2.46 59.17,-15.02 81.08,-7.13 -9.44,-3.4 -33.42,13.31 -42.7,16.59 70.21,-20.32 117.2,-6.99 185.41,10.39 -5.44,8.16 -5.69,14.09 -16.08,17.49 26.68,4.76 36.62,10.26 58.47,6.77 23.92,-3.81 45.21,12.39 68.35,16.38 13.95,2.41 25.07,-4.59 38.62,-5.21 22.07,-0.97 44.18,1.2 65.86,-4.23 -28.54,-8.48 -58.64,3.83 -86.99,-6.39 -28.92,-10.44 -59.28,-15.33 -89.45,-20.55 59.61,-23.45 108.88,0.91 165.56,19.37 -12.57,-12.57 9.88,-6.14 15.62,-6.14 -20.07,-4.02 -38.29,-13.8 -57.72,-19.84 13.41,-3.48 105.08,-21.92 102.64,3.29 17.51,-17.41 38.47,-6.62 57.53,1.03 22.1,8.88 45.26,5.98 67.83,0.86 -27.31,-8.12 -57.49,-5.75 -82.35,-21.51 -25.35,-16.08 -56.63,-2.19 -83.68,-0.25 34.42,-18.64 72,-39.4 112.63,-31.69 26.08,4.95 56.95,-11.46 82.74,-22.67 -15.77,-0.79 -30.61,7.28 -44.84,12.81 -17.45,6.78 -26.73,3.19 -44.53,1.5 -37.42,-3.57 -72.95,21.44 -106.47,34.34 -41.03,15.78 -70.15,8.15 -112.03,7.48 -45.76,-0.73 -91.26,10.06 -136.76,0.61z"/>
  <g id="_2645920490768">
   <path class="fil2" d="M721.98 208.49c0.16,2.09 0.19,4.23 0.53,6.3 0.39,2.37 1.34,4.37 2.23,6.59 1.62,4.03 5.32,7.21 7.9,10.64 -6.02,2.26 -11.91,4.86 -18.15,6.42 -3.12,0.78 -6.22,1.61 -9.32,2.44 -2.66,0.71 -5.68,0.67 -8.42,1.01 -13.28,1.64 -27.02,0.78 -40.39,0.78 -6.23,0 -12.82,1.75 -18.99,2.63 -6.25,0.89 -12.57,3.27 -18.68,4.87 -2.51,0.66 -4.99,1.99 -7.39,2.96 -3.66,1.48 -7.32,2.96 -10.98,4.44 -5.31,2.15 -11.75,2.63 -17.36,3.75 -6.19,1.23 -12.8,0.89 -19.09,0.89 -3.17,0 -6.07,-1.05 -9.18,-1.62 -3.51,-0.64 -6.89,-1.58 -10.33,-2.52 -5.93,-1.62 -11.72,-3.91 -17.21,-6.66 -2.36,-1.18 -5.99,-3.84 -8.77,-3.84 -1.23,0 -1.14,-0.04 -1.53,1.12 -0.2,0.59 -1.06,0.63 -1.4,1.1 -0.93,1.28 -0.21,2.85 0.44,3.99 2.87,4.99 6.49,10.04 10.21,14.44 4.18,4.94 8.28,11.02 13.29,15.19 5.09,4.24 10.37,8.66 16.04,12.1 5.62,3.41 11.88,5.77 18.01,8.04 11.48,4.25 24.75,4.67 36.88,3.94 12.74,-0.76 25.4,-1.16 38.16,-0.27 7.13,0.5 14.27,0.92 21.38,1.63 3.41,0.34 6.64,0.91 10.01,1.59 2.89,0.58 6.04,0.71 8.84,1.51 6.23,1.77 11.96,4.2 17.77,7.11 5.9,2.95 10.88,6.49 15.93,10.7 1.92,1.6 3.85,3.21 5.77,4.81 -18.38,20.14 -36.76,40.28 -55.14,60.41 -0.59,0.65 -1.3,0.4 -2.18,0.4 -3.12,0 -6.24,0 -9.36,0 -9.33,0 -18.66,0 -27.98,0 -3.52,0 -7.05,0 -10.57,0 -1.17,0 -3.8,-0.44 -4.35,0.65 -0.28,0.55 -1.24,0.79 -1.77,1.05 -0.39,0.2 -0.64,0.94 -0.85,1.3 -0.78,1.34 -2.07,2.87 -2.45,4.39 -0.24,0.97 -0.51,4.46 -1.27,5.03 -0.67,0.51 -3.68,0 -4.49,0 -3.16,0 -6.9,-0.75 -9.72,0.89 -2.19,1.27 -4.21,4.42 -5.1,6.75 -0.66,1.72 -1.32,3.45 -1.98,5.17 -0.14,0.36 -4.1,0.07 -4.55,0.07 -2.37,0 -6.96,-0.76 -8.85,1.39 -2.32,2.65 -3.46,4.52 -4.69,7.81 -1.15,3.1 -1.23,5.71 -0.63,8.96 1.02,5.47 2.48,12.91 9.35,12.91 0.94,0 10.23,-0.07 10.23,0.07 0,3.49 0.06,6.91 0.3,10.39 0.45,6.34 0.67,12.88 0.15,19.2 -0.13,1.57 -0.01,3.2 -0.01,4.78 0,1.28 -0.45,2.51 -0.45,3.9 0,1.61 0,3.23 0,4.84 0,1.74 0.47,2.1 -1.22,2.1 -4.29,0 -8.58,0 -12.87,0 -0.93,0 -1.97,-0.19 -2.81,0.23 -1.46,0.74 -2,0.59 -2.91,1.91 -1.82,2.65 -4.35,5.22 -4.94,8.42 -0.33,1.79 -0.67,3.58 -1,5.37 -0.04,0.19 -2.65,0.06 -2.89,0.06 -4.45,0 -8.9,0 -13.35,0 -0.87,0 -2.02,-0.2 -2.88,0 -0.27,0.07 -0.63,-0.1 -0.89,0 -0.23,0.09 -0.22,0.78 -0.44,0.88 -0.58,0.27 -1.57,0.09 -1.91,0.67 -1.85,3.19 -3.35,6.09 -4.68,9.53 -0.58,1.51 -0.51,1.34 -2.11,1.34 -2.32,0 -4.65,0 -6.97,0 -2.33,0 -5.41,0.17 -6.91,2.3 -2,2.85 -3.71,5.51 -4.96,8.79 -2.09,5.53 -2.69,12.81 0.04,18.28 1.68,3.38 3.28,5.58 5.81,8.39 1.05,1.16 1.43,1.3 3.02,1.3 1.29,0 2.58,0 3.86,0 3.86,0 7.73,0 11.59,0 0.28,0 0.45,9.02 0.48,9.95 0.23,6.13 0.13,12.27 -0.36,18.38 -0.48,5.92 0.14,11.97 -1.2,17.82 -1.44,6.33 -2.55,13.18 -4.98,19.21 -0.58,1.44 -1.15,2.88 -1.73,4.31 -0.55,1.36 -0.53,2.83 -1.05,4.16 -0.38,0.99 -2.9,9.17 -3.51,9.17 -3.68,0 -7.36,0 -11.04,0 -17.99,0 -35.99,0 -53.98,0 -7.34,0 -14.68,0 -22.02,0 -1.73,0 -3.46,0 -5.19,0 -0.27,0 -0.54,0 -0.81,0 -0.89,0 -0.72,0.88 -1.31,0.88 -1.46,0 -0.93,0.17 -1.57,1.33 -1.2,2.2 -2.59,4.32 -3.88,6.47 -1.09,1.81 -1.26,4.76 -1.77,6.82 -1.15,4.62 -0.41,9.02 1.21,13.35 -4.83,0 -9.66,0 -14.49,0 -1.76,0 -2.27,0.39 -3.93,0.95 -1.76,0.6 -0.3,0.76 -1.18,1.78 -0.85,0.99 -1.7,1.98 -2.55,2.96 -2.11,2.46 -3.44,7.9 -3.64,10.98 -0.32,4.92 -0.39,8.43 1.35,13.06 -1.25,0 -8.51,-0.79 -9,0.23 -0.47,0.97 -1,0.45 -1.67,1.1 -0.33,0.32 -0.31,1.13 -0.57,1.56 -0.98,1.68 -1.96,3.36 -2.94,5.03 -1.48,2.54 -2.07,6.34 -2.85,9.17 -0.78,2.81 0.14,6.29 0.42,9.19 0.61,6.35 5.6,11.55 9.46,16.27 0.6,0.73 4.19,0.5 5.21,0.5 3.71,0 7.42,0 11.12,0 8.59,0 17.17,0 25.76,0 1.87,0 2.7,-0.62 3.03,1.26 0.73,4.21 1.46,8.42 2.2,12.63 1.08,6.24 2.04,12.49 2.99,18.75 0.93,6.08 2.14,12.38 2.14,18.54 0,3.26 0.97,6.41 1.34,9.64 0.36,3.09 0.4,6.24 0.6,9.34 0.41,6.38 0.75,12.7 0.9,19.09 0.3,12.95 0.22,25.88 -0.65,38.81 -0.48,7.15 -1,14.27 -1.65,21.4 -0.52,5.68 -0.55,11.27 -1.49,16.93 -2.12,12.68 -3.89,25.54 -7.16,37.98 -3.24,12.36 -5.79,25.06 -9.83,37.18 -4.31,12.94 -8.35,26.09 -13.97,38.52 -2.33,5.15 -4.08,10.52 -6.41,15.67 -1.84,4.07 -3.69,8.14 -5.53,12.22 -1.03,2.27 -1.99,4.46 -3.7,6.34 -2.51,2.75 -5.03,5.51 -7.54,8.26 -0.27,0.29 -1.41,1.95 -1.84,1.92 -1.27,-0.11 -2.54,-0.21 -3.81,-0.32 -4.51,-0.37 -9.02,-0.75 -13.53,-1.12 -2.45,-0.2 -4.9,-0.84 -7.01,0.55 -2.34,1.55 -2.29,4.84 -2.82,7.48 -0.69,3.42 -1.49,6.84 -2.08,10.28 -0.94,5.54 -1.87,11.26 -2.27,16.86 -1.01,14.13 -2.09,28.21 -2.51,42.37 -0.38,12.78 0.87,25.39 2.14,38.09 1.28,12.83 2.06,25.65 4.42,38.33 0.5,2.69 0.58,6.16 1.79,8.63 0.48,0.99 0.46,0.89 1.59,0.89 0.88,0 0.42,0.37 1.29,0.67 1.03,0.34 2.07,0.66 3.1,0.99 6.17,1.94 12.32,3.94 18.52,5.75 12.46,3.65 24.96,6.83 37.64,9.64 25.44,5.65 51.22,10.15 77.17,12.72 25,2.48 49.97,4.07 75.1,4.56 13.23,0.25 26.63,1.18 39.85,0.68 14.92,-0.57 29.83,-1.14 44.75,-1.71 26.4,-1.01 52.77,-2.87 79.17,-3.92 3.58,-0.14 7.15,-0.28 10.72,-0.43 1.49,-0.06 3.77,0.26 5.13,-0.12 7.16,-1.97 14.32,-3.93 21.48,-5.9 5.63,-1.55 11.77,-2.22 17.53,-3.36 5.33,-1.05 11.02,-1.58 16.18,-3.12 13.34,-3.97 26.68,-7.61 40.15,-11.11 0.55,-0.14 1.32,-1.05 2.01,-1.3 2.1,-0.78 4.2,-1.55 6.3,-2.33 2.56,-0.95 5.11,-1.87 7.71,-2.7 6.1,-1.96 12.17,-3.96 18.23,-6.02 4.28,-1.45 8.56,-2.9 12.83,-4.35 2,-0.68 4.15,-0.92 6.02,-1.75 3.25,-1.45 5.82,-1.98 9.38,-1.98 3.08,0 6.04,-0.89 9.17,-0.89 3.11,0 6.21,-0.44 9.31,-0.44 1.79,0 3.58,0 5.37,0 1.64,0 1.98,-0.44 3.23,-0.44 3.06,0 2.97,-3.62 3.17,-5.98 0.34,-4.08 0.68,-8.16 1.02,-12.24 1.06,-12.7 0.58,-25.41 1.49,-38.11 0.43,-5.95 0.14,-11.81 -0.03,-17.77 -0.2,-6.55 -0.16,-13.14 -0.54,-19.68 -0.43,-7.57 -0.86,-15.12 -1.53,-22.67 -0.19,-2.2 0.35,-8.89 -2.02,-10.32 -3.22,-1.95 -7.39,-1.61 -11.11,-1.96 5.44,-11.26 10.88,-22.52 16.32,-33.79 2.77,-5.74 5.94,-11.43 8.33,-17.34 2.98,-7.38 5.96,-14.76 8.93,-22.13 4.22,-10.46 8.47,-21.06 11.7,-31.87 4.18,-14 8.14,-27.99 11.92,-42.1 2.95,-11.01 4.87,-22.41 6.69,-33.67 1.07,-6.61 2.62,-13.33 3.2,-20 0.68,-7.7 1.35,-15.4 2.03,-23.1 2.24,-25.45 1.07,-50.87 0.18,-76.35 -0.24,-6.86 -1.73,-13.87 -2.58,-20.68 -0.71,-5.71 -1.67,-11.37 -2.58,-17.05 -2,-12.44 -4.22,-24.93 -7.33,-37.15 -2.06,-8.09 -4.12,-16.18 -6.18,-24.27 7.09,0 14.19,0 21.29,0 0.99,0 1.99,0 2.99,0 1.5,0 2.27,-2.13 2.72,-3.2 1.16,-2.78 2.68,-5.85 3.22,-8.82 0.57,-3.14 1.66,-6.54 1.77,-9.73 0.11,-3.07 -0.35,-6.73 -0.89,-9.76 -0.26,-1.47 -0.84,-2.95 -1.26,-4.38 -0.39,-1.37 -0.59,-3.77 -1.41,-4.94 -0.93,-1.32 -3.22,-2.22 -4.81,-2.22 -25.49,0 -50.98,0 -76.47,0 0.66,-1.54 1.32,-3.07 1.98,-4.6 0.52,-1.21 0.74,-2.8 1.45,-3.86 1.88,-2.79 3.18,-5.47 4.51,-8.57 1.06,-2.45 2.62,-4.87 3.31,-7.44 0.91,-3.43 1.85,-6.75 3.04,-10.09 2.01,-5.64 3.93,-11.78 4.63,-17.73 0.41,-3.45 0.82,-6.9 1.26,-10.34 0.37,-2.99 0.25,-5.96 0.61,-8.96 1.58,-12.96 0.46,-26.33 0.09,-39.39 6.78,0 13.57,0 20.35,0 3.02,0 4.21,-3.12 4.87,-5.42 0.99,-3.44 1.93,-6.8 2.63,-10.31 1.27,-6.35 -0.26,-12.18 -2.37,-18.14 -0.84,-2.36 -1.84,-5.63 -5.05,-5.63 -1.2,0 -2.39,0 -3.59,0 -25.16,0 -50.32,0 -75.48,0 1.02,-2.73 2.5,-5.12 3.57,-7.79 1.29,-3.23 2.12,-6.22 3.09,-9.52 0.98,-3.36 1.99,-6.51 2.76,-9.96 0.72,-3.23 0.83,-6.57 1.14,-9.86 0.63,-6.61 1,-13 1,-19.64 0,-3.15 -0.21,-6.3 -0.34,-9.44 -0.05,-1.24 -0.11,-2.47 -0.11,-3.72 0,-0.45 3.11,-0.21 3.57,-0.21 1,0 10.2,0.24 10.2,-0.22 0,-0.22 1.97,-0.67 2.44,-0.67 1.09,0 1.73,-2.36 1.97,-3.23 0.92,-3.32 1.79,-6.46 2.25,-9.86 0.46,-3.44 0.05,-6.29 -0.41,-9.76 -0.35,-2.58 -2.07,-6.14 -4.47,-7.33 -1.16,-0.58 -2.36,-0.44 -3.64,-0.44 -6.21,0 -12.42,0 -18.64,0 -17.99,0 -35.97,0 -53.96,0 -2.56,0 -5.12,0 -7.68,0 -0.38,0 -2.02,0.25 -2.31,-0.05 -2.54,-2.72 -5.07,-5.45 -7.61,-8.18 -20.89,-22.45 -41.77,-44.91 -62.66,-67.36 -0.43,-0.46 -0.3,-0.85 -0.3,-1.51 0,-2.19 0,-4.38 0,-6.56 0,-8.14 0,-16.28 0,-24.43 0,-16.11 0,-32.22 0,-48.33 0,-1.45 -0.43,-2.28 0.89,-2.94 1.22,-0.6 2.17,-0.83 3.15,-1.8 1.3,-1.3 2.79,-2.54 3.96,-3.96 2.02,-2.45 3.2,-5.37 4.88,-8 0.84,-1.32 1.71,-2 2.15,-3.51 0.41,-1.43 1.19,-3.02 1.41,-4.48 0.1,-0.64 0,-1.35 0,-2 0,-0.29 0,-0.59 0,-0.88 0,-0.55 0.38,0.02 0.44,-0.22 0.4,-1.56 0.42,-2.84 0.22,-4.39 -0.48,-3.61 -1.2,-6.68 -2.28,-10.17 -1.88,-6.05 -7.31,-10.71 -11.96,-14.59 -1.81,-1.51 -4.63,-2.43 -6.82,-3.37 -2.84,-1.21 -5.7,-1.31 -8.75,-1.55 -5.7,-0.44 -11.09,0.91 -16.15,3.43 -2.89,1.44 -4.62,3.28 -6.92,5.58 -1.68,1.69 -3.97,3.31 -5.04,5.46 -1.43,2.85 -2.53,5.4 -3.47,8.44 -0.85,2.76 -0.82,5.61 -1.01,8.48zm17.78 186.88l0 0c-9.92,0 -19.84,0 -29.76,0 10.22,-12.73 20.43,-25.45 30.65,-38.18 -0.3,12.73 -0.59,25.45 -0.89,38.18zm59.52 0l0 0c-6.3,0 -12.6,0 -18.9,0 -3.64,0 -7.28,0 -10.92,0 -1.58,0 -2.16,0.51 -2.16,-1.08 0,-12.96 0,-25.92 0,-38.87 10.66,13.32 21.32,26.63 31.98,39.95z"/>
   <path class="fil1" d="M729.54 208.49c0.32,2.84 0.52,6.17 1.95,8.73 1.41,2.52 3.01,6.03 5.34,7.83 2.45,1.89 6.12,3.69 6.93,6.97 1.01,4.11 -3.01,5.08 -5.87,6.2 -2.7,1.05 -11,-4.76 -13.57,-3.47 -18.76,-1.46 -30.69,-2.59 -46.38,9.17 -6.84,0.34 -7.8,6.74 -14.66,6.74 -13.41,0 -26.27,3.03 -39.22,6.27 -6.35,1.59 -12.34,4.43 -18.41,6.86 -2.54,1.02 -5.01,1.65 -7.68,2.32 -2.84,0.71 -6.06,1.86 -9,1.86 -1.31,0 -2.16,1.22 -3.39,1.34 -1.94,0.19 -3.87,0.39 -5.81,0.58 -3.31,0.33 -6.61,0.48 -9.93,0.64 -6.25,0.31 -12.93,-1.41 -19.12,-2.34 -6.88,-1.03 -13.62,-3.71 -20.16,-6 8.51,10 17.11,19.06 28.18,26.25 10.31,6.69 22.98,10.6 35.27,11.13 12.96,0.56 25.81,-1.08 38.77,-0.81 34.67,-14.02 108.06,-33.41 112.76,-5.83 3.36,1.67 3.06,53.76 2.87,64.93 -0.22,12.5 -0.44,25 -0.66,37.5 3.56,0 7.12,0 10.68,0 1.54,0 0.85,-1.9 0.85,-3.23 0,-8.39 0,-16.77 0,-25.16 0,-7.36 0,-14.71 0,-22.07 0,-30.44 0,143.71 0,-32.19 0,-17.75 0,-35.51 0,-53.27 0,-7.05 0,-14.1 0,-21.15 0,-3.64 0.03,-7.53 4,-9.12 1.55,-0.62 2.47,-1.27 3.77,-2.31 0.75,-0.59 1.49,-1.19 2.23,-1.78 0.5,-0.4 -0.07,-1.06 0.22,-1.5 0.03,-0.06 1.13,-0.71 1.33,-0.89 0.58,-0.52 1.11,-1.12 1.66,-1.67 0.87,-0.87 1.42,-2.88 2.23,-3.96 0.82,-1.09 1.01,-3.17 1.41,-4.48 0.22,-0.71 0.53,-3.41 0.46,-4.17 -0.27,-2.98 -0.31,-6.63 -1.82,-9.32 -2.75,-4.92 -6.31,-8.47 -11.28,-11.23 -4.59,-2.55 -10.13,-3.5 -15.32,-2.44 -5.28,1.08 -9.41,4.52 -13.1,8.21 -4.09,4.1 -5.05,9.31 -5.56,14.87z"/>
   <path class="fil1" d="M637.16 420.67c1.89,1.78 1.29,7.43 1.46,9.7 0.23,2.92 0.46,5.83 0.69,8.75 0.51,6.34 0.52,12.62 0.52,18.98 0,6.73 -0.76,13.16 -2.22,19.74 -0.32,1.42 -0.3,2.99 -0.44,4.44 -0.13,1.35 -1.12,2.65 -1.42,3.99 -0.71,3.17 -1.93,5.9 -2.72,9.05 -0.11,0.41 -0.21,0.83 -0.32,1.25 11.7,-3.59 23.3,-7.77 35.31,-10.13 7.58,-1.49 15.17,-2.98 22.75,-4.48 6.51,-1.28 13.27,-1.79 19.85,-2.68 13.14,-1.77 26.27,-1.83 39.53,-2.22 6.13,-0.18 12.31,0.15 18.44,0.24 5.25,0.08 10.49,-0.04 15.7,0.55 13.68,1.56 27.26,3.08 40.83,5.4 6.08,1.04 12.48,1.61 18.45,3.19 7.5,1.98 15.01,3.96 22.51,5.94 5.66,1.49 11.31,3.01 16.95,4.58 1.14,0.32 2.71,0.05 3.87,0.05 1.89,0 2.11,-1.56 3.04,-3.16 1.48,-2.54 2.97,-5.23 3.96,-8 1.14,-3.2 2.24,-6.31 3.05,-9.6 0.21,-0.87 1.36,-2.64 1.36,-3.37 0,-1.65 0.24,-3 0.64,-4.6 1.6,-6.38 1.7,-13.06 2.03,-19.6 0.15,-3.13 0.13,-6.16 0.44,-9.29 0.15,-1.49 -0.5,-3.37 -0.73,-4.85 -0.24,-1.59 -0.15,-3.18 -0.15,-4.78 0,-2.52 -2.06,-6.61 -0.14,-8.51 0.33,-0.33 0.17,-1.07 0.58,-1.47 0.03,-0.03 1.58,-0.34 1.78,-0.44 1.11,-0.55 1.98,-0.44 3.24,-0.44 4.28,0 8.57,0 12.86,0 1.26,0 1.2,0.17 1.33,-1.11 0.23,-2.2 0.46,-4.4 0.69,-6.6 0.1,-0.99 -0.61,-7.84 -0.82,-7.84 -0.37,0 -0.74,0 -1.1,0 -21.04,0 -42.08,0 -63.12,0 -37.67,0 -75.34,0 -113.01,0 -32.35,0 -64.69,0 -97.04,0 -7.32,0 -14.63,0 -21.95,0 -3.04,0 -3.99,4.16 -4.31,6.74 -0.38,3.08 1.42,6.11 2.89,8.71 0.23,0.41 3.12,0.09 3.57,0.09 2.28,0 4.56,0 6.83,0 1.85,0 2.84,0.66 4.32,1.77z"/>
   <path class="fil1" d="M599.85 420.67c-0.27,1.08 -1.13,2.82 -0.77,3.9 0.55,1.63 0.99,3.24 1.85,4.74 0.84,1.47 0.74,2.01 2.35,2.01 2.27,0 4.55,0 6.83,0 3.05,0 5.84,-0.15 7.15,3.12 1.14,2.83 0.65,6.67 0.81,9.7 0.16,2.99 0.88,5.99 0.88,8.98 0,3.19 0,6.39 0,9.58 0,2.98 0.53,5.94 0.34,8.91 -0.22,3.45 -0.43,6.9 -0.65,10.34 -0.15,2.44 -0.95,4.65 -1.24,7.06 -0.32,2.67 -0.73,5.33 -1.11,7.99 1.76,0 3.51,0 5.27,0 1.95,0 1.78,-0.84 2.61,-2.63 0.59,-1.28 1.3,-2.53 1.64,-3.91 0.31,-1.27 0.49,-3.59 1.23,-4.7 1.56,-2.33 2.31,-6.05 2.58,-8.83 0.28,-2.92 1.32,-6.12 1.32,-9 0,-3.12 0.46,-6.2 0.46,-9.29 0,-1.61 0,-3.23 0,-4.84 0,-0.84 -0.03,-1.68 0,-2.52 0.03,-0.75 0.43,-1.58 0.43,-2.22 0.02,-1.33 -0.43,-2.76 -0.43,-4.16 0,-1.8 0,-3.59 0,-5.39 0,-2.79 -0.46,-5.54 -0.46,-8.38 0,-1.02 0.66,-4.27 -0.57,-4.27 -2.49,0 -4.99,0 -7.48,0 -1.02,0 -3.55,0.42 -4.51,-0.07 -2.09,-1.04 -2.58,-2.42 -3.77,-4.46 -0.96,-1.65 -1.37,-3.1 -1.88,-4.96 -0.09,-0.33 -0.21,-1.61 -0.61,-1.61 -1.07,0 -2.13,0 -3.2,0 -2.26,0 -4.53,0 -6.79,0 -0.47,0 -1.99,4.27 -2.27,4.88z"/>
   <path class="fil1" d="M414.19 718.96c-1.05,-1.29 -2.1,-2.58 -3.16,-3.87 -1.05,-1.28 -1.43,-1.02 -3.14,-1.02 -2.18,0 -4.36,0 -6.53,0 -1.76,0 -1.52,0.33 -2.25,2 -0.73,1.69 -1.47,3.37 -2.2,5.05 -0.56,1.28 -0.25,3.58 -0.34,4.97 -0.21,3.23 -0.22,5.83 1.2,8.84 0.48,1.02 3.42,6.66 4.53,6.66 2.26,0 4.52,0 6.78,0 9.14,0 18.27,0 27.41,0 2.96,0 5.93,0 8.89,0 0.46,0 1.28,-0.13 1.69,0 1.62,0.5 2.67,1.4 3.06,2.92 1.61,6.4 2.32,13.17 3.46,19.67 2.11,12.05 4.11,24.15 5.33,36.32 1.35,13.5 2.26,26.94 2.59,40.51 0.34,13.93 -0.28,27.85 -0.64,41.79 -0.13,5.14 -0.94,10.29 -1.48,15.4 -0.7,6.66 -1.07,13.46 -2.11,20.07 -1.96,12.46 -3.6,25.12 -6.68,37.36 -5.25,20.92 -11.25,41.47 -17.73,62.04 2.66,-5.64 5.7,-11.22 7.96,-17.03 2.4,-6.19 5.51,-12.1 7.49,-18.42 1.85,-5.88 4.23,-11.56 6.13,-17.43 2.2,-6.78 4.07,-13.2 5.47,-20.18 1.19,-5.95 2.84,-11.6 4.04,-17.57 0.3,-1.51 0.61,-3.01 0.91,-4.52 0.26,-1.31 1.13,-2.69 1.31,-3.92 0.54,-3.67 1.08,-7.35 1.62,-11.02 1.93,-13.16 3.3,-26.31 3.92,-39.59 0.28,-6.11 0.22,-12.21 0.22,-18.32 0,-3.18 0.39,-6.12 0.13,-9.31 -0.23,-2.76 -0.13,-5.54 -0.13,-8.31 0,-7.23 -0.29,-14.4 -0.61,-21.62 -0.26,-5.82 -1.13,-11.47 -1.63,-17.26 -1.11,-12.7 -2.65,-25.35 -4.71,-37.94 -1,-6.1 -1.94,-12.22 -3.08,-18.3 -0.83,-4.44 -1.66,-8.88 -2.49,-13.32 -0.26,-1.4 0.05,-4.22 -1.62,-4.22 -8.31,0 -16.62,0 -24.93,0 -4.21,0 -8.43,0 -12.64,0 -2.04,0 -4.05,-0.43 -6.02,-0.44z"/>
   <path class="fil1" d="M414.64 706.09c0.49,1.47 1.72,5.77 3.61,5.77 2.74,0 5.48,0 8.22,0 9.16,0 18.31,0 27.47,0 2.51,0 5.01,0 7.52,0 1.11,0 1.54,-0.07 2.34,0.75 1.19,1.21 1.69,1.11 1.99,2.72 1.2,6.58 2.54,13.08 3.94,19.61 2.78,13.05 4.36,26.4 6.16,39.61 0.83,6.09 0.92,12.16 1.94,18.22 1.12,6.69 1.16,13.62 1.64,20.38 0.88,12.48 1.25,25.13 0.92,37.65 -0.08,3.02 -0.45,6.04 -0.45,9.06 0,3.15 0.29,6.44 -0.04,9.57 -0.7,6.66 -0.57,13.63 -2.02,20.15 -1.24,5.58 -1.07,11.51 -1.99,17.17 -1.09,6.68 -2.17,13.36 -3.39,20.02 -2.45,13.37 -6.11,26.47 -10.09,39.48 -1.76,5.75 -3.92,11.38 -5.92,17.05 -0.89,2.52 -2.53,4.56 -3.08,7.2 -0.6,2.9 -1.84,5.75 -2.77,8.56 2.83,-5.65 5.66,-11.3 8.49,-16.95 2.83,-5.65 6.19,-11.26 8.53,-17.12 2.45,-6.12 5.14,-12.19 7.32,-18.42 1.07,-3.07 2.04,-6.2 3.31,-9.2 1.39,-3.29 2.86,-6.33 3.5,-9.84 1.16,-6.37 3.82,-12.36 4.98,-18.74 1.08,-5.95 3.41,-11.6 4.22,-17.63 0.8,-5.95 1.96,-11.79 2.95,-17.71 1.17,-6.98 2.89,-14 2.89,-21.09 0,-5.77 1.23,-11.45 1.36,-17.24 0.14,-6.49 0.52,-13.01 0.39,-19.5 -0.28,-13.23 0.06,-26.84 -1.32,-40.01 -2.76,-26.38 -6.73,-52.45 -12.65,-78.31 -0.15,-0.65 -1.14,-6.74 -1.71,-6.74 -2.43,0 -4.85,0 -7.28,0 -9.09,0 -18.19,0 -27.28,0 -5.04,0 -10.26,1.02 -13.32,-4.11 -0.66,-1.11 -0.77,-2.1 -2.07,-2.1 -1.9,0 -3.81,0 -5.71,0 -3.83,0 -7.65,0 -11.48,0 -0.79,0 -2.26,4.07 -2.64,4.84 -0.88,1.74 -1.12,3.36 -1.12,5.28 0,2.08 0.25,4.16 0.42,6.23 0.14,1.7 1.57,3.82 2.23,5.4z"/>
   <path class="fil1" d="M597.18 530.31c1.94,1.71 1.18,7.48 1.31,9.76 0.17,2.96 0.16,5.83 0.46,8.79 0.28,2.78 0.01,5.71 0.01,8.51 0,3.21 0.18,6.45 -0.19,9.63 -0.8,6.77 -1.06,13.48 -2.31,20.2 -0.25,1.34 -0.62,2.66 -0.95,3.99 -0.34,1.37 -0.15,3.12 -0.55,4.37 -0.38,1.19 -1.08,2.17 -1.41,3.48 -0.37,1.47 -0.73,2.94 -1.18,4.39 -2.42,7.73 -5.28,15.69 -9.53,22.59 -1.89,3.06 -3.42,6.39 -5.58,9.27 -2.48,3.3 -5.11,6.4 -7.16,9.98 13.42,-2.68 26.78,-5.15 40.3,-7.27 13.58,-2.13 27.26,-3.67 40.9,-5.44 23.97,-3.12 48.46,-5.48 72.66,-5.48 26.91,0 53.8,0.46 80.69,1.64 12.63,0.55 25.31,2.5 37.88,3.9 12.64,1.41 25.19,3.54 37.69,5.81 12.35,2.24 24.55,5.11 36.78,7.94 1.42,0.33 7.78,2.44 8.68,0.63 1.41,-2.85 2.63,-6.12 4.63,-8.61 1.89,-2.36 2.6,-5.49 4.05,-8.15 1.61,-2.96 2.34,-5.78 3.49,-8.93 2.05,-5.58 5.21,-11.28 6.27,-17.16 1.14,-6.36 2.19,-12.68 3.1,-19.07 0.93,-6.47 1.28,-12.94 1.28,-19.49 0,-5.89 0.55,-11.73 0.23,-17.4 -0.22,-3.86 -0.43,-7.71 -0.65,-11.57 -0.18,-3.2 -1.18,-5.73 2.22,-7.44 2.41,-1.21 5.41,-0.66 8.07,-0.66 4.46,0 8.92,0 13.39,0 0.47,0 2.11,0.28 2.51,0 0.73,-0.52 0.95,-4.43 1.15,-5.34 0.59,-2.76 1.27,-5.78 0.84,-8.58 -0.14,-0.88 -1.34,-9.61 -2,-9.61 -0.47,0 -0.95,0 -1.43,0 -26.34,0 -52.67,0 -79,0 -35.83,0 -71.65,0 -107.48,0 -7.99,0 -15.98,0 -23.97,0 -5.06,0 -92.67,0 -103.4,0 -17.88,0 -35.76,0 -53.64,0 -7.37,0 -14.74,0 -22.12,0 -4.14,0 -6.98,-0.76 -8.47,4.25 -1.04,3.51 -1.68,6.44 -1.25,10.09 0.4,3.42 2.36,6.25 4.09,9.12 0.22,0.36 2.89,0.07 3.29,0.07 2.42,0 4.85,0 7.27,0 3.64,0 6.05,-0.45 9.01,1.78z"/>
   <path class="fil1" d="M546.11 526.8c-5.9,2.89 -13.21,6.62 -14.21,6.62 -2.29,0 -2.5,-0.19 -3.97,1.55 -2.32,2.76 -2.51,6.01 -3,9.46 -0.4,2.77 0.48,5.82 1.84,8.21 0.54,0.94 1.52,3.78 2.47,4.31 0.75,0.42 2.92,0 3.75,0 4.09,0 8.17,0 12.26,0 2.64,0 4.29,1.94 4.47,4.39 0.51,6.87 0.59,13.75 1.1,20.61 0.38,5.18 0,10.49 -0.4,15.66 -0.26,3.3 -0.51,6.61 -0.77,9.91 -0.08,1.07 -0.88,2.19 -1.06,3.3 -0.23,1.43 -0.47,2.85 -0.71,4.28 -0.44,2.63 -1.36,4.99 -1.79,7.62 -0.45,2.68 -0.86,5.2 -1.68,7.78 -1.83,5.72 -3.81,11.36 -5.85,17 0.42,0 9.17,-0.05 13.46,-0.24l-0.12 0.24c1.6,0 3.2,0 4.8,0 0.71,0 2.71,-3.42 3.16,-4 1.92,-2.49 4.09,-4.74 6.22,-7.06 0.83,-0.9 1.09,-2.29 1.88,-3.24 1.02,-1.22 2.04,-2.42 2.99,-3.69 1.02,-1.36 2.34,-2.73 3.16,-4.22 0.73,-1.33 0.96,-2.89 1.72,-4.22 3.14,-5.46 5.39,-11.15 7.85,-16.92 2.64,-6.17 3.89,-12.68 5.51,-19.19 0.72,-2.88 0.9,-6.27 0.9,-9.25 0,-2.83 1.34,-5.52 1.34,-8.43 0,-3.41 0.05,-6.78 0.24,-10.18 0.17,-3.03 -0.24,-5.87 -0.24,-8.88 0,-3.16 -0.44,-6.28 -0.44,-9.43 0,-1.45 0.55,-2.27 -0.94,-2.27 -2.08,0 -4.17,0 -6.25,0 -3.31,0 -6.62,0 -9.94,0 -0.37,0 -2.49,-2.96 -2.8,-3.31 -1.16,-1.31 -2.02,-2.57 -2.95,-4.06 -1.74,-2.78 -2.49,-5.39 -2.88,-8.61 -3.55,0 -7.09,0 -10.64,0 -2.75,0 -6.13,-0.75 -7.27,2.63 -0.42,1.26 -0.83,2.44 -1.19,3.62z"/>
   <path class="fil1" d="M558.98 655.49c-28.82,0 -57.65,0 -86.47,0 -10.83,0 -21.67,0 -32.5,0 -0.99,0 -2.77,5.64 -2.98,6.88 -0.52,3.12 -1.47,6.11 -0.44,9.21 1.2,3.61 2.5,6.29 4.46,9.56 1.37,2.28 1.56,1.88 4.17,1.88 8.63,0 17.27,0 25.9,0 3.89,0 7.77,0 11.66,0 1.56,0 4.15,-0.34 5.59,0.44 1.58,0.86 1.97,3.58 2.38,5.38 0.96,4.25 1.93,8.51 2.89,12.76 1.39,6.14 2.75,12.21 3.79,18.42 1.12,6.77 2.42,13.49 3.73,20.23 1.28,6.61 1.62,13.52 2.4,20.2 0.73,6.22 1.18,12.4 1.6,18.65 0.38,5.62 1.43,11.2 1.43,16.83 0,6.55 -0.69,13.62 0.09,20.13 0.84,7.01 -0.08,14.33 -0.33,21.37 -0.22,6.05 -1.11,11.95 -1.52,17.99 -0.24,3.43 -0.73,6.87 -1.1,10.3 -0.3,2.8 -1.19,5.37 -1.59,8.17 -0.88,6.14 -1.19,12.72 -2.69,18.72 -1.8,7.22 -3.61,14.43 -5.41,21.65 -2.96,11.83 -7.25,23.52 -11.78,34.82 -2.19,5.48 -4.37,10.94 -6.74,16.34 -2.79,6.34 -4.92,13.9 -9.28,19.35 -1.76,2.2 -2.77,5.59 -4.07,8.08 -1.69,3.23 -3.48,6.42 -5.22,9.62 -1.24,2.29 -3.09,4.18 -4.4,6.42 -1.6,2.73 -3.2,5.47 -4.8,8.2 -3.38,5.79 -6.99,10.83 -11.1,16.14 -3.15,4.07 -5.72,8.57 -8.98,12.55 -3.78,4.62 -8,9.02 -11.3,13.96 -3.46,5.18 -7.63,9.38 -11.93,13.9 24.6,-6.22 49.11,-12.22 74.04,-17.02 25.88,-4.97 51.85,-9.24 77.75,-14.1 14.25,-2.67 28.44,-4.9 42.8,-6.94 11.16,-1.59 22.31,-3.85 33.54,-4.8 14.61,-1.24 29.17,-2.62 43.76,-4.2 11.92,-1.29 23.98,-1.62 35.96,-2.1 6.18,-0.25 12.33,-0.58 18.51,-0.45 4.52,0.09 9.04,0.19 13.57,0.28 2.99,0.06 3.95,-0.19 6.69,-1.5 2.72,-1.3 6.09,-3.68 9.14,-4.2 3.09,-0.53 5.8,3.57 7.63,5.41 0.62,0.62 1.54,0.4 2.4,0.42 2.32,0.07 4.64,0.14 6.95,0.2 2.6,0.08 5.19,0.12 7.78,0.28 13.61,0.83 26.93,2.14 40.39,4.31 6.06,0.98 12.05,2.12 18,3.65 5.94,1.54 12.23,2.78 17.98,4.93 6.51,2.44 13.02,4.88 19.52,7.36 5.96,2.27 11.64,6.01 17.14,9.2 5.4,3.13 10.16,7.55 14.85,11.61 2.29,1.99 4.25,4.52 6.33,6.74 1.98,2.11 4.17,4.37 5.84,6.73 1.77,2.5 3.54,5.01 5.3,7.51 5.46,-11.31 10.97,-22.6 16.27,-33.99 6.08,-13.09 11.6,-26.23 17,-39.62 4.24,-10.51 8.58,-21.17 11.65,-32.09 3.95,-14.09 7.82,-28.2 11.6,-42.34 2.96,-11.06 4.84,-22.54 6.65,-33.84 1.03,-6.41 2.48,-12.9 3.06,-19.36 0.69,-7.72 1.39,-15.45 2.08,-23.17 2.24,-24.97 1.88,-50.67 -0.35,-75.64 -1.18,-13.15 -3.34,-26.26 -5.43,-39.29 -1.93,-12.05 -4.36,-24.11 -7.63,-35.88 -2.07,-7.45 -4.14,-14.9 -6.21,-22.35 -0.26,-0.94 -0.28,-1.61 -0.28,-2.62 0,-0.57 0.89,-0.38 0.89,-1.25 0,-0.94 -0.01,-1.49 0.89,-2.04 1.75,-1.08 5.6,-0.44 7.45,-0.44 4.62,0 9.24,0 13.87,0 1.57,0 5.93,0.91 6.47,-0.81 1.07,-3.4 2.04,-6.63 2.69,-10.12 0.63,-3.36 0.61,-6.47 0.61,-9.9 0,-0.83 -1.08,-6.69 -1.36,-6.69 -0.29,0 -0.59,0 -0.88,0 -1.79,0 -3.57,0 -5.36,0 -7.84,0 -15.69,0 -23.54,0 -28.6,0 -57.2,0 -85.8,0 -37.86,0 -75.71,0 -113.57,0 -37.57,0 -75.14,0 -112.71,0 -27.74,0 -55.48,0 -83.22,0 -8.72,0 -17.44,0 -26.16,0z"/>
   <path class="fil1" d="M710.89 1100.71c0,-7.55 0,-15.09 0,-22.64 -25.2,6.04 -50.33,12.23 -75.7,17.51 -25.68,5.34 -51.65,9.11 -77.68,12.3 -25.86,3.16 -51.79,5.25 -77.86,5.25 -6.5,0 -13.03,0.6 -19.64,0.74 -4.93,0.11 -9.81,0.08 -14.75,-0.02 -13.96,-0.3 -27.92,-0.47 -41.87,-1.07 -6.25,-0.27 -12.49,-0.53 -18.73,-0.93 -4.29,-0.28 -8.58,-0.56 -12.87,-0.83 -0.54,-0.03 -1.53,-0.41 -1.61,0.23 -0.24,2.03 -0.48,4.05 -0.73,6.08 -0.35,2.9 -0.6,5.7 -0.7,8.62 -0.04,1.2 -0.93,8.46 0.19,8.53 6.94,0.43 13.88,0.93 20.82,1.29 12.33,0.64 24.66,0.96 37,1.21 12.6,0.26 25.13,0.69 37.72,0.16 14,-0.58 28,-1.07 41.99,-1.94 6.9,-0.43 13.77,-0.89 20.66,-1.46 4.94,-0.41 9.98,-0.22 14.86,-0.83 13.66,-1.71 27.5,-2.87 41.08,-5.13 14.02,-2.34 28.04,-4.67 42.06,-7.01 26.18,-4.36 52.05,-11.63 77.77,-18.06 2.66,-0.67 5.33,-1.33 7.99,-2z"/>
   <path class="fil1" d="M710.89 1226.33c0,-7.55 0,-15.09 0,-22.64 -25.38,6.19 -50.76,12.68 -76.4,17.74 -12.62,2.49 -25.46,4.89 -38.2,6.66 -12.71,1.77 -25.47,4.17 -38.25,5.33 -13,1.18 -26.04,2.8 -39.08,3.56 -12.77,0.74 -25.71,2.21 -38.51,2.21 -6.45,0 -12.91,0 -19.36,0 -3.23,0 -6.46,0 -9.68,0 -3.07,0 -6.23,0.51 -9.26,0.44 -12.73,-0.3 -25.46,-0.59 -38.19,-0.89 25.02,5.66 49.84,11.7 75.3,15.13 12.67,1.71 25.36,2.99 38.04,4.58 6.02,0.76 11.75,1.88 17.78,1.18 7.62,-0.89 15.24,-1.78 22.86,-2.67 26.38,-3.09 52.48,-7.82 78.59,-12.61 12.59,-2.31 25.05,-5.72 37.52,-8.61 12.32,-2.85 24.54,-6.27 36.79,-9.4 0.02,-0 0.03,-0.01 0.05,-0.01z"/>
   <path class="fil1" d="M710.89 1163.74c0,-7.69 0,-15.39 0,-23.08 -13.76,3.44 -27.52,6.87 -41.27,10.31 -12.95,3.24 -26.2,5.51 -39.27,8.23 -24.91,5.19 -50.34,8.02 -75.57,11.17 -24.27,3.03 -48.88,4.12 -73.33,5.13 -12.57,0.52 -25.03,1.15 -37.6,0.89 -14,-0.29 -27.99,-0.48 -41.98,-1.05 -11.16,-0.46 -22.29,-1.13 -33.43,-1.83 0.14,3.51 0.28,7.01 0.42,10.52 0.12,3.08 1.04,6.25 1.58,9.27 0.12,0.67 0.15,3.26 0.67,3.74 0.4,0.36 2.5,0.16 3.01,0.19 4.49,0.28 8.97,0.55 13.46,0.83 12.36,0.76 24.74,1.16 37.12,1.42 6.71,0.14 13.41,0.22 20.12,0.22 4.84,0 9.69,0.54 14.49,0.34 13.54,-0.57 27.12,-0.87 40.65,-1.71 14.03,-0.87 28.06,-1.75 42.09,-2.62 5.82,-0.36 11.68,-1.49 17.46,-2.22 7.78,-0.99 15.56,-1.98 23.34,-2.97 26.26,-3.35 52.23,-9.06 78.1,-14.56 16.76,-3.56 33.32,-8.05 49.93,-12.2z"/>
   <path class="fil1" d="M710.89 1194.81c0,-7.55 0,-15.09 0,-22.64 -13.76,3.44 -27.52,6.88 -41.27,10.31 -12.9,3.22 -26.06,5.6 -39.07,8.36 -25.02,5.32 -50.69,8.02 -76.04,11.26 -24.81,3.17 -49.91,4.03 -74.89,5.07 -12.56,0.52 -24.9,0.91 -37.45,0.65 -14.12,-0.3 -28.22,-0.6 -42.33,-1.18 -9.43,-0.39 -18.85,-1.04 -28.27,-1.63 0.76,6.67 1.64,13.1 3,19.67 0.32,1.54 0.64,3.08 0.96,4.62 0.06,0.29 1.01,0.17 1.26,0.18 3.25,0.14 6.51,0.28 9.76,0.42 14.1,0.6 28.18,1.26 42.28,1.55 25.17,0.52 50.33,-0.17 75.46,-1.74 13.31,-0.83 26.85,-1.27 40.09,-2.96 13.81,-1.76 27.63,-3.52 41.44,-5.29 13.5,-1.72 26.93,-4.56 40.34,-6.84 11.94,-2.03 23.78,-5.09 35.63,-7.61 16.49,-3.5 32.76,-8.05 49.1,-12.21z"/>
   <path class="fil1" d="M710.89 1132.22c0,-7.54 0,-15.09 0,-22.64 -13.76,3.44 -27.52,6.87 -41.27,10.31 -12.95,3.24 -26.2,5.52 -39.27,8.24 -24.91,5.19 -50.34,8 -75.57,11.15 -24.66,3.08 -49.53,4.13 -74.36,5.16 -12.56,0.52 -25,1.12 -37.56,0.86 -13.99,-0.29 -27.98,-0.48 -41.96,-1.05 -11.13,-0.46 -22.23,-1.13 -33.35,-1.83 -0.28,6.77 -0.38,13.35 -0.13,20.13 0.01,0.22 0.05,3.39 0.15,3.4 1.14,0.07 2.28,0.14 3.42,0.22 4.5,0.28 9,0.56 13.5,0.85 10.99,0.69 22.02,1.08 33.03,1.3 13.09,0.27 26.32,1.18 39.4,0.63 13.5,-0.56 27.03,-0.88 40.51,-1.71 14.27,-0.87 28.53,-1.75 42.79,-2.62 5.6,-0.34 11.23,-1.4 16.79,-2.09 8.09,-1.01 16.19,-2.02 24.29,-3.04 13.21,-1.65 26.35,-4.31 39.48,-6.5 11.03,-1.84 21.97,-4.29 32.87,-6.79 19.14,-4.38 38.16,-9.23 57.22,-13.99z"/>
   <path class="fil1" d="M710.89 1069.63c0,-7.55 0,-15.09 0,-22.64 -26.62,6.65 -53.3,12.67 -80.14,18.38 -25.3,5.38 -51.19,8.53 -76.83,11.8 -24.98,3.19 -50.32,3.89 -75.47,4.96 -24.91,1.06 -49.74,0.91 -74.66,-0.15 -9.63,-0.41 -19.26,-0.82 -28.88,-1.23 -0.87,-0.04 -2.59,9.26 -2.93,10.6 -0.93,3.73 -0.6,8.19 -0.88,12.03 27.06,1.18 54.07,2.06 81.15,2.64 26.36,0.56 52.82,-1.53 79.1,-3.21 12.84,-0.82 25.62,-2.85 38.39,-4.41 12.31,-1.51 24.49,-3.59 36.73,-5.59 25.75,-4.2 51.2,-9.82 76.54,-16.02 9.31,-2.28 18.58,-4.74 27.86,-7.15z"/>
   <path class="fil1" d="M578.53 1263.17c25.48,0 50.98,0.13 76.45,-0.89 13.9,-0.56 27.75,-1.26 41.64,-2.16 3.98,-0.26 7.95,-0.52 11.93,-0.78 2.34,-0.15 2.34,0.23 2.34,-2.13 0,-7.46 0,-14.92 0,-22.37 0,-0.02 0,-0.05 0,-0.07 -12.2,3.12 -24.38,6.38 -36.62,9.36 -7.14,1.74 -14.28,3.48 -21.41,5.23 -5.05,1.23 -10.14,2.81 -15.27,3.7 -19.68,3.37 -39.37,6.75 -59.05,10.13z"/>
   <path class="fil1" d="M718.89 1044.33c0,21.83 0,43.66 0,65.49 0,37.14 0,74.28 0,111.43 0,12.34 0,24.69 0,37.04 3.57,-0.17 37.31,-1.44 37.31,-1.83 0,-6.56 0,-13.13 0,-19.7 0,-34.41 0,-68.83 0,-103.24 0,-31.5 0,-63.01 0,-94.51 0,-3.4 0,-6.81 0,-10.21 -12.44,5.18 -24.87,10.35 -37.31,15.53z"/>
   <path class="fil1" d="M779.73 1045.22c-5.18,-4.44 -10.37,-8.87 -15.55,-13.31 0,21.14 0,42.28 0,63.42 0,37.6 0,75.21 0,112.81 0,15.97 0,31.95 0,47.92 3.32,-1.04 6.65,-2.09 9.97,-3.13 0.58,-0.18 5.58,-1.33 5.58,-1.89 0,-2.29 0,-4.58 0,-6.87 0,-12.62 0,-25.25 0,-37.87 0,-37.39 0,-74.78 0,-112.17 0,-16.3 0,-32.61 0,-48.91z"/>
   <path class="fil1" d="M787.72 1081.18c0,7.15 0,14.31 0,21.46 0,2.49 4.31,3.71 6.27,4.86 2.82,1.66 5.66,3.29 8.49,4.92 11.48,6.64 23.6,11.69 35.83,16.75 23.49,9.72 48.62,15.61 73.65,19.71 10.97,1.8 21.97,3.2 33,4.65 -0.14,-7.26 -0.28,-14.52 -0.41,-21.78 -0,-0.19 0.09,-1.72 -0.11,-1.75 -1.16,-0.16 -2.33,-0.31 -3.49,-0.46 -4.51,-0.6 -9.02,-1.19 -13.52,-1.78 -11.93,-1.57 -23.85,-3.37 -35.56,-6.12 -24.92,-5.85 -49.84,-12.47 -72.96,-23.74 -10.68,-5.21 -20.93,-10.69 -31.17,-16.71z"/>
   <path class="fil1" d="M787.72 1112.68c0,7.16 0,14.31 0,21.47 0,2.49 4.31,3.72 6.27,4.87 2.82,1.66 5.66,3.29 8.49,4.92 11.46,6.62 23.97,11.25 36.25,16.04 24.07,9.4 49.79,14 75.35,17.11 10.12,1.23 20.27,2.11 30.43,3.07 0.04,-1.84 0.79,-19.05 0.43,-19.1 -7.28,-0.96 -14.56,-1.92 -21.83,-2.87 -11.8,-1.55 -23.3,-3.99 -34.9,-6.51 -12.72,-2.77 -25.46,-5.5 -37.76,-9.79 -12.16,-4.24 -24.12,-8.89 -35.7,-14.52 -9.28,-4.51 -18.13,-9.45 -27.02,-14.69z"/>
   <path class="fil1" d="M787.72 1238.75c0,3.7 0,7.4 0,11.1 4.74,-0.88 9.47,-1.77 14.21,-2.66 -4.74,-2.81 -9.47,-5.63 -14.21,-8.44z"/>
   <path class="fil1" d="M787.72 1207.24c0,7.09 0,14.18 0,21.27 0,1.71 2.2,2.25 3.57,3.07 3.86,2.32 7.71,4.65 11.57,6.97 3.22,1.94 6.44,3.88 9.66,5.82 1.46,0.88 2.43,0.19 4.09,-0.27 8.26,-2.27 16.51,-4.54 24.77,-6.81 0.92,-0.25 1.84,-0.51 2.76,-0.76 -19.25,-9.02 -38.02,-18.63 -56.42,-29.3z"/>
   <path class="fil1" d="M787.72 1176.16c0,7.02 0,14.05 0,21.07 0,1.7 3.98,3.11 5.28,3.89 3.58,2.16 7.15,4.32 10.73,6.49 10.83,6.54 22.07,12.12 33.51,17.55 4.32,2.05 8.73,3.94 13.1,5.89 0.82,0.37 4.47,2.68 5.35,2.38 1.39,-0.49 2.79,-0.97 4.18,-1.46 10.89,-3.8 21.78,-7.6 32.67,-11.4 -13.13,-3.07 -25.86,-6.84 -38.65,-11.11 -11.86,-3.95 -23.15,-9.27 -34.23,-15 -10.92,-5.65 -21.44,-11.92 -31.95,-18.3z"/>
   <path class="fil1" d="M787.72 1143.76c0,7.21 0,14.42 0,21.64 0,0.44 -0.22,1.31 0.2,1.57 1.41,0.88 2.83,1.76 4.24,2.65 3.23,2.01 6.46,4.03 9.68,6.04 10.34,6.46 21.68,12.46 32.84,17.36 6.47,2.84 12.75,5.54 19.44,7.78 6.57,2.2 13.16,4.33 19.75,6.47 5.84,1.88 11.83,3.28 17.75,4.85 3.21,0.85 6.56,1.35 9.81,2.02 1.63,0.33 3.26,0.67 4.89,1 0.86,0.18 2.05,-0.83 3.05,-0.97 6.45,-0.92 12.93,-1.46 19.42,-2.02 3.27,-0.28 6.56,-0.43 9.84,-0.64 1.35,-0.09 2.7,-0.18 4.06,-0.26 0.11,-0.01 0.2,-2.28 0.22,-2.45 0.14,-1.82 1.73,-21.07 1.51,-21.09 -7.36,-0.69 -14.72,-1.38 -22.08,-2.07 -24.92,-2.34 -50.29,-6.76 -74.11,-14.51 -21.2,-6.9 -41.3,-16.05 -60.52,-27.35z"/>
   <path class="fil1" d="M944.51 1122.02c-0.55,-7.26 -1.09,-14.52 -1.64,-21.79 -0.02,-0.2 0,-1.72 -0.21,-1.75 -1.19,-0.16 -2.38,-0.33 -3.57,-0.49 -4.49,-0.62 -8.98,-1.24 -13.47,-1.85 -12.24,-1.68 -24.41,-3.29 -36.44,-6.1 -12.26,-2.87 -24.72,-5.39 -36.62,-9.54 -12.24,-4.27 -24.65,-8.41 -36.33,-14.09 -9.8,-4.77 -19.09,-9.92 -28.51,-15.42 0,7.02 0,14.04 0,21.05 0,1.89 5.39,3.87 6.94,4.79 2.81,1.66 5.65,3.27 8.47,4.9 11.39,6.58 23.5,11.52 35.62,16.55 12.18,5.05 25.01,8.31 37.71,11.69 12.32,3.28 24.71,5.7 37.28,7.75 10.22,1.67 20.5,2.93 30.76,4.29z"/>
   <path class="fil1" d="M862.79 1346.62c12.09,-5.37 21.76,-11.67 32.43,-19.53 -31.34,4.1 -50.58,-1.32 -79.36,-11.43 -26.3,-9.23 -54.43,1.17 -78.32,12.31 42.65,0 83.33,22.72 125.25,18.64z"/>
   <path class="fil1" d="M1008.02 1276.93c-9.75,1.46 -18.15,-6.92 -27.82,-6.85 -16.32,0.11 -33.29,4.52 -46.78,13.94 48.8,0 97.03,31.56 145.68,13.32 -19.6,-3.34 -39.04,-7.8 -57.74,-14.64 26.35,-10.64 58.16,-11.96 85.94,-7.32 35.77,5.97 68.5,26.57 105.05,10.87 -29.65,-4.66 -56.43,-19.92 -86.14,-24.3 -39.03,-5.75 -80.55,5.89 -118.19,14.98z"/>
   <path class="fil1" d="M939.63 1309.33c2.07,-0.89 4.14,-1.78 6.21,-2.68 -57.81,-17.61 -92.86,-40.89 -154.12,-16.41 50.34,4.79 97.44,29.19 147.91,19.09z"/>
   <path class="fil1" d="M596.73 1329.32c2.08,-0.74 4.15,-1.48 6.23,-2.23 -56.15,-16.67 -88.28,-44.06 -145.7,-13.32 50.78,-8.54 99.95,33.44 139.47,15.55z"/>
   <path class="fil1" d="M822.82 1235.65c42.05,-12.43 75.88,31.08 116.81,16.42 -26.62,-17.38 -50.39,-36.14 -1.92,-30.98 36.64,3.9 75.45,21.2 111.62,5.67 -41.81,-12.76 -80.12,-46.96 -141.33,-12.05 -3.38,1.93 -25.15,-11.32 -39.58,-8.11 -31.04,6.9 -52.33,20.15 -74.49,32.15 9.7,-0.35 19.33,-1.39 28.89,-3.1z"/>
   <path class="fil1" d="M700.67 1278.7c11.95,4 24.36,7.56 37.09,6.88 12.74,-0.68 25.48,-2.57 37.52,-6.88 -13.13,-4.28 -26.21,-8.48 -38.94,-13.86 -6.29,-2.66 -12.61,-5.29 -18.74,-8.32 -6.16,-3.05 -12.2,-6.26 -18.92,-7.91 -6.03,-1.48 -12.8,-2.81 -19.01,-2.31 -6.74,0.55 -13.49,1.09 -20.18,2.12 -13.85,2.14 -26.7,6.98 -39.67,12.08 13.88,2.41 27.62,4.83 41.58,6.7 6.72,0.9 13.57,1.98 20.09,3.87 6.62,1.91 12.88,4.85 19.17,7.62z"/>
   <path class="fil1" d="M1152.82 1199.69c2.07,-0.88 4.15,-1.77 6.22,-2.66 -31.6,-3.37 -59.57,-11.43 -90.15,-19.13 -29.88,-7.53 -62.84,1.27 -91.51,9.8 59.55,-7.38 116.26,23.85 175.43,11.99z"/>
   <path class="fil2" d="M568.31 1272.93c-32.23,-5.02 -62.11,-28.24 -95.75,-23.85 -15.23,2 -28.26,11.17 -43.39,13.66 -17.47,2.87 -35.17,3.7 -52.74,5.75 38.23,6.14 75.19,-7.94 111.88,-3.11 12.89,1.69 25.81,3.96 38.4,7.21 1.9,0.49 46.73,19.06 76.08,6.48 -11.1,-3.31 -22.81,-6.14 -34.48,-6.14z"/>
   <path class="fil1" d="M832.13 1257.39c2.19,-22.51 -86.41,-5.69 -96.38,-3.09 36.42,11.31 72.01,36.33 96.38,3.09z"/>
   <path class="fil2" d="M718.89 1309.77c-47.47,20.25 -97.23,-18.12 -145.7,-13.32 49.37,5.29 98.85,39.64 145.7,13.32z"/>
   <path class="fil1" d="M712.66 1312.43c2.08,-0.88 4.15,-1.77 6.23,-2.66 -53.47,-15.97 -91.37,-45.91 -145.7,-13.32 49.29,0 89.85,25.93 139.46,15.97z"/>
   <path class="fil1" d="M385.77 1238.75c-33.36,0 -5.86,8.13 -2.31,15.5 3.8,7.88 49.93,2.56 65.41,3.77 12.55,0.94 24.47,-10.71 39.77,-9.21 17.23,1.68 33.66,12.83 50.07,18.01 13,4.11 26.92,8.07 39.99,4.35 3.05,-0.87 24.68,-6.45 21.56,-9.7 -13.02,-13.54 -63,-17.1 -81.18,-22.23 -37.19,-10.51 -73.39,-3 -109.77,7.52 11.91,-4.21 31.27,-6.56 40.86,-15.09 -4.37,-5.21 -55.4,7.45 -64.4,7.09z"/>
   <path class="fil3" d="M794.35 782.59c4.86,-29.64 7.72,-41.11 25.12,-57.01l-151.41 0c17.4,15.9 45.43,24.52 50.28,54.17 -29.64,-4.85 -55.82,-18.17 -71.72,-35.57 12.07,50.78 11.98,104.12 0,159.96 15.91,-17.4 40.67,-40.21 70.3,-45.06 -4.85,29.64 -37.15,44.9 -54.54,60.81l165.65 0c-17.4,-15.91 -26.44,-32.12 -31.29,-61.76 29.64,4.85 28.29,28.61 44.2,46 14.53,-51.6 15.85,-103.76 0,-156.63 -15.9,17.4 -16.93,30.24 -46.57,35.09z"/>
  </g>
  <path class="fil1" d="M846.18 1425.87c-9.47,-4.29 -18.07,-10.17 -27.43,-14.74 -1.52,-0.74 -3.04,-1.49 -4.57,-2.23 -0.76,-0.37 0.34,-2.77 0.53,-3.51 0.59,-2.28 1.38,-4.64 2.25,-6.83 0.83,-2.08 1.25,-4.88 2.63,-6.61 0.78,-0.98 1.06,-2.22 1.86,-3.18 0.84,-1.01 2.4,-1.78 3.46,-2.58 1.05,-0.78 2.38,-1.13 3.59,-1.6 0.91,-0.36 0.56,-1.15 0.56,-2.1 0,-3.52 0,-7.04 0,-10.56 0,-1.65 -0.25,-1.24 -1.84,-1.24 -2.66,0 -5.31,0 -7.96,0 -2.76,0 -35.58,-0.09 -35.58,0.09 0,3.11 0,6.21 0,9.32 0,1.31 0,2.63 0,3.94 0,0.74 1.83,1.01 2.51,1.28 2.13,0.85 4.34,2.5 5.18,4.72 0.85,2.22 0.01,5.31 -0.71,7.46 -0.4,1.21 -0.2,2.26 -1.51,1.91 -1.81,-0.48 -3.61,-0.96 -5.42,-1.44 -2.58,-0.69 -5.21,-1.21 -7.82,-1.79 -5.14,-1.13 -10.37,-1.86 -15.58,-2.58 -10.19,-1.4 -20.69,-2.27 -30.98,-2.09 -10.68,0.2 -21.39,0.06 -32.03,1.03 -10.81,1 -21.57,3 -32.19,5.13 -2.54,0.51 -5.05,1.34 -7.55,2.02 -0.88,0.24 -1.71,-5.66 -1.85,-6.57 -0.17,-1.12 0.29,-2.52 0.51,-3.6 0.28,-1.3 1.11,-1.69 2.05,-2.5 0.93,-0.8 1.91,-1.33 3.06,-1.72 0.87,-0.3 2.68,-0.39 2.68,-1.45 0,-3.39 0,-6.78 0,-10.17 0,-1.44 0.72,-2.99 -0.89,-2.99 -5.73,0 -11.47,0 -17.2,0 -7.55,0 -15.11,0 -22.67,0 -2.18,0 -4.37,0 -6.55,0 -1.61,0 -0.89,1.55 -0.89,2.99 0,3.39 0,6.78 0,10.17 0,1.1 4.54,2.4 5.68,3.11 4.28,2.68 5.18,9.21 6.56,13.59 0.88,2.78 1.75,5.57 2.63,8.35 0.13,0.41 -6.47,3.06 -7.2,3.38 -4.65,2.08 -9.04,4.86 -13.46,7.41 -9.03,5.2 -17.59,11.77 -24.82,19.29 -3.55,3.7 -6.65,7.46 -9.53,11.71 -2.82,4.16 -5.9,8.79 -7.41,13.63 -3.11,9.96 -4.87,20.34 -3.91,30.82 0.96,10.54 3.41,20.37 9.13,29.41 11.49,18.15 29.26,31.37 48.3,40.91 18.99,9.51 39.08,15.08 59.98,18.51 0.94,0.15 6.69,0.46 6.97,1.34 0.63,1.95 1.27,3.92 1.9,5.87 2.34,7.21 4.67,14.42 7.01,21.63 0.72,2.23 1.45,4.46 2.17,6.69 0.49,1.5 1.11,3.97 0.95,5.54 -0.22,2.13 -1.81,4.05 -3.61,4.95 -0.81,0.41 -1.57,0.94 -2.45,1.38 -1.35,0.67 -1.16,0.68 -1.16,2.15 0,3.57 0,7.14 0,10.71 0,1.62 -0.25,1.57 1.25,1.57 5.34,0 10.68,0 16.02,0 13.68,0 27.37,0 41.06,0 0.56,0 2.11,0.35 2.11,-0.34 0,-3.35 0,-6.7 0,-10.05 0,-1.12 0,-2.24 0,-3.36 0,-0.37 -2.73,-1.28 -3.14,-1.5 -2.26,-1.2 -3.65,-2.93 -3.77,-5.5 -0.19,-4.13 1.14,-7.99 2.33,-11.87 2.18,-7.07 4.36,-14.14 6.54,-21.21 0.67,-2.18 1.34,-4.36 2.02,-6.54 0.3,-0.99 4.76,-1.09 5.84,-1.27 5.45,-0.91 10.87,-1.77 16.3,-2.84 9.99,-1.95 20.07,-4.95 29.58,-8.58 9.88,-3.76 19.58,-7.07 28.68,-12.61 9.36,-5.7 18.19,-11.92 27.17,-18.19 1.43,-0.99 0.54,-5.56 0.54,-7.25 0,-0.1 -6.51,-1.13 -7.18,-1.34 -1.02,-0.32 -2.72,-0.5 -3.34,-1.38 -0.47,-0.67 -0.78,-3.08 -0.78,-3.92 0,-2.72 -0.06,-5.39 -0.25,-8.1 -0.36,-5.04 -0.06,-10.2 -0.06,-15.25 0,-2.51 -0.1,-4.99 0.32,-7.47 0.48,-2.9 2.11,-3.64 4.89,-4.22 1.56,-0.33 3.01,-0.55 4.61,-0.67 1.97,-0.15 1.8,0.02 1.85,-1.88 0.09,-3.51 0.18,-7.02 0.27,-10.53 -23.72,0 -47.44,0 -71.16,0 -1.3,0 -2.59,0 -3.89,0 4.81,-15.35 9.63,-30.71 14.45,-46.06 4.38,2.66 8.72,5.35 13.06,8.06 1.98,1.23 3.97,2.71 5.62,4.36 1.85,1.85 1.98,2.9 0.25,5.06 -0.68,0.85 -1.09,2.34 -1.55,3.32 -0.49,1.05 1.05,1.36 1.93,1.87 0.72,0.42 5.47,3.77 5.97,3.25 3.59,-3.77 7.17,-7.54 10.76,-11.31 6.83,-7.18 13.65,-14.36 20.47,-21.53 -1.02,-0.72 -7.55,-6.2 -8.26,-5.75 -2.64,1.68 -5.07,3.41 -7.91,4.65zm-23.24 109.88l0 0c-4.07,2.18 -8.03,4.37 -12.16,6.32 -4.98,2.36 -10.2,4.12 -15.4,5.95 -9.13,3.22 -18.47,5.35 -27.86,7.69 3.58,-11.23 7.17,-22.46 10.75,-33.68 1.63,-5.11 3.26,-10.22 4.89,-15.32 0.31,-0.95 0.63,-0.66 1.66,-0.66 2.7,0 5.4,0 8.11,0 2.39,0 30.02,-0.17 30.02,0.16 0,9.85 0,19.7 0,29.54zm-98.6 -116.48l0 0c9.31,0.21 18.65,0.32 27.88,1.74 9.79,1.5 19.3,3.32 28.96,5.49 -3.55,10.89 -7.1,21.78 -10.65,32.67 -1.96,6.01 -3.91,12.01 -5.87,18.01 -0.06,0.18 -0.75,2.77 -0.9,2.77 -0.82,-0 -1.64,-0 -2.46,-0.01 -25.38,-0.1 -50.76,-0.2 -76.14,-0.3 -0.14,-0 -1.75,0.1 -1.79,-0.03 -0.35,-1.07 -0.7,-2.15 -1.05,-3.22 -1.98,-6.02 -3.95,-12.04 -5.92,-18.06 -3.48,-10.61 -6.96,-21.22 -10.45,-31.84 18.98,-5.55 38.7,-7.23 58.41,-7.23zm-71.44 60.36l0 0c-2.51,-0.25 -4.9,-0.26 -7.37,-0.82 -2.54,-0.57 -2.93,-3.18 -3.51,-5.48 -0.38,-1.52 -0.11,-1.72 -1.59,-1.72 -1.87,0 -3.73,0 -5.6,0 -1.19,0 -4.38,-0.82 -4.39,0.7 -0.09,12.96 -0.19,25.92 -0.29,38.89 -0.01,1.06 -0.02,2.11 -0.02,3.17 2.97,0 5.94,0 8.91,0 0.29,0 2.52,0.18 2.58,-0.1 0.32,-1.45 0.64,-2.84 1.11,-4.25 0.37,-1.11 0.65,-1.93 1.54,-2.57 1.1,-0.81 2.24,-0.94 3.55,-1.11 2.39,-0.32 4.73,-0.3 7.13,-0.3 0.76,0 7.86,-0.43 8.01,0.05 0.43,1.33 0.87,2.65 1.3,3.98 2.16,6.6 4.31,13.2 6.47,19.8 2.74,8.41 5.49,16.81 8.23,25.22 -10.45,-2.27 -20.84,-4.91 -30.82,-8.82 -10,-3.91 -19.24,-8.55 -28.28,-14.34 -17.09,-10.94 -31.96,-30.62 -26.27,-51.85 0.63,-2.35 1.09,-5.29 2.27,-7.44 1.42,-2.58 2.97,-5 4.59,-7.46 3.03,-4.6 6.77,-8.27 10.84,-11.92 7.75,-6.97 17.23,-12.22 26.68,-16.48 0.63,-0.28 1.26,-0.57 1.88,-0.85 4.82,14.57 9.63,29.14 14.44,43.71 -0.47,0 -0.94,0 -1.41,0zm71.44 80.01l0 0c-2.81,-0.12 -5.62,-0.24 -8.43,-0.36 -0.62,-0.02 -6.35,0.15 -6.52,-0.36 -1.34,-4.1 -2.67,-8.2 -4.01,-12.3 -4.23,-12.99 -8.47,-25.98 -12.7,-38.97 -0.18,-0.54 -0.35,-1.08 -0.53,-1.62 20.99,0 41.97,0 62.96,0 -3.61,10.97 -7.21,21.93 -10.82,32.9 -1.94,5.9 -3.88,11.8 -5.82,17.7 -0.21,0.64 -0.39,2.36 -1.15,2.4 -2.66,0.13 -5.32,0.25 -7.99,0.38 -1.67,0.08 -3.33,0.16 -5,0.23zm-5.5 27.67l0 0c3.25,0 6.49,0 9.73,0 -1.57,5.08 -3.14,10.16 -4.71,15.24 -1.68,-5.08 -3.35,-10.16 -5.03,-15.24z"/>
  <path class="fil4" d="M71.61 845.28l0 -8.35c7.9,-1.33 13.67,-2.61 17.14,-3.89 3.46,-1.22 6.13,-2.84 8.08,-4.75 1.86,-1.91 3.28,-4.7 4.17,-8.35 0.8,-3.59 1.24,-9.34 1.24,-17.11l0 -147c0,-7.89 -0.44,-13.63 -1.24,-17.22 -0.89,-3.54 -2.31,-6.32 -4.35,-8.23 -1.95,-1.91 -4.62,-3.48 -7.9,-4.7 -3.29,-1.16 -9.06,-2.49 -17.14,-3.94l0 -8.35 113.92 0c6.48,0 12.72,0.09 18.73,0.28l0.33 -0.75 31.52 0 1.05 2.92c10.64,1.14 20.28,2.69 28.91,4.62 20.87,4.7 38.54,11.6 52.92,20.76 14.38,9.22 25.13,20.59 32.23,34.27 7.1,13.63 10.66,29.92 10.66,48.83 0,19.14 -3.29,36.01 -10.03,50.56 -6.66,14.55 -16.43,26.73 -29.21,36.59 -3.66,2.83 -7.6,5.5 -11.82,8 0.52,1.11 1.03,2.13 1.53,3.07 2.45,4.64 5.45,8.29 8.92,10.9 3.4,2.61 8.17,4.52 14.16,5.74l0 8.35 -91.96 0 0 -6.14c-2.62,0.36 -5.3,0.69 -8.03,0.99 -16.4,1.79 -37.86,2.77 -64.33,2.89l0 2.27 -85.15 0 0 -2.26 -14.34 0zm195.83 -32.39c-0.25,-1.74 -0.59,-3.53 -1.04,-5.36 -1.09,-4.47 -2.59,-9.51 -4.56,-15.02l-7.42 -21.92 -92.91 0 -6.81 16.64c-1.48,3.62 -2.75,6.87 -3.8,9.74l0 32.53c6.93,0.41 17.14,0.64 30.72,0.64 14.56,0 27.53,-0.75 38.98,-2.38 11.45,-1.57 21.84,-4.06 31.26,-7.48 5.51,-1.99 10.71,-4.46 15.58,-7.4zm-116.54 -78.58l46.8 -105.81c-4.3,-0.21 -8.72,-0.31 -13.24,-0.31 -11.81,0 -23,0.23 -33.56,0.7l0 105.43zm93.55 -98.06l52.35 146.3c3.92,-7.14 6.8,-15 8.77,-23.55 2.13,-9.63 3.2,-20.18 3.2,-31.6 0,-23.02 -5.06,-41.87 -15.18,-56.65 -10.12,-14.79 -24.42,-25.57 -42.89,-32.36 -2.04,-0.76 -4.12,-1.47 -6.25,-2.14zm-77.57 119.56l83.38 0 -37.91 -109.6 -45.47 109.6z"/>
 </g>
</svg>
