<?xml version="1.0" encoding="UTF-8"?>
<!DOCTYPE svg PUBLIC "-//W3C//DTD SVG 1.1//EN" "http://www.w3.org/Graphics/SVG/1.1/DTD/svg11.dtd">
<!-- Creator: CorelDRAW 2020 (64 Bit) -->
<svg xmlns="http://www.w3.org/2000/svg" xml:space="preserve" width="69.5894mm" height="85.4724mm" version="1.1" style="shape-rendering:geometricPrecision; text-rendering:geometricPrecision; image-rendering:optimizeQuality; fill-rule:evenodd; clip-rule:evenodd"
viewBox="0 0 34915.32 42884.35"
 xmlns:xlink="http://www.w3.org/1999/xlink"
 xmlns:xodm="http://www.corel.com/coreldraw/odm/2003">
 <defs>
  <style type="text/css">
   <![CDATA[
    .fil2 {fill:#E8C136}
    .fil1 {fill:#A3743A}
    .fil3 {fill:#323233}
    .fil0 {fill:#282829}
    .fil5 {fill:#E8C136;fill-rule:nonzero}
    .fil4 {fill:#282829;fill-rule:nonzero}
   ]]>
  </style>
 </defs>
 <g id="Camada_x0020_1">
  <metadata id="CorelCorpID_0Corel-Layer"/>
  <g id="_2004227723968">
   <path class="fil0" d="M5293.59 2032.32c3911.01,-653.01 7821.92,-1306.56 11732.98,-1959.22l437.61 -73.1 437.26 75.51c3920.95,676.79 7838.78,1372.14 11762.68,2031.77l1956.36 328.89 30.15 378.71c151.02,1894.75 704.94,3128.36 2791.04,3200.1l473.64 16.31 -15 2214.75c-33.87,4971.67 13.8,9943.55 -5.62,14915.28 -9.98,2565.51 -154.58,5269.35 -917.27,7733.01 -1146.86,3704.8 -3777.6,6872.89 -6932.7,9067.98 -2389.25,1662.29 -5183,2623.76 -8078.91,2862.84 -4262.68,351.92 -8608.54,-872.71 -12010.44,-3478.07 -3051.74,-2337.27 -5104.78,-5573.65 -6277.54,-9208.01l-30.96 -95.93 -23.48 -98.04c-524.31,-2188.01 -554.42,-4451.53 -614.57,-6688.51l-1 -36.17 0 -36.28c0,-5005.79 -19.17,-10011.69 2.56,-15017.48l8.93 -2055.9 415.99 -59.86c979.13,-140.94 2068.6,-457.83 2540.68,-1413.63 279.16,-565 321.31,-1272.25 325.62,-1892.54l2.96 -417.24 1989.02 -295.17z"/>
   <path class="fil1" d="M5369.5 2513.58c3912.42,-653.26 7824.78,-1307.12 11737.25,-1959.92l356.13 -59.46 355.68 61.36c3921.7,676.94 7840.18,1372.39 11764.84,2032.17l1581.56 265.92c165.72,2078.98 860.22,3565.67 3260.01,3648.25l-11.89 1740.81c-33.82,4972.18 13.85,9944.5 -5.57,14916.73 -9.78,2500.94 -152.53,5190.83 -895.49,7590.82 -1114.45,3599.99 -3680.82,6679.93 -6745.55,8812.09 -5822.31,4050.89 -13922.3,3681.12 -19514.87,-602.13 -2973.17,-2277.17 -4967.76,-5430.71 -6110.11,-8970.74l-25.19 -78.12 -19.12 -79.78c-513.42,-2143.96 -542.22,-4394.68 -601.33,-6588.11l-0.8 -29.65 0 -29.7c0,-5005.14 -19.17,-10010.23 2.51,-15015.42l7.12 -1635.6c2903.83,-417.84 3271.45,-1969.91 3284.15,-3784.98l1580.66 -234.56z"/>
   <path class="fil2" d="M5615.25 3985.52c3912.37,-653.31 7824.78,-1306.61 11737.15,-1959.92l106.22 -17.76 106.17 18.36c3921.5,677.34 7843.04,1354.68 11764.59,2032.07l390.55 67.43 110.48 380.61c405.6,1397.73 1357.94,2573.29 2706.75,3153.14l383.78 165.02 -0.15 417.74c-1.86,4970.47 13.85,9940.94 -5.57,14911.41 -9.08,2317.76 -140.54,4932.24 -828.76,7155.32 -1014.91,3278.53 -3383.94,6088.58 -6172.22,8028.43 -5299.76,3687.24 -12663.65,3337.58 -17755.24,-561.94 -2730.83,-2091.48 -4549.77,-4993.55 -5597.29,-8244.23l-7.53 -23.33 -5.72 -23.78c-476.95,-1996.6 -501.48,-4229.76 -560.84,-6280.85l-0.25 -9.48 0 -9.63c5.57,-5004.54 -3.06,-10009.08 2.51,-15013.72l0.5 -419.35 386.03 -163.67c1465.96,-621.8 2330.5,-1555.82 2728.48,-3131.77l101.5 -401.84 408.86 -68.29z"/>
   <path class="fil0" d="M2623.96 8171.13c1459.14,-618.84 2603.64,-1611.67 3095.74,-3560.2 3912.37,-653.31 7824.73,-1306.61 11737.1,-1959.87 3946.33,681.55 7818.36,1350.36 11764.64,2032.02 438.62,1511.32 1482.32,2878.39 3065.24,3558.94 -1.86,4969.67 -3.71,9939.44 -5.62,14909.05 -26.04,2173.36 -136.32,4825.47 -800.31,6970.33 -903.67,2919.18 -3028.76,5677.96 -5928.68,7695.53 -5063.74,3523.02 -12105.42,3209.49 -17007.5,-544.93 -2365.02,-1811.21 -4255.25,-4447.01 -5379.33,-7935.26 -445.04,-1862.79 -485.73,-4145.17 -543.78,-6151.8 5.52,-4979.15 -3.01,-10034.67 2.51,-15013.82z"/>
   <path class="fil3" d="M18506.13 40249.44c-171.59,11.39 -343.39,19.87 -515.23,25.34l459.99 -740.81 362.55 -719.39 373.84 -509.81 158.65 -430.54 192.57 -169.89 441.83 -804.38 1302.85 -2685.08 -1280.17 3070.16 -351.21 657.12 -181.28 351.16 -226.58 351.26 -101.95 577.75 -169.94 181.23 -135.92 237.92 -45.36 169.94 -56.65 124.68 -203.95 271.89 -24.03 41.44zm-1581.66 21.27c-277.66,-11.09 -555.22,-29.95 -832.07,-56.55 434.65,-483.07 733.28,-1000.61 928.16,-1543.68 37.73,-366.32 75.46,-732.68 113.24,-1099 37.78,256.79 75.51,513.67 113.29,770.41 137.37,-123.73 228.99,-293.11 305.91,-477.2 62.01,-148.46 173.7,-271.04 260.55,-406.45 54.79,-22.68 109.53,-45.36 164.27,-67.98 39.69,-183.18 79.32,-366.37 118.96,-549.5 158.55,-260.6 270.43,-562.84 504.14,-628.72 161.26,-299.38 414.48,-612.82 628.82,-889.37 26.44,-237.87 52.83,-475.79 79.27,-713.77 37.78,117.1 75.51,234.16 113.29,351.26 800.62,-1272.65 1601.18,-2545.39 2401.8,-3818.04 -721.29,1344.39 -1442.58,2688.79 -2163.88,4033.18 -80.38,108.83 -154.58,147.41 -228.24,262.86 -171.89,269.58 -328.28,631.13 -462.9,937.99 -64.17,332.35 -128.34,664.65 -192.52,996.94 -64.22,-105.72 -148.26,-256.79 -254.93,-317.15 -109.53,313.38 -156.74,626.87 -266.22,940.3 -67.98,-75.51 -135.97,-151.07 -203.9,-226.63 -64.27,237.92 -128.39,475.84 -192.62,713.77 -60.41,132.21 -120.82,264.36 -181.28,396.47 -152.28,147.36 -214.34,294.62 -260.55,441.88 -26.44,135.92 -52.88,271.89 -79.32,407.81 -86.9,128.39 -173.75,256.74 -260.6,385.23l-152.68 155.94zm-2038.39 -222.22c-337.11,-60.21 -672.42,-131.76 -1005.17,-215.04l658.02 -1077.62c83.14,-226.63 86.85,-430.54 169.94,-657.07 139.73,-147.36 358.79,-317.3 498.52,-464.5 15.1,-385.23 30.2,-770.36 45.31,-1155.64 56.65,177.51 113.29,354.98 169.94,532.49 181.83,-239.98 389.14,-587.53 570.97,-827.51 195.88,-258.54 366.27,-409.36 562.09,-667.86 22.63,-200.24 45.31,-400.28 67.98,-600.47 52.88,75.56 105.72,151.07 158.6,226.63 68.04,-98.24 135.92,-196.38 203.95,-294.62 18.87,-200.19 37.73,-400.28 56.65,-600.42 71.75,49.12 143.5,98.19 215.24,147.31 258.69,-292.71 517.39,-585.47 776.08,-878.08 355.03,-456.93 709.95,-913.91 1064.93,-1370.84 -42.4,-170.14 -71.35,-419.45 -90.61,-611.81 79.47,145.4 171.79,268.08 288.9,339.87 545.69,-560.84 1012.05,-1127.24 1557.78,-1688.08 -751.5,955.4 -1423.72,1916.52 -2175.21,2871.92 90.66,94.38 181.28,188.9 271.94,283.28 -132.21,30.15 -264.41,60.41 -396.57,90.56 -404.1,638.25 -808.14,1276.41 -1212.24,1914.61 -22.63,185.04 -45.31,370.13 -67.93,555.17 -86.85,-22.68 -173.7,-45.36 -260.6,-67.93 -237.92,430.49 -475.84,860.92 -713.77,1291.41 -143.5,162.36 -286.99,324.77 -430.49,487.18 -7.58,426.72 -15.1,853.4 -22.68,1280.22 -49.07,-271.89 -98.19,-543.88 -147.31,-815.77 -94.38,207.72 -188.75,415.38 -283.13,623.15 -60.41,135.92 -120.87,271.84 -181.28,407.81l-349.86 941.65zm-1908.49 -472.08c-334.81,-106.72 -666.3,-225.03 -993.53,-355.53 475.99,-482.52 991.02,-1380.52 1492.05,-2128.6 67.93,-279.42 135.97,-558.93 203.9,-838.4 26.44,113.29 52.88,226.58 79.32,339.87 128.39,-158.6 256.79,-317.25 385.18,-475.79 15.1,-234.16 30.25,-468.32 45.36,-702.43 49.07,98.19 98.14,196.38 147.26,294.52 286.99,-373.89 574.03,-747.78 861.07,-1121.57 34.02,-215.24 67.98,-430.59 102,-645.78 79.27,56.6 158.6,113.29 237.87,169.94 230.4,-283.28 460.79,-566.46 691.19,-849.79 413.88,-472.28 674.43,-930.61 985.65,-1393.46 30.2,-222.77 60.41,-445.64 90.61,-668.41 23.83,153.73 47.26,308.47 113.29,351.16 309.67,-362.45 619.29,-725 928.96,-1087.56 -366.32,521.2 -732.58,1042.25 -1098.9,1563.45 -292.16,615.02 -632.99,992.98 -1098.95,1812.71 -139.73,264.31 -279.42,528.63 -419.2,792.94 -162.41,215.24 -324.77,430.54 -487.13,645.73 -135.87,237.92 -271.79,475.84 -407.66,713.72 -5.72,353.97 -16.21,700.82 -113.29,917.72 -59,-273.75 -141.19,-455.12 -260.6,-487.18 -211.43,294.57 -422.96,589.14 -634.44,883.7 -103.96,346.35 -77.22,631.68 45.36,872.36 -102,-60.46 -203.95,-120.92 -305.91,-181.33 -227.39,517.59 -422.86,1043.81 -589.49,1578z"/>
   <path class="fil2" d="M32280.61 23188.66c-23.43,1890.98 -112.49,4138.7 -573.93,6097.97l-28553.24 0c-433.65,-1852.4 -474.39,-4110.2 -531.89,-6097.97l29659.06 0z"/>
   <path class="fil2" d="M18233.19 40265.15c-172.35,8.28 -344.74,13.6 -517.34,15.9l576.44 -928.41 362.55 -719.39 373.84 -509.81 158.65 -430.54 192.62 -169.89 441.78 -804.38 1302.85 -2685.08 -1280.17 3070.21 -351.21 657.07 -181.28 351.26 -226.58 351.16 -101.95 577.75 -169.94 181.33 -135.92 237.92 -45.36 169.94 -56.65 124.63 -203.95 271.89 -138.38 238.42zm-1628.78 -10.94c-270.63,-16.51 -541.02,-40.44 -810.55,-71.75 511.42,-525.26 852.95,-1093.78 1068.09,-1693.3 37.73,-366.32 75.46,-732.58 113.24,-1098.9 37.78,256.79 75.56,513.57 113.29,770.41 137.37,-123.73 228.99,-293.11 305.91,-477.25 62.06,-148.46 173.7,-270.99 260.55,-406.5 54.79,-22.58 109.53,-45.26 164.27,-67.98 39.69,-183.08 79.32,-366.32 118.96,-549.5 158.55,-260.6 270.43,-562.84 504.14,-628.72 161.26,-299.33 414.48,-612.72 628.82,-889.37 26.44,-237.87 52.83,-475.79 79.27,-713.72 37.78,117.15 75.56,234.21 113.29,351.21 800.62,-1272.7 1601.18,-2545.29 2401.8,-3817.94 -721.29,1344.29 -1442.58,2688.74 -2163.88,4033.13 -80.38,108.78 -154.58,147.36 -228.19,262.91 -171.89,269.48 -328.33,631.13 -462.95,937.89 -64.17,332.35 -128.34,664.7 -192.52,997.04 -64.22,-105.82 -148.26,-256.79 -254.93,-317.2 -109.53,313.33 -156.69,626.82 -266.22,940.25 -67.98,-75.46 -135.97,-151.02 -203.9,-226.53 -64.22,237.92 -128.39,475.84 -192.62,713.77 -60.41,132.16 -120.82,264.26 -181.28,396.47 -152.28,147.26 -214.34,294.52 -260.55,441.88 -26.44,135.92 -52.88,271.89 -79.32,407.81 -86.9,128.34 -173.75,256.69 -260.6,385.13l-314.14 320.76zm-1929.72 -244.9c-344.44,-66.58 -686.87,-145.05 -1026.35,-235.86l731.98 -1198.84c83.14,-226.63 86.85,-430.54 169.94,-657.17 139.73,-147.26 358.79,-317.2 498.47,-464.5 15.15,-385.13 30.25,-770.31 45.36,-1155.54 56.65,177.51 113.29,354.98 169.94,532.49 181.83,-239.98 389.14,-587.63 570.97,-827.61 195.88,-258.44 366.27,-409.41 562.09,-667.86 22.68,-200.14 45.31,-400.28 67.98,-600.37 52.88,75.51 105.77,150.97 158.6,226.53 68.04,-98.14 135.92,-196.38 203.95,-294.62 18.87,-200.09 37.78,-400.28 56.65,-600.32 71.75,49.07 143.5,98.09 215.24,147.21 258.69,-292.71 517.39,-585.37 776.08,-878.08 355.03,-456.98 710,-913.91 1064.93,-1370.84 -42.4,-170.04 -71.35,-419.45 -90.61,-611.81 79.47,145.4 171.79,268.18 288.9,339.87 545.69,-560.79 1012.1,-1127.24 1557.78,-1688.03 -751.5,955.45 -1423.67,1916.47 -2175.21,2871.97 90.66,94.38 181.28,188.8 271.94,283.18 -132.21,30.25 -264.41,60.41 -396.57,90.66 -404.05,638.15 -808.14,1276.41 -1212.24,1914.61 -22.63,185.04 -45.31,370.08 -67.93,555.07 -86.85,-22.58 -173.7,-45.31 -260.6,-67.93 -237.92,430.49 -475.79,861.02 -713.77,1291.51 -143.5,162.36 -286.99,324.72 -430.49,487.08 -7.58,426.82 -15.1,853.5 -22.68,1280.22 -49.07,-271.94 -98.19,-543.83 -147.26,-815.67 -94.43,207.62 -188.8,415.38 -283.18,623.1 -60.41,135.87 -120.87,271.79 -181.28,407.81l-402.64 1083.74zm-1891.99 -496.21c-351.61,-117.36 -699.32,-247.86 -1042,-391.65 499.27,-456.63 1045.96,-1417.7 1576.8,-2210.49 67.93,-279.42 135.92,-558.93 203.9,-838.4 26.44,113.39 52.88,226.63 79.32,339.87 128.39,-158.55 256.79,-317.15 385.18,-475.79 15.15,-234.06 30.25,-468.22 45.36,-702.43 49.07,98.24 98.14,196.38 147.26,294.57 287.04,-373.84 574.08,-747.73 861.07,-1121.67 34.02,-215.19 67.98,-430.44 102,-645.73 79.27,56.7 158.6,113.39 237.87,169.94 230.4,-283.18 460.79,-566.46 691.19,-849.69 413.88,-472.38 674.48,-930.61 985.65,-1393.56 30.2,-222.77 60.41,-445.54 90.61,-668.41 23.83,153.73 47.26,308.47 113.29,351.26 309.67,-362.55 619.29,-725.1 928.96,-1087.56 -366.32,521.1 -732.58,1042.25 -1098.9,1563.35 -292.16,615.02 -632.99,993.08 -1098.95,1812.71 -139.73,264.31 -279.42,528.73 -419.2,793.04 -162.36,215.19 -324.72,430.54 -487.13,645.73 -135.87,237.92 -271.79,475.79 -407.66,713.72 -5.72,353.87 -16.16,700.72 -113.29,917.62 -59,-273.75 -141.14,-455.12 -260.6,-487.08 -211.43,294.52 -422.96,589.03 -634.44,883.6 -103.96,346.45 -77.22,631.73 45.36,872.36 -101.95,-60.41 -203.95,-120.82 -305.91,-181.23 -244.09,555.62 -451.46,1121.22 -625.76,1695.91z"/>
   <path class="fil4" d="M8651.69 25260.97l468.42 -1044.61c19.97,-43.8 30.1,-77.97 30.1,-102.3 0,-37.28 -28.75,-61.56 -85.95,-72.7l0 -42.55 607.15 0 0 42.55c-38.13,5.37 -64.27,16.01 -79.32,32.36 -14.65,16.41 -39.89,64.27 -76.21,142.64l-613.77 1325.08c-26.19,56.34 -38.98,93.12 -38.98,110.43 0,44.3 27.44,70.04 81.93,77.97l0 42.5 -610.26 0 0 -42.5c54.54,-7.93 81.98,-34.17 81.98,-79.37 0,-16.41 -12.84,-52.68 -38.98,-109.03l-614.22 -1325.08c-36.33,-78.37 -61.61,-126.24 -76.21,-142.64 -14.65,-16.36 -41.24,-26.99 -79.32,-32.36l0 -42.55 630.63 0 0 42.55c-57.2,11.14 -85.55,35.42 -85.55,72.7 0,24.33 9.73,58.5 29.7,102.3l468.87 1044.61zm-4721.91 2383.28l0 486.63 1137.63 0c26.14,0 46.11,-6.17 59.81,-18.16 13.7,-11.94 25.29,-33.21 33.67,-64.27l42.55 0 0 457.38 -42.55 0c-8.38,-31.06 -19.97,-52.33 -33.67,-64.27 -13.7,-11.99 -33.67,-18.16 -59.81,-18.16l-1608.26 0 0 -42.5c31.01,-8.98 52.28,-20.02 64.22,-33.72 11.99,-13.8 18.21,-34.17 18.21,-61.21l0 -1498.73c0,-27.04 -6.22,-47.46 -18.21,-61.21 -11.94,-13.7 -33.21,-25.24 -64.22,-33.67l0 -42.5 1576.35 0c26.14,0 46.06,-6.27 59.81,-18.21 13.75,-12.44 25.24,-33.67 33.72,-64.27l42.55 0 0 457.33 -42.55 0c-8.48,-30.51 -19.97,-51.78 -33.72,-64.22 -13.75,-11.99 -33.67,-18.11 -59.41,-18.11l-1106.12 0 0 420.05 717.93 0c25.69,0 45.66,-6.17 59.41,-18.21 13.75,-11.94 25.24,-33.16 33.67,-64.17l42.55 0 0 446.69 -42.55 0c-8.43,-30.1 -19.92,-51.38 -33.67,-63.82 -13.75,-12.39 -33.72,-18.66 -59.41,-18.66l-717.93 0zm3198.8 -845.47l-211.43 416.99 -36.33 -20.87c0.9,-8.38 1.3,-15.5 1.3,-20.77 0,-29.3 -25.24,-61.21 -75.31,-94.93 -154.23,-107.17 -335.01,-160.81 -542.88,-160.81 -91.77,0 -172.85,11.04 -243.29,33.67 -50.98,17.71 -92.17,43.4 -124.13,78.42 -31.46,34.57 -47.36,72.3 -47.36,113.04 0,66.88 40.34,112.59 120.52,136.52 41.64,12.39 130.75,25.24 267.67,39.44l203.85 20.77c121.02,12.89 219.36,30.56 294.22,53.23 74.96,22.58 140.99,54.04 199.04,94.78 58.9,42.55 105.46,98.39 139.58,167.53 34.12,69.64 51.43,143.55 51.43,222.47 0,124.58 -40.34,235.76 -120.57,332.8 -72.65,88.25 -185.64,153.78 -339.02,195.98 -114.29,32.26 -236.62,48.22 -367.37,48.22 -234.46,0 -465.76,-56.24 -694.45,-168.38 -48.32,-22.58 -77.12,-33.72 -86.85,-33.72 -11.09,0 -28.8,9.78 -53.18,28.45l-37.68 -19.12 192.31 -434.7 37.68 18.16c0,7.58 0,13.3 0,16.81 0,39.03 18.61,74.86 55.39,107.67 56.29,50.07 143.65,93.52 261.05,129.85 117.86,36.38 229.54,54.59 335.01,54.59 115.25,0 213.64,-19.52 294.72,-58.55 45.21,-21.67 81.08,-50.47 107.67,-86.4 27.04,-35.87 40.34,-73.5 40.34,-112.59 0,-58.95 -31.46,-101.05 -94.83,-126.29 -44.3,-17.31 -133.41,-33.26 -267.67,-47.87l-200.29 -20.82c-133.86,-14.15 -229.09,-27.49 -284.53,-39.94 -55.39,-12.39 -110.78,-32.76 -166.17,-60.71 -78.87,-38.93 -140.94,-97.44 -185.69,-175.41 -40.79,-70.44 -61.16,-151.17 -61.16,-242.04 0,-150.27 51.43,-274.3 154.63,-372.29 135.22,-129.35 338.17,-194.02 608.95,-194.02 112.99,0 218.91,11.49 316.39,34.52 97.94,23.08 219.81,65.12 366.52,126.74 50.07,19.92 80.63,29.65 92.22,29.65 18.11,0 38.98,-9.73 63.32,-29.65l36.38 19.57zm736.49 903.97l0 584.52c0,26.24 6.22,46.11 18.66,60.31 12.39,14.6 33.67,25.34 63.82,33.32l0 42.5 -553.11 0 0 -42.5c31.01,-8.98 52.33,-20.02 64.27,-33.72 11.94,-13.8 18.16,-33.67 18.16,-59.91l0 -1500.03c0,-27.04 -6.22,-47.46 -18.16,-61.21 -11.94,-13.7 -33.26,-25.24 -64.27,-33.67l0 -42.5 1106.62 0c128.95,0 231.35,8.78 307.11,26.09 75.76,17.31 142.69,47.01 200.69,89.51 59.86,43.95 106.37,101.95 140.54,173.8 33.72,74.41 50.52,153.28 50.52,236.12 0,119.66 -31.91,224.27 -96.18,314.69 -55.39,76.66 -128.49,131.65 -219.81,164.02 -91.32,32.31 -218.91,48.67 -382.47,48.67l-636.4 0zm0 -292.46l591.64 0c117.91,0 200.74,-12.44 248.21,-37.68 30.56,-16.36 54.89,-42.5 73.55,-78.47 18.61,-35.87 27.9,-75.36 27.9,-118.76 0,-42.1 -9.28,-81.03 -27.9,-116.9 -18.66,-35.97 -43,-62.11 -73.55,-78.47 -46.56,-25.24 -129.45,-37.63 -248.21,-37.63l-591.64 0 0 467.92zm2538.07 -792.34c309.32,0 554.37,83.74 735.64,250.77 191.46,175.05 287.14,401.54 287.14,679 0,169.69 -46.06,328.33 -137.78,475.94 -179.52,287.59 -473.79,431.59 -882.4,431.59 -307.06,0 -550.85,-83.74 -732.08,-250.82 -97.09,-89.51 -170.64,-196.33 -220.71,-321.21 -44.3,-109.98 -66.48,-226.08 -66.48,-347.45 0,-177.76 45.71,-340.02 136.52,-487.53 174.15,-281.87 467.52,-425.02 880.14,-430.29zm1.25 300.44c-169.69,0 -310.62,50.57 -423.61,151.12 -133.81,118.81 -200.74,274.3 -200.74,467.01 0,192.87 66.93,348.4 200.74,467.21 112.99,100.5 254.78,151.12 426.32,151.12 171.04,0 312.43,-50.62 424.52,-151.12 66.93,-59.86 118.36,-132.96 153.83,-219.86 31.46,-77.17 46.96,-156.94 46.96,-239.28 0,-201.7 -66.93,-359.84 -200.79,-475.09 -113.84,-99.29 -256.08,-149.37 -427.23,-151.12zm1770.06 781.75l0 587.13c0,26.24 6.22,46.11 18.61,60.31 12.44,14.6 33.67,25.34 63.77,33.32l0 42.5 -553.01 0 0 -42.5c31.01,-8.98 52.28,-20.02 64.27,-33.72 11.94,-13.8 18.11,-33.67 18.11,-59.91l0 -1500.03c0,-27.04 -6.17,-47.46 -18.11,-61.21 -11.99,-13.7 -33.26,-25.24 -64.27,-33.67l0 -42.5 1109.68 0c135.12,0 242.44,7.93 321.71,23.43 79.32,15.5 148.46,43 207.42,82.03 68.29,45.21 119.21,106.32 153.33,183.43 31.91,74.51 47.87,154.18 47.87,239.33 0,289.8 -160.86,459.14 -482.17,508.71l344.34 487.99c60.26,85.5 104.61,140.49 132.96,165.27 28.4,24.38 62.47,38.13 103.26,40.84l0 42.5 -641.22 0 0 -42.5c43.85,-7.17 65.98,-22.68 65.98,-46.61 0,-15.55 -20.37,-53.18 -61.16,-112.99l-361.2 -521.15 -470.17 0zm0 -292.51l597.87 0c88.15,0 150.67,-2.66 186.95,-7.98 36.38,-4.87 70.09,-15.9 100.2,-32.41 66.03,-35.37 98.79,-99.64 98.79,-192.26 0,-92.67 -32.76,-156.84 -98.79,-192.31 -31.06,-17.26 -64.27,-28.45 -99.24,-33.32 -35.07,-4.82 -97.99,-6.97 -187.9,-6.97l-597.87 0 0 465.26zm2631.09 -465.26l0 1343.59c0,27.04 6.17,47.41 18.16,61.21 11.94,13.7 33.26,24.74 64.27,33.72l0 42.5 -553.11 0 0 -42.5c31.06,-8.98 52.33,-20.02 64.27,-33.72 11.99,-13.8 18.16,-34.17 18.16,-61.21l0 -1343.59 -547.74 0c-25.74,0 -45.66,5.72 -59.36,17.66 -13.75,11.49 -25.29,33.26 -33.72,64.67l-42.55 0 0 -457.33 42.55 0c9.33,31.51 20.82,52.73 34.12,64.67 13.75,12.04 33.21,17.81 58.95,17.81l1482.37 0c26.59,0 46.96,-5.77 60.71,-17.81 13.8,-11.94 25.24,-33.16 33.72,-64.67l42.55 0 0 457.33 -42.55 0c-8.48,-31.41 -19.92,-53.18 -33.72,-64.67 -13.75,-11.94 -34.12,-17.66 -60.71,-17.66l-546.39 0zm944.81 1343.59l0 -1500.13c0,-26.09 -6.17,-46.06 -18.16,-59.81 -11.99,-13.7 -33.26,-25.24 -64.27,-33.67l0 -42.5 553.06 0 0 42.5c-31.01,7.98 -52.28,18.66 -64.22,33.26 -11.99,14.15 -18.16,34.12 -18.16,60.21l0 1500.13c0,27.04 6.17,47.41 18.61,61.61 12.39,14.6 33.62,25.34 63.77,33.32l0 42.5 -553.06 0 0 -42.5c31.01,-8.98 52.28,-20.02 64.27,-33.72 11.99,-13.8 18.16,-34.17 18.16,-61.21zm1665 -374.04l468.37 -1044.51c19.97,-43.9 30.15,-77.97 30.15,-102.35 0,-37.23 -28.8,-61.56 -85.95,-72.7l0 -42.5 607.15 0 0 42.5c-38.13,5.32 -64.27,16.01 -79.32,32.36 -14.65,16.41 -39.89,64.22 -76.26,142.69l-613.77 1325.08c-26.14,56.24 -38.98,93.07 -38.98,110.38 0,44.3 27.49,70.04 81.98,78.02l0 42.5 -610.26 0 0 -42.5c54.54,-7.98 82.03,-34.22 82.03,-79.42 0,-16.36 -12.89,-52.73 -39.03,-108.98l-614.22 -1325.08c-36.33,-78.47 -61.61,-126.29 -76.21,-142.69 -14.65,-16.36 -41.24,-27.04 -79.32,-32.36l0 -42.5 630.58 0 0 42.5c-57.15,11.14 -85.5,35.47 -85.5,72.7 0,24.38 9.73,58.45 29.65,102.35l468.92 1044.51zm2036.33 -1293.97c309.32,0 554.42,83.74 735.64,250.77 191.46,175.05 287.19,401.54 287.19,679 0,169.69 -46.11,328.33 -137.83,475.94 -179.52,287.59 -473.79,431.59 -882.4,431.59 -307.06,0 -550.8,-83.74 -732.08,-250.82 -97.04,-89.51 -170.59,-196.33 -220.71,-321.21 -44.3,-109.98 -66.43,-226.08 -66.43,-347.45 0,-177.76 45.66,-340.02 136.47,-487.53 174.15,-281.87 467.57,-425.02 880.14,-430.29zm1.3 300.44c-169.69,0 -310.62,50.57 -423.61,151.12 -133.86,118.81 -200.79,274.3 -200.79,467.01 0,192.87 66.93,348.4 200.79,467.21 112.99,100.5 254.78,151.12 426.27,151.12 171.04,0 312.48,-50.62 424.57,-151.12 66.93,-59.86 118.36,-132.96 153.78,-219.86 31.46,-77.17 46.96,-156.94 46.96,-239.28 0,-201.7 -66.88,-359.84 -200.74,-475.09 -113.89,-99.29 -256.13,-149.37 -427.23,-151.12zm3681.87 897.45l247.3 369.58 -33.72 23.48c-24.33,-22.68 -44.25,-33.72 -59.81,-33.72 -15.5,0 -59.36,20.37 -131.2,62.01 -148.86,85.55 -274.3,143.7 -376.25,173.35 -101.9,29.65 -222.92,44.7 -363.36,44.7 -279.67,0 -509.21,-66.43 -688.68,-198.99 -105.46,-77.12 -188.8,-172.75 -249.51,-287.09 -70.04,-131.2 -105.01,-275.2 -105.01,-433.4 0,-215.04 62.92,-401.59 188.35,-560.24 188.75,-238.37 474.14,-357.59 856.16,-357.59 140.49,0 261.05,14.6 361.6,44.3 100.2,29.15 226.03,87.3 376.7,173.7 71.85,40.79 115.7,60.66 131.2,60.66 15.55,0 35.47,-10.99 59.81,-33.57l33.72 23.48 -247.3 369.98 -35.02 -23.48c1.81,-13.7 2.66,-25.24 2.66,-34.97 0,-24.84 -10.64,-48.37 -32.36,-70.49 -21.67,-22.18 -60.26,-48.72 -116.1,-79.73 -153.33,-86.45 -315.99,-129.45 -487.48,-129.45 -202.95,0 -364.71,50.98 -485.23,152.43 -142.29,118.81 -213.19,273.9 -213.19,465.71 0,192.01 70.89,347.05 213.19,465.81 120.52,101.55 282.28,152.53 485.23,152.53 171.49,0 334.15,-43.45 487.48,-129.85 55.84,-31.06 94.43,-57.65 116.1,-79.83 21.73,-22.13 32.36,-45.61 32.36,-70.95 0,-9.33 -0.85,-20.72 -2.66,-33.62l35.02 -24.79zm983.4 315.04l1088.41 0c27.04,0 47.41,-6.17 61.16,-18.16 13.75,-11.94 25.29,-33.21 33.72,-64.27l42.55 0 0 457.38 -42.55 0c-8.43,-31.06 -19.97,-52.33 -33.72,-64.27 -13.75,-11.99 -34.12,-18.16 -61.16,-18.16l-1559.04 0 0 -42.5c30.96,-8.98 52.28,-20.02 64.22,-33.72 11.99,-13.8 18.16,-34.17 18.16,-61.21l0 -1498.73c0,-27.04 -6.17,-47.46 -18.16,-61.21 -11.94,-13.7 -33.26,-25.24 -64.22,-33.67l0 -42.5 553.06 0 0 42.5c-31.01,7.98 -52.28,18.66 -64.27,33.26 -11.94,14.15 -18.16,34.57 -18.16,61.61l0 1343.64zm3197.9 -1343.64l0 994.03c0,187.9 -34.57,328.38 -103.71,421.86 -124.53,167.98 -382.02,252.12 -772.42,252.12 -282.33,0 -498.12,-45.61 -647.94,-136.52 -87.3,-52.73 -148.01,-124.43 -181.68,-215.34 -32.81,-90.31 -49.22,-197.63 -49.22,-322.11l0 -994.03c0,-27.04 -6.22,-47.46 -18.11,-61.21 -12.04,-13.7 -33.26,-24.84 -64.32,-33.67l0 -42.5 553.06 0 0 42.5c-30.51,7.98 -51.83,19.12 -64.22,33.26 -11.99,14.15 -18.16,34.57 -18.16,61.61l0 885.41c0,101.95 5.72,177.76 16.81,226.93 11.09,48.67 32.36,89.91 63.42,122.72 82.84,88.2 224.63,132.56 424.97,132.56 201.2,0 343.49,-44.35 426.32,-132.56 30.15,-32.81 50.98,-74.06 62.06,-122.72 11.09,-49.17 16.81,-124.98 16.81,-226.93l0 -885.41c0,-27.04 -6.22,-46.96 -18.11,-61.21 -11.99,-13.7 -33.26,-24.84 -64.32,-33.67l0 -42.5 521.2 0 0 42.5c-31.06,8.83 -52.28,19.97 -64.27,33.67 -11.94,13.75 -18.16,34.17 -18.16,61.21zm1945.47 706.39c198.99,75.31 298.68,214.89 298.68,418.8 0,162.21 -58.05,288.9 -174.15,381.12 -58.5,45.61 -126.74,78.87 -204.31,99.24 -77.52,20.37 -173.25,30.61 -287.59,30.61l-1211.18 0 0 -42.5c31.01,-8.98 52.33,-20.02 64.27,-33.72 11.94,-13.8 18.16,-34.17 18.16,-61.21l0 -1498.73c0,-27.04 -6.22,-47.46 -18.16,-61.21 -11.94,-13.7 -33.26,-25.24 -64.27,-33.67l0 -42.5 1199.64 0c114.8,0 207.47,8.78 277.86,26.09 70.04,17.31 131.2,46.51 184.39,88.2 104.56,81.98 156.89,200.74 156.89,355.43 0,173.25 -80.23,297.83 -240.23,374.04zm-1107.93 -139.18l678.54 0c102.81,0 174.6,-15.1 215.34,-45.21 45.66,-34.57 68.69,-88.15 68.69,-160.86 0,-74.41 -21.73,-127.14 -64.72,-158.7 -43.4,-31.36 -116.5,-47.31 -219.31,-47.31l-678.54 0 0 412.07zm0 776.43l657.22 0c121.87,0 210.08,-16.86 263.71,-50.47 61.61,-39.44 92.17,-102.86 92.17,-191.46 0,-87.8 -30.56,-151.17 -92.17,-191.46 -52.73,-33.67 -140.94,-50.52 -263.71,-50.52l-657.22 0 0 483.92zm2143.61 -486.63l0 486.63 1137.63 0c26.14,0 46.11,-6.17 59.86,-18.16 13.7,-11.94 25.24,-33.21 33.67,-64.27l42.55 0 0 457.38 -42.55 0c-8.43,-31.06 -19.97,-52.33 -33.67,-64.27 -13.75,-11.99 -33.72,-18.16 -59.86,-18.16l-1608.26 0 0 -42.5c31.01,-8.98 52.33,-20.02 64.27,-33.72 11.94,-13.8 18.16,-34.17 18.16,-61.21l0 -1498.73c0,-27.04 -6.22,-47.46 -18.16,-61.21 -11.94,-13.7 -33.26,-25.24 -64.27,-33.67l0 -42.5 1576.35 0c26.19,0 46.11,-6.27 59.86,-18.21 13.7,-12.44 25.24,-33.67 33.67,-64.27l42.55 0 0 457.33 -42.55 0c-8.43,-30.51 -19.97,-51.78 -33.67,-64.22 -13.75,-11.99 -33.67,-18.11 -59.41,-18.11l-1106.17 0 0 420.05 717.93 0c25.74,0 45.66,-6.17 59.41,-18.21 13.75,-11.94 25.24,-33.16 33.72,-64.17l42.55 0 0 446.69 -42.55 0c-8.48,-30.1 -19.97,-51.38 -33.72,-63.82 -13.75,-12.39 -33.67,-18.66 -59.41,-18.66l-717.93 0zm-20391.94 -2009.29l0 -1500.13c0,-26.14 -6.17,-46.01 -18.16,-59.81 -11.94,-13.7 -33.21,-25.24 -64.27,-33.67l0 -42.55 553.11 0 0 42.55c-31.01,8.03 -52.33,18.61 -64.27,33.32 -11.94,14.15 -18.16,34.02 -18.16,60.16l0 1500.13c0,27.04 6.22,47.46 18.61,61.61 12.44,14.7 33.67,25.34 63.82,33.26l0 42.5 -553.11 0 0 -42.5c31.06,-8.83 52.33,-19.97 64.27,-33.67 11.99,-13.75 18.16,-34.17 18.16,-61.21zm1259.5 -155.09l1088.41 0c27.04,0 47.46,-6.17 61.16,-18.21 13.7,-11.89 25.29,-33.16 33.67,-64.17l42.55 0 0 457.33 -42.55 0c-8.38,-31.01 -19.97,-52.38 -33.67,-64.27 -13.7,-11.94 -34.12,-18.21 -61.16,-18.21l-1559.09 0 0 -42.5c31.06,-8.83 52.33,-19.97 64.27,-33.67 11.99,-13.75 18.21,-34.17 18.21,-61.21l0 -1498.78c0,-26.99 -6.22,-47.36 -18.21,-61.16 -11.94,-13.7 -33.21,-25.24 -64.27,-33.67l0 -42.55 553.11 0 0 42.55c-31.01,8.03 -52.33,18.61 -64.27,33.32 -11.94,14.15 -18.16,34.52 -18.16,61.51l0 1343.69zm2902.33 -481.26l-1021.08 0 0 637.75c0,26.14 6.22,46.06 18.61,60.21 12.39,14.7 33.67,25.34 63.82,33.26l0 42.5 -553.06 0 0 -42.5c30.96,-8.83 52.28,-19.97 64.22,-33.67 11.99,-13.75 18.16,-33.67 18.16,-59.81l0 -1501.54c0,-26.14 -6.17,-46.01 -18.16,-59.81 -11.94,-13.7 -33.26,-25.24 -64.22,-33.67l0 -42.55 553.06 0 0 42.55c-31.06,8.03 -52.28,18.61 -64.27,33.32 -11.94,14.15 -18.16,34.02 -18.16,60.16l0 571.27 1021.08 0 0 -571.27c0,-26.14 -6.22,-46.01 -18.21,-60.16 -11.94,-14.7 -33.21,-25.29 -64.27,-33.32l0 -42.55 553.11 0 0 42.55c-31.01,8.43 -52.33,19.97 -64.27,33.67 -11.94,13.8 -18.16,33.67 -18.16,59.81l0 1501.54c0,26.14 6.22,46.06 18.16,59.81 11.94,13.7 33.26,24.84 64.27,33.67l0 42.5 -553.11 0 0 -42.5c30.15,-7.93 51.43,-18.56 63.87,-33.26 12.39,-14.15 18.61,-34.07 18.61,-60.21l0 -637.75zm1259.9 -5.37l0 486.63 1137.58 0c26.19,0 46.11,-6.17 59.86,-18.21 13.7,-11.89 25.24,-33.16 33.72,-64.17l42.5 0 0 457.33 -42.5 0c-8.48,-31.01 -20.02,-52.38 -33.72,-64.27 -13.75,-11.94 -33.67,-18.21 -59.86,-18.21l-1608.26 0 0 -42.5c31.06,-8.83 52.33,-19.97 64.27,-33.67 11.99,-13.75 18.21,-34.17 18.21,-61.21l0 -1498.78c0,-26.99 -6.22,-47.36 -18.21,-61.16 -11.94,-13.7 -33.21,-25.24 -64.27,-33.67l0 -42.55 1576.4 0c26.14,0 46.06,-6.17 59.81,-18.16 13.75,-12.39 25.24,-33.72 33.67,-64.27l42.6 0 0 457.38 -42.6 0c-8.43,-30.56 -19.92,-51.83 -33.67,-64.22 -13.75,-12.04 -33.67,-18.21 -59.41,-18.21l-1106.12 0 0 420.15 717.93 0c25.69,0 45.66,-6.27 59.41,-18.21 13.75,-11.99 25.24,-33.26 33.67,-64.22l42.55 0 0 446.69 -42.55 0c-8.43,-30.1 -19.92,-51.38 -33.67,-63.77 -13.75,-12.44 -33.72,-18.71 -59.41,-18.71l-717.93 0zm1985.81 -435.15l0 1076.87c0,27.04 6.17,47.46 18.21,61.21 11.94,13.7 33.21,24.84 64.22,33.67l0 42.5 -518.49 0 0 -42.5c31.01,-8.83 52.28,-19.97 64.22,-33.67 11.99,-13.75 18.16,-34.17 18.16,-61.21l0 -1500.13c0,-26.14 -6.17,-46.01 -18.16,-59.81 -11.94,-13.7 -33.21,-25.24 -64.22,-33.67l0 -42.55 601.38 0 0 42.55c-37.23,9.33 -55.44,29.25 -55.44,59.91 0,20.72 11.99,43.4 35.92,68.64l981.64 1016.16 0 -1051.23c0,-26.14 -6.22,-46.01 -18.21,-59.81 -11.94,-13.7 -33.21,-25.24 -64.22,-33.67l0 -42.55 518.49 0 0 42.55c-31.01,8.43 -52.28,19.97 -64.27,33.67 -11.94,13.8 -18.16,33.67 -18.16,59.81l0 1500.13c0,27.04 6.22,47.46 18.16,61.21 11.99,13.7 33.26,24.84 64.27,33.67l0 42.5 -557.53 0 0 -42.5c36.38,-7.93 54.54,-26.64 54.54,-55.84 0,-17.26 -21.27,-47.41 -63.42,-90.81l-997.09 -1025.09zm2351.87 435.15l0 486.63 1137.63 0c26.14,0 46.11,-6.17 59.86,-18.21 13.7,-11.89 25.24,-33.16 33.67,-64.17l42.55 0 0 457.33 -42.55 0c-8.43,-31.01 -19.97,-52.38 -33.67,-64.27 -13.75,-11.94 -33.72,-18.21 -59.86,-18.21l-1608.26 0 0 -42.5c31.01,-8.83 52.33,-19.97 64.27,-33.67 11.94,-13.75 18.16,-34.17 18.16,-61.21l0 -1498.78c0,-26.99 -6.22,-47.36 -18.16,-61.16 -11.94,-13.7 -33.26,-25.24 -64.27,-33.67l0 -42.55 1576.35 0c26.19,0 46.11,-6.17 59.86,-18.16 13.7,-12.39 25.24,-33.72 33.67,-64.27l42.55 0 0 457.38 -42.55 0c-8.43,-30.56 -19.97,-51.83 -33.67,-64.22 -13.75,-12.04 -33.67,-18.21 -59.41,-18.21l-1106.17 0 0 420.15 717.93 0c25.74,0 45.66,-6.27 59.41,-18.21 13.75,-11.99 25.24,-33.26 33.72,-64.22l42.55 0 0 446.69 -42.55 0c-8.48,-30.1 -19.97,-51.38 -33.72,-63.77 -13.75,-12.44 -33.67,-18.71 -59.41,-18.71l-717.93 0zm1985.86 -435.15l0 1076.87c0,27.04 6.17,47.46 18.16,61.21 11.99,13.7 33.26,24.84 64.22,33.67l0 42.5 -518.44 0 0 -42.5c31.01,-8.83 52.23,-19.97 64.27,-33.67 11.94,-13.75 18.11,-34.17 18.11,-61.21l0 -1500.13c0,-26.14 -6.17,-46.01 -18.11,-59.81 -12.04,-13.7 -33.26,-25.24 -64.27,-33.67l0 -42.55 601.33 0 0 42.55c-37.18,9.33 -55.39,29.25 -55.39,59.91 0,20.72 11.99,43.4 35.92,68.64l981.59 1016.16 0 -1051.23c0,-26.14 -6.22,-46.01 -18.16,-59.81 -11.94,-13.7 -33.21,-25.24 -64.27,-33.67l0 -42.55 518.54 0 0 42.55c-31.01,8.43 -52.33,19.97 -64.27,33.67 -11.99,13.8 -18.16,33.67 -18.16,59.81l0 1500.13c0,27.04 6.17,47.46 18.16,61.21 11.94,13.7 33.26,24.84 64.27,33.67l0 42.5 -557.53 0 0 -42.5c36.38,-7.93 54.49,-26.64 54.49,-55.84 0,-17.26 -21.22,-47.41 -63.32,-90.81l-997.14 -1025.09zm3530.3 -410.32l-211.38 416.94 -36.38 -20.77c0.85,-8.43 1.3,-15.55 1.3,-20.82 0,-29.25 -25.24,-61.21 -75.31,-94.88 -154.23,-107.22 -335.06,-160.91 -542.88,-160.91 -91.72,0 -172.85,11.14 -243.29,33.72 -50.98,17.76 -92.17,43.4 -124.08,78.47 -31.51,34.57 -47.46,72.25 -47.46,112.99 0,66.93 40.34,112.54 120.57,136.52 41.64,12.39 130.75,25.19 267.67,39.44l203.85 20.82c121.02,12.84 219.36,30.51 294.27,53.18 74.91,22.53 140.94,54.04 198.99,94.78 58.95,42.6 105.46,98.44 139.58,167.53 34.12,69.64 51.43,143.6 51.43,222.52 0,124.48 -40.34,235.76 -120.57,332.75 -72.7,88.2 -185.69,153.78 -339.02,195.93 -114.35,32.36 -236.62,48.27 -367.42,48.27 -234.41,0 -465.71,-56.24 -694.4,-168.38 -48.32,-22.58 -77.12,-33.72 -86.85,-33.72 -11.09,0 -28.8,9.78 -53.18,28.4l-37.68 -19.02 192.36 -434.8 37.63 18.21c0,7.53 0,13.3 0,16.86 0,38.93 18.66,74.81 55.39,107.62 56.29,50.07 143.6,93.57 261.05,129.85 117.86,36.33 229.54,54.54 335.01,54.54 115.25,0 213.64,-19.47 294.77,-58.5 45.16,-21.67 81.03,-50.47 107.62,-86.45 27.04,-35.87 40.34,-73.5 40.34,-112.54 0,-58.95 -31.46,-101.05 -94.83,-126.29 -44.3,-17.31 -133.41,-33.21 -267.67,-47.82l-200.29 -20.87c-133.86,-14.2 -229.14,-27.55 -284.48,-39.94 -55.49,-12.39 -110.83,-32.76 -166.22,-60.71 -78.92,-38.93 -140.94,-97.44 -185.69,-175.46 -40.79,-70.39 -61.16,-151.07 -61.16,-241.99 0,-150.22 51.43,-274.35 154.68,-372.24 135.17,-129.45 338.12,-194.07 608.9,-194.07 112.99,0 218.91,11.49 316.39,34.52 97.94,23.08 219.81,65.18 366.52,126.79 50.07,19.92 80.68,29.6 92.17,29.6 18.21,0 38.98,-9.68 63.37,-29.6l36.38 19.52zm736.54 845.47l0 486.63 1137.58 0c26.14,0 46.06,-6.17 59.86,-18.21 13.7,-11.89 25.24,-33.16 33.67,-64.17l42.55 0 0 457.33 -42.55 0c-8.43,-31.01 -19.97,-52.38 -33.67,-64.27 -13.8,-11.94 -33.72,-18.21 -59.86,-18.21l-1608.21 0 0 -42.5c30.96,-8.83 52.23,-19.97 64.22,-33.67 11.99,-13.75 18.16,-34.17 18.16,-61.21l0 -1498.78c0,-26.99 -6.17,-47.36 -18.16,-61.16 -11.99,-13.7 -33.26,-25.24 -64.22,-33.67l0 -42.55 1576.3 0c26.14,0 46.11,-6.17 59.86,-18.16 13.7,-12.39 25.24,-33.72 33.67,-64.27l42.55 0 0 457.38 -42.55 0c-8.43,-30.56 -19.97,-51.83 -33.67,-64.22 -13.75,-12.04 -33.72,-18.21 -59.41,-18.21l-1106.12 0 0 420.15 717.88 0c25.74,0 45.66,-6.27 59.41,-18.21 13.75,-11.99 25.29,-33.26 33.72,-64.22l42.5 0 0 446.69 -42.5 0c-8.43,-30.1 -19.97,-51.38 -33.72,-63.77 -13.75,-12.44 -33.67,-18.71 -59.41,-18.71l-717.88 0z"/>
   <path class="fil5" d="M17010.81 22140.89c-213.59,114.14 -426.22,228.89 -638.46,344.29 -30.41,16.51 -48.72,25.79 -56.29,25.79 -7.12,0 -10.24,-7.17 -9.38,-21.78 1,-18.66 11.54,-43.85 31.91,-76.41 62.27,-99.79 149.47,-260.55 262.86,-480.66 113.34,-220.01 196.93,-418.45 249.76,-594.91 52.78,-176.21 83.34,-343.84 91.97,-501.98 5.02,-90.61 -2.21,-156.59 -19.72,-197.18 -17.66,-41.19 -44.6,-51.98 -79.32,-34.22 -42.25,21.73 -84.34,70.29 -125.78,144.75 -42.1,75.66 -76.16,169.44 -103.71,282.12 -27.8,113.44 -44.4,219.96 -49.82,322.11 -2.96,56.8 0.7,96.33 9.43,119.01 9.08,23.48 23.28,28.6 44.1,17.86 26.14,-13.65 53.13,-52.43 79.32,-115.15 25.89,-61.71 43.95,-112.44 54.94,-153.28 10.54,-39.14 22.13,-61.26 34.72,-67.93 16.96,-8.83 24.94,0.5 23.48,28.45 -2.21,42.2 -30.2,129.65 -83.09,262.51 -52.68,132.31 -114.7,217 -185.44,255.03 -56.44,30.41 -99.49,22.18 -129.05,-24.84 -29.95,-47.56 -42.6,-112.44 -38.53,-194.12 9.53,-189.66 75.06,-395.72 198.08,-617.98 122.92,-221.92 239.83,-361.45 349.31,-417.09 87.6,-44.65 156.49,-34.82 206.51,29.25 50.42,64.67 71.8,164.92 64.32,301.24 -3.81,69.74 -17.46,147.06 -39.89,231.85 -22.13,83.49 -48.57,161.16 -79.32,231.9 -30.71,70.59 -90.61,182.58 -180.27,334.96 -89.71,152.33 -175.56,294.57 -256.79,425.12 60.56,-32.36 121.77,-64.97 182.58,-97.24 94.58,-50.32 156.09,-92.22 184.94,-125.78 28.9,-33.47 59.81,-89.91 91.11,-170.59 23.13,-59.71 39.74,-93.12 51.18,-98.99 16.71,-8.73 24.43,2.21 22.53,32.41 -0.9,13.75 -4.87,32.96 -11.74,56.44 -47.06,159.5 -95.73,340.73 -146.46,545.03zm4843.03 -8330.03c1504.95,226.63 1710.66,825.75 1371.44,1295.98 -278.51,386.13 -928.06,631.73 -1496.02,969.8 570.22,-226.53 1140.44,-453.12 1710.71,-679.75 -543.83,321.01 -1087.66,642.07 -1631.44,963.03 543.78,-203.95 1059.31,-317.25 1603.09,-521.2 -456.88,283.28 -885.56,475.84 -1342.49,759.07 445.59,-166.22 930.87,-281.32 1376.51,-447.5 -404.1,256.79 -847.83,462.55 -1251.92,719.44 666.75,-163.67 1297.03,-436.71 1903.33,-781.7 -764.64,940.3 120.06,749.54 1472.79,237.92 -1265.67,835.03 -2571.03,1258.05 -3987.83,521.1 -152.73,-135.32 -877.18,-573.63 11.29,-1302.8 721.64,-866.29 541.02,-1322.57 260.55,-1733.39zm-3387.4 656.92c289.4,1965.54 1167.48,3861.74 3512.03,5585.45 -156.64,-1175.51 171.74,-1928.71 951.64,-2288.61 -2458.19,-419.65 -3818.14,-1608.16 -4463.67,-3296.84zm5234.18 6038.26c382.22,-582.61 509.41,-1256.39 45.36,-2141.2 675.94,457.73 1627.72,55.99 2209.18,-894.99 245.55,323.72 456.93,790.18 589.14,1597.42 -231.05,-181.63 -441.17,-354.83 -634.44,-521.1 20.82,265.92 107.22,529.38 249.26,781.65 -223.32,-87.75 -471.48,-312.13 -725.05,-566.46 46.06,300.44 238.47,605.79 498.42,951.69 -346.25,-194.77 -698.51,-520.8 -940.25,-770.41 86.5,267.47 241.89,521.8 487.13,759.07 -200.19,-126.29 -400.33,-277.76 -600.47,-464.5 63.62,158.15 143.55,316.94 226.58,475.89 -163.16,-87.5 -379.71,-240.98 -535.3,-396.57 -13.8,146.61 118.41,310.27 218.1,464.5 -155.44,-66.58 -356.28,-186.49 -481.46,-328.53 -38.13,379.66 232.55,805.98 617.38,1246.21 -249.71,-90.06 -532.64,-222.92 -645.73,-135.97 86.7,192.72 222.57,336.26 362.55,475.79 -330.54,-131.96 -655.31,-279.16 -940.4,-532.49zm2364.97 -4585.44c-89.96,397.72 79.37,475.09 64.37,876.93 -14.2,381.72 97.19,503.04 224.53,479.71 180.98,-15.7 313.18,-233.11 58.8,-595.41 -95.18,-135.62 -104.36,-150.47 -164.67,-310.07 -9.93,-26.34 -19.72,-52.03 -29.35,-77.22 -51.23,-133.36 -99.34,-252.57 -153.68,-373.94zm-5035.7 -7038.87c315.14,4.42 706.24,305.15 1127.24,611.86 316.19,362.6 795.9,645.73 1223.58,985.6 456.93,339.87 817.57,628.77 1274.55,968.65 275.7,196.33 593.85,367.32 869.5,563.65 396.52,203.95 750.54,433.35 1147.11,637.25 532.84,349.96 840.85,696.56 768.05,1037.08 -46.66,218.3 -281.02,401.44 -429.38,569.57 -212.58,240.98 -400.18,487.33 -565.3,738.55 -362.95,-1186.45 -938.39,-393.51 -1274.5,-1280.17 43.85,-71.95 175.36,-83.14 404.05,-26.99 123.98,30.56 246.05,101.1 348.2,120.01 256.39,47.41 324.82,-239.48 901.82,-93.02 459.54,-98.69 300.24,-357.99 -56.65,-668.41 -171.89,-171.69 -421.96,-353.07 -654.26,-464.4 -532.44,-305.96 -1039.44,-611.81 -1571.93,-917.67 -355.03,-450.05 -726.91,-637.65 -1217.91,-1042.4 -461.69,-203.65 -965.79,-592.85 -1450.06,-1008.18 -230.4,-285.14 -562.74,-513.72 -844.12,-730.98zm2152.69 3387.2c-12.39,-232.8 -377.2,-493.25 -789.88,-673.93 -292.76,-128.09 -285.94,-140.99 -524.01,-348.1 -614.92,-534.85 -1047.12,-724.05 -1366.47,-602.63 -485.03,184.39 -451.11,755.56 137.17,913.71 229.74,61.81 479.31,65.98 906.13,42.6 763.49,101.1 1178.62,353.72 1637.06,668.36zm-3727.28 -844.17c313.63,279.16 661.43,489.94 815.77,1087.66 11.39,213.59 -205.11,337.11 -407.46,345.69 13.45,-700.32 -179.32,-1035.98 -408.31,-1433.35zm-3908.45 -6871.29c865.59,-71.25 1216.15,-2.61 2201.1,594.75 476.85,289.1 920.68,546.89 1141.49,639.26 592.6,247.76 1087.66,48.97 2050.03,336.36 668.56,199.64 1145.01,560.44 1505.4,1007.28 571.62,708.6 743.22,1677.6 992.68,2662.1 -528.68,-451.26 -1165.02,-993.18 -1693.75,-1444.39 -174.5,-540.67 -282.48,-909.69 -474.49,-1164.87 -804.73,-1069.54 -1947.03,-260.05 -3303.71,-1463.46 -662.89,-747.43 -1513.98,-1024.54 -2418.76,-1167.03zm73.55 5602.15c192.87,-245.55 271.54,-490.9 283.18,-736.39 -149.27,-1508.01 1358.54,-1494.86 2356.49,-509.91 -625.71,-4.01 -971.46,827.91 -1199.59,1374.35 0,0 -140.18,-409.21 -664.24,-371.58 -207.67,14.95 -460.04,6.92 -775.83,243.54zm3206.08 -1943.41c-394.26,-616.48 -815.27,-1056.65 -1257.44,-1356.69 -467.67,-317.5 -796.35,-466.56 -1189.21,-453.42 -373.34,12.59 -810.85,171.94 -1254.68,470.12 -564.8,379.46 -1021.53,918.22 -1442.08,1509.97 -819.83,856.86 -1871.62,1164.62 -2618.04,1936.49 -815.07,842.66 -1441.58,1873.97 -1755.11,3218.27 375.2,-532.44 772.57,-1064.88 1268.88,-1597.37 292.96,-295.72 611.71,-358.94 848.78,-252.37 426.02,191.61 380.82,868.7 460.39,1290.31 248.46,1316 824.5,2495.57 1863.09,3482.38 924.95,900.26 1797.96,1386.14 2662.35,1801.42 -1310.33,-1246.81 -2285.34,-2846.43 -2447.15,-5302.12 95.68,-1001.41 470.83,-1683.52 1200.9,-1959.92 -279.97,-1585.38 -481.91,-3106.53 271.99,-3840.52 346.6,-283.03 744.22,-390.6 1118.01,-365.66 730.77,48.82 1471.58,612.47 2269.34,1419.1zm-6293.54 -2271.6c517.09,523.41 1085.05,1017.62 1682.51,1001.11 283.83,-7.83 620.69,-151.82 934.58,-361 428.93,-321.56 890.83,-422.46 1370.79,-379.56 -368.47,-175.91 -594.85,-330.99 -890.58,-438.36 -1150.02,-417.64 -1908.74,-353.97 -2519.5,-264.01 764.29,183.38 1488.24,359.49 1903.33,634.44 -342.03,27.04 -575.39,-41.54 -1054.69,5.32 -545.94,53.18 -937.79,-96.88 -1426.43,-197.93zm-3212.15 979.78c1088.56,-526.82 3514.54,-138.53 4482.23,543.08 -208.52,541.27 -531.79,958.76 -1021.23,1387.64 -316.79,277.61 -651.1,452.91 -989.77,684.67 -339.07,232.05 -682.61,520.7 -937.74,764.39 -747.28,714.07 -1019.07,1565.66 -1524.72,2089.37 -699.06,724.05 -1994.69,1319.66 -3430.2,1418.95 862.73,-291.71 2354.13,-1261.01 3088.27,-2237.98 1164.62,-1550.05 1592.9,-2012.5 2576.3,-2905.49 -1299.09,232.6 -2598.13,1265.67 -3897.21,2379.17 675.28,-1441.58 1789.98,-2691.65 4826.22,-3104.12 -669.76,-692.34 -1837.25,-932.12 -3172.16,-1019.67zm1891.48 6938.92c204.36,1563.75 708.75,3147.67 2061.87,4984.82 1270.14,1544.69 1960.47,2767.76 2107.23,4253.79 92.02,-1268.33 526.67,-1719.94 -1654.06,-4820.25 -838.35,-1138.53 -1676.69,-2645.34 -2515.04,-4418.36zm-5325.45 3492.01c1145.66,-1042.05 2258.6,-2103.42 2920.14,-3296.79 919.73,711.81 1328.49,1561.39 1384.98,3013.61 173.2,-429.53 362.7,-832.58 657.07,-1065.03 57.55,561.74 161.86,1201.05 384.83,1759.48 486.33,1218.06 1388.25,2349.47 2549.51,3553.98 -648.04,-462.15 -1424.87,-1125.14 -3104.17,-3194.84 10.54,834.33 509.91,1831.68 1155.54,2877.64 -1018.62,-979.48 -1974.67,-2045.72 -2447.1,-3783.97 -528.73,418.95 -651.6,1270.69 -725.05,2175.21 -361.95,-734.44 -581.86,-1855.56 294.57,-3783.87 -919.78,900.01 -1998.65,1299.99 -3070.31,1744.58zm12387.64 3286.7c-10.29,138.98 -37.48,287.94 -81.68,445.99 -44.45,159 -108.12,304.25 -190.56,436.66 -82.33,132.31 -172.25,223.57 -269.43,273.7 -132.81,68.49 -236.22,38.63 -309.37,-90.66 -73.7,-130.15 -102.7,-315.34 -87.8,-557.48 15.55,-251.82 73.8,-494.46 174.15,-727.26 100.55,-233.11 218,-382.62 352.57,-449.1 86.5,-42.75 166.58,-41.29 239.38,3.11 72.25,44 122.07,132.46 148.31,262.61 26.34,130.05 34.72,264.31 24.43,402.44zm-256.34 121.67c17.01,-248.21 12.34,-432.29 -14.95,-553.06 -27.55,-121.77 -74.76,-166.27 -140.38,-133.66 -65.28,32.26 -121.92,131.96 -170.89,298.53 -49.12,167.03 -82.08,386.94 -99.95,660.08 -16.41,250.57 -9.53,430.14 20.17,538.86 29.4,108.02 75.46,145.55 137.53,113.34 69.79,-36.28 127.24,-130.15 172.3,-283.88 45.06,-153.73 77.57,-367.42 96.18,-640.21zm1034.22 -1276.26c-14.95,202.15 -30.61,405.65 -46.01,607.25 -15.55,201.7 -32.51,403.85 -48.87,604.64 -13.65,167.48 -15.15,269.48 -3.26,308.72 11.59,38.53 37.58,48.97 78.82,30.66 30.1,-13.25 48.72,-18.66 55.44,-15.55 7.33,3.51 10.03,13.85 8.43,32.06 -2.56,28.8 -14.6,48.32 -35.67,59 -4.26,2.11 -9.58,3.81 -15.96,6.27 -99.29,38.33 -171.74,70.79 -218.3,93.72 -49.17,24.13 -120.42,64.37 -214.54,118.61 -33.06,19.12 -55.74,31.31 -67.08,36.83 -24.79,12.19 -35.92,3.61 -33.32,-25.74 1.56,-18.21 6.72,-31.91 15,-41.74 8.08,-9.63 28.65,-24.89 60.56,-44.85 38.93,-24.48 68.39,-53.08 87.75,-87.05 19.17,-33.62 31.66,-65.78 38.08,-96.43 6.22,-30.15 16.46,-99.79 26.24,-208.42 21.62,-239.18 38.03,-479.76 56.34,-720.94 9.33,-123.48 11.49,-207.52 6.57,-251.37 -4.97,-43.65 -15.85,-71.3 -33.32,-82.23 -17.26,-10.84 -46.21,-8.78 -87.35,3.06 -32.56,9.43 -52.08,11.89 -59.15,9.78 -6.02,-1.86 -9.28,-11.09 -7.93,-28.9 1.4,-19.07 6.07,-33.72 14.5,-43.05 8.48,-9.38 25.99,-21.57 53.08,-37.73 119.31,-71.3 226.03,-167.63 322.97,-286.09 11.04,-13.5 21.02,-22.03 28.15,-25.39 17.26,-8.13 23.53,20.07 18.81,84.89zm1172.1 -259.85c-115.95,52.83 -231.2,105.72 -346.45,158.55 -91.27,41.84 -151.12,77.32 -177.91,105.77 -27.19,28.9 -58.25,86.85 -94.78,171.49 -28.7,66.28 -48.22,101.65 -57.75,106.17 -18.61,8.78 -26.54,-3.16 -23.93,-36.02 2.51,-32.46 22.48,-137.27 58.65,-315.39 36.07,-177.31 61.26,-285.59 76.06,-324.27 14.75,-38.58 27.19,-60.96 38.93,-66.18 12.69,-5.77 22.53,4.42 30.1,30.66 5.12,17.71 14.95,27.95 30.46,31.01 15.5,3.11 62.52,-12.19 142.29,-47.06 79.83,-34.87 123.93,-53.74 133.76,-58.2 130.95,-59 262.41,-118.61 395.72,-177.26 -13.15,51.08 -32.81,112.49 -59.15,185.29 -108.83,300.79 -185.39,543.28 -229.54,727.66 -44.1,183.94 -79.83,390.9 -108.47,621 -18.76,151.02 -41.09,259.35 -67.08,325.73 -26.09,66.48 -64.77,112.04 -116.45,136.32 -37.03,17.36 -66.18,13.35 -87.8,-13.35 -21.12,-26.14 -28.45,-68.84 -22.93,-127.44 5.27,-56.44 22.83,-136.82 52.08,-242.54 28.9,-104.81 87.15,-273.8 174.6,-504.74 86.65,-228.79 173.25,-458.38 259.6,-687.17z"/>
  </g>
 </g>
</svg>
