<?xml version="1.0" encoding="UTF-8"?>
<!DOCTYPE svg PUBLIC "-//W3C//DTD SVG 1.1//EN" "http://www.w3.org/Graphics/SVG/1.1/DTD/svg11.dtd">
<!-- Creator: CorelDRAW 2020 (64 Bit) -->
<svg xmlns="http://www.w3.org/2000/svg" xml:space="preserve" width="53.3669mm" height="70mm" version="1.1" style="shape-rendering:geometricPrecision; text-rendering:geometricPrecision; image-rendering:optimizeQuality; fill-rule:evenodd; clip-rule:evenodd"
viewBox="0 0 13752.47 18038.76"
 xmlns:xlink="http://www.w3.org/1999/xlink"
 xmlns:xodm="http://www.corel.com/coreldraw/odm/2003">
 <defs>
  <style type="text/css">
   <![CDATA[
    .fil3 {fill:#FEFEFE}
    .fil2 {fill:#3B4498}
    .fil4 {fill:#3E4095}
    .fil1 {fill:#FEFEFE;fill-rule:nonzero}
    .fil0 {fill:#3B4498;fill-rule:nonzero}
   ]]>
  </style>
 </defs>
 <g id="Camada_x0020_1">
  <metadata id="CorelCorpID_0Corel-Layer"/>
  <g id="_2005889124736">
   <path class="fil0" d="M6125.86 1143.94l0.39 -0.7 261.28 -457.28 391.9 -685.96 441.87 655.22 294.57 436.8 6.73 9.95c249.71,369.49 599.81,887.43 1029.65,1256.71 381.52,327.79 842.26,551.63 1374.63,443.99l248.57 -50.3 372.89 -75.48 165.05 342.5 110.01 228.32 -0.05 0.05 0.26 0.36c34.3,71.18 74.29,143.43 119.62,216.26 46.88,75.4 95.97,146.27 146.78,211.96 277.9,359.28 665.55,669.42 1123.2,868.26l5.54 2.4 0.64 0.28 46.67 20.31c15.41,6.29 31.7,12.76 48.45,19.2 82.85,31.93 175.49,61.95 278,89.6l1.7 0.46 56.05 15.1c28.89,7.14 47.75,11.73 56.49,13.68 92.33,20.8 189.54,37.13 291.27,48.45l1.78 0.18 274.14 30.46 411.15 45.69 24.92 413.47 16.57 275.63c74.96,1246.12 -13.63,2417.35 -258.88,3529.39 -245.87,1114.9 -647.54,2163.49 -1198.13,3161.99 -543.25,985.23 -1233.7,1923.76 -2064.43,2831.31 -822.57,898.67 -1779.76,1762.85 -2865.41,2608.69l-199.15 155.16 -298.75 232.73 -300.63 -228.86 -200.46 -152.61c-1105.85,-841.74 -2066.26,-1707.63 -2883.81,-2611.39 -825.07,-912.09 -1499.07,-1855.78 -2024.39,-2844.56 -531.86,-1001.18 -914.51,-2050.75 -1150.31,-3162.61 -234.3,-1104.56 -322.04,-2268.79 -265.79,-3506.45l13.37 -294.34 20.05 -441.56 441.02 -27.19 294.01 -18.12 1.24 -0.08 0 -0.13c81.48,-5.1 159.93,-13.5 234.4,-25.28 82.75,-13.12 163.56,-29.66 241.64,-49.76 415.97,-107.28 841.33,-327.02 1217.75,-691.19l1.16 -1.16 -0.93 -0.93c16,-15.49 30.38,-29.69 43.14,-42.55 10.31,-10.36 24.4,-24.95 42.57,-43.99 75.48,-79.11 147.61,-162.68 215.64,-250.46l0.26 -0.34c14.56,-18.81 28.01,-36.49 40.17,-52.85 10.31,-13.92 23.61,-32.26 39.66,-54.89 64.78,-91.02 130.86,-194.69 197.94,-311.74l142.04 -247.85 3.61 0 157.25 -273.7 347.99 74.14 232 49.4 0.93 0.21c76.36,16.18 149.82,22.57 220.33,20.33 69.84,-2.22 144.77,-14.12 223.47,-34.2 441.02,-112.74 864.57,-483.93 1210.17,-900.21l0.34 -0.44 2.53 -3.14 0.13 -0.15 1.06 -1.31 0.05 -0.1 0.46 -0.57 0.31 -0.36 0.08 -0.13 0.36 -0.46c4.43,-5.54 9.61,-12.42 35.67,-44.71l42.03 -52c66.36,-84.76 135.45,-180.08 205.44,-282.26l0.03 0 0.21 -0.36c29.76,-43.5 32.96,-47.65 37.65,-54.66 10.2,-15.33 21.98,-33.22 34.81,-52.93 52.96,-81.43 109.44,-175.05 167.37,-276.33zm728.33 1813.98l-1.08 1.29 -1.93 0c-101.38,122.05 -204.56,238.01 -308.36,345.08 -108.93,112.33 -223.27,220.9 -342.63,323.56 -569.28,489.68 -1247.12,840.89 -2005.96,856.12 -39.3,55.17 -78.93,108.77 -119.11,160.6l-0.21 0.26c-25.05,32.37 -45.35,58.19 -61.13,77.75l-63.06 74.96 1.11 0.9c-100.5,119.65 -212.99,239.19 -335.88,358.07l-1.44 2.89 0.21 0.21 -0.52 0.49 -0.13 0.26 -1.26 1.19 -0.05 -0.08c-101.07,97.64 -204.56,188.71 -309.93,273.49 -107.67,86.56 -216.52,166.16 -326.09,239.01 -433.73,288.31 -890.88,480.99 -1342.34,593.55 1.88,891.53 92.36,1737.03 272.72,2543.44 204.56,914.69 528.2,1785.24 972.68,2621.91 453.75,854.08 1030.27,1667.89 1731.54,2452.5 632.34,707.53 1372.36,1398.13 2221.27,2079.56 840.14,-686.25 1583.78,-1379.66 2225.96,-2089.12 712.74,-787.37 1306.81,-1600.66 1776.59,-2452.6 458.88,-832.18 797.44,-1700.85 1010.38,-2618.15 188.51,-812.08 279.83,-1663.64 270.66,-2562.95l-33.04 -9.61 -1.93 0 -85.76 -25.15c-104.96,-33.27 -216,-74.22 -332.17,-121.99l-5.28 0 -94.09 -40.33 -0.46 -0.21 -3.87 -1.93c-129.75,-56.38 -252.85,-116.71 -369.07,-180.41 -114.26,-62.72 -229.74,-133.36 -345.6,-211.13 -482.1,-323.64 -890.7,-732.5 -1197.72,-1182.7 -734.36,7.96 -1353.76,-252.39 -1874.12,-630.15 -354.8,-257.52 -658.83,-568.09 -918.87,-880.57z"/>
   <path class="fil1" d="M6552.35 1387.9l0.41 -0.67 261.28 -457.28 294.55 436.77 6.73 9.97c529.05,782.8 1483.12,2194.29 2907.64,1906.23l248.57 -50.3 110.01 228.32c305.63,634.14 892.58,1210.35 1635.7,1533.19l-0.21 0.44c140.37,60.89 290.22,113.52 448.7,156.34 155.91,42.13 315.81,73.01 478.49,91.12l1.78 0.18 274.14 30.46 16.6 275.66c144.67,2405.13 -338.54,4505.82 -1397.49,6426.23 -1051.53,1906.93 -2668.86,3628.83 -4801.12,5290.18l-199.15 155.16 -200.46 -152.61c-2170.66,-1652.25 -3754.77,-3382.11 -4771.79,-5296.49 -1022.08,-1923.89 -1469.08,-4027.31 -1360.38,-6417.37l13.37 -294.37 294.01 -18.12c659.11,-40.69 1389.94,-308.51 2006.25,-904.75 121.74,-117.77 238.81,-247.9 349.62,-390.95 110.04,-142.09 216,-300.35 316.48,-475.55l1.26 0 2.4 -4.15 118.93 -206.96 232 49.4c811.72,172.86 1573.29,-406.57 2133.24,-1080.99 111.48,-134.29 217.91,-277.13 317.25,-422.16 95.37,-139.21 183.02,-280.25 261.2,-416.95zm297.85 758.45l-18.58 27.37c-105.29,153.64 -223.94,312.15 -355.67,470.79 -641.48,772.68 -1524.89,1438.15 -2535.91,1340.1 -80.12,125.99 -164.62,246.15 -252.98,360.26 -130.99,169.13 -268.6,322.17 -411.13,460.07 -650.58,629.42 -1410.5,954.77 -2126.54,1058.44 -56.93,2152.54 369.79,4056.12 1296.24,5800.03 940.44,1770.22 2398.15,3382.68 4389.53,4929.76 1964.19,-1558.29 3456.33,-3167.4 4430.32,-4933.68 960.2,-1741.33 1418.47,-3642.54 1331.26,-5807.73 -101.87,-18.91 -201.91,-41.64 -300.04,-68.16 -182.32,-49.27 -362.68,-113.28 -539.41,-190.05l-1.29 0c-804.61,-349.54 -1458.43,-951.98 -1849.44,-1632.04 -1464.31,163.33 -2437.84,-946.75 -3056.36,-1815.14z"/>
   <path class="fil2" d="M6837.1 1549.86c-577.37,1009.4 -1729.99,2362.48 -3064.3,2078.35 -761.08,1330.36 -1926.02,1876.73 -2939.88,1939.32 -211.88,4658.87 1739.12,8193.33 6004.12,11439.77 4195.02,-3268.6 6354.75,-6758.87 6073.08,-11439.77 -1289.46,-142.82 -2353.8,-990.64 -2823.14,-1964.42 -1644.7,332.63 -2678.76,-1208.21 -3249.89,-2053.25z"/>
   <path class="fil1" d="M8619.9 14341.85l-6590.02 -8193.72c205.13,-72.8 409.69,-163.04 610.95,-272.1l6426.36 7990.22 -8.63 9.56c-141.32,156.11 -287.59,311.4 -438.65,466.04z"/>
   <path class="fil1" d="M4551.98 4451.55l5998.64 7458.43c-118.03,191.06 -242.52,380.15 -373.3,567.63l-6201.18 -7710.28 575.85 -315.78z"/>
   <path class="fil1" d="M4642.53 13920.05l6501.56 -8083.58c15.54,8.79 30.95,17.5 46.41,26 116.22,63.7 239.32,124.03 369.07,180.41l3.87 1.93 0.46 0.21 94.09 40.33 5.28 0c28.14,11.57 56,22.65 83.55,33.4l-6657.38 8277.39c-154.44,-157.89 -303.41,-316.58 -446.9,-476.09z"/>
   <path class="fil1" d="M9823.93 4708.86l-6284.24 7813.39c-129.29,-189.38 -251.98,-380.7 -368.17,-573.97l6038.17 -7507.45 614.25 268.03z"/>
   <path class="fil3" d="M6876.48 5511.05c2075.13,0 3767.52,1692.42 3767.52,3767.58 0,2075.02 -1692.42,3767.5 -3767.52,3767.5 -2075.13,-0.03 -3767.52,-1692.45 -3767.52,-3767.5 0,-2075.15 1692.4,-3767.58 3767.52,-3767.58z"/>
   <ellipse class="fil2" cx="6905.67" cy="9294.83" rx="3428.4" ry="3428.41"/>
   <ellipse class="fil3" cx="6905.67" cy="9294.83" rx="3064.69" ry="3064.7"/>
   <path class="fil4" d="M6041.34 12058.94c-1176.8,-367.71 -2031.14,-1466.32 -2031.14,-2764.11 0,-959.84 467.49,-1810.65 1186.95,-2337.51l0 956.29c-305.58,377.42 -488.72,857.92 -488.72,1381.23 0,605.46 245.15,1153.76 641.43,1551.18l0 -3102.18 0 -870.45 0 -20.51c213.14,-136.17 445.17,-245.33 691.48,-322.28l0 342.79 0 400.87 0 4041.07 0 129.67 0 613.94z"/>
   <path class="fil4" d="M8472.16 6859.52c648.08,417.93 1118.69,1087.56 1273.54,1870.59l-687.43 121.19c-76.79,-374.12 -248.78,-713.66 -489.42,-992.16 -285.45,516.19 -228.71,2539.01 9.66,2871.02 240.66,-278.52 403.06,-618.06 479.78,-992.23l687.46 121.27c-148.38,750.39 -586.8,1396.77 -1193.5,1817.2 -1059.93,-513.51 -992.83,-4458.31 -80.09,-4816.89z"/>
   <path class="fil4" d="M6905.68 6399.35c267.44,0 526.29,36.39 772.16,104.29l0 733.66c-240.25,-90.27 -500.4,-139.72 -772.16,-139.72 -27.03,0 -53.88,0.46 -80.66,1.42l0 1850.08 838.93 0 0 691.5 -838.93 0 0 1850.08 0 233.83 0 464.6c-238.83,-6.6 -470.43,-42.18 -691.48,-103.26l0 -361.34 0 -372.22 0 -4115.03 0 -634.45 0 -99.19c245.87,-67.9 504.67,-104.26 772.14,-104.26z"/>
  </g>
 </g>
</svg>
