<?xml version="1.0" encoding="UTF-8"?>
<!DOCTYPE svg PUBLIC "-//W3C//DTD SVG 1.1//EN" "http://www.w3.org/Graphics/SVG/1.1/DTD/svg11.dtd">
<!-- Creator: CorelDRAW 2020 (64 Bit) -->
<svg xmlns="http://www.w3.org/2000/svg" xml:space="preserve" width="47.4105mm" height="62.0001mm" version="1.1" style="shape-rendering:geometricPrecision; text-rendering:geometricPrecision; image-rendering:optimizeQuality; fill-rule:evenodd; clip-rule:evenodd"
viewBox="0 0 75.41 98.62"
 xmlns:xlink="http://www.w3.org/1999/xlink"
 xmlns:xodm="http://www.corel.com/coreldraw/odm/2003">
 <defs>
  <style type="text/css">
   <![CDATA[
    .fil0 {fill:#FEFEFE}
    .fil3 {fill:#373435}
    .fil2 {fill:#454191}
    .fil1 {fill:#373435;fill-rule:nonzero}
   ]]>
  </style>
 </defs>
 <g id="Camada_x0020_1">
  <metadata id="CorelCorpID_0Corel-Layer"/>
  <g id="_2561272822176">
   <path class="fil0" d="M26.61 10.83c-4.01,0.97 -8.23,0.01 -12.82,-2.89l-9.21 11.8c2.16,1.38 3.71,3.54 4.47,5.95 0.41,1.31 0.58,2.69 0.48,4.06 -0.1,1.38 -0.47,2.75 -1.14,4.04 -1.23,2.35 -3.48,4.39 -6.94,5.58 0.06,3.81 0.31,7.39 0.76,10.74 0.47,3.5 1.15,6.77 2.03,9.81 4.51,15.56 14.4,25.15 28.89,29.38l0.09 0.03 0.07 0.04c1.31,0.78 2.41,1.69 3.27,2.76 0.47,0.58 0.86,1.2 1.19,1.87 0.33,-0.62 0.72,-1.21 1.18,-1.77 0.87,-1.06 1.97,-2 3.31,-2.85l0.08 -0.05 0.1 -0.03 0.01 -0c2.81,-0.82 5.45,-1.85 7.91,-3.09 2.44,-1.23 4.71,-2.67 6.8,-4.32 10.64,-8.43 16.45,-22.4 16.82,-42.52 -3.45,-1.19 -5.69,-3.23 -6.93,-5.58 -0.68,-1.29 -1.05,-2.67 -1.15,-4.04 -0.1,-1.37 0.07,-2.76 0.48,-4.07 0.75,-2.41 2.31,-4.57 4.46,-5.95l-9.21 -11.8c-4.59,2.89 -8.81,3.86 -12.82,2.89 -3.92,-0.95 -7.57,-3.75 -11.09,-8.4 -3.52,4.65 -7.17,7.45 -11.09,8.4z"/>
   <g>
    <path class="fil1" d="M37.7 2.43c-3.52,4.65 -7.17,7.45 -11.09,8.4 -4.01,0.97 -8.23,0.01 -12.82,-2.89l-9.21 11.8c2.16,1.38 3.71,3.54 4.47,5.95 0.41,1.31 0.58,2.69 0.48,4.06 -0.1,1.38 -0.47,2.75 -1.14,4.04 -1.23,2.35 -3.48,4.39 -6.94,5.58 0.06,3.81 0.31,7.39 0.76,10.74 0.47,3.5 1.15,6.77 2.03,9.81 4.51,15.56 14.4,25.15 28.89,29.38l0.09 0.03 0.07 0.04c1.31,0.78 2.41,1.69 3.27,2.76 0.47,0.58 0.86,1.2 1.19,1.87 0.33,-0.62 0.72,-1.21 1.18,-1.77 0.87,-1.06 1.97,-2 3.31,-2.85l0.08 -0.05 0.1 -0.03 0.01 -0c2.81,-0.82 5.45,-1.85 7.91,-3.09 2.44,-1.23 4.71,-2.67 6.8,-4.32 10.64,-8.43 16.45,-22.4 16.82,-42.52 -3.45,-1.19 -5.69,-3.23 -6.93,-5.58 -0.68,-1.29 -1.05,-2.67 -1.15,-4.04 -0.1,-1.37 0.07,-2.76 0.48,-4.07 0.75,-2.41 2.31,-4.57 4.46,-5.95l-9.21 -11.8c-4.59,2.89 -8.81,3.86 -12.82,2.89 -3.92,-0.95 -7.57,-3.75 -11.09,-8.4zm-11.43 7.01c3.79,-0.92 7.36,-3.8 10.85,-8.64l0.58 -0.8 0.58 0.8c3.49,4.84 7.06,7.72 10.85,8.64 3.76,0.91 7.79,-0.11 12.25,-3.05l0.55 -0.36 0.41 0.52 10.12 12.96 0.53 0.68 -0.76 0.4c-2.19,1.15 -3.77,3.2 -4.5,5.53 -0.35,1.13 -0.5,2.34 -0.41,3.54 0.09,1.2 0.4,2.38 0.98,3.48 1.13,2.15 3.26,4 6.6,5.04l0.51 0.16 -0.01 0.53c-0.29,20.87 -6.29,35.38 -17.37,44.15 -2.15,1.7 -4.5,3.19 -7.05,4.47 -2.5,1.26 -5.19,2.31 -8.06,3.16 -1.17,0.75 -2.14,1.58 -2.89,2.49 -0.76,0.92 -1.3,1.93 -1.64,3.04l-0.74 2.44 -0.64 -2.46c-0.3,-1.17 -0.83,-2.21 -1.57,-3.12 -0.73,-0.91 -1.67,-1.69 -2.81,-2.38 -14.93,-4.39 -25.12,-14.29 -29.77,-30.32 -0.9,-3.11 -1.6,-6.45 -2.07,-10.03 -0.48,-3.58 -0.74,-7.38 -0.78,-11.41l-0 -0.02 -0.01 -0.53 0.51 -0.16c3.34,-1.04 5.47,-2.89 6.6,-5.04 0.58,-1.1 0.9,-2.28 0.98,-3.48 0.09,-1.2 -0.06,-2.41 -0.41,-3.54 -0.72,-2.33 -2.3,-4.38 -4.5,-5.53l-0.76 -0.4 0.53 -0.68 10.12 -12.96 0.41 -0.52 0.55 0.36c4.45,2.94 8.49,3.96 12.25,3.05z"/>
    <path class="fil2" d="M6.43 41.94l20.11 0 0 39.85c-13.24,-8.07 -19.95,-21.36 -20.11,-39.85z"/>
    <path class="fil3" d="M69.11 41.94l-20.11 0 0 39.85c13.24,-8.07 19.95,-21.36 20.11,-39.85z"/>
    <path class="fil3" d="M34.81 35.25l0 10.63 5.85 0 0 -10.63c0,-3.73 -5.85,-3.64 -5.85,0z"/>
    <path class="fil3" d="M31.71 23.3l0 4.43 2.16 0 0 -4.43c0,-1.55 -2.16,-1.52 -2.16,0z"/>
    <path class="fil3" d="M41.57 23.3l0 4.43 2.16 0 0 -4.43c0,-1.55 -2.16,-1.52 -2.16,0z"/>
    <path class="fil3" d="M36.67 23.3l0 4.43 2.16 0 0 -4.43c0,-1.55 -2.16,-1.52 -2.16,0z"/>
    <path class="fil3" d="M34.81 50.47l0 10.63 5.85 0 0 -10.63c0,-3.73 -5.85,-3.64 -5.85,0z"/>
    <path class="fil3" d="M34.81 65.87l0 10.63 5.85 0 0 -10.63c0,-3.73 -5.85,-3.64 -5.85,0z"/>
    <path class="fil2" d="M13.32 21.08c-0.07,4.71 1.08,9.1 4.4,12.91 -2.03,2.16 -4.6,3.64 -7.53,4.67l0.85 2.29c9.5,-3.12 14.3,-9.96 15.23,-19.87l-2.79 0c-0.41,4.08 -1.57,7.81 -3.81,11.04 -2.58,-3.09 -3.48,-7.01 -3.64,-11.04l-2.71 0z"/>
    <path class="fil3" d="M63.34 40.92l0 -2.45 -9.45 0c-0.08,-6.85 3.62,-11.77 9.9,-15.95l-1.44 -2.27c-6.32,4.05 -10.83,9.45 -11.37,17.85 -0.12,1.63 0.72,2.63 2.53,2.81l9.84 0z"/>
    <path class="fil1" d="M34.13 11.89l2.99 0 0 -2.72 1.24 0 0 2.72 2.97 0 0 1.24 -2.97 0 0 2 8.37 4.31 -0.03 0.05 0 60.15 -17.94 0 0 -60.18 0.03 0 -0.01 -0.02 8.33 -4.31 0 -2 -2.99 0 0 -1.24zm10.18 7.57l-6.57 -3.38 -6.54 3.38 13.11 0zm1.27 1.13l-15.67 0 0 9.14 15.67 0 0 -9.14zm-15.67 10.27l0 47.65 15.67 0 0 -47.65 -15.67 0z"/>
   </g>
  </g>
 </g>
</svg>
