<?xml version="1.0" encoding="UTF-8"?>
<!DOCTYPE svg PUBLIC "-//W3C//DTD SVG 1.1//EN" "http://www.w3.org/Graphics/SVG/1.1/DTD/svg11.dtd">
<!-- Creator: CorelDRAW 2020 (64 Bit) -->
<svg xmlns="http://www.w3.org/2000/svg" xml:space="preserve" width="140.861mm" height="149.382mm" version="1.1" style="shape-rendering:geometricPrecision; text-rendering:geometricPrecision; image-rendering:optimizeQuality; fill-rule:evenodd; clip-rule:evenodd"
viewBox="0 0 382.71 405.86"
 xmlns:xlink="http://www.w3.org/1999/xlink"
 xmlns:xodm="http://www.corel.com/coreldraw/odm/2003">
 <defs>
  <style type="text/css">
   <![CDATA[
    .fil4 {fill:#FEFEFE}
    .fil6 {fill:#B29D0C}
    .fil0 {fill:url(#id0)}
    .fil5 {fill:url(#id1)}
    .fil2 {fill:url(#id2)}
    .fil3 {fill:url(#id3)}
    .fil1 {fill:url(#id4)}
   ]]>
  </style>
  <linearGradient id="id0" gradientUnits="userSpaceOnUse" x1="50.63" y1="218.89" x2="330.92" y2="218.89">
   <stop offset="0" style="stop-opacity:1; stop-color:#848688"/>
   <stop offset="0.501961" style="stop-opacity:1; stop-color:#E6E7E8"/>
   <stop offset="1" style="stop-opacity:1; stop-color:#848688"/>
  </linearGradient>
  <linearGradient id="id1" gradientUnits="userSpaceOnUse" x1="-0" y1="249.38" x2="382.71" y2="249.38">
   <stop offset="0" style="stop-opacity:1; stop-color:#034294"/>
   <stop offset="0.501961" style="stop-opacity:1; stop-color:#0A72FA"/>
   <stop offset="1" style="stop-opacity:1; stop-color:#034294"/>
  </linearGradient>
  <linearGradient id="id2" gradientUnits="userSpaceOnUse" x1="113.24" y1="106.54" x2="268.3" y2="106.54">
   <stop offset="0" style="stop-opacity:1; stop-color:#908042"/>
   <stop offset="0.270588" style="stop-opacity:1; stop-color:#9C8A42"/>
   <stop offset="0.501961" style="stop-opacity:1; stop-color:#A89442"/>
   <stop offset="0.760784" style="stop-opacity:1; stop-color:#9C8A42"/>
   <stop offset="1" style="stop-opacity:1; stop-color:#908042"/>
  </linearGradient>
  <linearGradient id="id3" gradientUnits="userSpaceOnUse" x1="63.28" y1="38.94" x2="318.27" y2="38.94">
   <stop offset="0" style="stop-opacity:1; stop-color:#8F7C00"/>
   <stop offset="0.270588" style="stop-opacity:1; stop-color:#9D8801"/>
   <stop offset="0.501961" style="stop-opacity:1; stop-color:#AB9402"/>
   <stop offset="0.760784" style="stop-opacity:1; stop-color:#9D8801"/>
   <stop offset="1" style="stop-opacity:1; stop-color:#8F7C00"/>
  </linearGradient>
  <linearGradient id="id4" gradientUnits="objectBoundingBox" x1="0%" y1="50.0001%" x2="100%" y2="50.0001%">
   <stop offset="0" style="stop-opacity:1; stop-color:#B49B00"/>
   <stop offset="0.270588" style="stop-opacity:1; stop-color:#C8AC00"/>
   <stop offset="0.501961" style="stop-opacity:1; stop-color:#DDBE01"/>
   <stop offset="0.760784" style="stop-opacity:1; stop-color:#C9AD01"/>
   <stop offset="1" style="stop-opacity:1; stop-color:#B49B00"/>
  </linearGradient>
 </defs>
 <g id="Camada_x0020_1">
  <metadata id="CorelCorpID_0Corel-Layer"/>
  <g id="_1970246417408">
   <path class="fil0" d="M190.78 326.96c-32.58,-72.44 -65.15,-144.89 -97.73,-217.33 2.48,-6.47 4.95,-12.94 7.43,-19.41 -18.02,-2.71 -35.02,-8.19 -49.84,-19.53 25.26,79.29 53.96,149.57 64.46,275.2 28.75,15.23 53.01,20.05 75.69,21.21 22.68,-1.16 46.93,-5.98 75.69,-21.21 10.49,-125.63 39.19,-195.92 64.46,-275.2 -14.83,11.34 -31.82,16.82 -49.84,19.53 2.48,6.47 4.95,12.94 7.43,19.41 -32.58,72.44 -65.15,144.89 -97.73,217.33z"/>
   <path class="fil1" d="M190.78 317.32c-30.4,-70.19 -60.81,-140.38 -91.21,-210.57 2.46,-6.67 4.91,-13.34 7.37,-20.01 -17.62,-1.65 -35.62,-6.5 -54.51,-18.69 -2.84,-8.79 -5.67,-17.57 -8.51,-26.36 1.75,-28.83 80.81,-41.55 146.87,-41.69 66.06,0.14 145.11,12.87 146.87,41.69 -2.84,8.79 -5.67,17.57 -8.51,26.36 -18.89,12.19 -36.9,17.04 -54.51,18.69 2.46,6.67 4.91,13.34 7.37,20.01 -30.4,70.19 -60.81,140.38 -91.21,210.57z"/>
   <path class="fil2" d="M256.6 67.16c-13.09,-23.37 -35.98,-36.25 -63.05,-36.25l-5.42 0c-27.52,-0 -49.5,13.08 -62.5,36.36 -6.12,10.95 -12.4,23.46 -12.4,36.21 0,72.49 85.07,103.1 131.97,56.53 15.79,-15.68 23.09,-34.2 23.09,-57.61 0,-12.44 -5.76,-24.62 -11.69,-35.23z"/>
   <ellipse class="fil3" cx="190.78" cy="38.94" rx="127.49" ry="32.95"/>
   <path class="fil1" d="M252.04 67.84c-11.77,-21.02 -34.42,-36 -58.77,-36l-4.87 0c-24.75,-0 -46.98,15.1 -58.67,36.04 -5.5,9.85 -8.67,20.98 -8.67,32.45 0,65.18 76.49,92.7 118.66,50.82 14.2,-14.1 20.76,-30.75 20.76,-51.8 0,-11.19 -3.1,-21.96 -8.44,-31.5z"/>
   <g>
    <path class="fil4" d="M164.23 155.47l6.94 -5.2c4.11,-3.27 2.31,-2.79 8.61,-1.97 8.86,1.16 14.78,0.38 23.41,-0.37 3.54,4.58 9.69,7.26 10.98,8.87 -6.82,4.75 -16.86,6.2 -25.77,5.72 -7.57,-0.41 -20.29,-2.5 -24.16,-7.05zm41.34 -8.94c0.68,-1.38 2.77,-3.56 3.96,-5.12 1.4,-1.82 2.52,-3.4 3.86,-5.39 2.35,-3.48 4.93,-7.83 6.67,-11.81l15.25 -1.31c5.87,-1 3.88,-0.77 4.84,-0.09 0.69,4.25 -0.38,11.84 -1.98,15.55 -1.5,3.49 -6.29,7.11 -9.55,9.44 -1.4,1 -10.08,6.35 -11.94,6.28 -2.47,-0.09 -9.55,-6.31 -11.11,-7.57zm-64.43 -10.15c-1.62,-4.5 -2.6,-10.44 -2.27,-15.61 1.51,-0.01 11.88,2.16 18.95,2.34 0.87,3.28 4.58,9.29 6.34,12.15 2.66,4.31 4.83,6.83 7.59,10.29 -1.04,1.42 -7.94,7.87 -10.47,7.61 -3.7,-0.37 -18.32,-11.72 -20.15,-16.79zm45.8 -38.12c17.83,0.01 16.21,-0.63 19.79,5.15 3.16,5.12 5.73,10.14 8.81,15.53 2.62,4.58 1.98,4.48 -0.53,8.96 -1.57,2.8 -2.93,5.17 -4.64,7.54 -6.69,9.27 -6.58,9.83 -13.95,10.42 -4.83,0.39 -19.08,0.62 -22.41,-1.94 -2.36,-1.81 -8.31,-11.4 -9.99,-14.35 -5.05,-8.86 -4.14,-7.78 0.76,-16.34 2.98,-5.21 6.27,-10.2 9.37,-14.89l12.79 -0.08zm55.7 35.49c-0.08,-3.49 0.39,-7.51 0.33,-11.56 -0.04,-2.88 2.14,-5.8 3.25,-8.37 3.69,-8.51 3.6,-16.32 4.99,-18.22 0.85,1.13 0.73,2.54 0.73,4.22 0,13.57 -2.68,23.71 -9.3,33.92zm-106.32 -5.08c-4.67,-5.84 -7.44,-22.87 -6.48,-31.89 -0.42,1.62 2.86,12.59 3.75,15.02 4.68,12.85 1.93,2.8 2.74,16.87zm83.9 -7.61c-3.36,-5.12 -7.51,-14.1 -12.72,-21.82 -1.95,-2.89 -0.25,-4.63 1.06,-7.98 8.78,-22.5 3.28,-19.7 14.42,-20.27 3.31,-0.17 7.86,-0.23 11.09,0.37 3.97,0.74 8.07,8.67 10.01,12.75 3.45,7.25 4.83,9.5 2.88,18.33 -0.87,3.93 -4.16,14.59 -6.59,16.25 -2.29,1.57 -16.55,2.54 -20.15,2.38zm-62.49 -1.2c-3.15,0.61 -9.4,-0.47 -12.66,-1.04 -5.91,-1.02 -6.11,-0.48 -8.08,-5.56 -6.6,-17.07 -6.11,-23.77 5.14,-39.25 2.89,-3.97 3.83,-3.65 9.73,-3.85 4.31,-0.14 8.19,0.43 12.22,0.92 0.67,4.12 2.55,10.4 3.81,14.2 5.22,15.67 5.16,8.26 -3.83,23.32 -2.14,3.59 -3.97,7.51 -6.33,11.26zm45.94 -24.28c-5.57,0.35 -18.37,-0.3 -26.02,-0.24 -3.93,0.03 -3.28,-0.15 -4.48,-3.64 -1.51,-4.37 -2.87,-8.33 -4.13,-12.92 -2.5,-9.09 -2.98,-8.02 1.44,-11.46 3.12,-2.44 6.38,-4.69 10.18,-6.86 3.23,-1.85 7.65,-5.57 11.74,-3.6 5.34,2.57 13.42,7.9 17.88,11.86 0.91,0.81 1.16,1.22 1.92,1.91 -0.17,5.59 -6.83,19.13 -8.53,24.95zm47.05 -2.56c-1.36,-1.94 -2.08,-5.21 -3.09,-7.62 -3.75,-8.91 -9.24,-13.94 -9.38,-16.67 -0.08,-1.63 0.19,-3.24 0.07,-5.13 4.68,2.92 12.47,21.39 12.77,27.55l-0.37 1.87zm-119.25 -5.75c0.63,-5.55 4.64,-13.57 7.51,-18.34l3.44 -4.56c0.05,-0.19 0.21,-0.19 0.27,-0.27 -0.19,9.09 0.9,1.76 -6.24,13.51 -1.79,2.94 -3.19,6.8 -4.99,9.66zm60.29 -34.17c-0.29,-1.87 -0.12,-8.64 0.34,-10.52 0.26,-1.08 -0.87,-1.56 3.55,-1.81 10.72,-0.61 25.38,6.52 33.69,13.25 4.79,3.88 6.74,5.43 6.06,14.45 -3.59,0.38 -9.74,-0.56 -14.41,-0.26 -7.92,0.51 -5.8,0.6 -8.72,-1.97 -9.23,-8.12 -13.55,-8.67 -20.52,-13.14zm-45.99 14.39c-0.17,-2.34 0.3,-5.88 1.04,-7.76 2.33,-5.92 19,-14.75 26.84,-16.99 6.78,-1.93 8.29,-2.12 15.52,-1.4l-0.87 11.41c-0.64,0.91 -0.1,0.35 -1.12,1.07 -0.12,0.08 -1.06,0.57 -1.28,0.68 -0.97,0.48 -1.63,0.81 -2.57,1.29 -9.91,5 -16.75,11.25 -17.86,11.86 -1.5,0.83 -4.17,0.05 -6.23,-0.14 -4.67,-0.43 -8.83,-0.25 -13.47,-0.03zm109.93 42.58c2.67,-19.77 -4.71,-39.18 -14.49,-50.37 -11.14,-12.75 -24.28,-20.96 -42.11,-23.22 -38.1,-4.85 -69.07,23.23 -73.19,56.35 -4.88,39.19 23.42,69.44 56.8,73.62 38.17,4.78 68.52,-23.27 72.99,-56.37z"/>
    <path class="fil4" d="M121.06 100.32c0,-35.82 30.96,-68.48 67.35,-68.48l4.87 0c35.39,0 67.21,31.67 67.21,67.51 0,21.05 -6.57,37.7 -20.76,51.8 -42.17,41.88 -118.66,14.35 -118.66,-50.83zm0.81 28.56c2.25,5.56 5.15,10.84 8.63,15.72 21.9,30.69 63.63,40.34 97.41,21.04 13.67,-7.81 24.2,-19.85 30.69,-34.07 5.04,-11.03 7.13,-24.18 6.1,-36.61 -4.52,-54.6 -67.84,-86.6 -113.84,-56.04 -28.57,18.98 -42.09,57.62 -28.99,89.96z"/>
   </g>
   <path class="fil5" d="M339.11 92.91c27.24,33.06 43.6,75.42 43.6,121.6 0,105.68 -85.67,191.36 -191.36,191.36 -105.68,0 -191.36,-85.67 -191.36,-191.36 0,-45.71 16.04,-87.67 42.78,-120.58 1.5,4.57 3.01,9.15 4.52,13.72 2.53,7.65 5.05,15.29 7.53,22.93 -15.04,24.41 -23.72,53.15 -23.72,83.93 0,54.74 27.45,103.06 69.34,131.97l0.04 0.52 -0.04 -0.5c25.83,17.82 57.15,28.26 90.9,28.26 33.22,0 64.08,-10.11 89.67,-27.42l0 -0c42.58,-28.8 70.57,-77.54 70.57,-132.82 0,-31.29 -8.98,-60.48 -24.48,-85.15 2.36,-7.23 4.74,-14.46 7.14,-21.71 1.62,-4.91 3.25,-9.82 4.86,-14.74z"/>
   <path class="fil6" d="M323.88 139.36c12.32,22 19.35,47.36 19.35,74.37 0,49.96 -24.04,94.31 -61.17,122.12 0.41,-4.3 0.85,-8.6 1.31,-12.89 30.95,-26.27 50.61,-65.45 50.61,-109.23 0,-22.18 -5.04,-43.18 -14.05,-61.92 1.3,-4.15 2.62,-8.3 3.95,-12.44zm-224.38 196.49c-37.14,-27.8 -61.17,-72.15 -61.17,-122.12 0,-27.01 7.03,-52.37 19.35,-74.37 1.33,4.14 2.65,8.29 3.95,12.44 -9,18.74 -14.05,39.74 -14.05,61.92 0,43.78 19.65,82.96 50.61,109.23 0.47,4.29 0.91,8.59 1.31,12.89z"/>
  </g>
 </g>
</svg>
