<?xml version="1.0" encoding="UTF-8"?>
<!DOCTYPE svg PUBLIC "-//W3C//DTD SVG 1.1//EN" "http://www.w3.org/Graphics/SVG/1.1/DTD/svg11.dtd">
<!-- Creator: CorelDRAW 2020 (64 Bit) -->
<svg xmlns="http://www.w3.org/2000/svg" xml:space="preserve" width="59.3243mm" height="61.8639mm" version="1.1" style="shape-rendering:geometricPrecision; text-rendering:geometricPrecision; image-rendering:optimizeQuality; fill-rule:evenodd; clip-rule:evenodd"
viewBox="0 0 643.74 671.3"
 xmlns:xlink="http://www.w3.org/1999/xlink"
 xmlns:xodm="http://www.corel.com/coreldraw/odm/2003">
 <defs>
  <style type="text/css">
   <![CDATA[
    .fil2 {fill:none}
    .fil1 {fill:white;fill-rule:nonzero}
    .fil5 {fill:url(#id1)}
    .fil3 {fill:url(#id2)}
    .fil0 {fill:url(#id3)}
    .fil6 {fill:url(#id4)}
    .fil4 {fill:url(#id5)}
   ]]>
  </style>
    <clipPath id="id0">
     <path d="M462.1 560.5c4.32,22.2 9.13,44.83 14.42,67.88l-309.3 0c5.3,-23.06 10.11,-45.68 14.42,-67.88l140.23 -404.94 140.23 404.94z"/>
    </clipPath>
  <linearGradient id="id1" gradientUnits="userSpaceOnUse" x1="455.35" y1="127.78" x2="562.31" y2="127.78">
   <stop offset="0" style="stop-opacity:1; stop-color:#F2D82E"/>
   <stop offset="0.631373" style="stop-opacity:1; stop-color:#D3BA17"/>
   <stop offset="1" style="stop-opacity:1; stop-color:#B49B00"/>
  </linearGradient>
  <linearGradient id="id2" gradientUnits="userSpaceOnUse" x1="-0" y1="408.07" x2="643.74" y2="408.07">
   <stop offset="0" style="stop-opacity:1; stop-color:#034294"/>
   <stop offset="0.501961" style="stop-opacity:1; stop-color:#0A72FA"/>
   <stop offset="1" style="stop-opacity:1; stop-color:#034294"/>
  </linearGradient>
  <linearGradient id="id3" gradientUnits="userSpaceOnUse" x1="167.22" y1="391.97" x2="476.52" y2="391.97">
   <stop offset="0" style="stop-opacity:1; stop-color:#B49B00"/>
   <stop offset="0.270588" style="stop-opacity:1; stop-color:#C8AC00"/>
   <stop offset="0.501961" style="stop-opacity:1; stop-color:#DDBE01"/>
   <stop offset="0.760784" style="stop-opacity:1; stop-color:#C9AD01"/>
   <stop offset="1" style="stop-opacity:1; stop-color:#B49B00"/>
  </linearGradient>
  <linearGradient id="id4" gradientUnits="userSpaceOnUse" x1="166.47" y1="259.2" x2="477.26" y2="259.2">
   <stop offset="0" style="stop-opacity:1; stop-color:#848688"/>
   <stop offset="0.501961" style="stop-opacity:1; stop-color:#E6E7E8"/>
   <stop offset="1" style="stop-opacity:1; stop-color:#848688"/>
  </linearGradient>
  <linearGradient id="id5" gradientUnits="userSpaceOnUse" xlink:href="#id1" x1="188.39" y1="127.78" x2="81.43" y2="127.78">
  </linearGradient>
 </defs>
 <g id="Camada_x0020_1">
  <metadata id="CorelCorpID_0Corel-Layer"/>
  <g id="_2267972454704">
   <path class="fil0" d="M462.1 560.5c4.32,22.2 9.13,44.83 14.42,67.88l-309.3 0c5.3,-23.06 10.11,-45.68 14.42,-67.88l140.23 -404.94 140.23 404.94z"/>
   <g style="clip-path:url(#id0)">
    <g>
     <path id="1" class="fil1" d="M321.87 447.2c28.44,0 54.19,11.53 72.83,30.17 18.64,18.64 30.17,44.39 30.17,72.83 0,28.44 -11.53,54.19 -30.17,72.83 -18.64,18.64 -44.39,30.17 -72.83,30.17 -28.44,0 -54.19,-11.53 -72.83,-30.17 -18.64,-18.64 -30.17,-44.39 -30.17,-72.83 0,-28.44 11.53,-54.19 30.17,-72.83 18.64,-18.64 44.39,-30.17 72.83,-30.17zm0 13.43c24.73,0 47.12,10.02 63.33,26.23 16.21,16.21 26.23,38.6 26.23,63.33 0,24.73 -10.02,47.12 -26.23,63.33 -16.21,16.21 -38.6,26.23 -63.33,26.23 -24.73,0 -47.12,-10.03 -63.33,-26.23 -16.21,-16.21 -26.23,-38.6 -26.23,-63.33 0,-24.73 10.03,-47.12 26.23,-63.33 16.21,-16.21 38.6,-26.23 63.33,-26.23zm64.43 33.36l-0.41 11.21 18.11 31.87 2.19 -1.11c-2.67,-15.91 -9.73,-30.33 -19.89,-41.96zm20.36 45.14l-2.05 1.04 -13.63 37.19 1.75 19.97 0.05 0.65c9.21,-13.64 14.59,-30.09 14.59,-47.79 0,-3.75 -0.24,-7.44 -0.71,-11.06zm-16.61 62.67l-0.35 -4.2 -1.65 -18.81 -26.43 1.87 -20.35 31.6 20.49 13.58c7.61,-4.02 14.54,-9.15 20.57,-15.19 2.77,-2.77 5.35,-5.73 7.72,-8.86zm-31.42 25.61l-19.94 -13.22 -41.37 -1.98 -15.89 13.33c12.04,6.48 25.82,10.15 40.45,10.15 13.16,0 25.63,-2.97 36.76,-8.28zm-80.04 -3.46l16.22 -13.61 -19.21 -31.46 -25.11 -1.64 -3.59 14.09c3.92,7.12 8.81,13.62 14.52,19.33 5.12,5.12 10.89,9.6 17.18,13.29zm-33.79 -36.7l2.94 -11.52 -11.3 -28.73c-0.04,1.06 -0.06,2.12 -0.06,3.19 0,13.28 3.03,25.85 8.42,37.06zm-6.43 -55.5l18.06 -26.12 -0.25 -10.16c-8.6,10.32 -14.82,22.69 -17.81,36.28zm20.76 -39.64l0.31 12.45 26.27 0 33.41 -20.14 -0.36 -19.67c-22.37,0.8 -42.56,10.2 -57.35,24.98 -0.78,0.78 -1.54,1.57 -2.29,2.38zm62.67 -27.42l0.36 19.76 30.17 20.36 30.57 -0.72 0.49 -13.29c-0.35,-0.36 -0.7,-0.72 -1.06,-1.08 -15.47,-15.47 -36.85,-25.04 -60.46,-25.04l-0.08 0zm61.69 42.42l-30.47 0.71 -10.67 35.64 19.26 34.13 26.75 -1.89 13.38 -36.49 -18.24 -32.1zm-33.39 -0.14l-29.49 -19.9 -32.71 19.72 9.55 35.33 42.12 0 10.52 -35.15zm-55.44 36.46l-9.68 -35.83 -26.22 0 -21.64 31.29c-0.05,0.39 -0.1,0.77 -0.15,1.16l13.43 34.12 25.26 1.65 19 -32.4zm2.5 1.74l-18.89 32.22 19.41 31.79 40.71 1.95 20.61 -32 -19.16 -33.96 -42.67 0zm93.24 -63.5c-17.54,-17.53 -41.76,-28.38 -68.52,-28.38 -26.76,0 -50.98,10.85 -68.52,28.38 -17.53,17.54 -28.38,41.76 -28.38,68.52 0,26.76 10.85,50.99 28.38,68.52 17.53,17.53 41.76,28.38 68.52,28.38 26.76,0 50.99,-10.85 68.52,-28.38 17.53,-17.54 28.38,-41.76 28.38,-68.52 0,-26.76 -10.85,-50.99 -28.38,-68.52z"/>
    </g>
   </g>
   <path class="fil2" d="M462.1 560.5c4.32,22.2 9.13,44.83 14.42,67.88l-309.3 0c5.3,-23.06 10.11,-45.68 14.42,-67.88l140.23 -404.94 140.23 404.94z"/>
   <path class="fil3" d="M570.35 144.85c45.85,55.61 73.39,126.87 73.39,204.58 0,177.76 -144.11,321.87 -321.87,321.87 -177.76,0 -321.87,-144.11 -321.87,-321.87 0,-77.7 27.55,-148.96 73.39,-204.58l22.61 59.49c-26.93,41.84 -42.56,91.64 -42.56,145.09 0,148.25 120.18,268.43 268.43,268.43 148.25,0 268.43,-120.18 268.43,-268.43 0,-53.45 -15.63,-103.25 -42.56,-145.09l22.61 -59.49z"/>
   <path class="fil4" d="M81.43 135.46c26.7,-29.99 58.93,-54.94 95.09,-73.27 4.63,17.91 8.57,36.03 11.87,54.3 -33.54,19.26 -62.52,45.57 -84.94,76.89l-22.02 -57.92z"/>
   <path class="fil5" d="M467.22 62.18c36.16,18.33 68.38,43.29 95.09,73.27l-22.02 57.92c-22.42,-31.32 -51.4,-57.63 -84.94,-76.89 3.3,-18.28 7.24,-36.39 11.87,-54.3z"/>
   <path class="fil6" d="M166.47 0c103.6,0 207.19,0 310.79,0 -49.13,136.65 -58.83,307.64 -22.85,518.4l-132.54 -382.75 -132.54 382.75c35.98,-210.77 26.28,-381.76 -22.85,-518.4z"/>
  </g>
 </g>
</svg>
