<?xml version="1.0" encoding="UTF-8"?>
<!DOCTYPE svg PUBLIC "-//W3C//DTD SVG 1.1//EN" "http://www.w3.org/Graphics/SVG/1.1/DTD/svg11.dtd">
<!-- Creator: CorelDRAW 2020 (64 Bit) -->
<svg xmlns="http://www.w3.org/2000/svg" xml:space="preserve" width="105.668mm" height="117.432mm" version="1.1" style="shape-rendering:geometricPrecision; text-rendering:geometricPrecision; image-rendering:optimizeQuality; fill-rule:evenodd; clip-rule:evenodd"
viewBox="0 0 13472.46 14972.28"
 xmlns:xlink="http://www.w3.org/1999/xlink"
 xmlns:xodm="http://www.corel.com/coreldraw/odm/2003">
 <defs>
  <style type="text/css">
   <![CDATA[
    .fil6 {fill:#B29D0C}
    .fil3 {fill:white;fill-rule:nonzero}
    .fil4 {fill:url(#id0)}
    .fil2 {fill:url(#id1)}
    .fil5 {fill:url(#id2)}
    .fil0 {fill:url(#id3)}
    .fil1 {fill:url(#id4)}
   ]]>
  </style>
  <linearGradient id="id0" gradientUnits="userSpaceOnUse" x1="3855.93" y1="8483.75" x2="9808.26" y2="8483.75">
   <stop offset="0" style="stop-opacity:1; stop-color:#B49B00"/>
   <stop offset="0.270588" style="stop-opacity:1; stop-color:#C8AC00"/>
   <stop offset="0.501961" style="stop-opacity:1; stop-color:#DDBE01"/>
   <stop offset="0.760784" style="stop-opacity:1; stop-color:#C9AD01"/>
   <stop offset="1" style="stop-opacity:1; stop-color:#B49B00"/>
  </linearGradient>
  <linearGradient id="id1" gradientUnits="userSpaceOnUse" x1="3604.18" y1="12140.92" x2="9958.78" y2="2007.45">
   <stop offset="0" style="stop-opacity:1; stop-color:#9FA0A4"/>
   <stop offset="0.192157" style="stop-opacity:1; stop-color:#C3C4C6"/>
   <stop offset="0.309804" style="stop-opacity:1; stop-color:#E8E8E8"/>
   <stop offset="0.447059" style="stop-opacity:1; stop-color:#C4C4C6"/>
   <stop offset="0.541176" style="stop-opacity:1; stop-color:#9FA0A4"/>
   <stop offset="0.764706" style="stop-opacity:1; stop-color:#BEBFC1"/>
   <stop offset="0.878431" style="stop-opacity:1; stop-color:#DEDEDE"/>
   <stop offset="0.917647" style="stop-opacity:1; stop-color:#BFBFC1"/>
   <stop offset="1" style="stop-opacity:1; stop-color:#9FA0A4"/>
  </linearGradient>
  <linearGradient id="id2" gradientUnits="userSpaceOnUse" x1="6676.65" y1="4259.77" x2="6970.8" y2="14970.96">
   <stop offset="0" style="stop-opacity:1; stop-color:#0C4FA0"/>
   <stop offset="0.858824" style="stop-opacity:1; stop-color:#1E64BA"/>
   <stop offset="1" style="stop-opacity:1; stop-color:#317AD4"/>
  </linearGradient>
  <linearGradient id="id3" gradientUnits="userSpaceOnUse" x1="2834.31" y1="1014.14" x2="1602.84" y2="12793.21">
   <stop offset="0" style="stop-opacity:1; stop-color:#87888A"/>
   <stop offset="0.247059" style="stop-opacity:1; stop-color:#B9B9BA"/>
   <stop offset="0.4" style="stop-opacity:1; stop-color:#EBEBEB"/>
   <stop offset="0.647059" style="stop-opacity:1; stop-color:#B9B9BC"/>
   <stop offset="1" style="stop-opacity:1; stop-color:#86878C"/>
  </linearGradient>
  <linearGradient id="id4" gradientUnits="userSpaceOnUse" x1="10570.6" y1="405.7" x2="12066.71" y2="12628.35">
   <stop offset="0" style="stop-opacity:1; stop-color:#87888A"/>
   <stop offset="0.27451" style="stop-opacity:1; stop-color:#BCBDBE"/>
   <stop offset="0.439216" style="stop-opacity:1; stop-color:#F2F2F2"/>
   <stop offset="0.670588" style="stop-opacity:1; stop-color:#BCBDBF"/>
   <stop offset="1" style="stop-opacity:1; stop-color:#86878C"/>
  </linearGradient>
 </defs>
 <g id="Camada_x0020_1">
  <metadata id="CorelCorpID_0Corel-Layer"/>
  <g id="_2267881466000">
   <path class="fil0" d="M3866.43 12749.16c507.99,-3260.19 -847.16,-7236.92 -3866.44,-11853.77 478.23,-40.71 956.45,-81.39 1434.67,-122.09 2284.31,4371.84 3372.94,8485.84 2889.66,12260.75 -152.63,-94.97 -305.25,-189.93 -457.88,-284.89z"/>
   <path class="fil1" d="M9809.53 12749.16c-686.84,-2739.35 1297.16,-7560.91 3662.94,-12749.16 -464.67,0 -929.32,0 -1393.98,0 -1327.86,4575.34 -3576.44,9198.07 -2726.84,13034.05 152.63,-94.97 305.25,-189.93 457.88,-284.89z"/>
   <path class="fil2" d="M4502.31 13120.53c484.77,-4522.23 -823.79,-8410.17 -2645.48,-11914.81 1790.78,2021.62 7902.5,1654.92 9849.31,-763.11 -2103.28,5768.99 -3317.3,10447.3 -2543.72,12688.09 -1636.56,786.76 -3186.36,749.7 -4660.12,-10.16z"/>
   <path class="fil3" d="M8416.66 13807.76c-627.59,178.25 -1193.38,238.48 -1718.18,220.76 -524.33,-17.71 -1006.11,-113.26 -1467.12,-246.63 -64.53,-18.69 -101.68,-86.18 -82.99,-150.7l2.92 -8.85c296.32,-893.71 299.26,-1755.99 55.56,-2591.81 -245.69,-842.53 -742.41,-1660.81 -1442.5,-2459.29 -34.59,-39.54 -39.01,-95.18 -15.11,-138.7l-0.15 -0.1 2991.43 -5433.39c32.4,-58.99 106.5,-80.55 165.49,-48.17 23.59,12.95 41.17,32.58 51.74,55.22l2957.33 5447.17c25.98,47.68 16.7,105.12 -18.97,142.36 -764.44,854.13 -1243.36,1702.8 -1465.78,2546.5 -221.5,840.2 -188.59,1677.65 69.8,2512.6 19.75,64.27 -16.35,132.38 -80.6,152.13l-2.88 0.91zm-1710.55 -22.47c467.47,15.77 970.36,-33.66 1525.51,-179.55 -238.61,-838.48 -259.75,-1680.24 -36.89,-2525.6 226.74,-860.04 706.07,-1721.84 1465.94,-2585.54l-2813.94 -5183.06 -2843.12 5164.03c693.31,804.15 1187.39,1631.52 1436.92,2487.25 246.72,846.1 254.09,1717.62 -21.25,2619.11 406.77,110.49 830.72,187.97 1286.82,203.37z"/>
   <path class="fil4" d="M8383.78 13690.49c-1230.37,349.36 -2214.07,236.23 -3118.57,-25.45 612.05,-1840.02 13.67,-3550.98 -1409.28,-5173.93 997.15,-1811.14 1994.28,-3622.26 2991.43,-5433.39 986.97,1817.91 1973.93,3635.83 2960.9,5453.74 -1559.05,1740.41 -1954.71,3465.73 -1424.48,5179.03z"/>
   <path class="fil3" d="M6851.31 6349.28c570.04,0 1086.15,231.08 1459.73,604.65 373.57,373.58 604.65,889.68 604.65,1459.72 0,570.07 -231.09,1086.19 -604.65,1459.75 -373.58,373.58 -889.68,604.65 -1459.73,604.65 -570.07,0 -1086.17,-231.06 -1459.75,-604.65 -373.54,-373.56 -604.63,-889.68 -604.63,-1459.75 0,-570.04 231.08,-1086.14 604.63,-1459.72 373.58,-373.57 889.7,-604.65 1459.75,-604.65zm1373.41 690.97c-351.47,-351.46 -837.06,-568.86 -1373.41,-568.86 -536.34,0 -1021.94,217.4 -1373.42,568.86 -351.46,351.47 -568.86,837.05 -568.86,1373.39 0,536.36 217.4,1021.96 568.86,1373.42 351.46,351.46 837.06,568.87 1373.42,568.87 536.36,0 1021.94,-217.41 1373.41,-568.87 351.46,-351.46 568.87,-837.06 568.87,-1373.42 0,-536.34 -217.41,-1021.92 -568.87,-1373.39z"/>
   <path class="fil3" d="M6851.31 6618.51c495.67,0 944.49,200.95 1269.34,525.81 324.85,324.83 525.81,773.66 525.81,1269.33 0,495.7 -200.95,944.5 -525.81,1269.37 -324.85,324.86 -773.64,525.8 -1269.34,525.8 -495.7,0 -944.49,-200.94 -1269.35,-525.8 -324.86,-324.86 -525.8,-773.67 -525.8,-1269.37 0,-495.67 200.95,-944.5 525.8,-1269.33 324.86,-324.86 773.68,-525.81 1269.35,-525.81zm1291.5 668.65l-8.26 224.71 362.91 638.75 43.94 -22.35c-53.43,-318.83 -194.92,-607.82 -398.58,-841.12zm408.02 904.76l-40.98 20.83 -273.3 745.38 35.02 400.34 1.08 12.98c184.6,-273.44 292.4,-603.03 292.4,-957.8 0,-75.13 -4.84,-149.15 -14.23,-221.73zm-333 1256.07l-7.03 -84.25 -33.02 -377.11 -529.74 37.5 -407.89 633.46 410.71 272.28c152.49,-80.59 291.37,-183.48 412.26,-304.38 55.51,-55.51 107.2,-114.84 154.71,-177.5zm-629.7 513.38l-399.74 -265.02 -829.24 -39.73 -318.59 267.25c241.39,129.84 517.46,203.55 810.76,203.55 263.78,0 513.62,-59.63 736.82,-166.05zm-1604.32 -69.42l325.18 -272.79 -385.08 -630.59 -503.32 -32.93 -72.05 282.48c78.46,142.73 176.66,273.1 290.94,387.38 102.69,102.67 218.37,192.38 344.33,266.46zm-677.4 -735.55l58.89 -230.86 -226.56 -575.77c-0.79,21.18 -1.19,42.49 -1.19,63.88 0,266.13 60.64,518.04 168.86,742.75zm-128.87 -1112.43l362.08 -523.54 -5.09 -203.64c-172.45,206.79 -297.12,454.84 -356.99,727.18zm416.14 -794.5l6.23 249.63 526.64 0 669.58 -403.72 -7.2 -394.31c-448.45,16.04 -853.02,204.37 -1149.46,500.79 -15.55,15.57 -30.84,31.45 -45.8,47.62zm1256.04 -549.54l7.24 396.06 604.77 408.08 612.74 -14.36 9.79 -266.29c-7,-7.25 -14.02,-14.45 -21.15,-21.57 -310.11,-310.11 -738.57,-501.93 -1211.81,-501.93l-1.58 0.01zm1236.6 850.33l-610.83 14.31 -213.84 714.45 386 684.04 536.08 -37.94 268.18 -731.38 -365.59 -643.47zm-669.32 -2.83l-591.07 -398.84 -655.54 395.27 191.4 708.19 844.29 0 210.92 -704.62zm-1111.27 730.84l-194.08 -718.13 -525.49 0 -433.76 627.19c-1.03,7.75 -2,15.54 -2.91,23.32l269.08 683.8 506.38 33.14 380.77 -649.31zm50.08 34.81l-378.69 645.75 389.12 637.2 815.91 39.09 413.02 -641.42 -384.05 -680.62 -855.31 0z"/>
   <path class="fil5" d="M11878.68 4258.42c4052.58,5940.93 -994.27,10787.18 -5140.45,10713.02 -4705.72,-84.16 -8707.88,-5367.69 -5014.15,-10651.95 169.58,369.68 339.17,739.37 508.75,1109.06 -1942.55,2686.61 -733.01,7969.54 4117.93,8454.35 3908.7,390.64 7733.86,-3862.66 5080.21,-8454.35 149.24,-390.04 298.46,-780.09 447.71,-1170.14z"/>
   <path class="fil6" d="M3667.5 12561.15c-2086.31,-1672.73 -2665.58,-4462.73 -1312.56,-6827.37 64.44,132.27 128.89,264.54 193.32,396.82 -1039.9,1888.13 -645.71,4444.06 1119.24,6064.25 0,122.1 0,244.2 0,366.3z"/>
   <path class="fil6" d="M9991.18 12561.15c2086.31,-1672.73 2665.58,-4462.73 1312.56,-6827.37 -64.44,132.27 -128.89,264.54 -193.32,396.82 1039.9,1888.13 645.71,4444.06 -1119.24,6064.25 0,122.1 0,244.2 0,366.3z"/>
  </g>
 </g>
</svg>
