<?xml version="1.0" encoding="UTF-8"?>
<!DOCTYPE svg PUBLIC "-//W3C//DTD SVG 1.1//EN" "http://www.w3.org/Graphics/SVG/1.1/DTD/svg11.dtd">
<!-- Creator: CorelDRAW 2020 (64 Bit) -->
<svg xmlns="http://www.w3.org/2000/svg" xml:space="preserve" width="361.467mm" height="438.802mm" version="1.1" style="shape-rendering:geometricPrecision; text-rendering:geometricPrecision; image-rendering:optimizeQuality; fill-rule:evenodd; clip-rule:evenodd"
viewBox="0 0 5787.45 7025.66"
 xmlns:xlink="http://www.w3.org/1999/xlink"
 xmlns:xodm="http://www.corel.com/coreldraw/odm/2003">
 <defs>
  <style type="text/css">
   <![CDATA[
    .fil4 {fill:#B29D0C}
    .fil1 {fill:white}
    .fil3 {fill:url(#id0)}
    .fil2 {fill:url(#id1)}
    .fil0 {fill:url(#id2)}
   ]]>
  </style>
  <linearGradient id="id0" gradientUnits="userSpaceOnUse" x1="848.18" y1="3605.16" x2="4941.95" y2="3605.16">
   <stop offset="0" style="stop-opacity:1; stop-color:#848688"/>
   <stop offset="0.501961" style="stop-opacity:1; stop-color:#E6E7E8"/>
   <stop offset="1" style="stop-opacity:1; stop-color:#848688"/>
  </linearGradient>
  <linearGradient id="id1" gradientUnits="userSpaceOnUse" x1="-0" y1="4307.43" x2="5787.45" y2="4307.43">
   <stop offset="0" style="stop-opacity:1; stop-color:#034294"/>
   <stop offset="0.501961" style="stop-opacity:1; stop-color:#0A72FA"/>
   <stop offset="1" style="stop-opacity:1; stop-color:#034294"/>
  </linearGradient>
  <linearGradient id="id2" gradientUnits="userSpaceOnUse" x1="1139.91" y1="2948.82" x2="4651.07" y2="2948.82">
   <stop offset="0" style="stop-opacity:1; stop-color:#B49B00"/>
   <stop offset="0.270588" style="stop-opacity:1; stop-color:#C8AC00"/>
   <stop offset="0.501961" style="stop-opacity:1; stop-color:#DDBE01"/>
   <stop offset="0.760784" style="stop-opacity:1; stop-color:#C9AD01"/>
   <stop offset="1" style="stop-opacity:1; stop-color:#B49B00"/>
  </linearGradient>
 </defs>
 <g id="Camada_x0020_1">
  <metadata id="CorelCorpID_0Corel-Layer"/>
  <path class="fil0" d="M3631.06 3523.38l1020.02 -3306.63c-11.58,-14.38 -28.65,-14.71 -53.61,-20.7l-194.32 -43.31c-86.49,-18.13 -173.91,-34.46 -261.44,-49 -93.01,-15.45 -488.48,-80.44 -557.75,-68.12 -24.8,-16.56 -296.06,-25.66 -346.3,-27.76 -315.1,-13.15 -588.52,-10.37 -901.74,12.74l-175.33 19.65c-52.13,-12.53 -446.32,52.14 -524.02,65.66 -85.51,14.88 -167.9,31.09 -252.59,48.15 -80.3,16.18 -164.83,40.3 -244.06,54.74l994.69 3224.97c19.41,94.22 64.71,216.05 94.35,311.44 93.58,301.21 197.85,624.95 284.84,923.81 87.41,300.32 193.53,616.84 283.61,919.71 14.81,49.78 80.88,282.05 98.89,308.91l734.76 -2374.26z"/>
  <path class="fil1" d="M2587.62 2266.13l80.45 -60.28c47.73,-37.89 26.85,-32.39 99.93,-22.82 102.81,13.46 171.47,4.47 271.53,-4.26 41.07,53.1 112.4,84.18 127.32,102.88 -79.08,55.14 -195.53,71.92 -298.94,66.31 -87.84,-4.76 -235.36,-29 -280.29,-81.83zm479.61 -103.73c7.86,-16.02 32.09,-41.35 45.94,-59.35 16.25,-21.13 29.19,-39.39 44.81,-62.5 27.28,-40.36 57.15,-90.82 77.35,-136.98l176.9 -15.16c68.1,-11.65 45.06,-8.93 56.16,-0.99 7.98,49.29 -4.42,137.34 -22.98,180.45 -17.43,40.48 -72.92,82.52 -110.83,109.48 -16.24,11.55 -116.91,73.62 -138.52,72.86 -28.63,-1.01 -110.73,-73.17 -128.83,-87.8zm-747.48 -117.77c-18.84,-52.2 -30.15,-121.16 -26.28,-181.08 17.51,-0.15 137.78,25.04 219.78,27.16 10.12,38.02 53.1,107.82 73.58,140.99 30.86,49.98 56.04,79.18 88.06,119.36 -12.05,16.47 -92.07,91.26 -121.41,88.31 -42.94,-4.32 -212.5,-135.92 -233.73,-194.75zm531.36 -442.23c206.79,0.11 188.06,-7.37 229.54,59.75 36.69,59.38 66.5,117.65 102.25,180.14 30.43,53.19 22.99,51.92 -6.18,103.97 -18.18,32.43 -33.98,59.96 -53.84,87.47 -77.64,107.53 -76.31,114 -161.78,120.93 -56,4.54 -221.31,7.18 -259.94,-22.48 -27.39,-21.02 -96.39,-132.2 -115.95,-166.53 -58.57,-102.8 -48.06,-90.27 8.85,-189.6 34.61,-60.41 72.77,-118.34 108.64,-172.71l148.4 -0.93zm646.18 411.73c-0.96,-40.54 4.52,-87.1 3.83,-134.08 -0.49,-33.38 24.81,-67.28 37.73,-97.06 42.81,-98.69 41.74,-189.35 57.87,-211.31 9.87,13.12 8.47,29.41 8.47,48.97 0,157.48 -31.08,275.05 -107.89,393.49zm-1233.41 -58.99c-54.17,-67.7 -86.35,-265.32 -75.18,-369.95 -4.82,18.81 33.21,146.08 43.45,174.2 54.28,149.09 22.42,32.52 31.73,195.75zm973.29 -88.33c-38.94,-59.44 -87.11,-163.54 -147.58,-253.14 -22.61,-33.5 -2.89,-53.74 12.25,-92.55 101.8,-260.98 38.08,-228.53 167.23,-235.2 38.38,-1.98 91.18,-2.68 128.68,4.26 46.11,8.54 93.61,100.6 116.15,147.88 40.06,84.06 56.02,110.26 33.38,212.59 -10.09,45.62 -48.3,169.27 -76.4,188.56 -26.55,18.23 -191.97,29.49 -233.71,27.6zm-724.96 -13.91c-36.49,7.11 -109.05,-5.47 -146.86,-12.01 -68.54,-11.85 -70.93,-5.54 -93.7,-64.45 -76.56,-198 -70.84,-275.75 59.66,-455.35 33.49,-46.09 44.49,-42.35 112.9,-44.65 49.96,-1.68 95.05,4.99 141.73,10.66 7.82,47.75 29.55,120.68 44.21,164.7 60.55,181.82 59.83,95.79 -44.48,270.49 -24.84,41.61 -46.07,87.13 -73.45,130.62zm532.97 -281.71c-64.61,4.03 -213.13,-3.51 -301.83,-2.76 -45.57,0.39 -38.03,-1.7 -52.01,-42.17 -17.5,-50.66 -33.26,-96.67 -47.92,-149.94 -29.03,-105.45 -34.53,-92.98 16.71,-132.99 36.22,-28.29 74.07,-54.37 118.14,-79.62 37.44,-21.45 88.75,-64.59 136.21,-41.72 61.95,29.85 155.74,91.67 207.37,137.59 10.57,9.4 13.42,14.2 22.33,22.16 -1.93,64.8 -79.21,221.98 -99.01,289.45zm545.86 -29.68c-15.81,-22.47 -24.1,-60.43 -35.85,-88.38 -43.47,-103.4 -107.21,-161.7 -108.85,-193.38 -0.98,-18.85 2.2,-37.6 0.79,-59.49 54.34,33.89 144.65,248.11 148.15,319.61l-4.24 21.64zm-1383.4 -66.75c7.28,-64.35 53.8,-157.41 87.18,-212.8l39.93 -52.92c0.6,-2.21 2.48,-2.15 3.12,-3.15 -2.2,105.45 10.49,20.45 -72.35,156.76 -20.76,34.16 -37.01,78.92 -57.87,112.11zm699.4 -396.36c-3.34,-21.72 -1.35,-100.2 4,-122.06 3.07,-12.53 -10.07,-18.12 41.23,-21.02 124.41,-7.02 294.46,75.65 390.83,153.72 55.58,45.03 78.14,63.04 70.32,167.58 -41.61,4.4 -113.02,-6.49 -167.16,-3.01 -91.89,5.9 -67.3,7.01 -101.21,-22.81 -107.09,-94.16 -157.18,-100.56 -238,-152.39zm-533.53 166.94c-1.92,-27.11 3.53,-68.21 12.11,-90 27.02,-68.66 220.38,-171.15 311.33,-197.08 78.64,-22.42 96.21,-24.61 180.02,-16.26l-10.11 132.4c-7.41,10.54 -1.19,4.07 -12.97,12.45 -1.35,0.96 -12.35,6.59 -14.86,7.84 -11.28,5.58 -18.87,9.41 -29.87,14.96 -114.96,58.05 -194.33,130.56 -207.14,137.63 -17.4,9.61 -48.34,0.58 -72.25,-1.62 -54.15,-5 -102.46,-2.95 -156.26,-0.32zm1275.31 493.91c30.97,-229.4 -54.6,-454.5 -168.1,-584.37 -129.28,-147.93 -281.7,-243.13 -488.47,-269.43 -442.05,-56.22 -801.23,269.43 -849.05,653.7 -56.57,454.64 271.74,805.54 658.9,854.01 442.82,55.44 794.88,-269.92 846.72,-653.92z"/>
  <path class="fil2" d="M862.51 2847.94c35.72,-37.54 148.92,-221.74 251.5,-326.71l97.77 -99.84c25.63,-22.13 40.16,-38.7 66.05,-63.76 12.72,-12.3 55.92,-49.16 70.8,-58 -4.87,-48.17 -130.44,-460.63 -151.26,-502.53 -40.97,16.89 -242.93,190.28 -290.1,235.18 -29.67,28.24 -145.44,145.54 -156.94,166.73 -88.5,73.09 -290.38,370.28 -344.68,461.18 -98.68,165.2 -187.59,351.94 -254.64,553.09 -147.31,441.96 -193.72,933.82 -108.64,1419.17 79.61,454.18 230.54,781.46 468.67,1147.03 26.99,41.43 54.61,75.7 83.36,114.23 14.13,18.95 29.1,36.3 44.88,56.79l293.6 316.35c80.79,73.93 343.61,287.39 405.19,306.9 31.9,37.81 394.4,225.12 470.45,243.98l36.27 -508.84c-3.35,-13.67 -154.83,-90.54 -167.12,-97.65 -93.35,-54.08 -233.28,-149.71 -312.11,-218.73 -22.14,-19.39 -50.64,-40.73 -70.57,-59.52 -26.31,-24.8 -44.24,-46.55 -71.35,-64.3 -20.47,-22.02 -40,-39.61 -60.97,-63.02l-121.99 -137.95c-21.79,-25.37 -37.11,-45.52 -57.68,-72.18 -520.7,-674.8 -643.15,-1617.69 -297.94,-2407.38 32.39,-74.09 88.38,-188.33 130.68,-259.05 12.64,-21.14 40.14,-61.69 46.76,-81.17zm4178.83 -643c-16.9,-35.21 -73.78,-82.09 -103.78,-112.06 -20.14,-20.12 -30.88,-30.59 -52.52,-54.8 -34.79,-38.91 -268.31,-231.02 -294.24,-240.57 -20.67,37.5 -144.98,452.19 -152.49,502.13 15.49,8.45 53.66,41.76 68.16,55.01 153.89,140.65 284.56,300.04 402.22,472.83l16.03 20.15 94.9 168.84c95.21,177.13 174.31,388.46 218.36,589.14 70.36,320.51 79.62,648.63 18.41,974.59 -55.65,296.37 -158.93,549.78 -292.84,779.63 -51.78,88.88 -211.72,317.55 -282.45,384.04 -39.08,36.73 -65.62,76.25 -133.27,137.78 -22.51,20.48 -49.97,42.09 -68.87,65.69l-123.17 98.06c-146.15,113.97 -240.68,162.14 -392.37,245.66l-18.8 12.05 31.95 507.33c5.71,2.57 6.13,6.42 25.18,0.29l75.6 -32.72c33.38,-14.7 66.31,-31.08 100.16,-46.79 61.49,-28.55 138.86,-72.22 188.58,-104.02 83.44,-42.47 285.08,-188.4 360.5,-250.47l317.48 -303.79c67.33,-84.36 108.39,-119.86 185.03,-227.24 228.33,-319.89 409.5,-678.06 503.49,-1146.5 140.26,-699.07 6.14,-1424.53 -340.5,-2021.67 -57.64,-99.29 -278.08,-425.95 -350.76,-472.59z"/>
  <path class="fil1" d="M2086.79 1626.28c0,-415.59 359.15,-794.46 781.27,-794.44l56.48 -0c410.56,0.03 779.66,367.44 779.66,783.15 0,244.15 -76.16,437.33 -240.88,600.91 -489.17,485.8 -1376.54,166.51 -1376.54,-589.61zm81.05 -449.89c-18.6,48.71 -49.71,79.28 -87.06,187.86 -65.87,191.52 -60.48,406.07 15.36,593.32 11.84,29.23 36.5,73.19 43.05,97.13 13.11,13 43.61,66.3 57.1,85.21 254.06,356.08 738.2,467.99 1130.04,244.05 204.1,-116.64 272.68,-262.84 299.51,-283.35 8.34,-26.78 40.63,-77 56.55,-111.88 58.42,-127.96 82.7,-280.47 70.76,-424.66 -17.12,-206.81 -88.47,-321.63 -191.06,-471.61 -7.98,-5.95 -68.02,-79.79 -136.3,-131.22 -293.41,-221.05 -690.84,-248.17 -993.33,-47.24 -96.86,64.34 -135.46,102.89 -207.72,187.64 -19.71,23.12 -35.71,53.09 -56.92,74.76z"/>
  <path class="fil3" d="M1436.34 1604.03c1.01,-32.12 -88.68,-300.7 -105.26,-355.83 -35.34,-117.48 -71.71,-235.93 -108.91,-354.08 -36.24,-115.08 -71.75,-237.09 -108.76,-354.31 -35.72,-113.13 -80.63,-242.21 -108.23,-355.15 -30.12,11.42 -139.79,95.82 -156.99,115.49 14.16,47.81 58.51,123.66 80.91,175.21 27.35,62.96 54.54,122.07 80.97,184.59 52.34,123.83 104.43,248.42 151.59,373.95 48.08,127.97 96.31,252.17 141.38,384.13l131.01 389.64 156.55 536.77c128.18,469.7 231.17,931.74 311.39,1411.54 15.64,93.53 36.78,202.85 45.66,296.77 8.49,107.86 29.87,224.37 42.53,333.3 13.08,112.55 24.11,226.91 34.94,341.27 64.63,682.94 64.63,1401.53 3.33,2086.95 -2.28,25.45 -10.29,65.12 -2.37,83.75l250.37 67.36c73.74,22.63 200.44,37.03 279.65,45.7 105.36,11.53 205.58,15.45 317.62,14.44 113.59,-1.02 518.75,-11.21 603.92,-55.2 73.95,-10.18 225.84,-48.32 293.33,-74.97 -77.96,-939.06 -70.09,-1525.87 22.73,-2435.28 10.95,-107.3 33.47,-227.55 40.17,-332.64 15.27,-229.36 178.55,-1020.62 229.06,-1238.65 65.89,-284.44 179.25,-723.03 274.32,-1008.35 12.42,-37.28 39.1,-110.66 43.94,-146.01l125.28 -367.34c88.69,-248.26 177.03,-477.49 280.5,-719.56l154.98 -348.59c-32.44,-29.43 -112.4,-94.91 -155.67,-114.01l-308.27 1006.36c-15.8,53.11 -100.59,305.63 -100.05,337.17 -13.78,15.44 -14.99,30.94 -21.04,50.93l-119.33 388.72c-42.59,134.29 -407.38,1306.58 -406.65,1336.2 -1.06,1.1 -2.39,1.48 -2.78,3.65l-23.43 63c-6.41,22.26 -14.63,46.35 -21.27,69.1 -38.4,131.41 -302.93,964.75 -302.7,1000.2 -20.21,19.55 -68.33,203.48 -76.59,230.39l-431.36 1408.51c-12.14,39.07 -23.86,78.25 -35.36,117.06 -6.35,21.42 -12.1,38.36 -18.67,60.28 -8.25,27.51 -6.7,33.07 -19.86,55.64 -0.56,0.96 -1.64,2.71 -2.6,3.96 -21.52,-25.33 -304.45,-979.26 -311.17,-1001.16 -50.93,-165.98 -100.37,-332.41 -153.37,-501.4l-159.14 -498.65c0.53,-22.22 -250.29,-836.81 -306.41,-1012.5l-15.81 -31.48c0.53,-27.06 -224.25,-748.46 -252.51,-835.84 -44.31,-136.99 -82.87,-276.89 -127.4,-414.71l-95.5 -310.84c-7.42,-23.23 -21.89,-80.47 -33.02,-98.13l-5.61 -7.35z"/>
  <path class="fil4" d="M4975.48 3135.29c-59.06,-143.19 -280.1,-472.4 -396.8,-576.24 -29.22,-26 -50.18,-55.04 -81.36,-82.51 -31.86,-28.06 -47.96,-54.97 -87.25,-77.31 -6.25,31.34 -48.68,156.41 -39.07,175.86 10.17,20.59 89.83,85.66 112.44,113.04 204.38,247.46 302.39,380.68 427.13,702.54 18.39,47.44 39.16,132.97 57.75,169.65l52.53 257.35c35.85,235.04 30.69,483.17 -12.82,716.62 -5.98,32.08 -26.26,106.4 -25.02,133.41 -12.31,13.57 -47.08,144.21 -57.1,174.45 -92.36,278.43 -215.04,455.96 -381.84,674.29 -37.54,49.13 -132.98,146.88 -173.2,182.7 -29.37,26.16 -59.33,59.42 -91.74,83.22 -17.96,13.19 -19.03,12.52 -32.44,31.46 -14.8,3.55 -22.45,13 -36.68,23.8l-261.27 174.21c-6.04,4.52 -6.02,4.67 -10.39,8.86l3.3 173.36c53.61,-14.53 279.19,-159.64 308.99,-189.57 49.07,-21.27 122.71,-94.74 168.48,-132.76 217.89,-180.96 444.78,-485.79 567.67,-755.47 58.22,-99.91 126.54,-319.58 156.16,-446.99 81.18,-349.21 81,-738.1 -6.05,-1087.03 -32.35,-129.66 -99.75,-343.29 -161.42,-446.94zm-4028.26 79.72c14.05,-15.38 84.71,-158.44 120.97,-214.18 57.07,-87.72 141.47,-211.28 212.63,-284.35 15.3,-15.71 23.93,-30.07 38.78,-46.17l83.52 -80.4c34.84,-36.99 -3.3,-73.72 -25.84,-190.71 -34.1,19.89 -96.19,83.55 -122.23,110.67 -20.79,21.65 -36.52,36.18 -59.09,59.39 -10.4,10.7 -15.8,19.86 -25.55,31.11 -58.4,67.39 -203.58,235.07 -227.96,305.01 -26.38,21.86 -117.21,199.1 -139.62,248.07 -141.66,309.49 -218.7,614.62 -218.46,969.38 0.24,362.98 64.39,657.4 207.18,975.02 22.91,50.95 110.22,227.85 139.15,253.97 32.41,93.35 255.79,340.42 317.33,407.93 89.48,98.15 293.72,260.53 401.27,323.65 33.74,27.45 149.31,92.04 196.06,112.02l3.77 -181.64c-31.43,-9.73 -71.59,-38.32 -99.51,-55.18 -32.53,-19.65 -63.72,-50.85 -97.37,-60.33 -7.82,-13.05 -180.03,-140.28 -213.15,-177.03 -64.44,-71.51 -115.96,-105.5 -193.48,-201.88 -94.69,-117.74 -166.38,-214.7 -240.27,-352.93 -17.52,-32.78 -47.54,-107.14 -70.02,-130.1 -1.05,-15.39 -63.65,-163.63 -76.12,-198.31 -23.51,-65.39 -45.22,-142.99 -61.51,-215.26 -94.71,-420.31 -67.07,-804.24 69.37,-1207.39 14.01,-41.4 77.22,-177.37 80.14,-200.36z"/>
 </g>
</svg>
