<?xml version="1.0" encoding="UTF-8"?>
<!DOCTYPE svg PUBLIC "-//W3C//DTD SVG 1.1//EN" "http://www.w3.org/Graphics/SVG/1.1/DTD/svg11.dtd">
<!-- Creator: CorelDRAW 2020 (64 Bit) -->
<svg xmlns="http://www.w3.org/2000/svg" xml:space="preserve" width="100.629mm" height="111.582mm" version="1.1" style="shape-rendering:geometricPrecision; text-rendering:geometricPrecision; image-rendering:optimizeQuality; fill-rule:evenodd; clip-rule:evenodd"
viewBox="0 0 2271.85 2519.12"
 xmlns:xlink="http://www.w3.org/1999/xlink"
 xmlns:xodm="http://www.corel.com/coreldraw/odm/2003">
 <defs>
  <style type="text/css">
   <![CDATA[
    .fil0 {fill:#18683F}
    .fil4 {fill:#920000}
    .fil2 {fill:#E0AA19}
    .fil1 {fill:#FEFEFE}
    .fil3 {fill:#201E1E;fill-rule:nonzero}
    .fil5 {fill:#FD0000;fill-rule:nonzero}
   ]]>
  </style>
 </defs>
 <g id="Camada_x0020_1">
  <metadata id="CorelCorpID_0Corel-Layer"/>
  <g id="_2853546148784">
   <g id="_2855660893776">
    <path class="fil0" d="M1135.92 0c-378.64,0 -757.28,0 -1135.92,0 0,269.96 0,515.53 0,785.49 0,726.49 588.58,1423.97 1135.92,1733.63 547.34,-309.66 1135.93,-1007.14 1135.93,-1733.63 0,-269.96 0,-515.53 0,-785.49 -378.64,0 -757.28,0 -1135.93,0z"/>
    <path class="fil1" d="M58.65 58.65c0,242.28 0,484.56 0,726.84 0,39.06 1.78,78.12 5.24,117.03 25.73,289.28 143.57,566.81 302.39,807.5 191.39,290.02 467.89,563.61 769.63,741.37 301.75,-177.76 578.25,-451.36 769.64,-741.37 180.18,-273.05 307.64,-593.72 307.64,-924.53 0,-242.28 0,-484.56 0,-726.84 -359.09,0 -718.18,0 -1077.27,0 -359.09,0 -718.18,0 -1077.27,0l0.01 0z"/>
    <path class="fil0" d="M112.41 699.05l0 86.44c0,37.47 1.71,74.94 5.03,112.27 24.92,280.31 139.83,549.45 293.72,782.65 159.08,241.07 377.12,469.31 618.99,638.87l0 -1620.24 -917.74 0 0 0.01z"/>
    <path class="fil2" d="M1241.7 2319.29c241.87,-169.56 459.91,-397.8 618.99,-638.87 174.27,-264.09 298.75,-574.88 298.75,-894.92l0 -86.44 -917.74 0 0 1620.24 0 -0z"/>
    <rect class="fil0" x="112.4" y="112.41" width="2047.03" height="518.41"/>
    <path class="fil1" d="M533.06 859.55c362.86,140.25 576.07,161.18 805.4,311.11 67.43,42.2 140.44,91.18 221.64,143.85 97.8,48.69 187.82,105.78 265.7,171.74 -75.29,28.17 -148.37,69.03 -221,112.5 -58.1,-18.14 -125.07,-0.81 -195.13,28.87 -63.18,5.75 -116.75,0.83 -167.96,-6.72 0,-99.47 0,-198.95 0,-298.41 -62.2,45.63 -132.09,81.22 -211.55,104.28 -227.47,43.68 -386.88,-154.06 -510.5,-275.76 -20.74,-44.13 -9.95,-81.96 22.39,-115.48 -3,-58.66 -5.99,-117.32 -8.98,-175.97l-0 -0.01z"/>
    <path class="fil3" d="M536.63 850.3c133.38,51.55 246.88,87.05 348.33,118.78 174.23,54.5 313.11,97.93 458.94,193.26 44.18,27.66 90.35,57.94 139.57,90.23 27.88,18.29 56.69,37.19 81.37,53.2 49.74,24.78 97.7,51.87 143.3,81.35l0.02 -0.03c43.94,28.41 85.47,58.92 124.04,91.58l12.92 10.94 -15.87 5.94c-37.23,13.93 -73.96,31.02 -110.37,50.01 -36.47,19.01 -72.77,40.03 -109,61.72l-3.83 2.29 -4.22 -1.32c-27.39,-8.55 -57.12,-8.7 -88.41,-3.19 -32.02,5.65 -65.58,17.16 -99.91,31.71l-1.41 0.6 -1.55 0.14c-32.16,2.93 -61.8,3.14 -89.87,1.67 -28.19,-1.48 -54.66,-4.62 -80.43,-8.42l-8.52 -1.25 0 -287.71c-26.87,18.6 -55.14,35.4 -84.96,50.22 -35.65,17.72 -73.53,32.59 -113.88,44.3l-0.89 0.23c-207.03,39.76 -357.36,-113.65 -476.21,-234.94 -14.88,-15.18 -29.25,-29.85 -43.13,-43.51l-1.24 -1.23 -0.78 -1.65c-11.36,-24.17 -14.06,-46.76 -9.45,-68.02 4.29,-19.83 14.9,-38.21 30.69,-55.39l-9.55 -187.02 14.27 5.52 0.01 0zm342.42 137.76c-97.92,-30.62 -207.04,-64.76 -335.31,-113.76l8.43 165.03 -2.98 3.09c-14.9,15.44 -24.8,31.71 -28.54,48.98 -3.59,16.6 -1.53,34.46 7.22,53.8 13.61,13.43 27.61,27.72 42.08,42.48 115.51,117.88 261.6,266.96 458.07,229.39 38.87,-11.33 75.46,-25.72 109.97,-42.87 34.63,-17.21 67.17,-37.22 97.83,-59.71l15.83 -11.61 0 309.43c22.71,3.19 45.88,5.77 70.05,7.05 26.85,1.41 55.1,1.24 85.54,-1.45 35.22,-14.85 69.71,-26.6 102.76,-32.43 32.64,-5.75 63.99,-5.78 93.46,2.54 35.15,-20.99 70.47,-41.36 106.24,-60.01 31.94,-16.66 64.15,-31.89 96.78,-44.89 -34.22,-28.07 -70.69,-54.49 -109.04,-79.27l0 -0.04c-44.62,-28.85 -92.09,-55.62 -141.77,-80.35l-0.31 -0.16 -0.66 -0.42c-31.8,-20.63 -57.37,-37.4 -82.1,-53.63 -49.44,-32.43 -95.8,-62.84 -139.38,-90.11l-0.19 -0.12c-143.55,-93.84 -281.23,-136.91 -453.97,-190.93l0 -0.01z"/>
    <polygon class="fil4" points="1574.6,1389.87 1571.99,1449.62 1638.72,1472.97 1570.46,1486.34 1568.12,1546.12 1528.56,1494.63 1460.38,1508.22 1504.18,1463.02 1464.39,1411.65 1531.02,1435.21 "/>
    <polygon class="fil5" points="255,219.7 503.43,219.7 503.43,289.64 355.83,289.64 355.83,346.41 482.08,346.41 482.08,412.26 355.83,412.26 355.83,544.88 255,544.88 "/>
    <polygon class="fil5" points="729.75,219.7 978.18,219.7 978.18,289.64 830.58,289.64 830.58,346.41 956.83,346.41 956.83,412.26 830.58,412.26 830.58,544.88 729.75,544.88 "/>
    <path class="fil5" d="M1361.34 491.29l-113.84 0 -16.35 53.59 -102.56 0 122.39 -325.17 109.98 0 121.87 325.17 -105.21 0 -16.27 -53.59zm-21.27 -70.39l-35.5 -116.87 -35.65 116.87 71.15 0z"/>
    <path class="fil5" d="M1894.83 411.81l88.11 26.57c-5.91,24.67 -15.21,45.34 -28.01,61.84 -12.72,16.58 -28.46,29.06 -47.38,37.47 -18.85,8.4 -42.84,12.64 -71.99,12.64 -35.42,0 -64.26,-5.15 -86.74,-15.37 -22.4,-10.29 -41.71,-28.39 -57.98,-54.19 -16.27,-25.81 -24.45,-58.97 -24.45,-99.23 0,-53.74 14.3,-95.07 42.92,-123.98 28.69,-28.84 69.18,-43.3 121.56,-43.3 40.95,0 73.19,8.25 96.66,24.83 23.39,16.58 40.87,42.01 52.23,76.37l-88.56 19.6c-3.1,-9.84 -6.36,-17.03 -9.76,-21.57 -5.68,-7.64 -12.57,-13.55 -20.66,-17.64 -8.17,-4.16 -17.26,-6.21 -27.32,-6.21 -22.86,0 -40.34,9.16 -52.46,27.4 -9.16,13.55 -13.77,34.89 -13.77,63.88 0,36.03 5.45,60.63 16.42,74.03 10.97,13.32 26.34,19.98 46.17,19.98 19.23,0 33.76,-5.37 43.6,-16.2 9.84,-10.75 16.95,-26.42 21.42,-46.93z"/>
   </g>
  </g>
 </g>
</svg>
