<?xml version="1.0" encoding="UTF-8"?>
<!DOCTYPE svg PUBLIC "-//W3C//DTD SVG 1.1//EN" "http://www.w3.org/Graphics/SVG/1.1/DTD/svg11.dtd">
<!-- Creator: CorelDRAW 2020 (64 Bit) -->
<svg xmlns="http://www.w3.org/2000/svg" xml:space="preserve" width="152.174mm" height="62.1849mm" version="1.1" style="shape-rendering:geometricPrecision; text-rendering:geometricPrecision; image-rendering:optimizeQuality; fill-rule:evenodd; clip-rule:evenodd"
viewBox="0 0 17113.65 6993.38"
 xmlns:xlink="http://www.w3.org/1999/xlink"
 xmlns:xodm="http://www.corel.com/coreldraw/odm/2003">
 <defs>
  <style type="text/css">
   <![CDATA[
    .fil0 {fill:#005AAA}
    .fil2 {fill:#00A650}
    .fil1 {fill:#ED1C24}
    .fil3 {fill:#373435;fill-rule:nonzero}
   ]]>
  </style>
 </defs>
 <g id="Camada_x0020_1">
  <metadata id="CorelCorpID_0Corel-Layer"/>
  <g id="_2853301880112">
   <path class="fil0" d="M5779.69 5447.59c310.77,0 562.05,0 872.82,0 585.09,0 847.32,-333.18 902.58,-963.41 26.46,-299.21 52.94,-598.42 79.4,-897.63 87.63,0 175.27,0 262.9,0 755.47,0 818.29,-422.82 1239.86,-1284.49 -449.64,0 -899.29,0 -1348.94,0 10.73,-192.57 21.47,-385.15 32.2,-577.71 11.17,-193.84 70.67,-243.01 185.97,-243.01 306.65,0 613.3,0 919.94,0 636.44,0 748.11,-408.49 1165.42,-1310.44 -971.34,0 -1942.66,0 -2914,0 -474.37,0 -842.1,-18.58 -939.57,764.38 -152.86,1504.1 -305.73,3008.21 -458.58,4512.31z"/>
   <path class="fil0" d="M13760.13 5445.07c525.13,-31.71 764.29,-362.34 816.77,-960.89 26.46,-299.21 52.94,-598.42 79.4,-897.63 87.63,0 175.27,0 262.9,0 755.47,0 818.29,-422.82 1239.86,-1284.49 -449.64,0 -899.29,0 -1348.94,0 10.73,-192.57 21.47,-385.15 32.2,-577.71 11.17,-193.84 70.67,-243.01 185.97,-243.01 306.65,0 613.3,0 919.94,0 636.44,0 748.11,-408.49 1165.42,-1310.44 -971.34,0 -1942.66,0 -2914,0 -474.37,0 -842.1,-18.58 -939.57,764.38 -84.65,832.91 -169.31,1665.83 -253.95,2498.75 110.25,424.23 299.34,1742.39 754,2011.04z"/>
   <path class="fil1" d="M7979.25 5447.59c400.05,0 800.09,0 1200.14,0 550.47,0 699.25,-578.12 818.28,-934.14 635.62,0 757.86,-40.25 1058.8,-1031.54 -228.95,0 -457.91,0 -686.86,0 422.36,-966.23 904.25,-2944.13 1534.9,-3225.98 -768.51,-574.13 -1459.33,-100.78 -1854.76,614.96 -690.16,1525.57 -1380.34,3051.13 -2070.5,4576.69zm4006.99 -5104.87c270.75,98.28 489.33,1396.23 730.91,2408.47 333.83,1318.59 493.14,2540.17 944.08,2696.4 -478.99,0 -957.98,0 -1436.97,0 -365.23,0 -545.31,-215.1 -607.5,-558.48 -185.16,-999.3 -370.31,-1998.58 -555.47,-2997.87 225.26,-491.39 604.24,-1493.55 924.96,-1548.51z"/>
   <path class="fil2" d="M1073.59 170.91l446.64 0c276.54,707.43 958.67,1200.44 1783.58,1200.44 824.9,0 1562.12,-493.02 1917.7,-1200.44l129.89 0c247.41,0 430.17,202.45 406.16,449.84l-201.88 2079.41 -1777.92 0c-43.74,-380.64 -373.09,-672.84 -784.37,-672.84 -411.28,0 -762.71,292.21 -835.18,672.84l-1780.02 0 201.88 -2079.41c24.02,-247.41 246.11,-449.84 493.52,-449.84zm803.34 0l2987.87 0c-320.3,525.36 -900.08,881.09 -1543.16,881.09 -643.07,0 -1183.11,-355.73 -1444.71,-881.09zm1633.6 2529.25l-377.5 0c-37.73,-65.2 -108.23,-109.1 -188.99,-109.1 -80.76,0 -151.26,43.89 -188.99,109.1l-329.6 0c63.95,-239.96 292.77,-419.51 558.38,-419.51 265.6,0 480.86,179.56 526.7,419.51zm2023.96 218.2l-201.88 2079.39c-24.01,247.39 -246.12,449.84 -493.51,449.84l-449.03 0c-296.81,-660.79 -956.41,-1113.96 -1747.26,-1113.96 -790.85,0 -1501.09,453.17 -1871.72,1113.96l-209.78 0c-247.39,0 -430.2,-202.43 -406.18,-449.84l201.88 -2079.39 1791.07 0c37.56,387.05 369.77,686 785.79,686 416.02,0 770.81,-298.96 837.59,-686l1763.05 0zm-1511.25 2529.24l-2885.35 0c329.21,-477.53 879.94,-794.6 1487.06,-794.6 607.13,0 1122.43,317.07 1398.28,794.6zm-1608.86 -2529.24l340.67 0c37.73,65.2 108.23,109.1 188.99,109.1 80.76,0 151.26,-43.89 188.99,-109.1l372.08 0c-58.96,246.54 -291.25,432.67 -561.7,432.67 -270.44,0 -488.69,-186.13 -529.03,-432.67z"/>
   <path class="fil3" d="M455.61 6327.9l-256.83 0 -42.12 408.66 -156.67 0 100.72 -977.21 462.44 0 -15.31 148.44 -305.76 0 -28.08 272.37 256.84 0 -15.24 147.74zm15979.14 286.3l301.78 0 -15.24 122.35 -458.46 0 100.73 -809.17 156.68 0 -85.49 686.82zm-245.31 -168.82c-11.85,95.22 -47.83,169.39 -108.17,222.88 -60.31,53.31 -135.13,79.86 -224.49,80.05 -89.32,-0.19 -157.32,-26.74 -203.99,-80.05 -46.64,-53.49 -64.15,-127.65 -52.29,-222.88l28.1 -225.71c11.8,-94.84 47.6,-169.2 107.42,-223.07 60.01,-53.87 134.49,-80.8 223.83,-80.8 89.34,0 157.49,26.93 204.66,80.8 47.15,53.87 64.83,128.23 53.04,223.07l-28.1 225.71zm-127.82 -227.23c7.34,-59 0.93,-103.37 -19.22,-133.54 -20.18,-29.97 -52.82,-44.95 -97.96,-44.95 -45.52,0 -81.73,14.98 -108.38,44.76 -26.66,29.78 -43.78,74.36 -51.17,133.73l-28.28 227.23c-7.46,59.94 -1.52,105.08 17.89,135.05 19.42,29.97 52.07,44.95 97.59,44.95 45.52,0 81.92,-14.98 109.15,-44.95 27.26,-29.97 44.64,-75.11 52.09,-135.05l28.28 -227.23zm-1117.05 518.39l100.73 -809.17 231.79 0c84.4,0 147.91,18.59 190.36,55.39 42.47,36.8 59.12,91.99 50,165.21 -4.77,38.32 -17.53,72.27 -38.5,102.05 -20.97,29.78 -49.16,51.98 -84.71,66.39 43.98,9.3 74.87,30.93 92.81,65.07 17.75,34.13 23.79,73.97 18.12,119.49 -9.64,77.4 -39.5,136 -89.41,175.83 -49.91,39.83 -116.7,59.75 -199.97,59.75l-271.24 0zm201.31 -358.49l-29.39 236.15 114.56 0c34.14,0 60.93,-9.48 80.74,-28.45 19.84,-19.15 32.07,-47.41 36.73,-84.78 4.79,-38.51 0.55,-68.47 -12.75,-89.53 -13.32,-21.05 -36.77,-32.24 -70.4,-33.38l-5.5 0 -113.99 0zm13.48 -108.31l82.31 0c33.87,-0.75 60.66,-10.23 80.72,-28.26 20.1,-18.21 32.29,-44.57 36.57,-78.9 4.79,-38.51 -0.96,-66.96 -17.29,-85.17 -16.15,-18.02 -42.92,-27.13 -79.89,-27.13l-75.11 0 -27.32 219.46zm-318.62 109.45l-247.34 0 -29.25 235.01 296.28 0 -15.24 122.35 -452.96 0 100.73 -809.17 451.81 0 -15.31 122.91 -295.13 0 -25.73 206.75 247.34 0 -15.2 122.16zm-439.7 -328.9l-190.06 0 -85.43 686.26 -157.24 0 85.43 -686.26 -185.13 0 15.31 -122.91 532.44 0 -15.31 122.91zm-589.96 -122.91l-65.8 528.63c-11.44,91.8 -46.73,163.51 -106.04,214.9 -59.15,51.6 -131.21,77.2 -216.02,77.4 -84.38,-0.19 -149.83,-25.99 -195.95,-77.59 -46.1,-51.78 -63.55,-123.29 -52.17,-214.71l65.8 -528.63 156.11 0 -65.8 528.63c-6.87,55.2 -0.54,97.3 18.78,126.33 19.34,29.01 48.82,43.62 88.46,43.62 40.41,0 73.7,-14.42 100.06,-43.43 26.54,-28.84 43.2,-71.13 50.09,-126.52l65.8 -528.63 156.68 0zm-762.13 394.31l-256.83 0 -42.12 414.87 -156.67 0 100.72 -992.06 462.43 0 -15.29 150.69 -305.76 0 -28.08 276.51 256.83 0 -15.23 150zm-1911.59 414.86l100.73 -809.17 249.62 0c84.4,0 150.26,31.68 197.59,94.84 47.33,63.16 64.96,144.15 52.63,243.16l-16.68 133.92c-12.35,99.2 -50.12,180.2 -113.14,242.98 -63.01,62.78 -136.74,94.26 -221.14,94.26l-249.62 0zm242.11 -686.26l-70.19 563.91 92.94 0c40.22,0 75.32,-19.92 105.14,-59.93 29.84,-40.02 48.58,-91.62 56.47,-154.97l16.81 -135.05c7.79,-62.6 1.87,-113.99 -18.01,-154.02 -19.86,-40.02 -50.01,-59.94 -90.23,-59.94l-92.94 0zm858.33 328.9l-247.34 0 -29.25 235.01 296.28 0 -15.24 122.35 -452.96 0 100.73 -809.17 451.81 0 -15.31 122.91 -295.13 0 -25.73 206.75 247.34 0 -15.2 122.16zm-1605.37 182.29l-202.38 0 -67.32 175.07 -163.32 0 330.24 -809.17 162.18 0 128.78 809.17 -163.89 0 -24.29 -175.07zm-154.79 -123.29l137.9 0 -35.37 -256.83 -3.23 0 -99.3 256.83zm-360.55 298.36l-156.86 0 -192.36 -516.31 -3.48 0.57 -64.2 515.74 -156.68 0 100.73 -809.17 156.68 0 192.48 516.87 3.3 -0.56 64.27 -516.31 156.86 0 -100.73 809.17zm-826.83 -175.07l-202.38 0 -67.32 175.07 -163.32 0 330.24 -809.17 162.18 0 128.78 809.17 -163.89 0 -24.29 -175.07zm-154.79 -123.29l137.9 0 -35.37 -256.83 -3.23 0 -99.3 256.83zm-287.7 7.2c-11.85,95.22 -47.83,169.39 -108.17,222.88 -60.31,53.31 -135.13,79.86 -224.49,80.05 -89.32,-0.19 -157.32,-26.74 -203.99,-80.05 -46.64,-53.49 -64.15,-127.65 -52.29,-222.88l28.1 -225.71c11.8,-94.84 47.6,-169.2 107.42,-223.07 60.01,-53.87 134.49,-80.8 223.83,-80.8 89.34,0 157.49,26.93 204.66,80.8 47.15,53.87 64.83,128.23 53.04,223.07l-28.1 225.71zm-127.82 -227.23c7.34,-59 0.93,-103.37 -19.22,-133.54 -20.18,-29.97 -52.82,-44.95 -97.96,-44.95 -45.52,0 -81.73,14.98 -108.38,44.76 -26.66,29.78 -43.78,74.36 -51.17,133.73l-28.28 227.23c-7.46,59.94 -1.52,105.08 17.89,135.05 19.42,29.97 52.07,44.95 97.59,44.95 45.52,0 81.92,-14.98 109.15,-44.95 27.26,-29.97 44.64,-75.11 52.09,-135.05l28.28 -227.23zm-581.76 411.6c-27.16,32.25 -63.82,60.13 -110.16,83.46 -46.54,23.34 -104.12,34.91 -173,35.1 -87.42,-0.19 -154.43,-25.61 -200.83,-76.44 -46.57,-51.02 -63.95,-123.29 -52.28,-216.99l30.58 -245.64c11.62,-93.32 46.22,-165.59 104,-216.8 57.57,-51.02 128.66,-76.63 213.25,-76.63 88.2,0 151.99,20.86 191.59,62.4 39.75,41.73 53.99,101.1 42.89,178.1l-1.56 3.42 -147.19 0c5.26,-42.3 -0.21,-73.02 -16.42,-92.18 -15.99,-19.34 -42.85,-29.01 -80.22,-29.01 -40.4,0 -73.66,14.22 -99.73,42.3 -26.06,28.07 -42.74,70.56 -49.79,127.27l-30.72 246.77c-7.18,57.66 -0.97,100.72 18.5,128.79 19.42,28.26 50.48,42.3 93.16,42.3 30.35,0 54.7,-3.6 72.86,-10.81 18.34,-7.21 33.02,-16.88 43.58,-28.64l20.33 -163.32 -123.29 0 13.51 -108.49 280.16 0 -39.23 315.05zm-802.38 -68.28l-202.38 0 -67.32 175.07 -163.32 0 330.24 -809.17 162.18 0 128.78 809.17 -163.89 0 -24.29 -175.07zm-154.79 -123.29l137.9 0 -35.37 -256.83 -3.23 0 -99.3 256.83zm-617.12 176.01l301.78 0 -15.24 122.35 -458.46 0 100.73 -809.17 156.68 0 -85.49 686.82zm-425.16 -107.31l-202.38 0 -67.32 229.67 -163.3 0 330.23 -1061.51 162.18 0 128.78 1061.51 -163.89 0 -24.29 -229.67zm-154.79 -161.74l137.89 0 -35.37 -336.91 -3.22 0 -99.3 336.91zm-551.16 100.24c-11.85,95.22 -47.83,169.39 -108.17,222.88 -60.31,53.31 -135.13,79.86 -224.49,80.05 -89.32,-0.19 -157.32,-26.74 -203.99,-80.05 -46.64,-53.49 -64.15,-127.65 -52.29,-222.88l28.1 -225.71c11.8,-94.84 47.6,-169.2 107.42,-223.07 60.01,-53.87 134.49,-80.8 223.83,-80.8 89.34,0 157.49,26.93 204.66,80.8 47.15,53.87 64.83,128.23 53.04,223.07l-28.1 225.71zm-127.82 -227.23c7.34,-59 0.93,-103.37 -19.22,-133.54 -20.18,-29.97 -52.82,-44.95 -97.96,-44.95 -45.52,0 -81.73,14.98 -108.38,44.76 -26.66,29.78 -43.78,74.36 -51.17,133.73l-28.28 227.23c-7.46,59.94 -1.52,105.08 17.89,135.05 19.42,29.97 52.07,44.95 97.59,44.95 45.52,0 81.92,-14.98 109.15,-44.95 27.26,-29.97 44.64,-75.11 52.09,-135.05l28.28 -227.23zm-729.56 343.32l-202.38 0 -67.32 175.07 -163.32 0 330.24 -809.17 162.18 0 128.78 809.17 -163.89 0 -24.29 -175.07zm-154.79 -123.29l137.9 0 -35.37 -256.83 -3.23 0 -99.3 256.83zm340.57 -730.65c-4.34,34.9 -17.7,64.5 -39.93,89.15 -22.41,24.66 -48.22,36.99 -77.44,36.99 -22.57,0 -47.35,-8.15 -74.12,-24.66 -26.97,-16.5 -48.5,-24.84 -64.81,-24.84 -10.82,0 -20.48,6.07 -29.21,18.21 -8.69,11.95 -14.15,26.74 -16.32,44.2l-79.4 -23.34c4.24,-34.14 17.6,-63.73 40.08,-88.96 22.3,-25.23 48.13,-37.74 77.35,-37.74 17.44,0 40.9,8.15 70.33,24.65 29.43,16.51 52.32,24.66 68.62,24.66 10.44,0 20.09,-5.88 29.18,-18.02 9.08,-11.95 14.73,-26.93 16.95,-44.77l78.71 24.47zm-634.76 777.87l0.73 3.23c-9.27,86.68 -39.55,151.74 -90.63,194.79 -51.09,43.25 -119.2,64.69 -204.02,64.88 -87.03,-0.19 -152.89,-25.8 -197.72,-77.01 -44.62,-51.41 -61.17,-124.24 -49.42,-218.7l29.89 -240.13c11.72,-94.08 45.46,-167.11 101.41,-218.89 55.95,-51.78 125.96,-77.77 209.99,-77.77 88.59,0 154,21.44 196.06,64.5 42.09,42.86 56.94,107.92 44.58,194.99l-1.56 3.42 -152.31 0c6.47,-51.98 1.87,-88.2 -13.93,-109.06 -15.63,-20.68 -45.05,-31.11 -88.11,-31.11 -39.26,0 -70.45,14.22 -93.69,42.49 -23.08,28.44 -38.34,71.89 -45.61,130.31l-30.04 241.26c-7.31,58.81 -2.11,102.43 15.4,130.88 17.72,28.26 47.62,42.49 90.29,42.49 38.89,0 68.24,-10.25 87.7,-30.92 19.61,-20.49 32.71,-57.1 39.25,-109.64l151.74 0zm-240.18 248.87l-9.59 32.8c19.25,3.8 34.38,13.28 45.97,28.45 11.37,15.18 15.24,37.56 11.55,67.15 -4.98,40.02 -23.93,71.89 -56.84,95.41 -32.89,23.52 -77.02,35.28 -132.23,35.28l7.52 -87.82c13.84,0 24.97,-3.98 33.51,-11.76 8.56,-7.77 13.83,-19.73 15.87,-36.04 1.98,-15.92 -1.36,-27.11 -10.27,-33.38 -8.88,-6.26 -24.87,-10.44 -47.99,-12.13l25.26 -77.96 117.23 0zm-568.4 -172.8l-202.38 0 -67.32 175.07 -163.32 0 330.24 -809.17 162.18 0 128.78 809.17 -163.89 0 -24.29 -175.07zm-154.79 -123.29l137.9 0 -35.37 -256.83 -3.23 0 -99.3 256.83zm-657.01 -26.18l-40.41 324.54 -156.68 0 100.66 -808.6 242.22 0c80.42,0 141.16,21.05 182.05,62.78 40.88,41.93 56.74,100.34 47.44,175.08 -5.22,41.91 -19.59,78.15 -42.76,108.87 -23.39,30.92 -54.48,55.2 -93.37,73.4 40.56,14.04 68.01,37.37 82.52,70 14.34,32.62 18.57,73.4 12.47,122.34l-7.32 58.81c-2.8,22.57 -3.1,46.28 -1.08,71.13 2.02,24.84 9.06,43.05 21.11,54.43l-1.47 11.76 -162.36 0c-11.4,-11.95 -17.34,-31.3 -17.43,-58.04 -0.25,-26.93 1.37,-53.68 4.68,-80.23l7.06 -56.71c5.12,-41.16 0.55,-73.03 -13.71,-95.6 -14.26,-22.57 -37.31,-33.95 -69.17,-33.95l-94.46 0zm15.2 -122.16l84.59 0c33.57,0 60.64,-10.25 80.6,-30.34 20.15,-20.3 32.61,-48.75 37.25,-85.93 4.7,-37.74 -0.3,-67.71 -14.99,-89.9 -14.65,-22.39 -38.71,-33.39 -72.1,-33.39l-85.54 0 -29.81 239.56zm-316.13 89.34l-247.34 0 -29.25 235.01 296.28 0 -15.24 122.35 -452.96 0 100.73 -809.17 451.81 0 -15.31 122.91 -295.13 0 -25.73 206.75 247.34 0 -15.2 122.16zm-1100.43 357.36l100.73 -809.17 249.62 0c84.4,0 150.26,31.68 197.59,94.84 47.33,63.16 64.96,144.15 52.63,243.16l-16.68 133.92c-12.35,99.2 -50.12,180.2 -113.14,242.98 -63.01,62.78 -136.74,94.26 -221.14,94.26l-249.62 0zm242.11 -686.26l-70.19 563.91 92.94 0c40.22,0 75.32,-19.92 105.14,-59.93 29.84,-40.02 48.58,-91.62 56.47,-154.97l16.81 -135.05c7.79,-62.6 1.87,-113.99 -18.01,-154.02 -19.86,-40.02 -50.01,-59.94 -90.23,-59.94l-92.94 0zm-345.94 328.9l-247.34 0 -29.25 235.01 296.28 0 -15.24 122.35 -452.96 0 100.73 -809.17 451.81 0 -15.31 122.91 -295.13 0 -25.73 206.75 247.34 0 -15.2 122.16z"/>
  </g>
 </g>
</svg>
