<?xml version="1.0" encoding="UTF-8"?>
<!DOCTYPE svg PUBLIC "-//W3C//DTD SVG 1.1//EN" "http://www.w3.org/Graphics/SVG/1.1/DTD/svg11.dtd">
<!-- Creator: CorelDRAW 2020 (64 Bit) -->
<svg xmlns="http://www.w3.org/2000/svg" xml:space="preserve" width="149.384mm" height="139.381mm" version="1.1" style="shape-rendering:geometricPrecision; text-rendering:geometricPrecision; image-rendering:optimizeQuality; fill-rule:evenodd; clip-rule:evenodd"
viewBox="0 0 4983.91 4650.2"
 xmlns:xlink="http://www.w3.org/1999/xlink"
 xmlns:xodm="http://www.corel.com/coreldraw/odm/2003">
 <defs>
  <style type="text/css">
   <![CDATA[
    .fil4 {fill:#163E72}
    .fil1 {fill:#A2261E}
    .fil3 {fill:#AC4439}
    .fil0 {fill:#BD2E22}
    .fil2 {fill:#D23424}
    .fil5 {fill:#163E72;fill-rule:nonzero}
   ]]>
  </style>
 </defs>
 <g id="Camada_x0020_1">
  <metadata id="CorelCorpID_0Corel-Layer"/>
  <g id="_2853775794928">
   <g>
    <path class="fil0" d="M2665.47 424.86c-120.22,11.2 -97.43,2.57 -156.05,83.03 -60.08,82.46 -119.93,213.87 -156.76,314.46 -31.92,87.16 -2.8,107.49 36.17,171l184.58 286.1c56.81,57.06 337.16,42.98 433.41,30.37 123.49,-16.18 122.08,-43.37 231.61,-238.06 82.22,-146.14 123.68,-171.83 44.28,-336.19 -55.22,-114.3 -111.23,-207.89 -186.77,-284.29 -70.46,-71.26 -316.78,-37 -430.47,-26.41l0 -0z"/>
    <path class="fil1" d="M3117.08 1323.23c-89.52,5.49 -158.03,27.41 -260.24,27.34 -98.16,-0.07 -181.08,-16.39 -270.76,-19.91 -56.27,67.84 -103.89,149.99 -153.99,218.06 -116.17,157.83 -132.07,147.56 -95.19,249.77 33.44,92.68 81.01,180.41 130.63,246.16 29.69,39.34 44.67,70.23 107.5,75.3l377.93 -4.42c93.72,-8.13 86.04,-0.43 129.95,-57.45 59.41,-77.15 108.22,-131.55 160.86,-227.56 72.74,-132.67 88.75,-135.26 14.77,-258.8 -40.38,-67.43 -117.04,-181.58 -141.45,-248.5l0 0.01z"/>
    <path class="fil0" d="M1879.9 998.75c58.65,-15.84 125.09,-55.34 194.82,-77.82 78.26,-25.24 145.89,-35.35 229.92,-41.75 25.54,-91.46 58.99,-171.16 99.31,-253.21 43.35,-88.22 113.31,-157.49 139.98,-218.06 -30.15,-58.91 -64.71,-105.09 -98.93,-153.06 -57.16,-80.15 -49.84,-92.8 -186.31,-67.31 -126.96,23.71 -282.31,78.68 -346.14,158.9 -58.8,73.9 -149.29,215.76 -185.06,321.88 -33.93,100.67 103.16,286.37 152.41,330.44l-0 0.01z"/>
    <path class="fil1" d="M2506.71 2138.06c-23.58,-40.37 -62.47,-61.25 -125.58,-171.48 -46.14,-80.59 -54.43,-131.53 -90.17,-215.71 -20.87,-49.14 -148.71,-79.15 -195.76,-99.04 -80.64,-34.08 -135.9,-68.45 -203.52,-105.93 -46.58,24.03 -84.83,77.25 -118.48,120.65 -99.18,127.93 -53.57,203.84 39.22,315.19 104.57,125.49 258.59,233.11 416.79,302.24 90.39,39.5 89.69,34.56 156.26,-16.97 28.46,-22.03 107.47,-101.1 121.25,-128.95l0 -0z"/>
    <path class="fil0" d="M3099.15 407.91c66.42,99.12 127.52,111.21 227.42,353.5 57.06,138.39 23.05,76.17 170.97,124.41 84.31,27.49 138.7,63.01 208.56,89.4 68.08,-279.63 70.6,-354.63 -83.46,-544.51 -97.9,-120.67 -221.3,-263.58 -453.2,-263.27 -14.08,136.05 -39.59,136.44 -70.28,240.47z"/>
    <path class="fil0" d="M1691.58 1721.88l153.51 -184.2c30.95,-38.46 11.53,-60.33 5.2,-124.97 -5.18,-52.95 -5.39,-114.17 -4.8,-169.16 0.59,-54.73 3.38,-104.42 8.61,-156.57 8.01,-79.99 -11.35,-77.16 -46.13,-124.46 -48.6,-66.08 -89.72,-138.33 -116.23,-224.58 -98.91,42.63 -108.38,72.69 -137.07,193.38 -46.46,195.51 -41.6,398.14 11.3,592.11 36.64,134.36 35.76,147.43 125.61,198.45z"/>
    <path class="fil1" d="M3069.78 2113.54l65.68 164.58c263.05,-79.9 610.3,-438.81 672.35,-726.95 -234.5,-37.9 -53.36,29.5 -425.29,123.88 -87.44,22.19 -28.16,48.25 -161.9,250.41 -45.41,68.63 -102.2,139.76 -150.84,188.08z"/>
    <path class="fil0" d="M3702.92 1504.06l122.31 17.04c54.28,-306.68 89.91,-535.09 -44.51,-814.39 -8.36,72.24 -7.62,130.98 -25.13,200.79 -27.24,108.61 -28.61,64.06 -17.39,182.99 14.12,149.61 -15.18,274.4 -35.29,413.57z"/>
    <path class="fil2" d="M2021.66 230.38c52.97,-15.22 95.94,-38.68 155.74,-55.36 75.79,-21.14 124.67,-15.64 194.43,-30.22 30.2,-6.32 95.47,-60.3 138.72,-83.04 33.83,-17.79 115.41,-54.17 152.64,-60 -196.1,-19.67 -547.47,130.86 -641.53,228.63l-0 -0z"/>
    <path class="fil3" d="M3302.06 157.43c-59.81,-45.45 -210.01,-115.2 -304.09,-124.18 42.31,28.52 86.63,52.17 128.95,81.33 38.98,26.85 121.65,33.31 175.14,42.85l0 0z"/>
   </g>
   <path class="fil4" d="M3014.53 4165.57l519.05 0 241.87 -791.15 683.23 0 116.52 -370.75 -695.59 0 45.89 -146.13c-187.25,101.72 -390.11,199.69 -605.78,289.36l-305.19 1018.67 0 0zm-2881.25 0l519.05 0 175.21 -573.1c-166.93,-11.39 -335.07,-31.83 -503.79,-62.63l-190.47 635.73zm705.93 -611.29l54.99 -179.86 683.23 0 116.52 -370.75 -695.59 0 134.17 -427.24 736.2 0 118.3 -373.17 -1265.84 0 -395.26 1319.28c172.41,17.7 343.39,28.34 513.28,31.73l0 0zm383.4 611.29l542 0 217.15 -383.33 442.27 0 -53.83 383.33 572.9 0 43.5 -890.89c-425.67,149.79 -890.95,262.36 -1377.33,307.38l-386.67 583.5 0 0zm1768.05 -973.87l48.26 -988.44 -515.94 0 -868.5 1310.6c167.14,-20.16 330.96,-47.06 495.68,-81.65l424.95 -687.65 -86.34 606.17c167.19,-45.33 334.37,-98.33 501.89,-159.04l-0 0zm966 -433.35l57.13 -181.91 267.16 0c194.05,-114.07 389.64,-238.43 587.25,-373.17l-1265.76 0 -253.8 847.13c201.65,-86.06 404.13,-183.32 608.02,-292.04l0 -0zm435.65 -181.91l357.67 0 113.64 -358.48c-129.05,113.87 -287.59,235.83 -471.31,358.48l0 0z"/>
   <rect class="fil4" x="-0" y="4245.17" width="4983.91" height="23.83"/>
   <path class="fil5" d="M227.44 4489.13l-90.98 0 0 95.43 -29.18 0 0 -215.74 135.28 0 0 22.96 -106.1 0 0 74.39 90.98 0 0 22.96zm106.51 98.56c-23.01,-0.05 -40.96,-7.38 -53.81,-22.1 -12.89,-14.72 -19.37,-34.09 -19.37,-58.06l0 -6.52c0,-23.01 6.68,-42.08 19.92,-57.15 13.3,-15.07 29.54,-22.61 48.7,-22.61 21.39,0 37.47,6.68 48.19,20.03 10.72,13.35 16.08,31.05 16.08,53.2l0 15.37 -102.51 0 -0.45 0.76c0,16.08 3.54,29.18 10.67,39.19 7.13,10.02 17.95,15.02 32.57,15.02 9.91,0 18.56,-1.36 26.04,-4.2 7.43,-2.83 13.86,-6.73 19.17,-11.63l11.43 18.96c-5.77,5.51 -13.3,10.22 -22.71,14.01 -9.36,3.79 -20.69,5.67 -33.93,5.72zm-4.55 -143.42c-10.22,0 -18.61,3.89 -25.29,11.73 -6.67,7.89 -10.72,17.9 -12.24,30.19l0.3 0.71 72.32 0 0 -2.38c0,-11.63 -2.88,-21.24 -8.6,-28.88 -5.71,-7.59 -14.56,-11.38 -26.5,-11.38zm90.37 63.12c0,-25.79 5.51,-46.58 16.54,-62.41 11.03,-15.78 26.45,-23.72 46.27,-23.72 9.41,0 17.7,1.77 24.98,5.21 7.28,3.44 13.45,8.49 18.61,15.12l0 -88.15 29.18 0 0 231.12 -22.4 0 -4.4 -20.28c-5.26,7.69 -11.73,13.5 -19.42,17.45 -7.74,3.94 -16.64,5.92 -26.85,5.97 -19.52,-0.05 -34.84,-7.13 -45.92,-21.29 -11.02,-14.16 -16.59,-32.82 -16.59,-55.93l0 -3.08zm29.18 3.08c0,16.18 3.34,29.18 9.96,38.89 6.57,9.76 16.89,14.62 30.8,14.62 8.7,0 15.98,-1.98 21.95,-5.92 5.92,-3.99 10.72,-9.51 14.51,-16.64l0 -74.8c-3.79,-6.63 -8.65,-11.88 -14.62,-15.78 -5.97,-3.89 -13.15,-5.87 -21.54,-5.87 -14.06,0 -24.38,5.77 -31.05,17.35 -6.68,11.58 -10.01,26.55 -10.01,45.06l0 3.08zm216.3 77.23c-23.01,-0.05 -40.96,-7.38 -53.81,-22.1 -12.89,-14.72 -19.37,-34.09 -19.37,-58.06l0 -6.52c0,-23.01 6.68,-42.08 19.92,-57.15 13.3,-15.07 29.54,-22.61 48.7,-22.61 21.39,0 37.47,6.68 48.19,20.03 10.72,13.35 16.08,31.05 16.08,53.2l0 15.37 -102.51 0 -0.45 0.76c0,16.08 3.54,29.18 10.67,39.19 7.13,10.02 17.95,15.02 32.57,15.02 9.91,0 18.56,-1.36 26.04,-4.2 7.43,-2.83 13.86,-6.73 19.17,-11.63l11.43 18.96c-5.77,5.51 -13.3,10.22 -22.71,14.01 -9.36,3.79 -20.69,5.67 -33.93,5.72zm-4.55 -143.42c-10.22,0 -18.61,3.89 -25.29,11.73 -6.67,7.89 -10.72,17.9 -12.24,30.19l0.3 0.71 72.32 0 0 -2.38c0,-11.63 -2.88,-21.24 -8.6,-28.88 -5.71,-7.59 -14.56,-11.38 -26.5,-11.38zm172.91 5.77l-14.97 -0.91c-7.69,0 -14.21,1.82 -19.47,5.51 -5.31,3.64 -9.36,8.75 -12.24,15.37l0 114.55 -29.18 0 0 -160.31 26.1 0 2.78 23.41c4.55,-8.29 10.16,-14.77 16.84,-19.42 6.68,-4.65 14.31,-6.98 23.01,-6.98 2.18,0 4.25,0.2 6.22,0.56 1.97,0.35 3.64,0.71 4.9,1.11l-3.99 27.11zm128.91 134.52c-0.96,-4.85 -1.72,-9.1 -2.28,-12.79 -0.55,-3.74 -0.86,-7.43 -0.96,-11.23 -5.46,7.74 -12.54,14.16 -21.29,19.37 -8.7,5.16 -18.16,7.74 -28.22,7.79 -16.69,-0.05 -29.38,-4.3 -38.13,-12.84 -8.75,-8.55 -13.1,-20.33 -13.1,-35.35 0,-15.27 6.17,-27.26 18.56,-35.91 12.39,-8.65 29.23,-12.95 50.47,-12.95l31.71 0 0 -15.88c0,-9.36 -2.88,-16.79 -8.6,-22.3 -5.72,-5.46 -13.86,-8.19 -24.33,-8.19 -9.46,0 -17.14,2.33 -22.96,7.08 -5.82,4.75 -8.75,10.42 -8.75,17.05l-27.66 0.3 -0.3 -0.91c-0.71,-11.63 4.75,-22.3 16.33,-31.96 11.63,-9.71 26.6,-14.57 45.01,-14.57 18.15,0 32.77,4.65 43.85,13.86 11.07,9.25 16.59,22.55 16.59,39.95l0 77.17c0,5.77 0.3,11.28 0.86,16.59 0.61,5.36 1.72,10.57 3.29,15.73l-30.09 0zm-48.45 -21.34c10.57,0 20.13,-2.73 28.62,-8.14 8.5,-5.41 14.01,-11.68 16.59,-18.66l0 -26.09 -32.77 0c-11.73,0 -21.14,2.98 -28.22,8.9 -7.03,5.92 -10.57,12.89 -10.57,20.89 0,7.13 2.23,12.74 6.68,16.89 4.4,4.15 10.98,6.22 19.67,6.22zm180.49 1.62c8.95,0 16.84,-2.98 23.56,-8.95 6.68,-5.97 10.07,-13.3 10.07,-22l26.35 0 0.46 0.91c0.4,13.81 -5.51,26.1 -17.8,36.82 -12.24,10.72 -26.45,16.03 -42.63,16.08 -22.56,-0.05 -39.9,-7.69 -52.19,-23.01 -12.24,-15.27 -18.36,-34.34 -18.36,-57.15l0 -6.27c0,-22.6 6.17,-41.57 18.46,-56.94 12.29,-15.37 29.63,-23.06 52.09,-23.06 17.85,0 32.52,5.56 43.9,16.64 11.43,11.03 16.94,24.63 16.54,40.71l-0.3 0.91 -26.5 0c0,-9.81 -3.19,-18.1 -9.56,-24.98 -6.37,-6.88 -14.41,-10.27 -24.07,-10.27 -14.31,0 -24.78,5.51 -31.36,16.64 -6.57,11.13 -9.86,24.58 -9.86,40.36l0 6.27c0,16.08 3.24,29.64 9.71,40.71 6.47,11.08 16.99,16.59 31.51,16.59zm7.48 20.94l-1.77 7.69c6.43,1.11 11.78,3.69 16.03,7.74 4.25,4.05 6.37,10.01 6.37,17.9 0,9.51 -3.9,17.04 -11.73,22.66 -7.79,5.67 -18.97,8.44 -33.48,8.44l-1.01 -16.13c7.08,0 12.84,-1.21 17.2,-3.64 4.3,-2.43 6.47,-6.02 6.47,-10.87 0,-4.75 -1.77,-8.04 -5.31,-9.91 -3.54,-1.87 -9.61,-3.19 -18.21,-3.84l4.7 -20.02 20.74 0zm186.16 -1.21c-0.96,-4.85 -1.72,-9.1 -2.28,-12.79 -0.55,-3.74 -0.86,-7.43 -0.96,-11.23 -5.46,7.74 -12.54,14.16 -21.29,19.37 -8.7,5.16 -18.16,7.74 -28.22,7.79 -16.69,-0.05 -29.38,-4.3 -38.13,-12.84 -8.75,-8.55 -13.1,-20.33 -13.1,-35.35 0,-15.27 6.17,-27.26 18.56,-35.91 12.39,-8.65 29.23,-12.95 50.47,-12.95l31.71 0 0 -15.88c0,-9.36 -2.88,-16.79 -8.6,-22.3 -5.72,-5.46 -13.86,-8.19 -24.33,-8.19 -9.46,0 -17.14,2.33 -22.96,7.08 -5.82,4.75 -8.75,10.42 -8.75,17.05l-27.66 0.3 -0.3 -0.91c-0.71,-11.63 4.75,-22.3 16.33,-31.96 11.63,-9.71 26.6,-14.57 45.01,-14.57 18.15,0 32.77,4.65 43.85,13.86 11.07,9.25 16.59,22.55 16.59,39.95l0 77.17c0,5.77 0.3,11.28 0.86,16.59 0.61,5.36 1.72,10.57 3.29,15.73l-30.09 0zm-48.45 -21.34c10.57,0 20.13,-2.73 28.62,-8.14 8.5,-5.41 14.01,-11.68 16.59,-18.66l0 -26.09 -32.77 0c-11.73,0 -21.14,2.98 -28.22,8.9 -7.03,5.92 -10.57,12.89 -10.57,20.89 0,7.13 2.23,12.74 6.68,16.89 4.4,4.15 10.98,6.22 19.67,6.22zm62.51 -204.11c0,9.25 -2.93,17.15 -8.85,23.57 -5.87,6.42 -13.25,9.61 -22.15,9.61 -6.98,0 -14.31,-2.28 -21.9,-6.88 -7.64,-4.6 -13.96,-6.88 -18.96,-6.88 -4.25,0 -7.79,1.57 -10.67,4.8 -2.88,3.19 -4.3,7.08 -4.3,11.63l-15.98 -3.84c0,-9.2 2.88,-17.2 8.7,-23.92 5.87,-6.78 13.25,-10.17 22.25,-10.17 5.51,0 12.44,2.33 20.73,6.98 8.29,4.6 15.02,6.93 20.13,6.93 4.05,0 7.59,-1.62 10.52,-4.8 2.99,-3.19 4.45,-7.13 4.45,-11.78l16.03 4.75zm47.44 143.83c0,-23.72 6.42,-43.24 19.27,-58.62 12.84,-15.37 30.29,-23.06 52.29,-23.06 22.25,0 39.8,7.69 52.7,23.01 12.89,15.27 19.32,34.84 19.32,58.67l0 3.24c0,23.92 -6.42,43.49 -19.27,58.66 -12.84,15.22 -30.29,22.81 -52.44,22.86 -22.1,-0.05 -39.65,-7.64 -52.5,-22.91 -12.89,-15.27 -19.37,-34.79 -19.37,-58.61l0 -3.24zm29.18 3.24c0,16.99 3.59,31 10.77,42.07 7.13,11.08 17.8,16.59 31.91,16.59 13.96,0 24.48,-5.51 31.71,-16.59 7.23,-11.07 10.82,-25.08 10.82,-42.07l0 -3.24c0,-16.79 -3.64,-30.8 -10.87,-41.92 -7.28,-11.18 -17.9,-16.74 -31.96,-16.74 -13.91,0 -24.48,5.56 -31.61,16.74 -7.18,11.12 -10.77,25.13 -10.77,41.92l0 3.24zm340.91 22.81l-81.17 0 -19.27 55.58 -29.79 0 77.78 -215.74 25.03 0 76.16 215.74 -29.79 0 -18.97 -55.58zm-72.72 -24.43l64.43 0 -31.4 -92.6 -0.91 0 -32.11 92.6zm175.28 -80.31l2.07 21.04c5.21,-7.58 11.83,-13.5 19.93,-17.7 8.04,-4.2 17.4,-6.32 28.07,-6.32 10.67,0 19.82,2.48 27.46,7.44 7.69,4.95 13.4,12.34 17.3,22.2 5.11,-9.15 11.78,-16.38 20.08,-21.7 8.24,-5.26 17.9,-7.94 28.93,-7.94 16.33,0 29.18,5.62 38.69,16.84 9.46,11.23 14.21,28.07 14.21,50.57l0 95.89 -29.18 0 0 -96.14c0,-15.83 -2.73,-27 -8.14,-33.58 -5.41,-6.57 -13.55,-9.86 -24.33,-9.86 -9.96,0 -18,3.49 -24.22,10.37 -6.17,6.93 -9.76,15.68 -10.87,26.25l0 1.16 0 101.8 -29.33 0 0 -96.14c0,-15.02 -2.78,-26.04 -8.34,-32.97 -5.62,-6.98 -13.66,-10.47 -24.12,-10.47 -8.85,0 -16.18,1.82 -21.9,5.51 -5.72,3.64 -10.12,8.75 -13.2,15.37l0 118.69 -29.18 0 0 -160.31 26.1 0zm337.62 160.31c-0.96,-4.85 -1.72,-9.1 -2.28,-12.79 -0.55,-3.74 -0.86,-7.43 -0.96,-11.23 -5.46,7.74 -12.54,14.16 -21.29,19.37 -8.7,5.16 -18.16,7.74 -28.22,7.79 -16.69,-0.05 -29.38,-4.3 -38.13,-12.84 -8.75,-8.55 -13.1,-20.33 -13.1,-35.35 0,-15.27 6.17,-27.26 18.56,-35.91 12.39,-8.65 29.23,-12.95 50.47,-12.95l31.71 0 0 -15.88c0,-9.36 -2.88,-16.79 -8.6,-22.3 -5.72,-5.46 -13.86,-8.19 -24.33,-8.19 -9.46,0 -17.14,2.33 -22.96,7.08 -5.82,4.75 -8.75,10.42 -8.75,17.05l-27.66 0.3 -0.3 -0.91c-0.71,-11.63 4.75,-22.3 16.33,-31.96 11.63,-9.71 26.6,-14.57 45.01,-14.57 18.15,0 32.77,4.65 43.85,13.86 11.07,9.25 16.59,22.55 16.59,39.95l0 77.17c0,5.77 0.3,11.28 0.86,16.59 0.61,5.36 1.72,10.57 3.29,15.73l-30.09 0zm-48.45 -21.34c10.57,0 20.13,-2.73 28.62,-8.14 8.5,-5.41 14.01,-11.68 16.59,-18.66l0 -26.09 -32.77 0c-11.73,0 -21.14,2.98 -28.22,8.9 -7.03,5.92 -10.57,12.89 -10.57,20.89 0,7.13 2.23,12.74 6.68,16.89 4.4,4.15 10.98,6.22 19.67,6.22zm144.33 -1.46l92.6 0 0 22.81 -127.44 0 0 -20.43 86.68 -116.77 -85.62 0 0 -23.11 121.32 0 0 19.87 -87.54 117.63zm115.86 -58.82c0,-23.72 6.42,-43.24 19.27,-58.62 12.84,-15.37 30.29,-23.06 52.29,-23.06 22.25,0 39.8,7.69 52.7,23.01 12.89,15.27 19.32,34.84 19.32,58.67l0 3.24c0,23.92 -6.42,43.49 -19.27,58.66 -12.84,15.22 -30.29,22.81 -52.44,22.86 -22.1,-0.05 -39.65,-7.64 -52.5,-22.91 -12.89,-15.27 -19.37,-34.79 -19.37,-58.61l0 -3.24zm29.18 3.24c0,16.99 3.59,31 10.77,42.07 7.13,11.08 17.8,16.59 31.91,16.59 13.96,0 24.48,-5.51 31.71,-16.59 7.23,-11.07 10.82,-25.08 10.82,-42.07l0 -3.24c0,-16.79 -3.64,-30.8 -10.87,-41.92 -7.28,-11.18 -17.9,-16.74 -31.96,-16.74 -13.91,0 -24.48,5.56 -31.61,16.74 -7.18,11.12 -10.77,25.13 -10.77,41.92l0 3.24zm176.19 -81.93l2.07 23.87c5.31,-8.49 11.99,-15.12 20.08,-19.77 8.04,-4.7 17.2,-7.08 27.46,-7.08 17.3,0 30.65,5.11 40.16,15.22 9.46,10.12 14.21,25.74 14.21,46.88l0 101.19 -29.18 0 0 -100.59c0,-14.16 -2.78,-24.17 -8.34,-30.09 -5.62,-5.92 -14.11,-8.9 -25.59,-8.9 -9,0 -16.59,1.82 -22.86,5.41 -6.32,3.59 -11.28,8.7 -14.92,15.17l0 119 -29.18 0 0 -160.31 26.1 0zm212.71 163.45c-23.01,-0.05 -40.96,-7.38 -53.81,-22.1 -12.89,-14.72 -19.37,-34.09 -19.37,-58.06l0 -6.52c0,-23.01 6.68,-42.08 19.92,-57.15 13.3,-15.07 29.54,-22.61 48.7,-22.61 21.39,0 37.47,6.68 48.19,20.03 10.72,13.35 16.08,31.05 16.08,53.2l0 15.37 -102.51 0 -0.45 0.76c0,16.08 3.54,29.18 10.67,39.19 7.13,10.02 17.95,15.02 32.57,15.02 9.91,0 18.56,-1.36 26.04,-4.2 7.43,-2.83 13.86,-6.73 19.17,-11.63l11.43 18.96c-5.77,5.51 -13.3,10.22 -22.71,14.01 -9.36,3.79 -20.69,5.67 -33.93,5.72zm-4.55 -143.42c-10.22,0 -18.61,3.89 -25.29,11.73 -6.67,7.89 -10.72,17.9 -12.24,30.19l0.3 0.71 72.32 0 0 -2.38c0,-11.63 -2.88,-21.24 -8.6,-28.88 -5.71,-7.59 -14.56,-11.38 -26.5,-11.38zm123.14 -20.02l2.07 23.87c5.31,-8.49 11.99,-15.12 20.08,-19.77 8.04,-4.7 17.2,-7.08 27.46,-7.08 17.3,0 30.65,5.11 40.16,15.22 9.46,10.12 14.21,25.74 14.21,46.88l0 101.19 -29.18 0 0 -100.59c0,-14.16 -2.78,-24.17 -8.34,-30.09 -5.62,-5.92 -14.11,-8.9 -25.59,-8.9 -9,0 -16.59,1.82 -22.86,5.41 -6.32,3.59 -11.28,8.7 -14.92,15.17l0 119 -29.18 0 0 -160.31 26.1 0zm239.56 117.17c0,-6.42 -2.48,-11.63 -7.33,-15.68 -4.91,-4.05 -14.16,-7.64 -27.81,-10.67 -18.86,-4.05 -33.33,-9.71 -43.44,-17.05 -10.17,-7.33 -15.22,-17.09 -15.22,-29.33 0,-13.05 5.56,-24.22 16.69,-33.48 11.12,-9.3 25.49,-13.96 43.19,-13.96 18.15,0 32.87,4.96 44.15,14.82 11.28,9.91 16.64,21.39 16.13,34.54l-0.3 0.91 -27.81 0c0,-6.93 -3.03,-13.2 -9.15,-18.81 -6.07,-5.67 -13.76,-8.45 -23.01,-8.45 -10.27,0 -17.96,2.28 -23.06,6.93 -5.06,4.65 -7.64,10.17 -7.64,16.59 0,6.32 2.23,11.23 6.62,14.67 4.4,3.49 13.45,6.62 27.16,9.51 19.67,4.15 34.59,10.02 44.76,17.65 10.17,7.58 15.27,17.5 15.27,29.74 0,14.26 -5.77,25.84 -17.25,34.84 -11.53,9 -26.55,13.45 -45.16,13.5 -20.43,-0.05 -36.51,-5.21 -48.3,-15.58 -11.73,-10.37 -17.3,-22.45 -16.74,-36.31l0.3 -0.86 27.87 0c0.5,10.37 4.35,17.9 11.58,22.71 7.18,4.8 15.63,7.18 25.29,7.18 10.42,0 18.51,-2.17 24.38,-6.57 5.92,-4.4 8.85,-10.02 8.85,-16.84zm131.84 46.27c-23.01,-0.05 -40.96,-7.38 -53.81,-22.1 -12.89,-14.72 -19.37,-34.09 -19.37,-58.06l0 -6.52c0,-23.01 6.68,-42.08 19.92,-57.15 13.3,-15.07 29.54,-22.61 48.7,-22.61 21.39,0 37.47,6.68 48.19,20.03 10.72,13.35 16.08,31.05 16.08,53.2l0 15.37 -102.51 0 -0.45 0.76c0,16.08 3.54,29.18 10.67,39.19 7.13,10.02 17.95,15.02 32.57,15.02 9.91,0 18.56,-1.36 26.04,-4.2 7.43,-2.83 13.86,-6.73 19.17,-11.63l11.43 18.96c-5.77,5.51 -13.3,10.22 -22.71,14.01 -9.36,3.79 -20.69,5.67 -33.93,5.72zm-4.55 -143.42c-10.22,0 -18.61,3.89 -25.29,11.73 -6.67,7.89 -10.72,17.9 -12.24,30.19l0.3 0.71 72.32 0 0 -2.38c0,-11.63 -2.88,-21.24 -8.6,-28.88 -5.71,-7.59 -14.56,-11.38 -26.5,-11.38zm165.77 63.12c0,-25.79 5.51,-46.58 16.54,-62.41 11.03,-15.78 26.45,-23.72 46.27,-23.72 9.41,0 17.7,1.77 24.98,5.21 7.28,3.44 13.45,8.49 18.61,15.12l0 -88.15 29.18 0 0 231.12 -22.4 0 -4.4 -20.28c-5.26,7.69 -11.73,13.5 -19.42,17.45 -7.74,3.94 -16.64,5.92 -26.85,5.97 -19.52,-0.05 -34.84,-7.13 -45.92,-21.29 -11.02,-14.16 -16.59,-32.82 -16.59,-55.93l0 -3.08zm29.18 3.08c0,16.18 3.34,29.18 9.96,38.89 6.57,9.76 16.89,14.62 30.8,14.62 8.7,0 15.98,-1.98 21.95,-5.92 5.92,-3.99 10.72,-9.51 14.51,-16.64l0 -74.8c-3.79,-6.63 -8.65,-11.88 -14.62,-15.78 -5.97,-3.89 -13.15,-5.87 -21.54,-5.87 -14.06,0 -24.38,5.77 -31.05,17.35 -6.68,11.58 -10.01,26.55 -10.01,45.06l0 3.08zm216.3 77.23c-23.01,-0.05 -40.96,-7.38 -53.81,-22.1 -12.89,-14.72 -19.37,-34.09 -19.37,-58.06l0 -6.52c0,-23.01 6.68,-42.08 19.92,-57.15 13.3,-15.07 29.54,-22.61 48.7,-22.61 21.39,0 37.47,6.68 48.19,20.03 10.72,13.35 16.08,31.05 16.08,53.2l0 15.37 -102.51 0 -0.45 0.76c0,16.08 3.54,29.18 10.67,39.19 7.13,10.02 17.95,15.02 32.57,15.02 9.91,0 18.56,-1.36 26.04,-4.2 7.43,-2.83 13.86,-6.73 19.17,-11.63l11.43 18.96c-5.77,5.51 -13.3,10.22 -22.71,14.01 -9.36,3.79 -20.69,5.67 -33.93,5.72zm-4.55 -143.42c-10.22,0 -18.61,3.89 -25.29,11.73 -6.67,7.89 -10.72,17.9 -12.24,30.19l0.3 0.71 72.32 0 0 -2.38c0,-11.63 -2.88,-21.24 -8.6,-28.88 -5.71,-7.59 -14.56,-11.38 -26.5,-11.38zm296.61 44.86l-90.98 0 0 95.43 -29.18 0 0 -215.74 135.28 0 0 22.96 -106.1 0 0 74.39 90.98 0 0 22.96zm141.86 71.71c-5.06,8.6 -11.53,15.22 -19.42,19.87 -7.89,4.65 -17.04,6.93 -27.41,6.98 -17.5,-0.05 -31.1,-5.62 -40.91,-16.79 -9.76,-11.13 -14.67,-28.52 -14.67,-52.14l0 -94.52 29.18 0 0 94.82c0,17.1 2.53,28.83 7.58,35.25 5.01,6.43 12.9,9.66 23.57,9.66 10.37,0 18.91,-2.13 25.69,-6.32 6.78,-4.2 11.89,-10.12 15.32,-17.85l0 -115.56 29.18 0 0 160.31 -26.2 0 -1.92 -23.72zm111.26 -175.28l0 38.69 30.34 0 0 21.64 -30.34 0 0 97.35c0,7.48 1.52,12.79 4.65,15.83 3.08,3.09 7.23,4.6 12.39,4.6 1.67,0 3.54,-0.2 5.61,-0.66 2.08,-0.46 3.79,-0.91 5.16,-1.42l4.05 19.98c-2.18,1.82 -5.41,3.24 -9.66,4.4 -4.25,1.11 -8.45,1.67 -12.59,1.72 -11.83,-0.05 -21.29,-3.59 -28.27,-10.77 -7.03,-7.13 -10.52,-18.41 -10.52,-33.68l0 -97.35 -25.49 0 0 -21.64 25.49 0 0 -38.69 29.18 0zm127.95 202.14c-23.01,-0.05 -40.96,-7.38 -53.81,-22.1 -12.89,-14.72 -19.37,-34.09 -19.37,-58.06l0 -6.52c0,-23.01 6.68,-42.08 19.92,-57.15 13.3,-15.07 29.54,-22.61 48.7,-22.61 21.39,0 37.47,6.68 48.19,20.03 10.72,13.35 16.08,31.05 16.08,53.2l0 15.37 -102.51 0 -0.45 0.76c0,16.08 3.54,29.18 10.67,39.19 7.13,10.02 17.95,15.02 32.57,15.02 9.91,0 18.56,-1.36 26.04,-4.2 7.43,-2.83 13.86,-6.73 19.17,-11.63l11.43 18.96c-5.77,5.51 -13.3,10.22 -22.71,14.01 -9.36,3.79 -20.69,5.67 -33.93,5.72zm-4.55 -143.42c-10.22,0 -18.61,3.89 -25.29,11.73 -6.67,7.89 -10.72,17.9 -12.24,30.19l0.3 0.71 72.32 0 0 -2.38c0,-11.63 -2.88,-21.24 -8.6,-28.88 -5.71,-7.59 -14.56,-11.38 -26.5,-11.38zm233.95 66.2c0,23.11 -5.56,41.77 -16.69,55.93 -11.07,14.16 -26.4,21.24 -45.82,21.29 -10.67,-0.05 -19.92,-2.13 -27.81,-6.32 -7.84,-4.2 -14.31,-10.42 -19.47,-18.61l-4.75 21.8 -22.35 0 0 -231.12 29.18 0 0 89.77c5.05,-7.13 11.28,-12.54 18.76,-16.28 7.43,-3.74 16.18,-5.67 26.15,-5.67 19.72,0 35.15,7.94 46.22,23.72 11.07,15.83 16.58,36.62 16.58,62.41l0 3.08zm-29.18 -3.08c0,-18.41 -3.39,-33.38 -10.17,-45.01 -6.78,-11.58 -17.04,-17.4 -30.9,-17.4 -8.95,0 -16.54,2.23 -22.71,6.63 -6.17,4.4 -11.13,10.27 -14.77,17.7l0 69.49c3.74,7.89 8.7,14.06 14.77,18.51 6.07,4.45 13.76,6.68 23.01,6.68 13.76,0 23.97,-4.91 30.7,-14.67 6.68,-9.81 10.06,-22.71 10.06,-38.84l0 -3.08zm57.91 -4.45c0,-23.72 6.42,-43.24 19.27,-58.62 12.84,-15.37 30.29,-23.06 52.29,-23.06 22.25,0 39.8,7.69 52.7,23.01 12.89,15.27 19.32,34.84 19.32,58.67l0 3.24c0,23.92 -6.42,43.49 -19.27,58.66 -12.84,15.22 -30.29,22.81 -52.44,22.86 -22.1,-0.05 -39.65,-7.64 -52.5,-22.91 -12.89,-15.27 -19.37,-34.79 -19.37,-58.61l0 -3.24zm29.18 3.24c0,16.99 3.59,31 10.77,42.07 7.13,11.08 17.8,16.59 31.91,16.59 13.96,0 24.48,-5.51 31.71,-16.59 7.23,-11.07 10.82,-25.08 10.82,-42.07l0 -3.24c0,-16.79 -3.64,-30.8 -10.87,-41.92 -7.28,-11.18 -17.9,-16.74 -31.96,-16.74 -13.91,0 -24.48,5.56 -31.61,16.74 -7.18,11.12 -10.77,25.13 -10.77,41.92l0 3.24zm181.66 78.39l-29.18 0 0 -231.12 29.18 0 0 231.12z"/>
  </g>
 </g>
</svg>
