<?xml version="1.0" encoding="UTF-8"?>
<!DOCTYPE svg PUBLIC "-//W3C//DTD SVG 1.1//EN" "http://www.w3.org/Graphics/SVG/1.1/DTD/svg11.dtd">
<!-- Creator: CorelDRAW 2020 (64 Bit) -->
<svg xmlns="http://www.w3.org/2000/svg" xml:space="preserve" width="75.9376mm" height="107.95mm" version="1.1" style="shape-rendering:geometricPrecision; text-rendering:geometricPrecision; image-rendering:optimizeQuality; fill-rule:evenodd; clip-rule:evenodd"
viewBox="0 0 134.11 190.65"
 xmlns:xlink="http://www.w3.org/1999/xlink"
 xmlns:xodm="http://www.corel.com/coreldraw/odm/2003">
 <defs>
  <style type="text/css">
   <![CDATA[
    .fil1 {fill:white}
    .fil0 {fill:url(#id0)}
   ]]>
  </style>
  <linearGradient id="id0" gradientUnits="userSpaceOnUse" x1="100.58" y1="15.56" x2="27.21" y2="168.5">
   <stop offset="0" style="stop-opacity:1; stop-color:#F7020C"/>
   <stop offset="1" style="stop-opacity:1; stop-color:#302C99"/>
  </linearGradient>
 </defs>
 <g id="Camada_x0020_1">
  <metadata id="CorelCorpID_0Corel-Layer"/>
  <g id="_1928839803904">
   <path class="fil0" d="M67.06 0c-22.35,10.37 -44.7,20.74 -67.06,31.11 0,22.55 0,47.74 0,70.28 0,49.8 26.23,74.6 67.06,89.25 40.83,-14.65 67.06,-39.45 67.06,-89.25 0,-22.55 0,-47.74 0,-70.28 -22.35,-10.37 -44.7,-20.74 -67.06,-31.11z"/>
   <path class="fil1" d="M74.28 24.73c-10.34,0 -20.67,0 -31.01,0 0,8.17 -0,16.34 -0,24.51 -7.16,0 -14.33,0 -21.49,0 0,26.86 0,53.72 0,80.58 7.16,0 14.33,0 21.49,0 0,13.67 0,27.34 0,41 1.87,-1.97 3.74,-3.95 5.61,-5.92 0,-11.69 -0,-23.39 -0,-35.08 9.45,0 18.9,0 28.35,0 0,7.83 0,15.65 0,23.48 1.97,-1.67 3.95,-3.35 5.92,-5.02 0,-6.15 0,-12.31 0,-18.46 22.67,1.09 35.79,-4.44 35.79,-20.95 -0.32,-18.79 -15.61,-22.43 -21.73,-22.43 11.37,-1.2 18.15,-6.52 18.15,-19.55 0,-13.22 -12.92,-17.86 -32.21,-17.66 0,-3.07 0,-6.14 0,-9.21 6.38,0 12.75,0 19.13,0 1.41,-1.53 2.83,-3.06 4.24,-4.59 -9.76,0 -19.53,0 -29.29,0 0,4.6 0,9.2 0,13.8 -9.45,0 -18.9,0 -28.35,0 0,-6.54 0,-13.07 0,-19.61 7.14,0 14.28,0 21.42,0 1.33,-1.64 2.65,-3.27 3.98,-4.91zm8.86 64.23c13.39,-0.12 25.87,3.26 25.87,16.84 0,13.77 -10.66,19.58 -25.87,19.58 0,-12.14 0,-24.29 0,-36.43zm0 -35.28c0,5.42 0,10.84 0,16.26 5.13,0 10.26,0 15.39,0 -1.04,1.66 -2.08,3.32 -3.11,4.98 -4.09,0 -8.18,0 -12.28,0 0,3.2 0,6.4 0,9.6 12.6,0 22.25,-3.2 22.25,-16.22 0,-13.19 -9.45,-14.97 -22.25,-14.62zm-34.27 35.28l28.35 0 0 36.43 -28.35 0 0 -36.43zm0 -35.28l28.35 0 0 30.84 -28.35 0 0 -21.04 15.08 0 3.5 -5.53 -18.59 0 -0 -4.27zm-5.61 35.28l-11.21 0 0 36.43 11.21 0 0 -36.43zm0 -35.28l-11.21 0 0 30.84 11.21 0 0 -30.84z"/>
  </g>
 </g>
</svg>
