<?xml version="1.0" encoding="UTF-8"?>
<!DOCTYPE svg PUBLIC "-//W3C//DTD SVG 1.1//EN" "http://www.w3.org/Graphics/SVG/1.1/DTD/svg11.dtd">
<!-- Creator: CorelDRAW 2020 (64 Bit) -->
<svg xmlns="http://www.w3.org/2000/svg" xml:space="preserve" width="79.375mm" height="49.3214mm" version="1.1" style="shape-rendering:geometricPrecision; text-rendering:geometricPrecision; image-rendering:optimizeQuality; fill-rule:evenodd; clip-rule:evenodd"
viewBox="0 0 6472.28 4021.69"
 xmlns:xlink="http://www.w3.org/1999/xlink"
 xmlns:xodm="http://www.corel.com/coreldraw/odm/2003">
 <defs>
  <style type="text/css">
   <![CDATA[
    .fil0 {fill:#31569B;fill-rule:nonzero}
    .fil2 {fill:#94C257;fill-rule:nonzero}
    .fil1 {fill:#FFCE31;fill-rule:nonzero}
   ]]>
  </style>
 </defs>
 <g id="Camada_x0020_1">
  <metadata id="CorelCorpID_0Corel-Layer"/>
  <g id="_2350687639920">
   <g id="g4406">
    <path id="path6" class="fil0" d="M3199.32 0c-7.88,262.52 -29.13,524.63 -73.39,783.72 -309.41,14.55 -620.02,75.19 -901.94,206.55 -42.03,21.22 -82.84,44.46 -124.06,67.1 -211.39,116.61 -407.63,298.1 -469.87,538.99 -42.84,159.04 -2.03,328.18 80.42,467.22 71.94,-14.35 142.66,-33.52 211.98,-56.96 -92.16,-118.23 -155.82,-270.82 -119.24,-422.19 49.11,-216.04 233.22,-368.01 419.75,-468.45 37.59,-20.01 75.18,-39.62 114.18,-57 243.52,-103.27 506.65,-153.17 769.98,-168.94 -77.6,389.44 -194.62,781.68 -423.8,1110.89 -66.49,88.52 -133.97,191.2 -245.32,225.56 -104.49,35.77 -216.85,4.44 -310.21,-46.48 -76.79,34.16 -155.82,62.44 -235.85,87.09 188.15,171.78 429.45,266.16 670.96,335.07 186.94,50.32 359.93,155.02 486.04,302.54 76.79,86.9 133.39,188.57 188.77,289.82l4.23 -9.7c-2.23,-179.05 -4.46,-358.12 1.2,-536.97 -6.87,-828.79 -1,-1657.57 -3.63,-2486.37 -0.2,-53.76 0.02,-107.73 3.85,-161.48l-44.05 0 0 -0.02z"/>
    <path id="path8" class="fil1" d="M3243.37 0c-3.84,53.76 -4.05,107.73 -3.85,161.48 2.63,828.79 -3.24,1657.57 3.63,2486.37 -5.66,178.85 -3.42,357.91 -1.2,536.97 67.09,-116.61 135.6,-234.86 232.41,-330.04 122.07,-124.09 279.5,-209.76 447.04,-254.83 239.28,-68.1 476.95,-163.28 663.88,-332.03 -81.04,-23.85 -160.87,-52.34 -237.87,-86.9 -99.43,54.77 -221.71,83.87 -330.24,37.79 -103.87,-43.65 -167.72,-143.1 -232.19,-230.2 -223.52,-326.79 -337.92,-713.79 -415.52,-1097.98 262.72,13.74 525.05,65.26 768.37,167.52 39.41,17.18 77.8,36.4 115.8,56.81 184.71,101.25 368.03,250.19 419.16,464.41 38.19,153.59 -25.26,308.79 -119.24,428.63 69.32,23.04 140.05,41.86 211.79,56.21 87.71,-144.29 127.12,-323.15 76.2,-487.46 -68.71,-237.05 -266.77,-409.25 -473.91,-527.88 -38.6,-21.42 -78.02,-41.03 -117.62,-60.03 -281.11,-130.35 -590.33,-190.98 -898.72,-205.12 -42.24,-258.88 -70.31,-521.2 -69.91,-783.72l-37.99 0z"/>
    <path id="path10" class="fil2" d="M1350.31 777.46c-101.05,-1.13 -202.06,4.43 -301.69,15.95 -276.27,35.57 -554.14,120.88 -778.07,291.65 -141.26,109.13 -261.71,266.77 -269.79,451.69 -10.51,179.05 89.93,344.95 221.29,459.14 186.74,162.28 424.39,254.46 664.07,304.78 331.64,67.7 679.45,56.77 1005.84,-33.57 80.03,-24.66 159.05,-52.94 235.85,-87.09 174.81,-82.45 344.15,-198.67 442.37,-369.65 71.75,-122.07 89.95,-275.45 41.24,-409.24 -48.7,-142.27 -158.25,-251.81 -274.25,-342.14 -39,17.38 -76.59,36.99 -114.18,57 85.69,73.36 175.01,153.59 209.77,264.75 41.02,116.81 7.49,248.76 -68.9,343.34 -110.75,140.26 -276.07,224.15 -441.39,282.55 -69.32,23.44 -140.03,42.61 -211.98,56.96 -254.24,48.91 -517.77,50.33 -772.41,1.42 -228.39,-46.47 -462.61,-129.52 -628.53,-300.29 -101.66,-101.45 -154.01,-259.1 -99.44,-396.93 71.94,-180.26 248.19,-290.6 419.57,-363.35 350.63,-141.27 744.71,-158.65 1112.72,-82.86 123.28,31.33 252.83,59.42 357.51,135.81 41.23,-22.64 82.03,-45.88 124.06,-67.1 -267.07,-145.51 -570.52,-209.39 -873.68,-212.8l0.02 -0.01z"/>
    <path id="path12" class="fil0" d="M5138.48 777.6c-43.86,0.31 -87.63,1.83 -131.24,4.52 -262.72,16.98 -524.84,80.83 -757.26,206.74 39.61,19 79.03,38.61 117.62,60.03 326.99,-164.1 706.53,-198.65 1065.87,-152.77 253.63,37.59 515.33,116.39 707.52,294.24 111.16,100.85 179.05,263.32 124.89,410.44 -65.68,179.26 -237.25,291.65 -404.79,365.42 -343.77,144.29 -731.59,165.71 -1095.77,98.02 -71.75,-14.35 -142.47,-33.17 -211.79,-56.21 -166.33,-58.2 -332.64,-142.27 -444.2,-282.93 -76.79,-94.58 -111.16,-227.55 -69.53,-344.76 35.77,-111.96 124.68,-194.21 213.81,-265.34 -38,-20.41 -76.39,-39.63 -115.8,-56.81 -109.32,83.85 -212.18,184.31 -265.33,314.05 -58.81,135.6 -48.3,296.68 23.24,425.41 97.01,178.45 271.61,298.9 451.69,383.38 77,34.56 156.84,63.06 237.87,86.9 398.33,109.13 830.2,102.67 1222.86,-27.28 216.85,-75.38 432.08,-192.39 566.88,-383.98 94.18,-131.57 126.31,-308.59 68.11,-461.37 -70.93,-191.18 -238.25,-327.39 -413.48,-420.36 -273.74,-141.82 -584.17,-199.48 -891.17,-197.33l0 0.01z"/>
    <path id="path262" class="fil0" d="M2127.6 3309.1c181.48,1.61 363.17,-3.84 544.64,3.03 -0.2,40.42 -0.2,80.84 0,121.46 -131.77,3.84 -263.73,0.81 -395.7,1.82 0.2,51.33 0.6,102.46 2.23,153.59 103.47,-2.02 207.15,-1.41 310.82,-0.81 -0.2,42.44 -0.6,84.88 -1.01,127.52 -103.87,-0.6 -207.76,-0.41 -311.63,-0.2 0.41,99.02 -1.21,198.05 1.41,297.28 -50.12,11.32 -103.27,13.54 -152.38,-3.84 2.83,-233.21 0,-466.64 1.61,-699.85l0.01 0z"/>
    <path id="path264" class="fil2" d="M2753.69 3309.71c164.91,-1.21 329.62,-1.21 494.53,0 -0.2,41.83 -0.2,83.67 -0.41,125.7 -114.79,0.41 -229.58,0.2 -344.37,0.2 -0.2,47.09 -0.2,94.18 -0.2,141.46 103.67,0 207.55,0 311.43,0 0.2,42.24 0.41,84.68 0.41,127.12 -103.27,0.81 -206.54,1.21 -309.81,-0.81 -3.03,103.07 -3.03,206.34 -0.41,309.41 -50.12,12.13 -102.26,10.91 -152.58,2.02 2.23,-235.03 -0.6,-470.07 1.41,-705.11l0.01 -0.01z"/>
    <path id="path266" class="fil1" d="M3331.48 3308.9c126.11,7.48 266.77,-22.84 380.35,46.48 120.04,87.31 157.63,253.43 128.94,393.48 -18.8,96 -69.11,203.11 -170.36,233.21 -109.53,32.94 -226.75,39.61 -339.72,22.43 -0.2,-138.24 0.2,-276.46 -1.01,-414.7 49.11,-1.21 98.42,-2.02 147.74,-2.63 3.64,100.65 2.02,201.69 3.84,302.54 59.21,-5.06 136.01,11.32 175.83,-45.07 51.94,-69.73 47.49,-164.3 41.23,-246.55 -3.43,-78.61 -67.7,-148.54 -145.51,-158.65 -73.36,-8.49 -147.33,-3.24 -220.89,-3.43 -0.41,-42.44 -0.41,-84.68 -0.41,-127.12l-0.01 0z"/>
    <path id="path268" class="fil0" d="M3921.39 3309.1c181.28,0.2 362.56,-0.41 543.83,0.41 0,41.83 -0.2,83.87 -0.2,125.91 -131.57,0 -262.93,-0.2 -394.29,0 -0.2,50.73 -0.2,101.25 -0.2,151.98 104.28,1.01 208.56,-1.01 312.85,2.02 0,41.43 0.2,82.86 0.6,124.29 -104.28,3.03 -208.76,1.01 -313.04,2.02 -0.41,98.83 -1.21,197.65 0.6,296.68 -50.12,14.55 -102.26,10.1 -150.76,-7.48 0.6,-232.01 -0.81,-464.01 0.6,-695.81l0.01 -0.02z"/>
   </g>
  </g>
 </g>
</svg>
