<?xml version="1.0" encoding="UTF-8"?>
<!DOCTYPE svg PUBLIC "-//W3C//DTD SVG 1.1//EN" "http://www.w3.org/Graphics/SVG/1.1/DTD/svg11.dtd">
<!-- Creator: CorelDRAW 2020 (64 Bit) -->
<svg xmlns="http://www.w3.org/2000/svg" xml:space="preserve" width="1076.67mm" height="446.325mm" version="1.1" style="shape-rendering:geometricPrecision; text-rendering:geometricPrecision; image-rendering:optimizeQuality; fill-rule:evenodd; clip-rule:evenodd"
viewBox="0 0 78051.09 32355.55"
 xmlns:xlink="http://www.w3.org/1999/xlink"
 xmlns:xodm="http://www.corel.com/coreldraw/odm/2003">
 <defs>
  <style type="text/css">
   <![CDATA[
    .fil1 {fill:#0042C7}
    .fil0 {fill:#3EAD2B}
   ]]>
  </style>
 </defs>
 <g id="Camada_x0020_1">
  <metadata id="CorelCorpID_0Corel-Layer"/>
  <g id="_1929048888592">
   <path class="fil0" d="M33073.49 5428.06c-6879.42,0 -13758.84,0 -20638.26,0 -5308.08,0 -10598.98,5543.44 -12428.98,12237.18 -219.26,-8843.09 5353.23,-17665.24 13483.89,-17665.24l20228.96 0 -645.6 5428.06zm-18308.24 20636.27c1737.27,0 3145.61,1408.33 3145.61,3145.61 0,1737.27 -1408.33,3145.61 -3145.61,3145.61 -177.46,0 -351.4,-14.93 -520.84,-43.17l2.31 0.64c-7273.59,-513.75 -11680.19,-5340.56 -13787.43,-11640.86 0,-2176.53 42.98,-2714.16 615.79,-4814.47 1357.41,7520.17 4865.86,13933.23 12489.92,16260.53 -1141.81,-471.7 -1945.35,-1596.09 -1945.35,-2908.28 0,-1737.27 1408.33,-3145.61 3145.61,-3145.61z"/>
   <path class="fil1" d="M30211.18 8882.77c-10944.95,0 -19103.84,-1112.38 -19103.84,7163.94l11009.62 0 -556.24 4852.69 -11086.34 0 -1592.04 11374.07 -5399.35 0 2618.08 -18250.23c1007.75,-3780.08 2738.76,-6641.41 5639.07,-8017.46l18777.93 0 -306.89 2876.99zm47839.91 -4780.07c-210.98,1580.6 -421.98,3161.2 -632.96,4741.8 -5102.02,0 -10204.03,0 -15306.05,0 -1962.53,126.2 -3101.13,1241.13 -3529.22,3208.65 -336.15,2534.38 937.13,3414.13 3490.86,3414.13 2224.93,0 4449.88,0 6674.81,0 5748.61,0 9354.5,2529.24 7748.95,9129.95 -1391.58,5193.46 -4635.82,7883.76 -10280.76,7672.21 -5447.27,0 -10510.92,0 -15958.19,0 255.74,-1576.04 511.48,-3152.08 767.23,-4728.12 4756.77,0 9513.53,0 14270.3,0 2319.99,93.84 4425.63,-983.65 4756.78,-3557.86 305.94,-2863.13 -1454.54,-3759.38 -3912.83,-3759.38 -2787.57,0 -5575.14,0 -8362.71,0 -10067.21,0 -6561.13,-16890.15 4296.41,-16121.38 5325.8,0 10651.59,0 15977.39,0zm-26123.65 0c-255.74,1580.6 -511.48,3161.2 -767.22,4741.8 -3024.13,0 -6048.26,0 -9072.39,0 -4639.01,0 -6600.29,3627.26 -7307.81,7169.3 3657.08,0 7314.17,0 10971.25,0 -252.54,1572.81 -505.07,3145.62 -757.61,4718.43 -3714.63,0 -7429.26,0 -11143.89,0 -121.09,5833.48 2353.65,6674.11 6164.73,6793.68 2568.07,80.58 5912.4,85.15 8700.15,15.42 -210.99,1598.38 -421.98,3196.76 -632.97,4795.15 -2085.36,0 -6097.08,-5.79 -7860.84,-48.46 -9038.05,0 -14174.02,-2146.76 -12528.1,-14375.27 2040.96,-9030.65 7172.3,-13683.02 13598.94,-13829.15 3545.25,6.37 7090.5,12.74 10635.76,19.11z"/>
  </g>
 </g>
</svg>
