<?xml version="1.0" encoding="UTF-8"?>
<!DOCTYPE svg PUBLIC "-//W3C//DTD SVG 1.1//EN" "http://www.w3.org/Graphics/SVG/1.1/DTD/svg11.dtd">
<!-- Creator: CorelDRAW 2020 (64 Bit) -->
<svg xmlns="http://www.w3.org/2000/svg" xml:space="preserve" width="34.0966mm" height="34.0966mm" version="1.1" style="shape-rendering:geometricPrecision; text-rendering:geometricPrecision; image-rendering:optimizeQuality; fill-rule:evenodd; clip-rule:evenodd"
viewBox="0 0 27.17 27.17"
 xmlns:xlink="http://www.w3.org/1999/xlink"
 xmlns:xodm="http://www.corel.com/coreldraw/odm/2003">
 <defs>
  <style type="text/css">
   <![CDATA[
    .fil0 {fill:#2E3094}
    .fil2 {fill:#EC1D27}
    .fil1 {fill:white}
   ]]>
  </style>
 </defs>
 <g id="Camada_x0020_1">
  <metadata id="CorelCorpID_0Corel-Layer"/>
  <g id="_1928844707472">
   <polygon class="fil0" points="7.96,0 13.58,0 19.21,0 23.19,3.98 27.17,7.96 27.17,13.58 27.17,19.21 23.19,23.19 19.21,27.17 13.58,27.17 7.96,27.17 3.98,23.19 0,19.21 0,13.58 0,7.96 3.98,3.98 "/>
   <polygon class="fil1" points="8.51,1.34 13.58,1.34 18.65,1.34 22.24,4.93 25.82,8.51 25.82,13.58 25.82,18.65 22.24,22.24 18.65,25.82 13.58,25.82 8.51,25.82 4.93,22.24 1.34,18.65 1.34,13.58 1.34,8.51 4.93,4.93 "/>
   <polygon class="fil2" points="9.01,2.55 13.58,2.55 18.15,2.55 21.38,5.78 24.61,9.01 24.61,13.58 24.61,18.15 21.38,21.38 18.15,24.61 13.58,24.61 9.01,24.61 5.78,21.38 2.55,18.15 2.55,13.58 2.55,9.01 5.78,5.78 "/>
   <polygon class="fil1" points="9.52,3.77 13.58,3.77 17.65,3.77 20.52,6.64 23.4,9.52 23.4,13.58 23.4,17.65 20.52,20.52 17.65,23.4 13.58,23.4 9.52,23.4 6.64,20.52 3.77,17.65 3.77,13.58 3.77,9.52 6.64,6.64 "/>
   <path class="fil0" d="M14.46 6.38c0.16,-0.43 0.32,-0.85 0.48,-1.28 -2.09,0 -4.19,0 -6.28,0 0,5.68 0,11.36 0,17.04 0.44,-0.32 0.87,-0.64 1.31,-0.96 0,-3.63 0,-7.26 0,-10.88 1.02,0 2.03,0 3.05,0 -0.37,2.54 -1.02,8.79 3.15,7.52 0,1.69 0,3.37 0,5.06 0.48,-0.33 0.97,-0.67 1.45,-1 0,-1.43 0,-2.87 0,-4.3 1.01,0 2.03,0 3.04,0 0,-0.35 0,-0.71 0,-1.06 -1.01,0 -2.03,0 -3.04,0 0,-0.81 0,-1.62 0,-2.43 1.41,0 2.82,0 4.22,0 0.12,-0.44 0.25,-0.88 0.37,-1.32 -2.35,0 -4.71,0 -7.06,0 0,0.44 0,0.88 0,1.33 0.35,0 0.71,0 1.06,0 -0.04,1.2 0.08,2.49 -0.92,2.49 -1.19,0 -0.95,-2.29 -0.99,-3.54 -0.01,-0.38 -0.08,-3.32 1.02,-3.37 0.36,-0.01 0.83,0.74 0.89,1.24 0.47,-0.17 0.94,-0.34 1.41,-0.51 -0.37,-2.12 -2.72,-2.71 -3.93,-1.41 -1.24,0 -2.48,0 -3.72,0 0,-0.87 0,-1.74 0,-2.61 1.5,-0 3,-0 4.5,-0z"/>
  </g>
 </g>
</svg>
