<?xml version="1.0" encoding="UTF-8"?>
<!DOCTYPE svg PUBLIC "-//W3C//DTD SVG 1.1//EN" "http://www.w3.org/Graphics/SVG/1.1/DTD/svg11.dtd">
<!-- Creator: CorelDRAW 2020 (64 Bit) -->
<svg xmlns="http://www.w3.org/2000/svg" xml:space="preserve" width="35.8412mm" height="48.5373mm" version="1.1" style="shape-rendering:geometricPrecision; text-rendering:geometricPrecision; image-rendering:optimizeQuality; fill-rule:evenodd; clip-rule:evenodd"
viewBox="0 0 28.15 38.12"
 xmlns:xlink="http://www.w3.org/1999/xlink"
 xmlns:xodm="http://www.corel.com/coreldraw/odm/2003">
 <defs>
  <style type="text/css">
   <![CDATA[
    .fil0 {fill:#1D246B}
    .fil1 {fill:white}
   ]]>
  </style>
 </defs>
 <g id="Camada_x0020_1">
  <metadata id="CorelCorpID_0Corel-Layer"/>
  <path class="fil0" d="M14.07 0c-3.91,0 -7.82,0 -11.73,0 -0.78,1.35 -1.56,2.7 -2.34,4.06 0.6,0.6 1.19,1.19 1.79,1.79 -0.21,9.6 -0.42,19.19 -0.64,28.79 4.05,2.45 8.42,3.32 12.92,3.48 4.5,-0.16 8.87,-1.03 12.92,-3.48 -0.21,-9.6 -0.42,-19.19 -0.64,-28.79 0.6,-0.6 1.19,-1.19 1.79,-1.79 -0.78,-1.35 -1.56,-2.7 -2.34,-4.06 -3.91,0 -7.82,0 -11.73,0z"/>
  <path class="fil1" d="M14.07 37.38c4.32,-0.16 8.41,-0.99 12.17,-3.16 -0.21,-9.45 -0.42,-18.91 -0.63,-28.36l-0.01 -0.32 0.22 -0.22c0.46,-0.46 0.93,-0.93 1.39,-1.39 -0.61,-1.07 -1.23,-2.13 -1.84,-3.2 -3.77,0 -7.54,0 -11.31,0 -3.77,0 -7.54,0 -11.31,0 -0.61,1.07 -1.23,2.13 -1.84,3.2 0.46,0.46 0.93,0.93 1.39,1.39l0.22 0.22 -0.01 0.32c-0.21,9.45 -0.42,18.91 -0.63,28.36 3.76,2.17 7.85,3 12.17,3.16z"/>
  <path class="fil0" d="M26.47 3.84c-0.48,-0.83 -0.96,-1.66 -1.44,-2.49 -3.65,0 -7.3,0 -10.96,0 -3.65,0 -7.3,0 -10.96,0 -0.48,0.83 -0.96,1.66 -1.44,2.49 0.35,0.35 0.71,0.71 1.06,1.06l0.41 0.41 -0.01 0.57c-0.21,9.33 -0.41,18.66 -0.62,28 3.59,1.99 7.48,2.75 11.56,2.9 4.08,-0.15 7.97,-0.91 11.56,-2.9 -0.21,-9.33 -0.41,-18.66 -0.62,-28l-0.01 -0.57 0.41 -0.41c0.35,-0.35 0.71,-0.71 1.06,-1.06z"/>
  <path class="fil1" d="M14.07 4.75c-0.72,-0.46 -1.45,-0.92 -2.17,-1.38 0.67,-0.35 1.4,-0.49 2.17,-0.49 0.77,-0 1.49,0.15 2.17,0.49 -0.72,0.46 -1.45,0.92 -2.17,1.38zm7.85 8.13l-2.04 -2.13 -1.1 0.66 -1.34 4.08 0.77 1.09 2.94 -0.94 0.78 -2.77zm-1.25 -3.16c0.19,-0.83 0.37,-1.65 0.56,-2.48 0.17,-0.07 0.34,-0.15 0.51,-0.22 0.78,0.91 1.35,2.03 1.61,3.49 -0.29,0.26 -0.59,0.52 -0.88,0.78 -0.6,-0.52 -1.19,-1.05 -1.79,-1.57zm-3.19 10.84c0.34,-0.77 0.68,-1.54 1.01,-2.31 0.88,-0.11 1.77,-0.23 2.65,-0.34 0.05,0.19 0.1,0.39 0.16,0.58 -0.81,0.96 -1.81,1.74 -2.95,2.38 -0.29,-0.1 -0.58,-0.21 -0.87,-0.31zm-2.97 -13.22l0 -1.31 2.58 -1.34 2.38 1.73 0 3.16 -1.34 0.43 -3.62 -2.66zm-8.3 5.54l2.04 -2.13 1.1 0.66 1.34 4.08 -0.77 1.09 -2.94 -0.94 -0.78 -2.77zm1.25 -3.16c-0.19,-0.83 -0.37,-1.65 -0.56,-2.48 -0.17,-0.07 -0.34,-0.15 -0.51,-0.22 -0.78,0.91 -1.35,2.03 -1.61,3.49 0.29,0.26 0.59,0.52 0.88,0.78 0.6,-0.52 1.19,-1.05 1.79,-1.57zm3.19 10.84c-0.34,-0.77 -0.68,-1.54 -1.01,-2.31 -0.88,-0.11 -1.77,-0.23 -2.65,-0.34 -0.05,0.19 -0.1,0.39 -0.16,0.58 0.81,0.96 1.81,1.74 2.95,2.38 0.29,-0.1 0.58,-0.21 0.87,-0.31zm3.42 -4.23l-2.4 0 -0.86 0.99 1.79 2.65 1.46 0 1.46 0 1.79 -2.65 -0.86 -0.99 -2.4 0zm0 -1.83l-1.76 0 -1.1 -3.29 2.86 -2.21 2.86 2.21 -1.1 3.29 -1.76 0zm-0.45 -7.16l0 -1.31 -2.58 -1.34 -2.38 1.73 0 3.16 1.34 0.43 3.62 -2.66z"/>
  <path class="fil1" d="M3.84 22.73l0 0.79 0.66 0 0 8 -0.4 0.23 0 1.12 2.97 1.14 0 -1.32 -0.56 -0.52 0 -4.14c0.24,0 0.48,0 0.72,0 0.24,0 0.4,0.08 0.5,0.29l0 1.61 0.85 0 0 -3.94 -0.91 0 0 1.39 -1.1 0 0 -3.97c1.68,-0.11 2.6,0.7 2.86,2.3l0.64 0 0 -2.98 -6.22 0zm14.73 0l5.74 0 0 2.99 -0.53 0c-0.23,-1.67 -0.98,-2.21 -2.79,-2.21l0 3.84 1.1 0 0 -1.31 0.83 0 0 3.86 -0.83 0 0 -1.53c-0.03,-0.25 -0.15,-0.33 -0.33,-0.33l-0.77 0 0 4.2 0.42 0.25 0 1.19 -2.84 0.91 0 -1.3 0.44 -0.25 0 -9.54 -0.44 0 0 -0.77zm-4.34 3.87l-1.08 -3.87 -2.71 0 0 0.84 0.52 0.19 0 9.92 -0.6 0 0 0.96 3.09 0.55 0 -1.36 -0.45 -0.1 0 -6.49 1.23 4.03 1.23 -4.03 0 6.49 -0.45 0.1 0 1.36 3.09 -0.55 0 -0.96 -0.6 0 0 -9.92 0.52 -0.19 0 -0.84 -2.71 0 -1.08 3.87z"/>
 </g>
</svg>
