<?xml version="1.0" encoding="UTF-8"?>
<!DOCTYPE svg PUBLIC "-//W3C//DTD SVG 1.1//EN" "http://www.w3.org/Graphics/SVG/1.1/DTD/svg11.dtd">
<!-- Creator: CorelDRAW 2020 (64 Bit) -->
<svg xmlns="http://www.w3.org/2000/svg" xml:space="preserve" width="48.9099mm" height="62.0001mm" version="1.1" style="shape-rendering:geometricPrecision; text-rendering:geometricPrecision; image-rendering:optimizeQuality; fill-rule:evenodd; clip-rule:evenodd"
viewBox="0 0 3329.7 4220.86"
 xmlns:xlink="http://www.w3.org/1999/xlink"
 xmlns:xodm="http://www.corel.com/coreldraw/odm/2003">
 <defs>
  <style type="text/css">
   <![CDATA[
    .fil1 {fill:#FEFEFE}
    .fil0 {fill:#ED3237}
   ]]>
  </style>
 </defs>
 <g id="Camada_x0020_1">
  <metadata id="CorelCorpID_0Corel-Layer"/>
  <g id="_2350701682544">
   <polygon class="fil0" points="1664.85,4220.86 3329.7,0 -0,0 "/>
   <polygon class="fil1" points="168.77,114.87 1664.85,3908.67 3160.94,114.87 "/>
   <polygon class="fil0" points="1037.53,2099.73 2292.16,2099.73 1665.17,1013.84 "/>
   <polygon class="fil0" points="2654.67,353.09 2654.67,247.95 2163.96,247.95 2163.96,1023.56 2276.91,1023.56 2276.91,652.96 2552.77,652.96 2552.77,547.17 2276.91,547.17 2276.91,353.09 "/>
   <polygon class="fil0" points="2055.58,1023.56 2055.58,247.95 1945.25,247.95 1654.47,610.14 1369.52,247.95 1256.59,247.95 1256.59,1023.56 1369.52,1023.56 1369.52,426.44 1654.47,773.04 1941.35,415.39 1941.35,1023.56 "/>
   <polygon class="fil0" points="1166.38,353.09 1166.38,247.95 675.03,247.95 675.03,1023.56 788.61,1023.56 788.61,652.96 1064.47,652.96 1064.47,547.17 788.61,547.17 788.61,353.09 "/>
  </g>
 </g>
</svg>
