<?xml version="1.0" encoding="UTF-8"?>
<!DOCTYPE svg PUBLIC "-//W3C//DTD SVG 1.1//EN" "http://www.w3.org/Graphics/SVG/1.1/DTD/svg11.dtd">
<!-- Creator: CorelDRAW 2020 (64 Bit) -->
<svg xmlns="http://www.w3.org/2000/svg" xml:space="preserve" width="53.36mm" height="62.0001mm" version="1.1" style="shape-rendering:geometricPrecision; text-rendering:geometricPrecision; image-rendering:optimizeQuality; fill-rule:evenodd; clip-rule:evenodd"
viewBox="0 0 779.77 906.03"
 xmlns:xlink="http://www.w3.org/1999/xlink"
 xmlns:xodm="http://www.corel.com/coreldraw/odm/2003">
 <defs>
  <style type="text/css">
   <![CDATA[
    .fil3 {fill:#FEFEFE}
    .fil2 {fill:#373435}
    .fil0 {fill:#EE4039}
    .fil1 {fill:#373435;fill-rule:nonzero}
   ]]>
  </style>
 </defs>
 <g id="Camada_x0020_1">
  <metadata id="CorelCorpID_0Corel-Layer"/>
  <g id="_2350051074160">
   <path class="fil0" d="M12.03 117.1c165.89,15.42 301.05,-9.25 377.86,-98.69 76.8,89.43 211.97,114.11 377.86,98.69 0,320.74 -110.6,579.79 -377.86,774.09 -267.27,-194.3 -377.86,-453.35 -377.86,-774.09z"/>
   <path class="fil1" d="M13.11 105.16c81.62,7.59 155.59,5.34 218.48,-9.78 61.71,-14.84 112.56,-42.12 149.18,-84.77l9.11 -10.61 9.11 10.61c36.62,42.65 87.47,69.93 149.18,84.77 62.88,15.12 136.86,17.37 218.48,9.78l13.11 -1.21 0 13.15c0,162.08 -28.02,308.73 -89.88,439.58 -61.92,130.98 -157.63,245.85 -292.96,344.23l-7.05 5.12 -7.05 -5.12c-135.33,-98.38 -231.04,-213.26 -292.96,-344.23 -61.86,-130.85 -89.88,-277.5 -89.87,-439.58l0 -13.15 13.11 1.21zm224.02 13.61c-61.94,14.89 -133.94,17.8 -213.01,11.4 1.46,153.46 28.87,292.33 87.46,416.26 59.11,125.03 150.09,235.1 278.3,329.86 128.22,-94.76 219.19,-204.83 278.3,-329.85 58.59,-123.92 86,-262.8 87.46,-416.26 -79.08,6.4 -151.07,3.49 -213.02,-11.4 -61.65,-14.82 -113.51,-41.47 -152.75,-82.51 -39.24,41.04 -91.1,67.68 -152.75,82.51z"/>
   <polygon class="fil2" points="24.31,302.14 752.38,302.14 709.37,477.93 67.32,477.93 "/>
   <path class="fil3" d="M148.84 456.34l0 -132.06 90.55 0 0 22.35 -63.86 0 0 31.24 55.13 0 0 22.35 -55.13 0 0 56.11 -26.69 0zm178.09 0l0 -132.06 42.77 0c16.2,0 26.78,0.68 31.7,2 7.56,1.97 13.93,6.27 19.03,12.91 5.1,6.64 7.65,15.22 7.65,25.7 0,8.12 -1.47,14.95 -4.43,20.45 -2.95,5.53 -6.67,9.87 -11.22,13.03 -4.52,3.14 -9.13,5.23 -13.81,6.24 -6.36,1.26 -15.59,1.91 -27.67,1.91l-17.37 0 0 49.81 -26.66 0zm26.66 -109.71l0 37.45 14.57 0c10.52,0 17.56,-0.68 21.09,-2.06 3.54,-1.38 6.3,-3.54 8.33,-6.49 2,-2.95 3.01,-6.37 3.01,-10.27 0,-4.8 -1.41,-8.76 -4.24,-11.9 -2.8,-3.1 -6.4,-5.07 -10.7,-5.84 -3.2,-0.61 -9.59,-0.89 -19.19,-0.89l-12.88 0zm162.11 109.71l0 -132.06 90.55 0 0 22.35 -63.86 0 0 31.24 55.13 0 0 22.35 -55.13 0 0 56.11 -26.69 0z"/>
   <path class="fil3" d="M247.08 430.19c8.9,0 16.16,7.26 16.16,16.16 0,8.9 -7.26,16.16 -16.16,16.16 -8.9,0 -16.16,-7.26 -16.16,-16.16 0,-8.9 7.26,-16.16 16.16,-16.16z"/>
   <path class="fil3" d="M435.09 430.19c8.9,0 16.16,7.26 16.16,16.16 0,8.9 -7.26,16.16 -16.16,16.16 -8.9,0 -16.16,-7.26 -16.16,-16.16 0,-8.9 7.26,-16.16 16.16,-16.16z"/>
   <path class="fil3" d="M611.26 430.19c8.9,0 16.16,7.26 16.16,16.16 0,8.9 -7.25,16.16 -16.16,16.16 -8.9,0 -16.16,-7.26 -16.16,-16.16 0,-8.9 7.26,-16.16 16.16,-16.16z"/>
  </g>
 </g>
</svg>
