<?xml version="1.0" encoding="UTF-8"?>
<!DOCTYPE svg PUBLIC "-//W3C//DTD SVG 1.1//EN" "http://www.w3.org/Graphics/SVG/1.1/DTD/svg11.dtd">
<!-- Creator: CorelDRAW 2020 (64 Bit) -->
<svg xmlns="http://www.w3.org/2000/svg" xml:space="preserve" width="21.7896mm" height="35.4492mm" version="1.1" style="shape-rendering:geometricPrecision; text-rendering:geometricPrecision; image-rendering:optimizeQuality; fill-rule:evenodd; clip-rule:evenodd"
viewBox="0 0 5229.73 8508.18"
 xmlns:xlink="http://www.w3.org/1999/xlink"
 xmlns:xodm="http://www.corel.com/coreldraw/odm/2003">
 <defs>
  <style type="text/css">
   <![CDATA[
    .fil2 {fill:none}
    .fil0 {fill:#FEFEFE}
    .fil4 {fill:#D2D3D5}
    .fil3 {fill:#96989A}
    .fil1 {fill:#066839}
    .fil5 {fill:#066839;fill-rule:nonzero}
   ]]>
  </style>
    <clipPath id="id0">
     <path d="M4390.08 1975.84c-7.44,1047.96 -799.36,1894.98 -1775.21,1894.98 -975.86,0 -1767.77,-847.02 -1775.21,-1894.98 -342.26,264.68 -495.12,500.33 -495.12,1021.82l0 7.99 -0.46 7.97c-130.64,2227.78 335.08,3872.86 2270.79,5113.19 1935.71,-1240.33 2401.43,-2885.41 2270.79,-5113.19l-0.46 -7.97 0 -7.99c0,-521.49 -152.86,-757.14 -495.12,-1021.82z"/>
    </clipPath>
 </defs>
 <g id="Camada_x0020_1">
  <metadata id="CorelCorpID_0Corel-Layer"/>
  <g id="_2853542999536">
   <path class="fil0" d="M4390.08 1975.84c-7.44,1047.96 -799.36,1894.98 -1775.21,1894.98 -975.86,0 -1767.77,-847.02 -1775.21,-1894.98 -342.26,264.68 -495.12,500.33 -495.12,1021.82l0 7.99 -0.46 7.97c-130.64,2227.78 335.08,3872.86 2270.79,5113.19 1935.71,-1240.33 2401.43,-2885.41 2270.79,-5113.19l-0.46 -7.97 0 -7.99c0,-521.49 -152.86,-757.14 -495.12,-1021.82z"/>
   <g style="clip-path:url(#id0)">
    <g>
     <g>
      <rect class="fil1" x="198.32" y="1552.94" width="423.65" height="6895.43"/>
      <rect class="fil1" x="1080.21" y="1552.94" width="423.65" height="6895.43"/>
      <rect class="fil1" x="1962.11" y="1552.94" width="423.65" height="6895.43"/>
      <rect class="fil1" x="2844" y="1552.94" width="423.65" height="6895.43"/>
      <rect class="fil1" x="3725.9" y="1552.94" width="423.65" height="6895.43"/>
      <rect class="fil1" x="4607.79" y="1552.94" width="423.65" height="6895.43"/>
     </g>
    </g>
   </g>
   <path class="fil2" d="M4390.08 1975.84c-7.44,1047.96 -799.36,1894.98 -1775.21,1894.98 -975.86,0 -1767.77,-847.02 -1775.21,-1894.98 -342.26,264.68 -495.12,500.33 -495.12,1021.82l0 7.99 -0.46 7.97c-130.64,2227.78 335.08,3872.86 2270.79,5113.19 1935.71,-1240.33 2401.43,-2885.41 2270.79,-5113.19l-0.46 -7.97 0 -7.99c0,-521.49 -152.86,-757.14 -495.12,-1021.82z"/>
   <path class="fil3" d="M20.64 2996.15c0.36,-711.54 252.95,-1023.48 800.94,-1408.31 7.63,-42.34 16.58,-84.46 26.81,-126.25 -100.71,-181.23 -206.53,-359.58 -317.15,-534.94l-20.4 -32.38 25.32 -28.71c151.73,-171.97 303.49,-343.98 455.25,-515.97l20.81 -23.57 30.43 7.94c162.63,42.55 349.62,39.53 517.2,26.16 73.47,-55.37 150.73,-105.72 231.47,-149.84 241.16,-131.81 500.47,-202.57 775.28,-209.6l2.81 -0.07c15.14,-0.38 30.31,-0.62 45.46,-0.62 15.14,0 30.31,0.24 45.46,0.62l2.81 0.07c274.98,7.03 533.98,77.72 775.28,209.6 80.74,44.11 158,94.47 231.47,149.84 167.58,13.37 354.57,16.39 517.2,-26.16l30.43 -7.94 20.81 23.57c151.76,171.99 303.52,344.01 455.25,515.97l25.32 28.71 -20.4 32.38c-110.62,175.35 -216.44,353.7 -317.15,534.94 10.22,41.79 19.2,83.91 26.81,126.27 547.99,384.81 800.58,696.75 800.94,1408.29 140.53,2401.43 -407.03,4181.2 -2567.66,5495.88l-26.57 16.15 -26.57 -16.15c-2160.62,-1314.68 -2708.18,-3094.46 -2567.66,-5495.88zm2594.23 5069.89c1905.59,-1233.89 2344.74,-2865.99 2219.76,-5049.49l-0.53 -9.43 0 -9.46c0,-429.4 -96.1,-663.49 -396.28,-917.61 -56.23,976.63 -802.52,1841.87 -1822.95,1841.87 -1020.43,0 -1766.72,-865.24 -1822.95,-1841.87 -300.18,254.12 -396.28,488.21 -396.28,917.61l0 9.46 -0.53 9.43c-124.97,2183.5 314.17,3815.59 2219.76,5049.49zm0 -7589.11c-826.12,0 -1422.3,730.64 -1422.3,1529.85 0,799.21 596.19,1529.85 1422.3,1529.85 826.12,0 1422.3,-730.64 1422.3,-1529.85 0,-799.21 -596.19,-1529.85 -1422.3,-1529.85z"/>
   <path class="fil4" d="M2659.01 51.7l2.81 0.07c267.01,7.25 517.75,75 752.1,203.36 80.96,43.97 158.41,94.37 231.66,150.68l5.3 4.03c203.43,17.06 391.65,14.78 549.14,-26.43 151.76,171.99 303.49,343.98 455.25,515.97 -113.19,179.43 -222.8,364.24 -328.38,555.02 13.63,53.5 25.25,107.88 34.59,163.14 492.86,343.62 796.52,631.4 796.52,1380.11 126.99,2165.78 -262.04,4062.75 -2543.13,5450.71 -2281.08,-1387.96 -2670.12,-3284.93 -2543.13,-5450.71 0,-748.71 303.66,-1036.49 796.52,-1380.11 9.36,-55.25 20.95,-109.64 34.59,-163.14 -105.58,-190.78 -215.19,-375.59 -328.38,-555.02 151.76,-171.99 303.49,-343.98 455.25,-515.97 157.49,41.21 345.71,43.49 549.14,26.43l5.3 -4.03c73.25,-56.31 150.7,-106.71 231.66,-150.68 234.35,-128.36 485.06,-196.09 752.1,-203.36l2.81 -0.07c14.66,-0.36 29.38,-0.6 44.14,-0.6 14.76,0 29.47,0.22 44.14,0.6zm1731.08 1924.14c-7.44,1047.96 -799.36,1894.98 -1775.21,1894.98 -975.86,0 -1767.77,-847.02 -1775.21,-1894.98 -342.26,264.68 -495.12,500.33 -495.12,1021.82l0 7.99 -0.46 7.97c-130.64,2227.78 335.08,3872.86 2270.79,5113.19 1935.71,-1240.33 2401.43,-2885.41 2270.79,-5113.19l-0.46 -7.97 0 -7.99c0,-521.49 -152.86,-757.14 -495.12,-1021.82zm-1775.21 -1550.01c813.76,0 1473.4,707.79 1473.4,1580.95 0,873.16 -659.65,1580.95 -1473.4,1580.95 -813.76,0 -1473.4,-707.79 -1473.4,-1580.95 0,-873.16 659.65,-1580.95 1473.4,-1580.95z"/>
   <path class="fil0" d="M2614.87 476.93c-826.12,0 -1422.3,730.64 -1422.3,1529.85 0,799.21 596.19,1529.85 1422.3,1529.85 826.12,0 1422.3,-730.64 1422.3,-1529.85 0,-799.21 -596.19,-1529.85 -1422.3,-1529.85z"/>
   <path class="fil5" d="M3562.76 2412.66l-60.15 0 -42.36 -52.3 -621.22 0 0 595.92 50.93 44.33 0 110.93 -239.75 0 0 -108.96 37.03 -46.3 0 -843.9c-121.9,45.99 -266.05,80.69 -435.04,99.94l0 323.2 50.93 44.33 0 110.93 -239.75 0 0 -108.96 37.03 -46.3 0 -532.42 -421.89 0 0 595.92 50.93 44.33 0 110.93 -239.75 0 0 -108.96 37.03 -46.3 0 -1381.67 573.67 0 0 -108.48c464.97,-362.78 971.49,-193.42 1099.54,88.06 50.69,111.41 66.03,244.62 33.53,377.68l383.78 0 33.07 -47.64 89.67 0 0 276.47 -89.67 0 -33.07 -69.99 -446.92 0c-65.21,115.66 -172.62,224.24 -331.31,310.12l0 165.44 621.22 0 42.36 -58.87 60.15 0 0 262.52zm-1462.34 -560.9l0 -475.56 -421.89 0 0 475.56 421.89 0zm301.84 203.65l-60.15 0 -42.36 -52.3 -60.84 0 0 82.37c180.06,-9.19 328.19,-41.04 448.34,-87.96l0 -422.9 419.97 0c20.76,-81.72 19.15,-162.97 -0.43,-235.02 -75.77,-278.75 -416.97,-442.03 -867.88,-147.05l0 24.82 217.86 0 33.07 -47.64 89.67 0 0 276.47 -89.67 0 -33.07 -69.99 -217.86 0 0 475.56 60.84 0 42.36 -58.87 60.15 0 0 262.52zm634.16 -321.95l-197.38 0 0 188.31c87.12,-54.87 151.93,-119.6 197.38,-188.31z"/>
  </g>
 </g>
</svg>
