<?xml version="1.0" encoding="UTF-8"?>
<!DOCTYPE svg PUBLIC "-//W3C//DTD SVG 1.1//EN" "http://www.w3.org/Graphics/SVG/1.1/DTD/svg11.dtd">
<!-- Creator: CorelDRAW 2020 (64 Bit) -->
<svg xmlns="http://www.w3.org/2000/svg" xml:space="preserve" width="110.578mm" height="124.207mm" version="1.1" style="shape-rendering:geometricPrecision; text-rendering:geometricPrecision; image-rendering:optimizeQuality; fill-rule:evenodd; clip-rule:evenodd"
viewBox="0 0 343.39 385.72"
 xmlns:xlink="http://www.w3.org/1999/xlink"
 xmlns:xodm="http://www.corel.com/coreldraw/odm/2003">
 <defs>
  <style type="text/css">
   <![CDATA[
    .fil0 {fill:#28388F}
    .fil2 {fill:#BE1D2C}
    .fil1 {fill:white}
   ]]>
  </style>
 </defs>
 <g id="Camada_x0020_1">
  <metadata id="CorelCorpID_0Corel-Layer"/>
  <g id="_1928837885728">
   <path class="fil0" d="M171.7 0c-49.02,0 -95.18,0 -144.2,0 -15.57,0 -27.49,12.84 -27.49,26.4 0,36.27 0,70.76 0,107.02 6.31,113.37 70.53,203.5 171.7,252.29 101.18,-48.79 165.38,-138.92 171.7,-252.29 0,-36.27 0,-70.76 0,-107.02 0,-13.57 -11.92,-26.4 -27.49,-26.4 -49.02,0 -95.18,0 -144.2,0z"/>
   <path class="fil1" d="M171.7 374.75c92.83,-46.35 152.24,-128.81 161.2,-232.28 -51.5,-13.37 -105.51,-20.47 -161.2,-20.47 -55.67,0 -109.7,7.12 -161.2,20.47 8.95,103.46 68.36,185.93 161.2,232.28z"/>
   <polygon class="fil0" points="171.7,185.54 178.35,206.13 200,206.09 182.46,218.78 189.19,239.35 171.7,226.6 154.21,239.35 160.94,218.78 143.4,206.09 165.05,206.13 "/>
   <path class="fil2" d="M233.35 334.65l-198.25 -198.05c-8.26,1.8 -16.47,3.75 -24.6,5.87 8.95,103.46 68.36,185.93 161.2,232.28 22.61,-11.29 43.25,-24.73 61.65,-40.09l0 -0.01z"/>
   <path class="fil2" d="M142.19 122.66l147.96 147.82c23.83,-37.24 38.62,-80.4 42.75,-128 -51.5,-13.37 -105.51,-20.47 -161.2,-20.47 -9.9,0 -19.73,0.23 -29.52,0.67l0 -0.01z"/>
   <path class="fil1" d="M126.04 29.06c-0.44,3.04 -1.27,8.98 -1.68,11.94 -0.42,2.97 -0.42,2.97 -0.42,2.97 0,0 0,0 -4.91,-0.05 -4.91,-0.05 -14.74,-0.14 -19.65,-0.18 -4.91,-0.05 -4.91,-0.05 -5.28,0.04 -0.37,0.09 -1.11,0.26 -1.69,0.59 -0.58,0.34 -1,0.84 -1.37,2.96 -0.36,2.12 -0.65,5.85 -0.81,7.73 -0.16,1.88 -0.18,1.9 4.4,1.89 4.59,-0.01 13.78,-0.06 18.39,-0.08 4.6,-0.02 4.6,-0.02 4.33,2.75 -0.27,2.77 -0.79,8.32 -1.05,11.09 -0.27,2.77 -0.27,2.77 -4.98,2.8 -4.71,0.02 -14.14,0.07 -18.85,0.09 -4.71,0.02 -4.71,0.02 -5.37,5.13 -0.66,5.1 -1.99,15.3 -2.65,20.41 -0.66,5.1 -0.66,5.1 -4.89,5.09 -4.23,-0.01 -12.69,-0.03 -16.91,-0.05 -4.23,-0.01 -4.23,-0.01 -2.77,-10.39 1.46,-10.38 4.38,-31.13 6.19,-42.72 1.8,-11.59 2.48,-14.01 3.67,-16.27 1.19,-2.26 2.88,-4.35 4.82,-5.89 1.94,-1.53 4.13,-2.48 5.8,-3.06 1.66,-0.57 2.81,-0.75 4.49,-0.91 1.69,-0.16 3.93,-0.3 10.21,-0.17 6.28,0.13 16.63,0.51 22.55,0.72 5.93,0.21 7.43,0.23 8.18,0.24 0.75,0.01 0.75,0.01 0.74,0.09 -0.02,0.07 -0.05,0.22 -0.48,3.27l-0.02 -0.03zm8.22 61.4c1.93,-13.11 5.81,-39.34 7.75,-52.45 1.94,-13.11 1.94,-13.11 4.48,-13.2 2.54,-0.09 7.63,-0.28 13.01,-0.37 5.37,-0.09 11.03,-0.09 15.8,-0.09 4.77,0 8.65,0 11.71,0.37 3.06,0.37 5.29,1.1 7.6,2.17 2.31,1.07 4.68,2.48 6.5,4.4 1.83,1.92 3.11,4.33 3.67,7.65 0.57,3.31 0.44,7.51 0.02,11.27 -0.42,3.77 -1.1,7.1 -2.13,10.29 -1.03,3.2 -2.39,6.25 -3.95,8.54 -1.55,2.29 -3.29,3.79 -5.96,5 -2.67,1.21 -6.27,2.12 -9.91,2.58 -3.63,0.46 -7.28,0.46 -10.43,0.44 -3.15,-0.02 -5.8,-0.07 -7.58,-0.14 -1.78,-0.07 -2.69,-0.16 -3.15,-0.21 -0.46,-0.05 -0.46,-0.05 -1.03,4.45 -0.57,4.5 -1.71,13.51 -2.29,18 -0.57,4.49 -0.57,4.48 -4.63,4.47 -4.06,-0.01 -12.17,-0.02 -16.41,-0.03 -4.24,-0.01 -4.6,-0.02 -4.8,-0.02 -0.19,0 -0.21,0 -0.23,-0.01 -0.02,0 -0.03,-0.01 1.9,-13.12l0.03 0zm31.4 -46.34c-0.37,2.98 -1.11,8.91 -1.48,11.88 -0.37,2.97 -0.37,2.97 -0.36,2.97 0.02,0 0.05,0 1.47,0.03 1.43,0.03 4.25,0.09 6.31,0.06 2.07,-0.02 3.37,-0.13 4.46,-0.66 1.09,-0.53 1.94,-1.5 2.63,-2.57 0.69,-1.07 1.22,-2.23 1.57,-3.55 0.36,-1.33 0.55,-2.81 0.63,-4.07 0.08,-1.26 0.06,-2.3 -0.03,-3.12 -0.08,-0.81 -0.22,-1.41 -0.49,-1.92 -0.28,-0.51 -0.68,-0.95 -1.33,-1.27 -0.64,-0.32 -1.5,-0.52 -2.97,-0.66 -1.46,-0.14 -3.51,-0.21 -5.25,-0.23 -1.74,-0.02 -3.18,0.01 -3.93,0.02 -0.74,0.01 -0.8,0.01 -0.84,0.03 -0.03,0.01 -0.04,0.04 -0.05,0.06 0,0.02 0,0.04 -0.38,3.01l0.02 -0zm115.86 -15.06c-0.44,3.04 -1.27,8.98 -1.68,11.94 -0.42,2.97 -0.42,2.97 -0.42,2.97 0,0 0,0 -4.91,-0.05 -4.91,-0.05 -14.74,-0.14 -19.65,-0.18 -4.91,-0.05 -4.91,-0.05 -5.28,0.04 -0.37,0.09 -1.11,0.26 -1.69,0.59 -0.58,0.34 -1,0.84 -1.37,2.96 -0.36,2.12 -0.65,5.85 -0.81,7.73 -0.16,1.88 -0.18,1.9 4.4,1.89 4.59,-0.01 13.78,-0.06 18.39,-0.08 4.6,-0.02 4.6,-0.02 4.33,2.75 -0.27,2.77 -0.79,8.32 -1.05,11.09 -0.27,2.77 -0.27,2.77 -4.98,2.8 -4.71,0.02 -14.14,0.07 -18.85,0.09 -4.71,0.02 -4.71,0.02 -5.37,5.13 -0.66,5.1 -1.99,15.3 -2.65,20.41 -0.66,5.1 -0.66,5.1 -4.89,5.09 -4.23,-0.01 -12.69,-0.03 -16.91,-0.05 -4.23,-0.01 -4.23,-0.01 -2.77,-10.39 1.46,-10.38 4.38,-31.13 6.19,-42.72 1.8,-11.59 2.48,-14.01 3.67,-16.27 1.19,-2.26 2.88,-4.35 4.82,-5.89 1.94,-1.53 4.13,-2.48 5.8,-3.06 1.66,-0.57 2.81,-0.75 4.49,-0.91 1.69,-0.16 3.93,-0.3 10.21,-0.17 6.28,0.13 16.63,0.51 22.55,0.72 5.93,0.21 7.43,0.23 8.18,0.24 0.75,0.01 0.75,0.01 0.74,0.09 -0.02,0.07 -0.05,0.22 -0.48,3.27l-0.02 -0.03z"/>
  </g>
 </g>
</svg>
