<?xml version="1.0" encoding="UTF-8"?>
<!DOCTYPE svg PUBLIC "-//W3C//DTD SVG 1.1//EN" "http://www.w3.org/Graphics/SVG/1.1/DTD/svg11.dtd">
<!-- Creator: CorelDRAW 2020 (64 Bit) -->
<svg xmlns="http://www.w3.org/2000/svg" xml:space="preserve" width="319.113mm" height="420.622mm" version="1.1" style="shape-rendering:geometricPrecision; text-rendering:geometricPrecision; image-rendering:optimizeQuality; fill-rule:evenodd; clip-rule:evenodd"
viewBox="0 0 39266.76 51757.47"
 xmlns:xlink="http://www.w3.org/1999/xlink"
 xmlns:xodm="http://www.corel.com/coreldraw/odm/2003">
 <defs>
  <style type="text/css">
   <![CDATA[
    .fil4 {fill:#05A54E}
    .fil0 {fill:#153268}
    .fil2 {fill:#EC2227}
    .fil3 {fill:#FBEE23}
    .fil1 {fill:#153268;fill-rule:nonzero}
   ]]>
  </style>
 </defs>
 <g id="Camada_x0020_1">
  <metadata id="CorelCorpID_0Corel-Layer"/>
  <g id="_2569964538080">
   <path class="fil0" d="M19626.99 37858.48c-9323.46,0 -16881.62,-7558.16 -16881.62,-16881.62 0,-9323.46 7558.16,-16881.62 16881.62,-16881.62 9323.46,0 16881.62,7558.16 16881.62,16881.62 0,9323.46 -7558.16,16881.62 -16881.62,16881.62zm0 -32432.47c-1145.58,0 -2261.8,125.02 -3336.86,360.09l2894.77 2114.27 0 1519.33 -4340.07 -3243.32c-3186.94,1028.91 -5923.79,3058.66 -7841.1,5718.43l1621.6 5338.55 -1481.36 -531.75 -1007.19 -3464.91c-1116.39,1941.21 -1825.75,4146.14 -2011.64,6498.49l2823.22 -1894.04 1378.24 499.21 -4247.51 2869.93c40.08,2720.41 779.5,5271.05 2045.12,7481.72l5595.62 875.72 -1065.64 1073.74 -3650.04 -582.03c1320.72,1832.78 3030.72,3366.25 5008.85,4479.44l-452.84 -3230 1020.12 -911.59 751.02 4802.6c1924.61,853.36 4054.64,1327.79 6295.67,1327.79 2241.03,0 4371.06,-474.43 6295.67,-1327.79l751.02 -4802.6 1020.12 911.59 -452.84 3230c1978.14,-1113.19 3688.14,-2646.67 5008.85,-4479.44l-3650.04 582.03 -1065.64 -1073.74 5595.62 -875.72c1265.63,-2210.68 2005.05,-4761.31 2045.12,-7481.72l-4247.51 -2869.93 1378.24 -499.21 2823.22 1894.04c-185.89,-2352.36 -895.25,-4557.29 -2011.64,-6498.49l-1007.19 3464.91 -1481.36 531.75 1621.6 -5338.55c-1917.31,-2659.77 -4654.16,-4689.53 -7841.1,-5718.43l-4340.07 3243.32 0 -1519.33 2894.77 -2114.27c-1075.06,-235.07 -2191.28,-360.09 -3336.86,-360.09zm0 21543.76l3677.73 0 -1237.17 -1224.14 -2440.56 0 -2440.56 0 -1237.17 1224.14 3677.73 0zm480.37 -11766.11l0 1536.7 3815.7 2747.8 1354.37 -455.79 -5170.07 -3828.71zm3666.01 10659.2l-911.59 -937.65 1471.61 -4401.69 1393.44 -429.75 -1953.46 5769.09zm-4626.76 -10659.2l0 1536.7 -3815.7 2747.8 -1354.37 -455.79 5170.07 -3828.71zm-3666.01 10659.2l911.59 -937.65 -1471.61 -4401.69 -1393.44 -429.75 1953.46 5769.09z"/>
   <polygon class="fil0" points="19626.99,0 19983.22,1103.61 21142.9,1101.38 20203.4,1781.22 20563.87,2883.45 19626.99,2200.01 18690.1,2883.45 19050.57,1781.22 18111.07,1101.38 19270.76,1103.61 "/>
   <path class="fil0" d="M4477.78 51757.47l2604.56 0 401.04 -3340 6489.71 0 223.8 -1863.8 -6489.71 0 117.91 -981.96 6489.71 0 242.7 -2021.28 -9094.27 0 -985.46 8207.04zm20990.83 0l2604.56 0 401.04 -3340 6489.71 0 223.8 -1863.8 -6489.71 0 117.91 -981.96 6489.71 0 242.7 -2021.28 -9094.27 0 -985.46 8207.04zm-10963.28 0l2751.05 0 401.04 -3340 5932.82 0c887.83,0 1611.95,-724.12 1611.95,-1611.95l0 -1643.13c0,-887.83 -919.48,-1611.95 -1807.29,-1611.95l-7904.12 0 -985.46 8207.04zm3493.8 -6185.76l5173.47 0 -146.49 981.96 -5144.88 0 117.91 -981.96z"/>
   <path class="fil1" d="M761.19 23064.67l-42.05 -552.33 -702.36 53.48 -16.78 -220.41 1580.29 -120.33 66.11 868.31 -169.29 12.88 -49.33 -647.89 -540.47 41.15 42.06 552.33 -168.18 12.81zm299.65 1686.18l-97.34 -528.68 -558.65 102.86 114.71 622.96 -164.79 30.34 -154.74 -840.36 1558.67 -287 153.73 834.88 -166.98 30.74 -113.7 -617.48 -502.01 92.44 97.34 528.7 -166.25 30.6zm-490.17 1153.51l1525.97 -428.04 121.41 432.83c46.25,164.91 22.91,316.91 -70.11,455.68 -93.05,138.76 -235.42,235.05 -427.51,288.93l-217.13 60.91c-192.81,54.08 -364.49,45.89 -515.41,-24.45 -150.91,-70.34 -249.56,-188.12 -295.81,-353.03l-121.4 -432.83zm1422.2 -169.35l-1201.18 336.93 61.71 219.99c29.41,104.81 99.12,175.94 208.26,212.84 109.59,37.17 236.81,35.44 381.32,-5.09l218.92 -61.4c142.73,-40.04 250.87,-104.33 325.13,-193.08 74.38,-88.37 96.94,-185.37 67.54,-290.2l-61.71 -219.99zm147.81 2532.06l-199.73 -499.09 -527.38 211.06 235.37 588.08 -155.57 62.26 -317.48 -793.31 1471.41 -588.87 315.41 788.13 -157.63 63.09 -233.29 -582.91 -473.9 189.66 199.75 499.1 -156.95 62.8zm452.7 1119.51l-610.04 305.95 -99.1 -197.58 1415.7 -710.02 209.34 417.43c68.29,136.15 86.21,258.91 54.12,368.12 -32.26,108.86 -113.24,196.03 -242.75,260.98 -74.05,37.14 -147.48,52.36 -220.26,45.63 -72.94,-7.05 -140.77,-35.38 -203.8,-84.82 11.91,85.05 -2.79,157.68 -43.76,218.54 -40.96,60.86 -103.71,112.27 -188.06,154.58l-123.53 61.96c-43.51,21.82 -81.85,46.46 -115.21,73.57 -33.37,27.13 -55.1,56.74 -65.19,88.81l-22.26 11.16 -101.92 -203.23c10.09,-32.92 35.81,-63.68 75.81,-92.47 40.51,-28.62 84.18,-55.09 130.67,-78.41l119.88 -60.12c79.05,-39.65 132.32,-89.22 160.16,-148.9 27.82,-59.68 25.27,-121.98 -7.38,-187.07l-122.41 -244.08zm150.76 -75.61l105.43 210.21c40.98,81.69 92.87,131.32 155.52,148.51 62.66,17.2 133.6,6.15 212.63,-33.48 81.03,-40.64 134.47,-91.55 159.98,-151.72 25.84,-60.34 19.61,-129.12 -19.2,-206.5l-110.25 -219.84 -504.11 252.83zm793.08 2289.56l-254.28 -399.19 -399.26 118.66 -123.35 -193.64 1592.19 -450.4 115.17 180.8 -1083.43 1249.1 -123.35 -193.64 276.3 -311.69zm-79.64 -451.41l201.2 315.84 445.13 -500.26 -3.59 -5.65 -642.74 190.06zm1447.87 2161.33l-3.56 5.67c-120.24,99.49 -242.08,140.89 -366.02,124.14 -123.42,-16.67 -234.18,-86.64 -332.57,-209.66 -100.8,-127.27 -140.84,-261.11 -119.36,-401.17 21.25,-140.36 105.42,-269.06 252.51,-386.12l344.18 -273.91c146.5,-116.59 290.36,-170.3 431.86,-161.34 141.78,8.71 262.12,75.8 362.06,201.38 100.85,126.74 146.43,251.43 137.47,374.4 -9.02,123.51 -77.36,233.92 -205.37,331.99l-6.62 2.42 -132.09 -165.98c88.66,-70.56 138.27,-141.85 149.59,-213.55 10.8,-71.73 -14.3,-146.23 -75.84,-223.56 -60.61,-76.17 -135.83,-112.22 -225.65,-108.16 -90.36,4.01 -188.46,48.37 -295.44,133.51l-346.51 275.75c-107.85,85.83 -173.51,172.75 -197,260.77 -23.55,88.53 -4.16,171.38 57.61,248.99 59.69,75 124.91,115.21 196.04,119.85 70.88,4.36 151.9,-29.25 242.61,-101.43l132.09 165.99zm-638.55 -29.79l-57.06 29.74c20.09,37.19 27.14,75.26 21.07,114.76 -6.09,39.5 -32.12,77.78 -78.05,114.34 -55.52,44.17 -116.65,58.65 -182.58,43.22 -66.16,-15.71 -130.15,-62.12 -191.45,-139.16l92.74 -80.93c24.51,30.81 51.45,49.75 80.67,57.82 29.29,7.56 58.42,0.04 87.5,-23.1 28.49,-22.68 41.31,-47.13 38.93,-72.78 -2.58,-25.94 -17.93,-60.74 -46.78,-104.73l131.84 -68.82 103.18 129.65zm1683.2 1282.2l-327.47 -341.73 -368.32 194.47 -158.84 -165.77 1473.31 -753.18 148.31 154.77 -818.13 1436.91 -158.84 -165.76 210 -359.71zm-166.41 -427.12l259.09 270.39 338.67 -577.68 -4.63 -4.84 -593.14 312.13zm1387.02 -612.33c-48.28,46.25 -101.64,71.65 -159.82,76.99 -58.45,5.07 -106.95,-12.26 -145.76,-52.76 -31.09,-32.46 -51.63,-79.67 -61.36,-141.36 -10.25,-61.71 -26.15,-104.09 -48.26,-127.17 -17.73,-18.51 -40.99,-25.04 -69.98,-20.4 -29,4.64 -56.64,19.29 -82.39,43.97l-61.55 -108.26c47.21,-45.23 100.32,-70.9 159.83,-76.99 59.52,-6.09 108.55,10.73 147.38,51.23 24.92,26.03 43.65,71.89 56.71,137.07 12.54,65.17 29.99,109.15 52.1,132.22 16.7,17.44 39.94,23.98 69.99,19.88 30.05,-4.61 58.21,-19.24 84.51,-44.45l58.61 110.04zm574.33 2436.76c-123.27,141.93 -257.4,219.3 -402.94,231.65 -145.28,12.59 -282.29,-37.03 -411.28,-148.56 -127.1,-110.88 -193.72,-238.13 -199.91,-382.29 -6.47,-144.37 51.91,-287.53 175.19,-429.46l285.51 -328.73c122.78,-141.37 256.35,-219.24 400.96,-233.89 144.57,-15.17 279.84,32.45 406.63,142.57 128.73,111.82 196.82,240.81 204.75,387.46 7.67,146.42 -50.13,290.57 -173.4,432.51l-285.51 328.74zm121.94 -475.23c90.38,-104.06 136.39,-202.37 138.81,-295.25 2.17,-92.58 -38.11,-174.82 -120.85,-246.69 -80.23,-69.67 -165.05,-96.09 -254.73,-79.5 -89.94,16.87 -179.98,76.92 -270.37,180.98l-287.72 331.26c-91.35,105.18 -138.94,203.6 -143,295.52 -3.54,91.89 34.24,172.45 114.47,242.14 82.46,71.61 169.76,99.71 260.84,84.35 91.11,-15.36 182.98,-75.81 274.81,-181.56l287.72 -331.25zm1221.4 1370.29l-337.06 526.19 -186.14 -119.24 854.89 -1334.54 433.58 277.75c126.38,80.97 201.7,181.72 226.17,301.94 23.95,120.36 -2.61,241.01 -79.96,361.75 -77.95,121.7 -176.65,196.56 -295.58,224.49 -119.25,27.74 -242.06,1.13 -368.45,-79.83l-247.45 -158.51zm91.59 -142.96l247.45 158.51c71.95,46.08 142.32,56.76 211.21,31.18 68.99,-25.07 127.14,-75.18 174.83,-149.64 48.09,-75.08 69.72,-149.47 64.86,-223.16 -4.64,-74.01 -43.67,-134.31 -116.26,-180.8l-247.45 -158.51 -334.65 522.42zm2068.58 1263.92l-477.8 -246.36 -260.31 504.89 563 290.27 -76.78 148.93 -759.48 -391.58 726.29 -1408.65 754.53 389.02 -77.8 150.91 -558.06 -287.73 -233.93 453.7 477.81 246.36 -77.47 150.24zm1069.07 544.5l-253.57 633.62 -205.22 -82.14 588.45 -1470.37 433.57 173.5c141.41,56.6 236.24,136.59 284.66,239.59 48.06,102.87 45.28,221.81 -8.55,356.32 -30.77,76.92 -75.64,137 -134.55,180.26 -59.27,43.1 -128.82,66.89 -208.78,71.7 65.34,55.75 102.5,119.85 112.21,192.56 9.72,72.72 -3.13,152.82 -38.19,240.43l-51.35 128.3c-18.08,45.18 -30.43,89.06 -37.41,131.48 -6.98,42.43 -3.61,79 10.11,109.7l-9.25 23.11 -211.08 -84.47c-14.27,-31.33 -15.44,-71.41 -4.6,-119.49 11.33,-48.3 26.44,-97.06 45.77,-145.35l49.82 -124.51c32.85,-82.1 39.83,-154.53 21.08,-217.66 -18.75,-63.11 -61.99,-108.04 -129.6,-135.1l-253.52 -101.47zm62.67 -156.58l218.33 87.38c84.86,33.96 156.61,36.67 214.89,7.97 58.3,-28.7 104.06,-84.02 136.91,-166.09 33.69,-84.17 39.92,-157.71 19.09,-219.66 -20.68,-62.3 -70.96,-109.64 -151.34,-141.8l-228.33 -91.38 -209.54 523.58zm2346.84 1682.53l-214.03 -59.53 -278.01 -1290.84 -7.05 0.34 -312.68 1124.24 -212.96 -59.22 424.68 -1526.91 212.96 59.24 278.92 1287.62 6.73 0.73 312.09 -1122.1 214.05 59.54 -424.69 1526.9zm1786.74 -33.24l-465.47 -85.7 -185.05 373.15 -225.81 -41.58 754.68 -1472.56 210.82 38.82 176.65 1644.04 -225.8 -41.58 -40.02 -414.59zm-384.76 -249.15l368.29 67.81 -63.1 -666.65 -6.58 -1.22 -298.6 600.05zm2237.38 563.31l6.29 0.48 477.14 -1260.65 281.92 21.47 -120.32 1580.29 -218.94 -16.67 86.68 -1138.36 -6.57 -1.62 -449.43 1111.87 -150.79 -11.48 -279.74 -1184.9 -6.77 0.62 -87.99 1155.77 -218.93 -16.67 120.33 -1580.29 287.46 21.88 279.67 1318.27zm1670.61 330.55l-48.76 -1584.12 438.55 -13.5c151.5,-4.66 271.05,27.33 358.27,95.65 87.61,68.66 133.6,173.92 137.98,316.15 2.28,73.89 -14.27,140.19 -49.64,198.5 -35.01,58.33 -85.32,102.25 -150.6,131.02 92.57,12.38 164.84,54.02 216.81,124.53 51.98,70.51 79.48,154.78 82.49,252.81 4.5,145.95 -34.05,258.26 -115.61,337.34 -81.21,79.06 -195.51,120.87 -342.94,125.41l-526.55 16.21zm198.21 -745.39l17.58 571.11 305.61 -9.41c79.85,-2.46 140.74,-28.49 182.7,-78.1 41.95,-49.61 61.75,-119.36 58.98,-209.21 -2.69,-87.27 -25.99,-156.05 -69.94,-207.11 -44.3,-50.68 -104.57,-76.33 -181.52,-76.93l-11.89 0.36 -301.52 9.29zm-4.9 -158.93l251.4 -7.74c70.85,-4.42 125.86,-29.15 164.6,-74.21 39.13,-45.05 57.26,-108.06 54.79,-188.27 -2.69,-87.27 -26.98,-151.93 -72.5,-194.02 -45.53,-42.08 -111.19,-61.98 -196.6,-59.36l-217.61 6.71 15.91 516.9zm2598.05 -931.88l126.77 1040.72c21.21,174.05 -11.26,316.11 -97.04,426.11 -86.15,110.06 -207.45,174.24 -363.4,193.61 -153.47,18.32 -284.45,-15.5 -392.3,-101.92 -108.25,-86.74 -173.13,-216.94 -194.25,-390.25l-126.78 -1040.72 219.43 -26.73 126.78 1040.71c14.82,121.7 54.08,213.48 117.41,275.75 63.68,61.84 139.77,87.38 229.39,76.46 92.19,-11.22 162.19,-54.19 210.62,-129.69 48.08,-75.47 64.88,-174.08 49.97,-296.51l-126.78 -1040.72 220.16 -26.81zm2038.53 660.14l3.59 5.65c37.97,151.38 22.86,279.16 -45.64,383.8 -68.22,104.2 -179.06,174.02 -332.48,209.8 -158.27,36.15 -296.3,14.63 -413.45,-65.09 -117.51,-79.64 -197.41,-211.04 -239.68,-394.2l-98.92 -428.62c-42.11,-182.43 -28.62,-335.4 40.42,-459.22 68.94,-124.21 181.33,-203.91 337.71,-240 157.82,-36.42 289.98,-23.83 397.11,37.22 107.57,61.34 177.78,170.58 211.13,328.36l-0.66 7.01 -206.69 47.71c-25.48,-110.41 -68.45,-185.89 -128.28,-227 -60.09,-40.64 -138.14,-50.08 -234.42,-27.86 -94.85,21.89 -159.79,74.24 -194.81,157.05 -35.3,83.26 -37.53,190.91 -6.79,324.14l99.6 431.5c30.98,134.3 81.14,231 150.45,290.11 69.76,59.4 152.88,77.58 249.52,55.27 93.41,-21.56 157.79,-63.1 192.62,-125.29 34.47,-62.09 39.03,-149.69 12.97,-262.64l206.7 -47.71zm1559.48 -452.34l-447.21 154.97 23.01 415.87 -216.94 75.18 -69.6 -1653.21 202.55 -70.19 964.37 1343.15 -216.92 75.17 -239.26 -340.95zm-457.59 -27.02l353.84 -122.62 -383.63 -548.85 -6.32 2.2 36.12 669.27zm2703.85 -540.5l-197.85 101.06 -1078.41 -761.99 -4.95 5.03 530.84 1039.18 -196.86 100.56 -720.96 -1411.39 196.86 -100.56 1076.9 759.01 5.44 -4.02 -529.82 -1037.21 197.85 -101.06 720.96 1411.39zm1301.07 -1214.13l-399.19 254.28 118.66 399.26 -193.64 123.35 -450.4 -1592.19 180.8 -115.17 1249.1 1083.43 -193.64 123.35 -311.69 -276.3zm-451.41 79.64l315.84 -201.2 -500.26 -445.13 -5.65 3.59 190.06 642.74zm2093.26 -743.84l-980.41 -1245.24 353.19 -278.08c134.57,-105.95 283.91,-142.68 447.74,-109.96 163.83,32.73 307.34,127.31 430.76,284.05l139.5 177.19c123.87,157.33 182.14,319.03 175.04,485.38 -7.09,166.35 -78.06,302.62 -212.63,408.57l-353.19 278.08zm-701.72 -1248.57l771.73 980.18 179.52 -141.34c85.53,-67.35 124.49,-159 116.73,-273.95 -7.69,-115.47 -58.07,-232.31 -150.91,-350.24l-140.65 -178.63c-91.71,-116.48 -192.55,-191.7 -302.99,-226.26 -110.14,-34.81 -208.38,-18.46 -293.92,48.89l-179.52 141.35zm2280.83 -1120.54l-388.15 371.93 393.01 410.14 457.36 -438.25 115.93 120.97 -616.96 591.19 -1096.52 -1144.3 612.92 -587.34 117.48 122.59 -453.33 434.39 353.17 368.56 388.14 -371.93 116.96 122.05zm1462.68 -1655.64l-342.66 435.21 553.43 435.74 -136.75 173.67 -1245.23 -980.41 538.7 -684.21 133.4 105.04 -401.95 510.52 425.88 335.31 342.67 -435.23 132.51 104.35zm400.9 -2113.11l882.82 565.5c147.65,94.58 236.44,210.13 266.55,346.34 29.9,136.51 2.07,270.91 -82.39,403.43 -83.67,129.94 -193.21,209.33 -328.53,237.36 -135.82,28.15 -277.51,-4.81 -424.53,-98.99l-882.82 -565.51 119.24 -186.13 882.81 565.5c103.24,66.13 198.98,94.37 287.33,85.24 88.24,-9.66 156.42,-52.04 205.11,-128.05 50.09,-78.21 61.6,-159.53 34.27,-244.97 -27.53,-85.15 -92.8,-160.94 -196.66,-227.47l-882.82 -565.5 119.63 -186.75zm1020.23 -1511.06l-192.55 373.46 1257.74 648.48 -101.81 197.47 -1257.74 -648.48 -191.02 370.48 -150.91 -77.8 485.39 -941.4 150.9 77.8zm1241.03 -1163.42l-199.75 499.09 527.37 211.06 235.36 -588.08 155.56 62.25 -317.48 793.31 -1471.42 -588.87 315.43 -788.15 157.63 63.09 -233.29 582.91 473.9 189.67 199.75 -499.1 156.95 62.82zm1038.09 -711.23l-1523.54 -436.63 120.88 -421.78c41.75,-145.7 108.68,-249.8 200.34,-312.04 92.12,-62.5 206.38,-74.19 343.16,-35 71.07,20.38 129.17,56.34 173.93,107.82 44.86,51.13 71.36,112.43 78.85,183.37 40.02,-84.38 101.71,-140.5 184.71,-168.5 83.01,-28.01 171.64,-28.5 265.92,-1.48 140.36,40.22 235.58,111.19 286.02,212.97 50.54,101.45 55.5,223.05 14.86,364.84l-145.14 506.42zm-649.44 -416.07l549.27 157.41 84.24 -293.92c22,-76.8 15.79,-142.74 -18.67,-197.81 -34.45,-55.09 -94.85,-95.2 -181.28,-119.97 -83.92,-24.04 -156.54,-22.83 -218.56,3.46 -61.77,26.74 -104.58,76.3 -128.62,149.42l-3.27 11.43 -83.11 289.99zm-152.85 -43.81l69.29 -241.78c17.41,-68.83 10.62,-128.75 -20.48,-179.41 -30.97,-51 -85.46,-87.48 -162.6,-109.59 -83.92,-24.04 -152.93,-20.62 -206.88,9.88 -53.97,30.53 -92.94,87 -116.48,169.14l-59.99 209.28 497.13 142.47zm938.27 -2580.16c185.14,32.58 320.53,107.71 406.08,226.1 85.62,118.05 113.64,261.04 84.45,429.05 -29.58,166.04 -104.36,288.69 -224.74,368.24 -120.43,79.9 -273.21,103.56 -458.35,70.99l-428.83 -75.45c-184.41,-32.45 -319.94,-106.84 -406.97,-223.25 -87.45,-116.12 -116.29,-256.61 -87.19,-421.99 29.54,-167.94 105.06,-292.72 226.68,-375.06 121.56,-81.98 274.89,-106.66 460.05,-74.09l428.83 75.45zm-470.17 140.2c-135.74,-23.88 -243.7,-12.71 -324.56,33.05 -80.49,45.82 -130.24,122.69 -149.23,230.63 -18.41,104.64 2.62,190.95 63.03,259.29 60.77,68.4 158.62,114.67 294.37,138.55l432.11 76.03c137.21,24.14 246.08,14.25 326.97,-29.59 80.6,-44.3 130.2,-118.18 148.61,-222.83 18.93,-107.56 -1.96,-196.87 -62.03,-267.03 -60.07,-70.19 -159.2,-117.8 -297.14,-142.07l-432.13 -76.03zm1027.53 -1251.76l48.68 -639.38 167.08 12.72 -65.46 859.79 -1580.29 -120.32 16.78 -220.41 1413.21 107.59z"/>
   <path class="fil2" d="M22022.57 1496.8c9708.95,1181.71 17230.26,9452.07 17230.26,19480.05l-2131.67 0c0,-8950.34 -6721.78,-16329.72 -15392.4,-17368.07l293.81 -2111.98zm-4649.3 2130c-8597.19,1105.77 -15240.46,8451.98 -15240.46,17350.05l-2131.67 0c0,-10005.44 7487.35,-18261.72 17164.62,-19472.56l207.5 2122.51z"/>
   <path class="fil3" d="M21920.87 2227.94c9349.48,1132.1 16594.01,9094 16594.01,18748.91l-1393.71 0c0,-8950.34 -6721.78,-16329.72 -15392.4,-17368.07l192.11 -1380.84zm-4547.6 1398.87c-8597.19,1105.77 -15240.46,8451.98 -15240.46,17350.05l-1393.71 0c0,-9622.1 7195.09,-17563.53 16498.48,-18738l135.69 1387.95z"/>
   <path class="fil4" d="M21822.97 2931.6c9003.57,1084.34 15981.7,8749.37 15981.7,18045.25l-683.5 0c0,-8950.34 -6721.78,-16329.72 -15392.4,-17368.07l94.21 -677.18zm-4449.7 695.21c-8597.19,1105.77 -15240.46,8451.98 -15240.46,17350.05l-683.5 0c0,-9253.16 6913.84,-16891.47 15857.39,-18030.92l66.57 680.87z"/>
  </g>
 </g>
</svg>
