<?xml version="1.0" encoding="UTF-8"?>
<!DOCTYPE svg PUBLIC "-//W3C//DTD SVG 1.1//EN" "http://www.w3.org/Graphics/SVG/1.1/DTD/svg11.dtd">
<!-- Creator: CorelDRAW 2020 (64 Bit) -->
<svg xmlns="http://www.w3.org/2000/svg" xml:space="preserve" width="164.068mm" height="43.9268mm" version="1.1" style="shape-rendering:geometricPrecision; text-rendering:geometricPrecision; image-rendering:optimizeQuality; fill-rule:evenodd; clip-rule:evenodd"
viewBox="0 0 6668.65 1785.43"
 xmlns:xlink="http://www.w3.org/1999/xlink"
 xmlns:xodm="http://www.corel.com/coreldraw/odm/2003">
 <defs>
  <style type="text/css">
   <![CDATA[
    .str0 {stroke:#373435;stroke-width:8.13;stroke-miterlimit:22.9256;stroke-opacity:0.149020}
    .fil7 {fill:#913032;fill-rule:nonzero}
    .fil0 {fill:#17426B;fill-rule:nonzero}
    .fil8 {fill:#FEFEFE;fill-opacity:0.149020}
    .fil2 {fill:url(#id0);fill-rule:nonzero}
    .fil4 {fill:url(#id1);fill-rule:nonzero}
    .fil3 {fill:url(#id2);fill-rule:nonzero}
    .fil5 {fill:url(#id3);fill-rule:nonzero}
    .fil6 {fill:url(#id4);fill-rule:nonzero}
    .fil1 {fill:url(#id5);fill-rule:nonzero}
   ]]>
  </style>
  <radialGradient id="id0" gradientUnits="userSpaceOnUse" gradientTransform="matrix(7.59178E-17 -1.23983 1.23984 7.59184E-17 171 1387)" cx="745.09" cy="463.02" r="417.37" fx="745.09" fy="463.02">
   <stop offset="0" style="stop-opacity:1; stop-color:#E63338"/>
   <stop offset="1" style="stop-opacity:1; stop-color:#913032"/>
  </radialGradient>
  <radialGradient id="id1" gradientUnits="userSpaceOnUse" gradientTransform="matrix(-0.00318771 -0.976635 0.976643 -0.00318774 -249 2628)" xlink:href="#id0" cx="1181.72" cy="1469" r="325.17" fx="1181.72" fy="1469">
  </radialGradient>
  <radialGradient id="id2" gradientUnits="userSpaceOnUse" gradientTransform="matrix(-0.934986 -0.920888 0.920893 -0.934991 1586 2823)" cx="1234.36" cy="871.34" r="255.18" fx="1234.36" fy="871.34">
   <stop offset="0" style="stop-opacity:1; stop-color:#006EA8"/>
   <stop offset="1" style="stop-opacity:1; stop-color:#17426B"/>
  </radialGradient>
  <radialGradient id="id3" gradientUnits="userSpaceOnUse" gradientTransform="matrix(-0.156457 -1.00601 1.00601 -0.156457 1226 1845)" xlink:href="#id2" cx="1393.75" cy="383.06" r="264.96" fx="1393.75" fy="383.06">
  </radialGradient>
  <radialGradient id="id4" gradientUnits="userSpaceOnUse" gradientTransform="matrix(0.219996 -0.901659 0.901665 0.219997 -552 767)" xlink:href="#id2" cx="183.23" cy="771.04" r="316.49" fx="183.23" fy="771.04">
  </radialGradient>
  <radialGradient id="id5" gradientUnits="userSpaceOnUse" gradientTransform="matrix(-0.220999 -1.13267 1.13267 -0.220999 -517 2234)" xlink:href="#id0" cx="684.85" cy="1194.49" r="372.07" fx="684.85" fy="1194.49">
  </radialGradient>
 </defs>
 <g id="Camada_x0020_1">
  <metadata id="CorelCorpID_0Corel-Layer"/>
  <g id="Rio_x0020_de_x0020_Janeiro.cdr">
   <path class="fil0" d="M3941.65 351.58c183.47,-0.03 366.95,-0.04 550.43,-0.03 34.99,0 40.89,8.82 27.1,40.24 -30.02,68.41 -61.53,136.22 -89.22,205.56 -10.15,25.42 -24.51,31.48 -49.29,31.45 -286.54,-0.35 -573.07,0.78 -859.6,-0.31 -50.85,-0.19 -89.66,18.79 -118.94,57.25 -23.11,30.34 -15.16,62.76 27.63,63.01 183.47,1.09 366.95,0.83 550.42,0.68 35.2,-0.03 37.8,5.25 23.33,38.11 -28.86,65.53 -57.92,131.07 -83.43,197.92 -9.87,25.88 -23.46,35.01 -49.76,34.93 -165.52,-0.48 -331.03,-0.01 -496.55,0.14 -17.96,0.02 -36.04,1.37 -53.85,-0.24 -52.58,-4.75 -82.17,25.77 -105.54,66.61 -2.71,4.72 -5.35,9.62 -7.03,14.77 -3.17,9.72 -5.63,19.68 -8.38,29.55 9.36,2.39 18.71,6.87 28.07,6.87 348.21,0.34 696.43,0.26 1044.64,0.25 36.41,0 41.67,-5.04 55.01,-37.87 27.24,-67.05 55.75,-133.59 84.26,-200.11 9.11,-21.26 24.33,-30.31 49.53,-30.22 268.57,1.02 537.15,0.93 805.73,0.53 63.73,-0.09 126,-7.68 181.56,-43.72 41.38,-26.83 69.21,-62.26 77.28,-111.76 4.93,-30.28 -9.66,-54.69 -37.01,-68.37 -32.05,-16.05 -65.92,-17.61 -100.39,-17.64 -269.36,-0.26 -538.71,-0.52 -808.07,-0.76 -5.47,-0 -10.93,0.28 -16.39,0.11 -26.03,-0.82 -31.49,-7.54 -21.37,-31.83 21.57,-51.72 44.6,-102.82 67.09,-154.15 10,-22.81 18.51,-46.51 30.93,-67.92 5.6,-9.64 18.62,-15.64 29.3,-21.37 4.88,-2.61 12.26,-0.63 18.5,-0.63 259.21,-0 518.42,-0.16 777.63,0.13 69.55,0.08 139.11,2.34 206.14,23.9 71.82,23.1 135.9,58.25 168,130.81 11.64,26.32 17.5,57.14 18.05,86.05 1.61,85.38 -29.57,161.91 -74.21,232.85 -72.15,114.66 -177.01,191.14 -297.12,248.97 -13.29,6.4 -28.02,10.41 -40.09,18.49 -27.63,18.52 -5.82,34.13 9.71,49.34 4.47,4.37 404.9,-4.63 444.53,-6.6 90.73,-4.51 175.1,-35.26 230.64,-114.74 18.98,-27.16 35.18,-57.53 46.23,-88.71 30.42,-85.83 56.99,-173.02 85.95,-259.39 29.2,-87.1 58.85,-174.07 89.43,-260.69 21.43,-60.69 22.27,-60.38 87.77,-60.39 64.02,-0 128.04,-0.02 192.07,-0.05 35.06,-0.02 37.78,5.9 25.69,38.06 -16.69,44.44 -30.57,89.93 -45.66,134.98 -17.31,51.69 -34.7,103.34 -51.9,155.06 -15.72,47.29 -31.47,94.57 -46.78,142 -41.03,127.1 -83.36,253.41 -174.7,355.93 -59.52,66.81 -129.92,118.33 -211.32,155.19 -132.73,60.11 -272.97,78.87 -417.23,77.94 -147.56,-0.95 -295.12,-0.61 -442.68,0.15 -25.3,0.13 -38.2,-6.24 -46.23,-33.38 -20.53,-69.36 -46.22,-137.19 -69.44,-205.77 -6.24,-18.42 -18.1,-24.43 -37.24,-24.36 -156.15,0.56 -312.3,0.51 -468.45,0.12 -24.27,-0.06 -39.62,6.34 -49.75,31.88 -27.82,70.16 -59.98,138.59 -88.89,208.35 -7.8,18.84 -19.49,23.15 -37.83,23.05 -99.93,-0.53 -199.87,-0.24 -299.81,-0.24 -462.99,0 -925.97,0 -1388.96,-0.01 -47.23,0 -48.98,-3.22 -30.79,-47.5 39.04,-95.03 77.41,-190.34 116.45,-285.37 42.6,-103.68 85.63,-207.18 128.48,-310.76 27.37,-66.15 51.16,-134.09 82.9,-198.09 62.48,-126.01 161.97,-205.11 306.05,-214.66 79.33,-5.25 159.17,-3.1 238.79,-3.45 106.18,-0.46 212.36,-0.11 318.54,-0.14z"/>
   <path class="fil0" d="M2604.37 345.28c148.33,0 296.66,-0.01 445,0.01 30.84,0 38.21,10.35 26.11,38.89 -31.59,74.52 -63.2,149.05 -96.45,222.83 -4.1,9.1 -17.55,15.37 -28,19.75 -7.32,3.08 -16.92,0.79 -25.51,0.79 -216.25,-0.02 -432.51,0.8 -648.75,-0.67 -54.34,-0.37 -95.66,19.85 -125.49,62.97 -7.67,11.08 -10.61,29.92 -6.95,42.69 2.26,7.89 20.63,13.1 32.6,15.73 12.71,2.78 26.41,1.32 39.67,1.32 174.88,0.01 349.75,-0.08 524.63,-0.07 36.35,0 39.47,3.43 25.83,36.99 -28.13,69.21 -57.72,137.82 -86.49,206.77 -8.47,20.3 -21.81,28.59 -45.06,28.51 -186.58,-0.69 -373.18,1.17 -559.74,-0.58 -51.84,-0.48 -86.59,22.92 -107.27,64.78 -30.29,61.3 -54.78,125.47 -81.63,188.47 -17.7,41.52 -35.09,83.17 -52.87,124.66 -6.65,15.51 -18.71,20.65 -35.64,20.53 -94.46,-0.65 -188.93,-0.31 -283.39,-0.49 -30.87,-0.06 -34.57,-6.3 -23.08,-34.67 35.63,-88.01 70.55,-176.32 106.49,-264.2 42.11,-102.99 85.3,-205.53 127.46,-308.5 28.9,-70.59 55.37,-142.21 85.52,-212.25 49.43,-114.84 127.85,-201.89 251.24,-237.28 42.84,-12.29 89.35,-15.38 134.28,-16.04 135.81,-1.99 271.68,-0.72 407.51,-0.72 0,-0.07 0,-0.14 0,-0.21z"/>
   <path class="fil1" d="M730.07 1545.68c-103.25,-6.92 -204.9,-21.65 -302.55,-57.24 -9.62,-3.5 -18.81,-11.2 -25.52,-19.2 -64.92,-77.48 -119.62,-161.4 -158.4,-255.17 -9.82,-23.74 -22.32,-46.66 -29.23,-71.18 -4.05,-14.36 -4.74,-34.03 2.04,-46.37 54.01,-98.3 110.53,-195.21 165.38,-293.06 9.99,-17.83 22.91,-23.35 42.1,-21.54 148.37,13.95 296.82,27.19 445.11,42 9.68,0.97 23.01,11.21 26.54,20.29 18.33,47.15 31.23,96.53 51.29,142.85 32.43,74.89 68.28,148.34 104.3,221.6 7.66,15.58 8.28,27.08 -1.42,40.69 -71.66,100.56 -149.32,196.12 -237.1,283.11 -7.42,7.35 -20.25,11.33 -31.09,12.66 -16.92,2.08 -34.28,0.55 -51.45,0.55z"/>
   <path class="fil2" d="M1000.04 183.69c10.77,1.53 24.24,10.11 29.55,19.38 20.45,35.7 39.06,72.56 56.57,109.82 24.46,52.08 47.02,105.05 71.06,157.34 7.15,15.55 7.6,28.48 -2.54,43.56 -66.31,98.6 -152.93,176.35 -249.24,244.08 -8.81,6.19 -22.01,9.28 -32.96,8.8 -89.49,-3.94 -179.1,-7.09 -268.34,-14.53 -59.65,-4.98 -118.67,-17.12 -178.13,-24.91 -20.94,-2.74 -28.9,-18.18 -35.7,-33.31 -30.78,-68.43 -55.25,-138.74 -62.06,-214.36 -2.63,-29.18 4.63,-53.29 23.47,-75.51 72.99,-86.09 154.56,-162.85 246.94,-227.74 11.38,-8 26.71,-13.62 40.52,-14.32 141.14,-7.15 207.53,-0.13 360.87,21.69z"/>
   <path class="fil3" d="M1533.12 1026.88c-3.35,30.49 -11.49,61.55 -23.9,89.51 -6.94,15.63 -25.02,31.5 -41.46,36.87 -107.25,35 -218.5,50.26 -330.3,62.45 -25.85,2.82 -39.63,-7.13 -52.25,-28.82 -54.71,-94.07 -95.05,-194.27 -130.38,-296.74 -7.87,-22.82 -13.55,-46.41 -21.77,-69.09 -7.39,-20.39 -0.07,-32.92 15.6,-46.18 55.25,-46.79 110.84,-93.38 163.19,-143.31 27.37,-26.11 49.36,-58.22 71.66,-89.15 13.12,-18.19 26.61,-20.36 43.47,-8.69 89.34,61.84 185.96,110.51 283.74,157.08 16.75,7.97 24.55,20.93 24.56,39.03 0.08,99.37 8.58,199.34 -2.16,297.05z"/>
   <path class="fil4" d="M1436.73 1493.87c15.61,0 31.26,-0.68 46.81,0.28 7.88,0.49 15.58,3.96 23.36,6.09 -3.19,7.6 -4.35,17.45 -9.9,22.42 -38.78,34.77 -75.61,72.72 -118.43,101.75 -95.4,64.68 -206.41,84.46 -318.18,99.54 -52.98,7.14 -74.12,18.16 -115.36,-30.42 -28.2,-33.21 -55.34,-67.31 -82.95,-101.02 -10.28,-12.55 -4.69,-22.13 4.42,-32.8 63.76,-74.72 127.27,-149.66 190.38,-224.93 16.51,-19.69 30.11,-41.91 47.43,-60.78 8.58,-9.36 21.91,-17.69 34.23,-19.77 85.29,-14.38 170.97,-26.51 256.33,-40.54 19.05,-3.13 37.17,-11.64 56.07,-16.17 5.84,-1.4 15.57,0.07 18.58,4.01 2.98,3.89 1.3,13.2 -1.07,19.02 -29.57,72.75 -59.59,145.33 -89.66,217.88 -3.86,9.32 -8.85,18.16 -12.97,27.37 -7.61,17.04 -1.63,27.54 17.05,28.36 17.92,0.78 35.89,0.17 53.84,0.17 0,-0.15 0,-0.3 0,-0.46z"/>
   <path class="fil5" d="M1244.35 105.85c19.5,6.65 42.08,12.83 63.44,21.88 129.49,54.86 236.29,139.26 317.35,253.87 29.47,41.66 51.08,89.02 74.48,134.7 3.97,7.76 2.35,22.64 -2.75,30.09 -36.34,53.14 -88.06,87.76 -146.08,112.76 -8.78,3.78 -24.23,-2.85 -34.54,-8.45 -87.54,-47.58 -174.47,-96.27 -261.9,-144.06 -23.63,-12.92 -34.61,-34.6 -45.42,-57.3 -39.12,-82.19 -78.62,-164.19 -117.97,-246.27 -8.29,-17.29 -8.09,-31.07 9.24,-44.92 41.54,-33.2 90.2,-44.39 144.13,-52.29z"/>
   <path class="fil6" d="M4.19 950.03c9.75,-82.45 16.43,-163.28 29.86,-242.96 7.69,-45.6 25.05,-89.82 41,-133.59 4.19,-11.51 17.99,-21.31 29.61,-28.01 52.51,-30.22 105.58,-59.49 158.99,-88.1 14.5,-7.77 21.12,1.49 23.27,15.79 5.43,36.06 7.82,73.08 17.96,107.81 13.45,46.06 31.73,90.9 50.69,135.09 8.86,20.64 9.71,36.3 -2.13,56.5 -56.69,96.64 -111.94,194.13 -166.89,291.77 -14.18,25.2 -24.73,30.37 -47.27,13.03 -39.44,-30.35 -78.07,-61.85 -115.74,-94.36 -8.95,-7.73 -12.78,-21.38 -19.34,-32.97z"/>
   <path class="fil0" d="M835.57 1784.57c-62.68,-2.77 -133.3,-24.45 -196.43,-39.63 -75.44,-18.14 -145.48,-49.99 -213.56,-86.4 -16.62,-8.89 -27.12,-21.28 -25.75,-42.99 1.16,-18.42 -3.97,-37.13 -4.68,-55.78 -1.15,-30.37 10.04,-39.66 38.32,-29.42 67.98,24.6 138.41,37.52 209.83,44.91 47.25,4.89 94.99,4.99 142.3,9.48 11.47,1.09 26.27,8.2 32.45,17.34 41.39,61.17 87.55,117.44 148.17,160.79 4.1,2.93 5.03,10.31 7.43,15.62 -5.47,2.03 -10.91,5.71 -16.41,5.82 -38.15,0.74 -82.99,1.98 -121.69,0.27z"/>
   <path class="fil7" d="M752.51 123.12c-36.63,0 -73.27,-0.58 -109.88,0.24 -19.12,0.43 -27.52,-7.42 -26.58,-26.26 0.39,-7.78 0.81,-15.66 -0.03,-23.36 -2.08,-19.04 6.32,-26.96 24.77,-32.35 121.44,-35.48 245.35,-45 370.29,-31.37 63.18,6.9 125.35,23.48 187.72,36.88 7.4,1.59 13.17,10.81 19.69,16.49 -7,4.05 -13.58,10.48 -21.06,11.78 -51.97,9.02 -97.61,30.65 -137.45,65.17 -12.42,10.76 -25.77,12.38 -43.17,8.52 -86.92,-19.3 -174.79,-32.09 -264.3,-25.73z"/>
   <path class="fil0" d="M8.94 1059.75c3.32,-6.87 4.93,-15.6 8.66,-16.62 5.32,-1.47 13.29,1.18 18.24,4.71 32.94,23.47 66.19,46.66 97.59,72.1 12.14,9.83 23.14,23.95 28.81,38.41 41.71,106.56 99.56,204.06 164.04,297.99 3.08,4.49 5.87,9.45 9.86,12.99 29.56,26.17 19.79,58.59 12.15,88.93 -4.39,17.41 -18.87,10.49 -27.44,1.63 -51.37,-53.11 -105.04,-104.37 -152.4,-160.88 -57.87,-69.05 -99.12,-149.02 -129.84,-233.72 -12.43,-34.25 -19.92,-70.29 -29.66,-105.53z"/>
   <path class="fil0" d="M100.61 493.15c6.2,-15.06 8.39,-24.03 13.14,-31.35 67,-103.33 151.68,-190.04 252.92,-259.53 49.85,-34.22 103.86,-62.38 156.05,-93.16 4,-2.36 8.54,-5.38 12.82,-5.36 11.99,0.05 29.79,-2.99 34.76,3.39 10.61,13.62 1.21,27.21 -12.41,37 -24.03,17.27 -47.7,35.03 -71.26,52.92 -66.82,50.75 -125.01,110.45 -176.97,175.94 -18.96,23.9 -40.18,41.91 -67.79,54.71 -39.45,18.3 -77.56,39.46 -116.43,59.03 -5.16,2.6 -11.39,3.04 -24.82,6.42z"/>
   <path class="fil0" d="M1587.71 893.17c-0.93,-5.87 -2.35,-11.71 -2.72,-17.61 -2.78,-45.84 -4.96,-91.71 -8.23,-137.52 -1.12,-15.66 3.04,-26.61 16.96,-35.07 26.52,-16.11 52.02,-33.88 78.54,-50.01 5.02,-3.05 12.76,-1.65 19.24,-2.3 0.05,7.41 2.28,15.68 -0.21,22.1 -14.63,37.62 -30.46,74.77 -45.71,112.15 -10.85,26.59 -20.9,53.51 -32.35,79.84 -4.72,10.86 -12.14,20.54 -18.34,30.76 -2.39,-0.78 -4.79,-1.57 -7.19,-2.35z"/>
   <path class="fil8 str0" d="M3598.77 1411.56c-104.87,-96.73 -221.66,-188.45 -348.16,-273.45 340.36,0.31 680.72,0.24 1021.09,0.22 36.4,0 41.67,-5.03 55.01,-37.87 27.24,-67.05 55.75,-133.59 84.25,-200.11 9.11,-21.26 24.33,-30.31 49.54,-30.21 268.57,1.02 537.16,0.93 805.73,0.53 63.72,-0.1 126,-7.69 181.56,-43.72 41.38,-26.83 69.21,-62.26 77.28,-111.76 4.93,-30.28 -9.66,-54.69 -37.01,-68.37 -32.05,-16.05 -65.92,-17.61 -100.4,-17.65 -269.35,-0.26 -538.71,-0.51 -808.07,-0.76 -5.46,-0.01 -10.94,0.28 -16.4,0.11 -26.02,-0.82 -31.49,-7.54 -21.36,-31.83 21.56,-51.71 44.6,-102.81 67.09,-154.14 10,-22.81 18.51,-46.51 30.94,-67.93 5.59,-9.64 18.61,-15.64 29.3,-21.37 4.88,-2.61 12.26,-0.63 18.5,-0.63 259.21,-0 518.42,-0.17 777.63,0.12 69.55,0.08 139.11,2.34 206.14,23.9 71.82,23.1 135.9,58.25 168,130.82 11.64,26.32 17.49,57.14 18.04,86.05 1.61,85.38 -29.57,161.91 -74.21,232.85 -72.14,114.66 -177.01,191.14 -297.12,248.97 -13.29,6.39 -28.02,10.4 -40.09,18.49 -6.95,4.65 -15.49,17.43 -13.45,22.77 3.97,10.34 14.66,18.25 23.16,26.57 1.69,1.66 6.02,0.83 9.13,0.78 145.16,-1.97 290.5,-0.18 435.4,-7.39 90.73,-4.52 175.1,-35.27 230.64,-114.74 18.98,-27.16 35.19,-57.53 46.24,-88.71 30.42,-85.82 56.99,-173.02 85.94,-259.38 29.2,-87.11 58.85,-174.07 89.44,-260.69 21.42,-60.7 22.27,-60.38 87.77,-60.39 64.02,-0 128.05,-0.01 192.07,-0.05 35.07,-0.03 37.78,5.89 25.7,38.06 -16.71,44.44 -30.57,89.94 -45.66,134.98 -17.31,51.68 -34.7,103.34 -51.9,155.06 -15.72,47.29 -31.47,94.57 -46.78,142 -41.03,127.09 -83.37,253.4 -174.7,355.93 -59.52,66.81 -129.92,118.33 -211.32,155.19 -132.73,60.11 -272.97,78.87 -417.23,77.94 -147.55,-0.95 -295.12,-0.6 -442.68,0.15 -25.3,0.13 -38.21,-6.23 -46.23,-33.38 -20.53,-69.36 -46.22,-137.19 -69.45,-205.76 -6.24,-18.43 -18.1,-24.43 -37.24,-24.37 -156.15,0.56 -312.3,0.52 -468.45,0.12 -24.27,-0.06 -39.62,6.34 -49.75,31.89 -27.82,70.16 -59.98,138.59 -88.89,208.34 -7.8,18.84 -19.49,23.15 -37.82,23.05 -99.94,-0.53 -199.88,-0.24 -299.81,-0.24l-571.42 0zm-393.46 -303.28c-89.97,-58.27 -184.5,-113.19 -282.92,-164.13 24.31,-58.75 48.68,-117.47 72.98,-176.23 27.37,-66.15 51.16,-134.09 82.9,-198.09 62.48,-126 161.97,-205.11 306.05,-214.65 79.32,-5.26 159.16,-3.1 238.78,-3.45 106.17,-0.46 212.36,-0.11 318.54,-0.14 183.48,-0.03 366.96,-0.04 550.43,-0.02 34.99,0 40.89,8.82 27.1,40.23 -30.02,68.41 -61.53,136.22 -89.22,205.56 -10.15,25.42 -24.51,31.48 -49.29,31.45 -286.53,-0.35 -573.07,0.78 -859.6,-0.3 -50.85,-0.2 -89.66,18.78 -118.94,57.25 -9.09,11.94 -14.59,32.62 -10.77,46.23 2.45,8.74 24.88,16.71 38.4,16.78 183.47,1.1 366.95,0.83 550.42,0.68 35.2,-0.03 37.8,5.26 23.33,38.11 -28.86,65.52 -57.91,131.06 -83.43,197.92 -9.87,25.87 -23.46,35 -49.77,34.93 -165.52,-0.48 -331.03,-0.01 -496.55,0.14 -17.95,0.02 -36.04,1.37 -53.84,-0.24 -52.58,-4.75 -82.17,25.77 -105.54,66.6 -2.71,4.73 -5.35,9.62 -7.03,14.77 -0.72,2.19 -1.39,4.4 -2.05,6.61z"/>
   <path class="fil8 str0" d="M2738.47 855.66c-86.3,-38.52 -174.98,-74 -265.6,-106.11 89.45,-0.02 178.91,-0.04 268.35,-0.03 36.35,0 39.48,3.43 25.83,36.99 -9.39,23.11 -18.95,46.15 -28.58,69.16zm-559.7 -196.44c-118.32,-30.85 -238.95,-55.78 -360.98,-74.15 49.72,-107.67 126.63,-188.93 244.78,-222.82 42.84,-12.28 89.36,-15.38 134.29,-16.03 135.81,-1.98 271.68,-0.72 407.52,-0.72 0,-0.07 0,-0.14 0,-0.21 148.33,0 296.66,-0.02 445,0.01 30.84,0.01 38.21,10.35 26.11,38.89 -31.59,74.52 -63.2,149.06 -96.46,222.84 -4.1,9.1 -17.55,15.36 -28,19.75 -7.32,3.08 -16.93,0.8 -25.52,0.8 -216.25,-0.02 -432.5,0.8 -648.75,-0.68 -39.28,-0.27 -71.74,10.22 -97.99,32.33z"/>
   <path class="fil8 str0" d="M442.07 783.63c-26.29,15.89 -51.97,32.43 -77.04,49.62 5.6,-9.92 11.19,-19.85 16.75,-29.78 9.99,-17.83 22.91,-23.35 42.1,-21.55l18.18 1.71z"/>
   <path class="fil8 str0" d="M1120.62 560.46c-232.68,25.2 -431.1,88.96 -603.56,180.61 -30.33,-4.72 -60.64,-9.84 -91.05,-13.83 -20.94,-2.75 -28.91,-18.18 -35.7,-33.31 -30.78,-68.43 -55.25,-138.74 -62.06,-214.36 -2.63,-29.18 4.63,-53.29 23.47,-75.51 72.99,-86.08 154.56,-162.85 246.94,-227.74 11.38,-7.99 26.72,-13.62 40.52,-14.31 136.37,-6.92 222.16,1.95 360.86,21.69 10.78,1.53 24.24,10.1 29.55,19.38 20.45,35.7 39.06,72.56 56.56,109.82 24.46,52.08 47.01,105.05 71.06,157.34 7.15,15.56 7.6,28.48 -2.54,43.56 -10.82,16.1 -22.19,31.63 -34.05,46.66z"/>
   <path class="fil8 str0" d="M1252 550.58c-26.36,1.16 -52.3,2.8 -77.85,4.87l9.36 -13.04c13.12,-18.19 26.61,-20.36 43.47,-8.69 8.28,5.73 16.62,11.35 25.02,16.86z"/>
   <path class="fil8 str0" d="M1680.99 567.35c-93.09,-10.12 -186.81,-16.38 -280.76,-18.37 -23.52,-0.5 -46.72,-0.63 -69.64,-0.44 -25.38,-14.01 -50.79,-28 -76.23,-41.9 -23.63,-12.91 -34.62,-34.6 -45.42,-57.29 -39.12,-82.19 -78.62,-164.19 -117.96,-246.28 -8.29,-17.29 -8.09,-31.07 9.24,-44.92 41.54,-33.2 90.2,-44.39 144.13,-52.3 19.5,6.65 42.08,12.83 63.44,21.88 129.49,54.86 236.29,139.26 317.36,253.87 29.46,41.67 51.08,89.02 74.48,134.7 3.97,7.76 2.35,22.64 -2.75,30.09 -5.01,7.33 -10.32,14.31 -15.89,20.95z"/>
   <path class="fil8 str0" d="M283.87 892.65c-63.03,49.08 -122.13,102.23 -177.93,158.64 -27.93,-22.21 -55.41,-44.99 -82.41,-68.3 -8.95,-7.72 -12.78,-21.38 -19.34,-32.96 9.75,-82.45 16.43,-163.27 29.86,-242.96 7.69,-45.59 25.06,-89.82 41,-133.59 4.19,-11.51 17.98,-21.31 29.61,-28.01 52.51,-30.22 105.57,-59.49 158.99,-88.09 14.49,-7.77 21.12,1.49 23.27,15.79 5.43,36.06 7.82,73.08 17.95,107.81 13.45,46.06 31.73,90.9 50.69,135.09 8.86,20.64 9.71,36.3 -2.13,56.5 -23.41,39.9 -46.57,79.95 -69.57,120.09z"/>
   <path class="fil8 str0" d="M752.51 123.12c-36.63,0 -73.27,-0.58 -109.89,0.24 -19.12,0.42 -27.51,-7.43 -26.58,-26.26 0.39,-7.78 0.81,-15.66 -0.02,-23.37 -2.09,-19.04 6.32,-26.96 24.77,-32.35 121.43,-35.49 245.35,-45.01 370.29,-31.37 63.18,6.9 125.34,23.48 187.71,36.88 7.4,1.59 13.17,10.81 19.69,16.49 -7,4.05 -13.58,10.48 -21.06,11.78 -51.97,9.03 -97.61,30.65 -137.45,65.16 -12.41,10.76 -25.77,12.38 -43.16,8.52 -86.92,-19.3 -174.79,-32.08 -264.3,-25.73z"/>
   <path class="fil8 str0" d="M79.19 1078.77c-17.21,18.06 -34.09,36.44 -50.69,55.09 -7.06,-24.51 -12.76,-49.51 -19.57,-74.12 3.32,-6.87 4.93,-15.59 8.66,-16.63 5.32,-1.47 13.29,1.19 18.24,4.71 14.45,10.3 28.96,20.54 43.35,30.94z"/>
   <path class="fil8 str0" d="M100.6 493.15c6.2,-15.06 8.39,-24.03 13.14,-31.35 67.01,-103.33 151.68,-190.04 252.92,-259.53 49.85,-34.22 103.86,-62.38 156.05,-93.16 4,-2.37 8.54,-5.38 12.82,-5.37 11.99,0.05 29.79,-2.99 34.76,3.39 10.62,13.62 1.21,27.22 -12.41,37 -24.03,17.27 -47.7,35.02 -71.26,52.92 -66.82,50.75 -125.01,110.45 -176.97,175.94 -18.97,23.9 -40.18,41.91 -67.78,54.7 -39.45,18.31 -77.57,39.47 -116.44,59.04 -5.16,2.6 -11.39,3.04 -24.83,6.42z"/>
  </g>
 </g>
</svg>
