<?xml version="1.0" encoding="UTF-8"?>
<!DOCTYPE svg PUBLIC "-//W3C//DTD SVG 1.1//EN" "http://www.w3.org/Graphics/SVG/1.1/DTD/svg11.dtd">
<!-- Creator: CorelDRAW 2020 (64 Bit) -->
<svg xmlns="http://www.w3.org/2000/svg" xml:space="preserve" width="181.092mm" height="234.685mm" version="1.1" style="shape-rendering:geometricPrecision; text-rendering:geometricPrecision; image-rendering:optimizeQuality; fill-rule:evenodd; clip-rule:evenodd"
viewBox="0 0 6650.43 8618.59"
 xmlns:xlink="http://www.w3.org/1999/xlink"
 xmlns:xodm="http://www.corel.com/coreldraw/odm/2003">
 <defs>
  <style type="text/css">
   <![CDATA[
    .fil6 {fill:#FEFEFE}
    .fil7 {fill:#373435}
    .fil5 {fill:black}
    .fil0 {fill:#386739}
    .fil4 {fill:#C92328}
    .fil3 {fill:#ECB630}
    .fil2 {fill:#F6D030}
    .fil1 {fill:#F7D330}
   ]]>
  </style>
 </defs>
 <g id="Camada_x0020_1">
  <metadata id="CorelCorpID_0Corel-Layer"/>
  <g id="_2350773306208">
   <path class="fil0" d="M3325.22 0l-3325.22 819.59 9.17 3921.1c24.89,1913.14 1285.66,3044.16 3316.05,3877.9 2030.39,-833.74 3291.15,-1964.77 3316.05,-3877.9l9.17 -3921.1 -3325.22 -819.59z"/>
   <path class="fil1" d="M3298.55 7862.5c1466.29,-685.21 2523.34,-1572.15 2600.4,-2942.2l10.7 -3584.19 -2611.1 -620.91 0 7147.3z"/>
   <polygon class="fil2" points="695.22,3938.1 687.45,1336.1 3298.55,715.2 3298.55,3938.1 "/>
   <path class="fil3" d="M3617.31 7706.84c88.93,-45.33 177.87,-92.86 266.79,-142.18l0 -2899.78 -266.79 -6.37 0 3048.33z"/>
   <polygon class="fil3" points="4069.45,4658.52 4069.45,7458.08 4299.73,7314.79 4299.73,4703.09 "/>
   <polygon class="fil3" points="4487.89,4696.72 4487.89,7186.88 4687.28,7038.09 4687.28,4722.19 "/>
   <path class="fil3" d="M4875.44 4741.29l0 2140.62c83.4,-73.98 164.9,-151.8 244.32,-233.76l0 -1881.39 -244.32 -25.47z"/>
   <path class="fil3" d="M5302.31 4785.86l0 1654.97c98.53,-123.65 189.23,-252.53 266.79,-390.16l0 -1207.5 -266.79 -57.3z"/>
   <polygon class="fil3" points="1013.63,1258.54 1226.8,1207.86 1226.8,2763.9 1013.63,2808.64 "/>
   <polygon class="fil3" points="1434.35,2739.79 1658.73,2719.14 1658.73,1105.14 1434.35,1158.5 "/>
   <polygon class="fil3" points="1838.24,2695.04 2085.06,2670.95 2085.06,1003.76 1838.24,1062.45 "/>
   <polygon class="fil3" points="2270.18,2639.97 2511.39,2619.32 2511.39,902.39 2270.18,959.74 "/>
   <polygon class="fil3" points="2685.29,2608.99 2920.89,2602.1 2920.89,805 2685.29,861.03 "/>
   <polygon class="fil3" points="3100.4,2588.34 3298.63,2581.78 3298.63,715.22 3100.4,762.32 "/>
   <path class="fil3" d="M5698.28 4906.84l0 883c119.89,-274.72 176.32,-554.98 202.72,-848.91l-202.72 -34.09z"/>
   <path class="fil3" d="M3298.34 7862.5c-1466.29,-685.21 -2523.34,-1572.15 -2600.4,-2942.2l-2.32 -775.69 2602.72 0 0 3717.89z"/>
   <path class="fil4" d="M3297.55 2561.12c-913.37,0 -1903.28,123.51 -2883.89,322.86l0 2193.93c938.97,-252.49 1899.03,-388.85 2883.89,-388.89 984.86,0.04 1944.93,136.4 2883.89,388.89l0 -2193.93c-980.61,-199.35 -1970.52,-322.86 -2883.89,-322.86z"/>
   <path class="fil5" d="M713.08 5112.52l-294.22 -35.16 283.59 -71.62c2.54,35.6 6.12,71.19 10.63,106.78z"/>
   <polygon class="fil6" points="1556.46,3177.29 2443.39,3135.62 2443.39,3376.7 1839.21,3409.44 1839.21,3665.4 2383.87,3632.66 2383.87,3855.88 1839.21,3888.62 1839.21,4329.1 1556.46,4349.94 "/>
   <path class="fil6" d="M3343.71 3055.26c240.7,0 449.21,137.37 551.11,337.81l-249.63 96.84c-61.66,-101.74 -173.6,-169.76 -301.48,-169.76 -194.44,0 -352.05,157.23 -352.05,351.21 0,193.96 157.61,351.19 352.05,351.19 139.94,0 260.79,-81.45 317.55,-199.41l-342.85 0 0 -241.08 365.85 0 154.99 0 115.55 0c4.25,29.16 6.48,58.96 6.48,89.29 0,340.25 -276.5,616.08 -617.58,616.08 -341.08,0 -617.58,-275.83 -617.58,-616.08 0,-340.26 276.5,-616.1 617.58,-616.1z"/>
   <polygon class="fil6" points="4291.66,3108.83 4291.66,4272.56 4571.43,4299.34 4571.43,3855.88 5122.04,3891.59 5122.04,3674.33 4571.43,3638.61 4571.43,3379.67 5175.61,3431.4 5175.61,3183.24 "/>
   <path class="fil7" d="M5882.02 5112.52l294.22 -35.16 -283.59 -71.62c-2.54,35.6 -6.12,71.19 -10.63,106.78z"/>
  </g>
 </g>
</svg>
