<?xml version="1.0" encoding="UTF-8"?>
<!DOCTYPE svg PUBLIC "-//W3C//DTD SVG 1.1//EN" "http://www.w3.org/Graphics/SVG/1.1/DTD/svg11.dtd">
<!-- Creator: CorelDRAW 2020 (64 Bit) -->
<svg xmlns="http://www.w3.org/2000/svg" xml:space="preserve" width="264.619mm" height="276.957mm" version="1.1" style="shape-rendering:geometricPrecision; text-rendering:geometricPrecision; image-rendering:optimizeQuality; fill-rule:evenodd; clip-rule:evenodd"
viewBox="0 0 7126.48 7458.78"
 xmlns:xlink="http://www.w3.org/1999/xlink"
 xmlns:xodm="http://www.corel.com/coreldraw/odm/2003">
 <defs>
  <style type="text/css">
   <![CDATA[
    .fil1 {fill:#387CBD}
    .fil0 {fill:#6ABE5C}
    .fil3 {fill:#FEFEFE}
    .fil2 {fill:#E6E7E8;fill-rule:nonzero}
   ]]>
  </style>
 </defs>
 <g id="Camada_x0020_1">
  <metadata id="CorelCorpID_0Corel-Layer"/>
  <g id="_2855665943328">
   <g id="_2853100277968">
    <path class="fil0" d="M224.01 3157.3c457.49,1701.45 1604.96,3179.81 3339.23,4301.47 1390,-899 2403.02,-2027.16 2986.03,-3315.64 -1053.96,-874.84 -2462.12,-1409.52 -4009.26,-1409.52 -821.99,0 -1604.72,151 -2316,423.67l0 0.02z"/>
    <path class="fil1" d="M6711.27 3751.79c343.95,-914.44 479.05,-1902.48 387.15,-2941.43 -1264.11,174.89 -2455.87,-90.4 -3529.2,-810.37l-11.95 0c-1073.32,719.97 -2265.09,985.26 -3529.21,810.37 -70.09,792.36 -8.16,1555.09 177.72,2278.17 809.18,-374.15 1726.65,-585.47 2699.06,-585.47 1449.93,0 2777.74,469.65 3806.42,1248.72l0.02 0z"/>
    <g>
     <path class="fil2" d="M1477.08 1779.61l1231.29 0 0 390.92 -765.85 0 0 762.29 600.83 0 0 390.92 -600.83 0 0 1192.29 -465.43 0 0 -2736.42zm1455.54 0l583.91 0 452.74 1637.94 8.46 0 0 -1637.94 414.66 0 0 2736.42 -478.12 0 -558.52 -1997.58 -8.46 0 0 1997.58 -414.66 0 0 -2736.42zm1806.73 0l1231.28 0 0 390.92 -765.85 0 0 762.29 600.84 0 0 390.92 -600.84 0 0 1192.29 -465.43 0 0 -2736.42z"/>
    </g>
    <path class="fil3" d="M3137.15 1013.18c-35.79,-3.18 -10.68,-39.86 -52.7,-34.46 -23.3,32.07 14.64,19.84 39.35,49.11 11.08,13.14 10.05,5.67 24.11,5.32 4.17,9.68 5.01,12.74 10.3,21.66 5.4,9.13 5.87,11.17 10.71,21.43 3.56,7.55 7.79,10.38 12.58,19.16 5.62,10.3 11.35,11.1 12.3,22.15 -29.7,-0.03 -24.92,-18.85 -41,-12.36 -5.65,2.28 -7.65,5.37 -5.68,14.37 3.67,16.86 10.21,1.75 40.91,10.82 8.05,2.37 8.87,1 16.84,2 10.83,1.34 10.99,6.18 17.73,13.16l48.9 47.32c4.93,3.71 1.22,-1.69 4.21,4.37 0.23,0.48 0.53,2.06 0.61,2.5 1.04,5.68 -9.89,5.21 -13.86,4.59 -5.88,-0.92 -9.55,-4.09 -14.66,-4.73 -7.54,-0.94 -14.58,2.62 -13.5,11.17 0.81,6.43 -0.97,2.86 3.51,6.37 4.07,5.01 -4.82,3.22 8.22,3.76 11.22,0.47 1.03,0.34 9.15,-2.4 10,-3.39 12.14,-2.17 22.85,-2.09 29.92,0.2 17.7,-2.62 37.08,10.02 29.26,19.07 40.42,15.89 51.94,21.68 7.12,3.59 5.95,3.42 12.22,10.75 0.34,0.41 0.89,1.11 1.39,1.62 16.56,0.06 11.89,0.51 23.83,4.79 8.87,3.17 13.42,1.84 23.57,6.18 26.34,11.28 28.19,7.35 49.11,12.63 31.2,7.87 51.54,-23 32.2,-42.09 -2.15,-2.12 -16.26,-10.38 -19.95,-11.24 -14.34,-3.32 -26.16,-3.56 -48.96,-10.89l-32.24 -12.99c-6.06,-2.14 -4.46,-2.17 -11.33,-4.75 -18.63,-6.99 -26.3,-9.93 -42,-20.04 -6.96,-4.48 -11.86,-7.94 -17.84,-11.8l-35.47 -26.19c-16.33,-13.05 -59.62,-61.87 -71.26,-81.28 -4.04,-6.74 -7.79,-12.77 -10.97,-18.92 -2.42,-4.67 -3.39,-7.18 -5.31,-10.66l-24.11 -53.3c-17.74,-44.48 -21.82,-118.33 -16.84,-167.99 0.86,-8.54 4.21,-14.72 5.48,-23.49 6.95,-48.02 34.79,-111.5 64.66,-150.34l28.09 -33.59c7.21,-17.12 -2.31,-36.35 -18.26,-38.78 -24.77,-3.79 -31.15,7.55 -41.09,20.79l-40.98 50.05c-9.72,11.7 -22.58,45.71 -30.34,60.53 -6.54,12.47 -10.99,31.2 -15.68,45.68 -3.43,10.55 -2.92,13.45 -4.46,25.78 -1.17,9.19 -3.81,16.81 -5.32,26.25 -8.24,51.16 -3.96,142.73 14.52,193.17 3.28,8.94 6.26,14.25 7.51,25.25l-0.03 -0.06zm687.23 -324.88l-7.54 95.19 55.87 75.33c0.33,-28.3 -3.23,-57.09 -11.03,-85.75 -8.38,-30.76 -21.08,-59.18 -37.29,-84.78l-0.02 0zm-18.4 359.57l-92.25 24.61 -52.41 77.79c26.78,-9.11 52.75,-22.07 77.16,-38.99 26.2,-18.15 48.75,-39.61 67.5,-63.41zm-340.4 104.03l-55.2 -77.91 -91.18 -22.04c17.88,21.93 39.06,41.76 63.43,58.76 26.14,18.25 54.11,31.92 82.95,41.19l0 0zm-216.36 -302.14l58.57 -75.4 -5.31 -93.64c-15.81,23.46 -28.67,49.49 -37.86,77.72 -9.88,30.31 -14.87,61.04 -15.4,91.33l0 -0.01zm220.14 -292.71l89.85 32.32 87.38 -34.09c-27.2,-7.76 -55.94,-11.91 -85.64,-11.91 -31.89,0 -62.63,4.79 -91.6,13.67zm120.75 729.2c-2.26,13.13 -14.92,20.31 -26.86,20.23 -11.94,0.08 -24.6,-7.09 -26.86,-20.23 -3.03,-17.65 12.44,-29.39 26.86,-28.92 14.44,-0.47 29.9,11.27 26.86,28.92zm248.9 -761.39c10.03,6.54 17.82,17.09 7.91,32.52 -17.26,26.87 -57.78,6.27 -44.71,-24.02 5.03,-11.66 23.63,-17.07 36.8,-8.5zm-208.57 798.93c21.46,6.77 37.69,25.05 43.97,13.94 8.68,-15.39 -25.89,-12.99 -29.4,-28.67 6.51,-4.32 10.68,-4.53 24.61,2.93 3.71,2 3.01,1.41 6.02,3.26 3.92,2.42 1.04,0.81 4.07,2.81 23.6,15.51 9.6,8.29 24.57,23.43 3.25,3.28 5.38,4.62 8.04,7.91 4.43,5.49 3.12,1 4.95,9.82 -21.05,18.87 -61.9,1.42 -75.88,-11.85 -7.94,-7.54 -10.85,-10.72 -10.93,-23.6l-0.02 0.02zm75.24 -34.35c8.12,-0.14 20.45,8.8 36.46,16.54 7.34,3.56 1.59,1.09 5.73,3.43 16.33,9.21 38.23,-13.23 -8.32,-25.52 -11.56,-3.06 -10.4,-0.02 -12.81,-9.02 0.58,-0.39 1.36,-0.75 1.87,-0.94l5.93 -1.87c24.52,-3.32 45.46,18.39 61.49,32.26 14.48,12.53 14.44,6.09 17.45,18.45l-6.38 6.82c-26.92,21.38 -103.07,-1.67 -101.43,-40.12l0.02 -0.03zm92.52 -30.62c14.09,0.08 70.93,18.48 78.94,5.59 8.07,-12.99 -12.77,-19.62 -21.87,-20.69 -8.19,-0.97 -36.44,-1.72 -37.99,-6.41 -0.25,-0.75 -0.89,-0.78 -1.31,-1.2 6.84,-10.55 27.31,-10.78 39.33,-9.8 26.77,2.2 74.43,26.98 97.37,40.08 4.49,46.51 -147.75,55.86 -154.5,-7.55l0.02 -0zm183.91 -93.41c-23.57,-18.48 -51.14,7.79 -74.21,-2.42 0.33,-10.19 2.31,-9.64 11.6,-13.67 7.2,-3.12 10.47,-3.03 18.12,-5.21 30.93,-8.82 80.88,0.95 112.17,10.28 3.67,1.09 2.62,0.81 5.81,2.11l3.92 2.04c0.3,23.13 -20.87,34.26 -35.62,43.34 -40.94,25.25 -124.09,15.36 -124.87,-13.23 33.59,-2.56 58.2,4.21 83.28,-10.57l-0.2 -12.72 0.01 0.05zm91.97 -120.81c-20.49,-10.93 -32.57,0.37 -46.95,9.82 -7.4,4.85 -14.28,7.73 -21.63,12.8 -8.65,5.98 -10.64,7.57 -21.85,4.01 -0.7,-16.08 10.14,-20.69 21.16,-30.11 41.89,-35.77 54.03,-32.68 110.98,-41.47 6.51,-1.02 27.27,-4.28 31.57,-4.23 14.76,0.19 14.08,9.88 10.03,22.74 -1.41,4.46 -6.76,22.21 -8.71,25.8 -18.29,33.73 -64.47,68.61 -97.43,73.2 -13.31,1.86 -49.79,5.57 -57.81,-8.76 2.54,-5.82 -0.03,-2.12 4.81,-5.59l43.71 -19.98c20.69,-11.46 33.96,-20.54 32.12,-38.27l-0.02 0.04zm-418.56 -24.05l27 38.83c10.24,25.75 -48.27,93.58 -72.67,98.87 -35.12,7.62 -58.15,7.62 -93.27,0 -24.39,-5.29 -82.9,-73.13 -72.67,-98.87l27 -38.83c5.98,-9.19 178.62,-9.19 184.59,0l0.01 0zm46.9 -201.71c5.84,15.54 -32.13,135.36 -48.04,149.53 -15.89,14.16 -167.89,11.99 -181.86,0.39 -16.11,-13.37 -54.31,-134.39 -48.49,-149.92 20.26,-26.72 113.03,-86.04 139.2,-91.77 24.78,5.42 119.22,65.42 139.2,91.77l-0.01 0zm20.55 223.48c-5.67,-10.44 -13.09,-22.66 -19.76,-32.87 -8.87,-13.58 -18.18,-17.29 -8.54,-36.37 28.39,-56.17 27.95,-52.7 42.47,-112.29 1.69,-6.93 2.01,-17.25 4.03,-23.43 2.43,-7.48 4.93,-8.32 13.25,-12.08 58.15,-26.31 60.6,-8.93 73.04,3.2l41.64 57.98c13.17,27.08 -18.43,90.8 -31.6,115.07 -16.43,30.29 -93.22,43.11 -114.51,40.78l-0.02 0zm73.48 -277.71c-6.16,9.96 -20.94,9.96 -56.37,19.41 -21.41,5.71 -29.95,-12.66 -45.4,-23.46 -21.98,-15.36 -51.14,-37.58 -74.06,-46.98 -6.68,-2.73 -28.2,-12.84 -33.23,-16.57l-3.15 -78.78c15.31,-9.24 47.68,-18.06 67.69,-23.3 30.45,-7.97 40.88,-11.67 48.57,-10.4 15.92,2.64 84.29,50.52 96.11,71.23 8.54,14.98 8.34,95.17 -0.16,108.86l-0 -0.01zm192.84 248.6c35.79,-3.18 10.68,-39.86 52.7,-34.46 23.3,32.07 -14.64,19.84 -39.35,49.11 -11.08,13.14 -10.05,5.67 -24.11,5.32 -4.17,9.68 -5.01,12.74 -10.3,21.66 -5.4,9.13 -5.87,11.17 -10.71,21.43 -3.56,7.55 -7.79,10.38 -12.58,19.16 -5.62,10.3 -11.35,11.1 -12.3,22.15 29.7,-0.03 24.92,-18.85 41,-12.36 5.65,2.28 7.65,5.37 5.68,14.37 -3.67,16.86 -10.21,1.75 -40.91,10.82 -8.05,2.37 -8.87,1 -16.84,2 -10.83,1.34 -10.99,6.18 -17.73,13.16l-48.9 47.32c-4.93,3.71 -1.22,-1.69 -4.21,4.37 -0.23,0.48 -0.53,2.06 -0.61,2.5 -1.04,5.68 9.89,5.21 13.86,4.59 5.88,-0.92 9.55,-4.09 14.66,-4.73 7.54,-0.94 14.58,2.62 13.5,11.17 -0.81,6.43 0.97,2.86 -3.51,6.37 -4.07,5.01 4.82,3.22 -8.22,3.76 -11.22,0.47 -1.03,0.34 -9.15,-2.4 -10,-3.39 -12.14,-2.17 -22.85,-2.09 -29.92,0.2 -17.7,-2.62 -37.08,10.02 -29.26,19.07 -40.42,15.89 -51.94,21.68 -7.12,3.59 -5.95,3.42 -12.22,10.75 -0.34,0.41 -0.89,1.11 -1.39,1.62 -16.56,0.06 -11.89,0.51 -23.83,4.79 -8.87,3.17 -13.42,1.84 -23.57,6.18 -26.34,11.28 -28.19,7.35 -49.11,12.63 -31.2,7.87 -51.54,-23 -32.2,-42.09 2.15,-2.12 16.26,-10.38 19.95,-11.24 14.34,-3.32 26.16,-3.56 48.96,-10.89l32.24 -12.99c6.06,-2.14 4.46,-2.17 11.33,-4.75 18.63,-6.99 26.3,-9.93 42,-20.04 6.96,-4.48 11.86,-7.94 17.84,-11.8l35.47 -26.19c16.33,-13.05 59.62,-61.87 71.26,-81.28 4.04,-6.74 7.79,-12.77 10.97,-18.92 2.42,-4.67 3.39,-7.18 5.31,-10.66l24.11 -53.3c17.74,-44.48 21.82,-118.33 16.84,-167.99 -0.86,-8.54 -4.21,-14.72 -5.48,-23.49 -6.95,-48.02 -34.79,-111.5 -64.66,-150.34l-28.09 -33.59c-7.21,-17.12 2.31,-36.35 18.26,-38.78 24.77,-3.79 31.15,7.55 41.09,20.79l40.98 50.05c9.72,11.7 22.58,45.71 30.34,60.53 6.54,12.47 10.99,31.2 15.68,45.68 3.43,10.55 2.92,13.45 4.46,25.78 1.17,9.19 3.81,16.81 5.32,26.25 8.24,51.16 3.96,142.73 -14.52,193.17 -3.28,8.94 -6.26,14.25 -7.51,25.25l0.03 -0.06zm-701.85 -488.33c-10.03,6.54 -17.82,17.09 -7.91,32.52 17.26,26.87 57.78,6.27 44.71,-24.02 -5.03,-11.66 -23.63,-17.07 -36.8,-8.5zm208.57 798.93c-21.46,6.77 -37.69,25.05 -43.97,13.94 -8.68,-15.39 25.89,-12.99 29.4,-28.67 -6.51,-4.32 -10.68,-4.53 -24.61,2.93 -3.71,2 -3.01,1.41 -6.02,3.26 -3.92,2.42 -1.04,0.81 -4.07,2.81 -23.6,15.51 -9.6,8.29 -24.57,23.43 -3.25,3.28 -5.38,4.62 -8.04,7.91 -4.43,5.49 -3.12,1 -4.95,9.82 21.05,18.87 61.9,1.42 75.88,-11.85 7.94,-7.54 10.85,-10.72 10.93,-23.6l0.02 0.02zm-75.24 -34.35c-8.12,-0.14 -20.45,8.8 -36.46,16.54 -7.34,3.56 -1.59,1.09 -5.73,3.43 -16.33,9.21 -38.24,-13.23 8.32,-25.52 11.56,-3.06 10.4,-0.02 12.81,-9.02 -0.58,-0.39 -1.36,-0.75 -1.87,-0.94l-5.93 -1.87c-24.52,-3.32 -45.46,18.39 -61.49,32.26 -14.48,12.53 -14.44,6.09 -17.45,18.45l6.38 6.82c26.92,21.38 103.07,-1.67 101.43,-40.12l-0.02 -0.03zm-92.52 -30.62c-14.09,0.08 -70.93,18.48 -78.94,5.59 -8.07,-12.99 12.77,-19.62 21.87,-20.69 8.19,-0.97 36.44,-1.72 37.99,-6.41 0.25,-0.75 0.89,-0.78 1.31,-1.2 -6.84,-10.55 -27.31,-10.78 -39.33,-9.8 -26.77,2.2 -74.43,26.98 -97.37,40.08 -4.49,46.51 147.75,55.86 154.5,-7.55l-0.02 -0zm-183.92 -93.41c23.57,-18.48 51.14,7.79 74.21,-2.42 -0.33,-10.19 -2.31,-9.64 -11.6,-13.67 -7.2,-3.12 -10.47,-3.03 -18.12,-5.21 -30.93,-8.82 -80.88,0.95 -112.17,10.28 -3.67,1.09 -2.62,0.81 -5.81,2.11l-3.92 2.04c-0.3,23.13 20.87,34.26 35.62,43.34 40.94,25.25 124.09,15.36 124.87,-13.23 -33.59,-2.56 -58.2,4.21 -83.28,-10.57l0.2 -12.72 -0.01 0.05zm-91.97 -120.82c20.49,-10.93 32.57,0.37 46.95,9.82 7.4,4.85 14.28,7.73 21.63,12.8 8.65,5.98 10.64,7.57 21.85,4.01 0.7,-16.08 -10.14,-20.69 -21.16,-30.11 -41.89,-35.77 -54.03,-32.68 -110.98,-41.47 -6.51,-1.02 -27.27,-4.28 -31.57,-4.23 -14.76,0.19 -14.08,9.88 -10.03,22.74 1.41,4.46 6.76,22.21 8.71,25.8 18.29,33.73 64.47,68.61 97.43,73.2 13.31,1.86 49.79,5.57 57.81,-8.76 -2.54,-5.82 0.03,-2.12 -4.81,-5.59l-43.71 -19.98c-20.69,-11.46 -33.96,-20.54 -32.12,-38.27l0.02 0.04zm351.1 -2.29c5.67,-10.44 13.09,-22.66 19.76,-32.87 8.87,-13.58 18.18,-17.29 8.54,-36.37 -28.39,-56.17 -27.95,-52.7 -42.47,-112.29 -1.69,-6.93 -2.01,-17.25 -4.03,-23.43 -2.43,-7.48 -4.93,-8.32 -13.25,-12.08 -58.15,-26.31 -60.6,-8.93 -73.04,3.2l-41.64 57.98c-13.17,27.08 18.43,90.8 31.6,115.07 16.43,30.29 93.22,43.11 114.51,40.78l0.02 0zm-72.01 -275.71c6.93,7.99 22.04,8.63 54.9,17.4 21.41,5.71 29.95,-12.66 45.4,-23.46 21.98,-15.36 51.14,-37.58 74.06,-46.98 6.68,-2.73 28.2,-12.84 33.23,-16.57l3.15 -78.78c-14.31,-8.65 -98.17,-34.7 -114.13,-33.91 -16.62,0.81 -92.82,53.55 -101.27,78.24 -4.77,13.98 -5.52,92.28 4.68,104.07l-0.02 0z"/>
   </g>
  </g>
 </g>
</svg>
