<?xml version="1.0" encoding="UTF-8"?>
<!DOCTYPE svg PUBLIC "-//W3C//DTD SVG 1.1//EN" "http://www.w3.org/Graphics/SVG/1.1/DTD/svg11.dtd">
<!-- Creator: CorelDRAW 2020 (64 Bit) -->
<svg xmlns="http://www.w3.org/2000/svg" xml:space="preserve" width="127.395mm" height="154.697mm" version="1.1" style="shape-rendering:geometricPrecision; text-rendering:geometricPrecision; image-rendering:optimizeQuality; fill-rule:evenodd; clip-rule:evenodd"
viewBox="0 0 6349.08 7709.73"
 xmlns:xlink="http://www.w3.org/1999/xlink"
 xmlns:xodm="http://www.corel.com/coreldraw/odm/2003">
 <defs>
  <style type="text/css">
   <![CDATA[
    .fil7 {fill:#00913F}
    .fil0 {fill:#009CDF}
    .fil2 {fill:#0385CF}
    .fil6 {fill:#0A64AC}
    .fil3 {fill:#0E5791}
    .fil4 {fill:#D6CD11}
    .fil1 {fill:#FFF500}
    .fil5 {fill:#FEFEFE;fill-rule:nonzero}
    .fil17 {fill:black;fill-rule:nonzero}
    .fil23 {fill:#1A2B40;fill-rule:nonzero}
    .fil18 {fill:#4D5A6B;fill-rule:nonzero}
    .fil15 {fill:#525F6F;fill-rule:nonzero}
    .fil20 {fill:#576473;fill-rule:nonzero}
    .fil19 {fill:#5C6977;fill-rule:nonzero}
    .fil21 {fill:#6B7784;fill-rule:nonzero}
    .fil22 {fill:#87919B;fill-rule:nonzero}
    .fil11 {fill:#8F98A2;fill-rule:nonzero}
    .fil14 {fill:#A3AAB3;fill-rule:nonzero}
    .fil9 {fill:#B5BBC2;fill-rule:nonzero}
    .fil10 {fill:#BFC4CA;fill-rule:nonzero}
    .fil13 {fill:#CCD0D5;fill-rule:nonzero}
    .fil12 {fill:#E6E8EA;fill-rule:nonzero}
    .fil16 {fill:#E8EAEC;fill-rule:nonzero}
    .fil8 {fill:white;fill-rule:nonzero}
   ]]>
  </style>
 </defs>
 <g id="Camada_x0020_1">
  <metadata id="CorelCorpID_0Corel-Layer"/>
  <g id="_2853766440592">
   <path class="fil0" d="M3174.54 1.27c-1527.97,-24.22 -1883.4,1432.18 -3174.54,1482.37 1153.2,1664.52 96.32,2184.88 303.04,3733.9 341.83,1573.05 1897.37,1388.2 2871.5,2492.19 974.13,-1103.99 2529.67,-919.14 2871.5,-2492.19 206.73,-1549.02 -850.15,-2069.38 303.04,-3733.9 -1291.14,-50.19 -1725.69,-1532.96 -3174.54,-1482.37z"/>
   <path class="fil1" d="M390.28 5202.26c91.03,415.95 277.06,744.37 608.21,1014.48 318.96,260.16 722.61,431.29 1089.2,614.13 405.99,202.5 774.7,419.85 1086.85,747.91 312.15,-328.06 680.87,-545.42 1086.85,-747.91 366.58,-182.84 770.24,-353.98 1089.2,-614.13 331.16,-270.11 517.18,-598.52 608.21,-1014.48 44.94,-339.69 30.03,-657.72 -31.43,-993.94 -51.55,-281.97 -132.37,-558.15 -179,-840.66 -48.46,-293.62 -51.76,-567.8 14.9,-859.45 77.4,-338.65 239.08,-657.53 428.55,-949.1 -212.74,-27.68 -413.23,-94.88 -607.46,-194.52 -274.81,-140.99 -517.81,-335.69 -756.05,-530.16 -259.6,-211.91 -526.32,-436.72 -829.22,-584.24 -264.79,-128.96 -529.48,-160.15 -824.54,-160.15 -295.06,0 -559.76,31.18 -824.54,160.15 -302.9,147.52 -569.62,372.33 -829.22,584.24 -418.09,341.29 -825.22,655.39 -1363.44,724.79 189.44,291.54 351.09,610.39 428.48,948.99 66.66,291.65 63.36,565.84 14.9,859.45 -46.63,282.5 -127.45,558.68 -179,840.66 -61.46,336.22 -76.37,654.25 -31.43,993.94z"/>
   <path class="fil2" d="M5879.45 1694.34c-132.48,-38.45 -260.68,-90.63 -385.04,-154.43 -288.35,-147.93 -540.82,-348.86 -790.71,-552.84 -246.67,-201.35 -503.27,-419.65 -790.9,-559.74 -242.22,-117.97 -469.21,-139.62 -738.26,-139.62 -269.05,0 -496.04,21.66 -738.26,139.62 -287.62,140.08 -544.23,358.38 -790.9,559.74 -367.53,300.02 -729.09,578.4 -1175.49,707.74 135.79,241.99 246.2,498.98 308.02,769.48 72.12,315.56 69.73,617.33 17.22,935.45 -46.93,284.31 -127.84,560.97 -179.58,844 -56.78,310.61 -71.52,611.05 -31,924.43 81.96,368.04 243.96,655.63 538.49,895.86 306.09,249.66 700.58,414.92 1052.6,590.5 363.76,181.43 702.2,377.79 998.9,648.65 296.7,-270.86 635.14,-467.21 998.9,-648.65 352.02,-175.58 746.51,-340.83 1052.6,-590.5 294.53,-240.23 456.53,-527.82 538.49,-895.86 40.52,-313.38 25.78,-613.81 -31,-924.43 -51.74,-283.03 -132.66,-559.69 -179.58,-844 -52.51,-318.12 -54.9,-619.89 17.22,-935.45 61.86,-270.68 172.37,-527.83 308.29,-769.96z"/>
   <path class="fil3" d="M561.81 4848.04c1629.74,527.5 3373.62,512.9 5225.62,-15.29 65.61,-18.71 131.35,-38.07 197.22,-58.07 29.47,-8.95 58.97,-18.02 88.5,-27.23 -3.98,-204.33 -28.24,-390.54 -60.77,-566.12 -26.21,-141.47 -57.8,-276.05 -88.48,-407.66 -7.58,-32.53 -15.11,-64.87 -22.48,-97.1 -28.91,6.48 -57.82,12.86 -86.73,19.14 -64.22,13.94 -128.44,27.36 -192.66,40.26 -1631.52,327.75 -3263.04,321.23 -4894.55,-1.91 -64.27,-12.73 -128.53,-25.95 -192.8,-39.66 -28.93,-6.17 -57.86,-12.44 -86.79,-18.81 -7.38,32.22 -14.9,64.57 -22.49,97.1 -30.65,131.49 -62.22,265.93 -88.44,407.24 -32.77,176.58 -57.2,363.88 -61.07,569.56 29.45,10.77 58.94,21.37 88.46,31.78 65.63,23.14 131.45,45.4 197.46,66.76zm143.25 -1016.85c1644.85,325.87 3295.07,332.28 4939.39,1.89 64.23,-12.9 128.44,-26.32 192.65,-40.25 32.13,138.06 64.78,276.06 90.27,415.48 28.7,156.97 47.25,309.98 54.29,463.09 -65.07,19.91 -130.18,39.24 -195.33,57.98 -1734.38,498.89 -3498.78,579.92 -5223.94,14 -65.12,-21.37 -130.19,-43.65 -195.19,-66.87 6.87,-154.81 25.51,-309.48 54.52,-468.2 25.57,-139.86 58.34,-278.29 90.56,-416.78 64.26,13.71 128.52,26.93 192.79,39.66z"/>
   <path class="fil0" d="M705.06 3831.19c-64.27,-12.73 -128.53,-25.96 -192.79,-39.66 -32.22,138.49 -65,276.92 -90.56,416.78 -29.02,158.72 -47.65,313.39 -54.52,468.2l195.19 66.87c1725.17,565.92 3489.56,484.89 5223.94,-14 65.15,-18.74 130.27,-38.08 195.33,-57.98 -7.05,-153.1 -25.6,-306.11 -54.29,-463.09 -25.49,-139.42 -58.14,-277.43 -90.27,-415.48 -64.21,13.93 -128.42,27.35 -192.65,40.25 -1644.33,330.39 -3294.54,323.98 -4939.39,-1.89z"/>
   <path class="fil4" d="M1011.83 5965.01c444.8,-222 901.24,-488.69 1279.75,-763.18 -590.05,-54.01 -1166.72,-171.55 -1729.77,-353.79 1.39,105.81 8.79,212.2 22.74,320.14 71,318.81 202.06,577.25 427.28,796.83z"/>
   <path class="fil4" d="M4037.12 5181.74c382.46,280.57 848.4,553.95 1302.54,780.89 223.75,-219.07 354.12,-476.8 424.86,-794.46 14.63,-113.13 22.05,-224.58 22.9,-335.42 -594.65,169.59 -1178.15,286.24 -1750.31,348.99z"/>
   <path class="fil5" d="M934.12 3595.94c0,-50.41 0,-100.75 0,-151.09 0,-50.41 0,-100.75 0,-151.09 35.8,7.76 71.6,15.53 107.39,23.3 0,17.05 0,34.04 0,51.1 -25.38,-5.55 -50.75,-11.02 -75.68,-16.44 0,23.93 0,47.85 0,71.7 21.75,4.71 43.51,9.43 65.71,14.28 0,17.06 0,34.05 0,51.03 -22.2,-4.78 -43.96,-9.5 -65.71,-14.21 0,21.36 0,42.72 0,64.14 0,21.36 0,42.79 0,64.14 -10.87,-2.36 -21.3,-4.64 -31.72,-6.87zm133.68 28.92c0,-50.34 0,-100.68 0,-151.02 0,-50.34 0,-100.68 0,-151.09 38.52,7.76 77.04,15.39 116.01,23.16 0,17.05 0,34.04 0,51.1 -28.1,-5.55 -56.19,-11.16 -84.29,-16.71 0,22.4 0,44.72 0,67.12 25.83,5.13 52.12,10.33 78.4,15.53 0,16.98 0,34.04 0,51.03 -26.28,-5.2 -52.57,-10.4 -78.4,-15.53 0,27.25 0,54.57 0,81.82 29.01,5.76 58.01,11.51 87.46,17.33 0,17.06 0,34.05 0,51.04 -39.88,-7.91 -79.76,-15.81 -119.18,-23.79zm146.37 -273c19.03,3.54 38.07,7.02 57.55,10.54 13.14,2.37 23.13,6.07 29.91,11.16 9.09,6.83 17.19,17.63 23.56,32.18 6.31,14.43 11.32,31.69 14.96,51.66 3.61,19.84 4.98,43.97 4.98,72.25 0,24.89 -1.26,46 -4.53,63.45 -3.98,21.23 -9.56,38.05 -16.77,50.34 -5.47,9.33 -13.08,16.16 -22.2,20.11 -7.19,3.11 -16.32,3.45 -28.1,1.32 -19.94,-3.62 -39.88,-7.35 -59.36,-10.88 0,-50.34 0,-100.68 0,-151.02 0,-50.35 0,-100.69 0,-151.1zm31.72 56.93c0,33.35 0,66.71 0,99.99 0,33.36 0,66.71 0,99.99 7.7,1.39 15.4,2.86 23.56,4.3 8.61,1.53 14.98,1.79 19.03,0.55 5,-1.53 9.25,-4.93 12.69,-10.26 3.36,-5.22 5.9,-14.56 8.16,-27.66 2.26,-13.1 3.17,-31.41 3.17,-54.71 0,-23.44 -0.91,-41.47 -3.17,-54.36 -2.26,-12.9 -5.13,-23.02 -9.07,-30.92 -3.76,-7.56 -8.64,-13.27 -14.5,-16.78 -4.56,-2.73 -13.15,-5.32 -25.83,-7.56 -4.99,-0.88 -9.52,-1.73 -14.05,-2.57zm126.43 273.76c0,-50.34 0,-100.75 0,-151.09 0,-50.34 0,-100.68 0,-151.02 38.52,6.24 77.04,12.55 116.01,18.93 0,17.06 0,34.04 0,51.1 -28.09,-4.64 -56.19,-9.22 -84.29,-13.8 0,22.4 0,44.72 0,67.13 25.83,4.23 52.11,8.53 78.39,12.82 0,16.99 0,34.05 0,51.04 -26.28,-4.3 -52.56,-8.6 -78.39,-12.83 0,27.25 0,54.57 0,81.82 29,4.78 58.01,9.5 87.46,14.28 0,17.05 0,34.04 0,51.03 -39.88,-6.52 -79.76,-13.04 -119.18,-19.42zm145.92 23.51c0,-50.34 0,-100.68 0,-151.02 0,-50.35 0,-100.69 0,-151.1 22.2,3.26 44.4,6.57 67.07,9.92 16.76,2.47 28.91,7.12 36.25,13.52 7.61,6.63 14.06,17.13 18.58,31.62 4.54,14.56 6.8,30.72 6.8,48.54 0,22.74 -3.62,40.92 -10.42,54.71 -6.79,13.8 -17.22,21.49 -30.81,23.43 6.8,8.6 12.24,17.83 16.77,27.74 4.53,9.91 10.46,27.17 18.13,51.8 6.38,20.51 12.69,40.91 19.03,61.43 -12.69,-1.66 -25.38,-3.53 -38.07,-5.41 -7.7,-23.02 -15.25,-46.3 -22.66,-69.2 -8,-24.73 -13.78,-40.13 -16.77,-46.8 -2.89,-6.44 -5.96,-11.08 -9.51,-13.94 -3.24,-2.61 -8.61,-4.58 -15.86,-5.69 -2.26,-0.34 -4.53,-0.69 -6.34,-0.9 0,21.01 0,42.09 0,63.1 0,21.01 0,42.02 0,63.03 -10.87,-1.66 -21.75,-3.26 -32.17,-4.78zm32.17 -169.47c7.7,1.11 15.41,2.24 23.11,3.39 15.4,2.31 24.94,2.38 28.55,0.49 3.64,-1.91 6.79,-5.76 9.07,-11.51 2.25,-5.69 3.17,-13.17 3.17,-22.19 0,-10.19 -1.18,-18.66 -4.08,-25.31 -2.99,-6.87 -6.8,-11.17 -12.24,-13.66 -2.26,-1.04 -9.98,-2.47 -23.11,-4.44 -8.16,-1.22 -16.32,-2.36 -24.48,-3.6 0,25.59 0,51.24 0,76.83zm267.82 210.31c-11.78,-1.39 -23.11,-2.71 -34.44,-3.95 -4.53,-23.51 -9.06,-47.08 -13.6,-70.59 -21.3,-2.78 -42.14,-5.55 -62.99,-8.25 -4.53,22.33 -8.61,44.72 -12.68,67.12 -11.33,-1.53 -22.66,-2.98 -33.99,-4.51 9.97,-49.03 20.39,-98.05 30.36,-147.07 9.97,-49.03 20.39,-97.98 30.81,-147.01 10.87,1.39 22.21,2.92 33.54,4.44 10.42,51.73 20.84,103.46 31.27,155.11 10.41,51.59 20.85,103.11 31.72,154.7zm-58.01 -126.9c-7.7,-38.28 -14.96,-76.48 -22.2,-114.69 -7.25,36.33 -14.05,72.67 -20.85,109.07 14.05,1.8 28.55,3.75 43.05,5.62zm175.37 29.06c9.97,7 19.94,14.14 30.36,21.15 -4.53,32.8 -12.36,56.63 -23.56,71.77 -11,14.88 -24.47,21.53 -41.69,19.56 -20.84,-2.39 -37.63,-18.1 -51.21,-47.02 -13.61,-28.97 -19.94,-67.26 -19.94,-114.9 0,-25.1 1.36,-47.3 4.53,-66.43 3.17,-19.14 8.62,-35.29 15.41,-48.4 13.6,-26.27 31.27,-38.14 53.47,-35.57 19.03,2.21 34.46,14.76 46.68,37.86 7.26,13.72 12.24,32.73 15.86,57.35 -10.42,3.81 -20.84,7.56 -31.27,11.23 -1.81,-15.81 -5.45,-28.5 -11.33,-38.21 -5.9,-9.76 -13.14,-15.13 -21.75,-16.15 -11.78,-1.4 -20.84,5.63 -28.1,20.87 -7.24,15.19 -10.87,40.77 -10.87,76.76 0,38.14 3.2,65.73 10.42,82.72 7.28,17.11 16.32,26.18 28.1,27.53 8.15,0.93 15.6,-3.21 21.75,-12.9 6.09,-9.58 10.43,-25.38 13.14,-47.22zm-68.88 184.1c0,-8.04 0,-16.09 0,-24.13 7.25,2.22 14.05,3.81 19.94,4.51 6.34,0.75 11.35,-0.89 14.5,-4.99 2.28,-2.97 3.17,-7.07 3.17,-12.34 0,-4.64 -0.89,-8.89 -3.17,-12.62 -2.25,-3.68 -5.44,-5.73 -10.43,-6.31 -4.53,-0.52 -9.06,0.41 -14.04,2.5 0.9,-6.66 1.81,-13.38 2.72,-20.11 5.89,-3.12 11.79,-4.25 18.13,-3.54 9.07,1.02 15.91,5.66 20.39,13.66 4.57,8.16 6.8,17.68 6.8,28.5 0,12.14 -2.46,21.49 -7.7,28.57 -6.99,9.42 -16.76,13.46 -29.45,12 -9.51,-1.1 -16.32,-2.98 -20.85,-5.69zm267.82 -53.53c-11.33,-1.04 -22.66,-2.01 -33.99,-2.98 -4.53,-23.37 -9.07,-46.67 -13.6,-69.97 -21.3,-1.87 -42.14,-4.02 -62.99,-6.1 -4.53,22.47 -9.06,44.93 -13.14,67.4 -11.33,-1.11 -22.66,-2.29 -33.53,-3.33 9.97,-49.37 20.39,-98.68 30.36,-148.04 9.96,-49.3 20.39,-98.6 30.81,-147.91 10.87,1.11 22.2,2.22 33.53,3.33 10.43,51.24 20.85,102.49 31.27,153.73 10.42,51.24 20.85,102.56 31.27,153.87zm-58.01 -124.95c-7.25,-37.86 -14.5,-75.86 -21.75,-113.86 -7.25,36.55 -14.5,73.09 -21.3,109.7 14.04,1.39 28.55,2.85 43.05,4.16zm-43.05 -213.43c-4.99,-0.49 -9.52,-0.97 -14.05,-1.46 0,-3.19 0,-5.68 0,-7.42 0,-14.42 1.8,-25.32 5.44,-32.73 3.61,-7.36 8.62,-10.75 14.05,-10.2 2.72,0.27 5.04,0.87 7.25,2.22 1.87,1.15 6,4.54 11.78,10.05 5.54,5.29 9.97,8.43 13.14,8.67 2.26,0.17 4.28,-0.98 5.89,-3.67 1.55,-2.59 2.26,-7.28 2.72,-13.87 4.54,0.42 9.07,0.83 14.05,1.25 -0.45,18.86 -1.83,32.03 -5.44,39.8 -3.64,7.82 -8.16,11.42 -13.6,10.95 -2.72,-0.23 -4.99,-0.96 -7.25,-2.15 -1.82,-0.96 -5.76,-4.46 -12.24,-10.06 -6.66,-5.77 -11.33,-8.56 -14.5,-8.88 -2.26,-0.23 -4.26,0.82 -5.44,3.54 -1.09,2.49 -1.81,7.21 -1.81,13.94zm111.48 190.06c0,-30.78 2.56,-56.48 7.25,-77.04 3.46,-15.15 8.43,-28.59 14.5,-40.21 6.16,-11.81 13.06,-20.23 20.39,-25.52 9.88,-7.12 21.3,-10.11 33.99,-9.16 23.1,1.74 41.52,17 55.28,45.56 13.87,28.79 20.85,67.74 20.85,116.98 0,48.89 -6.62,86.77 -20.39,113.24 -13.87,26.64 -32.18,39.09 -55.28,37.3 -23.57,-1.82 -41.98,-17.28 -55.74,-45.84 -13.87,-28.79 -20.85,-67.05 -20.85,-115.31zm32.63 0.83c0,34.19 4.24,60.46 12.69,78.98 8.31,18.23 18.58,28.12 31.27,29.05 12.69,0.94 22.66,-7.14 30.81,-24.06 8.15,-16.91 12.24,-42.99 12.24,-78.08 0,-34.67 -3.8,-60.74 -11.78,-78.42 -7.87,-17.46 -18.13,-27.01 -31.27,-27.94 -13.14,-0.93 -23.86,6.87 -31.72,23.3 -7.99,16.72 -12.24,42.3 -12.24,77.17zm205.28 -135.84c19.03,1.18 38.52,2.45 58.01,3.6 13.14,0.78 23.11,3.25 29.91,7.56 9.07,5.75 16.95,15.44 23.56,29.19 6.53,13.57 11.55,30.2 14.96,49.72 3.38,19.38 4.98,43.34 4.98,71.63 0,24.89 -1.71,46.04 -4.98,64 -3.97,21.78 -9.55,39.31 -16.77,52.56 -5.47,10.04 -12.73,17.54 -22.21,22.82 -6.84,3.81 -16.32,5.41 -27.64,4.71 -19.94,-1.24 -39.88,-2.43 -59.82,-3.67 0,-50.35 0,-100.69 0,-151.03 0,-50.34 0,-100.68 0,-151.09zm31.72 53.05c0,33.35 0,66.7 0,99.99 0,33.35 0,66.7 0,99.99 7.7,0.48 15.4,0.93 23.56,1.46 9.06,0.58 15.43,-0.03 19.49,-1.73 5,-2.1 9.23,-6 12.69,-11.79 3.34,-5.59 5.9,-15.26 8.16,-28.64 2.26,-13.38 3.17,-31.76 3.17,-55.13 0,-23.37 -0.9,-41.27 -3.17,-53.95 -2.26,-12.62 -5.12,-22.4 -9.07,-29.82 -3.76,-7.07 -8.6,-12.29 -14.5,-15.12 -4.53,-2.16 -13.15,-3.57 -25.83,-4.37 -4.99,-0.31 -9.97,-0.62 -14.5,-0.9zm126.89 258.08c0,-50.34 0,-100.68 0,-151.02 0,-50.34 0,-100.68 0,-151.09 38.52,1.87 77.04,3.74 116.01,5.34 0,17.06 0,34.04 0,51.1 -28.09,-1.04 -56.19,-2.43 -84.29,-3.81 0,22.4 0,44.72 0,67.12 25.83,1.25 52.11,2.57 78.39,3.61 0,16.98 0,34.04 0,51.03 -26.28,-1.04 -52.56,-2.36 -78.39,-3.61 0,27.25 0,54.57 0,81.82 29,1.46 58,2.85 87.46,3.95 0,17.06 0,34.05 0,51.03 -39.88,-1.59 -79.76,-3.53 -119.18,-5.48zm207.1 8.74c0,-50.34 0,-100.75 0,-151.09 0,-50.34 0,-100.68 0,-151.02 35.8,1.18 71.6,2.08 107.85,2.98 0,17.06 0,34.04 0,51.03 -25.38,-0.62 -50.75,-1.25 -76.13,-1.94 0,23.92 0,47.84 0,71.7 21.75,0.55 43.5,1.11 65.71,1.8 0,16.99 0,34.04 0,51.03 -22.2,-0.62 -43.96,-1.18 -65.71,-1.73 0,21.36 0,42.72 0,64.14 0,21.36 0,42.79 0,64.14 -10.88,-0.28 -21.3,-0.69 -31.72,-1.04zm133.68 -298.51c10.42,0.35 20.84,0.55 31.72,0.83 0,27.32 0,54.64 0,81.89 0,27.25 0,54.64 0,81.82 0,26 0.49,42.85 1.36,50.55 1.4,12.4 4.59,22.37 9.52,29.88 5.03,7.67 11.79,11.51 20.84,11.65 8.61,0.13 15.43,-3.32 19.94,-10.33 4.55,-7.07 7.25,-15.68 8.16,-26.01 0.9,-10.26 1.36,-27.39 1.36,-51.31 0,-27.87 0,-55.68 0,-83.55 0,-27.88 0,-55.75 0,-83.7 10.42,0.21 20.84,0.35 31.72,0.48 0,26.56 0,53.05 0,79.47 0,26.49 0,52.98 0,79.47 0,36.27 -0.68,61.95 -2.27,76.9 -1.58,14.93 -5,27.53 -9.51,37.79 -4.55,10.33 -10.86,18.33 -18.58,24.34 -7.68,5.99 -17.68,8.92 -29.91,8.74 -14.95,-0.22 -26.29,-3.67 -33.98,-10.54 -7.7,-6.86 -14.23,-15.6 -18.58,-26.49 -4.26,-10.68 -7.15,-21.93 -8.61,-33.7 -2.16,-17.42 -3.17,-42.99 -3.17,-76.83 0,-26.84 0,-53.74 0,-80.58 0,-26.9 0,-53.8 0,-80.78zm193.5 305.24c0,-41.81 0,-83.69 0,-125.51 0,-41.81 0,-83.7 0,-125.58 -15.41,-0.07 -30.81,-0.28 -46.22,-0.49 0,-17.06 0,-34.04 0,-51.1 41.24,0.48 82.48,0.69 124.17,0.9 0,17.06 0,34.04 0,51.03 -15.4,-0.07 -30.81,-0.07 -46.22,-0.21 0,41.88 0,83.77 0,125.58 0,41.81 0,83.69 0,125.51 -10.88,-0.07 -21.3,-0.14 -31.72,-0.14zm98.79 0.41c0,-50.34 0,-100.68 0,-151.02 0,-50.34 0,-100.68 0,-151.09 38.52,0.07 77.04,-0.14 116.01,-0.35 0,17.06 0,34.05 0,51.03 -28.1,0.21 -56.19,0.28 -84.29,0.42 0,22.4 0,44.79 0,67.12 25.83,-0.14 52.12,-0.21 78.4,-0.34 0,17.05 0,34.11 0,51.1 -26.28,0.14 -52.57,0.2 -78.4,0.34 0,27.32 0,54.57 0,81.82 29,-0.14 58.01,-0.21 87.46,-0.34 0,17.05 0,34.04 0,51.1 -39.88,0.14 -79.76,0.34 -119.18,0.2zm145.92 -302.6c20.85,0 41.69,-0.34 62.99,-0.69 12.24,-0.2 21.74,0.73 27.64,2.57 6.33,1.97 11.68,6.05 16.32,12.14 4.87,6.39 9.06,14.64 12.24,25.1 3.16,10.4 4.98,22.26 4.98,35.23 0,14.07 -2.07,27.18 -5.89,38.9 -3.88,11.92 -9.51,20.73 -16.31,26.7 9.51,5.27 16.95,14.28 22.2,27.25 5.16,12.75 7.7,27.94 7.7,45.49 0,13.8 -1.61,27.24 -4.98,40.22 -3.42,13.16 -8.03,23.67 -13.6,31.41 -5.76,8 -13.13,12.83 -21.3,14.7 -5.42,1.24 -18.13,2.2 -38.52,2.64 -18.12,0.39 -35.8,0.55 -53.47,0.62 0,-50.41 0,-100.75 0,-151.16 0,-50.34 0,-100.75 0,-151.1zm32.18 49.93c0,23.3 0,46.46 0,69.69 6.8,-0.07 13.6,-0.16 20.39,-0.28 12.68,-0.22 19.94,-0.62 23.11,-1.39 5.44,-1.31 9.49,-4.94 12.69,-11.02 3.14,-5.98 4.98,-13.8 4.98,-23.51 0,-9.36 -1.36,-16.86 -4.08,-22.67 -2.72,-5.83 -6.81,-9.24 -12.24,-10.34 -3.18,-0.64 -11.79,-1.05 -26.74,-0.76 -6.34,0.12 -12.24,0.21 -18.13,0.28zm0 119.89c0,27.05 0,54.09 0,81.06 9.51,-0.14 19.04,-0.26 29,-0.41 11.78,-0.18 18.97,-1.05 21.75,-2.15 4.92,-1.95 8.83,-5.79 11.78,-12.27 2.93,-6.42 4.53,-15.05 4.53,-25.8 0,-9.22 -1.36,-16.79 -3.62,-23.09 -2.26,-6.31 -5.5,-10.88 -9.97,-13.8 -4.13,-2.69 -13.6,-4.1 -28.09,-3.88 -8.61,0.13 -17.22,0.27 -25.38,0.34zm119.64 -18.93c0,-30.79 2.56,-56.76 7.25,-77.73 3.46,-15.5 8.44,-29.48 14.5,-41.81 6.17,-12.56 13.06,-21.73 20.39,-27.87 9.88,-8.28 21.31,-12.37 33.99,-12.69 23.11,-0.58 41.54,12.77 55.28,39.94 13.89,27.47 20.84,65.81 20.84,115.04 0,48.89 -6.64,87.45 -20.39,115.24 -13.89,28.09 -32.18,42.28 -55.29,42.86 -23.56,0.59 -41.95,-12.79 -55.74,-39.87 -13.85,-27.21 -20.84,-64.83 -20.84,-113.1zm32.62 -2.64c0,34.19 4.27,59.89 12.69,77.45 8.34,17.39 18.59,26.1 31.27,25.8 12.69,-0.31 22.97,-9.5 30.82,-27.04 8,-17.89 12.24,-44.24 12.24,-79.33 0,-34.74 -3.81,-60.38 -11.78,-77.31 -7.88,-16.76 -18.13,-25.06 -31.27,-24.75 -13.13,0.31 -23.86,9.29 -31.72,26.62 -7.99,17.62 -12.24,43.69 -12.24,78.56zm145.47 147.28c0,-49.92 0,-99.92 0,-149.85 0,-49.92 0,-99.92 0,-149.84 10.43,-0.35 20.85,-0.76 31.72,-1.18 0,41.46 0,82.86 0,124.33 0,41.4 0,82.86 0,124.26 26.28,-0.97 52.57,-1.94 78.85,-2.92 0,17.06 0,34.05 0,51.1 -37.16,1.39 -73.87,2.71 -110.57,4.09zm189.88 -310.02c19.03,-0.97 38.52,-1.88 58.01,-2.84 12.68,-0.63 22.64,0.73 29.45,4.09 9.5,4.68 17.39,13.44 24.02,26.49 6.51,12.81 11.55,28.81 14.96,47.98 3.38,19.03 4.98,42.85 4.98,71.07 0,24.96 -1.92,46.37 -4.98,64.62 -3.73,22.17 -9.53,40.35 -16.77,54.43 -5.45,10.6 -12.73,19.01 -22.21,25.45 -6.84,4.65 -16.31,7.38 -28.09,7.97 -19.94,1 -39.88,1.94 -59.37,2.91 0,-50.41 0,-100.75 0,-151.09 0,-50.41 0,-100.75 0,-151.1zm31.72 49.51c0,33.35 0,66.77 0,100.06 0,33.35 0,66.7 0,99.99 7.7,-0.42 15.41,-0.79 23.56,-1.18 9.06,-0.43 15.36,-1.82 19.03,-3.81 5.39,-2.93 9.33,-7.39 12.69,-13.45 3.44,-6.21 6.56,-15.85 8.61,-29.61 2.03,-13.63 3.17,-32.18 3.17,-55.47 0,-23.44 -1.14,-41.29 -3.17,-53.6 -2.04,-12.38 -5.25,-22.02 -9.07,-28.71 -3.89,-6.83 -8.62,-11.28 -14.5,-13.31 -4.54,-1.57 -13.15,-2.26 -25.83,-1.66 -4.98,0.23 -9.97,0.55 -14.5,0.76zm120.09 95c0,-30.79 2.3,-56.78 7.25,-78.08 3.65,-15.66 8.19,-29.74 14.5,-42.3 6.36,-12.67 13.14,-22.19 20.39,-28.64 9.51,-8.46 20.85,-13.26 33.99,-14.21 23.1,-1.68 41.28,10.79 55.28,37.37 14.09,26.74 20.85,64.62 20.85,113.93 0,48.89 -7.01,87.61 -20.85,116.29 -13.81,28.6 -32.17,43.89 -55.28,45.56 -23.1,1.66 -41.49,-11.07 -55.28,-37.65 -13.84,-26.66 -20.85,-64 -20.85,-112.26zm32.63 -4.02c0,34.25 4.07,59.99 12.24,77.18 8.14,17.13 18.58,25.38 31.27,24.41 12.69,-0.97 23.12,-10.47 31.27,-28.57 8.17,-18.16 12.24,-44.79 12.24,-79.88 0,-34.74 -3.89,-60.35 -11.78,-76.76 -7.97,-16.59 -18.58,-24.2 -31.72,-23.23 -13.14,0.97 -23.78,10.24 -31.72,28.01 -7.92,17.72 -11.78,43.97 -11.78,78.84zm205.28 136.05c0,-50.41 0,-100.75 0,-151.16 0,-50.34 0,-100.75 0,-151.09 38.52,-3.4 77.04,-6.73 116.01,-10.33 0,17.05 0,34.04 0,51.03 -28.1,2.63 -56.19,5.13 -84.29,7.56 0,22.47 0,44.79 0,67.19 25.83,-2.29 52.12,-4.58 78.4,-6.93 0,17.06 0,34.05 0,51.03 -26.28,2.36 -52.57,4.65 -78.4,6.94 0,27.32 0,54.64 0,81.89 29,-2.56 58.01,-5.06 87.46,-7.83 0,17.06 0,34.05 0,51.1 -39.88,3.68 -79.76,7.14 -119.18,10.61zm137.76 -110.53c9.97,-2.91 20.39,-5.89 30.81,-8.95 2.27,19.63 5.72,33.95 11.33,42.65 5.72,8.85 13.6,12.66 23.11,11.72 9.97,-0.99 17.83,-5.87 23.11,-14.84 5.13,-8.72 7.7,-18.79 7.7,-29.89 0,-7.21 -1.54,-13.02 -3.63,-17.96 -1.99,-4.71 -5.91,-8.71 -11.33,-11.86 -3.64,-2.12 -11.77,-5.73 -24.92,-10.68 -17.2,-6.48 -29.02,-15.25 -35.8,-26.42 -9.53,-15.72 -14.5,-35.57 -14.5,-59.57 0,-15.33 2.25,-30.1 6.8,-44.03 4.51,-13.81 11.24,-24.85 19.49,-32.59 8.52,-8 19.04,-12.48 30.81,-13.66 19.94,-2 34.41,4.88 44.41,20.66 9.94,15.69 14.96,37.44 15.86,65.39 -10.88,2.01 -21.75,3.88 -32.18,5.62 -1.36,-15.46 -4.24,-26.25 -8.61,-32.73 -4.23,-6.27 -10.87,-9.11 -19.94,-8.18 -9.06,0.93 -16.34,5.19 -21.3,13.03 -3.19,5.05 -4.99,11.51 -4.99,19.42 0,7.14 1.6,13.17 4.54,17.89 3.87,6.23 14.07,11.79 29.45,17.33 14.98,5.4 26.72,11.6 33.99,18.31 7.23,6.67 13.16,16.16 17.22,28.71 4.09,12.62 6.34,28.36 6.34,47.43 0,17.27 -2.72,33.84 -7.7,49.58 -4.97,15.67 -11.85,27.6 -21.3,36.06 -9.13,8.17 -20.39,13.12 -33.98,14.49 -19.94,2.02 -35.04,-5.18 -45.77,-21.84 -10.56,-16.41 -16.77,-41.53 -19.03,-75.1zm189.88 77.52c0,-41.88 0,-83.69 0,-125.51 0,-41.88 0,-83.76 0,-125.65 -15.41,1.8 -30.81,3.54 -46.22,5.34 0,-16.98 0,-33.97 0,-51.03 41.24,-4.78 82.48,-9.57 124.17,-14.7 0,17.06 0,34.05 0,51.04 -15.41,2.01 -30.82,3.88 -46.22,5.69 0,41.88 0,83.76 0,125.65 0,41.81 0,83.62 0,125.51 -10.87,1.25 -21.3,2.43 -31.72,3.67zm223.86 -28.92c-11.78,1.73 -23.11,3.47 -34.44,4.92 -4.53,-22.33 -9.07,-44.72 -13.6,-67.05 -21.3,2.78 -42.14,5.55 -62.99,8.25 -4.53,23.57 -8.61,47.01 -12.69,70.52 -11.33,1.46 -22.66,2.98 -33.54,4.37 9.97,-51.73 19.94,-103.32 29.91,-155.04 9.96,-51.66 20.39,-103.39 30.81,-155.11 10.87,-1.46 22.2,-2.92 33.53,-4.44 10.43,49.03 20.85,97.99 31.27,147.01 10.42,49.02 20.85,97.84 31.72,146.58zm-58 -111.85c-7.25,-36.33 -14.5,-72.67 -21.75,-109 -7.25,38.28 -14.5,76.49 -21.3,114.69 14.05,-1.87 28.55,-3.81 43.05,-5.69zm74.77 -192.84c19.03,-2.78 38.52,-5.68 58,-8.53 12.69,-1.86 22.64,-1.4 29.46,1.39 9.49,3.87 17.38,11.84 24.02,24.2 6.5,12.11 11.56,27.69 14.96,46.46 3.39,18.74 4.98,42.37 4.98,70.58 0,24.96 -1.92,46.58 -4.98,65.11 -3.73,22.59 -9.54,41.32 -16.77,56.17 -5.46,11.22 -12.74,20.25 -22.2,27.53 -6.85,5.27 -16.32,8.79 -28.1,10.54 -19.94,2.96 -39.88,5.9 -59.36,8.81 0,-50.41 0,-100.75 0,-151.16 0,-50.34 0,-100.75 0,-151.09zm31.72 46.39c0,33.35 0,66.78 0,100.06 0,33.35 0,66.71 0,99.99 7.7,-1.11 15.41,-2.28 23.56,-3.46 9.06,-1.31 15.34,-3.37 19.03,-5.69 5.37,-3.36 9.32,-8.14 12.69,-14.49 3.43,-6.48 6.56,-16.48 8.61,-30.37 2.03,-13.77 3.17,-32.45 3.17,-55.82 0,-23.36 -1.14,-41.09 -3.17,-53.25 -2.04,-12.17 -5.22,-21.55 -9.06,-27.94 -3.86,-6.44 -8.61,-10.5 -14.5,-12.07 -4.52,-1.2 -13.14,-0.94 -25.83,0.9 -4.98,0.72 -9.97,1.46 -14.5,2.15zm120.09 83.35c0,-30.79 2.29,-57.07 7.25,-78.84 3.65,-16.01 8.16,-30.58 14.5,-43.89 6.34,-13.31 13.14,-23.44 20.39,-30.65 9.51,-9.43 20.86,-15.27 33.98,-17.48 23.12,-3.89 41.28,6.64 55.29,31.69 14.07,25.15 20.84,62.48 20.84,111.78 0,48.89 -6.99,88.33 -20.84,118.5 -13.78,30.01 -32.16,47.4 -54.84,51.17 -23.54,3.92 -41.92,-6.98 -55.74,-32.18 -13.83,-25.22 -20.84,-61.85 -20.84,-110.11zm32.62 -7.35c0,34.18 4.08,59.5 12.24,75.86 8.15,16.37 18.58,23.58 31.27,21.5 12.69,-2.08 23.15,-12.75 31.27,-31.69 8.19,-19.12 12.24,-46.18 12.24,-81.27 0,-34.67 -3.91,-59.93 -11.79,-75.44 -7.97,-15.69 -18.58,-22.26 -31.72,-20.11 -13.14,2.14 -23.4,12.55 -31.27,30.99 -7.99,18.72 -12.24,45.28 -12.24,80.16zm205.29 -187.15c19.03,-3.81 38.52,-7.65 58,-11.51 12.68,-2.51 22.63,-2.54 29.46,-0.07 9.48,3.42 16.99,11.22 23.56,23.23 6.56,11.99 12.01,27.21 15.41,45.91 3.39,18.61 4.98,42.09 4.98,70.31 0,24.96 -1.91,46.72 -4.98,65.39 -3.72,22.65 -9.53,41.6 -16.77,56.72 -5.44,11.36 -12.72,20.76 -22.2,28.5 -6.83,5.57 -16.33,9.61 -28.1,11.93 -19.94,3.92 -39.88,7.9 -59.36,11.79 0,-50.41 0,-100.75 0,-151.09 0,-50.41 0,-100.75 0,-151.09zm31.72 44.72c0,33.35 0,66.78 0,100.06 0,33.35 0,66.71 0,99.99 7.7,-1.53 15.41,-3.04 23.56,-4.64 9.06,-1.78 15.33,-4.14 19.03,-6.66 5.36,-3.65 9.34,-8.62 12.69,-15.12 3.44,-6.68 6.57,-16.82 8.61,-30.78 2.03,-13.9 3.17,-32.59 3.17,-55.96 0,-23.36 -1.15,-41.08 -3.17,-53.11 -2.04,-12.1 -5.26,-21.33 -9.06,-27.46 -3.9,-6.28 -8.62,-10.12 -14.5,-11.37 -4.53,-0.96 -13.14,-0.32 -26.28,2.29 -4.98,0.99 -9.51,1.87 -14.04,2.78zm126.43 225.7c0,-50.41 0,-100.75 0,-151.09 0,-50.41 0,-100.75 0,-151.09 38.51,-8.32 77.49,-16.79 116.46,-25.24 0,17.06 0,34.05 0,51.03 -28.1,6.11 -56.19,12.21 -84.29,18.31 0,22.4 0,44.8 0,67.13 25.83,-5.55 52.12,-11.23 78.4,-16.92 0,17.05 0,34.04 0,51.03 -26.28,5.69 -52.57,11.37 -78.4,16.99 0,27.32 0,54.57 0,81.82 29.01,-6.24 58.01,-12.55 87.46,-18.93 0,17.06 0,34.05 0,51.1 -39.88,8.67 -79.76,17.27 -119.64,25.87z"/>
   <path class="fil6" d="M3502.02 4274.4c-5.95,0.18 -11.91,0.36 -17.86,0.54l-48.17 1.45 28.51 -38.86c30.55,-41.63 61.21,-83.18 91.98,-124.65l6.78 -9.14 11.38 -0.35c38.72,-1.2 77.43,-2.74 116.13,-4.49l12.42 -0.56 7.46 9.94c29.48,39.32 59.39,78.32 89.29,117.33l27.39 35.72 -44.96 2.07c-6.57,0.3 -13.14,0.61 -19.72,0.91 41.37,12.02 79.82,32.42 112.29,64.41 30.13,29.68 51.28,65.62 65.16,105.45 15.58,44.69 21.46,92.58 21.46,139.76 0,64.58 -8.67,132.37 -37.28,190.99 -25.03,51.29 -61.12,93.02 -109.12,124.01 -52.43,33.84 -113.73,47.79 -175.48,50.2 -59.5,2.32 -122.79,-3.82 -176.9,-30.4 -50.49,-24.8 -88.23,-65.03 -115.75,-113.64 -32.89,-58.08 -43.84,-126.04 -43.84,-192.05 0,-48.22 5.54,-97.21 20.87,-143.1 13.94,-41.72 36.04,-79.16 66.04,-111.3 32.34,-34.65 70.36,-58.6 111.93,-74.23zm108.04 -22.97c6.77,-0.53 13.58,-0.93 20.41,-1.19 8.42,-0.32 16.85,-0.46 25.27,-0.39 -7.72,-9.7 -15.38,-19.47 -23,-29.26 -7.58,10.27 -15.14,20.55 -22.69,30.84zm-2446.04 194.64c0.62,0.59 1.23,1.19 1.82,1.79 11.55,11.65 22.85,29.1 31.91,42.8 9.71,14.69 20.2,31.09 27.41,47.19 29.45,65.84 58.95,131.66 88.45,197.48l18.71 41.75 -44.84 -9.09c-68.93,-13.97 -137.73,-28.58 -206.36,-43.93l-11.36 -2.54 -4.87 -10.57c-32.54,-70.64 -65.02,-141.31 -97.34,-212.05 -6.31,-13.8 -17.8,-38.56 -28.62,-49.34 -6.01,-5.98 -12.84,-10.84 -20.34,-14.41 0,31.47 0,62.94 0,94.41 0,41.92 0,83.84 0,125.76l0 30.4 -29.42 -7.64c-61.13,-15.86 -122.08,-32.34 -183.04,-48.83l-17.38 -4.69 0 -18c0,-103.58 0,-207.15 0,-310.73 0,-103.58 0,-207.15 0,-310.73l0 -30.74 29.67 8.05c100.72,27.32 201.56,54.31 303.04,78.69 43.77,10.51 95.48,24.41 134.83,46.65 34.3,19.38 61.21,46.63 81.01,80.71 21.11,36.35 30.7,76.4 30.7,118.35 0,33.94 -6.6,68.1 -24.65,97.27 -16.47,26.63 -40.04,46.02 -68.84,58.17 -3.38,1.43 -6.89,2.69 -10.48,3.82zm125.75 -6.92c0,-46.73 5.17,-95.12 21.04,-139.31 13.99,-38.96 36.36,-72.99 67.64,-100.19 67.63,-58.81 158.02,-65.08 243.13,-51.84 93.08,14.48 179.16,50.37 241.31,123.18 29.03,34 50.01,73.03 63.92,115.48 15.11,46.08 21.32,94.69 21.32,143.08 0,61.95 -8.19,129.67 -37.64,185.12 -25.27,47.58 -62.69,83.72 -111.74,106.13 -55.19,25.22 -118.55,25.84 -177.52,16.68 -61.68,-9.58 -123.21,-28.81 -174.91,-64.65 -49.25,-34.14 -86.01,-81.01 -113.19,-134.03 -31.69,-61.82 -43.37,-130.67 -43.37,-199.64zm1102.29 89.78c0,-29.53 0,-59.05 0,-88.58 0,-57.19 0,-114.38 0,-171.57l0 -24.96 24.91 1.49c57.26,3.42 114.52,6.92 171.81,9.88l22.3 1.15 0 22.33c0,103.58 0,207.15 0,310.73 0,103.54 0,207.08 0,310.62l0 24.76 -24.72 -1.28c-57.42,-2.96 -114.8,-6.47 -172.19,-9.9l-12.15 -0.73 -6.42 -10.34c-36.99,-59.52 -74.17,-118.93 -110.67,-178.75 -21.99,-36.03 -44.04,-72.02 -66.01,-108.05 0,28.9 0,57.79 0,86.68 0,56.82 0,113.64 0,170.46l0 25.79 -25.68 -2.38c-57.17,-5.29 -114.34,-10.69 -171.42,-16.95l-20.95 -2.3 0 -21.07c0,-103.58 0,-207.15 0,-310.73 0,-103.54 0,-207.08 0,-310.62l0 -26.21 26.06 2.84c56.5,6.14 113.07,11.53 169.66,16.77l11.78 1.09 6.14 10.11c36.67,60.33 73.55,120.54 110.51,180.7 22.33,36.34 44.67,72.68 67.03,109.01zm320.11 -268.16c90.13,2.87 180.26,5.51 270.42,7.02 45.88,0.77 97.01,6.35 138.92,26.2 35.82,16.97 66.49,41.33 90.31,73.03 24.29,32.32 40.79,68.63 50.68,107.76 10.45,41.3 15.46,83.56 15.46,126.15 0,52.35 -4.09,113.82 -23.22,163.06 -14.73,37.92 -36.21,72.29 -65.53,100.65 -26.31,25.45 -56.69,45.02 -92.2,54.76 -37.14,10.19 -76.61,17.44 -115.24,16.76 -90.39,-1.61 -180.75,-4.17 -271.11,-7.03l-22.77 -0.72 0 -22.78c0,-103.58 0,-207.15 0,-310.73 0,-103.54 0,-207.08 0,-310.62l0 -24.27 24.26 0.77zm1520.66 340.86c0,31.58 0,63.17 0,94.75 0,56.86 0,113.71 0,170.57l0 21.49 -21.41 1.92c-57.25,5.14 -114.49,10.44 -171.81,14.85l-25.32 1.95 0 -25.39c0,-103.58 0,-207.15 0,-310.73 0,-103.61 0,-207.22 0,-310.84l0 -21.76 21.69 -1.68c56.62,-4.4 113.18,-9.57 169.73,-14.69l13.73 -1.24 7.79 11.37c36.65,53.51 73.55,106.84 110.49,160.14 22.57,32.54 45.13,65.09 67.74,97.6 0,-32.24 0,-64.48 0,-96.72 0,-57.22 0,-114.45 0,-171.67l0 -20.69 20.53 -2.63c57.42,-7.35 114.86,-14.59 172.19,-22.7l26.8 -3.79 0 27.07c0,103.61 0,207.23 0,310.84 0,103.58 0,207.15 0,310.73l0 20.42 -20.22 2.86c-57.53,8.13 -115.17,15.39 -172.8,22.78l-14.06 1.8 -8.16 -11.59c-36.99,-52.58 -73.82,-105.28 -110.23,-158.27 -22.18,-32.28 -44.48,-64.49 -66.7,-96.75zm473.41 199.75c0,-103.58 0,-207.15 0,-310.73 0,-103.61 0,-207.22 0,-310.84l0 -19.97 19.71 -3.23c60.87,-9.99 121.74,-19.97 182.45,-30.91l27.68 -4.99 0 28.13c0,103.58 0,207.15 0,310.73 0,103.58 0,207.15 0,310.73l0 19.62 -19.3 3.51c-60.95,11.09 -122.09,21.12 -183.22,31.15l-27.32 4.48 0 -27.68zm683.83 -211.08c-57.08,14 -114.35,27.21 -171.68,40.15 -8.92,31.75 -17.52,63.6 -26.1,95.44l-3.77 13.99 -14.19 2.92c-61.95,12.75 -123.92,25.39 -186,37.5l-39.56 7.71 12.75 -38.24c36.98,-110.84 73.77,-221.75 110.56,-332.66 37.01,-111.56 74.37,-222.99 111.57,-334.48l4.2 -12.58 12.94 -2.92c66.49,-14.97 132.88,-30.37 199.03,-46.78l20.05 -4.98 7.51 19.25c36.75,94.19 73.54,188.36 110.55,282.44 36.82,93.62 73.69,187.23 110.57,280.84l9.63 24.47 -25.39 6.85c-63.74,17.2 -127.49,34.42 -191.42,50.92l-21.7 5.61 -6.63 -21.42c-7.64,-24.67 -15.28,-49.35 -22.93,-74.03zm-4471.48 -322.22c19.62,4.86 39.24,9.68 58.84,14.57 11.37,2.84 31.52,2.75 43.32,2.94 4.62,0.07 8.24,-1.21 11.27,-4.74 4.51,-5.27 5.65,-11.64 5.65,-18.43 0,-13.2 -3.32,-24.72 -12.19,-34.63 -11.62,-12.98 -39.7,-21.35 -55.94,-25.36 -16.99,-4.2 -33.97,-8.42 -50.95,-12.63 0,26.09 0,52.19 0,78.29zm600.04 204.67c0,40.26 4.87,93.07 29.05,126.93 18.51,25.93 43.42,41.41 74.93,46.34 26.27,4.11 51.77,1.18 70.37,-19.28 23.6,-25.96 25.83,-91.24 25.83,-124.01 0,-38.55 -5.1,-86.9 -28.8,-118.91 -19.14,-25.86 -44.57,-39.71 -76.17,-44.69 -26.07,-4.11 -49.16,-0.19 -67.72,19.41 -24.19,25.54 -27.47,81.3 -27.47,114.21zm1398.14 -18.5c0,48.6 0,97.2 0,145.8 0,48.82 0,97.63 0,146.45 7.38,0.13 14.75,0.26 22.13,0.4 18.07,0.33 53.14,-0.16 69.43,-9.02 13.44,-7.3 22.13,-20.82 27.8,-34.62 10.84,-26.41 11.99,-70.72 11.99,-98.93 0,-33.44 -2.83,-92.99 -25.5,-120.14 -19.74,-23.64 -55.11,-29.06 -84.08,-29.56 -7.26,-0.12 -14.52,-0.25 -21.78,-0.38zm615.76 145.36c0,35.62 3.58,90.27 27.51,119.09 18.45,22.23 43.34,30.77 71.89,29.64 29.75,-1.19 54.85,-11.61 73.3,-35.31 24.12,-30.99 26.99,-94.13 26.99,-131.54 0,-34.33 -3.87,-83.73 -27.63,-110.97 -19.17,-21.98 -44.02,-29.56 -72.75,-28.43 -29.35,1.16 -52.64,12.06 -71,35.1 -24.39,30.62 -28.3,84.99 -28.3,122.42zm1805.16 -179.37c-8.32,-26.54 -16.63,-53.09 -24.94,-79.64 -2.87,-9.18 -5.74,-18.35 -8.6,-27.53 -3.75,13.78 -7.47,27.58 -11.07,41.4 -7.1,27.17 -14.6,54.23 -21.94,81.34 22.21,-5.08 44.4,-10.25 66.55,-15.57z"/>
   <path class="fil5" d="M712.25 4606.55c0,-103.58 0,-207.15 0,-310.73 0,-103.58 0,-207.15 0,-310.73 101.24,27.46 202.3,54.5 303.71,78.86 55.85,13.42 99.22,27.57 128.76,44.26 29.92,16.91 54.06,40.75 72.24,72.06 18.18,31.3 27.52,66.78 27.52,106.54 0,34.38 -7.4,62.7 -21.13,84.9 -13.79,22.28 -33.44,38.51 -57.99,48.88 -15.25,6.44 -36.86,9.89 -63.89,10.33 21.62,12.41 37.86,23.6 47.67,33.5 6.4,6.46 16.12,19.74 28.99,39.21 12.68,19.18 21.1,33.85 25.56,43.83 29.44,65.81 58.97,131.7 88.46,197.49 -68.8,-13.95 -137.6,-28.56 -205.91,-43.83 -32.43,-70.41 -64.81,-140.84 -97.31,-211.98 -12.71,-27.82 -23.54,-46.4 -33.42,-56.24 -12.73,-12.68 -28.03,-21.23 -44.72,-25.37 -5.42,-1.35 -10.81,-2.75 -15.73,-3.95 0,42.07 0,84.14 0,125.98 0,41.84 0,83.91 0,125.76 -60.93,-15.81 -121.87,-32.29 -182.81,-48.77zm182.81 -320.06c25.56,6.37 51.12,12.63 76.67,19 8.35,2.08 24.56,3.26 48.65,3.63 11.79,0.18 21.98,-4.2 29.49,-12.96 7.72,-9.03 11.3,-20.1 11.3,-33.72 0,-20.1 -6.05,-36.75 -18.18,-50.31 -11.95,-13.36 -34.41,-24.25 -67.82,-32.51 -27.03,-6.68 -53.57,-13.29 -80.11,-19.88 0,42.4 0,84.57 0,126.75zm418.22 152.67c0,-50.63 6.4,-94.46 19.66,-131.37 13.28,-37 34.01,-66.99 60.94,-90.4 53.66,-46.66 128.15,-61.28 224.09,-46.35 98.18,15.28 173.97,53.05 227.05,115.21 26.53,31.08 46.18,67.01 59.46,107.53 13.25,40.42 20.15,85.78 20.15,135.76 0,72.6 -11.8,130.59 -34.89,174.09 -23.09,43.49 -56.85,75.72 -100.74,95.78 -43.59,19.92 -98.36,25.04 -164.14,14.83 -66.42,-10.32 -121.58,-30.55 -165.12,-60.74 -43.44,-30.11 -78.46,-72.37 -105.66,-125.43 -27.35,-53.37 -40.79,-116.32 -40.79,-188.92zm181.83 33.61c0,62.61 11.31,109.61 33.42,140.59 22.11,30.97 52.55,49.98 90.43,55.91 39.28,6.15 69.86,-3 91.4,-26.69 21.7,-23.87 31.95,-70.3 31.95,-139.82 0,-58.43 -11.2,-102.89 -33.42,-132.9 -22.5,-30.4 -53.11,-47.89 -91.41,-53.93 -36.89,-5.82 -66.22,2.99 -88.46,26.47 -22.48,23.74 -33.91,67.22 -33.91,130.38zm529.28 -238.13c56.51,6.15 113.03,11.53 170.04,16.81 36.85,60.63 73.72,120.82 110.57,180.79 36.85,59.96 73.71,119.94 110.57,179.69 0,-57.22 0,-114.34 0,-171.57 0,-57.11 0,-114.34 0,-171.57 57,3.4 114.5,6.92 172,9.89 0,103.57 0,207.15 0,310.73 0,103.57 0,207.04 0,310.62 -57.5,-2.97 -115,-6.48 -172,-9.89 -36.86,-59.31 -74.23,-119.05 -110.57,-178.59 -36.39,-59.63 -73.23,-119.61 -109.59,-179.8 0,56.9 0,113.79 0,170.69 0,56.78 0,113.68 0,170.46 -57,-5.27 -114.01,-10.66 -171.02,-16.91 0,-103.57 0,-207.15 0,-310.73 0,-103.58 0,-207.04 0,-310.62zm687.03 49.65c89.93,2.86 180.35,5.51 270.78,7.03 53.56,0.9 96.81,8.58 129.25,23.95 32.92,15.6 60.35,37.65 81.58,65.9 21.52,28.64 37.12,61.57 46.69,99.4 9.6,37.96 14.74,77.99 14.74,120.38 0,66.34 -7.38,117.86 -21.62,154.54 -14.25,36.68 -34.35,67.5 -59.95,92.26 -25.5,24.66 -52.6,40.91 -82.07,48.99 -39.82,10.92 -76.18,16.5 -108.61,15.92 -90.43,-1.61 -180.85,-4.17 -270.78,-7.03 0,-103.58 0,-207.15 0,-310.73 0,-103.58 0,-207.05 0,-310.62zm181.83 146.08c0,56.57 0,113.14 0,169.7 0,56.57 0,113.02 0,169.59 14.74,0.22 29.97,0.49 45.21,0.77 37.83,0.7 65.35,-3.31 81.09,-11.86 16.2,-8.8 29.25,-24.27 38.33,-46.35 9.11,-22.18 13.76,-58.1 13.76,-107.86 0,-65.79 -10.48,-110.67 -30.96,-135.21 -20.31,-24.34 -54.05,-37.17 -101.72,-38 -15.23,-0.26 -30.47,-0.55 -45.7,-0.77zm433.44 172.67c0,-50.74 6.41,-95.99 19.66,-135.65 13.28,-39.75 33.99,-73.84 60.93,-102.7 53.65,-57.46 128.29,-87.26 224.09,-90.94 98.31,-3.78 173.97,19.44 227.05,71.72 26.53,26.14 46.18,58.33 59.46,96.44 13.25,38.01 20.15,82.05 20.15,132.02 0,72.71 -11.48,132.7 -34.9,180.68 -23.26,47.68 -56.51,86.01 -100.74,114.56 -43.73,28.23 -98.27,43.91 -163.65,46.46 -66.82,2.61 -122.06,-6.62 -165.62,-28.01 -43.43,-21.33 -78.61,-56.36 -105.66,-104.12 -27,-47.68 -40.79,-107.86 -40.79,-180.46zm182.32 -3.41c0,62.61 10.79,107.44 32.93,134.11 22.08,26.6 52.59,39.64 90.91,38.11 38.83,-1.54 69.35,-16.65 90.92,-44.37 21.67,-27.85 31.95,-76.34 31.95,-145.97 0,-58.43 -10.92,-100.62 -33.42,-126.42 -22.71,-26.04 -53.07,-37.98 -91.4,-36.47 -36.85,1.45 -66.23,16.04 -88.46,43.94 -22.48,28.22 -33.42,73.92 -33.42,137.07zm66.35 -472.73c38.82,-1.21 77.65,-2.75 116.47,-4.51 29.49,39.32 59.47,78.42 89.44,117.53 -33.42,1.54 -66.84,3.07 -99.76,4.51 -16.71,-20.76 -32.93,-41.74 -49.14,-62.72 -16.71,22.3 -32.93,44.49 -49.14,66.56 -33.42,1.1 -66.84,2.2 -99.76,3.18 30.47,-41.52 60.94,-82.82 91.9,-124.55zm462.44 133.34c56.52,-4.39 113.03,-9.55 170.04,-14.72 36.86,53.82 73.77,107.17 110.57,160.25 36.9,53.23 73.71,106.32 110.57,159.04 0,-57.22 0,-114.34 0,-171.57 0,-57.11 0,-114.45 0,-171.67 57.5,-7.36 115,-14.61 172.49,-22.74 0,103.58 0,207.15 0,310.84 0,103.57 0,207.15 0,310.73 -57.5,8.13 -115,15.37 -172.49,22.74 -36.86,-52.39 -73.72,-105.12 -110.08,-158.05 -36.37,-52.94 -73.22,-105.88 -109.59,-159.38 0,56.89 0,113.79 0,170.69 0,56.89 0,113.68 0,170.57 -57.5,5.16 -114.5,10.44 -171.51,14.83 0,-103.57 0,-207.15 0,-310.73 0,-103.68 0,-207.26 0,-310.84zm691.94 -80.4c60.94,-10 121.87,-19.99 182.81,-30.97 0,103.57 0,207.15 0,310.73 0,103.58 0,207.15 0,310.73 -60.94,11.09 -121.88,21.09 -182.81,31.08 0,-103.58 0,-207.15 0,-310.73 0,-103.69 0,-207.26 0,-310.84zm676.21 382.34c-68.8,17.13 -137.6,32.95 -206.4,48.44 -10.33,36.36 -20.15,72.71 -29.98,109.18 -61.92,12.74 -123.84,25.37 -185.76,37.45 36.86,-110.49 73.73,-221.65 110.57,-332.7 36.87,-111.15 74.21,-222.52 111.56,-334.45 66.34,-14.94 132.69,-30.32 199.53,-46.9 36.85,94.46 73.71,188.81 110.57,282.5 36.85,93.69 73.71,187.27 110.57,280.85 -63.89,17.24 -127.77,34.49 -191.17,50.85 -9.83,-31.74 -19.66,-63.49 -29.49,-95.23zm-38.33 -124.99c-10.81,-34.49 -21.64,-69.08 -32.43,-103.58 -10.82,-34.59 -21.62,-69.3 -32.43,-104.13 -10.81,39.65 -22.1,79.53 -32.43,119.07 -10.3,39.43 -21.62,79.3 -31.94,118.84 42.75,-9.67 86,-19.55 129.24,-30.21z"/>
   <path class="fil7" d="M2291.58 5201.83c-378.51,274.49 -834.95,541.18 -1279.75,763.18 34.78,33.91 71.81,66.89 111.21,99.03 306.09,249.66 700.58,414.92 1052.6,590.5 363.76,181.43 702.2,377.79 998.9,648.65 296.7,-270.86 635.14,-467.21 998.9,-648.65 352.02,-175.58 746.51,-340.83 1052.6,-590.5 40.31,-32.88 78.15,-66.65 113.63,-101.4 -454.14,-226.95 -920.09,-500.32 -1302.54,-780.89 -594.16,65.16 -1176.08,72.21 -1745.54,20.09z"/>
   <path class="fil6" d="M2043.42 5682.25c0,43.99 0,87.99 0,131.98 0,44.72 0,89.44 0,134.15 1.81,0.13 3.63,0.26 5.45,0.39 23.06,1.65 49.59,1.17 71.42,-7.35 18.7,-7.3 32.87,-21.21 43.73,-37.8 15.39,-23.5 21.98,-55.35 25.03,-82.85l1.79 -16.14 16.17 1.51c6.27,0.58 12.53,1.24 18.79,1.82l15 1.4 0 15.06c0,60.67 0,121.33 0,182 0,60.64 0,121.27 0,181.91l0 18.37 -18.27 -1.93c-6.19,-0.66 -12.39,-1.23 -18.58,-1.8l-13.58 -1.27 -1.34 -13.57c-4.08,-41.37 -14.84,-101.6 -49.23,-129.56 -27.29,-22.19 -58.18,-34.83 -93.28,-37.32 -1.03,-0.07 -2.06,-0.15 -3.09,-0.22 0,31.2 0,62.41 0,93.61 0,37.07 0,74.13 0,111.2 0,12.42 -0.09,52.97 4.64,64.04 3.44,8.02 10.73,14.26 17.85,18.97 11.5,7.6 26.72,10.39 40.23,11.38 8.04,0.59 16.05,1.42 24.09,2.08l15.16 1.26 0 15.21c0,6.18 0,12.36 0,18.54l0 17.79 -17.74 -1.31c-125.59,-9.23 -251.42,-15.2 -377.33,-17.6l-16.21 -0.31 0 -16.21c0,-6.18 0,-12.36 0,-18.54l0 -16.69 16.69 0.16c7.98,0.08 15.96,0.16 23.94,0.25 14.11,0.16 29.96,-1.73 42.49,-8.69 6.94,-3.85 11.12,-10.17 14.11,-17.38 4.57,-11.02 4.72,-49.24 4.72,-61.41 0,-79.84 0,-159.69 0,-239.54 0,-79.85 0,-159.69 0,-239.54 0,-12.91 0,-52.37 -4.76,-64.06 -2.99,-7.34 -10.38,-13.14 -16.93,-17.13 -11.33,-6.91 -27.02,-8.7 -40.01,-8.85 -8.02,-0.09 -16.05,-0.17 -24.08,-0.34l-16.18 -0.34 0 -16.18c0,-6.24 0,-12.47 0,-18.71l0 -17.01 17 0.49c204.7,5.91 409.07,20.46 612.88,40.15l14.94 1.45 0 15.01c0,34.75 0,69.5 0,104.25 0,34.69 0,69.39 0,104.08l0 18.28 -18.19 -1.84c-7.33,-0.74 -14.67,-1.48 -21.99,-2.24l-13.33 -1.4 -1.38 -13.33c-3.63,-34.98 -12.46,-75.88 -34.93,-104 -20.77,-26 -50.6,-42.52 -81.63,-53.24 -31.81,-10.99 -81.74,-14.83 -115.26,-17.53 -16.26,-1.31 -32.52,-2.43 -48.8,-3.55zm669.59 64.87c0,43.84 0,87.68 0,131.53 0,44.84 0,89.69 0,134.54 1.91,0.18 3.83,0.36 5.75,0.53 22.84,2.07 49.72,2.07 71.4,-6.38 18.78,-7.33 32.87,-21.46 43.69,-38.15 15.36,-23.69 22.01,-55.75 25.06,-83.41l1.76 -15.99 16.03 1.34c6.15,0.51 12.3,0.92 18.45,1.41l15.22 1.21 0 15.27c0,60.67 0,121.33 0,182 0,60.64 0,121.27 0,181.91l0 17.89 -17.84 -1.42c-6.19,-0.49 -12.39,-0.9 -18.57,-1.42l-13.72 -1.15 -1.36 -13.7c-4.08,-41.27 -15.05,-100.85 -49.46,-128.61 -27.53,-22.19 -58.43,-35.17 -93.66,-38.38 -0.92,-0.08 -1.84,-0.17 -2.76,-0.25 0,31.06 0,62.12 0,93.18 0,37.07 0,74.13 0,111.2 0,12.59 -0.1,53 4.67,64.26 3.44,8.12 10.99,14.78 18.09,19.68 11.3,7.79 26.83,10.74 40.24,11.97 7.93,0.72 15.86,1.32 23.8,1.97l15.16 1.26 0 15.21c0,6.18 0,12.36 0,18.54l0 18.09 -18.02 -1.63c-126.26,-11.43 -252.4,-24.18 -378.47,-37.53l-14.79 -1.57 0 -14.87c0,-6.18 0,-12.36 0,-18.54l0 -18.51 18.4 2.09c7.92,0.9 15.85,1.72 23.78,2.55 13.54,1.43 29.43,1.29 42.03,-4.53 6.52,-3.01 10.36,-9.08 13.18,-15.44 4.4,-9.94 4.58,-49.36 4.58,-60.55 0,-79.82 0,-159.63 0,-239.45 0,-79.85 0,-159.69 0,-239.54 0,-13.06 0.08,-52.82 -4.75,-64.61 -3.36,-8.2 -10.63,-14.74 -17.75,-19.68 -11.62,-8.04 -26.95,-11.4 -40.78,-12.89 -8.01,-0.86 -16.03,-1.66 -24.04,-2.58l-14.65 -1.68 0 -14.74c0,-6.23 0,-12.47 0,-18.71l0 -18.35 18.25 1.91c203.3,21.3 406.94,39.92 611.02,51.94l15.55 0.91 0 15.58c0,34.75 0,69.5 0,104.25 0,34.69 0,69.39 0,104.08l0 17.09 -17.08 -0.57c-7.32,-0.24 -14.63,-0.49 -21.95,-0.74l-14.45 -0.5 -1.42 -14.39c-3.38,-34.29 -12.01,-74.43 -34.69,-101.57 -21.01,-25.15 -50.69,-40.37 -81.47,-50.16 -32.25,-10.26 -81.67,-13.83 -115.47,-16.76 -16.33,-1.42 -32.65,-2.88 -48.98,-4.42zm666.45 356.09c0,28.73 0,57.46 0,86.18 0,34.06 0,68.12 0,102.18 0,13.08 -0.29,55.46 4.1,67.28 2.05,5.54 6.55,9.28 11.6,12.08 8.73,4.84 26.4,4.65 36.01,4.09 14.36,-0.85 28.7,-1.9 43.04,-2.97 55.74,-4.15 110.52,-19.83 153.68,-56.7 43.33,-37 68.29,-89.19 82.77,-143.39l2.95 -11.03 11.35 -1.15c6.61,-0.67 13.22,-1.34 19.82,-2.06l21.07 -2.29 -2.91 20.99c-5.41,39 -10.83,77.99 -16.24,116.99 -5.41,39 -10.81,78.01 -16.24,117.01l-1.81 13.01 -13.09 1.17c-209.09,18.69 -418.86,30.37 -628.82,31.53l-16.62 0.09 0 -16.62c0,-6.18 0,-12.36 0,-18.55l0 -16.7 16.7 0.17c7.98,0.08 15.96,0.16 23.94,0.25 14.15,0.16 29.9,-1.62 42.48,-8.6 6.97,-3.87 11.14,-10.73 14.15,-17.89 4.57,-10.85 4.68,-49.6 4.68,-61.64 0,-79.85 0,-159.69 0,-239.54 0,-79.87 0,-159.75 0,-239.62 0,-12.72 0.87,-44.85 -2.29,-56.69 -2.22,-8.33 -6.45,-14.74 -13.4,-19.79 -13.26,-9.63 -29.98,-12.53 -46.03,-12.73 -7.96,-0.1 -15.92,-0.17 -23.88,-0.25l-16.36 -0.16 0 -16.36c0,-6.24 0,-12.47 0,-18.71l0 -16.44 16.44 -0.09c202.37,-1.08 404.58,-11.94 606.15,-29.58l17.97 -1.57 0 18.04c0,35.85 0,71.71 0,107.56 0,35.82 0,71.65 0,107.47l0 15.06 -15 1.4c-7.07,0.66 -14.13,1.4 -21.2,2l-14.74 1.26 -2.88 -14.5c-6.19,-31.22 -17.85,-76.69 -39.47,-101.16 -18.48,-20.92 -43.72,-32.29 -70.51,-38.48 -28.13,-6.5 -78.27,-2.84 -107.12,-0.93 -20.1,1.33 -40.21,2.37 -60.33,3.41 0,44.15 0,88.3 0,132.45 0,43.51 0,87.02 0,130.53 33.77,-2.35 65.08,-13.27 84.9,-42.24 23.35,-34.13 32.72,-82.49 36.79,-122.9l1.39 -13.83 13.86 -1c6.82,-0.49 13.64,-1 20.45,-1.63l18.06 -1.68 0 18.14c0,63.42 0,126.85 0,190.27 0,63.4 0,126.8 0,190.2l0 15.06 -15 1.4c-7.03,0.65 -14.07,1.17 -21.12,1.68l-15.99 1.17 -1.65 -15.94c-3.23,-31.18 -10.01,-65.87 -25.14,-93.66 -9.1,-16.72 -22.22,-34.67 -40.22,-42.51 -15.95,-6.95 -37.3,-8.66 -56.33,-8.51zm971.4 -88.35c24.52,33.35 49.22,66.57 73.54,100.07 28.96,39.89 57.95,79.76 87.11,119.5 10.72,14.61 31.75,44.12 46,55.03 12.15,9.31 26.84,13.37 41.99,14.08l15.75 0.74 0 15.77c0,6.54 0,13.08 0,19.62l0 16.31 -16.31 0.21c-76.16,0.99 -152.3,3.38 -228.38,7.19l-8.83 0.44 -5.26 -7.1c-39.01,-52.6 -78.08,-105.16 -117.3,-157.6 -36.99,-49.45 -74.24,-98.72 -111.46,-148 -7.8,0.73 -15.6,1.47 -23.4,2.22 0,29.2 0,58.4 0,87.61 0,34.17 0,68.34 0,102.51 0,11.96 0.19,55.5 5.38,65.89 3.45,6.9 9.75,11.01 16.75,13.84 13.71,5.54 46.22,3.18 60.73,1.92l17.96 -1.56 0 18.03c0,6.18 0,12.36 0,18.55l0 15.06 -15 1.4c-123.92,11.51 -247.71,24.34 -371.46,37.48l-18.27 1.94 0 -18.38c0,-6.18 0,-12.36 0,-18.54l0 -14.87 14.78 -1.57c15.82,-1.67 47.63,-5.64 61.33,-14.21 7.76,-4.86 14.93,-11.36 18.82,-19.81 5.79,-12.59 5.89,-53.76 5.89,-67.78 0,-79.13 0,-158.26 0,-237.39 0,-79.13 0,-158.26 0,-237.39 0,-12.22 -0.25,-55.07 -5.64,-65.76 -3.42,-6.79 -9.71,-10.95 -16.64,-13.67 -13.59,-5.35 -45.98,-2.38 -60.26,-0.85l-18.28 1.95 0 -18.39c0,-6.24 0,-12.47 0,-18.71l0 -14.87 14.79 -1.57c112.53,-11.92 225.04,-24.17 337.72,-34.55 59.78,-5.5 139.35,-10.27 198.16,3.78 43.92,10.49 80.57,32.96 108.98,68.11 29.03,35.9 42.12,77.95 42.12,124 0,57.79 -21.05,107.32 -62.96,147.12 -24.92,23.66 -56.06,40.26 -88.35,52.19zm-246.56 -33c4.14,-0.4 8.28,-0.8 12.42,-1.19 32.85,-3.05 76.08,-8.48 106.38,-22.13 22,-9.91 38.57,-25.79 50.55,-46.71 14.62,-25.54 18.89,-56.85 18.89,-85.86 0,-36.14 -5.61,-81.19 -33.51,-107.34 -28.45,-26.66 -76.1,-27.84 -112.54,-24.57 -14.07,1.26 -28.14,2.64 -42.2,4.04 0,47.84 0,95.68 0,143.52 0,46.74 0,93.49 0,140.23z"/>
   <path class="fil5" d="M2026.89 5664.52c0,49.93 0,99.86 0,149.7 0,49.85 0,99.7 0,149.54 6.84,0.5 13.68,0.98 20.79,1.49 32.19,2.3 58.12,-0.45 78.61,-8.44 20.23,-7.9 37.49,-22.68 51.55,-44.14 14.14,-21.59 23.36,-51.58 27.63,-90.09 6.26,0.58 12.53,1.24 18.79,1.82 0,60.69 0,121.38 0,182 0,60.61 0,121.3 0,181.91 -6.26,-0.66 -12.53,-1.24 -18.79,-1.82 -6.84,-69.3 -25.09,-116.23 -55.25,-140.76 -30.21,-24.56 -64.37,-38.27 -102.53,-40.99 -7.12,-0.5 -13.95,-0.99 -20.79,-1.49 0,37.09 0,74.27 0,111.37 0,37.01 0,74.11 0,111.2 0,37.42 1.89,60.99 5.98,70.55 4.17,9.73 12.03,18.38 23.93,26.25 12.02,7.94 27.92,12.59 48.13,14.07 7.98,0.58 15.95,1.41 23.92,2.07 0,6.21 0,12.42 0,18.54 -126.17,-9.27 -252.34,-15.24 -378.22,-17.64 0,-6.13 0,-12.33 0,-18.54 7.97,0.08 15.95,0.16 23.92,0.25 20.79,0.23 37.77,-3.59 50.69,-10.76 9.29,-5.16 16.35,-13.41 21.36,-25.5 3.53,-8.52 5.98,-31.05 5.98,-67.73 0,-79.82 0,-159.72 0,-239.54 0,-79.74 0,-159.64 0,-239.54 0,-37.42 -2.19,-60.98 -5.98,-70.3 -3.89,-9.56 -11.96,-17.89 -23.64,-25.01 -11.96,-7.29 -28.2,-11.02 -48.42,-11.26 -7.97,-0.09 -15.95,-0.16 -23.92,-0.33 0,-6.13 0,-12.42 0,-18.71 203.92,5.88 407.84,20.37 611.77,40.08 0,34.78 0,69.63 0,104.25 0,34.69 0,69.47 0,104.08 -7.41,-0.75 -14.81,-1.49 -21.93,-2.24 -5.13,-49.43 -17.95,-86.95 -38.45,-112.61 -20.5,-25.67 -50.38,-45.14 -89.14,-58.54 -21.61,-7.47 -61.22,-13.71 -119.34,-18.38 -22.2,-1.78 -44.43,-3.23 -66.65,-4.8zm669.59 64.42c0,49.93 0,99.85 0,149.7 0,49.85 0,99.69 0,149.54 6.83,0.66 13.67,1.35 20.79,1.99 32.18,2.91 58.41,0.54 78.89,-7.45 20.24,-7.9 37.43,-22.78 51.55,-44.55 14.07,-21.69 23.35,-51.92 27.62,-90.58 5.98,0.5 12.25,0.91 18.51,1.41 0,60.69 0,121.38 0,182 0,60.61 0,121.3 0,181.91 -6.26,-0.5 -12.53,-0.91 -18.51,-1.41 -6.83,-69.13 -25.51,-115.64 -55.54,-139.85 -30.35,-24.47 -64.37,-38.49 -102.53,-41.98 -7.12,-0.65 -13.95,-1.33 -20.79,-1.99 0,37.09 0,74.27 0,111.37 0,37.01 0,74.11 0,111.2 0,37.42 1.89,61.07 5.98,70.71 4.16,9.82 12.22,18.75 23.92,26.83 11.93,8.23 27.91,12.98 48.13,14.82 7.96,0.72 15.95,1.33 23.92,1.99 0,6.21 0,12.42 0,18.54 -126.17,-11.42 -252.34,-24.18 -378.22,-37.51 0,-6.13 0,-12.33 0,-18.54 7.97,0.91 15.95,1.73 23.92,2.57 21.08,2.22 37.8,-0.01 50.69,-5.97 9.32,-4.31 16.19,-12.07 21.36,-23.76 3.66,-8.27 5.99,-30.55 5.99,-67.24 0,-79.82 0,-159.63 0,-239.45 0,-79.82 0,-159.64 0,-239.54 0,-37.43 -2.01,-61.19 -5.99,-70.88 -4,-9.76 -11.72,-18.74 -23.64,-26.99 -12,-8.3 -27.91,-13.53 -48.42,-15.73 -7.97,-0.86 -15.95,-1.65 -23.92,-2.57 0,-6.21 0,-12.42 0,-18.71 203.92,21.36 407.85,39.99 611.77,52 0,34.78 0,69.64 0,104.25 0,34.7 0,69.47 0,104.08 -7.41,-0.25 -14.81,-0.49 -21.93,-0.74 -4.84,-49.1 -17.76,-85.78 -38.45,-110.54 -20.61,-24.67 -50.15,-42.91 -89.14,-55.31 -21.38,-6.8 -61.24,-12.47 -119.05,-17.47 -22.5,-1.95 -44.71,-3.97 -66.93,-6.13zm666.45 21.61c0,49.43 0,98.86 0,148.13 0,49.26 0,98.61 0,147.96 4.84,-0.25 9.69,-0.48 14.53,-0.75 46.14,-2.55 79.66,-19.07 100.54,-49.59 20.7,-30.26 33.89,-73.94 39.59,-130.58 6.84,-0.49 13.67,-0.99 20.79,-1.65 0,63.42 0,126.93 0,190.27 0,63.43 0,126.85 0,190.2 -7.12,0.66 -13.95,1.16 -20.79,1.65 -4.27,-41.24 -13.3,-74.58 -27.06,-99.86 -13.86,-25.47 -29.99,-41.86 -48.13,-49.76 -18.32,-7.98 -44.71,-11.26 -79.46,-9.35 0,34.03 0,68.14 0,102.18 0,34.03 0,68.14 0,102.18 0,39.99 1.82,64.13 5.13,73.03 3.24,8.73 9.72,15.59 19.08,20.78 9.15,5.07 24.21,7.36 45,6.13 14.24,-0.84 28.78,-1.9 43.29,-2.98 67.79,-5.04 122.18,-25.59 163.19,-60.61 41.01,-35.03 70.35,-85.62 88,-151.69 6.55,-0.66 13.1,-1.33 19.94,-2.07 -5.41,39 -10.84,78.08 -16.24,116.99 -5.42,39.08 -10.82,78.09 -16.23,117 -209.33,18.71 -418.38,30.31 -627.44,31.47 0,-6.13 0,-12.34 0,-18.55 7.98,0.08 15.96,0.16 23.93,0.25 21.08,0.24 37.81,-3.52 50.69,-10.68 9.32,-5.18 16.19,-13.64 21.36,-25.92 3.65,-8.67 5.98,-31.3 5.98,-68.06 0,-79.82 0,-159.72 0,-239.54 0,-79.82 0,-159.72 0,-239.62 0,-33.04 -0.8,-53.26 -2.85,-60.94 -3.36,-12.6 -10.13,-21.98 -19.65,-28.9 -13.82,-10.05 -31.9,-15.58 -55.54,-15.89 -7.97,-0.1 -15.95,-0.17 -23.93,-0.25 0,-6.21 0,-12.42 0,-18.71 202.5,-1.08 405,-11.92 607.5,-29.64 0,35.85 0,71.79 0,107.56 0,35.77 0,71.71 0,107.47 -7.12,0.66 -14.24,1.41 -21.08,1.99 -10.26,-51.67 -24.78,-87.94 -43.29,-108.89 -18.79,-21.28 -45.01,-35.74 -79.18,-43.64 -19.94,-4.6 -57.23,-4.94 -111.93,-1.32 -25.33,1.67 -50.7,2.9 -75.76,4.22zm724.84 287.82c0,34.28 0,68.39 0,102.59 0,34.2 0,68.31 0,102.51 0,39.08 2.35,63.73 7.12,73.28 4.9,9.82 13.4,16.95 25.35,21.78 12.25,4.94 35.03,5.96 68.35,3.06 0,6.21 0,12.42 0,18.55 -123.89,11.51 -247.78,24.35 -371.67,37.51 0,-6.13 0,-12.33 0,-18.54 33.61,-3.56 56.41,-9.17 68.36,-16.65 11.98,-7.5 20.33,-16.64 25.06,-26.91 4.95,-10.76 7.41,-35.6 7.41,-74.69 0,-79.08 0,-158.23 0,-237.39 0,-79.07 0,-158.23 0,-237.39 0,-39.25 -2.57,-63.6 -7.41,-73.19 -4.85,-9.63 -13.35,-16.89 -25.35,-21.61 -12.21,-4.8 -34.75,-5.46 -68.07,-1.9 0,-6.13 0,-12.42 0,-18.71 112.5,-11.92 224.96,-24.17 337.5,-34.53 87.96,-8.1 152.1,-6.33 192.81,3.39 40.74,9.73 74.06,30.39 99.97,62.43 25.64,31.71 38.45,69.55 38.45,113.6 0,53.57 -19.41,98.66 -57.82,135.13 -24.81,23.56 -59.24,42.15 -103.67,55.73 28.76,39.33 58.16,78.7 86.86,118.23 28.82,39.7 57.96,79.77 87.16,119.57 22.92,31.24 39.41,50.82 49.27,58.37 14.35,10.99 31.9,16.56 51.27,17.47 0,6.54 0,13.08 0,19.62 -76.33,1 -152.66,3.39 -228.99,7.21 -39.3,-52.99 -78.21,-105.33 -117.34,-157.66 -38.9,-52 -78.04,-103.75 -117.05,-155.41 -15.95,1.49 -31.9,2.98 -47.56,4.56zm0 -355.22c0,52.91 0,105.74 0,158.48 0,52.83 0,105.66 0,158.48 9.97,-0.99 20.22,-2.03 30.48,-2.98 49.55,-4.6 86.89,-12.37 111.65,-23.52 24.51,-11.04 43.99,-28.91 58.1,-53.57 14.08,-24.6 21.08,-56.06 21.08,-94.06 0,-55.15 -12.75,-95.05 -38.73,-119.4 -26.13,-24.5 -67.79,-34.14 -125.32,-28.98 -19.09,1.71 -38.17,3.64 -57.25,5.55z"/>
   <g>
    <path class="fil8" d="M4026.1 1362.23l-4.94 -15.96c0,0 -224.72,-314.81 -651.72,-372.01l-41.22 1.39 -43.25 -7.3c0,0 -257.06,-16.12 -451.12,52.05l-12.44 8.25c0,0 -467.45,130.76 -644.3,617.53l-29.77 44.03c0,0 -76.61,188.25 -70.16,434.29l4.45 16.44 -6.65 48.59c0,0 37.32,448.73 355.57,711.9l18.46 4.51 8.52 13.64c0,0 204.6,196.75 510.84,236.11l15.46 -4.44 13.52 9.33c0,0 367.66,65.13 691.41,-111.58l8.49 -8.32 21.81 -5.89c0,0 288.56,-132.97 434.67,-447.24l4.99 -25.08 14.15 -15.13c0,0 144.16,-214.02 98.65,-630.66l-4.37 -13.55c0,0 -31.24,-299.89 -241.02,-540.89l0 0z"/>
    <path class="fil9" d="M3489.81 1108.43c-3.93,0.99 -7.83,2 -11.69,3.03 -2.33,0.62 -4.59,1.27 -6.91,1.89 -3.48,1.01 -6.95,1.96 -10.38,3.03 -2.38,0.68 -4.74,1.42 -7.1,2.12 -3.32,1.02 -6.6,2.07 -9.86,3.13 -2.38,0.74 -4.71,1.51 -7.03,2.31 -3.24,1.06 -6.41,2.15 -9.59,3.24 -2.28,0.81 -4.55,1.61 -6.84,2.42 -3.22,1.19 -6.38,2.39 -9.56,3.55 -2.11,0.78 -4.23,1.53 -6.34,2.34 -3.45,1.33 -6.82,2.72 -10.19,4.02 -1.78,0.7 -3.54,1.41 -5.27,2.09 -5,2.05 -9.96,4.11 -14.82,6.21l-2.84 1.26c-3.92,1.71 -7.85,3.43 -11.69,5.16 -1.79,0.82 -3.51,1.64 -5.29,2.46 -2.94,1.32 -5.9,2.7 -8.78,4.07 -1.89,0.9 -3.76,1.78 -5.61,2.71 -2.65,1.28 -5.34,2.57 -7.91,3.86 -1.92,0.95 -3.75,1.86 -5.58,2.8 -2.58,1.29 -5.05,2.53 -7.52,3.83 -1.8,0.93 -3.58,1.84 -5.33,2.75 -2.46,1.3 -4.88,2.6 -7.27,3.9 -1.67,0.88 -3.32,1.75 -4.95,2.64 -2.5,1.34 -4.95,2.74 -7.38,4.09 -1.39,0.76 -2.84,1.52 -4.18,2.3 -2.85,1.61 -5.59,3.2 -8.32,4.78l-2.65 1.52c-3.62,2.08 -7.1,4.16 -10.49,6.15l-0.14 0.1c140.67,-44.94 534.44,154.61 653.81,617.96l136.78 -72.21 14.99 -162.45 -133.19 -251.95c-166.74,-161.4 -427.05,-230.69 -427.05,-230.69 -6.04,1.28 -12.02,2.67 -17.94,4.11 -1.99,0.47 -3.93,0.99 -5.9,1.48z"/>
    <path class="fil10" d="M3864.2 2727.53c0,0 188.21,-96.29 294.28,-252.35 0,0 83.59,-127.92 91.34,-458.92l-35.55 -160.78 -134.49 -97.28 -19.24 -5.19c0,0 -58.02,52.8 -127.77,107.98 97.58,334.39 25.16,700.43 -68.58,866.55z"/>
    <path class="fil11" d="M2275.1 2239.04c18.74,-55.69 73.67,-180.6 136.23,-195.2 25.38,-5.9 137.35,16.31 241.52,34.24 104.19,17.94 168.57,28.96 188.24,75.17 10.45,24.51 127.39,268.76 154.87,329.36 27.51,60.63 14.85,90.39 -11.07,132.32l0.2 0.22c-38.49,57.81 -87.98,140.34 -106.85,168.54 -33.45,50 -30.84,100.41 -185.04,74.69 -115.45,-19.25 -167.01,-44.37 -215.79,-80.54 -137.75,-102.19 -210.09,-264.81 -224.09,-403.98 -4.5,-44.84 9.8,-99.26 21.79,-134.82zm-67.59 145.44c98.37,263.4 203.52,394.65 203.52,394.65l33.37 33.05 230.95 125.01 168.03 -30.18 164.74 -267.55 0.04 0.07 63.15 -96.95 -206.54 -467.83 -473.64 -78.59 -19.57 -0.34 -100.19 69.88 0.81 85.83c-75.73,146.65 -64.67,232.94 -64.67,232.94l0 -0z"/>
    <path class="fil10" d="M2336.05 2715.5c-70.51,-118.76 -124.38,-242.25 -138.49,-278.88 -14.46,-37.61 -17.21,-52.9 -31.79,-72.18 -14.57,-19.3 -84.97,-120.98 -90.17,-222.65l-6.66 48.59c0,0 37.32,448.72 355.57,711.9 0,0 -18.61,-58.48 -24.98,-87.07 -5.19,-23.37 -33.86,-49.81 -63.49,-99.7l0 -0z"/>
    <path class="fil12" d="M2352.54 1546.06c0,0 130.05,-205.27 375.62,-352.9l145.67 -69.41 190.46 40.36 96.69 84.66c0,0 62.08,358.44 52.43,376.36 -9.65,17.91 -192.65,153.15 -320.37,276.23 0,0 -26.01,-340.6 -540.5,-355.29l0 -0z"/>
    <path class="fil13" d="M2171.08 1647.02c48.99,-81.78 106.16,-95.46 134.16,-105.22 28.03,-9.73 48.44,-40.77 48.44,-40.77 103.74,-167.68 280.63,-280.22 314.3,-297 33.63,-16.79 42.31,-48.36 42.31,-48.36 47.67,-91.54 105.1,-126.19 105.1,-126.19 0,0 -467.45,130.76 -644.3,617.53l-0 0z"/>
    <path class="fil14" d="M3133.94 3146.29c0,0 -6.64,19.97 -142.63,15.11 0,0 367.66,65.13 691.41,-111.57l8.49 -8.32 -86.23 21.25c0,0 -221.28,101.38 -471.04,83.54l0.01 0z"/>
    <path class="fil15" d="M4253.79 2025.63c0,0 16.29,255.21 -79.79,474.4l-7.16 48.12c0,0 144.16,-214.01 98.65,-630.66l-4.37 -13.55c0,0 7.51,62.53 -7.33,121.68z"/>
    <path class="fil16" d="M4054.69 1753.22c0,0 -191.88,174.6 -297.32,220.71 0,0 -2.75,262.96 -93.94,510.84 78.55,111.62 157.91,203.23 194.92,242.96 0,0 188.21,-96.3 294.29,-252.34 0,0 83.56,-127.95 91.33,-458.95l-35.55 -160.75 -134.48 -97.3 -19.24 -5.17z"/>
    <path class="fil13" d="M3282.17 1621.33c89.42,29.73 472.06,260.91 472.06,260.91l298.81 -134.09 14.98 -162.45 -133.19 -251.95c-166.74,-161.4 -427.07,-230.7 -427.07,-230.7 -180.43,38.4 -314.51,146.08 -314.51,146.08l88.92 372.2 0.01 -0z"/>
    <path class="fil15" d="M3391.99 974.1l-62.69 2.14c94.24,6.04 197.07,98.83 197.07,98.83 278.83,96 397.23,240.7 397.23,240.7l5.1 9.71 12.72 8.03 81.64 73.4 12.08 -26.06c-4.9,-5.99 -9.9,-11.91 -15.05,-17.8 0,0 -201.12,-331.72 -628.11,-388.96z"/>
    <path class="fil17" d="M2945.01 3164.47c0,0 34.28,-8.1 38.31,-8.41 17.78,-1.36 100.7,-8.45 107.25,-9.78 6.56,-1.3 19.02,-12.02 22.11,-17.96 3.1,-5.95 -18.58,-7.43 -45.57,-25.17 -26.99,-17.81 -178.74,-137.55 -197.11,-160.38 -18.36,-22.83 -22.73,-43.19 -22.73,-43.19 0,0 -22.92,15.45 -86.36,3.68 -63.43,-11.73 -241.09,-43.31 -331.87,-111.04 0,0 -6.78,1.22 -6.21,17.78 0.57,16.57 6.76,69.66 20.15,96.79l16.65 36.82c0,0 179.14,181.48 485.38,220.88z"/>
    <path class="fil17" d="M2071.16 2125.33l4.45 16.44c0,0 11.36,46.05 42.96,99.69 31.61,53.64 66.6,103.72 88.45,114.71 0,0 30.45,-196.48 184.11,-360 0,0 -25.29,-25.52 -32.45,-63.37 -7.15,-37.87 -34.23,-287.09 -15.77,-374.7 0,0 -15.76,-4.83 -51.92,10.1 -36.11,14.89 -85.66,38.67 -119.91,78.82l-29.77 44.03c0,0 -76.62,188.25 -70.16,434.28l0 0z"/>
    <path class="fil9" d="M3486.66 1108.55c-3.93,0.97 -7.84,1.99 -11.7,3.02 -2.33,0.61 -4.62,1.27 -6.9,1.89 -3.47,1.02 -6.95,1.98 -10.41,3.02 -2.36,0.7 -4.73,1.45 -7.09,2.12 -3.29,1.03 -6.58,2.1 -9.84,3.15 -2.37,0.76 -4.72,1.51 -7.07,2.32 -3.2,1.05 -6.39,2.14 -9.58,3.24 -2.26,0.79 -4.56,1.58 -6.84,2.42 -3.19,1.15 -6.39,2.35 -9.55,3.53 -2.13,0.77 -4.27,1.54 -6.36,2.34 -3.4,1.34 -6.8,2.7 -10.21,4.02 -1.73,0.7 -3.49,1.4 -5.22,2.1 -5.03,2.04 -9.95,4.1 -14.83,6.21l-2.84 1.25c-3.94,1.73 -7.85,3.44 -11.71,5.16 -1.76,0.81 -3.51,1.62 -5.27,2.44 -2.97,1.35 -5.89,2.7 -8.76,4.11 -1.91,0.88 -3.76,1.78 -5.65,2.7 -2.68,1.28 -5.33,2.58 -7.94,3.86 -1.84,0.95 -3.71,1.86 -5.57,2.79 -2.53,1.27 -5.04,2.53 -7.5,3.82 -1.81,0.93 -3.57,1.84 -5.33,2.74 -2.48,1.33 -4.89,2.61 -7.29,3.92 -1.65,0.88 -3.29,1.73 -4.92,2.64 -2.51,1.34 -4.95,2.74 -7.4,4.07 -1.39,0.79 -2.8,1.54 -4.17,2.33 -2.86,1.59 -5.61,3.18 -8.34,4.76l-2.63 1.53c-3.58,2.08 -7.1,4.16 -10.48,6.17l-0.13 0.08c140.66,-44.92 534.4,154.64 653.78,617.95l136.8 -72.18 14.97 -162.46 -133.2 -251.93c-166.72,-161.4 -427.06,-230.72 -427.06,-230.72 -6.02,1.28 -11.99,2.69 -17.92,4.1 -1.97,0.48 -3.91,1 -5.88,1.51z"/>
    <path class="fil10" d="M3861.05 2727.66c0,0 188.21,-96.3 294.26,-252.35 0,0 83.58,-127.93 91.34,-458.96l-35.55 -160.77 -134.5 -97.24 -19.22 -5.19c0,0 -58.02,52.79 -127.77,107.96 97.58,334.41 25.18,700.41 -68.56,866.56z"/>
    <path class="fil17" d="M2837.47 1003.32l-83.63 111.28 -25.68 78.55c275.54,-28.92 432.82,55.61 432.82,55.61l12.76 -26.83c174.11,-109.55 325.73,-133.27 325.73,-133.27 -59.86,-93.22 -240.24,-139.32 -240.24,-139.32 0,0 -227.67,-14.23 -421.76,53.97l-0 0z"/>
    <path class="fil17" d="M4048.69 1749.98c0,0 134.63,107.77 195.12,276.71 0,0 36.18,-68.13 28.11,-149.46 -7.68,-54.73 -26.48,-278.42 -213.23,-493.01 0,0 -86.85,-49.58 -130.01,-58.74 0,0 114.87,159.88 120,424.5z"/>
    <path class="fil17" d="M4165.26 2609.06l-8.68 -92.77c0,0 -157.74,177.36 -271.52,221.31 0,0 -27.6,7.28 -41.4,3.85 0,0 1.23,21.46 -4.57,37.75 -5.8,16.34 -96.1,168.9 -219.39,271.34 0,0 47.49,-4.18 71.5,-9.03l50.44 -3.95c0,0 277.51,-114.26 423.62,-428.51l0 0z"/>
    <path class="fil15" d="M2632.2 1158.35c77.66,-14.91 55.66,28.68 37.71,44.6 31.97,-17.04 40.37,-47.29 40.37,-47.29 47.67,-91.54 105.1,-126.19 105.1,-126.19 0,0 -467.45,130.76 -644.3,617.53 80.19,-198.14 362.07,-469.62 461.11,-488.67l0 0z"/>
    <path class="fil18" d="M2190.15 2320.6c0,0 -92.82,-373.04 112.61,-708.38 0,0 2.73,307.72 50.02,376.43 0,0 -120.75,127.27 -162.63,331.95z"/>
    <path class="fil18" d="M2840.72 2965.87c57.53,47.35 129.61,117.11 215.03,160.99 5.46,2.84 13.43,3.23 19.09,5.28l-13.39 8.97 -114.67 6.98c0,0 -105.79,-201.99 -495.8,-286.15l-14.6 -33.41c0,0 178.92,100.79 382.43,102.33 0,0 -0.13,16.89 21.91,35.01z"/>
    <path class="fil8" d="M3422.09 2499.6c0,0 -268.4,38.48 -322.32,-39.07 -48.03,-69.04 -174.27,-298.26 -174.27,-298.26 0,0 128.61,301.43 145.5,333.4 16.89,32.02 48.34,56.59 111.19,47.55 62.84,-9.08 239.9,-43.61 239.9,-43.61z"/>
    <path class="fil8" d="M3004.9 3098.31c0,0 -123.25,-102.36 -136.9,-116.03 -13.64,-13.65 -44.7,-43.08 -39.18,-62.11 0,0 -4.84,7.69 -25.83,9.12 -12.4,0.84 -34.4,-3.01 -50.35,-5.24 -43.08,-6.04 -169.31,-33.63 -169.31,-33.63 0,0 54.09,18.27 83.3,24.91 53.78,12.35 119.02,41.3 140.78,54.53 25.79,15.68 197.48,128.46 197.48,128.46z"/>
    <path class="fil8" d="M2190.15 2320.6c0,0 37.18,-214.23 55.81,-283.34 14.6,-53.96 69.11,-207.52 69.11,-207.52 0,0 7.76,85.36 29.86,137.96 4.1,9.66 11.77,19.03 18.41,23.21 0,0 -121.33,130.52 -173.19,329.69z"/>
    <path class="fil18" d="M3727.9 3028.29c0,0 193.65,-95.09 257.94,-315.66 0,0 107.67,-51.53 157.29,-114.8 0,0 -124.23,281.73 -415.23,430.46l-0 0z"/>
    <path class="fil19" d="M4256.52 1969.58c0,0 8.12,-298.52 -220.27,-591.2 0,0 73.9,132.04 82.72,290.3 5.05,90.72 106.83,159.3 137.55,300.89z"/>
    <path class="fil20" d="M3395.74 1041.39c0,0 -54.42,-76.59 -273.12,-64.38 -109.33,6.07 -209.4,22.06 -265.11,41.47 -31.38,11.67 -55.8,61.95 -74.6,103.92 0,0 28.05,-75.55 125.17,-95.8 97.07,-20.19 371.57,-52.73 487.66,14.79l-0 0z"/>
    <path class="fil21" d="M3201.07 1507.28c0,0 -39.29,-213.84 -45.03,-231.25 -5.71,-17.38 -57.72,-38.31 -91.75,-47.41 -34.04,-9.11 -180,-34.9 -315.34,-28.1 0,0 313.84,19.57 367.66,101.05 52.18,78.98 84.45,205.71 84.45,205.71l0 0z"/>
    <path class="fil8" d="M3844.28 2744.85c0,0 -197.01,-189.67 -214.35,-210.61 -17.32,-20.89 -99.16,15.13 -239.23,33.12 -140.1,17.98 -276.3,35.81 -296.46,46.75 -20.12,10.93 -153.83,201.66 -183.16,243.68 -29.37,42.06 -32.73,71.48 -2.42,101.22 30.34,29.74 178.99,147.8 224.43,162.85 45.47,15.07 88.4,13.6 151.71,7.54 63.3,-6.1 198.82,-29.52 340.01,-79.78 141.19,-50.26 219,-175.33 223.34,-198.19 4.36,-22.82 -3.87,-106.58 -3.87,-106.58z"/>
    <path class="fil21" d="M2708.99 1203.12c0,0 -229.65,142.68 -358.87,343.5l39.38 1.02c0,0 97.14,-173.76 319.49,-344.52z"/>
    <path class="fil15" d="M2171.63 2372.95c-1.77,-2.81 -3.68,-5.62 -5.87,-8.52 -14.57,-19.3 -84.97,-120.98 -90.17,-222.65l-6.66 48.59c0,0 37.32,448.72 355.57,711.9 0,0 -168.48,-169.63 -232.6,-358.97 -51.43,-151.87 -41.56,-183.79 -20.28,-170.35l0 -0z"/>
    <path class="fil8" d="M4246.77 2013.41c0,0 8.4,-72.87 -60.92,-167.48 -88.91,-121.28 -125.62,-101.7 -125.62,-101.7 0,0 145.65,116.16 186.54,269.18z"/>
    <path class="fil22" d="M3135.33 1214.35c7.59,2.59 27.65,-7.99 44.95,-18.47 148.62,-90.03 266.19,-109.81 266.19,-109.81 -128.24,10.4 -243.25,61.64 -281.79,77.55 -26.27,10.84 -34.32,8.64 -57.8,3.44 -47.56,-10.52 -237.56,-17.22 -343.31,10.28 0,0 181.41,-37.07 371.76,37.02l-0 0z"/>
    <path class="fil8" d="M3639.95 3042.27c0,0 81.87,-73.65 125.01,-126.76 45.01,-55.44 100.21,-109.6 86.12,-164.28 0,0 43.12,10.73 78.18,-13.9 0,0 -61.76,165.51 -289.31,304.95l-0 0z"/>
    <path class="fil17" d="M3632.44 2464.79c13.67,-35.14 76.45,-236.61 82.84,-478.67 0,0 2.48,-27.43 -38.68,-59.29 -41.14,-31.8 -377.87,-227.69 -398.66,-235.78 -20.8,-8.09 -33.94,-6.9 -57.47,12.23 -23.53,19.13 -320.06,298.93 -342.67,323.17 -22.63,24.21 -30.22,59.65 -10.97,108.82 19.27,49.17 145.76,319.43 174.75,367.28 29,47.88 51.4,74.48 123.43,66.16 72.03,-8.34 315.46,-47.43 376.61,-59.28 61.15,-11.85 80.03,-16.9 90.81,-44.64z"/>
    <path class="fil23" d="M3583.05 2451.91c0,0 41.23,-254.6 -56.7,-432.96 -97.94,-178.4 -226.2,-271.73 -291.86,-247.99 -65.61,23.75 -299.47,222.24 -318.39,344.04l666.94 336.9 0 0z"/>
    <path class="fil18" d="M3076.16 2478.93c25.01,41.28 44.31,64.18 106.41,57.02 62.12,-7.16 271.98,-40.87 324.71,-51.12 48.34,-9.34 66,-13.83 75.77,-32.92 -28.66,-76.99 -162.85,-336.9 -666.94,-336.9 -0.42,13.78 2.43,29.47 9.39,47.26 16.61,42.37 125.67,275.38 150.66,316.67l0 -0z"/>
   </g>
  </g>
 </g>
</svg>
