<?xml version="1.0" encoding="UTF-8"?>
<!DOCTYPE svg PUBLIC "-//W3C//DTD SVG 1.1//EN" "http://www.w3.org/Graphics/SVG/1.1/DTD/svg11.dtd">
<!-- Creator: CorelDRAW 2020 (64 Bit) -->
<svg xmlns="http://www.w3.org/2000/svg" xml:space="preserve" width="62mm" height="34.8029mm" version="1.1" style="shape-rendering:geometricPrecision; text-rendering:geometricPrecision; image-rendering:optimizeQuality; fill-rule:evenodd; clip-rule:evenodd"
viewBox="0 0 1727.46 969.69"
 xmlns:xlink="http://www.w3.org/1999/xlink"
 xmlns:xodm="http://www.corel.com/coreldraw/odm/2003">
 <defs>
  <style type="text/css">
   <![CDATA[
    .fil0 {fill:#ED3237}
    .fil1 {fill:#0B8B57}
   ]]>
  </style>
 </defs>
 <g id="Camada_x0020_1">
  <metadata id="CorelCorpID_0Corel-Layer"/>
  <g id="_2853103187648">
   <polygon class="fil0" points="863.73,0 1727.46,484.84 863.73,969.69 -0,484.84 "/>
   <polygon class="fil1" points="863.73,54.85 1629.61,484.84 863.73,914.84 97.85,484.84 "/>
   <path class="fil0" d="M1284.07 447.33l0 75.03 -136.68 0 0 193.94 -75.25 42.12 0 -547.15 239.35 134.27 0 86.22 -164.1 -92.15 0 107.72 136.68 0zm-792.86 -57.7l0 57.7 136.68 0 0 75.03 -136.68 0 0 143.92 -75.25 -42.12 0 -278.61 239.35 -134.27 0 86.22 -164.1 92.14zm314.6 57.7l115.83 0 0 -234.3 -57.91 -32.69 -57.92 32.69 0 234.3zm115.83 75.03l-115.83 0 0 320.52 -75.25 -42.12 0 -631.83 133.17 -74.81 133.18 74.81 0 278.4 -37.53 37.51 37.53 37.52 0 278.4 -75.26 42.12 0 -320.52z"/>
  </g>
 </g>
</svg>
