<?xml version="1.0" encoding="UTF-8"?>
<!DOCTYPE svg PUBLIC "-//W3C//DTD SVG 1.1//EN" "http://www.w3.org/Graphics/SVG/1.1/DTD/svg11.dtd">
<!-- Creator: CorelDRAW 2020 (64 Bit) -->
<svg xmlns="http://www.w3.org/2000/svg" xml:space="preserve" width="77.8344mm" height="93.1779mm" version="1.1" style="shape-rendering:geometricPrecision; text-rendering:geometricPrecision; image-rendering:optimizeQuality; fill-rule:evenodd; clip-rule:evenodd"
viewBox="0 0 151.83 181.76"
 xmlns:xlink="http://www.w3.org/1999/xlink"
 xmlns:xodm="http://www.corel.com/coreldraw/odm/2003">
 <defs>
  <style type="text/css">
   <![CDATA[
    .fil3 {fill:black}
    .fil0 {fill:#1E70B9}
    .fil2 {fill:#F9B234}
    .fil1 {fill:white}
   ]]>
  </style>
 </defs>
 <g id="Camada_x0020_1">
  <metadata id="CorelCorpID_0Corel-Layer"/>
  <g id="_1932409948464">
   <path class="fil0" d="M75.92 0c-39.07,0.69 -32.89,25.58 -75.92,49.46 10.92,13.83 20.87,29.59 21.46,48.9 0.45,14.83 -3.55,29.83 3.1,43.35 9.64,19.61 38.89,25.58 51.36,40.04 12.47,-14.47 41.72,-20.43 51.36,-40.04 6.65,-13.52 2.64,-28.52 3.1,-43.35 0.59,-19.31 10.54,-35.08 21.46,-48.9 -43.03,-23.89 -36.85,-48.77 -75.92,-49.46z"/>
   <path class="fil1" d="M75.92 6.01c-9.24,0.17 -17.51,1.65 -24.96,7.43 -2.87,2.23 -5.44,4.87 -7.9,7.53 -3.09,3.34 -6.08,6.76 -9.24,10.04 -7.68,7.98 -15.74,14.5 -24.93,20.21 10.24,13.95 18.03,29.03 18.58,46.97 0.07,2.36 0.04,4.72 -0.05,7.08 -0.4,10.88 -2.44,23.69 2.53,33.81 7.67,15.61 31.59,22.09 45.97,34.3 14.38,-12.21 38.29,-18.69 45.97,-34.3 1.38,-2.81 2.23,-5.78 2.71,-8.88 1.24,-8.02 0.11,-16.83 -0.18,-24.93 -0.09,-2.36 -0.12,-4.72 -0.05,-7.08 0.55,-17.94 8.33,-33.02 18.58,-46.97 -9.19,-5.7 -17.25,-12.23 -24.93,-20.21 -3.16,-3.28 -6.15,-6.7 -9.24,-10.04 -2.46,-2.66 -5.03,-5.3 -7.9,-7.53 -7.44,-5.78 -15.71,-7.25 -24.96,-7.43z"/>
   <path class="fil0" d="M75.92 168.67c5.09,-3.9 10.83,-7.12 16.39,-10.23 8.87,-4.96 21.64,-11.52 26.3,-20.99 1.22,-2.47 1.96,-5.11 2.38,-7.82 1.21,-7.8 0.06,-16.36 -0.22,-24.24 -0.09,-2.44 -0.12,-4.88 -0.05,-7.32 0.53,-17.27 7.39,-32.05 17.02,-45.86 -8.15,-5.4 -15.53,-11.58 -22.35,-18.67 -3.17,-3.3 -6.19,-6.74 -9.29,-10.09 -2.33,-2.51 -4.74,-5.02 -7.45,-7.12 -6.77,-5.25 -14.36,-6.5 -22.72,-6.66 -8.36,0.16 -15.95,1.41 -22.72,6.66 -2.71,2.1 -5.13,4.61 -7.45,7.12 -3.11,3.36 -6.12,6.8 -9.29,10.09 -6.83,7.09 -14.2,13.27 -22.35,18.67 9.63,13.81 16.49,28.59 17.02,45.86 0.07,2.44 0.04,4.88 -0.05,7.32 -0.37,9.98 -2.38,22.84 2.16,32.06 4.66,9.47 17.43,16.03 26.3,20.99 5.56,3.11 11.3,6.32 16.39,10.23z"/>
   <g>
    <path class="fil2" d="M72.98 11.62c-2.77,0.16 -5.46,0.49 -8.04,1.12l0 28.58c2.57,-0.82 5.26,-1.36 8.04,-1.58l0 -28.12zm-8.04 147.77c2.73,1.56 5.43,3.18 8.04,4.93l0 -52.56c-2.78,-0.22 -5.48,-0.76 -8.04,-1.58l0 49.22z"/>
    <path class="fil2" d="M78.85 164.32c2.61,-1.75 5.31,-3.37 8.04,-4.93l0 -49.22c-2.57,0.82 -5.26,1.36 -8.04,1.58l0 52.56zm8.04 -151.58c-2.59,-0.63 -5.27,-0.96 -8.04,-1.12l0 28.12c2.78,0.22 5.48,0.76 8.04,1.58l0 -28.58z"/>
   </g>
   <g>
    <path class="fil2" d="M29.22 77.25c0.88,2.63 1.61,5.31 2.2,8.04l9.65 0c-0.7,-2.58 -1.13,-5.27 -1.25,-8.04l-10.6 0zm91.2 8.04c0.58,-2.74 1.32,-5.42 2.2,-8.04l-10.6 0c-0.11,2.77 -0.54,5.47 -1.25,8.04l9.65 0z"/>
    <path class="fil2" d="M23.15 63.34c1.42,2.64 2.71,5.31 3.85,8.04l13.04 0c0.34,-2.79 0.99,-5.49 1.92,-8.04l-18.82 0zm101.67 8.04c1.15,-2.73 2.44,-5.41 3.85,-8.04l-18.82 0c0.94,2.56 1.59,5.25 1.92,8.04l13.04 0z"/>
   </g>
   <circle class="fil1" cx="75.92" cy="75.74" r="32.34"/>
   <path class="fil3" d="M68.77 62.32l13.37 0 0 4.7 -4.34 0 0 22.14 -4.7 0 0 -22.14 -4.34 0 0 -4.7zm16.26 0l11.56 0 0 4.7 -6.86 0 0 6.17 5.83 0 0 4.7 -5.83 0 0 11.28 -4.7 0 0 -11.28 0 -4.7 0 -6.17 0 -2.35 0 -2.35zm-29.78 0l11.56 0 0 4.7 -6.86 0 0 6.17 5.83 0 0 4.7 -5.83 0 0 11.28 -4.7 0 0 -11.28 0 -4.7 0 -6.17 0 -2.35 0 -2.35z"/>
  </g>
 </g>
</svg>
